<?xml version="1.0" encoding="UTF-8" standalone="no"?>
<svg
   xmlns:dc="http://purl.org/dc/elements/1.1/"
   xmlns:cc="http://creativecommons.org/ns#"
   xmlns:rdf="http://www.w3.org/1999/02/22-rdf-syntax-ns#"
   xmlns:svg="http://www.w3.org/2000/svg"
   xmlns="http://www.w3.org/2000/svg"
   style="fill:none;stroke:none;stroke-linecap:square;stroke-miterlimit:10"
   height="107.49608"
   width="437.25983"
   id="svg221"
   stroke-miterlimit="10"
   viewBox="0 0 437.25983 107.49608"
   version="1.1">
  <metadata
     id="metadata227">
    <rdf:RDF>
      <cc:Work
         rdf:about="">
        <dc:format>image/svg+xml</dc:format>
        <dc:type
           rdf:resource="http://purl.org/dc/dcmitype/StillImage" />
        <dc:title></dc:title>
      </cc:Work>
    </rdf:RDF>
  </metadata>
  <defs
     id="defs225" />
  <clipPath
     id="g28937a38c67_1_0.0">
    <path
       style="clip-rule:nonzero"
       id="path2"
       d="M 0,0 H 960 V 540 H 0 Z" />
  </clipPath>
  <g
     transform="translate(-48.39107,-217.85301)"
     id="g219"
     clip-path="url(#g28937a38c67_1_0.0)">
    <path
       style="fill:#d9d9d9;fill-rule:evenodd"
       id="path117"
       d="m 204.94357,243.20473 h 124.15747 v 76.50392 H 204.94357 Z" />
    <path
       style="fill-rule:evenodd;stroke:#595959;stroke-width:1;stroke-linecap:butt;stroke-linejoin:round"
       id="path119"
       d="m 204.94357,243.20473 h 124.15747 v 76.50392 H 204.94357 Z" />
    <path
       style="fill:#000000;fill-opacity:0;fill-rule:evenodd"
       id="path121"
       d="m 142.95538,255.33667 h 61.98425 v 14.86615 h -61.98425 z" />
    <path
       style="fill:#202122;fill-rule:nonzero"
       id="path123"
       d="m 162.26224,267.20593 q -0.78125,0 -1.51563,-0.29687 -0.71875,-0.3125 -1.3125,-0.89063 -0.57812,-0.59375 -0.92187,-1.45312 -0.34375,-0.875 -0.34375,-2.03125 0,-1.09375 0.34375,-1.95313 0.34375,-0.875 0.92187,-1.46875 0.59375,-0.59375 1.3125,-0.90625 0.73438,-0.3125 1.51563,-0.3125 0.76562,0 1.48437,0.29688 0.73438,0.29687 1.3125,0.89062 0.59375,0.57813 0.9375,1.45313 0.34375,0.85937 0.34375,2 0,1.09375 -0.34375,1.96875 -0.34375,0.85937 -0.92187,1.46875 -0.57813,0.60937 -1.3125,0.92187 -0.73438,0.3125 -1.5,0.3125 z m 0,-0.67187 q 0.6875,0 1.1875,-0.32813 0.5,-0.34375 0.8125,-0.90625 0.3125,-0.57812 0.45312,-1.28125 0.15625,-0.71875 0.15625,-1.48437 0,-0.75 -0.15625,-1.45313 -0.14062,-0.71875 -0.45312,-1.28125 -0.3125,-0.57812 -0.8125,-0.90625 -0.5,-0.34375 -1.1875,-0.34375 -0.6875,0 -1.1875,0.34375 -0.5,0.32813 -0.82813,0.90625 -0.3125,0.5625 -0.46875,1.28125 -0.15625,0.70313 -0.15625,1.45313 0,0.76562 0.15625,1.48437 0.15625,0.70313 0.46875,1.28125 0.32813,0.5625 0.82813,0.90625 0.5,0.32813 1.1875,0.32813 z m 5.17294,3.65625 v -0.46875 l 1.0625,-0.1875 q 0.0156,-0.54688 0.0156,-1.09375 0.0156,-0.53125 0.0156,-1.0625 v -3.8125 q 0,-0.54688 -0.0156,-0.90625 0,-0.35938 -0.0312,-0.76563 l -1.04688,-0.10937 v -0.46875 l 1.85938,-0.8125 0.20312,0.125 0.0781,0.875 q 0.95312,-1 2.01562,-1 0.71875,0 1.28125,0.40625 0.57813,0.39062 0.92188,1.14062 0.34375,0.73438 0.34375,1.76563 0,1.03125 -0.35938,1.78125 -0.35937,0.75 -0.98437,1.17187 -0.60938,0.40625 -1.40625,0.40625 -0.45313,0 -0.90625,-0.1875 -0.4375,-0.1875 -0.85938,-0.67187 v 1.04687 q 0,0.53125 0,1.0625 0.0156,0.54688 0.0156,1.09375 l 1.21875,0.20313 v 0.46875 z m 3.84375,-8.9375 q -0.3125,0 -0.71875,0.15625 -0.39062,0.15625 -0.90625,0.57812 v 3.75 q 0.375,0.35938 0.73438,0.51563 0.35937,0.15625 0.73437,0.15625 0.75,0 1.28125,-0.59375 0.53125,-0.59375 0.53125,-1.89063 0,-1.28125 -0.46875,-1.96875 -0.46875,-0.70312 -1.1875,-0.70312 z m 6.05881,5.92187 q -0.6875,0 -1.10937,-0.375 -0.40625,-0.375 -0.40625,-1.14062 0,-0.25 0,-0.5 0,-0.25 0,-0.64063 v -3.14062 h -1.09375 v -0.57813 l 1.1875,-0.15625 0.34375,-1.78125 h 0.79687 l -0.0781,1.8125 h 1.79687 v 0.70313 h -1.8125 v 4.125 q 0,0.51562 0.20313,0.75 0.20312,0.23437 0.53125,0.23437 0.21875,0 0.42187,-0.0937 0.21875,-0.0937 0.46875,-0.26562 l 0.32813,0.34375 q -0.54688,0.70312 -1.57813,0.70312 z m 2.36287,-4.25 v -0.625 l 5.15625,-3 0.39062,0.71875 -4.625,2.59375 4.625,2.59375 -0.39062,0.71875 z m 10.24908,-4.21875 h -0.8125 q 0,0.84375 -0.0156,1.73438 0,0.89062 0,1.78125 v 0.64062 h 0.875 q 1.21875,0 1.73437,-0.59375 0.51563,-0.59375 0.51563,-1.53125 0,-0.96875 -0.5625,-1.5 -0.54688,-0.53125 -1.73438,-0.53125 z m -3.34375,-0.0781 v -0.54688 h 3.57813 q 1.6875,0 2.53125,0.75 0.85937,0.73438 0.85937,1.90625 0,0.75 -0.375,1.375 -0.375,0.625 -1.20312,1 -0.8125,0.375 -2.1875,0.375 h -0.6875 q 0,0.71875 0,1.42188 0.0156,0.6875 0.0156,1.40625 l 1.25,0.14062 v 0.54688 h -3.78125 v -0.54688 l 1.21875,-0.14062 q 0.0312,-0.84375 0.0312,-1.70313 0,-0.875 0,-1.73437 v -0.65625 q 0,-0.875 0,-1.73438 0,-0.85937 -0.0312,-1.70312 z m 13.56899,3.67187 v 0.625 l -5.15625,3 -0.39063,-0.71875 4.625,-2.59375 -4.625,-2.59375 0.39063,-0.71875 z" />
    <path
       style="fill:#000000;fill-opacity:0;fill-rule:evenodd"
       id="path125"
       d="m 153.83572,274.8892 h 51.10551" />
    <path
       style="fill-rule:evenodd;stroke:#595959;stroke-width:2;stroke-linecap:butt;stroke-linejoin:round"
       id="path127"
       d="m 153.83572,274.88916 h 39.10551" />
    <path
       style="fill:#595959;fill-rule:evenodd;stroke:#595959;stroke-width:2;stroke-linecap:butt"
       id="path129"
       d="m 192.94124,278.19263 9.07619,-3.30347 -9.07619,-3.30346 z" />
    <path
       style="fill:#000000;fill-opacity:0;fill-rule:evenodd"
       id="path131"
       d="m 153.83572,268.9384 h 18.39798 v 11.90158 h -18.39798 z" />
    <path
       style="fill:#000000;fill-opacity:0;fill-rule:evenodd"
       id="path133"
       d="m 186.52248,268.9384 h 18.39798 v 11.90158 h -18.39798 z" />
    <path
       style="fill:#000000;fill-opacity:0;fill-rule:evenodd"
       id="path135"
       d="M 204.94052,304.73465 H 153.835" />
    <path
       style="fill-rule:evenodd;stroke:#1c4587;stroke-width:2;stroke-linecap:butt;stroke-linejoin:round"
       id="path137"
       d="m 204.94052,304.73465 h -39.1055" />
    <path
       style="fill:#1c4587;fill-rule:evenodd;stroke:#1c4587;stroke-width:2;stroke-linecap:butt"
       id="path139"
       d="m 165.835,301.43118 -9.07619,3.30347 9.07619,3.30346 z" />
    <path
       style="fill:#000000;fill-opacity:0;fill-rule:evenodd"
       id="path141"
       d="m 153.85683,298.78387 h 18.39798 v 11.90158 h -18.39798 z" />
    <path
       style="fill:#000000;fill-opacity:0;fill-rule:evenodd"
       id="path143"
       d="m 186.54324,298.78387 h 18.39799 v 11.90158 h -18.39799 z" />
    <path
       style="fill:#000000;fill-opacity:0;fill-rule:evenodd"
       id="path145"
       d="m 329.10605,274.8892 h 51.10553" />
    <path
       style="fill-rule:evenodd;stroke:#595959;stroke-width:2;stroke-linecap:butt;stroke-linejoin:round"
       id="path147"
       d="m 329.10605,274.88916 h 39.10553" />
    <path
       style="fill:#595959;fill-rule:evenodd;stroke:#595959;stroke-width:2;stroke-linecap:butt"
       id="path149"
       d="m 368.21158,278.19263 9.0762,-3.30347 -9.0762,-3.30346 z" />
    <path
       style="fill:#000000;fill-opacity:0;fill-rule:evenodd"
       id="path151"
       d="m 329.10605,268.9384 h 18.39801 v 11.90158 h -18.39801 z" />
    <path
       style="fill:#000000;fill-opacity:0;fill-rule:evenodd"
       id="path153"
       d="m 361.79282,268.9384 h 18.39798 v 11.90158 h -18.39798 z" />
    <path
       style="fill:#000000;fill-opacity:0;fill-rule:evenodd"
       id="path155"
       d="M 380.21088,304.73465 H 329.10535" />
    <path
       style="fill-rule:evenodd;stroke:#1c4587;stroke-width:2;stroke-linecap:butt;stroke-linejoin:round"
       id="path157"
       d="M 380.21088,304.73465 H 341.10535" />
    <path
       style="fill:#1c4587;fill-rule:evenodd;stroke:#1c4587;stroke-width:2;stroke-linecap:butt"
       id="path159"
       d="m 341.10535,301.43118 -9.07617,3.30347 9.07617,3.30346 z" />
    <path
       style="fill:#000000;fill-opacity:0;fill-rule:evenodd"
       id="path161"
       d="m 329.12717,298.78387 h 18.39798 v 11.90158 h -18.39798 z" />
    <path
       style="fill:#000000;fill-opacity:0;fill-rule:evenodd"
       id="path163"
       d="m 361.8136,298.78387 h 18.39798 v 11.90158 H 361.8136 Z" />
    <path
       style="fill:#000000;fill-opacity:0;fill-rule:evenodd"
       id="path165"
       d="m 204.92046,274.8892 c 4.37944,0 6.56992,0.13385 8.75888,0.2677 2.18898,0.13385 4.37647,0.26773 8.75293,0.26773" />
    <path
       style="fill-rule:evenodd;stroke:#595959;stroke-width:1;stroke-linecap:butt;stroke-linejoin:round"
       id="path167"
       d="m 204.92046,274.88916 c 4.37946,0 6.5699,0.13388 8.75888,0.26773 0.54724,0.0335 1.09441,0.0669 1.67569,0.0983 0.29065,0.0157 0.58981,0.0308 0.9018,0.0452 l 0.1766,0.007" />
    <path
       style="fill:#595959;fill-rule:evenodd;stroke:#595959;stroke-width:1;stroke-linecap:butt"
       id="path169"
       d="m 216.40123,276.95914 4.56941,-1.56302 -4.50506,-1.73981 z" />
    <path
       style="fill:#000000;fill-opacity:0;fill-rule:evenodd"
       id="path171"
       d="m 311.60367,275.4357 c 4.37558,0 6.56219,-0.13385 8.75119,-0.26773 2.18896,-0.13385 4.38031,-0.2677 8.76062,-0.2677" />
    <path
       style="fill-rule:evenodd;stroke:#595959;stroke-width:1;stroke-linecap:butt;stroke-linejoin:round"
       id="path173"
       d="m 311.60367,275.4357 c 4.37561,0 6.56219,-0.13385 8.75119,-0.26773 0.54724,-0.0335 1.0946,-0.0669 1.67633,-0.0983 0.29083,-0.0157 0.59027,-0.0308 0.90256,-0.0452 l 0.18286,-0.008" />
    <path
       style="fill:#595959;fill-rule:evenodd;stroke:#595959;stroke-width:1;stroke-linecap:butt"
       id="path175"
       d="m 323.1487,276.6683 4.50516,-1.73962 -4.56937,-1.56324 z" />
    <path
       style="fill:#000000;fill-opacity:0;fill-rule:evenodd"
       id="path177"
       d="m 142.95538,284.15475 h 61.98425 v 14.86615 h -61.98425 z" />
    <path
       style="fill:#202122;fill-rule:nonzero"
       id="path179"
       d="m 198.69322,291.13342 q 0.8125,0.21875 1.32812,0.84375 0.53125,0.60937 0.53125,1.45312 0,1.15625 -1.04687,1.78125 -1.03125,0.60938 -2.5625,0.60938 h -3.96875 q -0.23438,0 -0.23438,-0.25 0,-0.25 0.4375,-0.25 0.46875,0 0.625,-0.125 0.17188,-0.14063 0.17188,-0.59375 v -6.3125 q 0,-0.5 -0.20313,-0.60938 -0.20312,-0.10937 -0.79687,-0.10937 -0.23438,0 -0.23438,-0.25 0,-0.25 0.23438,-0.25 h 3.96875 q 3.10937,0 3.10937,2.25 0,1.10937 -1.35937,1.8125 z m 0.89062,-1.8125 q 0,-1.48438 -1.70312,-1.70313 0.54687,0.625 0.54687,1.70313 0,1.21875 -0.6875,1.75 1.84375,-0.875 1.84375,-1.75 z m -1.64062,0 q 0,-0.76563 -0.32813,-1.25 -0.32812,-0.5 -0.92187,-0.5 -0.28125,0 -0.5,0.14062 -0.20313,0.125 -0.20313,0.34375 v 3 q 0.96875,0 1.45313,-0.375 0.5,-0.375 0.5,-1.35937 z m 2.125,4.10937 q 0,-0.8125 -0.51563,-1.25 -0.51562,-0.4375 -1.42187,-0.70312 0.6875,0.53125 0.6875,1.95312 0,1.09375 -0.54688,1.75 1.79688,-0.45312 1.79688,-1.75 z m -4.07813,1.42188 q 0,0.21875 0.20313,0.34375 0.21875,0.125 0.5,0.125 1.64062,0 1.64062,-1.89063 0,-0.98437 -0.375,-1.4375 -0.35937,-0.45312 -1.26562,-0.45312 h -0.70313 z m -0.34375,-7.28125 h -1.3125 q 0.125,0.25 0.125,0.71875 v 6.3125 q 0,0.46875 -0.125,0.71875 h 1.3125 q -0.14062,-0.21875 -0.14062,-0.46875 v -6.79688 q 0,-0.26562 0.14062,-0.48437 z" />
    <path
       style="fill:#000000;fill-opacity:0;fill-rule:evenodd"
       id="path181"
       d="m 329.10236,255.33667 h 61.98425 v 14.86615 h -61.98425 z" />
    <path
       style="fill:#202122;fill-rule:nonzero"
       id="path183"
       d="m 337.8211,267.20593 q -0.78125,0 -1.51563,-0.29687 -0.71875,-0.3125 -1.3125,-0.89063 -0.57812,-0.59375 -0.92187,-1.45312 -0.34375,-0.875 -0.34375,-2.03125 0,-1.09375 0.34375,-1.95313 0.34375,-0.875 0.92187,-1.46875 0.59375,-0.59375 1.3125,-0.90625 0.73438,-0.3125 1.51563,-0.3125 0.76562,0 1.48437,0.29688 0.73438,0.29687 1.3125,0.89062 0.59375,0.57813 0.9375,1.45313 0.34375,0.85937 0.34375,2 0,1.09375 -0.34375,1.96875 -0.34375,0.85937 -0.92187,1.46875 -0.57813,0.60937 -1.3125,0.92187 -0.73438,0.3125 -1.5,0.3125 z m 0,-0.67187 q 0.6875,0 1.1875,-0.32813 0.5,-0.34375 0.8125,-0.90625 0.3125,-0.57812 0.45312,-1.28125 0.15625,-0.71875 0.15625,-1.48437 0,-0.75 -0.15625,-1.45313 -0.14062,-0.71875 -0.45312,-1.28125 -0.3125,-0.57812 -0.8125,-0.90625 -0.5,-0.34375 -1.1875,-0.34375 -0.6875,0 -1.1875,0.34375 -0.5,0.32813 -0.82813,0.90625 -0.3125,0.5625 -0.46875,1.28125 -0.15625,0.70313 -0.15625,1.45313 0,0.76562 0.15625,1.48437 0.15625,0.70313 0.46875,1.28125 0.32813,0.5625 0.82813,0.90625 0.5,0.32813 1.1875,0.32813 z m 5.17294,3.65625 v -0.46875 l 1.0625,-0.1875 q 0.0156,-0.54688 0.0156,-1.09375 0.0156,-0.53125 0.0156,-1.0625 v -3.8125 q 0,-0.54688 -0.0156,-0.90625 0,-0.35938 -0.0312,-0.76563 l -1.04688,-0.10937 v -0.46875 l 1.85938,-0.8125 0.20312,0.125 0.0781,0.875 q 0.95312,-1 2.01562,-1 0.71875,0 1.28125,0.40625 0.57813,0.39062 0.92188,1.14062 0.34375,0.73438 0.34375,1.76563 0,1.03125 -0.35938,1.78125 -0.35937,0.75 -0.98437,1.17187 -0.60938,0.40625 -1.40625,0.40625 -0.45313,0 -0.90625,-0.1875 -0.4375,-0.1875 -0.85938,-0.67187 v 1.04687 q 0,0.53125 0,1.0625 0.0156,0.54688 0.0156,1.09375 l 1.21875,0.20313 v 0.46875 z m 3.84375,-8.9375 q -0.3125,0 -0.71875,0.15625 -0.39062,0.15625 -0.90625,0.57812 v 3.75 q 0.375,0.35938 0.73438,0.51563 0.35937,0.15625 0.73437,0.15625 0.75,0 1.28125,-0.59375 0.53125,-0.59375 0.53125,-1.89063 0,-1.28125 -0.46875,-1.96875 -0.46875,-0.70312 -1.1875,-0.70312 z m 6.05881,5.92187 q -0.6875,0 -1.10937,-0.375 -0.40625,-0.375 -0.40625,-1.14062 0,-0.25 0,-0.5 0,-0.25 0,-0.64063 v -3.14062 h -1.09375 v -0.57813 l 1.1875,-0.15625 0.34375,-1.78125 h 0.79687 l -0.0781,1.8125 h 1.79687 v 0.70313 h -1.8125 v 4.125 q 0,0.51562 0.20313,0.75 0.20312,0.23437 0.53125,0.23437 0.21875,0 0.42187,-0.0937 0.21875,-0.0937 0.46875,-0.26562 l 0.32813,0.34375 q -0.54688,0.70312 -1.57813,0.70312 z m 2.36288,-4.25 v -0.625 l 5.15625,-3 0.39063,0.71875 -4.625,2.59375 4.625,2.59375 -0.39063,0.71875 z m 10.24909,-4.21875 h -0.8125 q 0,0.84375 -0.0156,1.73438 0,0.89062 0,1.78125 v 0.64062 h 0.875 q 1.21875,0 1.73438,-0.59375 0.51562,-0.59375 0.51562,-1.53125 0,-0.96875 -0.5625,-1.5 -0.54687,-0.53125 -1.73437,-0.53125 z m -3.34375,-0.0781 v -0.54688 h 3.57812 q 1.6875,0 2.53125,0.75 0.85938,0.73438 0.85938,1.90625 0,0.75 -0.375,1.375 -0.375,0.625 -1.20313,1 -0.8125,0.375 -2.1875,0.375 h -0.6875 q 0,0.71875 0,1.42188 0.0156,0.6875 0.0156,1.40625 l 1.25,0.14062 v 0.54688 h -3.78125 v -0.54688 l 1.21875,-0.14062 q 0.0312,-0.84375 0.0312,-1.70313 0,-0.875 0,-1.73437 v -0.65625 q 0,-0.875 0,-1.73438 0,-0.85937 -0.0312,-1.70312 z m 13.56897,3.67187 v 0.625 l -5.15625,3 -0.39063,-0.71875 4.625,-2.59375 -4.625,-2.59375 0.39063,-0.71875 z" />
    <path
       style="fill:#000000;fill-opacity:0;fill-rule:evenodd"
       id="path185"
       d="m 329.10236,284.15475 h 61.98425 v 14.86615 h -61.98425 z" />
    <path
       style="fill:#202122;fill-rule:nonzero"
       id="path187"
       d="m 339.39923,291.13342 q 0.8125,0.21875 1.32812,0.84375 0.53125,0.60937 0.53125,1.45312 0,1.15625 -1.04687,1.78125 -1.03125,0.60938 -2.5625,0.60938 h -3.96875 q -0.23438,0 -0.23438,-0.25 0,-0.25 0.4375,-0.25 0.46875,0 0.625,-0.125 0.17188,-0.14063 0.17188,-0.59375 v -6.3125 q 0,-0.5 -0.20313,-0.60938 -0.20312,-0.10937 -0.79687,-0.10937 -0.23438,0 -0.23438,-0.25 0,-0.25 0.23438,-0.25 h 3.96875 q 3.10937,0 3.10937,2.25 0,1.10937 -1.35937,1.8125 z m 0.89062,-1.8125 q 0,-1.48438 -1.70312,-1.70313 0.54687,0.625 0.54687,1.70313 0,1.21875 -0.6875,1.75 1.84375,-0.875 1.84375,-1.75 z m -1.64062,0 q 0,-0.76563 -0.32813,-1.25 -0.32812,-0.5 -0.92187,-0.5 -0.28125,0 -0.5,0.14062 -0.20313,0.125 -0.20313,0.34375 v 3 q 0.96875,0 1.45313,-0.375 0.5,-0.375 0.5,-1.35937 z m 2.125,4.10937 q 0,-0.8125 -0.51563,-1.25 -0.51562,-0.4375 -1.42187,-0.70312 0.6875,0.53125 0.6875,1.95312 0,1.09375 -0.54688,1.75 1.79688,-0.45312 1.79688,-1.75 z m -4.07813,1.42188 q 0,0.21875 0.20313,0.34375 0.21875,0.125 0.5,0.125 1.64062,0 1.64062,-1.89063 0,-0.98437 -0.375,-1.4375 -0.35937,-0.45312 -1.26562,-0.45312 h -0.70313 z m -0.34375,-7.28125 h -1.3125 q 0.125,0.25 0.125,0.71875 v 6.3125 q 0,0.46875 -0.125,0.71875 h 1.3125 q -0.14062,-0.21875 -0.14062,-0.46875 v -6.79688 q 0,-0.26562 0.14062,-0.48437 z" />
    <path
       style="fill:#000000;fill-opacity:0;fill-rule:evenodd"
       id="path189"
       d="m 204.94226,214.65092 h 124.15747 v 27.87401 H 204.94226 Z" />
    <path
       style="fill:#202122;fill-rule:nonzero"
       id="path191"
       d="m 238.48306,233.86792 v -0.6875 l 0.8125,-0.15625 q 0.0156,-0.5625 0.0156,-1.10938 0.0156,-0.5625 0.0156,-1.125 v -3 h -0.95313 v -0.875 l 0.96875,-0.10937 q 0.125,-1 0.4375,-1.57813 0.32813,-0.57812 0.82813,-1.07812 0.5,-0.5 1.34375,-0.78125 0.84375,-0.28125 1.85937,-0.28125 0.78125,0 1.35938,0.29687 0.59375,0.28125 0.70312,0.9375 -0.0156,0.42188 -0.26562,0.70313 -0.25,0.26562 -0.71875,0.26562 -0.375,0 -0.70313,-0.25 -0.3125,-0.26562 -0.60937,-0.84375 l -0.3125,-0.5 q -0.40625,0.20313 -0.73438,0.53125 -0.26562,0.26563 -0.45312,0.57813 -0.1875,0.3125 -0.29688,0.78125 -0.0937,0.46875 -0.125,1.20312 h 2.89063 l 1.45312,-0.23437 0.25,0.15625 -0.0469,2.07812 v 2 q 0,0.45313 0,1.07813 0,0.625 0.0156,1.17187 l 0.73438,0.14063 v 0.6875 h -3.89063 v -0.6875 l 0.78125,-0.17188 q 0.0156,-0.53125 0.0156,-1.14062 0,-0.625 0,-1.07813 v -1.0625 q 0,-0.64062 -0.0156,-1.0625 0,-0.4375 -0.0156,-0.875 h -2.17188 v 3 q 0,0.54688 0,1.10938 0.0156,0.54687 0.0312,1.10937 l 0.84375,0.17188 v 0.6875 z m 9.21881,0 v -0.6875 l 0.8125,-0.15625 q 0.0156,-0.5625 0.0156,-1.10938 0.0156,-0.5625 0.0156,-1.125 v -3 h -0.95312 v -0.875 l 0.96875,-0.10937 q 0.125,-1 0.39062,-1.60938 0.28125,-0.60937 0.75,-1.09375 0.53125,-0.53125 1.21875,-0.76562 0.6875,-0.25 1.3125,-0.25 0.60938,0 1.10938,0.23437 0.5,0.21875 0.65625,0.79688 -0.0156,0.40625 -0.29688,0.70312 -0.26562,0.28125 -0.76562,0.28125 -0.35938,0 -0.6875,-0.25 -0.32813,-0.25 -0.625,-0.79687 l -0.125,-0.17188 q -0.39063,0.40625 -0.54688,1.07813 -0.14062,0.67187 -0.10937,1.82812 h 1.5625 v 1 h -1.53125 v 3 q 0,0.54688 0,1.07813 0,0.53125 0.0156,1.07812 l 1.125,0.23438 v 0.6875 z m 8.84738,0.21875 q -1.14062,0 -1.98437,-0.46875 -0.82813,-0.48438 -1.28125,-1.34375 -0.45313,-0.85938 -0.45313,-1.98438 0,-1.125 0.48438,-1.95312 0.5,-0.84375 1.34375,-1.3125 0.85937,-0.46875 1.89062,-0.46875 1.04688,0 1.89063,0.45312 0.84375,0.45313 1.34375,1.29688 0.5,0.84375 0.5,1.98437 0,1.14063 -0.45313,2 -0.45312,0.84375 -1.29687,1.32813 -0.82813,0.46875 -1.98438,0.46875 z m 0,-0.76563 q 0.625,0 0.92188,-0.71875 0.3125,-0.71875 0.3125,-2.26562 0,-1.5625 -0.3125,-2.28125 -0.29688,-0.71875 -0.92188,-0.71875 -0.625,0 -0.9375,0.71875 -0.29687,0.71875 -0.29687,2.28125 0,1.54687 0.29687,2.26562 0.3125,0.71875 0.9375,0.71875 z m 6.24066,-4.20312 q -0.5625,0 -0.95312,-0.375 -0.375,-0.39063 -0.375,-0.92188 0,-0.54687 0.375,-0.9375 0.39062,-0.40625 0.95312,-0.40625 0.54688,0 0.92188,0.40625 0.39062,0.39063 0.39062,0.9375 0,0.53125 -0.39062,0.92188 -0.375,0.375 -0.92188,0.375 z m 0,4.96875 q -0.5625,0 -0.95312,-0.375 -0.375,-0.39063 -0.375,-0.92188 0,-0.54687 0.375,-0.9375 0.39062,-0.40625 0.95312,-0.40625 0.54688,0 0.92188,0.40625 0.39062,0.39063 0.39062,0.9375 0,0.53125 -0.39062,0.92188 -0.375,0.375 -0.92188,0.375 z m 4.39689,-4.96875 q -0.5625,0 -0.95313,-0.375 -0.375,-0.39063 -0.375,-0.92188 0,-0.54687 0.375,-0.9375 0.39063,-0.40625 0.95313,-0.40625 0.54687,0 0.92187,0.40625 0.39063,0.39063 0.39063,0.9375 0,0.53125 -0.39063,0.92188 -0.375,0.375 -0.92187,0.375 z m 0,4.96875 q -0.5625,0 -0.95313,-0.375 -0.375,-0.39063 -0.375,-0.92188 0,-0.54687 0.375,-0.9375 0.39063,-0.40625 0.95313,-0.40625 0.54687,0 0.92187,0.40625 0.39063,0.39063 0.39063,0.9375 0,0.53125 -0.39063,0.92188 -0.375,0.375 -0.92187,0.375 z m 2.75625,-4.40625 v -1.10938 l 6.125,-3.15625 0.625,1.25 -5.03125,2.45313 5.03125,2.46875 -0.625,1.25 z m 13.80118,-4.65625 v -0.78125 h 3.85937 v 0.78125 l -1.25,0.20312 v 8.67188 h -1.23437 l -5.15625,-7.15625 v 6.14062 l 1.67187,0.1875 v 0.79688 h -3.875 v -0.79688 l 1.25,-0.17187 v -7.48438 l -0.20312,-0.28125 -1.01563,-0.10937 v -0.78125 h 3.3125 l 4.3125,5.92187 v -4.9375 z m 11.70102,3.54687 v 1.10938 l -6.125,3.15625 -0.64063,-1.25 5.03125,-2.46875 -5.03125,-2.45313 0.64063,-1.25 z" />
    <path
       style="fill:#000000;fill-opacity:0;fill-rule:evenodd"
       id="path193"
       d="m 80.97113,262.91638 h 61.98425 v 23.93701 H 80.97113 Z" />
    <path
       style="fill:#202122;fill-rule:nonzero"
       id="path195"
       d="m 104.98903,271.7899 v -0.75 h 3.17188 v 0.78125 l -1.09375,0.1875 -3.01563,8.6875 h -1.42187 l -3.156255,-8.78125 -0.84375,-0.0937 v -0.78125 h 4.718755 v 0.75 l -1.25,0.15625 2,6.03125 2.03125,-6 z m 2.6114,8.875 v -0.6875 l 0.8125,-0.15625 q 0.0156,-0.54688 0.0156,-1.15625 0,-0.625 0,-1.07813 v -0.85937 q 0,-0.42188 -0.0156,-0.67188 0,-0.26562 -0.0156,-0.48437 0,-0.23438 -0.0156,-0.53125 l -0.89062,-0.14063 v -0.5625 l 2.89062,-0.98437 0.25,0.15625 0.14063,1.73437 q 0.3125,-0.9375 0.85937,-1.40625 0.5625,-0.48437 1.10938,-0.48437 0.48437,0 0.82812,0.28125 0.35938,0.26562 0.4375,0.79687 -0.0156,0.57813 -0.3125,0.89063 -0.28125,0.3125 -0.71875,0.3125 -0.625,0 -1.14062,-0.6875 l -0.0781,-0.10938 q -0.32812,0.29688 -0.60937,0.76563 -0.26563,0.46875 -0.375,0.98437 v 1 q 0,0.45313 0,1.04688 0,0.57812 0.0156,1.09375 l 1.15625,0.25 v 0.6875 z m 6.98706,-4.1875 v -1.10938 l 6.125,-3.15625 0.625,1.25 -5.03125,2.45313 5.03125,2.46875 -0.625,1.25 z m 11.84804,-4.59375 h -0.32812 q -0.0156,0.90625 -0.0312,1.82812 0,0.92188 0,1.875 v 0.57813 h 0.42187 q 0.96875,0 1.45313,-0.625 0.48437,-0.625 0.48437,-1.60938 0,-1.01562 -0.53125,-1.53125 -0.51562,-0.51562 -1.46875,-0.51562 z m -3.95312,-0.0625 v -0.78125 h 3.98437 q 1.53125,0 2.46875,0.35937 0.9375,0.35938 1.35938,1.01563 0.4375,0.64062 0.4375,1.51562 0,0.84375 -0.40625,1.54688 -0.40625,0.6875 -1.32813,1.10937 -0.92187,0.40625 -2.51562,0.40625 h -0.40625 q 0,0.625 0,1.32813 0.0156,0.6875 0.0312,1.42187 l 1.29687,0.125 v 0.79688 h -4.92187 v -0.79688 l 1.09375,-0.10937 q 0.0312,-0.89063 0.0312,-1.79688 0,-0.92187 0,-1.84375 v -0.53125 q 0,-0.92187 0,-1.82812 0,-0.92188 -0.0312,-1.8125 z m 15.92181,3.54687 v 1.10938 l -6.125,3.15625 -0.64062,-1.25 5.03125,-2.46875 -5.03125,-2.45313 0.64062,-1.25 z" />
    <path
       style="fill:#000000;fill-opacity:0;fill-rule:evenodd"
       id="path197"
       d="m 391.09186,262.91602 h 70.70868 v 23.93701 h -70.70868 z" />
    <path
       style="fill:#202122;fill-rule:nonzero"
       id="path199"
       d="m 401.57623,271.78952 v -0.75 h 3.17187 v 0.78125 l -1.09375,0.1875 -3.01562,8.6875 h -1.42188 l -3.15625,-8.78125 -0.84375,-0.0937 v -0.78125 h 4.71875 v 0.75 l -1.25,0.15625 2,6.03125 2.03125,-6 z m 2.61142,8.875 v -0.6875 l 0.8125,-0.15625 q 0.0156,-0.54688 0.0156,-1.15625 0,-0.625 0,-1.07813 v -0.85937 q 0,-0.42188 -0.0156,-0.67188 0,-0.26562 -0.0156,-0.48437 0,-0.23438 -0.0156,-0.53125 l -0.89063,-0.14063 v -0.5625 l 2.89063,-0.98437 0.25,0.15625 0.14062,1.73437 q 0.3125,-0.9375 0.85938,-1.40625 0.5625,-0.48437 1.10937,-0.48437 0.48438,0 0.82813,0.28125 0.35937,0.26562 0.4375,0.79687 -0.0156,0.57813 -0.3125,0.89063 -0.28125,0.3125 -0.71875,0.3125 -0.625,0 -1.14063,-0.6875 l -0.0781,-0.10938 q -0.32813,0.29688 -0.60938,0.76563 -0.26562,0.46875 -0.375,0.98437 v 1 q 0,0.45313 0,1.04688 0,0.57812 0.0156,1.09375 l 1.15625,0.25 v 0.6875 z m 6.98706,-4.1875 v -1.10938 l 6.125,-3.15625 0.625,1.25 -5.03125,2.45313 5.03125,2.46875 -0.625,1.25 z m 11.84802,-4.59375 h -0.32812 q -0.0156,0.90625 -0.0312,1.82812 0,0.92188 0,1.875 v 0.57813 h 0.42187 q 0.96875,0 1.45313,-0.625 0.48437,-0.625 0.48437,-1.60938 0,-1.01562 -0.53125,-1.53125 -0.51562,-0.51562 -1.46875,-0.51562 z m -3.95312,-0.0625 v -0.78125 h 3.98437 q 1.53125,0 2.46875,0.35937 0.9375,0.35938 1.35938,1.01563 0.4375,0.64062 0.4375,1.51562 0,0.84375 -0.40625,1.54688 -0.40625,0.6875 -1.32813,1.10937 -0.92187,0.40625 -2.51562,0.40625 h -0.40625 q 0,0.625 0,1.32813 0.0156,0.6875 0.0312,1.42187 l 1.29687,0.125 v 0.79688 h -4.92187 v -0.79688 l 1.09375,-0.10937 q 0.0312,-0.89063 0.0312,-1.79688 0,-0.92187 0,-1.84375 v -0.53125 q 0,-0.92187 0,-1.82812 0,-0.92188 -0.0312,-1.8125 z m 15.92181,3.54687 v 1.10938 l -6.125,3.15625 -0.64062,-1.25 5.03125,-2.46875 -5.03125,-2.45313 0.64062,-1.25 z" />
    <path
       style="fill:#cfe2f3;fill-rule:evenodd"
       id="path201"
       d="m 222.43832,266.14444 v 0 c 0,-2.56577 2.07997,-4.64575 4.64575,-4.64575 h 79.87384 c 1.23212,0 2.41379,0.48947 3.28504,1.36072 0.87124,0.87124 1.36071,2.05291 1.36071,3.28503 v 18.58249 c 0,2.56579 -2.07998,4.64578 -4.64575,4.64578 h -79.87384 c -2.56578,0 -4.64575,-2.07999 -4.64575,-4.64578 z" />
    <path
       style="fill-rule:evenodd;stroke:#595959;stroke-width:1;stroke-linecap:butt;stroke-linejoin:round"
       id="path203"
       d="m 222.43832,266.14444 v 0 c 0,-2.56577 2.07997,-4.64575 4.64575,-4.64575 h 79.87384 c 1.23212,0 2.41379,0.48947 3.28504,1.36072 0.87124,0.87124 1.36071,2.05291 1.36071,3.28503 v 18.58249 c 0,2.56579 -2.07998,4.64578 -4.64575,4.64578 h -79.87384 c -2.56578,0 -4.64575,-2.07999 -4.64575,-4.64578 z" />
    <path
       style="fill:#202122;fill-rule:nonzero"
       id="path205"
       d="m 234.11627,278.1263 v -3.1875 q 0,-1.0625 -0.0156,-2.125 0,-1.0625 -0.0312,-2.10937 h 2.54688 v 0.54687 l -1.5,0.17188 q -0.0156,0.85937 -0.0312,1.75 0,0.875 0,1.76562 v 3.1875 q 0,0.875 0,1.76563 0.0156,0.875 0.0312,1.75 l 1.5,0.17187 v 0.54688 h -2.54688 q 0.0312,-1.03125 0.0312,-2.10938 0.0156,-1.0625 0.0156,-2.125 z m 7.34207,2.3125 q -0.78125,0 -1.51562,-0.29687 -0.71875,-0.3125 -1.3125,-0.89063 -0.57813,-0.59375 -0.92188,-1.45312 -0.34375,-0.875 -0.34375,-2.03125 0,-1.09375 0.34375,-1.95313 0.34375,-0.875 0.92188,-1.46875 0.59375,-0.59375 1.3125,-0.90625 0.73437,-0.3125 1.51562,-0.3125 0.76563,0 1.48438,0.29688 0.73437,0.29687 1.3125,0.89062 0.59375,0.57813 0.9375,1.45313 0.34375,0.85937 0.34375,2 0,1.09375 -0.34375,1.96875 -0.34375,0.85937 -0.92188,1.46875 -0.57812,0.60937 -1.3125,0.92187 -0.73437,0.3125 -1.5,0.3125 z m 0,-0.67187 q 0.6875,0 1.1875,-0.32813 0.5,-0.34375 0.8125,-0.90625 0.3125,-0.57812 0.45313,-1.28125 0.15625,-0.71875 0.15625,-1.48437 0,-0.75 -0.15625,-1.45313 -0.14063,-0.71875 -0.45313,-1.28125 -0.3125,-0.57812 -0.8125,-0.90625 -0.5,-0.34375 -1.1875,-0.34375 -0.6875,0 -1.1875,0.34375 -0.5,0.32813 -0.82812,0.90625 -0.3125,0.5625 -0.46875,1.28125 -0.15625,0.70313 -0.15625,1.45313 0,0.76562 0.15625,1.48437 0.15625,0.70313 0.46875,1.28125 0.32812,0.5625 0.82812,0.90625 0.5,0.32813 1.1875,0.32813 z m 5.17294,3.65625 v -0.46875 l 1.0625,-0.1875 q 0.0156,-0.54688 0.0156,-1.09375 0.0156,-0.53125 0.0156,-1.0625 v -3.8125 q 0,-0.54688 -0.0156,-0.90625 0,-0.35938 -0.0312,-0.76563 l -1.04688,-0.10937 v -0.46875 l 1.85938,-0.8125 0.20312,0.125 0.0781,0.875 q 0.95312,-1 2.01562,-1 0.71875,0 1.28125,0.40625 0.57813,0.39062 0.92188,1.14062 0.34375,0.73438 0.34375,1.76563 0,1.03125 -0.35938,1.78125 -0.35937,0.75 -0.98437,1.17187 -0.60938,0.40625 -1.40625,0.40625 -0.45313,0 -0.90625,-0.1875 -0.4375,-0.1875 -0.85938,-0.67187 v 1.04687 q 0,0.53125 0,1.0625 0.0156,0.54688 0.0156,1.09375 l 1.21875,0.20313 v 0.46875 z m 3.84375,-8.9375 q -0.3125,0 -0.71875,0.15625 -0.39062,0.15625 -0.90625,0.57812 v 3.75 q 0.375,0.35938 0.73438,0.51563 0.35937,0.15625 0.73437,0.15625 0.75,0 1.28125,-0.59375 0.53125,-0.59375 0.53125,-1.89063 0,-1.28125 -0.46875,-1.96875 -0.46875,-0.70312 -1.1875,-0.70312 z m 6.05881,5.92187 q -0.6875,0 -1.10937,-0.375 -0.40625,-0.375 -0.40625,-1.14062 0,-0.25 0,-0.5 0,-0.25 0,-0.64063 v -3.14062 h -1.09375 v -0.57813 l 1.1875,-0.15625 0.34375,-1.78125 h 0.79687 l -0.0781,1.8125 h 1.79687 v 0.70313 h -1.8125 v 4.125 q 0,0.51562 0.20313,0.75 0.20312,0.23437 0.53125,0.23437 0.21875,0 0.42187,-0.0937 0.21875,-0.0937 0.46875,-0.26562 l 0.32813,0.34375 q -0.54688,0.70312 -1.57813,0.70312 z m 2.36286,-4.25 v -0.625 l 5.15625,-3 0.39062,0.71875 -4.625,2.59375 4.625,2.59375 -0.39062,0.71875 z m 10.24908,-4.21875 h -0.8125 q 0,0.84375 -0.0156,1.73438 0,0.89062 0,1.78125 v 0.64062 h 0.875 q 1.21875,0 1.73438,-0.59375 0.51562,-0.59375 0.51562,-1.53125 0,-0.96875 -0.5625,-1.5 -0.54687,-0.53125 -1.73437,-0.53125 z m -3.34375,-0.0781 v -0.54688 h 3.57812 q 1.6875,0 2.53125,0.75 0.85938,0.73438 0.85938,1.90625 0,0.75 -0.375,1.375 -0.375,0.625 -1.20313,1 -0.8125,0.375 -2.1875,0.375 h -0.6875 q 0,0.71875 0,1.42188 0.0156,0.6875 0.0156,1.40625 l 1.25,0.14062 v 0.54688 H 265.802 v -0.54688 l 1.21875,-0.14062 q 0.0312,-0.84375 0.0312,-1.70313 0,-0.875 0,-1.73437 v -0.65625 q 0,-0.875 0,-1.73438 0,-0.85937 -0.0312,-1.70312 z m 13.569,3.67187 v 0.625 l -5.15625,3 -0.39063,-0.71875 4.625,-2.59375 -4.625,-2.59375 0.39063,-0.71875 z m 2.76471,0.0312 q -0.40625,0 -0.6875,-0.28125 -0.26563,-0.28125 -0.26563,-0.65625 0,-0.40625 0.26563,-0.6875 0.28125,-0.28125 0.6875,-0.28125 0.40625,0 0.67187,0.28125 0.28125,0.28125 0.28125,0.6875 0,0.375 -0.28125,0.65625 -0.26562,0.28125 -0.67187,0.28125 z m 0.84375,4.28125 q 0,0.79688 -0.39063,1.46875 -0.375,0.6875 -0.96875,1.17188 -0.57812,0.5 -1.21875,0.73437 l -0.1875,-0.45312 q 0.6875,-0.34375 1.20313,-0.84375 0.51562,-0.48438 0.76562,-1.23438 l -0.5,-0.39062 q -0.26562,-0.20313 -0.39062,-0.45313 -0.10938,-0.25 -0.10938,-0.5 0,-0.34375 0.20313,-0.59375 0.20312,-0.25 0.60937,-0.25 0.1875,0 0.375,0.0781 0.20313,0.0781 0.45313,0.3125 0.0781,0.25 0.10937,0.48437 0.0469,0.23438 0.0469,0.46875 z m 10.30698,-7.98437 v -0.54688 h 3.21875 v 0.54688 l -1.14063,0.17187 v 8.29688 h -0.46875 l -5.32812,-7.26563 v 6.4375 l 1.42187,0.1875 v 0.54688 h -3.23437 v -0.54688 l 1.14062,-0.15625 v -7.40625 l -0.125,-0.15625 -0.9375,-0.10937 v -0.54688 h 2.04688 l 4.8125,6.60938 v -5.89063 z m 6.63989,3.07812 v 3.1875 q 0,1.0625 0,2.10938 0.0156,1.0625 0.0469,2.125 h -2.54687 v -0.54688 l 1.5,-0.17187 q 0.0312,-0.875 0.0312,-1.75 0,-0.875 0,-1.76563 v -3.1875 q 0,-0.875 0,-1.75 0,-0.89062 -0.0312,-1.76562 l -1.5,-0.17188 v -0.54687 h 2.54687 q -0.0312,1.03125 -0.0469,2.09375 0,1.0625 0,2.14062 z" />
    <path
       style="fill:#000000;fill-opacity:0;fill-rule:evenodd"
       id="path207"
       d="m 267.021,289.3727 c 0,7.68503 -31.03937,15.37006 -62.07873,15.37006" />
    <path
       style="fill-rule:evenodd;stroke:#595959;stroke-width:1;stroke-linecap:butt;stroke-linejoin:round"
       id="path209"
       d="m 267.021,289.3727 c 0,3.8425 -7.75983,7.68503 -19.39961,10.56693 -5.81987,1.44094 -12.60974,2.64172 -19.88458,3.48226 -3.63744,0.42029 -7.39611,0.75049 -11.2154,0.97565 -0.95483,0.0563 -1.91345,0.10602 -2.87489,0.14893 -0.48073,0.0215 -0.96217,0.0412 -1.44422,0.0592 l -1.26078,0.0426" />
    <path
       style="fill:#595959;fill-rule:evenodd;stroke:#595959;stroke-width:1;stroke-linecap:butt"
       id="path211"
       d="m 210.9155,302.99677 -4.51152,1.72299 4.56355,1.58005 z" />
    <path
       style="fill:#000000;fill-opacity:0;fill-rule:evenodd"
       id="path213"
       d="M 329.12717,304.73465 H 204.93819" />
    <path
       style="fill-rule:evenodd;stroke:#1c4587;stroke-width:1;stroke-linecap:butt;stroke-linejoin:round"
       id="path215"
       d="M 329.12717,304.73465 H 210.9382" />
    <path
       style="fill:#1c4587;fill-rule:evenodd;stroke:#1c4587;stroke-width:1;stroke-linecap:butt"
       id="path217"
       d="m 210.9382,303.08292 -4.5381,1.65173 4.5381,1.65174 z" />
  </g>
</svg>
