<?xml version="1.0" encoding="UTF-8" standalone="no"?>
<svg
   xmlns:dc="http://purl.org/dc/elements/1.1/"
   xmlns:cc="http://creativecommons.org/ns#"
   xmlns:rdf="http://www.w3.org/1999/02/22-rdf-syntax-ns#"
   xmlns:svg="http://www.w3.org/2000/svg"
   xmlns="http://www.w3.org/2000/svg"
   style="fill:none;stroke:none;stroke-linecap:square;stroke-miterlimit:10"
   height="189.56696"
   width="438.25983"
   id="svg291"
   stroke-miterlimit="10"
   viewBox="0 0 438.25983 189.56696"
   version="1.1">
  <metadata
     id="metadata297">
    <rdf:RDF>
      <cc:Work
         rdf:about="">
        <dc:format>image/svg+xml</dc:format>
        <dc:type
           rdf:resource="http://purl.org/dc/dcmitype/StillImage" />
        <dc:title></dc:title>
      </cc:Work>
    </rdf:RDF>
  </metadata>
  <defs
     id="defs295" />
  <clipPath
     id="g2f82325df56_0_89.0">
    <path
       style="clip-rule:nonzero"
       id="path2"
       d="M 0,0 H 960 V 540 H 0 Z" />
  </clipPath>
  <g
     transform="translate(-86.54197,-261.73358)"
     id="g289"
     clip-path="url(#g2f82325df56_0_89.0)">
    <path
       style="fill:#000000;fill-opacity:0;fill-rule:evenodd"
       id="path155"
       d="m 243.59317,259.0315 h 124.1575 v 27.87402 h -124.1575 z" />
    <path
       style="fill:#202122;fill-rule:nonzero"
       id="path157"
       d="m 284.65814,278.2485 v -0.6875 l 0.79687,-0.17188 q 0.0156,-0.53125 0.0156,-1.14062 0,-0.625 0,-1.07813 v -0.84375 q 0,-0.60937 -0.0156,-0.9375 0,-0.32812 -0.0312,-0.76562 l -0.89062,-0.14063 v -0.5625 l 2.89062,-0.98437 0.25,0.15625 0.0937,1.0625 q 0.51563,-0.60938 1.07813,-0.90625 0.5625,-0.3125 1.20312,-0.3125 1.51563,0 1.95313,1.29687 0.60937,-0.71875 1.17187,-1 0.5625,-0.29687 1.1875,-0.29687 1.125,0 1.625,0.64062 0.51563,0.64063 0.51563,1.95313 v 1.64062 q 0,0.46875 0,1.09375 0,0.60938 0.0156,1.14063 l 0.73438,0.15625 v 0.6875 h -3.78125 v -0.6875 l 0.71875,-0.17188 q 0.0156,-0.53125 0.0156,-1.14062 0,-0.60938 0,-1.07813 v -1.42187 q 0,-0.8125 -0.1875,-1.09375 -0.1875,-0.29688 -0.65625,-0.29688 -0.60937,0 -1.21875,0.53125 0.0156,0.125 0.0156,0.26563 0.0156,0.14062 0.0156,0.29687 v 1.71875 q 0,0.48438 0,1.09375 0,0.60938 0,1.15625 l 0.70313,0.14063 v 0.6875 h -3.78125 v -0.6875 l 0.75,-0.17188 q 0.0156,-0.53125 0.0156,-1.14062 0,-0.60938 0,-1.07813 v -1.40625 q 0,-0.78125 -0.1875,-1.09375 -0.17187,-0.3125 -0.65625,-0.3125 -0.3125,0 -0.625,0.15625 -0.29687,0.14063 -0.57812,0.375 v 2.28125 q 0,0.45313 0,1.07813 0,0.625 0.0156,1.17187 l 0.6875,0.14063 v 0.6875 z m 16.9339,-6.54688 q -0.40625,0 -0.75,0.5 -0.34375,0.5 -0.39063,1.85938 h 1.23438 q 0.53125,0 0.71875,-0.20313 0.1875,-0.21875 0.1875,-0.71875 0,-0.73437 -0.29688,-1.07812 -0.29687,-0.35938 -0.70312,-0.35938 z m 0.0312,6.76563 q -1.07813,0 -1.90625,-0.4375 -0.8125,-0.45313 -1.28125,-1.29688 -0.46875,-0.84375 -0.46875,-2.01562 0,-1.23438 0.54687,-2.07813 0.5625,-0.84375 1.42188,-1.26562 0.85937,-0.4375 1.79687,-0.4375 0.96875,0 1.64063,0.40625 0.6875,0.40625 1.03125,1.10937 0.35937,0.70313 0.35937,1.59375 0,0.42188 -0.0781,0.78125 h -4.23438 q 0.0625,1.15625 0.625,1.70313 0.57813,0.54687 1.32813,0.54687 0.60937,0 1.03125,-0.21875 0.42187,-0.23437 0.75,-0.57812 l 0.51562,0.46875 q -0.45312,0.875 -1.23437,1.29687 -0.78125,0.42188 -1.84375,0.42188 z m 3.94842,-0.21875 v -0.6875 l 0.8125,-0.15625 q 0.0156,-0.54688 0.0156,-1.15625 0,-0.625 0,-1.07813 V 274.311 q 0,-0.42188 -0.0156,-0.67188 0,-0.26562 -0.0156,-0.48437 0,-0.23438 -0.0156,-0.53125 l -0.89062,-0.14063 v -0.5625 l 2.89062,-0.98437 0.25,0.15625 0.14063,1.73437 q 0.3125,-0.9375 0.85937,-1.40625 0.5625,-0.48437 1.10938,-0.48437 0.48437,0 0.82812,0.28125 0.35938,0.26562 0.4375,0.79687 -0.0156,0.57813 -0.3125,0.89063 -0.28125,0.3125 -0.71875,0.3125 -0.625,0 -1.14062,-0.6875 l -0.0781,-0.10938 q -0.32812,0.29688 -0.60937,0.76563 -0.26563,0.46875 -0.375,0.98437 v 1 q 0,0.45313 0,1.04688 0,0.57812 0.0156,1.09375 l 1.15625,0.25 v 0.6875 z m 9.76899,-3.28125 q 0.51562,0 0.76562,-0.45313 0.25,-0.45312 0.25,-1.23437 0,-0.78125 -0.25,-1.20313 -0.25,-0.4375 -0.73437,-0.4375 -0.5,0 -0.75,0.4375 -0.25,0.4375 -0.25,1.21875 0,0.78125 0.23437,1.23438 0.23438,0.4375 0.73438,0.4375 z m -1.95313,4.5 q 0,0.64062 0.48438,0.9375 0.48437,0.3125 1.48437,0.3125 1.09375,0 1.64063,-0.32813 0.5625,-0.32812 0.5625,-0.8125 0,-0.3125 -0.23438,-0.57812 -0.23437,-0.25 -0.82812,-0.25 h -1.54688 q -0.79687,0 -1.32812,-0.14063 -0.10938,0.21875 -0.17188,0.40625 -0.0625,0.1875 -0.0625,0.45313 z m 1.96875,-3.8125 q -0.76562,0 -1.34375,-0.17188 -0.17187,0.29688 -0.17187,0.67188 0,0.25 0.1875,0.40625 0.20312,0.15625 0.67187,0.15625 h 1.70313 q 1.125,0 1.78125,0.26562 0.65625,0.26563 0.9375,0.75 0.29687,0.46875 0.29687,1.10938 0,0.73437 -0.48437,1.35937 -0.48438,0.625 -1.45313,1 -0.95312,0.375 -2.35937,0.375 -1.21875,0 -1.90625,-0.25 -0.6875,-0.23437 -0.96875,-0.64062 -0.28125,-0.39063 -0.28125,-0.82813 0,-0.9375 1.21875,-1.5 -0.45313,-0.20312 -0.65625,-0.5 -0.1875,-0.3125 -0.1875,-0.67187 0,-0.51563 0.29687,-0.96875 0.29688,-0.46875 0.84375,-0.9375 -0.60937,-0.3125 -0.90625,-0.82813 -0.28125,-0.51562 -0.28125,-1.14062 0,-1.03125 0.75,-1.70313 0.75,-0.67187 2.3125,-0.67187 0.78125,0 1.35938,0.17187 0.59375,0.17188 0.96875,0.5 l 1.64062,-0.70312 0.23438,0.14062 v 1.14063 h -1.39063 q 0.26563,0.48437 0.26563,1.125 0,0.98437 -0.76563,1.67187 -0.75,0.67188 -2.3125,0.67188 z m 8.14655,-3.95313 q -0.40625,0 -0.75,0.5 -0.34375,0.5 -0.39063,1.85938 h 1.23438 q 0.53125,0 0.71875,-0.20313 0.1875,-0.21875 0.1875,-0.71875 0,-0.73437 -0.29688,-1.07812 -0.29687,-0.35938 -0.70312,-0.35938 z m 0.0312,6.76563 q -1.07813,0 -1.90625,-0.4375 -0.8125,-0.45313 -1.28125,-1.29688 -0.46875,-0.84375 -0.46875,-2.01562 0,-1.23438 0.54687,-2.07813 0.5625,-0.84375 1.42188,-1.26562 0.85937,-0.4375 1.79687,-0.4375 0.96875,0 1.64063,0.40625 0.6875,0.40625 1.03125,1.10937 0.35937,0.70313 0.35937,1.59375 0,0.42188 -0.0781,0.78125 h -4.23438 q 0.0625,1.15625 0.625,1.70313 0.57813,0.54687 1.32813,0.54687 0.60937,0 1.03125,-0.21875 0.42187,-0.23437 0.75,-0.57812 l 0.51562,0.46875 q -0.45312,0.875 -1.23437,1.29687 -0.78125,0.42188 -1.84375,0.42188 z" />
    <path
       style="fill:#000000;fill-opacity:0;fill-rule:evenodd"
       id="path159"
       d="m 407.09186,344.98724 h 61.98425 v 23.93701 h -61.98425 z" />
    <path
       style="fill:#202122;fill-rule:nonzero"
       id="path161"
       d="m 417.57623,353.86075 v -0.75 h 3.17187 v 0.78125 l -1.09375,0.1875 -3.01562,8.6875 h -1.42188 l -3.15625,-8.78125 -0.84375,-0.0937 v -0.78125 h 4.71875 v 0.75 l -1.25,0.15625 2,6.03125 2.03125,-6 z m 2.61142,8.875 v -0.6875 l 0.8125,-0.15625 q 0.0156,-0.54688 0.0156,-1.15625 0,-0.625 0,-1.07813 v -0.85937 q 0,-0.42188 -0.0156,-0.67188 0,-0.26562 -0.0156,-0.48437 0,-0.23438 -0.0156,-0.53125 l -0.89063,-0.14063 v -0.5625 l 2.89063,-0.98437 0.25,0.15625 0.14062,1.73437 q 0.3125,-0.9375 0.85938,-1.40625 0.5625,-0.48437 1.10937,-0.48437 0.48438,0 0.82813,0.28125 0.35937,0.26562 0.4375,0.79687 -0.0156,0.57813 -0.3125,0.89063 -0.28125,0.3125 -0.71875,0.3125 -0.625,0 -1.14063,-0.6875 l -0.0781,-0.10938 q -0.32813,0.29688 -0.60938,0.76563 -0.26562,0.46875 -0.375,0.98437 v 1 q 0,0.45313 0,1.04688 0,0.57812 0.0156,1.09375 l 1.15625,0.25 v 0.6875 z m 6.98706,-4.1875 v -1.10938 l 6.125,-3.15625 0.625,1.25 -5.03125,2.45313 5.03125,2.46875 -0.625,1.25 z m 11.84802,-4.59375 h -0.32812 q -0.0156,0.90625 -0.0312,1.82812 0,0.92188 0,1.875 v 0.57813 h 0.42187 q 0.96875,0 1.45313,-0.625 0.48437,-0.625 0.48437,-1.60938 0,-1.01562 -0.53125,-1.53125 -0.51562,-0.51562 -1.46875,-0.51562 z m -3.95312,-0.0625 v -0.78125 h 3.98437 q 1.53125,0 2.46875,0.35937 0.9375,0.35938 1.35938,1.01563 0.4375,0.64062 0.4375,1.51562 0,0.84375 -0.40625,1.54688 -0.40625,0.6875 -1.32813,1.10937 -0.92187,0.40625 -2.51562,0.40625 h -0.40625 q 0,0.625 0,1.32813 0.0156,0.6875 0.0312,1.42187 l 1.29687,0.125 v 0.79688 h -4.92187 v -0.79688 l 1.09375,-0.10937 q 0.0312,-0.89063 0.0312,-1.79688 0,-0.92187 0,-1.84375 v -0.53125 q 0,-0.92187 0,-1.82812 0,-0.92188 -0.0312,-1.8125 z m 15.92181,3.54687 v 1.10938 l -6.125,3.15625 -0.64062,-1.25 5.03125,-2.46875 -5.03125,-2.45313 0.64062,-1.25 z" />
    <path
       style="fill:#000000;fill-opacity:0;fill-rule:evenodd"
       id="path163"
       d="m 133.54068,295.92862 h 70.70866 v 23.93701 h -70.70866 z" />
    <path
       style="fill:#202122;fill-rule:nonzero"
       id="path165"
       d="m 166.28299,304.80212 v -0.75 h 3.17187 v 0.78125 l -1.09375,0.1875 -3.01562,8.6875 h -1.42188 l -3.15625,-8.78125 -0.84375,-0.0937 v -0.78125 h 4.71875 v 0.75 l -1.25,0.15625 2,6.03125 2.03125,-6 z m 2.6114,8.875 v -0.6875 l 0.8125,-0.15625 q 0.0156,-0.54688 0.0156,-1.15625 0,-0.625 0,-1.07813 v -0.85937 q 0,-0.42188 -0.0156,-0.67188 0,-0.26562 -0.0156,-0.48437 0,-0.23438 -0.0156,-0.53125 l -0.89062,-0.14063 v -0.5625 l 2.89062,-0.98437 0.25,0.15625 0.14063,1.73437 q 0.3125,-0.9375 0.85937,-1.40625 0.5625,-0.48437 1.10938,-0.48437 0.48437,0 0.82812,0.28125 0.35938,0.26562 0.4375,0.79687 -0.0156,0.57813 -0.3125,0.89063 -0.28125,0.3125 -0.71875,0.3125 -0.625,0 -1.14062,-0.6875 l -0.0781,-0.10938 q -0.32812,0.29688 -0.60937,0.76563 -0.26563,0.46875 -0.375,0.98437 v 1 q 0,0.45313 0,1.04688 0,0.57812 0.0156,1.09375 l 1.15625,0.25 v 0.6875 z m 6.98706,-4.1875 v -1.10938 l 6.125,-3.15625 0.625,1.25 -5.03125,2.45313 5.03125,2.46875 -0.625,1.25 z m 11.84804,-4.59375 h -0.32812 q -0.0156,0.90625 -0.0312,1.82812 0,0.92188 0,1.875 v 0.57813 h 0.42187 q 0.96875,0 1.45313,-0.625 0.48437,-0.625 0.48437,-1.60938 0,-1.01562 -0.53125,-1.53125 -0.51562,-0.51562 -1.46875,-0.51562 z m -3.95312,-0.0625 v -0.78125 h 3.98437 q 1.53125,0 2.46875,0.35937 0.9375,0.35938 1.35938,1.01563 0.4375,0.64062 0.4375,1.51562 0,0.84375 -0.40625,1.54688 -0.40625,0.6875 -1.32813,1.10937 -0.92187,0.40625 -2.51562,0.40625 h -0.40625 q 0,0.625 0,1.32813 0.0156,0.6875 0.0312,1.42187 l 1.29687,0.125 v 0.79688 h -4.92187 v -0.79688 l 1.09375,-0.10937 q 0.0312,-0.89063 0.0312,-1.79688 0,-0.92187 0,-1.84375 v -0.53125 q 0,-0.92187 0,-1.82812 0,-0.92188 -0.0312,-1.8125 z m 15.92181,3.54687 v 1.10938 l -6.125,3.15625 -0.64062,-1.25 5.03125,-2.46875 -5.03125,-2.45313 0.64062,-1.25 z" />
    <path
       style="fill:#d9d9d9;fill-rule:evenodd"
       id="path167"
       d="m 266.2362,446.2467 78.86615,-21.94211 V 305.85815 L 266.2362,283.91601 Z" />
    <path
       style="fill-rule:evenodd;stroke:#595959;stroke-width:1;stroke-linecap:butt;stroke-linejoin:round"
       id="path169"
       d="m 266.2362,446.2467 78.86615,-21.94211 V 305.85815 L 266.2362,283.91601 Z" />
    <path
       style="fill:#000000;fill-opacity:0;fill-rule:evenodd"
       id="path171"
       d="m 133.54068,394.0441 h 70.70866 v 23.93701 h -70.70866 z" />
    <path
       style="fill:#202122;fill-rule:nonzero"
       id="path173"
       d="m 166.28299,402.9176 v -0.75 h 3.17187 v 0.78125 l -1.09375,0.1875 -3.01562,8.6875 h -1.42188 l -3.15625,-8.78125 -0.84375,-0.0937 v -0.78125 h 4.71875 v 0.75 l -1.25,0.15625 2,6.03125 2.03125,-6 z m 2.6114,8.875 v -0.6875 l 0.8125,-0.15625 q 0.0156,-0.54688 0.0156,-1.15625 0,-0.625 0,-1.07813 v -0.85937 q 0,-0.42188 -0.0156,-0.67188 0,-0.26562 -0.0156,-0.48437 0,-0.23438 -0.0156,-0.53125 l -0.89062,-0.14063 v -0.5625 l 2.89062,-0.98437 0.25,0.15625 0.14063,1.73437 q 0.3125,-0.9375 0.85937,-1.40625 0.5625,-0.48437 1.10938,-0.48437 0.48437,0 0.82812,0.28125 0.35938,0.26562 0.4375,0.79687 -0.0156,0.57813 -0.3125,0.89063 -0.28125,0.3125 -0.71875,0.3125 -0.625,0 -1.14062,-0.6875 l -0.0781,-0.10938 q -0.32812,0.29688 -0.60937,0.76563 -0.26563,0.46875 -0.375,0.98437 v 1 q 0,0.45313 0,1.04688 0,0.57812 0.0156,1.09375 l 1.15625,0.25 v 0.6875 z m 6.98706,-4.1875 v -1.10938 l 6.125,-3.15625 0.625,1.25 -5.03125,2.45313 5.03125,2.46875 -0.625,1.25 z m 11.84804,-4.59375 h -0.32812 q -0.0156,0.90625 -0.0312,1.82812 0,0.92188 0,1.875 v 0.57813 h 0.42187 q 0.96875,0 1.45313,-0.625 0.48437,-0.625 0.48437,-1.60938 0,-1.01562 -0.53125,-1.53125 -0.51562,-0.51562 -1.46875,-0.51562 z m -3.95312,-0.0625 v -0.78125 h 3.98437 q 1.53125,0 2.46875,0.35937 0.9375,0.35938 1.35938,1.01563 0.4375,0.64062 0.4375,1.51562 0,0.84375 -0.40625,1.54688 -0.40625,0.6875 -1.32813,1.10937 -0.92187,0.40625 -2.51562,0.40625 h -0.40625 q 0,0.625 0,1.32813 0.0156,0.6875 0.0312,1.42187 l 1.29687,0.125 v 0.79688 h -4.92187 v -0.79688 l 1.09375,-0.10937 q 0.0312,-0.89063 0.0312,-1.79688 0,-0.92187 0,-1.84375 v -0.53125 q 0,-0.92187 0,-1.82812 0,-0.92188 -0.0312,-1.8125 z m 15.92181,3.54687 v 1.10938 l -6.125,3.15625 -0.64062,-1.25 5.03125,-2.46875 -5.03125,-2.45313 0.64062,-1.25 z" />
    <path
       style="fill:#000000;fill-opacity:0;fill-rule:evenodd"
       id="path175"
       d="m 345.10498,337.40753 h 61.98425 v 14.86615 h -61.98425 z" />
    <path
       style="fill:#202122;fill-rule:nonzero"
       id="path177"
       d="m 353.82373,349.2768 q -0.78125,0 -1.51563,-0.29688 -0.71875,-0.3125 -1.3125,-0.89062 -0.57812,-0.59375 -0.92187,-1.45313 -0.34375,-0.875 -0.34375,-2.03125 0,-1.09375 0.34375,-1.95312 0.34375,-0.875 0.92187,-1.46875 0.59375,-0.59375 1.3125,-0.90625 0.73438,-0.3125 1.51563,-0.3125 0.76562,0 1.48437,0.29687 0.73438,0.29688 1.3125,0.89063 0.59375,0.57812 0.9375,1.45312 0.34375,0.85938 0.34375,2 0,1.09375 -0.34375,1.96875 -0.34375,0.85938 -0.92187,1.46875 -0.57813,0.60938 -1.3125,0.92188 -0.73438,0.3125 -1.5,0.3125 z m 0,-0.67188 q 0.6875,0 1.1875,-0.32812 0.5,-0.34375 0.8125,-0.90625 0.3125,-0.57813 0.45312,-1.28125 0.15625,-0.71875 0.15625,-1.48438 0,-0.75 -0.15625,-1.45312 -0.14062,-0.71875 -0.45312,-1.28125 -0.3125,-0.57813 -0.8125,-0.90625 -0.5,-0.34375 -1.1875,-0.34375 -0.6875,0 -1.1875,0.34375 -0.5,0.32812 -0.82813,0.90625 -0.3125,0.5625 -0.46875,1.28125 -0.15625,0.70312 -0.15625,1.45312 0,0.76563 0.15625,1.48438 0.15625,0.70312 0.46875,1.28125 0.32813,0.5625 0.82813,0.90625 0.5,0.32812 1.1875,0.32812 z m 5.17294,3.65625 v -0.46875 l 1.0625,-0.1875 q 0.0156,-0.54687 0.0156,-1.09375 0.0156,-0.53125 0.0156,-1.0625 v -3.8125 q 0,-0.54687 -0.0156,-0.90625 0,-0.35937 -0.0312,-0.76562 l -1.04688,-0.10938 v -0.46875 l 1.85938,-0.8125 0.20312,0.125 0.0781,0.875 q 0.95312,-1 2.01562,-1 0.71875,0 1.28125,0.40625 0.57813,0.39063 0.92188,1.14063 0.34375,0.73437 0.34375,1.76562 0,1.03125 -0.35938,1.78125 -0.35937,0.75 -0.98437,1.17188 -0.60938,0.40625 -1.40625,0.40625 -0.45313,0 -0.90625,-0.1875 -0.4375,-0.1875 -0.85938,-0.67188 v 1.04688 q 0,0.53125 0,1.0625 0.0156,0.54687 0.0156,1.09375 l 1.21875,0.20312 v 0.46875 z m 3.84375,-8.9375 q -0.3125,0 -0.71875,0.15625 -0.39062,0.15625 -0.90625,0.57813 v 3.75 q 0.375,0.35937 0.73438,0.51562 0.35937,0.15625 0.73437,0.15625 0.75,0 1.28125,-0.59375 0.53125,-0.59375 0.53125,-1.89062 0,-1.28125 -0.46875,-1.96875 -0.46875,-0.70313 -1.1875,-0.70313 z m 6.05881,5.92188 q -0.6875,0 -1.10937,-0.375 -0.40625,-0.375 -0.40625,-1.14063 0,-0.25 0,-0.5 0,-0.25 0,-0.64062 v -3.14063 h -1.09375 v -0.57812 l 1.1875,-0.15625 0.34375,-1.78125 h 0.79687 l -0.0781,1.8125 h 1.79687 v 0.70312 h -1.8125 v 4.125 q 0,0.51563 0.20313,0.75 0.20312,0.23438 0.53125,0.23438 0.21875,0 0.42187,-0.0937 0.21875,-0.0937 0.46875,-0.26563 l 0.32813,0.34375 q -0.54688,0.70313 -1.57813,0.70313 z m 2.36288,-4.25 v -0.625 l 5.15625,-3 0.39063,0.71875 -4.625,2.59375 4.625,2.59375 -0.39063,0.71875 z m 10.24909,-4.21875 h -0.8125 q 0,0.84375 -0.0156,1.73437 0,0.89063 0,1.78125 v 0.64063 h 0.875 q 1.21875,0 1.73438,-0.59375 0.51562,-0.59375 0.51562,-1.53125 0,-0.96875 -0.5625,-1.5 -0.54687,-0.53125 -1.73437,-0.53125 z m -3.34375,-0.0781 v -0.54687 h 3.57812 q 1.6875,0 2.53125,0.75 0.85938,0.73437 0.85938,1.90625 0,0.75 -0.375,1.375 -0.375,0.625 -1.20313,1 -0.8125,0.375 -2.1875,0.375 h -0.6875 q 0,0.71875 0,1.42187 0.0156,0.6875 0.0156,1.40625 l 1.25,0.14063 v 0.54687 h -3.78125 v -0.54687 l 1.21875,-0.14063 q 0.0312,-0.84375 0.0312,-1.70312 0,-0.875 0,-1.73438 v -0.65625 q 0,-0.875 0,-1.73437 0,-0.85938 -0.0312,-1.70313 z m 13.56897,3.67188 v 0.625 l -5.15625,3 -0.39063,-0.71875 4.625,-2.59375 -4.625,-2.59375 0.39063,-0.71875 z" />
    <path
       style="fill:#000000;fill-opacity:0;fill-rule:evenodd"
       id="path179"
       d="m 345.10605,356.96005 h 51.10553" />
    <path
       style="fill-rule:evenodd;stroke:#595959;stroke-width:2;stroke-linecap:butt;stroke-linejoin:round"
       id="path181"
       d="m 345.10605,356.96005 h 39.10553" />
    <path
       style="fill:#595959;fill-rule:evenodd;stroke:#595959;stroke-width:2;stroke-linecap:butt"
       id="path183"
       d="m 384.21158,360.26352 9.0762,-3.30347 -9.0762,-3.30346 z" />
    <path
       style="fill:#000000;fill-opacity:0;fill-rule:evenodd"
       id="path185"
       d="m 345.10605,351.00925 h 18.39801 v 11.90158 h -18.39801 z" />
    <path
       style="fill:#000000;fill-opacity:0;fill-rule:evenodd"
       id="path187"
       d="m 377.79282,351.00925 h 18.39798 v 11.90158 h -18.39798 z" />
    <path
       style="fill:#000000;fill-opacity:0;fill-rule:evenodd"
       id="path189"
       d="M 396.21088,386.80554 H 345.10535" />
    <path
       style="fill-rule:evenodd;stroke:#1c4587;stroke-width:2;stroke-linecap:butt;stroke-linejoin:round"
       id="path191"
       d="M 396.21088,386.80554 H 357.10535" />
    <path
       style="fill:#1c4587;fill-rule:evenodd;stroke:#1c4587;stroke-width:2;stroke-linecap:butt"
       id="path193"
       d="m 357.10535,383.50208 -9.07617,3.30347 9.07617,3.30343 z" />
    <path
       style="fill:#000000;fill-opacity:0;fill-rule:evenodd"
       id="path195"
       d="m 345.12717,380.85474 h 18.39798 v 11.90158 h -18.39798 z" />
    <path
       style="fill:#000000;fill-opacity:0;fill-rule:evenodd"
       id="path197"
       d="m 377.8136,380.85474 h 18.39798 v 11.90158 H 377.8136 Z" />
    <path
       style="fill:#000000;fill-opacity:0;fill-rule:evenodd"
       id="path199"
       d="m 215.12706,307.9018 h 51.10551" />
    <path
       style="fill-rule:evenodd;stroke:#595959;stroke-width:2;stroke-linecap:butt;stroke-linejoin:round"
       id="path201"
       d="m 215.12704,307.9018 h 39.10553" />
    <path
       style="fill:#595959;fill-rule:evenodd;stroke:#595959;stroke-width:2;stroke-linecap:butt"
       id="path203"
       d="m 254.23257,311.20523 9.0762,-3.30344 -9.0762,-3.30346 z" />
    <path
       style="fill:#000000;fill-opacity:0;fill-rule:evenodd"
       id="path205"
       d="m 215.12706,301.951 h 18.39798 v 11.90161 h -18.39798 z" />
    <path
       style="fill:#000000;fill-opacity:0;fill-rule:evenodd"
       id="path207"
       d="m 247.81381,301.951 h 18.39798 v 11.90161 h -18.39798 z" />
    <path
       style="fill:#000000;fill-opacity:0;fill-rule:evenodd"
       id="path209"
       d="M 266.23187,337.74728 H 215.12634" />
    <path
       style="fill-rule:evenodd;stroke:#1c4587;stroke-width:2;stroke-linecap:butt;stroke-linejoin:round"
       id="path211"
       d="M 266.23184,337.74728 H 227.12636" />
    <path
       style="fill:#1c4587;fill-rule:evenodd;stroke:#1c4587;stroke-width:2;stroke-linecap:butt"
       id="path213"
       d="m 227.12636,334.44382 -9.0762,3.30347 9.0762,3.30346 z" />
    <path
       style="fill:#000000;fill-opacity:0;fill-rule:evenodd"
       id="path215"
       d="m 215.14816,331.79648 h 18.39798 v 11.90158 h -18.39798 z" />
    <path
       style="fill:#000000;fill-opacity:0;fill-rule:evenodd"
       id="path217"
       d="m 247.83458,331.79648 h 18.39799 v 11.90158 h -18.39799 z" />
    <path
       style="fill:#000000;fill-opacity:0;fill-rule:evenodd"
       id="path219"
       d="m 345.10498,366.22565 h 61.98425 v 14.86612 h -61.98425 z" />
    <path
       style="fill:#202122;fill-rule:nonzero"
       id="path221"
       d="m 355.40186,373.20428 q 0.8125,0.21875 1.32812,0.84375 0.53125,0.60937 0.53125,1.45312 0,1.15625 -1.04687,1.78125 -1.03125,0.60938 -2.5625,0.60938 h -3.96875 q -0.23438,0 -0.23438,-0.25 0,-0.25 0.4375,-0.25 0.46875,0 0.625,-0.125 0.17188,-0.14063 0.17188,-0.59375 v -6.3125 q 0,-0.5 -0.20313,-0.60938 -0.20312,-0.10937 -0.79687,-0.10937 -0.23438,0 -0.23438,-0.25 0,-0.25 0.23438,-0.25 h 3.96875 q 3.10937,0 3.10937,2.25 0,1.10937 -1.35937,1.8125 z m 0.89062,-1.8125 q 0,-1.48438 -1.70312,-1.70313 0.54687,0.625 0.54687,1.70313 0,1.21875 -0.6875,1.75 1.84375,-0.875 1.84375,-1.75 z m -1.64062,0 q 0,-0.76563 -0.32813,-1.25 -0.32812,-0.5 -0.92187,-0.5 -0.28125,0 -0.5,0.14062 -0.20313,0.125 -0.20313,0.34375 v 3 q 0.96875,0 1.45313,-0.375 0.5,-0.375 0.5,-1.35937 z m 2.125,4.10937 q 0,-0.8125 -0.51563,-1.25 -0.51562,-0.4375 -1.42187,-0.70312 0.6875,0.53125 0.6875,1.95312 0,1.09375 -0.54688,1.75 1.79688,-0.45312 1.79688,-1.75 z m -4.07813,1.42188 q 0,0.21875 0.20313,0.34375 0.21875,0.125 0.5,0.125 1.64062,0 1.64062,-1.89063 0,-0.98437 -0.375,-1.4375 -0.35937,-0.45312 -1.26562,-0.45312 h -0.70313 z m -0.34375,-7.28125 h -1.3125 q 0.125,0.25 0.125,0.71875 v 6.3125 q 0,0.46875 -0.125,0.71875 h 1.3125 q -0.14062,-0.21875 -0.14062,-0.46875 v -6.79688 q 0,-0.26562 0.14062,-0.48437 z" />
    <path
       style="fill:#000000;fill-opacity:0;fill-rule:evenodd"
       id="path223"
       d="m 204.24934,288.34927 h 61.98424 v 14.86615 h -61.98424 z" />
    <path
       style="fill:#202122;fill-rule:nonzero"
       id="path225"
       d="m 223.5562,300.21854 q -0.78125,0 -1.51563,-0.29687 -0.71875,-0.3125 -1.3125,-0.89063 -0.57812,-0.59375 -0.92187,-1.45312 -0.34375,-0.875 -0.34375,-2.03125 0,-1.09375 0.34375,-1.95313 0.34375,-0.875 0.92187,-1.46875 0.59375,-0.59375 1.3125,-0.90625 0.73438,-0.3125 1.51563,-0.3125 0.76562,0 1.48437,0.29688 0.73438,0.29687 1.3125,0.89062 0.59375,0.57813 0.9375,1.45313 0.34375,0.85937 0.34375,2 0,1.09375 -0.34375,1.96875 -0.34375,0.85937 -0.92187,1.46875 -0.57813,0.60937 -1.3125,0.92187 -0.73438,0.3125 -1.5,0.3125 z m 0,-0.67187 q 0.6875,0 1.1875,-0.32813 0.5,-0.34375 0.8125,-0.90625 0.3125,-0.57812 0.45312,-1.28125 0.15625,-0.71875 0.15625,-1.48437 0,-0.75 -0.15625,-1.45313 -0.14062,-0.71875 -0.45312,-1.28125 -0.3125,-0.57812 -0.8125,-0.90625 -0.5,-0.34375 -1.1875,-0.34375 -0.6875,0 -1.1875,0.34375 -0.5,0.32813 -0.82813,0.90625 -0.3125,0.5625 -0.46875,1.28125 -0.15625,0.70313 -0.15625,1.45313 0,0.76562 0.15625,1.48437 0.15625,0.70313 0.46875,1.28125 0.32813,0.5625 0.82813,0.90625 0.5,0.32813 1.1875,0.32813 z m 5.17294,3.65625 v -0.46875 l 1.0625,-0.1875 q 0.0156,-0.54688 0.0156,-1.09375 0.0156,-0.53125 0.0156,-1.0625 v -3.8125 q 0,-0.54688 -0.0156,-0.90625 0,-0.35938 -0.0312,-0.76563 l -1.04688,-0.10937 v -0.46875 l 1.85938,-0.8125 0.20312,0.125 0.0781,0.875 q 0.95312,-1 2.01562,-1 0.71875,0 1.28125,0.40625 0.57813,0.39062 0.92188,1.14062 0.34375,0.73438 0.34375,1.76563 0,1.03125 -0.35938,1.78125 -0.35937,0.75 -0.98437,1.17187 -0.60938,0.40625 -1.40625,0.40625 -0.45313,0 -0.90625,-0.1875 -0.4375,-0.1875 -0.85938,-0.67187 v 1.04687 q 0,0.53125 0,1.0625 0.0156,0.54688 0.0156,1.09375 l 1.21875,0.20313 v 0.46875 z m 3.84375,-8.9375 q -0.3125,0 -0.71875,0.15625 -0.39062,0.15625 -0.90625,0.57812 v 3.75 q 0.375,0.35938 0.73438,0.51563 0.35937,0.15625 0.73437,0.15625 0.75,0 1.28125,-0.59375 0.53125,-0.59375 0.53125,-1.89063 0,-1.28125 -0.46875,-1.96875 -0.46875,-0.70312 -1.1875,-0.70312 z m 6.05881,5.92187 q -0.6875,0 -1.10937,-0.375 -0.40625,-0.375 -0.40625,-1.14062 0,-0.25 0,-0.5 0,-0.25 0,-0.64063 v -3.14062 h -1.09375 v -0.57813 l 1.1875,-0.15625 0.34375,-1.78125 h 0.79687 l -0.0781,1.8125 h 1.79687 v 0.70313 h -1.8125 v 4.125 q 0,0.51562 0.20313,0.75 0.20312,0.23437 0.53125,0.23437 0.21875,0 0.42187,-0.0937 0.21875,-0.0937 0.46875,-0.26562 l 0.32813,0.34375 q -0.54688,0.70312 -1.57813,0.70312 z m 2.36287,-4.25 v -0.625 l 5.15625,-3 0.39062,0.71875 -4.625,2.59375 4.625,2.59375 -0.39062,0.71875 z m 10.24908,-4.21875 h -0.8125 q 0,0.84375 -0.0156,1.73438 0,0.89062 0,1.78125 v 0.64062 h 0.875 q 1.21875,0 1.73437,-0.59375 0.51563,-0.59375 0.51563,-1.53125 0,-0.96875 -0.5625,-1.5 -0.54688,-0.53125 -1.73438,-0.53125 z m -3.34375,-0.0781 v -0.54688 h 3.57813 q 1.6875,0 2.53125,0.75 0.85937,0.73438 0.85937,1.90625 0,0.75 -0.375,1.375 -0.375,0.625 -1.20312,1 -0.8125,0.375 -2.1875,0.375 h -0.6875 q 0,0.71875 0,1.42188 0.0156,0.6875 0.0156,1.40625 l 1.25,0.14062 v 0.54688 h -3.78125 v -0.54688 l 1.21875,-0.14062 q 0.0312,-0.84375 0.0312,-1.70313 0,-0.875 0,-1.73437 v -0.65625 q 0,-0.875 0,-1.73438 0,-0.85937 -0.0312,-1.70312 z m 13.56897,3.67187 v 0.625 l -5.15625,3 -0.39061,-0.71875 4.62499,-2.59375 -4.62499,-2.59375 0.39061,-0.71875 z" />
    <path
       style="fill:#000000;fill-opacity:0;fill-rule:evenodd"
       id="path227"
       d="m 204.24934,317.1674 h 61.98424 v 14.86612 h -61.98424 z" />
    <path
       style="fill:#202122;fill-rule:nonzero"
       id="path229"
       d="m 259.98718,324.14603 q 0.8125,0.21875 1.32813,0.84375 0.53125,0.60937 0.53125,1.45312 0,1.15625 -1.04688,1.78125 -1.03125,0.60938 -2.5625,0.60938 h -3.96875 q -0.23437,0 -0.23437,-0.25 0,-0.25 0.4375,-0.25 0.46875,0 0.625,-0.125 0.17187,-0.14063 0.17187,-0.59375 v -6.3125 q 0,-0.5 -0.20312,-0.60938 -0.20313,-0.10937 -0.79688,-0.10937 -0.23437,0 -0.23437,-0.25 0,-0.25 0.23437,-0.25 h 3.96875 q 3.10938,0 3.10938,2.25 0,1.10937 -1.35938,1.8125 z m 0.89063,-1.8125 q 0,-1.48438 -1.70313,-1.70313 0.54688,0.625 0.54688,1.70313 0,1.21875 -0.6875,1.75 1.84375,-0.875 1.84375,-1.75 z m -1.64063,0 q 0,-0.76563 -0.32812,-1.25 -0.32813,-0.5 -0.92188,-0.5 -0.28125,0 -0.5,0.14062 -0.20312,0.125 -0.20312,0.34375 v 3 q 0.96875,0 1.45312,-0.375 0.5,-0.375 0.5,-1.35937 z m 2.125,4.10937 q 0,-0.8125 -0.51562,-1.25 -0.51563,-0.4375 -1.42188,-0.70312 0.6875,0.53125 0.6875,1.95312 0,1.09375 -0.54687,1.75 1.79687,-0.45312 1.79687,-1.75 z m -4.07812,1.42188 q 0,0.21875 0.20312,0.34375 0.21875,0.125 0.5,0.125 1.64063,0 1.64063,-1.89063 0,-0.98437 -0.375,-1.4375 -0.35938,-0.45312 -1.26563,-0.45312 h -0.70312 z m -0.34375,-7.28125 h -1.3125 q 0.125,0.25 0.125,0.71875 v 6.3125 q 0,0.46875 -0.125,0.71875 h 1.3125 q -0.14063,-0.21875 -0.14063,-0.46875 v -6.79688 q 0,-0.26562 0.14063,-0.48437 z" />
    <path
       style="fill:#000000;fill-opacity:0;fill-rule:evenodd"
       id="path231"
       d="m 215.12706,406.01727 h 51.10551" />
    <path
       style="fill-rule:evenodd;stroke:#595959;stroke-width:2;stroke-linecap:butt;stroke-linejoin:round"
       id="path233"
       d="m 215.12704,406.01727 h 39.10553" />
    <path
       style="fill:#595959;fill-rule:evenodd;stroke:#595959;stroke-width:2;stroke-linecap:butt"
       id="path235"
       d="m 254.23257,409.32074 9.0762,-3.30347 -9.0762,-3.30346 z" />
    <path
       style="fill:#000000;fill-opacity:0;fill-rule:evenodd"
       id="path237"
       d="m 215.12706,400.06647 h 18.39798 v 11.90161 h -18.39798 z" />
    <path
       style="fill:#000000;fill-opacity:0;fill-rule:evenodd"
       id="path239"
       d="m 247.81381,400.06647 h 18.39798 v 11.90161 h -18.39798 z" />
    <path
       style="fill:#000000;fill-opacity:0;fill-rule:evenodd"
       id="path241"
       d="M 266.23187,435.86276 H 215.12634" />
    <path
       style="fill-rule:evenodd;stroke:#1c4587;stroke-width:2;stroke-linecap:butt;stroke-linejoin:round"
       id="path243"
       d="M 266.23184,435.8628 H 227.12636" />
    <path
       style="fill:#1c4587;fill-rule:evenodd;stroke:#1c4587;stroke-width:2;stroke-linecap:butt"
       id="path245"
       d="m 227.12636,432.55933 -9.0762,3.30347 9.0762,3.30343 z" />
    <path
       style="fill:#000000;fill-opacity:0;fill-rule:evenodd"
       id="path247"
       d="m 215.14816,429.91196 h 18.39798 v 11.90161 h -18.39798 z" />
    <path
       style="fill:#000000;fill-opacity:0;fill-rule:evenodd"
       id="path249"
       d="m 247.83458,429.91196 h 18.39799 v 11.90161 h -18.39799 z" />
    <path
       style="fill:#000000;fill-opacity:0;fill-rule:evenodd"
       id="path251"
       d="m 204.24934,386.46475 h 61.98424 v 14.86615 h -61.98424 z" />
    <path
       style="fill:#202122;fill-rule:nonzero"
       id="path253"
       d="m 223.5562,398.334 q -0.78125,0 -1.51563,-0.29688 -0.71875,-0.3125 -1.3125,-0.89062 -0.57812,-0.59375 -0.92187,-1.45313 -0.34375,-0.875 -0.34375,-2.03125 0,-1.09375 0.34375,-1.95312 0.34375,-0.875 0.92187,-1.46875 0.59375,-0.59375 1.3125,-0.90625 0.73438,-0.3125 1.51563,-0.3125 0.76562,0 1.48437,0.29687 0.73438,0.29688 1.3125,0.89063 0.59375,0.57812 0.9375,1.45312 0.34375,0.85938 0.34375,2 0,1.09375 -0.34375,1.96875 -0.34375,0.85938 -0.92187,1.46875 -0.57813,0.60938 -1.3125,0.92188 -0.73438,0.3125 -1.5,0.3125 z m 0,-0.67188 q 0.6875,0 1.1875,-0.32812 0.5,-0.34375 0.8125,-0.90625 0.3125,-0.57813 0.45312,-1.28125 0.15625,-0.71875 0.15625,-1.48438 0,-0.75 -0.15625,-1.45312 -0.14062,-0.71875 -0.45312,-1.28125 -0.3125,-0.57813 -0.8125,-0.90625 -0.5,-0.34375 -1.1875,-0.34375 -0.6875,0 -1.1875,0.34375 -0.5,0.32812 -0.82813,0.90625 -0.3125,0.5625 -0.46875,1.28125 -0.15625,0.70312 -0.15625,1.45312 0,0.76563 0.15625,1.48438 0.15625,0.70312 0.46875,1.28125 0.32813,0.5625 0.82813,0.90625 0.5,0.32812 1.1875,0.32812 z m 5.17294,3.65625 v -0.46875 l 1.0625,-0.1875 q 0.0156,-0.54687 0.0156,-1.09375 0.0156,-0.53125 0.0156,-1.0625 v -3.8125 q 0,-0.54687 -0.0156,-0.90625 0,-0.35937 -0.0312,-0.76562 l -1.04688,-0.10938 v -0.46875 l 1.85938,-0.8125 0.20312,0.125 0.0781,0.875 q 0.95312,-1 2.01562,-1 0.71875,0 1.28125,0.40625 0.57813,0.39063 0.92188,1.14063 0.34375,0.73437 0.34375,1.76562 0,1.03125 -0.35938,1.78125 -0.35937,0.75 -0.98437,1.17188 -0.60938,0.40625 -1.40625,0.40625 -0.45313,0 -0.90625,-0.1875 -0.4375,-0.1875 -0.85938,-0.67188 v 1.04688 q 0,0.53125 0,1.0625 0.0156,0.54687 0.0156,1.09375 l 1.21875,0.20312 v 0.46875 z m 3.84375,-8.9375 q -0.3125,0 -0.71875,0.15625 -0.39062,0.15625 -0.90625,0.57813 v 3.75 q 0.375,0.35937 0.73438,0.51562 0.35937,0.15625 0.73437,0.15625 0.75,0 1.28125,-0.59375 0.53125,-0.59375 0.53125,-1.89062 0,-1.28125 -0.46875,-1.96875 -0.46875,-0.70313 -1.1875,-0.70313 z m 6.05881,5.92188 q -0.6875,0 -1.10937,-0.375 -0.40625,-0.375 -0.40625,-1.14063 0,-0.25 0,-0.5 0,-0.25 0,-0.64062 v -3.14063 h -1.09375 v -0.57812 l 1.1875,-0.15625 0.34375,-1.78125 h 0.79687 l -0.0781,1.8125 h 1.79687 v 0.70312 h -1.8125 v 4.125 q 0,0.51563 0.20313,0.75 0.20312,0.23438 0.53125,0.23438 0.21875,0 0.42187,-0.0937 0.21875,-0.0937 0.46875,-0.26563 l 0.32813,0.34375 q -0.54688,0.70313 -1.57813,0.70313 z m 2.36287,-4.25 v -0.625 l 5.15625,-3 0.39062,0.71875 -4.625,2.59375 4.625,2.59375 -0.39062,0.71875 z m 10.24908,-4.21875 h -0.8125 q 0,0.84375 -0.0156,1.73437 0,0.89063 0,1.78125 v 0.64063 h 0.875 q 1.21875,0 1.73437,-0.59375 0.51563,-0.59375 0.51563,-1.53125 0,-0.96875 -0.5625,-1.5 -0.54688,-0.53125 -1.73438,-0.53125 z m -3.34375,-0.0781 v -0.5469 h 3.57813 q 1.6875,0 2.53125,0.75 0.85937,0.73437 0.85937,1.90625 0,0.75 -0.375,1.375 -0.375,0.625 -1.20312,1 -0.8125,0.375 -2.1875,0.375 h -0.6875 q 0,0.71875 0,1.42187 0.0156,0.6875 0.0156,1.40625 l 1.25,0.14063 v 0.54687 H 247.8999 V 397.584 l 1.21875,-0.14063 q 0.0312,-0.84375 0.0312,-1.70312 0,-0.875 0,-1.73438 v -0.65625 q 0,-0.875 0,-1.73437 0,-0.85938 -0.0312,-1.70313 z m 13.56897,3.67188 v 0.625 l -5.15625,3 -0.39061,-0.71875 4.62499,-2.59375 -4.62499,-2.59375 0.39061,-0.71875 z" />
    <path
       style="fill:#000000;fill-opacity:0;fill-rule:evenodd"
       id="path255"
       d="m 204.24934,415.28287 h 61.98424 v 14.86615 h -61.98424 z" />
    <path
       style="fill:#202122;fill-rule:nonzero"
       id="path257"
       d="m 259.98718,422.2615 q 0.8125,0.21875 1.32813,0.84375 0.53125,0.60937 0.53125,1.45312 0,1.15625 -1.04688,1.78125 -1.03125,0.60938 -2.5625,0.60938 h -3.96875 q -0.23437,0 -0.23437,-0.25 0,-0.25 0.4375,-0.25 0.46875,0 0.625,-0.125 0.17187,-0.14063 0.17187,-0.59375 v -6.3125 q 0,-0.5 -0.20312,-0.60938 -0.20313,-0.10937 -0.79688,-0.10937 -0.23437,0 -0.23437,-0.25 0,-0.25 0.23437,-0.25 h 3.96875 q 3.10938,0 3.10938,2.25 0,1.10937 -1.35938,1.8125 z m 0.89063,-1.8125 q 0,-1.48438 -1.70313,-1.70313 0.54688,0.625 0.54688,1.70313 0,1.21875 -0.6875,1.75 1.84375,-0.875 1.84375,-1.75 z m -1.64063,0 q 0,-0.76563 -0.32812,-1.25 -0.32813,-0.5 -0.92188,-0.5 -0.28125,0 -0.5,0.14062 -0.20312,0.125 -0.20312,0.34375 v 3 q 0.96875,0 1.45312,-0.375 0.5,-0.375 0.5,-1.35937 z m 2.125,4.10937 q 0,-0.8125 -0.51562,-1.25 -0.51563,-0.4375 -1.42188,-0.70312 0.6875,0.53125 0.6875,1.95312 0,1.09375 -0.54687,1.75 1.79687,-0.45312 1.79687,-1.75 z m -4.07812,1.42188 q 0,0.21875 0.20312,0.34375 0.21875,0.125 0.5,0.125 1.64063,0 1.64063,-1.89063 0,-0.98437 -0.375,-1.4375 -0.35938,-0.45312 -1.26563,-0.45312 h -0.70312 z m -0.34375,-7.28125 h -1.3125 q 0.125,0.25 0.125,0.71875 v 6.3125 q 0,0.46875 -0.125,0.71875 h 1.3125 q -0.14063,-0.21875 -0.14063,-0.46875 v -6.79688 q 0,-0.26562 0.14063,-0.48437 z" />
    <path
       style="fill:#000000;fill-opacity:0;fill-rule:evenodd"
       id="path259"
       d="m 266.2118,307.9018 c 19.72363,0 29.58505,12.2677 39.44723,24.53543 9.86222,12.2677 19.72522,24.53543 39.45041,24.53543" />
    <path
       style="fill-rule:evenodd;stroke:#595959;stroke-width:1;stroke-linecap:butt;stroke-linejoin:round"
       id="path261"
       d="m 266.2118,307.9018 c 19.72363,0 29.58505,12.2677 39.44723,24.53543 4.93113,6.13385 9.86243,12.2677 16.02658,16.8681 3.08213,2.3002 6.47242,4.21701 10.32502,5.55881 1.9263,0.6709 3.9682,1.19803 6.14489,1.5574 0.2721,0.045 0.5463,0.0872 0.82264,0.1269 l 0.14495,0.02" />
    <path
       style="fill:#595959;fill-rule:evenodd;stroke:#595959;stroke-width:1;stroke-linecap:butt"
       id="path263"
       d="m 339.0118,358.2164 4.63907,-1.34225 -4.41651,-1.95371 z" />
    <path
       style="fill:#000000;fill-opacity:0;fill-rule:evenodd"
       id="path265"
       d="m 266.20844,406.0309 c 19.7244,0 29.58661,-12.26773 39.44882,-24.53543 9.86219,-12.26773 19.7244,-24.53543 39.44879,-24.53543" />
    <path
       style="fill-rule:evenodd;stroke:#595959;stroke-width:1;stroke-linecap:butt;stroke-linejoin:round"
       id="path267"
       d="m 266.2084,406.0309 c 19.72443,0 29.58664,-12.2677 39.44882,-24.53543 4.93112,-6.13385 9.86221,-12.2677 16.02609,-16.8681 3.08194,-2.3002 6.47208,-4.21704 10.3245,-5.55881 1.92621,-0.6709 3.96798,-1.198 6.14462,-1.5574 0.27207,-0.045 0.54627,-0.0873 0.8226,-0.1269 l 0.14466,-0.02" />
    <path
       style="fill:#595959;fill-rule:evenodd;stroke:#595959;stroke-width:1;stroke-linecap:butt"
       id="path269"
       d="m 339.23096,359.01227 4.4165,-1.9537 -4.63906,-1.34226 z" />
    <path
       style="fill:#000000;fill-opacity:0;fill-rule:evenodd"
       id="path271"
       d="m 266.2118,307.9018 c 16.57782,0 33.1478,31.99213 33.15567,63.98425 0.008,31.99213 -16.54633,63.98426 -33.09268,63.98426" />
    <path
       style="fill-rule:evenodd;stroke:#595959;stroke-width:1;stroke-linecap:butt;stroke-linejoin:round"
       id="path273"
       d="m 266.2118,307.9018 c 16.57785,0 33.1478,31.99213 33.15567,63.98422 0.004,15.99606 -4.13266,31.99213 -10.3385,43.9892 -3.10294,5.9985 -6.72318,10.99728 -10.60184,14.49643 -1.93933,1.74957 -3.94327,3.1242 -5.97946,4.06152 l -0.31467,0.14044" />
    <path
       style="fill:#595959;fill-rule:evenodd;stroke:#595959;stroke-width:1;stroke-linecap:butt"
       id="path275"
       d="m 271.77603,432.9609 -4.07388,2.59344 4.78781,0.63196 z" />
    <path
       style="fill:#000000;fill-opacity:0;fill-rule:evenodd"
       id="path277"
       d="m 345.12717,386.80554 c -19.72363,0 -29.58502,-12.26773 -39.44724,-24.53543 -9.86221,-12.26773 -19.72519,-24.53546 -39.4504,-24.53546" />
    <path
       style="fill-rule:evenodd;stroke:#1c4587;stroke-width:1;stroke-linecap:butt;stroke-linejoin:round"
       id="path279"
       d="m 345.12717,386.80554 c -19.72363,0 -29.58502,-12.26773 -39.44724,-24.53546 -4.93109,-6.13385 -9.86239,-12.2677 -16.02658,-16.8681 -3.08206,-2.30021 -6.47238,-4.21701 -10.32501,-5.55881 -1.9263,-0.6709 -3.96817,-1.19803 -6.14486,-1.5574 -0.27213,-0.0449 -0.54633,-0.0873 -0.82264,-0.1269 l -0.14492,-0.02" />
    <path
       style="fill:#1c4587;fill-rule:evenodd;stroke:#1c4587;stroke-width:1;stroke-linecap:butt"
       id="path281"
       d="m 272.32718,336.4909 -4.63907,1.34225 4.41651,1.95371 z" />
    <path
       style="fill:#000000;fill-opacity:0;fill-rule:evenodd"
       id="path283"
       d="m 345.12717,386.80554 c -19.72363,0 -29.58502,12.2677 -39.44724,24.53543 -9.86221,12.2677 -19.72519,24.53543 -39.4504,24.53543" />
    <path
       style="fill-rule:evenodd;stroke:#1c4587;stroke-width:1;stroke-linecap:butt;stroke-linejoin:round"
       id="path285"
       d="m 345.12717,386.80554 c -19.72363,0 -29.58502,12.2677 -39.44724,24.53543 -4.93109,6.13385 -9.86239,12.2677 -16.02658,16.8681 -3.08206,2.3002 -6.47238,4.21701 -10.32501,5.55881 -1.9263,0.6709 -3.96817,1.198 -6.14486,1.5574 -0.27213,0.045 -0.54633,0.0872 -0.82264,0.1269 l -0.14492,0.02" />
    <path
       style="fill:#1c4587;fill-rule:evenodd;stroke:#1c4587;stroke-width:1;stroke-linecap:butt"
       id="path287"
       d="m 272.1046,433.8242 -4.4165,1.9537 4.63906,1.34226 z" />
  </g>
</svg>
