<?xml version="1.0" encoding="UTF-8" standalone="no"?>
<svg
   xmlns:dc="http://purl.org/dc/elements/1.1/"
   xmlns:cc="http://creativecommons.org/ns#"
   xmlns:rdf="http://www.w3.org/1999/02/22-rdf-syntax-ns#"
   xmlns:svg="http://www.w3.org/2000/svg"
   xmlns="http://www.w3.org/2000/svg"
   style="fill:none;stroke:none;stroke-linecap:square;stroke-miterlimit:10"
   height="108.49606"
   width="438.25983"
   id="svg221"
   stroke-miterlimit="10"
   viewBox="0 0 438.25983 108.49606"
   version="1.1">
  <metadata
     id="metadata227">
    <rdf:RDF>
      <cc:Work
         rdf:about="">
        <dc:format>image/svg+xml</dc:format>
        <dc:type
           rdf:resource="http://purl.org/dc/dcmitype/StillImage" />
        <dc:title></dc:title>
      </cc:Work>
    </rdf:RDF>
  </metadata>
  <defs
     id="defs225" />
  <clipPath
     id="g28937a38c67_1_0.0">
    <path
       style="clip-rule:nonzero"
       id="path2"
       d="M 0,0 H 960 V 540 H 0 Z" />
  </clipPath>
  <g
     transform="translate(-47.89107,-55.7021)"
     id="g219"
     clip-path="url(#g28937a38c67_1_0.0)">
    <path
       style="fill:#d9d9d9;fill-rule:evenodd"
       id="path11"
       d="m 204.94357,81.5538 h 124.15747 v 76.50394 H 204.94357 Z" />
    <path
       style="fill-rule:evenodd;stroke:#595959;stroke-width:1;stroke-linecap:butt;stroke-linejoin:round"
       id="path13"
       d="m 204.94357,81.5538 h 124.15747 v 76.50394 H 204.94357 Z" />
    <path
       style="fill:#000000;fill-opacity:0;fill-rule:evenodd"
       id="path15"
       d="m 142.95538,93.685745 h 61.98425 v 14.866145 h -61.98425 z" />
    <path
       style="fill:#202122;fill-rule:nonzero"
       id="path17"
       d="m 162.26224,105.55502 q -0.78125,0 -1.51563,-0.29688 -0.71875,-0.3125 -1.3125,-0.89062 -0.57812,-0.59375 -0.92187,-1.45313 -0.34375,-0.875 -0.34375,-2.03125 0,-1.093749 0.34375,-1.953124 0.34375,-0.875 0.92187,-1.46875 0.59375,-0.59375 1.3125,-0.90625 0.73438,-0.3125 1.51563,-0.3125 0.76562,0 1.48437,0.296875 0.73438,0.296875 1.3125,0.890625 0.59375,0.578125 0.9375,1.453125 0.34375,0.859375 0.34375,1.999999 0,1.09375 -0.34375,1.96875 -0.34375,0.85938 -0.92187,1.46875 -0.57813,0.60938 -1.3125,0.92188 -0.73438,0.3125 -1.5,0.3125 z m 0,-0.67188 q 0.6875,0 1.1875,-0.32812 0.5,-0.34375 0.8125,-0.90625 0.3125,-0.57813 0.45312,-1.28125 0.15625,-0.71875 0.15625,-1.48438 0,-0.75 -0.15625,-1.453124 -0.14062,-0.71875 -0.45312,-1.28125 -0.3125,-0.578125 -0.8125,-0.90625 -0.5,-0.34375 -1.1875,-0.34375 -0.6875,0 -1.1875,0.34375 -0.5,0.328125 -0.82813,0.90625 -0.3125,0.5625 -0.46875,1.28125 -0.15625,0.703124 -0.15625,1.453124 0,0.76563 0.15625,1.48438 0.15625,0.70312 0.46875,1.28125 0.32813,0.5625 0.82813,0.90625 0.5,0.32812 1.1875,0.32812 z m 5.17294,3.65625 v -0.46875 l 1.0625,-0.1875 q 0.0156,-0.54687 0.0156,-1.09375 0.0156,-0.53125 0.0156,-1.0625 v -3.8125 q 0,-0.54687 -0.0156,-0.90625 0,-0.35937 -0.0312,-0.76562 l -1.04688,-0.10938 v -0.468749 l 1.85938,-0.8125 0.20312,0.125 0.0781,0.875 q 0.95312,-1 2.01562,-1 0.71875,0 1.28125,0.40625 0.57813,0.390625 0.92188,1.140629 0.34375,0.73437 0.34375,1.76562 0,1.03125 -0.35938,1.78125 -0.35937,0.75 -0.98437,1.17188 -0.60938,0.40625 -1.40625,0.40625 -0.45313,0 -0.90625,-0.1875 -0.4375,-0.1875 -0.85938,-0.67188 v 1.04688 q 0,0.53125 0,1.0625 0.0156,0.54687 0.0156,1.09375 l 1.21875,0.20312 v 0.46875 z m 3.84375,-8.937499 q -0.3125,0 -0.71875,0.15625 -0.39062,0.15625 -0.90625,0.578129 v 3.75 q 0.375,0.35937 0.73438,0.51562 0.35937,0.15625 0.73437,0.15625 0.75,0 1.28125,-0.59375 0.53125,-0.59375 0.53125,-1.89062 0,-1.28125 -0.46875,-1.96875 -0.46875,-0.703129 -1.1875,-0.703129 z m 6.05881,5.921879 q -0.6875,0 -1.10937,-0.375 -0.40625,-0.375 -0.40625,-1.14063 0,-0.25 0,-0.5 0,-0.25 0,-0.64062 v -3.140629 h -1.09375 v -0.578125 l 1.1875,-0.15625 0.34375,-1.78125 h 0.79687 l -0.0781,1.8125 h 1.79687 v 0.703125 h -1.8125 v 4.124999 q 0,0.51563 0.20313,0.75 0.20312,0.23438 0.53125,0.23438 0.21875,0 0.42187,-0.0937 0.21875,-0.0937 0.46875,-0.26563 l 0.32813,0.34375 q -0.54688,0.70313 -1.57813,0.70313 z m 2.36287,-4.25 v -0.625 l 5.15625,-3.000004 0.39062,0.71875 -4.625,2.593754 4.625,2.59375 -0.39062,0.71875 z m 10.24908,-4.218754 h -0.8125 q 0,0.84375 -0.0156,1.734375 0,0.890625 0,1.781249 v 0.64063 h 0.875 q 1.21875,0 1.73437,-0.59375 0.51563,-0.59375 0.51563,-1.531254 0,-0.96875 -0.5625,-1.5 -0.54688,-0.53125 -1.73438,-0.53125 z m -3.34375,-0.07813 v -0.546875 h 3.57813 q 1.6875,0 2.53125,0.75 0.85937,0.734375 0.85937,1.90625 0,0.75 -0.375,1.374999 -0.375,0.625 -1.20312,1 -0.8125,0.375 -2.1875,0.375 h -0.6875 q 0,0.71875 0,1.42187 0.0156,0.6875 0.0156,1.40625 l 1.25,0.14063 v 0.54687 h -3.78125 v -0.54687 l 1.21875,-0.14063 q 0.0312,-0.84375 0.0312,-1.70312 0,-0.875 0,-1.73438 v -0.65625 q 0,-0.874994 0,-1.734369 0,-0.859375 -0.0312,-1.703125 z m 13.56899,3.671874 v 0.625 l -5.15625,3 -0.39063,-0.71875 4.625,-2.59375 -4.625,-2.593749 0.39063,-0.71875 z" />
    <path
       style="fill:#000000;fill-opacity:0;fill-rule:evenodd"
       id="path19"
       d="m 153.83572,113.23826 h 51.10551" />
    <path
       style="fill-rule:evenodd;stroke:#595959;stroke-width:2;stroke-linecap:butt;stroke-linejoin:round"
       id="path21"
       d="m 153.83572,113.23826 h 39.10551" />
    <path
       style="fill:#595959;fill-rule:evenodd;stroke:#595959;stroke-width:2;stroke-linecap:butt"
       id="path23"
       d="m 192.94124,116.54173 9.07619,-3.30347 -9.07619,-3.30346 z" />
    <path
       style="fill:#000000;fill-opacity:0;fill-rule:evenodd"
       id="path25"
       d="m 153.83572,107.28746 h 18.39798 v 11.9016 h -18.39798 z" />
    <path
       style="fill:#000000;fill-opacity:0;fill-rule:evenodd"
       id="path27"
       d="m 186.52248,107.28746 h 18.39798 v 11.9016 h -18.39798 z" />
    <path
       style="fill:#000000;fill-opacity:0;fill-rule:evenodd"
       id="path29"
       d="M 204.94052,143.08374 H 153.835" />
    <path
       style="fill-rule:evenodd;stroke:#1c4587;stroke-width:2;stroke-linecap:butt;stroke-linejoin:round"
       id="path31"
       d="m 204.94052,143.08374 h -39.1055" />
    <path
       style="fill:#1c4587;fill-rule:evenodd;stroke:#1c4587;stroke-width:2;stroke-linecap:butt"
       id="path33"
       d="m 165.835,139.78027 -9.07619,3.30347 9.07619,3.30346 z" />
    <path
       style="fill:#000000;fill-opacity:0;fill-rule:evenodd"
       id="path35"
       d="m 153.85683,137.13295 h 18.39798 v 11.9016 h -18.39798 z" />
    <path
       style="fill:#000000;fill-opacity:0;fill-rule:evenodd"
       id="path37"
       d="m 186.54324,137.13295 h 18.39799 v 11.9016 h -18.39799 z" />
    <path
       style="fill:#000000;fill-opacity:0;fill-rule:evenodd"
       id="path39"
       d="m 329.10605,113.23826 h 51.10553" />
    <path
       style="fill-rule:evenodd;stroke:#595959;stroke-width:2;stroke-linecap:butt;stroke-linejoin:round"
       id="path41"
       d="m 329.10605,113.23826 h 39.10553" />
    <path
       style="fill:#595959;fill-rule:evenodd;stroke:#595959;stroke-width:2;stroke-linecap:butt"
       id="path43"
       d="m 368.21158,116.54173 9.0762,-3.30347 -9.0762,-3.30346 z" />
    <path
       style="fill:#000000;fill-opacity:0;fill-rule:evenodd"
       id="path45"
       d="m 329.10605,107.28746 h 18.39801 v 11.9016 h -18.39801 z" />
    <path
       style="fill:#000000;fill-opacity:0;fill-rule:evenodd"
       id="path47"
       d="m 361.79282,107.28746 h 18.39798 v 11.9016 h -18.39798 z" />
    <path
       style="fill:#000000;fill-opacity:0;fill-rule:evenodd"
       id="path49"
       d="M 380.21088,143.08374 H 329.10535" />
    <path
       style="fill-rule:evenodd;stroke:#1c4587;stroke-width:2;stroke-linecap:butt;stroke-linejoin:round"
       id="path51"
       d="M 380.21088,143.08374 H 341.10535" />
    <path
       style="fill:#1c4587;fill-rule:evenodd;stroke:#1c4587;stroke-width:2;stroke-linecap:butt"
       id="path53"
       d="m 341.10535,139.78027 -9.07617,3.30347 9.07617,3.30346 z" />
    <path
       style="fill:#000000;fill-opacity:0;fill-rule:evenodd"
       id="path55"
       d="m 329.12717,137.13295 h 18.39798 v 11.9016 h -18.39798 z" />
    <path
       style="fill:#000000;fill-opacity:0;fill-rule:evenodd"
       id="path57"
       d="m 361.8136,137.13295 h 18.39798 v 11.9016 H 361.8136 Z" />
    <path
       style="fill:#000000;fill-opacity:0;fill-rule:evenodd"
       id="path59"
       d="m 204.92046,113.23826 c 6.68718,0 10.03184,0.13386 13.37436,0.26772 3.34253,0.13385 6.68291,0.26771 13.3658,0.26771" />
    <path
       style="fill-rule:evenodd;stroke:#595959;stroke-width:1;stroke-linecap:butt;stroke-linejoin:round"
       id="path61"
       d="m 204.92046,113.23826 c 6.68718,0 10.03184,0.13386 13.37437,0.26772 1.67125,0.0669 3.34198,0.13386 5.43024,0.18405 0.52208,0.0126 1.07025,0.0241 1.65105,0.0343 l 0.28467,0.004" />
    <path
       style="fill:#595959;fill-rule:evenodd;stroke:#595959;stroke-width:1;stroke-linecap:butt"
       id="path63"
       d="m 225.6483,115.38004 4.55046,-1.61739 -4.52548,-1.68598 z" />
    <path
       style="fill:#000000;fill-opacity:0;fill-rule:evenodd"
       id="path65"
       d="m 302.37796,113.78477 c 6.68195,0 10.02139,-0.13385 13.36392,-0.26771 3.34253,-0.13386 6.68811,-0.26772 13.37622,-0.26772" />
    <path
       style="fill-rule:evenodd;stroke:#595959;stroke-width:1;stroke-linecap:butt;stroke-linejoin:round"
       id="path67"
       d="m 302.37796,113.78477 c 6.68195,0 10.02139,-0.13385 13.36392,-0.26771 1.67127,-0.0669 3.34329,-0.13386 5.43353,-0.18405 0.52256,-0.0126 1.07123,-0.0241 1.65259,-0.0343 l 0.29029,-0.004" />
    <path
       style="fill:#595959;fill-rule:evenodd;stroke:#595959;stroke-width:1;stroke-linecap:butt"
       id="path69"
       d="m 323.13074,114.9463 4.52551,-1.68592 -4.55041,-1.61746 z" />
    <path
       style="fill:#000000;fill-opacity:0;fill-rule:evenodd"
       id="path71"
       d="m 142.95538,122.50385 h 61.98425 v 14.86614 h -61.98425 z" />
    <path
       style="fill:#202122;fill-rule:nonzero"
       id="path73"
       d="m 198.69322,129.4825 q 0.8125,0.21875 1.32812,0.84375 0.53125,0.60937 0.53125,1.45312 0,1.15625 -1.04687,1.78125 -1.03125,0.60938 -2.5625,0.60938 h -3.96875 q -0.23438,0 -0.23438,-0.25 0,-0.25 0.4375,-0.25 0.46875,0 0.625,-0.125 0.17188,-0.14063 0.17188,-0.59375 v -6.31251 q 0,-0.5 -0.20313,-0.60937 -0.20312,-0.10938 -0.79687,-0.10938 -0.23438,0 -0.23438,-0.25 0,-0.25 0.23438,-0.25 h 3.96875 q 3.10937,0 3.10937,2.25 0,1.10938 -1.35937,1.81251 z m 0.89062,-1.81251 q 0,-1.48437 -1.70312,-1.70312 0.54687,0.625 0.54687,1.70312 0,1.21876 -0.6875,1.75001 1.84375,-0.875 1.84375,-1.75001 z m -1.64062,0 q 0,-0.76562 -0.32813,-1.25 -0.32812,-0.5 -0.92187,-0.5 -0.28125,0 -0.5,0.14063 -0.20313,0.125 -0.20313,0.34375 v 3 q 0.96875,0 1.45313,-0.375 0.5,-0.375 0.5,-1.35938 z m 2.125,4.10938 q 0,-0.8125 -0.51563,-1.25 -0.51562,-0.4375 -1.42187,-0.70312 0.6875,0.53125 0.6875,1.95312 0,1.09375 -0.54688,1.75 1.79688,-0.45312 1.79688,-1.75 z m -4.07813,1.42188 q 0,0.21875 0.20313,0.34375 0.21875,0.125 0.5,0.125 1.64062,0 1.64062,-1.89063 0,-0.98437 -0.375,-1.4375 -0.35937,-0.45312 -1.26562,-0.45312 h -0.70313 z m -0.34375,-7.28126 h -1.3125 q 0.125,0.25 0.125,0.71875 v 6.31251 q 0,0.46875 -0.125,0.71875 h 1.3125 q -0.14062,-0.21875 -0.14062,-0.46875 v -6.79688 q 0,-0.26563 0.14062,-0.48438 z" />
    <path
       style="fill:#000000;fill-opacity:0;fill-rule:evenodd"
       id="path75"
       d="m 329.10236,93.685745 h 61.98425 v 14.866145 h -61.98425 z" />
    <path
       style="fill:#202122;fill-rule:nonzero"
       id="path77"
       d="m 337.8211,105.55502 q -0.78125,0 -1.51563,-0.29688 -0.71875,-0.3125 -1.3125,-0.89062 -0.57812,-0.59375 -0.92187,-1.45313 -0.34375,-0.875 -0.34375,-2.03125 0,-1.093749 0.34375,-1.953124 0.34375,-0.875 0.92187,-1.46875 0.59375,-0.59375 1.3125,-0.90625 0.73438,-0.3125 1.51563,-0.3125 0.76562,0 1.48437,0.296875 0.73438,0.296875 1.3125,0.890625 0.59375,0.578125 0.9375,1.453125 0.34375,0.859375 0.34375,1.999999 0,1.09375 -0.34375,1.96875 -0.34375,0.85938 -0.92187,1.46875 -0.57813,0.60938 -1.3125,0.92188 -0.73438,0.3125 -1.5,0.3125 z m 0,-0.67188 q 0.6875,0 1.1875,-0.32812 0.5,-0.34375 0.8125,-0.90625 0.3125,-0.57813 0.45312,-1.28125 0.15625,-0.71875 0.15625,-1.48438 0,-0.75 -0.15625,-1.453124 -0.14062,-0.71875 -0.45312,-1.28125 -0.3125,-0.578125 -0.8125,-0.90625 -0.5,-0.34375 -1.1875,-0.34375 -0.6875,0 -1.1875,0.34375 -0.5,0.328125 -0.82813,0.90625 -0.3125,0.5625 -0.46875,1.28125 -0.15625,0.703124 -0.15625,1.453124 0,0.76563 0.15625,1.48438 0.15625,0.70312 0.46875,1.28125 0.32813,0.5625 0.82813,0.90625 0.5,0.32812 1.1875,0.32812 z m 5.17294,3.65625 v -0.46875 l 1.0625,-0.1875 q 0.0156,-0.54687 0.0156,-1.09375 0.0156,-0.53125 0.0156,-1.0625 v -3.8125 q 0,-0.54687 -0.0156,-0.90625 0,-0.35937 -0.0312,-0.76562 l -1.04688,-0.10938 v -0.468749 l 1.85938,-0.8125 0.20312,0.125 0.0781,0.875 q 0.95312,-1 2.01562,-1 0.71875,0 1.28125,0.40625 0.57813,0.390625 0.92188,1.140629 0.34375,0.73437 0.34375,1.76562 0,1.03125 -0.35938,1.78125 -0.35937,0.75 -0.98437,1.17188 -0.60938,0.40625 -1.40625,0.40625 -0.45313,0 -0.90625,-0.1875 -0.4375,-0.1875 -0.85938,-0.67188 v 1.04688 q 0,0.53125 0,1.0625 0.0156,0.54687 0.0156,1.09375 l 1.21875,0.20312 v 0.46875 z m 3.84375,-8.937499 q -0.3125,0 -0.71875,0.15625 -0.39062,0.15625 -0.90625,0.578129 v 3.75 q 0.375,0.35937 0.73438,0.51562 0.35937,0.15625 0.73437,0.15625 0.75,0 1.28125,-0.59375 0.53125,-0.59375 0.53125,-1.89062 0,-1.28125 -0.46875,-1.96875 -0.46875,-0.703129 -1.1875,-0.703129 z m 6.05881,5.921879 q -0.6875,0 -1.10937,-0.375 -0.40625,-0.375 -0.40625,-1.14063 0,-0.25 0,-0.5 0,-0.25 0,-0.64062 v -3.140629 h -1.09375 v -0.578125 l 1.1875,-0.15625 0.34375,-1.78125 h 0.79687 l -0.0781,1.8125 h 1.79687 v 0.703125 h -1.8125 v 4.124999 q 0,0.51563 0.20313,0.75 0.20312,0.23438 0.53125,0.23438 0.21875,0 0.42187,-0.0937 0.21875,-0.0937 0.46875,-0.26563 l 0.32813,0.34375 q -0.54688,0.70313 -1.57813,0.70313 z m 2.36288,-4.25 v -0.625 l 5.15625,-3.000004 0.39063,0.71875 -4.625,2.593754 4.625,2.59375 -0.39063,0.71875 z m 10.24909,-4.218754 h -0.8125 q 0,0.84375 -0.0156,1.734375 0,0.890625 0,1.781249 v 0.64063 h 0.875 q 1.21875,0 1.73438,-0.59375 0.51562,-0.59375 0.51562,-1.531254 0,-0.96875 -0.5625,-1.5 -0.54687,-0.53125 -1.73437,-0.53125 z m -3.34375,-0.07813 v -0.546875 h 3.57812 q 1.6875,0 2.53125,0.75 0.85938,0.734375 0.85938,1.90625 0,0.75 -0.375,1.374999 -0.375,0.625 -1.20313,1 -0.8125,0.375 -2.1875,0.375 h -0.6875 q 0,0.71875 0,1.42187 0.0156,0.6875 0.0156,1.40625 l 1.25,0.14063 v 0.54687 h -3.78125 v -0.54687 l 1.21875,-0.14063 q 0.0312,-0.84375 0.0312,-1.70312 0,-0.875 0,-1.73438 v -0.65625 q 0,-0.874994 0,-1.734369 0,-0.859375 -0.0312,-1.703125 z m 13.56897,3.671874 v 0.625 l -5.15625,3 -0.39063,-0.71875 4.625,-2.59375 -4.625,-2.593749 0.39063,-0.71875 z" />
    <path
       style="fill:#000000;fill-opacity:0;fill-rule:evenodd"
       id="path79"
       d="m 329.10236,122.50385 h 61.98425 v 14.86614 h -61.98425 z" />
    <path
       style="fill:#202122;fill-rule:nonzero"
       id="path81"
       d="m 339.39923,129.4825 q 0.8125,0.21875 1.32812,0.84375 0.53125,0.60937 0.53125,1.45312 0,1.15625 -1.04687,1.78125 -1.03125,0.60938 -2.5625,0.60938 h -3.96875 q -0.23438,0 -0.23438,-0.25 0,-0.25 0.4375,-0.25 0.46875,0 0.625,-0.125 0.17188,-0.14063 0.17188,-0.59375 v -6.31251 q 0,-0.5 -0.20313,-0.60937 -0.20312,-0.10938 -0.79687,-0.10938 -0.23438,0 -0.23438,-0.25 0,-0.25 0.23438,-0.25 h 3.96875 q 3.10937,0 3.10937,2.25 0,1.10938 -1.35937,1.81251 z m 0.89062,-1.81251 q 0,-1.48437 -1.70312,-1.70312 0.54687,0.625 0.54687,1.70312 0,1.21876 -0.6875,1.75001 1.84375,-0.875 1.84375,-1.75001 z m -1.64062,0 q 0,-0.76562 -0.32813,-1.25 -0.32812,-0.5 -0.92187,-0.5 -0.28125,0 -0.5,0.14063 -0.20313,0.125 -0.20313,0.34375 v 3 q 0.96875,0 1.45313,-0.375 0.5,-0.375 0.5,-1.35938 z m 2.125,4.10938 q 0,-0.8125 -0.51563,-1.25 -0.51562,-0.4375 -1.42187,-0.70312 0.6875,0.53125 0.6875,1.95312 0,1.09375 -0.54688,1.75 1.79688,-0.45312 1.79688,-1.75 z m -4.07813,1.42188 q 0,0.21875 0.20313,0.34375 0.21875,0.125 0.5,0.125 1.64062,0 1.64062,-1.89063 0,-0.98437 -0.375,-1.4375 -0.35937,-0.45312 -1.26562,-0.45312 h -0.70313 z m -0.34375,-7.28126 h -1.3125 q 0.125,0.25 0.125,0.71875 v 6.31251 q 0,0.46875 -0.125,0.71875 h 1.3125 q -0.14062,-0.21875 -0.14062,-0.46875 v -6.79688 q 0,-0.26563 0.14062,-0.48438 z" />
    <path
       style="fill:#000000;fill-opacity:0;fill-rule:evenodd"
       id="path83"
       d="M 204.94226,53 H 329.09973 V 80.874016 H 204.94226 Z" />
    <path
       style="fill:#202122;fill-rule:nonzero"
       id="path85"
       d="m 239.68936,72.21701 v -0.6875 l 0.8125,-0.15625 q 0.0156,-0.546875 0.0156,-1.15625 0,-0.625 0,-1.078125 V 68.27951 q 0,-0.421875 -0.0156,-0.671875 0,-0.265625 -0.0156,-0.484375 0,-0.234375 -0.0156,-0.53125 l -0.89063,-0.140625 v -0.5625 l 2.89063,-0.984375 0.25,0.15625 0.14062,1.734375 q 0.3125,-0.9375 0.85938,-1.40625 0.5625,-0.484375 1.10937,-0.484375 0.48438,0 0.82813,0.28125 0.35937,0.265625 0.4375,0.796875 -0.0156,0.578125 -0.3125,0.890625 -0.28125,0.3125 -0.71875,0.3125 -0.625,0 -1.14063,-0.6875 l -0.0781,-0.109375 q -0.32813,0.296875 -0.60938,0.765625 -0.26562,0.46875 -0.375,0.984375 v 1 q 0,0.453125 0,1.046875 0,0.578125 0.0156,1.09375 l 1.15625,0.25 v 0.6875 z m 10.22211,-6.546875 q -0.40625,0 -0.75,0.5 -0.34375,0.5 -0.39063,1.859375 h 1.23438 q 0.53125,0 0.71875,-0.203125 0.1875,-0.21875 0.1875,-0.71875 0,-0.734375 -0.29688,-1.078125 -0.29687,-0.359375 -0.70312,-0.359375 z m 0.0312,6.765625 q -1.07813,0 -1.90625,-0.4375 -0.8125,-0.453125 -1.28125,-1.296875 -0.46875,-0.84375 -0.46875,-2.015625 0,-1.234375 0.54687,-2.078125 0.5625,-0.84375 1.42188,-1.265625 0.85937,-0.4375 1.79687,-0.4375 0.96875,0 1.64063,0.40625 0.6875,0.40625 1.03125,1.109375 0.35937,0.703125 0.35937,1.59375 0,0.421875 -0.0781,0.78125 h -4.23438 q 0.0625,1.15625 0.625,1.703125 0.57813,0.546875 1.32813,0.546875 0.60937,0 1.03125,-0.21875 0.42187,-0.234375 0.75,-0.578125 l 0.51562,0.46875 q -0.45312,0.875 -1.23437,1.296875 -0.78125,0.421875 -1.84375,0.421875 z m 7.15158,-3.5 q 0.51562,0 0.76562,-0.453125 0.25,-0.453125 0.25,-1.234375 0,-0.78125 -0.25,-1.203125 -0.25,-0.4375 -0.73437,-0.4375 -0.5,0 -0.75,0.4375 -0.25,0.4375 -0.25,1.21875 0,0.78125 0.23437,1.234375 0.23438,0.4375 0.73438,0.4375 z m -1.95314,4.5 q 0,0.640625 0.48437,0.9375 0.48439,0.3125 1.48439,0.3125 1.09375,0 1.64063,-0.328125 0.5625,-0.328125 0.5625,-0.8125 0,-0.3125 -0.23438,-0.578125 -0.23437,-0.25 -0.82812,-0.25 h -1.54688 q -0.79689,0 -1.32814,-0.140625 -0.10937,0.21875 -0.17187,0.40625 -0.0625,0.1875 -0.0625,0.453125 z m 1.96876,-3.8125 q -0.76562,0 -1.34376,-0.171875 -0.17188,0.296875 -0.17188,0.671875 0,0.25 0.1875,0.40625 0.20313,0.15625 0.67189,0.15625 h 1.70313 q 1.125,0 1.78125,0.265625 0.65625,0.265625 0.9375,0.75 0.29687,0.46875 0.29687,1.109375 0,0.734375 -0.48437,1.359375 -0.48438,0.625 -1.45313,1 -0.95312,0.375 -2.35937,0.375 -1.21877,0 -1.90627,-0.25 -0.6875,-0.234375 -0.96875,-0.640625 -0.28125,-0.390625 -0.28125,-0.828125 0,-0.9375 1.21875,-1.5 -0.45312,-0.203125 -0.65625,-0.5 -0.1875,-0.3125 -0.1875,-0.671875 0,-0.515625 0.29688,-0.96875 0.29687,-0.46875 0.84375,-0.9375 -0.60938,-0.3125 -0.90625,-0.828125 -0.28125,-0.515625 -0.28125,-1.140625 0,-1.03125 0.75,-1.703125 0.75,-0.671875 2.31251,-0.671875 0.78125,0 1.35938,0.171875 0.59375,0.171875 0.96875,0.5 l 1.64062,-0.703125 0.23438,0.140625 v 1.140625 h -1.39063 q 0.26563,0.484375 0.26563,1.125 0,0.984375 -0.76563,1.671875 -0.75,0.671875 -2.3125,0.671875 z m 4.94275,3.90625 v -1.3125 h 6.71875 v 1.3125 z m 7.74347,-1.3125 v -0.6875 l 0.8125,-0.15625 q 0.0156,-0.5625 0.0156,-1.109375 0.0156,-0.5625 0.0156,-1.125 v -3 h -0.95312 v -0.875 l 0.96875,-0.109375 q 0.125,-1 0.39062,-1.609375 0.28125,-0.609375 0.75,-1.09375 0.53125,-0.53125 1.21875,-0.765625 0.6875,-0.25 1.3125,-0.25 0.60938,0 1.10938,0.234375 0.5,0.21875 0.65625,0.796875 -0.0156,0.40625 -0.29688,0.703125 -0.26562,0.28125 -0.76562,0.28125 -0.35938,0 -0.6875,-0.25 -0.32813,-0.25 -0.625,-0.796875 l -0.125,-0.171875 q -0.39063,0.40625 -0.54688,1.078125 -0.14062,0.671875 -0.10937,1.828125 h 1.5625 v 1 h -1.53125 v 3 q 0,0.546875 0,1.078125 0,0.53125 0.0156,1.078125 l 1.125,0.234375 v 0.6875 z m 13.88593,-6.4375 v -0.640625 h 2.65625 v 0.640625 l -0.8125,0.140625 -2.25,6.328125 h -1.09375 l -1.6875,-4.71875 -1.67188,4.71875 h -1.09375 l -2.3125,-6.359375 -0.65625,-0.109375 v -0.640625 h 3.85938 v 0.640625 l -0.84375,0.125 1.14062,3.765625 1.28125,-3.75 -0.85937,-0.140625 v -0.640625 h 3.59375 v 0.640625 l -0.8125,0.140625 1.20312,3.640625 1.1875,-3.640625 z m 5.26159,2.9375 q 0,1.203125 0.42188,1.828125 0.42187,0.609375 1.09375,0.609375 0.5,0 0.90625,-0.328125 v -4.375 q -0.39063,-0.296875 -0.85938,-0.296875 -0.67187,0 -1.125,0.625 -0.4375,0.625 -0.4375,1.9375 z m 2.625,3.65625 -0.125,-0.828125 q -0.84375,0.890625 -2.0625,0.890625 -0.82812,0 -1.5,-0.421875 -0.65625,-0.421875 -1.04687,-1.25 -0.375,-0.828125 -0.375,-2.015625 0,-1.203125 0.45312,-2.0625 0.46875,-0.859375 1.20313,-1.3125 0.75,-0.46875 1.57812,-0.46875 0.5625,0 0.98438,0.203125 0.4375,0.1875 0.78125,0.578125 v -2.6875 l -1.03125,-0.140625 v -0.625 l 3.09375,-0.65625 0.23437,0.140625 -0.0469,2.0625 v 7.609375 l 0.71875,0.140625 v 0.6875 z" />
    <path
       style="fill:#000000;fill-opacity:0;fill-rule:evenodd"
       id="path87"
       d="m 80.97113,101.26547 h 61.98425 v 23.937 H 80.97113 Z" />
    <path
       style="fill:#202122;fill-rule:nonzero"
       id="path89"
       d="m 104.98903,110.13897 v -0.75 h 3.17188 v 0.78125 l -1.09375,0.1875 -3.01563,8.6875 h -1.42187 l -3.156255,-8.78125 -0.84375,-0.0937 v -0.78125 h 4.718755 v 0.75 l -1.25,0.15625 2,6.03125 2.03125,-6 z m 2.6114,8.875 v -0.6875 l 0.8125,-0.15625 q 0.0156,-0.54687 0.0156,-1.15625 0,-0.625 0,-1.07812 v -0.85938 q 0,-0.42187 -0.0156,-0.67187 0,-0.26563 -0.0156,-0.48438 0,-0.23437 -0.0156,-0.53125 l -0.89062,-0.14062 v -0.5625 l 2.89062,-0.98438 0.25,0.15625 0.14063,1.73438 q 0.3125,-0.9375 0.85937,-1.40625 0.5625,-0.48438 1.10938,-0.48438 0.48437,0 0.82812,0.28125 0.35938,0.26563 0.4375,0.79688 -0.0156,0.57812 -0.3125,0.89062 -0.28125,0.3125 -0.71875,0.3125 -0.625,0 -1.14062,-0.6875 l -0.0781,-0.10937 q -0.32812,0.29687 -0.60937,0.76562 -0.26563,0.46875 -0.375,0.98438 v 1 q 0,0.45312 0,1.04687 0,0.57813 0.0156,1.09375 l 1.15625,0.25 v 0.6875 z m 6.98706,-4.1875 v -1.10937 l 6.125,-3.15625 0.625,1.25 -5.03125,2.45312 5.03125,2.46875 -0.625,1.25 z m 11.84804,-4.59375 h -0.32812 q -0.0156,0.90625 -0.0312,1.82813 0,0.92187 0,1.875 v 0.57812 h 0.42187 q 0.96875,0 1.45313,-0.625 0.48437,-0.625 0.48437,-1.60937 0,-1.01563 -0.53125,-1.53125 -0.51562,-0.51563 -1.46875,-0.51563 z m -3.95312,-0.0625 v -0.78125 h 3.98437 q 1.53125,0 2.46875,0.35938 0.9375,0.35937 1.35938,1.01562 0.4375,0.64063 0.4375,1.51563 0,0.84375 -0.40625,1.54687 -0.40625,0.6875 -1.32813,1.10938 -0.92187,0.40625 -2.51562,0.40625 h -0.40625 q 0,0.625 0,1.32812 0.0156,0.6875 0.0312,1.42188 l 1.29687,0.125 v 0.79687 h -4.92187 v -0.79687 l 1.09375,-0.10938 q 0.0312,-0.89062 0.0312,-1.79687 0,-0.92188 0,-1.84375 v -0.53125 q 0,-0.92188 0,-1.82813 0,-0.92187 -0.0312,-1.8125 z m 15.92181,3.54688 v 1.10937 l -6.125,3.15625 -0.64062,-1.25 5.03125,-2.46875 -5.03125,-2.45312 0.64062,-1.25 z" />
    <path
       style="fill:#000000;fill-opacity:0;fill-rule:evenodd"
       id="path91"
       d="m 391.09186,101.26509 h 70.70868 v 23.93701 h -70.70868 z" />
    <path
       style="fill:#202122;fill-rule:nonzero"
       id="path93"
       d="m 401.57623,110.1386 v -0.75 h 3.17187 v 0.78125 l -1.09375,0.1875 -3.01562,8.6875 h -1.42188 l -3.15625,-8.78125 -0.84375,-0.0937 v -0.78125 h 4.71875 v 0.75 l -1.25,0.15625 2,6.03125 2.03125,-6 z m 2.61142,8.875 v -0.6875 l 0.8125,-0.15625 q 0.0156,-0.54688 0.0156,-1.15625 0,-0.625 0,-1.07813 v -0.85937 q 0,-0.42188 -0.0156,-0.67188 0,-0.26562 -0.0156,-0.48437 0,-0.23438 -0.0156,-0.53125 l -0.89063,-0.14063 v -0.5625 l 2.89063,-0.98437 0.25,0.15625 0.14062,1.73437 q 0.3125,-0.9375 0.85938,-1.40625 0.5625,-0.48437 1.10937,-0.48437 0.48438,0 0.82813,0.28125 0.35937,0.26562 0.4375,0.79687 -0.0156,0.57813 -0.3125,0.89063 -0.28125,0.3125 -0.71875,0.3125 -0.625,0 -1.14063,-0.6875 l -0.0781,-0.10938 q -0.32813,0.29688 -0.60938,0.76563 -0.26562,0.46875 -0.375,0.98437 v 1 q 0,0.45313 0,1.04688 0,0.57812 0.0156,1.09375 l 1.15625,0.25 v 0.6875 z m 6.98706,-4.1875 v -1.10938 l 6.125,-3.15625 0.625,1.25 -5.03125,2.45313 5.03125,2.46875 -0.625,1.25 z m 11.84802,-4.59375 h -0.32812 q -0.0156,0.90625 -0.0312,1.82812 0,0.92188 0,1.875 v 0.57813 h 0.42187 q 0.96875,0 1.45313,-0.625 0.48437,-0.625 0.48437,-1.60938 0,-1.01562 -0.53125,-1.53125 -0.51562,-0.51562 -1.46875,-0.51562 z m -3.95312,-0.0625 v -0.78125 h 3.98437 q 1.53125,0 2.46875,0.35937 0.9375,0.35938 1.35938,1.01563 0.4375,0.64062 0.4375,1.51562 0,0.84375 -0.40625,1.54688 -0.40625,0.6875 -1.32813,1.10937 -0.92187,0.40625 -2.51562,0.40625 h -0.40625 q 0,0.625 0,1.32813 0.0156,0.6875 0.0312,1.42187 l 1.29687,0.125 v 0.79688 h -4.92187 v -0.79688 l 1.09375,-0.10937 q 0.0312,-0.89063 0.0312,-1.79688 0,-0.92187 0,-1.84375 v -0.53125 q 0,-0.92187 0,-1.82812 0,-0.92188 -0.0312,-1.8125 z m 15.92181,3.54687 v 1.10938 l -6.125,3.15625 -0.64062,-1.25 5.03125,-2.46875 -5.03125,-2.45313 0.64062,-1.25 z" />
    <path
       style="fill:#cfe2f3;fill-rule:evenodd"
       id="path95"
       d="m 231.6693,104.49353 v 0 c 0,-2.56578 2.07997,-4.64576 4.64575,-4.64576 h 61.41713 c 1.23215,0 2.41382,0.48946 3.28507,1.36071 0.87124,0.87125 1.36071,2.05292 1.36071,3.28505 v 18.58249 c 0,2.56579 -2.07998,4.64577 -4.64578,4.64577 h -61.41713 v 0 c -2.56578,0 -4.64575,-2.07998 -4.64575,-4.64577 z" />
    <path
       style="fill-rule:evenodd;stroke:#595959;stroke-width:1;stroke-linecap:butt;stroke-linejoin:round"
       id="path97"
       d="m 231.6693,104.49353 v 0 c 0,-2.56578 2.07997,-4.64576 4.64575,-4.64576 h 61.41713 c 1.23215,0 2.41382,0.48946 3.28507,1.36071 0.87124,0.87125 1.36071,2.05292 1.36071,3.28505 v 18.58249 c 0,2.56579 -2.07998,4.64577 -4.64578,4.64577 h -61.41713 v 0 c -2.56578,0 -4.64575,-2.07998 -4.64575,-4.64577 z" />
    <path
       style="fill:#202122;fill-rule:nonzero"
       id="path99"
       d="m 250.0443,118.7879 q -0.78125,0 -1.51563,-0.29688 -0.71875,-0.3125 -1.3125,-0.89062 -0.57812,-0.59375 -0.92187,-1.45313 -0.34375,-0.875 -0.34375,-2.03125 0,-1.09375 0.34375,-1.95312 0.34375,-0.875 0.92187,-1.46875 0.59375,-0.59375 1.3125,-0.90625 0.73438,-0.3125 1.51563,-0.3125 0.76562,0 1.48437,0.29687 0.73438,0.29688 1.3125,0.89063 0.59375,0.57812 0.9375,1.45312 0.34375,0.85938 0.34375,2 0,1.09375 -0.34375,1.96875 -0.34375,0.85938 -0.92187,1.46875 -0.57813,0.60938 -1.3125,0.92188 -0.73438,0.3125 -1.5,0.3125 z m 0,-0.67188 q 0.6875,0 1.1875,-0.32812 0.5,-0.34375 0.8125,-0.90625 0.3125,-0.57813 0.45312,-1.28125 0.15625,-0.71875 0.15625,-1.48438 0,-0.75 -0.15625,-1.45312 -0.14062,-0.71875 -0.45312,-1.28125 -0.3125,-0.57813 -0.8125,-0.90625 -0.5,-0.34375 -1.1875,-0.34375 -0.6875,0 -1.1875,0.34375 -0.5,0.32812 -0.82813,0.90625 -0.3125,0.5625 -0.46875,1.28125 -0.15625,0.70312 -0.15625,1.45312 0,0.76563 0.15625,1.48438 0.15625,0.70312 0.46875,1.28125 0.32813,0.5625 0.82813,0.90625 0.5,0.32812 1.1875,0.32812 z m 5.17294,3.65625 v -0.46875 l 1.06252,-0.1875 q 0.0156,-0.54687 0.0156,-1.09375 0.0156,-0.53125 0.0156,-1.0625 v -3.8125 q 0,-0.54687 -0.0156,-0.90625 0,-0.35937 -0.0312,-0.76562 l -1.04689,-0.10938 v -0.46875 l 1.85939,-0.8125 0.20313,0.125 0.0781,0.875 q 0.95313,-1 2.01563,-1 0.71875,0 1.28125,0.40625 0.57812,0.39063 0.92187,1.14063 0.34375,0.73437 0.34375,1.76562 0,1.03125 -0.35937,1.78125 -0.35938,0.75 -0.98438,1.17188 -0.60937,0.40625 -1.40625,0.40625 -0.45312,0 -0.90625,-0.1875 -0.4375,-0.1875 -0.85937,-0.67188 v 1.04688 q 0,0.53125 0,1.0625 0.0156,0.54687 0.0156,1.09375 l 1.21875,0.20312 v 0.46875 z m 3.84377,-8.9375 q -0.3125,0 -0.71875,0.15625 -0.39063,0.15625 -0.90625,0.57813 v 3.75 q 0.375,0.35937 0.73437,0.51562 0.35938,0.15625 0.73438,0.15625 0.75,0 1.28125,-0.59375 0.53125,-0.59375 0.53125,-1.89062 0,-1.28125 -0.46875,-1.96875 -0.46875,-0.70313 -1.1875,-0.70313 z m 6.05881,5.92188 q -0.6875,0 -1.10938,-0.375 -0.40625,-0.375 -0.40625,-1.14063 0,-0.25 0,-0.5 0,-0.25 0,-0.64062 v -3.14063 h -1.09375 v -0.57812 l 1.1875,-0.15625 0.34375,-1.78125 h 0.79688 l -0.0781,1.8125 h 1.79688 v 0.70312 h -1.8125 v 4.125 q 0,0.51563 0.20312,0.75 0.20313,0.23438 0.53125,0.23438 0.21875,0 0.42188,-0.0937 0.21875,-0.0937 0.46875,-0.26563 l 0.32812,0.34375 q -0.54687,0.70313 -1.57812,0.70313 z m 2.36285,-4.25 v -0.625 l 5.15625,-3 0.39062,0.71875 -4.625,2.59375 4.625,2.59375 -0.39062,0.71875 z m 10.24908,-4.21875 h -0.8125 q 0,0.84375 -0.0156,1.73437 0,0.89063 0,1.78125 v 0.64063 h 0.875 q 1.21875,0 1.73437,-0.59375 0.51563,-0.59375 0.51563,-1.53125 0,-0.96875 -0.5625,-1.5 -0.54688,-0.53125 -1.73438,-0.53125 z m -3.34375,-0.0781 v -0.54687 h 3.57813 q 1.6875,0 2.53125,0.75 0.85937,0.73437 0.85937,1.90625 0,0.75 -0.375,1.375 -0.375,0.625 -1.20312,1 -0.8125,0.375 -2.1875,0.375 h -0.6875 q 0,0.71875 0,1.42187 0.0156,0.6875 0.0156,1.40625 l 1.25,0.14063 v 0.54687 H 274.388 v -0.54687 l 1.21875,-0.14063 q 0.0312,-0.84375 0.0312,-1.70312 0,-0.875 0,-1.73438 v -0.65625 q 0,-0.875 0,-1.73437 0,-0.85938 -0.0312,-1.70313 z m 13.569,3.67188 v 0.625 l -5.15625,3 -0.39062,-0.71875 4.625,-2.59375 -4.625,-2.59375 0.39062,-0.71875 z" />
    <path
       style="fill:#000000;fill-opacity:0;fill-rule:evenodd"
       id="path101"
       d="m 267.02362,127.72179 c 0,7.68504 -31.03937,15.37007 -62.07874,15.37007" />
    <path
       style="fill-rule:evenodd;stroke:#595959;stroke-width:1;stroke-linecap:butt;stroke-linejoin:round"
       id="path103"
       d="m 267.02362,127.72179 c 0,3.84251 -7.75983,7.68504 -19.39961,10.56692 -5.81987,1.44095 -12.60974,2.64174 -19.88459,3.48229 -3.63743,0.42027 -7.3961,0.75049 -11.21539,0.97565 -0.95483,0.0563 -1.91345,0.106 -2.87489,0.14892 -0.48073,0.0215 -0.96217,0.0412 -1.44422,0.0592 l -1.26078,0.0425" />
    <path
       style="fill:#595959;fill-rule:evenodd;stroke:#595959;stroke-width:1;stroke-linecap:butt"
       id="path105"
       d="m 210.91812,141.34584 -4.51152,1.72301 4.56355,1.58004 z" />
    <path
       style="fill:#000000;fill-opacity:0;fill-rule:evenodd"
       id="path107"
       d="M 329.12717,143.08374 H 204.93819" />
    <path
       style="fill-rule:evenodd;stroke:#1c4587;stroke-width:1;stroke-linecap:butt;stroke-linejoin:round"
       id="path109"
       d="M 329.12717,143.08374 H 210.9382" />
    <path
       style="fill:#1c4587;fill-rule:evenodd;stroke:#1c4587;stroke-width:1;stroke-linecap:butt"
       id="path111"
       d="m 210.9382,141.432 -4.5381,1.65173 4.5381,1.65174 z" />
  </g>
</svg>
