<?xml version="1.0" encoding="UTF-8" standalone="no"?>
<svg
   xmlns:dc="http://purl.org/dc/elements/1.1/"
   xmlns:cc="http://creativecommons.org/ns#"
   xmlns:rdf="http://www.w3.org/1999/02/22-rdf-syntax-ns#"
   xmlns:svg="http://www.w3.org/2000/svg"
   xmlns="http://www.w3.org/2000/svg"
   style="fill:none;stroke:none;stroke-linecap:square;stroke-miterlimit:10"
   height="189.56693"
   width="438.25983"
   id="svg291"
   stroke-miterlimit="10"
   viewBox="0 0 438.25983 189.56693"
   version="1.1">
  <metadata
     id="metadata297">
    <rdf:RDF>
      <cc:Work
         rdf:about="">
        <dc:format>image/svg+xml</dc:format>
        <dc:type
           rdf:resource="http://purl.org/dc/dcmitype/StillImage" />
        <dc:title></dc:title>
      </cc:Work>
    </rdf:RDF>
  </metadata>
  <defs
     id="defs295" />
  <clipPath
     id="g2f82325df56_0_89.0">
    <path
       style="clip-rule:nonzero"
       id="path2"
       d="M 0,0 H 960 V 540 H 0 Z" />
  </clipPath>
  <g
     transform="translate(-86.54197,-52.429134)"
     id="g289"
     clip-path="url(#g2f82325df56_0_89.0)">
    <path
       style="fill:#000000;fill-opacity:0;fill-rule:evenodd"
       id="path11"
       d="m 243.59317,49.727036 h 124.1575 v 27.874016 h -124.1575 z" />
    <path
       style="fill:#202122;fill-rule:nonzero"
       id="path13"
       d="m 292.59256,72.412796 q -0.76563,0 -1.23438,-0.3125 -0.46875,-0.296875 -0.64062,-0.6875 0.0625,-0.515625 0.4375,-0.796875 0.35937,-0.28125 0.79687,-0.28125 0.8125,0 1.32813,0.859375 l 0.1875,0.28125 q 0.0781,-0.15625 0.125,-0.34375 0.0937,-0.359375 0.0937,-0.90625 0.0156,-0.546875 -0.0156,-1.203125 -0.0156,-0.65625 -0.0156,-1.3125 v -2.546875 q 0,-0.59375 -0.0156,-1 0,-0.406254 -0.0312,-0.843754 l -0.89062,-0.140625 v -0.5625 l 3.04687,-0.984375 0.25,0.15625 -0.0469,2.125 v 4.234379 q 0,0.890625 -0.0937,1.484375 -0.0781,0.609375 -0.28125,1.015625 -0.20313,0.421875 -0.57813,0.78125 -0.5625,0.578125 -1.21875,0.78125 -0.64062,0.203125 -1.20312,0.203125 z m 2.20312,-11.859379 q -0.51562,0 -0.89062,-0.328125 -0.35938,-0.34375 -0.35938,-0.84375 0,-0.5 0.35938,-0.828125 0.375,-0.34375 0.89062,-0.34375 0.51563,0 0.875,0.34375 0.375,0.328125 0.375,0.828125 0,0.5 -0.375,0.84375 -0.35937,0.328125 -0.875,0.328125 z m 6.29636,8.609379 q -1.14062,0 -1.98437,-0.46875 -0.82813,-0.484375 -1.28125,-1.34375 -0.45313,-0.859375 -0.45313,-1.984375 0,-1.125 0.48438,-1.953129 0.5,-0.84375 1.34375,-1.3125 0.85937,-0.46875 1.89062,-0.46875 1.04688,0 1.89063,0.453125 0.84375,0.453125 1.34375,1.296875 0.5,0.843754 0.5,1.984379 0,1.140625 -0.45313,2 -0.45312,0.84375 -1.29687,1.328125 -0.82813,0.46875 -1.98438,0.46875 z m 0,-0.765625 q 0.625,0 0.92188,-0.71875 0.3125,-0.71875 0.3125,-2.265625 0,-1.562504 -0.3125,-2.281254 -0.29688,-0.71875 -0.92188,-0.71875 -0.625,0 -0.9375,0.71875 -0.29687,0.71875 -0.29687,2.281254 0,1.546875 0.29687,2.265625 0.3125,0.71875 0.9375,0.71875 z m 4.57767,0.546875 v -0.6875 l 0.79687,-0.171875 q 0.0156,-0.53125 0.0156,-1.140625 0,-0.625 0,-1.078125 v -0.703125 q 0,-0.59375 -0.0156,-1 0,-0.406254 -0.0312,-0.843754 l -0.90625,-0.140625 v -0.5625 l 3.07813,-0.984375 0.25,0.15625 -0.0469,2.125 v 1.953129 q 0,0.453125 0,1.078125 0,0.625 0.0156,1.171875 l 0.73437,0.140625 v 0.6875 z m 1.95312,-8.390629 q -0.51562,0 -0.89062,-0.328125 -0.35938,-0.34375 -0.35938,-0.84375 0,-0.5 0.35938,-0.828125 0.375,-0.34375 0.89062,-0.34375 0.51563,0 0.875,0.34375 0.375,0.328125 0.375,0.828125 0,0.5 -0.375,0.84375 -0.35937,0.328125 -0.875,0.328125 z m 2.64704,8.390629 v -0.6875 l 0.79687,-0.171875 q 0.0156,-0.53125 0.0156,-1.140625 0,-0.625 0,-1.078125 v -0.84375 q 0,-0.609375 -0.0156,-0.9375 0,-0.328129 -0.0312,-0.765629 l -0.89062,-0.140625 v -0.5625 l 2.89062,-0.984375 0.25,0.15625 0.0937,1.0625 q 0.57813,-0.671875 1.14063,-0.9375 0.5625,-0.28125 1.20312,-0.28125 0.95313,0 1.53125,0.640625 0.57813,0.625 0.57813,1.875004 v 1.71875 q 0,0.484375 0,1.09375 0,0.609375 0.0156,1.15625 l 0.73438,0.140625 v 0.6875 h -3.875 v -0.6875 l 0.76562,-0.15625 q 0.0156,-0.546875 0.0156,-1.15625 0,-0.609375 0,-1.078125 v -1.53125 q 0,-0.703129 -0.1875,-0.984379 -0.1875,-0.296875 -0.60938,-0.296875 -0.57812,0 -1.26562,0.53125 v 2.281254 q 0,0.453125 0,1.078125 0,0.625 0.0156,1.171875 l 0.6875,0.140625 v 0.6875 z" />
    <path
       style="fill:#000000;fill-opacity:0;fill-rule:evenodd"
       id="path15"
       d="m 407.09186,135.68242 h 109.82678 v 23.937 H 407.09186 Z" />
    <path
       style="fill:#202122;fill-rule:nonzero"
       id="path17"
       d="m 417.57623,144.55592 v -0.75 h 3.17187 v 0.78125 l -1.09375,0.1875 -3.01562,8.6875 h -1.42188 l -3.15625,-8.78125 -0.84375,-0.0937 v -0.78125 h 4.71875 v 0.75 l -1.25,0.15625 2,6.03125 2.03125,-6 z m 2.61142,8.875 v -0.6875 l 0.8125,-0.15625 q 0.0156,-0.54688 0.0156,-1.15625 0,-0.625 0,-1.07813 v -0.85937 q 0,-0.42188 -0.0156,-0.67188 0,-0.26562 -0.0156,-0.48437 0,-0.23438 -0.0156,-0.53125 l -0.89063,-0.14063 v -0.5625 l 2.89063,-0.98437 0.25,0.15625 0.14062,1.73437 q 0.3125,-0.9375 0.85938,-1.40625 0.5625,-0.48437 1.10937,-0.48437 0.48438,0 0.82813,0.28125 0.35937,0.26562 0.4375,0.79687 -0.0156,0.57813 -0.3125,0.89063 -0.28125,0.3125 -0.71875,0.3125 -0.625,0 -1.14063,-0.6875 l -0.0781,-0.10938 q -0.32813,0.29688 -0.60938,0.76563 -0.26562,0.46875 -0.375,0.98437 v 1 q 0,0.45313 0,1.04688 0,0.57812 0.0156,1.09375 l 1.15625,0.25 v 0.6875 z m 6.98706,-4.1875 v -1.10938 l 6.125,-3.15625 0.625,1.25 -5.03125,2.45313 5.03125,2.46875 -0.625,1.25 z m 10.22302,0.10937 q 0,1.14063 0.23438,2.10938 0.23437,0.96875 0.73437,1.89062 0.51563,0.92188 1.32813,1.9375 l -0.6875,0.60938 q -1.64063,-1.29688 -2.5,-2.9375 -0.85938,-1.64063 -0.85938,-3.60938 0,-1.95312 0.85938,-3.59375 0.85937,-1.65625 2.5,-2.9375 l 0.6875,0.59375 q -0.8125,1.01563 -1.32813,1.9375 -0.5,0.92188 -0.73437,1.89063 -0.23438,0.96875 -0.23438,2.10937 z m 7.15042,-4.70312 h -0.32812 q -0.0156,0.90625 -0.0312,1.82812 0,0.92188 0,1.875 v 0.57813 h 0.42187 q 0.96875,0 1.45313,-0.625 0.48437,-0.625 0.48437,-1.60938 0,-1.01562 -0.53125,-1.53125 -0.51562,-0.51562 -1.46875,-0.51562 z m -3.95312,-0.0625 v -0.78125 h 3.98437 q 1.53125,0 2.46875,0.35937 0.9375,0.35938 1.35938,1.01563 0.4375,0.64062 0.4375,1.51562 0,0.84375 -0.40625,1.54688 -0.40625,0.6875 -1.32813,1.10937 -0.92187,0.40625 -2.51562,0.40625 h -0.40625 q 0,0.625 0,1.32813 0.0156,0.6875 0.0312,1.42187 l 1.29687,0.125 v 0.79688 h -4.92187 v -0.79688 l 1.09375,-0.10937 q 0.0312,-0.89063 0.0312,-1.79688 0,-0.92187 0,-1.84375 v -0.53125 q 0,-0.92187 0,-1.82812 0,-0.92188 -0.0312,-1.8125 z m 9.93744,0.25 3.64062,-0.79688 0.21875,0.14063 -0.0625,2.07812 v 4.125 q 0,0.48438 0,0.96875 0,0.48438 0.0156,0.98438 l 1.70312,0.40625 v 0.6875 h -5.89062 v -0.6875 l 1.79687,-0.40625 q 0.0156,-0.48438 0.0156,-0.96875 0,-0.5 0,-0.98438 v -4.82812 l -1.4375,0.14062 z m 9.9906,7.76562 q 0,1 -0.46875,1.78125 -0.45313,0.78125 -1.15625,1.28125 -0.6875,0.5 -1.39063,0.71875 l -0.20312,-0.60937 q 0.73437,-0.375 1.20312,-0.89063 0.48438,-0.51562 0.75,-1.09375 l -0.51562,-0.26562 q -0.45313,-0.25 -0.64063,-0.57813 -0.1875,-0.34375 -0.1875,-0.65625 0,-0.54687 0.35938,-0.90625 0.375,-0.375 0.9375,-0.375 0.3125,0 0.5625,0.0937 0.26562,0.0781 0.53125,0.3125 0.14062,0.34375 0.17187,0.60938 0.0469,0.25 0.0469,0.57812 z m 8.48645,-7.95312 h -0.32813 q -0.0156,0.90625 -0.0312,1.82812 0,0.92188 0,1.875 v 0.57813 h 0.42188 q 0.96875,0 1.45312,-0.625 0.48438,-0.625 0.48438,-1.60938 0,-1.01562 -0.53125,-1.53125 -0.51563,-0.51562 -1.46875,-0.51562 z m -3.95313,-0.0625 v -0.78125 h 3.98438 q 1.53125,0 2.46875,0.35937 0.9375,0.35938 1.35937,1.01563 0.4375,0.64062 0.4375,1.51562 0,0.84375 -0.40625,1.54688 -0.40625,0.6875 -1.32812,1.10937 -0.92188,0.40625 -2.51563,0.40625 h -0.40625 q 0,0.625 0,1.32813 0.0156,0.6875 0.0312,1.42187 l 1.29688,0.125 v 0.79688 h -4.92188 v -0.79688 l 1.09375,-0.10937 q 0.0312,-0.89063 0.0312,-1.79688 0,-0.92187 0,-1.84375 v -0.53125 q 0,-0.92187 0,-1.82812 0,-0.92188 -0.0312,-1.8125 z m 9.24994,8.84375 v -1.29688 q 0.51563,-0.5 1,-0.98437 0.5,-0.48438 0.9375,-0.9375 0.70313,-0.70313 1.15625,-1.28125 0.46875,-0.59375 0.70313,-1.17188 0.23437,-0.59375 0.23437,-1.25 0,-0.84375 -0.40625,-1.3125 -0.39062,-0.46875 -1.07812,-0.46875 -0.0937,0 -0.1875,0 -0.0937,0 -0.1875,0.0156 l -0.1875,1.03125 q -0.10938,0.76562 -0.4375,1.01562 -0.3125,0.23438 -0.64063,0.23438 -0.3125,0 -0.57812,-0.15625 -0.25,-0.17188 -0.375,-0.4375 0.0156,-0.8125 0.48437,-1.35938 0.46875,-0.54687 1.23438,-0.82812 0.76562,-0.28125 1.67187,-0.28125 1.07813,0 1.73438,0.34375 0.67187,0.32812 0.98437,0.90625 0.32813,0.5625 0.32813,1.28125 0,0.70312 -0.375,1.375 -0.35938,0.65625 -1.14063,1.34375 -0.76562,0.6875 -1.98437,1.51562 -0.29688,0.21875 -0.625,0.4375 -0.3125,0.21875 -0.64063,0.46875 h 4.95313 v 1.79688 z m 9.91248,-4.07813 q 0,-1.14062 -0.23438,-2.10937 -0.23437,-0.96875 -0.75,-1.89063 -0.5,-0.92187 -1.32812,-1.9375 l 0.6875,-0.59375 q 1.64062,1.28125 2.5,2.9375 0.85937,1.64063 0.85937,3.59375 0,1.96875 -0.85937,3.60938 -0.85938,1.64062 -2.5,2.9375 l -0.6875,-0.60938 q 0.82812,-1.01562 1.32812,-1.9375 0.51563,-0.92187 0.75,-1.89062 0.23438,-0.96875 0.23438,-2.10938 z m 10.22854,-1.21875 v 1.10938 l -6.125,3.15625 -0.64062,-1.25 5.03125,-2.46875 -5.03125,-2.45313 0.64062,-1.25 z" />
    <path
       style="fill:#000000;fill-opacity:0;fill-rule:evenodd"
       id="path19"
       d="m 133.54068,86.62416 h 70.70866 v 23.937 h -70.70866 z" />
    <path
       style="fill:#202122;fill-rule:nonzero"
       id="path21"
       d="m 158.33928,95.497665 v -0.75 h 3.17187 v 0.78125 l -1.09375,0.1875 -3.01562,8.687495 h -1.42188 l -3.15625,-8.781245 -0.84375,-0.09375 v -0.78125 h 4.71875 v 0.75 l -1.25,0.15625 2,6.031245 2.03125,-5.999995 z m 2.6114,8.874995 v -0.6875 l 0.8125,-0.15625 q 0.0156,-0.54687 0.0156,-1.15625 0,-0.625 0,-1.07812 v -0.85938 q 0,-0.42187 -0.0156,-0.67187 0,-0.265625 -0.0156,-0.484375 0,-0.234375 -0.0156,-0.53125 l -0.89062,-0.140625 v -0.5625 l 2.89062,-0.984375 0.25,0.15625 0.14063,1.734375 q 0.3125,-0.9375 0.85937,-1.40625 0.5625,-0.484375 1.10938,-0.484375 0.48437,0 0.82812,0.28125 0.35938,0.265625 0.4375,0.796875 -0.0156,0.578125 -0.3125,0.890625 -0.28125,0.3125 -0.71875,0.3125 -0.625,0 -1.14062,-0.6875 l -0.0781,-0.109375 q -0.32812,0.296875 -0.60937,0.765625 -0.26563,0.46875 -0.375,0.984375 v 1 q 0,0.45312 0,1.04687 0,0.57813 0.0156,1.09375 l 1.15625,0.25 v 0.6875 z m 6.98706,-4.1875 v -1.10937 l 6.125,-3.15625 0.625,1.25 -5.03125,2.453125 5.03125,2.468745 -0.625,1.25 z m 11.84804,-4.593745 h -0.32812 q -0.0156,0.90625 -0.0312,1.828125 0,0.921875 0,1.875 v 0.578125 h 0.42187 q 0.96875,0 1.45313,-0.625 0.48437,-0.625 0.48437,-1.609375 0,-1.015625 -0.53125,-1.53125 -0.51562,-0.515625 -1.46875,-0.515625 z m -3.95312,-0.0625 v -0.78125 h 3.98437 q 1.53125,0 2.46875,0.359375 0.9375,0.359375 1.35938,1.015625 0.4375,0.640625 0.4375,1.515625 0,0.84375 -0.40625,1.546875 -0.40625,0.6875 -1.32813,1.109375 -0.92187,0.40625 -2.51562,0.40625 h -0.40625 q 0,0.625 0,1.32812 0.0156,0.6875 0.0312,1.42188 l 1.29687,0.125 v 0.79687 h -4.92187 v -0.79687 l 1.09375,-0.10938 q 0.0312,-0.89062 0.0312,-1.79687 0,-0.92188 0,-1.84375 v -0.53125 q 0,-0.921875 0,-1.828125 0,-0.921875 -0.0312,-1.8125 z m 9.93744,0.25 3.64062,-0.796875 0.21875,0.140625 -0.0625,2.078125 v 4.125 q 0,0.48437 0,0.96875 0,0.48437 0.0156,0.98437 l 1.70312,0.40625 v 0.6875 h -5.89062 v -0.6875 l 1.79687,-0.40625 q 0.0156,-0.48437 0.0156,-0.96875 0,-0.5 0,-0.98437 v -4.828125 l -1.4375,0.140625 z m 13.92808,3.296875 v 1.10937 l -6.125,3.15625 -0.64062,-1.25 5.03125,-2.468745 -5.03125,-2.453125 0.64062,-1.25 z" />
    <path
       style="fill:#d9d9d9;fill-rule:evenodd"
       id="path23"
       d="m 266.2362,236.94226 78.86615,-21.94214 V 96.553687 L 266.2362,74.611548 Z" />
    <path
       style="fill-rule:evenodd;stroke:#595959;stroke-width:1;stroke-linecap:butt;stroke-linejoin:round"
       id="path25"
       d="m 266.2362,236.94226 78.86615,-21.94214 V 96.553687 L 266.2362,74.611548 Z" />
    <path
       style="fill:#000000;fill-opacity:0;fill-rule:evenodd"
       id="path27"
       d="m 133.54068,184.73964 h 70.70866 v 23.93701 h -70.70866 z" />
    <path
       style="fill:#202122;fill-rule:nonzero"
       id="path29"
       d="m 158.33928,193.61314 v -0.75 h 3.17187 v 0.78125 l -1.09375,0.1875 -3.01562,8.6875 h -1.42188 l -3.15625,-8.78125 -0.84375,-0.0937 v -0.78125 h 4.71875 v 0.75 l -1.25,0.15625 2,6.03125 2.03125,-6 z m 2.6114,8.875 v -0.6875 l 0.8125,-0.15625 q 0.0156,-0.54688 0.0156,-1.15625 0,-0.625 0,-1.07813 v -0.85937 q 0,-0.42188 -0.0156,-0.67188 0,-0.26562 -0.0156,-0.48437 0,-0.23438 -0.0156,-0.53125 l -0.89062,-0.14063 v -0.5625 l 2.89062,-0.98437 0.25,0.15625 0.14063,1.73437 q 0.3125,-0.9375 0.85937,-1.40625 0.5625,-0.48437 1.10938,-0.48437 0.48437,0 0.82812,0.28125 0.35938,0.26562 0.4375,0.79687 -0.0156,0.57813 -0.3125,0.89063 -0.28125,0.3125 -0.71875,0.3125 -0.625,0 -1.14062,-0.6875 l -0.0781,-0.10938 q -0.32812,0.29688 -0.60937,0.76563 -0.26563,0.46875 -0.375,0.98437 v 1 q 0,0.45313 0,1.04688 0,0.57812 0.0156,1.09375 l 1.15625,0.25 v 0.6875 z m 6.98706,-4.1875 v -1.10938 l 6.125,-3.15625 0.625,1.25 -5.03125,2.45313 5.03125,2.46875 -0.625,1.25 z m 11.84804,-4.59375 h -0.32812 q -0.0156,0.90625 -0.0312,1.82812 0,0.92188 0,1.875 v 0.57813 h 0.42187 q 0.96875,0 1.45313,-0.625 0.48437,-0.625 0.48437,-1.60938 0,-1.01562 -0.53125,-1.53125 -0.51562,-0.51562 -1.46875,-0.51562 z m -3.95312,-0.0625 v -0.78125 h 3.98437 q 1.53125,0 2.46875,0.35937 0.9375,0.35938 1.35938,1.01563 0.4375,0.64062 0.4375,1.51562 0,0.84375 -0.40625,1.54688 -0.40625,0.6875 -1.32813,1.10937 -0.92187,0.40625 -2.51562,0.40625 h -0.40625 q 0,0.625 0,1.32813 0.0156,0.6875 0.0312,1.42187 l 1.29687,0.125 v 0.79688 h -4.92187 v -0.79688 l 1.09375,-0.10937 q 0.0312,-0.89063 0.0312,-1.79688 0,-0.92187 0,-1.84375 v -0.53125 q 0,-0.92187 0,-1.82812 0,-0.92188 -0.0312,-1.8125 z m 9.24994,8.84375 v -1.29688 q 0.51562,-0.5 1,-0.98437 0.5,-0.48438 0.9375,-0.9375 0.70312,-0.70313 1.15625,-1.28125 0.46875,-0.59375 0.70312,-1.17188 0.23438,-0.59375 0.23438,-1.25 0,-0.84375 -0.40625,-1.3125 -0.39063,-0.46875 -1.07813,-0.46875 -0.0937,0 -0.1875,0 -0.0937,0 -0.1875,0.0156 l -0.1875,1.03125 q -0.10937,0.76562 -0.4375,1.01562 -0.3125,0.23438 -0.64062,0.23438 -0.3125,0 -0.57813,-0.15625 -0.25,-0.17188 -0.375,-0.4375 0.0156,-0.8125 0.48438,-1.35938 0.46875,-0.54687 1.23437,-0.82812 0.76563,-0.28125 1.67188,-0.28125 1.07812,0 1.73437,0.34375 0.67188,0.32812 0.98438,0.90625 0.32812,0.5625 0.32812,1.28125 0,0.70312 -0.375,1.375 -0.35937,0.65625 -1.14062,1.34375 -0.76563,0.6875 -1.98438,1.51562 -0.29687,0.21875 -0.625,0.4375 -0.3125,0.21875 -0.64062,0.46875 h 4.95312 v 1.79688 z m 14.61558,-5.29688 v 1.10938 l -6.125,3.15625 -0.64062,-1.25 5.03125,-2.46875 -5.03125,-2.45313 0.64062,-1.25 z" />
    <path
       style="fill:#000000;fill-opacity:0;fill-rule:evenodd"
       id="path31"
       d="m 345.10498,128.10236 h 98.96063 v 14.86615 h -98.96063 z" />
    <path
       style="fill:#202122;fill-rule:nonzero"
       id="path33"
       d="m 353.82373,139.97163 q -0.78125,0 -1.51563,-0.29688 -0.71875,-0.3125 -1.3125,-0.89062 -0.57812,-0.59375 -0.92187,-1.45313 -0.34375,-0.875 -0.34375,-2.03125 0,-1.09375 0.34375,-1.95312 0.34375,-0.875 0.92187,-1.46875 0.59375,-0.59375 1.3125,-0.90625 0.73438,-0.3125 1.51563,-0.3125 0.76562,0 1.48437,0.29687 0.73438,0.29688 1.3125,0.89063 0.59375,0.57812 0.9375,1.45312 0.34375,0.85938 0.34375,2 0,1.09375 -0.34375,1.96875 -0.34375,0.85938 -0.92187,1.46875 -0.57813,0.60938 -1.3125,0.92188 -0.73438,0.3125 -1.5,0.3125 z m 0,-0.67188 q 0.6875,0 1.1875,-0.32812 0.5,-0.34375 0.8125,-0.90625 0.3125,-0.57813 0.45312,-1.28125 0.15625,-0.71875 0.15625,-1.48438 0,-0.75 -0.15625,-1.45312 -0.14062,-0.71875 -0.45312,-1.28125 -0.3125,-0.57813 -0.8125,-0.90625 -0.5,-0.34375 -1.1875,-0.34375 -0.6875,0 -1.1875,0.34375 -0.5,0.32812 -0.82813,0.90625 -0.3125,0.5625 -0.46875,1.28125 -0.15625,0.70312 -0.15625,1.45312 0,0.76563 0.15625,1.48438 0.15625,0.70312 0.46875,1.28125 0.32813,0.5625 0.82813,0.90625 0.5,0.32812 1.1875,0.32812 z m 5.17294,3.65625 v -0.46875 l 1.0625,-0.1875 q 0.0156,-0.54687 0.0156,-1.09375 0.0156,-0.53125 0.0156,-1.0625 v -3.8125 q 0,-0.54687 -0.0156,-0.90625 0,-0.35937 -0.0312,-0.76562 l -1.04688,-0.10938 V 134.081 l 1.85938,-0.8125 0.20312,0.125 0.0781,0.875 q 0.95312,-1 2.01562,-1 0.71875,0 1.28125,0.40625 0.57813,0.39063 0.92188,1.14063 0.34375,0.73437 0.34375,1.76562 0,1.03125 -0.35938,1.78125 -0.35937,0.75 -0.98437,1.17188 -0.60938,0.40625 -1.40625,0.40625 -0.45313,0 -0.90625,-0.1875 -0.4375,-0.1875 -0.85938,-0.67188 v 1.04688 q 0,0.53125 0,1.0625 0.0156,0.54687 0.0156,1.09375 l 1.21875,0.20312 v 0.46875 z m 3.84375,-8.9375 q -0.3125,0 -0.71875,0.15625 -0.39062,0.15625 -0.90625,0.57813 v 3.75 q 0.375,0.35937 0.73438,0.51562 0.35937,0.15625 0.73437,0.15625 0.75,0 1.28125,-0.59375 0.53125,-0.59375 0.53125,-1.89062 0,-1.28125 -0.46875,-1.96875 -0.46875,-0.70313 -1.1875,-0.70313 z m 6.05881,5.92188 q -0.6875,0 -1.10937,-0.375 -0.40625,-0.375 -0.40625,-1.14063 0,-0.25 0,-0.5 0,-0.25 0,-0.64062 v -3.14063 h -1.09375 v -0.57812 l 1.1875,-0.15625 0.34375,-1.78125 h 0.79687 l -0.0781,1.8125 h 1.79687 v 0.70312 h -1.8125 v 4.125 q 0,0.51563 0.20313,0.75 0.20312,0.23438 0.53125,0.23438 0.21875,0 0.42187,-0.0937 0.21875,-0.0937 0.46875,-0.26563 l 0.32813,0.34375 q -0.54688,0.70313 -1.57813,0.70313 z m 2.36288,-4.25 v -0.625 l 5.15625,-3 0.39063,0.71875 -4.625,2.59375 4.625,2.59375 -0.39063,0.71875 z m 8.43659,0.375 q 0,1.0625 0.1875,2 0.1875,0.92187 0.64062,1.875 0.45313,0.95312 1.23438,2.07812 l -0.34375,0.3125 q -1.42188,-1.32812 -2.10938,-2.875 -0.67187,-1.5625 -0.67187,-3.39062 0,-1.82813 0.67187,-3.39063 0.6875,-1.5625 2.10938,-2.875 l 0.34375,0.3125 q -0.78125,1.125 -1.23438,2.07813 -0.45312,0.95312 -0.64062,1.89062 -0.1875,0.92188 -0.1875,1.98438 z m 6.33072,-4.59375 h -0.8125 q 0,0.84375 -0.0156,1.73437 0,0.89063 0,1.78125 v 0.64063 h 0.875 q 1.21875,0 1.73438,-0.59375 0.51562,-0.59375 0.51562,-1.53125 0,-0.96875 -0.5625,-1.5 -0.54687,-0.53125 -1.73437,-0.53125 z m -3.34375,-0.0781 v -0.54687 h 3.57812 q 1.6875,0 2.53125,0.75 0.85938,0.73437 0.85938,1.90625 0,0.75 -0.375,1.375 -0.375,0.625 -1.20313,1 -0.8125,0.375 -2.1875,0.375 h -0.6875 q 0,0.71875 0,1.42187 0.0156,0.6875 0.0156,1.40625 l 1.25,0.14063 v 0.54687 h -3.78125 v -0.54687 l 1.21875,-0.14063 q 0.0312,-0.84375 0.0312,-1.70312 0,-0.875 0,-1.73438 v -0.65625 q 0,-0.875 0,-1.73437 0,-0.85938 -0.0312,-1.70313 z m 8.39709,0.35938 2.73438,-0.70313 0.1875,0.14063 -0.0469,1.90625 v 3.85937 q 0,0.5 0,1 0.0156,0.5 0.0156,1.01563 l 1.90625,0.3125 v 0.48437 h -4.95313 v -0.48437 l 1.875,-0.3125 q 0.0156,-0.51563 0.0156,-1.01563 0.0156,-0.5 0.0156,-1 v -4.79687 l -1.75,0.14062 z m 8.36716,7.625 q 0,0.79687 -0.39063,1.46875 -0.375,0.6875 -0.96875,1.17187 -0.57812,0.5 -1.21875,0.73438 l -0.1875,-0.45313 q 0.6875,-0.34375 1.20313,-0.84375 0.51562,-0.48437 0.76562,-1.23437 l -0.5,-0.39063 q -0.26562,-0.20312 -0.39062,-0.45312 -0.10938,-0.25 -0.10938,-0.5 0,-0.34375 0.20313,-0.59375 0.20312,-0.25 0.60937,-0.25 0.1875,0 0.375,0.0781 0.20313,0.0781 0.45313,0.3125 0.0781,0.25 0.10937,0.48438 0.0469,0.23437 0.0469,0.46875 z m 8.19763,-7.90625 h -0.8125 q 0,0.84375 -0.0156,1.73437 0,0.89063 0,1.78125 v 0.64063 h 0.875 q 1.21875,0 1.73437,-0.59375 0.51563,-0.59375 0.51563,-1.53125 0,-0.96875 -0.5625,-1.5 -0.54688,-0.53125 -1.73438,-0.53125 z m -3.34375,-0.0781 v -0.54687 h 3.57813 q 1.6875,0 2.53125,0.75 0.85937,0.73437 0.85937,1.90625 0,0.75 -0.375,1.375 -0.375,0.625 -1.20312,1 -0.8125,0.375 -2.1875,0.375 h -0.6875 q 0,0.71875 0,1.42187 0.0156,0.6875 0.0156,1.40625 l 1.25,0.14063 v 0.54687 h -3.78125 v -0.54687 l 1.21875,-0.14063 q 0.0312,-0.84375 0.0312,-1.70312 0,-0.875 0,-1.73438 v -0.65625 q 0,-0.875 0,-1.73437 0,-0.85938 -0.0312,-1.70313 z m 7.91272,8.375 v -0.85937 q 0.53125,-0.53125 1.03125,-1.03125 0.5,-0.51563 0.92188,-0.96875 1,-1.0625 1.46875,-1.90625 0.46875,-0.85938 0.46875,-1.625 0,-0.82813 -0.4375,-1.3125 -0.4375,-0.48438 -1.17188,-0.48438 -0.125,0 -0.29687,0.0156 -0.15625,0.0156 -0.34375,0.0625 l -0.26563,0.90625 q -0.125,0.5 -0.3125,0.70312 -0.17187,0.20313 -0.45312,0.20313 -0.4375,0 -0.67188,-0.42188 0.0781,-0.70312 0.45313,-1.15625 0.39062,-0.46875 0.96875,-0.6875 0.59375,-0.21875 1.26562,-0.21875 1.29688,0 1.875,0.64063 0.59375,0.625 0.59375,1.625 0,0.57812 -0.23437,1.14062 -0.23438,0.54688 -0.8125,1.23438 -0.57813,0.6875 -1.59375,1.67187 -0.26563,0.26563 -0.65625,0.625 -0.375,0.35938 -0.78125,0.75 h 4.45312 v 1.09375 z m 8.39841,-3.70312 q 0,-1.0625 -0.1875,-1.98438 -0.1875,-0.9375 -0.64063,-1.89062 -0.4375,-0.95313 -1.23437,-2.07813 l 0.35937,-0.3125 q 1.40625,1.3125 2.07813,2.875 0.6875,1.5625 0.6875,3.39063 0,1.82812 -0.6875,3.39062 -0.67188,1.54688 -2.07813,2.875 l -0.35937,-0.3125 q 0.79687,-1.125 1.23437,-2.07812 0.45313,-0.95313 0.64063,-1.875 0.1875,-0.9375 0.1875,-2 z m 8.44009,-1 v 0.625 l -5.15625,3 -0.39062,-0.71875 4.625,-2.59375 -4.625,-2.59375 0.39062,-0.71875 z" />
    <path
       style="fill:#000000;fill-opacity:0;fill-rule:evenodd"
       id="path35"
       d="m 345.10605,147.65558 h 51.10553" />
    <path
       style="fill-rule:evenodd;stroke:#595959;stroke-width:2;stroke-linecap:butt;stroke-linejoin:round"
       id="path37"
       d="m 345.10605,147.65558 h 39.10553" />
    <path
       style="fill:#595959;fill-rule:evenodd;stroke:#595959;stroke-width:2;stroke-linecap:butt"
       id="path39"
       d="m 384.21158,150.95905 9.0762,-3.30347 -9.0762,-3.30346 z" />
    <path
       style="fill:#000000;fill-opacity:0;fill-rule:evenodd"
       id="path41"
       d="m 345.10605,141.70477 h 18.39801 v 11.90161 h -18.39801 z" />
    <path
       style="fill:#000000;fill-opacity:0;fill-rule:evenodd"
       id="path43"
       d="m 377.79282,141.70477 h 18.39798 v 11.90161 h -18.39798 z" />
    <path
       style="fill:#000000;fill-opacity:0;fill-rule:evenodd"
       id="path45"
       d="M 396.21088,177.50107 H 345.10535" />
    <path
       style="fill-rule:evenodd;stroke:#1c4587;stroke-width:2;stroke-linecap:butt;stroke-linejoin:round"
       id="path47"
       d="M 396.21088,177.50107 H 357.10535" />
    <path
       style="fill:#1c4587;fill-rule:evenodd;stroke:#1c4587;stroke-width:2;stroke-linecap:butt"
       id="path49"
       d="m 357.10535,174.1976 -9.07617,3.30347 9.07617,3.30346 z" />
    <path
       style="fill:#000000;fill-opacity:0;fill-rule:evenodd"
       id="path51"
       d="m 345.12717,171.55026 h 18.39798 v 11.90161 h -18.39798 z" />
    <path
       style="fill:#000000;fill-opacity:0;fill-rule:evenodd"
       id="path53"
       d="m 377.8136,171.55026 h 18.39798 v 11.90161 H 377.8136 Z" />
    <path
       style="fill:#000000;fill-opacity:0;fill-rule:evenodd"
       id="path55"
       d="m 215.12706,98.59733 h 51.10551" />
    <path
       style="fill-rule:evenodd;stroke:#595959;stroke-width:2;stroke-linecap:butt;stroke-linejoin:round"
       id="path57"
       d="m 215.12704,98.59733 h 39.10553" />
    <path
       style="fill:#595959;fill-rule:evenodd;stroke:#595959;stroke-width:2;stroke-linecap:butt"
       id="path59"
       d="m 254.23257,101.9008 9.0762,-3.303472 -9.0762,-3.303467 z" />
    <path
       style="fill:#000000;fill-opacity:0;fill-rule:evenodd"
       id="path61"
       d="m 215.12706,92.64652 h 18.39798 v 11.9016 h -18.39798 z" />
    <path
       style="fill:#000000;fill-opacity:0;fill-rule:evenodd"
       id="path63"
       d="m 247.81381,92.64652 h 18.39798 v 11.9016 h -18.39798 z" />
    <path
       style="fill:#000000;fill-opacity:0;fill-rule:evenodd"
       id="path65"
       d="M 266.23187,128.44281 H 215.12634" />
    <path
       style="fill-rule:evenodd;stroke:#1c4587;stroke-width:2;stroke-linecap:butt;stroke-linejoin:round"
       id="path67"
       d="M 266.23184,128.44281 H 227.12636" />
    <path
       style="fill:#1c4587;fill-rule:evenodd;stroke:#1c4587;stroke-width:2;stroke-linecap:butt"
       id="path69"
       d="m 227.12636,125.13934 -9.0762,3.30347 9.0762,3.30346 z" />
    <path
       style="fill:#000000;fill-opacity:0;fill-rule:evenodd"
       id="path71"
       d="m 215.14816,122.49201 h 18.39798 v 11.9016 h -18.39798 z" />
    <path
       style="fill:#000000;fill-opacity:0;fill-rule:evenodd"
       id="path73"
       d="m 247.83458,122.49201 h 18.39799 v 11.9016 h -18.39799 z" />
    <path
       style="fill:#000000;fill-opacity:0;fill-rule:evenodd"
       id="path75"
       d="m 345.10498,156.92117 h 61.98425 v 14.86613 h -61.98425 z" />
    <path
       style="fill:#202122;fill-rule:nonzero"
       id="path77"
       d="m 355.40186,163.89981 q 0.8125,0.21875 1.32812,0.84375 0.53125,0.60937 0.53125,1.45312 0,1.15625 -1.04687,1.78125 -1.03125,0.60938 -2.5625,0.60938 h -3.96875 q -0.23438,0 -0.23438,-0.25 0,-0.25 0.4375,-0.25 0.46875,0 0.625,-0.125 0.17188,-0.14063 0.17188,-0.59375 v -6.3125 q 0,-0.5 -0.20313,-0.60938 -0.20312,-0.10937 -0.79687,-0.10937 -0.23438,0 -0.23438,-0.25 0,-0.25 0.23438,-0.25 h 3.96875 q 3.10937,0 3.10937,2.25 0,1.10937 -1.35937,1.8125 z m 0.89062,-1.8125 q 0,-1.48438 -1.70312,-1.70313 0.54687,0.625 0.54687,1.70313 0,1.21875 -0.6875,1.75 1.84375,-0.875 1.84375,-1.75 z m -1.64062,0 q 0,-0.76563 -0.32813,-1.25 -0.32812,-0.5 -0.92187,-0.5 -0.28125,0 -0.5,0.14062 -0.20313,0.125 -0.20313,0.34375 v 3 q 0.96875,0 1.45313,-0.375 0.5,-0.375 0.5,-1.35937 z m 2.125,4.10937 q 0,-0.8125 -0.51563,-1.25 -0.51562,-0.4375 -1.42187,-0.70312 0.6875,0.53125 0.6875,1.95312 0,1.09375 -0.54688,1.75 1.79688,-0.45312 1.79688,-1.75 z m -4.07813,1.42188 q 0,0.21875 0.20313,0.34375 0.21875,0.125 0.5,0.125 1.64062,0 1.64062,-1.89063 0,-0.98437 -0.375,-1.4375 -0.35937,-0.45312 -1.26562,-0.45312 h -0.70313 z m -0.34375,-7.28125 h -1.3125 q 0.125,0.25 0.125,0.71875 v 6.3125 q 0,0.46875 -0.125,0.71875 h 1.3125 q -0.14062,-0.21875 -0.14062,-0.46875 v -6.79688 q 0,-0.26562 0.14062,-0.48437 z" />
    <path
       style="fill:#000000;fill-opacity:0;fill-rule:evenodd"
       id="path79"
       d="m 204.24934,79.044815 h 61.98424 v 14.866142 h -61.98424 z" />
    <path
       style="fill:#202122;fill-rule:nonzero"
       id="path81"
       d="m 216.89217,90.91408 q -0.78125,0 -1.51563,-0.296875 -0.71875,-0.3125 -1.3125,-0.890625 -0.57812,-0.59375 -0.92187,-1.453125 -0.34375,-0.875 -0.34375,-2.03125 0,-1.09375 0.34375,-1.953125 0.34375,-0.875 0.92187,-1.46875 0.59375,-0.59375 1.3125,-0.90625 0.73438,-0.3125 1.51563,-0.3125 0.76562,0 1.48437,0.296875 0.73438,0.296875 1.3125,0.890625 0.59375,0.578125 0.9375,1.453125 0.34375,0.859375 0.34375,2 0,1.09375 -0.34375,1.96875 -0.34375,0.859375 -0.92187,1.46875 -0.57813,0.609375 -1.3125,0.921875 -0.73438,0.3125 -1.5,0.3125 z m 0,-0.671875 q 0.6875,0 1.1875,-0.328125 0.5,-0.34375 0.8125,-0.90625 0.3125,-0.578125 0.45312,-1.28125 0.15625,-0.71875 0.15625,-1.484375 0,-0.75 -0.15625,-1.453125 -0.14062,-0.71875 -0.45312,-1.28125 -0.3125,-0.578125 -0.8125,-0.90625 -0.5,-0.34375 -1.1875,-0.34375 -0.6875,0 -1.1875,0.34375 -0.5,0.328125 -0.82813,0.90625 -0.3125,0.5625 -0.46875,1.28125 -0.15625,0.703125 -0.15625,1.453125 0,0.765625 0.15625,1.484375 0.15625,0.703125 0.46875,1.28125 0.32813,0.5625 0.82813,0.90625 0.5,0.328125 1.1875,0.328125 z m 5.17294,3.65625 v -0.46875 l 1.0625,-0.1875 q 0.0156,-0.546875 0.0156,-1.09375 0.0156,-0.53125 0.0156,-1.0625 v -3.8125 q 0,-0.546875 -0.0156,-0.90625 0,-0.359375 -0.0312,-0.765625 l -1.04688,-0.109375 v -0.46875 l 1.85938,-0.8125 0.20312,0.125 0.0781,0.875 q 0.95312,-1 2.01562,-1 0.71875,0 1.28125,0.40625 0.57813,0.390625 0.92188,1.140625 0.34375,0.734375 0.34375,1.765625 0,1.03125 -0.35938,1.78125 -0.35937,0.75 -0.98437,1.171875 -0.60938,0.40625 -1.40625,0.40625 -0.45313,0 -0.90625,-0.1875 -0.4375,-0.1875 -0.85938,-0.671875 v 1.046875 q 0,0.53125 0,1.0625 0.0156,0.546875 0.0156,1.09375 l 1.21875,0.203125 v 0.46875 z m 3.84375,-8.9375 q -0.3125,0 -0.71875,0.15625 -0.39062,0.15625 -0.90625,0.578125 v 3.75 q 0.375,0.359375 0.73438,0.515625 0.35937,0.15625 0.73437,0.15625 0.75,0 1.28125,-0.59375 0.53125,-0.59375 0.53125,-1.890625 0,-1.28125 -0.46875,-1.96875 -0.46875,-0.703125 -1.1875,-0.703125 z m 6.05881,5.921875 q -0.6875,0 -1.10937,-0.375 -0.40625,-0.375 -0.40625,-1.140625 0,-0.25 0,-0.5 0,-0.25 0,-0.640625 V 85.085955 H 229.3583 V 84.50783 l 1.1875,-0.15625 0.34375,-1.78125 h 0.79687 l -0.0781,1.8125 h 1.79687 v 0.703125 h -1.8125 v 4.125 q 0,0.515625 0.20313,0.75 0.20312,0.234375 0.53125,0.234375 0.21875,0 0.42187,-0.09375 0.21875,-0.09375 0.46875,-0.265625 l 0.32813,0.34375 q -0.54688,0.703125 -1.57813,0.703125 z m 2.36287,-4.25 v -0.625 l 5.15625,-3 0.39062,0.71875 -4.625,2.59375 4.625,2.59375 -0.39062,0.71875 z m 10.24908,-4.21875 h -0.8125 q 0,0.84375 -0.0156,1.734375 0,0.890625 0,1.78125 v 0.640625 h 0.875 q 1.21875,0 1.73437,-0.59375 0.51563,-0.59375 0.51563,-1.53125 0,-0.96875 -0.5625,-1.5 -0.54688,-0.53125 -1.73438,-0.53125 z m -3.34375,-0.07813 v -0.54687 h 3.57813 q 1.6875,0 2.53125,0.75 0.85937,0.734375 0.85937,1.90625 0,0.75 -0.375,1.375 -0.375,0.625 -1.20312,1 -0.8125,0.375 -2.1875,0.375 h -0.6875 q 0,0.71875 0,1.421875 0.0156,0.6875 0.0156,1.40625 l 1.25,0.140625 v 0.546875 h -3.78125 V 90.16408 l 1.21875,-0.140625 q 0.0312,-0.84375 0.0312,-1.703125 0,-0.875 0,-1.734375 v -0.65625 q 0,-0.875 0,-1.734375 0,-0.859375 -0.0312,-1.703125 z m 8.39711,0.359375 2.73438,-0.703125 0.1875,0.140625 -0.0469,1.90625 v 3.859375 q 0,0.5 0,1 0.0156,0.5 0.0156,1.015625 l 1.90625,0.3125 v 0.484375 h -4.95313 v -0.48437 l 1.875,-0.3125 q 0.0156,-0.515625 0.0156,-1.015625 0.0156,-0.5 0.0156,-1 V 83.10158 l -1.75,0.140625 z m 11.8359,3.3125 v 0.625 l -5.15625,3 -0.39061,-0.71875 4.62498,-2.59375 -4.62498,-2.59375 0.39061,-0.71875 z" />
    <path
       style="fill:#000000;fill-opacity:0;fill-rule:evenodd"
       id="path83"
       d="m 204.24934,107.86292 h 61.98424 v 14.86614 h -61.98424 z" />
    <path
       style="fill:#202122;fill-rule:nonzero"
       id="path85"
       d="m 259.98718,114.84156 q 0.8125,0.21875 1.32813,0.84375 0.53125,0.60938 0.53125,1.45313 0,1.15625 -1.04688,1.78125 -1.03125,0.60937 -2.5625,0.60937 h -3.96875 q -0.23437,0 -0.23437,-0.25 0,-0.25 0.4375,-0.25 0.46875,0 0.625,-0.125 0.17187,-0.14062 0.17187,-0.59375 v -6.3125 q 0,-0.5 -0.20312,-0.60937 -0.20313,-0.10938 -0.79688,-0.10938 -0.23437,0 -0.23437,-0.25 0,-0.25 0.23437,-0.25 h 3.96875 q 3.10938,0 3.10938,2.25 0,1.10938 -1.35938,1.8125 z m 0.89063,-1.8125 q 0,-1.48437 -1.70313,-1.70312 0.54688,0.625 0.54688,1.70312 0,1.21875 -0.6875,1.75 1.84375,-0.875 1.84375,-1.75 z m -1.64063,0 q 0,-0.76562 -0.32812,-1.25 -0.32813,-0.5 -0.92188,-0.5 -0.28125,0 -0.5,0.14063 -0.20312,0.125 -0.20312,0.34375 v 3 q 0.96875,0 1.45312,-0.375 0.5,-0.375 0.5,-1.35938 z m 2.125,4.10938 q 0,-0.8125 -0.51562,-1.25 -0.51563,-0.4375 -1.42188,-0.70313 0.6875,0.53125 0.6875,1.95313 0,1.09375 -0.54687,1.75 1.79687,-0.45313 1.79687,-1.75 z m -4.07812,1.42187 q 0,0.21875 0.20312,0.34375 0.21875,0.125 0.5,0.125 1.64063,0 1.64063,-1.89062 0,-0.98438 -0.375,-1.4375 -0.35938,-0.45313 -1.26563,-0.45313 h -0.70312 z m -0.34375,-7.28125 h -1.3125 q 0.125,0.25 0.125,0.71875 v 6.3125 q 0,0.46875 -0.125,0.71875 h 1.3125 q -0.14063,-0.21875 -0.14063,-0.46875 v -6.79687 q 0,-0.26563 0.14063,-0.48438 z" />
    <path
       style="fill:#000000;fill-opacity:0;fill-rule:evenodd"
       id="path87"
       d="m 215.12706,196.71281 h 51.10551" />
    <path
       style="fill-rule:evenodd;stroke:#595959;stroke-width:2;stroke-linecap:butt;stroke-linejoin:round"
       id="path89"
       d="m 215.12704,196.7128 h 39.10553" />
    <path
       style="fill:#595959;fill-rule:evenodd;stroke:#595959;stroke-width:2;stroke-linecap:butt"
       id="path91"
       d="m 254.23257,200.01627 9.0762,-3.30347 -9.0762,-3.30346 z" />
    <path
       style="fill:#000000;fill-opacity:0;fill-rule:evenodd"
       id="path93"
       d="m 215.12706,190.76201 h 18.39798 v 11.9016 h -18.39798 z" />
    <path
       style="fill:#000000;fill-opacity:0;fill-rule:evenodd"
       id="path95"
       d="m 247.81381,190.76201 h 18.39798 v 11.9016 h -18.39798 z" />
    <path
       style="fill:#000000;fill-opacity:0;fill-rule:evenodd"
       id="path97"
       d="M 266.23187,226.5583 H 215.12634" />
    <path
       style="fill-rule:evenodd;stroke:#1c4587;stroke-width:2;stroke-linecap:butt;stroke-linejoin:round"
       id="path99"
       d="M 266.23184,226.5583 H 227.12636" />
    <path
       style="fill:#1c4587;fill-rule:evenodd;stroke:#1c4587;stroke-width:2;stroke-linecap:butt"
       id="path101"
       d="m 227.12636,223.25484 -9.0762,3.30347 9.0762,3.30345 z" />
    <path
       style="fill:#000000;fill-opacity:0;fill-rule:evenodd"
       id="path103"
       d="m 215.14816,220.6075 h 18.39798 v 11.9016 h -18.39798 z" />
    <path
       style="fill:#000000;fill-opacity:0;fill-rule:evenodd"
       id="path105"
       d="m 247.83458,220.6075 h 18.39799 v 11.9016 h -18.39799 z" />
    <path
       style="fill:#000000;fill-opacity:0;fill-rule:evenodd"
       id="path107"
       d="m 204.24934,177.1603 h 61.98424 v 14.86615 h -61.98424 z" />
    <path
       style="fill:#202122;fill-rule:nonzero"
       id="path109"
       d="m 216.89217,189.02957 q -0.78125,0 -1.51563,-0.29688 -0.71875,-0.3125 -1.3125,-0.89062 -0.57812,-0.59375 -0.92187,-1.45313 -0.34375,-0.875 -0.34375,-2.03125 0,-1.09375 0.34375,-1.95312 0.34375,-0.875 0.92187,-1.46875 0.59375,-0.59375 1.3125,-0.90625 0.73438,-0.3125 1.51563,-0.3125 0.76562,0 1.48437,0.29687 0.73438,0.29688 1.3125,0.89063 0.59375,0.57812 0.9375,1.45312 0.34375,0.85938 0.34375,2 0,1.09375 -0.34375,1.96875 -0.34375,0.85938 -0.92187,1.46875 -0.57813,0.60938 -1.3125,0.92188 -0.73438,0.3125 -1.5,0.3125 z m 0,-0.67188 q 0.6875,0 1.1875,-0.32812 0.5,-0.34375 0.8125,-0.90625 0.3125,-0.57813 0.45312,-1.28125 0.15625,-0.71875 0.15625,-1.48438 0,-0.75 -0.15625,-1.45312 -0.14062,-0.71875 -0.45312,-1.28125 -0.3125,-0.57813 -0.8125,-0.90625 -0.5,-0.34375 -1.1875,-0.34375 -0.6875,0 -1.1875,0.34375 -0.5,0.32812 -0.82813,0.90625 -0.3125,0.5625 -0.46875,1.28125 -0.15625,0.70312 -0.15625,1.45312 0,0.76563 0.15625,1.48438 0.15625,0.70312 0.46875,1.28125 0.32813,0.5625 0.82813,0.90625 0.5,0.32812 1.1875,0.32812 z m 5.17294,3.65625 v -0.46875 l 1.0625,-0.1875 q 0.0156,-0.54687 0.0156,-1.09375 0.0156,-0.53125 0.0156,-1.0625 v -3.8125 q 0,-0.54687 -0.0156,-0.90625 0,-0.35937 -0.0312,-0.76562 l -1.04688,-0.10938 v -0.46875 l 1.85938,-0.8125 0.20312,0.125 0.0781,0.875 q 0.95312,-1 2.01562,-1 0.71875,0 1.28125,0.40625 0.57813,0.39063 0.92188,1.14063 0.34375,0.73437 0.34375,1.76562 0,1.03125 -0.35938,1.78125 -0.35937,0.75 -0.98437,1.17188 -0.60938,0.40625 -1.40625,0.40625 -0.45313,0 -0.90625,-0.1875 -0.4375,-0.1875 -0.85938,-0.67188 v 1.04688 q 0,0.53125 0,1.0625 0.0156,0.54687 0.0156,1.09375 l 1.21875,0.20312 v 0.46875 z m 3.84375,-8.9375 q -0.3125,0 -0.71875,0.15625 -0.39062,0.15625 -0.90625,0.57813 v 3.75 q 0.375,0.35937 0.73438,0.51562 0.35937,0.15625 0.73437,0.15625 0.75,0 1.28125,-0.59375 0.53125,-0.59375 0.53125,-1.89062 0,-1.28125 -0.46875,-1.96875 -0.46875,-0.70313 -1.1875,-0.70313 z m 6.05881,5.92188 q -0.6875,0 -1.10937,-0.375 -0.40625,-0.375 -0.40625,-1.14063 0,-0.25 0,-0.5 0,-0.25 0,-0.64062 v -3.14063 h -1.09375 v -0.57812 l 1.1875,-0.15625 0.34375,-1.78125 h 0.79687 l -0.0781,1.8125 h 1.79687 v 0.70312 h -1.8125 v 4.125 q 0,0.51563 0.20313,0.75 0.20312,0.23438 0.53125,0.23438 0.21875,0 0.42187,-0.0937 0.21875,-0.0937 0.46875,-0.26563 l 0.32813,0.34375 q -0.54688,0.70313 -1.57813,0.70313 z m 2.36287,-4.25 v -0.625 l 5.15625,-3 0.39062,0.71875 -4.625,2.59375 4.625,2.59375 -0.39062,0.71875 z m 10.24908,-4.21875 h -0.8125 q 0,0.84375 -0.0156,1.73437 0,0.89063 0,1.78125 v 0.64063 h 0.875 q 1.21875,0 1.73437,-0.59375 0.51563,-0.59375 0.51563,-1.53125 0,-0.96875 -0.5625,-1.5 -0.54688,-0.53125 -1.73438,-0.53125 z m -3.34375,-0.0781 v -0.54687 h 3.57813 q 1.6875,0 2.53125,0.75 0.85937,0.73437 0.85937,1.90625 0,0.75 -0.375,1.375 -0.375,0.625 -1.20312,1 -0.8125,0.375 -2.1875,0.375 h -0.6875 q 0,0.71875 0,1.42187 0.0156,0.6875 0.0156,1.40625 l 1.25,0.14063 v 0.54687 h -3.78125 v -0.54687 l 1.21875,-0.14063 q 0.0312,-0.84375 0.0312,-1.70312 0,-0.875 0,-1.73438 v -0.65625 q 0,-0.875 0,-1.73437 0,-0.85938 -0.0312,-1.70313 z m 7.91274,8.375 v -0.85937 q 0.53125,-0.53125 1.03125,-1.03125 0.5,-0.51563 0.92187,-0.96875 1,-1.0625 1.46875,-1.90625 0.46875,-0.85938 0.46875,-1.625 0,-0.82813 -0.4375,-1.3125 -0.4375,-0.48438 -1.17187,-0.48438 -0.125,0 -0.29688,0.0156 -0.15625,0.0156 -0.34375,0.0625 l -0.26562,0.90625 q -0.125,0.5 -0.3125,0.70312 -0.17188,0.20313 -0.45313,0.20313 -0.4375,0 -0.67187,-0.42188 0.0781,-0.70312 0.45312,-1.15625 0.39063,-0.46875 0.96875,-0.6875 0.59375,-0.21875 1.26563,-0.21875 1.29687,0 1.875,0.64063 0.59375,0.625 0.59375,1.625 0,0.57812 -0.23438,1.14062 -0.23437,0.54688 -0.8125,1.23438 -0.57812,0.6875 -1.59375,1.67187 -0.26562,0.26563 -0.65625,0.625 -0.375,0.35938 -0.78125,0.75 h 4.45313 v 1.09375 z m 12.32027,-4.70312 v 0.625 l -5.15625,3 -0.39061,-0.71875 4.62498,-2.59375 -4.62498,-2.59375 0.39061,-0.71875 z" />
    <path
       style="fill:#000000;fill-opacity:0;fill-rule:evenodd"
       id="path111"
       d="m 204.24934,205.97841 h 61.98424 v 14.86613 h -61.98424 z" />
    <path
       style="fill:#202122;fill-rule:nonzero"
       id="path113"
       d="m 259.98718,212.95705 q 0.8125,0.21875 1.32813,0.84375 0.53125,0.60937 0.53125,1.45312 0,1.15625 -1.04688,1.78125 -1.03125,0.60938 -2.5625,0.60938 h -3.96875 q -0.23437,0 -0.23437,-0.25 0,-0.25 0.4375,-0.25 0.46875,0 0.625,-0.125 0.17187,-0.14063 0.17187,-0.59375 v -6.3125 q 0,-0.5 -0.20312,-0.60938 -0.20313,-0.10937 -0.79688,-0.10937 -0.23437,0 -0.23437,-0.25 0,-0.25 0.23437,-0.25 h 3.96875 q 3.10938,0 3.10938,2.25 0,1.10937 -1.35938,1.8125 z m 0.89063,-1.8125 q 0,-1.48438 -1.70313,-1.70313 0.54688,0.625 0.54688,1.70313 0,1.21875 -0.6875,1.75 1.84375,-0.875 1.84375,-1.75 z m -1.64063,0 q 0,-0.76563 -0.32812,-1.25 -0.32813,-0.5 -0.92188,-0.5 -0.28125,0 -0.5,0.14062 -0.20312,0.125 -0.20312,0.34375 v 3 q 0.96875,0 1.45312,-0.375 0.5,-0.375 0.5,-1.35937 z m 2.125,4.10937 q 0,-0.8125 -0.51562,-1.25 -0.51563,-0.4375 -1.42188,-0.70312 0.6875,0.53125 0.6875,1.95312 0,1.09375 -0.54687,1.75 1.79687,-0.45312 1.79687,-1.75 z m -4.07812,1.42188 q 0,0.21875 0.20312,0.34375 0.21875,0.125 0.5,0.125 1.64063,0 1.64063,-1.89063 0,-0.98437 -0.375,-1.4375 -0.35938,-0.45312 -1.26563,-0.45312 h -0.70312 z m -0.34375,-7.28125 h -1.3125 q 0.125,0.25 0.125,0.71875 v 6.3125 q 0,0.46875 -0.125,0.71875 h 1.3125 q -0.14063,-0.21875 -0.14063,-0.46875 v -6.79688 q 0,-0.26562 0.14063,-0.48437 z" />
    <path
       style="fill:#000000;fill-opacity:0;fill-rule:evenodd"
       id="path115"
       d="m 266.2118,98.59733 c 19.72363,0 29.58505,12.26771 39.44723,24.53543 9.86222,12.26771 19.72522,24.53544 39.45041,24.53544" />
    <path
       style="fill-rule:evenodd;stroke:#595959;stroke-width:1;stroke-linecap:butt;stroke-linejoin:round"
       id="path117"
       d="m 266.2118,98.59733 c 19.72363,0 29.58505,12.26771 39.44723,24.53543 4.93113,6.13386 9.86243,12.26772 16.02658,16.86811 3.08213,2.3002 6.47242,4.21703 10.32502,5.55881 1.9263,0.6709 3.9682,1.19803 6.14489,1.55743 0.2721,0.0449 0.5463,0.0872 0.82264,0.12686 l 0.14495,0.02" />
    <path
       style="fill:#595959;fill-rule:evenodd;stroke:#595959;stroke-width:1;stroke-linecap:butt"
       id="path119"
       d="m 339.0118,148.91196 4.63907,-1.34225 -4.41651,-1.95371 z" />
    <path
       style="fill:#000000;fill-opacity:0;fill-rule:evenodd"
       id="path121"
       d="m 266.20844,196.72644 c 19.7244,0 29.58661,-12.26772 39.44882,-24.53543 9.86219,-12.26772 19.7244,-24.53543 39.44879,-24.53543" />
    <path
       style="fill-rule:evenodd;stroke:#595959;stroke-width:1;stroke-linecap:butt;stroke-linejoin:round"
       id="path123"
       d="m 266.2084,196.72644 c 19.72443,0 29.58664,-12.26772 39.44882,-24.53543 4.93112,-6.13387 9.86221,-12.26772 16.02609,-16.8681 3.08194,-2.3002 6.47208,-4.21703 10.3245,-5.55881 1.92621,-0.6709 3.96798,-1.19803 6.14462,-1.55743 0.27207,-0.0449 0.54627,-0.0872 0.8226,-0.12687 l 0.14466,-0.02" />
    <path
       style="fill:#595959;fill-rule:evenodd;stroke:#595959;stroke-width:1;stroke-linecap:butt"
       id="path125"
       d="m 339.23096,149.70781 4.4165,-1.95374 -4.63906,-1.34222 z" />
    <path
       style="fill:#000000;fill-opacity:0;fill-rule:evenodd"
       id="path127"
       d="m 266.2118,98.59733 c 19.08441,0 38.16092,31.99212 38.16879,63.98424 0.008,31.99213 -19.05288,63.98426 -38.1058,63.98426" />
    <path
       style="fill-rule:evenodd;stroke:#595959;stroke-width:1;stroke-linecap:butt;stroke-linejoin:round"
       id="path129"
       d="m 266.2118,98.59733 c 19.08441,0 38.16092,31.99212 38.16879,63.98424 0.004,15.99607 -4.75931,31.99213 -11.90512,43.98917 -3.5729,5.99852 -7.74145,10.9973 -12.20758,14.49643 -2.23309,1.74957 -4.54053,3.12425 -6.88516,4.06151 -0.29306,0.11715 -0.5867,0.22748 -0.88089,0.33084 l -0.3111,0.10554" />
    <path
       style="fill:#595959;fill-rule:evenodd;stroke:#595959;stroke-width:1;stroke-linecap:butt"
       id="path131"
       d="m 271.91525,223.93648 -4.19904,2.38551 4.75003,0.87168 z" />
    <path
       style="fill:#000000;fill-opacity:0;fill-rule:evenodd"
       id="path133"
       d="m 266.2118,196.71281 c 10.12378,0 20.23965,-17.07088 20.24753,-34.14174 0.008,-17.07086 -10.09226,-34.14172 -20.18454,-34.14172" />
    <path
       style="fill-rule:evenodd;stroke:#595959;stroke-width:1;stroke-linecap:butt;stroke-linejoin:round"
       id="path135"
       d="m 266.2118,196.7128 c 10.12378,0 20.23965,-17.07086 20.24753,-34.14172 0.004,-8.53544 -2.51914,-17.07087 -6.30472,-23.47243 -1.89279,-3.20079 -4.1012,-5.86812 -6.46719,-7.73525 -0.29575,-0.23338 -0.59397,-0.45428 -0.89432,-0.66214 -0.15018,-0.10394 -0.3009,-0.2046 -0.45212,-0.30197 -0.0756,-0.0487 -0.15137,-0.0965 -0.2272,-0.14352 l -0.10391,-0.0632" />
    <path
       style="fill:#595959;fill-rule:evenodd;stroke:#595959;stroke-width:1;stroke-linecap:butt"
       id="path137"
       d="m 272.49527,128.61383 -4.82312,0.24515 3.8523,2.91244 z" />
    <path
       style="fill:#000000;fill-opacity:0;fill-rule:evenodd"
       id="path139"
       d="m 345.12717,177.50107 c -19.72363,0 -29.58502,-12.26772 -39.44724,-24.53543 -9.86221,-12.26772 -19.72519,-24.53543 -39.4504,-24.53543" />
    <path
       style="fill-rule:evenodd;stroke:#1c4587;stroke-width:1;stroke-linecap:butt;stroke-linejoin:round"
       id="path141"
       d="m 345.12717,177.50107 c -19.72363,0 -29.58502,-12.26772 -39.44724,-24.53543 -4.93109,-6.13387 -9.86239,-12.26772 -16.02658,-16.86812 -3.08206,-2.30018 -6.47238,-4.21702 -10.32501,-5.55881 -1.9263,-0.67088 -3.96817,-1.19801 -6.14486,-1.55741 -0.27213,-0.0449 -0.54633,-0.0872 -0.82264,-0.12688 l -0.14492,-0.02" />
    <path
       style="fill:#1c4587;fill-rule:evenodd;stroke:#1c4587;stroke-width:1;stroke-linecap:butt"
       id="path143"
       d="m 272.32718,127.18643 -4.63907,1.34225 4.41651,1.95371 z" />
    <path
       style="fill:#000000;fill-opacity:0;fill-rule:evenodd"
       id="path145"
       d="m 345.12717,177.50107 c -19.72363,0 -29.58502,12.26771 -39.44724,24.53543 -9.86221,12.26771 -19.72519,24.53543 -39.4504,24.53543" />
    <path
       style="fill-rule:evenodd;stroke:#1c4587;stroke-width:1;stroke-linecap:butt;stroke-linejoin:round"
       id="path147"
       d="m 345.12717,177.50107 c -19.72363,0 -29.58502,12.26771 -39.44724,24.53543 -4.93109,6.13387 -9.86239,12.26771 -16.02658,16.8681 -3.08206,2.3002 -6.47238,4.21704 -10.32501,5.55883 -1.9263,0.67088 -3.96817,1.19801 -6.14486,1.5574 -0.27213,0.0449 -0.54633,0.0873 -0.82264,0.12689 l -0.14492,0.02" />
    <path
       style="fill:#1c4587;fill-rule:evenodd;stroke:#1c4587;stroke-width:1;stroke-linecap:butt"
       id="path149"
       d="m 272.1046,224.51974 -4.4165,1.9537 4.63906,1.34226 z" />
  </g>
</svg>
