<?xml version="1.0" encoding="UTF-8" standalone="no"?>
<svg
   xmlns:dc="http://purl.org/dc/elements/1.1/"
   xmlns:cc="http://creativecommons.org/ns#"
   xmlns:rdf="http://www.w3.org/1999/02/22-rdf-syntax-ns#"
   xmlns:svg="http://www.w3.org/2000/svg"
   xmlns="http://www.w3.org/2000/svg"
   style="fill:none;stroke:none;stroke-linecap:square;stroke-miterlimit:10"
   height="108.49606"
   width="438.25983"
   id="svg633"
   stroke-miterlimit="10"
   viewBox="0 0 438.25983 108.49606"
   version="1.1">
  <metadata
     id="metadata639">
    <rdf:RDF>
      <cc:Work
         rdf:about="">
        <dc:format>image/svg+xml</dc:format>
        <dc:type
           rdf:resource="http://purl.org/dc/dcmitype/StillImage" />
        <dc:title></dc:title>
      </cc:Work>
    </rdf:RDF>
  </metadata>
  <defs
     id="defs637" />
  <clipPath
     id="g2f80604df9e_0_272.0">
    <path
       style="clip-rule:nonzero"
       id="path2"
       d="M 0,0 H 960 V 540 H 0 Z" />
  </clipPath>
  <g
     transform="translate(-47.37402,-329.82547)"
     id="g631"
     clip-path="url(#g2f80604df9e_0_272.0)">
    <path
       style="fill:#d9d9d9;fill-rule:evenodd"
       id="path249"
       d="m 204.42651,355.67715 h 124.15747 v 76.50394 H 204.42651 Z" />
    <path
       style="fill-rule:evenodd;stroke:#595959;stroke-width:1;stroke-linecap:butt;stroke-linejoin:round"
       id="path251"
       d="m 204.42651,355.67715 h 124.15747 v 76.50394 H 204.42651 Z" />
    <path
       style="fill:#000000;fill-opacity:0;fill-rule:evenodd"
       id="path253"
       d="m 142.43832,359.8091 h 61.98425 v 14.86615 h -61.98425 z" />
    <path
       style="fill:#202122;fill-rule:nonzero"
       id="path255"
       d="m 161.74518,371.67838 q -0.78125,0 -1.51563,-0.29688 -0.71875,-0.3125 -1.3125,-0.89062 -0.57812,-0.59375 -0.92187,-1.45313 -0.34375,-0.875 -0.34375,-2.03125 0,-1.09375 0.34375,-1.95312 0.34375,-0.875 0.92187,-1.46875 0.59375,-0.59375 1.3125,-0.90625 0.73438,-0.3125 1.51563,-0.3125 0.76562,0 1.48437,0.29687 0.73438,0.29688 1.3125,0.89063 0.59375,0.57812 0.9375,1.45312 0.34375,0.85938 0.34375,2 0,1.09375 -0.34375,1.96875 -0.34375,0.85938 -0.92187,1.46875 -0.57813,0.60938 -1.3125,0.92188 -0.73438,0.3125 -1.5,0.3125 z m 0,-0.67188 q 0.6875,0 1.1875,-0.32812 0.5,-0.34375 0.8125,-0.90625 0.3125,-0.57813 0.45312,-1.28125 0.15625,-0.71875 0.15625,-1.48438 0,-0.75 -0.15625,-1.45312 -0.14062,-0.71875 -0.45312,-1.28125 -0.3125,-0.57813 -0.8125,-0.90625 -0.5,-0.34375 -1.1875,-0.34375 -0.6875,0 -1.1875,0.34375 -0.5,0.32812 -0.82813,0.90625 -0.3125,0.5625 -0.46875,1.28125 -0.15625,0.70312 -0.15625,1.45312 0,0.76563 0.15625,1.48438 0.15625,0.70312 0.46875,1.28125 0.32813,0.5625 0.82813,0.90625 0.5,0.32812 1.1875,0.32812 z m 5.17294,3.65625 V 374.194 l 1.0625,-0.1875 q 0.0156,-0.54687 0.0156,-1.09375 0.0156,-0.53125 0.0156,-1.0625 v -3.8125 q 0,-0.54687 -0.0156,-0.90625 0,-0.35937 -0.0312,-0.76562 l -1.04688,-0.10938 v -0.46875 l 1.85938,-0.8125 0.20312,0.125 0.0781,0.875 q 0.95312,-1 2.01562,-1 0.71875,0 1.28125,0.40625 0.57813,0.39063 0.92188,1.14063 0.34375,0.73437 0.34375,1.76562 0,1.03125 -0.35938,1.78125 -0.35937,0.75 -0.98437,1.17188 -0.60938,0.40625 -1.40625,0.40625 -0.45313,0 -0.90625,-0.1875 -0.4375,-0.1875 -0.85938,-0.67188 v 1.04688 q 0,0.53125 0,1.0625 0.0156,0.54687 0.0156,1.09375 L 170.34,374.194 v 0.46875 z m 3.84375,-8.9375 q -0.3125,0 -0.71875,0.15625 -0.39062,0.15625 -0.90625,0.57813 v 3.75 q 0.375,0.35937 0.73438,0.51562 0.35937,0.15625 0.73437,0.15625 0.75,0 1.28125,-0.59375 0.53125,-0.59375 0.53125,-1.89062 0,-1.28125 -0.46875,-1.96875 -0.46875,-0.70313 -1.1875,-0.70313 z m 6.05881,5.92188 q -0.6875,0 -1.10937,-0.375 -0.40625,-0.375 -0.40625,-1.14063 0,-0.25 0,-0.5 0,-0.25 0,-0.64062 v -3.14063 h -1.09375 v -0.57812 l 1.1875,-0.15625 0.34375,-1.78125 h 0.79687 l -0.0781,1.8125 h 1.79687 v 0.70312 h -1.8125 v 4.125 q 0,0.51563 0.20313,0.75 0.20312,0.23438 0.53125,0.23438 0.21875,0 0.42187,-0.0937 0.21875,-0.0937 0.46875,-0.26563 l 0.32813,0.34375 q -0.54688,0.70313 -1.57813,0.70313 z m 2.36287,-4.25 v -0.625 l 5.15625,-3 0.39062,0.71875 -4.625,2.59375 4.625,2.59375 -0.39062,0.71875 z m 10.24908,-4.21875 h -0.8125 q 0,0.84375 -0.0156,1.73437 0,0.89063 0,1.78125 v 0.64063 h 0.875 q 1.21875,0 1.73437,-0.59375 0.51563,-0.59375 0.51563,-1.53125 0,-0.96875 -0.5625,-1.5 -0.54688,-0.53125 -1.73438,-0.53125 z m -3.34375,-0.0781 v -0.54687 h 3.57813 q 1.6875,0 2.53125,0.75 0.85937,0.73437 0.85937,1.90625 0,0.75 -0.375,1.375 -0.375,0.625 -1.20312,1 -0.8125,0.375 -2.1875,0.375 h -0.6875 q 0,0.71875 0,1.42187 0.0156,0.6875 0.0156,1.40625 l 1.25,0.14063 v 0.54687 h -3.78125 v -0.54687 l 1.21875,-0.14063 q 0.0312,-0.84375 0.0312,-1.70312 0,-0.875 0,-1.73438 V 366.694 q 0,-0.875 0,-1.73437 0,-0.85938 -0.0312,-1.70313 z m 13.56899,3.67188 v 0.625 l -5.15625,3 -0.39063,-0.71875 4.625,-2.59375 -4.625,-2.59375 0.39063,-0.71875 z" />
    <path
       style="fill:#000000;fill-opacity:0;fill-rule:evenodd"
       id="path257"
       d="m 153.31866,379.3616 h 51.10551" />
    <path
       style="fill-rule:evenodd;stroke:#595959;stroke-width:2;stroke-linecap:butt;stroke-linejoin:round"
       id="path259"
       d="m 153.31866,379.36163 h 39.10551" />
    <path
       style="fill:#595959;fill-rule:evenodd;stroke:#595959;stroke-width:2;stroke-linecap:butt"
       id="path261"
       d="m 192.42418,382.6651 9.07619,-3.30347 -9.07619,-3.30346 z" />
    <path
       style="fill:#000000;fill-opacity:0;fill-rule:evenodd"
       id="path263"
       d="m 153.31866,373.41083 h 18.39798 v 11.90158 h -18.39798 z" />
    <path
       style="fill:#000000;fill-opacity:0;fill-rule:evenodd"
       id="path265"
       d="m 186.00542,373.41083 h 18.39798 v 11.90158 h -18.39798 z" />
    <path
       style="fill:#000000;fill-opacity:0;fill-rule:evenodd"
       id="path267"
       d="M 204.42346,409.2071 H 153.31794" />
    <path
       style="fill-rule:evenodd;stroke:#1c4587;stroke-width:2;stroke-linecap:butt;stroke-linejoin:round"
       id="path269"
       d="m 204.42345,409.2071 h -39.1055" />
    <path
       style="fill:#1c4587;fill-rule:evenodd;stroke:#1c4587;stroke-width:2;stroke-linecap:butt"
       id="path271"
       d="m 165.31795,405.90363 -9.07619,3.30347 9.07619,3.30346 z" />
    <path
       style="fill:#000000;fill-opacity:0;fill-rule:evenodd"
       id="path273"
       d="m 153.33977,403.25632 h 18.39798 v 11.90158 h -18.39798 z" />
    <path
       style="fill:#000000;fill-opacity:0;fill-rule:evenodd"
       id="path275"
       d="m 186.02618,403.25632 h 18.398 v 11.90158 h -18.398 z" />
    <path
       style="fill:#000000;fill-opacity:0;fill-rule:evenodd"
       id="path277"
       d="m 227.89099,398.22583 v 0 c 0,-3.03256 2.45837,-5.49094 5.49092,-5.49094 h 66.24651 c 1.45627,0 2.8529,0.57853 3.88266,1.60828 1.02975,1.02975 1.60824,2.42639 1.60824,3.88266 v 21.96304 c 0,3.03253 -2.45837,5.49091 -5.4909,5.49091 h -66.24651 c -3.03255,0 -5.49092,-2.45837 -5.49092,-5.49091 z" />
    <path
       style="fill-rule:evenodd;stroke:#595959;stroke-width:1;stroke-linecap:butt;stroke-linejoin:round"
       id="path279"
       d="m 227.89099,398.22583 v 0 c 0,-3.03256 2.45837,-5.49094 5.49092,-5.49094 h 66.24651 c 1.45627,0 2.8529,0.57853 3.88266,1.60828 1.02975,1.02975 1.60824,2.42639 1.60824,3.88266 v 21.96304 c 0,3.03253 -2.45837,5.49091 -5.4909,5.49091 h -66.24651 c -3.03255,0 -5.49092,-2.45837 -5.49092,-5.49091 z" />
    <path
       style="fill:#202122;fill-rule:nonzero"
       id="path281"
       d="m 244.13211,414.28735 v -0.53125 l 1.15625,-0.20313 q 0.0156,-0.57812 0.0156,-1.15625 0.0156,-0.59375 0.0156,-1.1875 v -3.10937 h -1.21875 v -0.64063 l 1.25,-0.15625 q 0.0937,-1.17187 0.3125,-1.89062 0.23437,-0.73438 0.78125,-1.28125 0.46875,-0.46875 0.98437,-0.64063 0.51563,-0.1875 1.01563,-0.1875 0.5,0 0.89062,0.1875 0.40625,0.1875 0.51563,0.60938 -0.0156,0.28125 -0.25,0.46875 -0.23438,0.1875 -0.65625,0.1875 -0.51563,0 -1.04688,-0.4375 l -0.40625,-0.3125 q -0.0625,0.0312 -0.125,0.0781 -0.0469,0.0469 -0.0937,0.0937 -0.375,0.375 -0.57812,1.15625 -0.1875,0.76563 -0.15625,1.98438 h 2.01562 v 0.78125 h -2 v 3.10937 q 0,0.59375 0,1.17188 0.0156,0.57812 0.0312,1.15625 l 1.32813,0.21875 v 0.53125 z" />
    <path
       style="fill:#202122;fill-rule:nonzero"
       id="path283"
       d="m 253.5071,410.9436 q 0,0.96875 0.15625,1.8125 0.17187,0.82812 0.57812,1.6875 0.40625,0.85937 1.10938,1.875 l -0.3125,0.26562 q -1.26563,-1.1875 -1.89063,-2.57812 -0.60937,-1.40625 -0.60937,-3.0625 0,-1.64063 0.60937,-3.03125 0.625,-1.40625 1.89063,-2.59375 l 0.3125,0.26562 q -0.70313,1.01563 -1.10938,1.875 -0.40625,0.85938 -0.57812,1.70313 -0.15625,0.82812 -0.15625,1.78125 z m 4.98927,3.5 q -1.23437,0 -1.96875,-0.79688 -0.73437,-0.8125 -0.73437,-2.1875 0,-0.95312 0.39062,-1.625 0.39063,-0.6875 1.03125,-1.04687 0.64063,-0.35938 1.35938,-0.35938 0.53125,0 0.98437,0.20313 0.46875,0.20312 0.76563,0.5625 0.29687,0.35937 0.375,0.79687 -0.0937,0.45313 -0.5625,0.45313 -0.29688,0 -0.45313,-0.15625 -0.14062,-0.15625 -0.20312,-0.42188 l -0.21875,-0.78125 q -0.17188,-0.0625 -0.32813,-0.0781 -0.15625,-0.0156 -0.3125,-0.0156 -0.76562,0 -1.26562,0.59375 -0.5,0.59375 -0.5,1.75 0,1.125 0.53125,1.73438 0.54687,0.59375 1.39062,0.59375 0.51563,0 0.9375,-0.23438 0.4375,-0.23437 0.71875,-0.67187 l 0.29688,0.15625 q -0.25,0.73437 -0.8125,1.14062 -0.5625,0.39063 -1.42188,0.39063 z m 5.93418,0 q -0.6875,0 -1.32813,-0.32813 -0.625,-0.32812 -1.01562,-1 -0.39063,-0.67187 -0.39063,-1.64062 0,-1 0.39063,-1.67188 0.39062,-0.6875 1.01562,-1.03125 0.64063,-0.34375 1.32813,-0.34375 0.70312,0 1.32812,0.34375 0.64063,0.34375 1.03125,1.03125 0.40625,0.67188 0.40625,1.67188 0,0.96875 -0.40625,1.64062 -0.39062,0.67188 -1.03125,1 -0.625,0.32813 -1.32812,0.32813 z m 0,-0.54688 q 0.78125,0 1.20312,-0.60937 0.42188,-0.625 0.42188,-1.8125 0,-1.21875 -0.42188,-1.84375 -0.42187,-0.64063 -1.20312,-0.64063 -0.76563,0 -1.1875,0.64063 -0.40625,0.625 -0.40625,1.84375 0,1.1875 0.40625,1.8125 0.42187,0.60937 1.1875,0.60937 z m 3.79116,0.39063 v -0.4375 l 0.89063,-0.15625 q 0,-0.46875 0,-0.98438 0.0156,-0.53125 0.0156,-0.9375 v -0.57812 q 0,-0.5 -0.0156,-0.8125 0,-0.32813 -0.0156,-0.6875 l -0.95312,-0.10938 v -0.42187 l 1.6875,-0.73438 0.17187,0.125 0.0937,0.96875 q 0.42188,-0.48437 0.98438,-0.78125 0.5625,-0.3125 1.125,-0.3125 0.5625,0 0.90625,0.26563 0.35937,0.26562 0.51562,0.85937 0.45313,-0.5625 1.01563,-0.84375 0.5625,-0.28125 1.15625,-0.28125 0.73437,0 1.125,0.5 0.40625,0.48438 0.40625,1.60938 v 1.23437 q 0,0.40625 0,0.9375 0.0156,0.51563 0.0312,0.98438 l 0.84375,0.15625 v 0.4375 h -2.78125 v -0.4375 l 0.875,-0.15625 q 0.0156,-0.45313 0.0156,-0.98438 0.0156,-0.53125 0.0156,-0.9375 v -1.04687 q 0,-0.84375 -0.25,-1.125 -0.23438,-0.29688 -0.76563,-0.29688 -0.35937,0 -0.75,0.17188 -0.39062,0.15625 -0.85937,0.57812 0.0156,0.125 0.0156,0.28125 0.0156,0.15625 0.0156,0.3125 v 1.125 q 0,0.40625 0,0.9375 0.0156,0.51563 0.0312,0.98438 l 0.82812,0.15625 v 0.4375 h -2.78125 v -0.4375 l 0.89063,-0.15625 q 0.0156,-0.45313 0.0156,-0.98438 0,-0.53125 0,-0.9375 v -1.03125 q 0,-0.8125 -0.23437,-1.125 -0.21875,-0.3125 -0.73438,-0.3125 -0.42187,0 -0.79687,0.17188 -0.35938,0.15625 -0.8125,0.54687 v 1.75 q 0,0.39063 0,0.92188 0.0156,0.53125 0.0312,1 l 0.82812,0.15625 v 0.4375 z m 10.68708,0 v -0.4375 l 0.90625,-0.15625 q 0,-0.45313 0,-0.98438 0.0156,-0.53125 0.0156,-0.9375 v -5.26562 l -0.98437,-0.125 v -0.42188 l 1.84375,-0.54687 0.15625,0.10937 -0.0469,1.70313 v 2.125 q 0.4375,-0.46875 0.89063,-0.6875 0.46875,-0.23438 0.96875,-0.23438 0.625,0 1.14062,0.35938 0.51563,0.34375 0.82813,1 0.3125,0.65625 0.3125,1.59375 0,0.92187 -0.32813,1.625 -0.32812,0.6875 -0.89062,1.0625 -0.54688,0.375 -1.26563,0.375 -0.42187,0 -0.84375,-0.17188 -0.40625,-0.1875 -0.8125,-0.6875 l -0.0937,0.82813 z m 3.42187,-5.17188 q -0.28125,0 -0.64062,0.14063 -0.35938,0.14062 -0.84375,0.5625 v 3.28125 q 0.35937,0.34375 0.71875,0.5 0.375,0.15625 0.70312,0.15625 0.64063,0 1.10938,-0.54688 0.46875,-0.5625 0.46875,-1.73437 0,-1.14063 -0.42188,-1.75 -0.42187,-0.60938 -1.09375,-0.60938 z m 5.1514,1.82813 q 0,-0.95313 -0.17187,-1.78125 -0.15625,-0.84375 -0.5625,-1.70313 -0.39063,-0.85937 -1.10938,-1.875 l 0.3125,-0.26562 q 1.28125,1.1875 1.89063,2.59375 0.60937,1.39062 0.60937,3.03125 0,1.65625 -0.60937,3.0625 -0.60938,1.39062 -1.89063,2.57812 l -0.3125,-0.26562 q 0.71875,-1.01563 1.10938,-1.875 0.40625,-0.85938 0.5625,-1.6875 0.17187,-0.84375 0.17187,-1.8125 z" />
    <path
       style="fill:#000000;fill-opacity:0;fill-rule:evenodd"
       id="path285"
       d="m 328.589,379.3616 h 51.10553" />
    <path
       style="fill-rule:evenodd;stroke:#595959;stroke-width:2;stroke-linecap:butt;stroke-linejoin:round"
       id="path287"
       d="m 328.589,379.36163 h 39.10553" />
    <path
       style="fill:#595959;fill-rule:evenodd;stroke:#595959;stroke-width:2;stroke-linecap:butt"
       id="path289"
       d="m 367.69452,382.6651 9.0762,-3.30347 -9.0762,-3.30346 z" />
    <path
       style="fill:#000000;fill-opacity:0;fill-rule:evenodd"
       id="path291"
       d="m 328.589,373.41083 h 18.39801 v 11.90158 H 328.589 Z" />
    <path
       style="fill:#000000;fill-opacity:0;fill-rule:evenodd"
       id="path293"
       d="m 361.27576,373.41083 h 18.39798 v 11.90158 h -18.39798 z" />
    <path
       style="fill:#000000;fill-opacity:0;fill-rule:evenodd"
       id="path295"
       d="M 379.69382,409.2071 H 328.58829" />
    <path
       style="fill-rule:evenodd;stroke:#1c4587;stroke-width:2;stroke-linecap:butt;stroke-linejoin:round"
       id="path297"
       d="M 379.69382,409.2071 H 340.58829" />
    <path
       style="fill:#1c4587;fill-rule:evenodd;stroke:#1c4587;stroke-width:2;stroke-linecap:butt"
       id="path299"
       d="m 340.5883,405.90363 -9.0762,3.30347 9.0762,3.30346 z" />
    <path
       style="fill:#000000;fill-opacity:0;fill-rule:evenodd"
       id="path301"
       d="m 328.6101,403.25632 h 18.39798 V 415.1579 H 328.6101 Z" />
    <path
       style="fill:#000000;fill-opacity:0;fill-rule:evenodd"
       id="path303"
       d="m 361.29654,403.25632 h 18.39798 v 11.90158 h -18.39798 z" />
    <path
       style="fill:#000000;fill-opacity:0;fill-rule:evenodd"
       id="path305"
       d="m 204.4034,379.3616 c 31.04663,0 46.56963,0.0157 62.09325,0.0315 15.52362,0.0157 31.04788,0.0315 62.09573,0.0315" />
    <path
       style="fill-rule:evenodd;stroke:#595959;stroke-width:1;stroke-linecap:butt;stroke-linejoin:round"
       id="path307"
       d="m 204.4034,379.36163 c 31.04663,0 46.56963,0.0158 62.09325,0.0315 7.76181,0.008 15.52377,0.0157 25.22625,0.0217 4.85126,0.003 10.18766,0.005 16.25171,0.007 l 14.61777,0.002" />
    <path
       style="fill:#595959;fill-rule:evenodd;stroke:#595959;stroke-width:1;stroke-linecap:butt"
       id="path309"
       d="m 322.59216,381.07556 4.5383,-1.65112 -4.53787,-1.65235 z" />
    <path
       style="fill:#000000;fill-opacity:0;fill-rule:evenodd"
       id="path311"
       d="m 142.43832,388.6272 h 61.98425 v 14.86615 h -61.98425 z" />
    <path
       style="fill:#202122;fill-rule:nonzero"
       id="path313"
       d="m 169.18741,396.59024 q 0,1.0625 0.1875,2 0.1875,0.92187 0.64062,1.875 0.45313,0.95312 1.23438,2.07812 l -0.34375,0.3125 q -1.42188,-1.32812 -2.10938,-2.875 -0.67187,-1.5625 -0.67187,-3.39062 0,-1.82813 0.67187,-3.39063 0.6875,-1.5625 2.10938,-2.875 l 0.34375,0.3125 q -0.78125,1.125 -1.23438,2.07813 -0.45312,0.95312 -0.64062,1.89062 -0.1875,0.92188 -0.1875,1.98438 z" />
    <path
       style="fill:#202122;fill-rule:nonzero"
       id="path315"
       d="m 177.8775,395.60587 q 0.8125,0.21875 1.32812,0.84375 0.53125,0.60937 0.53125,1.45312 0,1.15625 -1.04687,1.78125 -1.03125,0.60938 -2.5625,0.60938 h -3.96875 q -0.23438,0 -0.23438,-0.25 0,-0.25 0.4375,-0.25 0.46875,0 0.625,-0.125 0.17188,-0.14063 0.17188,-0.59375 v -6.3125 q 0,-0.5 -0.20313,-0.60938 -0.20312,-0.10937 -0.79687,-0.10937 -0.23438,0 -0.23438,-0.25 0,-0.25 0.23438,-0.25 h 3.96875 q 3.10937,0 3.10937,2.25 0,1.10937 -1.35937,1.8125 z m 0.89062,-1.8125 q 0,-1.48438 -1.70312,-1.70313 0.54687,0.625 0.54687,1.70313 0,1.21875 -0.6875,1.75 1.84375,-0.875 1.84375,-1.75 z m -1.64062,0 q 0,-0.76563 -0.32813,-1.25 -0.32812,-0.5 -0.92187,-0.5 -0.28125,0 -0.5,0.14062 -0.20313,0.125 -0.20313,0.34375 v 3 q 0.96875,0 1.45313,-0.375 0.5,-0.375 0.5,-1.35937 z m 2.125,4.10937 q 0,-0.8125 -0.51563,-1.25 -0.51562,-0.4375 -1.42187,-0.70312 0.6875,0.53125 0.6875,1.95312 0,1.09375 -0.54688,1.75 1.79688,-0.45312 1.79688,-1.75 z m -4.07813,1.42188 q 0,0.21875 0.20313,0.34375 0.21875,0.125 0.5,0.125 1.64062,0 1.64062,-1.89063 0,-0.98437 -0.375,-1.4375 -0.35937,-0.45312 -1.26562,-0.45312 h -0.70313 z m -0.34375,-7.28125 h -1.3125 q 0.125,0.25 0.125,0.71875 v 6.3125 q 0,0.46875 -0.125,0.71875 h 1.3125 Q 174.69,399.57462 174.69,399.32462 v -6.79688 q 0,-0.26562 0.14062,-0.48437 z" />
    <path
       style="fill:#202122;fill-rule:nonzero"
       id="path317"
       d="m 182.96767,399.90274 q 0,0.79687 -0.39063,1.46875 -0.375,0.6875 -0.96875,1.17187 -0.57812,0.5 -1.21875,0.73438 l -0.1875,-0.45313 q 0.6875,-0.34375 1.20313,-0.84375 0.51562,-0.48437 0.76562,-1.23437 l -0.5,-0.39063 q -0.26562,-0.20312 -0.39062,-0.45312 -0.10938,-0.25 -0.10938,-0.5 0,-0.34375 0.20313,-0.59375 0.20312,-0.25 0.60937,-0.25 0.1875,0 0.375,0.0781 0.20313,0.0781 0.45313,0.3125 0.0781,0.25 0.10937,0.48438 0.0469,0.23437 0.0469,0.46875 z m 8.54137,-7.90625 h -1.15625 q 0,0.875 -0.0156,1.75 0,0.875 0,1.8125 h 1.01563 q 1.09375,0 1.59375,-0.51563 0.51562,-0.51562 0.51562,-1.32812 0,-0.82813 -0.46875,-1.26563 -0.46875,-0.45312 -1.48437,-0.45312 z m -3.6875,-0.0781 v -0.54687 h 3.71875 q 1.53125,0 2.39062,0.625 0.85938,0.60937 0.85938,1.71875 0,0.76562 -0.5625,1.40625 -0.5625,0.64062 -1.6875,0.84375 0.59375,0.10937 0.96875,0.51562 0.375,0.39063 0.60937,1.17188 l 0.57813,1.96875 1.01562,0.125 v 0.54687 q -0.1875,0.0469 -0.4375,0.0937 -0.25,0.0469 -0.5625,0.0469 -0.625,0 -0.9375,-0.1875 -0.3125,-0.1875 -0.42187,-0.67188 l -0.54688,-2.14062 q -0.10937,-0.54688 -0.34375,-0.8125 -0.21875,-0.26563 -0.57812,-0.35938 -0.34375,-0.0937 -0.89063,-0.0937 h -0.65625 q 0,0.95313 0,1.79688 0.0156,0.82812 0.0156,1.64062 l 1.23437,0.14063 v 0.54687 h -3.76562 v -0.54687 l 1.21875,-0.14063 q 0.0312,-0.84375 0.0312,-1.70312 0,-0.875 0,-1.73438 v -0.65625 q 0,-0.875 0,-1.73437 0,-0.85938 -0.0312,-1.70313 z m 10.47345,4.67188 q 0,-1.0625 -0.1875,-1.98438 -0.1875,-0.9375 -0.64063,-1.89062 -0.4375,-0.95313 -1.23437,-2.07813 l 0.35937,-0.3125 q 1.40625,1.3125 2.07813,2.875 0.6875,1.5625 0.6875,3.39063 0,1.82812 -0.6875,3.39062 -0.67188,1.54688 -2.07813,2.875 l -0.35937,-0.3125 q 0.79687,-1.125 1.23437,-2.07812 0.45313,-0.95313 0.64063,-1.875 0.1875,-0.9375 0.1875,-2 z" />
    <path
       style="fill:#000000;fill-opacity:0;fill-rule:evenodd"
       id="path319"
       d="m 328.5853,359.8091 h 61.98425 v 14.86615 H 328.5853 Z" />
    <path
       style="fill:#202122;fill-rule:nonzero"
       id="path321"
       d="m 337.30405,371.67838 q -0.78125,0 -1.51562,-0.29688 -0.71875,-0.3125 -1.3125,-0.89062 -0.57813,-0.59375 -0.92188,-1.45313 -0.34375,-0.875 -0.34375,-2.03125 0,-1.09375 0.34375,-1.95312 0.34375,-0.875 0.92188,-1.46875 0.59375,-0.59375 1.3125,-0.90625 0.73437,-0.3125 1.51562,-0.3125 0.76563,0 1.48438,0.29687 0.73437,0.29688 1.3125,0.89063 0.59375,0.57812 0.9375,1.45312 0.34375,0.85938 0.34375,2 0,1.09375 -0.34375,1.96875 -0.34375,0.85938 -0.92188,1.46875 -0.57812,0.60938 -1.3125,0.92188 -0.73437,0.3125 -1.5,0.3125 z m 0,-0.67188 q 0.6875,0 1.1875,-0.32812 0.5,-0.34375 0.8125,-0.90625 0.3125,-0.57813 0.45313,-1.28125 0.15625,-0.71875 0.15625,-1.48438 0,-0.75 -0.15625,-1.45312 -0.14063,-0.71875 -0.45313,-1.28125 -0.3125,-0.57813 -0.8125,-0.90625 -0.5,-0.34375 -1.1875,-0.34375 -0.6875,0 -1.1875,0.34375 -0.5,0.32812 -0.82812,0.90625 -0.3125,0.5625 -0.46875,1.28125 -0.15625,0.70312 -0.15625,1.45312 0,0.76563 0.15625,1.48438 0.15625,0.70312 0.46875,1.28125 0.32812,0.5625 0.82812,0.90625 0.5,0.32812 1.1875,0.32812 z m 5.17294,3.65625 V 374.194 l 1.0625,-0.1875 q 0.0156,-0.54687 0.0156,-1.09375 0.0156,-0.53125 0.0156,-1.0625 v -3.8125 q 0,-0.54687 -0.0156,-0.90625 0,-0.35937 -0.0312,-0.76562 l -1.04688,-0.10938 v -0.46875 l 1.85938,-0.8125 0.20312,0.125 0.0781,0.875 q 0.95312,-1 2.01562,-1 0.71875,0 1.28125,0.40625 0.57813,0.39063 0.92188,1.14063 0.34375,0.73437 0.34375,1.76562 0,1.03125 -0.35938,1.78125 -0.35937,0.75 -0.98437,1.17188 -0.60938,0.40625 -1.40625,0.40625 -0.45313,0 -0.90625,-0.1875 -0.4375,-0.1875 -0.85938,-0.67188 v 1.04688 q 0,0.53125 0,1.0625 0.0156,0.54687 0.0156,1.09375 l 1.21875,0.20312 v 0.46875 z m 3.84375,-8.9375 q -0.3125,0 -0.71875,0.15625 -0.39062,0.15625 -0.90625,0.57813 v 3.75 q 0.375,0.35937 0.73438,0.51562 0.35937,0.15625 0.73437,0.15625 0.75,0 1.28125,-0.59375 0.53125,-0.59375 0.53125,-1.89062 0,-1.28125 -0.46875,-1.96875 -0.46875,-0.70313 -1.1875,-0.70313 z m 6.05881,5.92188 q -0.6875,0 -1.10937,-0.375 -0.40625,-0.375 -0.40625,-1.14063 0,-0.25 0,-0.5 0,-0.25 0,-0.64062 v -3.14063 h -1.09375 v -0.57812 l 1.1875,-0.15625 0.34375,-1.78125 h 0.79687 l -0.0781,1.8125 h 1.79687 v 0.70312 h -1.8125 v 4.125 q 0,0.51563 0.20313,0.75 0.20312,0.23438 0.53125,0.23438 0.21875,0 0.42187,-0.0937 0.21875,-0.0937 0.46875,-0.26563 l 0.32813,0.34375 q -0.54688,0.70313 -1.57813,0.70313 z m 2.36288,-4.25 v -0.625 l 5.15625,-3 0.39063,0.71875 -4.625,2.59375 4.625,2.59375 -0.39063,0.71875 z m 6.90534,-4.29688 v -0.54687 h 6.625 l 0.0937,2.35937 h -0.75 l -0.29688,-1.6875 h -3.14062 q 0,0.85938 -0.0156,1.71875 0,0.84375 0,1.67188 h 1.95313 l 0.1875,-1.26563 h 0.60937 v 3.14063 H 366.304 l -0.17188,-1.25 h -1.96875 q 0,1 0,1.875 0.0156,0.85937 0.0156,1.6875 h 3.40625 l 0.29687,-1.70313 h 0.75 l -0.0937,2.375 h -6.89062 v -0.54687 l 1.21875,-0.14063 q 0.0312,-0.84375 0.0312,-1.70312 0,-0.875 0,-1.73438 V 366.694 q 0,-0.875 0,-1.73437 0,-0.85938 -0.0312,-1.70313 z m 11.38058,0.0781 h -0.8125 q 0,0.84375 -0.0156,1.73437 0,0.89063 0,1.78125 v 0.64063 h 0.875 q 1.21875,0 1.73437,-0.59375 0.51563,-0.59375 0.51563,-1.53125 0,-0.96875 -0.5625,-1.5 -0.54688,-0.53125 -1.73438,-0.53125 z m -3.34375,-0.0781 v -0.54687 h 3.57813 q 1.6875,0 2.53125,0.75 0.85937,0.73437 0.85937,1.90625 0,0.75 -0.375,1.375 -0.375,0.625 -1.20312,1 -0.8125,0.375 -2.1875,0.375 h -0.6875 q 0,0.71875 0,1.42187 0.0156,0.6875 0.0156,1.40625 l 1.25,0.14063 v 0.54687 h -3.78125 v -0.54687 l 1.21875,-0.14063 q 0.0312,-0.84375 0.0312,-1.70312 0,-0.875 0,-1.73438 V 366.694 q 0,-0.875 0,-1.73437 0,-0.85938 -0.0312,-1.70313 z m 13.56897,3.67188 v 0.625 l -5.15625,3 -0.39062,-0.71875 4.625,-2.59375 -4.625,-2.59375 0.39062,-0.71875 z" />
    <path
       style="fill:#000000;fill-opacity:0;fill-rule:evenodd"
       id="path323"
       d="m 328.5853,388.6272 h 61.98425 v 14.86615 H 328.5853 Z" />
    <path
       style="fill:#202122;fill-rule:nonzero"
       id="path325"
       d="m 334.7103,396.59024 q 0,1.0625 0.1875,2 0.1875,0.92187 0.64063,1.875 0.45312,0.95312 1.23437,2.07812 l -0.34375,0.3125 q -1.42187,-1.32812 -2.10937,-2.875 -0.67188,-1.5625 -0.67188,-3.39062 0,-1.82813 0.67188,-3.39063 0.6875,-1.5625 2.10937,-2.875 l 0.34375,0.3125 q -0.78125,1.125 -1.23437,2.07813 -0.45313,0.95312 -0.64063,1.89062 -0.1875,0.92188 -0.1875,1.98438 z" />
    <path
       style="fill:#202122;fill-rule:nonzero"
       id="path327"
       d="m 343.4004,395.60587 q 0.8125,0.21875 1.32812,0.84375 0.53125,0.60937 0.53125,1.45312 0,1.15625 -1.04687,1.78125 -1.03125,0.60938 -2.5625,0.60938 h -3.96875 q -0.23438,0 -0.23438,-0.25 0,-0.25 0.4375,-0.25 0.46875,0 0.625,-0.125 0.17188,-0.14063 0.17188,-0.59375 v -6.3125 q 0,-0.5 -0.20313,-0.60938 -0.20312,-0.10937 -0.79687,-0.10937 -0.23438,0 -0.23438,-0.25 0,-0.25 0.23438,-0.25 h 3.96875 q 3.10937,0 3.10937,2.25 0,1.10937 -1.35937,1.8125 z m 0.89062,-1.8125 q 0,-1.48438 -1.70312,-1.70313 0.54687,0.625 0.54687,1.70313 0,1.21875 -0.6875,1.75 1.84375,-0.875 1.84375,-1.75 z m -1.64062,0 q 0,-0.76563 -0.32813,-1.25 -0.32812,-0.5 -0.92187,-0.5 -0.28125,0 -0.5,0.14062 -0.20313,0.125 -0.20313,0.34375 v 3 q 0.96875,0 1.45313,-0.375 0.5,-0.375 0.5,-1.35937 z m 2.125,4.10937 q 0,-0.8125 -0.51563,-1.25 -0.51562,-0.4375 -1.42187,-0.70312 0.6875,0.53125 0.6875,1.95312 0,1.09375 -0.54688,1.75 1.79688,-0.45312 1.79688,-1.75 z m -4.07813,1.42188 q 0,0.21875 0.20313,0.34375 0.21875,0.125 0.5,0.125 1.64062,0 1.64062,-1.89063 0,-0.98437 -0.375,-1.4375 -0.35937,-0.45312 -1.26562,-0.45312 h -0.70313 z m -0.34375,-7.28125 h -1.3125 q 0.125,0.25 0.125,0.71875 v 6.3125 q 0,0.46875 -0.125,0.71875 h 1.3125 q -0.14062,-0.21875 -0.14062,-0.46875 v -6.79688 q 0,-0.26562 0.14062,-0.48437 z" />
    <path
       style="fill:#202122;fill-rule:nonzero"
       id="path329"
       d="m 348.49057,399.90274 q 0,0.79687 -0.39063,1.46875 -0.375,0.6875 -0.96875,1.17187 -0.57812,0.5 -1.21875,0.73438 l -0.1875,-0.45313 q 0.6875,-0.34375 1.20313,-0.84375 0.51562,-0.48437 0.76562,-1.23437 l -0.5,-0.39063 q -0.26562,-0.20312 -0.39062,-0.45312 -0.10938,-0.25 -0.10938,-0.5 0,-0.34375 0.20313,-0.59375 0.20312,-0.25 0.60937,-0.25 0.1875,0 0.375,0.0781 0.20313,0.0781 0.45313,0.3125 0.0781,0.25 0.10937,0.48438 0.0469,0.23437 0.0469,0.46875 z m 4.85385,-7.98438 v -0.54687 h 6.625 l 0.0937,2.35937 h -0.75 l -0.29687,-1.6875 h -3.14063 q 0,0.85938 -0.0156,1.71875 0,0.84375 0,1.67188 h 1.95312 l 0.1875,-1.26563 h 0.60938 v 3.14063 h -0.60938 l -0.17187,-1.25 h -1.96875 q 0,1 0,1.875 0.0156,0.85937 0.0156,1.6875 h 3.40625 l 0.29688,-1.70313 h 0.75 l -0.0937,2.375 h -6.89063 v -0.54687 l 1.21875,-0.14063 q 0.0312,-0.84375 0.0312,-1.70312 0,-0.875 0,-1.73438 v -0.65625 q 0,-0.875 0,-1.73437 0,-0.85938 -0.0312,-1.70313 z m 11.72434,0.0781 h -1.15625 q 0,0.875 -0.0156,1.75 0,0.875 0,1.8125 h 1.01563 q 1.09375,0 1.59375,-0.51563 0.51562,-0.51562 0.51562,-1.32812 0,-0.82813 -0.46875,-1.26563 -0.46875,-0.45312 -1.48437,-0.45312 z m -3.6875,-0.0781 v -0.54687 h 3.71875 q 1.53125,0 2.39062,0.625 0.85938,0.60937 0.85938,1.71875 0,0.76562 -0.5625,1.40625 -0.5625,0.64062 -1.6875,0.84375 0.59375,0.10937 0.96875,0.51562 0.375,0.39063 0.60937,1.17188 l 0.57813,1.96875 1.01562,0.125 v 0.54687 q -0.1875,0.0469 -0.4375,0.0937 -0.25,0.0469 -0.5625,0.0469 -0.625,0 -0.9375,-0.1875 -0.3125,-0.1875 -0.42187,-0.67188 l -0.54688,-2.14062 q -0.10937,-0.54688 -0.34375,-0.8125 -0.21875,-0.26563 -0.57812,-0.35938 -0.34375,-0.0937 -0.89063,-0.0937 h -0.65625 q 0,0.95313 0,1.79688 0.0156,0.82812 0.0156,1.64062 l 1.23437,0.14063 v 0.54687 h -3.76562 v -0.54687 l 1.21875,-0.14063 q 0.0312,-0.84375 0.0312,-1.70312 0,-0.875 0,-1.73438 v -0.65625 q 0,-0.875 0,-1.73437 0,-0.85938 -0.0312,-1.70313 z m 10.47345,4.67188 q 0,-1.0625 -0.1875,-1.98438 -0.1875,-0.9375 -0.64063,-1.89062 -0.4375,-0.95313 -1.23437,-2.07813 l 0.35937,-0.3125 q 1.40625,1.3125 2.07813,2.875 0.6875,1.5625 0.6875,3.39063 0,1.82812 -0.6875,3.39062 -0.67188,1.54688 -2.07813,2.875 l -0.35937,-0.3125 q 0.79687,-1.125 1.23437,-2.07812 0.45313,-0.95313 0.64063,-1.875 0.1875,-0.9375 0.1875,-2 z" />
    <path
       style="fill:#000000;fill-opacity:0;fill-rule:evenodd"
       id="path331"
       d="m 204.4252,327.12335 h 124.15747 v 27.87402 H 204.4252 Z" />
    <path
       style="fill:#202122;fill-rule:nonzero"
       id="path333"
       d="m 220.82414,346.34036 v -0.6875 l 0.79687,-0.17188 q 0.0156,-0.53125 0.0156,-1.14062 0,-0.625 0,-1.07813 v -0.84375 q 0,-0.60937 -0.0156,-0.9375 0,-0.32812 -0.0312,-0.76562 l -0.89062,-0.14063 v -0.5625 l 2.89062,-0.98437 0.25,0.15625 0.0937,1.0625 q 0.51563,-0.60938 1.07813,-0.90625 0.5625,-0.3125 1.20312,-0.3125 1.51563,0 1.95313,1.29687 0.60937,-0.71875 1.17187,-1 0.5625,-0.29687 1.1875,-0.29687 1.125,0 1.625,0.64062 0.51563,0.64063 0.51563,1.95313 v 1.64062 q 0,0.46875 0,1.09375 0,0.60938 0.0156,1.14063 l 0.73438,0.15625 v 0.6875 h -3.78125 v -0.6875 l 0.71875,-0.17188 q 0.0156,-0.53125 0.0156,-1.14062 0,-0.60938 0,-1.07813 v -1.42187 q 0,-0.8125 -0.1875,-1.09375 -0.1875,-0.29688 -0.65625,-0.29688 -0.60937,0 -1.21875,0.53125 0.0156,0.125 0.0156,0.26563 0.0156,0.14062 0.0156,0.29687 v 1.71875 q 0,0.48438 0,1.09375 0,0.60938 0,1.15625 l 0.70313,0.14063 v 0.6875 h -3.78125 v -0.6875 l 0.75,-0.17188 q 0.0156,-0.53125 0.0156,-1.14062 0,-0.60938 0,-1.07813 v -1.40625 q 0,-0.78125 -0.1875,-1.09375 -0.17187,-0.3125 -0.65625,-0.3125 -0.3125,0 -0.625,0.15625 -0.29687,0.14063 -0.57812,0.375 v 2.28125 q 0,0.45313 0,1.07813 0,0.625 0.0156,1.17187 l 0.6875,0.14063 v 0.6875 z m 18.86249,0.20312 q -1.26563,0 -1.60938,-1.04687 -0.46875,0.48437 -0.90625,0.78125 -0.42187,0.28125 -1.1875,0.28125 -0.84375,0 -1.39062,-0.48438 -0.53125,-0.48437 -0.53125,-1.39062 0,-0.53125 0.23437,-0.95313 0.23438,-0.42187 0.84375,-0.78125 0.625,-0.375 1.75,-0.70312 0.21875,-0.0625 0.51563,-0.14063 0.29687,-0.0781 0.59375,-0.14062 v -0.48438 q 0,-0.98437 -0.25,-1.32812 -0.23438,-0.35938 -0.9375,-0.35938 -0.0937,0 -0.1875,0 -0.0781,0 -0.20313,0.0156 l -0.0781,0.64062 q -0.0156,0.71875 -0.32813,1.04688 -0.3125,0.3125 -0.73437,0.3125 -0.8125,0 -0.98438,-0.73438 0.0625,-0.90625 0.92188,-1.46875 0.875,-0.57812 2.45312,-0.57812 1.40625,0 2.01563,0.64062 0.60937,0.64063 0.60937,2.125 v 3.28125 q 0,0.4375 0.3125,0.4375 0.125,0 0.21875,-0.0625 0.10938,-0.0781 0.23438,-0.26562 l 0.39062,0.26562 q -0.26562,0.57813 -0.6875,0.84375 -0.42187,0.25 -1.07812,0.25 z m -3.45313,-2.23437 q 0,0.53125 0.25,0.79687 0.26563,0.26563 0.625,0.26563 0.17188,0 0.34375,-0.0625 0.17188,-0.0781 0.54688,-0.34375 v -2.375 q -0.1875,0.0625 -0.375,0.125 -0.17188,0.0625 -0.3125,0.125 -0.5,0.20312 -0.79688,0.57812 -0.28125,0.375 -0.28125,0.89063 z m 5.28604,5.35937 v -0.6875 l 0.82813,-0.17187 q 0.0156,-0.70313 0.0156,-1.29688 0.0156,-0.57812 0.0156,-1.125 v -3.96875 q 0,-0.60937 -0.0156,-0.9375 0,-0.32812 -0.0312,-0.76562 l -0.90625,-0.14063 v -0.5625 l 2.85938,-0.98437 0.25,0.14062 0.0625,0.82813 q 0.92187,-0.96875 2.17187,-0.96875 0.8125,0 1.45313,0.42187 0.64062,0.42188 1.03125,1.26563 0.39062,0.82812 0.39062,2.04687 0,1.17188 -0.4375,2.03125 -0.4375,0.85938 -1.15625,1.3125 -0.70312,0.45313 -1.54687,0.45313 -1.125,0 -1.84375,-0.76563 v 0.57813 q 0,0.54687 0,1.125 0.0156,0.59375 0.0312,1.26562 l 0.9375,0.21875 v 0.6875 z m 4.1875,-9.35937 q -0.28125,0 -0.53125,0.125 -0.23437,0.10937 -0.46875,0.28125 v 4.25 q 0.4375,0.35937 0.95313,0.35937 0.65625,0 1.0625,-0.60937 0.42187,-0.625 0.42187,-1.92188 0,-1.29687 -0.40625,-1.89062 -0.39062,-0.59375 -1.03125,-0.59375 z m 4.10338,7.34375 v -1.3125 h 6.71875 v 1.3125 z m 7.69663,-1.3125 v -0.6875 l 0.8125,-0.15625 q 0.0156,-0.54688 0.0156,-1.15625 0,-0.625 0,-1.07813 v -0.85937 q 0,-0.42188 -0.0156,-0.67188 0,-0.26562 -0.0156,-0.48437 0,-0.23438 -0.0156,-0.53125 l -0.89063,-0.14063 v -0.5625 l 2.89063,-0.98437 0.25,0.15625 0.14062,1.73437 q 0.3125,-0.9375 0.85938,-1.40625 0.5625,-0.48437 1.10937,-0.48437 0.48438,0 0.82813,0.28125 0.35937,0.26562 0.4375,0.79687 -0.0156,0.57813 -0.3125,0.89063 -0.28125,0.3125 -0.71875,0.3125 -0.625,0 -1.14063,-0.6875 l -0.0781,-0.10938 q -0.32813,0.29688 -0.60938,0.76563 -0.26562,0.46875 -0.375,0.98437 v 1 q 0,0.45313 0,1.04688 0,0.57812 0.0156,1.09375 l 1.15625,0.25 v 0.6875 z m 10.2221,-6.54688 q -0.40625,0 -0.75,0.5 -0.34375,0.5 -0.39062,1.85938 h 1.23437 q 0.53125,0 0.71875,-0.20313 0.1875,-0.21875 0.1875,-0.71875 0,-0.73437 -0.29687,-1.07812 -0.29688,-0.35938 -0.70313,-0.35938 z m 0.0312,6.76563 q -1.07812,0 -1.90625,-0.4375 -0.8125,-0.45313 -1.28125,-1.29688 -0.46875,-0.84375 -0.46875,-2.01562 0,-1.23438 0.54688,-2.07813 0.5625,-0.84375 1.42187,-1.26562 0.85938,-0.4375 1.79688,-0.4375 0.96875,0 1.64062,0.40625 0.6875,0.40625 1.03125,1.10937 0.35938,0.70313 0.35938,1.59375 0,0.42188 -0.0781,0.78125 h -4.23437 q 0.0625,1.15625 0.625,1.70313 0.57812,0.54687 1.32812,0.54687 0.60938,0 1.03125,-0.21875 0.42188,-0.23437 0.75,-0.57812 l 0.51563,0.46875 q -0.45313,0.875 -1.23438,1.29687 -0.78125,0.42188 -1.84375,0.42188 z m 6.54218,0 q -1.39063,0 -2.54688,-0.67188 l 0.0469,-1.79687 h 1.17187 l 0.25,1.45312 q 0.26563,0.10938 0.53125,0.15625 0.26563,0.0469 0.5625,0.0469 0.64063,0 0.96875,-0.20313 0.34375,-0.21875 0.34375,-0.65625 0,-0.32812 -0.25,-0.57812 -0.25,-0.25 -0.98437,-0.45313 l -0.79688,-0.23437 q -0.84375,-0.25 -1.3125,-0.8125 -0.45312,-0.5625 -0.45312,-1.375 0,-1.01563 0.78125,-1.70313 0.79687,-0.70312 2.28125,-0.70312 0.64062,0 1.1875,0.15625 0.54687,0.15625 1.125,0.4375 l -0.0937,1.60937 h -1.1875 l -0.28125,-1.26562 q -0.3125,-0.125 -0.8125,-0.125 -0.5,0 -0.79688,0.21875 -0.29687,0.20312 -0.29687,0.60937 0,0.29688 0.23437,0.53125 0.23438,0.21875 1,0.45313 l 0.71875,0.20312 q 1.03125,0.3125 1.48438,0.89063 0.45312,0.5625 0.45312,1.375 0,1.15625 -0.89062,1.79687 -0.875,0.64063 -2.4375,0.64063 z m 7.82489,0 q -1.14063,0 -1.98438,-0.46875 -0.82812,-0.48438 -1.28125,-1.34375 -0.45312,-0.85938 -0.45312,-1.98438 0,-1.125 0.48437,-1.95312 0.5,-0.84375 1.34375,-1.3125 0.85938,-0.46875 1.89063,-0.46875 1.04687,0 1.89062,0.45312 0.84375,0.45313 1.34375,1.29688 0.5,0.84375 0.5,1.98437 0,1.14063 -0.45312,2 -0.45313,0.84375 -1.29688,1.32813 -0.82812,0.46875 -1.98437,0.46875 z m 0,-0.76563 q 0.625,0 0.92187,-0.71875 0.3125,-0.71875 0.3125,-2.26562 0,-1.5625 -0.3125,-2.28125 -0.29687,-0.71875 -0.92187,-0.71875 -0.625,0 -0.9375,0.71875 -0.29688,0.71875 -0.29688,2.28125 0,1.54687 0.29688,2.26562 0.3125,0.71875 0.9375,0.71875 z m 4.47116,0.54688 v -0.6875 l 0.8125,-0.17188 q 0.0156,-0.5625 0.0156,-1.10937 0.0156,-0.5625 0.0156,-1.10938 v -6.14062 l -0.90625,-0.14063 v -0.625 l 3.07813,-0.65625 0.23437,0.14063 -0.0625,2.0625 v 5.35937 q 0,0.5625 0,1.125 0.0156,0.54688 0.0312,1.10938 l 0.79688,0.15625 v 0.6875 z m 9.07172,-6.4375 v -0.64063 h 2.78125 v 0.64063 l -0.85938,0.17187 -2.40625,6.29688 h -1.125 l -2.64062,-6.3125 -0.71875,-0.15625 v -0.64063 h 4.17187 v 0.64063 l -0.92187,0.1875 1.375,3.76562 1.28125,-3.78125 z m 6.51538,-0.10938 q -0.40625,0 -0.75,0.5 -0.34375,0.5 -0.39063,1.85938 h 1.23438 q 0.53125,0 0.71875,-0.20313 0.1875,-0.21875 0.1875,-0.71875 0,-0.73437 -0.29688,-1.07812 -0.29687,-0.35938 -0.70312,-0.35938 z m 0.0312,6.76563 q -1.07813,0 -1.90625,-0.4375 -0.8125,-0.45313 -1.28125,-1.29688 -0.46875,-0.84375 -0.46875,-2.01562 0,-1.23438 0.54687,-2.07813 0.5625,-0.84375 1.42188,-1.26562 0.85937,-0.4375 1.79687,-0.4375 0.96875,0 1.64063,0.40625 0.6875,0.40625 1.03125,1.10937 0.35937,0.70313 0.35937,1.59375 0,0.42188 -0.0781,0.78125 h -4.23438 q 0.0625,1.15625 0.625,1.70313 0.57813,0.54687 1.32813,0.54687 0.60937,0 1.03125,-0.21875 0.42187,-0.23437 0.75,-0.57812 l 0.51562,0.46875 q -0.45312,0.875 -1.23437,1.29687 -0.78125,0.42188 -1.84375,0.42188 z m 3.94842,-0.21875 v -0.6875 l 0.8125,-0.15625 q 0.0156,-0.54688 0.0156,-1.15625 0,-0.625 0,-1.07813 v -0.85937 q 0,-0.42188 -0.0156,-0.67188 0,-0.26562 -0.0156,-0.48437 0,-0.23438 -0.0156,-0.53125 l -0.89062,-0.14063 v -0.5625 l 2.89062,-0.98437 0.25,0.15625 0.14063,1.73437 q 0.3125,-0.9375 0.85937,-1.40625 0.5625,-0.48437 1.10938,-0.48437 0.48437,0 0.82812,0.28125 0.35938,0.26562 0.4375,0.79687 -0.0156,0.57813 -0.3125,0.89063 -0.28125,0.3125 -0.71875,0.3125 -0.625,0 -1.14062,-0.6875 l -0.0781,-0.10938 q -0.32812,0.29688 -0.60937,0.76563 -0.26563,0.46875 -0.375,0.98437 v 1 q 0,0.45313 0,1.04688 0,0.57812 0.0156,1.09375 l 1.15625,0.25 v 0.6875 z" />
    <path
       style="fill:#000000;fill-opacity:0;fill-rule:evenodd"
       id="path335"
       d="m 46.82677,375.38846 h 106.48819 v 23.93701 H 46.82677 Z" />
    <path
       style="fill:#202122;fill-rule:nonzero"
       id="path337"
       d="m 61.145557,384.2932 v -0.78125 h 4.718754 v 0.78125 l -1.09375,0.125 q -0.01563,0.89063 -0.03125,1.79688 0,0.90625 0,1.84375 v 0.51562 q 0,0.90625 0,1.82813 0.01563,0.92187 0.03125,1.82812 l 1.09375,0.10938 v 0.79687 h -4.718754 v -0.79687 l 1.09375,-0.10938 q 0.03125,-0.89062 0.03125,-1.79687 0,-0.92188 0,-1.84375 v -0.53125 q 0,-0.92188 0,-1.82813 0,-0.92187 -0.03125,-1.8125 z m 5.764774,4.65625 v -1.10937 l 6.125,-3.15625 0.625,1.25 -5.03125,2.45312 5.03125,2.46875 -0.625,1.25 z m 13.894913,-4.6875 v -0.75 h 3.171875 v 0.78125 l -1.09375,0.1875 -3.015625,8.6875 h -1.421875 l -3.15625,-8.78125 -0.84375,-0.0937 V 383.512 h 4.71875 v 0.75 l -1.25,0.15625 2,6.03125 2.03125,-6 z m 2.611405,8.875 v -0.6875 l 0.8125,-0.15625 q 0.01563,-0.54687 0.01563,-1.15625 0,-0.625 0,-1.07812 v -0.85938 q 0,-0.42187 -0.01563,-0.67187 0,-0.26563 -0.01563,-0.48438 0,-0.23437 -0.01563,-0.53125 l -0.890625,-0.14062 v -0.5625 l 2.890625,-0.98438 0.25,0.15625 0.140625,1.73438 q 0.3125,-0.9375 0.859375,-1.40625 0.5625,-0.48438 1.109375,-0.48438 0.484375,0 0.828125,0.28125 0.359375,0.26563 0.4375,0.79688 -0.01563,0.57812 -0.3125,0.89062 -0.28125,0.3125 -0.71875,0.3125 -0.625,0 -1.140625,-0.6875 l -0.07813,-0.10937 q -0.328125,0.29687 -0.609375,0.76562 -0.265625,0.46875 -0.375,0.98438 v 1 q 0,0.45312 0,1.04687 0,0.57813 0.01563,1.09375 l 1.15625,0.25 v 0.6875 z m 12.137939,-8.84375 v -0.78125 h 4.640622 v 0.78125 l -1.093747,0.125 q -0.01563,0.89063 -0.03125,1.79688 0,0.90625 0,1.84375 v 0.53125 q 0,0.89062 0,1.8125 0.01563,0.92187 0.03125,1.82812 l 1.093747,0.10938 v 0.79687 h -4.640622 v -0.79687 l 1.03125,-0.0937 q 0.03125,-0.90625 0.03125,-1.8125 0,-0.92188 0,-1.8125 h -3.125 q 0,0.98437 0,1.875 0.01563,0.875 0.03125,1.75 l 1.015625,0.0937 v 0.79687 h -4.609375 v -0.79687 l 1.0625,-0.10938 q 0.03125,-0.89062 0.03125,-1.79687 0,-0.92188 0,-1.84375 v -0.53125 q 0,-0.92188 0,-1.82813 0,-0.90625 -0.03125,-1.8125 l -1.0625,-0.125 v -0.78125 h 4.609375 v 0.78125 l -1.015625,0.10938 q -0.01563,0.89062 -0.03125,1.78125 0,0.875 0,1.57812 h 3.125 q 0,-0.84375 0,-1.6875 0,-0.84375 -0.03125,-1.67187 z m 5.665192,4.65625 v -1.10937 l 6.125,-3.15625 0.625,1.25 -5.03125,2.45312 5.03125,2.46875 -0.625,1.25 z m 11.84804,-4.59375 h -0.32813 q -0.0156,0.90625 -0.0312,1.82813 0,0.92187 0,1.875 v 0.57812 h 0.42188 q 0.96875,0 1.45312,-0.625 0.48438,-0.625 0.48438,-1.60937 0,-1.01563 -0.53125,-1.53125 -0.51563,-0.51563 -1.46875,-0.51563 z m -3.95313,-0.0625 v -0.78125 h 3.98438 q 1.53125,0 2.46875,0.35938 0.9375,0.35937 1.35937,1.01562 0.4375,0.64063 0.4375,1.51563 0,0.84375 -0.40625,1.54687 -0.40625,0.6875 -1.32812,1.10938 -0.92188,0.40625 -2.51563,0.40625 h -0.40625 q 0,0.625 0,1.32812 0.0156,0.6875 0.0312,1.42188 l 1.29688,0.125 v 0.79687 h -4.92188 v -0.79687 l 1.09375,-0.10938 q 0.0312,-0.89062 0.0312,-1.79687 0,-0.92188 0,-1.84375 v -0.53125 q 0,-0.92188 0,-1.82813 0,-0.92187 -0.0312,-1.8125 z m 10.19498,8.01563 q 0,1 -0.46875,1.78125 -0.45313,0.78125 -1.15625,1.28125 -0.6875,0.5 -1.39063,0.71875 l -0.20312,-0.60938 q 0.73437,-0.375 1.20312,-0.89062 0.48438,-0.51563 0.75,-1.09375 l -0.51562,-0.26563 q -0.45313,-0.25 -0.64063,-0.57812 -0.1875,-0.34375 -0.1875,-0.65625 0,-0.54688 0.35938,-0.90625 0.375,-0.375 0.9375,-0.375 0.3125,0 0.5625,0.0937 0.26562,0.0781 0.53125,0.3125 0.14062,0.34375 0.17187,0.60937 0.0469,0.25 0.0469,0.57813 z m 8.68959,-7.95313 h -0.57813 q -0.0156,0.90625 -0.0312,1.8125 0,0.90625 0,1.71875 h 0.5625 q 0.71875,0 1.125,-0.25 0.42187,-0.25 0.59375,-0.65625 0.1875,-0.40625 0.1875,-0.875 0,-1.75 -1.85937,-1.75 z m -4.15625,-0.0625 v -0.78125 h 4.76562 q 1.71875,0 2.65625,0.64063 0.9375,0.64062 0.9375,1.78125 0,0.48437 -0.25,0.96875 -0.25,0.46875 -0.82813,0.82812 -0.5625,0.35938 -1.54687,0.53125 0.82812,0.0937 1.29687,0.40625 0.46875,0.29688 0.70313,0.78125 0.23437,0.46875 0.34375,1.15625 l 0.28125,1.625 1.10937,0.10938 v 0.79687 q -0.35937,0.0781 -0.59375,0.125 -0.23437,0.0469 -0.46875,0.0625 -0.21875,0.0156 -0.54687,0.0156 -0.9375,0 -1.48438,-0.3125 -0.53125,-0.32813 -0.64062,-1.1875 l -0.26563,-1.6875 q -0.10937,-0.73438 -0.42187,-1.07813 -0.3125,-0.35937 -0.96875,-0.35937 h -0.53125 q 0,0.9375 0,1.79687 0.0156,0.85938 0.0312,1.71875 l 1.14062,0.10938 v 0.79687 h -4.71874 v -0.79687 l 1.09375,-0.10938 q 0.0312,-0.89062 0.0312,-1.79687 0,-0.92188 0,-1.84375 v -0.53125 q 0,-0.92188 0,-1.82813 0,-0.92187 -0.0312,-1.8125 z m 16.94775,3.54688 v 1.10937 l -6.125,3.15625 -0.64063,-1.25 5.03125,-2.46875 -5.03125,-2.45312 0.64063,-1.25 z m 7.97303,0 v 1.10937 l -6.125,3.15625 -0.64062,-1.25 5.03125,-2.46875 -5.03125,-2.45312 0.64062,-1.25 z" />
    <path
       style="fill:#000000;fill-opacity:0;fill-rule:evenodd"
       id="path339"
       d="m 379.69028,375.38846 h 131.55905 v 23.93701 H 379.69028 Z" />
    <path
       style="fill:#202122;fill-rule:nonzero"
       id="path341"
       d="m 384.17465,384.2932 v -0.78125 h 4.71875 v 0.78125 l -1.09375,0.125 q -0.0156,0.89063 -0.0312,1.79688 0,0.90625 0,1.84375 v 0.51562 q 0,0.90625 0,1.82813 0.0156,0.92187 0.0312,1.82812 l 1.09375,0.10938 v 0.79687 h -4.71875 v -0.79687 l 1.09375,-0.10938 q 0.0312,-0.89062 0.0312,-1.79687 0,-0.92188 0,-1.84375 v -0.53125 q 0,-0.92188 0,-1.82813 0,-0.92187 -0.0312,-1.8125 z m 5.76477,4.65625 v -1.10937 l 6.125,-3.15625 0.625,1.25 -5.03125,2.45312 5.03125,2.46875 -0.625,1.25 z m 13.89493,-4.6875 v -0.75 h 3.17187 v 0.78125 l -1.09375,0.1875 -3.01562,8.6875 h -1.42188 l -3.15625,-8.78125 -0.84375,-0.0937 V 383.512 h 4.71875 v 0.75 l -1.25,0.15625 2,6.03125 2.03125,-6 z m 2.61139,8.875 v -0.6875 l 0.8125,-0.15625 q 0.0156,-0.54687 0.0156,-1.15625 0,-0.625 0,-1.07812 v -0.85938 q 0,-0.42187 -0.0156,-0.67187 0,-0.26563 -0.0156,-0.48438 0,-0.23437 -0.0156,-0.53125 l -0.89063,-0.14062 v -0.5625 l 2.89063,-0.98438 0.25,0.15625 0.14062,1.73438 q 0.3125,-0.9375 0.85938,-1.40625 0.5625,-0.48438 1.10937,-0.48438 0.48438,0 0.82813,0.28125 0.35937,0.26563 0.4375,0.79688 -0.0156,0.57812 -0.3125,0.89062 -0.28125,0.3125 -0.71875,0.3125 -0.625,0 -1.14063,-0.6875 l -0.0781,-0.10937 q -0.32813,0.29687 -0.60938,0.76562 -0.26562,0.46875 -0.375,0.98438 v 1 q 0,0.45312 0,1.04687 0,0.57813 0.0156,1.09375 l 1.15625,0.25 v 0.6875 z m 12.13794,-8.84375 v -0.78125 h 4.64062 v 0.78125 l -1.09375,0.125 q -0.0156,0.89063 -0.0312,1.79688 0,0.90625 0,1.84375 v 0.53125 q 0,0.89062 0,1.8125 0.0156,0.92187 0.0312,1.82812 l 1.09375,0.10938 v 0.79687 h -4.64062 v -0.79687 l 1.03125,-0.0937 q 0.0312,-0.90625 0.0312,-1.8125 0,-0.92188 0,-1.8125 h -3.125 q 0,0.98437 0,1.875 0.0156,0.875 0.0312,1.75 l 1.01562,0.0937 v 0.79687 h -4.60937 v -0.79687 l 1.0625,-0.10938 q 0.0312,-0.89062 0.0312,-1.79687 0,-0.92188 0,-1.84375 v -0.53125 q 0,-0.92188 0,-1.82813 0,-0.90625 -0.0312,-1.8125 l -1.0625,-0.125 v -0.78125 h 4.60937 v 0.78125 l -1.01562,0.10938 q -0.0156,0.89062 -0.0312,1.78125 0,0.875 0,1.57812 h 3.125 q 0,-0.84375 0,-1.6875 0,-0.84375 -0.0312,-1.67187 z m 5.66519,4.65625 v -1.10937 l 6.125,-3.15625 0.625,1.25 -5.03125,2.45312 5.03125,2.46875 -0.625,1.25 z m 11.84805,-4.59375 h -0.32812 q -0.0156,0.90625 -0.0312,1.82813 0,0.92187 0,1.875 v 0.57812 h 0.42187 q 0.96875,0 1.45313,-0.625 0.48437,-0.625 0.48437,-1.60937 0,-1.01563 -0.53125,-1.53125 -0.51562,-0.51563 -1.46875,-0.51563 z m -3.95312,-0.0625 v -0.78125 h 3.98437 q 1.53125,0 2.46875,0.35938 0.9375,0.35937 1.35938,1.01562 0.4375,0.64063 0.4375,1.51563 0,0.84375 -0.40625,1.54687 -0.40625,0.6875 -1.32813,1.10938 -0.92187,0.40625 -2.51562,0.40625 h -0.40625 q 0,0.625 0,1.32812 0.0156,0.6875 0.0312,1.42188 l 1.29687,0.125 v 0.79687 h -4.92187 v -0.79687 l 1.09375,-0.10938 q 0.0312,-0.89062 0.0312,-1.79687 0,-0.92188 0,-1.84375 v -0.53125 q 0,-0.92188 0,-1.82813 0,-0.92187 -0.0312,-1.8125 z m 10.19497,8.01563 q 0,1 -0.46875,1.78125 -0.45312,0.78125 -1.15625,1.28125 -0.6875,0.5 -1.39062,0.71875 l -0.20313,-0.60938 q 0.73438,-0.375 1.20313,-0.89062 0.48437,-0.51563 0.75,-1.09375 l -0.51563,-0.26563 q -0.45312,-0.25 -0.64062,-0.57812 -0.1875,-0.34375 -0.1875,-0.65625 0,-0.54688 0.35937,-0.90625 0.375,-0.375 0.9375,-0.375 0.3125,0 0.5625,0.0937 0.26563,0.0781 0.53125,0.3125 0.14063,0.34375 0.17188,0.60937 0.0469,0.25 0.0469,0.57813 z m 4.53333,-8.01563 v -0.78125 h 7.46875 l 0.10937,2.51563 h -1.21875 l -0.29687,-1.70313 h -2.4375 q -0.0156,0.84375 -0.0312,1.70313 0,0.84375 0,1.70312 h 1.57812 l 0.17188,-1.14062 h 0.85937 v 3.14062 h -0.85937 l -0.17188,-1.14062 h -1.57812 q 0,1.01562 0,1.92187 0.0156,0.90625 0.0312,1.79688 h 2.73437 l 0.29688,-1.6875 h 1.21875 l -0.10938,2.51562 h -7.76562 v -0.79687 l 1.09375,-0.10938 q 0.0312,-0.89062 0.0312,-1.79687 0,-0.92188 0,-1.84375 v -0.53125 q 0,-0.92188 0,-1.82813 0,-0.92187 -0.0312,-1.8125 z m 12.87677,0.0625 h -0.57813 q -0.0156,0.90625 -0.0312,1.8125 0,0.90625 0,1.71875 h 0.5625 q 0.71875,0 1.125,-0.25 0.42188,-0.25 0.59375,-0.65625 0.1875,-0.40625 0.1875,-0.875 0,-1.75 -1.85937,-1.75 z m -4.15625,-0.0625 v -0.78125 h 4.76562 q 1.71875,0 2.65625,0.64063 0.9375,0.64062 0.9375,1.78125 0,0.48437 -0.25,0.96875 -0.25,0.46875 -0.82812,0.82812 -0.5625,0.35938 -1.54688,0.53125 0.82813,0.0937 1.29688,0.40625 0.46875,0.29688 0.70312,0.78125 0.23438,0.46875 0.34375,1.15625 l 0.28125,1.625 1.10938,0.10938 v 0.79687 q -0.35938,0.0781 -0.59375,0.125 -0.23438,0.0469 -0.46875,0.0625 -0.21875,0.0156 -0.54688,0.0156 -0.9375,0 -1.48437,-0.3125 -0.53125,-0.32813 -0.64063,-1.1875 l -0.26562,-1.6875 q -0.10938,-0.73438 -0.42188,-1.07813 -0.3125,-0.35937 -0.96875,-0.35937 h -0.53125 q 0,0.9375 0,1.79687 0.0156,0.85938 0.0312,1.71875 l 1.14063,0.10938 v 0.79687 h -4.71875 v -0.79687 l 1.09375,-0.10938 q 0.0312,-0.89062 0.0312,-1.79687 0,-0.92188 0,-1.84375 v -0.53125 q 0,-0.92188 0,-1.82813 0,-0.92187 -0.0312,-1.8125 z m 16.94775,3.54688 v 1.10937 l -6.125,3.15625 -0.64062,-1.25 5.03125,-2.46875 -5.03125,-2.45312 0.64062,-1.25 z m 7.97302,0 v 1.10937 l -6.125,3.15625 -0.64062,-1.25 5.03125,-2.46875 -5.03125,-2.45312 0.64062,-1.25 z" />
    <path
       style="fill:#000000;fill-opacity:0;fill-rule:evenodd"
       id="path343"
       d="m 328.6101,409.2071 c -5.87271,0 -8.80844,0.0157 -11.74545,0.0315 -2.93701,0.0158 -5.87531,0.0315 -11.75061,0.0315" />
    <path
       style="fill-rule:evenodd;stroke:#1c4587;stroke-width:1;stroke-linecap:butt;stroke-linejoin:round"
       id="path345"
       d="m 328.6101,409.2071 c -5.87271,0 -8.80844,0.0157 -11.74545,0.0315 -1.46851,0.008 -2.93732,0.0158 -4.77344,0.0217 l -0.97717,0.002" />
    <path
       style="fill:#1c4587;fill-rule:evenodd;stroke:#1c4587;stroke-width:1;stroke-linecap:butt"
       id="path347"
       d="m 311.11197,407.61078 -4.53601,1.65747 4.54016,1.646 z" />
    <path
       style="fill:#000000;fill-opacity:0;fill-rule:evenodd"
       id="path349"
       d="m 227.89099,409.20734 c -5.86673,0 -8.80038,0.0158 -11.73346,0.0315 -2.93307,0.0158 -5.86555,0.0315 -11.73111,0.0315" />
    <path
       style="fill-rule:evenodd;stroke:#1c4587;stroke-width:1;stroke-linecap:butt;stroke-linejoin:round"
       id="path351"
       d="m 227.89099,409.20734 c -5.86673,0 -8.8004,0.0158 -11.73348,0.0315 -1.46653,0.008 -2.93292,0.0158 -4.76586,0.0217 l -0.96523,0.002" />
    <path
       style="fill:#1c4587;fill-rule:evenodd;stroke:#1c4587;stroke-width:1;stroke-linecap:butt"
       id="path353"
       d="m 210.42433,407.61102 -4.53601,1.65747 4.54019,1.64597 z" />
  </g>
</svg>
