<?xml version="1.0" encoding="UTF-8" standalone="no"?>
<svg
   xmlns:dc="http://purl.org/dc/elements/1.1/"
   xmlns:cc="http://creativecommons.org/ns#"
   xmlns:rdf="http://www.w3.org/1999/02/22-rdf-syntax-ns#"
   xmlns:svg="http://www.w3.org/2000/svg"
   xmlns="http://www.w3.org/2000/svg"
   style="fill:none;stroke:none;stroke-linecap:square;stroke-miterlimit:10"
   height="188.56693"
   width="437.25983"
   id="svg633"
   stroke-miterlimit="10"
   viewBox="0 0 437.25983 188.56693"
   version="1.1">
  <metadata
     id="metadata639">
    <rdf:RDF>
      <cc:Work
         rdf:about="">
        <dc:format>image/svg+xml</dc:format>
        <dc:type
           rdf:resource="http://purl.org/dc/dcmitype/StillImage" />
        <dc:title></dc:title>
      </cc:Work>
    </rdf:RDF>
  </metadata>
  <defs
     id="defs637" />
  <clipPath
     id="g2f80604df9e_0_272.0">
    <path
       style="clip-rule:nonzero"
       id="path2"
       d="M 0,0 H 960 V 540 H 0 Z" />
  </clipPath>
  <g
     transform="translate(-514.54333,-52.929134)"
     id="g631"
     clip-path="url(#g2f80604df9e_0_272.0)">
    <path
       style="fill:#000000;fill-opacity:0;fill-rule:evenodd"
       id="path359"
       d="M 671.0945,49.727036 H 795.25197 V 77.601052 H 671.0945 Z" />
    <path
       style="fill:#202122;fill-rule:nonzero"
       id="path361"
       d="m 716.85486,68.944046 v -0.6875 l 0.8125,-0.171875 q 0.0156,-0.5625 0.0156,-1.109375 0.0156,-0.5625 0.0156,-1.109375 v -6.140629 l -0.90625,-0.140625 v -0.625 l 3.07813,-0.65625 0.23437,0.140625 -0.0625,2.0625 v 5.359379 q 0,0.5625 0,1.125 0.0156,0.546875 0.0312,1.109375 l 0.79688,0.15625 v 0.6875 z m 4.79651,0 v -0.6875 l 0.8125,-0.15625 q 0.0156,-0.5625 0.0156,-1.109375 0.0156,-0.5625 0.0156,-1.125 v -3.000004 h -0.95313 v -0.875 l 0.96875,-0.109375 q 0.125,-1 0.39063,-1.609375 0.28125,-0.609375 0.75,-1.09375 0.53125,-0.53125 1.21875,-0.765625 0.6875,-0.25 1.3125,-0.25 0.60937,0 1.10937,0.234375 0.5,0.21875 0.65625,0.796875 -0.0156,0.40625 -0.29687,0.703125 -0.26563,0.28125 -0.76563,0.28125 -0.35937,0 -0.6875,-0.25 -0.32812,-0.25 -0.625,-0.796875 l -0.125,-0.171875 q -0.39062,0.40625 -0.54687,1.078125 -0.14063,0.671875 -0.10938,1.828125 h 1.5625 v 1 h -1.53125 v 3.000004 q 0,0.546875 0,1.078125 0,0.53125 0.0156,1.078125 l 1.125,0.234375 v 0.6875 z m 8.84741,0.21875 q -1.14062,0 -1.98437,-0.46875 -0.82813,-0.484375 -1.28125,-1.34375 -0.45313,-0.859375 -0.45313,-1.984375 0,-1.125 0.48438,-1.953129 0.5,-0.84375 1.34375,-1.3125 0.85937,-0.46875 1.89062,-0.46875 1.04688,0 1.89063,0.453125 0.84375,0.453125 1.34375,1.296875 0.5,0.843754 0.5,1.984379 0,1.140625 -0.45313,2 -0.45312,0.84375 -1.29687,1.328125 -0.82813,0.46875 -1.98438,0.46875 z m 0,-0.765625 q 0.625,0 0.92188,-0.71875 0.3125,-0.71875 0.3125,-2.265625 0,-1.562504 -0.3125,-2.281254 -0.29688,-0.71875 -0.92188,-0.71875 -0.625,0 -0.9375,0.71875 -0.29687,0.71875 -0.29687,2.281254 0,1.546875 0.29687,2.265625 0.3125,0.71875 0.9375,0.71875 z m 4.53076,0.546875 v -0.6875 l 0.8125,-0.15625 q 0.0156,-0.546875 0.0156,-1.15625 0,-0.625 0,-1.078125 v -0.859375 q 0,-0.421875 -0.0156,-0.671875 0,-0.265625 -0.0156,-0.484379 0,-0.234375 -0.0156,-0.53125 l -0.89062,-0.140625 v -0.5625 l 2.89062,-0.984375 0.25,0.15625 0.14063,1.734375 q 0.3125,-0.9375 0.85937,-1.40625 0.5625,-0.484375 1.10938,-0.484375 0.48437,0 0.82812,0.28125 0.35938,0.265625 0.4375,0.796875 -0.0156,0.578125 -0.3125,0.890625 -0.28125,0.3125 -0.71875,0.3125 -0.625,0 -1.14062,-0.6875 l -0.0781,-0.109375 q -0.32812,0.296875 -0.60937,0.765625 -0.26563,0.468754 -0.375,0.984379 v 1 q 0,0.453125 0,1.046875 0,0.578125 0.0156,1.09375 l 1.15625,0.25 v 0.6875 z m 6.44757,0 v -0.6875 l 0.82813,-0.171875 q 0.0156,-0.546875 0.0156,-1.15625 0,-0.625 0,-1.0625 v -6.140629 l -0.90625,-0.140625 v -0.625 l 3.07813,-0.65625 0.23437,0.140625 -0.0625,2.0625 v 4.500004 l 2.375,-2.328129 -1.10937,-0.171875 v -0.640625 h 3.53125 v 0.640625 l -1.32813,0.1875 -1.28125,1.21875 2.0625,4.125004 0.9375,0.21875 v 0.6875 h -2.98437 l -1.65625,-3.5 -0.54688,0.515625 q 0,0.484375 0,1.0625 0.0156,0.578125 0.0156,1.078125 l 0.79687,0.15625 v 0.6875 z" />
    <path
       style="fill:#000000;fill-opacity:0;fill-rule:evenodd"
       id="path363"
       d="m 569.7664,135.68279 h 61.98425 V 159.6198 H 569.7664 Z" />
    <path
       style="fill:#202122;fill-rule:nonzero"
       id="path365"
       d="m 593.7843,144.55629 v -0.75 h 3.17188 v 0.78125 l -1.09375,0.1875 -3.01563,8.6875 h -1.42187 l -3.15625,-8.78125 -0.84375,-0.0937 v -0.78125 h 4.71875 v 0.75 l -1.25,0.15625 2,6.03125 2.03125,-6 z m 2.61139,8.875 v -0.6875 l 0.8125,-0.15625 q 0.0156,-0.54688 0.0156,-1.15625 0,-0.625 0,-1.07813 v -0.85937 q 0,-0.42188 -0.0156,-0.67188 0,-0.26562 -0.0156,-0.48437 0,-0.23438 -0.0156,-0.53125 l -0.89063,-0.14063 v -0.5625 l 2.89063,-0.98437 0.25,0.15625 0.14062,1.73437 q 0.3125,-0.9375 0.85938,-1.40625 0.5625,-0.48437 1.10937,-0.48437 0.48438,0 0.82813,0.28125 0.35937,0.26562 0.4375,0.79687 -0.0156,0.57813 -0.3125,0.89063 -0.28125,0.3125 -0.71875,0.3125 -0.625,0 -1.14063,-0.6875 l -0.0781,-0.10938 q -0.32813,0.29688 -0.60938,0.76563 -0.26562,0.46875 -0.375,0.98437 v 1 q 0,0.45313 0,1.04688 0,0.57812 0.0156,1.09375 l 1.15625,0.25 v 0.6875 z m 6.98706,-4.1875 v -1.10938 l 6.125,-3.15625 0.625,1.25 -5.03125,2.45313 5.03125,2.46875 -0.625,1.25 z m 11.84808,-4.59375 h -0.32812 q -0.0156,0.90625 -0.0312,1.82812 0,0.92188 0,1.875 v 0.57813 h 0.42187 q 0.96875,0 1.45313,-0.625 0.48437,-0.625 0.48437,-1.60938 0,-1.01562 -0.53125,-1.53125 -0.51562,-0.51562 -1.46875,-0.51562 z m -3.95312,-0.0625 v -0.78125 h 3.98437 q 1.53125,0 2.46875,0.35937 0.9375,0.35938 1.35938,1.01563 0.4375,0.64062 0.4375,1.51562 0,0.84375 -0.40625,1.54688 -0.40625,0.6875 -1.32813,1.10937 -0.92187,0.40625 -2.51562,0.40625 h -0.40625 q 0,0.625 0,1.32813 0.0156,0.6875 0.0312,1.42187 l 1.29687,0.125 v 0.79688 h -4.92187 v -0.79688 l 1.09375,-0.10937 q 0.0312,-0.89063 0.0312,-1.79688 0,-0.92187 0,-1.84375 v -0.53125 q 0,-0.92187 0,-1.82812 0,-0.92188 -0.0312,-1.8125 z m 15.92181,3.54687 v 1.10938 l -6.125,3.15625 -0.64062,-1.25 5.03125,-2.46875 -5.03125,-2.45313 0.64062,-1.25 z" />
    <path
       style="fill:#000000;fill-opacity:0;fill-rule:evenodd"
       id="path367"
       d="m 834.5932,86.62416 h 70.70862 v 23.937 H 834.5932 Z" />
    <path
       style="fill:#202122;fill-rule:nonzero"
       id="path369"
       d="m 845.0776,95.497665 v -0.75 h 3.17187 v 0.78125 l -1.09375,0.1875 -3.01562,8.687495 h -1.42188 l -3.15625,-8.781245 -0.84375,-0.09375 v -0.78125 h 4.71875 v 0.75 l -1.25,0.15625 2,6.031245 2.03125,-5.999995 z m 2.61139,8.874995 v -0.6875 l 0.8125,-0.15625 q 0.0156,-0.54687 0.0156,-1.15625 0,-0.625 0,-1.07812 v -0.85938 q 0,-0.42187 -0.0156,-0.67187 0,-0.265625 -0.0156,-0.484375 0,-0.234375 -0.0156,-0.53125 l -0.89063,-0.140625 v -0.5625 l 2.89063,-0.984375 0.25,0.15625 0.14062,1.734375 q 0.3125,-0.9375 0.85938,-1.40625 0.5625,-0.484375 1.10937,-0.484375 0.48438,0 0.82813,0.28125 0.35937,0.265625 0.4375,0.796875 -0.0156,0.578125 -0.3125,0.890625 -0.28125,0.3125 -0.71875,0.3125 -0.625,0 -1.14063,-0.6875 l -0.0781,-0.109375 q -0.32813,0.296875 -0.60938,0.765625 -0.26562,0.46875 -0.375,0.984375 v 1 q 0,0.45312 0,1.04687 0,0.57813 0.0156,1.09375 l 1.15625,0.25 v 0.6875 z m 6.98706,-4.1875 v -1.10937 l 6.125,-3.15625 0.625,1.25 -5.03125,2.453125 5.03125,2.468745 -0.625,1.25 z m 11.84802,-4.593745 h -0.32812 q -0.0156,0.90625 -0.0312,1.828125 0,0.921875 0,1.875 v 0.578125 h 0.42187 q 0.96875,0 1.45313,-0.625 0.48437,-0.625 0.48437,-1.609375 0,-1.015625 -0.53125,-1.53125 -0.51562,-0.515625 -1.46875,-0.515625 z m -3.95312,-0.0625 v -0.78125 h 3.98437 q 1.53125,0 2.46875,0.359375 0.9375,0.359375 1.35938,1.015625 0.4375,0.640625 0.4375,1.515625 0,0.84375 -0.40625,1.546875 -0.40625,0.6875 -1.32813,1.109375 -0.92187,0.40625 -2.51562,0.40625 h -0.40625 q 0,0.625 0,1.32812 0.0156,0.6875 0.0312,1.42188 l 1.29687,0.125 v 0.79687 h -4.92187 v -0.79687 l 1.09375,-0.10938 q 0.0312,-0.89062 0.0312,-1.79687 0,-0.92188 0,-1.84375 v -0.53125 q 0,-0.921875 0,-1.828125 0,-0.921875 -0.0312,-1.8125 z m 15.92181,3.546875 v 1.10937 l -6.125,3.15625 -0.64062,-1.25 5.03125,-2.468745 -5.03125,-2.453125 0.64062,-1.25 z" />
    <path
       style="fill:#d9d9d9;fill-rule:evenodd"
       id="path371"
       d="M 772.6037,74.61155 693.73755,96.553689 V 215.00012 l 78.86615,21.94214 z" />
    <path
       style="fill-rule:evenodd;stroke:#595959;stroke-width:1;stroke-linecap:butt;stroke-linejoin:round"
       id="path373"
       d="M 772.6037,74.61155 693.73755,96.553689 V 215.00012 l 78.86615,21.94214 z" />
    <path
       style="fill:#000000;fill-opacity:0;fill-rule:evenodd"
       id="path375"
       d="m 834.5932,184.73964 h 70.70862 v 23.93701 H 834.5932 Z" />
    <path
       style="fill:#202122;fill-rule:nonzero"
       id="path377"
       d="m 845.0776,193.61314 v -0.75 h 3.17187 v 0.78125 l -1.09375,0.1875 -3.01562,8.6875 h -1.42188 l -3.15625,-8.78125 -0.84375,-0.0937 v -0.78125 h 4.71875 v 0.75 l -1.25,0.15625 2,6.03125 2.03125,-6 z m 2.61139,8.875 v -0.6875 l 0.8125,-0.15625 q 0.0156,-0.54688 0.0156,-1.15625 0,-0.625 0,-1.07813 v -0.85937 q 0,-0.42188 -0.0156,-0.67188 0,-0.26562 -0.0156,-0.48437 0,-0.23438 -0.0156,-0.53125 l -0.89063,-0.14063 v -0.5625 l 2.89063,-0.98437 0.25,0.15625 0.14062,1.73437 q 0.3125,-0.9375 0.85938,-1.40625 0.5625,-0.48437 1.10937,-0.48437 0.48438,0 0.82813,0.28125 0.35937,0.26562 0.4375,0.79687 -0.0156,0.57813 -0.3125,0.89063 -0.28125,0.3125 -0.71875,0.3125 -0.625,0 -1.14063,-0.6875 l -0.0781,-0.10938 q -0.32813,0.29688 -0.60938,0.76563 -0.26562,0.46875 -0.375,0.98437 v 1 q 0,0.45313 0,1.04688 0,0.57812 0.0156,1.09375 l 1.15625,0.25 v 0.6875 z m 6.98706,-4.1875 v -1.10938 l 6.125,-3.15625 0.625,1.25 -5.03125,2.45313 5.03125,2.46875 -0.625,1.25 z m 11.84802,-4.59375 h -0.32812 q -0.0156,0.90625 -0.0312,1.82812 0,0.92188 0,1.875 v 0.57813 h 0.42187 q 0.96875,0 1.45313,-0.625 0.48437,-0.625 0.48437,-1.60938 0,-1.01562 -0.53125,-1.53125 -0.51562,-0.51562 -1.46875,-0.51562 z m -3.95312,-0.0625 v -0.78125 h 3.98437 q 1.53125,0 2.46875,0.35937 0.9375,0.35938 1.35938,1.01563 0.4375,0.64062 0.4375,1.51562 0,0.84375 -0.40625,1.54688 -0.40625,0.6875 -1.32813,1.10937 -0.92187,0.40625 -2.51562,0.40625 h -0.40625 q 0,0.625 0,1.32813 0.0156,0.6875 0.0312,1.42187 l 1.29687,0.125 v 0.79688 h -4.92187 v -0.79688 l 1.09375,-0.10937 q 0.0312,-0.89063 0.0312,-1.79688 0,-0.92187 0,-1.84375 v -0.53125 q 0,-0.92187 0,-1.82812 0,-0.92188 -0.0312,-1.8125 z m 15.92181,3.54687 v 1.10938 l -6.125,3.15625 -0.64062,-1.25 5.03125,-2.46875 -5.03125,-2.45313 0.64062,-1.25 z" />
    <path
       style="fill:#000000;fill-opacity:0;fill-rule:evenodd"
       id="path379"
       d="m 631.7507,128.10307 h 61.98425 V 142.9692 H 631.7507 Z" />
    <path
       style="fill:#202122;fill-rule:nonzero"
       id="path381"
       d="m 651.0575,139.97234 q -0.78125,0 -1.51563,-0.29688 -0.71875,-0.3125 -1.3125,-0.89062 -0.57812,-0.59375 -0.92187,-1.45313 -0.34375,-0.875 -0.34375,-2.03125 0,-1.09375 0.34375,-1.95312 0.34375,-0.875 0.92187,-1.46875 0.59375,-0.59375 1.3125,-0.90625 0.73438,-0.3125 1.51563,-0.3125 0.76562,0 1.48437,0.29687 0.73438,0.29688 1.3125,0.89063 0.59375,0.57812 0.9375,1.45312 0.34375,0.85938 0.34375,2 0,1.09375 -0.34375,1.96875 -0.34375,0.85938 -0.92187,1.46875 -0.57813,0.60938 -1.3125,0.92188 -0.73438,0.3125 -1.5,0.3125 z m 0,-0.67188 q 0.6875,0 1.1875,-0.32812 0.5,-0.34375 0.8125,-0.90625 0.3125,-0.57813 0.45312,-1.28125 0.15625,-0.71875 0.15625,-1.48438 0,-0.75 -0.15625,-1.45312 -0.14062,-0.71875 -0.45312,-1.28125 -0.3125,-0.57813 -0.8125,-0.90625 -0.5,-0.34375 -1.1875,-0.34375 -0.6875,0 -1.1875,0.34375 -0.5,0.32812 -0.82813,0.90625 -0.3125,0.5625 -0.46875,1.28125 -0.15625,0.70312 -0.15625,1.45312 0,0.76563 0.15625,1.48438 0.15625,0.70312 0.46875,1.28125 0.32813,0.5625 0.82813,0.90625 0.5,0.32812 1.1875,0.32812 z m 5.17297,3.65625 v -0.46875 l 1.0625,-0.1875 q 0.0156,-0.54687 0.0156,-1.09375 0.0156,-0.53125 0.0156,-1.0625 v -3.8125 q 0,-0.54687 -0.0156,-0.90625 0,-0.35937 -0.0312,-0.76562 l -1.04688,-0.10938 v -0.46875 l 1.85938,-0.8125 0.20312,0.125 0.0781,0.875 q 0.95312,-1 2.01562,-1 0.71875,0 1.28125,0.40625 0.57813,0.39063 0.92188,1.14063 0.34375,0.73437 0.34375,1.76562 0,1.03125 -0.35938,1.78125 -0.35937,0.75 -0.98437,1.17188 -0.60938,0.40625 -1.40625,0.40625 -0.45313,0 -0.90625,-0.1875 -0.4375,-0.1875 -0.85938,-0.67188 v 1.04688 q 0,0.53125 0,1.0625 0.0156,0.54687 0.0156,1.09375 l 1.21875,0.20312 v 0.46875 z m 3.84375,-8.9375 q -0.3125,0 -0.71875,0.15625 -0.39062,0.15625 -0.90625,0.57813 v 3.75 q 0.375,0.35937 0.73438,0.51562 0.35937,0.15625 0.73437,0.15625 0.75,0 1.28125,-0.59375 0.53125,-0.59375 0.53125,-1.89062 0,-1.28125 -0.46875,-1.96875 -0.46875,-0.70313 -1.1875,-0.70313 z m 6.05878,5.92188 q -0.6875,0 -1.10937,-0.375 -0.40625,-0.375 -0.40625,-1.14063 0,-0.25 0,-0.5 0,-0.25 0,-0.64062 v -3.14063 h -1.09375 v -0.57812 l 1.1875,-0.15625 0.34375,-1.78125 h 0.79687 l -0.0781,1.8125 h 1.79687 v 0.70312 h -1.8125 v 4.125 q 0,0.51563 0.20313,0.75 0.20312,0.23438 0.53125,0.23438 0.21875,0 0.42187,-0.0937 0.21875,-0.0937 0.46875,-0.26563 l 0.32813,0.34375 q -0.54688,0.70313 -1.57813,0.70313 z m 2.36292,-4.25 v -0.625 l 5.15625,-3 0.39062,0.71875 -4.625,2.59375 4.625,2.59375 -0.39062,0.71875 z m 10.24908,-4.21875 h -0.8125 q 0,0.84375 -0.0156,1.73437 0,0.89063 0,1.78125 v 0.64063 h 0.875 q 1.21875,0 1.73438,-0.59375 0.51562,-0.59375 0.51562,-1.53125 0,-0.96875 -0.5625,-1.5 -0.54687,-0.53125 -1.73437,-0.53125 z m -3.34375,-0.0781 v -0.54687 h 3.57812 q 1.6875,0 2.53125,0.75 0.85938,0.73437 0.85938,1.90625 0,0.75 -0.375,1.375 -0.375,0.625 -1.20313,1 -0.8125,0.375 -2.1875,0.375 h -0.6875 q 0,0.71875 0,1.42187 0.0156,0.6875 0.0156,1.40625 l 1.25,0.14063 v 0.54687 h -3.78125 v -0.54687 l 1.21875,-0.14063 q 0.0312,-0.84375 0.0312,-1.70312 0,-0.875 0,-1.73438 v -0.65625 q 0,-0.875 0,-1.73437 0,-0.85938 -0.0312,-1.70313 z m 13.56897,3.67188 v 0.625 l -5.15625,3 -0.39063,-0.71875 4.625,-2.59375 -4.625,-2.59375 0.39063,-0.71875 z" />
    <path
       style="fill:#000000;fill-opacity:0;fill-rule:evenodd"
       id="path383"
       d="m 642.631,147.65558 h 51.10553" />
    <path
       style="fill-rule:evenodd;stroke:#595959;stroke-width:2;stroke-linecap:butt;stroke-linejoin:round"
       id="path385"
       d="m 642.631,147.65558 h 39.10559" />
    <path
       style="fill:#595959;fill-rule:evenodd;stroke:#595959;stroke-width:2;stroke-linecap:butt"
       id="path387"
       d="m 681.7366,150.95905 9.07617,-3.30347 -9.07617,-3.30346 z" />
    <path
       style="fill:#000000;fill-opacity:0;fill-rule:evenodd"
       id="path389"
       d="m 642.631,141.70477 h 18.39801 v 11.90161 H 642.631 Z" />
    <path
       style="fill:#000000;fill-opacity:0;fill-rule:evenodd"
       id="path391"
       d="m 675.31775,141.70477 h 18.39801 v 11.90161 h -18.39801 z" />
    <path
       style="fill:#000000;fill-opacity:0;fill-rule:evenodd"
       id="path393"
       d="M 693.7358,177.50107 H 642.63033" />
    <path
       style="fill-rule:evenodd;stroke:#1c4587;stroke-width:2;stroke-linecap:butt;stroke-linejoin:round"
       id="path395"
       d="M 693.73584,177.50107 H 654.63031" />
    <path
       style="fill:#1c4587;fill-rule:evenodd;stroke:#1c4587;stroke-width:2;stroke-linecap:butt"
       id="path397"
       d="m 654.6303,174.1976 -9.07623,3.30347 9.07623,3.30346 z" />
    <path
       style="fill:#000000;fill-opacity:0;fill-rule:evenodd"
       id="path399"
       d="m 642.6521,171.55026 h 18.39801 v 11.90161 H 642.6521 Z" />
    <path
       style="fill:#000000;fill-opacity:0;fill-rule:evenodd"
       id="path401"
       d="m 675.3385,171.55026 h 18.39801 v 11.90161 H 675.3385 Z" />
    <path
       style="fill:#000000;fill-opacity:0;fill-rule:evenodd"
       id="path403"
       d="m 772.60736,98.59733 h 51.10553" />
    <path
       style="fill-rule:evenodd;stroke:#595959;stroke-width:2;stroke-linecap:butt;stroke-linejoin:round"
       id="path405"
       d="m 772.60736,98.59733 h 39.10559" />
    <path
       style="fill:#595959;fill-rule:evenodd;stroke:#595959;stroke-width:2;stroke-linecap:butt"
       id="path407"
       d="m 811.71295,101.9008 9.07617,-3.303472 -9.07617,-3.303467 z" />
    <path
       style="fill:#000000;fill-opacity:0;fill-rule:evenodd"
       id="path409"
       d="m 772.60736,92.64652 h 18.39801 v 11.9016 h -18.39801 z" />
    <path
       style="fill:#000000;fill-opacity:0;fill-rule:evenodd"
       id="path411"
       d="m 805.2941,92.64652 h 18.39801 v 11.9016 H 805.2941 Z" />
    <path
       style="fill:#000000;fill-opacity:0;fill-rule:evenodd"
       id="path413"
       d="M 823.71216,128.44281 H 772.60669" />
    <path
       style="fill-rule:evenodd;stroke:#1c4587;stroke-width:2;stroke-linecap:butt;stroke-linejoin:round"
       id="path415"
       d="M 823.71216,128.44281 H 784.60663" />
    <path
       style="fill:#1c4587;fill-rule:evenodd;stroke:#1c4587;stroke-width:2;stroke-linecap:butt"
       id="path417"
       d="m 784.6066,125.13934 -9.07617,3.30347 9.07617,3.30346 z" />
    <path
       style="fill:#000000;fill-opacity:0;fill-rule:evenodd"
       id="path419"
       d="m 772.6285,122.49201 h 18.39801 v 11.9016 H 772.6285 Z" />
    <path
       style="fill:#000000;fill-opacity:0;fill-rule:evenodd"
       id="path421"
       d="m 805.3149,122.49201 h 18.39801 v 11.9016 H 805.3149 Z" />
    <path
       style="fill:#000000;fill-opacity:0;fill-rule:evenodd"
       id="path423"
       d="m 631.7507,156.92117 h 61.98425 V 171.7873 H 631.7507 Z" />
    <path
       style="fill:#202122;fill-rule:nonzero"
       id="path425"
       d="m 687.4885,163.89981 q 0.8125,0.21875 1.32813,0.84375 0.53125,0.60937 0.53125,1.45312 0,1.15625 -1.04688,1.78125 -1.03125,0.60938 -2.5625,0.60938 h -3.96875 q -0.23437,0 -0.23437,-0.25 0,-0.25 0.4375,-0.25 0.46875,0 0.625,-0.125 0.17187,-0.14063 0.17187,-0.59375 v -6.3125 q 0,-0.5 -0.20312,-0.60938 -0.20313,-0.10937 -0.79688,-0.10937 -0.23437,0 -0.23437,-0.25 0,-0.25 0.23437,-0.25 h 3.96875 q 3.10938,0 3.10938,2.25 0,1.10937 -1.35938,1.8125 z m 0.89063,-1.8125 q 0,-1.48438 -1.70313,-1.70313 0.54688,0.625 0.54688,1.70313 0,1.21875 -0.6875,1.75 1.84375,-0.875 1.84375,-1.75 z m -1.64063,0 q 0,-0.76563 -0.32812,-1.25 -0.32813,-0.5 -0.92188,-0.5 -0.28125,0 -0.5,0.14062 -0.20312,0.125 -0.20312,0.34375 v 3 q 0.96875,0 1.45312,-0.375 0.5,-0.375 0.5,-1.35937 z m 2.125,4.10937 q 0,-0.8125 -0.51562,-1.25 -0.51563,-0.4375 -1.42188,-0.70312 0.6875,0.53125 0.6875,1.95312 0,1.09375 -0.54687,1.75 1.79687,-0.45312 1.79687,-1.75 z m -4.07812,1.42188 q 0,0.21875 0.20312,0.34375 0.21875,0.125 0.5,0.125 1.64063,0 1.64063,-1.89063 0,-0.98437 -0.375,-1.4375 -0.35938,-0.45312 -1.26563,-0.45312 h -0.70312 z m -0.34375,-7.28125 h -1.3125 q 0.125,0.25 0.125,0.71875 v 6.3125 q 0,0.46875 -0.125,0.71875 h 1.3125 q -0.14063,-0.21875 -0.14063,-0.46875 v -6.79688 q 0,-0.26562 0.14063,-0.48437 z" />
    <path
       style="fill:#000000;fill-opacity:0;fill-rule:evenodd"
       id="path427"
       d="m 772.6037,79.044815 h 61.98425 V 93.910957 H 772.6037 Z" />
    <path
       style="fill:#202122;fill-rule:nonzero"
       id="path429"
       d="m 781.32245,90.91408 q -0.78125,0 -1.51563,-0.296875 -0.71875,-0.3125 -1.3125,-0.890625 -0.57812,-0.59375 -0.92187,-1.453125 -0.34375,-0.875 -0.34375,-2.03125 0,-1.09375 0.34375,-1.953125 0.34375,-0.875 0.92187,-1.46875 0.59375,-0.59375 1.3125,-0.90625 0.73438,-0.3125 1.51563,-0.3125 0.76562,0 1.48437,0.296875 0.73438,0.296875 1.3125,0.890625 0.59375,0.578125 0.9375,1.453125 0.34375,0.859375 0.34375,2 0,1.09375 -0.34375,1.96875 -0.34375,0.859375 -0.92187,1.46875 -0.57813,0.609375 -1.3125,0.921875 -0.73438,0.3125 -1.5,0.3125 z m 0,-0.671875 q 0.6875,0 1.1875,-0.328125 0.5,-0.34375 0.8125,-0.90625 0.3125,-0.578125 0.45312,-1.28125 0.15625,-0.71875 0.15625,-1.484375 0,-0.75 -0.15625,-1.453125 -0.14062,-0.71875 -0.45312,-1.28125 -0.3125,-0.578125 -0.8125,-0.90625 -0.5,-0.34375 -1.1875,-0.34375 -0.6875,0 -1.1875,0.34375 -0.5,0.328125 -0.82813,0.90625 -0.3125,0.5625 -0.46875,1.28125 -0.15625,0.703125 -0.15625,1.453125 0,0.765625 0.15625,1.484375 0.15625,0.703125 0.46875,1.28125 0.32813,0.5625 0.82813,0.90625 0.5,0.328125 1.1875,0.328125 z m 5.17291,3.65625 v -0.46875 l 1.0625,-0.1875 q 0.0156,-0.546875 0.0156,-1.09375 0.0156,-0.53125 0.0156,-1.0625 v -3.8125 q 0,-0.546875 -0.0156,-0.90625 0,-0.359375 -0.0312,-0.765625 l -1.04688,-0.109375 v -0.46875 l 1.85938,-0.8125 0.20312,0.125 0.0781,0.875 q 0.95312,-1 2.01562,-1 0.71875,0 1.28125,0.40625 0.57813,0.390625 0.92188,1.140625 0.34375,0.734375 0.34375,1.765625 0,1.03125 -0.35938,1.78125 -0.35937,0.75 -0.98437,1.171875 -0.60938,0.40625 -1.40625,0.40625 -0.45313,0 -0.90625,-0.1875 -0.4375,-0.1875 -0.85938,-0.671875 v 1.046875 q 0,0.53125 0,1.0625 0.0156,0.546875 0.0156,1.09375 l 1.21875,0.203125 v 0.46875 z m 3.84375,-8.9375 q -0.3125,0 -0.71875,0.15625 -0.39062,0.15625 -0.90625,0.578125 v 3.75 q 0.375,0.359375 0.73438,0.515625 0.35937,0.15625 0.73437,0.15625 0.75,0 1.28125,-0.59375 0.53125,-0.59375 0.53125,-1.890625 0,-1.28125 -0.46875,-1.96875 -0.46875,-0.703125 -1.1875,-0.703125 z m 6.05884,5.921875 q -0.6875,0 -1.10937,-0.375 -0.40625,-0.375 -0.40625,-1.140625 0,-0.25 0,-0.5 0,-0.25 0,-0.640625 v -3.140625 h -1.09375 V 84.50783 l 1.1875,-0.15625 0.34375,-1.78125 h 0.79687 l -0.0781,1.8125 h 1.79687 v 0.703125 h -1.8125 v 4.125 q 0,0.515625 0.20313,0.75 0.20312,0.234375 0.53125,0.234375 0.21875,0 0.42187,-0.09375 0.21875,-0.09375 0.46875,-0.265625 l 0.32813,0.34375 q -0.54688,0.703125 -1.57813,0.703125 z m 2.36285,-4.25 v -0.625 l 5.15625,-3 0.39063,0.71875 -4.625,2.59375 4.625,2.59375 -0.39063,0.71875 z m 10.24909,-4.21875 h -0.8125 q 0,0.84375 -0.0156,1.734375 0,0.890625 0,1.78125 v 0.640625 h 0.875 q 1.21875,0 1.73438,-0.59375 0.51562,-0.59375 0.51562,-1.53125 0,-0.96875 -0.5625,-1.5 -0.54687,-0.53125 -1.73437,-0.53125 z m -3.34375,-0.07813 v -0.54687 h 3.57812 q 1.6875,0 2.53125,0.75 0.85938,0.734375 0.85938,1.90625 0,0.75 -0.375,1.375 -0.375,0.625 -1.20313,1 -0.8125,0.375 -2.1875,0.375 h -0.6875 q 0,0.71875 0,1.421875 0.0156,0.6875 0.0156,1.40625 l 1.25,0.140625 v 0.546875 h -3.78125 V 90.16408 l 1.21875,-0.140625 q 0.0312,-0.84375 0.0312,-1.703125 0,-0.875 0,-1.734375 v -0.65625 q 0,-0.875 0,-1.734375 0,-0.859375 -0.0312,-1.703125 z m 13.56897,3.671875 v 0.625 l -5.15625,3 -0.39063,-0.71875 4.625,-2.59375 -4.625,-2.59375 0.39063,-0.71875 z" />
    <path
       style="fill:#000000;fill-opacity:0;fill-rule:evenodd"
       id="path431"
       d="m 772.6037,107.86292 h 61.98425 v 14.86614 H 772.6037 Z" />
    <path
       style="fill:#202122;fill-rule:nonzero"
       id="path433"
       d="m 782.9006,114.84156 q 0.8125,0.21875 1.32813,0.84375 0.53125,0.60938 0.53125,1.45313 0,1.15625 -1.04688,1.78125 -1.03125,0.60937 -2.5625,0.60937 h -3.96875 q -0.23437,0 -0.23437,-0.25 0,-0.25 0.4375,-0.25 0.46875,0 0.625,-0.125 0.17187,-0.14062 0.17187,-0.59375 v -6.3125 q 0,-0.5 -0.20312,-0.60937 -0.20313,-0.10938 -0.79688,-0.10938 -0.23437,0 -0.23437,-0.25 0,-0.25 0.23437,-0.25 h 3.96875 q 3.10938,0 3.10938,2.25 0,1.10938 -1.35938,1.8125 z m 0.89063,-1.8125 q 0,-1.48437 -1.70313,-1.70312 0.54688,0.625 0.54688,1.70312 0,1.21875 -0.6875,1.75 1.84375,-0.875 1.84375,-1.75 z m -1.64063,0 q 0,-0.76562 -0.32812,-1.25 -0.32813,-0.5 -0.92188,-0.5 -0.28125,0 -0.5,0.14063 -0.20312,0.125 -0.20312,0.34375 v 3 q 0.96875,0 1.45312,-0.375 0.5,-0.375 0.5,-1.35938 z m 2.125,4.10938 q 0,-0.8125 -0.51562,-1.25 -0.51563,-0.4375 -1.42188,-0.70313 0.6875,0.53125 0.6875,1.95313 0,1.09375 -0.54687,1.75 1.79687,-0.45313 1.79687,-1.75 z m -4.07812,1.42187 q 0,0.21875 0.20312,0.34375 0.21875,0.125 0.5,0.125 1.64063,0 1.64063,-1.89062 0,-0.98438 -0.375,-1.4375 -0.35938,-0.45313 -1.26563,-0.45313 h -0.70312 z m -0.34375,-7.28125 h -1.3125 q 0.125,0.25 0.125,0.71875 v 6.3125 q 0,0.46875 -0.125,0.71875 h 1.3125 q -0.14063,-0.21875 -0.14063,-0.46875 v -6.79687 q 0,-0.26563 0.14063,-0.48438 z" />
    <path
       style="fill:#000000;fill-opacity:0;fill-rule:evenodd"
       id="path435"
       d="m 772.60736,196.71281 h 51.10553" />
    <path
       style="fill-rule:evenodd;stroke:#595959;stroke-width:2;stroke-linecap:butt;stroke-linejoin:round"
       id="path437"
       d="m 772.60736,196.7128 h 39.10559" />
    <path
       style="fill:#595959;fill-rule:evenodd;stroke:#595959;stroke-width:2;stroke-linecap:butt"
       id="path439"
       d="m 811.71295,200.01627 9.07617,-3.30347 -9.07617,-3.30346 z" />
    <path
       style="fill:#000000;fill-opacity:0;fill-rule:evenodd"
       id="path441"
       d="m 772.60736,190.76201 h 18.39801 v 11.9016 h -18.39801 z" />
    <path
       style="fill:#000000;fill-opacity:0;fill-rule:evenodd"
       id="path443"
       d="m 805.2941,190.76201 h 18.39801 v 11.9016 H 805.2941 Z" />
    <path
       style="fill:#000000;fill-opacity:0;fill-rule:evenodd"
       id="path445"
       d="M 823.71216,226.5583 H 772.60669" />
    <path
       style="fill-rule:evenodd;stroke:#1c4587;stroke-width:2;stroke-linecap:butt;stroke-linejoin:round"
       id="path447"
       d="M 823.71216,226.5583 H 784.60663" />
    <path
       style="fill:#1c4587;fill-rule:evenodd;stroke:#1c4587;stroke-width:2;stroke-linecap:butt"
       id="path449"
       d="m 784.6066,223.25484 -9.07617,3.30347 9.07617,3.30345 z" />
    <path
       style="fill:#000000;fill-opacity:0;fill-rule:evenodd"
       id="path451"
       d="m 772.6285,220.6075 h 18.39801 v 11.9016 H 772.6285 Z" />
    <path
       style="fill:#000000;fill-opacity:0;fill-rule:evenodd"
       id="path453"
       d="m 805.3149,220.6075 h 18.39801 v 11.9016 H 805.3149 Z" />
    <path
       style="fill:#000000;fill-opacity:0;fill-rule:evenodd"
       id="path455"
       d="m 772.6037,177.1603 h 61.98425 v 14.86615 H 772.6037 Z" />
    <path
       style="fill:#202122;fill-rule:nonzero"
       id="path457"
       d="m 781.32245,189.02957 q -0.78125,0 -1.51563,-0.29688 -0.71875,-0.3125 -1.3125,-0.89062 -0.57812,-0.59375 -0.92187,-1.45313 -0.34375,-0.875 -0.34375,-2.03125 0,-1.09375 0.34375,-1.95312 0.34375,-0.875 0.92187,-1.46875 0.59375,-0.59375 1.3125,-0.90625 0.73438,-0.3125 1.51563,-0.3125 0.76562,0 1.48437,0.29687 0.73438,0.29688 1.3125,0.89063 0.59375,0.57812 0.9375,1.45312 0.34375,0.85938 0.34375,2 0,1.09375 -0.34375,1.96875 -0.34375,0.85938 -0.92187,1.46875 -0.57813,0.60938 -1.3125,0.92188 -0.73438,0.3125 -1.5,0.3125 z m 0,-0.67188 q 0.6875,0 1.1875,-0.32812 0.5,-0.34375 0.8125,-0.90625 0.3125,-0.57813 0.45312,-1.28125 0.15625,-0.71875 0.15625,-1.48438 0,-0.75 -0.15625,-1.45312 -0.14062,-0.71875 -0.45312,-1.28125 -0.3125,-0.57813 -0.8125,-0.90625 -0.5,-0.34375 -1.1875,-0.34375 -0.6875,0 -1.1875,0.34375 -0.5,0.32812 -0.82813,0.90625 -0.3125,0.5625 -0.46875,1.28125 -0.15625,0.70312 -0.15625,1.45312 0,0.76563 0.15625,1.48438 0.15625,0.70312 0.46875,1.28125 0.32813,0.5625 0.82813,0.90625 0.5,0.32812 1.1875,0.32812 z m 5.17291,3.65625 v -0.46875 l 1.0625,-0.1875 q 0.0156,-0.54687 0.0156,-1.09375 0.0156,-0.53125 0.0156,-1.0625 v -3.8125 q 0,-0.54687 -0.0156,-0.90625 0,-0.35937 -0.0312,-0.76562 l -1.04688,-0.10938 v -0.46875 l 1.85938,-0.8125 0.20312,0.125 0.0781,0.875 q 0.95312,-1 2.01562,-1 0.71875,0 1.28125,0.40625 0.57813,0.39063 0.92188,1.14063 0.34375,0.73437 0.34375,1.76562 0,1.03125 -0.35938,1.78125 -0.35937,0.75 -0.98437,1.17188 -0.60938,0.40625 -1.40625,0.40625 -0.45313,0 -0.90625,-0.1875 -0.4375,-0.1875 -0.85938,-0.67188 v 1.04688 q 0,0.53125 0,1.0625 0.0156,0.54687 0.0156,1.09375 l 1.21875,0.20312 v 0.46875 z m 3.84375,-8.9375 q -0.3125,0 -0.71875,0.15625 -0.39062,0.15625 -0.90625,0.57813 v 3.75 q 0.375,0.35937 0.73438,0.51562 0.35937,0.15625 0.73437,0.15625 0.75,0 1.28125,-0.59375 0.53125,-0.59375 0.53125,-1.89062 0,-1.28125 -0.46875,-1.96875 -0.46875,-0.70313 -1.1875,-0.70313 z m 6.05884,5.92188 q -0.6875,0 -1.10937,-0.375 -0.40625,-0.375 -0.40625,-1.14063 0,-0.25 0,-0.5 0,-0.25 0,-0.64062 v -3.14063 h -1.09375 v -0.57812 l 1.1875,-0.15625 0.34375,-1.78125 h 0.79687 l -0.0781,1.8125 h 1.79687 v 0.70312 h -1.8125 v 4.125 q 0,0.51563 0.20313,0.75 0.20312,0.23438 0.53125,0.23438 0.21875,0 0.42187,-0.0937 0.21875,-0.0937 0.46875,-0.26563 l 0.32813,0.34375 q -0.54688,0.70313 -1.57813,0.70313 z m 2.36285,-4.25 v -0.625 l 5.15625,-3 0.39063,0.71875 -4.625,2.59375 4.625,2.59375 -0.39063,0.71875 z m 10.24909,-4.21875 h -0.8125 q 0,0.84375 -0.0156,1.73437 0,0.89063 0,1.78125 v 0.64063 h 0.875 q 1.21875,0 1.73438,-0.59375 0.51562,-0.59375 0.51562,-1.53125 0,-0.96875 -0.5625,-1.5 -0.54687,-0.53125 -1.73437,-0.53125 z m -3.34375,-0.0781 v -0.54687 h 3.57812 q 1.6875,0 2.53125,0.75 0.85938,0.73437 0.85938,1.90625 0,0.75 -0.375,1.375 -0.375,0.625 -1.20313,1 -0.8125,0.375 -2.1875,0.375 h -0.6875 q 0,0.71875 0,1.42187 0.0156,0.6875 0.0156,1.40625 l 1.25,0.14063 v 0.54687 h -3.78125 v -0.54687 l 1.21875,-0.14063 q 0.0312,-0.84375 0.0312,-1.70312 0,-0.875 0,-1.73438 v -0.65625 q 0,-0.875 0,-1.73437 0,-0.85938 -0.0312,-1.70313 z m 13.56897,3.67188 v 0.625 l -5.15625,3 -0.39063,-0.71875 4.625,-2.59375 -4.625,-2.59375 0.39063,-0.71875 z" />
    <path
       style="fill:#000000;fill-opacity:0;fill-rule:evenodd"
       id="path459"
       d="m 772.6037,205.97841 h 61.98425 v 14.86613 H 772.6037 Z" />
    <path
       style="fill:#202122;fill-rule:nonzero"
       id="path461"
       d="m 782.9006,212.95705 q 0.8125,0.21875 1.32813,0.84375 0.53125,0.60937 0.53125,1.45312 0,1.15625 -1.04688,1.78125 -1.03125,0.60938 -2.5625,0.60938 h -3.96875 q -0.23437,0 -0.23437,-0.25 0,-0.25 0.4375,-0.25 0.46875,0 0.625,-0.125 0.17187,-0.14063 0.17187,-0.59375 v -6.3125 q 0,-0.5 -0.20312,-0.60938 -0.20313,-0.10937 -0.79688,-0.10937 -0.23437,0 -0.23437,-0.25 0,-0.25 0.23437,-0.25 h 3.96875 q 3.10938,0 3.10938,2.25 0,1.10937 -1.35938,1.8125 z m 0.89063,-1.8125 q 0,-1.48438 -1.70313,-1.70313 0.54688,0.625 0.54688,1.70313 0,1.21875 -0.6875,1.75 1.84375,-0.875 1.84375,-1.75 z m -1.64063,0 q 0,-0.76563 -0.32812,-1.25 -0.32813,-0.5 -0.92188,-0.5 -0.28125,0 -0.5,0.14062 -0.20312,0.125 -0.20312,0.34375 v 3 q 0.96875,0 1.45312,-0.375 0.5,-0.375 0.5,-1.35937 z m 2.125,4.10937 q 0,-0.8125 -0.51562,-1.25 -0.51563,-0.4375 -1.42188,-0.70312 0.6875,0.53125 0.6875,1.95312 0,1.09375 -0.54687,1.75 1.79687,-0.45312 1.79687,-1.75 z m -4.07812,1.42188 q 0,0.21875 0.20312,0.34375 0.21875,0.125 0.5,0.125 1.64063,0 1.64063,-1.89063 0,-0.98437 -0.375,-1.4375 -0.35938,-0.45312 -1.26563,-0.45312 h -0.70312 z m -0.34375,-7.28125 h -1.3125 q 0.125,0.25 0.125,0.71875 v 6.3125 q 0,0.46875 -0.125,0.71875 h 1.3125 q -0.14063,-0.21875 -0.14063,-0.46875 v -6.79688 q 0,-0.26562 0.14063,-0.48437 z" />
    <path
       style="fill:#000000;fill-opacity:0;fill-rule:evenodd"
       id="path463"
       d="m 693.71576,147.65558 c 19.72284,0 29.58344,-12.26772 39.44562,-24.53543 9.86224,-12.26772 19.72601,-24.53543 39.45202,-24.53543" />
    <path
       style="fill-rule:evenodd;stroke:#595959;stroke-width:1;stroke-linecap:butt;stroke-linejoin:round"
       id="path465"
       d="m 693.7157,147.65558 c 19.72284,0 29.5835,-12.26772 39.44574,-24.53543 4.93109,-6.13386 9.86261,-12.26772 16.02704,-16.86811 3.08221,-2.30019 6.47272,-4.21703 10.32544,-5.55881 1.92645,-0.67089 3.96844,-1.198018 6.1452,-1.557424 0.27216,-0.04492 0.54633,-0.08723 0.82269,-0.126861 l 0.14515,-0.02004" />
    <path
       style="fill:#595959;fill-rule:evenodd;stroke:#595959;stroke-width:1;stroke-linecap:butt"
       id="path467"
       d="m 766.7382,100.63688 4.41656,-1.953682 -4.63909,-1.342277 z" />
    <path
       style="fill:#000000;fill-opacity:0;fill-rule:evenodd"
       id="path469"
       d="m 693.71576,147.65558 c 19.72284,0 29.58344,12.26771 39.44562,24.53543 9.86224,12.26771 19.72601,24.53543 39.45202,24.53543" />
    <path
       style="fill-rule:evenodd;stroke:#595959;stroke-width:1;stroke-linecap:butt;stroke-linejoin:round"
       id="path471"
       d="m 693.7157,147.65558 c 19.72284,0 29.5835,12.26771 39.44574,24.53543 4.93109,6.13385 9.86261,12.26771 16.02704,16.8681 3.08221,2.3002 6.47272,4.21703 10.32544,5.55881 1.92645,0.6709 3.96844,1.19803 6.1452,1.55743 0.27216,0.0449 0.54633,0.0872 0.82269,0.12688 l 0.14515,0.02" />
    <path
       style="fill:#595959;fill-rule:evenodd;stroke:#595959;stroke-width:1;stroke-linecap:butt"
       id="path473"
       d="m 766.5157,197.97025 4.6391,-1.34229 -4.41657,-1.95367 z" />
    <path
       style="fill:#000000;fill-opacity:0;fill-rule:evenodd"
       id="path475"
       d="m 772.6285,128.44281 c -19.72284,0 -29.58343,12.26772 -39.44568,24.53543 -9.86218,12.26771 -19.72595,24.53543 -39.45196,24.53543" />
    <path
       style="fill-rule:evenodd;stroke:#1c4587;stroke-width:1;stroke-linecap:butt;stroke-linejoin:round"
       id="path477"
       d="m 772.6284,128.44281 c -19.72272,0 -29.58337,12.26772 -39.44562,24.53543 -4.93109,6.13387 -9.86261,12.26771 -16.02704,16.86812 -3.08227,2.30018 -6.47271,4.21702 -10.32556,5.55881 -1.92633,0.67088 -3.96832,1.19801 -6.14514,1.55743 -0.2721,0.0449 -0.54639,0.0872 -0.82269,0.12686 l -0.14521,0.02" />
    <path
       style="fill:#1c4587;fill-rule:evenodd;stroke:#1c4587;stroke-width:1;stroke-linecap:butt"
       id="path479"
       d="m 699.6059,175.46152 -4.4165,1.95369 4.63903,1.34227 z" />
    <path
       style="fill:#000000;fill-opacity:0;fill-rule:evenodd"
       id="path481"
       d="m 772.6285,226.5583 c -19.72284,0 -29.58343,-12.26772 -39.44568,-24.53545 -9.86218,-12.26771 -19.72595,-24.53543 -39.45196,-24.53543" />
    <path
       style="fill-rule:evenodd;stroke:#1c4587;stroke-width:1;stroke-linecap:butt;stroke-linejoin:round"
       id="path483"
       d="m 772.6284,226.5583 c -19.72272,0 -29.58337,-12.26773 -39.44562,-24.53545 -4.93109,-6.13385 -9.86261,-12.26771 -16.02704,-16.8681 -3.08227,-2.3002 -6.47271,-4.21702 -10.32556,-5.55881 -1.92633,-0.67089 -3.96832,-1.19803 -6.14514,-1.55743 -0.2721,-0.0449 -0.54639,-0.0872 -0.82269,-0.12688 l -0.14521,-0.02" />
    <path
       style="fill:#1c4587;fill-rule:evenodd;stroke:#1c4587;stroke-width:1;stroke-linecap:butt"
       id="path485"
       d="m 699.8284,176.24362 -4.63904,1.34229 4.41651,1.95367 z" />
    <path
       style="fill:#000000;fill-opacity:0;fill-rule:evenodd"
       id="path487"
       d="m 772.6285,226.5583 c -18.12396,0 -36.2558,-31.99213 -36.24792,-63.98425 0.008,-31.99213 18.15545,-63.984263 36.31091,-63.984263" />
    <path
       style="fill-rule:evenodd;stroke:#1c4587;stroke-width:1;stroke-linecap:butt;stroke-linejoin:round"
       id="path489"
       d="m 772.6284,226.5583 c -18.1239,0 -36.25574,-31.99213 -36.24786,-63.98425 0.004,-15.99607 4.54284,-31.99213 11.35009,-43.98918 3.40369,-5.99852 7.37439,-10.99729 11.62903,-14.49643 2.12726,-1.74957 4.3255,-3.12423 6.55927,-4.0615 0.27923,-0.117167 0.55902,-0.227481 0.83923,-0.330851 l 0.0339,-0.01207" />
    <path
       style="fill:#1c4587;fill-rule:evenodd;stroke:#1c4587;stroke-width:1;stroke-linecap:butt"
       id="path491"
       d="m 767.09326,101.30806 4.16077,-2.451652 -4.76319,-0.79641 z" />
    <path
       style="fill:#000000;fill-opacity:0;fill-rule:evenodd"
       id="path493"
       d="m 772.6285,128.44281 c -7.25384,0 -14.51562,17.07086 -14.50775,34.14174 0.008,17.07086 7.2854,34.14172 14.57074,34.14172" />
    <path
       style="fill-rule:evenodd;stroke:#1c4587;stroke-width:1;stroke-linecap:butt;stroke-linejoin:round"
       id="path495"
       d="m 772.6284,128.44281 c -7.25384,0 -14.51556,17.07086 -14.50769,34.14174 0.004,8.53543 1.82532,17.07086 4.55627,23.47244 1.36554,3.20078 2.9585,5.86811 4.66535,7.73523 l 0.0728,0.0772" />
    <path
       style="fill:#1c4587;fill-rule:evenodd;stroke:#1c4587;stroke-width:1;stroke-linecap:butt"
       id="path497"
       d="m 766.6288,195.32193 4.7771,0.70828 -3.20422,-3.61325 z" />
  </g>
</svg>
