<?xml version="1.0" encoding="UTF-8" standalone="no"?>
<svg
   xmlns:dc="http://purl.org/dc/elements/1.1/"
   xmlns:cc="http://creativecommons.org/ns#"
   xmlns:rdf="http://www.w3.org/1999/02/22-rdf-syntax-ns#"
   xmlns:svg="http://www.w3.org/2000/svg"
   xmlns="http://www.w3.org/2000/svg"
   style="fill:none;stroke:none;stroke-linecap:square;stroke-miterlimit:10"
   height="108.49607"
   width="438.25983"
   id="svg633"
   stroke-miterlimit="10"
   viewBox="0 0 438.25983 108.49607"
   version="1.1">
  <metadata
     id="metadata639">
    <rdf:RDF>
      <cc:Work
         rdf:about="">
        <dc:format>image/svg+xml</dc:format>
        <dc:type
           rdf:resource="http://purl.org/dc/dcmitype/StillImage" />
        <dc:title></dc:title>
      </cc:Work>
    </rdf:RDF>
  </metadata>
  <defs
     id="defs637" />
  <clipPath
     id="g2f80604df9e_0_272.0">
    <path
       style="clip-rule:nonzero"
       id="path2"
       d="M 0,0 H 960 V 540 H 0 Z" />
  </clipPath>
  <g
     transform="translate(-47.37402,-65.431755)"
     id="g631"
     clip-path="url(#g2f80604df9e_0_272.0)">
    <path
       style="fill:#d9d9d9;fill-rule:evenodd"
       id="path11"
       d="M 204.42126,89.396324 H 328.57873 V 165.90027 H 204.42126 Z" />
    <path
       style="fill-rule:evenodd;stroke:#595959;stroke-width:1;stroke-linecap:butt;stroke-linejoin:round"
       id="path13"
       d="M 204.42126,89.396324 H 328.57873 V 165.90027 H 204.42126 Z" />
    <path
       style="fill:#000000;fill-opacity:0;fill-rule:evenodd"
       id="path15"
       d="m 142.43307,101.52827 h 61.98425 v 14.86614 h -61.98425 z" />
    <path
       style="fill:#202122;fill-rule:nonzero"
       id="path17"
       d="m 163.15955,104.81941 v -0.54688 h 3.76562 v 0.54688 l -1.23437,0.15625 q 0,0.82812 -0.0156,1.70312 0,0.85938 0,1.73438 v 0.65625 q 0,0.84375 0,1.70312 0.0156,0.85938 0.0156,1.73438 l 1.23437,0.14062 v 0.54688 h -3.76562 v -0.54688 l 1.21875,-0.14062 q 0.0312,-0.84375 0.0312,-1.70313 0,-0.875 0,-1.73437 v -0.65625 q 0,-0.875 0,-1.73438 0,-0.85937 -0.0312,-1.70312 z m 6.35097,3.70312 q -0.40625,0 -0.6875,-0.28125 -0.26563,-0.28125 -0.26563,-0.65625 0,-0.40625 0.26563,-0.6875 0.28125,-0.28125 0.6875,-0.28125 0.40625,0 0.67187,0.28125 0.28125,0.28125 0.28125,0.6875 0,0.375 -0.28125,0.65625 -0.26562,0.28125 -0.67187,0.28125 z m 0,4.84375 q -0.40625,0 -0.6875,-0.28125 -0.26563,-0.28125 -0.26563,-0.65625 0,-0.40625 0.26563,-0.6875 0.28125,-0.28125 0.6875,-0.28125 0.40625,0 0.67187,0.28125 0.28125,0.28125 0.28125,0.6875 0,0.375 -0.28125,0.65625 -0.26562,0.28125 -0.67187,0.28125 z m 3.99843,-4.84375 q -0.40625,0 -0.6875,-0.28125 -0.26563,-0.28125 -0.26563,-0.65625 0,-0.40625 0.26563,-0.6875 0.28125,-0.28125 0.6875,-0.28125 0.40625,0 0.67187,0.28125 0.28125,0.28125 0.28125,0.6875 0,0.375 -0.28125,0.65625 -0.26562,0.28125 -0.67187,0.28125 z m 0,4.84375 q -0.40625,0 -0.6875,-0.28125 -0.26563,-0.28125 -0.26563,-0.65625 0,-0.40625 0.26563,-0.6875 0.28125,-0.28125 0.6875,-0.28125 0.40625,0 0.67187,0.28125 0.28125,0.28125 0.28125,0.6875 0,0.375 -0.28125,0.65625 -0.26562,0.28125 -0.67187,0.28125 z m 2.59217,-8.54687 v -0.54688 h 6.625 l 0.0937,2.35938 h -0.75 l -0.29687,-1.6875 h -3.14063 q 0,0.85937 -0.0156,1.71875 0,0.84375 0,1.67187 h 2.0625 l 0.1875,-1.26562 h 0.60937 v 3.26562 h -0.60937 l -0.1875,-1.375 h -2.0625 q 0,0.98438 0,1.85938 0.0156,0.85937 0.0156,1.6875 l 1.25,0.14062 v 0.54688 h -3.78125 v -0.54688 l 1.21875,-0.14062 q 0.0312,-0.84375 0.0312,-1.70313 0,-0.875 0,-1.73437 v -0.65625 q 0,-0.875 0,-1.73438 0,-0.85937 -0.0312,-1.70312 z m 14.45258,2.5625 v -0.51563 h 2.4375 v 0.51563 l -0.71875,0.17187 -1.9375,5.71875 h -0.5 l -1.73438,-4.73437 -1.75,4.73437 h -0.5 l -2.14062,-5.75 -0.76563,-0.14062 v -0.51563 h 3.03125 v 0.51563 l -1.03125,0.15625 1.375,4.09375 1.48438,-4.09375 -0.98438,-0.15625 v -0.51563 h 2.95313 v 0.51563 l -0.98438,0.17187 1.51563,4.0625 1.23437,-4.04687 z m 4.10348,2.6875 q 0,1.29687 0.53125,1.92187 0.53125,0.60938 1.32813,0.60938 0.4375,0 0.76562,-0.17188 0.34375,-0.1875 0.71875,-0.59375 v -3.6875 q -0.45312,-0.40625 -0.8125,-0.54687 -0.35937,-0.15625 -0.6875,-0.15625 -0.5,0 -0.92187,0.28125 -0.40625,0.26562 -0.67188,0.85937 -0.25,0.57813 -0.25,1.48438 z m 3.48438,3.26562 -0.0937,-0.92187 q -0.34375,0.45312 -0.79688,0.70312 -0.45312,0.25 -1.07812,0.25 -0.8125,0 -1.42188,-0.40625 -0.60937,-0.42187 -0.95312,-1.15625 -0.34375,-0.73437 -0.34375,-1.71875 0,-1.01562 0.375,-1.78125 0.375,-0.76562 1.01562,-1.1875 0.64063,-0.42187 1.45313,-0.42187 0.46875,0 0.89062,0.1875 0.4375,0.1875 0.85938,0.67187 v -3.01562 l -1.14063,-0.125 v -0.46875 l 2.07813,-0.59375 0.1875,0.0937 -0.0469,1.90625 v 7.20312 l 1.07813,0.15625 v 0.48438 z" />
    <path
       style="fill:#000000;fill-opacity:0;fill-rule:evenodd"
       id="path19"
       d="m 153.31342,121.08078 h 51.10551" />
    <path
       style="fill-rule:evenodd;stroke:#595959;stroke-width:2;stroke-linecap:butt;stroke-linejoin:round"
       id="path21"
       d="m 153.31342,121.08078 h 39.1055" />
    <path
       style="fill:#595959;fill-rule:evenodd;stroke:#595959;stroke-width:2;stroke-linecap:butt"
       id="path23"
       d="m 192.41893,124.38425 9.07619,-3.30347 -9.07619,-3.30346 z" />
    <path
       style="fill:#000000;fill-opacity:0;fill-rule:evenodd"
       id="path25"
       d="m 153.31342,115.12997 h 18.39798 v 11.90161 h -18.39798 z" />
    <path
       style="fill:#000000;fill-opacity:0;fill-rule:evenodd"
       id="path27"
       d="m 186.00017,115.12997 h 18.39798 v 11.90161 h -18.39798 z" />
    <path
       style="fill:#000000;fill-opacity:0;fill-rule:evenodd"
       id="path29"
       d="M 204.41821,150.92627 H 153.31269" />
    <path
       style="fill-rule:evenodd;stroke:#1c4587;stroke-width:2;stroke-linecap:butt;stroke-linejoin:round"
       id="path31"
       d="M 204.4182,150.92627 H 165.3127" />
    <path
       style="fill:#1c4587;fill-rule:evenodd;stroke:#1c4587;stroke-width:2;stroke-linecap:butt"
       id="path33"
       d="m 165.3127,147.6228 -9.07619,3.30347 9.07619,3.30345 z" />
    <path
       style="fill:#000000;fill-opacity:0;fill-rule:evenodd"
       id="path35"
       d="m 153.33452,144.97546 h 18.39798 v 11.9016 h -18.39798 z" />
    <path
       style="fill:#000000;fill-opacity:0;fill-rule:evenodd"
       id="path37"
       d="m 186.02094,144.97546 h 18.39799 v 11.9016 h -18.39799 z" />
    <path
       style="fill:#000000;fill-opacity:0;fill-rule:evenodd"
       id="path39"
       d="m 237.07349,128.03368 v 0 c 0,-3.5863 2.90727,-6.49357 6.49358,-6.49357 h 45.87901 c 1.7222,0 3.37384,0.68414 4.59164,1.90193 1.21778,1.21778 1.90192,2.86944 1.90192,4.59164 v 25.9735 c 0,3.5863 -2.90729,6.49356 -6.49356,6.49356 h -45.87901 c -3.58631,0 -6.49358,-2.90726 -6.49358,-6.49356 z" />
    <path
       style="fill-rule:evenodd;stroke:#595959;stroke-width:1;stroke-linecap:butt;stroke-linejoin:round"
       id="path41"
       d="m 237.07349,128.03368 v 0 c 0,-3.5863 2.90727,-6.49357 6.49358,-6.49357 h 45.87901 c 1.7222,0 3.37384,0.68414 4.59164,1.90193 1.21778,1.21778 1.90192,2.86944 1.90192,4.59164 v 25.9735 c 0,3.5863 -2.90729,6.49356 -6.49356,6.49356 h -45.87901 c -3.58631,0 -6.49358,-2.90726 -6.49358,-6.49356 z" />
    <path
       style="fill:#202122;fill-rule:nonzero"
       id="path43"
       d="m 253.30902,145.9923 q -1.375,0 -2.1875,-0.89063 -0.8125,-0.89062 -0.8125,-2.42187 0,-1.0625 0.42187,-1.8125 0.4375,-0.75 1.14063,-1.14063 0.71875,-0.40625 1.51562,-0.40625 0.59375,0 1.09375,0.23438 0.51563,0.21875 0.84375,0.60937 0.34375,0.39063 0.42188,0.89063 -0.0937,0.5 -0.60938,0.5 -0.34375,0 -0.51562,-0.17188 -0.15625,-0.1875 -0.21875,-0.46875 l -0.25,-0.875 q -0.1875,-0.0625 -0.375,-0.0781 -0.17188,-0.0312 -0.34375,-0.0312 -0.84375,0 -1.40625,0.67187 -0.54688,0.65625 -0.54688,1.9375 0,1.25 0.59375,1.92188 0.60938,0.67187 1.53125,0.67187 0.57813,0 1.04688,-0.26562 0.48437,-0.26563 0.79687,-0.75 l 0.32813,0.17187 q -0.28125,0.82813 -0.90625,1.26563 -0.625,0.4375 -1.5625,0.4375 z m 6.59784,0 q -0.78125,0 -1.48438,-0.35938 -0.6875,-0.375 -1.14062,-1.10937 -0.4375,-0.75 -0.4375,-1.82813 0,-1.10937 0.4375,-1.85937 0.45312,-0.76563 1.14062,-1.14063 0.70313,-0.375 1.48438,-0.375 0.76562,0 1.46875,0.375 0.70312,0.375 1.14062,1.14063 0.45313,0.75 0.45313,1.85937 0,1.07813 -0.45313,1.82813 -0.4375,0.73437 -1.14062,1.10937 -0.70313,0.35938 -1.46875,0.35938 z m 0,-0.59375 q 0.85937,0 1.32812,-0.6875 0.46875,-0.6875 0.46875,-2.01563 0,-1.35937 -0.46875,-2.0625 -0.46875,-0.70312 -1.32812,-0.70312 -0.875,0 -1.34375,0.70312 -0.45313,0.70313 -0.45313,2.0625 0,1.32813 0.45313,2.01563 0.46875,0.6875 1.34375,0.6875 z m 4.19211,0.42187 v -0.48437 l 0.98437,-0.1875 q 0.0156,-0.5 0.0156,-1.07813 0.0156,-0.59375 0.0156,-1.04687 v -0.64063 q 0,-0.54687 -0.0156,-0.90625 0,-0.35937 -0.0312,-0.76562 l -1.04688,-0.10938 v -0.46875 l 1.85938,-0.8125 0.20312,0.125 0.10938,1.07813 q 0.46875,-0.53125 1.09375,-0.85938 0.625,-0.34375 1.23437,-0.34375 0.625,0 1.01563,0.29688 0.40625,0.28125 0.57812,0.95312 0.5,-0.625 1.125,-0.9375 0.625,-0.3125 1.28125,-0.3125 0.8125,0 1.25,0.54688 0.45313,0.54687 0.45313,1.78125 v 1.375 q 0,0.45312 0,1.04687 0.0156,0.57813 0.0312,1.07813 l 0.9375,0.1875 v 0.48437 h -3.09375 v -0.48437 l 0.98437,-0.1875 q 0.0156,-0.48438 0.0156,-1.07813 0.0156,-0.59375 0.0156,-1.04687 v -1.15625 q 0,-0.9375 -0.26562,-1.26563 -0.26563,-0.32812 -0.85938,-0.32812 -0.40625,0 -0.84375,0.1875 -0.4375,0.1875 -0.9375,0.65625 0.0156,0.14062 0.0156,0.3125 0,0.17187 0,0.35937 v 1.23438 q 0,0.45312 0,1.04687 0.0156,0.57813 0.0312,1.07813 l 0.9375,0.1875 v 0.48437 h -3.09375 v -0.48437 l 0.98437,-0.1875 q 0.0156,-0.48438 0.0156,-1.07813 0.0156,-0.59375 0.0156,-1.04687 v -1.14063 q 0,-0.90625 -0.26562,-1.25 -0.25,-0.35937 -0.82813,-0.35937 -0.45312,0 -0.875,0.1875 -0.40625,0.1875 -0.90625,0.60937 v 1.95313 q 0,0.4375 0,1.03125 0.0156,0.59375 0.0312,1.09375 l 0.92188,0.1875 v 0.48437 z m 11.8836,0 v -0.48437 l 1,-0.17188 q 0,-0.5 0,-1.09375 0.0156,-0.59375 0.0156,-1.04687 v -5.85938 l -1.09375,-0.125 v -0.46875 l 2.04687,-0.59375 0.1875,0.0937 -0.0625,1.90625 v 2.35938 q 0.48438,-0.53125 1,-0.76563 0.51563,-0.25 1.0625,-0.25 0.70313,0 1.26563,0.39063 0.57812,0.375 0.92187,1.10937 0.34375,0.73438 0.34375,1.78125 0,1.01563 -0.35937,1.78125 -0.35938,0.76563 -0.98438,1.1875 -0.625,0.42188 -1.40625,0.42188 -0.46875,0 -0.9375,-0.20313 -0.45312,-0.20312 -0.90625,-0.73437 l -0.0937,0.90625 z m 3.79688,-5.75 q -0.3125,0 -0.71875,0.17188 -0.39063,0.15625 -0.9375,0.60937 v 3.65625 q 0.40625,0.375 0.8125,0.54688 0.40625,0.17187 0.76562,0.17187 0.71875,0 1.23438,-0.60937 0.53125,-0.625 0.53125,-1.92188 0,-1.26562 -0.48438,-1.9375 -0.46875,-0.6875 -1.20312,-0.6875 z" />
    <path
       style="fill:#000000;fill-opacity:0;fill-rule:evenodd"
       id="path45"
       d="m 328.58374,121.08078 h 51.10553" />
    <path
       style="fill-rule:evenodd;stroke:#595959;stroke-width:2;stroke-linecap:butt;stroke-linejoin:round"
       id="path47"
       d="m 328.58374,121.08078 h 39.10553" />
    <path
       style="fill:#595959;fill-rule:evenodd;stroke:#595959;stroke-width:2;stroke-linecap:butt"
       id="path49"
       d="m 367.68927,124.38425 9.0762,-3.30347 -9.0762,-3.30346 z" />
    <path
       style="fill:#000000;fill-opacity:0;fill-rule:evenodd"
       id="path51"
       d="m 328.58374,115.12997 h 18.39801 v 11.90161 h -18.39801 z" />
    <path
       style="fill:#000000;fill-opacity:0;fill-rule:evenodd"
       id="path53"
       d="m 361.2705,115.12997 h 18.39798 v 11.90161 H 361.2705 Z" />
    <path
       style="fill:#000000;fill-opacity:0;fill-rule:evenodd"
       id="path55"
       d="M 379.68857,150.92627 H 328.58304" />
    <path
       style="fill-rule:evenodd;stroke:#1c4587;stroke-width:2;stroke-linecap:butt;stroke-linejoin:round"
       id="path57"
       d="M 379.68857,150.92627 H 340.58304" />
    <path
       style="fill:#1c4587;fill-rule:evenodd;stroke:#1c4587;stroke-width:2;stroke-linecap:butt"
       id="path59"
       d="m 340.58304,147.6228 -9.0762,3.30347 9.0762,3.30345 z" />
    <path
       style="fill:#000000;fill-opacity:0;fill-rule:evenodd"
       id="path61"
       d="m 328.60486,144.97546 h 18.39798 v 11.9016 h -18.39798 z" />
    <path
       style="fill:#000000;fill-opacity:0;fill-rule:evenodd"
       id="path63"
       d="m 361.2913,144.97546 h 18.39798 v 11.9016 H 361.2913 Z" />
    <path
       style="fill:#000000;fill-opacity:0;fill-rule:evenodd"
       id="path65"
       d="m 142.43307,130.34637 h 61.98425 v 14.86614 h -61.98425 z" />
    <path
       style="fill:#202122;fill-rule:nonzero"
       id="path67"
       d="m 162.46646,133.63751 v -0.54688 h 3.76562 v 0.54688 l -1.23437,0.15625 q 0,0.82812 -0.0156,1.70312 0,0.85938 0,1.73438 v 0.65625 q 0,0.84375 0,1.70312 0.0156,0.85938 0.0156,1.73438 l 1.23437,0.14062 v 0.54688 h -3.76562 v -0.54688 l 1.21875,-0.14062 q 0.0312,-0.84375 0.0312,-1.70313 0,-0.875 0,-1.73437 v -0.65625 q 0,-0.875 0,-1.73438 0,-0.85937 -0.0312,-1.70312 z m 6.35097,3.70312 q -0.40625,0 -0.6875,-0.28125 -0.26563,-0.28125 -0.26563,-0.65625 0,-0.40625 0.26563,-0.6875 0.28125,-0.28125 0.6875,-0.28125 0.40625,0 0.67187,0.28125 0.28125,0.28125 0.28125,0.6875 0,0.375 -0.28125,0.65625 -0.26562,0.28125 -0.67187,0.28125 z m 0,4.84375 q -0.40625,0 -0.6875,-0.28125 -0.26563,-0.28125 -0.26563,-0.65625 0,-0.40625 0.26563,-0.6875 0.28125,-0.28125 0.6875,-0.28125 0.40625,0 0.67187,0.28125 0.28125,0.28125 0.28125,0.6875 0,0.375 -0.28125,0.65625 -0.26562,0.28125 -0.67187,0.28125 z m 3.99843,-4.84375 q -0.40625,0 -0.6875,-0.28125 -0.26563,-0.28125 -0.26563,-0.65625 0,-0.40625 0.26563,-0.6875 0.28125,-0.28125 0.6875,-0.28125 0.40625,0 0.67187,0.28125 0.28125,0.28125 0.28125,0.6875 0,0.375 -0.28125,0.65625 -0.26562,0.28125 -0.67187,0.28125 z m 0,4.84375 q -0.40625,0 -0.6875,-0.28125 -0.26563,-0.28125 -0.26563,-0.65625 0,-0.40625 0.26563,-0.6875 0.28125,-0.28125 0.6875,-0.28125 0.40625,0 0.67187,0.28125 0.28125,0.28125 0.28125,0.6875 0,0.375 -0.28125,0.65625 -0.26562,0.28125 -0.67187,0.28125 z m 5.84217,-4.48437 h -0.73437 q 0,1.0625 0,1.95312 0.0156,0.875 0.0156,1.73438 h 0.8125 q 1.28125,0 1.90625,-0.46875 0.64063,-0.46875 0.64063,-1.34375 0,-0.9375 -0.64063,-1.40625 -0.625,-0.46875 -2,-0.46875 z m 0.20313,-3.98438 h -0.92188 q 0,0.84375 -0.0156,1.71875 0,0.875 0,1.65625 h 0.6875 q 1.21875,0 1.76562,-0.40625 0.54688,-0.42187 0.54688,-1.32812 0,-0.90625 -0.51563,-1.26563 -0.51562,-0.375 -1.54687,-0.375 z m -3.45313,-0.0781 v -0.54688 h 3.85938 q 1.39062,0 2.14062,0.625 0.76563,0.60938 0.76563,1.54688 0,0.71875 -0.48438,1.3125 -0.48437,0.57812 -1.57812,0.79687 1.32812,0.1875 1.92187,0.79688 0.59375,0.59375 0.59375,1.40625 0,0.59375 -0.35937,1.15625 -0.34375,0.5625 -1.14063,0.92187 -0.78125,0.35938 -2.0625,0.35938 h -3.65625 v -0.54688 l 1.21875,-0.14062 q 0.0312,-0.84375 0.0312,-1.70313 0,-0.875 0,-1.73437 v -0.65625 q 0,-0.875 0,-1.73438 0,-0.85937 -0.0312,-1.70312 z m 15.14566,2.5625 v -0.51563 h 2.4375 v 0.51563 l -0.71875,0.17187 -1.9375,5.71875 h -0.5 l -1.73437,-4.73437 -1.75,4.73437 h -0.5 l -2.14063,-5.75 -0.76562,-0.14062 v -0.51563 h 3.03125 v 0.51563 l -1.03125,0.15625 1.375,4.09375 1.48437,-4.09375 -0.98437,-0.15625 v -0.51563 h 2.95312 v 0.51563 l -0.98437,0.17187 1.51562,4.0625 1.23438,-4.04687 z m 4.10349,2.6875 q 0,1.29687 0.53125,1.92187 0.53125,0.60938 1.32812,0.60938 0.4375,0 0.76563,-0.17188 0.34375,-0.1875 0.71875,-0.59375 v -3.6875 q -0.45313,-0.40625 -0.8125,-0.54687 -0.35938,-0.15625 -0.6875,-0.15625 -0.5,0 -0.92188,0.28125 -0.40625,0.26562 -0.67187,0.85937 -0.25,0.57813 -0.25,1.48438 z m 3.48437,3.26562 -0.0937,-0.92187 q -0.34375,0.45312 -0.79687,0.70312 -0.45313,0.25 -1.07813,0.25 -0.8125,0 -1.42187,-0.40625 -0.60938,-0.42187 -0.95313,-1.15625 -0.34375,-0.73437 -0.34375,-1.71875 0,-1.01562 0.375,-1.78125 0.375,-0.76562 1.01563,-1.1875 0.64062,-0.42187 1.45312,-0.42187 0.46875,0 0.89063,0.1875 0.4375,0.1875 0.85937,0.67187 v -3.01562 l -1.14062,-0.125 v -0.46875 l 2.07812,-0.59375 0.1875,0.0937 -0.0469,1.90625 v 7.20312 l 1.07812,0.15625 v 0.48438 z" />
    <path
       style="fill:#000000;fill-opacity:0;fill-rule:evenodd"
       id="path69"
       d="m 328.58005,101.52827 h 61.98425 v 14.86614 h -61.98425 z" />
    <path
       style="fill:#202122;fill-rule:nonzero"
       id="path71"
       d="m 333.1738,104.81941 v -0.54688 h 6.625 l 0.0937,2.35938 h -0.75 l -0.29687,-1.6875 H 335.705 q 0,0.85937 -0.0156,1.71875 0,0.84375 0,1.67187 h 1.95312 l 0.1875,-1.26562 h 0.60938 v 3.14062 h -0.60938 l -0.17187,-1.25 h -1.96875 q 0,1 0,1.875 0.0156,0.85938 0.0156,1.6875 h 3.40625 l 0.29688,-1.70312 h 0.75 l -0.0937,2.375 h -6.89063 v -0.54688 l 1.21875,-0.14062 q 0.0312,-0.84375 0.0312,-1.70313 0,-0.875 0,-1.73437 v -0.65625 q 0,-0.875 0,-1.73438 0,-0.85937 -0.0312,-1.70312 z m 9.44309,3.70312 q -0.40625,0 -0.6875,-0.28125 -0.26563,-0.28125 -0.26563,-0.65625 0,-0.40625 0.26563,-0.6875 0.28125,-0.28125 0.6875,-0.28125 0.40625,0 0.67187,0.28125 0.28125,0.28125 0.28125,0.6875 0,0.375 -0.28125,0.65625 -0.26562,0.28125 -0.67187,0.28125 z m 0,4.84375 q -0.40625,0 -0.6875,-0.28125 -0.26563,-0.28125 -0.26563,-0.65625 0,-0.40625 0.26563,-0.6875 0.28125,-0.28125 0.6875,-0.28125 0.40625,0 0.67187,0.28125 0.28125,0.28125 0.28125,0.6875 0,0.375 -0.28125,0.65625 -0.26562,0.28125 -0.67187,0.28125 z m 3.99844,-4.84375 q -0.40625,0 -0.6875,-0.28125 -0.26563,-0.28125 -0.26563,-0.65625 0,-0.40625 0.26563,-0.6875 0.28125,-0.28125 0.6875,-0.28125 0.40625,0 0.67187,0.28125 0.28125,0.28125 0.28125,0.6875 0,0.375 -0.28125,0.65625 -0.26562,0.28125 -0.67187,0.28125 z m 0,4.84375 q -0.40625,0 -0.6875,-0.28125 -0.26563,-0.28125 -0.26563,-0.65625 0,-0.40625 0.26563,-0.6875 0.28125,-0.28125 0.6875,-0.28125 0.40625,0 0.67187,0.28125 0.28125,0.28125 0.28125,0.6875 0,0.375 -0.28125,0.65625 -0.26562,0.28125 -0.67187,0.28125 z m 2.59216,-8.54687 v -0.54688 h 6.625 l 0.0937,2.35938 h -0.75 l -0.29687,-1.6875 h -3.14063 q 0,0.85937 -0.0156,1.71875 0,0.84375 0,1.67187 h 2.0625 l 0.1875,-1.26562 h 0.60937 v 3.26562 h -0.60937 l -0.1875,-1.375 h -2.0625 q 0,0.98438 0,1.85938 0.0156,0.85937 0.0156,1.6875 l 1.25,0.14062 v 0.54688 h -3.78125 v -0.54688 l 1.21875,-0.14062 q 0.0312,-0.84375 0.0312,-1.70313 0,-0.875 0,-1.73437 v -0.65625 q 0,-0.875 0,-1.73438 0,-0.85937 -0.0312,-1.70312 z m 14.45258,2.5625 v -0.51563 h 2.4375 v 0.51563 l -0.71875,0.17187 -1.9375,5.71875 h -0.5 l -1.73438,-4.73437 -1.75,4.73437 h -0.5 l -2.14062,-5.75 -0.76563,-0.14062 v -0.51563 h 3.03125 v 0.51563 l -1.03125,0.15625 1.375,4.09375 1.48438,-4.09375 -0.98438,-0.15625 v -0.51563 h 2.95313 v 0.51563 l -0.98438,0.17187 1.51563,4.0625 1.23437,-4.04687 z m 4.10348,2.6875 q 0,1.29687 0.53125,1.92187 0.53125,0.60938 1.32813,0.60938 0.4375,0 0.76562,-0.17188 0.34375,-0.1875 0.71875,-0.59375 v -3.6875 q -0.45312,-0.40625 -0.8125,-0.54687 -0.35937,-0.15625 -0.6875,-0.15625 -0.5,0 -0.92187,0.28125 -0.40625,0.26562 -0.67188,0.85937 -0.25,0.57813 -0.25,1.48438 z m 3.48438,3.26562 -0.0937,-0.92187 q -0.34375,0.45312 -0.79688,0.70312 -0.45312,0.25 -1.07812,0.25 -0.8125,0 -1.42188,-0.40625 -0.60937,-0.42187 -0.95312,-1.15625 -0.34375,-0.73437 -0.34375,-1.71875 0,-1.01562 0.375,-1.78125 0.375,-0.76562 1.01562,-1.1875 0.64063,-0.42187 1.45313,-0.42187 0.46875,0 0.89062,0.1875 0.4375,0.1875 0.85938,0.67187 v -3.01562 l -1.14063,-0.125 v -0.46875 l 2.07813,-0.59375 0.1875,0.0937 -0.0469,1.90625 v 7.20312 l 1.07813,0.15625 v 0.48438 z" />
    <path
       style="fill:#000000;fill-opacity:0;fill-rule:evenodd"
       id="path73"
       d="m 328.58005,130.34637 h 61.98425 v 14.86614 h -61.98425 z" />
    <path
       style="fill:#202122;fill-rule:nonzero"
       id="path75"
       d="m 333.1738,133.63751 v -0.54688 h 6.625 l 0.0937,2.35938 h -0.75 l -0.29687,-1.6875 H 335.705 q 0,0.85937 -0.0156,1.71875 0,0.84375 0,1.67187 h 1.95312 l 0.1875,-1.26562 h 0.60938 v 3.14062 h -0.60938 l -0.17187,-1.25 h -1.96875 q 0,1 0,1.875 0.0156,0.85938 0.0156,1.6875 h 3.40625 l 0.29688,-1.70312 h 0.75 l -0.0937,2.375 h -6.89063 v -0.54688 l 1.21875,-0.14062 q 0.0312,-0.84375 0.0312,-1.70313 0,-0.875 0,-1.73437 v -0.65625 q 0,-0.875 0,-1.73438 0,-0.85937 -0.0312,-1.70312 z m 9.44309,3.70312 q -0.40625,0 -0.6875,-0.28125 -0.26563,-0.28125 -0.26563,-0.65625 0,-0.40625 0.26563,-0.6875 0.28125,-0.28125 0.6875,-0.28125 0.40625,0 0.67187,0.28125 0.28125,0.28125 0.28125,0.6875 0,0.375 -0.28125,0.65625 -0.26562,0.28125 -0.67187,0.28125 z m 0,4.84375 q -0.40625,0 -0.6875,-0.28125 -0.26563,-0.28125 -0.26563,-0.65625 0,-0.40625 0.26563,-0.6875 0.28125,-0.28125 0.6875,-0.28125 0.40625,0 0.67187,0.28125 0.28125,0.28125 0.28125,0.6875 0,0.375 -0.28125,0.65625 -0.26562,0.28125 -0.67187,0.28125 z m 3.99844,-4.84375 q -0.40625,0 -0.6875,-0.28125 -0.26563,-0.28125 -0.26563,-0.65625 0,-0.40625 0.26563,-0.6875 0.28125,-0.28125 0.6875,-0.28125 0.40625,0 0.67187,0.28125 0.28125,0.28125 0.28125,0.6875 0,0.375 -0.28125,0.65625 -0.26562,0.28125 -0.67187,0.28125 z m 0,4.84375 q -0.40625,0 -0.6875,-0.28125 -0.26563,-0.28125 -0.26563,-0.65625 0,-0.40625 0.26563,-0.6875 0.28125,-0.28125 0.6875,-0.28125 0.40625,0 0.67187,0.28125 0.28125,0.28125 0.28125,0.6875 0,0.375 -0.28125,0.65625 -0.26562,0.28125 -0.67187,0.28125 z m 5.84216,-4.48437 h -0.73437 q 0,1.0625 0,1.95312 0.0156,0.875 0.0156,1.73438 h 0.8125 q 1.28125,0 1.90625,-0.46875 0.64063,-0.46875 0.64063,-1.34375 0,-0.9375 -0.64063,-1.40625 -0.625,-0.46875 -2,-0.46875 z m 0.20313,-3.98438 h -0.92188 q 0,0.84375 -0.0156,1.71875 0,0.875 0,1.65625 h 0.6875 q 1.21875,0 1.76562,-0.40625 0.54688,-0.42187 0.54688,-1.32812 0,-0.90625 -0.51563,-1.26563 -0.51562,-0.375 -1.54687,-0.375 z m -3.45313,-0.0781 v -0.54688 h 3.85938 q 1.39062,0 2.14062,0.625 0.76563,0.60938 0.76563,1.54688 0,0.71875 -0.48438,1.3125 -0.48437,0.57812 -1.57812,0.79687 1.32812,0.1875 1.92187,0.79688 0.59375,0.59375 0.59375,1.40625 0,0.59375 -0.35937,1.15625 -0.34375,0.5625 -1.14063,0.92187 -0.78125,0.35938 -2.0625,0.35938 h -3.65625 v -0.54688 l 1.21875,-0.14062 q 0.0312,-0.84375 0.0312,-1.70313 0,-0.875 0,-1.73437 v -0.65625 q 0,-0.875 0,-1.73438 0,-0.85937 -0.0312,-1.70312 z m 15.14566,2.5625 v -0.51563 h 2.4375 v 0.51563 l -0.71875,0.17187 -1.9375,5.71875 h -0.5 l -1.73437,-4.73437 -1.75,4.73437 h -0.5 l -2.14063,-5.75 -0.76562,-0.14062 v -0.51563 h 3.03125 v 0.51563 l -1.03125,0.15625 1.375,4.09375 1.48437,-4.09375 -0.98437,-0.15625 v -0.51563 h 2.95312 v 0.51563 l -0.98437,0.17187 1.51562,4.0625 1.23438,-4.04687 z m 4.10349,2.6875 q 0,1.29687 0.53125,1.92187 0.53125,0.60938 1.32812,0.60938 0.4375,0 0.76563,-0.17188 0.34375,-0.1875 0.71875,-0.59375 v -3.6875 q -0.45313,-0.40625 -0.8125,-0.54687 -0.35938,-0.15625 -0.6875,-0.15625 -0.5,0 -0.92188,0.28125 -0.40625,0.26562 -0.67187,0.85937 -0.25,0.57813 -0.25,1.48438 z m 3.48437,3.26562 -0.0937,-0.92187 q -0.34375,0.45312 -0.79687,0.70312 -0.45313,0.25 -1.07813,0.25 -0.8125,0 -1.42187,-0.40625 -0.60938,-0.42187 -0.95313,-1.15625 -0.34375,-0.73437 -0.34375,-1.71875 0,-1.01562 0.375,-1.78125 0.375,-0.76562 1.01563,-1.1875 0.64062,-0.42187 1.45312,-0.42187 0.46875,0 0.89063,0.1875 0.4375,0.1875 0.85937,0.67187 v -3.01562 l -1.14062,-0.125 v -0.46875 l 2.07812,-0.59375 0.1875,0.0937 -0.0469,1.90625 v 7.20312 l 1.07812,0.15625 v 0.48438 z" />
    <path
       style="fill:#000000;fill-opacity:0;fill-rule:evenodd"
       id="path77"
       d="m 204.41995,60.842518 h 124.15747 v 27.87402 H 204.41995 Z" />
    <path
       style="fill:#202122;fill-rule:nonzero"
       id="path79"
       d="m 254.30244,80.059525 v -0.6875 l 0.8125,-0.15625 q 0.0156,-0.5625 0.0156,-1.109375 0.0156,-0.5625 0.0156,-1.125 v -3 h -0.95313 v -0.875 l 0.96875,-0.109375 q 0.125,-1 0.39063,-1.609375 0.28125,-0.609375 0.74998,-1.09375 0.53125,-0.53125 1.21875,-0.765625 0.6875,-0.25 1.3125,-0.25 0.60938,0 1.10938,0.234375 0.5,0.21875 0.65625,0.796875 -0.0156,0.40625 -0.29688,0.703125 -0.26562,0.28125 -0.76562,0.28125 -0.35938,0 -0.6875,-0.25 -0.32813,-0.25 -0.625,-0.796875 l -0.125,-0.171875 q -0.39063,0.40625 -0.54688,1.078125 -0.14062,0.671875 -0.10937,1.828125 h 1.5625 v 1 h -1.53125 v 3 q 0,0.546875 0,1.078125 0,0.53125 0.0156,1.078125 l 1.125,0.234375 v 0.6875 z m 7.85246,0.21875 q -1.39062,0 -2.54687,-0.671875 l 0.0469,-1.796875 h 1.17188 l 0.25,1.453125 q 0.26562,0.109375 0.53125,0.15625 0.26562,0.04687 0.5625,0.04687 0.64062,0 0.96875,-0.203125 0.34375,-0.21875 0.34375,-0.65625 0,-0.328125 -0.25,-0.578125 -0.25,-0.25 -0.98438,-0.453125 l -0.79687,-0.234375 q -0.84375,-0.25 -1.3125,-0.8125 -0.45313,-0.5625 -0.45313,-1.375 0,-1.015625 0.78125,-1.703125 0.79688,-0.703125 2.28125,-0.703125 0.64063,0 1.1875,0.15625 0.54688,0.15625 1.125,0.4375 l -0.0937,1.609375 h -1.1875 l -0.28125,-1.265625 q -0.3125,-0.125 -0.8125,-0.125 -0.5,0 -0.79687,0.21875 -0.29688,0.203125 -0.29688,0.609375 0,0.296875 0.23438,0.53125 0.23437,0.21875 1,0.453125 l 0.71875,0.203125 q 1.03125,0.3125 1.48437,0.890625 0.45313,0.5625 0.45313,1.375 0,1.15625 -0.89063,1.796875 -0.875,0.640625 -2.4375,0.640625 z m 4.09049,-0.21875 v -0.6875 l 0.79687,-0.171875 q 0.0156,-0.53125 0.0156,-1.140625 0,-0.625 0,-1.078125 v -0.84375 q 0,-0.609375 -0.0156,-0.9375 0,-0.328125 -0.0312,-0.765625 L 266.12039,74.2939 v -0.5625 l 2.89062,-0.984375 0.25,0.15625 0.0937,1.0625 q 0.51563,-0.609375 1.07813,-0.90625 0.5625,-0.3125 1.20312,-0.3125 1.51563,0 1.95313,1.296875 0.60937,-0.71875 1.17187,-1 0.5625,-0.296875 1.1875,-0.296875 1.125,0 1.625,0.640625 0.51563,0.640625 0.51563,1.953125 V 76.9814 q 0,0.46875 0,1.09375 0,0.609375 0.0156,1.140625 l 0.73438,0.15625 v 0.6875 h -3.78125 v -0.6875 l 0.71875,-0.171875 q 0.0156,-0.53125 0.0156,-1.140625 0,-0.609375 0,-1.078125 v -1.421875 q 0,-0.8125 -0.1875,-1.09375 -0.1875,-0.296875 -0.65625,-0.296875 -0.60937,0 -1.21875,0.53125 0.0156,0.125 0.0156,0.265625 0.0156,0.140625 0.0156,0.296875 v 1.71875 q 0,0.484375 0,1.09375 0,0.609375 0,1.15625 l 0.70313,0.140625 v 0.6875 h -3.78125 v -0.6875 l 0.75,-0.171875 q 0.0156,-0.53125 0.0156,-1.140625 0,-0.609375 0,-1.078125 v -1.40625 q 0,-0.78125 -0.1875,-1.09375 -0.17187,-0.3125 -0.65625,-0.3125 -0.3125,0 -0.625,0.15625 -0.29687,0.140625 -0.57812,0.375 v 2.28125 q 0,0.453125 0,1.078125 0,0.625 0.0156,1.171875 l 0.6875,0.140625 v 0.6875 z" />
    <path
       style="fill:#000000;fill-opacity:0;fill-rule:evenodd"
       id="path81"
       d="m 80.44882,109.10798 h 61.98425 v 23.937 H 80.44882 Z" />
    <path
       style="fill:#202122;fill-rule:nonzero"
       id="path83"
       d="m 133.2308,118.01273 v -0.78125 h 4.71875 v 0.78125 l -1.09375,0.125 q -0.0156,0.89063 -0.0312,1.79688 0,0.90625 0,1.84375 v 0.51562 q 0,0.90625 0,1.82813 0.0156,0.92187 0.0312,1.82812 l 1.09375,0.10938 v 0.79687 h -4.71875 v -0.79687 l 1.09375,-0.10938 q 0.0312,-0.89062 0.0312,-1.79687 0,-0.92188 0,-1.84375 v -0.53125 q 0,-0.92188 0,-1.82813 0,-0.92187 -0.0312,-1.8125 z" />
    <path
       style="fill:#000000;fill-opacity:0;fill-rule:evenodd"
       id="path85"
       d="m 390.56955,109.10798 h 61.98425 v 23.937 h -61.98425 z" />
    <path
       style="fill:#202122;fill-rule:nonzero"
       id="path87"
       d="m 395.05392,118.01273 v -0.78125 h 7.46875 l 0.10937,2.51563 h -1.21875 l -0.29687,-1.70313 h -2.4375 q -0.0156,0.84375 -0.0312,1.70313 0,0.84375 0,1.70312 h 1.57812 l 0.17188,-1.14062 h 0.85937 v 3.14062 h -0.85937 l -0.17188,-1.14062 h -1.57812 q 0,1.01562 0,1.92187 0.0156,0.90625 0.0312,1.79688 h 2.73437 l 0.29688,-1.6875 h 1.21875 l -0.10938,2.51562 h -7.76562 v -0.79687 l 1.09375,-0.10938 q 0.0312,-0.89062 0.0312,-1.79687 0,-0.92188 0,-1.84375 v -0.53125 q 0,-0.92188 0,-1.82813 0,-0.92187 -0.0312,-1.8125 z" />
    <path
       style="fill:#cfe2f3;fill-rule:evenodd"
       id="path89"
       d="m 237.07349,98.751495 v 0 c 0,-1.823593 1.47832,-3.301903 3.30191,-3.301903 h 52.26233 c 0.87573,0 1.71558,0.347878 2.33481,0.967102 0.61923,0.619225 0.9671,1.459076 0.9671,2.334801 v 13.207215 c 0,1.82359 -1.4783,3.3019 -3.30191,3.3019 H 240.3754 v 0 c -1.82359,0 -3.30191,-1.47831 -3.30191,-3.3019 z" />
    <path
       style="fill-rule:evenodd;stroke:#595959;stroke-width:1;stroke-linecap:butt;stroke-linejoin:round"
       id="path91"
       d="m 237.07349,98.751495 v 0 c 0,-1.823593 1.47832,-3.301903 3.30191,-3.301903 h 52.26233 c 0.87573,0 1.71558,0.347878 2.33481,0.967102 0.61923,0.619225 0.9671,1.459076 0.9671,2.334801 v 13.207215 c 0,1.82359 -1.4783,3.3019 -3.30191,3.3019 H 240.3754 v 0 c -1.82359,0 -3.30191,-1.47831 -3.30191,-3.3019 z" />
    <path
       style="fill:#202122;fill-rule:nonzero"
       id="path93"
       d="m 255.16397,110.32697 q -0.5625,0 -1.03125,-0.125 -0.46875,-0.125 -0.95313,-0.375 l -0.0625,-1.46875 h 0.73438 l 0.25,1.15625 q 0.46875,0.21875 1.07812,0.21875 0.76563,0 1.125,-0.28125 0.375,-0.28125 0.375,-0.73437 0,-0.42188 -0.3125,-0.6875 -0.29687,-0.26563 -0.92187,-0.46875 l -0.625,-0.23438 q -0.73438,-0.26562 -1.17188,-0.6875 -0.4375,-0.42187 -0.4375,-1.10937 0,-0.5 0.26563,-0.92188 0.26562,-0.42187 0.78125,-0.6875 0.53125,-0.26562 1.26562,-0.26562 0.54688,0 1,0.14062 0.45313,0.14063 0.875,0.40625 l -0.0625,1.35938 h -0.6875 l -0.21875,-1.07813 q -0.45312,-0.21875 -0.90625,-0.21875 -0.625,0 -0.9375,0.25 -0.3125,0.25 -0.3125,0.65625 0,0.4375 0.26563,0.67188 0.28125,0.21875 0.96875,0.46875 l 0.40625,0.15625 q 1,0.375 1.42187,0.85937 0.42188,0.46875 0.42188,1.09375 0,0.51563 -0.29688,0.95313 -0.29687,0.42187 -0.875,0.6875 -0.5625,0.26562 -1.42187,0.26562 z m 5.84689,0 q -0.6875,0 -1.10937,-0.375 -0.40625,-0.375 -0.40625,-1.14062 0,-0.25 0,-0.5 0,-0.25 0,-0.64063 v -3.14062 h -1.09375 v -0.57813 l 1.1875,-0.15625 0.34375,-1.78125 h 0.79687 l -0.0781,1.8125 h 1.79687 v 0.70313 h -1.8125 v 4.125 q 0,0.51562 0.20313,0.75 0.20312,0.23437 0.53125,0.23437 0.21875,0 0.42187,-0.0937 0.21875,-0.0937 0.46875,-0.26562 l 0.32813,0.34375 q -0.54688,0.70312 -1.57813,0.70312 z m 7.14411,-0.0312 q -0.48438,0 -0.8125,-0.28125 -0.3125,-0.28125 -0.39063,-0.75 -0.54687,0.53125 -0.96875,0.79688 -0.40625,0.26562 -0.98437,0.26562 -0.73438,0 -1.26563,-0.42187 -0.53125,-0.42188 -0.53125,-1.25 0,-0.375 0.17188,-0.70313 0.1875,-0.34375 0.67187,-0.65625 0.48438,-0.32812 1.375,-0.64062 0.3125,-0.10938 0.70313,-0.23438 0.40625,-0.125 0.79687,-0.20312 v -0.34375 q 0,-0.96875 -0.29687,-1.28125 -0.28125,-0.32813 -0.95313,-0.32813 -0.14062,0 -0.32812,0.0156 -0.17188,0.0156 -0.39063,0.0625 l -0.25,0.875 q -0.1875,0.625 -0.6875,0.625 -0.5625,0 -0.64062,-0.53125 0.1875,-0.76563 0.89062,-1.20313 0.70313,-0.45312 1.71875,-0.45312 1.04688,0 1.54688,0.53125 0.51562,0.51562 0.51562,1.78125 v 2.84375 q 0,0.42187 0.125,0.60937 0.14063,0.17188 0.35938,0.17188 0.17187,0 0.28125,-0.0781 0.125,-0.0781 0.23437,-0.21875 l 0.26563,0.29688 q -0.23438,0.39062 -0.53125,0.54687 -0.28125,0.15625 -0.625,0.15625 z m -3.76563,-1.82812 q 0,0.53125 0.3125,0.76562 0.3125,0.21875 0.76563,0.21875 0.1875,0 0.35937,-0.0469 0.1875,-0.0625 0.4375,-0.21875 0.26563,-0.15625 0.65625,-0.4375 v -2.04688 q -0.34375,0.0937 -0.67187,0.21875 -0.32813,0.10938 -0.54688,0.1875 -0.57812,0.21875 -0.85937,0.46875 -0.28125,0.23438 -0.375,0.46875 -0.0781,0.21875 -0.0781,0.42188 z m 7.73712,1.85937 q -0.6875,0 -1.10937,-0.375 -0.40625,-0.375 -0.40625,-1.14062 0,-0.25 0,-0.5 0,-0.25 0,-0.64063 v -3.14062 h -1.09375 v -0.57813 l 1.1875,-0.15625 0.34375,-1.78125 h 0.79687 l -0.0781,1.8125 h 1.79687 v 0.70313 h -1.8125 v 4.125 q 0,0.51562 0.20313,0.75 0.20312,0.23437 0.53125,0.23437 0.21875,0 0.42187,-0.0937 0.21875,-0.0937 0.46875,-0.26562 l 0.32813,0.34375 q -0.54688,0.70312 -1.57813,0.70312 z m 5.17539,-6.0625 q -0.35938,0 -0.75,0.21875 -0.375,0.20313 -0.65625,0.67188 -0.26563,0.46875 -0.34375,1.23437 h 2.42187 q 0.48438,0 0.625,-0.1875 0.15625,-0.20312 0.15625,-0.5 0,-0.39062 -0.1875,-0.70312 -0.1875,-0.32813 -0.51562,-0.53125 -0.32813,-0.20313 -0.75,-0.20313 z m 0,6.0625 q -1.35938,0 -2.17188,-0.875 -0.8125,-0.875 -0.8125,-2.40625 0,-1.01562 0.42188,-1.78125 0.42187,-0.76562 1.125,-1.1875 0.70312,-0.42187 1.53125,-0.42187 0.6875,0 1.25,0.3125 0.5625,0.29687 0.89062,0.85937 0.32813,0.5625 0.32813,1.39063 0,0.21875 -0.0312,0.42187 -0.0156,0.1875 -0.0625,0.3125 h -4.25 q 0.0312,1.23438 0.60937,1.875 0.59375,0.64063 1.54688,0.64063 0.64062,0 1.0625,-0.26563 0.4375,-0.26562 0.79687,-0.67187 l 0.3125,0.25 q -0.375,0.70312 -1.01562,1.125 -0.625,0.42187 -1.53125,0.42187 z" />
    <path
       style="fill:#000000;fill-opacity:0;fill-rule:evenodd"
       id="path95"
       d="m 237.07349,130.34015 h 18.39371 v 7.33858 h -18.39371 z" />
    <path
       style="fill:#000000;fill-opacity:0;fill-rule:evenodd"
       id="path97"
       d="m 237.07349,138.79947 h 18.39371 v 7.33858 h -18.39371 z" />
    <path
       style="fill:#000000;fill-opacity:0;fill-rule:evenodd"
       id="path99"
       d="m 237.07349,147.25879 h 18.39371 v 7.33858 h -18.39371 z" />
    <path
       style="fill:#000000;fill-opacity:0;fill-rule:evenodd"
       id="path101"
       d="m 277.54593,130.34015 h 18.39371 v 7.33858 h -18.39371 z" />
    <path
       style="fill:#000000;fill-opacity:0;fill-rule:evenodd"
       id="path103"
       d="m 277.54593,138.79947 h 18.39371 v 7.33858 h -18.39371 z" />
    <path
       style="fill:#000000;fill-opacity:0;fill-rule:evenodd"
       id="path105"
       d="m 277.54593,147.25879 h 18.39371 v 7.33858 h -18.39371 z" />
    <path
       style="fill:#000000;fill-opacity:0;fill-rule:evenodd"
       id="path107"
       d="m 295.93964,134.00945 h 11.7244 v -28.66142 h -11.66141" />
    <path
       style="fill-rule:evenodd;stroke:#595959;stroke-width:1;stroke-linecap:butt;stroke-linejoin:round"
       id="path109"
       d="m 295.93964,134.00945 h 11.7244 v -28.66142 h -5.66141" />
    <path
       style="fill:#595959;fill-rule:evenodd;stroke:#595959;stroke-width:1;stroke-linecap:butt"
       id="path111"
       d="m 302.00262,103.6963 -4.53809,1.65173 4.53809,1.65173 z" />
    <path
       style="fill:#000000;fill-opacity:0;fill-rule:evenodd"
       id="path113"
       d="m 237.07349,105.3551 h -11.5958 v 28.66142 h 11.6588" />
    <path
       style="fill-rule:evenodd;stroke:#595959;stroke-width:1;stroke-linecap:butt;stroke-linejoin:round"
       id="path115"
       d="m 237.07349,105.3551 h -11.5958 v 28.66141 h 5.6588" />
    <path
       style="fill:#595959;fill-rule:evenodd;stroke:#595959;stroke-width:1;stroke-linecap:butt"
       id="path117"
       d="m 231.13649,135.66824 4.53809,-1.65173 -4.53809,-1.65172 z" />
    <path
       style="fill:#000000;fill-opacity:0;fill-rule:evenodd"
       id="path119"
       d="m 328.60486,150.92627 c -8.16632,0 -12.25,0.0158 -16.33267,0.0315 -4.08267,0.0157 -8.16437,0.0315 -16.32874,0.0315" />
    <path
       style="fill-rule:evenodd;stroke:#1c4587;stroke-width:1;stroke-linecap:butt;stroke-linejoin:round"
       id="path121"
       d="m 328.60486,150.92627 c -8.16632,0 -12.25,0.0158 -16.33267,0.0315 -2.04135,0.008 -4.08243,0.0157 -6.63373,0.0217 l -3.69501,0.006" />
    <path
       style="fill:#1c4587;fill-rule:evenodd;stroke:#1c4587;stroke-width:1;stroke-linecap:butt"
       id="path123"
       d="m 301.94244,149.33385 -4.53711,1.65451 4.53912,1.64896 z" />
    <path
       style="fill:#000000;fill-opacity:0;fill-rule:evenodd"
       id="path125"
       d="m 237.07349,150.92807 c -8.16371,0 -12.24477,0.0157 -16.32744,0.0315 -4.08267,0.0158 -8.16699,0.0315 -16.33397,0.0315" />
    <path
       style="fill-rule:evenodd;stroke:#1c4587;stroke-width:1;stroke-linecap:butt;stroke-linejoin:round"
       id="path127"
       d="m 237.07349,150.92809 c -8.16371,0 -12.24477,0.0157 -16.32744,0.0315 -2.04135,0.008 -4.0831,0.0158 -6.63536,0.0217 l -3.69861,0.006" />
    <path
       style="fill:#1c4587;fill-rule:evenodd;stroke:#1c4587;stroke-width:1;stroke-linecap:butt"
       id="path129"
       d="m 210.41106,149.33566 -4.53708,1.65451 4.53911,1.64896 z" />
    <path
       style="fill:#000000;fill-opacity:0;fill-rule:evenodd"
       id="path131"
       d="m 204.39815,121.08078 h 12.79871 v 21.38582 h 19.86271" />
    <path
       style="fill-rule:evenodd;stroke:#595959;stroke-width:1;stroke-linecap:butt;stroke-linejoin:round"
       id="path133"
       d="m 204.39815,121.08078 h 12.79871 v 21.38583 h 13.86271" />
    <path
       style="fill:#595959;fill-rule:evenodd;stroke:#595959;stroke-width:1;stroke-linecap:butt"
       id="path135"
       d="m 231.05957,144.11835 4.5381,-1.65173 -4.5381,-1.65174 z" />
    <path
       style="fill:#000000;fill-opacity:0;fill-rule:evenodd"
       id="path137"
       d="m 295.93964,142.46877 h 19.53815 v -21.38583 h 13.09176" />
    <path
       style="fill-rule:evenodd;stroke:#595959;stroke-width:1;stroke-linecap:butt;stroke-linejoin:round"
       id="path139"
       d="m 295.93964,142.46877 h 19.53815 v -21.38583 h 7.09176" />
    <path
       style="fill:#595959;fill-rule:evenodd;stroke:#595959;stroke-width:1;stroke-linecap:butt"
       id="path141"
       d="m 322.56955,122.73467 4.53812,-1.65174 -4.53812,-1.65173 z" />
  </g>
</svg>
