<?xml version="1.0" encoding="UTF-8" standalone="no"?>
<svg
   xmlns:dc="http://purl.org/dc/elements/1.1/"
   xmlns:cc="http://creativecommons.org/ns#"
   xmlns:rdf="http://www.w3.org/1999/02/22-rdf-syntax-ns#"
   xmlns:svg="http://www.w3.org/2000/svg"
   xmlns="http://www.w3.org/2000/svg"
   style="fill:none;stroke:none;stroke-linecap:square;stroke-miterlimit:10"
   height="108.49606"
   width="438.25983"
   id="svg329"
   stroke-miterlimit="10"
   viewBox="0 0 438.25983 108.49606"
   version="1.1">
  <metadata
     id="metadata335">
    <rdf:RDF>
      <cc:Work
         rdf:about="">
        <dc:format>image/svg+xml</dc:format>
        <dc:type
           rdf:resource="http://purl.org/dc/dcmitype/StillImage" />
        <dc:title></dc:title>
      </cc:Work>
    </rdf:RDF>
  </metadata>
  <defs
     id="defs333" />
  <clipPath
     id="g28937a38c67_1_0.0">
    <path
       style="clip-rule:nonzero"
       id="path2"
       d="M 0,0 H 960 V 540 H 0 Z" />
  </clipPath>
  <g
     transform="translate(-496.458,-183.62466)"
     id="g327"
     clip-path="url(#g28937a38c67_1_0.0)">
    <path
       style="fill:#d9d9d9;fill-rule:evenodd"
       id="path271"
       d="m 685.5105,209.47638 h 124.15747 v 76.50394 H 685.5105 Z" />
    <path
       style="fill-rule:evenodd;stroke:#595959;stroke-width:1;stroke-linecap:butt;stroke-linejoin:round"
       id="path273"
       d="m 685.5105,209.47638 h 124.15747 v 76.50394 H 685.5105 Z" />
    <path
       style="fill:#000000;fill-opacity:0;fill-rule:evenodd"
       id="path275"
       d="m 623.52234,221.60832 h 61.98425 v 14.86613 h -61.98425 z" />
    <path
       style="fill:#202122;fill-rule:nonzero"
       id="path277"
       d="m 642.82916,233.47758 q -0.78125,0 -1.51563,-0.29688 -0.71875,-0.3125 -1.3125,-0.89062 -0.57812,-0.59375 -0.92187,-1.45313 -0.34375,-0.875 -0.34375,-2.03125 0,-1.09375 0.34375,-1.95312 0.34375,-0.875 0.92187,-1.46875 0.59375,-0.59375 1.3125,-0.90625 0.73438,-0.3125 1.51563,-0.3125 0.76562,0 1.48437,0.29687 0.73438,0.29688 1.3125,0.89063 0.59375,0.57812 0.9375,1.45312 0.34375,0.85938 0.34375,2 0,1.09375 -0.34375,1.96875 -0.34375,0.85938 -0.92187,1.46875 -0.57813,0.60938 -1.3125,0.92188 -0.73438,0.3125 -1.5,0.3125 z m 0,-0.67188 q 0.6875,0 1.1875,-0.32812 0.5,-0.34375 0.8125,-0.90625 0.3125,-0.57813 0.45312,-1.28125 0.15625,-0.71875 0.15625,-1.48438 0,-0.75 -0.15625,-1.45312 -0.14062,-0.71875 -0.45312,-1.28125 -0.3125,-0.57813 -0.8125,-0.90625 -0.5,-0.34375 -1.1875,-0.34375 -0.6875,0 -1.1875,0.34375 -0.5,0.32812 -0.82813,0.90625 -0.3125,0.5625 -0.46875,1.28125 -0.15625,0.70312 -0.15625,1.45312 0,0.76563 0.15625,1.48438 0.15625,0.70312 0.46875,1.28125 0.32813,0.5625 0.82813,0.90625 0.5,0.32812 1.1875,0.32812 z m 5.17297,3.65625 v -0.46875 l 1.0625,-0.1875 q 0.0156,-0.54687 0.0156,-1.09375 0.0156,-0.53125 0.0156,-1.0625 v -3.8125 q 0,-0.54687 -0.0156,-0.90625 0,-0.35937 -0.0312,-0.76562 l -1.04688,-0.10938 v -0.46875 l 1.85938,-0.8125 0.20312,0.125 0.0781,0.875 q 0.95312,-1 2.01562,-1 0.71875,0 1.28125,0.40625 0.57813,0.39063 0.92188,1.14063 0.34375,0.73437 0.34375,1.76562 0,1.03125 -0.35938,1.78125 -0.35937,0.75 -0.98437,1.17188 -0.60938,0.40625 -1.40625,0.40625 -0.45313,0 -0.90625,-0.1875 -0.4375,-0.1875 -0.85938,-0.67188 v 1.04688 q 0,0.53125 0,1.0625 0.0156,0.54687 0.0156,1.09375 l 1.21875,0.20312 v 0.46875 z m 3.84375,-8.9375 q -0.3125,0 -0.71875,0.15625 -0.39062,0.15625 -0.90625,0.57813 v 3.75 q 0.375,0.35937 0.73438,0.51562 0.35937,0.15625 0.73437,0.15625 0.75,0 1.28125,-0.59375 0.53125,-0.59375 0.53125,-1.89062 0,-1.28125 -0.46875,-1.96875 -0.46875,-0.70313 -1.1875,-0.70313 z m 6.05878,5.92188 q -0.6875,0 -1.10937,-0.375 -0.40625,-0.375 -0.40625,-1.14063 0,-0.25 0,-0.5 0,-0.25 0,-0.64062 v -3.14063 h -1.09375 v -0.57812 l 1.1875,-0.15625 0.34375,-1.78125 h 0.79687 l -0.0781,1.8125 h 1.79687 v 0.70312 h -1.8125 v 4.125 q 0,0.51563 0.20313,0.75 0.20312,0.23438 0.53125,0.23438 0.21875,0 0.42187,-0.0937 0.21875,-0.0937 0.46875,-0.26563 l 0.32813,0.34375 q -0.54688,0.70313 -1.57813,0.70313 z m 2.36285,-4.25 v -0.625 l 5.15625,-3 0.39063,0.71875 -4.625,2.59375 4.625,2.59375 -0.39063,0.71875 z m 10.24909,-4.21875 h -0.8125 q 0,0.84375 -0.0156,1.73437 0,0.89063 0,1.78125 v 0.64063 h 0.875 q 1.21875,0 1.73438,-0.59375 0.51562,-0.59375 0.51562,-1.53125 0,-0.96875 -0.5625,-1.5 -0.54687,-0.53125 -1.73437,-0.53125 z m -3.34375,-0.0781 v -0.54687 h 3.57812 q 1.6875,0 2.53125,0.75 0.85938,0.73437 0.85938,1.90625 0,0.75 -0.375,1.375 -0.375,0.625 -1.20313,1 -0.8125,0.375 -2.1875,0.375 h -0.6875 q 0,0.71875 0,1.42187 0.0156,0.6875 0.0156,1.40625 l 1.25,0.14063 v 0.54687 h -3.78125 v -0.54687 l 1.21875,-0.14063 q 0.0312,-0.84375 0.0312,-1.70312 0,-0.875 0,-1.73438 v -0.65625 q 0,-0.875 0,-1.73437 0,-0.85938 -0.0312,-1.70313 z m 13.56903,3.67188 v 0.625 l -5.15625,3 -0.39063,-0.71875 4.625,-2.59375 -4.625,-2.59375 0.39063,-0.71875 z" />
    <path
       style="fill:#000000;fill-opacity:0;fill-rule:evenodd"
       id="path279"
       d="m 634.40265,241.16083 h 51.10553" />
    <path
       style="fill-rule:evenodd;stroke:#595959;stroke-width:2;stroke-linecap:butt;stroke-linejoin:round"
       id="path281"
       d="m 634.40265,241.16083 h 39.10553" />
    <path
       style="fill:#595959;fill-rule:evenodd;stroke:#595959;stroke-width:2;stroke-linecap:butt"
       id="path283"
       d="m 673.5082,244.4643 9.07617,-3.30347 -9.07617,-3.30346 z" />
    <path
       style="fill:#000000;fill-opacity:0;fill-rule:evenodd"
       id="path285"
       d="m 634.40265,235.21002 h 18.39801 v 11.90161 h -18.39801 z" />
    <path
       style="fill:#000000;fill-opacity:0;fill-rule:evenodd"
       id="path287"
       d="m 667.0894,235.21002 h 18.39795 v 11.90161 H 667.0894 Z" />
    <path
       style="fill:#000000;fill-opacity:0;fill-rule:evenodd"
       id="path289"
       d="M 685.50745,271.00632 H 634.40192" />
    <path
       style="fill-rule:evenodd;stroke:#1c4587;stroke-width:2;stroke-linecap:butt;stroke-linejoin:round"
       id="path291"
       d="M 685.50745,271.00632 H 646.40192" />
    <path
       style="fill:#1c4587;fill-rule:evenodd;stroke:#1c4587;stroke-width:2;stroke-linecap:butt"
       id="path293"
       d="m 646.4019,267.70285 -9.07617,3.30347 9.07617,3.30346 z" />
    <path
       style="fill:#000000;fill-opacity:0;fill-rule:evenodd"
       id="path295"
       d="m 634.42377,265.0555 h 18.39795 v 11.90161 h -18.39795 z" />
    <path
       style="fill:#000000;fill-opacity:0;fill-rule:evenodd"
       id="path297"
       d="m 667.11017,265.0555 h 18.39801 v 11.90161 h -18.39801 z" />
    <path
       style="fill:#000000;fill-opacity:0;fill-rule:evenodd"
       id="path299"
       d="m 596.3412,250.4252 h 89.1654 v 14.86615 h -89.1654 z" />
    <path
       style="fill:#202122;fill-rule:nonzero"
       id="path301"
       d="m 615.5518,258.3882 q 0,1.0625 0.1875,2 0.1875,0.92187 0.64062,1.875 0.45313,0.95312 1.23438,2.07812 l -0.34375,0.3125 q -1.42188,-1.32812 -2.10938,-2.875 -0.67187,-1.5625 -0.67187,-3.39062 0,-1.82813 0.67187,-3.39063 0.6875,-1.5625 2.10938,-2.875 l 0.34375,0.3125 q -0.78125,1.125 -1.23438,2.07813 -0.45312,0.95312 -0.64062,1.89062 -0.1875,0.92188 -0.1875,1.98438 z" />
    <path
       style="fill:#202122;fill-rule:nonzero"
       id="path303"
       d="m 624.2419,257.40384 q 0.8125,0.21875 1.32812,0.84375 0.53125,0.60937 0.53125,1.45312 0,1.15625 -1.04687,1.78125 -1.03125,0.60938 -2.5625,0.60938 h -3.96875 q -0.23438,0 -0.23438,-0.25 0,-0.25 0.4375,-0.25 0.46875,0 0.625,-0.125 0.17188,-0.14063 0.17188,-0.59375 v -6.3125 q 0,-0.5 -0.20313,-0.60938 -0.20312,-0.10937 -0.79687,-0.10937 -0.23438,0 -0.23438,-0.25 0,-0.25 0.23438,-0.25 h 3.96875 q 3.10937,0 3.10937,2.25 0,1.10937 -1.35937,1.8125 z m 0.89062,-1.8125 q 0,-1.48438 -1.70312,-1.70313 0.54687,0.625 0.54687,1.70313 0,1.21875 -0.6875,1.75 1.84375,-0.875 1.84375,-1.75 z m -1.64062,0 q 0,-0.76563 -0.32813,-1.25 -0.32812,-0.5 -0.92187,-0.5 -0.28125,0 -0.5,0.14062 -0.20313,0.125 -0.20313,0.34375 v 3 q 0.96875,0 1.45313,-0.375 0.5,-0.375 0.5,-1.35937 z m 2.125,4.10937 q 0,-0.8125 -0.51563,-1.25 -0.51562,-0.4375 -1.42187,-0.70312 0.6875,0.53125 0.6875,1.95312 0,1.09375 -0.54688,1.75 1.79688,-0.45312 1.79688,-1.75 z m -4.07813,1.42188 q 0,0.21875 0.20313,0.34375 0.21875,0.125 0.5,0.125 1.64062,0 1.64062,-1.89063 0,-0.98437 -0.375,-1.4375 -0.35937,-0.45312 -1.26562,-0.45312 h -0.70313 z m -0.34375,-7.28125 h -1.3125 q 0.125,0.25 0.125,0.71875 v 6.3125 q 0,0.46875 -0.125,0.71875 h 1.3125 q -0.14062,-0.21875 -0.14062,-0.46875 v -6.79688 q 0,-0.26562 0.14062,-0.48437 z" />
    <path
       style="fill:#202122;fill-rule:nonzero"
       id="path305"
       d="m 629.3321,261.7007 q 0,0.79687 -0.39063,1.46875 -0.375,0.6875 -0.96875,1.17187 -0.57812,0.5 -1.21875,0.73438 l -0.1875,-0.45313 q 0.6875,-0.34375 1.20313,-0.84375 0.51562,-0.48437 0.76562,-1.23437 l -0.5,-0.39063 q -0.26562,-0.20312 -0.39062,-0.45312 -0.10938,-0.25 -0.10938,-0.5 0,-0.34375 0.20313,-0.59375 0.20312,-0.25 0.60937,-0.25 0.1875,0 0.375,0.0781 0.20313,0.0781 0.45313,0.3125 0.0781,0.25 0.10937,0.48438 0.0469,0.23437 0.0469,0.46875 z m 8.97882,0.59375 q -0.78125,0 -1.51562,-0.29688 -0.71875,-0.3125 -1.3125,-0.89062 -0.57813,-0.59375 -0.92188,-1.45313 -0.34375,-0.875 -0.34375,-2.03125 0,-1.09375 0.34375,-1.95312 0.34375,-0.875 0.92188,-1.46875 0.59375,-0.59375 1.3125,-0.90625 0.73437,-0.3125 1.51562,-0.3125 0.76563,0 1.48438,0.29687 0.73437,0.29688 1.3125,0.89063 0.59375,0.57812 0.9375,1.45312 0.34375,0.85938 0.34375,2 0,1.09375 -0.34375,1.96875 -0.34375,0.85938 -0.92188,1.46875 -0.57812,0.60938 -1.3125,0.92188 -0.73437,0.3125 -1.5,0.3125 z m 0,-0.67188 q 0.6875,0 1.1875,-0.32812 0.5,-0.34375 0.8125,-0.90625 0.3125,-0.57813 0.45313,-1.28125 0.15625,-0.71875 0.15625,-1.48438 0,-0.75 -0.15625,-1.45312 -0.14063,-0.71875 -0.45313,-1.28125 -0.3125,-0.57813 -0.8125,-0.90625 -0.5,-0.34375 -1.1875,-0.34375 -0.6875,0 -1.1875,0.34375 -0.5,0.32812 -0.82812,0.90625 -0.3125,0.5625 -0.46875,1.28125 -0.15625,0.70312 -0.15625,1.45312 0,0.76563 0.15625,1.48438 0.15625,0.70312 0.46875,1.28125 0.32812,0.5625 0.82812,0.90625 0.5,0.32812 1.1875,0.32812 z m 5.17297,3.65625 v -0.46875 l 1.0625,-0.1875 q 0.0156,-0.54687 0.0156,-1.09375 0.0156,-0.53125 0.0156,-1.0625 v -3.8125 q 0,-0.54687 -0.0156,-0.90625 0,-0.35937 -0.0312,-0.76562 l -1.04688,-0.10938 v -0.46875 l 1.85938,-0.8125 0.20312,0.125 0.0781,0.875 q 0.95312,-1 2.01562,-1 0.71875,0 1.28125,0.40625 0.57813,0.39063 0.92188,1.14063 0.34375,0.73437 0.34375,1.76562 0,1.03125 -0.35938,1.78125 -0.35937,0.75 -0.98437,1.17188 -0.60938,0.40625 -1.40625,0.40625 -0.45313,0 -0.90625,-0.1875 -0.4375,-0.1875 -0.85938,-0.67188 v 1.04688 q 0,0.53125 0,1.0625 0.0156,0.54687 0.0156,1.09375 l 1.21875,0.20312 v 0.46875 z m 3.84375,-8.9375 q -0.3125,0 -0.71875,0.15625 -0.39062,0.15625 -0.90625,0.57813 v 3.75 q 0.375,0.35937 0.73438,0.51562 0.35937,0.15625 0.73437,0.15625 0.75,0 1.28125,-0.59375 0.53125,-0.59375 0.53125,-1.89062 0,-1.28125 -0.46875,-1.96875 -0.46875,-0.70313 -1.1875,-0.70313 z m 6.05878,5.92188 q -0.6875,0 -1.10937,-0.375 -0.40625,-0.375 -0.40625,-1.14063 0,-0.25 0,-0.5 0,-0.25 0,-0.64062 v -3.14063 h -1.09375 v -0.57812 l 1.1875,-0.15625 0.34375,-1.78125 h 0.79687 l -0.0781,1.8125 h 1.79687 v 0.70312 h -1.8125 v 4.125 q 0,0.51563 0.20313,0.75 0.20312,0.23438 0.53125,0.23438 0.21875,0 0.42187,-0.0937 0.21875,-0.0937 0.46875,-0.26563 l 0.32813,0.34375 q -0.54688,0.70313 -1.57813,0.70313 z m 2.36292,-4.25 v -0.625 l 5.15625,-3 0.39062,0.71875 -4.625,2.59375 4.625,2.59375 -0.39062,0.71875 z m 10.24908,-4.21875 h -0.8125 q 0,0.84375 -0.0156,1.73437 0,0.89063 0,1.78125 v 0.64063 h 0.875 q 1.21875,0 1.73437,-0.59375 0.51563,-0.59375 0.51563,-1.53125 0,-0.96875 -0.5625,-1.5 -0.54688,-0.53125 -1.73438,-0.53125 z m -3.34375,-0.0781 v -0.54687 h 3.57813 q 1.6875,0 2.53125,0.75 0.85937,0.73437 0.85937,1.90625 0,0.75 -0.375,1.375 -0.375,0.625 -1.20312,1 -0.8125,0.375 -2.1875,0.375 h -0.6875 q 0,0.71875 0,1.42187 0.0156,0.6875 0.0156,1.40625 l 1.25,0.14063 v 0.54687 h -3.78125 v -0.54687 l 1.21875,-0.14063 q 0.0312,-0.84375 0.0312,-1.70312 0,-0.875 0,-1.73438 v -0.65625 q 0,-0.875 0,-1.73437 0,-0.85938 -0.0312,-1.70313 z m 13.56897,3.67188 v 0.625 l -5.15625,3 -0.39062,-0.71875 4.625,-2.59375 -4.625,-2.59375 0.39062,-0.71875 z m 3.15534,1 q 0,-1.0625 -0.1875,-1.98438 -0.1875,-0.9375 -0.64063,-1.89062 -0.4375,-0.95313 -1.23437,-2.07813 l 0.35937,-0.3125 q 1.40625,1.3125 2.07813,2.875 0.6875,1.5625 0.6875,3.39063 0,1.82812 -0.6875,3.39062 -0.67188,1.54688 -2.07813,2.875 l -0.35937,-0.3125 q 0.79687,-1.125 1.23437,-2.07812 0.45313,-0.95313 0.64063,-1.875 0.1875,-0.9375 0.1875,-2 z" />
    <path
       style="fill:#000000;fill-opacity:0;fill-rule:evenodd"
       id="path307"
       d="m 685.5092,180.92258 h 124.15747 v 27.87401 H 685.5092 Z" />
    <path
       style="fill:#202122;fill-rule:nonzero"
       id="path309"
       d="m 736.05524,200.35834 q -1.39062,0 -2.54687,-0.67188 l 0.0469,-1.79687 h 1.17188 l 0.25,1.45312 q 0.26562,0.10938 0.53125,0.15625 0.26562,0.0469 0.5625,0.0469 0.64062,0 0.96875,-0.20313 0.34375,-0.21875 0.34375,-0.65625 0,-0.32812 -0.25,-0.57812 -0.25,-0.25 -0.98438,-0.45313 l -0.79687,-0.23437 q -0.84375,-0.25 -1.3125,-0.8125 -0.45313,-0.5625 -0.45313,-1.375 0,-1.01563 0.78125,-1.70313 0.79688,-0.70312 2.28125,-0.70312 0.64063,0 1.1875,0.15625 0.54688,0.15625 1.125,0.4375 l -0.0937,1.60937 h -1.1875 l -0.28125,-1.26562 q -0.3125,-0.125 -0.8125,-0.125 -0.5,0 -0.79687,0.21875 -0.29688,0.20312 -0.29688,0.60937 0,0.29688 0.23438,0.53125 0.23437,0.21875 1,0.45313 l 0.71875,0.20312 q 1.03125,0.3125 1.48437,0.89063 0.45313,0.5625 0.45313,1.375 0,1.15625 -0.89063,1.79687 -0.875,0.64063 -2.4375,0.64063 z m 4.06311,-0.21875 v -0.6875 l 0.79688,-0.17188 q 0.0156,-0.53125 0.0156,-1.14062 0,-0.625 0,-1.07813 v -0.70312 q 0,-0.59375 -0.0156,-1 0,-0.40625 -0.0312,-0.84375 l -0.90625,-0.14063 v -0.5625 l 3.07812,-0.98437 0.25,0.15625 -0.0469,2.125 v 1.95312 q 0,0.45313 0,1.07813 0,0.625 0.0156,1.17187 l 0.73438,0.14063 v 0.6875 z m 1.95313,-8.39063 q -0.51563,0 -0.89063,-0.32812 -0.35937,-0.34375 -0.35937,-0.84375 0,-0.5 0.35937,-0.82813 0.375,-0.34375 0.89063,-0.34375 0.51562,0 0.875,0.34375 0.375,0.32813 0.375,0.82813 0,0.5 -0.375,0.84375 -0.35938,0.32812 -0.875,0.32812 z m 2.64697,8.39063 v -0.6875 l 0.79687,-0.17188 q 0.0156,-0.53125 0.0156,-1.14062 0,-0.625 0,-1.07813 v -0.84375 q 0,-0.60937 -0.0156,-0.9375 0,-0.32812 -0.0312,-0.76562 l -0.89062,-0.14063 v -0.5625 l 2.89062,-0.98437 0.25,0.15625 0.0937,1.0625 q 0.57813,-0.67188 1.14063,-0.9375 0.56256,-0.28125 1.20318,-0.28125 0.95313,0 1.53125,0.64062 0.57813,0.625 0.57813,1.875 v 1.71875 q 0,0.48438 0,1.09375 0,0.60938 0.0156,1.15625 l 0.73438,0.14063 v 0.6875 h -3.87506 v -0.6875 l 0.76568,-0.15625 q 0.0156,-0.54688 0.0156,-1.15625 0,-0.60938 0,-1.07813 v -1.53125 q 0,-0.70312 -0.1875,-0.98437 -0.1875,-0.29688 -0.60944,-0.29688 -0.57812,0 -1.26562,0.53125 v 2.28125 q 0,0.45313 0,1.07813 0,0.625 0.0156,1.17187 l 0.6875,0.14063 v 0.6875 z m 8.99707,0 v -0.6875 l 0.82812,-0.17188 q 0.0156,-0.54687 0.0156,-1.15625 0,-0.625 0,-1.0625 v -6.14062 l -0.90625,-0.14063 v -0.625 l 3.07812,-0.65625 0.23438,0.14063 -0.0625,2.0625 v 4.5 l 2.375,-2.32813 -1.10938,-0.17187 v -0.64063 h 3.53125 v 0.64063 l -1.32812,0.1875 -1.28125,1.21875 2.0625,4.125 0.9375,0.21875 v 0.6875 h -2.98438 l -1.65625,-3.5 -0.54687,0.51562 q 0,0.48438 0,1.0625 0.0156,0.57813 0.0156,1.07813 l 0.79688,0.15625 v 0.6875 z" />
    <path
       style="fill:#000000;fill-opacity:0;fill-rule:evenodd"
       id="path311"
       d="m 485.17322,229.18898 h 149.25983 v 23.93701 H 485.17322 Z" />
    <path
       style="fill:#202122;fill-rule:nonzero"
       id="path313"
       d="m 502.89685,238.09373 v -0.78125 h 4.71875 v 0.78125 l -1.09375,0.125 q -0.0156,0.89062 -0.0312,1.79687 0,0.90625 0,1.84375 v 0.51563 q 0,0.90625 0,1.82812 0.0156,0.92188 0.0312,1.82813 l 1.09375,0.10937 v 0.79688 h -4.71875 v -0.79688 l 1.09375,-0.10937 q 0.0312,-0.89063 0.0312,-1.79688 0,-0.92187 0,-1.84375 v -0.53125 q 0,-0.92187 0,-1.82812 0,-0.92188 -0.0312,-1.8125 z m 5.76477,4.65625 v -1.10938 l 6.125,-3.15625 0.625,1.25 -5.03125,2.45313 5.03125,2.46875 -0.625,1.25 z m 13.8949,-4.6875 v -0.75 h 3.17187 v 0.78125 l -1.09375,0.1875 -3.01562,8.6875 h -1.42188 l -3.15625,-8.78125 -0.84375,-0.0937 v -0.78125 h 4.71875 v 0.75 l -1.25,0.15625 2,6.03125 2.03125,-6 z m 2.61139,8.875 v -0.6875 l 0.8125,-0.15625 q 0.0156,-0.54688 0.0156,-1.15625 0,-0.625 0,-1.07813 v -0.85937 q 0,-0.42188 -0.0156,-0.67188 0,-0.26562 -0.0156,-0.48437 0,-0.23438 -0.0156,-0.53125 l -0.89063,-0.14063 v -0.5625 l 2.89063,-0.98437 0.25,0.15625 0.14062,1.73437 q 0.3125,-0.9375 0.85938,-1.40625 0.5625,-0.48437 1.10937,-0.48437 0.48438,0 0.82813,0.28125 0.35937,0.26562 0.4375,0.79687 -0.0156,0.57813 -0.3125,0.89063 -0.28125,0.3125 -0.71875,0.3125 -0.625,0 -1.14063,-0.6875 l -0.0781,-0.10938 q -0.32813,0.29688 -0.60938,0.76563 -0.26562,0.46875 -0.375,0.98437 v 1 q 0,0.45313 0,1.04688 0,0.57812 0.0156,1.09375 l 1.15625,0.25 v 0.6875 z m 12.13794,-8.84375 v -0.78125 h 4.64062 v 0.78125 l -1.09375,0.125 q -0.0156,0.89062 -0.0312,1.79687 0,0.90625 0,1.84375 v 0.53125 q 0,0.89063 0,1.8125 0.0156,0.92188 0.0312,1.82813 l 1.09375,0.10937 v 0.79688 h -4.64062 v -0.79688 l 1.03125,-0.0937 q 0.0312,-0.90625 0.0312,-1.8125 0,-0.92187 0,-1.8125 h -3.125 q 0,0.98438 0,1.875 0.0156,0.875 0.0312,1.75 l 1.01562,0.0937 v 0.79688 h -4.60937 v -0.79688 l 1.0625,-0.10937 q 0.0312,-0.89063 0.0312,-1.79688 0,-0.92187 0,-1.84375 v -0.53125 q 0,-0.92187 0,-1.82812 0,-0.90625 -0.0312,-1.8125 l -1.0625,-0.125 v -0.78125 h 4.60937 v 0.78125 l -1.01562,0.10937 q -0.0156,0.89063 -0.0312,1.78125 0,0.875 0,1.57813 h 3.125 q 0,-0.84375 0,-1.6875 0,-0.84375 -0.0312,-1.67188 z m 5.66522,4.65625 v -1.10938 l 6.125,-3.15625 0.625,1.25 -5.03125,2.45313 5.03125,2.46875 -0.625,1.25 z m 11.84802,-4.59375 h -0.32813 q -0.0156,0.90625 -0.0312,1.82812 0,0.92188 0,1.875 v 0.57813 h 0.42188 q 0.96875,0 1.45312,-0.625 0.48438,-0.625 0.48438,-1.60938 0,-1.01562 -0.53125,-1.53125 -0.51563,-0.51562 -1.46875,-0.51562 z m -3.95313,-0.0625 v -0.78125 h 3.98438 q 1.53125,0 2.46875,0.35937 0.9375,0.35938 1.35937,1.01563 0.4375,0.64062 0.4375,1.51562 0,0.84375 -0.40625,1.54688 -0.40625,0.6875 -1.32812,1.10937 -0.92188,0.40625 -2.51563,0.40625 h -0.40625 q 0,0.625 0,1.32813 0.0156,0.6875 0.0312,1.42187 l 1.29688,0.125 v 0.79688 h -4.92188 v -0.79688 l 1.09375,-0.10937 q 0.0312,-0.89063 0.0312,-1.79688 0,-0.92187 0,-1.84375 v -0.53125 q 0,-0.92187 0,-1.82812 0,-0.92188 -0.0312,-1.8125 z m 10.19501,8.01562 q 0,1 -0.46875,1.78125 -0.45312,0.78125 -1.15625,1.28125 -0.6875,0.5 -1.39062,0.71875 l -0.20313,-0.60937 q 0.73438,-0.375 1.20313,-0.89063 0.48437,-0.51562 0.75,-1.09375 l -0.51563,-0.26562 q -0.45312,-0.25 -0.64062,-0.57813 -0.1875,-0.34375 -0.1875,-0.65625 0,-0.54687 0.35937,-0.90625 0.375,-0.375 0.9375,-0.375 0.3125,0 0.5625,0.0937 0.26563,0.0781 0.53125,0.3125 0.14063,0.34375 0.17188,0.60938 0.0469,0.25 0.0469,0.57812 z m 9.18958,1.10938 q -0.90625,0 -1.75,-0.3125 -0.82813,-0.32813 -1.48438,-0.95313 -0.64062,-0.64062 -1.03125,-1.59375 -0.375,-0.95312 -0.375,-2.25 0,-1.25 0.375,-2.20312 0.39063,-0.95313 1.04688,-1.59375 0.65625,-0.64063 1.48437,-0.95313 0.84375,-0.32812 1.73438,-0.32812 0.90625,0 1.73437,0.3125 0.82813,0.3125 1.48438,0.95312 0.67187,0.625 1.04687,1.59375 0.39063,0.95313 0.39063,2.21875 0,1.28125 -0.39063,2.23438 -0.375,0.95312 -1.03125,1.59375 -0.65625,0.64062 -1.5,0.96875 -0.82812,0.3125 -1.73437,0.3125 z m 0,-0.85938 q 0.75,0 1.1875,-0.54687 0.45312,-0.5625 0.65625,-1.51563 0.21875,-0.96875 0.21875,-2.1875 0,-1.20312 -0.21875,-2.15625 -0.20313,-0.95312 -0.65625,-1.51562 -0.4375,-0.5625 -1.1875,-0.5625 -0.73438,0 -1.1875,0.5625 -0.45313,0.5625 -0.65625,1.51562 -0.20313,0.95313 -0.20313,2.15625 0,1.21875 0.20313,2.1875 0.20312,0.95313 0.65625,1.51563 0.45312,0.54687 1.1875,0.54687 z m 5.56994,3.90625 v -0.6875 l 0.82813,-0.17187 q 0.0156,-0.70313 0.0156,-1.29688 0.0156,-0.57812 0.0156,-1.125 v -3.96875 q 0,-0.60937 -0.0156,-0.9375 0,-0.32812 -0.0312,-0.76562 l -0.90625,-0.14063 v -0.5625 l 2.85938,-0.98437 0.25,0.14062 0.0625,0.82813 q 0.92187,-0.96875 2.17187,-0.96875 0.8125,0 1.45313,0.42187 0.64062,0.42188 1.03125,1.26563 0.39062,0.82812 0.39062,2.04687 0,1.17188 -0.4375,2.03125 -0.4375,0.85938 -1.15625,1.3125 -0.70312,0.45313 -1.54687,0.45313 -1.125,0 -1.84375,-0.76563 v 0.57813 q 0,0.54687 0,1.125 0.0156,0.59375 0.0312,1.26562 l 0.9375,0.21875 v 0.6875 z m 4.1875,-9.35937 q -0.28125,0 -0.53125,0.125 -0.23437,0.10937 -0.46875,0.28125 v 4.25 q 0.4375,0.35937 0.95313,0.35937 0.65625,0 1.0625,-0.60937 0.42187,-0.625 0.42187,-1.92188 0,-1.29687 -0.40625,-1.89062 -0.39062,-0.59375 -1.03125,-0.59375 z m 7.48914,6.25 q -0.96875,0 -1.53125,-0.46875 -0.5625,-0.48438 -0.5625,-1.5625 0,-0.39063 0,-0.71875 0.0156,-0.32813 0.0156,-0.75 v -2.79688 h -0.95312 v -0.875 l 1.09375,-0.14062 0.73437,-2.04688 h 1.48438 l -0.0312,2.0625 h 1.54687 v 1 h -1.54687 v 4.09375 q 0,0.51563 0.21875,0.76563 0.21875,0.23437 0.53125,0.23437 0.39062,0 0.79687,-0.3125 l 0.35938,0.34375 q -0.28125,0.5625 -0.8125,0.875 -0.51563,0.29688 -1.34375,0.29688 z m 2.62195,-4.40625 v -1.10938 l 6.125,-3.15625 0.625,1.25 -5.03125,2.45313 5.03125,2.46875 -0.625,1.25 z m 11.84808,-4.59375 h -0.32812 q -0.0156,0.90625 -0.0312,1.82812 0,0.92188 0,1.875 v 0.57813 h 0.42187 q 0.96875,0 1.45313,-0.625 0.48437,-0.625 0.48437,-1.60938 0,-1.01562 -0.53125,-1.53125 -0.51562,-0.51562 -1.46875,-0.51562 z m -3.95312,-0.0625 v -0.78125 h 3.98437 q 1.53125,0 2.46875,0.35937 0.9375,0.35938 1.35938,1.01563 0.4375,0.64062 0.4375,1.51562 0,0.84375 -0.40625,1.54688 -0.40625,0.6875 -1.32813,1.10937 -0.92187,0.40625 -2.51562,0.40625 h -0.40625 q 0,0.625 0,1.32813 0.0156,0.6875 0.0312,1.42187 l 1.29687,0.125 v 0.79688 h -4.92187 v -0.79688 l 1.09375,-0.10937 q 0.0312,-0.89063 0.0312,-1.79688 0,-0.92187 0,-1.84375 v -0.53125 q 0,-0.92187 0,-1.82812 0,-0.92188 -0.0312,-1.8125 z m 15.92181,3.54687 v 1.10938 l -6.125,3.15625 -0.64063,-1.25 5.03125,-2.46875 -5.03125,-2.45313 0.64063,-1.25 z m 7.97302,0 v 1.10938 l -6.125,3.15625 -0.64062,-1.25 5.03125,-2.46875 -5.03125,-2.45313 0.64062,-1.25 z m 7.97302,0 v 1.10938 l -6.125,3.15625 -0.64062,-1.25 5.03125,-2.46875 -5.03125,-2.45313 0.64062,-1.25 z" />
    <path
       style="fill:#000000;fill-opacity:0;fill-rule:evenodd"
       id="path321"
       d="m 685.48737,241.16083 c 25.48334,0 50.9588,7.46457 50.96668,14.92914 0.008,7.46457 -25.45185,14.92914 -50.90369,14.92914" />
    <path
       style="fill-rule:evenodd;stroke:#595959;stroke-width:1;stroke-linecap:butt;stroke-linejoin:round"
       id="path323"
       d="m 685.4874,241.16083 c 25.48328,0 50.95874,7.46457 50.96661,14.92914 0.004,3.73227 -6.35894,7.46457 -15.90441,10.26376 -4.77271,1.39963 -10.34107,2.56595 -16.30695,3.38239 -2.98291,0.40823 -6.06525,0.72897 -9.19727,0.94766 -0.78296,0.0547 -1.56903,0.10293 -2.35748,0.14462 l -1.13904,0.0554" />
    <path
       style="fill:#595959;fill-rule:evenodd;stroke:#595959;stroke-width:1;stroke-linecap:butt"
       id="path325"
       d="m 691.5116,269.23245 -4.49969,1.75366 4.57421,1.54898 z" />
  </g>
</svg>
