<?xml version="1.0" encoding="UTF-8" standalone="no"?>
<svg
   xmlns:dc="http://purl.org/dc/elements/1.1/"
   xmlns:cc="http://creativecommons.org/ns#"
   xmlns:rdf="http://www.w3.org/1999/02/22-rdf-syntax-ns#"
   xmlns:svg="http://www.w3.org/2000/svg"
   xmlns="http://www.w3.org/2000/svg"
   style="fill:none;stroke:none;stroke-linecap:square;stroke-miterlimit:10"
   height="107.49606"
   width="437.25983"
   id="svg329"
   stroke-miterlimit="10"
   viewBox="0 0 437.25983 107.49606"
   version="1.1">
  <metadata
     id="metadata335">
    <rdf:RDF>
      <cc:Work
         rdf:about="">
        <dc:format>image/svg+xml</dc:format>
        <dc:type
           rdf:resource="http://purl.org/dc/dcmitype/StillImage" />
        <dc:title></dc:title>
      </cc:Work>
    </rdf:RDF>
  </metadata>
  <defs
     id="defs333" />
  <clipPath
     id="g28937a38c67_1_0.0">
    <path
       style="clip-rule:nonzero"
       id="path2"
       d="M 0,0 H 960 V 540 H 0 Z" />
  </clipPath>
  <g
     transform="translate(-496.958,-59.510498)"
     id="g327"
     clip-path="url(#g28937a38c67_1_0.0)">
    <path
       style="fill:#d9d9d9;fill-rule:evenodd"
       id="path223"
       d="M 653.5105,84.862206 H 777.66797 V 161.36614 H 653.5105 Z" />
    <path
       style="fill-rule:evenodd;stroke:#595959;stroke-width:1;stroke-linecap:butt;stroke-linejoin:round"
       id="path225"
       d="M 653.5105,84.862206 H 777.66797 V 161.36614 H 653.5105 Z" />
    <path
       style="fill:#000000;fill-opacity:0;fill-rule:evenodd"
       id="path227"
       d="m 777.673,116.54665 h 51.10553" />
    <path
       style="fill-rule:evenodd;stroke:#595959;stroke-width:2;stroke-linecap:butt;stroke-linejoin:round"
       id="path229"
       d="m 777.673,116.54666 h 39.10559" />
    <path
       style="fill:#595959;fill-rule:evenodd;stroke:#595959;stroke-width:2;stroke-linecap:butt"
       id="path231"
       d="m 816.77856,119.85013 9.07617,-3.30347 -9.07617,-3.30346 z" />
    <path
       style="fill:#000000;fill-opacity:0;fill-rule:evenodd"
       id="path233"
       d="m 777.673,110.59586 h 18.39801 v 11.9016 H 777.673 Z" />
    <path
       style="fill:#000000;fill-opacity:0;fill-rule:evenodd"
       id="path235"
       d="m 810.35974,110.59586 h 18.39801 v 11.9016 h -18.39801 z" />
    <path
       style="fill:#000000;fill-opacity:0;fill-rule:evenodd"
       id="path237"
       d="M 828.7778,146.39215 H 777.67233" />
    <path
       style="fill-rule:evenodd;stroke:#1c4587;stroke-width:2;stroke-linecap:butt;stroke-linejoin:round"
       id="path239"
       d="M 828.77783,146.39214 H 789.67224" />
    <path
       style="fill:#1c4587;fill-rule:evenodd;stroke:#1c4587;stroke-width:2;stroke-linecap:butt"
       id="path241"
       d="m 789.67224,143.08868 -9.07617,3.30345 9.07617,3.30347 z" />
    <path
       style="fill:#000000;fill-opacity:0;fill-rule:evenodd"
       id="path243"
       d="m 777.6941,140.44135 h 18.39801 v 11.9016 H 777.6941 Z" />
    <path
       style="fill:#000000;fill-opacity:0;fill-rule:evenodd"
       id="path245"
       d="m 810.3805,140.44135 h 18.39801 v 11.9016 H 810.3805 Z" />
    <path
       style="fill:#000000;fill-opacity:0;fill-rule:evenodd"
       id="path247"
       d="m 777.6693,96.99415 h 61.98425 v 14.86614 H 777.6693 Z" />
    <path
       style="fill:#202122;fill-rule:nonzero"
       id="path249"
       d="m 786.38806,108.86341 q -0.78125,0 -1.51563,-0.29687 -0.71875,-0.3125 -1.3125,-0.89063 -0.57812,-0.59375 -0.92187,-1.45312 -0.34375,-0.875 -0.34375,-2.03125 0,-1.09375 0.34375,-1.95313 0.34375,-0.875 0.92187,-1.46875 0.59375,-0.59375 1.3125,-0.90625 0.73438,-0.3125 1.51563,-0.3125 0.76562,0 1.48437,0.296875 0.73438,0.296875 1.3125,0.890625 0.59375,0.57813 0.9375,1.45313 0.34375,0.85937 0.34375,2 0,1.09375 -0.34375,1.96875 -0.34375,0.85937 -0.92187,1.46875 -0.57813,0.60937 -1.3125,0.92187 -0.73438,0.3125 -1.5,0.3125 z m 0,-0.67187 q 0.6875,0 1.1875,-0.32813 0.5,-0.34375 0.8125,-0.90625 0.3125,-0.57812 0.45312,-1.28125 0.15625,-0.71875 0.15625,-1.48437 0,-0.75 -0.15625,-1.45313 -0.14062,-0.71875 -0.45312,-1.28125 -0.3125,-0.57812 -0.8125,-0.90625 -0.5,-0.34375 -1.1875,-0.34375 -0.6875,0 -1.1875,0.34375 -0.5,0.32813 -0.82813,0.90625 -0.3125,0.5625 -0.46875,1.28125 -0.15625,0.70313 -0.15625,1.45313 0,0.76562 0.15625,1.48437 0.15625,0.70313 0.46875,1.28125 0.32813,0.5625 0.82813,0.90625 0.5,0.32813 1.1875,0.32813 z m 5.17291,3.65625 v -0.46875 l 1.0625,-0.1875 q 0.0156,-0.54688 0.0156,-1.09375 0.0156,-0.53125 0.0156,-1.0625 v -3.8125 q 0,-0.54688 -0.0156,-0.90625 0,-0.35938 -0.0312,-0.76563 l -1.04688,-0.10937 v -0.46875 l 1.85938,-0.8125 0.20312,0.125 0.0781,0.875 q 0.95312,-1 2.01562,-1 0.71875,0 1.28125,0.40625 0.57813,0.39062 0.92188,1.14062 0.34375,0.73438 0.34375,1.76563 0,1.03125 -0.35938,1.78125 -0.35937,0.75 -0.98437,1.17187 -0.60938,0.40625 -1.40625,0.40625 -0.45313,0 -0.90625,-0.1875 -0.4375,-0.1875 -0.85938,-0.67187 v 1.04687 q 0,0.53125 0,1.0625 0.0156,0.54688 0.0156,1.09375 l 1.21875,0.20313 v 0.46875 z m 3.84375,-8.9375 q -0.3125,0 -0.71875,0.15625 -0.39062,0.15625 -0.90625,0.57812 v 3.75 q 0.375,0.35938 0.73438,0.51563 0.35937,0.15625 0.73437,0.15625 0.75,0 1.28125,-0.59375 0.53125,-0.59375 0.53125,-1.89063 0,-1.28125 -0.46875,-1.96875 -0.46875,-0.70312 -1.1875,-0.70312 z m 6.05884,5.92187 q -0.6875,0 -1.10937,-0.375 -0.40625,-0.375 -0.40625,-1.14062 0,-0.25 0,-0.5 0,-0.25 0,-0.64063 v -3.14062 h -1.09375 v -0.57813 l 1.1875,-0.15625 0.34375,-1.78125 h 0.79687 l -0.0781,1.8125 h 1.79687 v 0.70313 h -1.8125 v 4.125 q 0,0.51562 0.20313,0.75 0.20312,0.23437 0.53125,0.23437 0.21875,0 0.42187,-0.0937 0.21875,-0.0937 0.46875,-0.26562 l 0.32813,0.34375 q -0.54688,0.70312 -1.57813,0.70312 z m 2.36285,-4.25 v -0.625 l 5.15625,-3 0.39063,0.71875 -4.625,2.59375 4.625,2.59375 -0.39063,0.71875 z m 10.24909,-4.21875 h -0.8125 q 0,0.84375 -0.0156,1.73438 0,0.89062 0,1.78125 v 0.64062 h 0.875 q 1.21875,0 1.73438,-0.59375 0.51562,-0.59375 0.51562,-1.53125 0,-0.96875 -0.5625,-1.5 -0.54687,-0.53125 -1.73437,-0.53125 z m -3.34375,-0.0781 v -0.54688 h 3.57812 q 1.6875,0 2.53125,0.75 0.85938,0.73438 0.85938,1.90625 0,0.75 -0.375,1.375 -0.375,0.625 -1.20313,1 -0.8125,0.375 -2.1875,0.375 h -0.6875 q 0,0.71875 0,1.42188 0.0156,0.6875 0.0156,1.40625 l 1.25,0.14062 v 0.54688 h -3.78125 v -0.54688 l 1.21875,-0.14062 q 0.0312,-0.84375 0.0312,-1.70313 0,-0.875 0,-1.73437 v -0.65625 q 0,-0.875 0,-1.73438 0,-0.85937 -0.0312,-1.70312 z m 13.56897,3.67187 v 0.625 l -5.15625,3 -0.39063,-0.71875 4.625,-2.59375 -4.625,-2.59375 0.39063,-0.71875 z" />
    <path
       style="fill:#000000;fill-opacity:0;fill-rule:evenodd"
       id="path251"
       d="m 777.6693,125.81225 h 61.98425 v 14.86614 H 777.6693 Z" />
    <path
       style="fill:#202122;fill-rule:nonzero"
       id="path253"
       d="m 783.7943,133.77527 q 0,1.0625 0.1875,2 0.1875,0.92187 0.64063,1.875 0.45312,0.95312 1.23437,2.07812 l -0.34375,0.3125 q -1.42187,-1.32812 -2.10937,-2.875 -0.67188,-1.5625 -0.67188,-3.39062 0,-1.82813 0.67188,-3.39063 0.6875,-1.5625 2.10937,-2.87499 l 0.34375,0.3125 q -0.78125,1.12499 -1.23437,2.07812 -0.45313,0.95312 -0.64063,1.89062 -0.1875,0.92188 -0.1875,1.98438 z" />
    <path
       style="fill:#202122;fill-rule:nonzero"
       id="path255"
       d="m 792.4844,132.7909 q 0.8125,0.21875 1.32813,0.84375 0.53125,0.60937 0.53125,1.45312 0,1.15625 -1.04688,1.78125 -1.03125,0.60938 -2.5625,0.60938 h -3.96875 q -0.23437,0 -0.23437,-0.25 0,-0.25 0.4375,-0.25 0.46875,0 0.625,-0.125 0.17187,-0.14063 0.17187,-0.59375 v -6.3125 q 0,-0.5 -0.20312,-0.60938 -0.20313,-0.10937 -0.79688,-0.10937 -0.23437,0 -0.23437,-0.25 0,-0.25 0.23437,-0.25 h 3.96875 q 3.10938,0 3.10938,2.25 0,1.10937 -1.35938,1.8125 z m 0.89063,-1.8125 q 0,-1.48438 -1.70313,-1.70313 0.54688,0.625 0.54688,1.70313 0,1.21875 -0.6875,1.75 1.84375,-0.875 1.84375,-1.75 z m -1.64063,0 q 0,-0.76563 -0.32812,-1.25 -0.32813,-0.5 -0.92188,-0.5 -0.28125,0 -0.5,0.14062 -0.20312,0.125 -0.20312,0.34375 v 3 q 0.96875,0 1.45312,-0.375 0.5,-0.375 0.5,-1.35937 z m 2.125,4.10937 q 0,-0.8125 -0.51562,-1.25 -0.51563,-0.4375 -1.42188,-0.70312 0.6875,0.53125 0.6875,1.95312 0,1.09375 -0.54687,1.75 1.79687,-0.45312 1.79687,-1.75 z m -4.07812,1.42188 q 0,0.21875 0.20312,0.34375 0.21875,0.125 0.5,0.125 1.64063,0 1.64063,-1.89063 0,-0.98437 -0.375,-1.4375 -0.35938,-0.45312 -1.26563,-0.45312 h -0.70312 z m -0.34375,-7.28125 h -1.3125 q 0.125,0.25 0.125,0.71875 v 6.3125 q 0,0.46875 -0.125,0.71875 h 1.3125 q -0.14063,-0.21875 -0.14063,-0.46875 v -6.79688 q 0,-0.26562 0.14063,-0.48437 z" />
    <path
       style="fill:#202122;fill-rule:nonzero"
       id="path257"
       d="m 797.5745,137.08777 q 0,0.79687 -0.39063,1.46875 -0.375,0.6875 -0.96875,1.17187 -0.57812,0.5 -1.21875,0.73438 l -0.1875,-0.45313 q 0.6875,-0.34375 1.20313,-0.84375 0.51562,-0.48437 0.76562,-1.23437 l -0.5,-0.39063 q -0.26562,-0.20312 -0.39062,-0.45312 -0.10938,-0.25 -0.10938,-0.5 0,-0.34375 0.20313,-0.59375 0.20312,-0.25 0.60937,-0.25 0.1875,0 0.375,0.0781 0.20313,0.0781 0.45313,0.3125 0.0781,0.25 0.10937,0.48438 0.0469,0.23437 0.0469,0.46875 z m 8.19763,-7.90625 h -0.8125 q 0,0.84375 -0.0156,1.73437 0,0.89063 0,1.78125 v 0.64063 h 0.875 q 1.21875,0 1.73437,-0.59375 0.51563,-0.59375 0.51563,-1.53125 0,-0.96875 -0.5625,-1.5 -0.54688,-0.53125 -1.73438,-0.53125 z m -3.34375,-0.0781 v -0.54687 h 3.57813 q 1.6875,0 2.53125,0.75 0.85937,0.73437 0.85937,1.90625 0,0.75 -0.375,1.375 -0.375,0.625 -1.20312,1 -0.8125,0.375 -2.1875,0.375 h -0.6875 q 0,0.71875 0,1.42187 0.0156,0.6875 0.0156,1.40625 l 1.25,0.14063 v 0.54687 h -3.78125 v -0.54687 l 1.21875,-0.14063 q 0.0312,-0.84375 0.0312,-1.70312 0,-0.875 0,-1.73438 v -0.65625 q 0,-0.875 0,-1.73437 0,-0.85938 -0.0312,-1.70313 z m 9.5138,4.67188 q 0,-1.0625 -0.1875,-1.98438 -0.1875,-0.9375 -0.64063,-1.89062 -0.4375,-0.95313 -1.23437,-2.07812 l 0.35937,-0.3125 q 1.40625,1.31249 2.07813,2.87499 0.6875,1.5625 0.6875,3.39063 0,1.82812 -0.6875,3.39062 -0.67188,1.54688 -2.07813,2.875 l -0.35937,-0.3125 q 0.79687,-1.125 1.23437,-2.07812 0.45313,-0.95313 0.64063,-1.875 0.1875,-0.9375 0.1875,-2 z" />
    <path
       style="fill:#000000;fill-opacity:0;fill-rule:evenodd"
       id="path259"
       d="M 653.5092,56.3084 H 777.66667 V 84.182412 H 653.5092 Z" />
    <path
       style="fill:#202122;fill-rule:nonzero"
       id="path261"
       d="m 695.8625,75.744156 q -1.39063,0 -2.54688,-0.671875 l 0.0469,-1.796875 h 1.17187 l 0.25,1.453125 q 0.26563,0.109375 0.53125,0.15625 0.26563,0.04687 0.5625,0.04687 0.64063,0 0.96875,-0.203125 0.34375,-0.21875 0.34375,-0.65625 0,-0.328125 -0.25,-0.578125 -0.25,-0.25 -0.98437,-0.453125 l -0.79688,-0.234375 q -0.84375,-0.25 -1.3125,-0.8125 -0.45312,-0.5625 -0.45312,-1.375 0,-1.015625 0.78125,-1.703125 0.79687,-0.703125 2.28125,-0.703125 0.64062,0 1.1875,0.15625 0.54687,0.15625 1.125,0.4375 l -0.0937,1.609375 h -1.1875 l -0.28125,-1.265625 q -0.3125,-0.125 -0.8125,-0.125 -0.5,0 -0.79688,0.21875 -0.29687,0.203125 -0.29687,0.609375 0,0.296875 0.23437,0.53125 0.23438,0.21875 1,0.453125 l 0.71875,0.203125 q 1.03125,0.3125 1.48438,0.890625 0.45312,0.5625 0.45312,1.375 0,1.15625 -0.89062,1.796875 -0.875,0.640625 -2.4375,0.640625 z m 7.82489,0 q -1.14063,0 -1.98438,-0.46875 -0.82812,-0.484375 -1.28125,-1.34375 -0.45312,-0.859375 -0.45312,-1.984375 0,-1.125 0.48437,-1.953125 0.5,-0.84375 1.34375,-1.3125 0.85938,-0.46875 1.89063,-0.46875 1.04687,0 1.89062,0.453125 0.84375,0.453125 1.34375,1.296875 0.5,0.84375 0.5,1.984375 0,1.140625 -0.45312,2 -0.45313,0.84375 -1.29688,1.328125 -0.82812,0.46875 -1.98437,0.46875 z m 0,-0.765625 q 0.625,0 0.92187,-0.71875 0.3125,-0.71875 0.3125,-2.265625 0,-1.5625 -0.3125,-2.28125 -0.29687,-0.71875 -0.92187,-0.71875 -0.625,0 -0.9375,0.71875 -0.29688,0.71875 -0.29688,2.28125 0,1.546875 0.29688,2.265625 0.3125,0.71875 0.9375,0.71875 z m 9.68988,0.703125 -0.0781,-1.21875 q -0.46875,0.609375 -1.07812,0.953125 -0.59375,0.328125 -1.29688,0.328125 -0.9375,0 -1.51562,-0.59375 -0.5625,-0.59375 -0.5625,-2.046875 l 0.0625,-3.578125 -0.84375,-0.1875 v -0.609375 l 2.98437,-0.421875 0.23438,0.15625 -0.0781,2.0625 v 2.59375 q 0,0.671875 0.21875,0.9375 0.21875,0.265625 0.57813,0.265625 0.3125,0 0.64062,-0.1875 0.32813,-0.1875 0.625,-0.46875 l 0.0625,-4.15625 -0.8125,-0.171875 v -0.5625 l 2.92188,-0.46875 0.23437,0.15625 -0.0469,2.0625 v 4.171875 l 0.76562,0.15625 v 0.6875 z m 3.6933,-0.15625 v -0.6875 l 0.8125,-0.15625 q 0.0156,-0.546875 0.0156,-1.15625 0,-0.625 0,-1.078125 v -0.859375 q 0,-0.421875 -0.0156,-0.671875 0,-0.265625 -0.0156,-0.484375 0,-0.234375 -0.0156,-0.53125 l -0.89063,-0.140625 v -0.5625 l 2.89063,-0.984375 0.25,0.15625 0.14062,1.734375 q 0.3125,-0.9375 0.85938,-1.40625 0.5625,-0.484375 1.10937,-0.484375 0.48438,0 0.82813,0.28125 0.35937,0.265625 0.4375,0.796875 -0.0156,0.578125 -0.3125,0.890625 -0.28125,0.3125 -0.71875,0.3125 -0.625,0 -1.14063,-0.6875 l -0.0781,-0.109375 q -0.32813,0.296875 -0.60938,0.765625 -0.26562,0.46875 -0.375,0.984375 v 1 q 0,0.453125 0,1.046875 0,0.578125 0.0156,1.09375 l 1.15625,0.25 v 0.6875 z m 10.23773,0.21875 q -1,0 -1.82812,-0.40625 -0.82813,-0.421875 -1.32813,-1.25 -0.5,-0.84375 -0.5,-2.078125 0,-1.203125 0.53125,-2.046875 0.54688,-0.859375 1.4375,-1.296875 0.90625,-0.453125 2,-0.453125 0.76563,0 1.35938,0.296875 0.60937,0.28125 0.96875,0.765625 0.35937,0.484375 0.40625,1.078125 -0.23438,0.765625 -1,0.765625 -0.42188,0 -0.75,-0.3125 -0.3125,-0.3125 -0.35938,-1.078125 l -0.10937,-0.734375 q -0.0469,-0.01563 -0.125,-0.01563 -0.0781,0 -0.15625,0 -0.40625,0 -0.8125,0.28125 -0.40625,0.265625 -0.67188,0.875 -0.26562,0.59375 -0.26562,1.59375 0,1.265625 0.5625,1.953125 0.5625,0.671875 1.48437,0.671875 0.53125,0 0.92188,-0.21875 0.40625,-0.234375 0.71875,-0.609375 l 0.51562,0.46875 q -0.42187,0.890625 -1.20312,1.328125 -0.76563,0.421875 -1.79688,0.421875 z m 7.40039,-6.765625 q -0.40625,0 -0.75,0.5 -0.34375,0.5 -0.39062,1.859375 h 1.23437 q 0.53125,0 0.71875,-0.203125 0.1875,-0.21875 0.1875,-0.71875 0,-0.734375 -0.29687,-1.078125 -0.29688,-0.359375 -0.70313,-0.359375 z m 0.0312,6.765625 q -1.07812,0 -1.90625,-0.4375 -0.8125,-0.453125 -1.28125,-1.296875 -0.46875,-0.84375 -0.46875,-2.015625 0,-1.234375 0.54688,-2.078125 0.5625,-0.84375 1.42187,-1.265625 0.85938,-0.4375 1.79688,-0.4375 0.96875,0 1.64062,0.40625 0.6875,0.40625 1.03125,1.109375 0.35938,0.703125 0.35938,1.59375 0,0.421875 -0.0781,0.78125 h -4.23437 q 0.0625,1.15625 0.625,1.703125 0.57812,0.546875 1.32812,0.546875 0.60938,0 1.03125,-0.21875 0.42188,-0.234375 0.75,-0.578125 l 0.51563,0.46875 q -0.45313,0.875 -1.23438,1.296875 -0.78125,0.421875 -1.84375,0.421875 z" />
    <path
       style="fill:#000000;fill-opacity:0;fill-rule:evenodd"
       id="path263"
       d="m 828.77954,104.57481 h 105.44879 v 23.937 H 828.77954 Z" />
    <path
       style="fill:#202122;fill-rule:nonzero"
       id="path265"
       d="m 833.2639,113.47956 v -0.78125 h 4.71875 v 0.78125 l -1.09375,0.125 q -0.0156,0.89063 -0.0312,1.79688 0,0.90625 0,1.84375 v 0.51562 q 0,0.90625 0,1.82813 0.0156,0.92187 0.0312,1.82812 l 1.09375,0.10938 v 0.79687 h -4.71875 v -0.79687 l 1.09375,-0.10938 q 0.0312,-0.89062 0.0312,-1.79687 0,-0.92188 0,-1.84375 v -0.53125 q 0,-0.92188 0,-1.82813 0,-0.92187 -0.0312,-1.8125 z m 5.76477,4.65625 v -1.10937 l 6.125,-3.15625 0.625,1.25 -5.03125,2.45312 5.03125,2.46875 -0.625,1.25 z m 13.8949,-4.6875 v -0.75 h 3.17187 v 0.78125 l -1.09375,0.1875 -3.01562,8.6875 h -1.42188 l -3.15625,-8.78125 -0.84375,-0.0937 v -0.78125 h 4.71875 v 0.75 l -1.25,0.15625 2,6.03125 2.03125,-6 z m 2.61139,8.875 v -0.6875 l 0.8125,-0.15625 q 0.0156,-0.54687 0.0156,-1.15625 0,-0.625 0,-1.07812 v -0.85938 q 0,-0.42187 -0.0156,-0.67187 0,-0.26563 -0.0156,-0.48438 0,-0.23437 -0.0156,-0.53125 l -0.89063,-0.14062 v -0.5625 l 2.89063,-0.98438 0.25,0.15625 0.14062,1.73438 q 0.3125,-0.9375 0.85938,-1.40625 0.5625,-0.48438 1.10937,-0.48438 0.48438,0 0.82813,0.28125 0.35937,0.26563 0.4375,0.79688 -0.0156,0.57812 -0.3125,0.89062 -0.28125,0.3125 -0.71875,0.3125 -0.625,0 -1.14063,-0.6875 l -0.0781,-0.10937 q -0.32813,0.29687 -0.60938,0.76562 -0.26562,0.46875 -0.375,0.98438 v 1 q 0,0.45312 0,1.04687 0,0.57813 0.0156,1.09375 l 1.15625,0.25 v 0.6875 z m 12.13794,-8.84375 v -0.78125 h 4.64062 v 0.78125 l -1.09375,0.125 q -0.0156,0.89063 -0.0312,1.79688 0,0.90625 0,1.84375 v 0.53125 q 0,0.89062 0,1.8125 0.0156,0.92187 0.0312,1.82812 l 1.09375,0.10938 v 0.79687 h -4.64062 v -0.79687 l 1.03125,-0.0937 q 0.0312,-0.90625 0.0312,-1.8125 0,-0.92188 0,-1.8125 h -3.125 q 0,0.98437 0,1.875 0.0156,0.875 0.0312,1.75 l 1.01562,0.0937 v 0.79687 h -4.60937 v -0.79687 l 1.0625,-0.10938 q 0.0312,-0.89062 0.0312,-1.79687 0,-0.92188 0,-1.84375 v -0.53125 q 0,-0.92188 0,-1.82813 0,-0.90625 -0.0312,-1.8125 l -1.0625,-0.125 v -0.78125 h 4.60937 v 0.78125 l -1.01562,0.10938 q -0.0156,0.89062 -0.0312,1.78125 0,0.875 0,1.57812 h 3.125 q 0,-0.84375 0,-1.6875 0,-0.84375 -0.0312,-1.67187 z m 5.66522,4.65625 v -1.10937 l 6.125,-3.15625 0.625,1.25 -5.03125,2.45312 5.03125,2.46875 -0.625,1.25 z m 11.84802,-4.59375 h -0.32813 q -0.0156,0.90625 -0.0312,1.82813 0,0.92187 0,1.875 v 0.57812 h 0.42188 q 0.96875,0 1.45312,-0.625 0.48438,-0.625 0.48438,-1.60937 0,-1.01563 -0.53125,-1.53125 -0.51563,-0.51563 -1.46875,-0.51563 z m -3.95313,-0.0625 v -0.78125 h 3.98438 q 1.53125,0 2.46875,0.35938 0.9375,0.35937 1.35937,1.01562 0.4375,0.64063 0.4375,1.51563 0,0.84375 -0.40625,1.54687 -0.40625,0.6875 -1.32812,1.10938 -0.92188,0.40625 -2.51563,0.40625 h -0.40625 q 0,0.625 0,1.32812 0.0156,0.6875 0.0312,1.42188 l 1.29688,0.125 v 0.79687 h -4.92188 v -0.79687 l 1.09375,-0.10938 q 0.0312,-0.89062 0.0312,-1.79687 0,-0.92188 0,-1.84375 v -0.53125 q 0,-0.92188 0,-1.82813 0,-0.92187 -0.0312,-1.8125 z m 10.19501,8.01563 q 0,1 -0.46875,1.78125 -0.45312,0.78125 -1.15625,1.28125 -0.6875,0.5 -1.39062,0.71875 l -0.20313,-0.60938 q 0.73438,-0.375 1.20313,-0.89062 0.48437,-0.51563 0.75,-1.09375 l -0.51563,-0.26563 q -0.45312,-0.25 -0.64062,-0.57812 -0.1875,-0.34375 -0.1875,-0.65625 0,-0.54688 0.35937,-0.90625 0.375,-0.375 0.9375,-0.375 0.3125,0 0.5625,0.0937 0.26563,0.0781 0.53125,0.3125 0.14063,0.34375 0.17188,0.60937 0.0469,0.25 0.0469,0.57813 z m 8.48645,-7.95313 h -0.32812 q -0.0156,0.90625 -0.0312,1.82813 0,0.92187 0,1.875 v 0.57812 h 0.42187 q 0.96875,0 1.45313,-0.625 0.48437,-0.625 0.48437,-1.60937 0,-1.01563 -0.53125,-1.53125 -0.51562,-0.51563 -1.46875,-0.51563 z m -3.95312,-0.0625 v -0.78125 h 3.98437 q 1.53125,0 2.46875,0.35938 0.9375,0.35937 1.35938,1.01562 0.4375,0.64063 0.4375,1.51563 0,0.84375 -0.40625,1.54687 -0.40625,0.6875 -1.32813,1.10938 -0.92187,0.40625 -2.51562,0.40625 h -0.40625 q 0,0.625 0,1.32812 0.0156,0.6875 0.0312,1.42188 l 1.29687,0.125 v 0.79687 h -4.92187 v -0.79687 l 1.09375,-0.10938 q 0.0312,-0.89062 0.0312,-1.79687 0,-0.92188 0,-1.84375 v -0.53125 q 0,-0.92188 0,-1.82813 0,-0.92187 -0.0312,-1.8125 z m 15.92181,3.54688 v 1.10937 l -6.125,3.15625 -0.64062,-1.25 5.03125,-2.46875 -5.03125,-2.45312 0.64062,-1.25 z m 7.97302,0 v 1.10937 l -6.125,3.15625 -0.64062,-1.25 5.03125,-2.46875 -5.03125,-2.45312 0.64062,-1.25 z" />
    <path
       style="fill:#000000;fill-opacity:0;fill-rule:evenodd"
       id="path315"
       d="m 777.6941,146.39215 c -23.82208,0 -47.6521,-7.46457 -47.64423,-14.92914 0.008,-7.46457 23.85364,-14.92914 47.70722,-14.92914" />
    <path
       style="fill-rule:evenodd;stroke:#1c4587;stroke-width:1;stroke-linecap:butt;stroke-linejoin:round"
       id="path317"
       d="m 777.6941,146.39214 c -23.82214,0 -47.6521,-7.46455 -47.64423,-14.92912 0.004,-3.73229 5.96735,-7.46457 14.91144,-10.26379 4.47211,-1.3996 9.68927,-2.56594 15.27936,-3.38238 2.79504,-0.40821 5.68329,-0.72896 8.61816,-0.94765 0.73377,-0.0547 1.4704,-0.10297 2.20923,-0.14465 l 0.69098,-0.0358" />
    <path
       style="fill:#1c4587;fill-rule:evenodd;stroke:#1c4587;stroke-width:1;stroke-linecap:butt"
       id="path319"
       d="m 771.8017,118.3399 4.49396,-1.7683 -4.57923,-1.53407 z" />
  </g>
</svg>
