<?xml version="1.0" encoding="UTF-8" standalone="no"?>
<svg
   xmlns:dc="http://purl.org/dc/elements/1.1/"
   xmlns:cc="http://creativecommons.org/ns#"
   xmlns:rdf="http://www.w3.org/1999/02/22-rdf-syntax-ns#"
   xmlns:svg="http://www.w3.org/2000/svg"
   xmlns="http://www.w3.org/2000/svg"
   style="fill:none;stroke:none;stroke-linecap:square;stroke-miterlimit:10"
   height="189.76379"
   width="437.25983"
   id="svg633"
   stroke-miterlimit="10"
   viewBox="0 0 437.25983 189.76379"
   version="1.1">
  <metadata
     id="metadata639">
    <rdf:RDF>
      <cc:Work
         rdf:about="">
        <dc:format>image/svg+xml</dc:format>
        <dc:type
           rdf:resource="http://purl.org/dc/dcmitype/StillImage" />
        <dc:title></dc:title>
      </cc:Work>
    </rdf:RDF>
  </metadata>
  <defs
     id="defs637" />
  <clipPath
     id="g2f80604df9e_0_272.0">
    <path
       style="clip-rule:nonzero"
       id="path2"
       d="M 0,0 H 960 V 540 H 0 Z" />
  </clipPath>
  <g
     transform="translate(-514.54333,-254.05774)"
     id="g631"
     clip-path="url(#g2f80604df9e_0_272.0)">
    <path
       style="fill:#000000;fill-opacity:0;fill-rule:evenodd"
       id="path339"
       d="m 390.5748,375.38846 h 106.48819 v 23.93701 H 390.5748 Z" />
    <path
       style="fill:#000000;fill-opacity:0;fill-rule:evenodd"
       id="path503"
       d="m 671.0945,250.85564 h 124.15747 v 27.87401 H 671.0945 Z" />
    <path
       style="fill:#202122;fill-rule:nonzero"
       id="path505"
       d="m 709.3831,270.0883 v -0.6875 l 0.78125,-0.15625 q 0.0156,-0.53125 0.0156,-1.15625 0,-0.625 0,-1.07813 v -6.1875 l -0.90625,-0.10937 v -0.625 l 3.03125,-0.65625 0.23437,0.14062 -0.0625,2.0625 v 2.0625 q 0.92188,-0.9375 2.125,-0.9375 0.8125,0 1.45313,0.42188 0.64062,0.40625 1.03125,1.23437 0.39062,0.82813 0.39062,2.04688 0,1.1875 -0.4375,2.04687 -0.4375,0.85938 -1.15625,1.32813 -0.70312,0.45312 -1.54687,0.45312 -1.20313,0 -1.9375,-0.85937 l -0.25,0.84375 z m 4.15625,-6.04688 q -0.28125,0 -0.53125,0.125 -0.25,0.10938 -0.48437,0.29688 v 4.1875 q 0.45312,0.40625 1,0.40625 0.64062,0 1.04687,-0.625 0.42188,-0.625 0.42188,-1.92188 0,-1.29687 -0.40625,-1.875 -0.39063,-0.59375 -1.04688,-0.59375 z m 4.75287,6.03125 v -0.6875 l 0.8125,-0.15625 q 0.0156,-0.54687 0.0156,-1.15625 0,-0.625 0,-1.07812 v -0.85938 q 0,-0.42187 -0.0156,-0.67187 0,-0.26563 -0.0156,-0.48438 0,-0.23437 -0.0156,-0.53125 l -0.89063,-0.14062 v -0.5625 l 2.89063,-0.98438 0.25,0.15625 0.14062,1.73438 q 0.3125,-0.9375 0.85938,-1.40625 0.5625,-0.48438 1.10937,-0.48438 0.48438,0 0.82813,0.28125 0.35937,0.26563 0.4375,0.79688 -0.0156,0.57812 -0.3125,0.89062 -0.28125,0.3125 -0.71875,0.3125 -0.625,0 -1.14063,-0.6875 l -0.0781,-0.10937 q -0.32813,0.29687 -0.60938,0.76562 -0.26562,0.46875 -0.375,0.98438 v 1 q 0,0.45312 0,1.04687 0,0.57813 0.0156,1.09375 l 1.15625,0.25 v 0.6875 z m 12.15069,0.20313 q -1.26562,0 -1.60937,-1.04688 -0.46875,0.48438 -0.90625,0.78125 -0.42188,0.28125 -1.1875,0.28125 -0.84375,0 -1.39063,-0.48437 -0.53125,-0.48438 -0.53125,-1.39063 0,-0.53125 0.23438,-0.95312 0.23437,-0.42188 0.84375,-0.78125 0.625,-0.375 1.75,-0.70313 0.21875,-0.0625 0.51562,-0.14062 0.29688,-0.0781 0.59375,-0.14063 v -0.48437 q 0,-0.98438 -0.25,-1.32813 -0.23437,-0.35937 -0.9375,-0.35937 -0.0937,0 -0.1875,0 -0.0781,0 -0.20312,0.0156 l -0.0781,0.64063 q -0.0156,0.71875 -0.32812,1.04687 -0.3125,0.3125 -0.73438,0.3125 -0.8125,0 -0.98437,-0.73437 0.0625,-0.90625 0.92187,-1.46875 0.875,-0.57813 2.45313,-0.57813 1.40625,0 2.01562,0.64063 0.60938,0.64062 0.60938,2.125 v 3.28125 q 0,0.4375 0.3125,0.4375 0.125,0 0.21875,-0.0625 0.10937,-0.0781 0.23437,-0.26563 l 0.39063,0.26563 q -0.26563,0.57812 -0.6875,0.84375 -0.42188,0.25 -1.07813,0.25 z m -3.45312,-2.23438 q 0,0.53125 0.25,0.79688 0.26562,0.26562 0.625,0.26562 0.17187,0 0.34375,-0.0625 0.17187,-0.0781 0.54687,-0.34375 v -2.375 q -0.1875,0.0625 -0.375,0.125 -0.17187,0.0625 -0.3125,0.125 -0.5,0.20313 -0.79687,0.57813 -0.28125,0.375 -0.28125,0.89062 z m 5.56372,2.03125 v -0.6875 l 0.79688,-0.17187 q 0.0156,-0.53125 0.0156,-1.14063 0,-0.625 0,-1.07812 v -0.84375 q 0,-0.60938 -0.0156,-0.9375 0,-0.32813 -0.0312,-0.76563 l -0.89063,-0.14062 v -0.5625 l 2.89063,-0.98438 0.25,0.15625 0.0937,1.0625 q 0.57812,-0.67187 1.14062,-0.9375 0.5625,-0.28125 1.20313,-0.28125 0.95312,0 1.53125,0.64063 0.57812,0.625 0.57812,1.875 v 1.71875 q 0,0.48437 0,1.09375 0,0.60937 0.0156,1.15625 l 0.73437,0.14062 v 0.6875 h -3.875 v -0.6875 l 0.76563,-0.15625 q 0.0156,-0.54687 0.0156,-1.15625 0,-0.60937 0,-1.07812 v -1.53125 q 0,-0.70313 -0.1875,-0.98438 -0.1875,-0.29687 -0.60937,-0.29687 -0.57813,0 -1.26563,0.53125 v 2.28125 q 0,0.45312 0,1.07812 0,0.625 0.0156,1.17188 l 0.6875,0.14062 v 0.6875 z m 12.68457,0.21875 q -1,0 -1.82812,-0.40625 -0.82813,-0.42187 -1.32813,-1.25 -0.5,-0.84375 -0.5,-2.07812 0,-1.20313 0.53125,-2.04688 0.54688,-0.85937 1.4375,-1.29687 0.90625,-0.45313 2,-0.45313 0.76563,0 1.35938,0.29688 0.60937,0.28125 0.96875,0.76562 0.35937,0.48438 0.40625,1.07813 -0.23438,0.76562 -1,0.76562 -0.42188,0 -0.75,-0.3125 -0.3125,-0.3125 -0.35938,-1.07812 l -0.10937,-0.73438 q -0.0469,-0.0156 -0.125,-0.0156 -0.0781,0 -0.15625,0 -0.40625,0 -0.8125,0.28125 -0.40625,0.26562 -0.67188,0.875 -0.26562,0.59375 -0.26562,1.59375 0,1.26562 0.5625,1.95312 0.5625,0.67188 1.48437,0.67188 0.53125,0 0.92188,-0.21875 0.40625,-0.23438 0.71875,-0.60938 l 0.51562,0.46875 q -0.42187,0.89063 -1.20312,1.32813 -0.76563,0.42187 -1.79688,0.42187 z m 3.51044,-0.21875 v -0.6875 l 0.79687,-0.17187 q 0.0156,-0.53125 0.0156,-1.14063 0,-0.625 0,-1.07812 v -6.14063 l -0.90625,-0.14062 v -0.625 l 3.03125,-0.65625 0.23437,0.14062 -0.0625,2.0625 v 2.35938 q 0.59375,-0.6875 1.14063,-0.95313 0.54687,-0.28125 1.1875,-0.28125 0.96875,0 1.54687,0.64063 0.59375,0.625 0.59375,1.875 v 1.71875 q 0,0.48437 0,1.09375 0,0.60937 0.0156,1.15625 l 0.73437,0.14062 v 0.6875 h -3.85937 v -0.6875 l 0.76562,-0.15625 q 0.0156,-0.54687 0.0156,-1.15625 0,-0.60937 0,-1.07812 v -1.53125 q 0,-0.71875 -0.17188,-1 -0.17187,-0.28125 -0.625,-0.28125 -0.28125,0 -0.625,0.17187 -0.32812,0.17188 -0.67187,0.5 v 2.14063 q 0,0.45312 0,1.07812 0,0.625 0.0156,1.17188 l 0.6875,0.14062 v 0.6875 z" />
    <path
       style="fill:#000000;fill-opacity:0;fill-rule:evenodd"
       id="path507"
       d="m 569.7664,336.8114 h 61.98425 v 23.93701 H 569.7664 Z" />
    <path
       style="fill:#202122;fill-rule:nonzero"
       id="path509"
       d="m 593.7843,345.6849 v -0.75 h 3.17188 v 0.78125 l -1.09375,0.1875 -3.01563,8.6875 h -1.42187 l -3.15625,-8.78125 -0.84375,-0.0937 v -0.78125 h 4.71875 v 0.75 l -1.25,0.15625 2,6.03125 2.03125,-6 z m 2.61139,8.875 v -0.6875 l 0.8125,-0.15625 q 0.0156,-0.54687 0.0156,-1.15625 0,-0.625 0,-1.07812 v -0.85938 q 0,-0.42187 -0.0156,-0.67187 0,-0.26563 -0.0156,-0.48438 0,-0.23437 -0.0156,-0.53125 l -0.89063,-0.14062 v -0.5625 l 2.89063,-0.98438 0.25,0.15625 0.14062,1.73438 q 0.3125,-0.9375 0.85938,-1.40625 0.5625,-0.48438 1.10937,-0.48438 0.48438,0 0.82813,0.28125 0.35937,0.26563 0.4375,0.79688 -0.0156,0.57812 -0.3125,0.89062 -0.28125,0.3125 -0.71875,0.3125 -0.625,0 -1.14063,-0.6875 l -0.0781,-0.10937 q -0.32813,0.29687 -0.60938,0.76562 -0.26562,0.46875 -0.375,0.98438 v 1 q 0,0.45312 0,1.04687 0,0.57813 0.0156,1.09375 l 1.15625,0.25 v 0.6875 z m 6.98706,-4.1875 v -1.10937 l 6.125,-3.15625 0.625,1.25 -5.03125,2.45312 5.03125,2.46875 -0.625,1.25 z m 11.84808,-4.59375 h -0.32812 q -0.0156,0.90625 -0.0312,1.82813 0,0.92187 0,1.875 v 0.57812 h 0.42187 q 0.96875,0 1.45313,-0.625 0.48437,-0.625 0.48437,-1.60937 0,-1.01563 -0.53125,-1.53125 -0.51562,-0.51563 -1.46875,-0.51563 z m -3.95312,-0.0625 v -0.78125 h 3.98437 q 1.53125,0 2.46875,0.35938 0.9375,0.35937 1.35938,1.01562 0.4375,0.64063 0.4375,1.51563 0,0.84375 -0.40625,1.54687 -0.40625,0.6875 -1.32813,1.10938 -0.92187,0.40625 -2.51562,0.40625 h -0.40625 q 0,0.625 0,1.32812 0.0156,0.6875 0.0312,1.42188 l 1.29687,0.125 v 0.79687 h -4.92187 v -0.79687 l 1.09375,-0.10938 q 0.0312,-0.89062 0.0312,-1.79687 0,-0.92188 0,-1.84375 v -0.53125 q 0,-0.92188 0,-1.82813 0,-0.92187 -0.0312,-1.8125 z m 15.92181,3.54688 v 1.10937 l -6.125,3.15625 -0.64062,-1.25 5.03125,-2.46875 -5.03125,-2.45312 0.64062,-1.25 z" />
    <path
       style="fill:#000000;fill-opacity:0;fill-rule:evenodd"
       id="path511"
       d="m 834.5932,287.75278 h 70.70862 v 23.93701 H 834.5932 Z" />
    <path
       style="fill:#202122;fill-rule:nonzero"
       id="path513"
       d="m 845.0776,296.62628 v -0.75 h 3.17187 v 0.78125 l -1.09375,0.1875 -3.01562,8.6875 h -1.42188 l -3.15625,-8.78125 -0.84375,-0.0937 v -0.78125 h 4.71875 v 0.75 l -1.25,0.15625 2,6.03125 2.03125,-6 z m 2.61139,8.875 v -0.6875 l 0.8125,-0.15625 q 0.0156,-0.54688 0.0156,-1.15625 0,-0.625 0,-1.07813 v -0.85937 q 0,-0.42188 -0.0156,-0.67188 0,-0.26562 -0.0156,-0.48437 0,-0.23438 -0.0156,-0.53125 l -0.89063,-0.14063 v -0.5625 l 2.89063,-0.98437 0.25,0.15625 0.14062,1.73437 q 0.3125,-0.9375 0.85938,-1.40625 0.5625,-0.48437 1.10937,-0.48437 0.48438,0 0.82813,0.28125 0.35937,0.26562 0.4375,0.79687 -0.0156,0.57813 -0.3125,0.89063 -0.28125,0.3125 -0.71875,0.3125 -0.625,0 -1.14063,-0.6875 l -0.0781,-0.10938 q -0.32813,0.29688 -0.60938,0.76563 -0.26562,0.46875 -0.375,0.98437 v 1 q 0,0.45313 0,1.04688 0,0.57812 0.0156,1.09375 l 1.15625,0.25 v 0.6875 z m 6.98706,-4.1875 v -1.10938 l 6.125,-3.15625 0.625,1.25 -5.03125,2.45313 5.03125,2.46875 -0.625,1.25 z m 11.84802,-4.59375 h -0.32812 q -0.0156,0.90625 -0.0312,1.82812 0,0.92188 0,1.875 v 0.57813 h 0.42187 q 0.96875,0 1.45313,-0.625 0.48437,-0.625 0.48437,-1.60938 0,-1.01562 -0.53125,-1.53125 -0.51562,-0.51562 -1.46875,-0.51562 z m -3.95312,-0.0625 v -0.78125 h 3.98437 q 1.53125,0 2.46875,0.35937 0.9375,0.35938 1.35938,1.01563 0.4375,0.64062 0.4375,1.51562 0,0.84375 -0.40625,1.54688 -0.40625,0.6875 -1.32813,1.10937 -0.92187,0.40625 -2.51562,0.40625 h -0.40625 q 0,0.625 0,1.32813 0.0156,0.6875 0.0312,1.42187 l 1.29687,0.125 v 0.79688 h -4.92187 v -0.79688 l 1.09375,-0.10937 q 0.0312,-0.89063 0.0312,-1.79688 0,-0.92187 0,-1.84375 v -0.53125 q 0,-0.92187 0,-1.82812 0,-0.92188 -0.0312,-1.8125 z m 15.92181,3.54687 v 1.10938 l -6.125,3.15625 -0.64062,-1.25 5.03125,-2.46875 -5.03125,-2.45313 0.64062,-1.25 z" />
    <path
       style="fill:#d9d9d9;fill-rule:evenodd"
       id="path515"
       d="m 772.6037,275.74014 -78.86615,21.94214 v 118.44644 l 78.86615,21.94214 z" />
    <path
       style="fill-rule:evenodd;stroke:#595959;stroke-width:1;stroke-linecap:butt;stroke-linejoin:round"
       id="path517"
       d="m 772.6037,275.74014 -78.86615,21.94214 v 118.44644 l 78.86615,21.94214 z" />
    <path
       style="fill:#000000;fill-opacity:0;fill-rule:evenodd"
       id="path519"
       d="m 834.5932,385.86826 h 70.70862 v 23.93701 H 834.5932 Z" />
    <path
       style="fill:#202122;fill-rule:nonzero"
       id="path521"
       d="m 845.0776,394.74176 v -0.75 h 3.17187 v 0.78125 l -1.09375,0.1875 -3.01562,8.6875 h -1.42188 l -3.15625,-8.78125 -0.84375,-0.0937 v -0.78125 h 4.71875 v 0.75 l -1.25,0.15625 2,6.03125 2.03125,-6 z m 2.61139,8.875 v -0.6875 l 0.8125,-0.15625 q 0.0156,-0.54688 0.0156,-1.15625 0,-0.625 0,-1.07813 v -0.85937 q 0,-0.42188 -0.0156,-0.67188 0,-0.26562 -0.0156,-0.48437 0,-0.23438 -0.0156,-0.53125 l -0.89063,-0.14063 v -0.5625 l 2.89063,-0.98437 0.25,0.15625 0.14062,1.73437 q 0.3125,-0.9375 0.85938,-1.40625 0.5625,-0.48437 1.10937,-0.48437 0.48438,0 0.82813,0.28125 0.35937,0.26562 0.4375,0.79687 -0.0156,0.57813 -0.3125,0.89063 -0.28125,0.3125 -0.71875,0.3125 -0.625,0 -1.14063,-0.6875 l -0.0781,-0.10938 q -0.32813,0.29688 -0.60938,0.76563 -0.26562,0.46875 -0.375,0.98437 v 1 q 0,0.45313 0,1.04688 0,0.57812 0.0156,1.09375 l 1.15625,0.25 v 0.6875 z m 6.98706,-4.1875 v -1.10938 l 6.125,-3.15625 0.625,1.25 -5.03125,2.45313 5.03125,2.46875 -0.625,1.25 z m 11.84802,-4.59375 h -0.32812 q -0.0156,0.90625 -0.0312,1.82812 0,0.92188 0,1.875 v 0.57813 h 0.42187 q 0.96875,0 1.45313,-0.625 0.48437,-0.625 0.48437,-1.60938 0,-1.01562 -0.53125,-1.53125 -0.51562,-0.51562 -1.46875,-0.51562 z m -3.95312,-0.0625 v -0.78125 h 3.98437 q 1.53125,0 2.46875,0.35937 0.9375,0.35938 1.35938,1.01563 0.4375,0.64062 0.4375,1.51562 0,0.84375 -0.40625,1.54688 -0.40625,0.6875 -1.32813,1.10937 -0.92187,0.40625 -2.51562,0.40625 h -0.40625 q 0,0.625 0,1.32813 0.0156,0.6875 0.0312,1.42187 l 1.29687,0.125 v 0.79688 h -4.92187 v -0.79688 l 1.09375,-0.10937 q 0.0312,-0.89063 0.0312,-1.79688 0,-0.92187 0,-1.84375 v -0.53125 q 0,-0.92187 0,-1.82812 0,-0.92188 -0.0312,-1.8125 z m 15.92181,3.54687 v 1.10938 l -6.125,3.15625 -0.64062,-1.25 5.03125,-2.46875 -5.03125,-2.45313 0.64062,-1.25 z" />
    <path
       style="fill:#000000;fill-opacity:0;fill-rule:evenodd"
       id="path523"
       d="m 631.7507,329.2317 h 61.98425 v 14.86612 H 631.7507 Z" />
    <path
       style="fill:#202122;fill-rule:nonzero"
       id="path525"
       d="m 651.0575,341.10095 q -0.78125,0 -1.51563,-0.29688 -0.71875,-0.3125 -1.3125,-0.89062 -0.57812,-0.59375 -0.92187,-1.45313 -0.34375,-0.875 -0.34375,-2.03125 0,-1.09375 0.34375,-1.95312 0.34375,-0.875 0.92187,-1.46875 0.59375,-0.59375 1.3125,-0.90625 0.73438,-0.3125 1.51563,-0.3125 0.76562,0 1.48437,0.29687 0.73438,0.29688 1.3125,0.89063 0.59375,0.57812 0.9375,1.45312 0.34375,0.85938 0.34375,2 0,1.09375 -0.34375,1.96875 -0.34375,0.85938 -0.92187,1.46875 -0.57813,0.60938 -1.3125,0.92188 -0.73438,0.3125 -1.5,0.3125 z m 0,-0.67188 q 0.6875,0 1.1875,-0.32812 0.5,-0.34375 0.8125,-0.90625 0.3125,-0.57813 0.45312,-1.28125 0.15625,-0.71875 0.15625,-1.48438 0,-0.75 -0.15625,-1.45312 -0.14062,-0.71875 -0.45312,-1.28125 -0.3125,-0.57813 -0.8125,-0.90625 -0.5,-0.34375 -1.1875,-0.34375 -0.6875,0 -1.1875,0.34375 -0.5,0.32812 -0.82813,0.90625 -0.3125,0.5625 -0.46875,1.28125 -0.15625,0.70312 -0.15625,1.45312 0,0.76563 0.15625,1.48438 0.15625,0.70312 0.46875,1.28125 0.32813,0.5625 0.82813,0.90625 0.5,0.32812 1.1875,0.32812 z m 5.17297,3.65625 v -0.46875 l 1.0625,-0.1875 q 0.0156,-0.54687 0.0156,-1.09375 0.0156,-0.53125 0.0156,-1.0625 v -3.8125 q 0,-0.54687 -0.0156,-0.90625 0,-0.35937 -0.0312,-0.76562 l -1.04688,-0.10938 v -0.46875 l 1.85938,-0.8125 0.20312,0.125 0.0781,0.875 q 0.95312,-1 2.01562,-1 0.71875,0 1.28125,0.40625 0.57813,0.39063 0.92188,1.14063 0.34375,0.73437 0.34375,1.76562 0,1.03125 -0.35938,1.78125 -0.35937,0.75 -0.98437,1.17188 -0.60938,0.40625 -1.40625,0.40625 -0.45313,0 -0.90625,-0.1875 -0.4375,-0.1875 -0.85938,-0.67188 v 1.04688 q 0,0.53125 0,1.0625 0.0156,0.54687 0.0156,1.09375 l 1.21875,0.20312 v 0.46875 z m 3.84375,-8.9375 q -0.3125,0 -0.71875,0.15625 -0.39062,0.15625 -0.90625,0.57813 v 3.75 q 0.375,0.35937 0.73438,0.51562 0.35937,0.15625 0.73437,0.15625 0.75,0 1.28125,-0.59375 0.53125,-0.59375 0.53125,-1.89062 0,-1.28125 -0.46875,-1.96875 -0.46875,-0.70313 -1.1875,-0.70313 z m 6.05878,5.92188 q -0.6875,0 -1.10937,-0.375 -0.40625,-0.375 -0.40625,-1.14063 0,-0.25 0,-0.5 0,-0.25 0,-0.64062 v -3.14063 h -1.09375 v -0.57812 l 1.1875,-0.15625 0.34375,-1.78125 h 0.79687 l -0.0781,1.8125 h 1.79687 v 0.70312 h -1.8125 v 4.125 q 0,0.51563 0.20313,0.75 0.20312,0.23438 0.53125,0.23438 0.21875,0 0.42187,-0.0937 0.21875,-0.0937 0.46875,-0.26563 l 0.32813,0.34375 q -0.54688,0.70313 -1.57813,0.70313 z m 2.36292,-4.25 v -0.625 l 5.15625,-3 0.39062,0.71875 -4.625,2.59375 4.625,2.59375 -0.39062,0.71875 z m 10.24908,-4.21875 h -0.8125 q 0,0.84375 -0.0156,1.73437 0,0.89063 0,1.78125 v 0.64063 h 0.875 q 1.21875,0 1.73438,-0.59375 0.51562,-0.59375 0.51562,-1.53125 0,-0.96875 -0.5625,-1.5 -0.54687,-0.53125 -1.73437,-0.53125 z m -3.34375,-0.0781 v -0.54687 h 3.57812 q 1.6875,0 2.53125,0.75 0.85938,0.73437 0.85938,1.90625 0,0.75 -0.375,1.375 -0.375,0.625 -1.20313,1 -0.8125,0.375 -2.1875,0.375 h -0.6875 q 0,0.71875 0,1.42187 0.0156,0.6875 0.0156,1.40625 l 1.25,0.14063 v 0.54687 h -3.78125 v -0.54687 l 1.21875,-0.14063 q 0.0312,-0.84375 0.0312,-1.70312 0,-0.875 0,-1.73438 v -0.65625 q 0,-0.875 0,-1.73437 0,-0.85938 -0.0312,-1.70313 z m 13.56897,3.67188 v 0.625 l -5.15625,3 -0.39063,-0.71875 4.625,-2.59375 -4.625,-2.59375 0.39063,-0.71875 z" />
    <path
       style="fill:#000000;fill-opacity:0;fill-rule:evenodd"
       id="path527"
       d="m 642.631,348.78418 h 51.10553" />
    <path
       style="fill-rule:evenodd;stroke:#595959;stroke-width:2;stroke-linecap:butt;stroke-linejoin:round"
       id="path529"
       d="m 642.631,348.7842 h 39.10559" />
    <path
       style="fill:#595959;fill-rule:evenodd;stroke:#595959;stroke-width:2;stroke-linecap:butt"
       id="path531"
       d="m 681.7366,352.08768 9.07617,-3.30347 -9.07617,-3.30346 z" />
    <path
       style="fill:#000000;fill-opacity:0;fill-rule:evenodd"
       id="path533"
       d="m 642.631,342.83337 h 18.39801 v 11.90161 H 642.631 Z" />
    <path
       style="fill:#000000;fill-opacity:0;fill-rule:evenodd"
       id="path535"
       d="m 675.31775,342.83337 h 18.39801 v 11.90161 h -18.39801 z" />
    <path
       style="fill:#000000;fill-opacity:0;fill-rule:evenodd"
       id="path537"
       d="M 693.7358,378.62967 H 642.63033" />
    <path
       style="fill-rule:evenodd;stroke:#1c4587;stroke-width:2;stroke-linecap:butt;stroke-linejoin:round"
       id="path539"
       d="M 693.73584,378.62967 H 654.63031" />
    <path
       style="fill:#1c4587;fill-rule:evenodd;stroke:#1c4587;stroke-width:2;stroke-linecap:butt"
       id="path541"
       d="m 654.6303,375.3262 -9.07623,3.30347 9.07623,3.30346 z" />
    <path
       style="fill:#000000;fill-opacity:0;fill-rule:evenodd"
       id="path543"
       d="m 642.6521,372.67886 h 18.39801 v 11.90161 H 642.6521 Z" />
    <path
       style="fill:#000000;fill-opacity:0;fill-rule:evenodd"
       id="path545"
       d="m 675.3385,372.67886 h 18.39801 v 11.90161 H 675.3385 Z" />
    <path
       style="fill:#000000;fill-opacity:0;fill-rule:evenodd"
       id="path547"
       d="m 772.60736,299.72592 h 51.10553" />
    <path
       style="fill-rule:evenodd;stroke:#595959;stroke-width:2;stroke-linecap:butt;stroke-linejoin:round"
       id="path549"
       d="m 772.60736,299.72592 h 39.10559" />
    <path
       style="fill:#595959;fill-rule:evenodd;stroke:#595959;stroke-width:2;stroke-linecap:butt"
       id="path551"
       d="m 811.71295,303.0294 9.07617,-3.30347 -9.07617,-3.30346 z" />
    <path
       style="fill:#000000;fill-opacity:0;fill-rule:evenodd"
       id="path553"
       d="m 772.60736,293.77515 h 18.39801 v 11.90158 h -18.39801 z" />
    <path
       style="fill:#000000;fill-opacity:0;fill-rule:evenodd"
       id="path555"
       d="m 805.2941,293.77515 h 18.39801 v 11.90158 H 805.2941 Z" />
    <path
       style="fill:#000000;fill-opacity:0;fill-rule:evenodd"
       id="path557"
       d="M 823.71216,329.5714 H 772.60669" />
    <path
       style="fill-rule:evenodd;stroke:#1c4587;stroke-width:2;stroke-linecap:butt;stroke-linejoin:round"
       id="path559"
       d="M 823.71216,329.5714 H 784.60663" />
    <path
       style="fill:#1c4587;fill-rule:evenodd;stroke:#1c4587;stroke-width:2;stroke-linecap:butt"
       id="path561"
       d="m 784.6066,326.26794 -9.07617,3.30347 9.07617,3.30346 z" />
    <path
       style="fill:#000000;fill-opacity:0;fill-rule:evenodd"
       id="path563"
       d="m 772.6285,323.6206 h 18.39801 v 11.90161 H 772.6285 Z" />
    <path
       style="fill:#000000;fill-opacity:0;fill-rule:evenodd"
       id="path565"
       d="m 805.3149,323.6206 h 18.39801 v 11.90161 H 805.3149 Z" />
    <path
       style="fill:#000000;fill-opacity:0;fill-rule:evenodd"
       id="path567"
       d="m 631.7507,358.04977 h 61.98425 v 14.86615 H 631.7507 Z" />
    <path
       style="fill:#202122;fill-rule:nonzero"
       id="path569"
       d="m 687.4885,365.0284 q 0.8125,0.21875 1.32813,0.84375 0.53125,0.60937 0.53125,1.45312 0,1.15625 -1.04688,1.78125 -1.03125,0.60938 -2.5625,0.60938 h -3.96875 q -0.23437,0 -0.23437,-0.25 0,-0.25 0.4375,-0.25 0.46875,0 0.625,-0.125 0.17187,-0.14063 0.17187,-0.59375 v -6.3125 q 0,-0.5 -0.20312,-0.60938 -0.20313,-0.10937 -0.79688,-0.10937 -0.23437,0 -0.23437,-0.25 0,-0.25 0.23437,-0.25 h 3.96875 q 3.10938,0 3.10938,2.25 0,1.10937 -1.35938,1.8125 z m 0.89063,-1.8125 q 0,-1.48438 -1.70313,-1.70313 0.54688,0.625 0.54688,1.70313 0,1.21875 -0.6875,1.75 1.84375,-0.875 1.84375,-1.75 z m -1.64063,0 q 0,-0.76563 -0.32812,-1.25 -0.32813,-0.5 -0.92188,-0.5 -0.28125,0 -0.5,0.14062 -0.20312,0.125 -0.20312,0.34375 v 3 q 0.96875,0 1.45312,-0.375 0.5,-0.375 0.5,-1.35937 z m 2.125,4.10937 q 0,-0.8125 -0.51562,-1.25 -0.51563,-0.4375 -1.42188,-0.70312 0.6875,0.53125 0.6875,1.95312 0,1.09375 -0.54687,1.75 1.79687,-0.45312 1.79687,-1.75 z m -4.07812,1.42188 q 0,0.21875 0.20312,0.34375 0.21875,0.125 0.5,0.125 1.64063,0 1.64063,-1.89063 0,-0.98437 -0.375,-1.4375 -0.35938,-0.45312 -1.26563,-0.45312 h -0.70312 z m -0.34375,-7.28125 h -1.3125 q 0.125,0.25 0.125,0.71875 v 6.3125 q 0,0.46875 -0.125,0.71875 h 1.3125 q -0.14063,-0.21875 -0.14063,-0.46875 v -6.79688 q 0,-0.26562 0.14063,-0.48437 z" />
    <path
       style="fill:#000000;fill-opacity:0;fill-rule:evenodd"
       id="path571"
       d="m 772.6037,280.17343 h 61.98425 v 14.86612 H 772.6037 Z" />
    <path
       style="fill:#202122;fill-rule:nonzero"
       id="path573"
       d="m 781.32245,292.0427 q -0.78125,0 -1.51563,-0.29687 -0.71875,-0.3125 -1.3125,-0.89063 -0.57812,-0.59375 -0.92187,-1.45312 -0.34375,-0.875 -0.34375,-2.03125 0,-1.09375 0.34375,-1.95313 0.34375,-0.875 0.92187,-1.46875 0.59375,-0.59375 1.3125,-0.90625 0.73438,-0.3125 1.51563,-0.3125 0.76562,0 1.48437,0.29688 0.73438,0.29687 1.3125,0.89062 0.59375,0.57813 0.9375,1.45313 0.34375,0.85937 0.34375,2 0,1.09375 -0.34375,1.96875 -0.34375,0.85937 -0.92187,1.46875 -0.57813,0.60937 -1.3125,0.92187 -0.73438,0.3125 -1.5,0.3125 z m 0,-0.67187 q 0.6875,0 1.1875,-0.32813 0.5,-0.34375 0.8125,-0.90625 0.3125,-0.57812 0.45312,-1.28125 0.15625,-0.71875 0.15625,-1.48437 0,-0.75 -0.15625,-1.45313 -0.14062,-0.71875 -0.45312,-1.28125 -0.3125,-0.57812 -0.8125,-0.90625 -0.5,-0.34375 -1.1875,-0.34375 -0.6875,0 -1.1875,0.34375 -0.5,0.32813 -0.82813,0.90625 -0.3125,0.5625 -0.46875,1.28125 -0.15625,0.70313 -0.15625,1.45313 0,0.76562 0.15625,1.48437 0.15625,0.70313 0.46875,1.28125 0.32813,0.5625 0.82813,0.90625 0.5,0.32813 1.1875,0.32813 z m 5.17291,3.65625 v -0.46875 l 1.0625,-0.1875 q 0.0156,-0.54688 0.0156,-1.09375 0.0156,-0.53125 0.0156,-1.0625 v -3.8125 q 0,-0.54688 -0.0156,-0.90625 0,-0.35938 -0.0312,-0.76563 l -1.04688,-0.10937 v -0.46875 l 1.85938,-0.8125 0.20312,0.125 0.0781,0.875 q 0.95312,-1 2.01562,-1 0.71875,0 1.28125,0.40625 0.57813,0.39062 0.92188,1.14062 0.34375,0.73438 0.34375,1.76563 0,1.03125 -0.35938,1.78125 -0.35937,0.75 -0.98437,1.17187 -0.60938,0.40625 -1.40625,0.40625 -0.45313,0 -0.90625,-0.1875 -0.4375,-0.1875 -0.85938,-0.67187 v 1.04687 q 0,0.53125 0,1.0625 0.0156,0.54688 0.0156,1.09375 l 1.21875,0.20313 v 0.46875 z m 3.84375,-8.9375 q -0.3125,0 -0.71875,0.15625 -0.39062,0.15625 -0.90625,0.57812 v 3.75 q 0.375,0.35938 0.73438,0.51563 0.35937,0.15625 0.73437,0.15625 0.75,0 1.28125,-0.59375 0.53125,-0.59375 0.53125,-1.89063 0,-1.28125 -0.46875,-1.96875 -0.46875,-0.70312 -1.1875,-0.70312 z m 6.05884,5.92187 q -0.6875,0 -1.10937,-0.375 -0.40625,-0.375 -0.40625,-1.14062 0,-0.25 0,-0.5 0,-0.25 0,-0.64063 v -3.14062 h -1.09375 v -0.57813 l 1.1875,-0.15625 0.34375,-1.78125 h 0.79687 l -0.0781,1.8125 h 1.79687 v 0.70313 h -1.8125 v 4.125 q 0,0.51562 0.20313,0.75 0.20312,0.23437 0.53125,0.23437 0.21875,0 0.42187,-0.0937 0.21875,-0.0937 0.46875,-0.26562 l 0.32813,0.34375 q -0.54688,0.70312 -1.57813,0.70312 z m 2.36285,-4.25 v -0.625 l 5.15625,-3 0.39063,0.71875 -4.625,2.59375 4.625,2.59375 -0.39063,0.71875 z m 10.24909,-4.21875 h -0.8125 q 0,0.84375 -0.0156,1.73438 0,0.89062 0,1.78125 v 0.64062 h 0.875 q 1.21875,0 1.73438,-0.59375 0.51562,-0.59375 0.51562,-1.53125 0,-0.96875 -0.5625,-1.5 -0.54687,-0.53125 -1.73437,-0.53125 z m -3.34375,-0.0781 v -0.54688 h 3.57812 q 1.6875,0 2.53125,0.75 0.85938,0.73438 0.85938,1.90625 0,0.75 -0.375,1.375 -0.375,0.625 -1.20313,1 -0.8125,0.375 -2.1875,0.375 h -0.6875 q 0,0.71875 0,1.42188 0.0156,0.6875 0.0156,1.40625 l 1.25,0.14062 v 0.54688 h -3.78125 v -0.54688 l 1.21875,-0.14062 q 0.0312,-0.84375 0.0312,-1.70313 0,-0.875 0,-1.73437 v -0.65625 q 0,-0.875 0,-1.73438 0,-0.85937 -0.0312,-1.70312 z m 13.56897,3.67187 v 0.625 l -5.15625,3 -0.39063,-0.71875 4.625,-2.59375 -4.625,-2.59375 0.39063,-0.71875 z" />
    <path
       style="fill:#000000;fill-opacity:0;fill-rule:evenodd"
       id="path575"
       d="m 772.6037,308.99152 h 61.98425 v 14.86615 H 772.6037 Z" />
    <path
       style="fill:#202122;fill-rule:nonzero"
       id="path577"
       d="m 782.9006,315.97015 q 0.8125,0.21875 1.32813,0.84375 0.53125,0.60937 0.53125,1.45312 0,1.15625 -1.04688,1.78125 -1.03125,0.60938 -2.5625,0.60938 h -3.96875 q -0.23437,0 -0.23437,-0.25 0,-0.25 0.4375,-0.25 0.46875,0 0.625,-0.125 0.17187,-0.14063 0.17187,-0.59375 v -6.3125 q 0,-0.5 -0.20312,-0.60938 -0.20313,-0.10937 -0.79688,-0.10937 -0.23437,0 -0.23437,-0.25 0,-0.25 0.23437,-0.25 h 3.96875 q 3.10938,0 3.10938,2.25 0,1.10937 -1.35938,1.8125 z m 0.89063,-1.8125 q 0,-1.48438 -1.70313,-1.70313 0.54688,0.625 0.54688,1.70313 0,1.21875 -0.6875,1.75 1.84375,-0.875 1.84375,-1.75 z m -1.64063,0 q 0,-0.76563 -0.32812,-1.25 -0.32813,-0.5 -0.92188,-0.5 -0.28125,0 -0.5,0.14062 -0.20312,0.125 -0.20312,0.34375 v 3 q 0.96875,0 1.45312,-0.375 0.5,-0.375 0.5,-1.35937 z m 2.125,4.10937 q 0,-0.8125 -0.51562,-1.25 -0.51563,-0.4375 -1.42188,-0.70312 0.6875,0.53125 0.6875,1.95312 0,1.09375 -0.54687,1.75 1.79687,-0.45312 1.79687,-1.75 z m -4.07812,1.42188 q 0,0.21875 0.20312,0.34375 0.21875,0.125 0.5,0.125 1.64063,0 1.64063,-1.89063 0,-0.98437 -0.375,-1.4375 -0.35938,-0.45312 -1.26563,-0.45312 h -0.70312 z m -0.34375,-7.28125 h -1.3125 q 0.125,0.25 0.125,0.71875 v 6.3125 q 0,0.46875 -0.125,0.71875 h 1.3125 q -0.14063,-0.21875 -0.14063,-0.46875 v -6.79688 q 0,-0.26562 0.14063,-0.48437 z" />
    <path
       style="fill:#000000;fill-opacity:0;fill-rule:evenodd"
       id="path579"
       d="m 772.60736,397.84143 h 51.10553" />
    <path
       style="fill-rule:evenodd;stroke:#595959;stroke-width:2;stroke-linecap:butt;stroke-linejoin:round"
       id="path581"
       d="m 772.60736,397.8414 h 39.10559" />
    <path
       style="fill:#595959;fill-rule:evenodd;stroke:#595959;stroke-width:2;stroke-linecap:butt"
       id="path583"
       d="m 811.71295,401.14487 9.07617,-3.30347 -9.07617,-3.30346 z" />
    <path
       style="fill:#000000;fill-opacity:0;fill-rule:evenodd"
       id="path585"
       d="m 772.60736,391.89062 h 18.39801 v 11.90158 h -18.39801 z" />
    <path
       style="fill:#000000;fill-opacity:0;fill-rule:evenodd"
       id="path587"
       d="m 805.2941,391.89062 h 18.39801 V 403.7922 H 805.2941 Z" />
    <path
       style="fill:#000000;fill-opacity:0;fill-rule:evenodd"
       id="path589"
       d="M 823.71216,427.68692 H 772.60669" />
    <path
       style="fill-rule:evenodd;stroke:#1c4587;stroke-width:2;stroke-linecap:butt;stroke-linejoin:round"
       id="path591"
       d="M 823.71216,427.68692 H 784.60663" />
    <path
       style="fill:#1c4587;fill-rule:evenodd;stroke:#1c4587;stroke-width:2;stroke-linecap:butt"
       id="path593"
       d="m 784.6066,424.38345 -9.07617,3.30347 9.07617,3.30346 z" />
    <path
       style="fill:#000000;fill-opacity:0;fill-rule:evenodd"
       id="path595"
       d="m 772.6285,421.7361 h 18.39801 v 11.90158 H 772.6285 Z" />
    <path
       style="fill:#000000;fill-opacity:0;fill-rule:evenodd"
       id="path597"
       d="m 805.3149,421.7361 h 18.39801 v 11.90158 H 805.3149 Z" />
    <path
       style="fill:#000000;fill-opacity:0;fill-rule:evenodd"
       id="path599"
       d="m 772.6037,378.2889 h 61.98425 v 14.86615 H 772.6037 Z" />
    <path
       style="fill:#202122;fill-rule:nonzero"
       id="path601"
       d="m 781.32245,390.15817 q -0.78125,0 -1.51563,-0.29688 -0.71875,-0.3125 -1.3125,-0.89062 -0.57812,-0.59375 -0.92187,-1.45313 -0.34375,-0.875 -0.34375,-2.03125 0,-1.09375 0.34375,-1.95312 0.34375,-0.875 0.92187,-1.46875 0.59375,-0.59375 1.3125,-0.90625 0.73438,-0.3125 1.51563,-0.3125 0.76562,0 1.48437,0.29687 0.73438,0.29688 1.3125,0.89063 0.59375,0.57812 0.9375,1.45312 0.34375,0.85938 0.34375,2 0,1.09375 -0.34375,1.96875 -0.34375,0.85938 -0.92187,1.46875 -0.57813,0.60938 -1.3125,0.92188 -0.73438,0.3125 -1.5,0.3125 z m 0,-0.67188 q 0.6875,0 1.1875,-0.32812 0.5,-0.34375 0.8125,-0.90625 0.3125,-0.57813 0.45312,-1.28125 0.15625,-0.71875 0.15625,-1.48438 0,-0.75 -0.15625,-1.45312 -0.14062,-0.71875 -0.45312,-1.28125 -0.3125,-0.57813 -0.8125,-0.90625 -0.5,-0.34375 -1.1875,-0.34375 -0.6875,0 -1.1875,0.34375 -0.5,0.32812 -0.82813,0.90625 -0.3125,0.5625 -0.46875,1.28125 -0.15625,0.70312 -0.15625,1.45312 0,0.76563 0.15625,1.48438 0.15625,0.70312 0.46875,1.28125 0.32813,0.5625 0.82813,0.90625 0.5,0.32812 1.1875,0.32812 z m 5.17291,3.65625 v -0.46875 l 1.0625,-0.1875 q 0.0156,-0.54687 0.0156,-1.09375 0.0156,-0.53125 0.0156,-1.0625 v -3.8125 q 0,-0.54687 -0.0156,-0.90625 0,-0.35937 -0.0312,-0.76562 l -1.04688,-0.10938 v -0.46875 l 1.85938,-0.8125 0.20312,0.125 0.0781,0.875 q 0.95312,-1 2.01562,-1 0.71875,0 1.28125,0.40625 0.57813,0.39063 0.92188,1.14063 0.34375,0.73437 0.34375,1.76562 0,1.03125 -0.35938,1.78125 -0.35937,0.75 -0.98437,1.17188 -0.60938,0.40625 -1.40625,0.40625 -0.45313,0 -0.90625,-0.1875 -0.4375,-0.1875 -0.85938,-0.67188 v 1.04688 q 0,0.53125 0,1.0625 0.0156,0.54687 0.0156,1.09375 l 1.21875,0.20312 v 0.46875 z m 3.84375,-8.9375 q -0.3125,0 -0.71875,0.15625 -0.39062,0.15625 -0.90625,0.57813 v 3.75 q 0.375,0.35937 0.73438,0.51562 0.35937,0.15625 0.73437,0.15625 0.75,0 1.28125,-0.59375 0.53125,-0.59375 0.53125,-1.89062 0,-1.28125 -0.46875,-1.96875 -0.46875,-0.70313 -1.1875,-0.70313 z m 6.05884,5.92188 q -0.6875,0 -1.10937,-0.375 -0.40625,-0.375 -0.40625,-1.14063 0,-0.25 0,-0.5 0,-0.25 0,-0.64062 v -3.14063 h -1.09375 v -0.57812 l 1.1875,-0.15625 0.34375,-1.78125 h 0.79687 l -0.0781,1.8125 h 1.79687 v 0.70312 h -1.8125 v 4.125 q 0,0.51563 0.20313,0.75 0.20312,0.23438 0.53125,0.23438 0.21875,0 0.42187,-0.0937 0.21875,-0.0937 0.46875,-0.26563 l 0.32813,0.34375 q -0.54688,0.70313 -1.57813,0.70313 z m 2.36285,-4.25 v -0.625 l 5.15625,-3 0.39063,0.71875 -4.625,2.59375 4.625,2.59375 -0.39063,0.71875 z m 10.24909,-4.21875 h -0.8125 q 0,0.84375 -0.0156,1.73437 0,0.89063 0,1.78125 v 0.64063 h 0.875 q 1.21875,0 1.73438,-0.59375 0.51562,-0.59375 0.51562,-1.53125 0,-0.96875 -0.5625,-1.5 -0.54687,-0.53125 -1.73437,-0.53125 z m -3.34375,-0.0781 v -0.54687 h 3.57812 q 1.6875,0 2.53125,0.75 0.85938,0.73437 0.85938,1.90625 0,0.75 -0.375,1.375 -0.375,0.625 -1.20313,1 -0.8125,0.375 -2.1875,0.375 h -0.6875 q 0,0.71875 0,1.42187 0.0156,0.6875 0.0156,1.40625 l 1.25,0.14063 v 0.54687 h -3.78125 v -0.54687 l 1.21875,-0.14063 q 0.0312,-0.84375 0.0312,-1.70312 0,-0.875 0,-1.73438 v -0.65625 q 0,-0.875 0,-1.73437 0,-0.85938 -0.0312,-1.70313 z m 13.56897,3.67188 v 0.625 l -5.15625,3 -0.39063,-0.71875 4.625,-2.59375 -4.625,-2.59375 0.39063,-0.71875 z" />
    <path
       style="fill:#000000;fill-opacity:0;fill-rule:evenodd"
       id="path603"
       d="m 772.6037,407.10703 h 61.98425 v 14.86612 H 772.6037 Z" />
    <path
       style="fill:#202122;fill-rule:nonzero"
       id="path605"
       d="m 782.9006,414.08566 q 0.8125,0.21875 1.32813,0.84375 0.53125,0.60938 0.53125,1.45313 0,1.15625 -1.04688,1.78125 -1.03125,0.60937 -2.5625,0.60937 h -3.96875 q -0.23437,0 -0.23437,-0.25 0,-0.25 0.4375,-0.25 0.46875,0 0.625,-0.125 0.17187,-0.14062 0.17187,-0.59375 v -6.3125 q 0,-0.5 -0.20312,-0.60937 -0.20313,-0.10938 -0.79688,-0.10938 -0.23437,0 -0.23437,-0.25 0,-0.25 0.23437,-0.25 h 3.96875 q 3.10938,0 3.10938,2.25 0,1.10938 -1.35938,1.8125 z m 0.89063,-1.8125 q 0,-1.48437 -1.70313,-1.70312 0.54688,0.625 0.54688,1.70312 0,1.21875 -0.6875,1.75 1.84375,-0.875 1.84375,-1.75 z m -1.64063,0 q 0,-0.76562 -0.32812,-1.25 -0.32813,-0.5 -0.92188,-0.5 -0.28125,0 -0.5,0.14063 -0.20312,0.125 -0.20312,0.34375 v 3 q 0.96875,0 1.45312,-0.375 0.5,-0.375 0.5,-1.35938 z m 2.125,4.10938 q 0,-0.8125 -0.51562,-1.25 -0.51563,-0.4375 -1.42188,-0.70313 0.6875,0.53125 0.6875,1.95313 0,1.09375 -0.54687,1.75 1.79687,-0.45313 1.79687,-1.75 z m -4.07812,1.42187 q 0,0.21875 0.20312,0.34375 0.21875,0.125 0.5,0.125 1.64063,0 1.64063,-1.89062 0,-0.98438 -0.375,-1.4375 -0.35938,-0.45313 -1.26563,-0.45313 h -0.70312 z m -0.34375,-7.28125 h -1.3125 q 0.125,0.25 0.125,0.71875 v 6.3125 q 0,0.46875 -0.125,0.71875 h 1.3125 q -0.14063,-0.21875 -0.14063,-0.46875 v -6.79687 q 0,-0.26563 0.14063,-0.48438 z" />
    <path
       style="fill:#000000;fill-opacity:0;fill-rule:evenodd"
       id="path607"
       d="m 693.71576,348.78418 c 19.72284,0 29.58344,-12.2677 39.44562,-24.53543 9.86224,-12.2677 19.72601,-24.53543 39.45202,-24.53543" />
    <path
       style="fill-rule:evenodd;stroke:#595959;stroke-width:1;stroke-linecap:butt;stroke-linejoin:round"
       id="path609"
       d="m 693.7157,348.7842 c 19.72284,0 29.5835,-12.26773 39.44574,-24.53546 4.93109,-6.13385 9.86261,-12.26773 16.02704,-16.8681 3.08221,-2.30021 6.47272,-4.21705 10.32544,-5.55881 1.92645,-0.6709 3.96844,-1.19803 6.1452,-1.55744 0.27216,-0.0449 0.54633,-0.0872 0.82269,-0.12686 l 0.14515,-0.0201" />
    <path
       style="fill:#595959;fill-rule:evenodd;stroke:#595959;stroke-width:1;stroke-linecap:butt"
       id="path611"
       d="m 766.7382,301.76547 4.41656,-1.95367 -4.63909,-1.34229 z" />
    <path
       style="fill:#000000;fill-opacity:0;fill-rule:evenodd"
       id="path613"
       d="m 693.71576,348.78418 c 19.72284,0 29.58344,12.26773 39.44562,24.53543 9.86224,12.26773 19.72601,24.53543 39.45202,24.53543" />
    <path
       style="fill-rule:evenodd;stroke:#595959;stroke-width:1;stroke-linecap:butt;stroke-linejoin:round"
       id="path615"
       d="m 693.7157,348.7842 c 19.72284,0 29.5835,12.2677 39.44574,24.53543 4.93109,6.13385 9.86261,12.2677 16.02704,16.8681 3.08221,2.3002 6.47272,4.21704 10.32544,5.55881 1.92645,0.6709 3.96844,1.198 6.1452,1.5574 0.27216,0.045 0.54633,0.0872 0.82269,0.1269 l 0.14515,0.0201" />
    <path
       style="fill:#595959;fill-rule:evenodd;stroke:#595959;stroke-width:1;stroke-linecap:butt"
       id="path617"
       d="m 766.5157,399.09888 4.6391,-1.34229 -4.41657,-1.95367 z" />
    <path
       style="fill:#000000;fill-opacity:0;fill-rule:evenodd"
       id="path619"
       d="m 772.6285,329.5714 c -19.72284,0 -29.58343,12.26773 -39.44568,24.53543 -9.86218,12.26773 -19.72595,24.53543 -39.45196,24.53543" />
    <path
       style="fill-rule:evenodd;stroke:#1c4587;stroke-width:1;stroke-linecap:butt;stroke-linejoin:round"
       id="path621"
       d="m 772.6284,329.5714 c -19.72272,0 -29.58337,12.26773 -39.44562,24.53546 -4.93109,6.13385 -9.86261,12.26773 -16.02704,16.8681 -3.08227,2.30021 -6.47271,4.21704 -10.32556,5.55881 -1.92633,0.6709 -3.96832,1.198 -6.14514,1.55744 -0.2721,0.045 -0.54639,0.0872 -0.82269,0.12686 l -0.14521,0.0201" />
    <path
       style="fill:#1c4587;fill-rule:evenodd;stroke:#1c4587;stroke-width:1;stroke-linecap:butt"
       id="path623"
       d="m 699.6059,376.59015 -4.4165,1.95367 4.63903,1.34229 z" />
    <path
       style="fill:#000000;fill-opacity:0;fill-rule:evenodd"
       id="path625"
       d="m 772.6285,427.68692 c -19.72284,0 -29.58343,-12.26773 -39.44568,-24.53546 -9.86218,-12.2677 -19.72595,-24.53543 -39.45196,-24.53543" />
    <path
       style="fill-rule:evenodd;stroke:#1c4587;stroke-width:1;stroke-linecap:butt;stroke-linejoin:round"
       id="path627"
       d="m 772.6284,427.68692 c -19.72272,0 -29.58337,-12.2677 -39.44562,-24.53543 -4.93109,-6.13385 -9.86261,-12.2677 -16.02704,-16.8681 -3.08227,-2.3002 -6.47271,-4.21704 -10.32556,-5.55881 -1.92633,-0.6709 -3.96832,-1.198 -6.14514,-1.55743 -0.2721,-0.0449 -0.54639,-0.0872 -0.82269,-0.12687 l -0.14521,-0.02" />
    <path
       style="fill:#1c4587;fill-rule:evenodd;stroke:#1c4587;stroke-width:1;stroke-linecap:butt"
       id="path629"
       d="m 699.8284,377.37225 -4.63904,1.34229 4.41651,1.95367 z" />
  </g>
</svg>
