<?xml version="1.0" encoding="UTF-8" standalone="no"?>
<svg
   xmlns:dc="http://purl.org/dc/elements/1.1/"
   xmlns:cc="http://creativecommons.org/ns#"
   xmlns:rdf="http://www.w3.org/1999/02/22-rdf-syntax-ns#"
   xmlns:svg="http://www.w3.org/2000/svg"
   xmlns="http://www.w3.org/2000/svg"
   style="fill:none;stroke:none;stroke-linecap:square;stroke-miterlimit:10"
   height="107.49606"
   width="437.25983"
   id="svg633"
   stroke-miterlimit="10"
   viewBox="0 0 437.25983 107.49606"
   version="1.1">
  <metadata
     id="metadata639">
    <rdf:RDF>
      <cc:Work
         rdf:about="">
        <dc:format>image/svg+xml</dc:format>
        <dc:type
           rdf:resource="http://purl.org/dc/dcmitype/StillImage" />
        <dc:title></dc:title>
      </cc:Work>
    </rdf:RDF>
  </metadata>
  <defs
     id="defs637" />
  <clipPath
     id="g2f80604df9e_0_272.0">
    <path
       style="clip-rule:nonzero"
       id="path2"
       d="M 0,0 H 960 V 540 H 0 Z" />
  </clipPath>
  <g
     transform="translate(-47.87402,-196.52756)"
     id="g631"
     clip-path="url(#g2f80604df9e_0_272.0)">
    <path
       style="fill:#d9d9d9;fill-rule:evenodd"
       id="path147"
       d="m 204.42651,221.87927 h 124.15747 v 76.50394 H 204.42651 Z" />
    <path
       style="fill-rule:evenodd;stroke:#595959;stroke-width:1;stroke-linecap:butt;stroke-linejoin:round"
       id="path149"
       d="m 204.42651,221.87927 h 124.15747 v 76.50394 H 204.42651 Z" />
    <path
       style="fill:#000000;fill-opacity:0;fill-rule:evenodd"
       id="path151"
       d="m 142.43832,234.0112 h 61.98425 v 14.86615 h -61.98425 z" />
    <path
       style="fill:#202122;fill-rule:nonzero"
       id="path153"
       d="m 161.74518,245.88048 q -0.78125,0 -1.51563,-0.29688 -0.71875,-0.3125 -1.3125,-0.89062 -0.57812,-0.59375 -0.92187,-1.45313 -0.34375,-0.875 -0.34375,-2.03125 0,-1.09375 0.34375,-1.95312 0.34375,-0.875 0.92187,-1.46875 0.59375,-0.59375 1.3125,-0.90625 0.73438,-0.3125 1.51563,-0.3125 0.76562,0 1.48437,0.29687 0.73438,0.29688 1.3125,0.89063 0.59375,0.57812 0.9375,1.45312 0.34375,0.85938 0.34375,2 0,1.09375 -0.34375,1.96875 -0.34375,0.85938 -0.92187,1.46875 -0.57813,0.60938 -1.3125,0.92188 -0.73438,0.3125 -1.5,0.3125 z m 0,-0.67188 q 0.6875,0 1.1875,-0.32812 0.5,-0.34375 0.8125,-0.90625 0.3125,-0.57813 0.45312,-1.28125 0.15625,-0.71875 0.15625,-1.48438 0,-0.75 -0.15625,-1.45312 -0.14062,-0.71875 -0.45312,-1.28125 -0.3125,-0.57813 -0.8125,-0.90625 -0.5,-0.34375 -1.1875,-0.34375 -0.6875,0 -1.1875,0.34375 -0.5,0.32812 -0.82813,0.90625 -0.3125,0.5625 -0.46875,1.28125 -0.15625,0.70312 -0.15625,1.45312 0,0.76563 0.15625,1.48438 0.15625,0.70312 0.46875,1.28125 0.32813,0.5625 0.82813,0.90625 0.5,0.32812 1.1875,0.32812 z m 5.17294,3.65625 v -0.46875 l 1.0625,-0.1875 q 0.0156,-0.54687 0.0156,-1.09375 0.0156,-0.53125 0.0156,-1.0625 v -3.8125 q 0,-0.54687 -0.0156,-0.90625 0,-0.35937 -0.0312,-0.76562 l -1.04688,-0.10938 v -0.46875 l 1.85938,-0.8125 0.20312,0.125 0.0781,0.875 q 0.95312,-1 2.01562,-1 0.71875,0 1.28125,0.40625 0.57813,0.39063 0.92188,1.14063 0.34375,0.73437 0.34375,1.76562 0,1.03125 -0.35938,1.78125 -0.35937,0.75 -0.98437,1.17188 -0.60938,0.40625 -1.40625,0.40625 -0.45313,0 -0.90625,-0.1875 -0.4375,-0.1875 -0.85938,-0.67188 v 1.04688 q 0,0.53125 0,1.0625 0.0156,0.54687 0.0156,1.09375 l 1.21875,0.20312 v 0.46875 z m 3.84375,-8.9375 q -0.3125,0 -0.71875,0.15625 -0.39062,0.15625 -0.90625,0.57813 v 3.75 q 0.375,0.35937 0.73438,0.51562 0.35937,0.15625 0.73437,0.15625 0.75,0 1.28125,-0.59375 0.53125,-0.59375 0.53125,-1.89062 0,-1.28125 -0.46875,-1.96875 -0.46875,-0.70313 -1.1875,-0.70313 z m 6.05881,5.92188 q -0.6875,0 -1.10937,-0.375 -0.40625,-0.375 -0.40625,-1.14063 0,-0.25 0,-0.5 0,-0.25 0,-0.64062 v -3.14063 h -1.09375 v -0.57812 l 1.1875,-0.15625 0.34375,-1.78125 h 0.79687 l -0.0781,1.8125 h 1.79687 v 0.70312 h -1.8125 v 4.125 q 0,0.51563 0.20313,0.75 0.20312,0.23438 0.53125,0.23438 0.21875,0 0.42187,-0.0937 0.21875,-0.0937 0.46875,-0.26563 l 0.32813,0.34375 q -0.54688,0.70313 -1.57813,0.70313 z m 2.36287,-4.25 v -0.625 l 5.15625,-3 0.39062,0.71875 -4.625,2.59375 4.625,2.59375 -0.39062,0.71875 z m 10.24908,-4.21875 h -0.8125 q 0,0.84375 -0.0156,1.73437 0,0.89063 0,1.78125 v 0.64063 h 0.875 q 1.21875,0 1.73437,-0.59375 0.51563,-0.59375 0.51563,-1.53125 0,-0.96875 -0.5625,-1.5 -0.54688,-0.53125 -1.73438,-0.53125 z m -3.34375,-0.0781 v -0.54687 h 3.57813 q 1.6875,0 2.53125,0.75 0.85937,0.73437 0.85937,1.90625 0,0.75 -0.375,1.375 -0.375,0.625 -1.20312,1 -0.8125,0.375 -2.1875,0.375 h -0.6875 q 0,0.71875 0,1.42187 0.0156,0.6875 0.0156,1.40625 l 1.25,0.14063 v 0.54687 h -3.78125 v -0.54687 l 1.21875,-0.14063 q 0.0312,-0.84375 0.0312,-1.70312 0,-0.875 0,-1.73438 v -0.65625 q 0,-0.875 0,-1.73437 0,-0.85938 -0.0312,-1.70313 z m 13.56899,3.67188 v 0.625 l -5.15625,3 -0.39063,-0.71875 4.625,-2.59375 -4.625,-2.59375 0.39063,-0.71875 z" />
    <path
       style="fill:#000000;fill-opacity:0;fill-rule:evenodd"
       id="path155"
       d="m 153.31866,253.56372 h 51.10551" />
    <path
       style="fill-rule:evenodd;stroke:#595959;stroke-width:2;stroke-linecap:butt;stroke-linejoin:round"
       id="path157"
       d="m 153.31866,253.5637 h 39.10551" />
    <path
       style="fill:#595959;fill-rule:evenodd;stroke:#595959;stroke-width:2;stroke-linecap:butt"
       id="path159"
       d="m 192.42418,256.8672 9.07619,-3.30348 -9.07619,-3.30347 z" />
    <path
       style="fill:#000000;fill-opacity:0;fill-rule:evenodd"
       id="path161"
       d="m 153.31866,247.61292 h 18.39798 v 11.90161 h -18.39798 z" />
    <path
       style="fill:#000000;fill-opacity:0;fill-rule:evenodd"
       id="path163"
       d="m 186.00542,247.61292 h 18.39798 v 11.90161 h -18.39798 z" />
    <path
       style="fill:#000000;fill-opacity:0;fill-rule:evenodd"
       id="path165"
       d="M 204.42346,283.4092 H 153.31794" />
    <path
       style="fill-rule:evenodd;stroke:#1c4587;stroke-width:2;stroke-linecap:butt;stroke-linejoin:round"
       id="path167"
       d="m 204.42345,283.4092 h -39.1055" />
    <path
       style="fill:#1c4587;fill-rule:evenodd;stroke:#1c4587;stroke-width:2;stroke-linecap:butt"
       id="path169"
       d="m 165.31795,280.10574 -9.07619,3.30347 9.07619,3.30346 z" />
    <path
       style="fill:#000000;fill-opacity:0;fill-rule:evenodd"
       id="path171"
       d="m 153.33977,277.4584 h 18.39798 v 11.90161 h -18.39798 z" />
    <path
       style="fill:#000000;fill-opacity:0;fill-rule:evenodd"
       id="path173"
       d="m 186.02618,277.4584 h 18.398 v 11.90161 h -18.398 z" />
    <path
       style="fill:#000000;fill-opacity:0;fill-rule:evenodd"
       id="path175"
       d="m 227.89099,240.07097 v 0 c 0,-3.03255 2.45837,-5.49092 5.49092,-5.49092 h 66.24651 c 1.45627,0 2.8529,0.57851 3.88266,1.60826 1.02975,1.02974 1.60824,2.42638 1.60824,3.88266 V 262.034 c 0,3.03256 -2.45837,5.49093 -5.4909,5.49093 h -66.24651 c -3.03255,0 -5.49092,-2.45837 -5.49092,-5.49093 z" />
    <path
       style="fill-rule:evenodd;stroke:#595959;stroke-width:1;stroke-linecap:butt;stroke-linejoin:round"
       id="path177"
       d="m 227.89099,240.07097 v 0 c 0,-3.03255 2.45837,-5.49092 5.49092,-5.49092 h 66.24651 c 1.45627,0 2.8529,0.57851 3.88266,1.60826 1.02975,1.02974 1.60824,2.42638 1.60824,3.88266 V 262.034 c 0,3.03256 -2.45837,5.49093 -5.4909,5.49093 h -66.24651 c -3.03255,0 -5.49092,-2.45837 -5.49092,-5.49093 z" />
    <path
       style="fill:#202122;fill-rule:nonzero"
       id="path179"
       d="m 244.13211,256.1325 v -0.53127 l 1.15625,-0.20312 q 0.0156,-0.57813 0.0156,-1.15625 0.0156,-0.59375 0.0156,-1.1875 v -3.10938 h -1.21875 v -0.64062 l 1.25,-0.15625 q 0.0937,-1.17188 0.3125,-1.89063 0.23437,-0.73437 0.78125,-1.28125 0.46875,-0.46875 0.98437,-0.64062 0.51563,-0.1875 1.01563,-0.1875 0.5,0 0.89062,0.1875 0.40625,0.1875 0.51563,0.60937 -0.0156,0.28125 -0.25,0.46875 -0.23438,0.1875 -0.65625,0.1875 -0.51563,0 -1.04688,-0.4375 l -0.40625,-0.3125 q -0.0625,0.0312 -0.125,0.0781 -0.0469,0.0469 -0.0937,0.0937 -0.375,0.375 -0.57812,1.15625 -0.1875,0.76562 -0.15625,1.98437 h 2.01562 v 0.78125 h -2 v 3.10938 q 0,0.59375 0,1.17187 0.0156,0.57813 0.0312,1.15625 l 1.32813,0.21875 v 0.53127 z" />
    <path
       style="fill:#202122;fill-rule:nonzero"
       id="path181"
       d="m 253.5071,252.78874 q 0,0.96875 0.15625,1.8125 0.17187,0.82812 0.57812,1.68752 0.40625,0.85937 1.10938,1.875 l -0.3125,0.26562 q -1.26563,-1.1875 -1.89063,-2.57814 -0.60937,-1.40625 -0.60937,-3.0625 0,-1.64063 0.60937,-3.03125 0.625,-1.40625 1.89063,-2.59375 l 0.3125,0.26562 q -0.70313,1.01563 -1.10938,1.875 -0.40625,0.85938 -0.57812,1.70313 -0.15625,0.82812 -0.15625,1.78125 z m 4.98927,3.50002 q -1.23437,0 -1.96875,-0.79689 -0.73437,-0.8125 -0.73437,-2.1875 0,-0.95313 0.39062,-1.625 0.39063,-0.6875 1.03125,-1.04688 0.64063,-0.35937 1.35938,-0.35937 0.53125,0 0.98437,0.20312 0.46875,0.20313 0.76563,0.5625 0.29687,0.35938 0.375,0.79688 -0.0937,0.45312 -0.5625,0.45312 -0.29688,0 -0.45313,-0.15625 -0.14062,-0.15625 -0.20312,-0.42187 l -0.21875,-0.78125 q -0.17188,-0.0625 -0.32813,-0.0781 -0.15625,-0.0156 -0.3125,-0.0156 -0.76562,0 -1.26562,0.59375 -0.5,0.59375 -0.5,1.75 0,1.125 0.53125,1.73437 0.54687,0.59375 1.39062,0.59375 0.51563,0 0.9375,-0.23437 0.4375,-0.23438 0.71875,-0.67188 l 0.29688,0.15625 q -0.25,0.73438 -0.8125,1.14063 -0.5625,0.39064 -1.42188,0.39064 z m 5.93418,0 q -0.6875,0 -1.32813,-0.32814 -0.625,-0.32813 -1.01562,-1 -0.39063,-0.67188 -0.39063,-1.64063 0,-1 0.39063,-1.67187 0.39062,-0.6875 1.01562,-1.03125 0.64063,-0.34375 1.32813,-0.34375 0.70312,0 1.32812,0.34375 0.64063,0.34375 1.03125,1.03125 0.40625,0.67187 0.40625,1.67187 0,0.96875 -0.40625,1.64063 -0.39062,0.67187 -1.03125,1 -0.625,0.32814 -1.32812,0.32814 z m 0,-0.54689 q 0.78125,0 1.20312,-0.60938 0.42188,-0.625 0.42188,-1.8125 0,-1.21875 -0.42188,-1.84375 -0.42187,-0.64062 -1.20312,-0.64062 -0.76563,0 -1.1875,0.64062 -0.40625,0.625 -0.40625,1.84375 0,1.1875 0.40625,1.8125 0.42187,0.60938 1.1875,0.60938 z m 3.79116,0.39064 v -0.43752 l 0.89063,-0.15625 q 0,-0.46875 0,-0.98437 0.0156,-0.53125 0.0156,-0.9375 v -0.57813 q 0,-0.5 -0.0156,-0.8125 0,-0.32812 -0.0156,-0.6875 l -0.95312,-0.10937 v -0.42188 l 1.6875,-0.73437 0.17187,0.125 0.0937,0.96875 q 0.42188,-0.48438 0.98438,-0.78125 0.5625,-0.3125 1.125,-0.3125 0.5625,0 0.90625,0.26562 0.35937,0.26563 0.51562,0.85938 0.45313,-0.5625 1.01563,-0.84375 0.5625,-0.28125 1.15625,-0.28125 0.73437,0 1.125,0.5 0.40625,0.48437 0.40625,1.60937 v 1.23438 q 0,0.40625 0,0.9375 0.0156,0.51562 0.0312,0.98437 l 0.84375,0.15625 v 0.43752 h -2.78125 v -0.43752 l 0.875,-0.15625 q 0.0156,-0.45312 0.0156,-0.98437 0.0156,-0.53125 0.0156,-0.9375 v -1.04688 q 0,-0.84375 -0.25,-1.125 -0.23438,-0.29687 -0.76563,-0.29687 -0.35937,0 -0.75,0.17187 -0.39062,0.15625 -0.85937,0.57813 0.0156,0.125 0.0156,0.28125 0.0156,0.15625 0.0156,0.3125 v 1.125 q 0,0.40625 0,0.9375 0.0156,0.51562 0.0312,0.98437 l 0.82812,0.15625 v 0.43752 h -2.78125 v -0.43752 l 0.89063,-0.15625 q 0.0156,-0.45312 0.0156,-0.98437 0,-0.53125 0,-0.9375 v -1.03125 q 0,-0.8125 -0.23437,-1.125 -0.21875,-0.3125 -0.73438,-0.3125 -0.42187,0 -0.79687,0.17187 -0.35938,0.15625 -0.8125,0.54688 v 1.75 q 0,0.39062 0,0.92187 0.0156,0.53125 0.0312,1 l 0.82812,0.15625 v 0.43752 z m 10.68708,0 v -0.43752 l 0.90625,-0.15625 q 0,-0.45312 0,-0.98437 0.0156,-0.53125 0.0156,-0.9375 v -5.26563 l -0.98437,-0.125 v -0.42187 l 1.84375,-0.54688 0.15625,0.10938 -0.0469,1.70312 v 2.125 q 0.4375,-0.46875 0.89063,-0.6875 0.46875,-0.23437 0.96875,-0.23437 0.625,0 1.14062,0.35937 0.51563,0.34375 0.82813,1 0.3125,0.65625 0.3125,1.59375 0,0.92188 -0.32813,1.625 -0.32812,0.6875 -0.89062,1.0625 -0.54688,0.37502 -1.26563,0.37502 -0.42187,0 -0.84375,-0.17188 -0.40625,-0.18751 -0.8125,-0.68751 l -0.0937,0.82814 z m 3.42187,-5.1719 q -0.28125,0 -0.64062,0.14063 -0.35938,0.14062 -0.84375,0.5625 v 3.28125 q 0.35937,0.34375 0.71875,0.5 0.375,0.15625 0.70312,0.15625 0.64063,0 1.10938,-0.54688 0.46875,-0.5625 0.46875,-1.73437 0,-1.14063 -0.42188,-1.75 -0.42187,-0.60938 -1.09375,-0.60938 z m 5.1514,1.82813 q 0,-0.95313 -0.17187,-1.78125 -0.15625,-0.84375 -0.5625,-1.70313 -0.39063,-0.85937 -1.10938,-1.875 l 0.3125,-0.26562 q 1.28125,1.1875 1.89063,2.59375 0.60937,1.39062 0.60937,3.03125 0,1.65625 -0.60937,3.0625 -0.60938,1.39064 -1.89063,2.57814 l -0.3125,-0.26562 q 0.71875,-1.01563 1.10938,-1.875 0.40625,-0.85939 0.5625,-1.68752 0.17187,-0.84375 0.17187,-1.8125 z" />
    <path
       style="fill:#000000;fill-opacity:0;fill-rule:evenodd"
       id="path183"
       d="m 328.589,253.56372 h 51.10553" />
    <path
       style="fill-rule:evenodd;stroke:#595959;stroke-width:2;stroke-linecap:butt;stroke-linejoin:round"
       id="path185"
       d="m 328.589,253.5637 h 39.10553" />
    <path
       style="fill:#595959;fill-rule:evenodd;stroke:#595959;stroke-width:2;stroke-linecap:butt"
       id="path187"
       d="m 367.69452,256.8672 9.0762,-3.30348 -9.0762,-3.30347 z" />
    <path
       style="fill:#000000;fill-opacity:0;fill-rule:evenodd"
       id="path189"
       d="m 328.589,247.61292 h 18.39801 v 11.90161 H 328.589 Z" />
    <path
       style="fill:#000000;fill-opacity:0;fill-rule:evenodd"
       id="path191"
       d="m 361.27576,247.61292 h 18.39798 v 11.90161 h -18.39798 z" />
    <path
       style="fill:#000000;fill-opacity:0;fill-rule:evenodd"
       id="path193"
       d="M 379.69382,283.4092 H 328.58829" />
    <path
       style="fill-rule:evenodd;stroke:#1c4587;stroke-width:2;stroke-linecap:butt;stroke-linejoin:round"
       id="path195"
       d="M 379.69382,283.4092 H 340.58829" />
    <path
       style="fill:#1c4587;fill-rule:evenodd;stroke:#1c4587;stroke-width:2;stroke-linecap:butt"
       id="path197"
       d="m 340.5883,280.10574 -9.0762,3.30347 9.0762,3.30346 z" />
    <path
       style="fill:#000000;fill-opacity:0;fill-rule:evenodd"
       id="path199"
       d="m 328.6101,277.4584 h 18.39798 v 11.90161 H 328.6101 Z" />
    <path
       style="fill:#000000;fill-opacity:0;fill-rule:evenodd"
       id="path201"
       d="m 361.29654,277.4584 h 18.39798 v 11.90161 h -18.39798 z" />
    <path
       style="fill:#000000;fill-opacity:0;fill-rule:evenodd"
       id="path203"
       d="M 328.6101,283.4092 H 204.42112" />
    <path
       style="fill-rule:evenodd;stroke:#1c4587;stroke-width:1;stroke-linecap:butt;stroke-linejoin:round"
       id="path205"
       d="M 328.6101,283.4092 H 210.42113" />
    <path
       style="fill:#1c4587;fill-rule:evenodd;stroke:#1c4587;stroke-width:1;stroke-linecap:butt"
       id="path207"
       d="m 210.42114,281.75748 -4.5381,1.65173 4.5381,1.65174 z" />
    <path
       style="fill:#000000;fill-opacity:0;fill-rule:evenodd"
       id="path209"
       d="m 204.4034,253.56372 c 5.8719,0 8.80679,-0.62993 11.74381,-1.25984 2.93701,-0.62993 5.87612,-1.25984 11.75225,-1.25984" />
    <path
       style="fill-rule:evenodd;stroke:#595959;stroke-width:1;stroke-linecap:butt;stroke-linejoin:round"
       id="path211"
       d="m 204.4034,253.5637 c 5.8719,0 8.80681,-0.62991 11.74381,-1.25984 1.4685,-0.31496 2.93754,-0.62992 4.77395,-0.86614 0.22955,-0.0295 0.46486,-0.0578 0.70661,-0.0847 l 0.27825,-0.0285" />
    <path
       style="fill:#595959;fill-rule:evenodd;stroke:#595959;stroke-width:1;stroke-linecap:butt"
       id="path213"
       d="m 221.98322,252.97438 4.45595,-1.86203 -4.61034,-1.43782 z" />
    <path
       style="fill:#000000;fill-opacity:0;fill-rule:evenodd"
       id="path215"
       d="m 305.11932,251.05249 c 5.86743,0 8.80182,0.62993 11.73486,1.25984 2.93308,0.62993 5.86487,1.25984 11.72971,1.25984" />
    <path
       style="fill-rule:evenodd;stroke:#595959;stroke-width:1;stroke-linecap:butt;stroke-linejoin:round"
       id="path217"
       d="m 305.11935,251.05249 c 5.86743,0 8.80179,0.62993 11.73486,1.25984 1.46653,0.31497 2.93274,0.62993 4.76545,0.86615 0.22906,0.0295 0.46386,0.0578 0.7051,0.0847 l 0.26578,0.0273" />
    <path
       style="fill:#595959;fill-rule:evenodd;stroke:#595959;stroke-width:1;stroke-linecap:butt"
       id="path219"
       d="m 322.513,254.94043 4.61063,-1.43687 -4.45557,-1.86295 z" />
    <path
       style="fill:#000000;fill-opacity:0;fill-rule:evenodd"
       id="path221"
       d="m 142.43832,262.8293 h 61.98425 v 14.86615 h -61.98425 z" />
    <path
       style="fill:#202122;fill-rule:nonzero"
       id="path223"
       d="m 198.17616,269.80795 q 0.8125,0.21875 1.32812,0.84375 0.53125,0.60937 0.53125,1.45312 0,1.15625 -1.04687,1.78125 -1.03125,0.60938 -2.5625,0.60938 h -3.96875 q -0.23438,0 -0.23438,-0.25 0,-0.25 0.4375,-0.25 0.46875,0 0.625,-0.125 0.17188,-0.14063 0.17188,-0.59375 v -6.3125 q 0,-0.5 -0.20313,-0.60938 -0.20312,-0.10937 -0.79687,-0.10937 -0.23438,0 -0.23438,-0.25 0,-0.25 0.23438,-0.25 h 3.96875 q 3.10937,0 3.10937,2.25 0,1.10937 -1.35937,1.8125 z m 0.89062,-1.8125 q 0,-1.48438 -1.70312,-1.70313 0.54687,0.625 0.54687,1.70313 0,1.21875 -0.6875,1.75 1.84375,-0.875 1.84375,-1.75 z m -1.64062,0 q 0,-0.76563 -0.32813,-1.25 -0.32812,-0.5 -0.92187,-0.5 -0.28125,0 -0.5,0.14062 -0.20313,0.125 -0.20313,0.34375 v 3 q 0.96875,0 1.45313,-0.375 0.5,-0.375 0.5,-1.35937 z m 2.125,4.10937 q 0,-0.8125 -0.51563,-1.25 -0.51562,-0.4375 -1.42187,-0.70312 0.6875,0.53125 0.6875,1.95312 0,1.09375 -0.54688,1.75 1.79688,-0.45312 1.79688,-1.75 z m -4.07813,1.42188 q 0,0.21875 0.20313,0.34375 0.21875,0.125 0.5,0.125 1.64062,0 1.64062,-1.89063 0,-0.98437 -0.375,-1.4375 -0.35937,-0.45312 -1.26562,-0.45312 h -0.70313 z m -0.34375,-7.28125 h -1.3125 q 0.125,0.25 0.125,0.71875 v 6.3125 q 0,0.46875 -0.125,0.71875 h 1.3125 q -0.14062,-0.21875 -0.14062,-0.46875 v -6.79688 q 0,-0.26562 0.14062,-0.48437 z" />
    <path
       style="fill:#000000;fill-opacity:0;fill-rule:evenodd"
       id="path225"
       d="m 328.5853,234.0112 h 61.98425 v 14.86615 H 328.5853 Z" />
    <path
       style="fill:#202122;fill-rule:nonzero"
       id="path227"
       d="m 337.30405,245.88048 q -0.78125,0 -1.51562,-0.29688 -0.71875,-0.3125 -1.3125,-0.89062 -0.57813,-0.59375 -0.92188,-1.45313 -0.34375,-0.875 -0.34375,-2.03125 0,-1.09375 0.34375,-1.95312 0.34375,-0.875 0.92188,-1.46875 0.59375,-0.59375 1.3125,-0.90625 0.73437,-0.3125 1.51562,-0.3125 0.76563,0 1.48438,0.29687 0.73437,0.29688 1.3125,0.89063 0.59375,0.57812 0.9375,1.45312 0.34375,0.85938 0.34375,2 0,1.09375 -0.34375,1.96875 -0.34375,0.85938 -0.92188,1.46875 -0.57812,0.60938 -1.3125,0.92188 -0.73437,0.3125 -1.5,0.3125 z m 0,-0.67188 q 0.6875,0 1.1875,-0.32812 0.5,-0.34375 0.8125,-0.90625 0.3125,-0.57813 0.45313,-1.28125 0.15625,-0.71875 0.15625,-1.48438 0,-0.75 -0.15625,-1.45312 -0.14063,-0.71875 -0.45313,-1.28125 -0.3125,-0.57813 -0.8125,-0.90625 -0.5,-0.34375 -1.1875,-0.34375 -0.6875,0 -1.1875,0.34375 -0.5,0.32812 -0.82812,0.90625 -0.3125,0.5625 -0.46875,1.28125 -0.15625,0.70312 -0.15625,1.45312 0,0.76563 0.15625,1.48438 0.15625,0.70312 0.46875,1.28125 0.32812,0.5625 0.82812,0.90625 0.5,0.32812 1.1875,0.32812 z m 5.17294,3.65625 v -0.46875 l 1.0625,-0.1875 q 0.0156,-0.54687 0.0156,-1.09375 0.0156,-0.53125 0.0156,-1.0625 v -3.8125 q 0,-0.54687 -0.0156,-0.90625 0,-0.35937 -0.0312,-0.76562 l -1.04688,-0.10938 v -0.46875 l 1.85938,-0.8125 0.20312,0.125 0.0781,0.875 q 0.95312,-1 2.01562,-1 0.71875,0 1.28125,0.40625 0.57813,0.39063 0.92188,1.14063 0.34375,0.73437 0.34375,1.76562 0,1.03125 -0.35938,1.78125 -0.35937,0.75 -0.98437,1.17188 -0.60938,0.40625 -1.40625,0.40625 -0.45313,0 -0.90625,-0.1875 -0.4375,-0.1875 -0.85938,-0.67188 v 1.04688 q 0,0.53125 0,1.0625 0.0156,0.54687 0.0156,1.09375 l 1.21875,0.20312 v 0.46875 z m 3.84375,-8.9375 q -0.3125,0 -0.71875,0.15625 -0.39062,0.15625 -0.90625,0.57813 v 3.75 q 0.375,0.35937 0.73438,0.51562 0.35937,0.15625 0.73437,0.15625 0.75,0 1.28125,-0.59375 0.53125,-0.59375 0.53125,-1.89062 0,-1.28125 -0.46875,-1.96875 -0.46875,-0.70313 -1.1875,-0.70313 z m 6.05881,5.92188 q -0.6875,0 -1.10937,-0.375 -0.40625,-0.375 -0.40625,-1.14063 0,-0.25 0,-0.5 0,-0.25 0,-0.64062 v -3.14063 h -1.09375 v -0.57812 l 1.1875,-0.15625 0.34375,-1.78125 h 0.79687 l -0.0781,1.8125 h 1.79687 v 0.70312 h -1.8125 v 4.125 q 0,0.51563 0.20313,0.75 0.20312,0.23438 0.53125,0.23438 0.21875,0 0.42187,-0.0937 0.21875,-0.0937 0.46875,-0.26563 l 0.32813,0.34375 q -0.54688,0.70313 -1.57813,0.70313 z m 2.36288,-4.25 v -0.625 l 5.15625,-3 0.39063,0.71875 -4.625,2.59375 4.625,2.59375 -0.39063,0.71875 z m 6.90534,-4.29688 v -0.54687 h 6.625 l 0.0937,2.35937 h -0.75 l -0.29688,-1.6875 h -3.14062 q 0,0.85938 -0.0156,1.71875 0,0.84375 0,1.67188 h 1.95313 l 0.1875,-1.26563 h 0.60937 v 3.14063 H 366.304 l -0.17188,-1.25 h -1.96875 q 0,1 0,1.875 0.0156,0.85937 0.0156,1.6875 h 3.40625 l 0.29687,-1.70313 h 0.75 l -0.0937,2.375 h -6.89062 v -0.54687 l 1.21875,-0.14063 q 0.0312,-0.84375 0.0312,-1.70312 0,-0.875 0,-1.73438 v -0.65625 q 0,-0.875 0,-1.73437 0,-0.85938 -0.0312,-1.70313 z m 11.38058,0.0781 h -0.8125 q 0,0.84375 -0.0156,1.73437 0,0.89063 0,1.78125 v 0.64063 h 0.875 q 1.21875,0 1.73437,-0.59375 0.51563,-0.59375 0.51563,-1.53125 0,-0.96875 -0.5625,-1.5 -0.54688,-0.53125 -1.73438,-0.53125 z m -3.34375,-0.0781 v -0.54687 h 3.57813 q 1.6875,0 2.53125,0.75 0.85937,0.73437 0.85937,1.90625 0,0.75 -0.375,1.375 -0.375,0.625 -1.20312,1 -0.8125,0.375 -2.1875,0.375 h -0.6875 q 0,0.71875 0,1.42187 0.0156,0.6875 0.0156,1.40625 l 1.25,0.14063 v 0.54687 h -3.78125 v -0.54687 l 1.21875,-0.14063 q 0.0312,-0.84375 0.0312,-1.70312 0,-0.875 0,-1.73438 v -0.65625 q 0,-0.875 0,-1.73437 0,-0.85938 -0.0312,-1.70313 z m 13.56897,3.67188 v 0.625 l -5.15625,3 -0.39062,-0.71875 4.625,-2.59375 -4.625,-2.59375 0.39062,-0.71875 z" />
    <path
       style="fill:#000000;fill-opacity:0;fill-rule:evenodd"
       id="path229"
       d="m 328.5853,262.8293 h 61.98425 v 14.86615 H 328.5853 Z" />
    <path
       style="fill:#202122;fill-rule:nonzero"
       id="path231"
       d="m 338.88217,269.80795 q 0.8125,0.21875 1.32812,0.84375 0.53125,0.60937 0.53125,1.45312 0,1.15625 -1.04687,1.78125 -1.03125,0.60938 -2.5625,0.60938 h -3.96875 q -0.23438,0 -0.23438,-0.25 0,-0.25 0.4375,-0.25 0.46875,0 0.625,-0.125 0.17188,-0.14063 0.17188,-0.59375 v -6.3125 q 0,-0.5 -0.20313,-0.60938 -0.20312,-0.10937 -0.79687,-0.10937 -0.23438,0 -0.23438,-0.25 0,-0.25 0.23438,-0.25 h 3.96875 q 3.10937,0 3.10937,2.25 0,1.10937 -1.35937,1.8125 z m 0.89062,-1.8125 q 0,-1.48438 -1.70312,-1.70313 0.54687,0.625 0.54687,1.70313 0,1.21875 -0.6875,1.75 1.84375,-0.875 1.84375,-1.75 z m -1.64062,0 q 0,-0.76563 -0.32813,-1.25 -0.32812,-0.5 -0.92187,-0.5 -0.28125,0 -0.5,0.14062 -0.20313,0.125 -0.20313,0.34375 v 3 q 0.96875,0 1.45313,-0.375 0.5,-0.375 0.5,-1.35937 z m 2.125,4.10937 q 0,-0.8125 -0.51563,-1.25 -0.51562,-0.4375 -1.42187,-0.70312 0.6875,0.53125 0.6875,1.95312 0,1.09375 -0.54688,1.75 1.79688,-0.45312 1.79688,-1.75 z m -4.07813,1.42188 q 0,0.21875 0.20313,0.34375 0.21875,0.125 0.5,0.125 1.64062,0 1.64062,-1.89063 0,-0.98437 -0.375,-1.4375 -0.35937,-0.45312 -1.26562,-0.45312 h -0.70313 z m -0.34375,-7.28125 h -1.3125 q 0.125,0.25 0.125,0.71875 v 6.3125 q 0,0.46875 -0.125,0.71875 h 1.3125 q -0.14062,-0.21875 -0.14062,-0.46875 v -6.79688 q 0,-0.26562 0.14062,-0.48437 z" />
    <path
       style="fill:#000000;fill-opacity:0;fill-rule:evenodd"
       id="path233"
       d="m 204.4252,193.32545 h 124.15747 v 27.87402 H 204.4252 Z" />
    <path
       style="fill:#202122;fill-rule:nonzero"
       id="path235"
       d="m 232.13339,212.54247 v -0.6875 l 0.8125,-0.15625 q 0.0156,-0.5625 0.0156,-1.10938 0.0156,-0.5625 0.0156,-1.125 v -3 h -0.95313 v -0.875 l 0.96875,-0.10937 q 0.125,-1 0.4375,-1.57813 0.32813,-0.57812 0.82813,-1.07812 0.5,-0.5 1.34375,-0.78125 0.84375,-0.28125 1.85937,-0.28125 0.78125,0 1.35938,0.29687 0.59375,0.28125 0.70312,0.9375 -0.0156,0.42188 -0.26562,0.70313 -0.25,0.26562 -0.71875,0.26562 -0.375,0 -0.70313,-0.25 -0.3125,-0.26562 -0.60937,-0.84375 l -0.3125,-0.5 q -0.40625,0.20313 -0.73438,0.53125 -0.26562,0.26563 -0.45312,0.57813 -0.1875,0.3125 -0.29688,0.78125 -0.0937,0.46875 -0.125,1.20312 h 2.89063 l 1.45312,-0.23437 0.25,0.15625 -0.0469,2.07812 v 2 q 0,0.45313 0,1.07813 0,0.625 0.0156,1.17187 l 0.73438,0.14063 v 0.6875 h -3.89063 v -0.6875 l 0.78125,-0.17188 q 0.0156,-0.53125 0.0156,-1.14062 0,-0.625 0,-1.07813 v -1.0625 q 0,-0.64062 -0.0156,-1.0625 0,-0.4375 -0.0156,-0.875 h -2.17188 v 3 q 0,0.54688 0,1.10938 0.0156,0.54687 0.0312,1.10937 l 0.84375,0.17188 v 0.6875 z m 9.15631,0 v -0.6875 l 0.8125,-0.17188 q 0.0156,-0.5625 0.0156,-1.10937 0.0156,-0.5625 0.0156,-1.10938 v -6.14062 l -0.90625,-0.14063 v -0.625 l 3.07813,-0.65625 0.23437,0.14063 -0.0625,2.0625 v 5.35937 q 0,0.5625 0,1.125 0.0156,0.54688 0.0312,1.10938 l 0.79688,0.15625 v 0.6875 z m 7.54649,0.21875 q -0.96875,0 -1.53125,-0.46875 -0.5625,-0.48438 -0.5625,-1.5625 0,-0.39063 0,-0.71875 0.0156,-0.32813 0.0156,-0.75 v -2.79688 h -0.95313 v -0.875 l 1.09375,-0.14062 0.73438,-2.04688 h 1.48437 l -0.0312,2.0625 h 1.54688 v 1 h -1.54688 v 4.09375 q 0,0.51563 0.21875,0.76563 0.21875,0.23437 0.53125,0.23437 0.39063,0 0.79688,-0.3125 l 0.35937,0.34375 q -0.28125,0.5625 -0.8125,0.875 -0.51562,0.29688 -1.34375,0.29688 z m 6.04767,-6.76563 q -0.40625,0 -0.75,0.5 -0.34375,0.5 -0.39062,1.85938 h 1.23437 q 0.53125,0 0.71875,-0.20313 0.1875,-0.21875 0.1875,-0.71875 0,-0.73437 -0.29687,-1.07812 -0.29688,-0.35938 -0.70313,-0.35938 z m 0.0312,6.76563 q -1.07812,0 -1.90625,-0.4375 -0.8125,-0.45313 -1.28125,-1.29688 -0.46875,-0.84375 -0.46875,-2.01562 0,-1.23438 0.54688,-2.07813 0.5625,-0.84375 1.42187,-1.26562 0.85938,-0.4375 1.79688,-0.4375 0.96875,0 1.64061,0.40625 0.6875,0.40625 1.03125,1.10937 0.35937,0.70313 0.35937,1.59375 0,0.42188 -0.0781,0.78125 h -4.23436 q 0.0625,1.15625 0.625,1.70313 0.57812,0.54687 1.32812,0.54687 0.60936,0 1.03124,-0.21875 0.42187,-0.23437 0.75,-0.57812 l 0.51562,0.46875 q -0.45312,0.875 -1.23437,1.29687 -0.78124,0.42188 -1.84374,0.42188 z m 3.94844,-0.21875 v -0.6875 l 0.8125,-0.15625 q 0.0156,-0.54688 0.0156,-1.15625 0,-0.625 0,-1.07813 v -0.85937 q 0,-0.42188 -0.0156,-0.67188 0,-0.26562 -0.0156,-0.48437 0,-0.23438 -0.0156,-0.53125 l -0.89062,-0.14063 v -0.5625 l 2.89062,-0.98437 0.25,0.15625 0.14063,1.73437 q 0.3125,-0.9375 0.85937,-1.40625 0.5625,-0.48437 1.10938,-0.48437 0.48437,0 0.82812,0.28125 0.35938,0.26562 0.4375,0.79687 -0.0156,0.57813 -0.3125,0.89063 -0.28125,0.3125 -0.71875,0.3125 -0.625,0 -1.14062,-0.6875 l -0.0781,-0.10938 q -0.32812,0.29688 -0.60937,0.76563 -0.26563,0.46875 -0.375,0.98437 v 1 q 0,0.45313 0,1.04688 0,0.57812 0.0156,1.09375 l 1.15625,0.25 v 0.6875 z m 5.50763,1.3125 v -1.3125 h 6.71875 v 1.3125 z m 7.71225,-1.3125 v -0.6875 l 0.79688,-0.17188 q 0.0156,-0.53125 0.0156,-1.14062 0,-0.625 0,-1.07813 v -0.84375 q 0,-0.60937 -0.0156,-0.9375 0,-0.32812 -0.0312,-0.76562 l -0.89063,-0.14063 v -0.5625 l 2.89063,-0.98437 0.25,0.15625 0.0937,1.0625 q 0.51562,-0.60938 1.07812,-0.90625 0.5625,-0.3125 1.20313,-0.3125 1.51562,0 1.95312,1.29687 0.60938,-0.71875 1.17188,-1 0.5625,-0.29687 1.1875,-0.29687 1.125,0 1.625,0.64062 0.51562,0.64063 0.51562,1.95313 v 1.64062 q 0,0.46875 0,1.09375 0,0.60938 0.0156,1.14063 l 0.73437,0.15625 v 0.6875 h -3.78125 v -0.6875 l 0.71875,-0.17188 q 0.0156,-0.53125 0.0156,-1.14062 0,-0.60938 0,-1.07813 v -1.42187 q 0,-0.8125 -0.1875,-1.09375 -0.1875,-0.29688 -0.65625,-0.29688 -0.60938,0 -1.21875,0.53125 0.0156,0.125 0.0156,0.26563 0.0156,0.14062 0.0156,0.29687 v 1.71875 q 0,0.48438 0,1.09375 0,0.60938 0,1.15625 l 0.70312,0.14063 v 0.6875 h -3.78125 v -0.6875 l 0.75,-0.17188 q 0.0156,-0.53125 0.0156,-1.14062 0,-0.60938 0,-1.07813 v -1.40625 q 0,-0.78125 -0.1875,-1.09375 -0.17188,-0.3125 -0.65625,-0.3125 -0.3125,0 -0.625,0.15625 -0.29688,0.14063 -0.57813,0.375 v 2.28125 q 0,0.45313 0,1.07813 0,0.625 0.0156,1.17187 l 0.6875,0.14063 v 0.6875 z m 18.86249,0.20312 q -1.26562,0 -1.60937,-1.04687 -0.46875,0.48437 -0.90625,0.78125 -0.42188,0.28125 -1.1875,0.28125 -0.84375,0 -1.39063,-0.48438 -0.53125,-0.48437 -0.53125,-1.39062 0,-0.53125 0.23438,-0.95313 0.23437,-0.42187 0.84375,-0.78125 0.625,-0.375 1.75,-0.70312 0.21875,-0.0625 0.51562,-0.14063 0.29688,-0.0781 0.59375,-0.14062 v -0.48438 q 0,-0.98437 -0.25,-1.32812 -0.23437,-0.35938 -0.9375,-0.35938 -0.0937,0 -0.1875,0 -0.0781,0 -0.20312,0.0156 l -0.0781,0.64062 q -0.0156,0.71875 -0.32812,1.04688 -0.3125,0.3125 -0.73438,0.3125 -0.8125,0 -0.98437,-0.73438 0.0625,-0.90625 0.92187,-1.46875 0.875,-0.57812 2.45313,-0.57812 1.40625,0 2.01562,0.64062 0.60938,0.64063 0.60938,2.125 v 3.28125 q 0,0.4375 0.3125,0.4375 0.125,0 0.21875,-0.0625 0.10937,-0.0781 0.23437,-0.26562 l 0.39063,0.26562 q -0.26563,0.57813 -0.6875,0.84375 -0.42188,0.25 -1.07813,0.25 z m -3.45312,-2.23437 q 0,0.53125 0.25,0.79687 0.26562,0.26563 0.625,0.26563 0.17187,0 0.34375,-0.0625 0.17187,-0.0781 0.54687,-0.34375 v -2.375 q -0.1875,0.0625 -0.375,0.125 -0.17187,0.0625 -0.3125,0.125 -0.5,0.20312 -0.79687,0.57812 -0.28125,0.375 -0.28125,0.89063 z m 5.28604,5.35937 v -0.6875 l 0.82812,-0.17187 q 0.0156,-0.70313 0.0156,-1.29688 0.0156,-0.57812 0.0156,-1.125 v -3.96875 q 0,-0.60937 -0.0156,-0.9375 0,-0.32812 -0.0312,-0.76562 l -0.90625,-0.14063 v -0.5625 l 2.85937,-0.98437 0.25,0.14062 0.0625,0.82813 q 0.92188,-0.96875 2.17188,-0.96875 0.8125,0 1.45312,0.42187 0.64063,0.42188 1.03125,1.26563 0.39063,0.82812 0.39063,2.04687 0,1.17188 -0.4375,2.03125 -0.4375,0.85938 -1.15625,1.3125 -0.70313,0.45313 -1.54688,0.45313 -1.125,0 -1.84375,-0.76563 v 0.57813 q 0,0.54687 0,1.125 0.0156,0.59375 0.0312,1.26562 l 0.9375,0.21875 v 0.6875 z m 4.1875,-9.35937 q -0.28125,0 -0.53125,0.125 -0.23438,0.10937 -0.46875,0.28125 v 4.25 q 0.4375,0.35937 0.95312,0.35937 0.65625,0 1.0625,-0.60937 0.42188,-0.625 0.42188,-1.92188 0,-1.29687 -0.40625,-1.89062 -0.39063,-0.59375 -1.03125,-0.59375 z" />
    <path
       style="fill:#000000;fill-opacity:0;fill-rule:evenodd"
       id="path237"
       d="m 80.45407,241.59093 h 61.98425 v 23.937 H 80.45407 Z" />
    <path
       style="fill:#202122;fill-rule:nonzero"
       id="path239"
       d="m 104.47197,250.46443 v -0.75 h 3.17188 v 0.78125 l -1.09375,0.1875 -3.01563,8.68748 h -1.42187 l -3.156255,-8.78123 -0.84375,-0.0937 v -0.78125 h 4.718755 v 0.75 l -1.25,0.15625 2,6.03123 2.03125,-5.99998 z m 2.6114,8.87498 v -0.6875 l 0.8125,-0.15625 q 0.0156,-0.54687 0.0156,-1.15625 0,-0.625 0,-1.07812 v -0.85936 q 0,-0.42187 -0.0156,-0.67187 0,-0.26563 -0.0156,-0.48438 0,-0.23437 -0.0156,-0.53125 l -0.89062,-0.14062 v -0.5625 l 2.89062,-0.98438 0.25,0.15625 0.14063,1.73438 q 0.3125,-0.9375 0.85937,-1.40625 0.5625,-0.48438 1.10938,-0.48438 0.48437,0 0.82812,0.28125 0.35938,0.26563 0.4375,0.79688 -0.0156,0.57812 -0.3125,0.89062 -0.28125,0.3125 -0.71875,0.3125 -0.625,0 -1.14062,-0.6875 l -0.0781,-0.10937 q -0.32812,0.29687 -0.60937,0.76562 -0.26563,0.46875 -0.375,0.98438 v 0.99998 q 0,0.45312 0,1.04687 0,0.57813 0.0156,1.09375 l 1.15625,0.25 v 0.6875 z m 6.98706,-4.18748 v -1.10937 l 6.125,-3.15625 0.625,1.25 -5.03125,2.45312 5.03125,2.46873 -0.625,1.25 z m 11.84804,-4.59375 h -0.32812 q -0.0156,0.90625 -0.0312,1.82813 0,0.92187 0,1.875 v 0.57812 h 0.42187 q 0.96875,0 1.45313,-0.625 0.48437,-0.625 0.48437,-1.60937 0,-1.01563 -0.53125,-1.53125 -0.51562,-0.51563 -1.46875,-0.51563 z m -3.95312,-0.0625 v -0.78125 h 3.98437 q 1.53125,0 2.46875,0.35938 0.9375,0.35937 1.35938,1.01562 0.4375,0.64063 0.4375,1.51563 0,0.84375 -0.40625,1.54687 -0.40625,0.6875 -1.32813,1.10938 -0.92187,0.40625 -2.51562,0.40625 h -0.40625 q 0,0.62498 0,1.3281 0.0156,0.6875 0.0312,1.42188 l 1.29687,0.125 v 0.79687 h -4.92187 v -0.79687 l 1.09375,-0.10938 q 0.0312,-0.89062 0.0312,-1.79687 0,-0.92186 0,-1.84373 v -0.53125 q 0,-0.92188 0,-1.82813 0,-0.92187 -0.0312,-1.8125 z m 15.92181,3.54688 v 1.10937 l -6.125,3.15623 -0.64062,-1.25 5.03125,-2.46873 -5.03125,-2.45312 0.64062,-1.25 z" />
    <path
       style="fill:#000000;fill-opacity:0;fill-rule:evenodd"
       id="path241"
       d="m 390.5748,241.59055 h 70.70868 v 23.93701 H 390.5748 Z" />
    <path
       style="fill:#202122;fill-rule:nonzero"
       id="path243"
       d="m 401.05917,250.46405 v -0.75 h 3.17187 v 0.78125 l -1.09375,0.1875 -3.01562,8.6875 h -1.42188 l -3.15625,-8.78125 -0.84375,-0.0937 v -0.78125 h 4.71875 v 0.75 l -1.25,0.15625 2,6.03125 2.03125,-6 z m 2.61142,8.875 v -0.6875 l 0.8125,-0.15625 q 0.0156,-0.54688 0.0156,-1.15625 0,-0.625 0,-1.07813 v -0.85937 q 0,-0.42188 -0.0156,-0.67188 0,-0.26562 -0.0156,-0.48437 0,-0.23438 -0.0156,-0.53125 l -0.89063,-0.14063 v -0.5625 l 2.89063,-0.98437 0.25,0.15625 0.14062,1.73437 q 0.3125,-0.9375 0.85938,-1.40625 0.5625,-0.48437 1.10937,-0.48437 0.48438,0 0.82813,0.28125 0.35937,0.26562 0.4375,0.79687 -0.0156,0.57813 -0.3125,0.89063 -0.28125,0.3125 -0.71875,0.3125 -0.625,0 -1.14063,-0.6875 l -0.0781,-0.10938 q -0.32813,0.29688 -0.60938,0.76563 -0.26562,0.46875 -0.375,0.98437 v 1 q 0,0.45313 0,1.04688 0,0.57812 0.0156,1.09375 l 1.15625,0.25 v 0.6875 z m 6.98706,-4.1875 v -1.10938 l 6.125,-3.15625 0.625,1.25 -5.03125,2.45313 5.03125,2.46875 -0.625,1.25 z m 7.8949,-4.65625 v -0.78125 h 7.46875 l 0.10937,2.51562 h -1.21875 l -0.29687,-1.70312 h -2.4375 q -0.0156,0.84375 -0.0312,1.70312 0,0.84375 0,1.70313 h 1.57812 l 0.17188,-1.14063 h 0.85937 v 3.14063 h -0.85937 l -0.17188,-1.14063 h -1.57812 q 0,1.01563 0,1.92188 0.0156,0.90625 0.0312,1.79687 h 2.73437 l 0.29688,-1.6875 h 1.21875 l -0.10938,2.51563 h -7.76562 v -0.79688 l 1.09375,-0.10937 q 0.0312,-0.89063 0.0312,-1.79688 0,-0.92187 0,-1.84375 v -0.53125 q 0,-0.92187 0,-1.82812 0,-0.92188 -0.0312,-1.8125 z m 12.67364,0.0625 h -0.32812 q -0.0156,0.90625 -0.0312,1.82812 0,0.92188 0,1.875 v 0.57813 h 0.42187 q 0.96875,0 1.45313,-0.625 0.48437,-0.625 0.48437,-1.60938 0,-1.01562 -0.53125,-1.53125 -0.51562,-0.51562 -1.46875,-0.51562 z m -3.95312,-0.0625 v -0.78125 h 3.98437 q 1.53125,0 2.46875,0.35937 0.9375,0.35938 1.35938,1.01563 0.4375,0.64062 0.4375,1.51562 0,0.84375 -0.40625,1.54688 -0.40625,0.6875 -1.32813,1.10937 -0.92187,0.40625 -2.51562,0.40625 h -0.40625 q 0,0.625 0,1.32813 0.0156,0.6875 0.0312,1.42187 l 1.29687,0.125 v 0.79688 h -4.92187 v -0.79688 l 1.09375,-0.10937 q 0.0312,-0.89063 0.0312,-1.79688 0,-0.92187 0,-1.84375 v -0.53125 q 0,-0.92187 0,-1.82812 0,-0.92188 -0.0312,-1.8125 z m 15.92181,3.54687 v 1.10938 l -6.125,3.15625 -0.64062,-1.25 5.03125,-2.46875 -5.03125,-2.45313 0.64062,-1.25 z" />
  </g>
</svg>
