<?xml version="1.0" encoding="UTF-8" standalone="no"?>
<svg
   version="1.1"
   viewBox="0 0 505 79.897659"
   fill="none"
   stroke="none"
   stroke-linecap="square"
   stroke-miterlimit="10"
   id="svg163"
   sodipodi:docname="cpu-structure.svg"
   width="505"
   height="79.897659"
   inkscape:version="1.1.2 (b8e25be8, 2022-02-05)"
   xmlns:inkscape="http://www.inkscape.org/namespaces/inkscape"
   xmlns:sodipodi="http://sodipodi.sourceforge.net/DTD/sodipodi-0.dtd"
   xmlns="http://www.w3.org/2000/svg"
   xmlns:svg="http://www.w3.org/2000/svg">
  <defs
     id="defs167" />
  <sodipodi:namedview
     id="namedview165"
     pagecolor="#ffffff"
     bordercolor="#666666"
     borderopacity="1.0"
     inkscape:pageshadow="2"
     inkscape:pageopacity="0.0"
     inkscape:pagecheckerboard="0"
     showgrid="false"
     inkscape:zoom="0.95701407"
     inkscape:cx="386.09673"
     inkscape:cy="51.723378"
     inkscape:window-width="1296"
     inkscape:window-height="789"
     inkscape:window-x="0"
     inkscape:window-y="25"
     inkscape:window-maximized="0"
     inkscape:current-layer="g161" />
  <clipPath
     id="g2fff1b59bb8_1_0.0">
    <path
       d="M 0,0 H 960 V 540 H 0 Z"
       clip-rule="nonzero"
       id="path2" />
  </clipPath>
  <g
     clip-path="url(#g2fff1b59bb8_1_0.0)"
     id="g161"
     transform="translate(-78.767715,-216.85432)">
    <path
       fill="#000000"
       fill-opacity="0"
       d="M 79.267715,217.35432 H 583.26771 v 78.89766 H 79.267715 Z"
       fill-rule="evenodd"
       id="path7" />
    <path
       fill="#000000"
       fill-opacity="0"
       d="M 0,0 H 504 V 72.97638 H 0 Z"
       fill-rule="evenodd"
       id="path11" />
    <path
       fill="#f3f3f3"
       d="m 83.826775,221.07086 h 47.999995 v 48 H 83.826775 Z"
       fill-rule="evenodd"
       id="path15" />
    <path
       stroke="#000000"
       stroke-width="1"
       stroke-linejoin="round"
       stroke-linecap="butt"
       d="m 83.826775,221.07086 h 47.999995 v 48 H 83.826775 Z"
       fill-rule="evenodd"
       id="path17" />
    <path
       fill="#000000"
       d="m 102.91178,239.70836 v -0.8125 h 9.96875 l 0.14062,3.53125 h -1.14062 l -0.4375,-2.53125 h -4.70313 q -0.0156,1.28125 -0.0312,2.5625 -0.0156,1.26562 -0.0156,2.51562 h 3.10937 l 0.28125,-1.90625 h 0.90625 v 4.92188 h -0.90625 l -0.28125,-2.07813 h -3.10937 q 0,1.48438 0.0156,2.78125 0.0156,1.29688 0.0312,2.53125 l 1.85938,0.23438 v 0.8125 h -5.6875 v -0.8125 l 1.84375,-0.23438 q 0.0469,-1.25 0.0469,-2.54687 0,-1.3125 0,-2.60938 v -0.98437 q 0,-1.29688 0,-2.57813 0,-1.29687 -0.0469,-2.57812 z"
       fill-rule="nonzero"
       id="path19" />
    <path
       fill="#000000"
       fill-opacity="0"
       d="m 45.43307,269.07086 h 124.7874 v 29.19687 H 45.43307 Z"
       fill-rule="evenodd"
       id="path21" />
    <path
       fill="#000000"
       d="m 90.388855,289.4293 v -0.57813 l 1.265625,-0.21875 q 0.01563,-0.64062 0.01563,-1.28125 0.01563,-0.64062 0.01563,-1.28125 v -3.39062 h -1.328125 v -0.70313 l 1.359375,-0.17187 q 0.109375,-1.28125 0.359375,-2.07813 0.25,-0.79687 0.84375,-1.39062 0.5,-0.5 1.0625,-0.6875 0.5625,-0.20313 1.109375,-0.20313 0.5625,0 0.984375,0.20313 0.4375,0.20312 0.546875,0.65625 -0.01563,0.3125 -0.28125,0.51562 -0.25,0.20313 -0.6875,0.20313 -0.578125,0 -1.15625,-0.46875 l -0.453125,-0.35938 q -0.0625,0.0469 -0.125,0.0937 -0.04687,0.0469 -0.09375,0.0937 -0.421875,0.42188 -0.640625,1.26563 -0.203125,0.84375 -0.171875,2.1875 h 2.203125 v 0.84375 h -2.171875 v 3.39062 q 0,0.64063 0,1.28125 0.01563,0.625 0.03125,1.26563 l 1.4375,0.23437 v 0.57813 z m 9.142761,-7.07813 q -0.4375,0 -0.90625,0.26563 -0.453125,0.25 -0.78125,0.8125 -0.328125,0.5625 -0.421875,1.48437 h 2.921879 q 0.57812,0 0.75,-0.23437 0.1875,-0.23438 0.1875,-0.59375 0,-0.46875 -0.23438,-0.85938 -0.23437,-0.39062 -0.625,-0.625 -0.39062,-0.25 -0.890624,-0.25 z m -0.01563,7.28125 q -1.609375,0 -2.59375,-1.04687 -0.96875,-1.04688 -0.96875,-2.89063 0,-1.21875 0.5,-2.125 0.515625,-0.92187 1.34375,-1.4375 0.84375,-0.51562 1.84375,-0.51562 0.828134,0 1.500004,0.375 0.67188,0.35937 1.0625,1.04687 0.40625,0.67188 0.40625,1.65625 0,0.26563 -0.0312,0.5 -0.0312,0.23438 -0.0781,0.39063 h -5.109384 q 0.03125,1.46875 0.734375,2.25 0.703125,0.76562 1.859375,0.76562 0.765634,0 1.281254,-0.3125 0.51563,-0.3125 0.9375,-0.8125 l 0.39063,0.3125 q -0.45313,0.84375 -1.21875,1.34375 -0.76563,0.5 -1.859384,0.5 z m 7.160024,0 q -0.82812,0 -1.32812,-0.4375 -0.5,-0.45312 -0.5,-1.375 0,-0.3125 0,-0.60937 0.0156,-0.29688 0.0156,-0.75 v -3.78125 h -1.32812 v -0.70313 l 1.42187,-0.17187 0.42188,-2.15625 h 0.95312 l -0.0937,2.1875 h 2.17188 v 0.84375 h -2.1875 v 4.95312 q 0,0.60938 0.23437,0.89063 0.25,0.28125 0.65625,0.28125 0.26563,0 0.51563,-0.10938 0.25,-0.10937 0.54687,-0.32812 l 0.39063,0.42187 q -0.65625,0.84375 -1.89063,0.84375 z m 6.18439,0 q -1.64063,0 -2.625,-1.0625 -0.96875,-1.07812 -0.96875,-2.92187 0,-1.26563 0.51562,-2.15625 0.53125,-0.90625 1.375,-1.39063 0.84375,-0.48437 1.8125,-0.48437 0.71875,0 1.3125,0.28125 0.60938,0.26562 1.01563,0.75 0.40625,0.46875 0.5,1.04687 -0.10938,0.60938 -0.73438,0.60938 -0.40625,0 -0.60937,-0.20313 -0.20313,-0.21875 -0.28125,-0.5625 l -0.28125,-1.04687 q -0.21875,-0.0937 -0.4375,-0.10938 -0.21875,-0.0312 -0.42188,-0.0312 -1.03125,0 -1.70312,0.8125 -0.65625,0.79688 -0.65625,2.32813 0,1.5 0.71875,2.3125 0.71875,0.79687 1.84375,0.79687 0.6875,0 1.26562,-0.3125 0.57813,-0.3125 0.9375,-0.90625 l 0.40625,0.20313 q -0.34375,1 -1.09375,1.53125 -0.75,0.51562 -1.89062,0.51562 z m 3.85077,-0.20312 v -0.57813 l 1.20312,-0.21875 q 0.0156,-0.60937 0.0156,-1.3125 0.0156,-0.71875 0.0156,-1.25 v -7.03125 l -1.3125,-0.15625 v -0.5625 l 2.4375,-0.71875 0.23438,0.125 -0.0625,2.28125 v 3.07813 q 0.57812,-0.64063 1.35937,-1.04688 0.79688,-0.42187 1.5625,-0.42187 1.03125,0 1.53125,0.70312 0.51563,0.6875 0.51563,2.26563 v 1.48437 q 0,0.54688 0,1.25 0.0156,0.70313 0.0312,1.3125 l 1.125,0.21875 v 0.57813 h -3.71875 v -0.57813 l 1.17187,-0.20312 q 0.0156,-0.60938 0.0156,-1.3125 0.0156,-0.71875 0.0156,-1.26563 v -1.35937 q 0,-1.10938 -0.3125,-1.51563 -0.29687,-0.42187 -1,-0.42187 -0.59375,0 -1.125,0.25 -0.53125,0.23437 -1.125,0.79687 v 2.25 q 0,0.53125 0,1.25 0.0156,0.70313 0.0312,1.3125 l 1.09375,0.21875 v 0.57813 z"
       fill-rule="nonzero"
       id="path23" />
    <path
       fill="#f3f3f3"
       d="m 192.75594,221.07086 h 48 v 48 h -48 z"
       fill-rule="evenodd"
       id="path25" />
    <path
       stroke="#000000"
       stroke-width="1"
       stroke-linejoin="round"
       stroke-linecap="butt"
       d="m 192.75594,221.07086 h 48 v 48 h -48 z"
       fill-rule="evenodd"
       id="path27" />
    <path
       fill="#000000"
       d="m 214.3122,245.83336 q 0,1.45312 0.0156,2.8125 0.0156,1.35937 0.0312,2.6875 h 1.57813 q 2.3125,0 3.54687,-1.5 1.25,-1.51563 1.25,-4.25 0,-2.8125 -1.21875,-4.28125 -1.21875,-1.48438 -3.40625,-1.48438 h -1.75 q -0.0156,1.26563 -0.0312,2.60938 -0.0156,1.32812 -0.0156,2.65625 z m -3.78125,-6.125 v -0.8125 h 5.90625 q 1.92187,0 3.375,0.76562 1.46875,0.76563 2.28125,2.26563 0.82812,1.48437 0.82812,3.65625 0,2.17187 -0.90625,3.65625 -0.90625,1.48437 -2.45312,2.26562 -1.54688,0.76563 -3.5,0.76563 h -5.53125 v -0.8125 l 1.84375,-0.23438 q 0.0469,-1.26562 0.0469,-2.59375 0,-1.34375 0,-2.79687 v -0.75 q 0,-1.29688 0,-2.57813 0,-1.29687 -0.0469,-2.57812 z"
       fill-rule="nonzero"
       id="path29" />
    <path
       fill="#000000"
       fill-opacity="0"
       d="m 154.36223,269.07086 h 124.7874 v 29.19687 h -124.7874 z"
       fill-rule="evenodd"
       id="path31" />
    <path
       fill="#000000"
       d="m 193.38412,285.66367 q 0,1.57813 0.625,2.32813 0.64062,0.73437 1.60937,0.73437 0.51563,0 0.92188,-0.21875 0.42187,-0.21875 0.85937,-0.70312 v -4.4375 q -0.54687,-0.48438 -0.98437,-0.65625 -0.42188,-0.17188 -0.8125,-0.17188 -0.59375,0 -1.10938,0.32813 -0.5,0.32812 -0.8125,1.03125 -0.29687,0.6875 -0.29687,1.76562 z m 4.1875,3.92188 -0.125,-1.09375 q -0.40625,0.53125 -0.95313,0.84375 -0.53125,0.29687 -1.28125,0.29687 -0.96875,0 -1.71875,-0.48437 -0.73437,-0.5 -1.14062,-1.39063 -0.40625,-0.89062 -0.40625,-2.0625 0,-1.21875 0.4375,-2.125 0.45312,-0.92187 1.21875,-1.4375 0.78125,-0.51562 1.75,-0.51562 0.5625,0 1.07812,0.23437 0.53125,0.21875 1.01563,0.8125 v -3.625 l -1.35938,-0.15625 v -0.5625 l 2.5,-0.71875 0.21875,0.125 -0.0625,2.28125 v 8.65625 l 1.29688,0.1875 v 0.57813 z m 7.02515,-7.23438 q -0.4375,0 -0.90625,0.26563 -0.45313,0.25 -0.78125,0.8125 -0.32813,0.5625 -0.42188,1.48437 h 2.92188 q 0.57812,0 0.75,-0.23437 0.1875,-0.23438 0.1875,-0.59375 0,-0.46875 -0.23438,-0.85938 -0.23437,-0.39062 -0.625,-0.625 -0.39062,-0.25 -0.89062,-0.25 z m -0.0156,7.28125 q -1.60937,0 -2.59375,-1.04687 -0.96875,-1.04688 -0.96875,-2.89063 0,-1.21875 0.5,-2.125 0.51563,-0.92187 1.34375,-1.4375 0.84375,-0.51562 1.84375,-0.51562 0.82813,0 1.5,0.375 0.67188,0.35937 1.0625,1.04687 0.40625,0.67188 0.40625,1.65625 0,0.26563 -0.0312,0.5 -0.0312,0.23438 -0.0781,0.39063 h -5.10938 q 0.0312,1.46875 0.73438,2.25 0.70312,0.76562 1.85937,0.76562 0.76563,0 1.28125,-0.3125 0.51563,-0.3125 0.9375,-0.8125 l 0.39063,0.3125 q -0.45313,0.84375 -1.21875,1.34375 -0.76563,0.5 -1.85938,0.5 z m 8.1444,0 q -1.64063,0 -2.625,-1.0625 -0.96875,-1.07812 -0.96875,-2.92187 0,-1.26563 0.51562,-2.15625 0.53125,-0.90625 1.375,-1.39063 0.84375,-0.48437 1.8125,-0.48437 0.71875,0 1.3125,0.28125 0.60938,0.26562 1.01563,0.75 0.40625,0.46875 0.5,1.04687 -0.10938,0.60938 -0.73438,0.60938 -0.40625,0 -0.60937,-0.20313 -0.20313,-0.21875 -0.28125,-0.5625 l -0.28125,-1.04687 q -0.21875,-0.0937 -0.4375,-0.10938 -0.21875,-0.0312 -0.42188,-0.0312 -1.03125,0 -1.70312,0.8125 -0.65625,0.79688 -0.65625,2.32813 0,1.5 0.71875,2.3125 0.71875,0.79687 1.84375,0.79687 0.6875,0 1.26562,-0.3125 0.57813,-0.3125 0.9375,-0.90625 l 0.40625,0.20313 q -0.34375,1 -1.09375,1.53125 -0.75,0.51562 -1.89062,0.51562 z m 7.93301,0 q -0.9375,0 -1.78125,-0.4375 -0.82813,-0.4375 -1.35938,-1.32812 -0.53125,-0.89063 -0.53125,-2.20313 0,-1.32812 0.53125,-2.21875 0.53125,-0.90625 1.35938,-1.35937 0.84375,-0.46875 1.78125,-0.46875 0.92187,0 1.75,0.46875 0.84375,0.45312 1.375,1.35937 0.54687,0.89063 0.54687,2.21875 0,1.3125 -0.54687,2.20313 -0.53125,0.89062 -1.375,1.32812 -0.82813,0.4375 -1.75,0.4375 z m 0,-0.71875 q 1.03125,0 1.59375,-0.8125 0.5625,-0.82812 0.5625,-2.4375 0,-1.60937 -0.5625,-2.45312 -0.5625,-0.85938 -1.59375,-0.85938 -1.04688,0 -1.60938,0.85938 -0.54687,0.84375 -0.54687,2.45312 0,1.60938 0.54687,2.4375 0.5625,0.8125 1.60938,0.8125 z m 6.54964,-3.25 q 0,1.57813 0.625,2.32813 0.64062,0.73437 1.60937,0.73437 0.51563,0 0.92188,-0.21875 0.42187,-0.21875 0.85937,-0.70312 v -4.4375 q -0.54687,-0.48438 -0.98437,-0.65625 -0.42188,-0.17188 -0.8125,-0.17188 -0.59375,0 -1.10938,0.32813 -0.5,0.32812 -0.8125,1.03125 -0.29687,0.6875 -0.29687,1.76562 z m 4.1875,3.92188 -0.125,-1.09375 q -0.40625,0.53125 -0.95313,0.84375 -0.53125,0.29687 -1.28125,0.29687 -0.96875,0 -1.71875,-0.48437 -0.73437,-0.5 -1.14062,-1.39063 -0.40625,-0.89062 -0.40625,-2.0625 0,-1.21875 0.4375,-2.125 0.45312,-0.92187 1.21875,-1.4375 0.78125,-0.51562 1.75,-0.51562 0.5625,0 1.07812,0.23437 0.53125,0.21875 1.01563,0.8125 v -3.625 l -1.35938,-0.15625 v -0.5625 l 2.5,-0.71875 0.21875,0.125 -0.0625,2.28125 v 8.65625 l 1.29688,0.1875 v 0.57813 z m 7.02514,-7.23438 q -0.4375,0 -0.90625,0.26563 -0.45312,0.25 -0.78125,0.8125 -0.32812,0.5625 -0.42187,1.48437 h 2.92187 q 0.57813,0 0.75,-0.23437 0.1875,-0.23438 0.1875,-0.59375 0,-0.46875 -0.23437,-0.85938 -0.23438,-0.39062 -0.625,-0.625 -0.39063,-0.25 -0.89063,-0.25 z m -0.0156,7.28125 q -1.60938,0 -2.59375,-1.04687 -0.96875,-1.04688 -0.96875,-2.89063 0,-1.21875 0.5,-2.125 0.51562,-0.92187 1.34375,-1.4375 0.84375,-0.51562 1.84375,-0.51562 0.82812,0 1.5,0.375 0.67187,0.35937 1.0625,1.04687 0.40625,0.67188 0.40625,1.65625 0,0.26563 -0.0312,0.5 -0.0312,0.23438 -0.0781,0.39063 h -5.10937 q 0.0312,1.46875 0.73437,2.25 0.70313,0.76562 1.85938,0.76562 0.76562,0 1.28125,-0.3125 0.51562,-0.3125 0.9375,-0.8125 l 0.39062,0.3125 q -0.45312,0.84375 -1.21875,1.34375 -0.76562,0.5 -1.85937,0.5 z"
       fill-rule="nonzero"
       id="path33" />
    <path
       fill="#f3f3f3"
       d="m 301.6851,221.07086 h 48 v 48 h -48 z"
       fill-rule="evenodd"
       id="path35" />
    <path
       stroke="#000000"
       stroke-width="1"
       stroke-linejoin="round"
       stroke-linecap="butt"
       d="m 301.6851,221.07086 h 48 v 48 h -48 z"
       fill-rule="evenodd"
       id="path37" />
    <path
       fill="#000000"
       d="m 320.5301,239.70836 v -0.8125 h 9.96875 l 0.14062,3.53125 h -1.14062 l -0.4375,-2.53125 h -4.70313 q -0.0156,1.28125 -0.0312,2.5625 -0.0156,1.26562 -0.0156,2.51562 h 2.9375 l 0.28125,-1.90625 h 0.92187 v 4.71875 h -0.92187 l -0.25,-1.875 h -2.96875 q 0,1.5 0.0156,2.8125 0.0156,1.3125 0.0312,2.54688 h 5.09375 l 0.4375,-2.5625 h 1.14063 l -0.14063,3.5625 H 320.5301 v -0.8125 l 1.84375,-0.23438 q 0.0469,-1.25 0.0469,-2.54687 0,-1.3125 0,-2.60938 v -0.98437 q 0,-1.29688 0,-2.57813 0,-1.29687 -0.0469,-2.57812 z"
       fill-rule="nonzero"
       id="path39" />
    <path
       fill="#000000"
       fill-opacity="0"
       d="M 263.29138,269.07086 H 388.0788 v 29.19687 H 263.29138 Z"
       fill-rule="evenodd"
       id="path41" />
    <path
       fill="#000000"
       d="m 302.5259,282.35117 q -0.4375,0 -0.90625,0.26563 -0.45313,0.25 -0.78125,0.8125 -0.32813,0.5625 -0.42188,1.48437 h 2.92188 q 0.57812,0 0.75,-0.23437 0.1875,-0.23438 0.1875,-0.59375 0,-0.46875 -0.23438,-0.85938 -0.23437,-0.39062 -0.625,-0.625 -0.39062,-0.25 -0.89062,-0.25 z m -0.0156,7.28125 q -1.60937,0 -2.59375,-1.04687 -0.96875,-1.04688 -0.96875,-2.89063 0,-1.21875 0.5,-2.125 0.51563,-0.92187 1.34375,-1.4375 0.84375,-0.51562 1.84375,-0.51562 0.82813,0 1.5,0.375 0.67188,0.35937 1.0625,1.04687 0.40625,0.67188 0.40625,1.65625 0,0.26563 -0.0312,0.5 -0.0312,0.23438 -0.0781,0.39063 h -5.10938 q 0.0312,1.46875 0.73438,2.25 0.70312,0.76562 1.85937,0.76562 0.76563,0 1.28125,-0.3125 0.51563,-0.3125 0.9375,-0.8125 l 0.39063,0.3125 q -0.45313,0.84375 -1.21875,1.34375 -0.76563,0.5 -1.85938,0.5 z m 8.94129,-7.17187 v -0.625 h 2.98437 v 0.625 l -0.9375,0.17187 -2.29687,2.8125 2.23437,3.1875 1.20313,0.21875 v 0.57813 h -3.89063 v -0.57813 l 1.125,-0.20312 -1.5625,-2.29688 -1.76562,2.29688 1.20312,0.20312 v 0.57813 h -3.20312 v -0.57813 l 1.03125,-0.1875 2.32812,-2.89062 -2.14062,-3.14063 -1.10938,-0.17187 v -0.625 h 3.57813 v 0.625 l -0.98438,0.17187 1.54688,2.21875 1.70312,-2.1875 z m 7.33038,-0.10938 q -0.4375,0 -0.90625,0.26563 -0.45312,0.25 -0.78125,0.8125 -0.32812,0.5625 -0.42187,1.48437 h 2.92187 q 0.57813,0 0.75,-0.23437 0.1875,-0.23438 0.1875,-0.59375 0,-0.46875 -0.23437,-0.85938 -0.23438,-0.39062 -0.625,-0.625 -0.39063,-0.25 -0.89063,-0.25 z m -0.0156,7.28125 q -1.60938,0 -2.59375,-1.04687 -0.96875,-1.04688 -0.96875,-2.89063 0,-1.21875 0.5,-2.125 0.51562,-0.92187 1.34375,-1.4375 0.84375,-0.51562 1.84375,-0.51562 0.82812,0 1.5,0.375 0.67187,0.35937 1.0625,1.04687 0.40625,0.67188 0.40625,1.65625 0,0.26563 -0.0312,0.5 -0.0312,0.23438 -0.0781,0.39063 h -5.10937 q 0.0312,1.46875 0.73437,2.25 0.70313,0.76562 1.85938,0.76562 0.76562,0 1.28125,-0.3125 0.51562,-0.3125 0.9375,-0.8125 l 0.39062,0.3125 q -0.45312,0.84375 -1.21875,1.34375 -0.76562,0.5 -1.85937,0.5 z m 8.14438,0 q -1.64063,0 -2.625,-1.0625 -0.96875,-1.07812 -0.96875,-2.92187 0,-1.26563 0.51562,-2.15625 0.53125,-0.90625 1.375,-1.39063 0.84375,-0.48437 1.8125,-0.48437 0.71875,0 1.3125,0.28125 0.60938,0.26562 1.01563,0.75 0.40625,0.46875 0.5,1.04687 -0.10938,0.60938 -0.73438,0.60938 -0.40625,0 -0.60937,-0.20313 -0.20313,-0.21875 -0.28125,-0.5625 L 327.942,282.4918 q -0.21875,-0.0937 -0.4375,-0.10938 -0.21875,-0.0312 -0.42188,-0.0312 -1.03125,0 -1.70312,0.8125 -0.65625,0.79688 -0.65625,2.32813 0,1.5 0.71875,2.3125 0.71875,0.79687 1.84375,0.79687 0.6875,0 1.26562,-0.3125 0.57813,-0.3125 0.9375,-0.90625 l 0.40625,0.20313 q -0.34375,1 -1.09375,1.53125 -0.75,0.51562 -1.89062,0.51562 z m 7.10489,0 q -0.96875,0 -1.53125,-0.64062 -0.5625,-0.65625 -0.54688,-2.23438 l 0.0469,-3.98437 -1.125,-0.23438 v -0.57812 l 2.34375,-0.23438 0.15625,0.17188 -0.0781,2.23437 v 2.48438 q 0,1.03125 0.3125,1.46875 0.32813,0.42187 0.96875,0.42187 1.125,0 2.25,-1.04687 l 0.0469,-4.70313 -1.14063,-0.21875 v -0.57812 l 2.3125,-0.23438 0.17188,0.17188 -0.0469,2.23437 v 4.5 l 1.07813,0.21875 v 0.57813 l -2.21875,0.125 -0.15625,-1.42188 q -0.64063,0.78125 -1.375,1.14063 -0.73438,0.35937 -1.46875,0.35937 z m 9.04678,0 q -0.82813,0 -1.32813,-0.4375 -0.5,-0.45312 -0.5,-1.375 0,-0.3125 0,-0.60937 0.0156,-0.29688 0.0156,-0.75 v -3.78125 h -1.32813 v -0.70313 l 1.42188,-0.17187 0.42187,-2.15625 h 0.95313 l -0.0937,2.1875 h 2.17187 v 0.84375 h -2.1875 v 4.95312 q 0,0.60938 0.23438,0.89063 0.25,0.28125 0.65625,0.28125 0.26562,0 0.51562,-0.10938 0.25,-0.10937 0.54688,-0.32812 l 0.39062,0.42187 q -0.65625,0.84375 -1.89062,0.84375 z m 6.21564,-7.28125 q -0.4375,0 -0.90625,0.26563 -0.45313,0.25 -0.78125,0.8125 -0.32813,0.5625 -0.42188,1.48437 h 2.92188 q 0.57812,0 0.75,-0.23437 0.1875,-0.23438 0.1875,-0.59375 0,-0.46875 -0.23438,-0.85938 -0.23437,-0.39062 -0.625,-0.625 -0.39062,-0.25 -0.89062,-0.25 z m -0.0156,7.28125 q -1.60937,0 -2.59375,-1.04687 -0.96875,-1.04688 -0.96875,-2.89063 0,-1.21875 0.5,-2.125 0.51563,-0.92187 1.34375,-1.4375 0.84375,-0.51562 1.84375,-0.51562 0.82813,0 1.5,0.375 0.67188,0.35937 1.0625,1.04687 0.40625,0.67188 0.40625,1.65625 0,0.26563 -0.0312,0.5 -0.0312,0.23438 -0.0781,0.39063 h -5.10938 q 0.0312,1.46875 0.73438,2.25 0.70312,0.76562 1.85937,0.76562 0.76563,0 1.28125,-0.3125 0.51563,-0.3125 0.9375,-0.8125 l 0.39063,0.3125 q -0.45313,0.84375 -1.21875,1.34375 -0.76563,0.5 -1.85938,0.5 z"
       fill-rule="nonzero"
       id="path43" />
    <path
       fill="#f3f3f3"
       d="m 410.61426,221.07086 h 48 v 48 h -48 z"
       fill-rule="evenodd"
       id="path45" />
    <path
       stroke="#000000"
       stroke-width="1"
       stroke-linejoin="round"
       stroke-linecap="butt"
       d="m 410.61426,221.07086 h 48 v 48 h -48 z"
       fill-rule="evenodd"
       id="path47" />
    <path
       fill="#000000"
       d="m 426.37552,252.27086 v -0.8125 l 1.79687,-0.26563 v -11.26562 l -1.79687,-0.21875 v -0.8125 h 3.70312 l 4.46875,11 4.25,-11 h 3.9375 v 0.8125 l -1.84375,0.21875 q -0.0156,1.26562 -0.0312,2.5625 0,1.29687 0,2.59375 v 0.98437 q 0,1.28125 0,2.57813 0.0156,1.28125 0.0312,2.57812 l 1.84375,0.23438 v 0.8125 h -5.4375 v -0.8125 l 1.67188,-0.23438 q 0.0469,-1.25 0.0469,-2.54687 0,-1.3125 0,-2.59375 v -4.96875 l -4.34375,11.15625 h -1 l -4.57812,-11.15625 0.125,3.78125 v 6.29687 l 1.64062,0.26563 v 0.8125 z"
       fill-rule="nonzero"
       id="path49" />
    <path
       fill="#000000"
       fill-opacity="0"
       d="m 372.22055,269.07086 h 124.78742 v 29.19687 H 372.22055 Z"
       fill-rule="evenodd"
       id="path51" />
    <path
       fill="#000000"
       d="m 404.80682,289.4293 v -0.57813 l 1.1875,-0.21875 q 0.0156,-0.60937 0.0156,-1.3125 0.0156,-0.70312 0.0156,-1.25 v -0.76562 q 0,-0.65625 -0.0156,-1.07813 0,-0.4375 -0.0312,-0.92187 l -1.26563,-0.14063 v -0.5625 l 2.23438,-0.98437 0.25,0.17187 0.125,1.28125 q 0.5625,-0.625 1.3125,-1.03125 0.75,-0.42187 1.48437,-0.42187 0.75,0 1.21875,0.35937 0.46875,0.34375 0.6875,1.15625 0.60938,-0.76562 1.35938,-1.14062 0.75,-0.375 1.53125,-0.375 0.98437,0 1.51562,0.65625 0.53125,0.65625 0.53125,2.14062 v 1.65625 q 0,0.54688 0,1.25 0.0156,0.70313 0.0312,1.3125 l 1.125,0.21875 v 0.57813 h -3.71875 v -0.57813 l 1.1875,-0.21875 q 0.0156,-0.59375 0.0156,-1.29687 0.0156,-0.71875 0.0156,-1.26563 v -1.39062 q 0,-1.125 -0.32812,-1.51563 -0.3125,-0.39062 -1.01563,-0.39062 -0.5,0 -1.01562,0.23437 -0.51563,0.21875 -1.125,0.78125 0.0156,0.17188 0.0156,0.375 0.0156,0.1875 0.0156,0.42188 v 1.48437 q 0,0.54688 0,1.25 0.0156,0.70313 0.0312,1.3125 l 1.125,0.21875 v 0.57813 h -3.71875 v -0.57813 l 1.1875,-0.21875 q 0.0156,-0.59375 0.0156,-1.29687 0.0156,-0.71875 0.0156,-1.26563 v -1.35937 q 0,-1.09375 -0.3125,-1.51563 -0.29688,-0.42187 -1,-0.42187 -0.54688,0 -1.04688,0.23437 -0.48437,0.21875 -1.07812,0.71875 v 2.34375 q 0,0.53125 0,1.25 0.0156,0.70313 0.0312,1.3125 l 1.10937,0.21875 v 0.57813 z m 18.07227,-7.07813 q -0.4375,0 -0.90625,0.26563 -0.45313,0.25 -0.78125,0.8125 -0.32813,0.5625 -0.42188,1.48437 h 2.92188 q 0.57812,0 0.75,-0.23437 0.1875,-0.23438 0.1875,-0.59375 0,-0.46875 -0.23438,-0.85938 -0.23437,-0.39062 -0.625,-0.625 -0.39062,-0.25 -0.89062,-0.25 z m -0.0156,7.28125 q -1.60937,0 -2.59375,-1.04687 -0.96875,-1.04688 -0.96875,-2.89063 0,-1.21875 0.5,-2.125 0.51563,-0.92187 1.34375,-1.4375 0.84375,-0.51562 1.84375,-0.51562 0.82813,0 1.5,0.375 0.67188,0.35937 1.0625,1.04687 0.40625,0.67188 0.40625,1.65625 0,0.26563 -0.0312,0.5 -0.0312,0.23438 -0.0781,0.39063 h -5.10938 q 0.0312,1.46875 0.73438,2.25 0.70312,0.76562 1.85937,0.76562 0.76563,0 1.28125,-0.3125 0.51563,-0.3125 0.9375,-0.8125 l 0.39063,0.3125 q -0.45313,0.84375 -1.21875,1.34375 -0.76563,0.5 -1.85938,0.5 z m 4.51941,-0.20312 v -0.57813 l 1.1875,-0.21875 q 0.0156,-0.60937 0.0156,-1.3125 0.0156,-0.70312 0.0156,-1.25 v -0.76562 q 0,-0.65625 -0.0156,-1.07813 0,-0.4375 -0.0312,-0.92187 l -1.26563,-0.14063 v -0.5625 l 2.23438,-0.98437 0.25,0.17187 0.125,1.28125 q 0.5625,-0.625 1.3125,-1.03125 0.75,-0.42187 1.48437,-0.42187 0.75,0 1.21875,0.35937 0.46875,0.34375 0.6875,1.15625 0.60938,-0.76562 1.35938,-1.14062 0.75,-0.375 1.53125,-0.375 0.98437,0 1.51562,0.65625 0.53125,0.65625 0.53125,2.14062 v 1.65625 q 0,0.54688 0,1.25 0.0156,0.70313 0.0312,1.3125 l 1.125,0.21875 v 0.57813 h -3.71875 v -0.57813 l 1.1875,-0.21875 q 0.0156,-0.59375 0.0156,-1.29687 0.0156,-0.71875 0.0156,-1.26563 v -1.39062 q 0,-1.125 -0.32812,-1.51563 -0.3125,-0.39062 -1.01563,-0.39062 -0.5,0 -1.01562,0.23437 -0.51563,0.21875 -1.125,0.78125 0.0156,0.17188 0.0156,0.375 0.0156,0.1875 0.0156,0.42188 v 1.48437 q 0,0.54688 0,1.25 0.0156,0.70313 0.0312,1.3125 l 1.125,0.21875 v 0.57813 h -3.71875 v -0.57813 l 1.1875,-0.21875 q 0.0156,-0.59375 0.0156,-1.29687 0.0156,-0.71875 0.0156,-1.26563 v -1.35937 q 0,-1.09375 -0.3125,-1.51563 -0.29688,-0.42187 -1,-0.42187 -0.54688,0 -1.04688,0.23437 -0.48437,0.21875 -1.07812,0.71875 v 2.34375 q 0,0.53125 0,1.25 0.0156,0.70313 0.0312,1.3125 l 1.10937,0.21875 v 0.57813 z m 18.16602,0.20312 q -0.9375,0 -1.78125,-0.4375 -0.82813,-0.4375 -1.35938,-1.32812 -0.53125,-0.89063 -0.53125,-2.20313 0,-1.32812 0.53125,-2.21875 0.53125,-0.90625 1.35938,-1.35937 0.84375,-0.46875 1.78125,-0.46875 0.92187,0 1.75,0.46875 0.84375,0.45312 1.375,1.35937 0.54687,0.89063 0.54687,2.21875 0,1.3125 -0.54687,2.20313 -0.53125,0.89062 -1.375,1.32812 -0.82813,0.4375 -1.75,0.4375 z m 0,-0.71875 q 1.03125,0 1.59375,-0.8125 0.5625,-0.82812 0.5625,-2.4375 0,-1.60937 -0.5625,-2.45312 -0.5625,-0.85938 -1.59375,-0.85938 -1.04688,0 -1.60938,0.85938 -0.54687,0.84375 -0.54687,2.45312 0,1.60938 0.54687,2.4375 0.5625,0.8125 1.60938,0.8125 z m 5.06527,0.51563 v -0.57813 l 1.15625,-0.20312 q 0.0156,-0.60938 0.0156,-1.3125 0.0156,-0.71875 0.0156,-1.26563 v -0.76562 q 0,-0.65625 -0.0156,-1.07813 0,-0.4375 -0.0312,-0.92187 l -1.26563,-0.14063 v -0.5625 l 2.23438,-0.98437 0.25,0.17187 0.17187,1.875 q 0.39063,-0.95312 1.01563,-1.5 0.64062,-0.54687 1.28125,-0.54687 0.375,0 0.6875,0.17187 0.32812,0.15625 0.46875,0.42188 0,1.17187 -0.9375,1.17187 -0.28125,0 -0.53125,-0.0937 -0.23438,-0.10937 -0.45313,-0.3125 l -0.1875,-0.17187 q -0.48437,0.35937 -0.8125,0.875 -0.3125,0.5 -0.51562,1.1875 v 1.20312 q 0,0.53125 0,1.23438 0.0156,0.70312 0.0312,1.3125 l 1.3125,0.23437 v 0.57813 z m 11.33426,-7.03125 v -0.5625 h 3.10938 v 0.5625 l -0.85938,0.1875 -2.57812,6.79687 q -0.79688,2.125 -1.54688,3.07813 -0.73437,0.95312 -1.73437,0.95312 -0.59375,0 -1.03125,-0.29687 -0.4375,-0.29688 -0.4375,-0.76563 0.0781,-0.34375 0.39062,-0.53125 0.3125,-0.17187 0.6875,-0.17187 0.3125,0 0.57813,0.14062 0.28125,0.14063 0.59375,0.46875 l 0.0937,0.0781 q 0.5,-0.42188 0.84375,-1.04688 0.35937,-0.60937 0.59375,-1.25 l 0.0625,-0.1875 -2.90625,-7.3125 -0.875,-0.14062 v -0.5625 h 3.84375 v 0.57812 l -1.40625,0.17188 2,5.45312 1.96875,-5.4375 z"
       fill-rule="nonzero"
       id="path53" />
    <path
       fill="#f3f3f3"
       d="m 519.5434,221.07086 h 48 v 48 h -48 z"
       fill-rule="evenodd"
       id="path55" />
    <path
       stroke="#000000"
       stroke-width="1"
       stroke-linejoin="round"
       stroke-linecap="butt"
       d="m 519.5434,221.07086 h 48 v 48 h -48 z"
       fill-rule="evenodd"
       id="path57" />
    <path
       fill="#000000"
       d="m 548.439,239.70836 v -0.8125 h 4.54687 v 0.8125 l -1.6875,0.25 -3.375,12.45312 H 547.064 l -3.45313,-10.35937 -3.26562,10.35937 h -0.85938 l -3.60937,-12.5 -1.65625,-0.20312 v -0.8125 h 5.4375 v 0.8125 l -1.82813,0.21875 2.45313,9.1875 3.04687,-9.15625 -2,-0.25 v -0.8125 h 5.4375 v 0.8125 l -2.03125,0.25 2.98438,9.25 2.54687,-9.23438 z"
       fill-rule="nonzero"
       id="path59" />
    <path
       fill="#000000"
       fill-opacity="0"
       d="m 481.14972,269.07086 h 124.78741 v 29.19687 H 481.14972 Z"
       fill-rule="evenodd"
       id="path61" />
    <path
       fill="#000000"
       d="m 517.324,282.46054 v -0.625 h 2.92187 v 0.625 l -0.85937,0.20312 -2.34375,6.85938 H 516.449 l -2.07813,-5.67188 -2.10937,5.67188 h -0.59375 l -2.57813,-6.90625 -0.90625,-0.15625 v -0.625 h 3.64063 v 0.625 l -1.23438,0.1875 1.64063,4.90625 1.79687,-4.90625 -1.1875,-0.1875 v -0.625 h 3.53125 v 0.625 l -1.17187,0.20312 1.8125,4.875 1.48437,-4.85937 z m 3.75525,6.96875 v -0.57813 l 1.15625,-0.20312 q 0.0156,-0.60938 0.0156,-1.3125 0.0156,-0.71875 0.0156,-1.26563 v -0.76562 q 0,-0.65625 -0.0156,-1.07813 0,-0.4375 -0.0312,-0.92187 l -1.26562,-0.14063 v -0.5625 l 2.23437,-0.98437 0.25,0.17187 0.17188,1.875 q 0.39062,-0.95312 1.01562,-1.5 0.64063,-0.54687 1.28125,-0.54687 0.375,0 0.6875,0.17187 0.32813,0.15625 0.46875,0.42188 0,1.17187 -0.9375,1.17187 -0.28125,0 -0.53125,-0.0937 -0.23437,-0.10937 -0.45312,-0.3125 l -0.1875,-0.17187 q -0.48438,0.35937 -0.8125,0.875 -0.3125,0.5 -0.51563,1.1875 v 1.20312 q 0,0.53125 0,1.23438 0.0156,0.70312 0.0312,1.3125 l 1.3125,0.23437 v 0.57813 z m 6.65869,0 v -0.57813 l 1.20313,-0.21875 q 0.0156,-0.60937 0.0156,-1.3125 0.0156,-0.71875 0.0156,-1.25 v -0.75 q 0,-0.65625 -0.0156,-1.09375 0,-0.4375 -0.0312,-0.92187 l -1.28125,-0.14063 v -0.5625 l 2.45313,-0.98437 0.25,0.17187 -0.0469,2.17188 v 2.10937 q 0,0.53125 0,1.25 0.0156,0.70313 0.0312,1.3125 l 1.10938,0.21875 v 0.57813 z m 1.89063,-9.5625 q -0.45313,0 -0.76563,-0.28125 -0.3125,-0.29688 -0.3125,-0.75 0,-0.46875 0.3125,-0.73438 0.3125,-0.28125 0.76563,-0.28125 0.4375,0 0.75,0.28125 0.3125,0.26563 0.3125,0.73438 0,0.45312 -0.3125,0.75 -0.3125,0.28125 -0.75,0.28125 z m 5.59613,9.76562 q -0.82813,0 -1.32813,-0.4375 -0.5,-0.45312 -0.5,-1.375 0,-0.3125 0,-0.60937 0.0156,-0.29688 0.0156,-0.75 v -3.78125 h -1.32813 v -0.70313 l 1.42188,-0.17187 0.42187,-2.15625 h 0.95313 l -0.0937,2.1875 h 2.17187 v 0.84375 h -2.1875 v 4.95312 q 0,0.60938 0.23438,0.89063 0.25,0.28125 0.65625,0.28125 0.26562,0 0.51562,-0.10938 0.25,-0.10937 0.54688,-0.32812 l 0.39062,0.42187 q -0.65625,0.84375 -1.89062,0.84375 z m 6.21563,-7.28125 q -0.4375,0 -0.90625,0.26563 -0.45312,0.25 -0.78125,0.8125 -0.32812,0.5625 -0.42187,1.48437 h 2.92187 q 0.57813,0 0.75,-0.23437 0.1875,-0.23438 0.1875,-0.59375 0,-0.46875 -0.23437,-0.85938 -0.23438,-0.39062 -0.625,-0.625 -0.39063,-0.25 -0.89063,-0.25 z m -0.0156,7.28125 q -1.60938,0 -2.59375,-1.04687 -0.96875,-1.04688 -0.96875,-2.89063 0,-1.21875 0.5,-2.125 0.51562,-0.92187 1.34375,-1.4375 0.84375,-0.51562 1.84375,-0.51562 0.82812,0 1.5,0.375 0.67187,0.35937 1.0625,1.04687 0.40625,0.67188 0.40625,1.65625 0,0.26563 -0.0312,0.5 -0.0312,0.23438 -0.0781,0.39063 h -5.10937 q 0.0312,1.46875 0.73437,2.25 0.70313,0.76562 1.85938,0.76562 0.76562,0 1.28125,-0.3125 0.51562,-0.3125 0.9375,-0.8125 l 0.39062,0.3125 q -0.45312,0.84375 -1.21875,1.34375 -0.76562,0.5 -1.85937,0.5 z m 4.20312,-0.20312 v -0.57813 l 1.20313,-0.20312 q 0.0156,-0.60938 0.0156,-1.3125 0.0156,-0.71875 0.0156,-1.26563 v -7.03125 l -1.3125,-0.15625 v -0.5625 l 2.4375,-0.71875 0.23437,0.125 -0.0625,2.28125 v 2.84375 q 0.5625,-0.64062 1.17188,-0.9375 0.625,-0.29687 1.28125,-0.29687 0.84375,0 1.53125,0.46875 0.70312,0.46875 1.10937,1.34375 0.40625,0.875 0.40625,2.125 0,1.23437 -0.4375,2.15625 -0.4375,0.92187 -1.1875,1.42187 -0.73437,0.5 -1.67187,0.5 -0.5625,0 -1.125,-0.23437 -0.5625,-0.23438 -1.07813,-0.89063 l -0.14062,1.07813 z m 4.5625,-6.89063 q -0.375,0 -0.85937,0.1875 -0.46875,0.1875 -1.125,0.73438 v 4.39062 q 0.48437,0.45313 0.96875,0.67188 0.48437,0.20312 0.92187,0.20312 0.85938,0 1.48438,-0.73437 0.64062,-0.75 0.64062,-2.3125 0,-1.53125 -0.57812,-2.32813 -0.5625,-0.8125 -1.45313,-0.8125 z m 10.84137,7.04688 q -0.57812,0 -0.96875,-0.32813 -0.375,-0.34375 -0.46875,-0.90625 -0.65625,0.64063 -1.15625,0.96875 -0.5,0.3125 -1.20312,0.3125 -0.875,0 -1.51563,-0.5 -0.625,-0.5 -0.625,-1.5 0,-0.45312 0.21875,-0.85937 0.21875,-0.40625 0.78125,-0.78125 0.57813,-0.39063 1.65625,-0.76563 0.375,-0.14062 0.84375,-0.28125 0.48438,-0.14062 0.96875,-0.25 v -0.40625 q 0,-1.15625 -0.35937,-1.54687 -0.34375,-0.39063 -1.14063,-0.39063 -0.1875,0 -0.40625,0.0156 -0.20312,0.0156 -0.46875,0.0937 l -0.29687,1.03125 q -0.23438,0.76562 -0.82813,0.76562 -0.67187,0 -0.76562,-0.65625 0.23437,-0.90625 1.0625,-1.4375 0.84375,-0.54687 2.0625,-0.54687 1.26562,0 1.875,0.64062 0.60937,0.625 0.60937,2.14063 v 3.42187 q 0,0.5 0.15625,0.71875 0.15625,0.21875 0.42188,0.21875 0.20312,0 0.34375,-0.0937 0.14062,-0.0937 0.28125,-0.26562 l 0.3125,0.35937 q -0.28125,0.46875 -0.625,0.65625 -0.34375,0.17188 -0.76563,0.17188 z m -4.51562,-2.1875 q 0,0.64062 0.35937,0.92187 0.375,0.26563 0.92188,0.26563 0.23437,0 0.45312,-0.0625 0.21875,-0.0625 0.51563,-0.25 0.3125,-0.1875 0.79687,-0.54688 v -2.4375 q -0.42187,0.10938 -0.82812,0.25 -0.39063,0.125 -0.64063,0.23438 -0.6875,0.26562 -1.03125,0.5625 -0.32812,0.28125 -0.4375,0.5625 -0.10937,0.26562 -0.10937,0.5 z m 10.26904,2.23437 q -1.64062,0 -2.625,-1.0625 -0.96875,-1.07812 -0.96875,-2.92187 0,-1.26563 0.51563,-2.15625 0.53125,-0.90625 1.375,-1.39063 0.84375,-0.48437 1.8125,-0.48437 0.71875,0 1.3125,0.28125 0.60937,0.26562 1.01562,0.75 0.40625,0.46875 0.5,1.04687 -0.10937,0.60938 -0.73437,0.60938 -0.40625,0 -0.60938,-0.20313 -0.20312,-0.21875 -0.28125,-0.5625 l -0.28125,-1.04687 q -0.21875,-0.0937 -0.4375,-0.10938 -0.21875,-0.0312 -0.42187,-0.0312 -1.03125,0 -1.70313,0.8125 -0.65625,0.79688 -0.65625,2.32813 0,1.5 0.71875,2.3125 0.71875,0.79687 1.84375,0.79687 0.6875,0 1.26563,-0.3125 0.57812,-0.3125 0.9375,-0.90625 l 0.40625,0.20313 q -0.34375,1 -1.09375,1.53125 -0.75,0.51562 -1.89063,0.51562 z m 3.77264,-0.20312 v -0.57813 l 1.28125,-0.21875 q 0.0156,-0.64062 0.0156,-1.28125 0.0156,-0.65625 0.0156,-1.28125 v -7.03125 l -1.3125,-0.15625 v -0.5625 l 2.48438,-0.71875 0.23437,0.125 -0.0625,2.28125 v 5.57813 l 2.73438,-2.84375 -1.1875,-0.28125 v -0.625 h 3.73437 v 0.625 l -1.51562,0.21875 -1.75,1.8125 2.625,4.17187 1.04687,0.1875 v 0.57813 h -2.17187 l -2.46875,-3.96875 -1.04688,1.09375 q 0,0.5 0,1.03125 0.0156,0.53125 0.0312,1.04687 l 1.28125,0.21875 v 0.57813 z"
       fill-rule="nonzero"
       id="path63" />
    <path
       fill="#000000"
       fill-opacity="0"
       d="m 131.71147,237.07086 h 61.95276"
       fill-rule="evenodd"
       id="path65" />
    <path
       stroke="#595959"
       stroke-width="2"
       stroke-linejoin="round"
       stroke-linecap="butt"
       d="m 131.71147,237.07086 h 49.95276"
       fill-rule="evenodd"
       id="path67" />
    <path
       fill="#595959"
       stroke="#595959"
       stroke-width="2"
       stroke-linecap="butt"
       d="m 181.66423,240.37433 9.07619,-3.30347 -9.07619,-3.30346 z"
       fill-rule="evenodd"
       id="path69" />
    <path
       fill="#000000"
       fill-opacity="0"
       d="M 193.07838,253.07086 H 132.29096"
       fill-rule="evenodd"
       id="path71" />
    <path
       stroke="#351c75"
       stroke-width="2"
       stroke-linejoin="round"
       stroke-linecap="butt"
       d="M 193.07837,253.07086 H 144.29099"
       fill-rule="evenodd"
       id="path73" />
    <path
       fill="#351c75"
       stroke="#351c75"
       stroke-width="2"
       stroke-linecap="butt"
       d="m 144.29099,249.7674 -9.0762,3.30347 9.0762,3.30346 z"
       fill-rule="evenodd"
       id="path75" />
    <path
       fill="#000000"
       fill-opacity="0"
       d="m 132.2966,217.35432 h 60.7874 v 19.71654 h -60.7874 z"
       fill-rule="evenodd"
       id="path77" />
    <path
       fill="#000000"
       d="m 147.83144,224.00134 v -0.5 h 5.96875 l 0.0937,2.125 h -0.6875 l -0.26563,-1.51563 h -2.82812 q 0,0.76563 -0.0156,1.53125 0,0.76563 0,1.51563 h 1.85938 l 0.17187,-1.14063 h 0.54688 v 2.95313 h -0.54688 l -0.17187,-1.25 h -1.85938 q 0,0.89062 0,1.67187 0.0156,0.76563 0.0156,1.51563 l 1.125,0.14062 v 0.48438 h -3.40625 v -0.48438 l 1.09375,-0.14062 q 0.0312,-0.75 0.0312,-1.53125 0,-0.78125 0,-1.5625 v -0.59375 q 0,-0.78125 0,-1.54688 0,-0.78125 -0.0312,-1.54687 z m 9.15916,2.23437 q -0.34375,0 -0.6875,0.1875 -0.34375,0.1875 -0.59375,0.60938 -0.23437,0.42187 -0.3125,1.10937 h 2.1875 q 0.4375,0 0.5625,-0.17187 0.14063,-0.1875 0.14063,-0.45313 0,-0.34375 -0.17188,-0.625 -0.17187,-0.29687 -0.46875,-0.46875 -0.29687,-0.1875 -0.65625,-0.1875 z m -0.0156,5.45313 q -1.21875,0 -1.95313,-0.78125 -0.71875,-0.79688 -0.71875,-2.17188 0,-0.92187 0.375,-1.60937 0.375,-0.6875 1,-1.0625 0.64063,-0.39063 1.375,-0.39063 0.625,0 1.125,0.28125 0.51563,0.28125 0.8125,0.79688 0.29688,0.5 0.29688,1.23437 0,0.20313 -0.0312,0.375 -0.0156,0.17188 -0.0469,0.29688 h -3.82812 q 0.0156,1.09375 0.54687,1.67187 0.53125,0.57813 1.39063,0.57813 0.57812,0 0.95312,-0.23438 0.39063,-0.23437 0.71875,-0.60937 l 0.28125,0.23437 q -0.32812,0.64063 -0.90625,1.01563 -0.57812,0.375 -1.39062,0.375 z m 5.35441,0 q -0.60937,0 -0.98437,-0.32813 -0.375,-0.34375 -0.375,-1.04687 0,-0.21875 0,-0.4375 0.0156,-0.23438 0.0156,-0.57813 v -2.82812 h -1 v -0.53125 l 1.0625,-0.125 0.3125,-1.60938 h 0.71875 l -0.0625,1.625 h 1.60938 v 0.64063 h -1.625 v 3.71875 q 0,0.45312 0.17187,0.67187 0.1875,0.20313 0.48438,0.20313 0.20312,0 0.39062,-0.0781 0.1875,-0.0937 0.42188,-0.25 l 0.28125,0.3125 q -0.48438,0.64063 -1.42188,0.64063 z m 1.97815,-7.6875 v -0.5 h 5.96875 l 0.0937,2.125 h -0.6875 l -0.26562,-1.51563 h -2.82813 q 0,0.76563 -0.0156,1.53125 0,0.76563 0,1.51563 h 1.76562 l 0.17188,-1.14063 h 0.54687 v 2.82813 h -0.54687 l -0.15625,-1.125 h -1.78125 q 0,0.89062 0,1.6875 0.0156,0.78125 0.0156,1.53125 h 3.0625 l 0.26563,-1.54688 h 0.6875 l -0.0781,2.14063 h -6.21875 v -0.48438 l 1.09375,-0.14062 q 0.0312,-0.75 0.0312,-1.53125 0,-0.78125 0,-1.5625 v -0.59375 q 0,-0.78125 0,-1.54688 0,-0.78125 -0.0312,-1.54687 z m 10.25168,0.0625 h -0.73437 q 0,0.76562 -0.0156,1.5625 0,0.79687 0,1.59375 v 0.57812 h 0.79688 q 1.09375,0 1.54687,-0.53125 0.46875,-0.53125 0.46875,-1.375 0,-0.875 -0.5,-1.34375 -0.48437,-0.48437 -1.5625,-0.48437 z m -3.01562,-0.0625 v -0.5 h 3.21875 q 1.53125,0 2.28125,0.67187 0.76562,0.65625 0.76562,1.71875 0,0.67188 -0.34375,1.23438 -0.32812,0.5625 -1.0625,0.90625 -0.73437,0.32812 -1.96875,0.32812 h -0.625 q 0,0.65625 0,1.28125 0.0156,0.625 0.0156,1.26563 l 1.125,0.14062 v 0.48438 h -3.40625 v -0.48438 l 1.09375,-0.14062 q 0.0312,-0.75 0.0312,-1.53125 0,-0.78125 0,-1.5625 v -0.59375 q 0,-0.78125 0,-1.54688 0,-0.78125 -0.0312,-1.54687 z"
       fill-rule="nonzero"
       id="path79" />
    <path
       fill="#000000"
       fill-opacity="0"
       d="m 132.2966,253.07086 h 60.7874 v 19.71655 h -60.7874 z"
       fill-rule="evenodd"
       id="path81" />
    <path
       fill="#000000"
       d="m 139.412,263.9054 q 0,0.96875 0.15625,1.8125 0.17187,0.82812 0.57812,1.6875 0.40625,0.85937 1.10938,1.875 l -0.3125,0.26562 q -1.26563,-1.1875 -1.89063,-2.57812 -0.60937,-1.40625 -0.60937,-3.0625 0,-1.64063 0.60937,-3.03125 0.625,-1.40625 1.89063,-2.59375 l 0.3125,0.26562 q -0.70313,1.01563 -1.10938,1.875 -0.40625,0.85938 -0.57812,1.70313 -0.15625,0.82812 -0.15625,1.78125 z"
       fill-rule="nonzero"
       id="path83" />
    <path
       fill="#000000"
       d="m 147.2144,263.0304 q 0.73437,0.20312 1.20312,0.75 0.48438,0.54687 0.48438,1.32812 0,1.03125 -0.9375,1.59375 -0.9375,0.54688 -2.3125,0.54688 h -3.57813 q -0.20312,0 -0.20312,-0.23438 0,-0.20312 0.39062,-0.20312 0.42188,0 0.5625,-0.125 0.15625,-0.125 0.15625,-0.53125 v -5.6875 q 0,-0.4375 -0.1875,-0.53125 -0.17187,-0.10938 -0.71875,-0.10938 -0.20312,0 -0.20312,-0.23437 0,-0.21875 0.20312,-0.21875 h 3.57813 q 2.8125,0 2.8125,2.01562 0,1.01563 -1.25,1.64063 z m 0.8125,-1.64063 q 0,-1.32812 -1.53125,-1.51562 0.48437,0.5625 0.48437,1.51562 0,1.10938 -0.60937,1.59375 1.65625,-0.79687 1.65625,-1.59375 z m -1.48438,0 q 0,-0.6875 -0.29687,-1.125 -0.28125,-0.4375 -0.82813,-0.4375 -0.25,0 -0.4375,0.125 -0.1875,0.10938 -0.1875,0.29688 v 2.70312 q 0.875,0 1.3125,-0.32812 0.4375,-0.34375 0.4375,-1.23438 z m 1.92188,3.71875 q 0,-0.73437 -0.46875,-1.125 -0.46875,-0.40625 -1.28125,-0.64062 0.625,0.46875 0.625,1.76562 0,0.98438 -0.48438,1.5625 1.60938,-0.40625 1.60938,-1.5625 z m -3.67188,1.26563 q 0,0.20312 0.1875,0.32812 0.1875,0.10938 0.4375,0.10938 1.48438,0 1.48438,-1.70313 0,-0.89062 -0.32813,-1.29687 -0.32812,-0.42188 -1.15625,-0.42188 h -0.625 z m -0.3125,-6.54688 h -1.1875 q 0.125,0.21875 0.125,0.64063 v 5.6875 q 0,0.42187 -0.125,0.65625 h 1.1875 q -0.125,-0.20313 -0.125,-0.4375 v -6.125 q 0,-0.21875 0.125,-0.42188 z"
       fill-rule="nonzero"
       id="path85" />
    <path
       fill="#000000"
       d="m 151.8127,266.9054 q 0,0.71875 -0.34375,1.32812 -0.34375,0.60938 -0.875,1.04688 -0.53125,0.4375 -1.10938,0.65625 l -0.15625,-0.40625 q 0.60938,-0.3125 1.07813,-0.76563 0.46875,-0.4375 0.6875,-1.10937 l -0.45313,-0.34375 q -0.23437,-0.1875 -0.34375,-0.40625 -0.10937,-0.23438 -0.10937,-0.45313 0,-0.3125 0.1875,-0.53125 0.1875,-0.23437 0.5625,-0.23437 0.15625,0 0.32812,0.0781 0.1875,0.0625 0.40625,0.26563 0.0781,0.23437 0.10938,0.45312 0.0312,0.20313 0.0312,0.42188 z m 6.63042,-3.51563 q 0,0.875 0,1.6875 0.0156,0.8125 0.0156,1.60938 h 0.95313 q 1.39062,0 2.125,-0.90625 0.75,-0.90625 0.75,-2.54688 0,-1.6875 -0.73438,-2.5625 -0.71875,-0.89062 -2.03125,-0.89062 h -1.0625 q 0,0.76562 -0.0156,1.5625 0,0.79687 0,1.59375 z m -2.26563,-3.67187 v -0.5 h 3.53125 q 1.15625,0 2.03125,0.46875 0.875,0.45312 1.35938,1.35937 0.5,0.89063 0.5,2.1875 0,1.29688 -0.54688,2.20313 -0.53125,0.89062 -1.46875,1.35937 -0.92187,0.45313 -2.09375,0.45313 h -3.3125 v -0.48438 l 1.09375,-0.14062 q 0.0312,-0.76563 0.0312,-1.5625 0,-0.79688 0,-1.67188 v -0.45312 q 0,-0.78125 0,-1.54688 0,-0.78125 -0.0312,-1.54687 z m 11.22319,2.23437 q -0.34375,0 -0.6875,0.1875 -0.34375,0.1875 -0.59375,0.60938 -0.23437,0.42187 -0.3125,1.10937 h 2.1875 q 0.4375,0 0.5625,-0.17187 0.14063,-0.1875 0.14063,-0.45313 0,-0.34375 -0.17188,-0.625 -0.17187,-0.29687 -0.46875,-0.46875 -0.29687,-0.1875 -0.65625,-0.1875 z m -0.0156,5.45313 q -1.21875,0 -1.95313,-0.78125 -0.71875,-0.79688 -0.71875,-2.17188 0,-0.92187 0.375,-1.60937 0.375,-0.6875 1,-1.0625 0.64063,-0.39063 1.375,-0.39063 0.625,0 1.125,0.28125 0.51563,0.28125 0.8125,0.79688 0.29688,0.5 0.29688,1.23437 0,0.20313 -0.0312,0.375 -0.0156,0.17188 -0.0469,0.29688 h -3.82812 q 0.0156,1.09375 0.54687,1.67187 0.53125,0.57813 1.39063,0.57813 0.57812,0 0.95312,-0.23438 0.39063,-0.23437 0.71875,-0.60937 l 0.28125,0.23437 q -0.32812,0.64063 -0.90625,1.01563 -0.57812,0.375 -1.39062,0.375 z m 6.10441,0 q -1.23437,0 -1.96875,-0.79688 -0.73437,-0.8125 -0.73437,-2.1875 0,-0.95312 0.39062,-1.625 0.39063,-0.6875 1.03125,-1.04687 0.64063,-0.35938 1.35938,-0.35938 0.53125,0 0.98437,0.20313 0.46875,0.20312 0.76563,0.5625 0.29687,0.35937 0.375,0.79687 -0.0937,0.45313 -0.5625,0.45313 -0.29688,0 -0.45313,-0.15625 -0.14062,-0.15625 -0.20312,-0.42188 l -0.21875,-0.78125 q -0.17188,-0.0625 -0.32813,-0.0781 -0.15625,-0.0156 -0.3125,-0.0156 -0.76562,0 -1.26562,0.59375 -0.5,0.59375 -0.5,1.75 0,1.125 0.53125,1.73438 0.54687,0.59375 1.39062,0.59375 0.51563,0 0.9375,-0.23438 0.4375,-0.23437 0.71875,-0.67187 l 0.29688,0.15625 q -0.25,0.73437 -0.8125,1.14062 -0.5625,0.39063 -1.42188,0.39063 z m 6.3803,-7.625 h -1.04688 q 0,0.78125 -0.0156,1.57812 0,0.78125 0,1.625 h 0.92187 q 0.96875,0 1.42188,-0.46875 0.46875,-0.46875 0.46875,-1.1875 0,-0.75 -0.42188,-1.14062 -0.40625,-0.40625 -1.32812,-0.40625 z m -3.32813,-0.0625 v -0.5 h 3.35938 q 1.375,0 2.14062,0.5625 0.76563,0.54687 0.76563,1.54687 0,0.6875 -0.5,1.26563 -0.5,0.57812 -1.51563,0.75 0.53125,0.10937 0.875,0.46875 0.34375,0.35937 0.54688,1.0625 l 0.51562,1.78125 0.92188,0.10937 v 0.48438 q -0.17188,0.0469 -0.40625,0.0781 -0.21875,0.0469 -0.48438,0.0469 -0.5625,0 -0.85937,-0.17188 -0.28125,-0.17187 -0.375,-0.59375 l -0.48438,-1.92187 q -0.10937,-0.5 -0.3125,-0.73438 -0.20312,-0.25 -0.53125,-0.32812 -0.3125,-0.0937 -0.79687,-0.0937 h -0.59375 q 0,0.85937 0,1.625 0.0156,0.75 0.0156,1.46875 l 1.10938,0.14062 v 0.48438 h -3.39063 v -0.48438 l 1.09375,-0.14062 q 0.0312,-0.75 0.0312,-1.53125 0,-0.78125 0,-1.5625 v -0.59375 q 0,-0.78125 0,-1.54688 0,-0.78125 -0.0312,-1.54687 z m 9.42144,4.1875 q 0,-0.95313 -0.17188,-1.78125 -0.15625,-0.84375 -0.5625,-1.70313 -0.39062,-0.85937 -1.10937,-1.875 l 0.3125,-0.26562 q 1.28125,1.1875 1.89062,2.59375 0.60938,1.39062 0.60938,3.03125 0,1.65625 -0.60938,3.0625 -0.60937,1.39062 -1.89062,2.57812 l -0.3125,-0.26562 q 0.71875,-1.01563 1.10937,-1.875 0.40625,-0.85938 0.5625,-1.6875 0.17188,-0.84375 0.17188,-1.8125 z"
       fill-rule="nonzero"
       id="path87" />
    <path
       fill="#000000"
       fill-opacity="0"
       d="m 240.24428,237.07086 h 61.95277"
       fill-rule="evenodd"
       id="path89" />
    <path
       stroke="#595959"
       stroke-width="2"
       stroke-linejoin="round"
       stroke-linecap="butt"
       d="m 240.24428,237.07086 h 49.95274"
       fill-rule="evenodd"
       id="path91" />
    <path
       fill="#595959"
       stroke="#595959"
       stroke-width="2"
       stroke-linecap="butt"
       d="m 290.19702,240.37433 9.0762,-3.30347 -9.0762,-3.30346 z"
       fill-rule="evenodd"
       id="path93" />
    <path
       fill="#000000"
       fill-opacity="0"
       d="M 301.61118,253.07086 H 240.8238"
       fill-rule="evenodd"
       id="path95" />
    <path
       stroke="#351c75"
       stroke-width="2"
       stroke-linejoin="round"
       stroke-linecap="butt"
       d="m 301.61118,253.07086 h -48.7874"
       fill-rule="evenodd"
       id="path97" />
    <path
       fill="#351c75"
       stroke="#351c75"
       stroke-width="2"
       stroke-linecap="butt"
       d="m 252.82378,249.7674 -9.07619,3.30347 9.07619,3.30346 z"
       fill-rule="evenodd"
       id="path99" />
    <path
       fill="#000000"
       fill-opacity="0"
       d="m 240.8294,217.35432 h 60.78738 v 19.71654 H 240.8294 Z"
       fill-rule="evenodd"
       id="path101" />
    <path
       fill="#000000"
       d="m 256.68585,227.67322 q 0,0.875 0,1.6875 0.0156,0.8125 0.0156,1.60937 h 0.95312 q 1.39063,0 2.125,-0.90625 0.75,-0.90625 0.75,-2.54687 0,-1.6875 -0.73437,-2.5625 -0.71875,-0.89063 -2.03125,-0.89063 h -1.0625 q 0,0.76563 -0.0156,1.5625 0,0.79688 0,1.59375 z m -2.26562,-3.67188 v -0.5 h 3.53125 q 1.15625,0 2.03125,0.46875 0.875,0.45313 1.35937,1.35938 0.5,0.89062 0.5,2.1875 0,1.29687 -0.54687,2.20312 -0.53125,0.89063 -1.46875,1.35938 -0.92188,0.45312 -2.09375,0.45312 h -3.3125 v -0.48437 l 1.09375,-0.14063 q 0.0312,-0.76562 0.0312,-1.5625 0,-0.79687 0,-1.67187 v -0.45313 q 0,-0.78125 0,-1.54687 0,-0.78125 -0.0312,-1.54688 z m 11.22317,2.23438 q -0.34375,0 -0.6875,0.1875 -0.34375,0.1875 -0.59375,0.60937 -0.23437,0.42188 -0.3125,1.10938 h 2.1875 q 0.4375,0 0.5625,-0.17188 0.14063,-0.1875 0.14063,-0.45312 0,-0.34375 -0.17188,-0.625 -0.17187,-0.29688 -0.46875,-0.46875 -0.29687,-0.1875 -0.65625,-0.1875 z m -0.0156,5.45312 q -1.21875,0 -1.95313,-0.78125 -0.71875,-0.79687 -0.71875,-2.17187 0,-0.92188 0.375,-1.60938 0.375,-0.6875 1,-1.0625 0.64063,-0.39062 1.375,-0.39062 0.625,0 1.125,0.28125 0.51563,0.28125 0.8125,0.79687 0.29688,0.5 0.29688,1.23438 0,0.20312 -0.0312,0.375 -0.0156,0.17187 -0.0469,0.29687 h -3.82812 q 0.0156,1.09375 0.54687,1.67188 0.53125,0.57812 1.39063,0.57812 0.57812,0 0.95312,-0.23437 0.39063,-0.23438 0.71875,-0.60938 l 0.28125,0.23438 q -0.32812,0.64062 -0.90625,1.01562 -0.57812,0.375 -1.39062,0.375 z m 6.10443,0 q -1.23438,0 -1.96875,-0.79687 -0.73438,-0.8125 -0.73438,-2.1875 0,-0.95313 0.39063,-1.625 0.39062,-0.6875 1.03125,-1.04688 0.64062,-0.35937 1.35937,-0.35937 0.53125,0 0.98438,0.20312 0.46875,0.20313 0.76562,0.5625 0.29688,0.35938 0.375,0.79688 -0.0937,0.45312 -0.5625,0.45312 -0.29687,0 -0.45312,-0.15625 -0.14063,-0.15625 -0.20313,-0.42187 l -0.21875,-0.78125 q -0.17187,-0.0625 -0.32812,-0.0781 -0.15625,-0.0156 -0.3125,-0.0156 -0.76563,0 -1.26563,0.59375 -0.5,0.59375 -0.5,1.75 0,1.125 0.53125,1.73437 0.54688,0.59375 1.39063,0.59375 0.51562,0 0.9375,-0.23437 0.4375,-0.23438 0.71875,-0.67188 l 0.29687,0.15625 q -0.25,0.73438 -0.8125,1.14063 -0.5625,0.39062 -1.42187,0.39062 z m 3.05215,-7.6875 v -0.5 h 5.96875 l 0.0937,2.125 h -0.6875 l -0.26562,-1.51562 h -2.82813 q 0,0.76562 -0.0156,1.53125 0,0.76562 0,1.51562 h 1.76562 l 0.17188,-1.14062 h 0.54687 v 2.82812 h -0.54687 l -0.15625,-1.125 h -1.78125 q 0,0.89063 0,1.6875 0.0156,0.78125 0.0156,1.53125 h 3.0625 l 0.26563,-1.54687 h 0.6875 l -0.0781,2.14062 h -6.21875 v -0.48437 l 1.09375,-0.14063 q 0.0312,-0.75 0.0312,-1.53125 0,-0.78125 0,-1.5625 v -0.59375 q 0,-0.78125 0,-1.54687 0,-0.78125 -0.0312,-1.54688 z m 10.25168,0.0625 h -0.73438 q 0,0.76563 -0.0156,1.5625 0,0.79688 0,1.59375 v 0.57813 h 0.79687 q 1.09375,0 1.54688,-0.53125 0.46875,-0.53125 0.46875,-1.375 0,-0.875 -0.5,-1.34375 -0.48438,-0.48438 -1.5625,-0.48438 z m -3.01563,-0.0625 v -0.5 h 3.21875 q 1.53125,0 2.28125,0.67188 0.76563,0.65625 0.76563,1.71875 0,0.67187 -0.34375,1.23437 -0.32813,0.5625 -1.0625,0.90625 -0.73438,0.32813 -1.96875,0.32813 h -0.625 q 0,0.65625 0,1.28125 0.0156,0.625 0.0156,1.26562 l 1.125,0.14063 v 0.48437 h -3.40625 v -0.48437 l 1.09375,-0.14063 q 0.0312,-0.75 0.0312,-1.53125 0,-0.78125 0,-1.5625 v -0.59375 q 0,-0.78125 0,-1.54687 0,-0.78125 -0.0312,-1.54688 z"
       fill-rule="nonzero"
       id="path103" />
    <path
       fill="#000000"
       fill-opacity="0"
       d="m 240.8294,253.07086 h 60.78738 v 19.71655 H 240.8294 Z"
       fill-rule="evenodd"
       id="path105" />
    <path
       fill="#000000"
       d="m 248.47281,263.9054 q 0,0.96875 0.15625,1.8125 0.17187,0.82812 0.57812,1.6875 0.40625,0.85937 1.10938,1.875 l -0.3125,0.26562 q -1.26563,-1.1875 -1.89063,-2.57812 -0.60937,-1.40625 -0.60937,-3.0625 0,-1.64063 0.60937,-3.03125 0.625,-1.40625 1.89063,-2.59375 l 0.3125,0.26562 q -0.70313,1.01563 -1.10938,1.875 -0.40625,0.85938 -0.57812,1.70313 -0.15625,0.82812 -0.15625,1.78125 z"
       fill-rule="nonzero"
       id="path107" />
    <path
       fill="#000000"
       d="m 256.2752,263.0304 q 0.73437,0.20312 1.20312,0.75 0.48438,0.54687 0.48438,1.32812 0,1.03125 -0.9375,1.59375 -0.9375,0.54688 -2.3125,0.54688 h -3.57813 q -0.20312,0 -0.20312,-0.23438 0,-0.20312 0.39062,-0.20312 0.42188,0 0.5625,-0.125 0.15625,-0.125 0.15625,-0.53125 v -5.6875 q 0,-0.4375 -0.1875,-0.53125 -0.17187,-0.10938 -0.71875,-0.10938 -0.20312,0 -0.20312,-0.23437 0,-0.21875 0.20312,-0.21875 h 3.57813 q 2.8125,0 2.8125,2.01562 0,1.01563 -1.25,1.64063 z m 0.8125,-1.64063 q 0,-1.32812 -1.53125,-1.51562 0.48437,0.5625 0.48437,1.51562 0,1.10938 -0.60937,1.59375 1.65625,-0.79687 1.65625,-1.59375 z m -1.48438,0 q 0,-0.6875 -0.29687,-1.125 -0.28125,-0.4375 -0.82813,-0.4375 -0.25,0 -0.4375,0.125 -0.1875,0.10938 -0.1875,0.29688 v 2.70312 q 0.875,0 1.3125,-0.32812 0.4375,-0.34375 0.4375,-1.23438 z m 1.92188,3.71875 q 0,-0.73437 -0.46875,-1.125 -0.46875,-0.40625 -1.28125,-0.64062 0.625,0.46875 0.625,1.76562 0,0.98438 -0.48438,1.5625 1.60938,-0.40625 1.60938,-1.5625 z m -3.67188,1.26563 q 0,0.20312 0.1875,0.32812 0.1875,0.10938 0.4375,0.10938 1.48438,0 1.48438,-1.70313 0,-0.89062 -0.32813,-1.29687 -0.32812,-0.42188 -1.15625,-0.42188 h -0.625 z m -0.3125,-6.54688 h -1.1875 q 0.125,0.21875 0.125,0.64063 v 5.6875 q 0,0.42187 -0.125,0.65625 h 1.1875 q -0.125,-0.20313 -0.125,-0.4375 v -6.125 q 0,-0.21875 0.125,-0.42188 z"
       fill-rule="nonzero"
       id="path109" />
    <path
       fill="#000000"
       d="m 260.8735,266.9054 q 0,0.71875 -0.34375,1.32812 -0.34375,0.60938 -0.875,1.04688 -0.53125,0.4375 -1.10938,0.65625 l -0.15625,-0.40625 q 0.60938,-0.3125 1.07813,-0.76563 0.46875,-0.4375 0.6875,-1.10937 l -0.45313,-0.34375 q -0.23437,-0.1875 -0.34375,-0.40625 -0.10937,-0.23438 -0.10937,-0.45313 0,-0.3125 0.1875,-0.53125 0.1875,-0.23437 0.5625,-0.23437 0.15625,0 0.32812,0.0781 0.1875,0.0625 0.40625,0.26563 0.0781,0.23437 0.10938,0.45312 0.0312,0.20313 0.0312,0.42188 z m 4.36481,-7.1875 v -0.5 h 5.96875 l 0.0937,2.125 h -0.6875 l -0.26563,-1.51563 h -2.82812 q 0,0.76563 -0.0156,1.53125 0,0.76563 0,1.51563 h 1.76563 l 0.17187,-1.14063 h 0.54688 v 2.82813 h -0.54688 l -0.15625,-1.125 h -1.78125 q 0,0.89062 0,1.6875 0.0156,0.78125 0.0156,1.53125 h 3.0625 l 0.26562,-1.54688 h 0.6875 l -0.0781,2.14063 h -6.21875 v -0.48438 l 1.09375,-0.14062 q 0.0312,-0.75 0.0312,-1.53125 0,-0.78125 0,-1.5625 v -0.59375 q 0,-0.78125 0,-1.54688 0,-0.78125 -0.0312,-1.54687 z m 10.50167,2.29687 v -0.46875 h 2.23438 v 0.46875 l -0.70313,0.14063 -1.71875,2.10937 1.67188,2.39063 0.90625,0.15625 v 0.4375 h -2.92188 v -0.4375 l 0.84375,-0.15625 -1.17187,-1.70313 -1.3125,1.70313 0.89062,0.15625 v 0.4375 h -2.39062 v -0.4375 l 0.76562,-0.14063 1.75,-2.17187 -1.60937,-2.34375 -0.82813,-0.14063 v -0.46875 h 2.67188 v 0.46875 l -0.73438,0.14063 1.15625,1.65625 1.28125,-1.64063 z m 5.50953,-0.0625 q -0.34375,0 -0.6875,0.1875 -0.34375,0.1875 -0.59375,0.60938 -0.23438,0.42187 -0.3125,1.10937 h 2.1875 q 0.4375,0 0.5625,-0.17187 0.14062,-0.1875 0.14062,-0.45313 0,-0.34375 -0.17187,-0.625 -0.17188,-0.29687 -0.46875,-0.46875 -0.29688,-0.1875 -0.65625,-0.1875 z m -0.0156,5.45313 q -1.21875,0 -1.95312,-0.78125 -0.71875,-0.79688 -0.71875,-2.17188 0,-0.92187 0.375,-1.60937 0.375,-0.6875 1,-1.0625 0.64062,-0.39063 1.375,-0.39063 0.625,0 1.125,0.28125 0.51562,0.28125 0.8125,0.79688 0.29687,0.5 0.29687,1.23437 0,0.20313 -0.0312,0.375 -0.0156,0.17188 -0.0469,0.29688 h -3.82813 q 0.0156,1.09375 0.54688,1.67187 0.53125,0.57813 1.39062,0.57813 0.57813,0 0.95313,-0.23438 0.39062,-0.23437 0.71875,-0.60937 l 0.28125,0.23437 q -0.32813,0.64063 -0.90625,1.01563 -0.57813,0.375 -1.39063,0.375 z m 6.64069,-7.625 h -1.04688 q 0,0.78125 -0.0156,1.57812 0,0.78125 0,1.625 h 0.92187 q 0.96875,0 1.42188,-0.46875 0.46875,-0.46875 0.46875,-1.1875 0,-0.75 -0.42188,-1.14062 -0.40625,-0.40625 -1.32812,-0.40625 z m -3.32813,-0.0625 v -0.5 h 3.35938 q 1.375,0 2.14062,0.5625 0.76563,0.54687 0.76563,1.54687 0,0.6875 -0.5,1.26563 -0.5,0.57812 -1.51563,0.75 0.53125,0.10937 0.875,0.46875 0.34375,0.35937 0.54688,1.0625 l 0.51562,1.78125 0.92188,0.10937 v 0.48438 q -0.17188,0.0469 -0.40625,0.0781 -0.21875,0.0469 -0.48438,0.0469 -0.5625,0 -0.85937,-0.17188 -0.28125,-0.17187 -0.375,-0.59375 l -0.48438,-1.92187 q -0.10937,-0.5 -0.3125,-0.73438 -0.20312,-0.25 -0.53125,-0.32812 -0.3125,-0.0937 -0.79687,-0.0937 h -0.59375 q 0,0.85937 0,1.625 0.0156,0.75 0.0156,1.46875 l 1.10938,0.14062 v 0.48438 h -3.39063 v -0.48438 l 1.09375,-0.14062 q 0.0312,-0.75 0.0312,-1.53125 0,-0.78125 0,-1.5625 v -0.59375 q 0,-0.78125 0,-1.54688 0,-0.78125 -0.0312,-1.54687 z m 9.42142,4.1875 q 0,-0.95313 -0.17188,-1.78125 -0.15625,-0.84375 -0.5625,-1.70313 -0.39062,-0.85937 -1.10937,-1.875 l 0.3125,-0.26562 q 1.28125,1.1875 1.89062,2.59375 0.60938,1.39062 0.60938,3.03125 0,1.65625 -0.60938,3.0625 -0.60937,1.39062 -1.89062,2.57812 l -0.3125,-0.26562 q 0.71875,-1.01563 1.10937,-1.875 0.40625,-0.85938 0.5625,-1.6875 0.17188,-0.84375 0.17188,-1.8125 z"
       fill-rule="nonzero"
       id="path111" />
    <path
       fill="#000000"
       fill-opacity="0"
       d="m 349.1734,237.07086 h 61.95276"
       fill-rule="evenodd"
       id="path113" />
    <path
       stroke="#595959"
       stroke-width="2"
       stroke-linejoin="round"
       stroke-linecap="butt"
       d="m 349.17343,237.07086 h 49.95276"
       fill-rule="evenodd"
       id="path115" />
    <path
       fill="#595959"
       stroke="#595959"
       stroke-width="2"
       stroke-linecap="butt"
       d="m 399.1262,240.37433 9.0762,-3.30347 -9.0762,-3.30346 z"
       fill-rule="evenodd"
       id="path117" />
    <path
       fill="#000000"
       fill-opacity="0"
       d="M 410.5403,253.07086 H 349.75292"
       fill-rule="evenodd"
       id="path119" />
    <path
       stroke="#351c75"
       stroke-width="2"
       stroke-linejoin="round"
       stroke-linecap="butt"
       d="M 410.5403,253.07086 H 361.75288"
       fill-rule="evenodd"
       id="path121" />
    <path
       fill="#351c75"
       stroke="#351c75"
       stroke-width="2"
       stroke-linecap="butt"
       d="m 361.7529,249.7674 -9.07617,3.30347 9.07617,3.30346 z"
       fill-rule="evenodd"
       id="path123" />
    <path
       fill="#000000"
       fill-opacity="0"
       d="m 349.75854,217.35432 h 60.78738 v 19.71654 h -60.78738 z"
       fill-rule="evenodd"
       id="path125" />
    <path
       fill="#000000"
       d="m 363.87738,224.00134 v -0.5 h 5.96875 l 0.0937,2.125 h -0.6875 l -0.26562,-1.51563 h -2.82813 q 0,0.76563 -0.0156,1.53125 0,0.76563 0,1.51563 h 1.76562 l 0.17188,-1.14063 h 0.54687 v 2.82813 h -0.54687 l -0.15625,-1.125 h -1.78125 q 0,0.89062 0,1.6875 0.0156,0.78125 0.0156,1.53125 h 3.0625 l 0.26563,-1.54688 h 0.6875 l -0.0781,2.14063 h -6.21875 v -0.48438 l 1.09375,-0.14062 q 0.0312,-0.75 0.0312,-1.53125 0,-0.78125 0,-1.5625 v -0.59375 q 0,-0.78125 0,-1.54688 0,-0.78125 -0.0312,-1.54687 z m 10.50168,2.29687 v -0.46875 h 2.23437 v 0.46875 l -0.70312,0.14063 -1.71875,2.10937 1.67187,2.39063 0.90625,0.15625 v 0.4375 h -2.92187 v -0.4375 l 0.84375,-0.15625 -1.17188,-1.70313 -1.3125,1.70313 0.89063,0.15625 v 0.4375 h -2.39063 v -0.4375 l 0.76563,-0.14063 1.75,-2.17187 -1.60938,-2.34375 -0.82812,-0.14063 v -0.46875 h 2.67187 v 0.46875 l -0.73437,0.14063 1.15625,1.65625 1.28125,-1.64063 z m 5.50952,-0.0625 q -0.34375,0 -0.6875,0.1875 -0.34375,0.1875 -0.59375,0.60938 -0.23438,0.42187 -0.3125,1.10937 h 2.1875 q 0.4375,0 0.5625,-0.17187 0.14062,-0.1875 0.14062,-0.45313 0,-0.34375 -0.17187,-0.625 -0.17188,-0.29687 -0.46875,-0.46875 -0.29688,-0.1875 -0.65625,-0.1875 z m -0.0156,5.45313 q -1.21875,0 -1.95312,-0.78125 -0.71875,-0.79688 -0.71875,-2.17188 0,-0.92187 0.375,-1.60937 0.375,-0.6875 1,-1.0625 0.64062,-0.39063 1.375,-0.39063 0.625,0 1.125,0.28125 0.51562,0.28125 0.8125,0.79688 0.29687,0.5 0.29687,1.23437 0,0.20313 -0.0312,0.375 -0.0156,0.17188 -0.0469,0.29688 h -3.82813 q 0.0156,1.09375 0.54688,1.67187 0.53125,0.57813 1.39062,0.57813 0.57813,0 0.95313,-0.23438 0.39062,-0.23437 0.71875,-0.60937 l 0.28125,0.23437 q -0.32813,0.64063 -0.90625,1.01563 -0.57813,0.375 -1.39063,0.375 z m 3.31254,-7.6875 v -0.5 h 5.96875 l 0.0937,2.125 h -0.6875 l -0.26563,-1.51563 h -2.82812 q 0,0.76563 -0.0156,1.53125 0,0.76563 0,1.51563 h 1.76563 l 0.17187,-1.14063 h 0.54688 v 2.82813 h -0.54688 l -0.15625,-1.125 h -1.78125 q 0,0.89062 0,1.6875 0.0156,0.78125 0.0156,1.53125 h 3.0625 l 0.26562,-1.54688 h 0.6875 l -0.0781,2.14063 h -6.21875 v -0.48438 l 1.09375,-0.14062 q 0.0312,-0.75 0.0312,-1.53125 0,-0.78125 0,-1.5625 v -0.59375 q 0,-0.78125 0,-1.54688 0,-0.78125 -0.0312,-1.54687 z m 10.25167,0.0625 h -0.73437 q 0,0.76562 -0.0156,1.5625 0,0.79687 0,1.59375 v 0.57812 h 0.79688 q 1.09375,0 1.54687,-0.53125 0.46875,-0.53125 0.46875,-1.375 0,-0.875 -0.5,-1.34375 -0.48437,-0.48437 -1.5625,-0.48437 z m -3.01562,-0.0625 v -0.5 h 3.21875 q 1.53125,0 2.28125,0.67187 0.76562,0.65625 0.76562,1.71875 0,0.67188 -0.34375,1.23438 -0.32812,0.5625 -1.0625,0.90625 -0.73437,0.32812 -1.96875,0.32812 h -0.625 q 0,0.65625 0,1.28125 0.0156,0.625 0.0156,1.26563 l 1.125,0.14062 v 0.48438 h -3.40625 v -0.48438 l 1.09375,-0.14062 q 0.0312,-0.75 0.0312,-1.53125 0,-0.78125 0,-1.5625 v -0.59375 q 0,-0.78125 0,-1.54688 0,-0.78125 -0.0312,-1.54687 z"
       fill-rule="nonzero"
       id="path127" />
    <path
       fill="#000000"
       fill-opacity="0"
       d="m 349.75854,253.07086 h 60.78738 v 19.71655 h -60.78738 z"
       fill-rule="evenodd"
       id="path129" />
    <path
       fill="#000000"
       d="m 353.2979,263.9054 q 0,0.96875 0.15625,1.8125 0.17188,0.82812 0.57813,1.6875 0.40625,0.85937 1.10937,1.875 l -0.3125,0.26562 q -1.26562,-1.1875 -1.89062,-2.57812 -0.60938,-1.40625 -0.60938,-3.0625 0,-1.64063 0.60938,-3.03125 0.625,-1.40625 1.89062,-2.59375 l 0.3125,0.26562 q -0.70312,1.01563 -1.10937,1.875 -0.40625,0.85938 -0.57813,1.70313 -0.15625,0.82812 -0.15625,1.78125 z"
       fill-rule="nonzero"
       id="path131" />
    <path
       fill="#000000"
       d="m 361.1003,263.0304 q 0.73437,0.20312 1.20312,0.75 0.48438,0.54687 0.48438,1.32812 0,1.03125 -0.9375,1.59375 -0.9375,0.54688 -2.3125,0.54688 h -3.57813 q -0.20312,0 -0.20312,-0.23438 0,-0.20312 0.39062,-0.20312 0.42188,0 0.5625,-0.125 0.15625,-0.125 0.15625,-0.53125 v -5.6875 q 0,-0.4375 -0.1875,-0.53125 -0.17187,-0.10938 -0.71875,-0.10938 -0.20312,0 -0.20312,-0.23437 0,-0.21875 0.20312,-0.21875 h 3.57813 q 2.8125,0 2.8125,2.01562 0,1.01563 -1.25,1.64063 z m 0.8125,-1.64063 q 0,-1.32812 -1.53125,-1.51562 0.48437,0.5625 0.48437,1.51562 0,1.10938 -0.60937,1.59375 1.65625,-0.79687 1.65625,-1.59375 z m -1.48438,0 q 0,-0.6875 -0.29687,-1.125 -0.28125,-0.4375 -0.82813,-0.4375 -0.25,0 -0.4375,0.125 -0.1875,0.10938 -0.1875,0.29688 v 2.70312 q 0.875,0 1.3125,-0.32812 0.4375,-0.34375 0.4375,-1.23438 z m 1.92188,3.71875 q 0,-0.73437 -0.46875,-1.125 -0.46875,-0.40625 -1.28125,-0.64062 0.625,0.46875 0.625,1.76562 0,0.98438 -0.48438,1.5625 1.60938,-0.40625 1.60938,-1.5625 z m -3.67188,1.26563 q 0,0.20312 0.1875,0.32812 0.1875,0.10938 0.4375,0.10938 1.48438,0 1.48438,-1.70313 0,-0.89062 -0.32813,-1.29687 -0.32812,-0.42188 -1.15625,-0.42188 h -0.625 z m -0.3125,-6.54688 h -1.1875 q 0.125,0.21875 0.125,0.64063 v 5.6875 q 0,0.42187 -0.125,0.65625 h 1.1875 q -0.125,-0.20313 -0.125,-0.4375 v -6.125 q 0,-0.21875 0.125,-0.42188 z"
       fill-rule="nonzero"
       id="path133" />
    <path
       fill="#000000"
       d="m 365.6986,266.9054 q 0,0.71875 -0.34375,1.32812 -0.34375,0.60938 -0.875,1.04688 -0.53125,0.4375 -1.10938,0.65625 l -0.15625,-0.40625 q 0.60938,-0.3125 1.07813,-0.76563 0.46875,-0.4375 0.6875,-1.10937 l -0.45313,-0.34375 q -0.23437,-0.1875 -0.34375,-0.40625 -0.10937,-0.23438 -0.10937,-0.45313 0,-0.3125 0.1875,-0.53125 0.1875,-0.23437 0.5625,-0.23437 0.15625,0 0.32812,0.0781 0.1875,0.0625 0.40625,0.26563 0.0781,0.23437 0.10938,0.45312 0.0312,0.20313 0.0312,0.42188 z m 4.30231,0.34375 v -0.48438 l 1.07812,-0.15625 v -6.76562 l -1.07812,-0.125 v -0.5 h 2.21875 l 2.6875,6.60937 2.54687,-6.60937 h 2.35938 v 0.5 l -1.09375,0.125 q -0.0156,0.76562 -0.0312,1.54687 0,0.76563 0,1.54688 v 0.59375 q 0,0.76562 0,1.54687 0.0156,0.76563 0.0312,1.54688 l 1.09375,0.14062 v 0.48438 h -3.26563 v -0.48438 l 1.01563,-0.14062 q 0.0156,-0.75 0.0156,-1.53125 0,-0.78125 0,-1.54688 v -3 l -2.59375,6.70313 h -0.60937 l -2.75,-6.70313 0.0781,2.28125 v 3.78125 l 0.98438,0.15625 v 0.48438 z m 13.3497,-5.29688 q -0.34375,0 -0.6875,0.1875 -0.34375,0.1875 -0.59375,0.60938 -0.23438,0.42187 -0.3125,1.10937 h 2.1875 q 0.4375,0 0.5625,-0.17187 0.14062,-0.1875 0.14062,-0.45313 0,-0.34375 -0.17187,-0.625 -0.17188,-0.29687 -0.46875,-0.46875 -0.29688,-0.1875 -0.65625,-0.1875 z m -0.0156,5.45313 q -1.21875,0 -1.95312,-0.78125 -0.71875,-0.79688 -0.71875,-2.17188 0,-0.92187 0.375,-1.60937 0.375,-0.6875 1,-1.0625 0.64062,-0.39063 1.375,-0.39063 0.625,0 1.125,0.28125 0.51562,0.28125 0.8125,0.79688 0.29687,0.5 0.29687,1.23437 0,0.20313 -0.0312,0.375 -0.0156,0.17188 -0.0469,0.29688 h -3.82813 q 0.0156,1.09375 0.54688,1.67187 0.53125,0.57813 1.39062,0.57813 0.57813,0 0.95313,-0.23438 0.39062,-0.23437 0.71875,-0.60937 l 0.28125,0.23437 q -0.32813,0.64063 -0.90625,1.01563 -0.57813,0.375 -1.39063,0.375 z m 3.38565,-0.15625 v -0.4375 l 0.89063,-0.15625 q 0,-0.46875 0,-0.98438 0.0156,-0.53125 0.0156,-0.9375 v -0.57812 q 0,-0.5 -0.0156,-0.8125 0,-0.32813 -0.0156,-0.6875 l -0.95312,-0.10938 v -0.42187 l 1.6875,-0.73438 0.17187,0.125 0.0937,0.96875 q 0.42188,-0.48437 0.98438,-0.78125 0.5625,-0.3125 1.125,-0.3125 0.5625,0 0.90625,0.26563 0.35937,0.26562 0.51562,0.85937 0.45313,-0.5625 1.01563,-0.84375 0.5625,-0.28125 1.15625,-0.28125 0.73437,0 1.125,0.5 0.40625,0.48438 0.40625,1.60938 v 1.23437 q 0,0.40625 0,0.9375 0.0156,0.51563 0.0312,0.98438 l 0.84375,0.15625 v 0.4375 h -2.78125 v -0.4375 l 0.875,-0.15625 q 0.0156,-0.45313 0.0156,-0.98438 0.0156,-0.53125 0.0156,-0.9375 v -1.04687 q 0,-0.84375 -0.25,-1.125 -0.23438,-0.29688 -0.76563,-0.29688 -0.35937,0 -0.75,0.17188 -0.39062,0.15625 -0.85937,0.57812 0.0156,0.125 0.0156,0.28125 0.0156,0.15625 0.0156,0.3125 v 1.125 q 0,0.40625 0,0.9375 0.0156,0.51563 0.0312,0.98438 l 0.82812,0.15625 v 0.4375 h -2.78125 v -0.4375 l 0.89063,-0.15625 q 0.0156,-0.45313 0.0156,-0.98438 0,-0.53125 0,-0.9375 v -1.03125 q 0,-0.8125 -0.23437,-1.125 -0.21875,-0.3125 -0.73438,-0.3125 -0.42187,0 -0.79687,0.17188 -0.35938,0.15625 -0.8125,0.54687 v 1.75 q 0,0.39063 0,0.92188 0.0156,0.53125 0.0312,1 l 0.82812,0.15625 v 0.4375 z m 14.18708,-7.46875 h -1.04688 q 0,0.78125 -0.0156,1.57812 0,0.78125 0,1.625 h 0.92187 q 0.96875,0 1.42188,-0.46875 0.46875,-0.46875 0.46875,-1.1875 0,-0.75 -0.42188,-1.14062 -0.40625,-0.40625 -1.32812,-0.40625 z m -3.32813,-0.0625 v -0.5 h 3.35938 q 1.375,0 2.14062,0.5625 0.76563,0.54687 0.76563,1.54687 0,0.6875 -0.5,1.26563 -0.5,0.57812 -1.51563,0.75 0.53125,0.10937 0.875,0.46875 0.34375,0.35937 0.54688,1.0625 l 0.51562,1.78125 0.92188,0.10937 v 0.48438 q -0.17188,0.0469 -0.40625,0.0781 -0.21875,0.0469 -0.48438,0.0469 -0.5625,0 -0.85937,-0.17188 -0.28125,-0.17187 -0.375,-0.59375 l -0.48438,-1.92187 q -0.10937,-0.5 -0.3125,-0.73438 -0.20312,-0.25 -0.53125,-0.32812 -0.3125,-0.0937 -0.79687,-0.0937 h -0.59375 q 0,0.85937 0,1.625 0.0156,0.75 0.0156,1.46875 l 1.10938,0.14062 v 0.48438 h -3.39063 v -0.48438 l 1.09375,-0.14062 q 0.0312,-0.75 0.0312,-1.53125 0,-0.78125 0,-1.5625 v -0.59375 q 0,-0.78125 0,-1.54688 0,-0.78125 -0.0312,-1.54687 z m 9.42145,4.1875 q 0,-0.95313 -0.17188,-1.78125 -0.15625,-0.84375 -0.5625,-1.70313 -0.39062,-0.85937 -1.10937,-1.875 l 0.3125,-0.26562 q 1.28125,1.1875 1.89062,2.59375 0.60938,1.39062 0.60938,3.03125 0,1.65625 -0.60938,3.0625 -0.60937,1.39062 -1.89062,2.57812 l -0.3125,-0.26562 q 0.71875,-1.01563 1.10937,-1.875 0.40625,-0.85938 0.5625,-1.6875 0.17188,-0.84375 0.17188,-1.8125 z"
       fill-rule="nonzero"
       id="path135" />
    <path
       fill="#000000"
       fill-opacity="0"
       d="M 458.10254,237.07086 H 520.0553"
       fill-rule="evenodd"
       id="path137" />
    <path
       stroke="#595959"
       stroke-width="2"
       stroke-linejoin="round"
       stroke-linecap="butt"
       d="m 458.10257,237.07086 h 49.95276"
       fill-rule="evenodd"
       id="path139" />
    <path
       fill="#595959"
       stroke="#595959"
       stroke-width="2"
       stroke-linecap="butt"
       d="m 508.05533,240.37433 9.0762,-3.30347 -9.0762,-3.30346 z"
       fill-rule="evenodd"
       id="path141" />
    <path
       fill="#000000"
       fill-opacity="0"
       d="M 519.4695,253.07086 H 458.68209"
       fill-rule="evenodd"
       id="path143" />
    <path
       stroke="#351c75"
       stroke-width="2"
       stroke-linejoin="round"
       stroke-linecap="butt"
       d="M 519.4694,253.07086 H 470.68202"
       fill-rule="evenodd"
       id="path145" />
    <path
       fill="#351c75"
       stroke="#351c75"
       stroke-width="2"
       stroke-linecap="butt"
       d="m 470.68204,249.7674 -9.0762,3.30347 9.0762,3.30346 z"
       fill-rule="evenodd"
       id="path147" />
    <path
       fill="#000000"
       fill-opacity="0"
       d="m 458.68768,217.35432 h 60.78741 v 19.71654 h -60.78741 z"
       fill-rule="evenodd"
       id="path149" />
    <path
       fill="#000000"
       d="m 468.63998,231.5326 v -0.48438 l 1.07812,-0.15625 v -6.76562 l -1.07812,-0.125 v -0.5 h 2.21875 l 2.6875,6.60937 2.54687,-6.60937 h 2.35938 v 0.5 l -1.09375,0.125 q -0.0156,0.76562 -0.0312,1.54687 0,0.76563 0,1.54688 v 0.59375 q 0,0.76562 0,1.54687 0.0156,0.76563 0.0312,1.54688 l 1.09375,0.14062 v 0.48438 h -3.26563 v -0.48438 l 1.01563,-0.14062 q 0.0156,-0.75 0.0156,-1.53125 0,-0.78125 0,-1.54688 v -3 l -2.59375,6.70313 h -0.60937 l -2.75,-6.70313 0.0781,2.28125 v 3.78125 l 0.98438,0.15625 v 0.48438 z m 13.3497,-5.29688 q -0.34375,0 -0.6875,0.1875 -0.34375,0.1875 -0.59375,0.60938 -0.23437,0.42187 -0.3125,1.10937 h 2.1875 q 0.4375,0 0.5625,-0.17187 0.14063,-0.1875 0.14063,-0.45313 0,-0.34375 -0.17188,-0.625 -0.17187,-0.29687 -0.46875,-0.46875 -0.29687,-0.1875 -0.65625,-0.1875 z m -0.0156,5.45313 q -1.21875,0 -1.95313,-0.78125 -0.71875,-0.79688 -0.71875,-2.17188 0,-0.92187 0.375,-1.60937 0.375,-0.6875 1,-1.0625 0.64063,-0.39063 1.375,-0.39063 0.625,0 1.125,0.28125 0.51563,0.28125 0.8125,0.79688 0.29688,0.5 0.29688,1.23437 0,0.20313 -0.0312,0.375 -0.0156,0.17188 -0.0469,0.29688 h -3.82812 q 0.0156,1.09375 0.54687,1.67187 0.53125,0.57813 1.39063,0.57813 0.57812,0 0.95312,-0.23438 0.39063,-0.23437 0.71875,-0.60937 l 0.28125,0.23437 q -0.32812,0.64063 -0.90625,1.01563 -0.57812,0.375 -1.39062,0.375 z m 3.38565,-0.15625 v -0.4375 l 0.89062,-0.15625 q 0,-0.46875 0,-0.98438 0.0156,-0.53125 0.0156,-0.9375 v -0.57812 q 0,-0.5 -0.0156,-0.8125 0,-0.32813 -0.0156,-0.6875 l -0.95313,-0.10938 v -0.42187 l 1.6875,-0.73438 0.17188,0.125 0.0937,0.96875 q 0.42187,-0.48437 0.98437,-0.78125 0.5625,-0.3125 1.125,-0.3125 0.5625,0 0.90625,0.26563 0.35938,0.26562 0.51563,0.85937 0.45312,-0.5625 1.01562,-0.84375 0.5625,-0.28125 1.15625,-0.28125 0.73438,0 1.125,0.5 0.40625,0.48438 0.40625,1.60938 v 1.23437 q 0,0.40625 0,0.9375 0.0156,0.51563 0.0312,0.98438 l 0.84375,0.15625 v 0.4375 h -2.78125 v -0.4375 l 0.875,-0.15625 q 0.0156,-0.45313 0.0156,-0.98438 0.0156,-0.53125 0.0156,-0.9375 v -1.04687 q 0,-0.84375 -0.25,-1.125 -0.23437,-0.29688 -0.76562,-0.29688 -0.35938,0 -0.75,0.17188 -0.39063,0.15625 -0.85938,0.57812 0.0156,0.125 0.0156,0.28125 0.0156,0.15625 0.0156,0.3125 v 1.125 q 0,0.40625 0,0.9375 0.0156,0.51563 0.0312,0.98438 l 0.82813,0.15625 v 0.4375 h -2.78125 v -0.4375 l 0.89062,-0.15625 q 0.0156,-0.45313 0.0156,-0.98438 0,-0.53125 0,-0.9375 v -1.03125 q 0,-0.8125 -0.23438,-1.125 -0.21875,-0.3125 -0.73437,-0.3125 -0.42188,0 -0.79688,0.17188 -0.35937,0.15625 -0.8125,0.54687 v 1.75 q 0,0.39063 0,0.92188 0.0156,0.53125 0.0312,1 l 0.82813,0.15625 v 0.4375 z m 10.85894,-7.53125 v -0.5 h 5.96875 l 0.0937,2.125 h -0.6875 l -0.26562,-1.51563 h -2.82813 q 0,0.76563 -0.0156,1.53125 0,0.76563 0,1.51563 h 1.76562 l 0.17188,-1.14063 h 0.54687 v 2.82813 h -0.54687 l -0.15625,-1.125 h -1.78125 q 0,0.89062 0,1.6875 0.0156,0.78125 0.0156,1.53125 h 3.0625 l 0.26563,-1.54688 h 0.6875 l -0.0781,2.14063 h -6.21875 v -0.48438 l 1.09375,-0.14062 q 0.0312,-0.75 0.0312,-1.53125 0,-0.78125 0,-1.5625 v -0.59375 q 0,-0.78125 0,-1.54688 0,-0.78125 -0.0312,-1.54687 z m 10.25168,0.0625 h -0.73437 q 0,0.76562 -0.0156,1.5625 0,0.79687 0,1.59375 v 0.57812 h 0.79688 q 1.09375,0 1.54687,-0.53125 0.46875,-0.53125 0.46875,-1.375 0,-0.875 -0.5,-1.34375 -0.48437,-0.48437 -1.5625,-0.48437 z m -3.01562,-0.0625 v -0.5 h 3.21875 q 1.53125,0 2.28125,0.67187 0.76562,0.65625 0.76562,1.71875 0,0.67188 -0.34375,1.23438 -0.32812,0.5625 -1.0625,0.90625 -0.73437,0.32812 -1.96875,0.32812 h -0.625 q 0,0.65625 0,1.28125 0.0156,0.625 0.0156,1.26563 l 1.125,0.14062 v 0.48438 h -3.40625 v -0.48438 l 1.09375,-0.14062 q 0.0312,-0.75 0.0312,-1.53125 0,-0.78125 0,-1.5625 v -0.59375 q 0,-0.78125 0,-1.54688 0,-0.78125 -0.0312,-1.54687 z"
       fill-rule="nonzero"
       id="path151" />
    <path
       fill="#000000"
       fill-opacity="0"
       d="m 458.68768,253.07086 h 60.78741 v 19.71655 h -60.78741 z"
       fill-rule="evenodd"
       id="path153" />
    <path
       fill="#000000"
       d="m 467.0511,263.9054 q 0,0.96875 0.15625,1.8125 0.17188,0.82812 0.57813,1.6875 0.40625,0.85937 1.10937,1.875 l -0.3125,0.26562 q -1.26562,-1.1875 -1.89062,-2.57812 -0.60938,-1.40625 -0.60938,-3.0625 0,-1.64063 0.60938,-3.03125 0.625,-1.40625 1.89062,-2.59375 l 0.3125,0.26562 q -0.70312,1.01563 -1.10937,1.875 -0.40625,0.85938 -0.57813,1.70313 -0.15625,0.82812 -0.15625,1.78125 z"
       fill-rule="nonzero"
       id="path155" />
    <path
       fill="#000000"
       d="m 474.8535,263.0304 q 0.73437,0.20312 1.20312,0.75 0.48438,0.54687 0.48438,1.32812 0,1.03125 -0.9375,1.59375 -0.9375,0.54688 -2.3125,0.54688 h -3.57813 q -0.20312,0 -0.20312,-0.23438 0,-0.20312 0.39062,-0.20312 0.42188,0 0.5625,-0.125 0.15625,-0.125 0.15625,-0.53125 v -5.6875 q 0,-0.4375 -0.1875,-0.53125 -0.17187,-0.10938 -0.71875,-0.10938 -0.20312,0 -0.20312,-0.23437 0,-0.21875 0.20312,-0.21875 h 3.57813 q 2.8125,0 2.8125,2.01562 0,1.01563 -1.25,1.64063 z m 0.8125,-1.64063 q 0,-1.32812 -1.53125,-1.51562 0.48437,0.5625 0.48437,1.51562 0,1.10938 -0.60937,1.59375 1.65625,-0.79687 1.65625,-1.59375 z m -1.48438,0 q 0,-0.6875 -0.29687,-1.125 -0.28125,-0.4375 -0.82813,-0.4375 -0.25,0 -0.4375,0.125 -0.1875,0.10938 -0.1875,0.29688 v 2.70312 q 0.875,0 1.3125,-0.32812 0.4375,-0.34375 0.4375,-1.23438 z m 1.92188,3.71875 q 0,-0.73437 -0.46875,-1.125 -0.46875,-0.40625 -1.28125,-0.64062 0.625,0.46875 0.625,1.76562 0,0.98438 -0.48438,1.5625 1.60938,-0.40625 1.60938,-1.5625 z m -3.67188,1.26563 q 0,0.20312 0.1875,0.32812 0.1875,0.10938 0.4375,0.10938 1.48438,0 1.48438,-1.70313 0,-0.89062 -0.32813,-1.29687 -0.32812,-0.42188 -1.15625,-0.42188 h -0.625 z m -0.3125,-6.54688 h -1.1875 q 0.125,0.21875 0.125,0.64063 v 5.6875 q 0,0.42187 -0.125,0.65625 h 1.1875 q -0.125,-0.20313 -0.125,-0.4375 v -6.125 q 0,-0.21875 0.125,-0.42188 z"
       fill-rule="nonzero"
       id="path157" />
    <path
       fill="#000000"
       d="m 479.45178,266.9054 q 0,0.71875 -0.34375,1.32812 -0.34375,0.60938 -0.875,1.04688 -0.53125,0.4375 -1.10938,0.65625 l -0.15625,-0.40625 q 0.60938,-0.3125 1.07813,-0.76563 0.46875,-0.4375 0.6875,-1.10937 l -0.45313,-0.34375 q -0.23437,-0.1875 -0.34375,-0.40625 -0.10937,-0.23438 -0.10937,-0.45313 0,-0.3125 0.1875,-0.53125 0.1875,-0.23437 0.5625,-0.23437 0.15625,0 0.32812,0.0781 0.1875,0.0625 0.40625,0.26563 0.0781,0.23437 0.10938,0.45312 0.0312,0.20313 0.0312,0.42188 z m 12.19229,-7.1875 v -0.5 h 2.71875 v 0.5 l -1.01562,0.14062 -2.01563,7.46875 h -0.51562 l -2.07813,-6.20312 -1.95312,6.20312 h -0.51563 l -2.17187,-7.5 -0.98438,-0.10937 v -0.5 h 3.25 v 0.5 l -1.09375,0.125 1.46875,5.51562 1.82813,-5.5 -1.20313,-0.14062 v -0.5 h 3.26563 v 0.5 l -1.21875,0.14062 1.79687,5.54688 1.51563,-5.53125 z m 3.18472,7.53125 v -0.4375 l 0.90625,-0.15625 q 0,-0.45313 0,-0.98438 0.0156,-0.53125 0.0156,-0.9375 v -5.26562 l -0.98438,-0.125 v -0.42188 l 1.84375,-0.54687 0.15625,0.10937 -0.0469,1.70313 v 2.125 q 0.4375,-0.46875 0.89062,-0.6875 0.46875,-0.23438 0.96875,-0.23438 0.625,0 1.14063,0.35938 0.51562,0.34375 0.82812,1 0.3125,0.65625 0.3125,1.59375 0,0.92187 -0.32812,1.625 -0.32813,0.6875 -0.89063,1.0625 -0.54687,0.375 -1.26562,0.375 -0.42188,0 -0.84375,-0.17188 -0.40625,-0.1875 -0.8125,-0.6875 l -0.0937,0.82813 z m 3.42188,-5.17188 q -0.28125,0 -0.64063,0.14063 -0.35937,0.14062 -0.84375,0.5625 v 3.28125 q 0.35938,0.34375 0.71875,0.5 0.375,0.15625 0.70313,0.15625 0.64062,0 1.10937,-0.54688 0.46875,-0.5625 0.46875,-1.73437 0,-1.14063 -0.42187,-1.75 -0.42188,-0.60938 -1.09375,-0.60938 z m 6.76214,-2.29687 h -1.04687 q 0,0.78125 -0.0156,1.57812 0,0.78125 0,1.625 h 0.92188 q 0.96875,0 1.42187,-0.46875 0.46875,-0.46875 0.46875,-1.1875 0,-0.75 -0.42187,-1.14062 -0.40625,-0.40625 -1.32813,-0.40625 z m -3.32812,-0.0625 v -0.5 h 3.35937 q 1.375,0 2.14063,0.5625 0.76562,0.54687 0.76562,1.54687 0,0.6875 -0.5,1.26563 -0.5,0.57812 -1.51562,0.75 0.53125,0.10937 0.875,0.46875 0.34375,0.35937 0.54687,1.0625 l 0.51563,1.78125 0.92187,0.10937 v 0.48438 q -0.17187,0.0469 -0.40625,0.0781 -0.21875,0.0469 -0.48437,0.0469 -0.5625,0 -0.85938,-0.17188 -0.28125,-0.17187 -0.375,-0.59375 l -0.48437,-1.92187 q -0.10938,-0.5 -0.3125,-0.73438 -0.20313,-0.25 -0.53125,-0.32812 -0.3125,-0.0937 -0.79688,-0.0937 h -0.59375 q 0,0.85937 0,1.625 0.0156,0.75 0.0156,1.46875 l 1.10937,0.14062 v 0.48438 h -3.39062 v -0.48438 l 1.09375,-0.14062 q 0.0312,-0.75 0.0312,-1.53125 0,-0.78125 0,-1.5625 v -0.59375 q 0,-0.78125 0,-1.54688 0,-0.78125 -0.0312,-1.54687 z m 9.42145,4.1875 q 0,-0.95313 -0.17188,-1.78125 -0.15625,-0.84375 -0.5625,-1.70313 -0.39062,-0.85937 -1.10937,-1.875 l 0.3125,-0.26562 q 1.28125,1.1875 1.89062,2.59375 0.60938,1.39062 0.60938,3.03125 0,1.65625 -0.60938,3.0625 -0.60937,1.39062 -1.89062,2.57812 l -0.3125,-0.26562 q 0.71875,-1.01563 1.10937,-1.875 0.40625,-0.85938 0.5625,-1.6875 0.17188,-0.84375 0.17188,-1.8125 z"
       fill-rule="nonzero"
       id="path159" />
  </g>
</svg>
