<?xml version="1.0" encoding="UTF-8" standalone="no"?>
<svg
   xmlns:dc="http://purl.org/dc/elements/1.1/"
   xmlns:cc="http://creativecommons.org/ns#"
   xmlns:rdf="http://www.w3.org/1999/02/22-rdf-syntax-ns#"
   xmlns:svg="http://www.w3.org/2000/svg"
   xmlns="http://www.w3.org/2000/svg"
   style="fill:none;stroke:none;stroke-linecap:square;stroke-miterlimit:10"
   height="206.92126"
   width="466.60629"
   id="svg223"
   stroke-miterlimit="10"
   viewBox="0 0 466.60629 206.92126"
   version="1.1">
  <metadata
     id="metadata229">
    <rdf:RDF>
      <cc:Work
         rdf:about="">
        <dc:format>image/svg+xml</dc:format>
        <dc:type
           rdf:resource="http://purl.org/dc/dcmitype/StillImage" />
        <dc:title></dc:title>
      </cc:Work>
    </rdf:RDF>
  </metadata>
  <defs
     id="defs227" />
  <clipPath
     id="g2fd53e73fb8_0_0.0">
    <path
       style="clip-rule:nonzero"
       id="path2"
       d="M 0,0 H 960 V 540 H 0 Z" />
  </clipPath>
  <g
     transform="translate(-39.490814,-17.636465)"
     id="g221"
     clip-path="url(#g2fd53e73fb8_0_0.0)">
    <path
       style="fill:#000000;fill-opacity:0;fill-rule:evenodd"
       id="path7"
       d="M 39.990814,18.136465 H 505.59711 V 224.05772 H 39.990814 Z" />
    <path
       style="fill:#d9d9d9;fill-rule:evenodd"
       id="path11"
       d="m 82.4725,22.330074 h 52.7874 V 48.975742 H 82.4725 Z" />
    <path
       style="fill-rule:evenodd;stroke:#000000;stroke-width:1;stroke-linecap:butt;stroke-linejoin:round"
       id="path13"
       d="m 82.4725,22.330074 h 52.7874 V 48.975742 H 82.4725 Z" />
    <path
       style="fill:#000000;fill-rule:nonzero"
       id="path15"
       d="m 104.93732,31.466034 v -0.65625 h 7.96875 l 0.10938,2.828125 h -0.90625 l -0.35938,-2.03125 h -3.75 q -0.0156,1.03125 -0.0312,2.0625 0,1.015625 0,2 h 2.46875 l 0.23438,-1.515625 h 0.73437 v 3.9375 h -0.73437 l -0.23438,-1.671875 h -2.46875 q 0,1.1875 0,2.234375 0.0156,1.03125 0.0312,2.03125 l 1.48438,0.171875 v 0.65625 h -4.54688 v -0.65625 l 1.46875,-0.171875 q 0.0312,-1.015625 0.0312,-2.046875 0,-1.046875 0,-2.078125 v -0.796875 q 0,-1.03125 0,-2.0625 0,-1.03125 -0.0312,-2.0625 z" />
    <path
       style="fill:#d9d9d9;fill-rule:evenodd"
       id="path17"
       d="m 164.43645,22.331396 h 52.7874 v 26.64567 h -52.7874 z" />
    <path
       style="fill-rule:evenodd;stroke:#000000;stroke-width:1;stroke-linecap:butt;stroke-linejoin:round"
       id="path19"
       d="m 164.43645,22.331396 h 52.7874 v 26.64567 h -52.7874 z" />
    <path
       style="fill:#000000;fill-rule:nonzero"
       id="path21"
       d="m 188.8845,36.35798 q 0,1.171875 0,2.265625 0.0156,1.078125 0.0312,2.140625 h 1.26562 q 1.84375,0 2.82813,-1.203125 1,-1.21875 1,-3.390625 0,-2.25 -0.98438,-3.4375 -0.96875,-1.187498 -2.70312,-1.187498 h -1.40625 q -0.0156,1.031248 -0.0312,2.093748 0,1.0625 0,2.125 z m -3.03125,-4.890623 v -0.65625 h 4.71875 q 1.53125,0 2.70312,0.625 1.17188,0.609373 1.82813,1.796873 0.65625,1.1875 0.65625,2.9375 0,1.734375 -0.71875,2.921875 -0.71875,1.1875 -1.96875,1.8125 -1.23438,0.609375 -2.79688,0.609375 h -4.42187 v -0.65625 l 1.46875,-0.171875 q 0.0312,-1.03125 0.0312,-2.09375 0,-1.0625 0,-2.234375 v -0.59375 q 0,-1.03125 0,-2.0625 0,-1.03125 -0.0312,-2.062498 z" />
    <path
       style="fill:#000000;fill-opacity:0;fill-rule:evenodd"
       id="path23"
       d="m 30.036356,57.92126 h 52.8189 v 20.724407 h -52.8189 z" />
    <path
       style="fill:#000000;fill-rule:nonzero"
       id="path25"
       d="m 51.926296,66.18409 0.140625,-2.84375 h 8.765625 l 0.125,2.84375 h -0.921875 l -0.359375,-2.046875 h -2.453125 q -0.01563,1.03125 -0.03125,2.078125 0,1.03125 0,2.078125 v 0.796875 q 0,1.015625 0,2.046875 0.01563,1.03125 0.03125,2.078125 l 1.640625,0.171875 v 0.65625 h -4.828125 v -0.65625 l 1.625,-0.171875 q 0.03125,-1.03125 0.03125,-2.0625 0,-1.03125 0,-2.0625 v -0.796875 q 0,-1.03125 0,-2.0625 0,-1.046875 -0.03125,-2.09375 h -2.453125 l -0.34375,2.046875 z" />
    <path
       style="fill:#f3f3f3;fill-rule:evenodd"
       id="path27"
       d="M 82.891685,57.917274 H 134.82869 V 78.641685 H 82.891685 Z" />
    <path
       style="fill-rule:evenodd;stroke:#000000;stroke-width:1;stroke-linecap:butt;stroke-linejoin:round"
       id="path29"
       d="M 82.891685,57.917274 H 134.82869 V 78.641685 H 82.891685 Z" />
    <path
       style="fill:#000000;fill-rule:nonzero"
       id="path31"
       d="m 103.11799,64.15635 v -0.609371 h 4.15625 v 0.609371 l -1.35937,0.15625 q -0.0156,0.921875 -0.0156,1.875 0,0.953125 0,1.90625 v 0.71875 q 0,0.9375 0,1.890625 0,0.9375 0.0156,1.890625 l 1.35937,0.171875 v 0.59375 h -4.15625 v -0.59375 l 1.35938,-0.171875 q 0.0156,-0.921875 0.0156,-1.875 0,-0.953125 0,-1.90625 v -0.71875 q 0,-0.953125 0,-1.890625 0,-0.953125 -0.0156,-1.890625 z m 6.04686,0.390625 3.01562,-0.765621 0.20313,0.140625 -0.0625,2.093746 v 4.25 q 0,0.546875 0,1.109375 0.0156,0.546875 0.0312,1.109375 l 2.07812,0.34375 v 0.53125 h -5.4375 v -0.53125 l 2.07813,-0.34375 q 0.0156,-0.5625 0.0156,-1.109375 0.0156,-0.5625 0.0156,-1.109375 v -5.28125 l -1.9375,0.171875 z" />
    <path
       style="fill:#000000;fill-opacity:0;fill-rule:evenodd"
       id="path33"
       d="m 217.22385,97.03428 29.25984,28.7559" />
    <path
       style="fill-rule:evenodd;stroke:#000000;stroke-width:1;stroke-linecap:butt;stroke-linejoin:round"
       id="path35"
       d="m 217.22383,97.03427 24.98053,24.55029" />
    <path
       style="fill:#000000;fill-rule:evenodd;stroke:#000000;stroke-width:1;stroke-linecap:butt"
       id="path37"
       d="m 241.04659,122.7626 4.39442,2.00288 -2.0789,-4.35898 z" />
    <path
       style="fill:#000000;fill-opacity:0;fill-rule:evenodd"
       id="path39"
       d="m 134.82869,68.27948 29.60629,28.755905" />
    <path
       style="fill-rule:evenodd;stroke:#000000;stroke-width:1;stroke-linecap:butt;stroke-linejoin:round"
       id="path41"
       d="m 134.82869,68.27948 25.30229,24.575531" />
    <path
       style="fill:#000000;fill-rule:evenodd;stroke:#000000;stroke-width:1;stroke-linecap:butt"
       id="path43"
       d="m 158.98018,94.03985 4.40614,1.976982 -2.10452,-4.346672 z" />
    <path
       style="fill:#000000;fill-opacity:0;fill-rule:evenodd"
       id="path45"
       d="m 299.18777,125.78482 29.25986,28.7559" />
    <path
       style="fill-rule:evenodd;stroke:#000000;stroke-width:1;stroke-linecap:butt;stroke-linejoin:round"
       id="path47"
       d="M 299.18777,125.78482 324.1683,150.3351" />
    <path
       style="fill:#000000;fill-rule:evenodd;stroke:#000000;stroke-width:1;stroke-linecap:butt"
       id="path49"
       d="m 323.01053,151.51315 4.39444,2.00287 -2.07892,-4.35898 z" />
    <path
       style="fill:#000000;fill-opacity:0;fill-rule:evenodd"
       id="path51"
       d="m 328.3953,188.0937 h 52.81888 v 38.26772 H 328.3953 Z" />
    <path
       style="fill:#000000;fill-rule:nonzero"
       id="path53"
       d="m 349.60086,218.18631 q -0.51563,0 -0.875,-0.35938 -0.34375,-0.35937 -0.34375,-0.85937 0,-0.53125 0.34375,-0.89063 0.35937,-0.35937 0.875,-0.35937 0.53125,0 0.875,0.35937 0.35937,0.35938 0.35937,0.89063 0,0.5 -0.35937,0.85937 -0.34375,0.35938 -0.875,0.35938 z m 5.20312,0 q -0.51562,0 -0.875,-0.35938 -0.34375,-0.35937 -0.34375,-0.85937 0,-0.53125 0.34375,-0.89063 0.35938,-0.35937 0.875,-0.35937 0.53125,0 0.875,0.35937 0.35938,0.35938 0.35938,0.89063 0,0.5 -0.35938,0.85937 -0.34375,0.35938 -0.875,0.35938 z m 5.1875,0 q -0.51562,0 -0.875,-0.35938 -0.34375,-0.35937 -0.34375,-0.85937 0,-0.53125 0.34375,-0.89063 0.35938,-0.35937 0.875,-0.35937 0.53125,0 0.875,0.35937 0.35938,0.35938 0.35938,0.89063 0,0.5 -0.35938,0.85937 -0.34375,0.35938 -0.875,0.35938 z" />
    <path
       style="fill:#000000;fill-opacity:0;fill-rule:evenodd"
       id="path55"
       d="m 30.036356,86.67191 h 52.8189 v 20.72441 h -52.8189 z" />
    <path
       style="fill:#000000;fill-rule:nonzero"
       id="path57"
       d="m 43.67828,94.934746 0.140625,-2.84375 h 8.765625 l 0.125,2.84375 H 51.787655 L 51.42828,92.887871 h -2.453125 q -0.01563,1.03125 -0.03125,2.078125 0,1.03125 0,2.078125 v 0.796875 q 0,1.015625 0,2.046875 0.01563,1.031249 0.03125,2.078129 l 1.640625,0.17187 v 0.65625 h -4.828125 v -0.65625 l 1.625,-0.17187 q 0.03125,-1.03125 0.03125,-2.062504 0,-1.03125 0,-2.0625 v -0.796875 q 0,-1.03125 0,-2.0625 0,-1.046875 -0.03125,-2.09375 H 44.95953 l -0.34375,2.046875 z m 13.117142,6.625004 v -3.578129 h -3.296875 v -0.921875 h 3.296875 v -3.5 h 0.96875 v 3.5 h 3.296875 v 0.921875 h -3.296875 v 3.578129 z m 6.089764,-8.375004 3.296875,-0.859375 0.21875,0.171875 -0.0625,2.28125 v 4.640625 q 0,0.593749 0,1.203129 0.01563,0.60937 0.03125,1.21875 l 2.28125,0.375 v 0.57812 h -5.9375 V 102.216 l 2.25,-0.375 q 0.01563,-0.60938 0.01563,-1.21875 0.01563,-0.60938 0.01563,-1.203129 v -5.765625 l -2.109375,0.1875 z" />
    <path
       style="fill:#f3f3f3;fill-rule:evenodd"
       id="path59"
       d="m 164.43645,86.67207 h 52.7874 v 20.72441 h -52.7874 z" />
    <path
       style="fill-rule:evenodd;stroke:#000000;stroke-width:1;stroke-linecap:butt;stroke-linejoin:round"
       id="path61"
       d="m 164.43645,86.67207 h 52.7874 v 20.72441 h -52.7874 z" />
    <path
       style="fill:#000000;fill-rule:nonzero"
       id="path63"
       d="m 185.08795,92.911156 v -0.609375 h 4.15625 v 0.609375 l -1.35938,0.15625 q -0.0156,0.921875 -0.0156,1.875 0,0.953125 0,1.90625 v 0.71875 q 0,0.9375 0,1.890625 0,0.937499 0.0156,1.890629 l 1.35938,0.17187 v 0.59375 h -4.15625 v -0.59375 l 1.35937,-0.17187 q 0.0156,-0.92188 0.0156,-1.875004 0,-0.953125 0,-1.90625 v -0.71875 q 0,-0.953125 0,-1.890625 0,-0.953125 -0.0156,-1.890625 z m 6.04686,0.390625 3.01562,-0.765625 0.20313,0.140625 -0.0625,2.09375 v 4.25 q 0,0.546875 0,1.109379 0.0156,0.54687 0.0312,1.10937 l 2.07812,0.34375 v 0.53125 h -5.4375 v -0.53125 l 2.07813,-0.34375 q 0.0156,-0.5625 0.0156,-1.10937 0.0156,-0.562504 0.0156,-1.109379 v -5.28125 l -1.9375,0.171875 z" />
    <path
       style="fill:#d9d9d9;fill-rule:evenodd"
       id="path65"
       d="m 246.40039,22.330074 h 52.78738 v 26.645668 h -52.78738 z" />
    <path
       style="fill-rule:evenodd;stroke:#000000;stroke-width:1;stroke-linecap:butt;stroke-linejoin:round"
       id="path67"
       d="m 246.40039,22.330074 h 52.78738 v 26.645668 h -52.78738 z" />
    <path
       style="fill:#000000;fill-rule:nonzero"
       id="path69"
       d="m 268.6732,31.466034 v -0.65625 h 7.96875 l 0.10937,2.828125 h -0.90625 l -0.35937,-2.03125 h -3.75 q -0.0156,1.03125 -0.0312,2.0625 0,1.015625 0,2 h 2.34375 l 0.21875,-1.515625 h 0.75 v 3.78125 h -0.75 l -0.20313,-1.515625 h -2.35937 q 0,1.203125 0,2.25 0.0156,1.046875 0.0312,2.046875 h 4.07812 l 0.34375,-2.046875 h 0.92188 l -0.125,2.84375 h -8.28125 v -0.65625 l 1.46875,-0.171875 q 0.0312,-1.015625 0.0312,-2.046875 0,-1.046875 0,-2.078125 v -0.796875 q 0,-1.03125 0,-2.0625 0,-1.03125 -0.0312,-2.0625 z" />
    <path
       style="fill:#d9d9d9;fill-rule:evenodd"
       id="path71"
       d="m 328.36432,22.331396 h 52.78742 v 26.64567 h -52.78742 z" />
    <path
       style="fill-rule:evenodd;stroke:#000000;stroke-width:1;stroke-linecap:butt;stroke-linejoin:round"
       id="path73"
       d="m 328.36432,22.331396 h 52.78742 v 26.64567 h -52.78742 z" />
    <path
       style="fill:#000000;fill-rule:nonzero"
       id="path75"
       d="m 348.16702,41.51423 v -0.65625 l 1.4375,-0.203125 v -9.015623 l -1.4375,-0.171875 v -0.65625 h 2.95312 l 3.59375,8.796873 3.39063,-8.796873 h 3.15625 v 0.65625 l -1.48438,0.171875 q -0.0156,1.015623 -0.0312,2.062498 0,1.03125 0,2.0625 v 0.796875 q 0,1.015625 0,2.046875 0.0156,1.03125 0.0312,2.078125 l 1.48438,0.171875 v 0.65625 h -4.35938 v -0.65625 l 1.34375,-0.171875 q 0.0312,-1.015625 0.0312,-2.046875 0,-1.046875 0,-2.0625 v -3.984375 l -3.46875,8.921875 h -0.79687 l -3.67188,-8.921875 0.0937,3.015625 v 5.046875 l 1.3125,0.203125 v 0.65625 z" />
    <path
       style="fill:#d9d9d9;fill-rule:evenodd"
       id="path77"
       d="m 410.32828,22.331396 h 52.78738 v 26.64567 h -52.78738 z" />
    <path
       style="fill-rule:evenodd;stroke:#000000;stroke-width:1;stroke-linecap:butt;stroke-linejoin:round"
       id="path79"
       d="m 410.32828,22.331396 h 52.78738 v 26.64567 h -52.78738 z" />
    <path
       style="fill:#000000;fill-rule:nonzero"
       id="path81"
       d="m 440.6353,31.467356 v -0.65625 h 3.64062 v 0.65625 l -1.34375,0.1875 -2.70312,9.968748 h -0.6875 l -2.76563,-8.28125 -2.60937,8.28125 h -0.6875 l -2.89063,-9.999998 -1.32812,-0.15625 v -0.65625 h 4.35937 v 0.65625 l -1.46875,0.171875 1.96875,7.343748 2.42188,-7.328123 -1.59375,-0.1875 v -0.65625 h 4.34375 v 0.65625 l -1.60938,0.1875 2.39063,7.406248 2.03125,-7.390623 z" />
    <path
       style="fill:#f3f3f3;fill-rule:evenodd"
       id="path83"
       d="m 246.49487,115.42261 h 52.6929 v 20.72441 h -52.6929 z" />
    <path
       style="fill-rule:evenodd;stroke:#000000;stroke-width:1;stroke-linecap:butt;stroke-linejoin:round"
       id="path85"
       d="m 246.49487,115.42261 h 52.6929 v 20.72441 h -52.6929 z" />
    <path
       style="fill:#000000;fill-rule:nonzero"
       id="path87"
       d="m 267.09912,121.66169 v -0.60938 h 4.15625 v 0.60938 l -1.35937,0.15625 q -0.0156,0.92187 -0.0156,1.875 0,0.95312 0,1.90625 v 0.71875 q 0,0.9375 0,1.89063 0,0.9375 0.0156,1.89063 l 1.35937,0.17187 v 0.59375 h -4.15625 v -0.59375 l 1.35938,-0.17187 q 0.0156,-0.92188 0.0156,-1.875 0,-0.95314 0,-1.90626 v -0.71875 q 0,-0.95313 0,-1.89063 0,-0.95312 -0.0156,-1.89062 z m 6.04688,0.39062 3.01562,-0.76562 0.20313,0.14062 -0.0625,2.09375 v 4.25 q 0,0.54689 0,1.10939 0.0156,0.54687 0.0312,1.10937 l 2.07812,0.34375 v 0.53125 h -5.4375 v -0.53125 l 2.07813,-0.34375 q 0.0156,-0.5625 0.0156,-1.10937 0.0156,-0.5625 0.0156,-1.10939 v -5.28125 l -1.9375,0.17188 z" />
    <path
       style="fill:#000000;fill-opacity:0;fill-rule:evenodd"
       id="path89"
       d="m 30.036356,115.42257 h 52.8189 v 20.72442 h -52.8189 z" />
    <path
       style="fill:#000000;fill-rule:nonzero"
       id="path91"
       d="m 43.67828,123.6854 0.140625,-2.84375 h 8.765625 l 0.125,2.84375 h -0.921875 l -0.359375,-2.04687 h -2.453125 q -0.01563,1.03125 -0.03125,2.07812 0,1.03125 0,2.07813 v 0.79687 q 0,1.01563 0,2.04688 0.01563,1.03125 0.03125,2.07813 l 1.640625,0.17187 v 0.65625 h -4.828125 v -0.65625 l 1.625,-0.17187 q 0.03125,-1.03125 0.03125,-2.0625 0,-1.03126 0,-2.06251 v -0.79688 q 0,-1.03125 0,-2.0625 0,-1.04687 -0.03125,-2.09375 H 44.95953 l -0.34375,2.04688 z m 13.117142,6.62501 v -3.57814 h -3.296875 v -0.92187 h 3.296875 v -3.5 h 0.96875 v 3.5 h 3.296875 v 0.92187 h -3.296875 v 3.57814 z m 5.511639,1.23437 v -1.04687 q 0.640625,-0.60938 1.234375,-1.21875 0.609375,-0.625 1.125,-1.17188 1.203125,-1.26563 1.75,-2.28126 0.5625,-1.03125 0.5625,-1.96875 0,-0.98437 -0.515625,-1.5625 -0.515625,-0.57812 -1.40625,-0.57812 -0.15625,0 -0.359375,0.0156 -0.1875,0.0156 -0.421875,0.0625 l -0.296875,1.10938 q -0.15625,0.59375 -0.375,0.84375 -0.21875,0.25 -0.5625,0.25 -0.515625,0 -0.8125,-0.51563 0.09375,-0.84375 0.5625,-1.39062 0.46875,-0.5625 1.171875,-0.82813 0.703125,-0.26562 1.5,-0.26562 1.546875,0 2.25,0.76562 0.71875,0.75 0.71875,1.95313 0,0.70312 -0.28125,1.375 -0.28125,0.65625 -0.96875,1.48437 -0.6875,0.82813 -1.921875,2.01564 -0.328125,0.3125 -0.78125,0.75 -0.453125,0.42187 -0.953125,0.89062 h 5.359375 v 1.3125 z" />
    <path
       style="fill:#000000;fill-opacity:0;fill-rule:evenodd"
       id="path93"
       d="m 135.2599,35.65291 h 29.16536" />
    <path
       style="fill-rule:evenodd;stroke:#000000;stroke-width:1;stroke-linecap:butt;stroke-linejoin:round"
       id="path95"
       d="m 135.2599,35.65291 h 23.16536" />
    <path
       style="fill:#000000;fill-rule:evenodd;stroke:#000000;stroke-width:1;stroke-linecap:butt"
       id="path97"
       d="m 158.42526,37.30464 4.5381,-1.651733 -4.5381,-1.651734 z" />
    <path
       style="fill:#000000;fill-opacity:0;fill-rule:evenodd"
       id="path99"
       d="m 217.22385,35.654232 h 29.16536" />
    <path
       style="fill-rule:evenodd;stroke:#000000;stroke-width:1;stroke-linecap:butt;stroke-linejoin:round"
       id="path101"
       d="m 217.22383,35.654232 h 23.16536" />
    <path
       style="fill:#000000;fill-rule:evenodd;stroke:#000000;stroke-width:1;stroke-linecap:butt"
       id="path103"
       d="m 240.38919,37.30596 4.5381,-1.65173 -4.5381,-1.651733 z" />
    <path
       style="fill:#000000;fill-opacity:0;fill-rule:evenodd"
       id="path105"
       d="m 299.18777,35.65291 h 29.16537" />
    <path
       style="fill-rule:evenodd;stroke:#000000;stroke-width:1;stroke-linecap:butt;stroke-linejoin:round"
       id="path107"
       d="m 299.18777,35.65291 h 23.16537" />
    <path
       style="fill:#000000;fill-rule:evenodd;stroke:#000000;stroke-width:1;stroke-linecap:butt"
       id="path109"
       d="m 322.35315,37.30464 4.53809,-1.651733 -4.53809,-1.651734 z" />
    <path
       style="fill:#000000;fill-opacity:0;fill-rule:evenodd"
       id="path111"
       d="m 381.15173,35.654232 h 29.16534" />
    <path
       style="fill-rule:evenodd;stroke:#000000;stroke-width:1;stroke-linecap:butt;stroke-linejoin:round"
       id="path113"
       d="M 381.15173,35.654232 H 404.3171" />
    <path
       style="fill:#000000;fill-rule:evenodd;stroke:#000000;stroke-width:1;stroke-linecap:butt"
       id="path115"
       d="m 404.3171,37.30596 4.53809,-1.65173 -4.53809,-1.651733 z" />
    <path
       style="fill:#f3f3f3;fill-rule:evenodd"
       id="path117"
       d="m 328.4588,144.17326 h 52.69293 v 20.72441 H 328.4588 Z" />
    <path
       style="fill-rule:evenodd;stroke:#000000;stroke-width:1;stroke-linecap:butt;stroke-linejoin:round"
       id="path119"
       d="m 328.4588,144.17326 h 52.69293 v 20.72441 H 328.4588 Z" />
    <path
       style="fill:#000000;fill-rule:nonzero"
       id="path121"
       d="m 349.06308,150.41235 v -0.60938 h 4.15625 v 0.60938 l -1.35937,0.15625 q -0.0156,0.92187 -0.0156,1.875 0,0.95312 0,1.90625 v 0.71875 q 0,0.9375 0,1.89062 0,0.9375 0.0156,1.89063 l 1.35937,0.17187 v 0.59375 h -4.15625 v -0.59375 l 1.35938,-0.17187 q 0.0156,-0.92188 0.0156,-1.875 0,-0.95313 0,-1.90625 v -0.71875 q 0,-0.95313 0,-1.89063 0,-0.95312 -0.0156,-1.89062 z m 6.04684,0.39062 3.01563,-0.76562 0.20312,0.14062 -0.0625,2.09375 v 4.25 q 0,0.54688 0,1.10938 0.0156,0.54687 0.0312,1.10937 l 2.07813,0.34375 v 0.53125 h -5.4375 v -0.53125 l 2.07812,-0.34375 q 0.0156,-0.5625 0.0156,-1.10937 0.0156,-0.5625 0.0156,-1.10938 v -5.28125 l -1.9375,0.17188 z" />
    <path
       style="fill:#000000;fill-opacity:0;fill-rule:evenodd"
       id="path123"
       d="m 30.036356,144.17323 h 52.8189 v 20.72441 h -52.8189 z" />
    <path
       style="fill:#000000;fill-rule:nonzero"
       id="path125"
       d="m 43.67828,152.43607 0.140625,-2.84375 h 8.765625 l 0.125,2.84375 h -0.921875 l -0.359375,-2.04688 h -2.453125 q -0.01563,1.03125 -0.03125,2.07813 0,1.03125 0,2.07812 v 0.79688 q 0,1.01562 0,2.04687 0.01563,1.03125 0.03125,2.07813 l 1.640625,0.17187 v 0.65625 h -4.828125 v -0.65625 l 1.625,-0.17187 q 0.03125,-1.03125 0.03125,-2.0625 0,-1.03125 0,-2.0625 v -0.79688 q 0,-1.03125 0,-2.0625 0,-1.04687 -0.03125,-2.09375 H 44.95953 l -0.34375,2.04688 z m 13.117142,6.625 v -3.57813 h -3.296875 v -0.92187 h 3.296875 v -3.5 h 0.96875 v 3.5 h 3.296875 v 0.92187 h -3.296875 v 3.57813 z m 7.449139,-4.60938 h 0.640625 q 1.078125,0 1.671875,-0.54687 0.609375,-0.5625 0.609375,-1.59375 0,-0.875 -0.5,-1.35938 -0.5,-0.48437 -1.453125,-0.48437 -0.15625,0 -0.328125,0.0156 -0.171875,0.0156 -0.40625,0.0469 l -0.203125,0.8125 q -0.125,0.48437 -0.328125,0.73437 -0.1875,0.25 -0.59375,0.25 -0.265625,0 -0.46875,-0.125 -0.203125,-0.125 -0.3125,-0.4375 0.21875,-1 1.015625,-1.5 0.796875,-0.51562 1.90625,-0.51562 1.40625,0 2.234375,0.70312 0.828125,0.6875 0.828125,1.8125 0,0.85938 -0.546875,1.54688 -0.546875,0.67187 -1.546875,1.03125 1.234375,0.23437 1.828125,0.92187 0.59375,0.6875 0.59375,1.6875 0,0.85938 -0.453125,1.54688 -0.4375,0.6875 -1.25,1.09375 -0.796875,0.40625 -1.890625,0.40625 -1.15625,0 -2,-0.53125 -0.84375,-0.53125 -1.0625,-1.73438 0.265625,-0.53125 0.8125,-0.53125 0.421875,0 0.59375,0.28125 0.1875,0.26563 0.359375,0.875 l 0.203125,0.82813 q 0.265625,0.0625 0.484375,0.0781 0.234375,0.0156 0.40625,0.0156 1.1875,0 1.78125,-0.60938 0.59375,-0.625 0.59375,-1.6875 0,-1.04687 -0.609375,-1.64062 -0.609375,-0.59375 -1.84375,-0.59375 h -0.765625 z" />
    <path
       style="fill:#000000;fill-opacity:0;fill-rule:evenodd"
       id="path127"
       d="m 30.036356,172.92389 h 52.8189 v 20.72441 h -52.8189 z" />
    <path
       style="fill:#000000;fill-rule:nonzero"
       id="path129"
       d="m 43.67828,181.18672 0.140625,-2.84375 h 8.765625 l 0.125,2.84375 h -0.921875 l -0.359375,-2.04688 h -2.453125 q -0.01563,1.03125 -0.03125,2.07813 0,1.03125 0,2.07812 v 0.79688 q 0,1.01562 0,2.04687 0.01563,1.03125 0.03125,2.07813 l 1.640625,0.17187 v 0.65625 h -4.828125 v -0.65625 l 1.625,-0.17187 q 0.03125,-1.03125 0.03125,-2.0625 0,-1.03125 0,-2.0625 v -0.79688 q 0,-1.03125 0,-2.0625 0,-1.04687 -0.03125,-2.09375 H 44.95953 l -0.34375,2.04688 z m 13.117142,6.625 v -3.57813 h -3.296875 v -0.92187 h 3.296875 v -3.5 h 0.96875 v 3.5 h 3.296875 v 0.92187 h -3.296875 v 3.57813 z m 12.480389,-1.85938 h -1.6875 v 3.09375 h -1.328125 v -3.09375 H 61.91644 v -0.84375 l 4.749996,-6.54687 h 0.921875 v 6.39062 h 1.6875 z m -6.40625,-1 h 3.390625 v -4.71875 z" />
    <path
       style="fill:#f3f3f3;fill-rule:evenodd"
       id="path131"
       d="m 410.42276,172.92392 h 52.6929 v 20.72441 h -52.6929 z" />
    <path
       style="fill-rule:evenodd;stroke:#000000;stroke-width:1;stroke-linecap:butt;stroke-linejoin:round"
       id="path133"
       d="m 410.42276,172.92392 h 52.6929 v 20.72441 h -52.6929 z" />
    <path
       style="fill:#000000;fill-rule:nonzero"
       id="path135"
       d="m 431.027,179.16301 v -0.60937 h 4.15625 v 0.60937 l -1.35938,0.15625 q -0.0156,0.92188 -0.0156,1.875 0,0.95313 0,1.90625 v 0.71875 q 0,0.9375 0,1.89063 0,0.9375 0.0156,1.89062 l 1.35938,0.17188 v 0.59375 H 431.027 v -0.59375 l 1.35937,-0.17188 q 0.0156,-0.92187 0.0156,-1.875 0,-0.95312 0,-1.90625 v -0.71875 q 0,-0.95312 0,-1.89062 0,-0.95313 -0.0156,-1.89063 z m 6.04687,0.39063 3.01563,-0.76563 0.20312,0.14063 -0.0625,2.09375 v 4.25 q 0,0.54687 0,1.10937 0.0156,0.54688 0.0312,1.10938 l 2.07813,0.34375 v 0.53125 h -5.4375 v -0.53125 l 2.07812,-0.34375 q 0.0156,-0.5625 0.0156,-1.10938 0.0156,-0.5625 0.0156,-1.10937 v -5.28125 l -1.9375,0.17187 z" />
    <path
       style="fill:#000000;fill-opacity:0;fill-rule:evenodd"
       id="path137"
       d="m 381.15173,154.53548 29.25983,28.7559" />
    <path
       style="fill-rule:evenodd;stroke:#000000;stroke-width:1;stroke-linecap:butt;stroke-linejoin:round"
       id="path139"
       d="m 381.15173,154.53548 24.98053,24.55028" />
    <path
       style="fill:#000000;fill-rule:evenodd;stroke:#000000;stroke-width:1;stroke-linecap:butt"
       id="path141"
       d="m 404.9745,180.26381 4.39444,2.00287 -2.07892,-4.35898 z" />
    <path
       style="fill:#000000;fill-opacity:0;fill-rule:evenodd"
       id="path143"
       d="M 328.4588,154.53548 H 217.21472" />
    <path
       style="fill-rule:evenodd;stroke:#980000;stroke-width:1;stroke-linecap:butt;stroke-linejoin:round"
       id="path145"
       d="M 328.4588,154.53548 H 223.2147" />
    <path
       style="fill:#980000;fill-rule:evenodd;stroke:#980000;stroke-width:1;stroke-linecap:butt"
       id="path147"
       d="m 223.2147,152.88374 -4.5381,1.65173 4.5381,1.65174 z" />
    <path
       style="fill:#000000;fill-opacity:0;fill-rule:evenodd"
       id="path149"
       d="m 328.6247,104.98171 v 0 c 0,-2.12511 1.72275,-3.84785 3.84787,-3.84785 h 50.41452 c 1.02051,0 1.99924,0.40539 2.72086,1.127 0.72158,0.72162 1.12701,1.70033 1.12701,2.72084 v 15.39093 c 0,2.1251 -1.72275,3.84784 -3.84787,3.84784 h -50.41452 v 0 c -2.12512,0 -3.84787,-1.72274 -3.84787,-3.84784 z" />
    <path
       style="fill-rule:evenodd;stroke:#980000;stroke-width:1;stroke-linecap:butt;stroke-linejoin:round;stroke-dasharray:4, 3"
       id="path151"
       d="m 328.6247,104.98171 v 0 c 0,-2.12511 1.72275,-3.84785 3.84787,-3.84785 h 50.41452 c 1.02051,0 1.99924,0.40539 2.72086,1.127 0.72158,0.72162 1.12701,1.70033 1.12701,2.72084 v 15.39093 c 0,2.1251 -1.72275,3.84784 -3.84787,3.84784 h -50.41452 v 0 c -2.12512,0 -3.84787,-1.72274 -3.84787,-3.84784 z" />
    <path
       style="fill:#000000;fill-rule:nonzero"
       id="path153"
       d="m 341.7532,111.66467 v -0.51563 h 2.48437 v 0.51563 l -0.78125,0.14062 -1.90625,2.35938 1.84375,2.64062 1.01563,0.1875 v 0.48438 h -3.25 v -0.48438 l 0.95312,-0.17187 -1.3125,-1.90625 -1.46875,1.90625 1,0.17187 v 0.48438 h -2.65625 v -0.48438 l 0.84375,-0.15625 1.95313,-2.40625 -1.79688,-2.625 -0.90625,-0.14062 v -0.51563 h 2.96875 v 0.51563 l -0.8125,0.14062 1.28125,1.85938 1.42188,-1.82813 z m 3.44806,5.8125 v -0.85938 q 0.53125,-0.53125 1.03125,-1.03125 0.5,-0.51562 0.92187,-0.96875 1,-1.0625 1.46875,-1.90625 0.46875,-0.85937 0.46875,-1.625 0,-0.82812 -0.4375,-1.3125 -0.4375,-0.48437 -1.17187,-0.48437 -0.125,0 -0.29688,0.0156 -0.15625,0.0156 -0.34375,0.0625 l -0.26562,0.90625 q -0.125,0.5 -0.3125,0.70313 -0.17188,0.20312 -0.45313,0.20312 -0.4375,0 -0.67187,-0.42187 0.0781,-0.70313 0.45312,-1.15625 0.39063,-0.46875 0.96875,-0.6875 0.59375,-0.21875 1.26563,-0.21875 1.29687,0 1.875,0.64062 0.59375,0.625 0.59375,1.625 0,0.57813 -0.23438,1.14063 -0.23437,0.54687 -0.8125,1.23437 -0.57812,0.6875 -1.59375,1.67188 -0.26562,0.26562 -0.65625,0.625 -0.375,0.35937 -0.78125,0.75 h 4.45313 v 1.09375 z m 15.80072,-2.6875 h -6.29688 v -0.75 h 6.29688 z m 0,-2.65625 h -6.29688 v -0.75 h 6.29688 z m 9.94827,2.76562 h -1.39062 v 2.57813 h -1.10938 v -2.57813 h -3.625 v -0.70312 l 3.95313,-5.45313 h 0.78125 v 5.32813 h 1.39062 z m -5.32812,-0.82812 h 2.82812 v -3.9375 z m 6.19528,3.40625 v -0.85938 q 0.53125,-0.53125 1.03125,-1.03125 0.5,-0.51562 0.92187,-0.96875 1,-1.0625 1.46875,-1.90625 0.46875,-0.85937 0.46875,-1.625 0,-0.82812 -0.4375,-1.3125 -0.4375,-0.48437 -1.17187,-0.48437 -0.125,0 -0.29688,0.0156 -0.15625,0.0156 -0.34375,0.0625 l -0.26562,0.90625 q -0.125,0.5 -0.3125,0.70313 -0.17188,0.20312 -0.45313,0.20312 -0.4375,0 -0.67187,-0.42187 0.0781,-0.70313 0.45312,-1.15625 0.39063,-0.46875 0.96875,-0.6875 0.59375,-0.21875 1.26563,-0.21875 1.29687,0 1.875,0.64062 0.59375,0.625 0.59375,1.625 0,0.57813 -0.23438,1.14063 -0.23437,0.54687 -0.8125,1.23437 -0.57812,0.6875 -1.59375,1.67188 -0.26562,0.26562 -0.65625,0.625 -0.375,0.35937 -0.78125,0.75 h 4.45313 v 1.09375 z" />
    <path
       style="fill:#000000;fill-opacity:0;fill-rule:evenodd"
       id="path155"
       d="m 328.6247,112.67716 c -9.96851,0 -19.93701,20.94488 -19.93701,41.88976" />
    <path
       style="fill-rule:evenodd;stroke:#980000;stroke-width:1;stroke-linecap:butt;stroke-linejoin:round;stroke-dasharray:4, 3"
       id="path157"
       d="m 328.6247,112.67716 c -9.96851,0 -19.93701,20.94488 -19.93701,41.88976" />
    <path
       style="fill:#f3f3f3;fill-rule:evenodd"
       id="path159"
       d="m 82.891685,86.67318 h 51.937005 v 20.72441 H 82.891685 Z" />
    <path
       style="fill-rule:evenodd;stroke:#000000;stroke-width:1;stroke-linecap:butt;stroke-linejoin:round"
       id="path161"
       d="m 82.891685,86.67318 h 51.937005 v 20.72441 H 82.891685 Z" />
    <path
       style="fill:#000000;fill-rule:nonzero"
       id="path163"
       d="m 103.11799,92.912254 v -0.609375 h 4.15625 v 0.609375 l -1.35937,0.15625 q -0.0156,0.921875 -0.0156,1.875 0,0.953125 0,1.90625 v 0.71875 q 0,0.9375 0,1.890625 0,0.937501 0.0156,1.890621 l 1.35937,0.17188 v 0.59375 h -4.15625 v -0.59375 l 1.35938,-0.17188 q 0.0156,-0.92187 0.0156,-1.874996 0,-0.953125 0,-1.90625 v -0.71875 q 0,-0.953125 0,-1.890625 0,-0.953125 -0.0156,-1.890625 z m 5.51561,9.203126 v -0.95313 q 0.57812,-0.57812 1.125,-1.14062 0.54687,-0.562501 1.01562,-1.062501 1.10938,-1.15625 1.60938,-2.09375 0.51562,-0.9375 0.51562,-1.78125 0,-0.90625 -0.48437,-1.4375 -0.46875,-0.53125 -1.26563,-0.53125 -0.15625,0 -0.34375,0.01563 -0.17187,0.01563 -0.375,0.0625 l -0.28125,1 q -0.14062,0.546875 -0.34375,0.78125 -0.20312,0.21875 -0.5,0.21875 -0.48437,0 -0.75,-0.46875 0.0781,-0.765625 0.5,-1.265625 0.4375,-0.515625 1.07813,-0.75 0.64062,-0.25 1.375,-0.25 1.42187,0 2.0625,0.703125 0.65625,0.6875 0.65625,1.78125 0,0.65625 -0.26563,1.265625 -0.25,0.59375 -0.89062,1.359375 -0.625,0.75 -1.75,1.828125 -0.29688,0.296875 -0.71875,0.703126 -0.40625,0.39063 -0.85938,0.8125 h 4.90625 v 1.20313 z" />
    <path
       style="fill:#000000;fill-opacity:0;fill-rule:evenodd"
       id="path165"
       d="m 134.82869,97.035385 29.60629,28.755905" />
    <path
       style="fill-rule:evenodd;stroke:#000000;stroke-width:1;stroke-linecap:butt;stroke-linejoin:round"
       id="path167"
       d="m 134.82869,97.035385 25.30229,24.575535" />
    <path
       style="fill:#000000;fill-rule:evenodd;stroke:#000000;stroke-width:1;stroke-linecap:butt"
       id="path169"
       d="m 158.98018,122.79575 4.40614,1.97698 -2.10452,-4.34667 z" />
    <path
       style="fill:#f3f3f3;fill-rule:evenodd"
       id="path171"
       d="m 164.43645,115.42798 h 52.7874 v 20.72441 h -52.7874 z" />
    <path
       style="fill-rule:evenodd;stroke:#000000;stroke-width:1;stroke-linecap:butt;stroke-linejoin:round"
       id="path173"
       d="m 164.43645,115.42798 h 52.7874 v 20.72441 h -52.7874 z" />
    <path
       style="fill:#000000;fill-rule:nonzero"
       id="path175"
       d="m 185.08795,121.66706 v -0.60937 h 4.15625 v 0.60937 l -1.35938,0.15625 q -0.0156,0.92188 -0.0156,1.875 0,0.95313 0,1.90625 v 0.71875 q 0,0.9375 0,1.89062 0,0.9375 0.0156,1.89062 l 1.35938,0.17188 v 0.59375 h -4.15625 v -0.59375 l 1.35937,-0.17188 q 0.0156,-0.92187 0.0156,-1.875 0,-0.95311 0,-1.90624 v -0.71875 q 0,-0.95312 0,-1.89062 0,-0.95313 -0.0156,-1.89063 z m 5.51561,9.20312 v -0.95313 q 0.57812,-0.57812 1.125,-1.14062 0.54687,-0.5625 1.01562,-1.0625 1.10938,-1.15625 1.60938,-2.09375 0.51562,-0.9375 0.51562,-1.78125 0,-0.90625 -0.48437,-1.4375 -0.46875,-0.53125 -1.26563,-0.53125 -0.15625,0 -0.34375,0.0156 -0.17187,0.0156 -0.375,0.0625 l -0.28125,1 q -0.14062,0.54687 -0.34375,0.78125 -0.20312,0.21875 -0.5,0.21875 -0.48437,0 -0.75,-0.46875 0.0781,-0.76563 0.5,-1.26563 0.4375,-0.51562 1.07813,-0.75 0.64062,-0.25 1.375,-0.25 1.42187,0 2.0625,0.70313 0.65625,0.6875 0.65625,1.78125 0,0.65625 -0.26563,1.26562 -0.25,0.59375 -0.89062,1.35938 -0.625,0.75 -1.75,1.82812 -0.29688,0.29687 -0.71875,0.70312 -0.40625,0.39063 -0.85938,0.8125 h 4.90625 v 1.20313 z" />
    <path
       style="fill:#000000;fill-opacity:0;fill-rule:evenodd"
       id="path177"
       d="m 217.22385,154.5461 29.25984,28.7559" />
    <path
       style="fill-rule:evenodd;stroke:#000000;stroke-width:1;stroke-linecap:butt;stroke-linejoin:round"
       id="path179"
       d="m 217.22383,154.54608 24.98053,24.55029" />
    <path
       style="fill:#000000;fill-rule:evenodd;stroke:#000000;stroke-width:1;stroke-linecap:butt"
       id="path181"
       d="m 241.04659,180.27443 4.39444,2.00287 -2.07892,-4.35898 z" />
    <path
       style="fill:#000000;fill-opacity:0;fill-rule:evenodd"
       id="path183"
       d="m 299.18777,183.29663 29.25986,28.7559" />
    <path
       style="fill-rule:evenodd;stroke:#000000;stroke-width:1;stroke-linecap:butt;stroke-linejoin:round"
       id="path185"
       d="m 299.18777,183.29663 24.98053,24.55028" />
    <path
       style="fill:#000000;fill-rule:evenodd;stroke:#000000;stroke-width:1;stroke-linecap:butt"
       id="path187"
       d="m 323.01053,209.02496 4.39444,2.00287 -2.07892,-4.35898 z" />
    <path
       style="fill:#f3f3f3;fill-rule:evenodd"
       id="path189"
       d="m 164.43645,144.18388 h 52.7874 v 20.72441 h -52.7874 z" />
    <path
       style="fill-rule:evenodd;stroke:#000000;stroke-width:1;stroke-linecap:butt;stroke-linejoin:round"
       id="path191"
       d="m 164.43645,144.18388 h 52.7874 v 20.72441 h -52.7874 z" />
    <path
       style="fill:#000000;fill-rule:nonzero"
       id="path193"
       d="m 185.08795,150.42296 v -0.60938 h 4.15625 v 0.60938 l -1.35938,0.15625 q -0.0156,0.92187 -0.0156,1.875 0,0.95312 0,1.90625 v 0.71875 q 0,0.9375 0,1.89062 0,0.9375 0.0156,1.89063 l 1.35938,0.17187 v 0.59375 h -4.15625 v -0.59375 l 1.35937,-0.17187 q 0.0156,-0.92188 0.0156,-1.875 0,-0.95313 0,-1.90625 v -0.71875 q 0,-0.95313 0,-1.89063 0,-0.95312 -0.0156,-1.89062 z m 5.51561,9.20312 v -0.95312 q 0.57812,-0.57813 1.125,-1.14063 0.54687,-0.5625 1.01562,-1.0625 1.10938,-1.15625 1.60938,-2.09375 0.51562,-0.9375 0.51562,-1.78125 0,-0.90625 -0.48437,-1.4375 -0.46875,-0.53125 -1.26563,-0.53125 -0.15625,0 -0.34375,0.0156 -0.17187,0.0156 -0.375,0.0625 l -0.28125,1 q -0.14062,0.54687 -0.34375,0.78125 -0.20312,0.21875 -0.5,0.21875 -0.48437,0 -0.75,-0.46875 0.0781,-0.76563 0.5,-1.26563 0.4375,-0.51562 1.07813,-0.75 0.64062,-0.25 1.375,-0.25 1.42187,0 2.0625,0.70313 0.65625,0.6875 0.65625,1.78125 0,0.65625 -0.26563,1.26562 -0.25,0.59375 -0.89062,1.35938 -0.625,0.75 -1.75,1.82812 -0.29688,0.29688 -0.71875,0.70313 -0.40625,0.39062 -0.85938,0.8125 h 4.90625 v 1.20312 z" />
    <path
       style="fill:#f3f3f3;fill-rule:evenodd"
       id="path195"
       d="m 246.49487,172.93442 h 52.6929 v 20.72441 h -52.6929 z" />
    <path
       style="fill-rule:evenodd;stroke:#000000;stroke-width:1;stroke-linecap:butt;stroke-linejoin:round"
       id="path197"
       d="m 246.49487,172.93442 h 52.6929 v 20.72441 h -52.6929 z" />
    <path
       style="fill:#000000;fill-rule:nonzero"
       id="path199"
       d="m 267.09912,179.17351 v -0.60938 h 4.15625 v 0.60938 l -1.35937,0.15625 q -0.0156,0.92187 -0.0156,1.875 0,0.95312 0,1.90625 v 0.71875 q 0,0.9375 0,1.89062 0,0.9375 0.0156,1.89063 l 1.35937,0.17187 v 0.59375 h -4.15625 v -0.59375 l 1.35938,-0.17187 q 0.0156,-0.92188 0.0156,-1.875 0,-0.95313 0,-1.90625 v -0.71875 q 0,-0.95313 0,-1.89063 0,-0.95312 -0.0156,-1.89062 z m 5.51563,9.20312 v -0.95312 q 0.57812,-0.57813 1.125,-1.14063 0.54687,-0.5625 1.01562,-1.0625 1.10938,-1.15625 1.60938,-2.09375 0.51562,-0.9375 0.51562,-1.78125 0,-0.90625 -0.48437,-1.4375 -0.46875,-0.53125 -1.26563,-0.53125 -0.15625,0 -0.34375,0.0156 -0.17187,0.0156 -0.375,0.0625 l -0.28125,1 q -0.14062,0.54687 -0.34375,0.78125 -0.20312,0.21875 -0.5,0.21875 -0.48437,0 -0.75,-0.46875 0.0781,-0.76563 0.5,-1.26563 0.4375,-0.51562 1.07813,-0.75 0.64062,-0.25 1.375,-0.25 1.42187,0 2.0625,0.70313 0.65625,0.6875 0.65625,1.78125 0,0.65625 -0.26563,1.26562 -0.25,0.59375 -0.89062,1.35938 -0.625,0.75 -1.75,1.82812 -0.29688,0.29688 -0.71875,0.70313 -0.40625,0.39062 -0.85938,0.8125 h 4.90625 v 1.20312 z" />
    <path
       style="fill:#000000;fill-opacity:0;fill-rule:evenodd"
       id="path201"
       d="m 190.83014,136.15239 v 8.03149" />
    <path
       style="fill-rule:evenodd;stroke:#000000;stroke-width:1;stroke-linecap:butt;stroke-linejoin:round"
       id="path203"
       d="m 190.83014,136.15239 v 8.03149" />
    <path
       style="fill:#000000;fill-opacity:0;fill-rule:evenodd"
       id="path205"
       d="M 246.49487,125.78482 H 217.23503" />
    <path
       style="fill-rule:evenodd;stroke:#4a86e8;stroke-width:1;stroke-linecap:butt;stroke-linejoin:round"
       id="path207"
       d="M 246.49487,125.78482 H 223.23503" />
    <path
       style="fill:#4a86e8;fill-rule:evenodd;stroke:#4a86e8;stroke-width:1;stroke-linecap:butt"
       id="path209"
       d="m 223.23503,124.13309 -4.5381,1.65173 4.5381,1.65174 z" />
    <path
       style="fill:#000000;fill-opacity:0;fill-rule:evenodd"
       id="path211"
       d="m 252.26172,81.34304 v 0 c 0,-2.125107 1.72273,-3.847847 3.84784,-3.847847 h 54.79251 c 1.02051,0 1.99921,0.405395 2.72082,1.127006 0.72162,0.721611 1.12702,1.700325 1.12702,2.720841 v 15.390923 c 0,2.125107 -1.72275,3.847847 -3.84784,3.847847 h -54.79251 c -2.12511,0 -3.84784,-1.72274 -3.84784,-3.847847 z" />
    <path
       style="fill-rule:evenodd;stroke:#4a86e8;stroke-width:1;stroke-linecap:butt;stroke-linejoin:round;stroke-dasharray:4, 3"
       id="path213"
       d="m 252.26172,81.34304 v 0 c 0,-2.125107 1.72273,-3.847847 3.84784,-3.847847 h 54.79251 c 1.02051,0 1.99921,0.405395 2.72082,1.127006 0.72162,0.721611 1.12702,1.700325 1.12702,2.720841 v 15.390923 c 0,2.125107 -1.72275,3.847847 -3.84784,3.847847 h -54.79251 c -2.12511,0 -3.84784,-1.72274 -3.84784,-3.847847 z" />
    <path
       style="fill:#000000;fill-rule:nonzero"
       id="path215"
       d="m 271.47098,88.026 v -0.515625 h 2.48437 V 88.026 l -0.78125,0.140625 -1.90625,2.359375 1.84375,2.640625 1.01563,0.1875 V 93.8385 h -3.25 v -0.484375 l 0.95312,-0.171875 -1.3125,-1.90625 -1.46875,1.90625 1,0.171875 V 93.8385 h -2.65625 v -0.484375 l 0.84375,-0.15625 1.95313,-2.40625 -1.79688,-2.625 L 267.4866,88.026 v -0.515625 h 2.96875 V 88.026 l -0.8125,0.140625 1.28125,1.859375 1.42188,-1.828125 z m 3.44806,5.8125 v -0.859375 q 0.53125,-0.53125 1.03125,-1.03125 0.5,-0.515625 0.92187,-0.96875 1,-1.0625 1.46875,-1.90625 0.46875,-0.859375 0.46875,-1.625 0,-0.828125 -0.4375,-1.3125 -0.4375,-0.484375 -1.17187,-0.484375 -0.125,0 -0.29688,0.01563 -0.15625,0.01563 -0.34375,0.0625 l -0.26562,0.90625 q -0.125,0.5 -0.3125,0.703125 -0.17188,0.203125 -0.45313,0.203125 -0.4375,0 -0.67187,-0.421875 0.0781,-0.703125 0.45312,-1.15625 0.39063,-0.46875 0.96875,-0.6875 0.59375,-0.21875 1.26563,-0.21875 1.29687,0 1.875,0.640625 0.59375,0.625 0.59375,1.625 0,0.578125 -0.23438,1.140625 -0.23437,0.546875 -0.8125,1.234375 -0.57812,0.6875 -1.59375,1.671875 -0.26562,0.265625 -0.65625,0.625 -0.375,0.359375 -0.78125,0.75 h 4.45313 v 1.09375 z m 15.80072,-2.6875 h -6.29688 v -0.75 h 6.29688 z m 0,-2.65625 h -6.29688 v -0.75 h 6.29688 z m 5.47952,5.515625 q -0.35937,0 -0.60937,-0.25 -0.23438,-0.265625 -0.23438,-0.609375 0,-0.359375 0.23438,-0.609375 0.25,-0.265625 0.60937,-0.265625 0.35938,0 0.60938,0.265625 0.26562,0.25 0.26562,0.609375 0,0.34375 -0.26562,0.609375 -0.25,0.25 -0.60938,0.25 z m 2.6875,-6.3125 q 0,1.25 -1.34375,1.671875 l -0.45312,0.15625 q -0.40625,0.140625 -0.51563,0.28125 -0.10937,0.125 -0.10937,0.453125 v 0.734375 h -0.51563 l -0.15625,-0.5625 q -0.125,-0.375 -0.17187,-0.59375 -0.0469,-0.21875 -0.0469,-0.328125 0,-0.3125 0.23438,-0.5 0.25,-0.203125 0.82812,-0.390625 l 0.76563,-0.234375 q 0.75,-0.25 0.75,-0.921875 0,-0.25 -0.0937,-0.5 -0.0937,-0.25 -0.26563,-0.484375 l -1.73437,-0.296875 q -0.59375,-0.109375 -0.78125,-0.28125 -0.1875,-0.1875 -0.1875,-0.453125 0,-0.296875 0.1875,-0.453125 0.1875,-0.171875 0.54687,-0.265625 0.4375,0.03125 0.95313,0.265625 0.51562,0.21875 0.98437,0.609375 0.48438,0.390625 0.79688,0.921875 0.32812,0.53125 0.32812,1.171875 z" />
    <path
       style="fill:#000000;fill-opacity:0;fill-rule:evenodd"
       id="path217"
       d="m 252.26172,89.038506 c -10.03151,0 -20.063,18.488184 -20.063,36.976374" />
    <path
       style="fill-rule:evenodd;stroke:#4a86e8;stroke-width:1;stroke-linecap:butt;stroke-linejoin:round;stroke-dasharray:4, 3"
       id="path219"
       d="m 252.26172,89.038506 c -10.03151,0 -20.063,18.488184 -20.063,36.976374" />
  </g>
</svg>
