<?xml version="1.0" encoding="UTF-8" standalone="no"?>
<svg
   version="1.1"
   viewBox="0 0 637.53546 79.897659"
   fill="none"
   stroke="none"
   stroke-linecap="square"
   stroke-miterlimit="10"
   id="svg169"
   sodipodi:docname="cpu-implementation-fetch.svg"
   width="637.53546"
   height="79.897659"
   inkscape:version="1.1.2 (b8e25be8, 2022-02-05)"
   xmlns:inkscape="http://www.inkscape.org/namespaces/inkscape"
   xmlns:sodipodi="http://sodipodi.sourceforge.net/DTD/sodipodi-0.dtd"
   xmlns="http://www.w3.org/2000/svg"
   xmlns:svg="http://www.w3.org/2000/svg">
  <defs
     id="defs173" />
  <sodipodi:namedview
     id="namedview171"
     pagecolor="#ffffff"
     bordercolor="#666666"
     borderopacity="1.0"
     inkscape:pageshadow="2"
     inkscape:pageopacity="0.0"
     inkscape:pagecheckerboard="0"
     showgrid="false"
     inkscape:zoom="1.05"
     inkscape:cx="370.95238"
     inkscape:cy="52.857143"
     inkscape:window-width="1296"
     inkscape:window-height="789"
     inkscape:window-x="0"
     inkscape:window-y="25"
     inkscape:window-maximized="0"
     inkscape:current-layer="g167" />
  <clipPath
     id="g2fe881e1fab_0_0.0">
    <path
       d="M 0,0 H 960 V 540 H 0 Z"
       clip-rule="nonzero"
       id="path2" />
  </clipPath>
  <g
     clip-path="url(#g2fe881e1fab_0_0.0)"
     id="g167"
     transform="translate(-108.47375,-216.85432)">
    <path
       fill="#000000"
       fill-opacity="0"
       d="m 108.97375,217.35432 h 636.53546 v 78.89766 H 108.97375 Z"
       fill-rule="evenodd"
       id="path7" />
    <path
       fill="#000000"
       fill-opacity="0"
       d="m 689.2183,217.35376 h 51.33862 v 55.43307 H 689.2183 Z"
       fill-rule="evenodd"
       id="path11" />
    <path
       fill="#000000"
       d="m 705.3001,248.63843 q 0.28125,0 0.53125,0.125 0.26563,0.10937 0.45313,0.29687 0.1875,0.1875 0.29687,0.45313 0.10938,0.25 0.10938,0.54687 0,0.29688 -0.10938,0.54688 -0.10937,0.25 -0.29687,0.45312 -0.1875,0.1875 -0.45313,0.29688 -0.25,0.10937 -0.53125,0.10937 -0.29687,0 -0.5625,-0.10937 -0.25,-0.10938 -0.4375,-0.29688 -0.1875,-0.20312 -0.29687,-0.45312 -0.10938,-0.25 -0.10938,-0.54688 0,-0.29687 0.10938,-0.54687 0.10937,-0.26563 0.29687,-0.45313 0.1875,-0.1875 0.4375,-0.29687 0.26563,-0.125 0.5625,-0.125 z m 9.5271,0 q 0.28125,0 0.53125,0.125 0.26563,0.10937 0.45313,0.29687 0.1875,0.1875 0.29687,0.45313 0.10938,0.25 0.10938,0.54687 0,0.29688 -0.10938,0.54688 -0.10937,0.25 -0.29687,0.45312 -0.1875,0.1875 -0.45313,0.29688 -0.25,0.10937 -0.53125,0.10937 -0.29687,0 -0.5625,-0.10937 -0.25,-0.10938 -0.4375,-0.29688 -0.1875,-0.20312 -0.29687,-0.45312 -0.10938,-0.25 -0.10938,-0.54688 0,-0.29687 0.10938,-0.54687 0.10937,-0.26563 0.29687,-0.45313 0.1875,-0.1875 0.4375,-0.29687 0.26563,-0.125 0.5625,-0.125 z m 9.5271,0 q 0.28125,0 0.53125,0.125 0.26563,0.10937 0.45313,0.29687 0.1875,0.1875 0.29687,0.45313 0.10938,0.25 0.10938,0.54687 0,0.29688 -0.10938,0.54688 -0.10937,0.25 -0.29687,0.45312 -0.1875,0.1875 -0.45313,0.29688 -0.25,0.10937 -0.53125,0.10937 -0.29687,0 -0.5625,-0.10937 -0.25,-0.10938 -0.4375,-0.29688 -0.1875,-0.20312 -0.29687,-0.45312 -0.10938,-0.25 -0.10938,-0.54688 0,-0.29687 0.10938,-0.54687 0.10937,-0.26563 0.29687,-0.45313 0.1875,-0.1875 0.4375,-0.29687 0.26563,-0.125 0.5625,-0.125 z"
       fill-rule="nonzero"
       id="path13" />
    <path
       fill="#000000"
       fill-opacity="0"
       d="m 664.58844,249.85294 h 100.59839 v 42.17322 H 664.58844 Z"
       fill-rule="evenodd"
       id="path15" />
    <path
       fill="#000000"
       d="m 689.2454,272.14142 q 0,1.17187 0.20313,2.20312 0.20312,1.01563 0.6875,2.0625 0.5,1.04688 1.375,2.29688 l -0.39063,0.32812 q -1.54687,-1.45312 -2.29687,-3.15625 -0.75,-1.71875 -0.75,-3.73437 0,-2 0.75,-3.71875 0.75,-1.71875 2.29687,-3.17188 l 0.39063,0.34375 q -0.875,1.25 -1.375,2.29688 -0.48438,1.04687 -0.6875,2.0625 -0.20313,1.01562 -0.20313,2.1875 z m 4.16913,0.64062 q 0,1.42188 0.57812,2.10938 0.57813,0.6875 1.45313,0.6875 0.48437,0 0.85937,-0.20313 0.375,-0.20312 0.78125,-0.65625 v -4.0625 q -0.5,-0.4375 -0.89062,-0.59375 -0.39063,-0.15625 -0.76563,-0.15625 -0.54687,0 -1.01562,0.29688 -0.45313,0.29687 -0.73438,0.9375 -0.26562,0.64062 -0.26562,1.64062 z m 3.8125,3.57813 -0.0937,-1 q -0.39063,0.5 -0.875,0.78125 -0.48438,0.26562 -1.17188,0.26562 -0.90625,0 -1.57812,-0.45312 -0.67188,-0.45313 -1.04688,-1.26563 -0.375,-0.8125 -0.375,-1.89062 0,-1.125 0.40625,-1.95313 0.42188,-0.84375 1.125,-1.3125 0.70313,-0.46875 1.59375,-0.46875 0.51563,0 0.98438,0.21875 0.48437,0.20313 0.9375,0.73438 v -3.3125 l -1.25,-0.14063 v -0.51562 l 2.28125,-0.65625 0.21875,0.10937 -0.0625,2.09375 v 7.92188 l 1.1875,0.17187 v 0.53125 z m 6.45074,-6.625 q -0.40625,0 -0.82812,0.23437 -0.40625,0.23438 -0.71875,0.75 -0.29688,0.51563 -0.375,1.35938 h 2.65625 q 0.53125,0 0.70312,-0.21875 0.17188,-0.21875 0.17188,-0.53125 0,-0.42188 -0.21875,-0.78125 -0.21875,-0.35938 -0.57813,-0.57813 -0.35937,-0.23437 -0.8125,-0.23437 z m -0.0156,6.67187 q -1.46875,0 -2.375,-0.95312 -0.89063,-0.96875 -0.89063,-2.65625 0,-1.125 0.45313,-1.95313 0.46875,-0.84375 1.23437,-1.3125 0.78125,-0.46875 1.6875,-0.46875 0.76563,0 1.375,0.34375 0.625,0.32813 0.98438,0.95313 0.35937,0.625 0.35937,1.51562 0,0.25 -0.0312,0.46875 -0.0156,0.20313 -0.0625,0.35938 h -4.67187 q 0.0312,1.34375 0.67187,2.04687 0.64063,0.70313 1.70313,0.70313 0.70312,0 1.17187,-0.28125 0.46875,-0.28125 0.85938,-0.73438 l 0.34375,0.26563 q -0.40625,0.78125 -1.10938,1.25 -0.70312,0.45312 -1.70312,0.45312 z m 7.4591,0 q -1.5,0 -2.40625,-0.96875 -0.89062,-0.98437 -0.89062,-2.67187 0,-1.15625 0.46875,-1.98438 0.48437,-0.82812 1.26562,-1.26562 0.78125,-0.45313 1.65625,-0.45313 0.65625,0 1.21875,0.25 0.5625,0.25 0.92188,0.6875 0.35937,0.42188 0.45312,0.96875 -0.0937,0.5625 -0.67187,0.5625 -0.35938,0 -0.54688,-0.1875 -0.1875,-0.20312 -0.26562,-0.51562 l -0.26563,-0.96875 q -0.20312,-0.0781 -0.40625,-0.0937 -0.1875,-0.0312 -0.375,-0.0312 -0.9375,0 -1.54687,0.73437 -0.60938,0.73438 -0.60938,2.14063 0,1.375 0.65625,2.10937 0.65625,0.73438 1.6875,0.73438 0.625,0 1.15625,-0.28125 0.53125,-0.28125 0.85938,-0.82813 l 0.375,0.1875 q -0.3125,0.90625 -1,1.39063 -0.6875,0.48437 -1.73438,0.48437 z m 7.26166,0 q -0.84375,0 -1.625,-0.39062 -0.76562,-0.40625 -1.25,-1.21875 -0.48437,-0.82813 -0.48437,-2.01563 0,-1.21875 0.48437,-2.04687 0.48438,-0.82813 1.25,-1.25 0.78125,-0.42188 1.625,-0.42188 0.84375,0 1.60938,0.42188 0.78125,0.42187 1.26562,1.25 0.5,0.82812 0.5,2.04687 0,1.1875 -0.5,2.01563 -0.48437,0.8125 -1.26562,1.21875 -0.76563,0.39062 -1.60938,0.39062 z m 0,-0.65625 q 0.95313,0 1.46875,-0.75 0.51563,-0.76562 0.51563,-2.21875 0,-1.48437 -0.51563,-2.26562 -0.51562,-0.78125 -1.46875,-0.78125 -0.95312,0 -1.46875,0.78125 -0.5,0.78125 -0.5,2.26562 0,1.45313 0.5,2.21875 0.51563,0.75 1.46875,0.75 z m 6.01502,-2.96875 q 0,1.42188 0.57812,2.10938 0.57813,0.6875 1.45313,0.6875 0.48437,0 0.85937,-0.20313 0.375,-0.20312 0.78125,-0.65625 v -4.0625 q -0.5,-0.4375 -0.89062,-0.59375 -0.39063,-0.15625 -0.76563,-0.15625 -0.54687,0 -1.01562,0.29688 -0.45313,0.29687 -0.73438,0.9375 -0.26562,0.64062 -0.26562,1.64062 z m 3.8125,3.57813 -0.0937,-1 q -0.39063,0.5 -0.875,0.78125 -0.48438,0.26562 -1.17188,0.26562 -0.90625,0 -1.57812,-0.45312 -0.67188,-0.45313 -1.04688,-1.26563 -0.375,-0.8125 -0.375,-1.89062 0,-1.125 0.40625,-1.95313 0.42188,-0.84375 1.125,-1.3125 0.70313,-0.46875 1.59375,-0.46875 0.51563,0 0.98438,0.21875 0.48437,0.20313 0.9375,0.73438 v -3.3125 l -1.25,-0.14063 v -0.51562 l 2.28125,-0.65625 0.21875,0.10937 -0.0625,2.09375 v 7.92188 l 1.1875,0.17187 v 0.53125 z m 6.45074,-6.625 q -0.40625,0 -0.82812,0.23437 -0.40625,0.23438 -0.71875,0.75 -0.29688,0.51563 -0.375,1.35938 h 2.65625 q 0.53125,0 0.70312,-0.21875 0.17188,-0.21875 0.17188,-0.53125 0,-0.42188 -0.21875,-0.78125 -0.21875,-0.35938 -0.57813,-0.57813 -0.35937,-0.23437 -0.8125,-0.23437 z m -0.0156,6.67187 q -1.46875,0 -2.375,-0.95312 -0.89063,-0.96875 -0.89063,-2.65625 0,-1.125 0.45313,-1.95313 0.46875,-0.84375 1.23437,-1.3125 0.78125,-0.46875 1.6875,-0.46875 0.76563,0 1.375,0.34375 0.625,0.32813 0.98438,0.95313 0.35937,0.625 0.35937,1.51562 0,0.25 -0.0312,0.46875 -0.0156,0.20313 -0.0625,0.35938 h -4.67187 q 0.0312,1.34375 0.67187,2.04687 0.64063,0.70313 1.70313,0.70313 0.70312,0 1.17187,-0.28125 0.46875,-0.28125 0.85938,-0.73438 l 0.34375,0.26563 q -0.40625,0.78125 -1.10938,1.25 -0.70312,0.45312 -1.70312,0.45312 z m 5.88452,-4.26562 q 0,-1.17188 -0.20313,-2.1875 -0.20312,-1.01563 -0.70312,-2.0625 -0.48438,-1.04688 -1.35938,-2.29688 l 0.39063,-0.34375 q 1.54687,1.45313 2.29687,3.17188 0.75,1.71875 0.75,3.71875 0,2.01562 -0.75,3.73437 -0.75,1.70313 -2.29687,3.15625 l -0.39063,-0.32812 q 0.875,-1.25 1.35938,-2.29688 0.5,-1.04687 0.70312,-2.0625 0.20313,-1.03125 0.20313,-2.20312 z"
       fill-rule="nonzero"
       id="path17" />
    <path
       fill="#000000"
       fill-opacity="0"
       d="M 0,0 H 504 V 72.97638 H 0 Z"
       fill-rule="evenodd"
       id="path19" />
    <path
       fill="#f3f3f3"
       d="m 115.82677,221.07086 h 48 v 48 h -48 z"
       fill-rule="evenodd"
       id="path23" />
    <path
       stroke="#000000"
       stroke-width="1"
       stroke-linejoin="round"
       stroke-linecap="butt"
       d="m 115.82677,221.07086 h 48 v 48 h -48 z"
       fill-rule="evenodd"
       id="path25" />
    <path
       fill="#000000"
       d="m 126.58804,252.27086 v -0.8125 l 1.79687,-0.26563 v -11.26562 l -1.79687,-0.21875 v -0.8125 h 3.70312 l 4.46875,11 4.25,-11 h 3.9375 v 0.8125 l -1.84375,0.21875 q -0.0156,1.26562 -0.0312,2.5625 0,1.29687 0,2.59375 v 0.98437 q 0,1.28125 0,2.57813 0.0156,1.28125 0.0312,2.57812 l 1.84375,0.23438 v 0.8125 h -5.4375 v -0.8125 l 1.67188,-0.23438 q 0.0469,-1.25 0.0469,-2.54687 0,-1.3125 0,-2.59375 v -4.96875 l -4.34375,11.15625 h -1 l -4.57812,-11.15625 0.125,3.78125 v 6.29687 l 1.64062,0.26563 v 0.8125 z m 19.91498,-6.4375 q 0,2.3125 0.32812,3.57812 0.32813,1.26563 0.875,1.75 0.54688,0.46875 1.15625,0.46875 0.60938,0 1.14063,-0.48437 0.53125,-0.5 0.85937,-1.75 0.32813,-1.26563 0.32813,-3.5625 0,-2.34375 -0.32813,-3.59375 -0.32812,-1.26563 -0.85937,-1.75 -0.53125,-0.5 -1.14063,-0.5 -0.45312,0 -0.89062,0.26562 -0.42188,0.25 -0.75,0.89063 -0.32813,0.64062 -0.53125,1.78125 -0.1875,1.14062 -0.1875,2.90625 z m 2.35937,-6.75 q 1.0625,0 2.01563,0.65625 0.95312,0.65625 1.5625,2.14062 0.60937,1.46875 0.60937,3.95313 0,2.45312 -0.60937,3.92187 -0.60938,1.46875 -1.5625,2.125 -0.95313,0.65625 -2.01563,0.65625 -1.0625,0 -2.03125,-0.65625 -0.96875,-0.65625 -1.57812,-2.125 -0.59375,-1.46875 -0.59375,-3.92187 0,-2.48438 0.59375,-3.95313 0.60937,-1.48437 1.57812,-2.14062 0.96875,-0.65625 2.03125,-0.65625 z"
       fill-rule="nonzero"
       id="path27" />
    <path
       fill="#000000"
       fill-opacity="0"
       d="m 77.43307,269.07086 h 124.78741 v 29.19687 H 77.43307 Z"
       fill-rule="evenodd"
       id="path29" />
    <path
       fill="#000000"
       d="m 119.29385,289.63242 q -0.67188,0 -1.23438,-0.15625 -0.5625,-0.14062 -1.15625,-0.45312 l -0.0625,-1.75 h 0.875 l 0.3125,1.39062 q 0.5625,0.25 1.29688,0.25 0.90625,0 1.34375,-0.32812 0.45312,-0.34375 0.45312,-0.89063 0,-0.5 -0.375,-0.8125 -0.375,-0.3125 -1.125,-0.57812 l -0.73437,-0.26563 q -0.875,-0.32812 -1.40625,-0.82812 -0.53125,-0.51563 -0.53125,-1.32813 0,-0.59375 0.3125,-1.10937 0.32812,-0.51563 0.95312,-0.82813 0.625,-0.32812 1.51563,-0.32812 0.65625,0 1.1875,0.17187 0.54687,0.17188 1.0625,0.48438 l -0.0625,1.64062 h -0.84375 l -0.25,-1.28125 q -0.54688,-0.28125 -1.10938,-0.28125 -0.73437,0 -1.10937,0.29688 -0.375,0.29687 -0.375,0.79687 0,0.53125 0.32812,0.8125 0.32813,0.26563 1.14063,0.5625 l 0.5,0.17188 q 1.20312,0.45312 1.70312,1.03125 0.5,0.57812 0.5,1.32812 0,0.60938 -0.35937,1.125 -0.34375,0.51563 -1.03125,0.84375 -0.6875,0.3125 -1.71875,0.3125 z m 8.13151,0 q -0.9375,0 -1.78125,-0.4375 -0.82812,-0.4375 -1.35937,-1.32812 -0.53125,-0.89063 -0.53125,-2.20313 0,-1.32812 0.53125,-2.21875 0.53125,-0.90625 1.35937,-1.35937 0.84375,-0.46875 1.78125,-0.46875 0.92188,0 1.75001,0.46875 0.84375,0.45312 1.375,1.35937 0.54687,0.89063 0.54687,2.21875 0,1.3125 -0.54687,2.20313 -0.53125,0.89062 -1.375,1.32812 -0.82813,0.4375 -1.75001,0.4375 z m 0,-0.71875 q 1.03126,0 1.59376,-0.8125 0.5625,-0.82812 0.5625,-2.4375 0,-1.60937 -0.5625,-2.45312 -0.5625,-0.85938 -1.59376,-0.85938 -1.04687,0 -1.60937,0.85938 -0.54688,0.84375 -0.54688,2.45312 0,1.60938 0.54688,2.4375 0.5625,0.8125 1.60937,0.8125 z m 7.79589,0.71875 q -0.96875,0 -1.53125,-0.64062 -0.5625,-0.65625 -0.54687,-2.23438 l 0.0469,-3.98437 -1.125,-0.23438 v -0.57812 l 2.34375,-0.23438 0.15625,0.17188 -0.0781,2.23437 v 2.48438 q 0,1.03125 0.3125,1.46875 0.32812,0.42187 0.96875,0.42187 1.125,0 2.25,-1.04687 l 0.0469,-4.70313 -1.14062,-0.21875 v -0.57812 l 2.3125,-0.23438 0.17187,0.17188 -0.0469,2.23437 v 4.5 l 1.07812,0.21875 v 0.57813 l -2.21875,0.125 -0.15625,-1.42188 q -0.64062,0.78125 -1.375,1.14063 -0.73437,0.35937 -1.46875,0.35937 z m 6.4374,-0.20312 v -0.57813 l 1.15625,-0.20312 q 0.0156,-0.60938 0.0156,-1.3125 0.0156,-0.71875 0.0156,-1.26563 v -0.76562 q 0,-0.65625 -0.0156,-1.07813 0,-0.4375 -0.0312,-0.92187 l -1.26562,-0.14063 v -0.5625 l 2.23437,-0.98437 0.25,0.17187 0.17188,1.875 q 0.39062,-0.95312 1.01562,-1.5 0.64063,-0.54687 1.28125,-0.54687 0.375,0 0.6875,0.17187 0.32813,0.15625 0.46875,0.42188 0,1.17187 -0.9375,1.17187 -0.28125,0 -0.53125,-0.0937 -0.23437,-0.10937 -0.45312,-0.3125 l -0.1875,-0.17187 q -0.48438,0.35937 -0.8125,0.875 -0.3125,0.5 -0.51563,1.1875 v 1.20312 q 0,0.53125 0,1.23438 0.0156,0.70312 0.0312,1.3125 l 1.3125,0.23437 v 0.57813 z m 10.20176,0.20312 q -1.64062,0 -2.625,-1.0625 -0.96875,-1.07812 -0.96875,-2.92187 0,-1.26563 0.51563,-2.15625 0.53125,-0.90625 1.375,-1.39063 0.84375,-0.48437 1.8125,-0.48437 0.71875,0 1.3125,0.28125 0.60937,0.26562 1.01562,0.75 0.40625,0.46875 0.5,1.04687 -0.10937,0.60938 -0.73437,0.60938 -0.40625,0 -0.60938,-0.20313 -0.20312,-0.21875 -0.28125,-0.5625 l -0.28125,-1.04687 q -0.21875,-0.0937 -0.4375,-0.10938 -0.21875,-0.0312 -0.42187,-0.0312 -1.03125,0 -1.70313,0.8125 -0.65625,0.79688 -0.65625,2.32813 0,1.5 0.71875,2.3125 0.71875,0.79687 1.84375,0.79687 0.6875,0 1.26563,-0.3125 0.57812,-0.3125 0.9375,-0.90625 l 0.40625,0.20313 q -0.34375,1 -1.09375,1.53125 -0.75,0.51562 -1.89063,0.51562 z m 7.83927,-7.28125 q -0.4375,0 -0.90625,0.26563 -0.45313,0.25 -0.78125,0.8125 -0.32813,0.5625 -0.42188,1.48437 h 2.92188 q 0.57812,0 0.75,-0.23437 0.1875,-0.23438 0.1875,-0.59375 0,-0.46875 -0.23438,-0.85938 -0.23437,-0.39062 -0.625,-0.625 -0.39062,-0.25 -0.89062,-0.25 z m -0.0156,7.28125 q -1.60937,0 -2.59375,-1.04687 -0.96875,-1.04688 -0.96875,-2.89063 0,-1.21875 0.5,-2.125 0.51563,-0.92187 1.34375,-1.4375 0.84375,-0.51562 1.84375,-0.51562 0.82813,0 1.5,0.375 0.67188,0.35937 1.0625,1.04687 0.40625,0.67188 0.40625,1.65625 0,0.26563 -0.0312,0.5 -0.0312,0.23438 -0.0781,0.39063 h -5.10938 q 0.0312,1.46875 0.73438,2.25 0.70312,0.76562 1.85937,0.76562 0.76563,0 1.28125,-0.3125 0.51563,-0.3125 0.9375,-0.8125 l 0.39063,0.3125 q -0.45313,0.84375 -1.21875,1.34375 -0.76563,0.5 -1.85938,0.5 z"
       fill-rule="nonzero"
       id="path31" />
    <path
       fill="#f3f3f3"
       d="m 211.54541,221.07086 h 48 v 48 h -48 z"
       fill-rule="evenodd"
       id="path33" />
    <path
       stroke="#000000"
       stroke-width="1"
       stroke-linejoin="round"
       stroke-linecap="butt"
       d="m 211.54541,221.07086 h 48 v 48 h -48 z"
       fill-rule="evenodd"
       id="path35" />
    <path
       fill="#000000"
       d="m 222.30667,252.27086 v -0.8125 l 1.79687,-0.26563 v -11.26562 l -1.79687,-0.21875 v -0.8125 h 3.70312 l 4.46875,11 4.25,-11 h 3.9375 v 0.8125 l -1.84375,0.21875 q -0.0156,1.26562 -0.0312,2.5625 0,1.29687 0,2.59375 v 0.98437 q 0,1.28125 0,2.57813 0.0156,1.28125 0.0312,2.57812 l 1.84375,0.23438 v 0.8125 h -5.4375 v -0.8125 l 1.67188,-0.23438 q 0.0469,-1.25 0.0469,-2.54687 0,-1.3125 0,-2.59375 v -4.96875 l -4.34375,11.15625 h -1 l -4.57812,-11.15625 0.125,3.78125 v 6.29687 l 1.64062,0.26563 v 0.8125 z m 18.96185,-12.01563 4.10938,-1.0625 0.28125,0.20313 -0.0781,2.85937 v 5.79688 q 0,0.73437 0.0156,1.5 0.0156,0.76562 0.0312,1.51562 l 2.84375,0.48438 v 0.71875 h -7.42188 v -0.71875 l 2.8125,-0.48438 q 0.0156,-0.75 0.0312,-1.51562 0.0156,-0.76563 0.0156,-1.5 v -7.20313 l -2.64063,0.21875 z"
       fill-rule="nonzero"
       id="path37" />
    <path
       fill="#000000"
       fill-opacity="0"
       d="m 173.1517,269.07086 h 124.78742 v 29.19687 H 173.1517 Z"
       fill-rule="evenodd"
       id="path39" />
    <path
       fill="#000000"
       d="m 199.35545,289.4293 v -0.57813 l 1.26562,-0.21875 q 0.0156,-0.64062 0.0156,-1.28125 0.0156,-0.64062 0.0156,-1.28125 v -3.39062 h -1.32812 v -0.70313 l 1.34375,-0.17187 q 0.0781,-0.9375 0.21875,-1.54688 0.14062,-0.60937 0.40625,-1.04687 0.26562,-0.4375 0.67187,-0.84375 0.4375,-0.45313 1.14063,-0.6875 0.71875,-0.23438 1.45312,-0.23438 1.03125,0 1.75,0.4375 0.71875,0.42188 0.71875,1.15625 -0.0625,0.26563 -0.26562,0.45313 -0.20313,0.17187 -0.53125,0.17187 -0.29688,0 -0.54688,-0.17187 -0.25,-0.17188 -0.46875,-0.48438 l -0.70312,-0.96875 q -0.54688,0.0312 -1.01563,0.25 -0.45312,0.20313 -0.76562,0.51563 -0.42188,0.42187 -0.60938,1.14062 -0.17187,0.70313 -0.14062,1.89063 h 3.64062 l 1.1875,-0.21875 0.25,0.17187 -0.0469,2.09375 v 2.1875 q 0,0.53125 0,1.25 0.0156,0.70313 0.0312,1.3125 l 1.09375,0.21875 v 0.57813 h -3.71875 v -0.57813 l 1.20312,-0.21875 q 0.0156,-0.60937 0.0156,-1.3125 0.0156,-0.71875 0.0156,-1.25 v -0.8125 q 0,-0.85937 -0.0156,-1.40625 0,-0.5625 -0.0312,-1.17187 h -3.59375 v 3.39062 q 0,0.64063 0,1.28125 0.0156,0.625 0.0312,1.26563 l 1.42187,0.23437 v 0.57813 z m 9.70015,0 v -0.57813 l 1.28125,-0.21875 q 0.0156,-0.65625 0.0156,-1.28125 0.0156,-0.64062 0.0156,-1.28125 v -7.03125 l -1.3125,-0.15625 v -0.5625 l 2.48437,-0.71875 0.23438,0.125 -0.0625,2.28125 v 6.0625 q 0,0.64063 0,1.28125 0.0156,0.64063 0.0312,1.28125 l 1.28125,0.21875 v 0.57813 z m 7.64301,0.20312 q -0.82813,0 -1.32813,-0.4375 -0.5,-0.45312 -0.5,-1.375 0,-0.3125 0,-0.60937 0.0156,-0.29688 0.0156,-0.75 v -3.78125 h -1.32813 v -0.70313 l 1.42188,-0.17187 0.42187,-2.15625 h 0.95313 l -0.0937,2.1875 h 2.17187 v 0.84375 h -2.1875 v 4.95312 q 0,0.60938 0.23438,0.89063 0.25,0.28125 0.65625,0.28125 0.26562,0 0.51562,-0.10938 0.25,-0.10937 0.54688,-0.32812 l 0.39062,0.42187 q -0.65625,0.84375 -1.89062,0.84375 z m 6.21563,-7.28125 q -0.4375,0 -0.90625,0.26563 -0.45312,0.25 -0.78125,0.8125 -0.32812,0.5625 -0.42187,1.48437 h 2.92187 q 0.57813,0 0.75,-0.23437 0.1875,-0.23438 0.1875,-0.59375 0,-0.46875 -0.23437,-0.85938 -0.23438,-0.39062 -0.625,-0.625 -0.39063,-0.25 -0.89063,-0.25 z m -0.0156,7.28125 q -1.60938,0 -2.59375,-1.04687 -0.96875,-1.04688 -0.96875,-2.89063 0,-1.21875 0.5,-2.125 0.51562,-0.92187 1.34375,-1.4375 0.84375,-0.51562 1.84375,-0.51562 0.82812,0 1.5,0.375 0.67187,0.35937 1.0625,1.04687 0.40625,0.67188 0.40625,1.65625 0,0.26563 -0.0312,0.5 -0.0312,0.23438 -0.0781,0.39063 h -5.10937 q 0.0312,1.46875 0.73437,2.25 0.70313,0.76562 1.85938,0.76562 0.76562,0 1.28125,-0.3125 0.51562,-0.3125 0.9375,-0.8125 l 0.39062,0.3125 q -0.45312,0.84375 -1.21875,1.34375 -0.76562,0.5 -1.85937,0.5 z m 4.55064,-0.20312 v -0.57813 l 1.15625,-0.20312 q 0.0156,-0.60938 0.0156,-1.3125 0.0156,-0.71875 0.0156,-1.26563 v -0.76562 q 0,-0.65625 -0.0156,-1.07813 0,-0.4375 -0.0312,-0.92187 l -1.26563,-0.14063 v -0.5625 l 2.23438,-0.98437 0.25,0.17187 0.17187,1.875 q 0.39063,-0.95312 1.01563,-1.5 0.64062,-0.54687 1.28125,-0.54687 0.375,0 0.6875,0.17187 0.32812,0.15625 0.46875,0.42188 0,1.17187 -0.9375,1.17187 -0.28125,0 -0.53125,-0.0937 -0.23438,-0.10937 -0.45313,-0.3125 l -0.1875,-0.17187 q -0.48437,0.35937 -0.8125,0.875 -0.3125,0.5 -0.51562,1.1875 v 1.20312 q 0,0.53125 0,1.23438 0.0156,0.70312 0.0312,1.3125 l 1.3125,0.23437 v 0.57813 z m 5.74477,1.0625 v -1.0625 h 6.90625 v 1.0625 z m 8.19201,-1.0625 v -0.57813 l 1.1875,-0.21875 q 0.0156,-0.60937 0.0156,-1.3125 0.0156,-0.70312 0.0156,-1.25 v -0.76562 q 0,-0.65625 -0.0156,-1.07813 0,-0.4375 -0.0312,-0.92187 l -1.26563,-0.14063 v -0.5625 l 2.23438,-0.98437 0.25,0.17187 0.125,1.28125 q 0.5625,-0.625 1.3125,-1.03125 0.75,-0.42187 1.48437,-0.42187 0.75,0 1.21875,0.35937 0.46875,0.34375 0.6875,1.15625 0.60938,-0.76562 1.35938,-1.14062 0.75,-0.375 1.53125,-0.375 0.98437,0 1.51562,0.65625 0.53125,0.65625 0.53125,2.14062 v 1.65625 q 0,0.54688 0,1.25 0.0156,0.70313 0.0312,1.3125 l 1.125,0.21875 v 0.57813 h -3.71875 v -0.57813 l 1.1875,-0.21875 q 0.0156,-0.59375 0.0156,-1.29687 0.0156,-0.71875 0.0156,-1.26563 v -1.39062 q 0,-1.125 -0.32812,-1.51563 -0.3125,-0.39062 -1.01563,-0.39062 -0.5,0 -1.01562,0.23437 -0.51563,0.21875 -1.125,0.78125 0.0156,0.17188 0.0156,0.375 0.0156,0.1875 0.0156,0.42188 v 1.48437 q 0,0.54688 0,1.25 0.0156,0.70313 0.0312,1.3125 l 1.125,0.21875 v 0.57813 h -3.71875 v -0.57813 l 1.1875,-0.21875 q 0.0156,-0.59375 0.0156,-1.29687 0.0156,-0.71875 0.0156,-1.26563 v -1.35937 q 0,-1.09375 -0.3125,-1.51563 -0.29688,-0.42187 -1,-0.42187 -0.54688,0 -1.04688,0.23437 -0.48437,0.21875 -1.07812,0.71875 v 2.34375 q 0,0.53125 0,1.25 0.0156,0.70313 0.0312,1.3125 l 1.10937,0.21875 v 0.57813 z m 20.43168,0.15625 q -0.57813,0 -0.96875,-0.32813 -0.375,-0.34375 -0.46875,-0.90625 -0.65625,0.64063 -1.15625,0.96875 -0.5,0.3125 -1.20313,0.3125 -0.875,0 -1.51562,-0.5 -0.62502,-0.5 -0.62502,-1.5 0,-0.45312 0.21877,-0.85937 0.21875,-0.40625 0.78125,-0.78125 0.57812,-0.39063 1.65625,-0.76563 0.375,-0.14062 0.84375,-0.28125 0.48437,-0.14062 0.96875,-0.25 v -0.40625 q 0,-1.15625 -0.35938,-1.54687 -0.34375,-0.39063 -1.14062,-0.39063 -0.1875,0 -0.40625,0.0156 -0.20313,0.0156 -0.46875,0.0937 l -0.29688,1.03125 q -0.23437,0.76562 -0.82812,0.76562 -0.67188,0 -0.76563,-0.65625 0.23438,-0.90625 1.0625,-1.4375 0.84375,-0.54687 2.0625,-0.54687 1.26563,0 1.875,0.64062 0.60938,0.625 0.60938,2.14063 v 3.42187 q 0,0.5 0.15625,0.71875 0.15625,0.21875 0.42187,0.21875 0.20313,0 0.34375,-0.0937 0.14063,-0.0937 0.28125,-0.26562 l 0.3125,0.35937 q -0.28125,0.46875 -0.625,0.65625 -0.34375,0.17188 -0.76562,0.17188 z m -4.51563,-2.1875 q 0,0.64062 0.35938,0.92187 0.375,0.26563 0.92187,0.26563 0.23438,0 0.45313,-0.0625 0.21875,-0.0625 0.51562,-0.25 0.3125,-0.1875 0.79688,-0.54688 v -2.4375 q -0.42188,0.10938 -0.82813,0.25 -0.39062,0.125 -0.64062,0.23438 -0.6875,0.26562 -1.03125,0.5625 -0.32813,0.28125 -0.4375,0.5625 -0.10938,0.26562 -0.10938,0.5 z m 6.24588,5.85937 v -0.5625 l 1.28125,-0.21875 q 0.0156,-0.65625 0.0156,-1.3125 0.0156,-0.64062 0.0156,-1.28125 v -4.57812 q 0,-0.65625 -0.0156,-1.07813 0,-0.4375 -0.0312,-0.92187 l -1.26563,-0.14063 v -0.5625 l 2.23438,-0.98437 0.25,0.17187 0.0937,1.03125 q 1.125,-1.20312 2.40625,-1.20312 0.875,0 1.5625,0.48437 0.6875,0.48438 1.09375,1.375 0.40625,0.875 0.40625,2.125 0,1.23438 -0.4375,2.14063 -0.42188,0.90625 -1.17188,1.40625 -0.75,0.48437 -1.6875,0.48437 -0.54687,0 -1.07812,-0.21875 -0.53125,-0.21875 -1.04688,-0.8125 v 1.26563 q 0,0.64062 0,1.28125 0.0156,0.65625 0.0312,1.3125 l 1.45313,0.23437 v 0.5625 z m 4.60938,-10.71875 q -0.375,0 -0.85938,0.1875 -0.46875,0.17188 -1.07812,0.6875 v 4.5 q 0.45312,0.42188 0.875,0.625 0.4375,0.1875 0.875,0.1875 0.90625,0 1.54687,-0.71875 0.64063,-0.71875 0.64063,-2.28125 0,-1.53125 -0.5625,-2.35937 -0.5625,-0.82813 -1.4375,-0.82813 z"
       fill-rule="nonzero"
       id="path41" />
    <path
       fill="#f3f3f3"
       d="m 307.26404,221.07086 h 48 v 48 h -48 z"
       fill-rule="evenodd"
       id="path43" />
    <path
       stroke="#000000"
       stroke-width="1"
       stroke-linejoin="round"
       stroke-linecap="butt"
       d="m 307.26404,221.07086 h 48 v 48 h -48 z"
       fill-rule="evenodd"
       id="path45" />
    <path
       fill="#000000"
       d="m 318.0253,252.27086 v -0.8125 l 1.79688,-0.26563 v -11.26562 l -1.79688,-0.21875 v -0.8125 h 3.70313 l 4.46875,11 4.25,-11 h 3.9375 v 0.8125 l -1.84375,0.21875 q -0.0156,1.26562 -0.0312,2.5625 0,1.29687 0,2.59375 v 0.98437 q 0,1.28125 0,2.57813 0.0156,1.28125 0.0312,2.57812 l 1.84375,0.23438 v 0.8125 h -5.4375 v -0.8125 l 1.67187,-0.23438 q 0.0469,-1.25 0.0469,-2.54687 0,-1.3125 0,-2.59375 v -4.96875 l -4.34375,11.15625 h -1 l -4.57813,-11.15625 0.125,3.78125 v 6.29687 l 1.64063,0.26563 v 0.8125 z m 18.2431,0 v -1.29688 q 0.79688,-0.78125 1.54688,-1.54687 0.75,-0.78125 1.39062,-1.45313 1.5,-1.57812 2.1875,-2.85937 0.70313,-1.28125 0.70313,-2.4375 0,-1.25 -0.65625,-1.96875 -0.64063,-0.71875 -1.73438,-0.71875 -0.20312,0 -0.45312,0.0312 -0.25,0.0156 -0.53125,0.0625 l -0.375,1.39062 q -0.20313,0.73438 -0.48438,1.04688 -0.26562,0.3125 -0.67187,0.3125 -0.67188,0 -1.03125,-0.64063 0.125,-1.0625 0.70312,-1.75 0.57813,-0.6875 1.45313,-1.01562 0.89062,-0.34375 1.89062,-0.34375 1.9375,0 2.8125,0.95312 0.89063,0.95313 0.89063,2.45313 0,0.875 -0.35938,1.71875 -0.34375,0.82812 -1.20312,1.85937 -0.85938,1.01563 -2.40625,2.5 -0.39063,0.40625 -0.96875,0.95313 -0.5625,0.53125 -1.1875,1.10937 h 6.70312 v 1.64063 z"
       fill-rule="nonzero"
       id="path47" />
    <path
       fill="#000000"
       fill-opacity="0"
       d="m 268.87033,269.07086 h 124.78742 v 29.19687 H 268.87033 Z"
       fill-rule="evenodd"
       id="path49" />
    <path
       fill="#000000"
       d="m 302.91187,289.4293 v -0.57813 l 1.15625,-0.20312 q 0.0156,-0.60938 0.0156,-1.3125 0.0156,-0.71875 0.0156,-1.26563 v -0.76562 q 0,-0.65625 -0.0156,-1.07813 0,-0.4375 -0.0312,-0.92187 l -1.26563,-0.14063 v -0.5625 l 2.23438,-0.98437 0.25,0.17187 0.17187,1.875 q 0.39063,-0.95312 1.01563,-1.5 0.64062,-0.54687 1.28125,-0.54687 0.375,0 0.6875,0.17187 0.32812,0.15625 0.46875,0.42188 0,1.17187 -0.9375,1.17187 -0.28125,0 -0.53125,-0.0937 -0.23438,-0.10937 -0.45313,-0.3125 l -0.1875,-0.17187 q -0.48437,0.35937 -0.8125,0.875 -0.3125,0.5 -0.51562,1.1875 v 1.20312 q 0,0.53125 0,1.23438 0.0156,0.70312 0.0312,1.3125 l 1.3125,0.23437 v 0.57813 z m 10.233,-7.07813 q -0.4375,0 -0.90625,0.26563 -0.45312,0.25 -0.78125,0.8125 -0.32812,0.5625 -0.42187,1.48437 h 2.92187 q 0.57813,0 0.75,-0.23437 0.1875,-0.23438 0.1875,-0.59375 0,-0.46875 -0.23437,-0.85938 -0.23438,-0.39062 -0.625,-0.625 -0.39063,-0.25 -0.89063,-0.25 z m -0.0156,7.28125 q -1.60938,0 -2.59375,-1.04687 -0.96875,-1.04688 -0.96875,-2.89063 0,-1.21875 0.5,-2.125 0.51562,-0.92187 1.34375,-1.4375 0.84375,-0.51562 1.84375,-0.51562 0.82812,0 1.5,0.375 0.67187,0.35937 1.0625,1.04687 0.40625,0.67188 0.40625,1.65625 0,0.26563 -0.0312,0.5 -0.0312,0.23438 -0.0781,0.39063 h -5.10937 q 0.0312,1.46875 0.73437,2.25 0.70313,0.76562 1.85938,0.76562 0.76562,0 1.28125,-0.3125 0.51562,-0.3125 0.9375,-0.8125 l 0.39062,0.3125 q -0.45312,0.84375 -1.21875,1.34375 -0.76562,0.5 -1.85937,0.5 z m 7.67566,-3.40625 q 0.76562,0 1.1875,-0.57812 0.4375,-0.57813 0.4375,-1.45313 0,-0.84375 -0.40625,-1.375 -0.40625,-0.54687 -1.15625,-0.54687 -0.75,0 -1.1875,0.5625 -0.4375,0.54687 -0.4375,1.42187 0,0.89063 0.40625,1.4375 0.42187,0.53125 1.15625,0.53125 z m 0.0312,0.64063 q -0.625,0 -1.1875,-0.17188 -0.40625,0.51563 -0.40625,1.01563 0,0.32812 0.1875,0.51562 0.1875,0.1875 0.75,0.1875 h 2.09375 q 1.32812,0 1.95312,0.54688 0.625,0.54687 0.625,1.53125 0,0.6875 -0.45312,1.32812 -0.4375,0.64063 -1.3125,1.03125 -0.875,0.40625 -2.1875,0.40625 -1.75,0 -2.53125,-0.54687 -0.78125,-0.54688 -0.78125,-1.39063 0,-0.51562 0.34375,-0.95312 0.34375,-0.4375 1.21875,-0.875 -1.04688,-0.28125 -1.04688,-1.21875 0,-0.375 0.23438,-0.79688 0.25,-0.42187 0.84375,-0.96875 -0.57813,-0.32812 -0.90625,-0.89062 -0.32813,-0.5625 -0.32813,-1.375 0,-1.26563 0.82813,-1.9375 0.82812,-0.6875 2.07812,-0.6875 1.26563,0 2.03125,0.625 l 1.8125,-0.625 0.23438,0.17187 v 1 h -1.5625 q 0.35937,0.59375 0.35937,1.45313 0,1.26562 -0.82812,1.95312 -0.8125,0.67188 -2.0625,0.67188 z m -1.9375,4.1875 q 0,0.79687 0.5625,1.125 0.5625,0.34375 1.5,0.34375 1.3125,0 2,-0.48438 0.6875,-0.46875 0.6875,-1.14062 0,-0.53125 -0.375,-0.89063 -0.35938,-0.35937 -1.21875,-0.35937 h -1.875 q -0.15625,0 -0.32813,-0.0156 -0.17187,0 -0.32812,-0.0156 -0.34375,0.35937 -0.48438,0.70312 -0.14062,0.34375 -0.14062,0.73438 z m 7.03799,-0.5625 v -1.0625 h 6.90625 v 1.0625 z m 8.12952,-1.0625 v -0.57813 l 1.26562,-0.21875 q 0.0156,-0.64062 0.0156,-1.28125 0.0156,-0.64062 0.0156,-1.28125 v -3.39062 h -1.32812 v -0.70313 l 1.35937,-0.17187 q 0.10938,-1.28125 0.35938,-2.07813 0.25,-0.79687 0.84375,-1.39062 0.5,-0.5 1.0625,-0.6875 0.5625,-0.20313 1.10937,-0.20313 0.5625,0 0.98438,0.20313 0.4375,0.20312 0.54687,0.65625 -0.0156,0.3125 -0.28125,0.51562 -0.25,0.20313 -0.6875,0.20313 -0.57812,0 -1.15625,-0.46875 l -0.45312,-0.35938 q -0.0625,0.0469 -0.125,0.0937 -0.0469,0.0469 -0.0937,0.0937 -0.42188,0.42188 -0.64063,1.26563 -0.20312,0.84375 -0.17187,2.1875 h 2.20312 v 0.84375 h -2.17187 v 3.39062 q 0,0.64063 0,1.28125 0.0156,0.625 0.0312,1.26563 l 1.4375,0.23437 v 0.57813 z m 14.38653,-6.96875 v -0.625 h 2.92188 v 0.625 l -0.85938,0.20312 -2.34375,6.85938 h -0.59375 l -2.07812,-5.67188 -2.10938,5.67188 h -0.59375 l -2.57812,-6.90625 -0.90625,-0.15625 v -0.625 h 3.64062 v 0.625 l -1.23437,0.1875 1.64062,4.90625 1.79688,-4.90625 -1.1875,-0.1875 v -0.625 h 3.53125 v 0.625 l -1.17188,0.20312 1.8125,4.875 1.48438,-4.85937 z m 4.91965,3.20312 q 0,1.57813 0.625,2.32813 0.64063,0.73437 1.60938,0.73437 0.51562,0 0.92187,-0.21875 0.42188,-0.21875 0.85938,-0.70312 v -4.4375 q -0.54688,-0.48438 -0.98438,-0.65625 -0.42187,-0.17188 -0.8125,-0.17188 -0.59375,0 -1.10937,0.32813 -0.5,0.32812 -0.8125,1.03125 -0.29688,0.6875 -0.29688,1.76562 z m 4.1875,3.92188 -0.125,-1.09375 q -0.40625,0.53125 -0.95312,0.84375 -0.53125,0.29687 -1.28125,0.29687 -0.96875,0 -1.71875,-0.48437 -0.73438,-0.5 -1.14063,-1.39063 -0.40625,-0.89062 -0.40625,-2.0625 0,-1.21875 0.4375,-2.125 0.45313,-0.92187 1.21875,-1.4375 0.78125,-0.51562 1.75,-0.51562 0.5625,0 1.07813,0.23437 0.53125,0.21875 1.01562,0.8125 v -3.625 l -1.35937,-0.15625 v -0.5625 l 2.5,-0.71875 0.21875,0.125 -0.0625,2.28125 v 8.65625 l 1.29687,0.1875 v 0.57813 z"
       fill-rule="nonzero"
       id="path51" />
    <path
       fill="#f3f3f3"
       d="m 402.98267,221.07086 h 48 v 48 h -48 z"
       fill-rule="evenodd"
       id="path53" />
    <path
       stroke="#000000"
       stroke-width="1"
       stroke-linejoin="round"
       stroke-linecap="butt"
       d="m 402.98267,221.07086 h 48 v 48 h -48 z"
       fill-rule="evenodd"
       id="path55" />
    <path
       fill="#000000"
       d="m 413.74396,252.27086 v -0.8125 l 1.79688,-0.26563 v -11.26562 l -1.79688,-0.21875 v -0.8125 h 3.70313 l 4.46875,11 4.25,-11 h 3.9375 v 0.8125 l -1.84375,0.21875 q -0.0156,1.26562 -0.0312,2.5625 0,1.29687 0,2.59375 v 0.98437 q 0,1.28125 0,2.57813 0.0156,1.28125 0.0312,2.57812 l 1.84375,0.23438 v 0.8125 h -5.4375 v -0.8125 l 1.67187,-0.23438 q 0.0469,-1.25 0.0469,-2.54687 0,-1.3125 0,-2.59375 v -4.96875 l -4.34375,11.15625 h -1 l -4.57813,-11.15625 0.125,3.78125 v 6.29687 l 1.64063,0.26563 v 0.8125 z m 20.64935,-7.29688 h 0.8125 q 1.35938,0 2.10938,-0.70312 0.75,-0.70313 0.75,-1.98438 0,-1.09375 -0.64063,-1.6875 -0.625,-0.60937 -1.8125,-0.60937 -0.1875,0 -0.42187,0.0312 -0.21875,0.0156 -0.48438,0.0469 l -0.26562,1 q -0.15625,0.625 -0.40625,0.9375 -0.23438,0.3125 -0.75,0.3125 -0.32813,0 -0.59375,-0.15625 -0.25,-0.17187 -0.375,-0.54687 0.26562,-1.26563 1.26562,-1.89063 1,-0.64062 2.375,-0.64062 1.76563,0 2.79688,0.875 1.04687,0.875 1.04687,2.26562 0,1.09375 -0.6875,1.9375 -0.6875,0.84375 -1.9375,1.29688 1.54688,0.29687 2.28125,1.15625 0.75,0.85937 0.75,2.09375 0,1.07812 -0.5625,1.9375 -0.5625,0.85937 -1.5625,1.375 -1,0.51562 -2.35937,0.51562 -1.46875,0 -2.51563,-0.67187 -1.04687,-0.67188 -1.32812,-2.17188 0.34375,-0.65625 1.01562,-0.65625 0.53125,0 0.75,0.34375 0.23438,0.32813 0.4375,1.09375 l 0.26563,1.03125 q 0.32812,0.0781 0.60937,0.10938 0.28125,0.0156 0.5,0.0156 1.48438,0 2.21875,-0.76562 0.75,-0.78125 0.75,-2.10938 0,-1.29687 -0.76562,-2.03125 -0.76563,-0.75 -2.29688,-0.75 h -0.96875 z"
       fill-rule="nonzero"
       id="path57" />
    <path
       fill="#000000"
       fill-opacity="0"
       d="m 364.589,269.07086 h 124.78738 v 29.19687 H 364.589 Z"
       fill-rule="evenodd"
       id="path59" />
    <path
       fill="#000000"
       d="m 405.46176,279.38242 v -0.65625 h 4.53125 v 0.65625 l -1.46875,0.17188 q -0.0156,1.01562 -0.0312,2.0625 0,1.03125 0,2.0625 v 0.79687 q 0,1.01563 0,2.04688 0.0156,1.03125 0.0312,2.07812 l 1.46875,0.17188 v 0.65625 h -4.53125 v -0.65625 l 1.46875,-0.17188 q 0.0312,-1.01562 0.0312,-2.04687 0,-1.04688 0,-2.07813 v -0.79687 q 0,-1.03125 0,-2.0625 0,-1.03125 -0.0312,-2.0625 z m 5.85788,10.04688 v -0.65625 l 1.4375,-0.20313 v -9.01562 l -1.4375,-0.17188 v -0.65625 h 2.95312 l 3.59375,8.79688 3.39063,-8.79688 h 3.15625 v 0.65625 l -1.48438,0.17188 q -0.0156,1.01562 -0.0312,2.0625 0,1.03125 0,2.0625 v 0.79687 q 0,1.01563 0,2.04688 0.0156,1.03125 0.0312,2.07812 l 1.48438,0.17188 v 0.65625 h -4.35938 v -0.65625 l 1.34375,-0.17188 q 0.0312,-1.01562 0.0312,-2.04687 0,-1.04688 0,-2.0625 v -3.98438 l -3.46875,8.92188 h -0.79687 l -3.67188,-8.92188 0.0937,3.01563 v 5.04687 l 1.3125,0.20313 v 0.65625 z m 14.51016,-10.04688 v -0.65625 h 7.96875 l 0.10938,2.82813 h -0.90625 l -0.35938,-2.03125 h -3.75 q -0.0156,1.03125 -0.0312,2.0625 0,1.01562 0,2 h 2.34375 l 0.21875,-1.51563 h 0.75 v 3.78125 h -0.75 l -0.20312,-1.51562 h -2.35938 q 0,1.20312 0,2.25 0.0156,1.04687 0.0312,2.04687 h 4.07813 l 0.34375,-2.04687 h 0.92187 l -0.125,2.84375 h -8.28125 v -0.65625 l 1.46875,-0.17188 q 0.0312,-1.01562 0.0312,-2.04687 0,-1.04688 0,-2.07813 v -0.79687 q 0,-1.03125 0,-2.0625 0,-1.03125 -0.0312,-2.0625 z m 9.56989,10.04688 v -0.65625 l 1.4375,-0.20313 v -9.01562 l -1.4375,-0.17188 v -0.65625 h 2.95312 l 3.59375,8.79688 3.39063,-8.79688 h 3.15625 v 0.65625 l -1.48438,0.17188 q -0.0156,1.01562 -0.0312,2.0625 0,1.03125 0,2.0625 v 0.79687 q 0,1.01563 0,2.04688 0.0156,1.03125 0.0312,2.07812 l 1.48438,0.17188 v 0.65625 h -4.35938 v -0.65625 l 1.34375,-0.17188 q 0.0312,-1.01562 0.0312,-2.04687 0,-1.04688 0,-2.0625 v -3.98438 l -3.46875,8.92188 h -0.79687 l -3.67188,-8.92188 0.0937,3.01563 v 5.04687 l 1.3125,0.20313 v 0.65625 z"
       fill-rule="nonzero"
       id="path61" />
    <path
       fill="#f3f3f3"
       d="m 498.70132,221.07086 h 47.99997 v 48 h -47.99997 z"
       fill-rule="evenodd"
       id="path63" />
    <path
       stroke="#000000"
       stroke-width="1"
       stroke-linejoin="round"
       stroke-linecap="butt"
       d="m 498.70132,221.07086 h 47.99997 v 48 h -47.99997 z"
       fill-rule="evenodd"
       id="path65" />
    <path
       fill="#000000"
       d="m 509.4626,252.27086 v -0.8125 l 1.79687,-0.26563 v -11.26562 l -1.79687,-0.21875 v -0.8125 h 3.70313 l 4.46875,11 4.25,-11 h 3.9375 v 0.8125 l -1.84375,0.21875 q -0.0156,1.26562 -0.0312,2.5625 0,1.29687 0,2.59375 v 0.98437 q 0,1.28125 0,2.57813 0.0156,1.28125 0.0312,2.57812 l 1.84375,0.23438 v 0.8125 h -5.4375 v -0.8125 l 1.67187,-0.23438 q 0.0469,-1.25 0.0469,-2.54687 0,-1.3125 0,-2.59375 v -4.96875 l -4.34375,11.15625 h -1 l -4.57813,-11.15625 0.125,3.78125 v 6.29687 l 1.64063,0.26563 v 0.8125 z m 26.94623,-3.85938 h -2.09375 v 3.85938 h -1.67188 v -3.85938 h -5.4375 v -1.0625 l 5.9375,-8.17187 h 1.17188 v 7.96875 h 2.09375 z m -8,-1.26562 h 4.23437 v -5.89063 z"
       fill-rule="nonzero"
       id="path67" />
    <path
       fill="#000000"
       fill-opacity="0"
       d="m 460.30762,269.07086 h 124.78741 v 29.19687 H 460.30762 Z"
       fill-rule="evenodd"
       id="path69" />
    <path
       fill="#000000"
       d="m 475.04584,289.4293 v -0.57813 l 1.1875,-0.21875 q 0.0156,-0.60937 0.0156,-1.3125 0.0156,-0.70312 0.0156,-1.25 v -0.76562 q 0,-0.65625 -0.0156,-1.07813 0,-0.4375 -0.0312,-0.92187 l -1.26562,-0.14063 v -0.5625 l 2.23437,-0.98437 0.25,0.17187 0.125,1.28125 q 0.5625,-0.625 1.3125,-1.03125 0.75,-0.42187 1.48438,-0.42187 0.75,0 1.21875,0.35937 0.46875,0.34375 0.6875,1.15625 0.60937,-0.76562 1.35937,-1.14062 0.75,-0.375 1.53125,-0.375 0.98438,0 1.51563,0.65625 0.53125,0.65625 0.53125,2.14062 v 1.65625 q 0,0.54688 0,1.25 0.0156,0.70313 0.0312,1.3125 l 1.125,0.21875 v 0.57813 h -3.71875 v -0.57813 l 1.1875,-0.21875 q 0.0156,-0.59375 0.0156,-1.29687 0.0156,-0.71875 0.0156,-1.26563 v -1.39062 q 0,-1.125 -0.32813,-1.51563 -0.3125,-0.39062 -1.01562,-0.39062 -0.5,0 -1.01563,0.23437 -0.51562,0.21875 -1.125,0.78125 0.0156,0.17188 0.0156,0.375 0.0156,0.1875 0.0156,0.42188 v 1.48437 q 0,0.54688 0,1.25 0.0156,0.70313 0.0312,1.3125 l 1.125,0.21875 v 0.57813 h -3.71875 v -0.57813 l 1.1875,-0.21875 q 0.0156,-0.59375 0.0156,-1.29687 0.0156,-0.71875 0.0156,-1.26563 v -1.35937 q 0,-1.09375 -0.3125,-1.51563 -0.29687,-0.42187 -1,-0.42187 -0.54687,0 -1.04687,0.23437 -0.48438,0.21875 -1.07813,0.71875 v 2.34375 q 0,0.53125 0,1.25 0.0156,0.70313 0.0312,1.3125 l 1.10938,0.21875 v 0.57813 z m 20.43167,0.15625 q -0.57812,0 -0.96875,-0.32813 -0.375,-0.34375 -0.46875,-0.90625 -0.65625,0.64063 -1.15625,0.96875 -0.5,0.3125 -1.20312,0.3125 -0.875,0 -1.51563,-0.5 -0.625,-0.5 -0.625,-1.5 0,-0.45312 0.21875,-0.85937 0.21875,-0.40625 0.78125,-0.78125 0.57813,-0.39063 1.65625,-0.76563 0.375,-0.14062 0.84375,-0.28125 0.48438,-0.14062 0.96875,-0.25 v -0.40625 q 0,-1.15625 -0.35937,-1.54687 -0.34375,-0.39063 -1.14063,-0.39063 -0.1875,0 -0.40625,0.0156 -0.20312,0.0156 -0.46875,0.0937 l -0.29687,1.03125 q -0.23438,0.76562 -0.82813,0.76562 -0.67187,0 -0.76562,-0.65625 0.23437,-0.90625 1.0625,-1.4375 0.84375,-0.54687 2.0625,-0.54687 1.26562,0 1.875,0.64062 0.60937,0.625 0.60937,2.14063 v 3.42187 q 0,0.5 0.15625,0.71875 0.15625,0.21875 0.42188,0.21875 0.20312,0 0.34375,-0.0937 0.14062,-0.0937 0.28125,-0.26562 l 0.3125,0.35937 q -0.28125,0.46875 -0.625,0.65625 -0.34375,0.17188 -0.76563,0.17188 z m -4.51562,-2.1875 q 0,0.64062 0.35937,0.92187 0.375,0.26563 0.92188,0.26563 0.23437,0 0.45312,-0.0625 0.21875,-0.0625 0.51563,-0.25 0.3125,-0.1875 0.79687,-0.54688 v -2.4375 q -0.42187,0.10938 -0.82812,0.25 -0.39063,0.125 -0.64063,0.23438 -0.6875,0.26562 -1.03125,0.5625 -0.32812,0.28125 -0.4375,0.5625 -0.10937,0.26562 -0.10937,0.5 z m 6.24588,5.85937 v -0.5625 l 1.28125,-0.21875 q 0.0156,-0.65625 0.0156,-1.3125 0.0156,-0.64062 0.0156,-1.28125 v -4.57812 q 0,-0.65625 -0.0156,-1.07813 0,-0.4375 -0.0312,-0.92187 l -1.26562,-0.14063 v -0.5625 l 2.23437,-0.98437 0.25,0.17187 0.0937,1.03125 q 1.125,-1.20312 2.40625,-1.20312 0.875,0 1.5625,0.48437 0.6875,0.48438 1.09375,1.375 0.40625,0.875 0.40625,2.125 0,1.23438 -0.4375,2.14063 -0.42187,0.90625 -1.17187,1.40625 -0.75,0.48437 -1.6875,0.48437 -0.54688,0 -1.07813,-0.21875 -0.53125,-0.21875 -1.04687,-0.8125 v 1.26563 q 0,0.64062 0,1.28125 0.0156,0.65625 0.0312,1.3125 l 1.45312,0.23437 v 0.5625 z m 4.60937,-10.71875 q -0.375,0 -0.85937,0.1875 -0.46875,0.17188 -1.07813,0.6875 v 4.5 q 0.45313,0.42188 0.875,0.625 0.4375,0.1875 0.875,0.1875 0.90625,0 1.54688,-0.71875 0.64062,-0.71875 0.64062,-2.28125 0,-1.53125 -0.5625,-2.35937 -0.5625,-0.82813 -1.4375,-0.82813 z m 3.99677,7.95313 v -1.0625 h 6.90625 v 1.0625 z m 8.22326,-1.0625 v -0.57813 l 1.15625,-0.20312 q 0.0156,-0.60938 0.0156,-1.3125 0.0156,-0.71875 0.0156,-1.26563 v -0.76562 q 0,-0.65625 -0.0156,-1.07813 0,-0.4375 -0.0312,-0.92187 l -1.26563,-0.14063 v -0.5625 l 2.23438,-0.98437 0.25,0.17187 0.17187,1.875 q 0.39063,-0.95312 1.01563,-1.5 0.64062,-0.54687 1.28125,-0.54687 0.375,0 0.6875,0.17187 0.32812,0.15625 0.46875,0.42188 0,1.17187 -0.9375,1.17187 -0.28125,0 -0.53125,-0.0937 -0.23438,-0.10937 -0.45313,-0.3125 l -0.1875,-0.17187 q -0.48437,0.35937 -0.8125,0.875 -0.3125,0.5 -0.51562,1.1875 v 1.20312 q 0,0.53125 0,1.23438 0.0156,0.70312 0.0312,1.3125 l 1.3125,0.23437 v 0.57813 z m 10.23304,-7.07813 q -0.4375,0 -0.90625,0.26563 -0.45313,0.25 -0.78125,0.8125 -0.32813,0.5625 -0.42188,1.48437 h 2.92188 q 0.57812,0 0.75,-0.23437 0.1875,-0.23438 0.1875,-0.59375 0,-0.46875 -0.23438,-0.85938 -0.23437,-0.39062 -0.625,-0.625 -0.39062,-0.25 -0.89062,-0.25 z m -0.0156,7.28125 q -1.60937,0 -2.59375,-1.04687 -0.96875,-1.04688 -0.96875,-2.89063 0,-1.21875 0.5,-2.125 0.51563,-0.92187 1.34375,-1.4375 0.84375,-0.51562 1.84375,-0.51562 0.82813,0 1.5,0.375 0.67188,0.35937 1.0625,1.04687 0.40625,0.67188 0.40625,1.65625 0,0.26563 -0.0312,0.5 -0.0312,0.23438 -0.0781,0.39063 h -5.10938 q 0.0312,1.46875 0.73438,2.25 0.70312,0.76562 1.85937,0.76562 0.76563,0 1.28125,-0.3125 0.51563,-0.3125 0.9375,-0.8125 l 0.39063,0.3125 q -0.45313,0.84375 -1.21875,1.34375 -0.76563,0.5 -1.85938,0.5 z m 7.08185,0 q -0.67188,0 -1.23438,-0.15625 -0.5625,-0.14062 -1.15625,-0.45312 l -0.0625,-1.75 h 0.875 l 0.3125,1.39062 q 0.5625,0.25 1.29688,0.25 0.90625,0 1.34375,-0.32812 0.45312,-0.34375 0.45312,-0.89063 0,-0.5 -0.375,-0.8125 -0.375,-0.3125 -1.125,-0.57812 l -0.73437,-0.26563 q -0.875,-0.32812 -1.40625,-0.82812 -0.53125,-0.51563 -0.53125,-1.32813 0,-0.59375 0.3125,-1.10937 0.32812,-0.51563 0.95312,-0.82813 0.625,-0.32812 1.51563,-0.32812 0.65625,0 1.1875,0.17187 0.54687,0.17188 1.0625,0.48438 l -0.0625,1.64062 h -0.84375 l -0.25,-1.28125 q -0.54688,-0.28125 -1.10938,-0.28125 -0.73437,0 -1.10937,0.29688 -0.375,0.29687 -0.375,0.79687 0,0.53125 0.32812,0.8125 0.32813,0.26563 1.14063,0.5625 l 0.5,0.17188 q 1.20312,0.45312 1.70312,1.03125 0.5,0.57812 0.5,1.32812 0,0.60938 -0.35937,1.125 -0.34375,0.51563 -1.03125,0.84375 -0.6875,0.3125 -1.71875,0.3125 z m 8.13153,0 q -0.9375,0 -1.78125,-0.4375 -0.82813,-0.4375 -1.35938,-1.32812 -0.53125,-0.89063 -0.53125,-2.20313 0,-1.32812 0.53125,-2.21875 0.53125,-0.90625 1.35938,-1.35937 0.84375,-0.46875 1.78125,-0.46875 0.92187,0 1.75,0.46875 0.84375,0.45312 1.375,1.35937 0.54687,0.89063 0.54687,2.21875 0,1.3125 -0.54687,2.20313 -0.53125,0.89062 -1.375,1.32812 -0.82813,0.4375 -1.75,0.4375 z m 0,-0.71875 q 1.03125,0 1.59375,-0.8125 0.5625,-0.82812 0.5625,-2.4375 0,-1.60937 -0.5625,-2.45312 -0.5625,-0.85938 -1.59375,-0.85938 -1.04688,0 -1.60938,0.85938 -0.54687,0.84375 -0.54687,2.45312 0,1.60938 0.54687,2.4375 0.5625,0.8125 1.60938,0.8125 z m 4.63965,0.51563 v -0.57813 l 1.28125,-0.21875 q 0.0156,-0.65625 0.0156,-1.28125 0.0156,-0.64062 0.0156,-1.28125 v -7.03125 l -1.3125,-0.15625 v -0.5625 l 2.48437,-0.71875 0.23438,0.125 -0.0625,2.28125 v 6.0625 q 0,0.64063 0,1.28125 0.0156,0.64063 0.0312,1.28125 l 1.28125,0.21875 v 0.57813 z m 9.09234,-6.96875 v -0.625 h 3.04688 v 0.625 l -0.875,0.20312 -2.59375,6.85938 h -0.6875 l -2.92188,-6.90625 -0.85937,-0.15625 v -0.625 h 3.875 v 0.625 l -1.40625,0.20312 1.95312,5.125 1.76563,-5.10937 z m 7.16626,-0.10938 q -0.4375,0 -0.90625,0.26563 -0.45312,0.25 -0.78125,0.8125 -0.32812,0.5625 -0.42187,1.48437 h 2.92187 q 0.57813,0 0.75,-0.23437 0.1875,-0.23438 0.1875,-0.59375 0,-0.46875 -0.23437,-0.85938 -0.23438,-0.39062 -0.625,-0.625 -0.39063,-0.25 -0.89063,-0.25 z m -0.0156,7.28125 q -1.60938,0 -2.59375,-1.04687 -0.96875,-1.04688 -0.96875,-2.89063 0,-1.21875 0.5,-2.125 0.51562,-0.92187 1.34375,-1.4375 0.84375,-0.51562 1.84375,-0.51562 0.82812,0 1.5,0.375 0.67187,0.35937 1.0625,1.04687 0.40625,0.67188 0.40625,1.65625 0,0.26563 -0.0312,0.5 -0.0312,0.23438 -0.0781,0.39063 h -5.10937 q 0.0312,1.46875 0.73437,2.25 0.70313,0.76562 1.85938,0.76562 0.76562,0 1.28125,-0.3125 0.51562,-0.3125 0.9375,-0.8125 l 0.39062,0.3125 q -0.45312,0.84375 -1.21875,1.34375 -0.76562,0.5 -1.85937,0.5 z m 4.55066,-0.20312 v -0.57813 l 1.15625,-0.20312 q 0.0156,-0.60938 0.0156,-1.3125 0.0156,-0.71875 0.0156,-1.26563 v -0.76562 q 0,-0.65625 -0.0156,-1.07813 0,-0.4375 -0.0312,-0.92187 l -1.26562,-0.14063 v -0.5625 l 2.23437,-0.98437 0.25,0.17187 0.17188,1.875 q 0.39062,-0.95312 1.01562,-1.5 0.64063,-0.54687 1.28125,-0.54687 0.375,0 0.6875,0.17187 0.32813,0.15625 0.46875,0.42188 0,1.17187 -0.9375,1.17187 -0.28125,0 -0.53125,-0.0937 -0.23437,-0.10937 -0.45312,-0.3125 l -0.1875,-0.17187 q -0.48438,0.35937 -0.8125,0.875 -0.3125,0.5 -0.51563,1.1875 v 1.20312 q 0,0.53125 0,1.23438 0.0156,0.70312 0.0312,1.3125 l 1.3125,0.23437 v 0.57813 z"
       fill-rule="nonzero"
       id="path71" />
    <path
       fill="#f3f3f3"
       d="m 594.4199,221.07086 h 48 v 48 h -48 z"
       fill-rule="evenodd"
       id="path73" />
    <path
       stroke="#000000"
       stroke-width="1"
       stroke-linejoin="round"
       stroke-linecap="butt"
       d="m 594.4199,221.07086 h 48 v 48 h -48 z"
       fill-rule="evenodd"
       id="path75" />
    <path
       fill="#000000"
       d="m 605.1812,252.27086 v -0.8125 l 1.79687,-0.26563 v -11.26562 l -1.79687,-0.21875 v -0.8125 h 3.70312 l 4.46875,11 4.25,-11 h 3.9375 v 0.8125 l -1.84375,0.21875 q -0.0156,1.26562 -0.0312,2.5625 0,1.29687 0,2.59375 v 0.98437 q 0,1.28125 0,2.57813 0.0156,1.28125 0.0312,2.57812 l 1.84375,0.23438 v 0.8125 h -5.4375 v -0.8125 l 1.67188,-0.23438 q 0.0469,-1.25 0.0469,-2.54687 0,-1.3125 0,-2.59375 v -4.96875 l -4.34375,11.15625 h -1 l -4.57812,-11.15625 0.125,3.78125 v 6.29687 l 1.64062,0.26563 v 0.8125 z m 26.41498,-4.01563 q 0,1.28125 -0.57813,2.25 -0.57812,0.95313 -1.64062,1.5 -1.04688,0.53125 -2.4375,0.53125 -3.10938,0 -3.75,-2.82812 0.26562,-0.67188 1.03125,-0.67188 0.45312,0 0.70312,0.28125 0.25,0.26563 0.45313,1.07813 l 0.28125,1.07812 q 0.29687,0.0781 0.57812,0.125 0.29688,0.0312 0.5625,0.0312 1.48438,0 2.23438,-0.85937 0.76562,-0.875 0.76562,-2.3125 0,-1.5 -0.84375,-2.29688 -0.84375,-0.79687 -2.28125,-0.79687 -0.85937,0 -1.84375,0.21875 l -0.54687,-0.15625 0.40625,-6.07813 h 6.54687 v 1.64063 h -5.65625 l -0.25,3.40625 q 0.90625,-0.25 1.89063,-0.25 1.95312,0 3.15625,1.0625 1.21875,1.04687 1.21875,3.04687 z"
       fill-rule="nonzero"
       id="path77" />
    <path
       fill="#000000"
       fill-opacity="0"
       d="m 556.02625,269.07086 h 124.78742 v 29.19687 H 556.02625 Z"
       fill-rule="evenodd"
       id="path79" />
    <path
       fill="#000000"
       d="m 582.23,289.4293 v -0.57813 l 1.26563,-0.21875 q 0.0156,-0.64062 0.0156,-1.28125 0.0156,-0.64062 0.0156,-1.28125 v -3.39062 h -1.32813 v -0.70313 l 1.34375,-0.17187 q 0.0781,-0.9375 0.21875,-1.54688 0.14063,-0.60937 0.40625,-1.04687 0.26563,-0.4375 0.67188,-0.84375 0.4375,-0.45313 1.14062,-0.6875 0.71875,-0.23438 1.45313,-0.23438 1.03125,0 1.75,0.4375 0.71875,0.42188 0.71875,1.15625 -0.0625,0.26563 -0.26563,0.45313 -0.20312,0.17187 -0.53125,0.17187 -0.29687,0 -0.54687,-0.17187 -0.25,-0.17188 -0.46875,-0.48438 l -0.70313,-0.96875 q -0.54687,0.0312 -1.01562,0.25 -0.45313,0.20313 -0.76563,0.51563 -0.42187,0.42187 -0.60937,1.14062 -0.17188,0.70313 -0.14063,1.89063 h 3.64063 l 1.1875,-0.21875 0.25,0.17187 -0.0469,2.09375 v 2.1875 q 0,0.53125 0,1.25 0.0156,0.70313 0.0312,1.3125 l 1.09375,0.21875 v 0.57813 h -3.71875 v -0.57813 l 1.20313,-0.21875 q 0.0156,-0.60937 0.0156,-1.3125 0.0156,-0.71875 0.0156,-1.25 v -0.8125 q 0,-0.85937 -0.0156,-1.40625 0,-0.5625 -0.0312,-1.17187 h -3.59375 v 3.39062 q 0,0.64063 0,1.28125 0.0156,0.625 0.0312,1.26563 l 1.42188,0.23437 v 0.57813 z m 9.7002,0 v -0.57813 l 1.28125,-0.21875 q 0.0156,-0.65625 0.0156,-1.28125 0.0156,-0.64062 0.0156,-1.28125 v -7.03125 l -1.3125,-0.15625 v -0.5625 l 2.48437,-0.71875 0.23438,0.125 -0.0625,2.28125 v 6.0625 q 0,0.64063 0,1.28125 0.0156,0.64063 0.0312,1.28125 l 1.28125,0.21875 v 0.57813 z m 7.643,0.20312 q -0.82812,0 -1.32812,-0.4375 -0.5,-0.45312 -0.5,-1.375 0,-0.3125 0,-0.60937 0.0156,-0.29688 0.0156,-0.75 v -3.78125 h -1.32812 v -0.70313 l 1.42187,-0.17187 0.42188,-2.15625 h 0.95312 l -0.0937,2.1875 h 2.17188 v 0.84375 h -2.1875 v 4.95312 q 0,0.60938 0.23437,0.89063 0.25,0.28125 0.65625,0.28125 0.26563,0 0.51563,-0.10938 0.25,-0.10937 0.54687,-0.32812 l 0.39063,0.42187 q -0.65625,0.84375 -1.89063,0.84375 z m 6.21564,-7.28125 q -0.4375,0 -0.90625,0.26563 -0.45313,0.25 -0.78125,0.8125 -0.32813,0.5625 -0.42188,1.48437 h 2.92188 q 0.57812,0 0.75,-0.23437 0.1875,-0.23438 0.1875,-0.59375 0,-0.46875 -0.23438,-0.85938 -0.23437,-0.39062 -0.625,-0.625 -0.39062,-0.25 -0.89062,-0.25 z m -0.0156,7.28125 q -1.60937,0 -2.59375,-1.04687 -0.96875,-1.04688 -0.96875,-2.89063 0,-1.21875 0.5,-2.125 0.51563,-0.92187 1.34375,-1.4375 0.84375,-0.51562 1.84375,-0.51562 0.82813,0 1.5,0.375 0.67188,0.35937 1.0625,1.04687 0.40625,0.67188 0.40625,1.65625 0,0.26563 -0.0312,0.5 -0.0312,0.23438 -0.0781,0.39063 h -5.10938 q 0.0312,1.46875 0.73438,2.25 0.70312,0.76562 1.85937,0.76562 0.76563,0 1.28125,-0.3125 0.51563,-0.3125 0.9375,-0.8125 l 0.39063,0.3125 q -0.45313,0.84375 -1.21875,1.34375 -0.76563,0.5 -1.85938,0.5 z m 4.5506,-0.20312 v -0.57813 l 1.15625,-0.20312 q 0.0156,-0.60938 0.0156,-1.3125 0.0156,-0.71875 0.0156,-1.26563 v -0.76562 q 0,-0.65625 -0.0156,-1.07813 0,-0.4375 -0.0312,-0.92187 l -1.26563,-0.14063 v -0.5625 l 2.23438,-0.98437 0.25,0.17187 0.17187,1.875 q 0.39063,-0.95312 1.01563,-1.5 0.64062,-0.54687 1.28125,-0.54687 0.375,0 0.6875,0.17187 0.32812,0.15625 0.46875,0.42188 0,1.17187 -0.9375,1.17187 -0.28125,0 -0.53125,-0.0937 -0.23438,-0.10937 -0.45313,-0.3125 l -0.1875,-0.17187 q -0.48437,0.35937 -0.8125,0.875 -0.3125,0.5 -0.51562,1.1875 v 1.20312 q 0,0.53125 0,1.23438 0.0156,0.70312 0.0312,1.3125 l 1.3125,0.23437 v 0.57813 z m 5.74481,1.0625 v -1.0625 h 6.90625 v 1.0625 z m 8.19202,-1.0625 v -0.57813 l 1.1875,-0.21875 q 0.0156,-0.60937 0.0156,-1.3125 0.0156,-0.70312 0.0156,-1.25 v -0.76562 q 0,-0.65625 -0.0156,-1.07813 0,-0.4375 -0.0312,-0.92187 l -1.26562,-0.14063 v -0.5625 l 2.23437,-0.98437 0.25,0.17187 0.125,1.28125 q 0.5625,-0.625 1.3125,-1.03125 0.75,-0.42187 1.48438,-0.42187 0.75,0 1.21875,0.35937 0.46875,0.34375 0.6875,1.15625 0.60937,-0.76562 1.35937,-1.14062 0.75,-0.375 1.53125,-0.375 0.98438,0 1.51563,0.65625 0.53125,0.65625 0.53125,2.14062 v 1.65625 q 0,0.54688 0,1.25 0.0156,0.70313 0.0312,1.3125 l 1.125,0.21875 v 0.57813 h -3.71875 v -0.57813 l 1.1875,-0.21875 q 0.0156,-0.59375 0.0156,-1.29687 0.0156,-0.71875 0.0156,-1.26563 v -1.39062 q 0,-1.125 -0.32813,-1.51563 -0.3125,-0.39062 -1.01562,-0.39062 -0.5,0 -1.01563,0.23437 -0.51562,0.21875 -1.125,0.78125 0.0156,0.17188 0.0156,0.375 0.0156,0.1875 0.0156,0.42188 v 1.48437 q 0,0.54688 0,1.25 0.0156,0.70313 0.0312,1.3125 l 1.125,0.21875 v 0.57813 h -3.71875 v -0.57813 l 1.1875,-0.21875 q 0.0156,-0.59375 0.0156,-1.29687 0.0156,-0.71875 0.0156,-1.26563 v -1.35937 q 0,-1.09375 -0.3125,-1.51563 -0.29687,-0.42187 -1,-0.42187 -0.54687,0 -1.04687,0.23437 -0.48438,0.21875 -1.07813,0.71875 v 2.34375 q 0,0.53125 0,1.25 0.0156,0.70313 0.0312,1.3125 l 1.10938,0.21875 v 0.57813 z m 20.43164,0.15625 q -0.57813,0 -0.96875,-0.32813 -0.375,-0.34375 -0.46875,-0.90625 -0.65625,0.64063 -1.15625,0.96875 -0.5,0.3125 -1.20313,0.3125 -0.875,0 -1.51562,-0.5 -0.625,-0.5 -0.625,-1.5 0,-0.45312 0.21875,-0.85937 0.21875,-0.40625 0.78125,-0.78125 0.57812,-0.39063 1.65625,-0.76563 0.375,-0.14062 0.84375,-0.28125 0.48437,-0.14062 0.96875,-0.25 v -0.40625 q 0,-1.15625 -0.35938,-1.54687 -0.34375,-0.39063 -1.14062,-0.39063 -0.1875,0 -0.40625,0.0156 -0.20313,0.0156 -0.46875,0.0937 l -0.29688,1.03125 q -0.23437,0.76562 -0.82812,0.76562 -0.67188,0 -0.76563,-0.65625 0.23438,-0.90625 1.0625,-1.4375 0.84375,-0.54687 2.0625,-0.54687 1.26563,0 1.875,0.64062 0.60938,0.625 0.60938,2.14063 v 3.42187 q 0,0.5 0.15625,0.71875 0.15625,0.21875 0.42187,0.21875 0.20313,0 0.34375,-0.0937 0.14063,-0.0937 0.28125,-0.26562 l 0.3125,0.35937 q -0.28125,0.46875 -0.625,0.65625 -0.34375,0.17188 -0.76562,0.17188 z m -4.51563,-2.1875 q 0,0.64062 0.35938,0.92187 0.375,0.26563 0.92187,0.26563 0.23438,0 0.45313,-0.0625 0.21875,-0.0625 0.51562,-0.25 0.3125,-0.1875 0.79688,-0.54688 v -2.4375 q -0.42188,0.10938 -0.82813,0.25 -0.39062,0.125 -0.64062,0.23438 -0.6875,0.26562 -1.03125,0.5625 -0.32813,0.28125 -0.4375,0.5625 -0.10938,0.26562 -0.10938,0.5 z m 6.24585,5.85937 v -0.5625 l 1.28125,-0.21875 q 0.0156,-0.65625 0.0156,-1.3125 0.0156,-0.64062 0.0156,-1.28125 v -4.57812 q 0,-0.65625 -0.0156,-1.07813 0,-0.4375 -0.0312,-0.92187 l -1.26563,-0.14063 v -0.5625 l 2.23438,-0.98437 0.25,0.17187 0.0937,1.03125 q 1.125,-1.20312 2.40625,-1.20312 0.875,0 1.5625,0.48437 0.6875,0.48438 1.09375,1.375 0.40625,0.875 0.40625,2.125 0,1.23438 -0.4375,2.14063 -0.42188,0.90625 -1.17188,1.40625 -0.75,0.48437 -1.6875,0.48437 -0.54687,0 -1.07812,-0.21875 -0.53125,-0.21875 -1.04688,-0.8125 v 1.26563 q 0,0.64062 0,1.28125 0.0156,0.65625 0.0312,1.3125 l 1.45313,0.23437 v 0.5625 z m 4.60938,-10.71875 q -0.375,0 -0.85938,0.1875 -0.46875,0.17188 -1.07812,0.6875 v 4.5 q 0.45312,0.42188 0.875,0.625 0.4375,0.1875 0.875,0.1875 0.90625,0 1.54687,-0.71875 0.64063,-0.71875 0.64063,-2.28125 0,-1.53125 -0.5625,-2.35937 -0.5625,-0.82813 -1.4375,-0.82813 z"
       fill-rule="nonzero"
       id="path81" />
    <path
       fill="#000000"
       fill-opacity="0"
       d="m 163.82677,237.07086 h 47.71654"
       fill-rule="evenodd"
       id="path83" />
    <path
       stroke="#595959"
       stroke-width="2"
       stroke-linejoin="round"
       stroke-linecap="butt"
       d="m 163.82677,237.07086 h 35.71654"
       fill-rule="evenodd"
       id="path85" />
    <path
       fill="#595959"
       stroke="#595959"
       stroke-width="2"
       stroke-linecap="butt"
       d="m 199.5433,240.37433 9.0762,-3.30347 -9.0762,-3.30346 z"
       fill-rule="evenodd"
       id="path87" />
    <path
       fill="#000000"
       fill-opacity="0"
       d="m 259.5454,237.07086 h 47.71652"
       fill-rule="evenodd"
       id="path89" />
    <path
       stroke="#595959"
       stroke-width="2"
       stroke-linejoin="round"
       stroke-linecap="butt"
       d="m 259.5454,237.07086 h 35.71652"
       fill-rule="evenodd"
       id="path91" />
    <path
       fill="#595959"
       stroke="#595959"
       stroke-width="2"
       stroke-linecap="butt"
       d="m 295.26193,240.37433 9.0762,-3.30347 -9.0762,-3.30346 z"
       fill-rule="evenodd"
       id="path93" />
    <path
       fill="#000000"
       fill-opacity="0"
       d="m 355.26404,237.07086 h 47.71655"
       fill-rule="evenodd"
       id="path95" />
    <path
       stroke="#595959"
       stroke-width="2"
       stroke-linejoin="round"
       stroke-linecap="butt"
       d="m 355.26404,237.07086 h 35.71652"
       fill-rule="evenodd"
       id="path97" />
    <path
       fill="#595959"
       stroke="#595959"
       stroke-width="2"
       stroke-linecap="butt"
       d="m 390.98056,240.37433 9.0762,-3.30347 -9.0762,-3.30346 z"
       fill-rule="evenodd"
       id="path99" />
    <path
       fill="#000000"
       fill-opacity="0"
       d="m 450.98267,237.07086 h 47.71655"
       fill-rule="evenodd"
       id="path101" />
    <path
       stroke="#595959"
       stroke-width="2"
       stroke-linejoin="round"
       stroke-linecap="butt"
       d="m 450.9827,237.07086 h 35.71652"
       fill-rule="evenodd"
       id="path103" />
    <path
       fill="#595959"
       stroke="#595959"
       stroke-width="2"
       stroke-linecap="butt"
       d="m 486.69922,240.37433 9.0762,-3.30347 -9.0762,-3.30346 z"
       fill-rule="evenodd"
       id="path105" />
    <path
       fill="#000000"
       fill-opacity="0"
       d="m 546.7013,237.07086 h 47.71655"
       fill-rule="evenodd"
       id="path107" />
    <path
       stroke="#595959"
       stroke-width="2"
       stroke-linejoin="round"
       stroke-linecap="butt"
       d="m 546.7013,237.07086 h 35.71655"
       fill-rule="evenodd"
       id="path109" />
    <path
       fill="#595959"
       stroke="#595959"
       stroke-width="2"
       stroke-linecap="butt"
       d="m 582.41785,240.37433 9.07623,-3.30347 -9.07623,-3.30346 z"
       fill-rule="evenodd"
       id="path111" />
    <path
       fill="#000000"
       fill-opacity="0"
       d="m 642.4199,237.07086 h 46.80316"
       fill-rule="evenodd"
       id="path113" />
    <path
       stroke="#595959"
       stroke-width="2"
       stroke-linejoin="round"
       stroke-linecap="butt"
       d="m 642.4199,237.07086 h 34.80316"
       fill-rule="evenodd"
       id="path115" />
    <path
       fill="#595959"
       stroke="#595959"
       stroke-width="2"
       stroke-linecap="butt"
       d="m 677.2231,240.37433 9.07623,-3.30347 -9.07623,-3.30346 z"
       fill-rule="evenodd"
       id="path117" />
    <path
       fill="#000000"
       fill-opacity="0"
       d="M 689.2231,253.07086 H 641.50661"
       fill-rule="evenodd"
       id="path123" />
    <path
       stroke="#351c75"
       stroke-width="2"
       stroke-linejoin="round"
       stroke-linecap="butt"
       d="M 689.2231,253.07086 H 653.50661"
       fill-rule="evenodd"
       id="path125" />
    <path
       fill="#351c75"
       stroke="#351c75"
       stroke-width="2"
       stroke-linecap="butt"
       d="m 653.50653,249.7674 -9.07617,3.30347 9.07617,3.30346 z"
       fill-rule="evenodd"
       id="path127" />
    <path
       fill="#000000"
       fill-opacity="0"
       d="M 593.50446,253.07086 H 545.78791"
       fill-rule="evenodd"
       id="path133" />
    <path
       stroke="#351c75"
       stroke-width="2"
       stroke-linejoin="round"
       stroke-linecap="butt"
       d="M 593.50446,253.07086 H 557.78797"
       fill-rule="evenodd"
       id="path135" />
    <path
       fill="#351c75"
       stroke="#351c75"
       stroke-width="2"
       stroke-linecap="butt"
       d="m 557.78796,249.7674 -9.07623,3.30347 9.07623,3.30346 z"
       fill-rule="evenodd"
       id="path137" />
    <path
       fill="#000000"
       fill-opacity="0"
       d="M 497.78583,253.07086 H 450.06931"
       fill-rule="evenodd"
       id="path139" />
    <path
       stroke="#351c75"
       stroke-width="2"
       stroke-linejoin="round"
       stroke-linecap="butt"
       d="M 497.78586,253.07086 H 462.06931"
       fill-rule="evenodd"
       id="path141" />
    <path
       fill="#351c75"
       stroke="#351c75"
       stroke-width="2"
       stroke-linecap="butt"
       d="m 462.0693,249.7674 -9.0762,3.30347 9.0762,3.30346 z"
       fill-rule="evenodd"
       id="path143" />
    <path
       fill="#000000"
       fill-opacity="0"
       d="M 402.0672,253.07086 H 354.35065"
       fill-rule="evenodd"
       id="path145" />
    <path
       stroke="#351c75"
       stroke-width="2"
       stroke-linejoin="round"
       stroke-linecap="butt"
       d="M 402.06717,253.07086 H 366.35065"
       fill-rule="evenodd"
       id="path147" />
    <path
       fill="#351c75"
       stroke="#351c75"
       stroke-width="2"
       stroke-linecap="butt"
       d="m 366.35065,249.7674 -9.0762,3.30347 9.0762,3.30346 z"
       fill-rule="evenodd"
       id="path149" />
    <path
       fill="#000000"
       fill-opacity="0"
       d="M 306.34854,253.07086 H 258.63202"
       fill-rule="evenodd"
       id="path151" />
    <path
       stroke="#351c75"
       stroke-width="2"
       stroke-linejoin="round"
       stroke-linecap="butt"
       d="M 306.34854,253.07086 H 270.63202"
       fill-rule="evenodd"
       id="path153" />
    <path
       fill="#351c75"
       stroke="#351c75"
       stroke-width="2"
       stroke-linecap="butt"
       d="m 270.63202,249.7674 -9.0762,3.30347 9.0762,3.30346 z"
       fill-rule="evenodd"
       id="path155" />
    <path
       fill="#000000"
       fill-opacity="0"
       d="M 210.62993,253.07086 H 163.82677"
       fill-rule="evenodd"
       id="path157" />
    <path
       stroke="#351c75"
       stroke-width="2"
       stroke-linejoin="round"
       stroke-linecap="butt"
       d="M 210.62993,253.07086 H 175.82677"
       fill-rule="evenodd"
       id="path159" />
    <path
       fill="#351c75"
       stroke="#351c75"
       stroke-width="2"
       stroke-linecap="butt"
       d="m 175.82677,249.7674 -9.07619,3.30347 9.07619,3.30346 z"
       fill-rule="evenodd"
       id="path161" />
  </g>
</svg>
