<?xml version="1.0" encoding="UTF-8" standalone="no"?>
<svg
   xmlns:dc="http://purl.org/dc/elements/1.1/"
   xmlns:cc="http://creativecommons.org/ns#"
   xmlns:rdf="http://www.w3.org/1999/02/22-rdf-syntax-ns#"
   xmlns:svg="http://www.w3.org/2000/svg"
   xmlns="http://www.w3.org/2000/svg"
   style="fill:none;stroke:none;stroke-linecap:square;stroke-miterlimit:10"
   height="206.92126"
   width="466.60629"
   id="svg621"
   stroke-miterlimit="10"
   viewBox="0 0 466.60629 206.92126"
   version="1.1">
  <metadata
     id="metadata627">
    <rdf:RDF>
      <cc:Work
         rdf:about="">
        <dc:format>image/svg+xml</dc:format>
        <dc:type
           rdf:resource="http://purl.org/dc/dcmitype/StillImage" />
        <dc:title></dc:title>
      </cc:Work>
    </rdf:RDF>
  </metadata>
  <defs
     id="defs625" />
  <clipPath
     id="g2fd53e73fb8_0_45.0">
    <path
       style="clip-rule:nonzero"
       id="path2"
       d="M 0,0 H 960 V 540 H 0 Z" />
  </clipPath>
  <g
     transform="translate(-490.92783,-18.276884)"
     id="g619"
     clip-path="url(#g2fd53e73fb8_0_45.0)">
    <path
       style="fill:#000000;fill-opacity:0;fill-rule:evenodd"
       id="path7"
       d="m 491.42783,18.776884 h 465.6063 V 224.69814 h -465.6063 z" />
    <path
       style="fill:#d9d9d9;fill-rule:evenodd"
       id="path159"
       d="m 533.9095,22.970493 h 52.78741 V 49.616165 H 533.9095 Z" />
    <path
       style="fill-rule:evenodd;stroke:#000000;stroke-width:1;stroke-linecap:butt;stroke-linejoin:round"
       id="path161"
       d="m 533.9095,22.970493 h 52.78741 V 49.616165 H 533.9095 Z" />
    <path
       style="fill:#000000;fill-rule:nonzero"
       id="path163"
       d="m 556.3743,32.106453 v -0.65625 h 7.96875 l 0.10937,2.828125 h -0.90625 l -0.35937,-2.03125 h -3.75 q -0.0156,1.03125 -0.0312,2.0625 0,1.015625 0,2 h 2.46875 l 0.23437,-1.515625 h 0.73438 v 3.9375 h -0.73438 l -0.23437,-1.671875 h -2.46875 q 0,1.1875 0,2.234375 0.0156,1.03125 0.0312,2.03125 l 1.48437,0.171875 v 0.65625 h -4.54687 v -0.65625 l 1.46875,-0.171875 q 0.0312,-1.015625 0.0312,-2.046875 0,-1.046875 0,-2.078125 v -0.796875 q 0,-1.03125 0,-2.0625 0,-1.03125 -0.0312,-2.0625 z" />
    <path
       style="fill:#d9d9d9;fill-rule:evenodd"
       id="path165"
       d="m 615.8735,22.971815 h 52.78735 v 26.64567 H 615.8735 Z" />
    <path
       style="fill-rule:evenodd;stroke:#000000;stroke-width:1;stroke-linecap:butt;stroke-linejoin:round"
       id="path167"
       d="m 615.8735,22.971815 h 52.78735 v 26.64567 H 615.8735 Z" />
    <path
       style="fill:#000000;fill-rule:nonzero"
       id="path169"
       d="m 640.32153,36.9984 q 0,1.171875 0,2.265625 0.0156,1.078125 0.0312,2.140625 h 1.26563 q 1.84375,0 2.82812,-1.203125 1,-1.21875 1,-3.390625 0,-2.25 -0.98437,-3.4375 -0.96875,-1.1875 -2.70313,-1.1875 h -1.40625 q -0.0156,1.03125 -0.0312,2.09375 0,1.0625 0,2.125 z m -3.03125,-4.890625 v -0.656252 h 4.71875 q 1.53125,0 2.70313,0.625002 1.17187,0.609375 1.82812,1.796875 0.65625,1.1875 0.65625,2.9375 0,1.734375 -0.71875,2.921875 -0.71875,1.1875 -1.96875,1.8125 -1.23437,0.609375 -2.79687,0.609375 h -4.42188 V 41.4984 l 1.46875,-0.171875 q 0.0312,-1.03125 0.0312,-2.09375 0,-1.0625 0,-2.234375 v -0.59375 q 0,-1.03125 0,-2.0625 0,-1.03125 -0.0312,-2.0625 z" />
    <path
       style="fill:#000000;fill-opacity:0;fill-rule:evenodd"
       id="path171"
       d="m 481.47336,58.56168 h 52.81888 v 20.724407 h -52.81888 z" />
    <path
       style="fill:#000000;fill-rule:nonzero"
       id="path173"
       d="m 503.3633,66.82451 0.14062,-2.84375 h 8.7656 l 0.125,2.84375 h -0.92185 l -0.35937,-2.046875 h -2.45313 q -0.0156,1.03125 -0.0312,2.078125 0,1.03125 0,2.078125 v 0.796875 q 0,1.015625 0,2.046875 0.0156,1.03125 0.0312,2.078125 l 1.64063,0.171875 v 0.65625 h -4.82813 v -0.65625 l 1.625,-0.171875 q 0.0312,-1.03125 0.0312,-2.0625 0,-1.03125 0,-2.0625 v -0.796875 q 0,-1.03125 0,-2.0625 0,-1.046875 -0.0312,-2.09375 h -2.45312 l -0.34375,2.046875 z" />
    <path
       style="fill:#f3f3f3;fill-rule:evenodd"
       id="path175"
       d="m 534.3287,58.557693 h 51.93701 V 79.282104 H 534.3287 Z" />
    <path
       style="fill-rule:evenodd;stroke:#000000;stroke-width:1;stroke-linecap:butt;stroke-linejoin:round"
       id="path177"
       d="m 534.3287,58.557693 h 51.93701 V 79.282104 H 534.3287 Z" />
    <path
       style="fill:#000000;fill-rule:nonzero"
       id="path179"
       d="m 554.555,64.796776 v -0.609375 h 4.15625 v 0.609375 l -1.35938,0.15625 q -0.0156,0.921875 -0.0156,1.875 0,0.953125 0,1.90625 v 0.71875 q 0,0.9375 0,1.890625 0,0.9375 0.0156,1.890625 l 1.35938,0.171875 v 0.59375 H 554.555 v -0.59375 l 1.35937,-0.171875 q 0.0156,-0.921875 0.0156,-1.875 0,-0.953125 0,-1.90625 v -0.71875 q 0,-0.953125 0,-1.890625 0,-0.953125 -0.0156,-1.890625 z m 6.04687,0.390625 3.01563,-0.765625 0.20312,0.140625 -0.0625,2.09375 v 4.25 q 0,0.546875 0,1.109375 0.0156,0.546875 0.0312,1.109375 l 2.07813,0.34375 v 0.53125 H 560.43 v -0.53125 l 2.07812,-0.34375 q 0.0156,-0.5625 0.0156,-1.109375 0.0156,-0.5625 0.0156,-1.109375 v -5.28125 l -1.9375,0.171875 z" />
    <path
       style="fill:#000000;fill-opacity:0;fill-rule:evenodd"
       id="path181"
       d="m 668.6608,97.6747 29.25989,28.75591" />
    <path
       style="fill-rule:evenodd;stroke:#000000;stroke-width:1;stroke-linecap:butt;stroke-linejoin:round"
       id="path183"
       d="m 668.6608,97.6747 24.98047,24.55028" />
    <path
       style="fill:#000000;fill-rule:evenodd;stroke:#000000;stroke-width:1;stroke-linecap:butt"
       id="path185"
       d="m 692.4836,123.40302 4.39447,2.00288 -2.07892,-4.35898 z" />
    <path
       style="fill:#000000;fill-opacity:0;fill-rule:evenodd"
       id="path187"
       d="m 586.2657,68.9199 29.60632,28.755905" />
    <path
       style="fill-rule:evenodd;stroke:#000000;stroke-width:1;stroke-linecap:butt;stroke-linejoin:round"
       id="path189"
       d="m 586.2657,68.9199 25.30231,24.575531" />
    <path
       style="fill:#000000;fill-rule:evenodd;stroke:#000000;stroke-width:1;stroke-linecap:butt"
       id="path191"
       d="m 610.4172,94.68027 4.40619,1.976982 -2.10455,-4.346672 z" />
    <path
       style="fill:#000000;fill-opacity:0;fill-rule:evenodd"
       id="path193"
       d="m 750.6248,126.42524 29.25983,28.7559" />
    <path
       style="fill-rule:evenodd;stroke:#000000;stroke-width:1;stroke-linecap:butt;stroke-linejoin:round"
       id="path195"
       d="m 750.62476,126.42524 24.98047,24.55027" />
    <path
       style="fill:#000000;fill-rule:evenodd;stroke:#000000;stroke-width:1;stroke-linecap:butt"
       id="path197"
       d="m 774.4475,152.15356 4.39441,2.00287 -2.07892,-4.35898 z" />
    <path
       style="fill:#000000;fill-opacity:0;fill-rule:evenodd"
       id="path199"
       d="m 697.869,188.73412 h 52.81891 v 38.26771 H 697.869 Z" />
    <path
       style="fill:#000000;fill-rule:nonzero"
       id="path201"
       d="m 719.07465,218.82672 q -0.51562,0 -0.875,-0.35938 -0.34375,-0.35937 -0.34375,-0.85937 0,-0.53125 0.34375,-0.89063 0.35938,-0.35937 0.875,-0.35937 0.53125,0 0.875,0.35937 0.35938,0.35938 0.35938,0.89063 0,0.5 -0.35938,0.85937 -0.34375,0.35938 -0.875,0.35938 z m 5.20313,0 q -0.51563,0 -0.875,-0.35938 -0.34375,-0.35937 -0.34375,-0.85937 0,-0.53125 0.34375,-0.89063 0.35937,-0.35937 0.875,-0.35937 0.53125,0 0.875,0.35937 0.35937,0.35938 0.35937,0.89063 0,0.5 -0.35937,0.85937 -0.34375,0.35938 -0.875,0.35938 z m 5.1875,0 q -0.51563,0 -0.875,-0.35938 -0.34375,-0.35937 -0.34375,-0.85937 0,-0.53125 0.34375,-0.89063 0.35937,-0.35937 0.875,-0.35937 0.53125,0 0.875,0.35937 0.35937,0.35938 0.35937,0.89063 0,0.5 -0.35937,0.85937 -0.34375,0.35938 -0.875,0.35938 z" />
    <path
       style="fill:#000000;fill-opacity:0;fill-rule:evenodd"
       id="path203"
       d="m 481.47336,87.31234 h 52.81888 v 20.7244 h -52.81888 z" />
    <path
       style="fill:#000000;fill-rule:nonzero"
       id="path205"
       d="m 495.1153,95.575165 0.14062,-2.84375 h 8.76563 l 0.125,2.84375 h -0.92188 L 502.8653,93.52829 h -2.45313 q -0.0156,1.03125 -0.0312,2.078125 0,1.03125 0,2.078125 v 0.796875 q 0,1.015625 0,2.046875 0.0156,1.03125 0.0312,2.07812 l 1.64063,0.17188 v 0.65625 h -4.82813 v -0.65625 l 1.625,-0.17188 q 0.0312,-1.03125 0.0312,-2.0625 0,-1.031245 0,-2.062495 V 97.68454 q 0,-1.03125 0,-2.0625 0,-1.046875 -0.0312,-2.09375 h -2.45312 l -0.34375,2.046875 z m 13.11713,6.624995 v -3.57812 h -3.29688 v -0.921875 h 3.29688 v -3.5 h 0.96875 v 3.5 h 3.29687 v 0.921875 h -3.29687 v 3.57812 z m 6.08978,-8.374995 3.29687,-0.859375 0.21875,0.171875 -0.0625,2.28125 v 4.640625 q 0,0.59375 0,1.20312 0.0156,0.60938 0.0312,1.21875 l 2.28125,0.375 v 0.57813 h -5.9375 v -0.57813 l 2.25,-0.375 q 0.0156,-0.60937 0.0156,-1.21875 0.0156,-0.60937 0.0156,-1.20312 v -5.765625 l -2.10937,0.1875 z" />
    <path
       style="fill:#f3f3f3;fill-rule:evenodd"
       id="path207"
       d="m 615.8735,87.31249 h 52.78735 V 108.0369 H 615.8735 Z" />
    <path
       style="fill-rule:evenodd;stroke:#000000;stroke-width:1;stroke-linecap:butt;stroke-linejoin:round"
       id="path209"
       d="m 615.8735,87.31249 h 52.78735 V 108.0369 H 615.8735 Z" />
    <path
       style="fill:#000000;fill-rule:nonzero"
       id="path211"
       d="M 636.52496,93.551575 V 92.9422 h 4.15625 v 0.609375 l -1.35938,0.15625 q -0.0156,0.921875 -0.0156,1.875 0,0.953125 0,1.90625 v 0.71875 q 0,0.9375 0,1.890625 0,0.9375 0.0156,1.89063 l 1.35938,0.17187 v 0.59375 h -4.15625 v -0.59375 l 1.35937,-0.17187 q 0.0156,-0.92188 0.0156,-1.875 0,-0.95313 0,-1.906255 v -0.71875 q 0,-0.953125 0,-1.890625 0,-0.953125 -0.0156,-1.890625 z m 6.04687,0.390625 3.01563,-0.765625 0.20312,0.140625 -0.0625,2.09375 v 4.25 q 0,0.54688 0,1.10938 0.0156,0.54687 0.0312,1.10937 l 2.07813,0.34375 v 0.53125 h -5.4375 v -0.53125 l 2.07812,-0.34375 q 0.0156,-0.5625 0.0156,-1.10937 0.0156,-0.5625 0.0156,-1.10938 V 94.3797 l -1.9375,0.171875 z" />
    <path
       style="fill:#d9d9d9;fill-rule:evenodd"
       id="path213"
       d="m 697.8374,22.970493 h 52.78741 V 49.616165 H 697.8374 Z" />
    <path
       style="fill-rule:evenodd;stroke:#000000;stroke-width:1;stroke-linecap:butt;stroke-linejoin:round"
       id="path215"
       d="m 697.8374,22.970493 h 52.78741 V 49.616165 H 697.8374 Z" />
    <path
       style="fill:#000000;fill-rule:nonzero"
       id="path217"
       d="m 720.1102,32.106453 v -0.65625 h 7.96875 l 0.10937,2.828125 h -0.90625 l -0.35937,-2.03125 h -3.75 q -0.0156,1.03125 -0.0312,2.0625 0,1.015625 0,2 h 2.34375 l 0.21875,-1.515625 h 0.75 v 3.78125 h -0.75 l -0.20313,-1.515625 h -2.35937 q 0,1.203125 0,2.25 0.0156,1.046875 0.0312,2.046875 h 4.07812 l 0.34375,-2.046875 h 0.92188 l -0.125,2.84375 h -8.28125 v -0.65625 l 1.46875,-0.171875 q 0.0312,-1.015625 0.0312,-2.046875 0,-1.046875 0,-2.078125 v -0.796875 q 0,-1.03125 0,-2.0625 0,-1.03125 -0.0312,-2.0625 z" />
    <path
       style="fill:#d9d9d9;fill-rule:evenodd"
       id="path219"
       d="m 779.80133,22.971815 h 52.78742 v 26.64567 h -52.78742 z" />
    <path
       style="fill-rule:evenodd;stroke:#000000;stroke-width:1;stroke-linecap:butt;stroke-linejoin:round"
       id="path221"
       d="m 779.80133,22.971815 h 52.78742 v 26.64567 h -52.78742 z" />
    <path
       style="fill:#000000;fill-rule:nonzero"
       id="path223"
       d="M 799.604,42.15465 V 41.4984 l 1.4375,-0.203125 V 32.27965 l -1.4375,-0.171875 v -0.656252 h 2.95313 l 3.59375,8.796877 3.39062,-8.796877 h 3.15625 v 0.656252 l -1.48437,0.171875 q -0.0156,1.015625 -0.0312,2.0625 0,1.03125 0,2.0625 v 0.796875 q 0,1.015625 0,2.046875 0.0156,1.03125 0.0312,2.078125 l 1.48437,0.171875 v 0.65625 h -4.35937 V 41.4984 l 1.34375,-0.171875 q 0.0312,-1.015625 0.0312,-2.046875 0,-1.046875 0,-2.0625 v -3.984375 l -3.46875,8.921875 h -0.79688 l -3.67187,-8.921875 0.0937,3.015625 v 5.046875 l 1.3125,0.203125 v 0.65625 z" />
    <path
       style="fill:#d9d9d9;fill-rule:evenodd"
       id="path225"
       d="m 861.76526,22.971815 h 52.78742 v 26.64567 h -52.78742 z" />
    <path
       style="fill-rule:evenodd;stroke:#000000;stroke-width:1;stroke-linecap:butt;stroke-linejoin:round"
       id="path227"
       d="m 861.76526,22.971815 h 52.78742 v 26.64567 h -52.78742 z" />
    <path
       style="fill:#000000;fill-rule:nonzero"
       id="path229"
       d="m 892.0723,32.107777 v -0.656252 h 3.64063 v 0.656252 l -1.34375,0.1875 -2.70313,9.96875 h -0.6875 l -2.76562,-8.28125 -2.60938,8.28125 h -0.6875 l -2.89062,-10 -1.32813,-0.15625 v -0.656252 h 4.35938 v 0.656252 l -1.46875,0.171875 1.96875,7.34375 2.42187,-7.328125 -1.59375,-0.1875 v -0.656252 h 4.34375 v 0.656252 l -1.60937,0.1875 2.39062,7.40625 2.03125,-7.390625 z" />
    <path
       style="fill:#f3f3f3;fill-rule:evenodd"
       id="path231"
       d="m 697.9319,116.06303 h 52.69293 v 20.72441 H 697.9319 Z" />
    <path
       style="fill-rule:evenodd;stroke:#000000;stroke-width:1;stroke-linecap:butt;stroke-linejoin:round"
       id="path233"
       d="m 697.9319,116.06303 h 52.69293 v 20.72441 H 697.9319 Z" />
    <path
       style="fill:#000000;fill-rule:nonzero"
       id="path235"
       d="m 718.53613,122.30212 v -0.60937 h 4.15625 v 0.60937 l -1.35938,0.15625 q -0.0156,0.92188 -0.0156,1.875 0,0.95313 0,1.90625 v 0.71875 q 0,0.9375 0,1.89062 0,0.9375 0.0156,1.89062 l 1.35938,0.17188 v 0.59375 h -4.15625 v -0.59375 l 1.35937,-0.17188 q 0.0156,-0.92187 0.0156,-1.875 0,-0.95311 0,-1.90624 v -0.71875 q 0,-0.95312 0,-1.89062 0,-0.95313 -0.0156,-1.89063 z m 6.04687,0.39063 3.01563,-0.76563 0.20312,0.14063 -0.0625,2.09375 v 4.24999 q 0,0.54687 0,1.10937 0.0156,0.54688 0.0312,1.10938 l 2.07813,0.34375 v 0.53125 h -5.4375 v -0.53125 l 2.07812,-0.34375 q 0.0156,-0.5625 0.0156,-1.10938 0.0156,-0.5625 0.0156,-1.10937 v -5.28124 l -1.9375,0.17187 z" />
    <path
       style="fill:#000000;fill-opacity:0;fill-rule:evenodd"
       id="path237"
       d="m 481.47336,116.063 h 52.81888 v 20.7244 h -52.81888 z" />
    <path
       style="fill:#000000;fill-rule:nonzero"
       id="path239"
       d="m 495.1153,124.32582 0.14062,-2.84375 h 8.76563 l 0.125,2.84375 h -0.92188 l -0.35937,-2.04688 h -2.45313 q -0.0156,1.03125 -0.0312,2.07813 0,1.03125 0,2.07812 v 0.79688 q 0,1.01562 0,2.04687 0.0156,1.03125 0.0312,2.07813 l 1.64063,0.17187 v 0.65625 h -4.82813 v -0.65625 l 1.625,-0.17187 q 0.0312,-1.03125 0.0312,-2.0625 0,-1.03125 0,-2.0625 v -0.79688 q 0,-1.03125 0,-2.0625 0,-1.04687 -0.0312,-2.09375 h -2.45312 l -0.34375,2.04688 z m 13.11713,6.625 v -3.57813 h -3.29688 v -0.92187 h 3.29688 v -3.5 h 0.96875 v 3.5 h 3.29687 v 0.92187 h -3.29687 v 3.57813 z m 5.51165,1.23437 v -1.04687 q 0.64063,-0.60938 1.23438,-1.21875 0.60937,-0.625 1.125,-1.17188 1.20312,-1.26562 1.75,-2.28125 0.5625,-1.03125 0.5625,-1.96875 0,-0.98437 -0.51563,-1.5625 -0.51562,-0.57812 -1.40625,-0.57812 -0.15625,0 -0.35937,0.0156 -0.1875,0.0156 -0.42188,0.0625 l -0.29687,1.10938 q -0.15625,0.59375 -0.375,0.84375 -0.21875,0.25 -0.5625,0.25 -0.51563,0 -0.8125,-0.51563 0.0937,-0.84375 0.5625,-1.39062 0.46875,-0.5625 1.17187,-0.82813 0.70313,-0.26562 1.5,-0.26562 1.54688,0 2.25,0.76562 0.71875,0.75 0.71875,1.95313 0,0.70312 -0.28125,1.375 -0.28125,0.65625 -0.96875,1.48437 -0.6875,0.82813 -1.92187,2.01563 -0.32813,0.3125 -0.78125,0.75 -0.45313,0.42187 -0.95313,0.89062 h 5.35938 v 1.3125 z" />
    <path
       style="fill:#000000;fill-opacity:0;fill-rule:evenodd"
       id="path241"
       d="m 586.6969,36.293327 h 29.16534" />
    <path
       style="fill-rule:evenodd;stroke:#000000;stroke-width:1;stroke-linecap:butt;stroke-linejoin:round"
       id="path243"
       d="M 586.69696,36.293327 H 609.8623" />
    <path
       style="fill:#000000;fill-rule:evenodd;stroke:#000000;stroke-width:1;stroke-linecap:butt"
       id="path245"
       d="m 609.8623,37.94506 4.53809,-1.651733 -4.53809,-1.651734 z" />
    <path
       style="fill:#000000;fill-opacity:0;fill-rule:evenodd"
       id="path247"
       d="m 668.6608,36.29465 h 29.1654" />
    <path
       style="fill-rule:evenodd;stroke:#000000;stroke-width:1;stroke-linecap:butt;stroke-linejoin:round"
       id="path249"
       d="m 668.6608,36.29465 h 23.16534" />
    <path
       style="fill:#000000;fill-rule:evenodd;stroke:#000000;stroke-width:1;stroke-linecap:butt"
       id="path251"
       d="m 691.8262,37.946384 4.53815,-1.651733 -4.53815,-1.651734 z" />
    <path
       style="fill:#000000;fill-opacity:0;fill-rule:evenodd"
       id="path253"
       d="m 750.6248,36.293327 h 29.16534" />
    <path
       style="fill-rule:evenodd;stroke:#000000;stroke-width:1;stroke-linecap:butt;stroke-linejoin:round"
       id="path255"
       d="M 750.62476,36.293327 H 773.7901" />
    <path
       style="fill:#000000;fill-rule:evenodd;stroke:#000000;stroke-width:1;stroke-linecap:butt"
       id="path257"
       d="m 773.7901,37.94506 4.53809,-1.651733 -4.53809,-1.651734 z" />
    <path
       style="fill:#000000;fill-opacity:0;fill-rule:evenodd"
       id="path259"
       d="m 832.58875,36.29465 h 29.16534" />
    <path
       style="fill-rule:evenodd;stroke:#000000;stroke-width:1;stroke-linecap:butt;stroke-linejoin:round"
       id="path261"
       d="m 832.58875,36.29465 h 23.16534" />
    <path
       style="fill:#000000;fill-rule:evenodd;stroke:#000000;stroke-width:1;stroke-linecap:butt"
       id="path263"
       d="m 855.7541,37.946384 4.53809,-1.651733 -4.53809,-1.651734 z" />
    <path
       style="fill:#f3f3f3;fill-rule:evenodd"
       id="path265"
       d="m 779.8958,144.81369 h 52.69293 V 165.5381 H 779.8958 Z" />
    <path
       style="fill-rule:evenodd;stroke:#000000;stroke-width:1;stroke-linecap:butt;stroke-linejoin:round"
       id="path267"
       d="m 779.8958,144.81369 h 52.69293 V 165.5381 H 779.8958 Z" />
    <path
       style="fill:#000000;fill-rule:nonzero"
       id="path269"
       d="m 800.50006,151.05276 v -0.60938 h 4.15625 v 0.60938 l -1.35938,0.15625 q -0.0156,0.92187 -0.0156,1.875 0,0.95312 0,1.90625 v 0.71875 q 0,0.9375 0,1.89062 0,0.9375 0.0156,1.89063 l 1.35938,0.17187 v 0.59375 h -4.15625 v -0.59375 l 1.35937,-0.17187 q 0.0156,-0.92188 0.0156,-1.875 0,-0.95313 0,-1.90625 v -0.71875 q 0,-0.95313 0,-1.89063 0,-0.95312 -0.0156,-1.89062 z m 6.04687,0.39062 3.01563,-0.76562 0.20312,0.14062 -0.0625,2.09375 v 4.25 q 0,0.54688 0,1.10938 0.0156,0.54687 0.0312,1.10937 l 2.07813,0.34375 v 0.53125 h -5.4375 v -0.53125 l 2.07812,-0.34375 q 0.0156,-0.5625 0.0156,-1.10937 0.0156,-0.5625 0.0156,-1.10938 v -5.28125 l -1.9375,0.17188 z" />
    <path
       style="fill:#000000;fill-opacity:0;fill-rule:evenodd"
       id="path271"
       d="m 481.47336,144.81364 h 52.81888 v 20.72441 h -52.81888 z" />
    <path
       style="fill:#000000;fill-rule:nonzero"
       id="path273"
       d="m 495.1153,153.07648 0.14062,-2.84375 h 8.76563 l 0.125,2.84375 h -0.92188 l -0.35937,-2.04688 h -2.45313 q -0.0156,1.03125 -0.0312,2.07813 0,1.03125 0,2.07812 v 0.79688 q 0,1.01562 0,2.04687 0.0156,1.03125 0.0312,2.07813 l 1.64063,0.17187 v 0.65625 h -4.82813 v -0.65625 l 1.625,-0.17187 q 0.0312,-1.03125 0.0312,-2.0625 0,-1.03125 0,-2.0625 v -0.79688 q 0,-1.03125 0,-2.0625 0,-1.04687 -0.0312,-2.09375 h -2.45312 l -0.34375,2.04688 z m 13.11713,6.625 v -3.57813 h -3.29688 v -0.92187 h 3.29688 v -3.5 h 0.96875 v 3.5 h 3.29687 v 0.92187 h -3.29687 v 3.57813 z m 7.44915,-4.60938 h 0.64063 q 1.07812,0 1.67187,-0.54687 0.60938,-0.5625 0.60938,-1.59375 0,-0.875 -0.5,-1.35938 -0.5,-0.48437 -1.45313,-0.48437 -0.15625,0 -0.32812,0.0156 -0.17188,0.0156 -0.40625,0.0469 l -0.20313,0.8125 q -0.125,0.48437 -0.32812,0.73437 -0.1875,0.25 -0.59375,0.25 -0.26563,0 -0.46875,-0.125 -0.20313,-0.125 -0.3125,-0.4375 0.21875,-1 1.01562,-1.5 0.79688,-0.51562 1.90625,-0.51562 1.40625,0 2.23438,0.70312 0.82812,0.6875 0.82812,1.8125 0,0.85938 -0.54687,1.54688 -0.54688,0.67187 -1.54688,1.03125 1.23438,0.23437 1.82813,0.92187 0.59375,0.6875 0.59375,1.6875 0,0.85938 -0.45313,1.54688 -0.4375,0.6875 -1.25,1.09375 -0.79687,0.40625 -1.89062,0.40625 -1.15625,0 -2,-0.53125 -0.84375,-0.53125 -1.0625,-1.73438 0.26562,-0.53125 0.8125,-0.53125 0.42187,0 0.59375,0.28125 0.1875,0.26563 0.35937,0.875 l 0.20313,0.82813 q 0.26562,0.0625 0.48437,0.0781 0.23438,0.0156 0.40625,0.0156 1.1875,0 1.78125,-0.60938 0.59375,-0.625 0.59375,-1.6875 0,-1.04687 -0.60937,-1.64062 -0.60938,-0.59375 -1.84375,-0.59375 h -0.76563 z" />
    <path
       style="fill:#000000;fill-opacity:0;fill-rule:evenodd"
       id="path275"
       d="m 481.47336,173.5643 h 52.81888 v 20.72441 h -52.81888 z" />
    <path
       style="fill:#000000;fill-rule:nonzero"
       id="path277"
       d="m 495.1153,181.82713 0.14062,-2.84375 h 8.76563 l 0.125,2.84375 h -0.92188 l -0.35937,-2.04688 h -2.45313 q -0.0156,1.03125 -0.0312,2.07813 0,1.03125 0,2.07812 v 0.79688 q 0,1.01562 0,2.04687 0.0156,1.03125 0.0312,2.07813 l 1.64063,0.17187 v 0.65625 h -4.82813 v -0.65625 l 1.625,-0.17187 q 0.0312,-1.03125 0.0312,-2.0625 0,-1.03125 0,-2.0625 v -0.79688 q 0,-1.03125 0,-2.0625 0,-1.04687 -0.0312,-2.09375 h -2.45312 l -0.34375,2.04688 z m 13.11713,6.625 V 184.874 h -3.29688 v -0.92187 h 3.29688 v -3.5 h 0.96875 v 3.5 h 3.29687 v 0.92187 h -3.29687 v 3.57813 z m 12.4804,-1.85938 h -1.6875 v 3.09375 h -1.32812 v -3.09375 h -4.34375 V 185.749 l 4.75,-6.54687 h 0.92187 v 6.39062 h 1.6875 z m -6.40625,-1 h 3.39063 V 180.874 Z" />
    <path
       style="fill:#f3f3f3;fill-rule:evenodd"
       id="path279"
       d="m 861.85974,173.56435 h 52.69293 v 20.72441 h -52.69293 z" />
    <path
       style="fill-rule:evenodd;stroke:#000000;stroke-width:1;stroke-linecap:butt;stroke-linejoin:round"
       id="path281"
       d="m 861.85974,173.56435 h 52.69293 v 20.72441 h -52.69293 z" />
    <path
       style="fill:#000000;fill-rule:nonzero"
       id="path283"
       d="m 882.46405,179.80342 v -0.60938 h 4.15625 v 0.60938 l -1.35937,0.15625 q -0.0156,0.92187 -0.0156,1.875 0,0.95312 0,1.90625 v 0.71875 q 0,0.9375 0,1.89062 0,0.9375 0.0156,1.89063 l 1.35937,0.17187 v 0.59375 h -4.15625 v -0.59375 l 1.35938,-0.17187 q 0.0156,-0.92188 0.0156,-1.875 0,-0.95313 0,-1.90625 v -0.71875 q 0,-0.95313 0,-1.89063 0,-0.95312 -0.0156,-1.89062 z m 6.04681,0.39062 3.01563,-0.76562 0.20312,0.14062 -0.0625,2.09375 v 4.25 q 0,0.54688 0,1.10938 0.0156,0.54687 0.0312,1.10937 l 2.07813,0.34375 v 0.53125 h -5.4375 v -0.53125 l 2.07812,-0.34375 q 0.0156,-0.5625 0.0156,-1.10937 0.0156,-0.5625 0.0156,-1.10938 v -5.28125 l -1.9375,0.17188 z" />
    <path
       style="fill:#000000;fill-opacity:0;fill-rule:evenodd"
       id="path285"
       d="m 832.58875,155.17589 29.25983,28.75591" />
    <path
       style="fill-rule:evenodd;stroke:#000000;stroke-width:1;stroke-linecap:butt;stroke-linejoin:round"
       id="path287"
       d="m 832.58875,155.17589 24.98047,24.55028" />
    <path
       style="fill:#000000;fill-rule:evenodd;stroke:#000000;stroke-width:1;stroke-linecap:butt"
       id="path289"
       d="m 856.4115,180.90422 4.39441,2.00287 -2.07892,-4.35898 z" />
    <path
       style="fill:#000000;fill-opacity:0;fill-rule:evenodd"
       id="path291"
       d="m 534.3287,87.3136 h 51.93701 v 20.72441 H 534.3287 Z" />
    <path
       style="fill-rule:evenodd;stroke:#999999;stroke-width:1;stroke-linecap:butt;stroke-linejoin:round"
       id="path293"
       d="m 534.3287,87.3136 h 51.93701 v 20.72441 H 534.3287 Z" />
    <path
       style="fill:#999999;fill-rule:nonzero"
       id="path295"
       d="m 554.555,93.55268 v -0.609375 h 4.15625 v 0.609375 l -1.35938,0.15625 q -0.0156,0.921875 -0.0156,1.875 0,0.953125 0,1.90625 v 0.71875 q 0,0.9375 0,1.89062 0,0.9375 0.0156,1.89063 l 1.35938,0.17187 v 0.59375 H 554.555 v -0.59375 l 1.35937,-0.17187 q 0.0156,-0.92188 0.0156,-1.875 0,-0.953125 0,-1.90625 v -0.71875 q 0,-0.953125 0,-1.890625 0,-0.953125 -0.0156,-1.890625 z m 5.51562,9.20312 v -0.95312 q 0.57813,-0.57813 1.125,-1.14063 0.54688,-0.5625 1.01563,-1.062495 1.10937,-1.15625 1.60937,-2.09375 0.51563,-0.9375 0.51563,-1.78125 0,-0.90625 -0.48438,-1.4375 -0.46875,-0.53125 -1.26562,-0.53125 -0.15625,0 -0.34375,0.01563 -0.17188,0.01563 -0.375,0.0625 l -0.28125,1 q -0.14063,0.546875 -0.34375,0.78125 -0.20313,0.21875 -0.5,0.21875 -0.48438,0 -0.75,-0.46875 0.0781,-0.765625 0.5,-1.265625 0.4375,-0.515625 1.07812,-0.75 0.64063,-0.25 1.375,-0.25 1.42188,0 2.0625,0.703125 0.65625,0.6875 0.65625,1.78125 0,0.65625 -0.26562,1.265625 -0.25,0.59375 -0.89063,1.359375 -0.625,0.75 -1.75,1.828115 -0.29687,0.29688 -0.71875,0.70313 -0.40625,0.39062 -0.85937,0.8125 h 4.90625 v 1.20312 z" />
    <path
       style="fill:#000000;fill-opacity:0;fill-rule:evenodd"
       id="path297"
       d="m 668.6608,126.4306 29.25989,28.7559" />
    <path
       style="fill-rule:evenodd;stroke:#999999;stroke-width:1;stroke-linecap:butt;stroke-linejoin:round"
       id="path299"
       d="m 668.6608,126.4306 24.98047,24.55028" />
    <path
       style="fill:#999999;fill-rule:evenodd;stroke:#999999;stroke-width:1;stroke-linecap:butt"
       id="path301"
       d="m 692.4836,152.15894 4.39447,2.00287 -2.07892,-4.35898 z" />
    <path
       style="fill:#000000;fill-opacity:0;fill-rule:evenodd"
       id="path303"
       d="m 586.2657,97.675804 29.60632,28.755906" />
    <path
       style="fill-rule:evenodd;stroke:#999999;stroke-width:1;stroke-linecap:butt;stroke-linejoin:round"
       id="path305"
       d="m 586.2657,97.675804 25.30231,24.575526" />
    <path
       style="fill:#999999;fill-rule:evenodd;stroke:#999999;stroke-width:1;stroke-linecap:butt"
       id="path307"
       d="m 610.4172,123.43617 4.40619,1.97698 -2.10455,-4.34667 z" />
    <path
       style="fill:#000000;fill-opacity:0;fill-rule:evenodd"
       id="path309"
       d="m 750.6248,155.18114 29.25983,28.7559" />
    <path
       style="fill-rule:evenodd;stroke:#999999;stroke-width:1;stroke-linecap:butt;stroke-linejoin:round"
       id="path311"
       d="m 750.62476,155.18114 24.98047,24.55028" />
    <path
       style="fill:#999999;fill-rule:evenodd;stroke:#999999;stroke-width:1;stroke-linecap:butt"
       id="path313"
       d="m 774.4475,180.90947 4.39441,2.00287 -2.07892,-4.35896 z" />
    <path
       style="fill:#000000;fill-opacity:0;fill-rule:evenodd"
       id="path315"
       d="m 615.8735,116.0684 h 52.78735 v 20.72442 H 615.8735 Z" />
    <path
       style="fill-rule:evenodd;stroke:#999999;stroke-width:1;stroke-linecap:butt;stroke-linejoin:round"
       id="path317"
       d="m 615.8735,116.0684 h 52.78735 v 20.72442 H 615.8735 Z" />
    <path
       style="fill:#999999;fill-rule:nonzero"
       id="path319"
       d="m 636.52496,122.30748 v -0.60938 h 4.15625 v 0.60938 l -1.35938,0.15625 q -0.0156,0.92187 -0.0156,1.875 0,0.95312 0,1.90625 v 0.71875 q 0,0.9375 0,1.89062 0,0.9375 0.0156,1.89063 l 1.35938,0.17187 v 0.59375 h -4.15625 v -0.59375 l 1.35937,-0.17187 q 0.0156,-0.92188 0.0156,-1.875 0,-0.95313 0,-1.90625 v -0.71875 q 0,-0.95313 0,-1.89063 0,-0.95312 -0.0156,-1.89062 z m 5.51562,9.20312 v -0.95312 q 0.57813,-0.57813 1.125,-1.14063 0.54688,-0.5625 1.01563,-1.0625 1.10937,-1.15625 1.60937,-2.09375 0.51563,-0.9375 0.51563,-1.78125 0,-0.90625 -0.48438,-1.4375 -0.46875,-0.53125 -1.26562,-0.53125 -0.15625,0 -0.34375,0.0156 -0.17188,0.0156 -0.375,0.0625 l -0.28125,1 q -0.14063,0.54687 -0.34375,0.78125 -0.20313,0.21875 -0.5,0.21875 -0.48438,0 -0.75,-0.46875 0.0781,-0.76563 0.5,-1.26563 0.4375,-0.51562 1.07812,-0.75 0.64063,-0.25 1.375,-0.25 1.42188,0 2.0625,0.70313 0.65625,0.6875 0.65625,1.78125 0,0.65625 -0.26562,1.26562 -0.25,0.59375 -0.89063,1.35938 -0.625,0.75 -1.75,1.82812 -0.29687,0.29688 -0.71875,0.70313 -0.40625,0.39062 -0.85937,0.8125 h 4.90625 v 1.20312 z" />
    <path
       style="fill:#000000;fill-opacity:0;fill-rule:evenodd"
       id="path321"
       d="m 697.9319,144.81894 h 52.69293 v 20.72441 H 697.9319 Z" />
    <path
       style="fill-rule:evenodd;stroke:#999999;stroke-width:1;stroke-linecap:butt;stroke-linejoin:round"
       id="path323"
       d="m 697.9319,144.81894 h 52.69293 v 20.72441 H 697.9319 Z" />
    <path
       style="fill:#999999;fill-rule:nonzero"
       id="path325"
       d="m 718.53613,151.05801 v -0.60938 h 4.15625 v 0.60938 l -1.35938,0.15625 q -0.0156,0.92187 -0.0156,1.875 0,0.95312 0,1.90625 v 0.71875 q 0,0.9375 0,1.89062 0,0.9375 0.0156,1.89063 l 1.35938,0.17187 v 0.59375 h -4.15625 v -0.59375 l 1.35937,-0.17187 q 0.0156,-0.92188 0.0156,-1.875 0,-0.95313 0,-1.90625 v -0.71875 q 0,-0.95313 0,-1.89063 0,-0.95312 -0.0156,-1.89062 z m 5.51562,9.20312 v -0.95312 q 0.57813,-0.57813 1.125,-1.14063 0.54688,-0.5625 1.01563,-1.0625 1.10937,-1.15625 1.60937,-2.09375 0.51563,-0.9375 0.51563,-1.78125 0,-0.90625 -0.48438,-1.4375 -0.46875,-0.53125 -1.26562,-0.53125 -0.15625,0 -0.34375,0.0156 -0.17188,0.0156 -0.375,0.0625 l -0.28125,1 q -0.14063,0.54687 -0.34375,0.78125 -0.20313,0.21875 -0.5,0.21875 -0.48438,0 -0.75,-0.46875 0.0781,-0.76563 0.5,-1.26563 0.4375,-0.51562 1.07812,-0.75 0.64063,-0.25 1.375,-0.25 1.42188,0 2.0625,0.70313 0.65625,0.6875 0.65625,1.78125 0,0.65625 -0.26562,1.26562 -0.25,0.59375 -0.89063,1.35938 -0.625,0.75 -1.75,1.82812 -0.29687,0.29688 -0.71875,0.70313 -0.40625,0.39062 -0.85937,0.8125 h 4.90625 v 1.20312 z" />
    <path
       style="fill:#000000;fill-opacity:0;fill-rule:evenodd"
       id="path327"
       d="m 779.8958,173.5696 h 52.69293 v 20.72441 H 779.8958 Z" />
    <path
       style="fill-rule:evenodd;stroke:#999999;stroke-width:1;stroke-linecap:butt;stroke-linejoin:round"
       id="path329"
       d="m 779.8958,173.5696 h 52.69293 v 20.72441 H 779.8958 Z" />
    <path
       style="fill:#999999;fill-rule:nonzero"
       id="path331"
       d="m 800.50006,179.80867 v -0.60938 h 4.15625 v 0.60938 l -1.35938,0.15625 q -0.0156,0.92187 -0.0156,1.875 0,0.95312 0,1.90625 v 0.71875 q 0,0.9375 0,1.89062 0,0.9375 0.0156,1.89063 l 1.35938,0.17187 v 0.59375 h -4.15625 v -0.59375 l 1.35937,-0.17187 q 0.0156,-0.92188 0.0156,-1.875 0,-0.95313 0,-1.90625 v -0.71875 q 0,-0.95313 0,-1.89063 0,-0.95312 -0.0156,-1.89062 z m 5.51562,9.20312 v -0.95312 q 0.57813,-0.57813 1.125,-1.14063 0.54688,-0.5625 1.01563,-1.0625 1.10937,-1.15625 1.60937,-2.09375 0.51563,-0.9375 0.51563,-1.78125 0,-0.90625 -0.48438,-1.4375 -0.46875,-0.53125 -1.26562,-0.53125 -0.15625,0 -0.34375,0.0156 -0.17188,0.0156 -0.375,0.0625 l -0.28125,1 q -0.14063,0.54687 -0.34375,0.78125 -0.20313,0.21875 -0.5,0.21875 -0.48438,0 -0.75,-0.46875 0.0781,-0.76563 0.5,-1.26563 0.4375,-0.51562 1.07812,-0.75 0.64063,-0.25 1.375,-0.25 1.42188,0 2.0625,0.70313 0.65625,0.6875 0.65625,1.78125 0,0.65625 -0.26562,1.26562 -0.25,0.59375 -0.89063,1.35938 -0.625,0.75 -1.75,1.82812 -0.29687,0.29688 -0.71875,0.70313 -0.40625,0.39062 -0.85937,0.8125 h 4.90625 v 1.20312 z" />
    <path
       style="fill:#000000;fill-opacity:0;fill-rule:evenodd"
       id="path333"
       d="m 534.3287,116.06426 h 51.93701 v 20.72441 H 534.3287 Z" />
    <path
       style="fill-rule:evenodd;stroke:#999999;stroke-width:1;stroke-linecap:butt;stroke-linejoin:round"
       id="path335"
       d="m 534.3287,116.06426 h 51.93701 v 20.72441 H 534.3287 Z" />
    <path
       style="fill:#999999;fill-rule:nonzero"
       id="path337"
       d="m 554.555,122.30334 v -0.60937 h 4.15625 v 0.60937 l -1.35938,0.15625 q -0.0156,0.92188 -0.0156,1.875 0,0.95313 0,1.90625 v 0.71875 q 0,0.9375 0,1.89062 0,0.9375 0.0156,1.89062 l 1.35938,0.17188 v 0.59375 H 554.555 v -0.59375 l 1.35937,-0.17188 q 0.0156,-0.92187 0.0156,-1.875 0,-0.95311 0,-1.90624 v -0.71875 q 0,-0.95312 0,-1.89062 0,-0.95313 -0.0156,-1.89063 z m 7.29687,3.85938 H 562.43 q 1,0 1.54687,-0.51563 0.5625,-0.51562 0.5625,-1.45312 0,-0.8125 -0.46875,-1.25 -0.45312,-0.4375 -1.32812,-0.4375 -0.14063,0 -0.3125,0.0156 -0.15625,0.0156 -0.35938,0.0469 l -0.1875,0.73437 q -0.125,0.45313 -0.29687,0.6875 -0.17188,0.21875 -0.5625,0.21875 -0.23438,0 -0.42188,-0.10937 -0.1875,-0.125 -0.28125,-0.40625 0.20313,-0.92188 0.92188,-1.375 0.73437,-0.46875 1.75,-0.46875 1.29687,0 2.04687,0.64062 0.76563,0.625 0.76563,1.65625 0,0.79688 -0.51563,1.42188 -0.5,0.625 -1.40625,0.9375 1.14063,0.21875 1.67188,0.85937 0.54687,0.625 0.54687,1.53124 0,0.79688 -0.42187,1.42188 -0.40625,0.625 -1.14063,1 -0.71875,0.375 -1.71875,0.375 -1.07812,0 -1.84375,-0.48438 -0.76562,-0.5 -0.96875,-1.59375 0.25,-0.48437 0.75,-0.48437 0.375,0 0.54688,0.25 0.17187,0.25 0.3125,0.8125 l 0.1875,0.75 q 0.25,0.0625 0.45312,0.0781 0.20313,0.0156 0.375,0.0156 1.07813,0 1.60938,-0.5625 0.54687,-0.5625 0.54687,-1.54688 0,-0.95311 -0.5625,-1.48436 -0.54687,-0.54688 -1.67187,-0.54688 h -0.70313 z" />
    <path
       style="fill:#000000;fill-opacity:0;fill-rule:evenodd"
       id="path339"
       d="m 668.6608,155.18126 29.25989,28.7559" />
    <path
       style="fill-rule:evenodd;stroke:#999999;stroke-width:1;stroke-linecap:butt;stroke-linejoin:round"
       id="path341"
       d="m 668.6608,155.18126 24.98047,24.55029" />
    <path
       style="fill:#999999;fill-rule:evenodd;stroke:#999999;stroke-width:1;stroke-linecap:butt"
       id="path343"
       d="m 692.4836,180.90959 4.39447,2.00288 -2.07892,-4.35897 z" />
    <path
       style="fill:#000000;fill-opacity:0;fill-rule:evenodd"
       id="path345"
       d="m 586.2657,126.42646 29.60632,28.7559" />
    <path
       style="fill-rule:evenodd;stroke:#999999;stroke-width:1;stroke-linecap:butt;stroke-linejoin:round"
       id="path347"
       d="m 586.2657,126.42646 25.30231,24.57552" />
    <path
       style="fill:#999999;fill-rule:evenodd;stroke:#999999;stroke-width:1;stroke-linecap:butt"
       id="path349"
       d="m 610.4172,152.18683 4.40619,1.97699 -2.10455,-4.34668 z" />
    <path
       style="fill:#000000;fill-opacity:0;fill-rule:evenodd"
       id="path351"
       d="m 750.6248,183.9318 29.25983,28.7559" />
    <path
       style="fill-rule:evenodd;stroke:#999999;stroke-width:1;stroke-linecap:butt;stroke-linejoin:round"
       id="path353"
       d="m 750.62476,183.9318 24.98047,24.55028" />
    <path
       style="fill:#999999;fill-rule:evenodd;stroke:#999999;stroke-width:1;stroke-linecap:butt"
       id="path355"
       d="m 774.4475,209.66013 4.39441,2.00287 -2.07892,-4.35896 z" />
    <path
       style="fill:#000000;fill-opacity:0;fill-rule:evenodd"
       id="path357"
       d="m 615.8735,144.81906 h 52.78735 v 20.72441 H 615.8735 Z" />
    <path
       style="fill-rule:evenodd;stroke:#999999;stroke-width:1;stroke-linecap:butt;stroke-linejoin:round"
       id="path359"
       d="m 615.8735,144.81906 h 52.78735 v 20.72441 H 615.8735 Z" />
    <path
       style="fill:#999999;fill-rule:nonzero"
       id="path361"
       d="m 636.52496,151.05814 v -0.60938 h 4.15625 v 0.60938 l -1.35938,0.15625 q -0.0156,0.92187 -0.0156,1.875 0,0.95312 0,1.90625 v 0.71875 q 0,0.9375 0,1.89062 0,0.9375 0.0156,1.89063 l 1.35938,0.17187 v 0.59375 h -4.15625 v -0.59375 l 1.35937,-0.17187 q 0.0156,-0.92188 0.0156,-1.875 0,-0.95313 0,-1.90625 v -0.71875 q 0,-0.95313 0,-1.89063 0,-0.95312 -0.0156,-1.89062 z m 7.29687,3.85937 h 0.57813 q 1,0 1.54687,-0.51562 0.5625,-0.51563 0.5625,-1.45313 0,-0.8125 -0.46875,-1.25 -0.45312,-0.4375 -1.32812,-0.4375 -0.14063,0 -0.3125,0.0156 -0.15625,0.0156 -0.35938,0.0469 l -0.1875,0.73438 q -0.125,0.45312 -0.29687,0.6875 -0.17188,0.21875 -0.5625,0.21875 -0.23438,0 -0.42188,-0.10938 -0.1875,-0.125 -0.28125,-0.40625 0.20313,-0.92187 0.92188,-1.375 0.73437,-0.46875 1.75,-0.46875 1.29687,0 2.04687,0.64063 0.76563,0.625 0.76563,1.65625 0,0.79687 -0.51563,1.42187 -0.5,0.625 -1.40625,0.9375 1.14063,0.21875 1.67188,0.85938 0.54687,0.625 0.54687,1.53125 0,0.79687 -0.42187,1.42187 -0.40625,0.625 -1.14063,1 -0.71875,0.375 -1.71875,0.375 -1.07812,0 -1.84375,-0.48437 -0.76562,-0.5 -0.96875,-1.59375 0.25,-0.48438 0.75,-0.48438 0.375,0 0.54688,0.25 0.17187,0.25 0.3125,0.8125 l 0.1875,0.75 q 0.25,0.0625 0.45312,0.0781 0.20313,0.0156 0.375,0.0156 1.07813,0 1.60938,-0.5625 0.54687,-0.5625 0.54687,-1.54687 0,-0.95313 -0.5625,-1.48438 -0.54687,-0.54687 -1.67187,-0.54687 h -0.70313 z" />
    <path
       style="fill:#000000;fill-opacity:0;fill-rule:evenodd"
       id="path363"
       d="m 697.9319,173.5696 h 52.69293 v 20.72441 H 697.9319 Z" />
    <path
       style="fill-rule:evenodd;stroke:#999999;stroke-width:1;stroke-linecap:butt;stroke-linejoin:round"
       id="path365"
       d="m 697.9319,173.5696 h 52.69293 v 20.72441 H 697.9319 Z" />
    <path
       style="fill:#999999;fill-rule:nonzero"
       id="path367"
       d="m 718.53613,179.80867 v -0.60938 h 4.15625 v 0.60938 l -1.35938,0.15625 q -0.0156,0.92187 -0.0156,1.875 0,0.95312 0,1.90625 v 0.71875 q 0,0.9375 0,1.89062 0,0.9375 0.0156,1.89063 l 1.35938,0.17187 v 0.59375 h -4.15625 v -0.59375 l 1.35937,-0.17187 q 0.0156,-0.92188 0.0156,-1.875 0,-0.95313 0,-1.90625 v -0.71875 q 0,-0.95313 0,-1.89063 0,-0.95312 -0.0156,-1.89062 z m 7.29687,3.85937 h 0.57813 q 1,0 1.54687,-0.51562 0.5625,-0.51563 0.5625,-1.45313 0,-0.8125 -0.46875,-1.25 -0.45312,-0.4375 -1.32812,-0.4375 -0.14063,0 -0.3125,0.0156 -0.15625,0.0156 -0.35938,0.0469 l -0.1875,0.73438 q -0.125,0.45312 -0.29687,0.6875 -0.17188,0.21875 -0.5625,0.21875 -0.23438,0 -0.42188,-0.10938 -0.1875,-0.125 -0.28125,-0.40625 0.20313,-0.92187 0.92188,-1.375 0.73437,-0.46875 1.75,-0.46875 1.29687,0 2.04687,0.64063 0.76563,0.625 0.76563,1.65625 0,0.79687 -0.51563,1.42187 -0.5,0.625 -1.40625,0.9375 1.14063,0.21875 1.67188,0.85938 0.54687,0.625 0.54687,1.53125 0,0.79687 -0.42187,1.42187 -0.40625,0.625 -1.14063,1 -0.71875,0.375 -1.71875,0.375 -1.07812,0 -1.84375,-0.48437 -0.76562,-0.5 -0.96875,-1.59375 0.25,-0.48438 0.75,-0.48438 0.375,0 0.54688,0.25 0.17187,0.25 0.3125,0.8125 l 0.1875,0.75 q 0.25,0.0625 0.45312,0.0781 0.20313,0.0156 0.375,0.0156 1.07813,0 1.60938,-0.5625 0.54687,-0.5625 0.54687,-1.54687 0,-0.95313 -0.5625,-1.48438 -0.54687,-0.54687 -1.67187,-0.54687 H 725.833 Z" />
    <path
       style="fill:#f3f3f3;fill-rule:evenodd"
       id="path369"
       d="m 534.3287,144.82541 h 51.93701 v 20.72441 H 534.3287 Z" />
    <path
       style="fill-rule:evenodd;stroke:#000000;stroke-width:1;stroke-linecap:butt;stroke-linejoin:round"
       id="path371"
       d="m 534.3287,144.82541 h 51.93701 v 20.72441 H 534.3287 Z" />
    <path
       style="fill:#000000;fill-rule:nonzero"
       id="path373"
       d="m 554.555,151.06448 v -0.60938 h 4.15625 v 0.60938 l -1.35938,0.15625 q -0.0156,0.92187 -0.0156,1.875 0,0.95312 0,1.90625 v 0.71875 q 0,0.9375 0,1.89062 0,0.9375 0.0156,1.89063 l 1.35938,0.17187 v 0.59375 H 554.555 v -0.59375 l 1.35937,-0.17187 q 0.0156,-0.92188 0.0156,-1.875 0,-0.95313 0,-1.90625 v -0.71875 q 0,-0.95313 0,-1.89063 0,-0.95312 -0.0156,-1.89062 z m 11.89062,6.375 h -1.54687 v 2.82812 H 563.68 v -2.82812 h -3.98438 v -0.78125 l 4.35938,-5.98438 h 0.84375 v 5.84375 h 1.54687 z m -5.875,-0.92188 H 563.68 v -4.32812 z" />
    <path
       style="fill:#000000;fill-opacity:0;fill-rule:evenodd"
       id="path375"
       d="m 668.6608,183.94241 29.25989,28.7559" />
    <path
       style="fill-rule:evenodd;stroke:#000000;stroke-width:1;stroke-linecap:butt;stroke-linejoin:round"
       id="path377"
       d="m 668.6608,183.94243 24.98047,24.55028" />
    <path
       style="fill:#000000;fill-rule:evenodd;stroke:#000000;stroke-width:1;stroke-linecap:butt"
       id="path379"
       d="m 692.4836,209.67075 4.39447,2.00288 -2.07892,-4.35897 z" />
    <path
       style="fill:#000000;fill-opacity:0;fill-rule:evenodd"
       id="path381"
       d="m 586.2657,155.1876 29.60632,28.75591" />
    <path
       style="fill-rule:evenodd;stroke:#000000;stroke-width:1;stroke-linecap:butt;stroke-linejoin:round"
       id="path383"
       d="m 586.2657,155.1876 25.30231,24.57553" />
    <path
       style="fill:#000000;fill-rule:evenodd;stroke:#000000;stroke-width:1;stroke-linecap:butt"
       id="path385"
       d="m 610.4172,180.948 4.40619,1.97697 -2.10455,-4.34666 z" />
    <path
       style="fill:#f3f3f3;fill-rule:evenodd"
       id="path387"
       d="m 615.8735,173.58022 h 52.78735 v 20.72441 H 615.8735 Z" />
    <path
       style="fill-rule:evenodd;stroke:#000000;stroke-width:1;stroke-linecap:butt;stroke-linejoin:round"
       id="path389"
       d="m 615.8735,173.58022 h 52.78735 v 20.72441 H 615.8735 Z" />
    <path
       style="fill:#000000;fill-rule:nonzero"
       id="path391"
       d="m 636.52496,179.81929 v -0.60938 h 4.15625 v 0.60938 l -1.35938,0.15625 q -0.0156,0.92187 -0.0156,1.875 0,0.95312 0,1.90625 v 0.71875 q 0,0.9375 0,1.89062 0,0.9375 0.0156,1.89063 l 1.35938,0.17187 v 0.59375 h -4.15625 v -0.59375 l 1.35937,-0.17187 q 0.0156,-0.92188 0.0156,-1.875 0,-0.95313 0,-1.90625 v -0.71875 q 0,-0.95313 0,-1.89063 0,-0.95312 -0.0156,-1.89062 z m 11.89062,6.375 h -1.54687 v 2.82812 h -1.21875 v -2.82812 h -3.98438 v -0.78125 l 4.35938,-5.98438 h 0.84375 v 5.84375 h 1.54687 z m -5.875,-0.92188 h 3.10938 v -4.32812 z" />
    <path
       style="fill:#000000;fill-opacity:0;fill-rule:evenodd"
       id="path393"
       d="m 861.85974,183.92654 -193.19684,0.0315" />
    <path
       style="fill-rule:evenodd;stroke:#980000;stroke-width:1;stroke-linecap:butt;stroke-linejoin:round"
       id="path395"
       d="m 861.85974,183.92654 -187.19684,0.0305" />
    <path
       style="fill:#980000;fill-rule:evenodd;stroke:#980000;stroke-width:1;stroke-linecap:butt"
       id="path397"
       d="m 674.6626,182.30533 -4.53778,1.65248 4.53833,1.65099 z" />
    <path
       style="fill:#000000;fill-opacity:0;fill-rule:evenodd"
       id="path399"
       d="m 863.39514,134.37279 v 0 c 0,-2.12511 1.72278,-3.84785 3.8479,-3.84785 h 50.41449 c 1.02057,0 1.99927,0.40539 2.72089,1.12701 0.72162,0.7216 1.12701,1.70032 1.12701,2.72084 v 15.39092 c 0,2.1251 -1.72278,3.84783 -3.8479,3.84783 h -50.41449 v 0 c -2.12512,0 -3.8479,-1.72273 -3.8479,-3.84783 z" />
    <path
       style="fill-rule:evenodd;stroke:#980000;stroke-width:1;stroke-linecap:butt;stroke-linejoin:round;stroke-dasharray:4, 3"
       id="path401"
       d="m 863.39514,134.37279 v 0 c 0,-2.12511 1.72278,-3.84785 3.8479,-3.84785 h 50.41449 c 1.02057,0 1.99927,0.40539 2.72089,1.12701 0.72162,0.7216 1.12701,1.70032 1.12701,2.72084 v 15.39092 c 0,2.1251 -1.72278,3.84783 -3.8479,3.84783 h -50.41449 v 0 c -2.12512,0 -3.8479,-1.72273 -3.8479,-3.84783 z" />
    <path
       style="fill:#000000;fill-rule:nonzero"
       id="path403"
       d="m 876.5237,141.05574 v -0.51563 h 2.48437 v 0.51563 l -0.78125,0.14062 -1.90625,2.35938 1.84375,2.64062 1.01563,0.1875 v 0.48438 h -3.25 v -0.48438 l 0.95312,-0.17187 -1.3125,-1.90625 -1.46875,1.90625 1,0.17187 v 0.48438 h -2.65625 v -0.48438 l 0.84375,-0.15625 1.95313,-2.40625 -1.79688,-2.625 -0.90625,-0.14062 v -0.51563 h 2.96875 v 0.51563 l -0.8125,0.14062 1.28125,1.85938 1.42188,-1.82813 z m 5.05743,0.95312 h 0.53125 q 0.90625,0 1.40625,-0.46875 0.5,-0.46875 0.5,-1.32812 0,-0.73438 -0.42187,-1.125 -0.40625,-0.40625 -1.20313,-0.40625 -0.125,0 -0.28125,0.0156 -0.14062,0.0156 -0.32812,0.0469 l -0.17188,0.65625 q -0.10937,0.42187 -0.26562,0.625 -0.15625,0.20312 -0.51563,0.20312 -0.20312,0 -0.375,-0.0937 -0.17187,-0.10937 -0.26562,-0.375 0.1875,-0.82812 0.84375,-1.25 0.67187,-0.42187 1.59375,-0.42187 1.17187,0 1.85937,0.57812 0.6875,0.57813 0.6875,1.51563 0,0.71875 -0.45312,1.28125 -0.45313,0.5625 -1.28125,0.85937 1.01562,0.20313 1.51562,0.78125 0.5,0.5625 0.5,1.39063 0,0.71875 -0.375,1.29687 -0.375,0.57813 -1.04687,0.92188 -0.67188,0.32812 -1.57813,0.32812 -0.96875,0 -1.67187,-0.4375 -0.6875,-0.45312 -0.875,-1.45312 0.21875,-0.4375 0.67187,-0.4375 0.34375,0 0.5,0.23437 0.15625,0.21875 0.29688,0.71875 l 0.17187,0.70313 q 0.21875,0.0469 0.40625,0.0625 0.1875,0.0156 0.32813,0.0156 1,0 1.48437,-0.51562 0.5,-0.51563 0.5,-1.40625 0,-0.875 -0.51562,-1.35938 -0.5,-0.5 -1.53125,-0.5 h -0.64063 z m 14.19135,2.17188 h -6.29688 v -0.75 h 6.29688 z m 0,-2.65625 h -6.29688 v -0.75 h 6.29688 z m 9.94824,2.76562 h -1.39062 v 2.57813 h -1.10938 v -2.57813 h -3.625 v -0.70312 l 3.95313,-5.45313 h 0.78125 v 5.32813 h 1.39062 z m -5.32812,-0.82812 h 2.82812 v -3.9375 z m 6.19531,3.40625 v -0.85938 q 0.53125,-0.53125 1.03125,-1.03125 0.5,-0.51562 0.92187,-0.96875 1,-1.0625 1.46875,-1.90625 0.46875,-0.85937 0.46875,-1.625 0,-0.82812 -0.4375,-1.3125 -0.4375,-0.48437 -1.17187,-0.48437 -0.125,0 -0.29688,0.0156 -0.15625,0.0156 -0.34375,0.0625 l -0.26562,0.90625 q -0.125,0.5 -0.3125,0.70313 -0.17188,0.20312 -0.45313,0.20312 -0.4375,0 -0.67187,-0.42187 0.0781,-0.70313 0.45312,-1.15625 0.39063,-0.46875 0.96875,-0.6875 0.59375,-0.21875 1.26563,-0.21875 1.29687,0 1.875,0.64062 0.59375,0.625 0.59375,1.625 0,0.57813 -0.23438,1.14063 -0.23437,0.54687 -0.8125,1.23437 -0.57812,0.6875 -1.59375,1.67188 -0.26562,0.26562 -0.65625,0.625 -0.375,0.35937 -0.78125,0.75 h 4.45313 v 1.09375 z" />
    <path
       style="fill:#000000;fill-opacity:0;fill-rule:evenodd"
       id="path405"
       d="m 863.39514,142.06824 c -9.96845,0 -19.93695,20.94488 -19.93695,41.88977" />
    <path
       style="fill-rule:evenodd;stroke:#980000;stroke-width:1;stroke-linecap:butt;stroke-linejoin:round;stroke-dasharray:4, 3"
       id="path407"
       d="m 863.39514,142.06824 c -9.96845,0 -19.93695,20.94488 -19.93695,41.88977" />
    <path
       style="fill:#000000;fill-opacity:0;fill-rule:evenodd"
       id="path613"
       d="m 832.58875,183.9318 29.25983,28.7559" />
    <path
       style="fill-rule:evenodd;stroke:#999999;stroke-width:1;stroke-linecap:butt;stroke-linejoin:round"
       id="path615"
       d="m 832.58875,183.9318 24.98047,24.55028" />
    <path
       style="fill:#999999;fill-rule:evenodd;stroke:#999999;stroke-width:1;stroke-linecap:butt"
       id="path617"
       d="m 856.4115,209.66013 4.39441,2.00287 -2.07892,-4.35896 z" />
  </g>
</svg>
