<?xml version="1.0" encoding="UTF-8" standalone="no"?>
<svg
   version="1.1"
   viewBox="0 0 466.60629 206.92126"
   fill="none"
   stroke="none"
   stroke-linecap="square"
   stroke-miterlimit="10"
   id="svg417"
   sodipodi:docname="cpu-hazard-data-stall-csr.svg"
   width="466.60629"
   height="206.92126"
   inkscape:version="1.1.2 (b8e25be8, 2022-02-05)"
   xmlns:inkscape="http://www.inkscape.org/namespaces/inkscape"
   xmlns:sodipodi="http://sodipodi.sourceforge.net/DTD/sodipodi-0.dtd"
   xmlns="http://www.w3.org/2000/svg"
   xmlns:svg="http://www.w3.org/2000/svg">
  <defs
     id="defs421" />
  <sodipodi:namedview
     id="namedview419"
     pagecolor="#ffffff"
     bordercolor="#666666"
     borderopacity="1.0"
     inkscape:pageshadow="2"
     inkscape:pageopacity="0.0"
     inkscape:pagecheckerboard="0"
     showgrid="false"
     inkscape:zoom="1.05"
     inkscape:cx="440.47619"
     inkscape:cy="-16.666667"
     inkscape:window-width="1296"
     inkscape:window-height="969"
     inkscape:window-x="0"
     inkscape:window-y="25"
     inkscape:window-maximized="0"
     inkscape:current-layer="g415" />
  <clipPath
     id="g2fd53e73fb8_0_0.0">
    <path
       d="M 0,0 H 960 V 540 H 0 Z"
       clip-rule="nonzero"
       id="path2" />
  </clipPath>
  <g
     clip-path="url(#g2fd53e73fb8_0_0.0)"
     id="g415"
     transform="translate(-39.490814,-286.66534)">
    <path
       fill="#000000"
       fill-opacity="0"
       d="M 39.990814,74.13647 H 505.59711 V 280.05773 H 39.990814 Z"
       fill-rule="evenodd"
       id="path7" />
    <path
       fill="#000000"
       fill-opacity="0"
       d="m 328.3953,244.0937 h 52.81888 v 38.26772 H 328.3953 Z"
       fill-rule="evenodd"
       id="path51" />
    <path
       fill="#000000"
       fill-opacity="0"
       d="M 0,0 H 504 V 72.97638 H 0 Z"
       fill-rule="evenodd"
       id="path221" />
    <path
       fill="#000000"
       fill-opacity="0"
       d="M 39.990814,287.16534 H 505.59711 V 493.0866 H 39.990814 Z"
       fill-rule="evenodd"
       id="path225" />
    <path
       fill="#d9d9d9"
       d="m 82.4725,291.35895 h 52.7874 v 26.64566 H 82.4725 Z"
       fill-rule="evenodd"
       id="path229" />
    <path
       stroke="#000000"
       stroke-width="1"
       stroke-linejoin="round"
       stroke-linecap="butt"
       d="m 82.4725,291.35895 h 52.7874 v 26.64566 H 82.4725 Z"
       fill-rule="evenodd"
       id="path231" />
    <path
       fill="#000000"
       d="m 104.93732,300.4949 v -0.65625 h 7.96875 l 0.10938,2.82812 h -0.90625 l -0.35938,-2.03125 h -3.75 q -0.0156,1.03125 -0.0312,2.0625 0,1.01563 0,2 h 2.46875 l 0.23438,-1.51562 h 0.73437 v 3.9375 h -0.73437 l -0.23438,-1.67188 h -2.46875 q 0,1.1875 0,2.23438 0.0156,1.03125 0.0312,2.03125 l 1.48438,0.17187 v 0.65625 h -4.54688 v -0.65625 l 1.46875,-0.17187 q 0.0312,-1.01563 0.0312,-2.04688 0,-1.04687 0,-2.07812 v -0.79688 q 0,-1.03125 0,-2.0625 0,-1.03125 -0.0312,-2.0625 z"
       fill-rule="nonzero"
       id="path233" />
    <path
       fill="#d9d9d9"
       d="m 164.43645,291.36026 h 52.7874 v 26.64569 h -52.7874 z"
       fill-rule="evenodd"
       id="path235" />
    <path
       stroke="#000000"
       stroke-width="1"
       stroke-linejoin="round"
       stroke-linecap="butt"
       d="m 164.43645,291.36026 h 52.7874 v 26.64569 h -52.7874 z"
       fill-rule="evenodd"
       id="path237" />
    <path
       fill="#000000"
       d="m 188.8845,305.38684 q 0,1.17187 0,2.26562 0.0156,1.07813 0.0312,2.14063 h 1.26562 q 1.84375,0 2.82813,-1.20313 1,-1.21875 1,-3.39062 0,-2.25 -0.98438,-3.4375 -0.96875,-1.1875 -2.70312,-1.1875 h -1.40625 q -0.0156,1.03125 -0.0312,2.09375 0,1.0625 0,2.125 z m -3.03125,-4.89063 v -0.65625 h 4.71875 q 1.53125,0 2.70312,0.625 1.17188,0.60938 1.82813,1.79688 0.65625,1.1875 0.65625,2.9375 0,1.73437 -0.71875,2.92187 -0.71875,1.1875 -1.96875,1.8125 -1.23438,0.60938 -2.79688,0.60938 h -4.42187 v -0.65625 l 1.46875,-0.17188 q 0.0312,-1.03125 0.0312,-2.09375 0,-1.0625 0,-2.23437 v -0.59375 q 0,-1.03125 0,-2.0625 0,-1.03125 -0.0312,-2.0625 z"
       fill-rule="nonzero"
       id="path239" />
    <path
       fill="#000000"
       fill-opacity="0"
       d="m 30.036356,326.95013 h 52.8189 v 20.7244 h -52.8189 z"
       fill-rule="evenodd"
       id="path241" />
    <path
       fill="#000000"
       d="m 51.926296,335.21295 0.140625,-2.84375 h 8.765625 l 0.125,2.84375 h -0.921875 l -0.359375,-2.04688 h -2.453125 q -0.01563,1.03125 -0.03125,2.07813 0,1.03125 0,2.07812 v 0.79688 q 0,1.01562 0,2.04687 0.01563,1.03125 0.03125,2.07813 l 1.640625,0.17187 v 0.65625 h -4.828125 v -0.65625 l 1.625,-0.17187 q 0.03125,-1.03125 0.03125,-2.0625 0,-1.03125 0,-2.0625 v -0.79688 q 0,-1.03125 0,-2.0625 0,-1.04687 -0.03125,-2.09375 h -2.453125 l -0.34375,2.04688 z"
       fill-rule="nonzero"
       id="path243" />
    <path
       fill="#f3f3f3"
       d="m 82.891685,326.94614 h 51.937005 v 20.72443 H 82.891685 Z"
       fill-rule="evenodd"
       id="path245" />
    <path
       stroke="#000000"
       stroke-width="1"
       stroke-linejoin="round"
       stroke-linecap="butt"
       d="m 82.891685,326.94614 h 51.937005 v 20.72443 H 82.891685 Z"
       fill-rule="evenodd"
       id="path247" />
    <path
       fill="#000000"
       d="m 103.11799,333.1852 v -0.60938 h 4.15625 v 0.60938 l -1.35937,0.15625 q -0.0156,0.92187 -0.0156,1.875 0,0.95312 0,1.90625 v 0.71875 q 0,0.9375 0,1.89062 0,0.9375 0.0156,1.89063 l 1.35937,0.17187 v 0.59375 h -4.15625 v -0.59375 l 1.35938,-0.17187 q 0.0156,-0.92188 0.0156,-1.875 0,-0.95313 0,-1.90625 v -0.71875 q 0,-0.95313 0,-1.89063 0,-0.95312 -0.0156,-1.89062 z m 6.04686,0.39062 3.01562,-0.76562 0.20313,0.14062 -0.0625,2.09375 v 4.25 q 0,0.54688 0,1.10938 0.0156,0.54687 0.0312,1.10937 l 2.07812,0.34375 v 0.53125 h -5.4375 v -0.53125 l 2.07813,-0.34375 q 0.0156,-0.5625 0.0156,-1.10937 0.0156,-0.5625 0.0156,-1.10938 v -5.28125 l -1.9375,0.17188 z"
       fill-rule="nonzero"
       id="path249" />
    <path
       fill="#000000"
       fill-opacity="0"
       d="m 217.22385,366.06314 29.25984,28.75592"
       fill-rule="evenodd"
       id="path251" />
    <path
       stroke="#000000"
       stroke-width="1"
       stroke-linejoin="round"
       stroke-linecap="butt"
       d="m 217.22383,366.06317 24.98053,24.55026"
       fill-rule="evenodd"
       id="path253" />
    <path
       fill="#000000"
       stroke="#000000"
       stroke-width="1"
       stroke-linecap="butt"
       d="m 241.04659,391.79147 4.39442,2.0029 -2.0789,-4.35898 z"
       fill-rule="evenodd"
       id="path255" />
    <path
       fill="#000000"
       fill-opacity="0"
       d="m 134.82869,337.30835 29.60629,28.75589"
       fill-rule="evenodd"
       id="path257" />
    <path
       stroke="#000000"
       stroke-width="1"
       stroke-linejoin="round"
       stroke-linecap="butt"
       d="m 134.82869,337.30835 25.30229,24.57556"
       fill-rule="evenodd"
       id="path259" />
    <path
       fill="#000000"
       stroke="#000000"
       stroke-width="1"
       stroke-linecap="butt"
       d="m 158.98018,363.06873 4.40614,1.97699 -2.10452,-4.34668 z"
       fill-rule="evenodd"
       id="path261" />
    <path
       fill="#000000"
       fill-opacity="0"
       d="m 299.18777,394.8137 29.25986,28.75592"
       fill-rule="evenodd"
       id="path263" />
    <path
       stroke="#000000"
       stroke-width="1"
       stroke-linejoin="round"
       stroke-linecap="butt"
       d="m 299.18777,394.8137 24.98053,24.55029"
       fill-rule="evenodd"
       id="path265" />
    <path
       fill="#000000"
       stroke="#000000"
       stroke-width="1"
       stroke-linecap="butt"
       d="m 323.01053,420.54202 4.39444,2.00287 -2.07892,-4.35898 z"
       fill-rule="evenodd"
       id="path267" />
    <path
       fill="#000000"
       fill-opacity="0"
       d="m 328.3953,457.12256 h 52.81888 v 38.26773 H 328.3953 Z"
       fill-rule="evenodd"
       id="path269" />
    <path
       fill="#000000"
       d="m 349.60086,487.21518 q -0.51563,0 -0.875,-0.35938 -0.34375,-0.35937 -0.34375,-0.85937 0,-0.53125 0.34375,-0.89063 0.35937,-0.35937 0.875,-0.35937 0.53125,0 0.875,0.35937 0.35937,0.35938 0.35937,0.89063 0,0.5 -0.35937,0.85937 -0.34375,0.35938 -0.875,0.35938 z m 5.20312,0 q -0.51562,0 -0.875,-0.35938 -0.34375,-0.35937 -0.34375,-0.85937 0,-0.53125 0.34375,-0.89063 0.35938,-0.35937 0.875,-0.35937 0.53125,0 0.875,0.35937 0.35938,0.35938 0.35938,0.89063 0,0.5 -0.35938,0.85937 -0.34375,0.35938 -0.875,0.35938 z m 5.1875,0 q -0.51562,0 -0.875,-0.35938 -0.34375,-0.35937 -0.34375,-0.85937 0,-0.53125 0.34375,-0.89063 0.35938,-0.35937 0.875,-0.35937 0.53125,0 0.875,0.35937 0.35938,0.35938 0.35938,0.89063 0,0.5 -0.35938,0.85937 -0.34375,0.35938 -0.875,0.35938 z"
       fill-rule="nonzero"
       id="path271" />
    <path
       fill="#000000"
       fill-opacity="0"
       d="m 30.036356,355.70078 h 52.8189 v 20.72443 h -52.8189 z"
       fill-rule="evenodd"
       id="path273" />
    <path
       fill="#000000"
       d="m 43.67828,363.96362 0.140625,-2.84375 h 8.765625 l 0.125,2.84375 h -0.921875 l -0.359375,-2.04688 h -2.453125 q -0.01563,1.03125 -0.03125,2.07813 0,1.03125 0,2.07812 v 0.79688 q 0,1.01562 0,2.04687 0.01563,1.03125 0.03125,2.07813 l 1.640625,0.17187 v 0.65625 h -4.828125 v -0.65625 l 1.625,-0.17187 q 0.03125,-1.03125 0.03125,-2.0625 0,-1.03125 0,-2.0625 v -0.79688 q 0,-1.03125 0,-2.0625 0,-1.04687 -0.03125,-2.09375 H 44.95953 l -0.34375,2.04688 z m 13.117142,6.625 v -3.57813 h -3.296875 v -0.92187 h 3.296875 v -3.5 h 0.96875 v 3.5 h 3.296875 v 0.92187 h -3.296875 v 3.57813 z m 6.089764,-8.375 3.296875,-0.85938 0.21875,0.17188 -0.0625,2.28125 v 4.64062 q 0,0.59375 0,1.20313 0.01563,0.60937 0.03125,1.21875 l 2.28125,0.375 v 0.57812 h -5.9375 v -0.57812 l 2.25,-0.375 q 0.01563,-0.60938 0.01563,-1.21875 0.01563,-0.60938 0.01563,-1.20313 v -5.76562 l -2.109375,0.1875 z"
       fill-rule="nonzero"
       id="path275" />
    <path
       fill="#f3f3f3"
       d="m 164.43645,355.70096 h 52.7874 v 20.7244 h -52.7874 z"
       fill-rule="evenodd"
       id="path277" />
    <path
       stroke="#000000"
       stroke-width="1"
       stroke-linejoin="round"
       stroke-linecap="butt"
       d="m 164.43645,355.70096 h 52.7874 v 20.7244 h -52.7874 z"
       fill-rule="evenodd"
       id="path279" />
    <path
       fill="#000000"
       d="m 185.08795,361.94003 v -0.60938 h 4.15625 v 0.60938 l -1.35938,0.15625 q -0.0156,0.92187 -0.0156,1.875 0,0.95312 0,1.90625 v 0.71875 q 0,0.9375 0,1.89062 0,0.9375 0.0156,1.89063 l 1.35938,0.17187 v 0.59375 h -4.15625 v -0.59375 l 1.35937,-0.17187 q 0.0156,-0.92188 0.0156,-1.875 0,-0.95313 0,-1.90625 v -0.71875 q 0,-0.95313 0,-1.89063 0,-0.95312 -0.0156,-1.89062 z m 6.04686,0.39062 3.01562,-0.76562 0.20313,0.14062 -0.0625,2.09375 v 4.25 q 0,0.54688 0,1.10938 0.0156,0.54687 0.0312,1.10937 l 2.07812,0.34375 v 0.53125 h -5.4375 v -0.53125 l 2.07813,-0.34375 q 0.0156,-0.5625 0.0156,-1.10937 0.0156,-0.5625 0.0156,-1.10938 v -5.28125 l -1.9375,0.17188 z"
       fill-rule="nonzero"
       id="path281" />
    <path
       fill="#d9d9d9"
       d="m 246.40039,291.35895 h 52.78738 v 26.64566 h -52.78738 z"
       fill-rule="evenodd"
       id="path283" />
    <path
       stroke="#000000"
       stroke-width="1"
       stroke-linejoin="round"
       stroke-linecap="butt"
       d="m 246.40039,291.35895 h 52.78738 v 26.64566 h -52.78738 z"
       fill-rule="evenodd"
       id="path285" />
    <path
       fill="#000000"
       d="m 268.6732,300.4949 v -0.65625 h 7.96875 l 0.10937,2.82812 h -0.90625 l -0.35937,-2.03125 h -3.75 q -0.0156,1.03125 -0.0312,2.0625 0,1.01563 0,2 h 2.34375 l 0.21875,-1.51562 h 0.75 v 3.78125 h -0.75 l -0.20313,-1.51563 h -2.35937 q 0,1.20313 0,2.25 0.0156,1.04688 0.0312,2.04688 h 4.07812 l 0.34375,-2.04688 h 0.92188 l -0.125,2.84375 h -8.28125 v -0.65625 l 1.46875,-0.17187 q 0.0312,-1.01563 0.0312,-2.04688 0,-1.04687 0,-2.07812 v -0.79688 q 0,-1.03125 0,-2.0625 0,-1.03125 -0.0312,-2.0625 z"
       fill-rule="nonzero"
       id="path287" />
    <path
       fill="#d9d9d9"
       d="m 328.36432,291.36026 h 52.78742 v 26.64569 h -52.78742 z"
       fill-rule="evenodd"
       id="path289" />
    <path
       stroke="#000000"
       stroke-width="1"
       stroke-linejoin="round"
       stroke-linecap="butt"
       d="m 328.36432,291.36026 h 52.78742 v 26.64569 h -52.78742 z"
       fill-rule="evenodd"
       id="path291" />
    <path
       fill="#000000"
       d="m 348.16702,310.5431 v -0.65625 l 1.4375,-0.20313 v -9.01562 l -1.4375,-0.17188 v -0.65625 h 2.95312 l 3.59375,8.79688 3.39063,-8.79688 h 3.15625 v 0.65625 l -1.48438,0.17188 q -0.0156,1.01562 -0.0312,2.0625 0,1.03125 0,2.0625 v 0.79687 q 0,1.01563 0,2.04688 0.0156,1.03125 0.0312,2.07812 l 1.48438,0.17188 v 0.65625 h -4.35938 v -0.65625 l 1.34375,-0.17188 q 0.0312,-1.01562 0.0312,-2.04687 0,-1.04688 0,-2.0625 v -3.98438 l -3.46875,8.92188 h -0.79687 l -3.67188,-8.92188 0.0937,3.01563 v 5.04687 l 1.3125,0.20313 v 0.65625 z"
       fill-rule="nonzero"
       id="path293" />
    <path
       fill="#d9d9d9"
       d="m 410.32828,291.36026 h 52.78738 v 26.64569 h -52.78738 z"
       fill-rule="evenodd"
       id="path295" />
    <path
       stroke="#000000"
       stroke-width="1"
       stroke-linejoin="round"
       stroke-linecap="butt"
       d="m 410.32828,291.36026 h 52.78738 v 26.64569 h -52.78738 z"
       fill-rule="evenodd"
       id="path297" />
    <path
       fill="#000000"
       d="m 440.6353,300.49622 v -0.65625 h 3.64062 v 0.65625 l -1.34375,0.1875 -2.70312,9.96875 h -0.6875 l -2.76563,-8.28125 -2.60937,8.28125 h -0.6875 l -2.89063,-10 -1.32812,-0.15625 v -0.65625 h 4.35937 v 0.65625 l -1.46875,0.17187 1.96875,7.34375 2.42188,-7.32812 -1.59375,-0.1875 v -0.65625 h 4.34375 v 0.65625 l -1.60938,0.1875 2.39063,7.40625 2.03125,-7.39063 z"
       fill-rule="nonzero"
       id="path299" />
    <path
       fill="#f3f3f3"
       d="m 246.49487,384.45148 h 52.6929 v 20.72443 h -52.6929 z"
       fill-rule="evenodd"
       id="path301" />
    <path
       stroke="#000000"
       stroke-width="1"
       stroke-linejoin="round"
       stroke-linecap="butt"
       d="m 246.49487,384.45148 h 52.6929 v 20.72443 h -52.6929 z"
       fill-rule="evenodd"
       id="path303" />
    <path
       fill="#000000"
       d="m 267.09912,390.69055 v -0.60938 h 4.15625 v 0.60938 l -1.35937,0.15625 q -0.0156,0.92187 -0.0156,1.875 0,0.95312 0,1.90625 v 0.71875 q 0,0.9375 0,1.89062 0,0.9375 0.0156,1.89063 l 1.35937,0.17187 v 0.59375 h -4.15625 v -0.59375 l 1.35938,-0.17187 q 0.0156,-0.92188 0.0156,-1.875 0,-0.95313 0,-1.90625 v -0.71875 q 0,-0.95313 0,-1.89063 0,-0.95312 -0.0156,-1.89062 z m 6.04688,0.39062 3.01562,-0.76562 0.20313,0.14062 -0.0625,2.09375 v 4.25 q 0,0.54688 0,1.10938 0.0156,0.54687 0.0312,1.10937 l 2.07812,0.34375 v 0.53125 h -5.4375 v -0.53125 l 2.07813,-0.34375 q 0.0156,-0.5625 0.0156,-1.10937 0.0156,-0.5625 0.0156,-1.10938 v -5.28125 l -1.9375,0.17188 z"
       fill-rule="nonzero"
       id="path305" />
    <path
       fill="#000000"
       fill-opacity="0"
       d="m 30.036356,384.45145 h 52.8189 v 20.7244 h -52.8189 z"
       fill-rule="evenodd"
       id="path307" />
    <path
       fill="#000000"
       d="m 43.67828,392.71426 0.140625,-2.84375 h 8.765625 l 0.125,2.84375 h -0.921875 l -0.359375,-2.04687 h -2.453125 q -0.01563,1.03125 -0.03125,2.07812 0,1.03125 0,2.07813 v 0.79687 q 0,1.01563 0,2.04688 0.01563,1.03125 0.03125,2.07812 l 1.640625,0.17188 v 0.65625 h -4.828125 v -0.65625 l 1.625,-0.17188 q 0.03125,-1.03125 0.03125,-2.0625 0,-1.03125 0,-2.0625 v -0.79687 q 0,-1.03125 0,-2.0625 0,-1.04688 -0.03125,-2.09375 H 44.95953 l -0.34375,2.04687 z m 13.117142,6.625 v -3.57812 h -3.296875 v -0.92188 h 3.296875 v -3.5 h 0.96875 v 3.5 h 3.296875 v 0.92188 h -3.296875 v 3.57812 z m 5.511639,1.23438 v -1.04688 q 0.640625,-0.60937 1.234375,-1.21875 0.609375,-0.625 1.125,-1.17187 1.203125,-1.26563 1.75,-2.28125 0.5625,-1.03125 0.5625,-1.96875 0,-0.98438 -0.515625,-1.5625 -0.515625,-0.57813 -1.40625,-0.57813 -0.15625,0 -0.359375,0.0156 -0.1875,0.0156 -0.421875,0.0625 l -0.296875,1.10937 q -0.15625,0.59375 -0.375,0.84375 -0.21875,0.25 -0.5625,0.25 -0.515625,0 -0.8125,-0.51562 0.09375,-0.84375 0.5625,-1.39063 0.46875,-0.5625 1.171875,-0.82812 0.703125,-0.26563 1.5,-0.26563 1.546875,0 2.25,0.76563 0.71875,0.75 0.71875,1.95312 0,0.70313 -0.28125,1.375 -0.28125,0.65625 -0.96875,1.48438 -0.6875,0.82812 -1.921875,2.01562 -0.328125,0.3125 -0.78125,0.75 -0.453125,0.42188 -0.953125,0.89063 h 5.359375 v 1.3125 z"
       fill-rule="nonzero"
       id="path309" />
    <path
       fill="#f3f3f3"
       d="m 328.4588,413.20215 h 52.69293 v 20.7244 H 328.4588 Z"
       fill-rule="evenodd"
       id="path311" />
    <path
       stroke="#000000"
       stroke-width="1"
       stroke-linejoin="round"
       stroke-linecap="butt"
       d="m 328.4588,413.20215 h 52.69293 v 20.7244 H 328.4588 Z"
       fill-rule="evenodd"
       id="path313" />
    <path
       fill="#000000"
       d="m 349.06308,419.44122 v -0.60938 h 4.15625 v 0.60938 l -1.35937,0.15625 q -0.0156,0.92187 -0.0156,1.875 0,0.95312 0,1.90625 v 0.71875 q 0,0.9375 0,1.89062 0,0.9375 0.0156,1.89063 l 1.35937,0.17187 v 0.59375 h -4.15625 v -0.59375 l 1.35938,-0.17187 q 0.0156,-0.92188 0.0156,-1.875 0,-0.95313 0,-1.90625 v -0.71875 q 0,-0.95313 0,-1.89063 0,-0.95312 -0.0156,-1.89062 z m 6.04684,0.39062 3.01563,-0.76562 0.20312,0.14062 -0.0625,2.09375 v 4.25 q 0,0.54688 0,1.10938 0.0156,0.54687 0.0312,1.10937 l 2.07813,0.34375 v 0.53125 h -5.4375 v -0.53125 l 2.07812,-0.34375 q 0.0156,-0.5625 0.0156,-1.10937 0.0156,-0.5625 0.0156,-1.10938 v -5.28125 l -1.9375,0.17188 z"
       fill-rule="nonzero"
       id="path315" />
    <path
       fill="#000000"
       fill-opacity="0"
       d="m 30.036356,413.2021 h 52.8189 v 20.72443 h -52.8189 z"
       fill-rule="evenodd"
       id="path317" />
    <path
       fill="#000000"
       d="m 43.67828,421.46494 0.140625,-2.84375 h 8.765625 l 0.125,2.84375 h -0.921875 l -0.359375,-2.04687 h -2.453125 q -0.01563,1.03125 -0.03125,2.07812 0,1.03125 0,2.07813 v 0.79687 q 0,1.01563 0,2.04688 0.01563,1.03125 0.03125,2.07812 l 1.640625,0.17188 v 0.65625 h -4.828125 v -0.65625 l 1.625,-0.17188 q 0.03125,-1.03125 0.03125,-2.0625 0,-1.03125 0,-2.0625 v -0.79687 q 0,-1.03125 0,-2.0625 0,-1.04688 -0.03125,-2.09375 H 44.95953 l -0.34375,2.04687 z m 13.117142,6.625 v -3.57812 h -3.296875 v -0.92188 h 3.296875 v -3.5 h 0.96875 v 3.5 h 3.296875 v 0.92188 h -3.296875 v 3.57812 z m 7.449139,-4.60937 h 0.640625 q 1.078125,0 1.671875,-0.54688 0.609375,-0.5625 0.609375,-1.59375 0,-0.875 -0.5,-1.35937 -0.5,-0.48438 -1.453125,-0.48438 -0.15625,0 -0.328125,0.0156 -0.171875,0.0156 -0.40625,0.0469 l -0.203125,0.8125 q -0.125,0.48438 -0.328125,0.73438 -0.1875,0.25 -0.59375,0.25 -0.265625,0 -0.46875,-0.125 -0.203125,-0.125 -0.3125,-0.4375 0.21875,-1 1.015625,-1.5 0.796875,-0.51563 1.90625,-0.51563 1.40625,0 2.234375,0.70313 0.828125,0.6875 0.828125,1.8125 0,0.85937 -0.546875,1.54687 -0.546875,0.67188 -1.546875,1.03125 1.234375,0.23438 1.828125,0.92188 0.59375,0.6875 0.59375,1.6875 0,0.85937 -0.453125,1.54687 -0.4375,0.6875 -1.25,1.09375 -0.796875,0.40625 -1.890625,0.40625 -1.15625,0 -2,-0.53125 -0.84375,-0.53125 -1.0625,-1.73437 0.265625,-0.53125 0.8125,-0.53125 0.421875,0 0.59375,0.28125 0.1875,0.26562 0.359375,0.875 l 0.203125,0.82812 q 0.265625,0.0625 0.484375,0.0781 0.234375,0.0156 0.40625,0.0156 1.1875,0 1.78125,-0.60937 0.59375,-0.625 0.59375,-1.6875 0,-1.04688 -0.609375,-1.64063 -0.609375,-0.59375 -1.84375,-0.59375 h -0.765625 z"
       fill-rule="nonzero"
       id="path319" />
    <path
       fill="#000000"
       fill-opacity="0"
       d="m 30.036356,441.95276 h 52.8189 v 20.7244 h -52.8189 z"
       fill-rule="evenodd"
       id="path321" />
    <path
       fill="#000000"
       d="m 43.67828,450.21558 0.140625,-2.84375 h 8.765625 l 0.125,2.84375 H 51.787655 L 51.42828,448.1687 h -2.453125 q -0.01563,1.03125 -0.03125,2.07813 0,1.03125 0,2.07812 v 0.79688 q 0,1.01562 0,2.04687 0.01563,1.03125 0.03125,2.07813 l 1.640625,0.17187 v 0.65625 h -4.828125 v -0.65625 l 1.625,-0.17187 q 0.03125,-1.03125 0.03125,-2.0625 0,-1.03125 0,-2.0625 v -0.79688 q 0,-1.03125 0,-2.0625 0,-1.04687 -0.03125,-2.09375 H 44.95953 l -0.34375,2.04688 z m 13.117142,6.625 v -3.57813 h -3.296875 v -0.92187 h 3.296875 v -3.5 h 0.96875 v 3.5 h 3.296875 v 0.92187 h -3.296875 v 3.57813 z m 12.480389,-1.85938 h -1.6875 v 3.09375 H 66.260186 V 454.9812 H 61.91644 v -0.84375 l 4.749996,-6.54687 h 0.921875 v 6.39062 h 1.6875 z m -6.40625,-1 h 3.390625 v -4.71875 z"
       fill-rule="nonzero"
       id="path323" />
    <path
       fill="#f3f3f3"
       d="m 410.42276,441.9528 h 52.6929 v 20.72443 h -52.6929 z"
       fill-rule="evenodd"
       id="path325" />
    <path
       stroke="#000000"
       stroke-width="1"
       stroke-linejoin="round"
       stroke-linecap="butt"
       d="m 410.42276,441.9528 h 52.6929 v 20.72443 h -52.6929 z"
       fill-rule="evenodd"
       id="path327" />
    <path
       fill="#000000"
       d="m 431.027,448.19186 v -0.60937 h 4.15625 v 0.60937 l -1.35938,0.15625 q -0.0156,0.92188 -0.0156,1.875 0,0.95313 0,1.90625 v 0.71875 q 0,0.9375 0,1.89063 0,0.9375 0.0156,1.89062 l 1.35938,0.17188 v 0.59375 H 431.027 v -0.59375 l 1.35937,-0.17188 q 0.0156,-0.92187 0.0156,-1.875 0,-0.95312 0,-1.90625 v -0.71875 q 0,-0.95312 0,-1.89062 0,-0.95313 -0.0156,-1.89063 z m 6.04687,0.39063 3.01563,-0.76563 0.20312,0.14063 -0.0625,2.09375 v 4.25 q 0,0.54687 0,1.10937 0.0156,0.54688 0.0312,1.10938 l 2.07813,0.34375 v 0.53125 h -5.4375 v -0.53125 l 2.07812,-0.34375 q 0.0156,-0.5625 0.0156,-1.10938 0.0156,-0.5625 0.0156,-1.10937 v -5.28125 l -1.9375,0.17187 z"
       fill-rule="nonzero"
       id="path329" />
    <path
       fill="#000000"
       fill-opacity="0"
       d="m 381.15173,423.56433 29.25983,28.75592"
       fill-rule="evenodd"
       id="path331" />
    <path
       stroke="#000000"
       stroke-width="1"
       stroke-linejoin="round"
       stroke-linecap="butt"
       d="m 381.15173,423.56433 24.98053,24.55029"
       fill-rule="evenodd"
       id="path333" />
    <path
       fill="#000000"
       stroke="#000000"
       stroke-width="1"
       stroke-linecap="butt"
       d="m 404.9745,449.29266 4.39444,2.0029 -2.07892,-4.35898 z"
       fill-rule="evenodd"
       id="path335" />
    <path
       fill="#000000"
       fill-opacity="0"
       d="M 328.4588,423.56433 H 217.21472"
       fill-rule="evenodd"
       id="path337" />
    <path
       stroke="#980000"
       stroke-width="1"
       stroke-linejoin="round"
       stroke-linecap="butt"
       d="M 328.4588,423.56433 H 223.2147"
       fill-rule="evenodd"
       id="path339" />
    <path
       fill="#980000"
       stroke="#980000"
       stroke-width="1"
       stroke-linecap="butt"
       d="m 223.2147,421.91263 -4.5381,1.6517 4.5381,1.65174 z"
       fill-rule="evenodd"
       id="path341" />
    <path
       fill="#000000"
       fill-opacity="0"
       d="m 328.6247,374.0106 v 0 c 0,-2.12512 1.72275,-3.84787 3.84787,-3.84787 h 50.41452 c 1.02051,0 1.99924,0.4054 2.72086,1.12701 0.72158,0.72162 1.12701,1.70032 1.12701,2.72086 v 15.3909 c 0,2.12512 -1.72275,3.84784 -3.84787,3.84784 h -50.41452 v 0 c -2.12512,0 -3.84787,-1.72272 -3.84787,-3.84784 z"
       fill-rule="evenodd"
       id="path343" />
    <path
       stroke="#980000"
       stroke-width="1"
       stroke-linejoin="round"
       stroke-linecap="butt"
       stroke-dasharray="4, 3"
       d="m 328.6247,374.0106 v 0 c 0,-2.12512 1.72275,-3.84787 3.84787,-3.84787 h 50.41452 c 1.02051,0 1.99924,0.4054 2.72086,1.12701 0.72158,0.72162 1.12701,1.70032 1.12701,2.72086 v 15.3909 c 0,2.12512 -1.72275,3.84784 -3.84787,3.84784 h -50.41452 v 0 c -2.12512,0 -3.84787,-1.72272 -3.84787,-3.84784 z"
       fill-rule="evenodd"
       id="path345" />
    <path
       fill="#000000"
       d="m 337.73477,380.69354 v -0.51563 h 2.48438 v 0.51563 l -0.78125,0.14062 -1.90625,2.35938 1.84375,2.64062 1.01562,0.1875 v 0.48438 h -3.25 v -0.48438 l 0.95313,-0.17187 -1.3125,-1.90625 -1.46875,1.90625 1,0.17187 v 0.48438 h -2.65625 v -0.48438 l 0.84375,-0.15625 1.95312,-2.40625 -1.79687,-2.625 -0.90625,-0.14062 v -0.51563 h 2.96875 v 0.51563 l -0.8125,0.14062 1.28125,1.85938 1.42187,-1.82813 z m 3.44809,5.8125 v -0.85938 q 0.53125,-0.53125 1.03125,-1.03125 0.5,-0.51562 0.92187,-0.96875 1,-1.0625 1.46875,-1.90625 0.46875,-0.85937 0.46875,-1.625 0,-0.82812 -0.4375,-1.3125 -0.4375,-0.48437 -1.17187,-0.48437 -0.125,0 -0.29688,0.0156 -0.15625,0.0156 -0.34375,0.0625 l -0.26562,0.90625 q -0.125,0.5 -0.3125,0.70313 -0.17188,0.20312 -0.45313,0.20312 -0.4375,0 -0.67187,-0.42187 0.0781,-0.70313 0.45312,-1.15625 0.39063,-0.46875 0.96875,-0.6875 0.59375,-0.21875 1.26563,-0.21875 1.29687,0 1.875,0.64062 0.59375,0.625 0.59375,1.625 0,0.57813 -0.23438,1.14063 -0.23437,0.54687 -0.8125,1.23437 -0.57812,0.6875 -1.59375,1.67188 -0.26562,0.26562 -0.65625,0.625 -0.375,0.35937 -0.78125,0.75 h 4.45313 v 1.09375 z m 15.80072,-2.6875 h -6.29688 v -0.75 h 6.29688 z m 0,-2.65625 h -6.29688 v -0.75 h 6.29688 z m 5.26077,1.04687 q 0,1.54688 0.21875,2.39063 0.23438,0.84375 0.59375,1.17187 0.35938,0.3125 0.76563,0.3125 0.40625,0 0.75,-0.32812 0.35937,-0.32813 0.57812,-1.17188 0.21875,-0.84375 0.21875,-2.375 0,-1.54687 -0.21875,-2.39062 -0.21875,-0.84375 -0.57812,-1.17188 -0.34375,-0.32812 -0.75,-0.32812 -0.3125,0 -0.59375,0.17187 -0.28125,0.17188 -0.5,0.60938 -0.21875,0.42187 -0.35938,1.1875 -0.125,0.75 -0.125,1.92187 z m 1.57813,-4.48437 q 0.70312,0 1.32812,0.4375 0.64063,0.42187 1.04688,1.42187 0.40625,0.98438 0.40625,2.625 0,1.64063 -0.40625,2.625 -0.40625,0.98438 -1.04688,1.42188 -0.625,0.42187 -1.32812,0.42187 -0.70313,0 -1.35938,-0.42187 -0.64062,-0.4375 -1.04687,-1.42188 -0.39063,-0.98437 -0.39063,-2.625 0,-1.64062 0.39063,-2.625 0.40625,-1 1.04687,-1.42187 0.65625,-0.4375 1.35938,-0.4375 z m 7.53903,2.96875 v -0.51563 h 2.48437 v 0.51563 l -0.78125,0.14062 -1.90625,2.35938 1.84375,2.64062 1.01563,0.1875 v 0.48438 h -3.25 v -0.48438 l 0.95312,-0.17187 -1.3125,-1.90625 -1.46875,1.90625 1,0.17187 v 0.48438 h -2.65625 v -0.48438 l 0.84375,-0.15625 1.95313,-2.40625 -1.79688,-2.625 -0.90625,-0.14062 v -0.51563 h 2.96875 v 0.51563 l -0.8125,0.14062 1.28125,1.85938 1.42188,-1.82813 z m 3.19806,5.8125 v -0.48438 l 1,-0.17187 q 0,-0.5 0,-1.09375 0.0156,-0.59375 0.0156,-1.04688 v -5.85937 l -1.09375,-0.125 v -0.46875 l 2.04688,-0.59375 0.1875,0.0937 -0.0625,1.90625 v 2.35937 q 0.48437,-0.53125 1,-0.76562 0.51562,-0.25 1.0625,-0.25 0.70312,0 1.26562,0.39062 0.57813,0.375 0.92188,1.10938 0.34375,0.73437 0.34375,1.78125 0,1.01562 -0.35938,1.78125 -0.35937,0.76562 -0.98437,1.1875 -0.625,0.42187 -1.40625,0.42187 -0.46875,0 -0.9375,-0.20312 -0.45313,-0.20313 -0.90625,-0.73438 l -0.0937,0.90625 z m 3.79687,-5.75 q -0.3125,0 -0.71875,0.17187 -0.39062,0.15625 -0.9375,0.60938 v 3.65625 q 0.40625,0.375 0.8125,0.54687 0.40625,0.17188 0.76563,0.17188 0.71875,0 1.23437,-0.60938 0.53125,-0.625 0.53125,-1.92187 0,-1.26563 -0.48437,-1.9375 -0.46875,-0.6875 -1.20313,-0.6875 z"
       fill-rule="nonzero"
       id="path347" />
    <path
       fill="#000000"
       fill-opacity="0"
       d="m 328.6247,381.70602 c -9.96851,0 -19.93701,20.94489 -19.93701,41.88977"
       fill-rule="evenodd"
       id="path349" />
    <path
       stroke="#980000"
       stroke-width="1"
       stroke-linejoin="round"
       stroke-linecap="butt"
       stroke-dasharray="4, 3"
       d="m 328.6247,381.70602 c -9.96851,0 -19.93701,20.94489 -19.93701,41.88977"
       fill-rule="evenodd"
       id="path351" />
    <path
       fill="#f3f3f3"
       d="m 82.891685,355.70206 h 51.937005 v 20.7244 H 82.891685 Z"
       fill-rule="evenodd"
       id="path353" />
    <path
       stroke="#000000"
       stroke-width="1"
       stroke-linejoin="round"
       stroke-linecap="butt"
       d="m 82.891685,355.70206 h 51.937005 v 20.7244 H 82.891685 Z"
       fill-rule="evenodd"
       id="path355" />
    <path
       fill="#000000"
       d="m 103.11799,361.94113 v -0.60938 h 4.15625 v 0.60938 l -1.35937,0.15625 q -0.0156,0.92187 -0.0156,1.875 0,0.95312 0,1.90625 v 0.71875 q 0,0.9375 0,1.89062 0,0.9375 0.0156,1.89063 l 1.35937,0.17187 v 0.59375 h -4.15625 v -0.59375 l 1.35938,-0.17187 q 0.0156,-0.92188 0.0156,-1.875 0,-0.95313 0,-1.90625 v -0.71875 q 0,-0.95313 0,-1.89063 0,-0.95312 -0.0156,-1.89062 z m 5.51561,9.20312 v -0.95312 q 0.57812,-0.57813 1.125,-1.14063 0.54687,-0.5625 1.01562,-1.0625 1.10938,-1.15625 1.60938,-2.09375 0.51562,-0.9375 0.51562,-1.78125 0,-0.90625 -0.48437,-1.4375 -0.46875,-0.53125 -1.26563,-0.53125 -0.15625,0 -0.34375,0.0156 -0.17187,0.0156 -0.375,0.0625 l -0.28125,1 q -0.14062,0.54687 -0.34375,0.78125 -0.20312,0.21875 -0.5,0.21875 -0.48437,0 -0.75,-0.46875 0.0781,-0.76563 0.5,-1.26563 0.4375,-0.51562 1.07813,-0.75 0.64062,-0.25 1.375,-0.25 1.42187,0 2.0625,0.70313 0.65625,0.6875 0.65625,1.78125 0,0.65625 -0.26563,1.26562 -0.25,0.59375 -0.89062,1.35938 -0.625,0.75 -1.75,1.82812 -0.29688,0.29688 -0.71875,0.70313 -0.40625,0.39062 -0.85938,0.8125 h 4.90625 v 1.20312 z"
       fill-rule="nonzero"
       id="path357" />
    <path
       fill="#000000"
       fill-opacity="0"
       d="m 134.82869,366.06424 29.60629,28.75592"
       fill-rule="evenodd"
       id="path359" />
    <path
       stroke="#000000"
       stroke-width="1"
       stroke-linejoin="round"
       stroke-linecap="butt"
       d="m 134.82869,366.06427 25.30229,24.57553"
       fill-rule="evenodd"
       id="path361" />
    <path
       fill="#000000"
       stroke="#000000"
       stroke-width="1"
       stroke-linecap="butt"
       d="m 158.98018,391.82465 4.40614,1.97696 -2.10452,-4.34665 z"
       fill-rule="evenodd"
       id="path363" />
    <path
       fill="#f3f3f3"
       d="m 164.43645,384.45685 h 52.7874 v 20.72443 h -52.7874 z"
       fill-rule="evenodd"
       id="path365" />
    <path
       stroke="#000000"
       stroke-width="1"
       stroke-linejoin="round"
       stroke-linecap="butt"
       d="m 164.43645,384.45685 h 52.7874 v 20.72443 h -52.7874 z"
       fill-rule="evenodd"
       id="path367" />
    <path
       fill="#000000"
       d="m 185.08795,390.69592 v -0.60938 h 4.15625 v 0.60938 l -1.35938,0.15625 q -0.0156,0.92187 -0.0156,1.875 0,0.95312 0,1.90625 v 0.71875 q 0,0.9375 0,1.89062 0,0.9375 0.0156,1.89063 l 1.35938,0.17187 v 0.59375 h -4.15625 v -0.59375 l 1.35937,-0.17187 q 0.0156,-0.92188 0.0156,-1.875 0,-0.95313 0,-1.90625 v -0.71875 q 0,-0.95313 0,-1.89063 0,-0.95312 -0.0156,-1.89062 z m 5.51561,9.20312 v -0.95312 q 0.57812,-0.57813 1.125,-1.14063 0.54687,-0.5625 1.01562,-1.0625 1.10938,-1.15625 1.60938,-2.09375 0.51562,-0.9375 0.51562,-1.78125 0,-0.90625 -0.48437,-1.4375 -0.46875,-0.53125 -1.26563,-0.53125 -0.15625,0 -0.34375,0.0156 -0.17187,0.0156 -0.375,0.0625 l -0.28125,1 q -0.14062,0.54687 -0.34375,0.78125 -0.20312,0.21875 -0.5,0.21875 -0.48437,0 -0.75,-0.46875 0.0781,-0.76563 0.5,-1.26563 0.4375,-0.51562 1.07813,-0.75 0.64062,-0.25 1.375,-0.25 1.42187,0 2.0625,0.70313 0.65625,0.6875 0.65625,1.78125 0,0.65625 -0.26563,1.26562 -0.25,0.59375 -0.89062,1.35938 -0.625,0.75 -1.75,1.82812 -0.29688,0.29688 -0.71875,0.70313 -0.40625,0.39062 -0.85938,0.8125 h 4.90625 v 1.20312 z"
       fill-rule="nonzero"
       id="path369" />
    <path
       fill="#000000"
       fill-opacity="0"
       d="m 217.22385,423.57495 29.25984,28.75592"
       fill-rule="evenodd"
       id="path371" />
    <path
       stroke="#000000"
       stroke-width="1"
       stroke-linejoin="round"
       stroke-linecap="butt"
       d="m 217.22383,423.57498 24.98053,24.55026"
       fill-rule="evenodd"
       id="path373" />
    <path
       fill="#000000"
       stroke="#000000"
       stroke-width="1"
       stroke-linecap="butt"
       d="m 241.04659,449.30328 4.39442,2.0029 -2.0789,-4.35898 z"
       fill-rule="evenodd"
       id="path375" />
    <path
       fill="#000000"
       fill-opacity="0"
       d="m 299.18777,452.3255 29.25986,28.75592"
       fill-rule="evenodd"
       id="path377" />
    <path
       stroke="#000000"
       stroke-width="1"
       stroke-linejoin="round"
       stroke-linecap="butt"
       d="m 299.18777,452.3255 24.98053,24.55029"
       fill-rule="evenodd"
       id="path379" />
    <path
       fill="#000000"
       stroke="#000000"
       stroke-width="1"
       stroke-linecap="butt"
       d="m 323.01053,478.05383 4.39444,2.00287 -2.07892,-4.35898 z"
       fill-rule="evenodd"
       id="path381" />
    <path
       fill="#f3f3f3"
       d="m 164.43645,413.21277 h 52.7874 v 20.7244 h -52.7874 z"
       fill-rule="evenodd"
       id="path383" />
    <path
       stroke="#000000"
       stroke-width="1"
       stroke-linejoin="round"
       stroke-linecap="butt"
       d="m 164.43645,413.21277 h 52.7874 v 20.7244 h -52.7874 z"
       fill-rule="evenodd"
       id="path385" />
    <path
       fill="#000000"
       d="m 185.08795,419.45184 v -0.60938 h 4.15625 v 0.60938 l -1.35938,0.15625 q -0.0156,0.92187 -0.0156,1.875 0,0.95312 0,1.90625 v 0.71875 q 0,0.9375 0,1.89062 0,0.9375 0.0156,1.89063 l 1.35938,0.17187 v 0.59375 h -4.15625 v -0.59375 l 1.35937,-0.17187 q 0.0156,-0.92188 0.0156,-1.875 0,-0.95313 0,-1.90625 v -0.71875 q 0,-0.95313 0,-1.89063 0,-0.95312 -0.0156,-1.89062 z m 5.51561,9.20312 v -0.95312 q 0.57812,-0.57813 1.125,-1.14063 0.54687,-0.5625 1.01562,-1.0625 1.10938,-1.15625 1.60938,-2.09375 0.51562,-0.9375 0.51562,-1.78125 0,-0.90625 -0.48437,-1.4375 -0.46875,-0.53125 -1.26563,-0.53125 -0.15625,0 -0.34375,0.0156 -0.17187,0.0156 -0.375,0.0625 l -0.28125,1 q -0.14062,0.54687 -0.34375,0.78125 -0.20312,0.21875 -0.5,0.21875 -0.48437,0 -0.75,-0.46875 0.0781,-0.76563 0.5,-1.26563 0.4375,-0.51562 1.07813,-0.75 0.64062,-0.25 1.375,-0.25 1.42187,0 2.0625,0.70313 0.65625,0.6875 0.65625,1.78125 0,0.65625 -0.26563,1.26562 -0.25,0.59375 -0.89062,1.35938 -0.625,0.75 -1.75,1.82812 -0.29688,0.29688 -0.71875,0.70313 -0.40625,0.39062 -0.85938,0.8125 h 4.90625 v 1.20312 z"
       fill-rule="nonzero"
       id="path387" />
    <path
       fill="#f3f3f3"
       d="m 246.49487,441.9633 h 52.6929 v 20.72443 h -52.6929 z"
       fill-rule="evenodd"
       id="path389" />
    <path
       stroke="#000000"
       stroke-width="1"
       stroke-linejoin="round"
       stroke-linecap="butt"
       d="m 246.49487,441.9633 h 52.6929 v 20.72443 h -52.6929 z"
       fill-rule="evenodd"
       id="path391" />
    <path
       fill="#000000"
       d="m 267.09912,448.20236 v -0.60938 h 4.15625 v 0.60938 l -1.35937,0.15625 q -0.0156,0.92187 -0.0156,1.875 0,0.95312 0,1.90625 v 0.71875 q 0,0.9375 0,1.89062 0,0.9375 0.0156,1.89063 l 1.35937,0.17187 v 0.59375 h -4.15625 v -0.59375 l 1.35938,-0.17187 q 0.0156,-0.92188 0.0156,-1.875 0,-0.95313 0,-1.90625 v -0.71875 q 0,-0.95313 0,-1.89063 0,-0.95312 -0.0156,-1.89062 z m 5.51563,9.20312 v -0.95312 q 0.57812,-0.57813 1.125,-1.14063 0.54687,-0.5625 1.01562,-1.0625 1.10938,-1.15625 1.60938,-2.09375 0.51562,-0.9375 0.51562,-1.78125 0,-0.90625 -0.48437,-1.4375 -0.46875,-0.53125 -1.26563,-0.53125 -0.15625,0 -0.34375,0.0156 -0.17187,0.0156 -0.375,0.0625 l -0.28125,1 q -0.14062,0.54687 -0.34375,0.78125 -0.20312,0.21875 -0.5,0.21875 -0.48437,0 -0.75,-0.46875 0.0781,-0.76563 0.5,-1.26563 0.4375,-0.51562 1.07813,-0.75 0.64062,-0.25 1.375,-0.25 1.42187,0 2.0625,0.70313 0.65625,0.6875 0.65625,1.78125 0,0.65625 -0.26563,1.26562 -0.25,0.59375 -0.89062,1.35938 -0.625,0.75 -1.75,1.82812 -0.29688,0.29688 -0.71875,0.70313 -0.40625,0.39062 -0.85938,0.8125 h 4.90625 v 1.20312 z"
       fill-rule="nonzero"
       id="path393" />
    <path
       fill="#000000"
       fill-opacity="0"
       d="m 190.83014,405.18127 v 8.03149"
       fill-rule="evenodd"
       id="path395" />
    <path
       stroke="#000000"
       stroke-width="1"
       stroke-linejoin="round"
       stroke-linecap="butt"
       d="m 190.83014,405.18127 v 8.03149"
       fill-rule="evenodd"
       id="path397" />
    <path
       fill="#000000"
       fill-opacity="0"
       d="M 246.49487,394.8137 H 217.23503"
       fill-rule="evenodd"
       id="path399" />
    <path
       stroke="#4a86e8"
       stroke-width="1"
       stroke-linejoin="round"
       stroke-linecap="butt"
       d="M 246.49487,394.8137 H 223.23503"
       fill-rule="evenodd"
       id="path401" />
    <path
       fill="#4a86e8"
       stroke="#4a86e8"
       stroke-width="1"
       stroke-linecap="butt"
       d="m 223.23503,393.16196 -4.5381,1.65173 4.5381,1.65174 z"
       fill-rule="evenodd"
       id="path403" />
    <path
       fill="#000000"
       fill-opacity="0"
       d="m 252.26172,350.37192 v 0 c 0,-2.12512 1.72273,-3.84784 3.84784,-3.84784 h 54.79251 c 1.02051,0 1.99921,0.4054 2.72082,1.12698 0.72162,0.72162 1.12702,1.70035 1.12702,2.72086 v 15.39093 c 0,2.12509 -1.72275,3.84784 -3.84784,3.84784 h -54.79251 c -2.12511,0 -3.84784,-1.72275 -3.84784,-3.84784 z"
       fill-rule="evenodd"
       id="path405" />
    <path
       stroke="#4a86e8"
       stroke-width="1"
       stroke-linejoin="round"
       stroke-linecap="butt"
       stroke-dasharray="4, 3"
       d="m 252.26172,350.37192 v 0 c 0,-2.12512 1.72273,-3.84784 3.84784,-3.84784 h 54.79251 c 1.02051,0 1.99921,0.4054 2.72082,1.12698 0.72162,0.72162 1.12702,1.70035 1.12702,2.72086 v 15.39093 c 0,2.12509 -1.72275,3.84784 -3.84784,3.84784 h -54.79251 c -2.12511,0 -3.84784,-1.72275 -3.84784,-3.84784 z"
       fill-rule="evenodd"
       id="path407" />
    <path
       fill="#000000"
       d="m 271.47098,357.05487 v -0.51563 h 2.48437 v 0.51563 l -0.78125,0.14062 -1.90625,2.35938 1.84375,2.64062 1.01563,0.1875 v 0.48438 h -3.25 v -0.48438 l 0.95312,-0.17187 -1.3125,-1.90625 -1.46875,1.90625 1,0.17187 v 0.48438 h -2.65625 v -0.48438 l 0.84375,-0.15625 1.95313,-2.40625 -1.79688,-2.625 -0.90625,-0.14062 v -0.51563 h 2.96875 v 0.51563 l -0.8125,0.14062 1.28125,1.85938 1.42188,-1.82813 z m 3.44806,5.8125 v -0.85938 q 0.53125,-0.53125 1.03125,-1.03125 0.5,-0.51562 0.92187,-0.96875 1,-1.0625 1.46875,-1.90625 0.46875,-0.85937 0.46875,-1.625 0,-0.82812 -0.4375,-1.3125 -0.4375,-0.48437 -1.17187,-0.48437 -0.125,0 -0.29688,0.0156 -0.15625,0.0156 -0.34375,0.0625 l -0.26562,0.90625 q -0.125,0.5 -0.3125,0.70313 -0.17188,0.20312 -0.45313,0.20312 -0.4375,0 -0.67187,-0.42187 0.0781,-0.70313 0.45312,-1.15625 0.39063,-0.46875 0.96875,-0.6875 0.59375,-0.21875 1.26563,-0.21875 1.29687,0 1.875,0.64062 0.59375,0.625 0.59375,1.625 0,0.57813 -0.23438,1.14063 -0.23437,0.54687 -0.8125,1.23437 -0.57812,0.6875 -1.59375,1.67188 -0.26562,0.26562 -0.65625,0.625 -0.375,0.35937 -0.78125,0.75 h 4.45313 v 1.09375 z m 15.80072,-2.6875 h -6.29688 v -0.75 h 6.29688 z m 0,-2.65625 h -6.29688 v -0.75 h 6.29688 z m 5.47952,5.51562 q -0.35937,0 -0.60937,-0.25 -0.23438,-0.26562 -0.23438,-0.60937 0,-0.35938 0.23438,-0.60938 0.25,-0.26562 0.60937,-0.26562 0.35938,0 0.60938,0.26562 0.26562,0.25 0.26562,0.60938 0,0.34375 -0.26562,0.60937 -0.25,0.25 -0.60938,0.25 z m 2.6875,-6.3125 q 0,1.25 -1.34375,1.67188 l -0.45312,0.15625 q -0.40625,0.14062 -0.51563,0.28125 -0.10937,0.125 -0.10937,0.45312 v 0.73438 h -0.51563 l -0.15625,-0.5625 q -0.125,-0.375 -0.17187,-0.59375 -0.0469,-0.21875 -0.0469,-0.32813 0,-0.3125 0.23438,-0.5 0.25,-0.20312 0.82812,-0.39062 l 0.76563,-0.23438 q 0.75,-0.25 0.75,-0.92187 0,-0.25 -0.0937,-0.5 -0.0937,-0.25 -0.26563,-0.48438 l -1.73437,-0.29687 q -0.59375,-0.10938 -0.78125,-0.28125 -0.1875,-0.1875 -0.1875,-0.45313 0,-0.29687 0.1875,-0.45312 0.1875,-0.17188 0.54687,-0.26563 0.4375,0.0312 0.95313,0.26563 0.51562,0.21875 0.98437,0.60937 0.48438,0.39063 0.79688,0.92188 0.32812,0.53125 0.32812,1.17187 z"
       fill-rule="nonzero"
       id="path409" />
    <path
       fill="#000000"
       fill-opacity="0"
       d="m 252.26172,358.06738 c -10.03151,0 -20.063,18.48819 -20.063,36.97638"
       fill-rule="evenodd"
       id="path411" />
    <path
       stroke="#4a86e8"
       stroke-width="1"
       stroke-linejoin="round"
       stroke-linecap="butt"
       stroke-dasharray="4, 3"
       d="m 252.26172,358.06738 c -10.03151,0 -20.063,18.48819 -20.063,36.97638"
       fill-rule="evenodd"
       id="path413" />
  </g>
</svg>
