<?xml version="1.0" encoding="UTF-8" standalone="no"?>
<svg
   version="1.1"
   viewBox="0 0 466.60629 149.91339"
   fill="none"
   stroke="none"
   stroke-linecap="square"
   stroke-miterlimit="10"
   id="svg159"
   sodipodi:docname="cpu-hazard-structural.svg"
   width="466.60629"
   height="149.91339"
   inkscape:version="1.1.2 (b8e25be8, 2022-02-05)"
   xmlns:inkscape="http://www.inkscape.org/namespaces/inkscape"
   xmlns:sodipodi="http://sodipodi.sourceforge.net/DTD/sodipodi-0.dtd"
   xmlns="http://www.w3.org/2000/svg"
   xmlns:svg="http://www.w3.org/2000/svg">
  <defs
     id="defs163" />
  <sodipodi:namedview
     id="namedview161"
     pagecolor="#ffffff"
     bordercolor="#666666"
     borderopacity="1.0"
     inkscape:pageshadow="2"
     inkscape:pageopacity="0.0"
     inkscape:pagecheckerboard="0"
     showgrid="false"
     inkscape:zoom="1.05"
     inkscape:cx="470"
     inkscape:cy="195.71429"
     inkscape:window-width="1296"
     inkscape:window-height="969"
     inkscape:window-x="0"
     inkscape:window-y="25"
     inkscape:window-maximized="0"
     inkscape:current-layer="g157" />
  <clipPath
     id="g2fd53e73fb8_0_45.0">
    <path
       d="M 0,0 H 960 V 540 H 0 Z"
       clip-rule="nonzero"
       id="path2" />
  </clipPath>
  <g
     clip-path="url(#g2fd53e73fb8_0_45.0)"
     id="g157"
     transform="translate(-9.450131,-74.52887)">
    <path
       fill="#000000"
       fill-opacity="0"
       d="M 9.950131,75.02887 H 475.55643 V 223.94226 H 9.950131 Z"
       fill-rule="evenodd"
       id="path7" />
    <path
       fill="#d9d9d9"
       d="m 52.43707,78.56367 h 52.7874 v 26.64567 h -52.7874 z"
       fill-rule="evenodd"
       id="path11" />
    <path
       stroke="#000000"
       stroke-width="1"
       stroke-linejoin="round"
       stroke-linecap="butt"
       d="m 52.43707,78.56367 h 52.7874 v 26.64567 h -52.7874 z"
       fill-rule="evenodd"
       id="path13" />
    <path
       fill="#000000"
       d="m 74.901886,87.69963 v -0.65625 h 7.96875 l 0.109375,2.828125 h -0.90625 l -0.359375,-2.03125 h -3.75 q -0.01563,1.03125 -0.03125,2.0625 0,1.015625 0,2 h 2.46875 l 0.234375,-1.515625 h 0.734375 v 3.9375 h -0.734375 l -0.234375,-1.671875 h -2.46875 q 0,1.1875 0,2.234375 0.01563,1.03125 0.03125,2.03125 l 1.484375,0.171875 v 0.65625 h -4.546875 v -0.65625 l 1.46875,-0.171875 q 0.03125,-1.015625 0.03125,-2.046875 0,-1.046875 0,-2.078125 v -0.796875 q 0,-1.03125 0,-2.0625 0,-1.03125 -0.03125,-2.0625 z"
       fill-rule="nonzero"
       id="path15" />
    <path
       fill="#d9d9d9"
       d="m 134.40102,78.564995 h 52.7874 v 26.645665 h -52.7874 z"
       fill-rule="evenodd"
       id="path17" />
    <path
       stroke="#000000"
       stroke-width="1"
       stroke-linejoin="round"
       stroke-linecap="butt"
       d="m 134.40102,78.564995 h 52.7874 v 26.645665 h -52.7874 z"
       fill-rule="evenodd"
       id="path19" />
    <path
       fill="#000000"
       d="m 158.84908,92.591576 q 0,1.171875 0,2.265625 0.0156,1.078125 0.0312,2.140625 h 1.26562 q 1.84375,0 2.82813,-1.203125 1,-1.21875 1,-3.390625 0,-2.25 -0.98438,-3.4375 -0.96875,-1.1875 -2.70312,-1.1875 h -1.40625 q -0.0156,1.03125 -0.0312,2.09375 0,1.0625 0,2.125 z m -3.03125,-4.890625 v -0.65625 h 4.71875 q 1.53125,0 2.70312,0.625 1.17188,0.609375 1.82813,1.796875 0.65625,1.1875 0.65625,2.9375 0,1.734375 -0.71875,2.921875 -0.71875,1.1875 -1.96875,1.8125 -1.23438,0.609375 -2.79688,0.609375 h -4.42187 v -0.65625 l 1.46875,-0.171875 q 0.0312,-1.03125 0.0312,-2.09375 0,-1.0625 0,-2.234375 v -0.59375 q 0,-1.03125 0,-2.0625 0,-1.03125 -0.0312,-2.0625 z"
       fill-rule="nonzero"
       id="path21" />
    <path
       fill="#000000"
       fill-opacity="0"
       d="M 9.228346e-4,114.15485 H 52.81982 v 20.72442 H 9.228346e-4 Z"
       fill-rule="evenodd"
       id="path23" />
    <path
       fill="#000000"
       d="m 21.890863,122.41769 0.140625,-2.84375 h 8.765625 l 0.125,2.84375 h -0.921875 l -0.359375,-2.04688 h -2.453125 q -0.01563,1.03125 -0.03125,2.07813 0,1.03125 0,2.07812 v 0.79688 q 0,1.01562 0,2.04687 0.01563,1.03125 0.03125,2.07812 l 1.640625,0.17188 v 0.65625 h -4.828125 v -0.65625 l 1.625,-0.17188 q 0.03125,-1.03125 0.03125,-2.06249 0,-1.03125 0,-2.0625 v -0.79688 q 0,-1.03125 0,-2.0625 0,-1.04687 -0.03125,-2.09375 h -2.453125 l -0.34375,2.04688 z"
       fill-rule="nonzero"
       id="path25" />
    <path
       fill="#f3f3f3"
       d="m 52.85625,114.15087 h 51.93701 v 20.7244 H 52.85625 Z"
       fill-rule="evenodd"
       id="path27" />
    <path
       stroke="#000000"
       stroke-width="1"
       stroke-linejoin="round"
       stroke-linecap="butt"
       d="m 52.85625,114.15087 h 51.93701 v 20.7244 H 52.85625 Z"
       fill-rule="evenodd"
       id="path29" />
    <path
       fill="#000000"
       d="m 73.08256,120.38995 v -0.60938 h 4.15625 v 0.60938 l -1.359375,0.15625 q -0.01563,0.92187 -0.01563,1.875 0,0.95312 0,1.90625 v 0.71875 q 0,0.9375 0,1.89062 0,0.9375 0.01563,1.89063 l 1.359375,0.17188 v 0.59375 h -4.15625 v -0.59375 l 1.359375,-0.17188 q 0.01563,-0.92188 0.01563,-1.875 0,-0.95313 0,-1.90625 v -0.71875 q 0,-0.95313 0,-1.89063 0,-0.95312 -0.01563,-1.89062 z m 6.04686,0.39062 3.015625,-0.76562 0.203125,0.14062 -0.0625,2.09375 v 4.25 q 0,0.54688 0,1.10938 0.01563,0.54688 0.03125,1.10938 l 2.078125,0.34375 v 0.53125 h -5.4375 v -0.53125 l 2.078125,-0.34375 q 0.01563,-0.5625 0.01563,-1.10938 0.01563,-0.5625 0.01563,-1.10938 v -5.28125 l -1.9375,0.17188 z"
       fill-rule="nonzero"
       id="path31" />
    <path
       fill="#000000"
       fill-opacity="0"
       d="m 104.79326,124.51308 29.60629,28.7559"
       fill-rule="evenodd"
       id="path33" />
    <path
       stroke="#000000"
       stroke-width="1"
       stroke-linejoin="round"
       stroke-linecap="butt"
       d="m 104.79326,124.51307 25.30229,24.57554"
       fill-rule="evenodd"
       id="path35" />
    <path
       fill="#000000"
       stroke="#000000"
       stroke-width="1"
       stroke-linecap="butt"
       d="m 128.94475,150.27344 4.40613,1.97699 -2.10451,-4.34666 z"
       fill-rule="evenodd"
       id="path37" />
    <path
       fill="#000000"
       fill-opacity="0"
       d="m 134.3861,187.93622 h 52.81891 v 38.26771 H 134.3861 Z"
       fill-rule="evenodd"
       id="path39" />
    <path
       fill="#000000"
       d="m 155.59169,218.02882 q -0.51563,0 -0.875,-0.35938 -0.34375,-0.35937 -0.34375,-0.85937 0,-0.53125 0.34375,-0.89063 0.35937,-0.35937 0.875,-0.35937 0.53125,0 0.875,0.35937 0.35937,0.35938 0.35937,0.89063 0,0.5 -0.35937,0.85937 -0.34375,0.35938 -0.875,0.35938 z m 5.20312,0 q -0.51562,0 -0.875,-0.35938 -0.34375,-0.35937 -0.34375,-0.85937 0,-0.53125 0.34375,-0.89063 0.35938,-0.35937 0.875,-0.35937 0.53125,0 0.875,0.35937 0.35938,0.35938 0.35938,0.89063 0,0.5 -0.35938,0.85937 -0.34375,0.35938 -0.875,0.35938 z m 5.1875,0 q -0.51562,0 -0.875,-0.35938 -0.34375,-0.35937 -0.34375,-0.85937 0,-0.53125 0.34375,-0.89063 0.35938,-0.35937 0.875,-0.35937 0.53125,0 0.875,0.35937 0.35938,0.35938 0.35938,0.89063 0,0.5 -0.35938,0.85937 -0.34375,0.35938 -0.875,0.35938 z"
       fill-rule="nonzero"
       id="path41" />
    <path
       fill="#000000"
       fill-opacity="0"
       d="M 9.228346e-4,142.90552 H 52.81982 v 20.72441 H 9.228346e-4 Z"
       fill-rule="evenodd"
       id="path43" />
    <path
       fill="#000000"
       d="m 13.642847,151.16835 0.140625,-2.84375 h 8.765625 l 0.125,2.84375 h -0.921875 l -0.359375,-2.04688 h -2.453125 q -0.01563,1.03125 -0.03125,2.07813 0,1.03125 0,2.07812 v 0.79688 q 0,1.01562 0,2.04687 0.01563,1.03125 0.03125,2.07813 l 1.640625,0.17187 v 0.65625 h -4.828125 v -0.65625 l 1.625,-0.17187 q 0.03125,-1.03125 0.03125,-2.0625 0,-1.03125 0,-2.0625 v -0.79688 q 0,-1.03125 0,-2.0625 0,-1.04687 -0.03125,-2.09375 h -2.453125 l -0.34375,2.04688 z m 13.117142,6.625 v -3.57813 h -3.296875 v -0.92187 h 3.296875 v -3.5 h 0.96875 v 3.5 h 3.296875 v 0.92187 h -3.296875 v 3.57813 z m 6.089765,-8.375 3.296875,-0.85938 0.21875,0.17188 -0.0625,2.28125 v 4.64062 q 0,0.59375 0,1.20313 0.01563,0.60937 0.03125,1.21875 l 2.28125,0.375 v 0.57812 h -5.9375 v -0.57812 l 2.25,-0.375 q 0.01563,-0.60938 0.01563,-1.21875 0.01563,-0.60938 0.01563,-1.20313 v -5.76562 l -2.109375,0.1875 z"
       fill-rule="nonzero"
       id="path45" />
    <path
       fill="#f3f3f3"
       d="m 52.85625,142.90558 h 51.93701 v 20.7244 H 52.85625 Z"
       fill-rule="evenodd"
       id="path47" />
    <path
       stroke="#000000"
       stroke-width="1"
       stroke-linejoin="round"
       stroke-linecap="butt"
       d="m 52.85625,142.90558 h 51.93701 v 20.7244 H 52.85625 Z"
       fill-rule="evenodd"
       id="path49" />
    <path
       fill="#000000"
       d="m 73.08256,149.14465 v -0.60937 h 4.15625 v 0.60937 l -1.359375,0.15625 q -0.01563,0.92188 -0.01563,1.875 0,0.95313 0,1.90625 v 0.71875 q 0,0.9375 0,1.89063 0,0.9375 0.01563,1.89062 l 1.359375,0.17188 v 0.59375 h -4.15625 v -0.59375 l 1.359375,-0.17188 q 0.01563,-0.92187 0.01563,-1.875 0,-0.95312 0,-1.90625 v -0.71875 q 0,-0.95312 0,-1.89062 0,-0.95313 -0.01563,-1.89063 z m 5.51561,9.20313 v -0.95313 q 0.578125,-0.57812 1.125,-1.14062 0.546875,-0.5625 1.015625,-1.0625 1.109375,-1.15625 1.609375,-2.09375 0.515625,-0.9375 0.515625,-1.78125 0,-0.90625 -0.484375,-1.4375 -0.46875,-0.53125 -1.265625,-0.53125 -0.15625,0 -0.34375,0.0156 -0.171875,0.0156 -0.375,0.0625 l -0.28125,1 q -0.140625,0.54688 -0.34375,0.78125 -0.203125,0.21875 -0.5,0.21875 -0.484375,0 -0.75,-0.46875 0.07813,-0.76562 0.5,-1.26562 0.4375,-0.51563 1.078125,-0.75 0.640625,-0.25 1.375,-0.25 1.421875,0 2.0625,0.70312 0.65625,0.6875 0.65625,1.78125 0,0.65625 -0.265625,1.26563 -0.25,0.59375 -0.890625,1.35937 -0.625,0.75 -1.75,1.82813 -0.296875,0.29687 -0.71875,0.70312 -0.40625,0.39063 -0.859375,0.8125 h 4.90625 v 1.20313 z"
       fill-rule="nonzero"
       id="path51" />
    <path
       fill="#f3f3f3"
       d="m 134.40102,142.90567 h 52.7874 v 20.72441 h -52.7874 z"
       fill-rule="evenodd"
       id="path53" />
    <path
       stroke="#000000"
       stroke-width="1"
       stroke-linejoin="round"
       stroke-linecap="butt"
       d="m 134.40102,142.90567 h 52.7874 v 20.72441 h -52.7874 z"
       fill-rule="evenodd"
       id="path55" />
    <path
       fill="#000000"
       d="m 155.05252,149.14474 v -0.60937 h 4.15625 v 0.60937 l -1.35938,0.15625 q -0.0156,0.92188 -0.0156,1.875 0,0.95313 0,1.90625 v 0.71875 q 0,0.9375 0,1.89063 0,0.9375 0.0156,1.89062 l 1.35938,0.17188 v 0.59375 h -4.15625 v -0.59375 l 1.35937,-0.17188 q 0.0156,-0.92187 0.0156,-1.875 0,-0.95312 0,-1.90625 v -0.71875 q 0,-0.95312 0,-1.89062 0,-0.95313 -0.0156,-1.89063 z m 6.04686,0.39063 3.01562,-0.76563 0.20313,0.14063 -0.0625,2.09375 v 4.25 q 0,0.54687 0,1.10937 0.0156,0.54688 0.0312,1.10938 l 2.07812,0.34375 v 0.53125 h -5.4375 v -0.53125 l 2.07813,-0.34375 q 0.0156,-0.5625 0.0156,-1.10938 0.0156,-0.5625 0.0156,-1.10937 v -5.28125 l -1.9375,0.17187 z"
       fill-rule="nonzero"
       id="path57" />
    <path
       fill="#d9d9d9"
       d="m 216.36494,78.56367 h 52.7874 v 26.64567 h -52.7874 z"
       fill-rule="evenodd"
       id="path59" />
    <path
       stroke="#000000"
       stroke-width="1"
       stroke-linejoin="round"
       stroke-linecap="butt"
       d="m 216.36494,78.56367 h 52.7874 v 26.64567 h -52.7874 z"
       fill-rule="evenodd"
       id="path61" />
    <path
       fill="#000000"
       d="m 238.63777,87.69963 v -0.65625 h 7.96875 l 0.10937,2.828125 h -0.90625 l -0.35937,-2.03125 h -3.75 q -0.0156,1.03125 -0.0312,2.0625 0,1.015625 0,2 h 2.34375 l 0.21875,-1.515625 h 0.75 v 3.78125 h -0.75 l -0.20313,-1.515625 h -2.35937 q 0,1.203125 0,2.25 0.0156,1.046875 0.0312,2.046875 h 4.07812 l 0.34375,-2.046875 h 0.92188 l -0.125,2.84375 h -8.28125 v -0.65625 l 1.46875,-0.171875 q 0.0312,-1.015625 0.0312,-2.046875 0,-1.046875 0,-2.078125 v -0.796875 q 0,-1.03125 0,-2.0625 0,-1.03125 -0.0312,-2.0625 z"
       fill-rule="nonzero"
       id="path63" />
    <path
       fill="#d9d9d9"
       d="m 298.3289,78.564995 h 52.78741 V 105.21066 H 298.3289 Z"
       fill-rule="evenodd"
       id="path65" />
    <path
       stroke="#000000"
       stroke-width="1"
       stroke-linejoin="round"
       stroke-linecap="butt"
       d="m 298.3289,78.564995 h 52.78741 V 105.21066 H 298.3289 Z"
       fill-rule="evenodd"
       id="path67" />
    <path
       fill="#000000"
       d="m 318.1316,97.747826 v -0.65625 l 1.4375,-0.203125 v -9.015625 l -1.4375,-0.171875 v -0.65625 h 2.95312 l 3.59375,8.796875 3.39063,-8.796875 h 3.15625 v 0.65625 l -1.48438,0.171875 q -0.0156,1.015625 -0.0312,2.0625 0,1.03125 0,2.0625 v 0.796875 q 0,1.015625 0,2.046875 0.0156,1.03125 0.0312,2.078125 l 1.48438,0.171875 v 0.65625 h -4.35938 v -0.65625 l 1.34375,-0.171875 q 0.0312,-1.015625 0.0312,-2.046875 0,-1.046875 0,-2.0625 v -3.984375 l -3.46875,8.921875 h -0.79687 l -3.67188,-8.921875 0.0937,3.015625 v 5.046875 l 1.3125,0.203125 v 0.65625 z"
       fill-rule="nonzero"
       id="path69" />
    <path
       fill="#d9d9d9"
       d="m 380.29282,78.564995 h 52.78742 v 26.645665 h -52.78742 z"
       fill-rule="evenodd"
       id="path71" />
    <path
       stroke="#000000"
       stroke-width="1"
       stroke-linejoin="round"
       stroke-linecap="butt"
       d="m 380.29282,78.564995 h 52.78742 v 26.645665 h -52.78742 z"
       fill-rule="evenodd"
       id="path73" />
    <path
       fill="#000000"
       d="M 410.59988,87.70095 V 87.0447 h 3.64062 v 0.65625 l -1.34375,0.1875 -2.70312,9.96875 h -0.6875 l -2.76563,-8.28125 -2.60937,8.28125 h -0.6875 l -2.89063,-10 -1.32812,-0.15625 V 87.0447 h 4.35937 v 0.65625 l -1.46875,0.171875 1.96875,7.34375 2.42188,-7.328125 -1.59375,-0.1875 V 87.0447 h 4.34375 v 0.65625 l -1.60938,0.1875 2.39063,7.40625 2.03125,-7.390625 z"
       fill-rule="nonzero"
       id="path75" />
    <path
       fill="#f3f3f3"
       d="m 134.40102,171.6562 h 52.7874 v 20.72441 h -52.7874 z"
       fill-rule="evenodd"
       id="path77" />
    <path
       stroke="#000000"
       stroke-width="1"
       stroke-linejoin="round"
       stroke-linecap="butt"
       d="m 134.40102,171.6562 h 52.7874 v 20.72441 h -52.7874 z"
       fill-rule="evenodd"
       id="path79" />
    <path
       fill="#000000"
       d="m 155.05252,177.8953 v -0.60938 h 4.15625 v 0.60938 l -1.35938,0.15625 q -0.0156,0.92187 -0.0156,1.875 0,0.95312 0,1.90625 v 0.71875 q 0,0.9375 0,1.89062 0,0.9375 0.0156,1.89063 l 1.35938,0.17187 v 0.59375 h -4.15625 v -0.59375 l 1.35937,-0.17187 q 0.0156,-0.92188 0.0156,-1.875 0,-0.95313 0,-1.90625 v -0.71875 q 0,-0.95313 0,-1.89063 0,-0.95312 -0.0156,-1.89062 z m 6.04686,0.39062 3.01562,-0.76562 0.20313,0.14062 -0.0625,2.09375 v 4.25 q 0,0.54688 0,1.10938 0.0156,0.54687 0.0312,1.10937 l 2.07812,0.34375 v 0.53125 h -5.4375 v -0.53125 l 2.07813,-0.34375 q 0.0156,-0.5625 0.0156,-1.10937 0.0156,-0.5625 0.0156,-1.10938 v -5.28125 l -1.9375,0.17188 z"
       fill-rule="nonzero"
       id="path81" />
    <path
       fill="#000000"
       fill-opacity="0"
       d="M 9.228346e-4,171.65617 H 52.81982 v 20.72441 H 9.228346e-4 Z"
       fill-rule="evenodd"
       id="path83" />
    <path
       fill="#000000"
       d="m 13.642847,179.919 0.140625,-2.84375 h 8.765625 l 0.125,2.84375 h -0.921875 l -0.359375,-2.04688 h -2.453125 q -0.01563,1.03125 -0.03125,2.07813 0,1.03125 0,2.07812 v 0.79688 q 0,1.01562 0,2.04687 0.01563,1.03125 0.03125,2.07813 l 1.640625,0.17187 v 0.65625 h -4.828125 v -0.65625 l 1.625,-0.17187 q 0.03125,-1.03125 0.03125,-2.0625 0,-1.03125 0,-2.0625 v -0.79688 q 0,-1.03125 0,-2.0625 0,-1.04687 -0.03125,-2.09375 h -2.453125 l -0.34375,2.04688 z m 13.117142,6.625 v -3.57813 H 23.463114 V 182.044 h 3.296875 v -3.5 h 0.96875 v 3.5 h 3.296875 v 0.92187 h -3.296875 v 3.57813 z m 5.51164,1.23437 v -1.04687 q 0.640625,-0.60938 1.234375,-1.21875 0.609375,-0.625 1.125,-1.17188 1.203125,-1.26562 1.75,-2.28125 0.5625,-1.03125 0.5625,-1.96875 0,-0.98437 -0.515625,-1.5625 -0.515625,-0.57812 -1.40625,-0.57812 -0.15625,0 -0.359375,0.0156 -0.1875,0.0156 -0.421875,0.0625 l -0.296875,1.10938 q -0.15625,0.59375 -0.375,0.84375 -0.21875,0.25 -0.5625,0.25 -0.515625,0 -0.8125,-0.51563 0.09375,-0.84375 0.5625,-1.39062 0.46875,-0.5625 1.171875,-0.82813 0.703125,-0.26562 1.5,-0.26562 1.546875,0 2.25,0.76562 0.71875,0.75 0.71875,1.95313 0,0.70312 -0.28125,1.375 -0.28125,0.65625 -0.96875,1.48437 -0.6875,0.82813 -1.921875,2.01563 -0.328125,0.3125 -0.78125,0.75 -0.453125,0.42187 -0.953125,0.89062 h 5.359375 v 1.3125 z"
       fill-rule="nonzero"
       id="path85" />
    <path
       fill="#000000"
       fill-opacity="0"
       d="m 105.22447,91.886505 h 29.16536"
       fill-rule="evenodd"
       id="path87" />
    <path
       stroke="#000000"
       stroke-width="1"
       stroke-linejoin="round"
       stroke-linecap="butt"
       d="m 105.22447,91.886505 h 23.16536"
       fill-rule="evenodd"
       id="path89" />
    <path
       fill="#000000"
       stroke="#000000"
       stroke-width="1"
       stroke-linecap="butt"
       d="m 128.38983,93.53824 4.53809,-1.651733 -4.53809,-1.651734 z"
       fill-rule="evenodd"
       id="path91" />
    <path
       fill="#000000"
       fill-opacity="0"
       d="m 187.18842,91.887825 h 29.16534"
       fill-rule="evenodd"
       id="path93" />
    <path
       stroke="#000000"
       stroke-width="1"
       stroke-linejoin="round"
       stroke-linecap="butt"
       d="m 187.1884,91.887825 h 23.16536"
       fill-rule="evenodd"
       id="path95" />
    <path
       fill="#000000"
       stroke="#000000"
       stroke-width="1"
       stroke-linecap="butt"
       d="m 210.35376,93.53956 4.5381,-1.651733 -4.5381,-1.651734 z"
       fill-rule="evenodd"
       id="path97" />
    <path
       fill="#000000"
       fill-opacity="0"
       d="m 269.15234,91.886505 h 29.16537"
       fill-rule="evenodd"
       id="path99" />
    <path
       stroke="#000000"
       stroke-width="1"
       stroke-linejoin="round"
       stroke-linecap="butt"
       d="m 269.15234,91.886505 h 23.16537"
       fill-rule="evenodd"
       id="path101" />
    <path
       fill="#000000"
       stroke="#000000"
       stroke-width="1"
       stroke-linecap="butt"
       d="m 292.31772,93.53824 4.53809,-1.651733 -4.53809,-1.651734 z"
       fill-rule="evenodd"
       id="path103" />
    <path
       fill="#000000"
       fill-opacity="0"
       d="m 351.1163,91.887825 h 29.16534"
       fill-rule="evenodd"
       id="path105" />
    <path
       stroke="#000000"
       stroke-width="1"
       stroke-linejoin="round"
       stroke-linecap="butt"
       d="m 351.1163,91.887825 h 23.16534"
       fill-rule="evenodd"
       id="path107" />
    <path
       fill="#000000"
       stroke="#000000"
       stroke-width="1"
       stroke-linecap="butt"
       d="m 374.28165,93.53956 4.53812,-1.651733 -4.53812,-1.651734 z"
       fill-rule="evenodd"
       id="path109" />
    <path
       fill="#000000"
       fill-opacity="0"
       d="m 187.18842,182.01842 29.25984,28.7559"
       fill-rule="evenodd"
       id="path111" />
    <path
       stroke="#000000"
       stroke-width="1"
       stroke-linejoin="round"
       stroke-linecap="butt"
       d="m 187.1884,182.01842 24.98051,24.55028"
       fill-rule="evenodd"
       id="path113" />
    <path
       fill="#000000"
       stroke="#000000"
       stroke-width="1"
       stroke-linecap="butt"
       d="m 211.01115,207.74673 4.39442,2.00288 -2.0789,-4.35897 z"
       fill-rule="evenodd"
       id="path115" />
    <path
       fill="#000000"
       fill-opacity="0"
       d="M 0,0 H 504 V 72.97638 H 0 Z"
       fill-rule="evenodd"
       id="path117" />
    <path
       fill="#f3f3f3"
       d="m 52.85625,171.6562 h 51.93701 v 20.72441 H 52.85625 Z"
       fill-rule="evenodd"
       id="path121" />
    <path
       stroke="#000000"
       stroke-width="1"
       stroke-linejoin="round"
       stroke-linecap="butt"
       d="m 52.85625,171.6562 h 51.93701 v 20.72441 H 52.85625 Z"
       fill-rule="evenodd"
       id="path123" />
    <path
       fill="#000000"
       d="m 73.08256,177.8953 v -0.60938 h 4.15625 v 0.60938 l -1.359375,0.15625 q -0.01563,0.92187 -0.01563,1.875 0,0.95312 0,1.90625 v 0.71875 q 0,0.9375 0,1.89062 0,0.9375 0.01563,1.89063 l 1.359375,0.17187 v 0.59375 h -4.15625 v -0.59375 l 1.359375,-0.17187 q 0.01563,-0.92188 0.01563,-1.875 0,-0.95313 0,-1.90625 v -0.71875 q 0,-0.95313 0,-1.89063 0,-0.95312 -0.01563,-1.89062 z m 5.51561,9.20312 v -0.95312 q 0.578125,-0.57813 1.125,-1.14063 0.546875,-0.5625 1.015625,-1.0625 1.109375,-1.15625 1.609375,-2.09375 0.515625,-0.9375 0.515625,-1.78125 0,-0.90625 -0.484375,-1.4375 -0.46875,-0.53125 -1.265625,-0.53125 -0.15625,0 -0.34375,0.0156 -0.171875,0.0156 -0.375,0.0625 l -0.28125,1 q -0.140625,0.54687 -0.34375,0.78125 -0.203125,0.21875 -0.5,0.21875 -0.484375,0 -0.75,-0.46875 0.07813,-0.76563 0.5,-1.26563 0.4375,-0.51562 1.078125,-0.75 0.640625,-0.25 1.375,-0.25 1.421875,0 2.0625,0.70313 0.65625,0.6875 0.65625,1.78125 0,0.65625 -0.265625,1.26562 -0.25,0.59375 -0.890625,1.35938 -0.625,0.75 -1.75,1.82812 -0.296875,0.29688 -0.71875,0.70313 -0.40625,0.39062 -0.859375,0.8125 h 4.90625 v 1.20312 z"
       fill-rule="nonzero"
       id="path125" />
    <path
       fill="#000000"
       fill-opacity="0"
       d="m 160.79471,171.6562 v -8.03149"
       fill-rule="evenodd"
       id="path127" />
    <path
       stroke="#000000"
       stroke-width="1"
       stroke-linejoin="round"
       stroke-linecap="butt"
       d="m 160.79471,171.6562 v -8.03149"
       fill-rule="evenodd"
       id="path129" />
    <path
       fill="#000000"
       fill-opacity="0"
       d="m 78.82475,163.62471 v 8.03149"
       fill-rule="evenodd"
       id="path131" />
    <path
       stroke="#000000"
       stroke-width="1"
       stroke-linejoin="round"
       stroke-linecap="butt"
       d="m 78.82475,163.62471 v 8.03149"
       fill-rule="evenodd"
       id="path133" />
    <path
       fill="#000000"
       fill-opacity="0"
       d="m 104.79326,182.01842 29.82677,28.7559"
       fill-rule="evenodd"
       id="path135" />
    <path
       stroke="#000000"
       stroke-width="1"
       stroke-linejoin="round"
       stroke-linecap="butt"
       d="m 104.79326,182.01842 25.50729,24.59151"
       fill-rule="evenodd"
       id="path137" />
    <path
       fill="#000000"
       stroke="#000000"
       stroke-width="1"
       stroke-linecap="butt"
       d="m 129.15414,207.79903 4.41344,1.96063 -2.12062,-4.33883 z"
       fill-rule="evenodd"
       id="path139" />
    <path
       fill="#000000"
       fill-opacity="0"
       d="M 134.40102,153.26787 H 104.79471"
       fill-rule="evenodd"
       id="path141" />
    <path
       stroke="#4a86e8"
       stroke-width="1"
       stroke-linejoin="round"
       stroke-linecap="butt"
       d="M 134.40102,153.26787 H 110.79471"
       fill-rule="evenodd"
       id="path143" />
    <path
       fill="#4a86e8"
       stroke="#4a86e8"
       stroke-width="1"
       stroke-linecap="butt"
       d="m 110.79471,151.61613 -4.53809,1.65173 4.53809,1.65174 z"
       fill-rule="evenodd"
       id="path145" />
    <path
       fill="#000000"
       fill-opacity="0"
       d="m 139.85564,116.36228 v 0 c 0,-2.12511 1.72275,-3.84785 3.84785,-3.84785 h 63.17044 c 1.02053,0 1.99924,0.4054 2.72085,1.12701 0.72161,0.72161 1.12701,1.70032 1.12701,2.72084 v 15.39092 c 0,2.12511 -1.72275,3.84784 -3.84786,3.84784 h -63.17044 c -2.1251,0 -3.84785,-1.72273 -3.84785,-3.84784 z"
       fill-rule="evenodd"
       id="path147" />
    <path
       stroke="#4a86e8"
       stroke-width="1"
       stroke-linejoin="round"
       stroke-linecap="butt"
       stroke-dasharray="4, 3"
       d="m 139.85564,116.36228 v 0 c 0,-2.12511 1.72275,-3.84785 3.84785,-3.84785 h 63.17044 c 1.02053,0 1.99924,0.4054 2.72085,1.12701 0.72161,0.72161 1.12701,1.70032 1.12701,2.72084 v 15.39092 c 0,2.12511 -1.72275,3.84784 -3.84786,3.84784 h -63.17044 c -2.1251,0 -3.84785,-1.72273 -3.84785,-3.84784 z"
       fill-rule="evenodd"
       id="path149" />
    <path
       fill="#000000"
       d="m 152.60706,120.48274 v -0.54687 h 3.21875 v 0.54687 l -1.14063,0.17188 v 8.29687 h -0.46875 l -5.32812,-7.26562 v 6.43749 l 1.42187,0.1875 v 0.54688 h -3.23437 v -0.54688 l 1.14062,-0.15625 v -7.40624 l -0.125,-0.15625 -0.9375,-0.10938 v -0.54687 h 2.04688 l 4.8125,6.60937 v -5.89062 z m 7.24551,8.54687 q -0.78125,0 -1.48437,-0.35937 -0.6875,-0.375 -1.14063,-1.10937 -0.4375,-0.75 -0.4375,-1.82813 0,-1.10937 0.4375,-1.85937 0.45313,-0.76563 1.14063,-1.14063 0.70312,-0.375 1.48437,-0.375 0.76563,0 1.46875,0.375 0.70313,0.375 1.14063,1.14063 0.45312,0.75 0.45312,1.85937 0,1.07813 -0.45312,1.82813 -0.4375,0.73437 -1.14063,1.10937 -0.70312,0.35937 -1.46875,0.35937 z m 0,-0.59375 q 0.85938,0 1.32813,-0.68749 0.46875,-0.6875 0.46875,-2.01563 0,-1.35937 -0.46875,-2.0625 -0.46875,-0.70312 -1.32813,-0.70312 -0.875,0 -1.34375,0.70312 -0.45312,0.70313 -0.45312,2.0625 0,1.32813 0.45312,2.01563 0.46875,0.68749 1.34375,0.68749 z m 6.26191,0.59375 q -0.6875,0 -1.10938,-0.375 -0.40625,-0.375 -0.40625,-1.14062 0,-0.25 0,-0.5 0,-0.25 0,-0.64062 v -3.14063 h -1.09375 v -0.57812 l 1.1875,-0.15625 0.34375,-1.78125 h 0.79688 l -0.0781,1.8125 h 1.79688 v 0.70312 h -1.8125 v 4.125 q 0,0.51563 0.20312,0.75 0.20313,0.23437 0.53125,0.23437 0.21875,0 0.42188,-0.0937 0.21875,-0.0937 0.46875,-0.26562 l 0.32812,0.34375 q -0.54687,0.70312 -1.57812,0.70312 z m 5.26518,-0.17187 v -0.48438 l 0.95312,-0.17187 q 0.0156,-0.5 0.0156,-1.09375 0.0156,-0.59375 0.0156,-1.04687 v -0.64063 q 0,-0.54687 -0.0156,-0.90625 0,-0.35937 -0.0312,-0.76562 l -1.04688,-0.10938 v -0.46875 l 1.85938,-0.8125 0.20312,0.125 0.15625,1.57813 q 0.32813,-0.79688 0.84375,-1.25 0.53125,-0.45313 1.0625,-0.45313 0.3125,0 0.57813,0.14063 0.26562,0.125 0.39062,0.34375 0,0.98437 -0.78125,0.98437 -0.23437,0 -0.4375,-0.0937 -0.20312,-0.0937 -0.39062,-0.25 l -0.15625,-0.14062 q -0.39063,0.29687 -0.65625,0.71875 -0.26563,0.42187 -0.45313,1 v 1 q 0,0.4375 0,1.03125 0.0156,0.57812 0.0312,1.07812 l 1.09375,0.20312 v 0.48438 z m 8.52006,-5.89062 q -0.35937,0 -0.75,0.21875 -0.375,0.20312 -0.65625,0.67187 -0.26562,0.46875 -0.34375,1.23438 h 2.42188 q 0.48437,0 0.625,-0.1875 0.15625,-0.20313 0.15625,-0.5 0,-0.39063 -0.1875,-0.70313 -0.1875,-0.32812 -0.51563,-0.53125 -0.32812,-0.20312 -0.75,-0.20312 z m 0,6.06249 q -1.35937,0 -2.17187,-0.875 -0.8125,-0.87499 -0.8125,-2.40624 0,-1.01563 0.42187,-1.78125 0.42188,-0.76563 1.125,-1.1875 0.70313,-0.42188 1.53125,-0.42188 0.6875,0 1.25,0.3125 0.5625,0.29688 0.89063,0.85938 0.32812,0.5625 0.32812,1.39062 0,0.21875 -0.0312,0.42188 -0.0156,0.1875 -0.0625,0.3125 h -4.25 q 0.0312,1.23437 0.60938,1.875 0.59375,0.64062 1.54687,0.64062 0.64063,0 1.0625,-0.26562 0.4375,-0.26563 0.79688,-0.67188 l 0.3125,0.25 q -0.375,0.70312 -1.01563,1.125 -0.625,0.42187 -1.53125,0.42187 z m 8.63274,-0.0312 q -0.48438,0 -0.8125,-0.28125 -0.3125,-0.28125 -0.39063,-0.74999 -0.54687,0.53124 -0.96875,0.79687 -0.40625,0.26562 -0.98437,0.26562 -0.73438,0 -1.26563,-0.42187 -0.53125,-0.42188 -0.53125,-1.25 0,-0.375 0.17188,-0.70312 0.1875,-0.34375 0.67187,-0.65625 0.48438,-0.32813 1.375,-0.64063 0.3125,-0.10937 0.70313,-0.23437 0.40625,-0.125 0.79687,-0.20313 v -0.34375 q 0,-0.96875 -0.29687,-1.28125 -0.28125,-0.32812 -0.95313,-0.32812 -0.14062,0 -0.32812,0.0156 -0.17188,0.0156 -0.39063,0.0625 l -0.25,0.875 q -0.1875,0.625 -0.6875,0.625 -0.5625,0 -0.64062,-0.53125 0.1875,-0.76562 0.89062,-1.20312 0.70313,-0.45313 1.71875,-0.45313 1.04688,0 1.54688,0.53125 0.51562,0.51563 0.51562,1.78125 v 2.84375 q 0,0.42188 0.125,0.60937 0.14063,0.17188 0.35938,0.17188 0.17187,0 0.28125,-0.0781 0.125,-0.0781 0.23437,-0.21874 l 0.26563,0.29687 q -0.23438,0.39062 -0.53125,0.54687 -0.28125,0.15625 -0.625,0.15625 z m -3.76563,-1.82812 q 0,0.53125 0.3125,0.76563 0.3125,0.21874 0.76563,0.21874 0.1875,0 0.35937,-0.0469 0.1875,-0.0625 0.4375,-0.21875 0.26563,-0.15625 0.65625,-0.4375 v -2.04687 q -0.34375,0.0937 -0.67187,0.21875 -0.32813,0.10937 -0.54688,0.1875 -0.57812,0.21875 -0.85937,0.46875 -0.28125,0.23437 -0.375,0.46875 -0.0781,0.21875 -0.0781,0.42187 z m 6.79963,-1.4375 q 0,1.29688 0.53125,1.92188 0.53125,0.60937 1.32812,0.60937 0.4375,0 0.76563,-0.17188 0.34375,-0.18749 0.71875,-0.59374 v -3.6875 q -0.45313,-0.40625 -0.8125,-0.54688 -0.35938,-0.15625 -0.6875,-0.15625 -0.5,0 -0.92188,0.28125 -0.40625,0.26563 -0.67187,0.85938 -0.25,0.57812 -0.25,1.48437 z m 3.48437,3.26562 -0.0937,-0.92187 q -0.34375,0.45312 -0.79687,0.70312 -0.45313,0.25 -1.07813,0.25 -0.8125,0 -1.42187,-0.40625 -0.60938,-0.42187 -0.95313,-1.15624 -0.34375,-0.73438 -0.34375,-1.71875 0,-1.01563 0.375,-1.78125 0.375,-0.76563 1.01563,-1.1875 0.64062,-0.42188 1.45312,-0.42188 0.46875,0 0.89063,0.1875 0.4375,0.1875 0.85937,0.67188 v -3.01563 l -1.14062,-0.125 v -0.46875 l 2.07812,-0.59375 0.1875,0.0937 -0.0469,1.90625 v 7.20312 l 1.07812,0.15625 v 0.48438 z m 6.36119,-5.98437 v -0.48437 h 2.60938 v 0.48437 l -0.71875,0.14063 -2.15625,5.65624 q -0.65625,1.78125 -1.28125,2.5625 -0.625,0.79688 -1.45313,0.79688 -0.48437,0 -0.85937,-0.25 -0.35938,-0.23438 -0.35938,-0.625 0.0625,-0.29688 0.32813,-0.4375 0.26562,-0.14063 0.5625,-0.14063 0.26562,0 0.48437,0.10938 0.23438,0.10937 0.5,0.39062 l 0.0781,0.0625 q 0.42187,-0.35937 0.70312,-0.875 0.29688,-0.5 0.48438,-1.04687 l 0.0625,-0.15625 -2.42188,-6.09375 -0.73437,-0.0937 v -0.48437 h 3.20312 v 0.48437 l -1.17187,0.14063 1.67187,4.54687 1.64063,-4.53125 z"
       fill-rule="nonzero"
       id="path151" />
    <path
       fill="#000000"
       fill-opacity="0"
       d="m 139.85564,124.05774 c -9.2126,0 -18.42519,14.7559 -18.42519,29.51181"
       fill-rule="evenodd"
       id="path153" />
    <path
       stroke="#4a86e8"
       stroke-width="1"
       stroke-linejoin="round"
       stroke-linecap="butt"
       stroke-dasharray="4, 3"
       d="m 139.85564,124.05774 c -9.2126,0 -18.42519,14.7559 -18.42519,29.51181"
       fill-rule="evenodd"
       id="path155" />
  </g>
</svg>
