<?xml version="1.0" encoding="UTF-8" standalone="no"?>
<svg
   version="1.1"
   viewBox="0 0 466.60629 206.92128"
   fill="none"
   stroke="none"
   stroke-linecap="square"
   stroke-miterlimit="10"
   id="svg469"
   sodipodi:docname="cpu-hazard-control-bp.svg"
   width="466.60629"
   height="206.92128"
   inkscape:version="1.1.2 (b8e25be8, 2022-02-05)"
   xmlns:inkscape="http://www.inkscape.org/namespaces/inkscape"
   xmlns:sodipodi="http://sodipodi.sourceforge.net/DTD/sodipodi-0.dtd"
   xmlns="http://www.w3.org/2000/svg"
   xmlns:svg="http://www.w3.org/2000/svg">
  <defs
     id="defs473" />
  <sodipodi:namedview
     id="namedview471"
     pagecolor="#ffffff"
     bordercolor="#666666"
     borderopacity="1.0"
     inkscape:pageshadow="2"
     inkscape:pageopacity="0.0"
     inkscape:pagecheckerboard="0"
     showgrid="false"
     inkscape:zoom="1.05"
     inkscape:cx="440.47619"
     inkscape:cy="220.47619"
     inkscape:window-width="1296"
     inkscape:window-height="969"
     inkscape:window-x="0"
     inkscape:window-y="25"
     inkscape:window-maximized="0"
     inkscape:current-layer="g467" />
  <clipPath
     id="g2ff68212256_0_0.0">
    <path
       d="M 0,0 H 960 V 540 H 0 Z"
       clip-rule="nonzero"
       id="path2" />
  </clipPath>
  <g
     clip-path="url(#g2ff68212256_0_0.0)"
     id="g467"
     transform="translate(-39.490814,-49.636463)">
    <path
       fill="#000000"
       fill-opacity="0"
       d="M 39.990814,50.136463 H 505.59711 V 256.05774 H 39.990814 Z"
       fill-rule="evenodd"
       id="path7" />
    <path
       fill="#d9d9d9"
       d="m 82.4725,54.330074 h 52.7874 V 80.975746 H 82.4725 Z"
       fill-rule="evenodd"
       id="path11" />
    <path
       stroke="#000000"
       stroke-width="1"
       stroke-linejoin="round"
       stroke-linecap="butt"
       d="m 82.4725,54.330074 h 52.7874 V 80.975746 H 82.4725 Z"
       fill-rule="evenodd"
       id="path13" />
    <path
       fill="#000000"
       d="m 104.93732,63.466034 v -0.65625 h 7.96875 l 0.10938,2.828125 h -0.90625 l -0.35938,-2.03125 h -3.75 q -0.0156,1.03125 -0.0312,2.0625 0,1.015625 0,2 h 2.46875 l 0.23438,-1.515625 h 0.73437 v 3.9375 h -0.73437 l -0.23438,-1.671875 h -2.46875 q 0,1.1875 0,2.234375 0.0156,1.03125 0.0312,2.03125 l 1.48438,0.171875 v 0.65625 h -4.54688 v -0.65625 l 1.46875,-0.171875 q 0.0312,-1.015625 0.0312,-2.046875 0,-1.046875 0,-2.078125 v -0.796875 q 0,-1.03125 0,-2.0625 0,-1.03125 -0.0312,-2.0625 z"
       fill-rule="nonzero"
       id="path15" />
    <path
       fill="#d9d9d9"
       d="m 164.43645,54.331394 h 52.7874 v 26.645672 h -52.7874 z"
       fill-rule="evenodd"
       id="path17" />
    <path
       stroke="#000000"
       stroke-width="1"
       stroke-linejoin="round"
       stroke-linecap="butt"
       d="m 164.43645,54.331394 h 52.7874 v 26.645672 h -52.7874 z"
       fill-rule="evenodd"
       id="path19" />
    <path
       fill="#000000"
       d="m 188.8845,68.35798 q 0,1.171875 0,2.265625 0.0156,1.078125 0.0312,2.140625 h 1.26562 q 1.84375,0 2.82813,-1.203125 1,-1.21875 1,-3.390625 0,-2.25 -0.98438,-3.4375 -0.96875,-1.1875 -2.70312,-1.1875 h -1.40625 q -0.0156,1.03125 -0.0312,2.09375 0,1.0625 0,2.125 z m -3.03125,-4.890625 v -0.65625 h 4.71875 q 1.53125,0 2.70312,0.625 1.17188,0.609375 1.82813,1.796875 0.65625,1.1875 0.65625,2.9375 0,1.734375 -0.71875,2.921875 -0.71875,1.1875 -1.96875,1.8125 -1.23438,0.609375 -2.79688,0.609375 h -4.42187 v -0.65625 l 1.46875,-0.171875 q 0.0312,-1.03125 0.0312,-2.09375 0,-1.0625 0,-2.234375 v -0.59375 q 0,-1.03125 0,-2.0625 0,-1.03125 -0.0312,-2.0625 z"
       fill-rule="nonzero"
       id="path21" />
    <path
       fill="#000000"
       fill-opacity="0"
       d="m 30.036356,89.92126 h 52.8189 v 20.72441 h -52.8189 z"
       fill-rule="evenodd"
       id="path23" />
    <path
       fill="#000000"
       d="m 51.926296,98.18409 0.140625,-2.84375 h 8.765625 l 0.125,2.84375 h -0.921875 l -0.359375,-2.046875 h -2.453125 q -0.01563,1.03125 -0.03125,2.078125 0,1.03125 0,2.07812 v 0.79688 q 0,1.01562 0,2.04687 0.01563,1.03125 0.03125,2.07813 l 1.640625,0.17187 v 0.65625 h -4.828125 v -0.65625 l 1.625,-0.17187 q 0.03125,-1.03125 0.03125,-2.0625 0,-1.03125 0,-2.0625 v -0.79688 q 0,-1.031245 0,-2.062495 0,-1.046875 -0.03125,-2.09375 h -2.453125 l -0.34375,2.046875 z"
       fill-rule="nonzero"
       id="path25" />
    <path
       fill="#f3f3f3"
       d="M 82.891685,89.917274 H 134.82869 V 110.64169 H 82.891685 Z"
       fill-rule="evenodd"
       id="path27" />
    <path
       stroke="#000000"
       stroke-width="1"
       stroke-linejoin="round"
       stroke-linecap="butt"
       d="M 82.891685,89.917274 H 134.82869 V 110.64169 H 82.891685 Z"
       fill-rule="evenodd"
       id="path29" />
    <path
       fill="#000000"
       d="m 103.11799,96.15635 v -0.609375 h 4.15625 v 0.609375 l -1.35937,0.15625 q -0.0156,0.921875 -0.0156,1.875 0,0.953125 0,1.90625 v 0.71875 q 0,0.9375 0,1.89063 0,0.9375 0.0156,1.89062 l 1.35937,0.17188 v 0.59375 h -4.15625 v -0.59375 l 1.35938,-0.17188 q 0.0156,-0.92187 0.0156,-1.875 0,-0.95312 0,-1.90625 v -0.71875 q 0,-0.953125 0,-1.890625 0,-0.953125 -0.0156,-1.890625 z m 6.04686,0.390625 3.01562,-0.765625 0.20313,0.140625 -0.0625,2.09375 v 4.250005 q 0,0.54687 0,1.10937 0.0156,0.54688 0.0312,1.10938 l 2.07812,0.34375 v 0.53125 h -5.4375 v -0.53125 l 2.07813,-0.34375 q 0.0156,-0.5625 0.0156,-1.10938 0.0156,-0.5625 0.0156,-1.10937 v -5.281255 l -1.9375,0.171875 z"
       fill-rule="nonzero"
       id="path31" />
    <path
       fill="#000000"
       fill-opacity="0"
       d="m 217.22385,129.03427 29.35432,28.7559"
       fill-rule="evenodd"
       id="path33" />
    <path
       stroke="#000000"
       stroke-width="1"
       stroke-linejoin="round"
       stroke-linecap="butt"
       d="m 217.22383,129.03427 25.06822,24.55717"
       fill-rule="evenodd"
       id="path35" />
    <path
       fill="#000000"
       stroke="#000000"
       stroke-width="1"
       stroke-linecap="butt"
       d="m 241.1362,154.77136 4.39766,1.9958 -2.08594,-4.35563 z"
       fill-rule="evenodd"
       id="path37" />
    <path
       fill="#000000"
       fill-opacity="0"
       d="m 134.82869,100.27948 29.60629,28.75591"
       fill-rule="evenodd"
       id="path39" />
    <path
       stroke="#000000"
       stroke-width="1"
       stroke-linejoin="round"
       stroke-linecap="butt"
       d="m 134.82869,100.27948 25.30229,24.57553"
       fill-rule="evenodd"
       id="path41" />
    <path
       fill="#000000"
       stroke="#000000"
       stroke-width="1"
       stroke-linecap="butt"
       d="m 158.98018,126.03985 4.40614,1.97698 -2.10452,-4.34667 z"
       fill-rule="evenodd"
       id="path43" />
    <path
       fill="#000000"
       fill-opacity="0"
       d="m 299.25742,157.78482 29.19684,28.7559"
       fill-rule="evenodd"
       id="path45" />
    <path
       stroke="#000000"
       stroke-width="1"
       stroke-linejoin="round"
       stroke-linecap="butt"
       d="m 299.25742,157.78482 24.92206,24.54567"
       fill-rule="evenodd"
       id="path47" />
    <path
       fill="#000000"
       stroke="#000000"
       stroke-width="1"
       stroke-linecap="butt"
       d="m 323.02045,183.5073 4.39227,2.0076 -2.07422,-4.36121 z"
       fill-rule="evenodd"
       id="path49" />
    <path
       fill="#000000"
       fill-opacity="0"
       d="m 246.50151,220.0937 h 52.81889 v 38.26772 h -52.81889 z"
       fill-rule="evenodd"
       id="path51" />
    <path
       fill="#000000"
       d="m 267.7071,250.18631 q -0.51562,0 -0.875,-0.35938 -0.34375,-0.35937 -0.34375,-0.85937 0,-0.53125 0.34375,-0.89063 0.35938,-0.35937 0.875,-0.35937 0.53125,0 0.875,0.35937 0.35938,0.35938 0.35938,0.89063 0,0.5 -0.35938,0.85937 -0.34375,0.35938 -0.875,0.35938 z m 5.20313,0 q -0.51563,0 -0.875,-0.35938 -0.34375,-0.35937 -0.34375,-0.85937 0,-0.53125 0.34375,-0.89063 0.35937,-0.35937 0.875,-0.35937 0.53125,0 0.875,0.35937 0.35937,0.35938 0.35937,0.89063 0,0.5 -0.35937,0.85937 -0.34375,0.35938 -0.875,0.35938 z m 5.1875,0 q -0.51563,0 -0.875,-0.35938 -0.34375,-0.35937 -0.34375,-0.85937 0,-0.53125 0.34375,-0.89063 0.35937,-0.35937 0.875,-0.35937 0.53125,0 0.875,0.35937 0.35937,0.35938 0.35937,0.89063 0,0.5 -0.35937,0.85937 -0.34375,0.35938 -0.875,0.35938 z"
       fill-rule="nonzero"
       id="path53" />
    <path
       fill="#000000"
       fill-opacity="0"
       d="m 30.036356,118.67191 h 52.8189 v 20.72442 h -52.8189 z"
       fill-rule="evenodd"
       id="path55" />
    <path
       fill="#000000"
       d="m 43.67828,126.93475 0.140625,-2.84375 h 8.765625 l 0.125,2.84375 h -0.921875 l -0.359375,-2.04688 h -2.453125 q -0.01563,1.03125 -0.03125,2.07813 0,1.03125 0,2.07813 v 0.79687 q 0,1.01563 0,2.04688 0.01563,1.03125 0.03125,2.07812 l 1.640625,0.17188 v 0.65625 h -4.828125 v -0.65625 l 1.625,-0.17188 q 0.03125,-1.03125 0.03125,-2.0625 0,-1.03125 0,-2.0625 v -0.79687 q 0,-1.03125 0,-2.06251 0,-1.04687 -0.03125,-2.09375 H 44.95953 l -0.34375,2.04688 z m 13.117142,6.625 v -3.57812 h -3.296875 v -0.92188 h 3.296875 v -3.5 h 0.96875 v 3.5 h 3.296875 v 0.92188 h -3.296875 v 3.57812 z m 6.089764,-8.375 3.296875,-0.85938 0.21875,0.17188 -0.0625,2.28125 v 4.64063 q 0,0.59375 0,1.20312 0.01563,0.60938 0.03125,1.21875 l 2.28125,0.375 v 0.57813 h -5.9375 V 134.216 l 2.25,-0.375 q 0.01563,-0.60937 0.01563,-1.21875 0.01563,-0.60937 0.01563,-1.20312 v -5.76563 l -2.109375,0.1875 z"
       fill-rule="nonzero"
       id="path57" />
    <path
       fill="#f3f3f3"
       d="m 164.43645,118.67207 h 52.7874 v 20.72441 h -52.7874 z"
       fill-rule="evenodd"
       id="path59" />
    <path
       stroke="#000000"
       stroke-width="1"
       stroke-linejoin="round"
       stroke-linecap="butt"
       d="m 164.43645,118.67207 h 52.7874 v 20.72441 h -52.7874 z"
       fill-rule="evenodd"
       id="path61" />
    <path
       fill="#000000"
       d="m 185.08795,124.91116 v -0.60938 h 4.15625 v 0.60938 l -1.35938,0.15625 q -0.0156,0.92187 -0.0156,1.875 0,0.95312 0,1.90624 v 0.71875 q 0,0.9375 0,1.89062 0,0.9375 0.0156,1.89063 l 1.35938,0.17187 v 0.59375 h -4.15625 v -0.59375 l 1.35937,-0.17187 q 0.0156,-0.92188 0.0156,-1.875 0,-0.95313 0,-1.90625 v -0.71875 q 0,-0.95312 0,-1.89062 0,-0.95312 -0.0156,-1.89062 z m 6.04686,0.39062 3.01562,-0.76562 0.20313,0.14062 -0.0625,2.09375 v 4.24999 q 0,0.54688 0,1.10938 0.0156,0.54687 0.0312,1.10937 l 2.07812,0.34375 v 0.53125 h -5.4375 v -0.53125 l 2.07813,-0.34375 q 0.0156,-0.5625 0.0156,-1.10937 0.0156,-0.5625 0.0156,-1.10938 v -5.28124 l -1.9375,0.17188 z"
       fill-rule="nonzero"
       id="path63" />
    <path
       fill="#d9d9d9"
       d="m 246.40039,54.330074 h 52.78738 v 26.645672 h -52.78738 z"
       fill-rule="evenodd"
       id="path65" />
    <path
       stroke="#000000"
       stroke-width="1"
       stroke-linejoin="round"
       stroke-linecap="butt"
       d="m 246.40039,54.330074 h 52.78738 v 26.645672 h -52.78738 z"
       fill-rule="evenodd"
       id="path67" />
    <path
       fill="#000000"
       d="m 268.6732,63.466034 v -0.65625 h 7.96875 l 0.10937,2.828125 h -0.90625 l -0.35937,-2.03125 h -3.75 q -0.0156,1.03125 -0.0312,2.0625 0,1.015625 0,2 h 2.34375 l 0.21875,-1.515625 h 0.75 v 3.78125 h -0.75 l -0.20313,-1.515625 h -2.35937 q 0,1.203125 0,2.25 0.0156,1.046875 0.0312,2.046875 h 4.07812 l 0.34375,-2.046875 h 0.92188 l -0.125,2.84375 h -8.28125 v -0.65625 l 1.46875,-0.171875 q 0.0312,-1.015625 0.0312,-2.046875 0,-1.046875 0,-2.078125 v -0.796875 q 0,-1.03125 0,-2.0625 0,-1.03125 -0.0312,-2.0625 z"
       fill-rule="nonzero"
       id="path69" />
    <path
       fill="#d9d9d9"
       d="m 328.36432,54.331394 h 52.78742 v 26.645672 h -52.78742 z"
       fill-rule="evenodd"
       id="path71" />
    <path
       stroke="#000000"
       stroke-width="1"
       stroke-linejoin="round"
       stroke-linecap="butt"
       d="m 328.36432,54.331394 h 52.78742 v 26.645672 h -52.78742 z"
       fill-rule="evenodd"
       id="path73" />
    <path
       fill="#000000"
       d="m 348.16702,73.51423 v -0.65625 l 1.4375,-0.203125 V 63.63923 l -1.4375,-0.171875 v -0.65625 h 2.95312 l 3.59375,8.796875 3.39063,-8.796875 h 3.15625 v 0.65625 l -1.48438,0.171875 q -0.0156,1.015625 -0.0312,2.0625 0,1.03125 0,2.0625 v 0.796875 q 0,1.015625 0,2.046875 0.0156,1.03125 0.0312,2.078125 l 1.48438,0.171875 v 0.65625 h -4.35938 v -0.65625 l 1.34375,-0.171875 q 0.0312,-1.015625 0.0312,-2.046875 0,-1.046875 0,-2.0625 v -3.984375 l -3.46875,8.921875 h -0.79687 l -3.67188,-8.921875 0.0937,3.015625 v 5.046875 l 1.3125,0.203125 v 0.65625 z"
       fill-rule="nonzero"
       id="path75" />
    <path
       fill="#d9d9d9"
       d="m 410.32828,54.331394 h 52.78738 v 26.645672 h -52.78738 z"
       fill-rule="evenodd"
       id="path77" />
    <path
       stroke="#000000"
       stroke-width="1"
       stroke-linejoin="round"
       stroke-linecap="butt"
       d="m 410.32828,54.331394 h 52.78738 v 26.645672 h -52.78738 z"
       fill-rule="evenodd"
       id="path79" />
    <path
       fill="#000000"
       d="m 440.6353,63.467354 v -0.65625 h 3.64062 v 0.65625 l -1.34375,0.1875 -2.70312,9.96875 h -0.6875 l -2.76563,-8.28125 -2.60937,8.28125 h -0.6875 l -2.89063,-10 -1.32812,-0.15625 v -0.65625 h 4.35937 v 0.65625 l -1.46875,0.171875 1.96875,7.34375 2.42188,-7.328125 -1.59375,-0.1875 v -0.65625 h 4.34375 v 0.65625 l -1.60938,0.1875 2.39063,7.40625 2.03125,-7.390625 z"
       fill-rule="nonzero"
       id="path81" />
    <path
       fill="#f3f3f3"
       d="m 246.5645,147.4226 h 52.69292 v 20.72441 H 246.5645 Z"
       fill-rule="evenodd"
       id="path83" />
    <path
       stroke="#000000"
       stroke-width="1"
       stroke-linejoin="round"
       stroke-linecap="butt"
       d="m 246.5645,147.4226 h 52.69292 v 20.72441 H 246.5645 Z"
       fill-rule="evenodd"
       id="path85" />
    <path
       fill="#000000"
       d="m 267.16876,153.6617 v -0.60938 h 4.15625 v 0.60938 l -1.35937,0.15625 q -0.0156,0.92187 -0.0156,1.875 0,0.95312 0,1.90625 v 0.71875 q 0,0.9375 0,1.89062 0,0.9375 0.0156,1.89063 l 1.35937,0.17187 v 0.59375 h -4.15625 v -0.59375 l 1.35938,-0.17187 q 0.0156,-0.92188 0.0156,-1.875 0,-0.95313 0,-1.90625 v -0.71875 q 0,-0.95313 0,-1.89063 0,-0.95312 -0.0156,-1.89062 z m 6.04684,0.39062 3.01563,-0.76562 0.20312,0.14062 -0.0625,2.09375 v 4.25 q 0,0.54688 0,1.10938 0.0156,0.54687 0.0312,1.10937 l 2.07813,0.34375 v 0.53125 h -5.4375 v -0.53125 l 2.07812,-0.34375 q 0.0156,-0.5625 0.0156,-1.10937 0.0156,-0.5625 0.0156,-1.10938 v -5.28125 l -1.9375,0.17188 z"
       fill-rule="nonzero"
       id="path87" />
    <path
       fill="#000000"
       fill-opacity="0"
       d="m 30.036356,147.42258 h 52.8189 v 20.72441 h -52.8189 z"
       fill-rule="evenodd"
       id="path89" />
    <path
       fill="#000000"
       d="m 43.67828,155.68541 0.140625,-2.84375 h 8.765625 l 0.125,2.84375 h -0.921875 l -0.359375,-2.04688 h -2.453125 q -0.01563,1.03125 -0.03125,2.07813 0,1.03125 0,2.07812 v 0.79688 q 0,1.01562 0,2.04687 0.01563,1.03125 0.03125,2.07813 l 1.640625,0.17187 v 0.65625 h -4.828125 v -0.65625 l 1.625,-0.17187 q 0.03125,-1.03125 0.03125,-2.0625 0,-1.03125 0,-2.0625 v -0.79688 q 0,-1.03125 0,-2.0625 0,-1.04687 -0.03125,-2.09375 H 44.95953 l -0.34375,2.04688 z m 13.117142,6.625 v -3.57813 h -3.296875 v -0.92187 h 3.296875 v -3.5 h 0.96875 v 3.5 h 3.296875 v 0.92187 h -3.296875 v 3.57813 z m 5.511639,1.23437 v -1.04687 q 0.640625,-0.60938 1.234375,-1.21875 0.609375,-0.625 1.125,-1.17188 1.203125,-1.26562 1.75,-2.28125 0.5625,-1.03125 0.5625,-1.96875 0,-0.98437 -0.515625,-1.5625 -0.515625,-0.57812 -1.40625,-0.57812 -0.15625,0 -0.359375,0.0156 -0.1875,0.0156 -0.421875,0.0625 l -0.296875,1.10938 q -0.15625,0.59375 -0.375,0.84375 -0.21875,0.25 -0.5625,0.25 -0.515625,0 -0.8125,-0.51563 0.09375,-0.84375 0.5625,-1.39062 0.46875,-0.5625 1.171875,-0.82813 0.703125,-0.26562 1.5,-0.26562 1.546875,0 2.25,0.76562 0.71875,0.75 0.71875,1.95313 0,0.70312 -0.28125,1.375 -0.28125,0.65625 -0.96875,1.48437 -0.6875,0.82813 -1.921875,2.01563 -0.328125,0.3125 -0.78125,0.75 -0.453125,0.42187 -0.953125,0.89062 h 5.359375 v 1.3125 z"
       fill-rule="nonzero"
       id="path91" />
    <path
       fill="#000000"
       fill-opacity="0"
       d="m 135.2599,67.65291 h 29.16536"
       fill-rule="evenodd"
       id="path93" />
    <path
       stroke="#000000"
       stroke-width="1"
       stroke-linejoin="round"
       stroke-linecap="butt"
       d="m 135.2599,67.65291 h 23.16536"
       fill-rule="evenodd"
       id="path95" />
    <path
       fill="#000000"
       stroke="#000000"
       stroke-width="1"
       stroke-linecap="butt"
       d="m 158.42526,69.30464 4.5381,-1.651733 -4.5381,-1.651734 z"
       fill-rule="evenodd"
       id="path97" />
    <path
       fill="#000000"
       fill-opacity="0"
       d="m 217.22385,67.65423 h 29.16536"
       fill-rule="evenodd"
       id="path99" />
    <path
       stroke="#000000"
       stroke-width="1"
       stroke-linejoin="round"
       stroke-linecap="butt"
       d="m 217.22383,67.65423 h 23.16536"
       fill-rule="evenodd"
       id="path101" />
    <path
       fill="#000000"
       stroke="#000000"
       stroke-width="1"
       stroke-linecap="butt"
       d="m 240.38919,69.30596 4.5381,-1.651733 -4.5381,-1.651734 z"
       fill-rule="evenodd"
       id="path103" />
    <path
       fill="#000000"
       fill-opacity="0"
       d="m 299.18777,67.65291 h 29.16537"
       fill-rule="evenodd"
       id="path105" />
    <path
       stroke="#000000"
       stroke-width="1"
       stroke-linejoin="round"
       stroke-linecap="butt"
       d="m 299.18777,67.65291 h 23.16537"
       fill-rule="evenodd"
       id="path107" />
    <path
       fill="#000000"
       stroke="#000000"
       stroke-width="1"
       stroke-linecap="butt"
       d="m 322.35315,69.30464 4.53809,-1.651733 -4.53809,-1.651734 z"
       fill-rule="evenodd"
       id="path109" />
    <path
       fill="#000000"
       fill-opacity="0"
       d="m 381.15173,67.65423 h 29.16534"
       fill-rule="evenodd"
       id="path111" />
    <path
       stroke="#000000"
       stroke-width="1"
       stroke-linejoin="round"
       stroke-linecap="butt"
       d="M 381.15173,67.65423 H 404.3171"
       fill-rule="evenodd"
       id="path113" />
    <path
       fill="#000000"
       stroke="#000000"
       stroke-width="1"
       stroke-linecap="butt"
       d="m 404.3171,69.30596 4.53809,-1.651733 -4.53809,-1.651734 z"
       fill-rule="evenodd"
       id="path115" />
    <path
       fill="#f3f3f3"
       d="m 328.4588,176.17326 h 52.69293 v 20.72441 H 328.4588 Z"
       fill-rule="evenodd"
       id="path117" />
    <path
       stroke="#000000"
       stroke-width="1"
       stroke-linejoin="round"
       stroke-linecap="butt"
       d="m 328.4588,176.17326 h 52.69293 v 20.72441 H 328.4588 Z"
       fill-rule="evenodd"
       id="path119" />
    <path
       fill="#000000"
       d="m 349.06308,182.41235 v -0.60938 h 4.15625 v 0.60938 l -1.35937,0.15625 q -0.0156,0.92187 -0.0156,1.875 0,0.95312 0,1.90625 v 0.71875 q 0,0.9375 0,1.89062 0,0.9375 0.0156,1.89063 l 1.35937,0.17187 v 0.59375 h -4.15625 v -0.59375 l 1.35938,-0.17187 q 0.0156,-0.92188 0.0156,-1.875 0,-0.95313 0,-1.90625 v -0.71875 q 0,-0.95313 0,-1.89063 0,-0.95312 -0.0156,-1.89062 z m 6.04684,0.39062 3.01563,-0.76562 0.20312,0.14062 -0.0625,2.09375 v 4.25 q 0,0.54688 0,1.10938 0.0156,0.54687 0.0312,1.10937 l 2.07813,0.34375 v 0.53125 h -5.4375 v -0.53125 l 2.07812,-0.34375 q 0.0156,-0.5625 0.0156,-1.10937 0.0156,-0.5625 0.0156,-1.10938 v -5.28125 l -1.9375,0.17188 z"
       fill-rule="nonzero"
       id="path121" />
    <path
       fill="#000000"
       fill-opacity="0"
       d="m 30.036356,176.17323 h 52.8189 v 20.72441 h -52.8189 z"
       fill-rule="evenodd"
       id="path123" />
    <path
       fill="#000000"
       d="m 43.67828,184.43607 0.140625,-2.84375 h 8.765625 l 0.125,2.84375 h -0.921875 l -0.359375,-2.04688 h -2.453125 q -0.01563,1.03125 -0.03125,2.07813 0,1.03125 0,2.07812 v 0.79688 q 0,1.01562 0,2.04687 0.01563,1.03125 0.03125,2.07813 l 1.640625,0.17187 v 0.65625 h -4.828125 v -0.65625 l 1.625,-0.17187 q 0.03125,-1.03125 0.03125,-2.0625 0,-1.03125 0,-2.0625 v -0.79688 q 0,-1.03125 0,-2.0625 0,-1.04687 -0.03125,-2.09375 H 44.95953 l -0.34375,2.04688 z m 13.117142,6.625 v -3.57813 h -3.296875 v -0.92187 h 3.296875 v -3.5 h 0.96875 v 3.5 h 3.296875 v 0.92187 h -3.296875 v 3.57813 z m 7.449139,-4.60938 h 0.640625 q 1.078125,0 1.671875,-0.54687 0.609375,-0.5625 0.609375,-1.59375 0,-0.875 -0.5,-1.35938 -0.5,-0.48437 -1.453125,-0.48437 -0.15625,0 -0.328125,0.0156 -0.171875,0.0156 -0.40625,0.0469 l -0.203125,0.8125 q -0.125,0.48437 -0.328125,0.73437 -0.1875,0.25 -0.59375,0.25 -0.265625,0 -0.46875,-0.125 -0.203125,-0.125 -0.3125,-0.4375 0.21875,-1 1.015625,-1.5 0.796875,-0.51562 1.90625,-0.51562 1.40625,0 2.234375,0.70312 0.828125,0.6875 0.828125,1.8125 0,0.85938 -0.546875,1.54688 -0.546875,0.67187 -1.546875,1.03125 1.234375,0.23437 1.828125,0.92187 0.59375,0.6875 0.59375,1.6875 0,0.85938 -0.453125,1.54688 -0.4375,0.6875 -1.25,1.09375 -0.796875,0.40625 -1.890625,0.40625 -1.15625,0 -2,-0.53125 -0.84375,-0.53125 -1.0625,-1.73438 0.265625,-0.53125 0.8125,-0.53125 0.421875,0 0.59375,0.28125 0.1875,0.26563 0.359375,0.875 l 0.203125,0.82813 q 0.265625,0.0625 0.484375,0.0781 0.234375,0.0156 0.40625,0.0156 1.1875,0 1.78125,-0.60938 0.59375,-0.625 0.59375,-1.6875 0,-1.04687 -0.609375,-1.64062 -0.609375,-0.59375 -1.84375,-0.59375 h -0.765625 z"
       fill-rule="nonzero"
       id="path125" />
    <path
       fill="#000000"
       fill-opacity="0"
       d="m 30.036356,204.92389 h 52.8189 v 20.72441 h -52.8189 z"
       fill-rule="evenodd"
       id="path127" />
    <path
       fill="#000000"
       d="m 43.67828,213.18672 0.140625,-2.84375 h 8.765625 l 0.125,2.84375 h -0.921875 l -0.359375,-2.04688 h -2.453125 q -0.01563,1.03125 -0.03125,2.07813 0,1.03125 0,2.07812 v 0.79688 q 0,1.01562 0,2.04687 0.01563,1.03125 0.03125,2.07813 l 1.640625,0.17187 v 0.65625 h -4.828125 v -0.65625 l 1.625,-0.17187 q 0.03125,-1.03125 0.03125,-2.0625 0,-1.03125 0,-2.0625 v -0.79688 q 0,-1.03125 0,-2.0625 0,-1.04687 -0.03125,-2.09375 H 44.95953 l -0.34375,2.04688 z m 13.117142,6.625 v -3.57813 h -3.296875 v -0.92187 h 3.296875 v -3.5 h 0.96875 v 3.5 h 3.296875 v 0.92187 h -3.296875 v 3.57813 z m 12.480389,-1.85938 h -1.6875 v 3.09375 h -1.328125 v -3.09375 H 61.91644 v -0.84375 l 4.749996,-6.54687 h 0.921875 v 6.39062 h 1.6875 z m -6.40625,-1 h 3.390625 v -4.71875 z"
       fill-rule="nonzero"
       id="path129" />
    <path
       fill="#f3f3f3"
       d="m 410.42276,204.92392 h 52.6929 v 20.72441 h -52.6929 z"
       fill-rule="evenodd"
       id="path131" />
    <path
       stroke="#000000"
       stroke-width="1"
       stroke-linejoin="round"
       stroke-linecap="butt"
       d="m 410.42276,204.92392 h 52.6929 v 20.72441 h -52.6929 z"
       fill-rule="evenodd"
       id="path133" />
    <path
       fill="#000000"
       d="m 431.027,211.16301 v -0.60937 h 4.15625 v 0.60937 l -1.35938,0.15625 q -0.0156,0.92188 -0.0156,1.875 0,0.95313 0,1.90625 v 0.71875 q 0,0.9375 0,1.89063 0,0.9375 0.0156,1.89062 l 1.35938,0.17188 v 0.59375 H 431.027 v -0.59375 l 1.35937,-0.17188 q 0.0156,-0.92187 0.0156,-1.875 0,-0.95312 0,-1.90625 v -0.71875 q 0,-0.95312 0,-1.89062 0,-0.95313 -0.0156,-1.89063 z m 6.04687,0.39063 3.01563,-0.76563 0.20312,0.14063 -0.0625,2.09375 v 4.25 q 0,0.54687 0,1.10937 0.0156,0.54688 0.0312,1.10938 l 2.07813,0.34375 v 0.53125 h -5.4375 v -0.53125 l 2.07812,-0.34375 q 0.0156,-0.5625 0.0156,-1.10938 0.0156,-0.5625 0.0156,-1.10937 v -5.28125 l -1.9375,0.17187 z"
       fill-rule="nonzero"
       id="path135" />
    <path
       fill="#000000"
       fill-opacity="0"
       d="m 381.15173,186.53548 29.25983,28.7559"
       fill-rule="evenodd"
       id="path137" />
    <path
       stroke="#000000"
       stroke-width="1"
       stroke-linejoin="round"
       stroke-linecap="butt"
       d="m 381.15173,186.53548 24.98053,24.55028"
       fill-rule="evenodd"
       id="path139" />
    <path
       fill="#000000"
       stroke="#000000"
       stroke-width="1"
       stroke-linecap="butt"
       d="m 404.9745,212.26381 4.39444,2.00287 -2.07892,-4.35898 z"
       fill-rule="evenodd"
       id="path141" />
    <path
       fill="#f3f3f3"
       d="m 82.891685,118.67318 h 51.937005 v 20.7244 H 82.891685 Z"
       fill-rule="evenodd"
       id="path143" />
    <path
       stroke="#000000"
       stroke-width="1"
       stroke-linejoin="round"
       stroke-linecap="butt"
       d="m 82.891685,118.67318 h 51.937005 v 20.7244 H 82.891685 Z"
       fill-rule="evenodd"
       id="path145" />
    <path
       fill="#000000"
       d="m 103.11799,124.91225 v -0.60937 h 4.15625 v 0.60937 l -1.35937,0.15625 q -0.0156,0.92188 -0.0156,1.875 0,0.95313 0,1.90626 v 0.71875 q 0,0.9375 0,1.89063 0,0.9375 0.0156,1.89062 l 1.35937,0.17188 v 0.59375 h -4.15625 v -0.59375 l 1.35938,-0.17188 q 0.0156,-0.92187 0.0156,-1.875 0,-0.95312 0,-1.90625 v -0.71875 q 0,-0.95313 0,-1.89063 0,-0.95313 -0.0156,-1.89063 z m 5.51561,9.20314 v -0.95313 q 0.57812,-0.57812 1.125,-1.14062 0.54687,-0.5625 1.01562,-1.0625 1.10938,-1.15625 1.60938,-2.09375 0.51562,-0.93751 0.51562,-1.78126 0,-0.90625 -0.48437,-1.4375 -0.46875,-0.53125 -1.26563,-0.53125 -0.15625,0 -0.34375,0.0156 -0.17187,0.0156 -0.375,0.0625 l -0.28125,1 q -0.14062,0.54688 -0.34375,0.78125 -0.20312,0.21875 -0.5,0.21875 -0.48437,0 -0.75,-0.46875 0.0781,-0.76562 0.5,-1.26562 0.4375,-0.51563 1.07813,-0.75 0.64062,-0.25 1.375,-0.25 1.42187,0 2.0625,0.70312 0.65625,0.6875 0.65625,1.78125 0,0.65625 -0.26563,1.26564 -0.25,0.59375 -0.89062,1.35937 -0.625,0.75 -1.75,1.82813 -0.29688,0.29687 -0.71875,0.70312 -0.40625,0.39063 -0.85938,0.8125 h 4.90625 v 1.20313 z"
       fill-rule="nonzero"
       id="path147" />
    <path
       fill="#000000"
       fill-opacity="0"
       d="m 134.82869,129.03539 29.60629,28.7559"
       fill-rule="evenodd"
       id="path149" />
    <path
       stroke="#000000"
       stroke-width="1"
       stroke-linejoin="round"
       stroke-linecap="butt"
       d="m 134.82869,129.03539 25.30229,24.57553"
       fill-rule="evenodd"
       id="path151" />
    <path
       fill="#000000"
       stroke="#000000"
       stroke-width="1"
       stroke-linecap="butt"
       d="m 158.98018,154.79576 4.40614,1.97697 -2.10452,-4.34666 z"
       fill-rule="evenodd"
       id="path153" />
    <path
       fill="#f3f3f3"
       d="m 164.43645,147.42798 h 52.7874 v 20.72441 h -52.7874 z"
       fill-rule="evenodd"
       id="path155" />
    <path
       stroke="#000000"
       stroke-width="1"
       stroke-linejoin="round"
       stroke-linecap="butt"
       d="m 164.43645,147.42798 h 52.7874 v 20.72441 h -52.7874 z"
       fill-rule="evenodd"
       id="path157" />
    <path
       fill="#000000"
       d="m 185.08795,153.66705 v -0.60938 h 4.15625 v 0.60938 l -1.35938,0.15625 q -0.0156,0.92187 -0.0156,1.875 0,0.95312 0,1.90625 v 0.71875 q 0,0.9375 0,1.89062 0,0.9375 0.0156,1.89063 l 1.35938,0.17187 v 0.59375 h -4.15625 v -0.59375 l 1.35937,-0.17187 q 0.0156,-0.92188 0.0156,-1.875 0,-0.95313 0,-1.90625 v -0.71875 q 0,-0.95313 0,-1.89063 0,-0.95312 -0.0156,-1.89062 z m 5.51561,9.20312 v -0.95312 q 0.57812,-0.57813 1.125,-1.14063 0.54687,-0.5625 1.01562,-1.0625 1.10938,-1.15625 1.60938,-2.09375 0.51562,-0.9375 0.51562,-1.78125 0,-0.90625 -0.48437,-1.4375 -0.46875,-0.53125 -1.26563,-0.53125 -0.15625,0 -0.34375,0.0156 -0.17187,0.0156 -0.375,0.0625 l -0.28125,1 q -0.14062,0.54687 -0.34375,0.78125 -0.20312,0.21875 -0.5,0.21875 -0.48437,0 -0.75,-0.46875 0.0781,-0.76563 0.5,-1.26563 0.4375,-0.51562 1.07813,-0.75 0.64062,-0.25 1.375,-0.25 1.42187,0 2.0625,0.70313 0.65625,0.6875 0.65625,1.78125 0,0.65625 -0.26563,1.26562 -0.25,0.59375 -0.89062,1.35938 -0.625,0.75 -1.75,1.82812 -0.29688,0.29688 -0.71875,0.70313 -0.40625,0.39062 -0.85938,0.8125 h 4.90625 v 1.20312 z"
       fill-rule="nonzero"
       id="path159" />
    <path
       fill="#000000"
       fill-opacity="0"
       d="m 217.23503,215.29663 29.25984,28.7559"
       fill-rule="evenodd"
       id="path161" />
    <path
       stroke="#000000"
       stroke-width="1"
       stroke-linejoin="round"
       stroke-linecap="butt"
       d="m 217.23503,215.29663 24.98051,24.55028"
       fill-rule="evenodd"
       id="path163" />
    <path
       fill="#000000"
       stroke="#000000"
       stroke-width="1"
       stroke-linecap="butt"
       d="m 241.05779,241.02496 4.39442,2.00287 -2.0789,-4.35898 z"
       fill-rule="evenodd"
       id="path165" />
    <path
       fill="#f3f3f3"
       d="m 164.43645,204.93442 h 52.7874 v 20.72441 h -52.7874 z"
       fill-rule="evenodd"
       id="path167" />
    <path
       stroke="#000000"
       stroke-width="1"
       stroke-linejoin="round"
       stroke-linecap="butt"
       d="m 164.43645,204.93442 h 52.7874 v 20.72441 h -52.7874 z"
       fill-rule="evenodd"
       id="path169" />
    <path
       fill="#000000"
       d="m 185.08795,211.17351 v -0.60938 h 4.15625 v 0.60938 l -1.35938,0.15625 q -0.0156,0.92187 -0.0156,1.875 0,0.95312 0,1.90625 v 0.71875 q 0,0.9375 0,1.89062 0,0.9375 0.0156,1.89063 l 1.35938,0.17187 v 0.59375 h -4.15625 v -0.59375 l 1.35937,-0.17187 q 0.0156,-0.92188 0.0156,-1.875 0,-0.95313 0,-1.90625 v -0.71875 q 0,-0.95313 0,-1.89063 0,-0.95312 -0.0156,-1.89062 z m 11.89061,6.375 h -1.54687 v 2.82812 h -1.21875 v -2.82812 h -3.98438 v -0.78125 l 4.35938,-5.98438 h 0.84375 v 5.84375 h 1.54687 z m -5.875,-0.92188 h 3.10938 v -4.32812 z"
       fill-rule="nonzero"
       id="path171" />
    <path
       fill="#000000"
       fill-opacity="0"
       d="M 0,0 H 504 V 72.97638 H 0 Z"
       fill-rule="evenodd"
       id="path173" />
    <path
       fill="#f3f3f3"
       d="m 82.891685,147.42798 h 51.937005 v 20.72441 H 82.891685 Z"
       fill-rule="evenodd"
       id="path177" />
    <path
       stroke="#000000"
       stroke-width="1"
       stroke-linejoin="round"
       stroke-linecap="butt"
       d="m 82.891685,147.42798 h 51.937005 v 20.72441 H 82.891685 Z"
       fill-rule="evenodd"
       id="path179" />
    <path
       fill="#000000"
       d="m 103.11799,153.66705 v -0.60938 h 4.15625 v 0.60938 l -1.35937,0.15625 q -0.0156,0.92187 -0.0156,1.875 0,0.95312 0,1.90625 v 0.71875 q 0,0.9375 0,1.89062 0,0.9375 0.0156,1.89063 l 1.35937,0.17187 v 0.59375 h -4.15625 v -0.59375 l 1.35938,-0.17187 q 0.0156,-0.92188 0.0156,-1.875 0,-0.95313 0,-1.90625 v -0.71875 q 0,-0.95313 0,-1.89063 0,-0.95312 -0.0156,-1.89062 z m 7.29686,3.85937 h 0.57812 q 1,0 1.54688,-0.51562 0.5625,-0.51563 0.5625,-1.45313 0,-0.8125 -0.46875,-1.25 -0.45313,-0.4375 -1.32813,-0.4375 -0.14062,0 -0.3125,0.0156 -0.15625,0.0156 -0.35937,0.0469 l -0.1875,0.73438 q -0.125,0.45312 -0.29688,0.6875 -0.17187,0.21875 -0.5625,0.21875 -0.23437,0 -0.42187,-0.10938 -0.1875,-0.125 -0.28125,-0.40625 0.20312,-0.92187 0.92187,-1.375 0.73438,-0.46875 1.75,-0.46875 1.29688,0 2.04688,0.64063 0.76562,0.625 0.76562,1.65625 0,0.79687 -0.51562,1.42187 -0.5,0.625 -1.40625,0.9375 1.14062,0.21875 1.67187,0.85938 0.54688,0.625 0.54688,1.53125 0,0.79687 -0.42188,1.42187 -0.40625,0.625 -1.14062,1 -0.71875,0.375 -1.71875,0.375 -1.07813,0 -1.84375,-0.48437 -0.76563,-0.5 -0.96875,-1.59375 0.25,-0.48438 0.75,-0.48438 0.375,0 0.54687,0.25 0.17188,0.25 0.3125,0.8125 l 0.1875,0.75 q 0.25,0.0625 0.45313,0.0781 0.20312,0.0156 0.375,0.0156 1.07812,0 1.60937,-0.5625 0.54688,-0.5625 0.54688,-1.54687 0,-0.95313 -0.5625,-1.48438 -0.54688,-0.54687 -1.67188,-0.54687 h -0.70312 z"
       fill-rule="nonzero"
       id="path181" />
    <path
       fill="#000000"
       fill-opacity="0"
       d="m 134.82869,186.5461 29.60629,28.7559"
       fill-rule="evenodd"
       id="path183" />
    <path
       stroke="#000000"
       stroke-width="1"
       stroke-linejoin="round"
       stroke-linecap="butt"
       d="m 134.82869,186.5461 25.30229,24.57552"
       fill-rule="evenodd"
       id="path185" />
    <path
       fill="#000000"
       stroke="#000000"
       stroke-width="1"
       stroke-linecap="butt"
       d="m 158.98018,212.30647 4.40614,1.97697 -2.10452,-4.34666 z"
       fill-rule="evenodd"
       id="path187" />
    <path
       fill="#000000"
       fill-opacity="0"
       d="M 246.5645,157.78482 H 217.21018"
       fill-rule="evenodd"
       id="path189" />
    <path
       stroke="#980000"
       stroke-width="1"
       stroke-linejoin="round"
       stroke-linecap="butt"
       d="M 246.56451,157.78482 H 223.21017"
       fill-rule="evenodd"
       id="path191" />
    <path
       fill="#980000"
       stroke="#980000"
       stroke-width="1"
       stroke-linecap="butt"
       d="m 223.21017,156.13309 -4.53809,1.65173 4.53809,1.65174 z"
       fill-rule="evenodd"
       id="path193" />
    <path
       fill="#000000"
       fill-opacity="0"
       d="m 252.26172,113.34304 v 0 c 0,-2.12511 1.72273,-3.84785 3.84784,-3.84785 h 54.79251 c 1.02051,0 1.99921,0.4054 2.72082,1.12701 0.72162,0.72161 1.12702,1.70032 1.12702,2.72084 v 15.39092 c 0,2.12511 -1.72275,3.84784 -3.84784,3.84784 h -54.79251 c -2.12511,0 -3.84784,-1.72273 -3.84784,-3.84784 z"
       fill-rule="evenodd"
       id="path195" />
    <path
       stroke="#980000"
       stroke-width="1"
       stroke-linejoin="round"
       stroke-linecap="butt"
       stroke-dasharray="4, 3"
       d="m 252.26172,113.34304 v 0 c 0,-2.12511 1.72273,-3.84785 3.84784,-3.84785 h 54.79251 c 1.02051,0 1.99921,0.4054 2.72082,1.12701 0.72162,0.72161 1.12702,1.70032 1.12702,2.72084 v 15.39092 c 0,2.12511 -1.72275,3.84784 -3.84784,3.84784 h -54.79251 c -2.12511,0 -3.84784,-1.72273 -3.84784,-3.84784 z"
       fill-rule="evenodd"
       id="path197" />
    <path
       fill="#000000"
       d="m 263.8642,121.54163 q 0,0.98437 0,1.89062 0.0156,0.90625 0.0156,1.78125 h 1.0625 q 1.54688,0 2.375,-1 0.82813,-1.01562 0.82813,-2.82812 0,-1.875 -0.82813,-2.85938 -0.8125,-0.98437 -2.25,-0.98437 h -1.1875 q 0,0.84375 -0.0156,1.73437 0,0.89063 0,1.78125 z m -2.51563,-4.07813 v -0.54687 h 3.92188 q 1.28125,0 2.25,0.51562 0.98437,0.51563 1.53125,1.51563 0.54687,0.98437 0.54687,2.4375 0,1.4375 -0.60937,2.4375 -0.59375,0.98437 -1.625,1.5 -1.03125,0.51562 -2.34375,0.51562 h -3.67188 v -0.54687 l 1.21875,-0.14063 q 0.0312,-0.85937 0.0312,-1.73437 0,-0.89063 0,-1.875 v -0.48438 q 0,-0.875 0,-1.73437 0,-0.85938 -0.0312,-1.70313 z m 9.33793,8.375 v -0.48437 l 1,-0.1875 q 0.0156,-0.5 0.0156,-1.09375 0.0156,-0.59375 0.0156,-1.03125 v -0.625 q 0,-0.54688 -0.0156,-0.90625 0,-0.375 -0.0312,-0.78125 l -1.0625,-0.10938 V 120.151 l 2.04688,-0.8125 0.20312,0.125 -0.0469,1.8125 v 1.76563 q 0,0.4375 0,1.03125 0.0156,0.59375 0.0312,1.09375 l 0.9375,0.1875 v 0.48437 z m 1.57812,-7.96875 q -0.375,0 -0.64062,-0.23437 -0.26563,-0.25 -0.26563,-0.625 0,-0.375 0.26563,-0.60938 0.26562,-0.23437 0.64062,-0.23437 0.35938,0 0.625,0.23437 0.26563,0.23438 0.26563,0.60938 0,0.375 -0.26563,0.625 -0.26562,0.23437 -0.625,0.23437 z m 4.59677,8.14063 q -0.5625,0 -1.03125,-0.125 -0.46875,-0.125 -0.95312,-0.375 l -0.0625,-1.46875 h 0.73437 l 0.25,1.15625 q 0.46875,0.21875 1.07813,0.21875 0.76562,0 1.125,-0.28125 0.375,-0.28125 0.375,-0.73438 0,-0.42187 -0.3125,-0.6875 -0.29688,-0.26562 -0.92188,-0.46875 l -0.625,-0.23437 q -0.73437,-0.26563 -1.17187,-0.6875 -0.4375,-0.42188 -0.4375,-1.10938 0,-0.5 0.26562,-0.92187 0.26563,-0.42188 0.78125,-0.6875 0.53125,-0.26563 1.26563,-0.26563 0.54687,0 1,0.14063 0.45312,0.14062 0.875,0.40625 l -0.0625,1.35937 h -0.6875 l -0.21875,-1.07812 q -0.45313,-0.21875 -0.90625,-0.21875 -0.625,0 -0.9375,0.25 -0.3125,0.25 -0.3125,0.65625 0,0.4375 0.26562,0.67187 0.28125,0.21875 0.96875,0.46875 l 0.40625,0.15625 q 1,0.375 1.42188,0.85938 0.42187,0.46875 0.42187,1.09375 0,0.51562 -0.29687,0.95312 -0.29688,0.42188 -0.875,0.6875 -0.5625,0.26563 -1.42188,0.26563 z m 6.67502,0 q -1.375,0 -2.1875,-0.89063 -0.8125,-0.89062 -0.8125,-2.42187 0,-1.0625 0.42188,-1.8125 0.4375,-0.75 1.14062,-1.14063 0.71875,-0.40625 1.51563,-0.40625 0.59375,0 1.09375,0.23438 0.51562,0.21875 0.84375,0.60937 0.34375,0.39063 0.42187,0.89063 -0.0937,0.5 -0.60937,0.5 -0.34375,0 -0.51563,-0.17188 -0.15625,-0.1875 -0.21875,-0.46875 l -0.25,-0.875 q -0.1875,-0.0625 -0.375,-0.0781 -0.17187,-0.0312 -0.34375,-0.0312 -0.84375,0 -1.40625,0.67187 -0.54687,0.65625 -0.54687,1.9375 0,1.25 0.59375,1.92188 0.60937,0.67187 1.53125,0.67187 0.57812,0 1.04687,-0.26562 0.48438,-0.26563 0.79688,-0.75 l 0.32812,0.17187 q -0.28125,0.82813 -0.90625,1.26563 -0.625,0.4375 -1.5625,0.4375 z m 8.48846,-0.0312 q -0.48437,0 -0.8125,-0.28125 -0.3125,-0.28125 -0.39062,-0.75 -0.54688,0.53125 -0.96875,0.79687 -0.40625,0.26563 -0.98438,0.26563 -0.73437,0 -1.26562,-0.42188 -0.53125,-0.42187 -0.53125,-1.25 0,-0.375 0.17187,-0.70312 0.1875,-0.34375 0.67188,-0.65625 0.48437,-0.32813 1.375,-0.64063 0.3125,-0.10937 0.70312,-0.23437 0.40625,-0.125 0.79688,-0.20313 v -0.34375 q 0,-0.96875 -0.29688,-1.28125 -0.28125,-0.32812 -0.95312,-0.32812 -0.14063,0 -0.32813,0.0156 -0.17187,0.0156 -0.39062,0.0625 l -0.25,0.875 q -0.1875,0.625 -0.6875,0.625 -0.5625,0 -0.64063,-0.53125 0.1875,-0.76562 0.89063,-1.20312 0.70312,-0.45313 1.71875,-0.45313 1.04687,0 1.54687,0.53125 0.51563,0.51563 0.51563,1.78125 v 2.84375 q 0,0.42188 0.125,0.60938 0.14062,0.17187 0.35937,0.17187 0.17188,0 0.28125,-0.0781 0.125,-0.0781 0.23438,-0.21875 l 0.26562,0.29687 q -0.23437,0.39063 -0.53125,0.54688 -0.28125,0.15625 -0.625,0.15625 z m -3.76562,-1.82813 q 0,0.53125 0.3125,0.76563 0.3125,0.21875 0.76562,0.21875 0.1875,0 0.35938,-0.0469 0.1875,-0.0625 0.4375,-0.21875 0.26562,-0.15625 0.65625,-0.4375 v -2.04687 q -0.34375,0.0937 -0.67188,0.21875 -0.32812,0.10937 -0.54687,0.1875 -0.57813,0.21875 -0.85938,0.46875 -0.28125,0.23437 -0.375,0.46875 -0.0781,0.21875 -0.0781,0.42187 z m 5.4986,1.6875 v -0.48437 l 0.95312,-0.17188 q 0.0156,-0.5 0.0156,-1.09375 0.0156,-0.59375 0.0156,-1.04687 V 122.401 q 0,-0.54687 -0.0156,-0.90625 0,-0.35937 -0.0312,-0.76562 l -1.04688,-0.10938 V 120.151 l 1.85938,-0.8125 0.20312,0.125 0.15625,1.57813 q 0.32813,-0.79688 0.84375,-1.25 0.53125,-0.45313 1.0625,-0.45313 0.3125,0 0.57813,0.14063 0.26562,0.125 0.39062,0.34375 0,0.98437 -0.78125,0.98437 -0.23437,0 -0.4375,-0.0937 -0.20312,-0.0937 -0.39062,-0.25 l -0.15625,-0.14062 q -0.39063,0.29687 -0.65625,0.71875 -0.26563,0.42187 -0.45313,1 v 1 q 0,0.4375 0,1.03125 0.0156,0.57812 0.0312,1.07812 l 1.09375,0.20313 v 0.48437 z m 6.7388,-3.125 q 0,1.29688 0.53125,1.92188 0.53125,0.60937 1.32812,0.60937 0.4375,0 0.76563,-0.17187 0.34375,-0.1875 0.71875,-0.59375 v -3.6875 q -0.45313,-0.40625 -0.8125,-0.54688 -0.35938,-0.15625 -0.6875,-0.15625 -0.5,0 -0.92188,0.28125 -0.40625,0.26563 -0.67187,0.85938 -0.25,0.57812 -0.25,1.48437 z m 3.48437,3.26563 -0.0937,-0.92188 q -0.34375,0.45313 -0.79687,0.70313 -0.45313,0.25 -1.07813,0.25 -0.8125,0 -1.42187,-0.40625 -0.60938,-0.42188 -0.95313,-1.15625 -0.34375,-0.73438 -0.34375,-1.71875 0,-1.01563 0.375,-1.78125 0.375,-0.76563 1.01563,-1.1875 0.64062,-0.42188 1.45312,-0.42188 0.46875,0 0.89063,0.1875 0.4375,0.1875 0.85937,0.67188 v -3.01563 l -1.14062,-0.125 v -0.46875 l 2.07812,-0.59375 0.1875,0.0937 -0.0469,1.90625 v 7.20313 l 1.07812,0.15625 v 0.48437 z"
       fill-rule="nonzero"
       id="path199" />
    <path
       fill="#000000"
       fill-opacity="0"
       d="m 252.26172,121.03851 c -10.03151,0 -20.063,18.48818 -20.063,36.97637"
       fill-rule="evenodd"
       id="path201" />
    <path
       stroke="#980000"
       stroke-width="1"
       stroke-linejoin="round"
       stroke-linecap="butt"
       stroke-dasharray="4, 3"
       d="m 252.26172,121.03851 c -10.03151,0 -20.063,18.48818 -20.063,36.97637"
       fill-rule="evenodd"
       id="path203" />
    <path
       fill="#000000"
       fill-opacity="0"
       d="m 233.52284,178.84521 v 0 c 0,-2.12511 1.72273,-3.84784 3.84784,-3.84784 h 73.06023 c 1.02051,0 1.99921,0.4054 2.72082,1.12701 0.72162,0.72161 1.12702,1.70032 1.12702,2.72083 v 15.39093 c 0,2.12511 -1.72275,3.84784 -3.84784,3.84784 h -73.06023 c -2.12511,0 -3.84784,-1.72273 -3.84784,-3.84784 z"
       fill-rule="evenodd"
       id="path205" />
    <path
       stroke="#38761d"
       stroke-width="1"
       stroke-linejoin="round"
       stroke-linecap="butt"
       stroke-dasharray="4, 3"
       d="m 233.52284,178.84521 v 0 c 0,-2.12511 1.72273,-3.84784 3.84784,-3.84784 h 73.06023 c 1.02051,0 1.99921,0.4054 2.72082,1.12701 0.72162,0.72161 1.12702,1.70032 1.12702,2.72083 v 15.39093 c 0,2.12511 -1.72275,3.84784 -3.84784,3.84784 h -73.06023 c -2.12511,0 -3.84784,-1.72273 -3.84784,-3.84784 z"
       fill-rule="evenodd"
       id="path207" />
    <path
       fill="#000000"
       d="m 243.82231,183.04381 h -1.15625 q 0,0.875 -0.0156,1.75 0,0.875 0,1.8125 h 1.01563 q 1.09375,0 1.59375,-0.51563 0.51562,-0.51562 0.51562,-1.32812 0,-0.82813 -0.46875,-1.26563 -0.46875,-0.45312 -1.48437,-0.45312 z m -3.6875,-0.0781 v -0.54687 h 3.71875 q 1.53125,0 2.39062,0.625 0.85938,0.60937 0.85938,1.71875 0,0.76562 -0.5625,1.40625 -0.5625,0.64062 -1.6875,0.84375 0.59375,0.10937 0.96875,0.51562 0.375,0.39063 0.60937,1.17188 l 0.57813,1.96875 1.01562,0.125 v 0.54687 q -0.1875,0.0469 -0.4375,0.0937 -0.25,0.0469 -0.5625,0.0469 -0.625,0 -0.9375,-0.1875 -0.3125,-0.1875 -0.42187,-0.67188 l -0.54688,-2.14062 q -0.10937,-0.54688 -0.34375,-0.8125 -0.21875,-0.26563 -0.57812,-0.35938 -0.34375,-0.0937 -0.89063,-0.0937 h -0.65625 q 0,0.95313 0,1.79688 0.0156,0.82812 0.0156,1.64062 l 1.23437,0.14063 v 0.54687 h -3.76562 v -0.54687 l 1.21875,-0.14063 q 0.0312,-0.84375 0.0312,-1.70312 0,-0.875 0,-1.73438 v -0.65625 q 0,-0.875 0,-1.73437 0,-0.85938 -0.0312,-1.70313 z m 11.52762,2.48438 q -0.35938,0 -0.75,0.21875 -0.375,0.20312 -0.65625,0.67187 -0.26563,0.46875 -0.34375,1.23438 h 2.42187 q 0.48438,0 0.625,-0.1875 0.15625,-0.20313 0.15625,-0.5 0,-0.39063 -0.1875,-0.70313 -0.1875,-0.32812 -0.51562,-0.53125 -0.32813,-0.20312 -0.75,-0.20312 z m 0,6.0625 q -1.35938,0 -2.17188,-0.875 -0.8125,-0.875 -0.8125,-2.40625 0,-1.01563 0.42188,-1.78125 0.42187,-0.76563 1.125,-1.1875 0.70312,-0.42188 1.53125,-0.42188 0.6875,0 1.25,0.3125 0.5625,0.29688 0.89062,0.85938 0.32813,0.5625 0.32813,1.39062 0,0.21875 -0.0312,0.42188 -0.0156,0.1875 -0.0625,0.3125 h -4.25 q 0.0312,1.23437 0.60937,1.875 0.59375,0.64062 1.54688,0.64062 0.64062,0 1.0625,-0.26562 0.4375,-0.26563 0.79687,-0.67188 l 0.3125,0.25 q -0.375,0.70313 -1.01562,1.125 -0.625,0.42188 -1.53125,0.42188 z m 5.01607,-3.29688 q 0,1.29688 0.53125,1.92188 0.53125,0.60937 1.32812,0.60937 0.4375,0 0.76563,-0.17187 0.34375,-0.1875 0.71875,-0.59375 v -3.6875 q -0.45313,-0.40625 -0.8125,-0.54688 -0.35938,-0.15625 -0.6875,-0.15625 -0.5,0 -0.92188,0.28125 -0.40625,0.26563 -0.67187,0.85938 -0.25,0.57812 -0.25,1.48437 z m 3.48437,3.26563 -0.0937,-0.92188 q -0.34375,0.45313 -0.79687,0.70313 -0.45313,0.25 -1.07813,0.25 -0.8125,0 -1.42187,-0.40625 -0.60938,-0.42188 -0.95313,-1.15625 -0.34375,-0.73438 -0.34375,-1.71875 0,-1.01563 0.375,-1.78125 0.375,-0.76563 1.01563,-1.1875 0.64062,-0.42188 1.45312,-0.42188 0.46875,0 0.89063,0.1875 0.4375,0.1875 0.85937,0.67188 v -3.01563 l -1.14062,-0.125 v -0.46875 l 2.07812,-0.59375 0.1875,0.0937 -0.0469,1.90625 v 7.20313 l 1.07812,0.15625 v 0.48437 z m 2.74454,-0.14063 v -0.48437 l 1,-0.1875 q 0.0156,-0.5 0.0156,-1.09375 0.0156,-0.59375 0.0156,-1.03125 v -0.625 q 0,-0.54688 -0.0156,-0.90625 0,-0.375 -0.0312,-0.78125 l -1.0625,-0.10938 v -0.46875 l 2.04688,-0.8125 0.20312,0.125 -0.0469,1.8125 v 1.76563 q 0,0.4375 0,1.03125 0.0156,0.59375 0.0312,1.09375 l 0.9375,0.1875 v 0.48437 z m 1.57812,-7.96875 q -0.375,0 -0.64062,-0.23437 -0.26563,-0.25 -0.26563,-0.625 0,-0.375 0.26563,-0.60938 0.26562,-0.23437 0.64062,-0.23437 0.35938,0 0.625,0.23437 0.26563,0.23438 0.26563,0.60938 0,0.375 -0.26563,0.625 -0.26562,0.23437 -0.625,0.23437 z m 2.4874,7.96875 v -0.48437 l 0.95312,-0.17188 q 0.0156,-0.5 0.0156,-1.09375 0.0156,-0.59375 0.0156,-1.04687 v -0.64063 q 0,-0.54687 -0.0156,-0.90625 0,-0.35937 -0.0312,-0.76562 l -1.04688,-0.10938 v -0.46875 l 1.85938,-0.8125 0.20312,0.125 0.15625,1.57813 q 0.32813,-0.79688 0.84375,-1.25 0.53125,-0.45313 1.0625,-0.45313 0.3125,0 0.57813,0.14063 0.26562,0.125 0.39062,0.34375 0,0.98437 -0.78125,0.98437 -0.23437,0 -0.4375,-0.0937 -0.20312,-0.0937 -0.39062,-0.25 l -0.15625,-0.14062 q -0.39063,0.29687 -0.65625,0.71875 -0.26563,0.42187 -0.45313,1 v 1 q 0,0.4375 0,1.03125 0.0156,0.57812 0.0312,1.07812 l 1.09375,0.20313 v 0.48437 z m 8.52005,-5.89062 q -0.35938,0 -0.75,0.21875 -0.375,0.20312 -0.65625,0.67187 -0.26563,0.46875 -0.34375,1.23438 h 2.42187 q 0.48438,0 0.625,-0.1875 0.15625,-0.20313 0.15625,-0.5 0,-0.39063 -0.1875,-0.70313 -0.1875,-0.32812 -0.51562,-0.53125 -0.32813,-0.20312 -0.75,-0.20312 z m 0,6.0625 q -1.35938,0 -2.17188,-0.875 -0.8125,-0.875 -0.8125,-2.40625 0,-1.01563 0.42188,-1.78125 0.42187,-0.76563 1.125,-1.1875 0.70312,-0.42188 1.53125,-0.42188 0.6875,0 1.25,0.3125 0.5625,0.29688 0.89062,0.85938 0.32813,0.5625 0.32813,1.39062 0,0.21875 -0.0312,0.42188 -0.0156,0.1875 -0.0625,0.3125 h -4.25 q 0.0312,1.23437 0.60937,1.875 0.59375,0.64062 1.54688,0.64062 0.64062,0 1.0625,-0.26562 0.4375,-0.26563 0.79687,-0.67188 l 0.3125,0.25 q -0.375,0.70313 -1.01562,1.125 -0.625,0.42188 -1.53125,0.42188 z m 6.78171,0 q -1.375,0 -2.1875,-0.89063 -0.8125,-0.89062 -0.8125,-2.42187 0,-1.0625 0.42187,-1.8125 0.4375,-0.75 1.14063,-1.14063 0.71875,-0.40625 1.51562,-0.40625 0.59375,0 1.09375,0.23438 0.51563,0.21875 0.84375,0.60937 0.34375,0.39063 0.42188,0.89063 -0.0937,0.5 -0.60938,0.5 -0.34375,0 -0.51562,-0.17188 -0.15625,-0.1875 -0.21875,-0.46875 l -0.25,-0.875 q -0.1875,-0.0625 -0.375,-0.0781 -0.17188,-0.0312 -0.34375,-0.0312 -0.84375,0 -1.40625,0.67187 -0.54688,0.65625 -0.54688,1.9375 0,1.25 0.59375,1.92188 0.60938,0.67187 1.53125,0.67187 0.57813,0 1.04688,-0.26562 0.48437,-0.26563 0.79687,-0.75 l 0.32813,0.17187 q -0.28125,0.82813 -0.90625,1.26563 -0.625,0.4375 -1.5625,0.4375 z m 5.67596,0 q -0.6875,0 -1.10937,-0.375 -0.40625,-0.375 -0.40625,-1.14063 0,-0.25 0,-0.5 0,-0.25 0,-0.64062 v -3.14063 h -1.09375 v -0.57812 l 1.1875,-0.15625 0.34375,-1.78125 h 0.79687 l -0.0781,1.8125 h 1.79687 v 0.70312 h -1.8125 v 4.125 q 0,0.51563 0.20313,0.75 0.20312,0.23438 0.53125,0.23438 0.21875,0 0.42187,-0.0937 0.21875,-0.0937 0.46875,-0.26563 l 0.32813,0.34375 q -0.54688,0.70313 -1.57813,0.70313 z m 3.59726,-4.84375 q -0.40625,0 -0.6875,-0.28125 -0.26562,-0.28125 -0.26562,-0.65625 0,-0.40625 0.26562,-0.6875 0.28125,-0.28125 0.6875,-0.28125 0.40625,0 0.67188,0.28125 0.28125,0.28125 0.28125,0.6875 0,0.375 -0.28125,0.65625 -0.26563,0.28125 -0.67188,0.28125 z m 0,4.84375 q -0.40625,0 -0.6875,-0.28125 -0.26562,-0.28125 -0.26562,-0.65625 0,-0.40625 0.26562,-0.6875 0.28125,-0.28125 0.6875,-0.28125 0.40625,0 0.67188,0.28125 0.28125,0.28125 0.28125,0.6875 0,0.375 -0.28125,0.65625 -0.26563,0.28125 -0.67188,0.28125 z m 5.6976,-8.54688 v -0.54687 h 3.76563 v 0.54687 l -1.23438,0.15625 q 0,0.82813 -0.0156,1.70313 0,0.85937 0,1.73437 v 0.65625 q 0,0.84375 0,1.70313 0.0156,0.85937 0.0156,1.73437 l 1.23438,0.14063 v 0.54687 h -3.76563 v -0.54687 l 1.21875,-0.14063 q 0.0312,-0.84375 0.0312,-1.70312 0,-0.875 0,-1.73438 v -0.65625 q 0,-0.875 0,-1.73437 0,-0.85938 -0.0312,-1.70313 z m 10.80411,5.79688 H 306.659 v 2.57812 h -1.10938 v -2.57812 h -3.625 v -0.70313 l 3.95313,-5.45312 h 0.78125 v 5.32812 h 1.39062 z m -5.32812,-0.82813 h 2.82812 v -3.9375 z"
       fill-rule="nonzero"
       id="path209" />
    <path
       fill="#000000"
       fill-opacity="0"
       d="m 233.52284,186.54068 c -3.88977,0 -7.77953,-8.4567 -7.77953,-16.91338"
       fill-rule="evenodd"
       id="path211" />
    <path
       stroke="#38761d"
       stroke-width="1"
       stroke-linejoin="round"
       stroke-linecap="butt"
       stroke-dasharray="4, 3"
       d="m 233.52284,186.54068 c -3.88977,0 -7.77953,-8.4567 -7.77953,-16.91338"
       fill-rule="evenodd"
       id="path213" />
    <path
       fill="#000000"
       fill-opacity="0"
       d="m 246.39113,164.11891 c -3.47829,0.83519 -11.63322,3.5079 -20.86971,5.01115 -9.23648,1.50327 -22.43327,4.00841 -34.54916,4.00841 -12.11589,0 -28.78905,-1.50282 -38.14619,-4.00841 -9.35715,-2.50557 -14.99723,-9.18756 -17.99668,-11.02508"
       fill-rule="evenodd"
       id="path215" />
    <path
       stroke="#38761d"
       stroke-width="1"
       stroke-linejoin="round"
       stroke-linecap="butt"
       d="m 246.39111,164.11891 c -3.47829,0.83521 -11.63322,3.5079 -20.86969,5.01117 -9.23648,1.50325 -22.43327,4.00839 -34.54916,4.00839 -12.11591,0 -28.78905,-1.50282 -38.1462,-4.00839 -4.67857,-1.25281 -8.42787,-3.5497 -11.38247,-5.76308 -0.36933,-0.27667 -0.72623,-0.55205 -1.07099,-0.8239 -0.17236,-0.13594 -0.3417,-0.27099 -0.50804,-0.40489 l -0.35036,-0.28454"
       fill-rule="evenodd"
       id="path217" />
    <path
       fill="#38761d"
       stroke="#38761d"
       stroke-width="1"
       stroke-linecap="butt"
       d="m 140.54617,160.56398 -4.57532,-1.54562 2.51139,4.12498 z"
       fill-rule="evenodd"
       id="path219" />
    <path
       fill="#f3f3f3"
       d="m 82.891685,176.18388 h 51.937005 v 20.72441 H 82.891685 Z"
       fill-rule="evenodd"
       id="path427" />
    <path
       stroke="#000000"
       stroke-width="1"
       stroke-linejoin="round"
       stroke-linecap="butt"
       d="m 82.891685,176.18388 h 51.937005 v 20.72441 H 82.891685 Z"
       fill-rule="evenodd"
       id="path429" />
    <path
       fill="#000000"
       d="m 103.11799,182.42296 v -0.60938 h 4.15625 v 0.60938 l -1.35937,0.15625 q -0.0156,0.92187 -0.0156,1.875 0,0.95312 0,1.90625 v 0.71875 q 0,0.9375 0,1.89062 0,0.9375 0.0156,1.89063 l 1.35937,0.17187 v 0.59375 h -4.15625 v -0.59375 l 1.35938,-0.17187 q 0.0156,-0.92188 0.0156,-1.875 0,-0.95313 0,-1.90625 v -0.71875 q 0,-0.95313 0,-1.89063 0,-0.95312 -0.0156,-1.89062 z m 11.89062,6.375 h -1.54689 v 2.82812 h -1.21875 v -2.82812 h -3.98437 v -0.78125 l 4.35937,-5.98438 h 0.84375 v 5.84375 h 1.54689 z m -5.87501,-0.92188 h 3.10937 v -4.32812 z"
       fill-rule="nonzero"
       id="path431" />
  </g>
</svg>
