<?xml version="1.0" encoding="UTF-8" standalone="no"?>
<svg
   version="1.1"
   viewBox="0 0 466.60629 206.92126"
   fill="none"
   stroke="none"
   stroke-linecap="square"
   stroke-miterlimit="10"
   id="svg469"
   sodipodi:docname="cpu-hazard-control-exception.svg"
   width="466.60629"
   height="206.92126"
   inkscape:version="1.1.2 (b8e25be8, 2022-02-05)"
   xmlns:inkscape="http://www.inkscape.org/namespaces/inkscape"
   xmlns:sodipodi="http://sodipodi.sourceforge.net/DTD/sodipodi-0.dtd"
   xmlns="http://www.w3.org/2000/svg"
   xmlns:svg="http://www.w3.org/2000/svg">
  <defs
     id="defs473" />
  <sodipodi:namedview
     id="namedview471"
     pagecolor="#ffffff"
     bordercolor="#666666"
     borderopacity="1.0"
     inkscape:pageshadow="2"
     inkscape:pageopacity="0.0"
     inkscape:pagecheckerboard="0"
     showgrid="false"
     inkscape:zoom="1.05"
     inkscape:cx="440.47619"
     inkscape:cy="-20.47619"
     inkscape:window-width="1296"
     inkscape:window-height="789"
     inkscape:window-x="0"
     inkscape:window-y="25"
     inkscape:window-maximized="0"
     inkscape:current-layer="g467" />
  <clipPath
     id="g2ff68212256_0_0.0">
    <path
       d="M 0,0 H 960 V 540 H 0 Z"
       clip-rule="nonzero"
       id="path2" />
  </clipPath>
  <g
     clip-path="url(#g2ff68212256_0_0.0)"
     id="g467"
     transform="translate(-39.490814,-290.7021)">
    <path
       fill="#000000"
       fill-opacity="0"
       d="M 39.990814,291.2021 H 505.59711 V 497.12336 H 39.990814 Z"
       fill-rule="evenodd"
       id="path221" />
    <path
       fill="#d9d9d9"
       d="m 82.4725,295.3957 h 52.7874 v 26.64566 H 82.4725 Z"
       fill-rule="evenodd"
       id="path225" />
    <path
       stroke="#000000"
       stroke-width="1"
       stroke-linejoin="round"
       stroke-linecap="butt"
       d="m 82.4725,295.3957 h 52.7874 v 26.64566 H 82.4725 Z"
       fill-rule="evenodd"
       id="path227" />
    <path
       fill="#000000"
       d="m 104.93732,304.53165 v -0.65625 h 7.96875 l 0.10938,2.82813 h -0.90625 l -0.35938,-2.03125 h -3.75 q -0.0156,1.03125 -0.0312,2.0625 0,1.01562 0,2 h 2.46875 l 0.23438,-1.51563 h 0.73437 v 3.9375 h -0.73437 l -0.23438,-1.67187 h -2.46875 q 0,1.1875 0,2.23437 0.0156,1.03125 0.0312,2.03125 l 1.48438,0.17188 v 0.65625 h -4.54688 v -0.65625 l 1.46875,-0.17188 q 0.0312,-1.01562 0.0312,-2.04687 0,-1.04688 0,-2.07813 v -0.79687 q 0,-1.03125 0,-2.0625 0,-1.03125 -0.0312,-2.0625 z"
       fill-rule="nonzero"
       id="path229" />
    <path
       fill="#d9d9d9"
       d="m 164.43645,295.397 h 52.7874 v 26.64569 h -52.7874 z"
       fill-rule="evenodd"
       id="path231" />
    <path
       stroke="#000000"
       stroke-width="1"
       stroke-linejoin="round"
       stroke-linecap="butt"
       d="m 164.43645,295.397 h 52.7874 v 26.64569 h -52.7874 z"
       fill-rule="evenodd"
       id="path233" />
    <path
       fill="#000000"
       d="m 188.8845,309.42358 q 0,1.17188 0,2.26563 0.0156,1.07812 0.0312,2.14062 h 1.26562 q 1.84375,0 2.82813,-1.20312 1,-1.21875 1,-3.39063 0,-2.25 -0.98438,-3.4375 -0.96875,-1.1875 -2.70312,-1.1875 h -1.40625 q -0.0156,1.03125 -0.0312,2.09375 0,1.0625 0,2.125 z m -3.03125,-4.89062 v -0.65625 h 4.71875 q 1.53125,0 2.70312,0.625 1.17188,0.60937 1.82813,1.79687 0.65625,1.1875 0.65625,2.9375 0,1.73438 -0.71875,2.92188 -0.71875,1.1875 -1.96875,1.8125 -1.23438,0.60937 -2.79688,0.60937 h -4.42187 v -0.65625 l 1.46875,-0.17187 q 0.0312,-1.03125 0.0312,-2.09375 0,-1.0625 0,-2.23438 v -0.59375 q 0,-1.03125 0,-2.0625 0,-1.03125 -0.0312,-2.0625 z"
       fill-rule="nonzero"
       id="path235" />
    <path
       fill="#000000"
       fill-opacity="0"
       d="m 30.036356,330.98688 h 52.8189 v 20.7244 h -52.8189 z"
       fill-rule="evenodd"
       id="path237" />
    <path
       fill="#000000"
       d="m 51.926296,339.2497 0.140625,-2.84375 h 8.765625 l 0.125,2.84375 h -0.921875 l -0.359375,-2.04687 h -2.453125 q -0.01563,1.03125 -0.03125,2.07812 0,1.03125 0,2.07813 v 0.79687 q 0,1.01563 0,2.04688 0.01563,1.03125 0.03125,2.07812 l 1.640625,0.17188 v 0.65625 h -4.828125 v -0.65625 l 1.625,-0.17188 q 0.03125,-1.03125 0.03125,-2.0625 0,-1.03125 0,-2.0625 v -0.79687 q 0,-1.03125 0,-2.0625 0,-1.04688 -0.03125,-2.09375 h -2.453125 l -0.34375,2.04687 z"
       fill-rule="nonzero"
       id="path239" />
    <path
       fill="#f3f3f3"
       d="m 82.891685,330.98288 h 51.937005 v 20.72443 H 82.891685 Z"
       fill-rule="evenodd"
       id="path241" />
    <path
       stroke="#000000"
       stroke-width="1"
       stroke-linejoin="round"
       stroke-linecap="butt"
       d="m 82.891685,330.98288 h 51.937005 v 20.72443 H 82.891685 Z"
       fill-rule="evenodd"
       id="path243" />
    <path
       fill="#000000"
       d="m 103.11799,337.22195 v -0.60938 h 4.15625 v 0.60938 l -1.35937,0.15625 q -0.0156,0.92187 -0.0156,1.875 0,0.95312 0,1.90625 v 0.71875 q 0,0.9375 0,1.89062 0,0.9375 0.0156,1.89063 l 1.35937,0.17187 v 0.59375 h -4.15625 v -0.59375 l 1.35938,-0.17187 q 0.0156,-0.92188 0.0156,-1.875 0,-0.95313 0,-1.90625 v -0.71875 q 0,-0.95313 0,-1.89063 0,-0.95312 -0.0156,-1.89062 z m 6.04686,0.39062 3.01562,-0.76562 0.20313,0.14062 -0.0625,2.09375 v 4.25 q 0,0.54688 0,1.10938 0.0156,0.54687 0.0312,1.10937 l 2.07812,0.34375 v 0.53125 h -5.4375 v -0.53125 l 2.07813,-0.34375 q 0.0156,-0.5625 0.0156,-1.10937 0.0156,-0.5625 0.0156,-1.10938 v -5.28125 l -1.9375,0.17188 z"
       fill-rule="nonzero"
       id="path245" />
    <path
       fill="#000000"
       fill-opacity="0"
       d="m 217.22385,370.09988 29.25984,28.75592"
       fill-rule="evenodd"
       id="path247" />
    <path
       stroke="#000000"
       stroke-width="1"
       stroke-linejoin="round"
       stroke-linecap="butt"
       d="m 217.22383,370.0999 24.98053,24.55026"
       fill-rule="evenodd"
       id="path249" />
    <path
       fill="#000000"
       stroke="#000000"
       stroke-width="1"
       stroke-linecap="butt"
       d="m 241.04659,395.82822 4.39442,2.0029 -2.0789,-4.35898 z"
       fill-rule="evenodd"
       id="path251" />
    <path
       fill="#000000"
       fill-opacity="0"
       d="m 134.82869,341.3451 29.60629,28.75592"
       fill-rule="evenodd"
       id="path253" />
    <path
       stroke="#000000"
       stroke-width="1"
       stroke-linejoin="round"
       stroke-linecap="butt"
       d="m 134.82869,341.3451 25.30229,24.57556"
       fill-rule="evenodd"
       id="path255" />
    <path
       fill="#000000"
       stroke="#000000"
       stroke-width="1"
       stroke-linecap="butt"
       d="m 158.98018,367.10547 4.40614,1.97699 -2.10452,-4.34668 z"
       fill-rule="evenodd"
       id="path257" />
    <path
       fill="#000000"
       fill-opacity="0"
       d="m 299.18777,398.85043 29.25986,28.75592"
       fill-rule="evenodd"
       id="path259" />
    <path
       stroke="#000000"
       stroke-width="1"
       stroke-linejoin="round"
       stroke-linecap="butt"
       d="m 299.18777,398.85043 24.98053,24.55029"
       fill-rule="evenodd"
       id="path261" />
    <path
       fill="#000000"
       stroke="#000000"
       stroke-width="1"
       stroke-linecap="butt"
       d="m 323.01053,424.57877 4.39444,2.00287 -2.07892,-4.35898 z"
       fill-rule="evenodd"
       id="path263" />
    <path
       fill="#000000"
       fill-opacity="0"
       d="m 164.19844,461.1593 h 52.81889 v 38.26773 h -52.81889 z"
       fill-rule="evenodd"
       id="path265" />
    <path
       fill="#000000"
       d="m 185.40402,491.25192 q -0.51563,0 -0.875,-0.35938 -0.34375,-0.35937 -0.34375,-0.85937 0,-0.53125 0.34375,-0.89063 0.35937,-0.35937 0.875,-0.35937 0.53125,0 0.875,0.35937 0.35937,0.35938 0.35937,0.89063 0,0.5 -0.35937,0.85937 -0.34375,0.35938 -0.875,0.35938 z m 5.20312,0 q -0.51562,0 -0.875,-0.35938 -0.34375,-0.35937 -0.34375,-0.85937 0,-0.53125 0.34375,-0.89063 0.35938,-0.35937 0.875,-0.35937 0.53125,0 0.875,0.35937 0.35938,0.35938 0.35938,0.89063 0,0.5 -0.35938,0.85937 -0.34375,0.35938 -0.875,0.35938 z m 5.1875,0 q -0.51562,0 -0.875,-0.35938 -0.34375,-0.35937 -0.34375,-0.85937 0,-0.53125 0.34375,-0.89063 0.35938,-0.35937 0.875,-0.35937 0.53125,0 0.875,0.35937 0.35938,0.35938 0.35938,0.89063 0,0.5 -0.35938,0.85937 -0.34375,0.35938 -0.875,0.35938 z"
       fill-rule="nonzero"
       id="path267" />
    <path
       fill="#000000"
       fill-opacity="0"
       d="m 30.036356,359.73752 h 52.8189 v 20.72443 h -52.8189 z"
       fill-rule="evenodd"
       id="path269" />
    <path
       fill="#000000"
       d="m 43.67828,368.00037 0.140625,-2.84375 h 8.765625 l 0.125,2.84375 h -0.921875 l -0.359375,-2.04688 h -2.453125 q -0.01563,1.03125 -0.03125,2.07813 0,1.03125 0,2.07812 v 0.79688 q 0,1.01562 0,2.04687 0.01563,1.03125 0.03125,2.07813 l 1.640625,0.17187 v 0.65625 h -4.828125 v -0.65625 l 1.625,-0.17187 q 0.03125,-1.03125 0.03125,-2.0625 0,-1.03125 0,-2.0625 v -0.79688 q 0,-1.03125 0,-2.0625 0,-1.04687 -0.03125,-2.09375 H 44.95953 l -0.34375,2.04688 z m 13.117142,6.625 v -3.57813 h -3.296875 v -0.92187 h 3.296875 v -3.5 h 0.96875 v 3.5 h 3.296875 v 0.92187 h -3.296875 v 3.57813 z m 6.089764,-8.375 3.296875,-0.85938 0.21875,0.17188 -0.0625,2.28125 v 4.64062 q 0,0.59375 0,1.20313 0.01563,0.60937 0.03125,1.21875 l 2.28125,0.375 v 0.57812 h -5.9375 v -0.57812 l 2.25,-0.375 q 0.01563,-0.60938 0.01563,-1.21875 0.01563,-0.60938 0.01563,-1.20313 v -5.76562 l -2.109375,0.1875 z"
       fill-rule="nonzero"
       id="path271" />
    <path
       fill="#f3f3f3"
       d="m 164.43645,359.7377 h 52.7874 v 20.7244 h -52.7874 z"
       fill-rule="evenodd"
       id="path273" />
    <path
       stroke="#000000"
       stroke-width="1"
       stroke-linejoin="round"
       stroke-linecap="butt"
       d="m 164.43645,359.7377 h 52.7874 v 20.7244 h -52.7874 z"
       fill-rule="evenodd"
       id="path275" />
    <path
       fill="#000000"
       d="m 185.08795,365.97678 v -0.60937 h 4.15625 v 0.60937 l -1.35938,0.15625 q -0.0156,0.92188 -0.0156,1.875 0,0.95313 0,1.90625 v 0.71875 q 0,0.9375 0,1.89063 0,0.9375 0.0156,1.89062 l 1.35938,0.17188 v 0.59375 h -4.15625 v -0.59375 l 1.35937,-0.17188 q 0.0156,-0.92187 0.0156,-1.875 0,-0.95312 0,-1.90625 v -0.71875 q 0,-0.95312 0,-1.89062 0,-0.95313 -0.0156,-1.89063 z m 6.04686,0.39063 3.01562,-0.76563 0.20313,0.14063 -0.0625,2.09375 v 4.25 q 0,0.54687 0,1.10937 0.0156,0.54688 0.0312,1.10938 l 2.07812,0.34375 v 0.53125 h -5.4375 v -0.53125 l 2.07813,-0.34375 q 0.0156,-0.5625 0.0156,-1.10938 0.0156,-0.5625 0.0156,-1.10937 v -5.28125 l -1.9375,0.17187 z"
       fill-rule="nonzero"
       id="path277" />
    <path
       fill="#d9d9d9"
       d="m 246.40039,295.3957 h 52.78738 v 26.64566 h -52.78738 z"
       fill-rule="evenodd"
       id="path279" />
    <path
       stroke="#000000"
       stroke-width="1"
       stroke-linejoin="round"
       stroke-linecap="butt"
       d="m 246.40039,295.3957 h 52.78738 v 26.64566 h -52.78738 z"
       fill-rule="evenodd"
       id="path281" />
    <path
       fill="#000000"
       d="m 268.6732,304.53165 v -0.65625 h 7.96875 l 0.10937,2.82813 h -0.90625 l -0.35937,-2.03125 h -3.75 q -0.0156,1.03125 -0.0312,2.0625 0,1.01562 0,2 h 2.34375 l 0.21875,-1.51563 h 0.75 v 3.78125 h -0.75 l -0.20313,-1.51562 h -2.35937 q 0,1.20312 0,2.25 0.0156,1.04687 0.0312,2.04687 h 4.07812 l 0.34375,-2.04687 h 0.92188 l -0.125,2.84375 h -8.28125 v -0.65625 l 1.46875,-0.17188 q 0.0312,-1.01562 0.0312,-2.04687 0,-1.04688 0,-2.07813 v -0.79687 q 0,-1.03125 0,-2.0625 0,-1.03125 -0.0312,-2.0625 z"
       fill-rule="nonzero"
       id="path283" />
    <path
       fill="#d9d9d9"
       d="m 328.36432,295.397 h 52.78742 v 26.64569 h -52.78742 z"
       fill-rule="evenodd"
       id="path285" />
    <path
       stroke="#000000"
       stroke-width="1"
       stroke-linejoin="round"
       stroke-linecap="butt"
       d="m 328.36432,295.397 h 52.78742 v 26.64569 h -52.78742 z"
       fill-rule="evenodd"
       id="path287" />
    <path
       fill="#000000"
       d="m 348.16702,314.57983 v -0.65625 l 1.4375,-0.20312 v -9.01563 l -1.4375,-0.17187 v -0.65625 h 2.95312 l 3.59375,8.79687 3.39063,-8.79687 h 3.15625 v 0.65625 l -1.48438,0.17187 q -0.0156,1.01563 -0.0312,2.0625 0,1.03125 0,2.0625 v 0.79688 q 0,1.01562 0,2.04687 0.0156,1.03125 0.0312,2.07813 l 1.48438,0.17187 v 0.65625 h -4.35938 v -0.65625 l 1.34375,-0.17187 q 0.0312,-1.01563 0.0312,-2.04688 0,-1.04687 0,-2.0625 v -3.98437 l -3.46875,8.92187 h -0.79687 l -3.67188,-8.92187 0.0937,3.01562 v 5.04688 l 1.3125,0.20312 v 0.65625 z"
       fill-rule="nonzero"
       id="path289" />
    <path
       fill="#d9d9d9"
       d="m 410.32828,295.397 h 52.78738 v 26.64569 h -52.78738 z"
       fill-rule="evenodd"
       id="path291" />
    <path
       stroke="#000000"
       stroke-width="1"
       stroke-linejoin="round"
       stroke-linecap="butt"
       d="m 410.32828,295.397 h 52.78738 v 26.64569 h -52.78738 z"
       fill-rule="evenodd"
       id="path293" />
    <path
       fill="#000000"
       d="m 440.6353,304.53296 v -0.65625 h 3.64062 v 0.65625 l -1.34375,0.1875 -2.70312,9.96875 h -0.6875 l -2.76563,-8.28125 -2.60937,8.28125 h -0.6875 l -2.89063,-10 -1.32812,-0.15625 v -0.65625 h 4.35937 v 0.65625 l -1.46875,0.17187 1.96875,7.34375 2.42188,-7.32812 -1.59375,-0.1875 v -0.65625 h 4.34375 v 0.65625 l -1.60938,0.1875 2.39063,7.40625 2.03125,-7.39063 z"
       fill-rule="nonzero"
       id="path295" />
    <path
       fill="#f3f3f3"
       d="m 246.49487,388.48822 h 52.6929 v 20.72443 h -52.6929 z"
       fill-rule="evenodd"
       id="path297" />
    <path
       stroke="#000000"
       stroke-width="1"
       stroke-linejoin="round"
       stroke-linecap="butt"
       d="m 246.49487,388.48822 h 52.6929 v 20.72443 h -52.6929 z"
       fill-rule="evenodd"
       id="path299" />
    <path
       fill="#000000"
       d="m 267.09912,394.72733 v -0.60938 h 4.15625 v 0.60938 l -1.35937,0.15625 q -0.0156,0.92187 -0.0156,1.875 0,0.95312 0,1.90625 v 0.71875 q 0,0.9375 0,1.89062 0,0.9375 0.0156,1.89063 l 1.35937,0.17187 v 0.59375 h -4.15625 v -0.59375 l 1.35938,-0.17187 q 0.0156,-0.92188 0.0156,-1.875 0,-0.95313 0,-1.90625 v -0.71875 q 0,-0.95313 0,-1.89063 0,-0.95312 -0.0156,-1.89062 z m 6.04688,0.39062 3.01562,-0.76562 0.20313,0.14062 -0.0625,2.09375 v 4.25 q 0,0.54688 0,1.10938 0.0156,0.54687 0.0312,1.10937 l 2.07812,0.34375 v 0.53125 h -5.4375 v -0.53125 l 2.07813,-0.34375 q 0.0156,-0.5625 0.0156,-1.10937 0.0156,-0.5625 0.0156,-1.10938 v -5.28125 l -1.9375,0.17188 z"
       fill-rule="nonzero"
       id="path301" />
    <path
       fill="#000000"
       fill-opacity="0"
       d="m 30.036356,388.4882 h 52.8189 v 20.7244 h -52.8189 z"
       fill-rule="evenodd"
       id="path303" />
    <path
       fill="#000000"
       d="m 43.67828,396.751 0.140625,-2.84375 h 8.765625 l 0.125,2.84375 h -0.921875 l -0.359375,-2.04688 h -2.453125 q -0.01563,1.03125 -0.03125,2.07813 0,1.03125 0,2.07812 v 0.79688 q 0,1.01562 0,2.04687 0.01563,1.03125 0.03125,2.07813 l 1.640625,0.17187 v 0.65625 h -4.828125 v -0.65625 l 1.625,-0.17187 q 0.03125,-1.03125 0.03125,-2.0625 0,-1.03125 0,-2.0625 v -0.79688 q 0,-1.03125 0,-2.0625 0,-1.04687 -0.03125,-2.09375 H 44.95953 l -0.34375,2.04688 z m 13.117142,6.625 v -3.57813 H 53.498547 V 398.876 h 3.296875 v -3.5 h 0.96875 v 3.5 h 3.296875 v 0.92187 h -3.296875 v 3.57813 z m 5.511639,1.23437 v -1.04687 q 0.640625,-0.60938 1.234375,-1.21875 0.609375,-0.625 1.125,-1.17188 1.203125,-1.26562 1.75,-2.28125 0.5625,-1.03125 0.5625,-1.96875 0,-0.98437 -0.515625,-1.5625 -0.515625,-0.57812 -1.40625,-0.57812 -0.15625,0 -0.359375,0.0156 -0.1875,0.0156 -0.421875,0.0625 l -0.296875,1.10938 q -0.15625,0.59375 -0.375,0.84375 -0.21875,0.25 -0.5625,0.25 -0.515625,0 -0.8125,-0.51563 0.09375,-0.84375 0.5625,-1.39062 0.46875,-0.5625 1.171875,-0.82813 0.703125,-0.26562 1.5,-0.26562 1.546875,0 2.25,0.76562 0.71875,0.75 0.71875,1.95313 0,0.70312 -0.28125,1.375 -0.28125,0.65625 -0.96875,1.48437 -0.6875,0.82813 -1.921875,2.01563 -0.328125,0.3125 -0.78125,0.75 -0.453125,0.42187 -0.953125,0.89062 h 5.359375 v 1.3125 z"
       fill-rule="nonzero"
       id="path305" />
    <path
       fill="#000000"
       fill-opacity="0"
       d="m 135.2599,308.71854 h 29.16536"
       fill-rule="evenodd"
       id="path307" />
    <path
       stroke="#000000"
       stroke-width="1"
       stroke-linejoin="round"
       stroke-linecap="butt"
       d="m 135.2599,308.71854 h 23.16536"
       fill-rule="evenodd"
       id="path309" />
    <path
       fill="#000000"
       stroke="#000000"
       stroke-width="1"
       stroke-linecap="butt"
       d="m 158.42526,310.37027 4.5381,-1.65173 -4.5381,-1.65174 z"
       fill-rule="evenodd"
       id="path311" />
    <path
       fill="#000000"
       fill-opacity="0"
       d="m 217.22385,308.71985 h 29.16536"
       fill-rule="evenodd"
       id="path313" />
    <path
       stroke="#000000"
       stroke-width="1"
       stroke-linejoin="round"
       stroke-linecap="butt"
       d="m 217.22383,308.71985 h 23.16536"
       fill-rule="evenodd"
       id="path315" />
    <path
       fill="#000000"
       stroke="#000000"
       stroke-width="1"
       stroke-linecap="butt"
       d="m 240.38919,310.37158 4.5381,-1.65173 -4.5381,-1.65174 z"
       fill-rule="evenodd"
       id="path317" />
    <path
       fill="#000000"
       fill-opacity="0"
       d="m 299.18777,308.71854 h 29.16537"
       fill-rule="evenodd"
       id="path319" />
    <path
       stroke="#000000"
       stroke-width="1"
       stroke-linejoin="round"
       stroke-linecap="butt"
       d="m 299.18777,308.71854 h 23.16537"
       fill-rule="evenodd"
       id="path321" />
    <path
       fill="#000000"
       stroke="#000000"
       stroke-width="1"
       stroke-linecap="butt"
       d="m 322.35315,310.37027 4.53809,-1.65173 -4.53809,-1.65174 z"
       fill-rule="evenodd"
       id="path323" />
    <path
       fill="#000000"
       fill-opacity="0"
       d="m 381.15173,308.71985 h 29.16534"
       fill-rule="evenodd"
       id="path325" />
    <path
       stroke="#000000"
       stroke-width="1"
       stroke-linejoin="round"
       stroke-linecap="butt"
       d="M 381.15173,308.71985 H 404.3171"
       fill-rule="evenodd"
       id="path327" />
    <path
       fill="#000000"
       stroke="#000000"
       stroke-width="1"
       stroke-linecap="butt"
       d="m 404.3171,310.37158 4.53809,-1.65173 -4.53809,-1.65174 z"
       fill-rule="evenodd"
       id="path329" />
    <path
       fill="#f3f3f3"
       d="m 328.4588,417.2389 h 52.69293 v 20.7244 H 328.4588 Z"
       fill-rule="evenodd"
       id="path331" />
    <path
       stroke="#000000"
       stroke-width="1"
       stroke-linejoin="round"
       stroke-linecap="butt"
       d="m 328.4588,417.2389 h 52.69293 v 20.7244 H 328.4588 Z"
       fill-rule="evenodd"
       id="path333" />
    <path
       fill="#000000"
       d="m 349.06308,423.47797 v -0.60937 h 4.15625 v 0.60937 l -1.35937,0.15625 q -0.0156,0.92188 -0.0156,1.875 0,0.95313 0,1.90625 v 0.71875 q 0,0.9375 0,1.89063 0,0.9375 0.0156,1.89062 l 1.35937,0.17188 v 0.59375 h -4.15625 v -0.59375 l 1.35938,-0.17188 q 0.0156,-0.92187 0.0156,-1.875 0,-0.95312 0,-1.90625 v -0.71875 q 0,-0.95312 0,-1.89062 0,-0.95313 -0.0156,-1.89063 z m 6.04684,0.39063 3.01563,-0.76563 0.20312,0.14063 -0.0625,2.09375 v 4.25 q 0,0.54687 0,1.10937 0.0156,0.54688 0.0312,1.10938 l 2.07813,0.34375 v 0.53125 h -5.4375 v -0.53125 l 2.07812,-0.34375 q 0.0156,-0.5625 0.0156,-1.10938 0.0156,-0.5625 0.0156,-1.10937 v -5.28125 l -1.9375,0.17187 z"
       fill-rule="nonzero"
       id="path335" />
    <path
       fill="#000000"
       fill-opacity="0"
       d="m 30.036356,417.23886 h 52.8189 v 20.7244 h -52.8189 z"
       fill-rule="evenodd"
       id="path337" />
    <path
       fill="#000000"
       d="m 43.67828,425.50168 0.140625,-2.84375 h 8.765625 l 0.125,2.84375 h -0.921875 l -0.359375,-2.04687 h -2.453125 q -0.01563,1.03125 -0.03125,2.07812 0,1.03125 0,2.07813 v 0.79687 q 0,1.01563 0,2.04688 0.01563,1.03125 0.03125,2.07812 l 1.640625,0.17188 v 0.65625 h -4.828125 v -0.65625 l 1.625,-0.17188 q 0.03125,-1.03125 0.03125,-2.0625 0,-1.03125 0,-2.0625 v -0.79687 q 0,-1.03125 0,-2.0625 0,-1.04688 -0.03125,-2.09375 H 44.95953 l -0.34375,2.04687 z m 13.117142,6.625 v -3.57812 h -3.296875 v -0.92188 h 3.296875 v -3.5 h 0.96875 v 3.5 h 3.296875 v 0.92188 h -3.296875 v 3.57812 z m 7.449139,-4.60937 h 0.640625 q 1.078125,0 1.671875,-0.54688 0.609375,-0.5625 0.609375,-1.59375 0,-0.875 -0.5,-1.35937 -0.5,-0.48438 -1.453125,-0.48438 -0.15625,0 -0.328125,0.0156 -0.171875,0.0156 -0.40625,0.0469 l -0.203125,0.8125 q -0.125,0.48438 -0.328125,0.73438 -0.1875,0.25 -0.59375,0.25 -0.265625,0 -0.46875,-0.125 -0.203125,-0.125 -0.3125,-0.4375 0.21875,-1 1.015625,-1.5 0.796875,-0.51563 1.90625,-0.51563 1.40625,0 2.234375,0.70313 0.828125,0.6875 0.828125,1.8125 0,0.85937 -0.546875,1.54687 -0.546875,0.67188 -1.546875,1.03125 1.234375,0.23438 1.828125,0.92188 0.59375,0.6875 0.59375,1.6875 0,0.85937 -0.453125,1.54687 -0.4375,0.6875 -1.25,1.09375 -0.796875,0.40625 -1.890625,0.40625 -1.15625,0 -2,-0.53125 -0.84375,-0.53125 -1.0625,-1.73437 0.265625,-0.53125 0.8125,-0.53125 0.421875,0 0.59375,0.28125 0.1875,0.26562 0.359375,0.875 l 0.203125,0.82812 q 0.265625,0.0625 0.484375,0.0781 0.234375,0.0156 0.40625,0.0156 1.1875,0 1.78125,-0.60937 0.59375,-0.625 0.59375,-1.6875 0,-1.04688 -0.609375,-1.64063 -0.609375,-0.59375 -1.84375,-0.59375 h -0.765625 z"
       fill-rule="nonzero"
       id="path339" />
    <path
       fill="#000000"
       fill-opacity="0"
       d="m 30.036356,445.9895 h 52.8189 v 20.7244 h -52.8189 z"
       fill-rule="evenodd"
       id="path341" />
    <path
       fill="#000000"
       d="m 43.67828,454.25232 0.140625,-2.84375 h 8.765625 l 0.125,2.84375 h -0.921875 l -0.359375,-2.04688 h -2.453125 q -0.01563,1.03125 -0.03125,2.07813 0,1.03125 0,2.07812 v 0.79688 q 0,1.01562 0,2.04687 0.01563,1.03125 0.03125,2.07813 l 1.640625,0.17187 v 0.65625 h -4.828125 v -0.65625 l 1.625,-0.17187 q 0.03125,-1.03125 0.03125,-2.0625 0,-1.03125 0,-2.0625 v -0.79688 q 0,-1.03125 0,-2.0625 0,-1.04687 -0.03125,-2.09375 H 44.95953 l -0.34375,2.04688 z m 13.117142,6.625 v -3.57813 h -3.296875 v -0.92187 h 3.296875 v -3.5 h 0.96875 v 3.5 h 3.296875 v 0.92187 h -3.296875 v 3.57813 z m 12.480389,-1.85938 h -1.6875 v 3.09375 h -1.328125 v -3.09375 H 61.91644 v -0.84375 l 4.749996,-6.54687 h 0.921875 v 6.39062 h 1.6875 z m -6.40625,-1 h 3.390625 v -4.71875 z"
       fill-rule="nonzero"
       id="path343" />
    <path
       fill="#f3f3f3"
       d="m 410.42276,445.98953 h 52.6929 v 20.72443 h -52.6929 z"
       fill-rule="evenodd"
       id="path345" />
    <path
       stroke="#000000"
       stroke-width="1"
       stroke-linejoin="round"
       stroke-linecap="butt"
       d="m 410.42276,445.98953 h 52.6929 v 20.72443 h -52.6929 z"
       fill-rule="evenodd"
       id="path347" />
    <path
       fill="#000000"
       d="m 431.027,452.22864 v -0.60938 h 4.15625 v 0.60938 l -1.35938,0.15625 q -0.0156,0.92187 -0.0156,1.875 0,0.95312 0,1.90625 v 0.71875 q 0,0.9375 0,1.89062 0,0.9375 0.0156,1.89063 l 1.35938,0.17187 v 0.59375 H 431.027 v -0.59375 l 1.35937,-0.17187 q 0.0156,-0.92188 0.0156,-1.875 0,-0.95313 0,-1.90625 v -0.71875 q 0,-0.95313 0,-1.89063 0,-0.95312 -0.0156,-1.89062 z m 6.04687,0.39062 3.01563,-0.76562 0.20312,0.14062 -0.0625,2.09375 v 4.25 q 0,0.54688 0,1.10938 0.0156,0.54687 0.0312,1.10937 l 2.07813,0.34375 v 0.53125 h -5.4375 v -0.53125 l 2.07812,-0.34375 q 0.0156,-0.5625 0.0156,-1.10937 0.0156,-0.5625 0.0156,-1.10938 v -5.28125 l -1.9375,0.17188 z"
       fill-rule="nonzero"
       id="path349" />
    <path
       fill="#000000"
       fill-opacity="0"
       d="m 381.15173,427.6011 29.25983,28.75589"
       fill-rule="evenodd"
       id="path351" />
    <path
       stroke="#000000"
       stroke-width="1"
       stroke-linejoin="round"
       stroke-linecap="butt"
       d="m 381.15173,427.6011 24.98053,24.55026"
       fill-rule="evenodd"
       id="path353" />
    <path
       fill="#000000"
       stroke="#000000"
       stroke-width="1"
       stroke-linecap="butt"
       d="m 404.9745,453.3294 4.39444,2.0029 -2.07892,-4.35898 z"
       fill-rule="evenodd"
       id="path355" />
    <path
       fill="#f3f3f3"
       d="m 82.891685,359.7388 h 51.937005 v 20.7244 H 82.891685 Z"
       fill-rule="evenodd"
       id="path357" />
    <path
       stroke="#000000"
       stroke-width="1"
       stroke-linejoin="round"
       stroke-linecap="butt"
       d="m 82.891685,359.7388 h 51.937005 v 20.7244 H 82.891685 Z"
       fill-rule="evenodd"
       id="path359" />
    <path
       fill="#000000"
       d="m 103.11799,365.97787 v -0.60938 h 4.15625 v 0.60938 l -1.35937,0.15625 q -0.0156,0.92187 -0.0156,1.875 0,0.95312 0,1.90625 v 0.71875 q 0,0.9375 0,1.89062 0,0.9375 0.0156,1.89063 l 1.35937,0.17187 v 0.59375 h -4.15625 v -0.59375 l 1.35938,-0.17187 q 0.0156,-0.92188 0.0156,-1.875 0,-0.95313 0,-1.90625 v -0.71875 q 0,-0.95313 0,-1.89063 0,-0.95312 -0.0156,-1.89062 z m 5.51561,9.20312 v -0.95312 q 0.57812,-0.57813 1.125,-1.14063 0.54687,-0.5625 1.01562,-1.0625 1.10938,-1.15625 1.60938,-2.09375 0.51562,-0.9375 0.51562,-1.78125 0,-0.90625 -0.48437,-1.4375 -0.46875,-0.53125 -1.26563,-0.53125 -0.15625,0 -0.34375,0.0156 -0.17187,0.0156 -0.375,0.0625 l -0.28125,1 q -0.14062,0.54687 -0.34375,0.78125 -0.20312,0.21875 -0.5,0.21875 -0.48437,0 -0.75,-0.46875 0.0781,-0.76563 0.5,-1.26563 0.4375,-0.51562 1.07813,-0.75 0.64062,-0.25 1.375,-0.25 1.42187,0 2.0625,0.70313 0.65625,0.6875 0.65625,1.78125 0,0.65625 -0.26563,1.26562 -0.25,0.59375 -0.89062,1.35938 -0.625,0.75 -1.75,1.82812 -0.29688,0.29688 -0.71875,0.70313 -0.40625,0.39062 -0.85938,0.8125 h 4.90625 v 1.20312 z"
       fill-rule="nonzero"
       id="path361" />
    <path
       fill="#000000"
       fill-opacity="0"
       d="m 134.82869,370.101 29.60629,28.75589"
       fill-rule="evenodd"
       id="path363" />
    <path
       stroke="#000000"
       stroke-width="1"
       stroke-linejoin="round"
       stroke-linecap="butt"
       d="m 134.82869,370.101 25.30229,24.57553"
       fill-rule="evenodd"
       id="path365" />
    <path
       fill="#000000"
       stroke="#000000"
       stroke-width="1"
       stroke-linecap="butt"
       d="m 158.98018,395.8614 4.40614,1.97699 -2.10452,-4.34668 z"
       fill-rule="evenodd"
       id="path367" />
    <path
       fill="#f3f3f3"
       d="m 164.43645,388.4936 h 52.7874 v 20.72443 h -52.7874 z"
       fill-rule="evenodd"
       id="path369" />
    <path
       stroke="#000000"
       stroke-width="1"
       stroke-linejoin="round"
       stroke-linecap="butt"
       d="m 164.43645,388.4936 h 52.7874 v 20.72443 h -52.7874 z"
       fill-rule="evenodd"
       id="path371" />
    <path
       fill="#000000"
       d="m 185.08795,394.73267 v -0.60938 h 4.15625 v 0.60938 l -1.35938,0.15625 q -0.0156,0.92187 -0.0156,1.875 0,0.95312 0,1.90625 v 0.71875 q 0,0.9375 0,1.89062 0,0.9375 0.0156,1.89063 l 1.35938,0.17187 v 0.59375 h -4.15625 v -0.59375 l 1.35937,-0.17187 q 0.0156,-0.92188 0.0156,-1.875 0,-0.95313 0,-1.90625 v -0.71875 q 0,-0.95313 0,-1.89063 0,-0.95312 -0.0156,-1.89062 z m 5.51561,9.20312 v -0.95312 q 0.57812,-0.57813 1.125,-1.14063 0.54687,-0.5625 1.01562,-1.0625 1.10938,-1.15625 1.60938,-2.09375 0.51562,-0.9375 0.51562,-1.78125 0,-0.90625 -0.48437,-1.4375 -0.46875,-0.53125 -1.26563,-0.53125 -0.15625,0 -0.34375,0.0156 -0.17187,0.0156 -0.375,0.0625 l -0.28125,1 q -0.14062,0.54687 -0.34375,0.78125 -0.20312,0.21875 -0.5,0.21875 -0.48437,0 -0.75,-0.46875 0.0781,-0.76563 0.5,-1.26563 0.4375,-0.51562 1.07813,-0.75 0.64062,-0.25 1.375,-0.25 1.42187,0 2.0625,0.70313 0.65625,0.6875 0.65625,1.78125 0,0.65625 -0.26563,1.26562 -0.25,0.59375 -0.89062,1.35938 -0.625,0.75 -1.75,1.82812 -0.29688,0.29688 -0.71875,0.70313 -0.40625,0.39062 -0.85938,0.8125 h 4.90625 v 1.20312 z"
       fill-rule="nonzero"
       id="path373" />
    <path
       fill="#f3f3f3"
       d="m 164.43645,417.2389 h 52.7874 v 20.7244 h -52.7874 z"
       fill-rule="evenodd"
       id="path375" />
    <path
       stroke="#000000"
       stroke-width="1"
       stroke-linejoin="round"
       stroke-linecap="butt"
       d="m 164.43645,417.2389 h 52.7874 v 20.7244 h -52.7874 z"
       fill-rule="evenodd"
       id="path377" />
    <path
       fill="#000000"
       d="m 185.08795,423.47797 v -0.60937 h 4.15625 v 0.60937 l -1.35938,0.15625 q -0.0156,0.92188 -0.0156,1.875 0,0.95313 0,1.90625 v 0.71875 q 0,0.9375 0,1.89063 0,0.9375 0.0156,1.89062 l 1.35938,0.17188 v 0.59375 h -4.15625 v -0.59375 l 1.35937,-0.17188 q 0.0156,-0.92187 0.0156,-1.875 0,-0.95312 0,-1.90625 v -0.71875 q 0,-0.95312 0,-1.89062 0,-0.95313 -0.0156,-1.89063 z m 7.29686,3.85938 h 0.57812 q 1,0 1.54688,-0.51563 0.5625,-0.51562 0.5625,-1.45312 0,-0.8125 -0.46875,-1.25 -0.45313,-0.4375 -1.32813,-0.4375 -0.14062,0 -0.3125,0.0156 -0.15625,0.0156 -0.35937,0.0469 l -0.1875,0.73437 q -0.125,0.45313 -0.29688,0.6875 -0.17187,0.21875 -0.5625,0.21875 -0.23437,0 -0.42187,-0.10937 -0.1875,-0.125 -0.28125,-0.40625 0.20312,-0.92188 0.92187,-1.375 0.73438,-0.46875 1.75,-0.46875 1.29688,0 2.04688,0.64062 0.76562,0.625 0.76562,1.65625 0,0.79688 -0.51562,1.42188 -0.5,0.625 -1.40625,0.9375 1.14062,0.21875 1.67187,0.85937 0.54688,0.625 0.54688,1.53125 0,0.79688 -0.42188,1.42188 -0.40625,0.625 -1.14062,1 -0.71875,0.375 -1.71875,0.375 -1.07813,0 -1.84375,-0.48438 -0.76563,-0.5 -0.96875,-1.59375 0.25,-0.48437 0.75,-0.48437 0.375,0 0.54687,0.25 0.17188,0.25 0.3125,0.8125 l 0.1875,0.75 q 0.25,0.0625 0.45313,0.0781 0.20312,0.0156 0.375,0.0156 1.07812,0 1.60937,-0.5625 0.54688,-0.5625 0.54688,-1.54688 0,-0.95312 -0.5625,-1.48437 -0.54688,-0.54688 -1.67188,-0.54688 h -0.70312 z"
       fill-rule="nonzero"
       id="path379" />
    <path
       fill="#f3f3f3"
       d="m 82.891685,388.4936 h 51.937005 v 20.72443 H 82.891685 Z"
       fill-rule="evenodd"
       id="path381" />
    <path
       stroke="#000000"
       stroke-width="1"
       stroke-linejoin="round"
       stroke-linecap="butt"
       d="m 82.891685,388.4936 h 51.937005 v 20.72443 H 82.891685 Z"
       fill-rule="evenodd"
       id="path383" />
    <path
       fill="#000000"
       d="m 103.11799,394.73267 v -0.60938 h 4.15625 v 0.60938 l -1.35937,0.15625 q -0.0156,0.92187 -0.0156,1.875 0,0.95312 0,1.90625 v 0.71875 q 0,0.9375 0,1.89062 0,0.9375 0.0156,1.89063 l 1.35937,0.17187 v 0.59375 h -4.15625 v -0.59375 l 1.35938,-0.17187 q 0.0156,-0.92188 0.0156,-1.875 0,-0.95313 0,-1.90625 v -0.71875 q 0,-0.95313 0,-1.89063 0,-0.95312 -0.0156,-1.89062 z m 7.29686,3.85937 h 0.57812 q 1,0 1.54688,-0.51562 0.5625,-0.51563 0.5625,-1.45313 0,-0.8125 -0.46875,-1.25 -0.45313,-0.4375 -1.32813,-0.4375 -0.14062,0 -0.3125,0.0156 -0.15625,0.0156 -0.35937,0.0469 l -0.1875,0.73438 q -0.125,0.45312 -0.29688,0.6875 -0.17187,0.21875 -0.5625,0.21875 -0.23437,0 -0.42187,-0.10938 -0.1875,-0.125 -0.28125,-0.40625 0.20312,-0.92187 0.92187,-1.375 0.73438,-0.46875 1.75,-0.46875 1.29688,0 2.04688,0.64063 0.76562,0.625 0.76562,1.65625 0,0.79687 -0.51562,1.42187 -0.5,0.625 -1.40625,0.9375 1.14062,0.21875 1.67187,0.85938 0.54688,0.625 0.54688,1.53125 0,0.79687 -0.42188,1.42187 -0.40625,0.625 -1.14062,1 -0.71875,0.375 -1.71875,0.375 -1.07813,0 -1.84375,-0.48437 -0.76563,-0.5 -0.96875,-1.59375 0.25,-0.48438 0.75,-0.48438 0.375,0 0.54687,0.25 0.17188,0.25 0.3125,0.8125 l 0.1875,0.75 q 0.25,0.0625 0.45313,0.0781 0.20312,0.0156 0.375,0.0156 1.07812,0 1.60937,-0.5625 0.54688,-0.5625 0.54688,-1.54687 0,-0.95313 -0.5625,-1.48438 -0.54688,-0.54687 -1.67188,-0.54687 h -0.70312 z"
       fill-rule="nonzero"
       id="path385" />
    <path
       fill="#000000"
       fill-opacity="0"
       d="m 134.82869,398.8558 29.60629,28.75589"
       fill-rule="evenodd"
       id="path387" />
    <path
       stroke="#000000"
       stroke-width="1"
       stroke-linejoin="round"
       stroke-linecap="butt"
       d="m 134.82869,398.8558 25.30229,24.57553"
       fill-rule="evenodd"
       id="path389" />
    <path
       fill="#000000"
       stroke="#000000"
       stroke-width="1"
       stroke-linecap="butt"
       d="m 158.98018,424.61618 4.40614,1.97699 -2.10452,-4.34668 z"
       fill-rule="evenodd"
       id="path391" />
    <path
       fill="#f3f3f3"
       d="m 82.891685,417.2389 h 51.937005 v 20.7244 H 82.891685 Z"
       fill-rule="evenodd"
       id="path393" />
    <path
       stroke="#000000"
       stroke-width="1"
       stroke-linejoin="round"
       stroke-linecap="butt"
       d="m 82.891685,417.2389 h 51.937005 v 20.7244 H 82.891685 Z"
       fill-rule="evenodd"
       id="path395" />
    <path
       fill="#000000"
       d="m 103.11799,423.47797 v -0.60937 h 4.15625 v 0.60937 l -1.35937,0.15625 q -0.0156,0.92188 -0.0156,1.875 0,0.95313 0,1.90625 v 0.71875 q 0,0.9375 0,1.89063 0,0.9375 0.0156,1.89062 l 1.35937,0.17188 v 0.59375 h -4.15625 v -0.59375 l 1.35938,-0.17188 q 0.0156,-0.92187 0.0156,-1.875 0,-0.95312 0,-1.90625 v -0.71875 q 0,-0.95312 0,-1.89062 0,-0.95313 -0.0156,-1.89063 z m 11.89062,6.375 h -1.54689 v 2.82813 h -1.21875 v -2.82813 h -3.98437 v -0.78125 l 4.35937,-5.98437 h 0.84375 v 5.84375 h 1.54689 z m -5.87501,-0.92187 h 3.10937 v -4.32813 z"
       fill-rule="nonzero"
       id="path397" />
    <path
       fill="#000000"
       fill-opacity="0"
       d="m 217.22385,398.8558 29.22835,28.75589"
       fill-rule="evenodd"
       id="path399" />
    <path
       stroke="#000000"
       stroke-width="1"
       stroke-linejoin="round"
       stroke-linecap="butt"
       d="m 217.22383,398.8558 24.95128,24.54797"
       fill-rule="evenodd"
       id="path401" />
    <path
       fill="#000000"
       stroke="#000000"
       stroke-width="1"
       stroke-linecap="butt"
       d="m 241.01672,424.5812 4.39336,2.00525 -2.07657,-4.36011 z"
       fill-rule="evenodd"
       id="path403" />
    <path
       fill="#f3f3f3"
       d="m 82.891685,445.98428 h 51.937005 v 20.72443 H 82.891685 Z"
       fill-rule="evenodd"
       id="path405" />
    <path
       stroke="#000000"
       stroke-width="1"
       stroke-linejoin="round"
       stroke-linecap="butt"
       d="m 82.891685,445.98428 h 51.937005 v 20.72443 H 82.891685 Z"
       fill-rule="evenodd"
       id="path407" />
    <path
       fill="#000000"
       d="m 103.11799,452.22336 v -0.60937 h 4.15625 v 0.60937 l -1.35937,0.15625 q -0.0156,0.92188 -0.0156,1.875 0,0.95313 0,1.90625 v 0.71875 q 0,0.9375 0,1.89063 0,0.9375 0.0156,1.89062 l 1.35937,0.17188 v 0.59375 h -4.15625 v -0.59375 l 1.35938,-0.17188 q 0.0156,-0.92187 0.0156,-1.875 0,-0.95312 0,-1.90625 v -0.71875 q 0,-0.95312 0,-1.89062 0,-0.95313 -0.0156,-1.89063 z m 11.49999,6.25 q 0,0.9375 -0.42188,1.65625 -0.42187,0.70313 -1.1875,1.09375 -0.76562,0.39063 -1.79687,0.39063 -2.28125,0 -2.75,-2.0625 0.20312,-0.5 0.75,-0.5 0.34375,0 0.51562,0.20312 0.1875,0.20313 0.34375,0.79688 l 0.20313,0.78125 q 0.21875,0.0625 0.42187,0.0937 0.21875,0.0312 0.40625,0.0312 1.09375,0 1.64063,-0.64063 0.5625,-0.64062 0.5625,-1.6875 0,-1.10937 -0.625,-1.6875 -0.60938,-0.57812 -1.65625,-0.57812 -0.64063,0 -1.35938,0.17187 l -0.40625,-0.125 0.3125,-4.45312 h 4.79688 v 1.20312 h -4.15625 l -0.17188,2.48438 q 0.65625,-0.17188 1.375,-0.17188 1.4375,0 2.3125,0.78125 0.89063,0.76563 0.89063,2.21875 z"
       fill-rule="nonzero"
       id="path409" />
    <path
       fill="#000000"
       fill-opacity="0"
       d="M 328.4588,427.6011 H 299.23047"
       fill-rule="evenodd"
       id="path411" />
    <path
       stroke="#980000"
       stroke-width="1"
       stroke-linejoin="round"
       stroke-linecap="butt"
       d="M 328.4588,427.6011 H 305.23047"
       fill-rule="evenodd"
       id="path413" />
    <path
       fill="#980000"
       stroke="#980000"
       stroke-width="1"
       stroke-linecap="butt"
       d="m 305.23047,425.94937 -4.53812,1.65173 4.53812,1.65174 z"
       fill-rule="evenodd"
       id="path415" />
    <path
       fill="#000000"
       fill-opacity="0"
       d="m 333.82864,382.2197 v 0 c 0,-2.12512 1.72275,-3.84787 3.84784,-3.84787 h 54.79251 c 1.02051,0 1.99921,0.4054 2.72082,1.12701 0.72162,0.72162 1.12702,1.70032 1.12702,2.72086 v 15.3909 c 0,2.12512 -1.72275,3.84784 -3.84784,3.84784 h -54.79251 c -2.12509,0 -3.84784,-1.72272 -3.84784,-3.84784 z"
       fill-rule="evenodd"
       id="path417" />
    <path
       stroke="#980000"
       stroke-width="1"
       stroke-linejoin="round"
       stroke-linecap="butt"
       stroke-dasharray="4, 3"
       d="m 333.82864,382.2197 v 0 c 0,-2.12512 1.72275,-3.84787 3.84784,-3.84787 h 54.79251 c 1.02051,0 1.99921,0.4054 2.72082,1.12701 0.72162,0.72162 1.12702,1.70032 1.12702,2.72086 v 15.3909 c 0,2.12512 -1.72275,3.84784 -3.84784,3.84784 h -54.79251 c -2.12509,0 -3.84784,-1.72272 -3.84784,-3.84784 z"
       fill-rule="evenodd"
       id="path419" />
    <path
       fill="#000000"
       d="m 345.43112,390.41827 q 0,0.98437 0,1.89062 0.0156,0.90625 0.0156,1.78125 h 1.0625 q 1.54687,0 2.375,-1 0.82812,-1.01562 0.82812,-2.82812 0,-1.875 -0.82812,-2.85938 -0.8125,-0.98437 -2.25,-0.98437 h -1.1875 q 0,0.84375 -0.0156,1.73437 0,0.89063 0,1.78125 z m -2.51562,-4.07813 v -0.54687 h 3.92187 q 1.28125,0 2.25,0.51562 0.98438,0.51563 1.53125,1.51563 0.54688,0.98437 0.54688,2.4375 0,1.4375 -0.60938,2.4375 -0.59375,0.98437 -1.625,1.5 -1.03125,0.51562 -2.34375,0.51562 h -3.67187 v -0.54687 l 1.21875,-0.14063 q 0.0312,-0.85937 0.0312,-1.73437 0,-0.89063 0,-1.875 v -0.48438 q 0,-0.875 0,-1.73437 0,-0.85938 -0.0312,-1.70313 z m 9.33792,8.375 v -0.48437 l 1,-0.1875 q 0.0156,-0.5 0.0156,-1.09375 0.0156,-0.59375 0.0156,-1.03125 v -0.625 q 0,-0.54688 -0.0156,-0.90625 0,-0.375 -0.0312,-0.78125 l -1.0625,-0.10938 v -0.46875 l 2.04688,-0.8125 0.20312,0.125 -0.0469,1.8125 v 1.76563 q 0,0.4375 0,1.03125 0.0156,0.59375 0.0312,1.09375 l 0.9375,0.1875 v 0.48437 z m 1.57812,-7.96875 q -0.375,0 -0.64062,-0.23437 -0.26563,-0.25 -0.26563,-0.625 0,-0.375 0.26563,-0.60938 0.26562,-0.23437 0.64062,-0.23437 0.35938,0 0.625,0.23437 0.26563,0.23438 0.26563,0.60938 0,0.375 -0.26563,0.625 -0.26562,0.23437 -0.625,0.23437 z m 4.59677,8.14063 q -0.5625,0 -1.03125,-0.125 -0.46875,-0.125 -0.95312,-0.375 l -0.0625,-1.46875 h 0.73437 l 0.25,1.15625 q 0.46875,0.21875 1.07813,0.21875 0.76562,0 1.125,-0.28125 0.375,-0.28125 0.375,-0.73438 0,-0.42187 -0.3125,-0.6875 -0.29688,-0.26562 -0.92188,-0.46875 l -0.625,-0.23437 q -0.73437,-0.26563 -1.17187,-0.6875 -0.4375,-0.42188 -0.4375,-1.10938 0,-0.5 0.26562,-0.92187 0.26563,-0.42188 0.78125,-0.6875 0.53125,-0.26563 1.26563,-0.26563 0.54687,0 1,0.14063 0.45312,0.14062 0.875,0.40625 l -0.0625,1.35937 h -0.6875 l -0.21875,-1.07812 q -0.45313,-0.21875 -0.90625,-0.21875 -0.625,0 -0.9375,0.25 -0.3125,0.25 -0.3125,0.65625 0,0.4375 0.26562,0.67187 0.28125,0.21875 0.96875,0.46875 l 0.40625,0.15625 q 1,0.375 1.42188,0.85938 0.42187,0.46875 0.42187,1.09375 0,0.51562 -0.29687,0.95312 -0.29688,0.42188 -0.875,0.6875 -0.5625,0.26563 -1.42188,0.26563 z m 6.67502,0 q -1.375,0 -2.1875,-0.89063 -0.8125,-0.89062 -0.8125,-2.42187 0,-1.0625 0.42188,-1.8125 0.4375,-0.75 1.14062,-1.14063 0.71875,-0.40625 1.51563,-0.40625 0.59375,0 1.09375,0.23438 0.51562,0.21875 0.84375,0.60937 0.34375,0.39063 0.42187,0.89063 -0.0937,0.5 -0.60937,0.5 -0.34375,0 -0.51563,-0.17188 -0.15625,-0.1875 -0.21875,-0.46875 l -0.25,-0.875 q -0.1875,-0.0625 -0.375,-0.0781 -0.17187,-0.0312 -0.34375,-0.0312 -0.84375,0 -1.40625,0.67187 -0.54687,0.65625 -0.54687,1.9375 0,1.25 0.59375,1.92188 0.60937,0.67187 1.53125,0.67187 0.57812,0 1.04687,-0.26562 0.48438,-0.26563 0.79688,-0.75 l 0.32812,0.17187 q -0.28125,0.82813 -0.90625,1.26563 -0.625,0.4375 -1.5625,0.4375 z m 8.48846,-0.0312 q -0.48437,0 -0.8125,-0.28125 -0.3125,-0.28125 -0.39062,-0.75 -0.54688,0.53125 -0.96875,0.79687 -0.40625,0.26563 -0.98438,0.26563 -0.73437,0 -1.26562,-0.42188 -0.53125,-0.42187 -0.53125,-1.25 0,-0.375 0.17187,-0.70312 0.1875,-0.34375 0.67188,-0.65625 0.48437,-0.32813 1.375,-0.64063 0.3125,-0.10937 0.70312,-0.23437 0.40625,-0.125 0.79688,-0.20313 v -0.34375 q 0,-0.96875 -0.29688,-1.28125 -0.28125,-0.32812 -0.95312,-0.32812 -0.14063,0 -0.32813,0.0156 -0.17187,0.0156 -0.39062,0.0625 l -0.25,0.875 q -0.1875,0.625 -0.6875,0.625 -0.5625,0 -0.64063,-0.53125 0.1875,-0.76562 0.89063,-1.20312 0.70312,-0.45313 1.71875,-0.45313 1.04687,0 1.54687,0.53125 0.51563,0.51563 0.51563,1.78125 v 2.84375 q 0,0.42188 0.125,0.60938 0.14062,0.17187 0.35937,0.17187 0.17188,0 0.28125,-0.0781 0.125,-0.0781 0.23438,-0.21875 l 0.26562,0.29687 q -0.23437,0.39063 -0.53125,0.54688 -0.28125,0.15625 -0.625,0.15625 z m -3.76562,-1.82813 q 0,0.53125 0.3125,0.76563 0.3125,0.21875 0.76562,0.21875 0.1875,0 0.35938,-0.0469 0.1875,-0.0625 0.4375,-0.21875 0.26562,-0.15625 0.65625,-0.4375 v -2.04687 q -0.34375,0.0937 -0.67188,0.21875 -0.32812,0.10937 -0.54687,0.1875 -0.57813,0.21875 -0.85938,0.46875 -0.28125,0.23437 -0.375,0.46875 -0.0781,0.21875 -0.0781,0.42187 z m 5.4986,1.6875 v -0.48437 l 0.95312,-0.17188 q 0.0156,-0.5 0.0156,-1.09375 0.0156,-0.59375 0.0156,-1.04687 v -0.64063 q 0,-0.54687 -0.0156,-0.90625 0,-0.35937 -0.0312,-0.76562 l -1.04688,-0.10938 v -0.46875 l 1.85938,-0.8125 0.20312,0.125 0.15625,1.57813 q 0.32813,-0.79688 0.84375,-1.25 0.53125,-0.45313 1.0625,-0.45313 0.3125,0 0.57813,0.14063 0.26562,0.125 0.39062,0.34375 0,0.98437 -0.78125,0.98437 -0.23437,0 -0.4375,-0.0937 -0.20312,-0.0937 -0.39062,-0.25 l -0.15625,-0.14062 q -0.39063,0.29687 -0.65625,0.71875 -0.26563,0.42187 -0.45313,1 v 1 q 0,0.4375 0,1.03125 0.0156,0.57812 0.0312,1.07812 l 1.09375,0.20313 v 0.48437 z m 6.7388,-3.125 q 0,1.29688 0.53125,1.92188 0.53125,0.60937 1.32812,0.60937 0.4375,0 0.76563,-0.17187 0.34375,-0.1875 0.71875,-0.59375 v -3.6875 q -0.45313,-0.40625 -0.8125,-0.54688 -0.35938,-0.15625 -0.6875,-0.15625 -0.5,0 -0.92188,0.28125 -0.40625,0.26563 -0.67187,0.85938 -0.25,0.57812 -0.25,1.48437 z m 3.48437,3.26563 -0.0937,-0.92188 q -0.34375,0.45313 -0.79687,0.70313 -0.45313,0.25 -1.07813,0.25 -0.8125,0 -1.42187,-0.40625 -0.60938,-0.42188 -0.95313,-1.15625 -0.34375,-0.73438 -0.34375,-1.71875 0,-1.01563 0.375,-1.78125 0.375,-0.76563 1.01563,-1.1875 0.64062,-0.42188 1.45312,-0.42188 0.46875,0 0.89063,0.1875 0.4375,0.1875 0.85937,0.67188 v -3.01563 l -1.14062,-0.125 v -0.46875 l 2.07812,-0.59375 0.1875,0.0937 -0.0469,1.90625 v 7.20313 l 1.07812,0.15625 v 0.48437 z"
       fill-rule="nonzero"
       id="path421" />
    <path
       fill="#000000"
       fill-opacity="0"
       d="m 333.82864,389.91513 c -10.03149,0 -20.06299,18.48819 -20.06299,36.97638"
       fill-rule="evenodd"
       id="path423" />
    <path
       stroke="#980000"
       stroke-width="1"
       stroke-linejoin="round"
       stroke-linecap="butt"
       stroke-dasharray="4, 3"
       d="m 333.82864,389.91513 c -10.03149,0 -20.06299,18.48819 -20.06299,36.97638"
       fill-rule="evenodd"
       id="path425" />
    <path
       fill="#000000"
       fill-opacity="0"
       d="m 254.1685,457.85834 v 0 c 0,-2.12509 1.72275,-3.84784 3.84785,-3.84784 h 73.06021 c 1.02051,0 1.99924,0.4054 2.72083,1.12701 0.72162,0.72162 1.12701,1.70032 1.12701,2.72083 v 15.39093 c 0,2.12509 -1.72274,3.84784 -3.84784,3.84784 h -73.06021 c -2.1251,0 -3.84785,-1.72275 -3.84785,-3.84784 z"
       fill-rule="evenodd"
       id="path433" />
    <path
       stroke="#38761d"
       stroke-width="1"
       stroke-linejoin="round"
       stroke-linecap="butt"
       stroke-dasharray="4, 3"
       d="m 254.1685,457.85834 v 0 c 0,-2.12509 1.72275,-3.84784 3.84785,-3.84784 h 73.06021 c 1.02051,0 1.99924,0.4054 2.72083,1.12701 0.72162,0.72162 1.12701,1.70032 1.12701,2.72083 v 15.39093 c 0,2.12509 -1.72274,3.84784 -3.84784,3.84784 h -73.06021 c -2.1251,0 -3.84785,-1.72275 -3.84785,-3.84784 z"
       fill-rule="evenodd"
       id="path435" />
    <path
       fill="#000000"
       d="m 264.468,462.05692 h -1.15625 q 0,0.875 -0.0156,1.75 0,0.875 0,1.8125 h 1.01562 q 1.09375,0 1.59375,-0.51563 0.51563,-0.51562 0.51563,-1.32812 0,-0.82813 -0.46875,-1.26563 -0.46875,-0.45312 -1.48438,-0.45312 z m -3.6875,-0.0781 v -0.54687 h 3.71875 q 1.53125,0 2.39063,0.625 0.85937,0.60937 0.85937,1.71875 0,0.76562 -0.5625,1.40625 -0.5625,0.64062 -1.6875,0.84375 0.59375,0.10937 0.96875,0.51562 0.375,0.39063 0.60938,1.17188 l 0.57812,1.96875 1.01563,0.125 v 0.54687 q -0.1875,0.0469 -0.4375,0.0937 -0.25,0.0469 -0.5625,0.0469 -0.625,0 -0.9375,-0.1875 -0.3125,-0.1875 -0.42188,-0.67188 l -0.54687,-2.14062 q -0.10938,-0.54688 -0.34375,-0.8125 -0.21875,-0.26563 -0.57813,-0.35938 -0.34375,-0.0937 -0.89062,-0.0937 h -0.65625 q 0,0.95313 0,1.79688 0.0156,0.82812 0.0156,1.64062 l 1.23438,0.14063 v 0.54687 h -3.76563 v -0.54687 l 1.21875,-0.14063 q 0.0312,-0.84375 0.0312,-1.70312 0,-0.875 0,-1.73438 v -0.65625 q 0,-0.875 0,-1.73437 0,-0.85938 -0.0312,-1.70313 z m 11.52762,2.48438 q -0.35938,0 -0.75,0.21875 -0.375,0.20312 -0.65625,0.67187 -0.26563,0.46875 -0.34375,1.23438 h 2.42187 q 0.48438,0 0.625,-0.1875 0.15625,-0.20313 0.15625,-0.5 0,-0.39063 -0.1875,-0.70313 -0.1875,-0.32812 -0.51562,-0.53125 -0.32813,-0.20312 -0.75,-0.20312 z m 0,6.0625 q -1.35938,0 -2.17188,-0.875 -0.8125,-0.875 -0.8125,-2.40625 0,-1.01563 0.42188,-1.78125 0.42187,-0.76563 1.125,-1.1875 0.70312,-0.42188 1.53125,-0.42188 0.6875,0 1.25,0.3125 0.5625,0.29688 0.89062,0.85938 0.32813,0.5625 0.32813,1.39062 0,0.21875 -0.0312,0.42188 -0.0156,0.1875 -0.0625,0.3125 h -4.25 q 0.0312,1.23437 0.60937,1.875 0.59375,0.64062 1.54688,0.64062 0.64062,0 1.0625,-0.26562 0.4375,-0.26563 0.79687,-0.67188 l 0.3125,0.25 q -0.375,0.70313 -1.01562,1.125 -0.625,0.42188 -1.53125,0.42188 z m 5.01605,-3.29688 q 0,1.29688 0.53125,1.92188 0.53125,0.60937 1.32813,0.60937 0.4375,0 0.76562,-0.17187 0.34375,-0.1875 0.71875,-0.59375 v -3.6875 q -0.45312,-0.40625 -0.8125,-0.54688 -0.35937,-0.15625 -0.6875,-0.15625 -0.5,0 -0.92187,0.28125 -0.40625,0.26563 -0.67188,0.85938 -0.25,0.57812 -0.25,1.48437 z m 3.48438,3.26563 -0.0937,-0.92188 q -0.34375,0.45313 -0.79688,0.70313 -0.45312,0.25 -1.07812,0.25 -0.8125,0 -1.42188,-0.40625 -0.60937,-0.42188 -0.95312,-1.15625 -0.34375,-0.73438 -0.34375,-1.71875 0,-1.01563 0.375,-1.78125 0.375,-0.76563 1.01562,-1.1875 0.64063,-0.42188 1.45313,-0.42188 0.46875,0 0.89062,0.1875 0.4375,0.1875 0.85938,0.67188 v -3.01563 l -1.14063,-0.125 v -0.46875 l 2.07813,-0.59375 0.1875,0.0937 -0.0469,1.90625 v 7.20313 l 1.07813,0.15625 v 0.48437 z m 2.74453,-0.14063 v -0.48437 l 1,-0.1875 q 0.0156,-0.5 0.0156,-1.09375 0.0156,-0.59375 0.0156,-1.03125 v -0.625 q 0,-0.54688 -0.0156,-0.90625 0,-0.375 -0.0312,-0.78125 l -1.0625,-0.10938 v -0.46875 l 2.04687,-0.8125 0.20313,0.125 -0.0469,1.8125 v 1.76563 q 0,0.4375 0,1.03125 0.0156,0.59375 0.0312,1.09375 l 0.9375,0.1875 v 0.48437 z m 1.57813,-7.96875 q -0.375,0 -0.64063,-0.23437 -0.26562,-0.25 -0.26562,-0.625 0,-0.375 0.26562,-0.60938 0.26563,-0.23437 0.64063,-0.23437 0.35937,0 0.625,0.23437 0.26562,0.23438 0.26562,0.60938 0,0.375 -0.26562,0.625 -0.26563,0.23437 -0.625,0.23437 z m 2.48739,7.96875 v -0.48437 l 0.95313,-0.17188 q 0.0156,-0.5 0.0156,-1.09375 0.0156,-0.59375 0.0156,-1.04687 v -0.64063 q 0,-0.54687 -0.0156,-0.90625 0,-0.35937 -0.0312,-0.76562 l -1.04687,-0.10938 v -0.46875 l 1.85937,-0.8125 0.20313,0.125 0.15625,1.57813 q 0.32812,-0.79688 0.84375,-1.25 0.53125,-0.45313 1.0625,-0.45313 0.3125,0 0.57812,0.14063 0.26563,0.125 0.39063,0.34375 0,0.98437 -0.78125,0.98437 -0.23438,0 -0.4375,-0.0937 -0.20313,-0.0937 -0.39063,-0.25 l -0.15625,-0.14062 q -0.39062,0.29687 -0.65625,0.71875 -0.26562,0.42187 -0.45312,1 v 1 q 0,0.4375 0,1.03125 0.0156,0.57812 0.0312,1.07812 l 1.09375,0.20313 v 0.48437 z m 8.52005,-5.89062 q -0.35937,0 -0.75,0.21875 -0.375,0.20312 -0.65625,0.67187 -0.26562,0.46875 -0.34375,1.23438 h 2.42188 q 0.48437,0 0.625,-0.1875 0.15625,-0.20313 0.15625,-0.5 0,-0.39063 -0.1875,-0.70313 -0.1875,-0.32812 -0.51563,-0.53125 -0.32812,-0.20312 -0.75,-0.20312 z m 0,6.0625 q -1.35937,0 -2.17187,-0.875 -0.8125,-0.875 -0.8125,-2.40625 0,-1.01563 0.42187,-1.78125 0.42188,-0.76563 1.125,-1.1875 0.70313,-0.42188 1.53125,-0.42188 0.6875,0 1.25,0.3125 0.5625,0.29688 0.89063,0.85938 0.32812,0.5625 0.32812,1.39062 0,0.21875 -0.0312,0.42188 -0.0156,0.1875 -0.0625,0.3125 h -4.25 q 0.0312,1.23437 0.60938,1.875 0.59375,0.64062 1.54687,0.64062 0.64063,0 1.0625,-0.26562 0.4375,-0.26563 0.79688,-0.67188 l 0.3125,0.25 q -0.375,0.70313 -1.01563,1.125 -0.625,0.42188 -1.53125,0.42188 z m 6.78171,0 q -1.375,0 -2.1875,-0.89063 -0.8125,-0.89062 -0.8125,-2.42187 0,-1.0625 0.42188,-1.8125 0.4375,-0.75 1.14062,-1.14063 0.71875,-0.40625 1.51563,-0.40625 0.59375,0 1.09375,0.23438 0.51562,0.21875 0.84375,0.60937 0.34375,0.39063 0.42187,0.89063 -0.0937,0.5 -0.60937,0.5 -0.34375,0 -0.51563,-0.17188 -0.15625,-0.1875 -0.21875,-0.46875 l -0.25,-0.875 q -0.1875,-0.0625 -0.375,-0.0781 -0.17187,-0.0312 -0.34375,-0.0312 -0.84375,0 -1.40625,0.67187 -0.54687,0.65625 -0.54687,1.9375 0,1.25 0.59375,1.92188 0.60937,0.67187 1.53125,0.67187 0.57812,0 1.04687,-0.26562 0.48438,-0.26563 0.79688,-0.75 l 0.32812,0.17187 q -0.28125,0.82813 -0.90625,1.26563 -0.625,0.4375 -1.5625,0.4375 z m 5.67597,0 q -0.6875,0 -1.10938,-0.375 -0.40625,-0.375 -0.40625,-1.14063 0,-0.25 0,-0.5 0,-0.25 0,-0.64062 v -3.14063 h -1.09375 v -0.57812 l 1.1875,-0.15625 0.34375,-1.78125 h 0.79688 l -0.0781,1.8125 h 1.79688 v 0.70312 h -1.8125 v 4.125 q 0,0.51563 0.20312,0.75 0.20313,0.23438 0.53125,0.23438 0.21875,0 0.42188,-0.0937 0.21875,-0.0937 0.46875,-0.26563 l 0.32812,0.34375 q -0.54687,0.70313 -1.57812,0.70313 z m 3.59726,-4.84375 q -0.40625,0 -0.6875,-0.28125 -0.26563,-0.28125 -0.26563,-0.65625 0,-0.40625 0.26563,-0.6875 0.28125,-0.28125 0.6875,-0.28125 0.40625,0 0.67187,0.28125 0.28125,0.28125 0.28125,0.6875 0,0.375 -0.28125,0.65625 -0.26562,0.28125 -0.67187,0.28125 z m 0,4.84375 q -0.40625,0 -0.6875,-0.28125 -0.26563,-0.28125 -0.26563,-0.65625 0,-0.40625 0.26563,-0.6875 0.28125,-0.28125 0.6875,-0.28125 0.40625,0 0.67187,0.28125 0.28125,0.28125 0.28125,0.6875 0,0.375 -0.28125,0.65625 -0.26562,0.28125 -0.67187,0.28125 z m 5.6976,-8.54688 v -0.54687 h 3.76565 v 0.54687 l -1.23437,0.15625 q 0,0.82813 -0.0156,1.70313 0,0.85937 0,1.73437 v 0.65625 q 0,0.84375 0,1.70313 0.0156,0.85937 0.0156,1.73437 l 1.23437,0.14063 v 0.54687 h -3.76565 v -0.54687 l 1.21875,-0.14063 q 0.0312,-0.84375 0.0312,-1.70312 0,-0.875 0,-1.73438 v -0.65625 q 0,-0.875 0,-1.73437 0,-0.85938 -0.0312,-1.70313 z m 10.44473,5.70313 q 0,0.84375 -0.39063,1.48437 -0.375,0.64063 -1.07812,1 -0.70313,0.35938 -1.64063,0.35938 -2.0625,0 -2.48437,-1.875 0.17187,-0.45313 0.67187,-0.45313 0.3125,0 0.46875,0.1875 0.17188,0.1875 0.3125,0.71875 l 0.1875,0.71875 q 0.20313,0.0469 0.39063,0.0781 0.1875,0.0312 0.375,0.0312 0.98437,0 1.48437,-0.57813 0.5,-0.59375 0.5,-1.54687 0,-1 -0.5625,-1.51563 -0.54687,-0.53125 -1.51562,-0.53125 -0.5625,0 -1.21875,0.14063 l -0.375,-0.10938 0.28125,-4.04687 h 4.35937 v 1.09375 h -3.78125 l -0.15625,2.26562 q 0.60938,-0.15625 1.25,-0.15625 1.3125,0 2.10938,0.70313 0.8125,0.6875 0.8125,2.03125 z"
       fill-rule="nonzero"
       id="path437" />
    <path
       fill="#000000"
       fill-opacity="0"
       d="m 254.1685,465.5538 c -3.88976,0 -7.77953,-8.4567 -7.77953,-16.91339"
       fill-rule="evenodd"
       id="path439" />
    <path
       stroke="#38761d"
       stroke-width="1"
       stroke-linejoin="round"
       stroke-linecap="butt"
       stroke-dasharray="4, 3"
       d="m 254.1685,465.5538 c -3.88976,0 -7.77953,-8.4567 -7.77953,-16.91339"
       fill-rule="evenodd"
       id="path441" />
    <path
       fill="#000000"
       fill-opacity="0"
       d="m 328.4615,435.95953 c -6.03595,1.15131 -20.18738,4.83566 -36.21564,6.9079 -16.02823,2.07226 -38.92889,5.5256 -59.95385,5.5256 -21.02495,0 -49.95822,-2.07165 -66.19586,-5.5256 -16.23764,-3.45395 -26.025,-12.66513 -31.23,-15.19815"
       fill-rule="evenodd"
       id="path443" />
    <path
       stroke="#38761d"
       stroke-width="1"
       stroke-linejoin="round"
       stroke-linecap="butt"
       d="m 328.46146,435.95953 c -6.03592,1.15131 -20.18735,4.83566 -36.21561,6.90793 -16.02823,2.0722 -38.92889,5.52557 -59.95385,5.52557 -21.02495,0 -49.95822,-2.07162 -66.19586,-5.52557 -8.11884,-1.72699 -14.62508,-4.89331 -19.75225,-7.94443 -1.28178,-0.76282 -2.47738,-1.51843 -3.59044,-2.24255 -0.55653,-0.36203 -1.09242,-0.71619 -1.60812,-1.05951 l -1.18037,-0.78906"
       fill-rule="evenodd"
       id="path445" />
    <path
       fill="#38761d"
       stroke="#38761d"
       stroke-width="1"
       stroke-linecap="butt"
       d="m 140.83559,429.42828 -4.72711,-0.9884 2.98584,3.79568 z"
       fill-rule="evenodd"
       id="path447" />
    <path
       fill="#000000"
       fill-opacity="0"
       d="m 134.82869,456.3465 29.60629,28.75592"
       fill-rule="evenodd"
       id="path449" />
    <path
       stroke="#000000"
       stroke-width="1"
       stroke-linejoin="round"
       stroke-linecap="butt"
       d="m 134.82869,456.3465 25.30229,24.57553"
       fill-rule="evenodd"
       id="path451" />
    <path
       fill="#000000"
       stroke="#000000"
       stroke-width="1"
       stroke-linecap="butt"
       d="m 158.98018,482.10687 4.40614,1.97699 -2.10452,-4.34668 z"
       fill-rule="evenodd"
       id="path453" />
    <path
       fill="#f3f3f3"
       d="m 246.44826,417.2389 h 52.7874 v 20.7244 h -52.7874 z"
       fill-rule="evenodd"
       id="path455" />
    <path
       stroke="#000000"
       stroke-width="1"
       stroke-linejoin="round"
       stroke-linecap="butt"
       d="m 246.44826,417.2389 h 52.7874 v 20.7244 h -52.7874 z"
       fill-rule="evenodd"
       id="path457" />
    <path
       fill="#000000"
       d="m 267.09976,423.47797 v -0.60937 h 4.15625 v 0.60937 l -1.35938,0.15625 q -0.0156,0.92188 -0.0156,1.875 0,0.95313 0,1.90625 v 0.71875 q 0,0.9375 0,1.89063 0,0.9375 0.0156,1.89062 l 1.35938,0.17188 v 0.59375 h -4.15625 v -0.59375 l 1.35937,-0.17188 q 0.0156,-0.92187 0.0156,-1.875 0,-0.95312 0,-1.90625 v -0.71875 q 0,-0.95312 0,-1.89062 0,-0.95313 -0.0156,-1.89063 z m 5.51559,9.20313 v -0.95313 q 0.57813,-0.57812 1.125,-1.14062 0.54688,-0.5625 1.01563,-1.0625 1.10937,-1.15625 1.60937,-2.09375 0.51563,-0.9375 0.51563,-1.78125 0,-0.90625 -0.48438,-1.4375 -0.46875,-0.53125 -1.26562,-0.53125 -0.15625,0 -0.34375,0.0156 -0.17188,0.0156 -0.375,0.0625 l -0.28125,1 q -0.14063,0.54688 -0.34375,0.78125 -0.20313,0.21875 -0.5,0.21875 -0.48438,0 -0.75,-0.46875 0.0781,-0.76562 0.5,-1.26562 0.4375,-0.51563 1.07812,-0.75 0.64063,-0.25 1.375,-0.25 1.42188,0 2.0625,0.70312 0.65625,0.6875 0.65625,1.78125 0,0.65625 -0.26562,1.26563 -0.25,0.59375 -0.89063,1.35937 -0.625,0.75 -1.75,1.82813 -0.29687,0.29687 -0.71875,0.70312 -0.40625,0.39063 -0.85937,0.8125 h 4.90625 v 1.20313 z"
       fill-rule="nonzero"
       id="path459" />
    <path
       fill="#000000"
       fill-opacity="0"
       d="M 246.44826,427.6011 H 217.21991"
       fill-rule="evenodd"
       id="path461" />
    <path
       stroke="#980000"
       stroke-width="1"
       stroke-linejoin="round"
       stroke-linecap="butt"
       d="M 246.44824,427.6011 H 223.21989"
       fill-rule="evenodd"
       id="path463" />
    <path
       fill="#980000"
       stroke="#980000"
       stroke-width="1"
       stroke-linecap="butt"
       d="m 223.2199,425.94937 -4.5381,1.65173 4.5381,1.65174 z"
       fill-rule="evenodd"
       id="path465" />
  </g>
</svg>
