<?xml version="1.0" encoding="UTF-8" standalone="no"?>
<svg
   xmlns:dc="http://purl.org/dc/elements/1.1/"
   xmlns:cc="http://creativecommons.org/ns#"
   xmlns:rdf="http://www.w3.org/1999/02/22-rdf-syntax-ns#"
   xmlns:svg="http://www.w3.org/2000/svg"
   xmlns="http://www.w3.org/2000/svg"
   xmlns:sodipodi="http://sodipodi.sourceforge.net/DTD/sodipodi-0.dtd"
   xmlns:inkscape="http://www.inkscape.org/namespaces/inkscape"
   version="1.1"
   viewBox="0 0 694.79529 113.8819"
   stroke-miterlimit="10"
   id="svg739"
   sodipodi:docname="cpu-implementation-fetch-sub3.svg"
   width="694.79529"
   height="113.8819"
   style="fill:none;stroke:none;stroke-linecap:square;stroke-miterlimit:10"
   inkscape:version="0.92.5 (2060ec1f9f, 2020-04-08)">
  <metadata
     id="metadata745">
    <rdf:RDF>
      <cc:Work
         rdf:about="">
        <dc:format>image/svg+xml</dc:format>
        <dc:type
           rdf:resource="http://purl.org/dc/dcmitype/StillImage" />
        <dc:title></dc:title>
      </cc:Work>
    </rdf:RDF>
  </metadata>
  <defs
     id="defs743" />
  <sodipodi:namedview
     pagecolor="#ffffff"
     bordercolor="#666666"
     borderopacity="1"
     objecttolerance="10"
     gridtolerance="10"
     guidetolerance="10"
     inkscape:pageopacity="0"
     inkscape:pageshadow="2"
     inkscape:window-width="2288"
     inkscape:window-height="1321"
     id="namedview741"
     showgrid="false"
     inkscape:zoom="1.4458333"
     inkscape:cx="436.29475"
     inkscape:cy="234.32513"
     inkscape:window-x="546"
     inkscape:window-y="220"
     inkscape:window-maximized="0"
     inkscape:current-layer="g737" />
  <clipPath
     id="g2fe881e1fab_0_0.0">
    <path
       d="M 0,0 H 960 V 540 H 0 Z"
       id="path2"
       inkscape:connector-curvature="0"
       style="clip-rule:nonzero" />
  </clipPath>
  <g
     clip-path="url(#g2fe881e1fab_0_0.0)"
     id="g737"
     transform="translate(-96.53412,-387.5315)">
    <path
       d="m 328.64566,408.8048 h 70.96063 v 62.89764 h -70.96063 z"
       id="path567"
       inkscape:connector-curvature="0"
       style="fill:#f3f3f3;fill-rule:evenodd" />
    <path
       d="m 328.64566,408.8048 h 70.96063 v 62.89764 h -70.96063 z"
       id="path569"
       inkscape:connector-curvature="0"
       style="fill-rule:evenodd;stroke:#000000;stroke-width:1;stroke-linecap:butt;stroke-linejoin:round" />
    <path
       d="m 301.73227,471.70245 h 124.78742 v 29.19684 H 301.73227 Z"
       id="path571"
       inkscape:connector-curvature="0"
       style="fill:#000000;fill-opacity:0;fill-rule:evenodd" />
    <path
       d="m 316.47052,492.06088 v -0.57813 l 1.1875,-0.21875 q 0.0156,-0.60937 0.0156,-1.3125 0.0156,-0.70312 0.0156,-1.25 v -0.76562 q 0,-0.65625 -0.0156,-1.07813 0,-0.4375 -0.0312,-0.92187 l -1.26563,-0.14063 v -0.5625 l 2.23438,-0.98437 0.25,0.17187 0.125,1.28125 q 0.5625,-0.625 1.3125,-1.03125 0.75,-0.42187 1.48437,-0.42187 0.75,0 1.21875,0.35937 0.46875,0.34375 0.6875,1.15625 0.60938,-0.76562 1.35938,-1.14062 0.75,-0.375 1.53125,-0.375 0.98437,0 1.51562,0.65625 0.53125,0.65625 0.53125,2.14062 v 1.65625 q 0,0.54688 0,1.25 0.0156,0.70313 0.0312,1.3125 l 1.125,0.21875 v 0.57813 h -3.71875 v -0.57813 l 1.1875,-0.21875 q 0.0156,-0.59375 0.0156,-1.29687 0.0156,-0.71875 0.0156,-1.26563 v -1.39062 q 0,-1.125 -0.32812,-1.51563 -0.3125,-0.39062 -1.01563,-0.39062 -0.5,0 -1.01562,0.23437 -0.51563,0.21875 -1.125,0.78125 0.0156,0.17188 0.0156,0.375 0.0156,0.1875 0.0156,0.42188 v 1.48437 q 0,0.54688 0,1.25 0.0156,0.70313 0.0312,1.3125 l 1.125,0.21875 v 0.57813 h -3.71875 v -0.57813 l 1.1875,-0.21875 q 0.0156,-0.59375 0.0156,-1.29687 0.0156,-0.71875 0.0156,-1.26563 v -1.35937 q 0,-1.09375 -0.3125,-1.51563 -0.29688,-0.42187 -1,-0.42187 -0.54688,0 -1.04688,0.23437 -0.48437,0.21875 -1.07812,0.71875 v 2.34375 q 0,0.53125 0,1.25 0.0156,0.70313 0.0312,1.3125 l 1.10937,0.21875 v 0.57813 z m 20.43164,0.15625 q -0.57812,0 -0.96875,-0.32813 -0.375,-0.34375 -0.46875,-0.90625 -0.65625,0.64063 -1.15625,0.96875 -0.5,0.3125 -1.20312,0.3125 -0.875,0 -1.51563,-0.5 -0.625,-0.5 -0.625,-1.5 0,-0.45312 0.21875,-0.85937 0.21875,-0.40625 0.78125,-0.78125 0.57813,-0.39063 1.65625,-0.76563 0.375,-0.14062 0.84375,-0.28125 0.48438,-0.14062 0.96875,-0.25 v -0.40625 q 0,-1.15625 -0.35937,-1.54687 -0.34375,-0.39063 -1.14063,-0.39063 -0.1875,0 -0.40625,0.0156 -0.20312,0.0156 -0.46875,0.0937 l -0.29687,1.03125 q -0.23438,0.76562 -0.82813,0.76562 -0.67187,0 -0.76562,-0.65625 0.23437,-0.90625 1.0625,-1.4375 0.84375,-0.54687 2.0625,-0.54687 1.26562,0 1.875,0.64062 0.60937,0.625 0.60937,2.14063 v 3.42187 q 0,0.5 0.15625,0.71875 0.15625,0.21875 0.42188,0.21875 0.20312,0 0.34375,-0.0937 0.14062,-0.0937 0.28125,-0.26562 l 0.3125,0.35937 q -0.28125,0.46875 -0.625,0.65625 -0.34375,0.17188 -0.76563,0.17188 z m -4.51562,-2.1875 q 0,0.64062 0.35937,0.92187 0.375,0.26563 0.92188,0.26563 0.23437,0 0.45312,-0.0625 0.21875,-0.0625 0.51563,-0.25 0.3125,-0.1875 0.79687,-0.54688 v -2.4375 q -0.42187,0.10938 -0.82812,0.25 -0.39063,0.125 -0.64063,0.23438 -0.6875,0.26562 -1.03125,0.5625 -0.32812,0.28125 -0.4375,0.5625 -0.10937,0.26562 -0.10937,0.5 z m 6.24588,5.85937 v -0.5625 l 1.28125,-0.21875 q 0.0156,-0.65625 0.0156,-1.3125 0.0156,-0.64062 0.0156,-1.28125 v -4.57812 q 0,-0.65625 -0.0156,-1.07813 0,-0.4375 -0.0312,-0.92187 l -1.26562,-0.14063 v -0.5625 l 2.23437,-0.98437 0.25,0.17187 0.0937,1.03125 q 1.125,-1.20312 2.40625,-1.20312 0.875,0 1.5625,0.48437 0.6875,0.48438 1.09375,1.375 0.40625,0.875 0.40625,2.125 0,1.23438 -0.4375,2.14063 -0.42187,0.90625 -1.17187,1.40625 -0.75,0.48437 -1.6875,0.48437 -0.54688,0 -1.07813,-0.21875 -0.53125,-0.21875 -1.04687,-0.8125 v 1.26563 q 0,0.64062 0,1.28125 0.0156,0.65625 0.0312,1.3125 l 1.45312,0.23437 v 0.5625 z m 4.60937,-10.71875 q -0.375,0 -0.85937,0.1875 -0.46875,0.17188 -1.07813,0.6875 v 4.5 q 0.45313,0.42188 0.875,0.625 0.4375,0.1875 0.875,0.1875 0.90625,0 1.54688,-0.71875 0.64062,-0.71875 0.64062,-2.28125 0,-1.53125 -0.5625,-2.35937 -0.5625,-0.82813 -1.4375,-0.82813 z m 3.99677,7.95313 v -1.0625 h 6.90625 v 1.0625 z m 8.22326,-1.0625 v -0.57813 l 1.15625,-0.20312 q 0.0156,-0.60938 0.0156,-1.3125 0.0156,-0.71875 0.0156,-1.26563 v -0.76562 q 0,-0.65625 -0.0156,-1.07813 0,-0.4375 -0.0312,-0.92187 l -1.26563,-0.14063 v -0.5625 l 2.23438,-0.98437 0.25,0.17187 0.17187,1.875 q 0.39063,-0.95312 1.01563,-1.5 0.64062,-0.54687 1.28125,-0.54687 0.375,0 0.6875,0.17187 0.32812,0.15625 0.46875,0.42188 0,1.17187 -0.9375,1.17187 -0.28125,0 -0.53125,-0.0937 -0.23438,-0.10937 -0.45313,-0.3125 l -0.1875,-0.17187 q -0.48437,0.35937 -0.8125,0.875 -0.3125,0.5 -0.51562,1.1875 v 1.20312 q 0,0.53125 0,1.23438 0.0156,0.70312 0.0312,1.3125 l 1.3125,0.23437 v 0.57813 z m 10.23303,-7.07813 q -0.4375,0 -0.90625,0.26563 -0.45312,0.25 -0.78125,0.8125 -0.32812,0.5625 -0.42187,1.48437 h 2.92187 q 0.57813,0 0.75,-0.23437 0.1875,-0.23438 0.1875,-0.59375 0,-0.46875 -0.23437,-0.85938 -0.23438,-0.39062 -0.625,-0.625 -0.39063,-0.25 -0.89063,-0.25 z m -0.0156,7.28125 q -1.60938,0 -2.59375,-1.04687 -0.96875,-1.04688 -0.96875,-2.89063 0,-1.21875 0.5,-2.125 0.51562,-0.92187 1.34375,-1.4375 0.84375,-0.51562 1.84375,-0.51562 0.82812,0 1.5,0.375 0.67187,0.35937 1.0625,1.04687 0.40625,0.67188 0.40625,1.65625 0,0.26563 -0.0312,0.5 -0.0312,0.23438 -0.0781,0.39063 h -5.10937 q 0.0312,1.46875 0.73437,2.25 0.70313,0.76562 1.85938,0.76562 0.76562,0 1.28125,-0.3125 0.51562,-0.3125 0.9375,-0.8125 l 0.39062,0.3125 q -0.45312,0.84375 -1.21875,1.34375 -0.76562,0.5 -1.85937,0.5 z m 7.08188,0 q -0.67188,0 -1.23438,-0.15625 -0.5625,-0.14062 -1.15625,-0.45312 l -0.0625,-1.75 h 0.875 l 0.3125,1.39062 q 0.5625,0.25 1.29688,0.25 0.90625,0 1.34375,-0.32812 0.45312,-0.34375 0.45312,-0.89063 0,-0.5 -0.375,-0.8125 -0.375,-0.3125 -1.125,-0.57812 l -0.73437,-0.26563 q -0.875,-0.32812 -1.40625,-0.82812 -0.53125,-0.51563 -0.53125,-1.32813 0,-0.59375 0.3125,-1.10937 0.32812,-0.51563 0.95312,-0.82813 0.625,-0.32812 1.51563,-0.32812 0.65625,0 1.1875,0.17187 0.54687,0.17188 1.0625,0.48438 l -0.0625,1.64062 h -0.84375 l -0.25,-1.28125 q -0.54688,-0.28125 -1.10938,-0.28125 -0.73437,0 -1.10937,0.29688 -0.375,0.29687 -0.375,0.79687 0,0.53125 0.32812,0.8125 0.32813,0.26563 1.14063,0.5625 l 0.5,0.17188 q 1.20312,0.45312 1.70312,1.03125 0.5,0.57812 0.5,1.32812 0,0.60938 -0.35937,1.125 -0.34375,0.51563 -1.03125,0.84375 -0.6875,0.3125 -1.71875,0.3125 z m 8.13153,0 q -0.9375,0 -1.78125,-0.4375 -0.82813,-0.4375 -1.35938,-1.32812 -0.53125,-0.89063 -0.53125,-2.20313 0,-1.32812 0.53125,-2.21875 0.53125,-0.90625 1.35938,-1.35937 0.84375,-0.46875 1.78125,-0.46875 0.92187,0 1.75,0.46875 0.84375,0.45312 1.375,1.35937 0.54687,0.89063 0.54687,2.21875 0,1.3125 -0.54687,2.20313 -0.53125,0.89062 -1.375,1.32812 -0.82813,0.4375 -1.75,0.4375 z m 0,-0.71875 q 1.03125,0 1.59375,-0.8125 0.5625,-0.82812 0.5625,-2.4375 0,-1.60937 -0.5625,-2.45312 -0.5625,-0.85938 -1.59375,-0.85938 -1.04688,0 -1.60938,0.85938 -0.54687,0.84375 -0.54687,2.45312 0,1.60938 0.54687,2.4375 0.5625,0.8125 1.60938,0.8125 z m 4.63962,0.51563 v -0.57813 l 1.28125,-0.21875 q 0.0156,-0.65625 0.0156,-1.28125 0.0156,-0.64062 0.0156,-1.28125 v -7.03125 l -1.3125,-0.15625 v -0.5625 l 2.48437,-0.71875 0.23438,0.125 -0.0625,2.28125 v 6.0625 q 0,0.64063 0,1.28125 0.0156,0.64063 0.0312,1.28125 l 1.28125,0.21875 v 0.57813 z m 9.09237,-6.96875 v -0.625 h 3.04688 v 0.625 l -0.875,0.20312 -2.59375,6.85938 h -0.6875 l -2.92188,-6.90625 -0.85937,-0.15625 v -0.625 h 3.875 v 0.625 l -1.40625,0.20312 1.95312,5.125 1.76563,-5.10937 z m 7.16626,-0.10938 q -0.4375,0 -0.90625,0.26563 -0.45312,0.25 -0.78125,0.8125 -0.32812,0.5625 -0.42187,1.48437 h 2.92187 q 0.57813,0 0.75,-0.23437 0.1875,-0.23438 0.1875,-0.59375 0,-0.46875 -0.23437,-0.85938 -0.23438,-0.39062 -0.625,-0.625 -0.39063,-0.25 -0.89063,-0.25 z m -0.0156,7.28125 q -1.60938,0 -2.59375,-1.04687 -0.96875,-1.04688 -0.96875,-2.89063 0,-1.21875 0.5,-2.125 0.51562,-0.92187 1.34375,-1.4375 0.84375,-0.51562 1.84375,-0.51562 0.82812,0 1.5,0.375 0.67187,0.35937 1.0625,1.04687 0.40625,0.67188 0.40625,1.65625 0,0.26563 -0.0312,0.5 -0.0312,0.23438 -0.0781,0.39063 h -5.10937 q 0.0312,1.46875 0.73437,2.25 0.70313,0.76562 1.85938,0.76562 0.76562,0 1.28125,-0.3125 0.51562,-0.3125 0.9375,-0.8125 l 0.39062,0.3125 q -0.45312,0.84375 -1.21875,1.34375 -0.76562,0.5 -1.85937,0.5 z m 4.55066,-0.20312 v -0.57813 l 1.15625,-0.20312 q 0.0156,-0.60938 0.0156,-1.3125 0.0156,-0.71875 0.0156,-1.26563 v -0.76562 q 0,-0.65625 -0.0156,-1.07813 0,-0.4375 -0.0312,-0.92187 l -1.26562,-0.14063 v -0.5625 l 2.23437,-0.98437 0.25,0.17187 0.17188,1.875 q 0.39062,-0.95312 1.01562,-1.5 0.64063,-0.54687 1.28125,-0.54687 0.375,0 0.6875,0.17187 0.32813,0.15625 0.46875,0.42188 0,1.17187 -0.9375,1.17187 -0.28125,0 -0.53125,-0.0937 -0.23437,-0.10937 -0.45312,-0.3125 l -0.1875,-0.17187 q -0.48438,0.35937 -0.8125,0.875 -0.3125,0.5 -0.51563,1.1875 v 1.20312 q 0,0.53125 0,1.23438 0.0156,0.70312 0.0312,1.3125 l 1.3125,0.23437 v 0.57813 z"
       id="path573"
       inkscape:connector-curvature="0"
       style="fill:#000000;fill-rule:nonzero" />
    <path
       d="M 488.25784,408.8058 H 595.25 v 62.89761 H 488.25784 Z"
       id="path575"
       inkscape:connector-curvature="0"
       style="fill:#f3f3f3;fill-rule:evenodd" />
    <path
       d="M 488.25784,408.8058 H 595.25 v 62.89761 H 488.25784 Z"
       id="path577"
       inkscape:connector-curvature="0"
       style="fill-rule:evenodd;stroke:#000000;stroke-width:1;stroke-linecap:butt;stroke-linejoin:round" />
    <path
       d="m 479.3599,471.70245 h 124.78738 v 29.19684 H 479.3599 Z"
       id="path579"
       inkscape:connector-curvature="0"
       style="fill:#000000;fill-opacity:0;fill-rule:evenodd" />
    <path
       d="m 505.56366,492.06088 v -0.57813 l 1.26563,-0.21875 q 0.0156,-0.64062 0.0156,-1.28125 0.0156,-0.64062 0.0156,-1.28125 v -3.39062 h -1.32813 v -0.70313 l 1.34375,-0.17187 q 0.0781,-0.9375 0.21875,-1.54688 0.14063,-0.60937 0.40625,-1.04687 0.26563,-0.4375 0.67188,-0.84375 0.4375,-0.45313 1.14062,-0.6875 0.71875,-0.23438 1.45313,-0.23438 1.03125,0 1.75,0.4375 0.71875,0.42188 0.71875,1.15625 -0.0625,0.26563 -0.26563,0.45313 -0.20312,0.17187 -0.53125,0.17187 -0.29687,0 -0.54687,-0.17187 -0.25,-0.17188 -0.46875,-0.48438 l -0.70313,-0.96875 q -0.54687,0.0312 -1.01562,0.25 -0.45313,0.20313 -0.76563,0.51563 -0.42187,0.42187 -0.60937,1.14062 -0.17188,0.70313 -0.14063,1.89063 h 3.64063 l 1.1875,-0.21875 0.25,0.17187 -0.0469,2.09375 v 2.1875 q 0,0.53125 0,1.25 0.0156,0.70313 0.0312,1.3125 l 1.09375,0.21875 v 0.57813 h -3.71875 v -0.57813 l 1.20313,-0.21875 q 0.0156,-0.60937 0.0156,-1.3125 0.0156,-0.71875 0.0156,-1.25 v -0.8125 q 0,-0.85937 -0.0156,-1.40625 0,-0.5625 -0.0312,-1.17187 h -3.59375 v 3.39062 q 0,0.64063 0,1.28125 0.0156,0.625 0.0312,1.26563 l 1.42188,0.23437 v 0.57813 z m 9.70013,0 v -0.57813 l 1.28125,-0.21875 q 0.0156,-0.65625 0.0156,-1.28125 0.0156,-0.64062 0.0156,-1.28125 v -7.03125 l -1.3125,-0.15625 v -0.5625 l 2.48438,-0.71875 0.23437,0.125 -0.0625,2.28125 v 6.0625 q 0,0.64063 0,1.28125 0.0156,0.64063 0.0312,1.28125 l 1.28125,0.21875 v 0.57813 z m 7.64301,0.20312 q -0.82813,0 -1.32813,-0.4375 -0.5,-0.45312 -0.5,-1.375 0,-0.3125 0,-0.60937 0.0156,-0.29688 0.0156,-0.75 v -3.78125 h -1.32813 v -0.70313 l 1.42188,-0.17187 0.42187,-2.15625 h 0.95313 l -0.0937,2.1875 h 2.17187 v 0.84375 h -2.1875 v 4.95312 q 0,0.60938 0.23438,0.89063 0.25,0.28125 0.65625,0.28125 0.26562,0 0.51562,-0.10938 0.25,-0.10937 0.54688,-0.32812 l 0.39062,0.42187 q -0.65625,0.84375 -1.89062,0.84375 z m 6.21564,-7.28125 q -0.4375,0 -0.90625,0.26563 -0.45313,0.25 -0.78125,0.8125 -0.32813,0.5625 -0.42188,1.48437 h 2.92188 q 0.57812,0 0.75,-0.23437 0.1875,-0.23438 0.1875,-0.59375 0,-0.46875 -0.23438,-0.85938 -0.23437,-0.39062 -0.625,-0.625 -0.39062,-0.25 -0.89062,-0.25 z m -0.0156,7.28125 q -1.60937,0 -2.59375,-1.04687 -0.96875,-1.04688 -0.96875,-2.89063 0,-1.21875 0.5,-2.125 0.51563,-0.92187 1.34375,-1.4375 0.84375,-0.51562 1.84375,-0.51562 0.82813,0 1.5,0.375 0.67188,0.35937 1.0625,1.04687 0.40625,0.67188 0.40625,1.65625 0,0.26563 -0.0312,0.5 -0.0312,0.23438 -0.0781,0.39063 h -5.10938 q 0.0312,1.46875 0.73438,2.25 0.70312,0.76562 1.85937,0.76562 0.76563,0 1.28125,-0.3125 0.51563,-0.3125 0.9375,-0.8125 l 0.39063,0.3125 q -0.45313,0.84375 -1.21875,1.34375 -0.76563,0.5 -1.85938,0.5 z m 4.55066,-0.20312 v -0.57813 l 1.15625,-0.20312 q 0.0156,-0.60938 0.0156,-1.3125 0.0156,-0.71875 0.0156,-1.26563 v -0.76562 q 0,-0.65625 -0.0156,-1.07813 0,-0.4375 -0.0312,-0.92187 l -1.26563,-0.14063 v -0.5625 l 2.23438,-0.98437 0.25,0.17187 0.17187,1.875 q 0.39063,-0.95312 1.01563,-1.5 0.64062,-0.54687 1.28125,-0.54687 0.375,0 0.6875,0.17187 0.32812,0.15625 0.46875,0.42188 0,1.17187 -0.9375,1.17187 -0.28125,0 -0.53125,-0.0937 -0.23438,-0.10937 -0.45313,-0.3125 l -0.1875,-0.17187 q -0.48437,0.35937 -0.8125,0.875 -0.3125,0.5 -0.51562,1.1875 v 1.20312 q 0,0.53125 0,1.23438 0.0156,0.70312 0.0312,1.3125 l 1.3125,0.23437 v 0.57813 z m 5.74475,1.0625 v -1.0625 h 6.90625 v 1.0625 z m 8.19202,-1.0625 v -0.57813 l 1.1875,-0.21875 q 0.0156,-0.60937 0.0156,-1.3125 0.0156,-0.70312 0.0156,-1.25 v -0.76562 q 0,-0.65625 -0.0156,-1.07813 0,-0.4375 -0.0312,-0.92187 l -1.26562,-0.14063 v -0.5625 l 2.23437,-0.98437 0.25,0.17187 0.125,1.28125 q 0.5625,-0.625 1.3125,-1.03125 0.75,-0.42187 1.48438,-0.42187 0.75,0 1.21875,0.35937 0.46875,0.34375 0.6875,1.15625 0.60937,-0.76562 1.35937,-1.14062 0.75,-0.375 1.53125,-0.375 0.98438,0 1.51563,0.65625 0.53125,0.65625 0.53125,2.14062 v 1.65625 q 0,0.54688 0,1.25 0.0156,0.70313 0.0312,1.3125 l 1.125,0.21875 v 0.57813 H 557.188 v -0.57813 l 1.1875,-0.21875 q 0.0156,-0.59375 0.0156,-1.29687 0.0156,-0.71875 0.0156,-1.26563 v -1.39062 q 0,-1.125 -0.32813,-1.51563 -0.3125,-0.39062 -1.01562,-0.39062 -0.5,0 -1.01563,0.23437 -0.51562,0.21875 -1.125,0.78125 0.0156,0.17188 0.0156,0.375 0.0156,0.1875 0.0156,0.42188 v 1.48437 q 0,0.54688 0,1.25 0.0156,0.70313 0.0312,1.3125 l 1.125,0.21875 v 0.57813 h -3.71875 v -0.57813 l 1.1875,-0.21875 q 0.0156,-0.59375 0.0156,-1.29687 0.0156,-0.71875 0.0156,-1.26563 v -1.35937 q 0,-1.09375 -0.3125,-1.51563 -0.29687,-0.42187 -1,-0.42187 -0.54687,0 -1.04687,0.23437 -0.48438,0.21875 -1.07813,0.71875 v 2.34375 q 0,0.53125 0,1.25 0.0156,0.70313 0.0312,1.3125 l 1.10938,0.21875 v 0.57813 z m 20.43164,0.15625 q -0.57813,0 -0.96875,-0.32813 -0.375,-0.34375 -0.46875,-0.90625 -0.65625,0.64063 -1.15625,0.96875 -0.5,0.3125 -1.20313,0.3125 -0.875,0 -1.51562,-0.5 -0.625,-0.5 -0.625,-1.5 0,-0.45312 0.21875,-0.85937 0.21875,-0.40625 0.78125,-0.78125 0.57812,-0.39063 1.65625,-0.76563 0.375,-0.14062 0.84375,-0.28125 0.48437,-0.14062 0.96875,-0.25 v -0.40625 q 0,-1.15625 -0.35938,-1.54687 -0.34375,-0.39063 -1.14062,-0.39063 -0.1875,0 -0.40625,0.0156 -0.20313,0.0156 -0.46875,0.0937 l -0.29688,1.03125 q -0.23437,0.76562 -0.82812,0.76562 -0.67188,0 -0.76563,-0.65625 0.23438,-0.90625 1.0625,-1.4375 0.84375,-0.54687 2.0625,-0.54687 1.26563,0 1.875,0.64062 0.60938,0.625 0.60938,2.14063 v 3.42187 q 0,0.5 0.15625,0.71875 0.15625,0.21875 0.42187,0.21875 0.20313,0 0.34375,-0.0937 0.14063,-0.0937 0.28125,-0.26562 l 0.3125,0.35937 q -0.28125,0.46875 -0.625,0.65625 -0.34375,0.17188 -0.76562,0.17188 z m -4.51563,-2.1875 q 0,0.64062 0.35938,0.92187 0.375,0.26563 0.92187,0.26563 0.23438,0 0.45313,-0.0625 0.21875,-0.0625 0.51562,-0.25 0.3125,-0.1875 0.79688,-0.54688 v -2.4375 q -0.42188,0.10938 -0.82813,0.25 -0.39062,0.125 -0.64062,0.23438 -0.6875,0.26562 -1.03125,0.5625 -0.32813,0.28125 -0.4375,0.5625 -0.10938,0.26562 -0.10938,0.5 z m 6.24591,5.85937 v -0.5625 l 1.28125,-0.21875 q 0.0156,-0.65625 0.0156,-1.3125 0.0156,-0.64062 0.0156,-1.28125 v -4.57812 q 0,-0.65625 -0.0156,-1.07813 0,-0.4375 -0.0312,-0.92187 l -1.26563,-0.14063 v -0.5625 l 2.23438,-0.98437 0.25,0.17187 0.0937,1.03125 q 1.125,-1.20312 2.40625,-1.20312 0.875,0 1.5625,0.48437 0.6875,0.48438 1.09375,1.375 0.40625,0.875 0.40625,2.125 0,1.23438 -0.4375,2.14063 -0.42188,0.90625 -1.17188,1.40625 -0.75,0.48437 -1.6875,0.48437 -0.54687,0 -1.07812,-0.21875 -0.53125,-0.21875 -1.04688,-0.8125 v 1.26563 q 0,0.64062 0,1.28125 0.0156,0.65625 0.0312,1.3125 l 1.45313,0.23437 v 0.5625 z m 4.60938,-10.71875 q -0.375,0 -0.85938,0.1875 -0.46875,0.17188 -1.07812,0.6875 v 4.5 q 0.45312,0.42188 0.875,0.625 0.4375,0.1875 0.875,0.1875 0.90625,0 1.54687,-0.71875 0.64063,-0.71875 0.64063,-2.28125 0,-1.53125 -0.5625,-2.35937 -0.5625,-0.82813 -1.4375,-0.82813 z"
       id="path581"
       inkscape:connector-curvature="0"
       style="fill:#000000;fill-rule:nonzero" />
    <path
       d="m 399.62042,409.8104 h 88.62991 v 19.71655 h -88.62991 z"
       id="path583"
       inkscape:connector-curvature="0"
       style="fill:#000000;fill-opacity:0;fill-rule:evenodd" />
    <path
       d="m 429.07654,416.45743 v -0.5 h 5.96875 l 0.0937,2.125 h -0.6875 l -0.26562,-1.51563 h -2.82813 q 0,0.76563 -0.0156,1.53125 0,0.76563 0,1.51563 h 1.85937 l 0.17188,-1.14063 h 0.54687 v 2.95313 h -0.54687 l -0.17188,-1.25 h -1.85937 q 0,0.89062 0,1.67187 0.0156,0.76563 0.0156,1.51563 l 1.125,0.14062 v 0.48438 h -3.40625 v -0.48438 l 1.09375,-0.14062 q 0.0312,-0.75 0.0312,-1.53125 0,-0.78125 0,-1.5625 v -0.59375 q 0,-0.78125 0,-1.54688 0,-0.78125 -0.0312,-1.54687 z m 9.15915,2.23437 q -0.34375,0 -0.6875,0.1875 -0.34375,0.1875 -0.59375,0.60938 -0.23438,0.42187 -0.3125,1.10937 h 2.1875 q 0.4375,0 0.5625,-0.17187 0.14062,-0.1875 0.14062,-0.45313 0,-0.34375 -0.17187,-0.625 -0.17188,-0.29687 -0.46875,-0.46875 -0.29688,-0.1875 -0.65625,-0.1875 z m -0.0156,5.45313 q -1.21875,0 -1.95312,-0.78125 -0.71875,-0.79688 -0.71875,-2.17188 0,-0.92187 0.375,-1.60937 0.375,-0.6875 1,-1.0625 0.64062,-0.39063 1.375,-0.39063 0.625,0 1.125,0.28125 0.51562,0.28125 0.8125,0.79688 0.29687,0.5 0.29687,1.23437 0,0.20313 -0.0312,0.375 -0.0156,0.17188 -0.0469,0.29688 h -3.82813 q 0.0156,1.09375 0.54688,1.67187 0.53125,0.57813 1.39062,0.57813 0.57813,0 0.95313,-0.23438 0.39062,-0.23437 0.71875,-0.60937 l 0.28125,0.23437 q -0.32813,0.64063 -0.90625,1.01563 -0.57813,0.375 -1.39063,0.375 z m 5.35444,0 q -0.60938,0 -0.98438,-0.32813 -0.375,-0.34375 -0.375,-1.04687 0,-0.21875 0,-0.4375 0.0156,-0.23438 0.0156,-0.57813 v -2.82812 h -1 v -0.53125 l 1.0625,-0.125 0.3125,-1.60938 h 0.71875 l -0.0625,1.625 h 1.60937 v 0.64063 h -1.625 v 3.71875 q 0,0.45312 0.17188,0.67187 0.1875,0.20313 0.48437,0.20313 0.20313,0 0.39063,-0.0781 0.1875,-0.0937 0.42187,-0.25 l 0.28125,0.3125 q -0.48437,0.64063 -1.42187,0.64063 z m 1.97814,-7.6875 v -0.5 h 5.96875 l 0.0937,2.125 h -0.6875 L 450.662,416.5668 h -2.82813 q 0,0.76563 -0.0156,1.53125 0,0.76563 0,1.51563 h 1.76562 l 0.17188,-1.14063 h 0.54687 v 2.82813 h -0.54687 l -0.15625,-1.125 h -1.78125 q 0,0.89062 0,1.6875 0.0156,0.78125 0.0156,1.53125 h 3.0625 l 0.26563,-1.54688 h 0.6875 l -0.0781,2.14063 h -6.21875 v -0.48438 l 1.09375,-0.14062 q 0.0312,-0.75 0.0312,-1.53125 0,-0.78125 0,-1.5625 v -0.59375 q 0,-0.78125 0,-1.54688 0,-0.78125 -0.0312,-1.54687 z m 10.25168,0.0625 h -0.73437 q 0,0.76562 -0.0156,1.5625 0,0.79687 0,1.59375 v 0.57812 h 0.79688 q 1.09375,0 1.54687,-0.53125 0.46875,-0.53125 0.46875,-1.375 0,-0.875 -0.5,-1.34375 -0.48437,-0.48437 -1.5625,-0.48437 z m -3.01562,-0.0625 v -0.5 h 3.21875 q 1.53125,0 2.28125,0.67187 0.76562,0.65625 0.76562,1.71875 0,0.67188 -0.34375,1.23438 -0.32812,0.5625 -1.0625,0.90625 -0.73437,0.32812 -1.96875,0.32812 h -0.625 q 0,0.65625 0,1.28125 0.0156,0.625 0.0156,1.26563 l 1.125,0.14062 v 0.48438 h -3.40625 v -0.48438 l 1.09375,-0.14062 q 0.0312,-0.75 0.0312,-1.53125 0,-0.78125 0,-1.5625 v -0.59375 q 0,-0.78125 0,-1.54688 0,-0.78125 -0.0312,-1.54687 z"
       id="path585"
       inkscape:connector-curvature="0"
       style="fill:#000000;fill-rule:nonzero" />
    <path
       d="m 399.62042,453.62186 h 88.62991 v 19.71652 h -88.62991 z"
       id="path587"
       inkscape:connector-curvature="0"
       style="fill:#000000;fill-opacity:0;fill-rule:evenodd" />
    <path
       d="m 432.64417,463.94073 q 0,0.875 0,1.6875 0.0156,0.8125 0.0156,1.60937 h 0.95313 q 1.39062,0 2.125,-0.90625 0.75,-0.90625 0.75,-2.54687 0,-1.6875 -0.73438,-2.5625 -0.71875,-0.89063 -2.03125,-0.89063 h -1.0625 q 0,0.76563 -0.0156,1.5625 0,0.79688 0,1.59375 z m -2.26563,-3.67188 v -0.5 h 3.53125 q 1.15625,0 2.03125,0.46875 0.875,0.45313 1.35938,1.35938 0.5,0.89062 0.5,2.1875 0,1.29687 -0.54688,2.20312 -0.53125,0.89063 -1.46875,1.35938 -0.92187,0.45312 -2.09375,0.45312 h -3.3125 v -0.48437 l 1.09375,-0.14063 q 0.0312,-0.76562 0.0312,-1.5625 0,-0.79687 0,-1.67187 v -0.45313 q 0,-0.78125 0,-1.54687 0,-0.78125 -0.0312,-1.54688 z m 11.22318,2.23438 q -0.34375,0 -0.6875,0.1875 -0.34375,0.1875 -0.59375,0.60937 -0.23438,0.42188 -0.3125,1.10938 h 2.1875 q 0.4375,0 0.5625,-0.17188 0.14062,-0.1875 0.14062,-0.45312 0,-0.34375 -0.17187,-0.625 -0.17188,-0.29688 -0.46875,-0.46875 -0.29688,-0.1875 -0.65625,-0.1875 z m -0.0156,5.45312 q -1.21875,0 -1.95312,-0.78125 -0.71875,-0.79687 -0.71875,-2.17187 0,-0.92188 0.375,-1.60938 0.375,-0.6875 1,-1.0625 0.64062,-0.39062 1.375,-0.39062 0.625,0 1.125,0.28125 0.51562,0.28125 0.8125,0.79687 0.29687,0.5 0.29687,1.23438 0,0.20312 -0.0312,0.375 -0.0156,0.17187 -0.0469,0.29687 h -3.82813 q 0.0156,1.09375 0.54688,1.67188 0.53125,0.57812 1.39062,0.57812 0.57813,0 0.95313,-0.23437 0.39062,-0.23438 0.71875,-0.60938 l 0.28125,0.23438 q -0.32813,0.64062 -0.90625,1.01562 -0.57813,0.375 -1.39063,0.375 z m 6.10444,0 q -1.23438,0 -1.96875,-0.79687 -0.73438,-0.8125 -0.73438,-2.1875 0,-0.95313 0.39063,-1.625 0.39062,-0.6875 1.03125,-1.04688 0.64062,-0.35937 1.35937,-0.35937 0.53125,0 0.98438,0.20312 0.46875,0.20313 0.76562,0.5625 0.29688,0.35938 0.375,0.79688 -0.0937,0.45312 -0.5625,0.45312 -0.29687,0 -0.45312,-0.15625 -0.14063,-0.15625 -0.20313,-0.42187 l -0.21875,-0.78125 q -0.17187,-0.0625 -0.32812,-0.0781 -0.15625,-0.0156 -0.3125,-0.0156 -0.76563,0 -1.26563,0.59375 -0.5,0.59375 -0.5,1.75 0,1.125 0.53125,1.73437 0.54688,0.59375 1.39063,0.59375 0.51562,0 0.9375,-0.23437 0.4375,-0.23438 0.71875,-0.67188 l 0.29687,0.15625 q -0.25,0.73438 -0.8125,1.14063 -0.5625,0.39062 -1.42187,0.39062 z m 6.38028,-7.625 h -1.04688 q 0,0.78125 -0.0156,1.57813 0,0.78125 0,1.625 h 0.92187 q 0.96875,0 1.42188,-0.46875 0.46875,-0.46875 0.46875,-1.1875 0,-0.75 -0.42188,-1.14063 -0.40625,-0.40625 -1.32812,-0.40625 z m -3.32813,-0.0625 v -0.5 h 3.35938 q 1.375,0 2.14062,0.5625 0.76563,0.54688 0.76563,1.54688 0,0.6875 -0.5,1.26562 -0.5,0.57813 -1.51563,0.75 0.53125,0.10938 0.875,0.46875 0.34375,0.35938 0.54688,1.0625 l 0.51562,1.78125 0.92188,0.10938 v 0.48437 q -0.17188,0.0469 -0.40625,0.0781 -0.21875,0.0469 -0.48438,0.0469 -0.5625,0 -0.85937,-0.17187 -0.28125,-0.17188 -0.375,-0.59375 l -0.48438,-1.92188 q -0.10937,-0.5 -0.3125,-0.73437 -0.20312,-0.25 -0.53125,-0.32813 -0.3125,-0.0937 -0.79687,-0.0937 h -0.59375 q 0,0.85938 0,1.625 0.0156,0.75 0.0156,1.46875 l 1.10938,0.14063 v 0.48437 h -3.39063 v -0.48437 l 1.09375,-0.14063 q 0.0312,-0.75 0.0312,-1.53125 0,-0.78125 0,-1.5625 v -0.59375 q 0,-0.78125 0,-1.54687 0,-0.78125 -0.0312,-1.54688 z"
       id="path589"
       inkscape:connector-curvature="0"
       style="fill:#000000;fill-rule:nonzero" />
    <path
       d="m 399.6168,429.6216 h 88.62991"
       id="path591"
       inkscape:connector-curvature="0"
       style="fill:#000000;fill-opacity:0;fill-rule:evenodd" />
    <path
       d="m 399.6168,429.62164 h 76.62991"
       id="path593"
       inkscape:connector-curvature="0"
       style="fill-rule:evenodd;stroke:#595959;stroke-width:2;stroke-linecap:butt;stroke-linejoin:round" />
    <path
       d="m 476.24673,432.9251 9.07617,-3.30347 -9.07617,-3.30346 z"
       id="path595"
       inkscape:connector-curvature="0"
       style="fill:#595959;fill-rule:evenodd;stroke:#595959;stroke-width:2;stroke-linecap:butt" />
    <path
       d="M 488.25623,453.62186 H 399.62629"
       id="path597"
       inkscape:connector-curvature="0"
       style="fill:#000000;fill-opacity:0;fill-rule:evenodd" />
    <path
       d="M 488.25623,453.62186 H 411.62632"
       id="path599"
       inkscape:connector-curvature="0"
       style="fill-rule:evenodd;stroke:#351c75;stroke-width:2;stroke-linecap:butt;stroke-linejoin:round" />
    <path
       d="m 411.6263,450.3184 -9.0762,3.30347 9.0762,3.30343 z"
       id="path601"
       inkscape:connector-curvature="0"
       style="fill:#351c75;fill-rule:evenodd;stroke:#351c75;stroke-width:2;stroke-linecap:butt" />
    <path
       d="M 383.70532,439.66928 H 399.6423 V 451.5748 H 383.70532 Z"
       id="path603"
       inkscape:connector-curvature="0"
       style="fill:#000000;fill-opacity:0;fill-rule:evenodd" />
    <path
       d="M 383.70532,423.66928 H 399.6423 V 435.5748 H 383.70532 Z"
       id="path605"
       inkscape:connector-curvature="0"
       style="fill:#000000;fill-opacity:0;fill-rule:evenodd" />
    <path
       d="M 399.70532,447.66928 H 415.6423 V 459.5748 H 399.70532 Z"
       id="path607"
       inkscape:connector-curvature="0"
       style="fill:#000000;fill-opacity:0;fill-rule:evenodd" />
    <path
       d="M 399.70532,423.66928 H 415.6423 V 435.5748 H 399.70532 Z"
       id="path609"
       inkscape:connector-curvature="0"
       style="fill:#000000;fill-opacity:0;fill-rule:evenodd" />
    <path
       d="m 472.309,447.66928 h 15.93701 V 459.5748 H 472.309 Z"
       id="path611"
       inkscape:connector-curvature="0"
       style="fill:#000000;fill-opacity:0;fill-rule:evenodd" />
    <path
       d="m 472.309,423.66928 h 15.93701 V 435.5748 H 472.309 Z"
       id="path613"
       inkscape:connector-curvature="0"
       style="fill:#000000;fill-opacity:0;fill-rule:evenodd" />
    <path
       d="m 472.13974,447.66928 h 15.93701 v 11.90552 h -15.93701 z"
       id="path615"
       inkscape:connector-curvature="0"
       style="fill:#000000;fill-opacity:0;fill-rule:evenodd" />
    <path
       d="m 472.13974,423.66928 h 15.93701 v 11.90552 h -15.93701 z"
       id="path617"
       inkscape:connector-curvature="0"
       style="fill:#000000;fill-opacity:0;fill-rule:evenodd" />
    <path
       d="m 595.32355,429.6216 h 88.62988"
       id="path619"
       inkscape:connector-curvature="0"
       style="fill:#000000;fill-opacity:0;fill-rule:evenodd" />
    <path
       d="m 595.32355,429.62164 h 76.62988"
       id="path621"
       inkscape:connector-curvature="0"
       style="fill-rule:evenodd;stroke:#595959;stroke-width:2;stroke-linecap:butt;stroke-linejoin:round" />
    <path
       d="m 671.9534,432.9251 9.07623,-3.30347 -9.07623,-3.30346 z"
       id="path623"
       inkscape:connector-curvature="0"
       style="fill:#595959;fill-rule:evenodd;stroke:#595959;stroke-width:2;stroke-linecap:butt" />
    <path
       d="M 683.9521,453.62186 H 595.32216"
       id="path625"
       inkscape:connector-curvature="0"
       style="fill:#000000;fill-opacity:0;fill-rule:evenodd" />
    <path
       d="M 683.9521,453.62186 H 607.32216"
       id="path627"
       inkscape:connector-curvature="0"
       style="fill-rule:evenodd;stroke:#351c75;stroke-width:2;stroke-linecap:butt;stroke-linejoin:round" />
    <path
       d="m 607.32214,450.3184 -9.07617,3.30347 9.07617,3.30343 z"
       id="path629"
       inkscape:connector-curvature="0"
       style="fill:#351c75;fill-rule:evenodd;stroke:#351c75;stroke-width:2;stroke-linecap:butt" />
    <path
       d="m 595.324,453.62186 h 88.62994 v 19.71652 H 595.324 Z"
       id="path631"
       inkscape:connector-curvature="0"
       style="fill:#000000;fill-opacity:0;fill-rule:evenodd" />
    <path
       d="m 628.3477,463.94073 q 0,0.875 0,1.6875 0.0156,0.8125 0.0156,1.60937 h 0.95312 q 1.39063,0 2.125,-0.90625 0.75,-0.90625 0.75,-2.54687 0,-1.6875 -0.73437,-2.5625 -0.71875,-0.89063 -2.03125,-0.89063 h -1.0625 q 0,0.76563 -0.0156,1.5625 0,0.79688 0,1.59375 z m -2.26562,-3.67188 v -0.5 h 3.53125 q 1.15625,0 2.03125,0.46875 0.875,0.45313 1.35937,1.35938 0.5,0.89062 0.5,2.1875 0,1.29687 -0.54687,2.20312 -0.53125,0.89063 -1.46875,1.35938 -0.92188,0.45312 -2.09375,0.45312 h -3.3125 v -0.48437 l 1.09375,-0.14063 q 0.0312,-0.76562 0.0312,-1.5625 0,-0.79687 0,-1.67187 v -0.45313 q 0,-0.78125 0,-1.54687 0,-0.78125 -0.0312,-1.54688 z m 11.2232,2.23438 q -0.34375,0 -0.6875,0.1875 -0.34375,0.1875 -0.59375,0.60937 -0.23437,0.42188 -0.3125,1.10938 h 2.1875 q 0.4375,0 0.5625,-0.17188 0.14063,-0.1875 0.14063,-0.45312 0,-0.34375 -0.17188,-0.625 -0.17187,-0.29688 -0.46875,-0.46875 -0.29687,-0.1875 -0.65625,-0.1875 z m -0.0156,5.45312 q -1.21875,0 -1.95313,-0.78125 -0.71875,-0.79687 -0.71875,-2.17187 0,-0.92188 0.375,-1.60938 0.375,-0.6875 1,-1.0625 0.64063,-0.39062 1.375,-0.39062 0.625,0 1.125,0.28125 0.51563,0.28125 0.8125,0.79687 0.29688,0.5 0.29688,1.23438 0,0.20312 -0.0312,0.375 -0.0156,0.17187 -0.0469,0.29687 h -3.82812 q 0.0156,1.09375 0.54687,1.67188 0.53125,0.57812 1.39063,0.57812 0.57812,0 0.95312,-0.23437 0.39063,-0.23438 0.71875,-0.60938 l 0.28125,0.23438 q -0.32812,0.64062 -0.90625,1.01562 -0.57812,0.375 -1.39062,0.375 z m 6.10437,0 q -1.23438,0 -1.96875,-0.79687 -0.73438,-0.8125 -0.73438,-2.1875 0,-0.95313 0.39063,-1.625 0.39062,-0.6875 1.03125,-1.04688 0.64062,-0.35937 1.35937,-0.35937 0.53125,0 0.98438,0.20312 0.46875,0.20313 0.76562,0.5625 0.29688,0.35938 0.375,0.79688 -0.0937,0.45312 -0.5625,0.45312 -0.29687,0 -0.45312,-0.15625 -0.14063,-0.15625 -0.20313,-0.42187 l -0.21875,-0.78125 q -0.17187,-0.0625 -0.32812,-0.0781 -0.15625,-0.0156 -0.3125,-0.0156 -0.76563,0 -1.26563,0.59375 -0.5,0.59375 -0.5,1.75 0,1.125 0.53125,1.73437 0.54688,0.59375 1.39063,0.59375 0.51562,0 0.9375,-0.23437 0.4375,-0.23438 0.71875,-0.67188 l 0.29687,0.15625 q -0.25,0.73438 -0.8125,1.14063 -0.5625,0.39062 -1.42187,0.39062 z m 6.38031,-7.625 h -1.04688 q 0,0.78125 -0.0156,1.57813 0,0.78125 0,1.625 h 0.92187 q 0.96875,0 1.42188,-0.46875 0.46875,-0.46875 0.46875,-1.1875 0,-0.75 -0.42188,-1.14063 -0.40625,-0.40625 -1.32812,-0.40625 z m -3.32813,-0.0625 v -0.5 h 3.35938 q 1.375,0 2.14062,0.5625 0.76563,0.54688 0.76563,1.54688 0,0.6875 -0.5,1.26562 -0.5,0.57813 -1.51563,0.75 0.53125,0.10938 0.875,0.46875 0.34375,0.35938 0.54688,1.0625 l 0.51562,1.78125 0.92188,0.10938 v 0.48437 q -0.17188,0.0469 -0.40625,0.0781 -0.21875,0.0469 -0.48438,0.0469 -0.5625,0 -0.85937,-0.17187 -0.28125,-0.17188 -0.375,-0.59375 l -0.48438,-1.92188 q -0.10937,-0.5 -0.3125,-0.73437 -0.20312,-0.25 -0.53125,-0.32813 -0.3125,-0.0937 -0.79687,-0.0937 h -0.59375 q 0,0.85938 0,1.625 0.0156,0.75 0.0156,1.46875 l 1.10938,0.14063 v 0.48437 h -3.39063 v -0.48437 l 1.09375,-0.14063 q 0.0312,-0.75 0.0312,-1.53125 0,-0.78125 0,-1.5625 v -0.59375 q 0,-0.78125 0,-1.54687 0,-0.78125 -0.0312,-1.54688 z"
       id="path633"
       inkscape:connector-curvature="0"
       style="fill:#000000;fill-rule:nonzero" />
    <path
       d="m 595.324,409.8104 h 88.62994 v 19.71655 H 595.324 Z"
       id="path635"
       inkscape:connector-curvature="0"
       style="fill:#000000;fill-opacity:0;fill-rule:evenodd" />
    <path
       d="m 624.7801,416.45743 v -0.5 h 5.96875 l 0.0937,2.125 h -0.6875 l -0.26563,-1.51563 h -2.82812 q 0,0.76563 -0.0156,1.53125 0,0.76563 0,1.51563 h 1.85938 l 0.17187,-1.14063 h 0.54688 v 2.95313 h -0.54688 l -0.17187,-1.25 h -1.85938 q 0,0.89062 0,1.67187 0.0156,0.76563 0.0156,1.51563 l 1.125,0.14062 v 0.48438 h -3.40625 v -0.48438 l 1.09375,-0.14062 q 0.0312,-0.75 0.0312,-1.53125 0,-0.78125 0,-1.5625 v -0.59375 q 0,-0.78125 0,-1.54688 0,-0.78125 -0.0312,-1.54687 z m 9.15918,2.23437 q -0.34375,0 -0.6875,0.1875 -0.34375,0.1875 -0.59375,0.60938 -0.23438,0.42187 -0.3125,1.10937 h 2.1875 q 0.4375,0 0.5625,-0.17187 0.14062,-0.1875 0.14062,-0.45313 0,-0.34375 -0.17187,-0.625 -0.17188,-0.29687 -0.46875,-0.46875 -0.29688,-0.1875 -0.65625,-0.1875 z m -0.0156,5.45313 q -1.21875,0 -1.95312,-0.78125 -0.71875,-0.79688 -0.71875,-2.17188 0,-0.92187 0.375,-1.60937 0.375,-0.6875 1,-1.0625 0.64062,-0.39063 1.375,-0.39063 0.625,0 1.125,0.28125 0.51562,0.28125 0.8125,0.79688 0.29687,0.5 0.29687,1.23437 0,0.20313 -0.0312,0.375 -0.0156,0.17188 -0.0469,0.29688 h -3.82813 q 0.0156,1.09375 0.54688,1.67187 0.53125,0.57813 1.39062,0.57813 0.57813,0 0.95313,-0.23438 0.39062,-0.23437 0.71875,-0.60937 l 0.28125,0.23437 q -0.32813,0.64063 -0.90625,1.01563 -0.57813,0.375 -1.39063,0.375 z m 5.35437,0 q -0.60937,0 -0.98437,-0.32813 -0.375,-0.34375 -0.375,-1.04687 0,-0.21875 0,-0.4375 0.0156,-0.23438 0.0156,-0.57813 v -2.82812 h -1 v -0.53125 l 1.0625,-0.125 0.3125,-1.60938 h 0.71875 l -0.0625,1.625 h 1.60938 v 0.64063 h -1.625 v 3.71875 q 0,0.45312 0.17187,0.67187 0.1875,0.20313 0.48438,0.20313 0.20312,0 0.39062,-0.0781 0.1875,-0.0937 0.42188,-0.25 l 0.28125,0.3125 q -0.48438,0.64063 -1.42188,0.64063 z m 1.97815,-7.6875 v -0.5 h 5.96875 l 0.0937,2.125 h -0.6875 l -0.26562,-1.51563 h -2.82813 q 0,0.76563 -0.0156,1.53125 0,0.76563 0,1.51563 h 1.76562 l 0.17188,-1.14063 h 0.54687 v 2.82813 h -0.54687 l -0.15625,-1.125 h -1.78125 q 0,0.89062 0,1.6875 0.0156,0.78125 0.0156,1.53125 h 3.0625 l 0.26563,-1.54688 h 0.6875 l -0.0781,2.14063 h -6.21875 v -0.48438 l 1.09375,-0.14062 q 0.0312,-0.75 0.0312,-1.53125 0,-0.78125 0,-1.5625 v -0.59375 q 0,-0.78125 0,-1.54688 0,-0.78125 -0.0312,-1.54687 z m 10.25171,0.0625 h -0.73437 q 0,0.76562 -0.0156,1.5625 0,0.79687 0,1.59375 v 0.57812 h 0.79688 q 1.09375,0 1.54687,-0.53125 0.46875,-0.53125 0.46875,-1.375 0,-0.875 -0.5,-1.34375 -0.48437,-0.48437 -1.5625,-0.48437 z m -3.01562,-0.0625 v -0.5 h 3.21875 q 1.53125,0 2.28125,0.67187 0.76562,0.65625 0.76562,1.71875 0,0.67188 -0.34375,1.23438 -0.32812,0.5625 -1.0625,0.90625 -0.73437,0.32812 -1.96875,0.32812 h -0.625 q 0,0.65625 0,1.28125 0.0156,0.625 0.0156,1.26563 l 1.125,0.14062 v 0.48438 h -3.40625 v -0.48438 l 1.09375,-0.14062 q 0.0312,-0.75 0.0312,-1.53125 0,-0.78125 0,-1.5625 v -0.59375 q 0,-0.78125 0,-1.54688 0,-0.78125 -0.0312,-1.54687 z"
       id="path637"
       inkscape:connector-curvature="0"
       style="fill:#000000;fill-rule:nonzero" />
    <path
       d="m 595.3235,447.66928 h 15.93701 V 459.5748 H 595.3235 Z"
       id="path639"
       inkscape:connector-curvature="0"
       style="fill:#000000;fill-opacity:0;fill-rule:evenodd" />
    <path
       d="m 595.3235,423.66928 h 15.93701 V 435.5748 H 595.3235 Z"
       id="path641"
       inkscape:connector-curvature="0"
       style="fill:#000000;fill-opacity:0;fill-rule:evenodd" />
    <path
       d="M 595.3235,453.62204 H 488.07939"
       id="path643"
       inkscape:connector-curvature="0"
       style="fill:#000000;fill-opacity:0;fill-rule:evenodd" />
    <path
       d="M 595.3235,453.62204 H 494.07942"
       id="path645"
       inkscape:connector-curvature="0"
       style="fill-rule:evenodd;stroke:#351c75;stroke-width:1;stroke-linecap:butt;stroke-linejoin:round" />
    <path
       d="m 494.0794,451.9703 -4.53812,1.65173 4.53812,1.65174 z"
       id="path647"
       inkscape:connector-curvature="0"
       style="fill:#351c75;fill-rule:evenodd;stroke:#351c75;stroke-width:1;stroke-linecap:butt" />
    <path
       d="m 403.87595,388.0315 h 80.22046 v 19.71652 h -80.22046 z"
       id="path649"
       inkscape:connector-curvature="0"
       style="fill:#000000;fill-opacity:0;fill-rule:evenodd" />
    <path
       d="m 430.9449,394.13852 v -0.6875 h 4.35938 v 0.70313 l -1.32813,0.15625 2.23438,6.54687 2.23437,-6.54687 -1.23437,-0.15625 v -0.70313 h 3.28125 v 0.6875 l -1.1875,0.17188 -3.0625,8.92187 h -1.01563 l -3.28125,-8.98437 z m 9.21112,9.03125 v -0.59375 l 0.9375,-0.1875 q 0.0156,-0.54687 0.0156,-1.1875 0,-0.64062 0,-1.10937 v -0.78125 q 0,-0.59375 -0.0156,-0.95313 0,-0.35937 -0.0312,-0.79687 l -1.03125,-0.14063 v -0.54687 l 2.45313,-0.92188 0.23437,0.14063 0.14063,1.73437 q 0.34375,-0.92187 0.90625,-1.39062 0.57812,-0.48438 1.15625,-0.48438 0.39062,0 0.71875,0.20313 0.32812,0.20312 0.4375,0.57812 -0.0156,0.54688 -0.26563,0.84375 -0.25,0.29688 -0.6875,0.29688 -0.53125,0 -1,-0.51563 l -0.125,-0.15625 q -0.78125,0.65625 -1.125,1.82813 v 1.0625 q 0,0.45312 0,1.07812 0,0.625 0.0156,1.17188 l 1.20312,0.23437 v 0.59375 z m 12.09387,-9.03125 v -0.6875 h 4.35938 v 0.6875 l -1.21875,0.14063 q -0.0156,0.90625 -0.0312,1.84375 0,0.92187 0,1.875 v 0.625 q 0,0.92187 0,1.85937 0.0156,0.92188 0.0312,1.85938 l 1.21875,0.14062 v 0.6875 h -4.35938 v -0.6875 l 1.1875,-0.14062 q 0.0312,-0.92188 0.0312,-1.875 0,-0.95313 0,-1.90625 h -3.98437 q 0,1.0625 0,1.98437 0.0156,0.92188 0.0312,1.79688 l 1.20312,0.14062 v 0.6875 h -4.35937 v -0.6875 l 1.20312,-0.14062 q 0.0312,-0.90625 0.0312,-1.84375 0,-0.9375 0,-1.875 v -0.625 q 0,-0.92188 0,-1.84375 0,-0.9375 -0.0312,-1.875 l -1.20312,-0.14063 v -0.6875 h 4.35937 v 0.6875 l -1.20312,0.14063 q -0.0156,0.90625 -0.0312,1.8125 0,0.90625 0,1.71875 h 3.98437 q 0,-0.90625 0,-1.78125 0,-0.89063 -0.0312,-1.75 z"
       id="path651"
       inkscape:connector-curvature="0"
       style="fill:#000000;fill-rule:nonzero" />
    <path
       d="m 599.474,388.0315 h 80.22052 v 19.71652 H 599.474 Z"
       id="path653"
       inkscape:connector-curvature="0"
       style="fill:#000000;fill-opacity:0;fill-rule:evenodd" />
    <path
       d="m 626.54297,394.13852 v -0.6875 h 4.35937 v 0.70313 l -1.32812,0.15625 2.23437,6.54687 2.23438,-6.54687 -1.23438,-0.15625 v -0.70313 h 3.28125 v 0.6875 l -1.1875,0.17188 -3.0625,8.92187 h -1.01562 l -3.28125,-8.98437 z m 9.21112,9.03125 v -0.59375 l 0.9375,-0.1875 q 0.0156,-0.54687 0.0156,-1.1875 0,-0.64062 0,-1.10937 v -0.78125 q 0,-0.59375 -0.0156,-0.95313 0,-0.35937 -0.0312,-0.79687 l -1.03125,-0.14063 v -0.54687 l 2.45313,-0.92188 0.23437,0.14063 0.14063,1.73437 q 0.34375,-0.92187 0.90625,-1.39062 0.57812,-0.48438 1.15625,-0.48438 0.39062,0 0.71875,0.20313 0.32812,0.20312 0.4375,0.57812 -0.0156,0.54688 -0.26563,0.84375 -0.25,0.29688 -0.6875,0.29688 -0.53125,0 -1,-0.51563 l -0.125,-0.15625 q -0.78125,0.65625 -1.125,1.82813 v 1.0625 q 0,0.45312 0,1.07812 0,0.625 0.0156,1.17188 l 1.20312,0.23437 v 0.59375 z m 12.09387,-9.03125 v -0.6875 h 4.35938 v 0.6875 l -1.21875,0.14063 q -0.0156,0.90625 -0.0312,1.84375 0,0.92187 0,1.875 v 0.625 q 0,0.92187 0,1.85937 0.0156,0.92188 0.0312,1.85938 l 1.21875,0.14062 v 0.6875 h -4.35938 v -0.6875 l 1.1875,-0.14062 q 0.0312,-0.92188 0.0312,-1.875 0,-0.95313 0,-1.90625 h -3.98437 q 0,1.0625 0,1.98437 0.0156,0.92188 0.0312,1.79688 l 1.20312,0.14062 v 0.6875 h -4.35937 v -0.6875 l 1.20312,-0.14062 q 0.0312,-0.90625 0.0312,-1.84375 0,-0.9375 0,-1.875 v -0.625 q 0,-0.92188 0,-1.84375 0,-0.9375 -0.0312,-1.875 l -1.20312,-0.14063 v -0.6875 h 4.35937 v 0.6875 l -1.20312,0.14063 q -0.0156,0.90625 -0.0312,1.8125 0,0.90625 0,1.71875 h 3.98437 q 0,-0.90625 0,-1.78125 0,-0.89063 -0.0312,-1.75 z"
       id="path655"
       inkscape:connector-curvature="0"
       style="fill:#000000;fill-rule:nonzero" />
    <path
       d="M 203.84781,429.62204 H 328.63519"
       id="path657"
       inkscape:connector-curvature="0"
       style="fill:#000000;fill-opacity:0;fill-rule:evenodd" />
    <path
       d="M 203.84781,429.62204 H 316.63522"
       id="path659"
       inkscape:connector-curvature="0"
       style="fill-rule:evenodd;stroke:#595959;stroke-width:2;stroke-linecap:butt;stroke-linejoin:round" />
    <path
       d="m 316.63522,432.9255 9.07617,-3.30347 -9.07617,-3.30346 z"
       id="path661"
       inkscape:connector-curvature="0"
       style="fill:#595959;fill-rule:evenodd;stroke:#595959;stroke-width:2;stroke-linecap:butt" />
    <path
       d="M 328.63455,453.62204 H 203.84717"
       id="path663"
       inkscape:connector-curvature="0"
       style="fill:#000000;fill-opacity:0;fill-rule:evenodd" />
    <path
       d="M 328.63455,453.62204 H 215.84715"
       id="path665"
       inkscape:connector-curvature="0"
       style="fill-rule:evenodd;stroke:#351c75;stroke-width:2;stroke-linecap:butt;stroke-linejoin:round" />
    <path
       d="m 215.84715,450.31857 -9.07619,3.30347 9.07619,3.30346 z"
       id="path667"
       inkscape:connector-curvature="0"
       style="fill:#351c75;fill-rule:evenodd;stroke:#351c75;stroke-width:2;stroke-linecap:butt" />
    <path
       d="m 203.84845,453.62204 h 124.78738 v 19.71655 H 203.84845 Z"
       id="path669"
       inkscape:connector-curvature="0"
       style="fill:#000000;fill-opacity:0;fill-rule:evenodd" />
    <path
       d="m 215.53766,464.45657 q 0,0.96875 0.15625,1.8125 0.17187,0.82812 0.57812,1.6875 0.40625,0.85937 1.10938,1.875 l -0.3125,0.26562 q -1.26563,-1.1875 -1.89063,-2.57812 -0.60937,-1.40625 -0.60937,-3.0625 0,-1.64063 0.60937,-3.03125 0.625,-1.40625 1.89063,-2.59375 l 0.3125,0.26562 q -0.70313,1.01563 -1.10938,1.875 -0.40625,0.85938 -0.57812,1.70313 -0.15625,0.82812 -0.15625,1.78125 z m 6.15614,3.53125 q -0.70312,0 -1.35937,-0.26563 -0.65625,-0.28125 -1.1875,-0.8125 -0.53125,-0.53125 -0.84375,-1.3125 -0.29688,-0.78125 -0.29688,-1.8125 0,-0.98437 0.3125,-1.76562 0.3125,-0.78125 0.82813,-1.3125 0.53125,-0.54688 1.1875,-0.82813 0.65625,-0.28125 1.35937,-0.28125 0.6875,0 1.34375,0.26563 0.65625,0.26562 1.17188,0.79687 0.53125,0.53125 0.84375,1.3125 0.3125,0.78125 0.3125,1.8125 0,0.98438 -0.3125,1.76563 -0.29688,0.78125 -0.82813,1.32812 -0.51562,0.53125 -1.1875,0.82813 -0.65625,0.28125 -1.34375,0.28125 z m 0,-0.60938 q 0.625,0 1.0625,-0.29687 0.45313,-0.3125 0.73438,-0.8125 0.29687,-0.51563 0.42187,-1.15625 0.125,-0.65625 0.125,-1.32813 0,-0.67187 -0.125,-1.3125 -0.125,-0.64062 -0.42187,-1.15625 -0.28125,-0.53125 -0.73438,-0.82812 -0.4375,-0.29688 -1.0625,-0.29688 -0.625,0 -1.07812,0.29688 -0.45313,0.29687 -0.75,0.82812 -0.28125,0.51563 -0.42188,1.15625 -0.125,0.64063 -0.125,1.3125 0,0.67188 0.125,1.32813 0.14063,0.64062 0.42188,1.15625 0.29687,0.5 0.75,0.8125 0.45312,0.29687 1.07812,0.29687 z m 4.65593,3.29688 v -0.42188 l 0.95313,-0.17187 q 0.0156,-0.5 0.0156,-0.98438 0.0156,-0.48437 0.0156,-0.95312 v -3.4375 q 0,-0.5 -0.0156,-0.8125 0,-0.32813 -0.0156,-0.6875 l -0.95313,-0.10938 v -0.42187 l 1.67188,-0.73438 0.1875,0.125 0.0781,0.78125 q 0.84375,-0.90625 1.79688,-0.90625 0.65625,0 1.17187,0.35938 0.51563,0.35937 0.8125,1.03125 0.3125,0.67187 0.3125,1.59375 0,0.9375 -0.32812,1.60937 -0.3125,0.67188 -0.875,1.04688 -0.5625,0.375 -1.26563,0.375 -0.40625,0 -0.8125,-0.17188 -0.40625,-0.17187 -0.78125,-0.60937 v 0.95312 q 0,0.46875 0,0.95313 0.0156,0.5 0.0156,0.98437 l 1.09375,0.1875 v 0.42188 z m 3.45313,-8.04688 q -0.28125,0 -0.64063,0.14063 -0.35937,0.14062 -0.8125,0.51562 v 3.375 q 0.34375,0.32813 0.65625,0.46875 0.32813,0.14063 0.67188,0.14063 0.67187,0 1.14062,-0.53125 0.48438,-0.54688 0.48438,-1.70313 0,-1.15625 -0.42188,-1.78125 -0.42187,-0.625 -1.07812,-0.625 z m 5.45418,5.32813 q -0.60938,0 -0.98438,-0.32813 -0.375,-0.34375 -0.375,-1.04687 0,-0.21875 0,-0.4375 0.0156,-0.23438 0.0156,-0.57813 v -2.82812 h -1 v -0.53125 l 1.0625,-0.125 0.3125,-1.60938 h 0.71875 l -0.0625,1.625 h 1.60937 v 0.64063 h -1.625 v 3.71875 q 0,0.45312 0.17188,0.67187 0.1875,0.20313 0.48437,0.20313 0.20313,0 0.39063,-0.0781 0.1875,-0.0937 0.42187,-0.25 l 0.28125,0.3125 q -0.48437,0.64063 -1.42187,0.64063 z m 2.1344,-3.82813 v -0.5625 l 4.64062,-2.70312 0.35938,0.65625 -4.15625,2.32812 4.15625,2.32813 -0.35938,0.65625 z m 6.21579,-3.85937 v -0.5 h 5.96875 l 0.0937,2.125 h -0.6875 l -0.26563,-1.51563 h -2.82812 q 0,0.76563 -0.0156,1.53125 0,0.76563 0,1.51563 h 1.85938 l 0.17187,-1.14063 h 0.54688 v 2.95313 h -0.54688 l -0.17187,-1.25 h -1.85938 q 0,0.89062 0,1.67187 0.0156,0.76563 0.0156,1.51563 l 1.125,0.14062 v 0.48438 h -3.40625 v -0.48438 l 1.09375,-0.14062 q 0.0312,-0.75 0.0312,-1.53125 0,-0.78125 0,-1.5625 v -0.59375 q 0,-0.78125 0,-1.54688 0,-0.78125 -0.0312,-1.54687 z m 9.15916,2.23437 q -0.34375,0 -0.6875,0.1875 -0.34375,0.1875 -0.59375,0.60938 -0.23438,0.42187 -0.3125,1.10937 h 2.1875 q 0.4375,0 0.5625,-0.17187 0.14062,-0.1875 0.14062,-0.45313 0,-0.34375 -0.17187,-0.625 -0.17188,-0.29687 -0.46875,-0.46875 -0.29688,-0.1875 -0.65625,-0.1875 z m -0.0156,5.45313 q -1.21875,0 -1.95312,-0.78125 -0.71875,-0.79688 -0.71875,-2.17188 0,-0.92187 0.375,-1.60937 0.375,-0.6875 1,-1.0625 0.64062,-0.39063 1.375,-0.39063 0.625,0 1.125,0.28125 0.51562,0.28125 0.8125,0.79688 0.29687,0.5 0.29687,1.23437 0,0.20313 -0.0312,0.375 -0.0156,0.17188 -0.0469,0.29688 h -3.82813 q 0.0156,1.09375 0.54688,1.67187 0.53125,0.57813 1.39062,0.57813 0.57813,0 0.95313,-0.23438 0.39062,-0.23437 0.71875,-0.60937 l 0.28125,0.23437 q -0.32813,0.64063 -0.90625,1.01563 -0.57813,0.375 -1.39063,0.375 z m 5.35444,0 q -0.60938,0 -0.98438,-0.32813 -0.375,-0.34375 -0.375,-1.04687 0,-0.21875 0,-0.4375 0.0156,-0.23438 0.0156,-0.57813 v -2.82812 h -1.00002 v -0.53125 l 1.06252,-0.125 0.3125,-1.60938 h 0.71875 l -0.0625,1.625 h 1.60937 v 0.64063 h -1.625 v 3.71875 q 0,0.45312 0.17188,0.67187 0.1875,0.20313 0.48437,0.20313 0.20313,0 0.39063,-0.0781 0.1875,-0.0937 0.42187,-0.25 l 0.28125,0.3125 q -0.48437,0.64063 -1.42187,0.64063 z m 1.97814,-7.6875 v -0.5 h 5.96875 l 0.0937,2.125 h -0.6875 l -0.26562,-1.51563 h -2.82813 q 0,0.76563 -0.0156,1.53125 0,0.76563 0,1.51563 h 1.76562 l 0.17188,-1.14063 h 0.54687 v 2.82813 h -0.54687 l -0.15625,-1.125 h -1.78125 q 0,0.89062 0,1.6875 0.0156,0.78125 0.0156,1.53125 h 3.0625 l 0.26563,-1.54688 h 0.6875 l -0.0781,2.14063 h -6.21875 v -0.48438 l 1.09375,-0.14062 q 0.0312,-0.75 0.0312,-1.53125 0,-0.78125 0,-1.5625 v -0.59375 q 0,-0.78125 0,-1.54688 0,-0.78125 -0.0312,-1.54687 z m 10.25168,0.0625 h -0.73437 q 0,0.76562 -0.0156,1.5625 0,0.79687 0,1.59375 v 0.57812 h 0.79688 q 1.09375,0 1.54687,-0.53125 0.46875,-0.53125 0.46875,-1.375 0,-0.875 -0.5,-1.34375 -0.48437,-0.48437 -1.5625,-0.48437 z m -3.01562,-0.0625 v -0.5 h 3.21875 q 1.53125,0 2.28125,0.67187 0.76562,0.65625 0.76562,1.71875 0,0.67188 -0.34375,1.23438 -0.32812,0.5625 -1.0625,0.90625 -0.73437,0.32812 -1.96875,0.32812 h -0.625 q 0,0.65625 0,1.28125 0.0156,0.625 0.0156,1.26563 l 1.125,0.14062 v 0.48438 h -3.40625 v -0.48438 l 1.09375,-0.14062 q 0.0312,-0.75 0.0312,-1.53125 0,-0.78125 0,-1.5625 v -0.59375 q 0,-0.78125 0,-1.54688 0,-0.78125 -0.0312,-1.54687 z m 12.2243,3.29687 v 0.5625 l -4.64062,2.70313 -0.35938,-0.65625 4.15625,-2.32813 -4.15625,-2.32812 0.35938,-0.65625 z m 3.24704,3.89063 q 0,0.71875 -0.34375,1.32812 -0.34375,0.60938 -0.875,1.04688 -0.53125,0.4375 -1.10937,0.65625 l -0.15625,-0.40625 q 0.60937,-0.3125 1.07812,-0.76563 0.46875,-0.4375 0.6875,-1.10937 l -0.45312,-0.34375 q -0.23438,-0.1875 -0.34375,-0.40625 -0.10938,-0.23438 -0.10938,-0.45313 0,-0.3125 0.1875,-0.53125 0.1875,-0.23437 0.5625,-0.23437 0.15625,0 0.32813,0.0781 0.1875,0.0625 0.40625,0.26563 0.0781,0.23437 0.10937,0.45312 0.0312,0.20313 0.0312,0.42188 z m 6.6304,-3.51563 q 0,0.875 0,1.6875 0.0156,0.8125 0.0156,1.60938 h 0.95312 q 1.39063,0 2.125,-0.90625 0.75,-0.90625 0.75,-2.54688 0,-1.6875 -0.73437,-2.5625 -0.71875,-0.89062 -2.03125,-0.89062 h -1.0625 q 0,0.76562 -0.0156,1.5625 0,0.79687 0,1.59375 z m -2.26562,-3.67187 v -0.5 h 3.53125 q 1.15625,0 2.03125,0.46875 0.875,0.45312 1.35937,1.35937 0.5,0.89063 0.5,2.1875 0,1.29688 -0.54687,2.20313 -0.53125,0.89062 -1.46875,1.35937 -0.92188,0.45313 -2.09375,0.45313 h -3.3125 v -0.48438 l 1.09375,-0.14062 q 0.0312,-0.76563 0.0312,-1.5625 0,-0.79688 0,-1.67188 v -0.45312 q 0,-0.78125 0,-1.54688 0,-0.78125 -0.0312,-1.54687 z m 11.2232,2.23437 q -0.34375,0 -0.6875,0.1875 -0.34375,0.1875 -0.59375,0.60938 -0.23437,0.42187 -0.3125,1.10937 h 2.1875 q 0.4375,0 0.5625,-0.17187 0.14063,-0.1875 0.14063,-0.45313 0,-0.34375 -0.17188,-0.625 -0.17187,-0.29687 -0.46875,-0.46875 -0.29687,-0.1875 -0.65625,-0.1875 z m -0.0156,5.45313 q -1.21875,0 -1.95313,-0.78125 -0.71875,-0.79688 -0.71875,-2.17188 0,-0.92187 0.375,-1.60937 0.375,-0.6875 1,-1.0625 0.64063,-0.39063 1.375,-0.39063 0.625,0 1.125,0.28125 0.51563,0.28125 0.8125,0.79688 0.29688,0.5 0.29688,1.23437 0,0.20313 -0.0312,0.375 -0.0156,0.17188 -0.0469,0.29688 h -3.82812 q 0.0156,1.09375 0.54687,1.67187 0.53125,0.57813 1.39063,0.57813 0.57812,0 0.95312,-0.23438 0.39063,-0.23437 0.71875,-0.60937 l 0.28125,0.23437 q -0.32812,0.64063 -0.90625,1.01563 -0.57812,0.375 -1.39062,0.375 z m 6.1044,0 q -1.23438,0 -1.96875,-0.79688 -0.73438,-0.8125 -0.73438,-2.1875 0,-0.95312 0.39063,-1.625 0.39062,-0.6875 1.03125,-1.04687 0.64062,-0.35938 1.35937,-0.35938 0.53125,0 0.98438,0.20313 0.46875,0.20312 0.76562,0.5625 0.29688,0.35937 0.375,0.79687 -0.0937,0.45313 -0.5625,0.45313 -0.29687,0 -0.45312,-0.15625 -0.14063,-0.15625 -0.20313,-0.42188 l -0.21875,-0.78125 q -0.17187,-0.0625 -0.32812,-0.0781 -0.15625,-0.0156 -0.3125,-0.0156 -0.76563,0 -1.26563,0.59375 -0.5,0.59375 -0.5,1.75 0,1.125 0.53125,1.73438 0.54688,0.59375 1.39063,0.59375 0.51562,0 0.9375,-0.23438 0.4375,-0.23437 0.71875,-0.67187 l 0.29687,0.15625 q -0.25,0.73437 -0.8125,1.14062 -0.5625,0.39063 -1.42187,0.39063 z m 6.38031,-7.625 h -1.04688 q 0,0.78125 -0.0156,1.57812 0,0.78125 0,1.625 h 0.92187 q 0.96875,0 1.42188,-0.46875 0.46875,-0.46875 0.46875,-1.1875 0,-0.75 -0.42188,-1.14062 -0.40625,-0.40625 -1.32812,-0.40625 z m -3.32813,-0.0625 v -0.5 h 3.35938 q 1.375,0 2.14062,0.5625 0.76563,0.54687 0.76563,1.54687 0,0.6875 -0.5,1.26563 -0.5,0.57812 -1.51563,0.75 0.53125,0.10937 0.875,0.46875 0.34375,0.35937 0.54688,1.0625 l 0.51562,1.78125 0.92188,0.10937 v 0.48438 q -0.17188,0.0469 -0.40625,0.0781 -0.21875,0.0469 -0.48438,0.0469 -0.5625,0 -0.85937,-0.17188 -0.28125,-0.17187 -0.375,-0.59375 l -0.48438,-1.92187 q -0.10937,-0.5 -0.3125,-0.73438 -0.20312,-0.25 -0.53125,-0.32812 -0.3125,-0.0937 -0.79687,-0.0937 h -0.59375 q 0,0.85937 0,1.625 0.0156,0.75 0.0156,1.46875 l 1.10938,0.14062 v 0.48438 h -3.39063 v -0.48438 l 1.09375,-0.14062 q 0.0312,-0.75 0.0312,-1.53125 0,-0.78125 0,-1.5625 v -0.59375 q 0,-0.78125 0,-1.54688 0,-0.78125 -0.0312,-1.54687 z m 9.42142,4.1875 q 0,-0.95313 -0.17187,-1.78125 -0.15625,-0.84375 -0.5625,-1.70313 -0.39063,-0.85937 -1.10938,-1.875 l 0.3125,-0.26562 q 1.28125,1.1875 1.89063,2.59375 0.60937,1.39062 0.60937,3.03125 0,1.65625 -0.60937,3.0625 -0.60938,1.39062 -1.89063,2.57812 l -0.3125,-0.26562 q 0.71875,-1.01563 1.10938,-1.875 0.40625,-0.85938 0.5625,-1.6875 0.17187,-0.84375 0.17187,-1.8125 z"
       id="path671"
       inkscape:connector-curvature="0"
       style="fill:#000000;fill-rule:nonzero" />
    <path
       d="m 203.84845,409.81104 h 124.78738 v 19.71652 H 203.84845 Z"
       id="path673"
       inkscape:connector-curvature="0"
       style="fill:#000000;fill-opacity:0;fill-rule:evenodd" />
    <path
       d="m 251.38329,416.45804 v -0.5 h 5.96877 l 0.0937,2.125 h -0.6875 l -0.26563,-1.51563 h -2.82814 q 0,0.76563 -0.0156,1.53125 0,0.76563 0,1.51563 h 1.85938 l 0.17187,-1.14063 h 0.5469 v 2.95313 h -0.5469 l -0.17187,-1.25 h -1.85938 q 0,0.89062 0,1.67187 0.0156,0.76563 0.0156,1.51563 l 1.125,0.14062 v 0.48438 h -3.40625 v -0.48438 l 1.09375,-0.14062 q 0.0312,-0.75 0.0312,-1.53125 0,-0.78125 0,-1.5625 v -0.59375 q 0,-0.78125 0,-1.54688 0,-0.78125 -0.0312,-1.54687 z m 9.15916,2.23437 q -0.34375,0 -0.6875,0.1875 -0.34375,0.1875 -0.59375,0.60938 -0.23437,0.42187 -0.3125,1.10937 h 2.1875 q 0.4375,0 0.5625,-0.17187 0.14063,-0.1875 0.14063,-0.45313 0,-0.34375 -0.17188,-0.625 -0.17187,-0.29687 -0.46875,-0.46875 -0.29687,-0.1875 -0.65625,-0.1875 z m -0.0156,5.45313 q -1.21875,0 -1.95313,-0.78125 -0.71875,-0.79688 -0.71875,-2.17188 0,-0.92187 0.375,-1.60937 0.375,-0.6875 1,-1.0625 0.64063,-0.39063 1.375,-0.39063 0.625,0 1.125,0.28125 0.51563,0.28125 0.8125,0.79688 0.29688,0.5 0.29688,1.23437 0,0.20313 -0.0312,0.375 -0.0156,0.17188 -0.0469,0.29688 h -3.82812 q 0.0156,1.09375 0.54687,1.67187 0.53125,0.57813 1.39063,0.57813 0.57812,0 0.95312,-0.23438 0.39063,-0.23437 0.71875,-0.60937 l 0.28125,0.23437 q -0.32812,0.64063 -0.90625,1.01563 -0.57812,0.375 -1.39062,0.375 z m 5.35443,0 q -0.60938,0 -0.98438,-0.32813 -0.375,-0.34375 -0.375,-1.04687 0,-0.21875 0,-0.4375 0.0156,-0.23438 0.0156,-0.57813 v -2.82812 h -1 v -0.53125 l 1.0625,-0.125 0.3125,-1.60938 h 0.71875 l -0.0625,1.625 h 1.60937 v 0.64063 h -1.625 v 3.71875 q 0,0.45312 0.17188,0.67187 0.1875,0.20313 0.48437,0.20313 0.20313,0 0.39063,-0.0781 0.1875,-0.0937 0.42187,-0.25 l 0.28125,0.3125 q -0.48437,0.64063 -1.42187,0.64063 z m 1.97815,-7.6875 v -0.5 h 5.96875 l 0.0937,2.125 h -0.6875 l -0.26563,-1.51563 h -2.82812 q 0,0.76563 -0.0156,1.53125 0,0.76563 0,1.51563 h 1.76563 l 0.17187,-1.14063 h 0.54688 v 2.82813 h -0.54688 l -0.15625,-1.125 h -1.78125 q 0,0.89062 0,1.6875 0.0156,0.78125 0.0156,1.53125 h 3.0625 l 0.26562,-1.54688 h 0.6875 l -0.0781,2.14063 h -6.21875 v -0.48438 l 1.09375,-0.14062 q 0.0312,-0.75 0.0312,-1.53125 0,-0.78125 0,-1.5625 v -0.59375 q 0,-0.78125 0,-1.54688 0,-0.78125 -0.0312,-1.54687 z m 10.25168,0.0625 h -0.73438 q 0,0.76562 -0.0156,1.5625 0,0.79687 0,1.59375 v 0.57812 h 0.79687 q 1.09375,0 1.54688,-0.53125 0.46875,-0.53125 0.46875,-1.375 0,-0.875 -0.5,-1.34375 -0.48438,-0.48437 -1.5625,-0.48437 z m -3.01563,-0.0625 v -0.5 h 3.21875 q 1.53125,0 2.28125,0.67187 0.76563,0.65625 0.76563,1.71875 0,0.67188 -0.34375,1.23438 -0.32813,0.5625 -1.0625,0.90625 -0.73438,0.32812 -1.96875,0.32812 h -0.625 q 0,0.65625 0,1.28125 0.0156,0.625 0.0156,1.26563 l 1.125,0.14062 v 0.48438 h -3.40625 v -0.48438 l 1.09375,-0.14062 q 0.0312,-0.75 0.0312,-1.53125 0,-0.78125 0,-1.5625 v -0.59375 q 0,-0.78125 0,-1.54688 0,-0.78125 -0.0312,-1.54687 z"
       id="path675"
       inkscape:connector-curvature="0"
       style="fill:#000000;fill-rule:nonzero" />
    <path
       d="m 209.6916,388.03232 h 112.94487 v 19.71655 H 209.6916 Z"
       id="path677"
       inkscape:connector-curvature="0"
       style="fill:#000000;fill-opacity:0;fill-rule:evenodd" />
    <path
       d="m 253.12276,394.13934 v -0.6875 h 4.35939 v 0.70312 l -1.32812,0.15625 2.23437,6.54688 2.23438,-6.54688 -1.23438,-0.15625 v -0.70312 h 3.28125 v 0.6875 l -1.1875,0.17187 -3.0625,8.92188 h -1.01562 l -3.28127,-8.98438 z m 9.21114,9.03125 v -0.59375 l 0.9375,-0.1875 q 0.0156,-0.54688 0.0156,-1.1875 0,-0.64063 0,-1.10938 v -0.78125 q 0,-0.59375 -0.0156,-0.95312 0,-0.35938 -0.0312,-0.79688 l -1.03125,-0.14062 v -0.54688 l 2.45312,-0.92187 0.23438,0.14062 0.14062,1.73438 q 0.34375,-0.92188 0.90625,-1.39063 0.57813,-0.48437 1.15625,-0.48437 0.39063,0 0.71875,0.20312 0.32813,0.20313 0.4375,0.57813 -0.0156,0.54687 -0.26562,0.84375 -0.25,0.29687 -0.6875,0.29687 -0.53125,0 -1,-0.51562 l -0.125,-0.15625 q -0.78125,0.65625 -1.125,1.82812 v 1.0625 q 0,0.45313 0,1.07813 0,0.625 0.0156,1.17187 l 1.20313,0.23438 v 0.59375 z m 12.09384,-9.03125 v -0.6875 h 4.35937 v 0.6875 l -1.21875,0.14062 q -0.0156,0.90625 -0.0312,1.84375 0,0.92188 0,1.875 v 0.625 q 0,0.92188 0,1.85938 0.0156,0.92187 0.0312,1.85937 l 1.21875,0.14063 v 0.6875 h -4.35937 v -0.6875 l 1.1875,-0.14063 q 0.0312,-0.92187 0.0312,-1.875 0,-0.95312 0,-1.90625 h -3.98438 q 0,1.0625 0,1.98438 0.0156,0.92187 0.0312,1.79687 l 1.20313,0.14063 v 0.6875 h -4.35938 v -0.6875 l 1.20313,-0.14063 q 0.0312,-0.90625 0.0312,-1.84375 0,-0.9375 0,-1.875 v -0.625 q 0,-0.92187 0,-1.84375 0,-0.9375 -0.0312,-1.875 l -1.20313,-0.14062 v -0.6875 h 4.35938 v 0.6875 l -1.20313,0.14062 q -0.0156,0.90625 -0.0312,1.8125 0,0.90625 0,1.71875 h 3.98438 q 0,-0.90625 0,-1.78125 0,-0.89062 -0.0312,-1.75 z"
       id="path679"
       inkscape:connector-curvature="0"
       style="fill:#000000;fill-rule:nonzero" />
    <path
       d="m 504.35434,418.76126 v 0 c 0,-2.99774 2.43015,-5.42792 5.42792,-5.42792 h 64.01028 c 1.43958,0 2.82019,0.57187 3.83814,1.58982 1.01794,1.01791 1.58978,2.39852 1.58978,3.8381 v 21.71109 c 0,2.99774 -2.43018,5.42792 -5.42792,5.42792 h -64.01028 c -2.99777,0 -5.42792,-2.43018 -5.42792,-5.42792 z"
       id="path681"
       inkscape:connector-curvature="0"
       style="fill:#d9d9d9;fill-rule:evenodd" />
    <path
       d="m 504.35434,418.76126 v 0 c 0,-2.99774 2.43015,-5.42792 5.42792,-5.42792 h 64.01028 c 1.43958,0 2.82019,0.57187 3.83814,1.58982 1.01794,1.01791 1.58978,2.39852 1.58978,3.8381 v 21.71109 c 0,2.99774 -2.43018,5.42792 -5.42792,5.42792 h -64.01028 c -2.99777,0 -5.42792,-2.43018 -5.42792,-5.42792 z"
       id="path683"
       inkscape:connector-curvature="0"
       style="fill-rule:evenodd;stroke:#595959;stroke-width:1;stroke-linecap:butt;stroke-linejoin:round" />
    <path
       d="m 525.4903,424.3243 q 0,1.17187 0.46875,1.73437 0.46875,0.54688 1.1875,0.54688 0.40625,0 0.70313,-0.15625 0.3125,-0.17188 0.64062,-0.53125 v -3.32813 q -0.40625,-0.35937 -0.73437,-0.48437 -0.3125,-0.14063 -0.60938,-0.14063 -0.45312,0 -0.82812,0.25 -0.375,0.23438 -0.60938,0.76563 -0.21875,0.51562 -0.21875,1.34375 z m 3.125,2.9375 -0.0781,-0.82813 q -0.3125,0.40625 -0.71875,0.64063 -0.40625,0.21875 -0.96875,0.21875 -0.73438,0 -1.28125,-0.375 -0.54688,-0.375 -0.85938,-1.03125 -0.29687,-0.67188 -0.29687,-1.54688 0,-0.92187 0.32812,-1.60937 0.34375,-0.6875 0.90625,-1.0625 0.57813,-0.39063 1.3125,-0.39063 0.42188,0 0.8125,0.17188 0.39063,0.17187 0.76563,0.60937 v -2.70312 l -1.03125,-0.125 v -0.42188 l 1.875,-0.54687 0.17187,0.10937 -0.0469,1.70313 v 6.48437 l 0.96875,0.14063 v 0.4375 z m 2.55402,-0.125 v -0.4375 l 0.875,-0.15625 q 0,-0.45313 0,-0.98438 0.0156,-0.53125 0.0156,-0.9375 v -0.57812 q 0,-0.5 -0.0156,-0.8125 0,-0.32813 -0.0156,-0.6875 l -0.95312,-0.10938 v -0.42187 l 1.6875,-0.73438 0.17187,0.125 0.14063,1.42188 q 0.29687,-0.73438 0.76562,-1.14063 0.46875,-0.40625 0.95313,-0.40625 0.28125,0 0.51562,0.125 0.25,0.125 0.34375,0.32813 0,0.875 -0.70312,0.875 -0.20313,0 -0.39063,-0.0781 -0.17187,-0.0781 -0.34375,-0.23437 l -0.14062,-0.125 q -0.35938,0.26562 -0.60938,0.65625 -0.23437,0.375 -0.39062,0.89062 v 0.90625 q 0,0.39063 0,0.92188 0.0156,0.53125 0.0312,0.98437 l 0.98437,0.17188 v 0.4375 z m 7.7373,0.15625 q -0.6875,0 -1.32812,-0.32813 -0.625,-0.32812 -1.01563,-1 -0.39062,-0.67187 -0.39062,-1.64062 0,-1 0.39062,-1.67188 0.39063,-0.6875 1.01563,-1.03125 0.64062,-0.34375 1.32812,-0.34375 0.70313,0 1.32813,0.34375 0.64062,0.34375 1.03125,1.03125 0.40625,0.67188 0.40625,1.67188 0,0.96875 -0.40625,1.64062 -0.39063,0.67188 -1.03125,1 -0.625,0.32813 -1.32813,0.32813 z m 0,-0.54688 q 0.78125,0 1.20313,-0.60937 0.42187,-0.625 0.42187,-1.8125 0,-1.21875 -0.42187,-1.84375 -0.42188,-0.64063 -1.20313,-0.64063 -0.76562,0 -1.1875,0.64063 -0.40625,0.625 -0.40625,1.84375 0,1.1875 0.40625,1.8125 0.42188,0.60937 1.1875,0.60937 z m 3.60864,3.26563 v -0.42188 l 0.95313,-0.17187 q 0.0156,-0.5 0.0156,-0.98438 0.0156,-0.48437 0.0156,-0.95312 v -3.4375 q 0,-0.5 -0.0156,-0.8125 0,-0.32813 -0.0156,-0.6875 l -0.95313,-0.10938 v -0.42187 l 1.67188,-0.73438 0.1875,0.125 0.0781,0.78125 q 0.84375,-0.90625 1.79688,-0.90625 0.65625,0 1.17187,0.35938 0.51563,0.35937 0.8125,1.03125 0.3125,0.67187 0.3125,1.59375 0,0.9375 -0.32812,1.60937 -0.3125,0.67188 -0.875,1.04688 -0.5625,0.375 -1.26563,0.375 -0.40625,0 -0.8125,-0.17188 -0.40625,-0.17187 -0.78125,-0.60937 v 0.95312 q 0,0.46875 0,0.95313 0.0156,0.5 0.0156,0.98437 l 1.09375,0.1875 v 0.42188 z m 3.45313,-8.04688 q -0.28125,0 -0.64063,0.14063 -0.35937,0.14062 -0.8125,0.51562 v 3.375 q 0.34375,0.32813 0.65625,0.46875 0.32813,0.14063 0.67188,0.14063 0.67187,0 1.14062,-0.53125 0.48438,-0.54688 0.48438,-1.70313 0,-1.15625 -0.42188,-1.78125 -0.42187,-0.625 -1.07812,-0.625 z m 6.33899,5.17188 v -0.4375 l 0.89062,-0.15625 q 0.0156,-0.46875 0.0156,-1 0.0156,-0.53125 0.0156,-0.92188 v -0.5625 q 0,-0.5 -0.0156,-0.82812 0,-0.32813 -0.0156,-0.6875 l -0.96875,-0.10938 v -0.42187 l 1.85938,-0.73438 0.17187,0.125 -0.0312,1.625 v 1.59375 q 0,0.39063 0,0.92188 0.0156,0.53125 0.0156,1 l 0.84375,0.15625 v 0.4375 z m 1.42187,-7.17188 q -0.34375,0 -0.57812,-0.21875 -0.23438,-0.21875 -0.23438,-0.54687 0,-0.35938 0.23438,-0.5625 0.23437,-0.21875 0.57812,-0.21875 0.32813,0 0.5625,0.21875 0.23438,0.20312 0.23438,0.5625 0,0.32812 -0.23438,0.54687 -0.23437,0.21875 -0.5625,0.21875 z m 2.16974,7.17188 v -0.4375 l 0.9375,-0.15625 q 0.0156,-0.48438 0.0156,-0.96875 0.0156,-0.48438 0.0156,-0.95313 v -2.54687 h -1 v -0.53125 l 1.01563,-0.125 q 0.0937,-0.96875 0.28125,-1.5625 0.1875,-0.59375 0.625,-1.03125 0.39062,-0.39063 0.79687,-0.53125 0.42188,-0.14063 0.82813,-0.14063 0.42187,0 0.75,0.15625 0.32812,0.14063 0.40625,0.48438 -0.0156,0.23437 -0.20313,0.39062 -0.1875,0.15625 -0.53125,0.15625 -0.42187,0 -0.85937,-0.35937 l -0.32813,-0.26563 q -0.0625,0.0312 -0.10937,0.0781 -0.0312,0.0312 -0.0625,0.0625 -0.3125,0.3125 -0.48438,0.95312 -0.15625,0.625 -0.125,1.625 h 1.65625 v 0.64063 h -1.64062 v 2.54687 q 0,0.46875 0,0.95313 0.0156,0.46875 0.0312,0.95312 l 1.07812,0.17188 v 0.4375 z"
       id="path685"
       inkscape:connector-curvature="0"
       style="fill:#000000;fill-rule:nonzero" />
    <path
       d="m 521.14325,441.1368 v -0.4375 l 0.875,-0.15625 q 0,-0.45313 0,-0.98438 0.0156,-0.53125 0.0156,-0.9375 v -0.57812 q 0,-0.5 -0.0156,-0.8125 0,-0.32813 -0.0156,-0.6875 l -0.95312,-0.10938 v -0.42187 l 1.6875,-0.73438 0.17187,0.125 0.14063,1.42188 q 0.29687,-0.73438 0.76562,-1.14063 0.46875,-0.40625 0.95313,-0.40625 0.28125,0 0.51562,0.125 0.25,0.125 0.34375,0.32813 0,0.875 -0.70312,0.875 -0.20313,0 -0.39063,-0.0781 -0.17187,-0.0781 -0.34375,-0.23437 l -0.14062,-0.125 q -0.35938,0.26562 -0.60938,0.65625 -0.23437,0.375 -0.39062,0.89062 v 0.90625 q 0,0.39063 0,0.92188 0.0156,0.53125 0.0312,0.98437 l 0.98437,0.17188 v 0.4375 z m 7.69043,-5.29688 q -0.34375,0 -0.6875,0.1875 -0.34375,0.1875 -0.59375,0.60938 -0.23438,0.42187 -0.3125,1.10937 h 2.1875 q 0.4375,0 0.5625,-0.17187 0.14062,-0.1875 0.14062,-0.45313 0,-0.34375 -0.17187,-0.625 -0.17188,-0.29687 -0.46875,-0.46875 -0.29688,-0.1875 -0.65625,-0.1875 z m -0.0156,5.45313 q -1.21875,0 -1.95312,-0.78125 -0.71875,-0.79688 -0.71875,-2.17188 0,-0.92187 0.375,-1.60937 0.375,-0.6875 1,-1.0625 0.64062,-0.39063 1.375,-0.39063 0.625,0 1.125,0.28125 0.51562,0.28125 0.8125,0.79688 0.29687,0.5 0.29687,1.23437 0,0.20313 -0.0312,0.375 -0.0156,0.17188 -0.0469,0.29688 h -3.82813 q 0.0156,1.09375 0.54688,1.67187 0.53125,0.57813 1.39062,0.57813 0.57813,0 0.95313,-0.23438 0.39062,-0.23437 0.71875,-0.60937 l 0.28125,0.23437 q -0.32813,0.64063 -0.90625,1.01563 -0.57813,0.375 -1.39063,0.375 z m 4.52631,-2.96875 q 0,1.17187 0.46875,1.73437 0.46875,0.54688 1.1875,0.54688 0.40625,0 0.70313,-0.15625 0.3125,-0.17188 0.64062,-0.53125 v -3.32813 q -0.40625,-0.35937 -0.73437,-0.48437 -0.3125,-0.14063 -0.60938,-0.14063 -0.45312,0 -0.82812,0.25 -0.375,0.23438 -0.60938,0.76563 -0.21875,0.51562 -0.21875,1.34375 z m 3.125,2.9375 -0.0781,-0.82813 q -0.3125,0.40625 -0.71875,0.64063 -0.40625,0.21875 -0.96875,0.21875 -0.73438,0 -1.28125,-0.375 -0.54688,-0.375 -0.85938,-1.03125 -0.29687,-0.67188 -0.29687,-1.54688 0,-0.92187 0.32812,-1.60937 0.34375,-0.6875 0.90625,-1.0625 0.57813,-0.39063 1.3125,-0.39063 0.42188,0 0.8125,0.17188 0.39063,0.17187 0.76563,0.60937 v -2.70312 l -1.03125,-0.125 v -0.42188 l 1.875,-0.54687 0.17187,0.10937 -0.0469,1.70313 v 6.48437 l 0.96875,0.14063 v 0.4375 z m 2.47589,-0.125 v -0.4375 l 0.89063,-0.15625 q 0.0156,-0.46875 0.0156,-1 0.0156,-0.53125 0.0156,-0.92188 v -0.5625 q 0,-0.5 -0.0156,-0.82812 0,-0.32813 -0.0156,-0.6875 l -0.96875,-0.10938 v -0.42187 l 1.85937,-0.73438 0.17188,0.125 -0.0312,1.625 v 1.59375 q 0,0.39063 0,0.92188 0.0156,0.53125 0.0156,1 l 0.84375,0.15625 v 0.4375 z m 1.42188,-7.17188 q -0.34375,0 -0.57813,-0.21875 -0.23437,-0.21875 -0.23437,-0.54687 0,-0.35938 0.23437,-0.5625 0.23438,-0.21875 0.57813,-0.21875 0.32812,0 0.5625,0.21875 0.23437,0.20312 0.23437,0.5625 0,0.32812 -0.23437,0.54687 -0.23438,0.21875 -0.5625,0.21875 z m 2.2323,7.17188 v -0.4375 l 0.875,-0.15625 q 0,-0.45313 0,-0.98438 0.0156,-0.53125 0.0156,-0.9375 v -0.57812 q 0,-0.5 -0.0156,-0.8125 0,-0.32813 -0.0156,-0.6875 l -0.95312,-0.10938 v -0.42187 l 1.6875,-0.73438 0.17187,0.125 0.14063,1.42188 q 0.29687,-0.73438 0.76562,-1.14063 0.46875,-0.40625 0.95313,-0.40625 0.28125,0 0.51562,0.125 0.25,0.125 0.34375,0.32813 0,0.875 -0.70312,0.875 -0.20313,0 -0.39063,-0.0781 -0.17187,-0.0781 -0.34375,-0.23437 l -0.14062,-0.125 q -0.35938,0.26562 -0.60938,0.65625 -0.23437,0.375 -0.39062,0.89062 v 0.90625 q 0,0.39063 0,0.92188 0.0156,0.53125 0.0312,0.98437 l 0.98437,0.17188 v 0.4375 z m 7.69037,-5.29688 q -0.34375,0 -0.6875,0.1875 -0.34375,0.1875 -0.59375,0.60938 -0.23438,0.42187 -0.3125,1.10937 h 2.1875 q 0.4375,0 0.5625,-0.17187 0.14062,-0.1875 0.14062,-0.45313 0,-0.34375 -0.17187,-0.625 -0.17188,-0.29687 -0.46875,-0.46875 -0.29688,-0.1875 -0.65625,-0.1875 z m -0.0156,5.45313 q -1.21875,0 -1.95312,-0.78125 -0.71875,-0.79688 -0.71875,-2.17188 0,-0.92187 0.375,-1.60937 0.375,-0.6875 1,-1.0625 0.64062,-0.39063 1.375,-0.39063 0.625,0 1.125,0.28125 0.51562,0.28125 0.8125,0.79688 0.29687,0.5 0.29687,1.23437 0,0.20313 -0.0312,0.375 -0.0156,0.17188 -0.0469,0.29688 h -3.82813 q 0.0156,1.09375 0.54688,1.67187 0.53125,0.57813 1.39062,0.57813 0.57813,0 0.95313,-0.23438 0.39062,-0.23437 0.71875,-0.60937 l 0.28125,0.23437 q -0.32813,0.64063 -0.90625,1.01563 -0.57813,0.375 -1.39063,0.375 z m 6.10443,0 q -1.23437,0 -1.96875,-0.79688 -0.73437,-0.8125 -0.73437,-2.1875 0,-0.95312 0.39062,-1.625 0.39063,-0.6875 1.03125,-1.04687 0.64063,-0.35938 1.35938,-0.35938 0.53125,0 0.98437,0.20313 0.46875,0.20312 0.76563,0.5625 0.29687,0.35937 0.375,0.79687 -0.0937,0.45313 -0.5625,0.45313 -0.29688,0 -0.45313,-0.15625 -0.14062,-0.15625 -0.20312,-0.42188 l -0.21875,-0.78125 q -0.17188,-0.0625 -0.32813,-0.0781 -0.15625,-0.0156 -0.3125,-0.0156 -0.76562,0 -1.26562,0.59375 -0.5,0.59375 -0.5,1.75 0,1.125 0.53125,1.73438 0.54687,0.59375 1.39062,0.59375 0.51563,0 0.9375,-0.23438 0.4375,-0.23437 0.71875,-0.67187 l 0.29688,0.15625 q -0.25,0.73437 -0.8125,1.14062 -0.5625,0.39063 -1.42188,0.39063 z m 5.10608,0 q -0.60937,0 -0.98437,-0.32813 -0.375,-0.34375 -0.375,-1.04687 0,-0.21875 0,-0.4375 0.0156,-0.23438 0.0156,-0.57813 v -2.82812 h -1 v -0.53125 l 1.0625,-0.125 0.3125,-1.60938 h 0.71875 l -0.0625,1.625 h 1.60938 v 0.64063 h -1.625 v 3.71875 q 0,0.45312 0.17187,0.67187 0.1875,0.20313 0.48438,0.20313 0.20312,0 0.39062,-0.0781 0.1875,-0.0937 0.42188,-0.25 l 0.28125,0.3125 q -0.48438,0.64063 -1.42188,0.64063 z"
       id="path687"
       inkscape:connector-curvature="0"
       style="fill:#000000;fill-rule:nonzero" />
    <path
       d="m 312.69742,447.66928 h 15.93701 v 11.90552 h -15.93701 z"
       id="path689"
       inkscape:connector-curvature="0"
       style="fill:#000000;fill-opacity:0;fill-rule:evenodd" />
    <path
       d="m 312.69742,423.66928 h 15.93701 v 11.90552 h -15.93701 z"
       id="path691"
       inkscape:connector-curvature="0"
       style="fill:#000000;fill-opacity:0;fill-rule:evenodd" />
    <path
       d="m 328.63443,429.62204 h 71.08664"
       id="path693"
       inkscape:connector-curvature="0"
       style="fill:#000000;fill-opacity:0;fill-rule:evenodd" />
    <path
       d="m 328.63443,429.62204 h 65.08661"
       id="path695"
       inkscape:connector-curvature="0"
       style="fill-rule:evenodd;stroke:#595959;stroke-width:1;stroke-linecap:butt;stroke-linejoin:round" />
    <path
       d="m 393.72104,431.27377 4.53812,-1.65173 -4.53812,-1.65174 z"
       id="path697"
       inkscape:connector-curvature="0"
       style="fill:#595959;fill-rule:evenodd;stroke:#595959;stroke-width:1;stroke-linecap:butt" />
    <path
       d="m 328.63443,429.62204 c 12.5,0 24.99213,6 25,12 0.008,6 -12.46851,12 -24.93701,12"
       id="path699"
       inkscape:connector-curvature="0"
       style="fill:#000000;fill-opacity:0;fill-rule:evenodd" />
    <path
       d="m 328.63443,429.62204 c 12.5,0 24.99213,6 25,12 0.004,3 -3.11319,6 -7.78986,8.25 -2.33834,1.125 -5.06655,2.0625 -7.98947,2.71875 -0.73074,0.16406 -1.47363,0.31055 -2.22564,0.43799 -0.18802,0.0319 -0.37659,0.0626 -0.56568,0.092 l -0.38281,0.057"
       id="path701"
       inkscape:connector-curvature="0"
       style="fill-rule:evenodd;stroke:#595959;stroke-width:1;stroke-linecap:butt;stroke-linejoin:round" />
    <path
       d="m 334.55865,451.53058 -4.40335,1.98322 4.64795,1.31118 z"
       id="path703"
       inkscape:connector-curvature="0"
       style="fill:#595959;fill-rule:evenodd;stroke:#595959;stroke-width:1;stroke-linecap:butt" />
    <path
       d="M 399.68954,453.62204 H 328.63443"
       id="path705"
       inkscape:connector-curvature="0"
       style="fill:#000000;fill-opacity:0;fill-rule:evenodd" />
    <path
       d="M 399.68954,453.62204 H 334.63443"
       id="path707"
       inkscape:connector-curvature="0"
       style="fill-rule:evenodd;stroke:#351c75;stroke-width:1;stroke-linecap:butt;stroke-linejoin:round" />
    <path
       d="m 334.63443,451.9703 -4.53809,1.65173 4.53809,1.65174 z"
       id="path709"
       inkscape:connector-curvature="0"
       style="fill:#351c75;fill-rule:evenodd;stroke:#351c75;stroke-width:1;stroke-linecap:butt" />
    <path
       d="m 488.07675,429.62204 h 16.28348"
       id="path711"
       inkscape:connector-curvature="0"
       style="fill:#000000;fill-opacity:0;fill-rule:evenodd" />
    <path
       d="m 488.07678,429.62204 h 10.28345"
       id="path713"
       inkscape:connector-curvature="0"
       style="fill-rule:evenodd;stroke:#595959;stroke-width:1;stroke-linecap:butt;stroke-linejoin:round" />
    <path
       d="m 498.36023,431.27377 4.53812,-1.65173 -4.53812,-1.65174 z"
       id="path715"
       inkscape:connector-curvature="0"
       style="fill:#595959;fill-rule:evenodd;stroke:#595959;stroke-width:1;stroke-linecap:butt" />
    <path
       d="m 579.229,429.62204 h 16.09448"
       id="path717"
       inkscape:connector-curvature="0"
       style="fill:#000000;fill-opacity:0;fill-rule:evenodd" />
    <path
       d="m 579.229,429.62204 h 10.09448"
       id="path719"
       inkscape:connector-curvature="0"
       style="fill-rule:evenodd;stroke:#595959;stroke-width:1;stroke-linecap:butt;stroke-linejoin:round" />
    <path
       d="m 589.3235,431.27377 4.53809,-1.65173 -4.53809,-1.65174 z"
       id="path721"
       inkscape:connector-curvature="0"
       style="fill:#595959;fill-rule:evenodd;stroke:#595959;stroke-width:1;stroke-linecap:butt" />
    <path
       d="m 595.3235,453.62204 c -26.77167,0 -53.54334,-3.85825 -53.54334,-7.71652"
       id="path723"
       inkscape:connector-curvature="0"
       style="fill:#000000;fill-opacity:0;fill-rule:evenodd" />
    <path
       d="m 595.3235,453.62204 c -13.3858,0 -26.77167,-0.96457 -36.81103,-2.41141 -2.50983,-0.36172 -4.81049,-0.75357 -6.8498,-1.16803 -1.01959,-0.20721 -1.97381,-0.4201 -2.8562,-0.63769 -0.44122,-0.10883 -0.86438,-0.21881 -1.26886,-0.32981 l -0.56677,-0.16012"
       id="path725"
       inkscape:connector-curvature="0"
       style="fill-rule:evenodd;stroke:#351c75;stroke-width:1;stroke-linecap:butt;stroke-linejoin:round" />
    <path
       d="m 547.7993,447.48608 -4.75446,-0.84732 3.09754,3.70517 z"
       id="path727"
       inkscape:connector-curvature="0"
       style="fill:#351c75;fill-rule:evenodd;stroke:#351c75;stroke-width:1;stroke-linecap:butt" />
    <path
       d="m 97.03412,388.0315 h 693.7953 V 500.9134 H 97.03412 Z"
       id="path729"
       inkscape:connector-curvature="0"
       style="fill:#000000;fill-opacity:0;fill-rule:evenodd" />
  </g>
</svg>
