<?xml version="1.0" encoding="UTF-8" standalone="no"?>
<svg
   xmlns:dc="http://purl.org/dc/elements/1.1/"
   xmlns:cc="http://creativecommons.org/ns#"
   xmlns:rdf="http://www.w3.org/1999/02/22-rdf-syntax-ns#"
   xmlns:svg="http://www.w3.org/2000/svg"
   xmlns="http://www.w3.org/2000/svg"
   style="fill:none;stroke:none;stroke-linecap:square;stroke-miterlimit:10"
   height="179.11023"
   width="466.60629"
   id="svg621"
   stroke-miterlimit="10"
   viewBox="0 0 466.60629 179.11023"
   version="1.1">
  <metadata
     id="metadata627">
    <rdf:RDF>
      <cc:Work
         rdf:about="">
        <dc:format>image/svg+xml</dc:format>
        <dc:type
           rdf:resource="http://purl.org/dc/dcmitype/StillImage" />
        <dc:title></dc:title>
      </cc:Work>
    </rdf:RDF>
  </metadata>
  <defs
     id="defs625" />
  <clipPath
     id="g2fd53e73fb8_0_45.0">
    <path
       style="clip-rule:nonzero"
       id="path2"
       d="M 0,0 H 960 V 540 H 0 Z" />
  </clipPath>
  <g
     transform="translate(-9.450131,-184.39764)"
     id="g619"
     clip-path="url(#g2fd53e73fb8_0_45.0)">
    <path
       style="fill:#000000;fill-opacity:0;fill-rule:evenodd"
       id="path11"
       d="M 9.950131,184.89764 H 475.55643 V 363.00787 H 9.950131 Z" />
    <path
       style="fill:#000000;fill-opacity:0;fill-rule:evenodd"
       id="path171"
       d="m 481.47336,58.56168 h 52.81888 v 20.724407 h -52.81888 z" />
    <path
       style="fill:#000000;fill-opacity:0;fill-rule:evenodd"
       id="path203"
       d="m 481.47336,87.31234 h 52.81888 v 20.7244 h -52.81888 z" />
    <path
       style="fill:#000000;fill-opacity:0;fill-rule:evenodd"
       id="path237"
       d="m 481.47336,116.063 h 52.81888 v 20.7244 h -52.81888 z" />
    <path
       style="fill:#000000;fill-opacity:0;fill-rule:evenodd"
       id="path271"
       d="m 481.47336,144.81364 h 52.81888 v 20.72441 h -52.81888 z" />
    <path
       style="fill:#000000;fill-opacity:0;fill-rule:evenodd"
       id="path275"
       d="m 481.47336,173.5643 h 52.81888 v 20.72441 h -52.81888 z" />
    <path
       style="fill:#d9d9d9;fill-rule:evenodd"
       id="path409"
       d="m 52.43707,189.1201 h 52.7874 v 26.64566 h -52.7874 z" />
    <path
       style="fill-rule:evenodd;stroke:#000000;stroke-width:1;stroke-linecap:butt;stroke-linejoin:round"
       id="path411"
       d="m 52.43707,189.1201 h 52.7874 v 26.64566 h -52.7874 z" />
    <path
       style="fill:#000000;fill-rule:nonzero"
       id="path413"
       d="m 74.901886,198.25606 v -0.65625 h 7.96875 l 0.109375,2.82812 h -0.90625 l -0.359375,-2.03125 h -3.75 q -0.01563,1.03125 -0.03125,2.0625 0,1.01563 0,2 h 2.46875 l 0.234375,-1.51562 h 0.734375 v 3.9375 h -0.734375 l -0.234375,-1.67188 h -2.46875 q 0,1.1875 0,2.23438 0.01563,1.03125 0.03125,2.03125 l 1.484375,0.17187 v 0.65625 h -4.546875 v -0.65625 l 1.46875,-0.17187 q 0.03125,-1.01563 0.03125,-2.04688 0,-1.04687 0,-2.07812 v -0.79688 q 0,-1.03125 0,-2.0625 0,-1.03125 -0.03125,-2.0625 z" />
    <path
       style="fill:#d9d9d9;fill-rule:evenodd"
       id="path415"
       d="m 134.40102,189.12143 h 52.7874 v 26.64566 h -52.7874 z" />
    <path
       style="fill-rule:evenodd;stroke:#000000;stroke-width:1;stroke-linecap:butt;stroke-linejoin:round"
       id="path417"
       d="m 134.40102,189.12143 h 52.7874 v 26.64566 h -52.7874 z" />
    <path
       style="fill:#000000;fill-rule:nonzero"
       id="path419"
       d="m 158.84908,203.14801 q 0,1.17187 0,2.26562 0.0156,1.07813 0.0312,2.14063 h 1.26562 q 1.84375,0 2.82813,-1.20313 1,-1.21875 1,-3.39062 0,-2.25 -0.98438,-3.4375 -0.96875,-1.1875 -2.70312,-1.1875 h -1.40625 q -0.0156,1.03125 -0.0312,2.09375 0,1.0625 0,2.125 z m -3.03125,-4.89063 v -0.65625 h 4.71875 q 1.53125,0 2.70312,0.625 1.17188,0.60938 1.82813,1.79688 0.65625,1.1875 0.65625,2.9375 0,1.73437 -0.71875,2.92187 -0.71875,1.1875 -1.96875,1.8125 -1.23438,0.60938 -2.79688,0.60938 h -4.42187 v -0.65625 l 1.46875,-0.17188 q 0.0312,-1.03125 0.0312,-2.09375 0,-1.0625 0,-2.23437 v -0.59375 q 0,-1.03125 0,-2.0625 0,-1.03125 -0.0312,-2.0625 z" />
    <path
       style="fill:#000000;fill-opacity:0;fill-rule:evenodd"
       id="path421"
       d="M 9.228346e-4,224.71129 H 52.81982 V 245.4357 H 9.228346e-4 Z" />
    <path
       style="fill:#000000;fill-rule:nonzero"
       id="path423"
       d="m 21.890863,232.97412 0.140625,-2.84375 h 8.765625 l 0.125,2.84375 h -0.921875 l -0.359375,-2.04688 h -2.453125 q -0.01563,1.03125 -0.03125,2.07813 0,1.03125 0,2.07812 v 0.79688 q 0,1.01562 0,2.04687 0.01563,1.03125 0.03125,2.07813 l 1.640625,0.17187 v 0.65625 h -4.828125 v -0.65625 l 1.625,-0.17187 q 0.03125,-1.03125 0.03125,-2.0625 0,-1.03125 0,-2.0625 v -0.79688 q 0,-1.03125 0,-2.0625 0,-1.04687 -0.03125,-2.09375 h -2.453125 l -0.34375,2.04688 z" />
    <path
       style="fill:#f3f3f3;fill-rule:evenodd"
       id="path425"
       d="m 52.85625,224.7073 h 51.93701 v 20.7244 H 52.85625 Z" />
    <path
       style="fill-rule:evenodd;stroke:#000000;stroke-width:1;stroke-linecap:butt;stroke-linejoin:round"
       id="path427"
       d="m 52.85625,224.7073 h 51.93701 v 20.7244 H 52.85625 Z" />
    <path
       style="fill:#000000;fill-rule:nonzero"
       id="path429"
       d="M 73.08256,230.94638 V 230.337 h 4.15625 v 0.60938 l -1.359375,0.15625 q -0.01563,0.92187 -0.01563,1.875 0,0.95312 0,1.90625 v 0.71875 q 0,0.9375 0,1.89062 0,0.9375 0.01563,1.89063 l 1.359375,0.17187 v 0.59375 h -4.15625 v -0.59375 l 1.359375,-0.17187 q 0.01563,-0.92188 0.01563,-1.875 0,-0.95313 0,-1.90625 v -0.71875 q 0,-0.95313 0,-1.89063 0,-0.95312 -0.01563,-1.89062 z m 6.04686,0.39062 3.015625,-0.76562 0.203125,0.14062 -0.0625,2.09375 v 4.25 q 0,0.54688 0,1.10938 0.01563,0.54687 0.03125,1.10937 l 2.078125,0.34375 v 0.53125 h -5.4375 v -0.53125 l 2.078125,-0.34375 q 0.01563,-0.5625 0.01563,-1.10937 0.01563,-0.5625 0.01563,-1.10938 v -5.28125 l -1.9375,0.17188 z" />
    <path
       style="fill:#000000;fill-opacity:0;fill-rule:evenodd"
       id="path431"
       d="m 187.18842,263.8243 29.25984,28.75589" />
    <path
       style="fill-rule:evenodd;stroke:#000000;stroke-width:1;stroke-linecap:butt;stroke-linejoin:round"
       id="path433"
       d="m 187.1884,263.8243 24.98051,24.55029" />
    <path
       style="fill:#000000;fill-rule:evenodd;stroke:#000000;stroke-width:1;stroke-linecap:butt"
       id="path435"
       d="m 211.01115,289.55264 4.39442,2.00287 -2.0789,-4.35898 z" />
    <path
       style="fill:#000000;fill-opacity:0;fill-rule:evenodd"
       id="path437"
       d="m 104.79326,235.0695 29.60629,28.7559" />
    <path
       style="fill-rule:evenodd;stroke:#000000;stroke-width:1;stroke-linecap:butt;stroke-linejoin:round"
       id="path439"
       d="m 104.79326,235.06952 25.30229,24.5755" />
    <path
       style="fill:#000000;fill-rule:evenodd;stroke:#000000;stroke-width:1;stroke-linecap:butt"
       id="path441"
       d="m 128.94475,260.8299 4.40613,1.97696 -2.10451,-4.34665 z" />
    <path
       style="fill:#000000;fill-opacity:0;fill-rule:evenodd"
       id="path443"
       d="m 269.15234,292.57486 29.25986,28.75589" />
    <path
       style="fill-rule:evenodd;stroke:#000000;stroke-width:1;stroke-linecap:butt;stroke-linejoin:round"
       id="path445"
       d="m 269.15234,292.57483 24.98053,24.55029" />
    <path
       style="fill:#000000;fill-rule:evenodd;stroke:#000000;stroke-width:1;stroke-linecap:butt"
       id="path447"
       d="m 292.9751,318.30316 4.39444,2.0029 -2.07892,-4.35898 z" />
    <path
       style="fill:#000000;fill-opacity:0;fill-rule:evenodd"
       id="path449"
       d="M 9.228346e-4,253.46194 H 52.81982 v 20.7244 H 9.228346e-4 Z" />
    <path
       style="fill:#000000;fill-rule:nonzero"
       id="path451"
       d="m 13.642847,261.72476 0.140625,-2.84375 h 8.765625 l 0.125,2.84375 h -0.921875 l -0.359375,-2.04688 h -2.453125 q -0.01563,1.03125 -0.03125,2.07813 0,1.03125 0,2.07812 v 0.79688 q 0,1.01562 0,2.04687 0.01563,1.03125 0.03125,2.07813 l 1.640625,0.17187 v 0.65625 h -4.828125 v -0.65625 l 1.625,-0.17187 q 0.03125,-1.03125 0.03125,-2.0625 0,-1.03125 0,-2.0625 v -0.79688 q 0,-1.03125 0,-2.0625 0,-1.04687 -0.03125,-2.09375 h -2.453125 l -0.34375,2.04688 z m 13.117142,6.625 v -3.57813 h -3.296875 v -0.92187 h 3.296875 v -3.5 h 0.96875 v 3.5 h 3.296875 v 0.92187 h -3.296875 v 3.57813 z m 6.089765,-8.375 3.296875,-0.85938 0.21875,0.17188 -0.0625,2.28125 v 4.64062 q 0,0.59375 0,1.20313 0.01563,0.60937 0.03125,1.21875 l 2.28125,0.375 v 0.57812 h -5.9375 v -0.57812 l 2.25,-0.375 q 0.01563,-0.60938 0.01563,-1.21875 0.01563,-0.60938 0.01563,-1.20313 v -5.76562 l -2.109375,0.1875 z" />
    <path
       style="fill:#f3f3f3;fill-rule:evenodd"
       id="path453"
       d="m 134.40102,253.4621 h 52.7874 v 20.72443 h -52.7874 z" />
    <path
       style="fill-rule:evenodd;stroke:#000000;stroke-width:1;stroke-linecap:butt;stroke-linejoin:round"
       id="path455"
       d="m 134.40102,253.4621 h 52.7874 v 20.72443 h -52.7874 z" />
    <path
       style="fill:#000000;fill-rule:nonzero"
       id="path457"
       d="m 155.05252,259.70117 v -0.60938 h 4.15625 v 0.60938 l -1.35938,0.15625 q -0.0156,0.92187 -0.0156,1.875 0,0.95312 0,1.90625 v 0.71875 q 0,0.9375 0,1.89062 0,0.9375 0.0156,1.89063 l 1.35938,0.17187 v 0.59375 h -4.15625 v -0.59375 l 1.35937,-0.17187 q 0.0156,-0.92188 0.0156,-1.875 0,-0.95313 0,-1.90625 v -0.71875 q 0,-0.95313 0,-1.89063 0,-0.95312 -0.0156,-1.89062 z m 6.04686,0.39062 3.01562,-0.76562 0.20313,0.14062 -0.0625,2.09375 v 4.25 q 0,0.54688 0,1.10938 0.0156,0.54687 0.0312,1.10937 l 2.07812,0.34375 v 0.53125 h -5.4375 v -0.53125 l 2.07813,-0.34375 q 0.0156,-0.5625 0.0156,-1.10937 0.0156,-0.5625 0.0156,-1.10938 v -5.28125 l -1.9375,0.17188 z" />
    <path
       style="fill:#d9d9d9;fill-rule:evenodd"
       id="path459"
       d="m 216.36494,189.1201 h 52.7874 v 26.64566 h -52.7874 z" />
    <path
       style="fill-rule:evenodd;stroke:#000000;stroke-width:1;stroke-linecap:butt;stroke-linejoin:round"
       id="path461"
       d="m 216.36494,189.1201 h 52.7874 v 26.64566 h -52.7874 z" />
    <path
       style="fill:#000000;fill-rule:nonzero"
       id="path463"
       d="m 238.63777,198.25606 v -0.65625 h 7.96875 l 0.10937,2.82812 h -0.90625 l -0.35937,-2.03125 h -3.75 q -0.0156,1.03125 -0.0312,2.0625 0,1.01563 0,2 h 2.34375 l 0.21875,-1.51562 h 0.75 v 3.78125 h -0.75 l -0.20313,-1.51563 h -2.35937 q 0,1.20313 0,2.25 0.0156,1.04688 0.0312,2.04688 h 4.07812 l 0.34375,-2.04688 h 0.92188 l -0.125,2.84375 h -8.28125 v -0.65625 l 1.46875,-0.17187 q 0.0312,-1.01563 0.0312,-2.04688 0,-1.04687 0,-2.07812 v -0.79688 q 0,-1.03125 0,-2.0625 0,-1.03125 -0.0312,-2.0625 z" />
    <path
       style="fill:#d9d9d9;fill-rule:evenodd"
       id="path465"
       d="m 298.3289,189.12143 h 52.78741 v 26.64566 H 298.3289 Z" />
    <path
       style="fill-rule:evenodd;stroke:#000000;stroke-width:1;stroke-linecap:butt;stroke-linejoin:round"
       id="path467"
       d="m 298.3289,189.12143 h 52.78741 v 26.64566 H 298.3289 Z" />
    <path
       style="fill:#000000;fill-rule:nonzero"
       id="path469"
       d="m 318.1316,208.30426 v -0.65625 l 1.4375,-0.20313 v -9.01562 l -1.4375,-0.17188 v -0.65625 h 2.95312 l 3.59375,8.79688 3.39063,-8.79688 h 3.15625 v 0.65625 l -1.48438,0.17188 q -0.0156,1.01562 -0.0312,2.0625 0,1.03125 0,2.0625 v 0.79687 q 0,1.01563 0,2.04688 0.0156,1.03125 0.0312,2.07812 l 1.48438,0.17188 v 0.65625 h -4.35938 v -0.65625 l 1.34375,-0.17188 q 0.0312,-1.01562 0.0312,-2.04687 0,-1.04688 0,-2.0625 v -3.98438 l -3.46875,8.92188 h -0.79687 l -3.67188,-8.92188 0.0937,3.01563 v 5.04687 l 1.3125,0.20313 v 0.65625 z" />
    <path
       style="fill:#d9d9d9;fill-rule:evenodd"
       id="path471"
       d="m 380.29282,189.12143 h 52.78742 v 26.64566 h -52.78742 z" />
    <path
       style="fill-rule:evenodd;stroke:#000000;stroke-width:1;stroke-linecap:butt;stroke-linejoin:round"
       id="path473"
       d="m 380.29282,189.12143 h 52.78742 v 26.64566 h -52.78742 z" />
    <path
       style="fill:#000000;fill-rule:nonzero"
       id="path475"
       d="m 410.59988,198.25739 v -0.65625 h 3.64062 v 0.65625 l -1.34375,0.1875 -2.70312,9.96875 h -0.6875 l -2.76563,-8.28125 -2.60937,8.28125 h -0.6875 l -2.89063,-10 -1.32812,-0.15625 v -0.65625 h 4.35937 v 0.65625 l -1.46875,0.17187 1.96875,7.34375 2.42188,-7.32812 -1.59375,-0.1875 v -0.65625 h 4.34375 v 0.65625 l -1.60938,0.1875 2.39063,7.40625 2.03125,-7.39063 z" />
    <path
       style="fill:#f3f3f3;fill-rule:evenodd"
       id="path477"
       d="m 216.45944,282.21265 h 52.6929 v 20.7244 h -52.6929 z" />
    <path
       style="fill-rule:evenodd;stroke:#000000;stroke-width:1;stroke-linecap:butt;stroke-linejoin:round"
       id="path479"
       d="m 216.45944,282.21265 h 52.6929 v 20.7244 h -52.6929 z" />
    <path
       style="fill:#000000;fill-rule:nonzero"
       id="path481"
       d="m 237.0637,288.45172 v -0.60937 h 4.15625 v 0.60937 l -1.35938,0.15625 q -0.0156,0.92188 -0.0156,1.875 0,0.95313 0,1.90625 v 0.71875 q 0,0.9375 0,1.89063 0,0.9375 0.0156,1.89062 l 1.35938,0.17188 v 0.59375 h -4.15625 v -0.59375 l 1.35937,-0.17188 q 0.0156,-0.92187 0.0156,-1.875 0,-0.95312 0,-1.90625 v -0.71875 q 0,-0.95312 0,-1.89062 0,-0.95313 -0.0156,-1.89063 z m 6.04686,0.39063 3.01562,-0.76563 0.20313,0.14063 -0.0625,2.09375 v 4.25 q 0,0.54687 0,1.10937 0.0156,0.54688 0.0312,1.10938 l 2.07812,0.34375 v 0.53125 h -5.4375 v -0.53125 l 2.07813,-0.34375 q 0.0156,-0.5625 0.0156,-1.10938 0.0156,-0.5625 0.0156,-1.10937 v -5.28125 l -1.9375,0.17187 z" />
    <path
       style="fill:#000000;fill-opacity:0;fill-rule:evenodd"
       id="path483"
       d="M 9.228346e-4,282.2126 H 52.81982 v 20.72443 H 9.228346e-4 Z" />
    <path
       style="fill:#000000;fill-rule:nonzero"
       id="path485"
       d="m 13.642847,290.47543 0.140625,-2.84375 h 8.765625 l 0.125,2.84375 h -0.921875 l -0.359375,-2.04687 h -2.453125 q -0.01563,1.03125 -0.03125,2.07812 0,1.03125 0,2.07813 v 0.79687 q 0,1.01563 0,2.04688 0.01563,1.03125 0.03125,2.07812 l 1.640625,0.17188 v 0.65625 h -4.828125 v -0.65625 l 1.625,-0.17188 q 0.03125,-1.03125 0.03125,-2.0625 0,-1.03125 0,-2.0625 v -0.79687 q 0,-1.03125 0,-2.0625 0,-1.04688 -0.03125,-2.09375 h -2.453125 l -0.34375,2.04687 z m 13.117142,6.625 v -3.57812 h -3.296875 v -0.92188 h 3.296875 v -3.5 h 0.96875 v 3.5 h 3.296875 v 0.92188 h -3.296875 v 3.57812 z m 5.51164,1.23438 v -1.04688 q 0.640625,-0.60937 1.234375,-1.21875 0.609375,-0.625 1.125,-1.17187 1.203125,-1.26563 1.75,-2.28125 0.5625,-1.03125 0.5625,-1.96875 0,-0.98438 -0.515625,-1.5625 -0.515625,-0.57813 -1.40625,-0.57813 -0.15625,0 -0.359375,0.0156 -0.1875,0.0156 -0.421875,0.0625 l -0.296875,1.10937 q -0.15625,0.59375 -0.375,0.84375 -0.21875,0.25 -0.5625,0.25 -0.515625,0 -0.8125,-0.51562 0.09375,-0.84375 0.5625,-1.39063 0.46875,-0.5625 1.171875,-0.82812 0.703125,-0.26563 1.5,-0.26563 1.546875,0 2.25,0.76563 0.71875,0.75 0.71875,1.95312 0,0.70313 -0.28125,1.375 -0.28125,0.65625 -0.96875,1.48438 -0.6875,0.82812 -1.921875,2.01562 -0.328125,0.3125 -0.78125,0.75 -0.453125,0.42188 -0.953125,0.89063 h 5.359375 v 1.3125 z" />
    <path
       style="fill:#000000;fill-opacity:0;fill-rule:evenodd"
       id="path487"
       d="m 105.22447,202.44293 h 29.16536" />
    <path
       style="fill-rule:evenodd;stroke:#000000;stroke-width:1;stroke-linecap:butt;stroke-linejoin:round"
       id="path489"
       d="m 105.22447,202.44293 h 23.16536" />
    <path
       style="fill:#000000;fill-rule:evenodd;stroke:#000000;stroke-width:1;stroke-linecap:butt"
       id="path491"
       d="m 128.38983,204.09467 4.53809,-1.65173 -4.53809,-1.65174 z" />
    <path
       style="fill:#000000;fill-opacity:0;fill-rule:evenodd"
       id="path493"
       d="m 187.18842,202.44426 h 29.16534" />
    <path
       style="fill-rule:evenodd;stroke:#000000;stroke-width:1;stroke-linecap:butt;stroke-linejoin:round"
       id="path495"
       d="m 187.1884,202.44426 h 23.16536" />
    <path
       style="fill:#000000;fill-rule:evenodd;stroke:#000000;stroke-width:1;stroke-linecap:butt"
       id="path497"
       d="m 210.35376,204.096 4.5381,-1.65173 -4.5381,-1.65172 z" />
    <path
       style="fill:#000000;fill-opacity:0;fill-rule:evenodd"
       id="path499"
       d="m 269.15234,202.44293 h 29.16537" />
    <path
       style="fill-rule:evenodd;stroke:#000000;stroke-width:1;stroke-linecap:butt;stroke-linejoin:round"
       id="path501"
       d="m 269.15234,202.44293 h 23.16537" />
    <path
       style="fill:#000000;fill-rule:evenodd;stroke:#000000;stroke-width:1;stroke-linecap:butt"
       id="path503"
       d="m 292.31772,204.09467 4.53809,-1.65173 -4.53809,-1.65174 z" />
    <path
       style="fill:#000000;fill-opacity:0;fill-rule:evenodd"
       id="path505"
       d="m 351.1163,202.44426 h 29.16534" />
    <path
       style="fill-rule:evenodd;stroke:#000000;stroke-width:1;stroke-linecap:butt;stroke-linejoin:round"
       id="path507"
       d="m 351.1163,202.44426 h 23.16534" />
    <path
       style="fill:#000000;fill-rule:evenodd;stroke:#000000;stroke-width:1;stroke-linecap:butt"
       id="path509"
       d="m 374.28165,204.096 4.53812,-1.65173 -4.53812,-1.65172 z" />
    <path
       style="fill:#f3f3f3;fill-rule:evenodd"
       id="path511"
       d="m 298.42337,310.9633 h 52.69293 v 20.72443 h -52.69293 z" />
    <path
       style="fill-rule:evenodd;stroke:#000000;stroke-width:1;stroke-linecap:butt;stroke-linejoin:round"
       id="path513"
       d="m 298.42337,310.9633 h 52.69293 v 20.72443 h -52.69293 z" />
    <path
       style="fill:#000000;fill-rule:nonzero"
       id="path515"
       d="m 319.02765,317.20236 v -0.60938 h 4.15625 v 0.60938 l -1.35938,0.15625 q -0.0156,0.92187 -0.0156,1.875 0,0.95312 0,1.90625 v 0.71875 q 0,0.9375 0,1.89062 0,0.9375 0.0156,1.89063 l 1.35938,0.17187 v 0.59375 h -4.15625 v -0.59375 l 1.35937,-0.17187 q 0.0156,-0.92188 0.0156,-1.875 0,-0.95313 0,-1.90625 v -0.71875 q 0,-0.95313 0,-1.89063 0,-0.95312 -0.0156,-1.89062 z m 6.04684,0.39062 3.01563,-0.76562 0.20312,0.14062 -0.0625,2.09375 v 4.25 q 0,0.54688 0,1.10938 0.0156,0.54687 0.0312,1.10937 l 2.07813,0.34375 v 0.53125 h -5.4375 v -0.53125 l 2.07812,-0.34375 q 0.0156,-0.5625 0.0156,-1.10937 0.0156,-0.5625 0.0156,-1.10938 v -5.28125 l -1.9375,0.17188 z" />
    <path
       style="fill:#000000;fill-opacity:0;fill-rule:evenodd"
       id="path517"
       d="M 9.228346e-4,310.96326 H 52.81982 v 20.7244 H 9.228346e-4 Z" />
    <path
       style="fill:#000000;fill-rule:nonzero"
       id="path519"
       d="m 13.642847,319.22607 0.140625,-2.84375 h 8.765625 l 0.125,2.84375 h -0.921875 l -0.359375,-2.04688 h -2.453125 q -0.01563,1.03125 -0.03125,2.07813 0,1.03125 0,2.07812 v 0.79688 q 0,1.01562 0,2.04687 0.01563,1.03125 0.03125,2.07813 l 1.640625,0.17187 v 0.65625 h -4.828125 v -0.65625 l 1.625,-0.17187 q 0.03125,-1.03125 0.03125,-2.0625 0,-1.03125 0,-2.0625 v -0.79688 q 0,-1.03125 0,-2.0625 0,-1.04687 -0.03125,-2.09375 h -2.453125 l -0.34375,2.04688 z m 13.117142,6.625 v -3.57813 h -3.296875 v -0.92187 h 3.296875 v -3.5 h 0.96875 v 3.5 h 3.296875 v 0.92187 h -3.296875 v 3.57813 z m 7.44914,-4.60938 h 0.640625 q 1.078125,0 1.671875,-0.54687 0.609375,-0.5625 0.609375,-1.59375 0,-0.875 -0.5,-1.35938 -0.5,-0.48437 -1.453125,-0.48437 -0.15625,0 -0.328125,0.0156 -0.171875,0.0156 -0.40625,0.0469 l -0.203125,0.8125 q -0.125,0.48437 -0.328125,0.73437 -0.1875,0.25 -0.59375,0.25 -0.265625,0 -0.46875,-0.125 -0.203125,-0.125 -0.3125,-0.4375 0.21875,-1 1.015625,-1.5 0.796875,-0.51562 1.90625,-0.51562 1.40625,0 2.234375,0.70312 0.828125,0.6875 0.828125,1.8125 0,0.85938 -0.546875,1.54688 -0.546875,0.67187 -1.546875,1.03125 1.234375,0.23437 1.828125,0.92187 0.59375,0.6875 0.59375,1.6875 0,0.85938 -0.453125,1.54688 -0.4375,0.6875 -1.25,1.09375 -0.796875,0.40625 -1.890625,0.40625 -1.15625,0 -2,-0.53125 -0.84375,-0.53125 -1.0625,-1.73438 0.265625,-0.53125 0.8125,-0.53125 0.421875,0 0.59375,0.28125 0.1875,0.26563 0.359375,0.875 l 0.203125,0.82813 q 0.265625,0.0625 0.484375,0.0781 0.234375,0.0156 0.40625,0.0156 1.1875,0 1.78125,-0.60938 0.59375,-0.625 0.59375,-1.6875 0,-1.04687 -0.609375,-1.64062 -0.609375,-0.59375 -1.84375,-0.59375 h -0.765625 z" />
    <path
       style="fill:#000000;fill-opacity:0;fill-rule:evenodd"
       id="path521"
       d="m 52.85625,253.46321 h 51.93701 v 20.72441 H 52.85625 Z" />
    <path
       style="fill-rule:evenodd;stroke:#999999;stroke-width:1;stroke-linecap:butt;stroke-linejoin:round"
       id="path523"
       d="m 52.85625,253.46321 h 51.93701 v 20.72441 H 52.85625 Z" />
    <path
       style="fill:#999999;fill-rule:nonzero"
       id="path525"
       d="m 73.08256,259.70227 v -0.60938 h 4.15625 v 0.60938 l -1.359375,0.15625 q -0.01563,0.92187 -0.01563,1.875 0,0.95312 0,1.90625 v 0.71875 q 0,0.9375 0,1.89062 0,0.9375 0.01563,1.89063 l 1.359375,0.17187 v 0.59375 h -4.15625 v -0.59375 l 1.359375,-0.17187 q 0.01563,-0.92188 0.01563,-1.875 0,-0.95313 0,-1.90625 v -0.71875 q 0,-0.95313 0,-1.89063 0,-0.95312 -0.01563,-1.89062 z m 5.51561,9.20312 v -0.95312 q 0.578125,-0.57813 1.125,-1.14063 0.546875,-0.5625 1.015625,-1.0625 1.109375,-1.15625 1.609375,-2.09375 0.515625,-0.9375 0.515625,-1.78125 0,-0.90625 -0.484375,-1.4375 -0.46875,-0.53125 -1.265625,-0.53125 -0.15625,0 -0.34375,0.0156 -0.171875,0.0156 -0.375,0.0625 l -0.28125,1 q -0.140625,0.54687 -0.34375,0.78125 -0.203125,0.21875 -0.5,0.21875 -0.484375,0 -0.75,-0.46875 0.07813,-0.76563 0.5,-1.26563 0.4375,-0.51562 1.078125,-0.75 0.640625,-0.25 1.375,-0.25 1.421875,0 2.0625,0.70313 0.65625,0.6875 0.65625,1.78125 0,0.65625 -0.265625,1.26562 -0.25,0.59375 -0.890625,1.35938 -0.625,0.75 -1.75,1.82812 -0.296875,0.29688 -0.71875,0.70313 -0.40625,0.39062 -0.859375,0.8125 h 4.90625 v 1.20312 z" />
    <path
       style="fill:#000000;fill-opacity:0;fill-rule:evenodd"
       id="path527"
       d="m 187.18842,292.5802 29.25984,28.75592" />
    <path
       style="fill-rule:evenodd;stroke:#999999;stroke-width:1;stroke-linecap:butt;stroke-linejoin:round"
       id="path529"
       d="m 187.1884,292.58023 24.98051,24.55026" />
    <path
       style="fill:#999999;fill-rule:evenodd;stroke:#999999;stroke-width:1;stroke-linecap:butt"
       id="path531"
       d="m 211.01115,318.30853 4.39442,2.0029 -2.0789,-4.35898 z" />
    <path
       style="fill:#000000;fill-opacity:0;fill-rule:evenodd"
       id="path533"
       d="m 104.79326,263.8254 29.60629,28.75592" />
    <path
       style="fill-rule:evenodd;stroke:#999999;stroke-width:1;stroke-linecap:butt;stroke-linejoin:round"
       id="path535"
       d="m 104.79326,263.8254 25.30229,24.57553" />
    <path
       style="fill:#999999;fill-rule:evenodd;stroke:#999999;stroke-width:1;stroke-linecap:butt"
       id="path537"
       d="m 128.94475,289.5858 4.40613,1.97699 -2.10451,-4.34668 z" />
    <path
       style="fill:#000000;fill-opacity:0;fill-rule:evenodd"
       id="path539"
       d="m 269.15234,321.33075 29.25986,28.75592" />
    <path
       style="fill-rule:evenodd;stroke:#999999;stroke-width:1;stroke-linecap:butt;stroke-linejoin:round"
       id="path541"
       d="m 269.15234,321.33075 24.98053,24.55029" />
    <path
       style="fill:#999999;fill-rule:evenodd;stroke:#999999;stroke-width:1;stroke-linecap:butt"
       id="path543"
       d="m 292.9751,347.05908 4.39444,2.00287 -2.07892,-4.35898 z" />
    <path
       style="fill:#000000;fill-opacity:0;fill-rule:evenodd"
       id="path545"
       d="m 134.40102,282.21802 h 52.7874 v 20.7244 h -52.7874 z" />
    <path
       style="fill-rule:evenodd;stroke:#999999;stroke-width:1;stroke-linecap:butt;stroke-linejoin:round"
       id="path547"
       d="m 134.40102,282.21802 h 52.7874 v 20.7244 h -52.7874 z" />
    <path
       style="fill:#999999;fill-rule:nonzero"
       id="path549"
       d="m 155.05252,288.4571 v -0.60937 h 4.15625 v 0.60937 l -1.35938,0.15625 q -0.0156,0.92188 -0.0156,1.875 0,0.95313 0,1.90625 v 0.71875 q 0,0.9375 0,1.89063 0,0.9375 0.0156,1.89062 l 1.35938,0.17188 v 0.59375 h -4.15625 v -0.59375 l 1.35937,-0.17188 q 0.0156,-0.92187 0.0156,-1.875 0,-0.95312 0,-1.90625 v -0.71875 q 0,-0.95312 0,-1.89062 0,-0.95313 -0.0156,-1.89063 z m 5.51561,9.20313 v -0.95313 q 0.57812,-0.57812 1.125,-1.14062 0.54687,-0.5625 1.01562,-1.0625 1.10938,-1.15625 1.60938,-2.09375 0.51562,-0.9375 0.51562,-1.78125 0,-0.90625 -0.48437,-1.4375 -0.46875,-0.53125 -1.26563,-0.53125 -0.15625,0 -0.34375,0.0156 -0.17187,0.0156 -0.375,0.0625 l -0.28125,1 q -0.14062,0.54688 -0.34375,0.78125 -0.20312,0.21875 -0.5,0.21875 -0.48437,0 -0.75,-0.46875 0.0781,-0.76562 0.5,-1.26562 0.4375,-0.51563 1.07813,-0.75 0.64062,-0.25 1.375,-0.25 1.42187,0 2.0625,0.70312 0.65625,0.6875 0.65625,1.78125 0,0.65625 -0.26563,1.26563 -0.25,0.59375 -0.89062,1.35937 -0.625,0.75 -1.75,1.82813 -0.29688,0.29687 -0.71875,0.70312 -0.40625,0.39063 -0.85938,0.8125 h 4.90625 v 1.20313 z" />
    <path
       style="fill:#000000;fill-opacity:0;fill-rule:evenodd"
       id="path551"
       d="m 216.45944,310.96854 h 52.6929 v 20.72443 h -52.6929 z" />
    <path
       style="fill-rule:evenodd;stroke:#999999;stroke-width:1;stroke-linecap:butt;stroke-linejoin:round"
       id="path553"
       d="m 216.45944,310.96854 h 52.6929 v 20.72443 h -52.6929 z" />
    <path
       style="fill:#999999;fill-rule:nonzero"
       id="path555"
       d="m 237.0637,317.2076 v -0.60937 h 4.15625 v 0.60937 l -1.35938,0.15625 q -0.0156,0.92188 -0.0156,1.875 0,0.95313 0,1.90625 v 0.71875 q 0,0.9375 0,1.89063 0,0.9375 0.0156,1.89062 l 1.35938,0.17188 v 0.59375 h -4.15625 v -0.59375 l 1.35937,-0.17188 q 0.0156,-0.92187 0.0156,-1.875 0,-0.95312 0,-1.90625 v -0.71875 q 0,-0.95312 0,-1.89062 0,-0.95313 -0.0156,-1.89063 z m 5.51561,9.20313 v -0.95313 q 0.57812,-0.57812 1.125,-1.14062 0.54687,-0.5625 1.01562,-1.0625 1.10938,-1.15625 1.60938,-2.09375 0.51562,-0.9375 0.51562,-1.78125 0,-0.90625 -0.48437,-1.4375 -0.46875,-0.53125 -1.26563,-0.53125 -0.15625,0 -0.34375,0.0156 -0.17187,0.0156 -0.375,0.0625 l -0.28125,1 q -0.14062,0.54688 -0.34375,0.78125 -0.20312,0.21875 -0.5,0.21875 -0.48437,0 -0.75,-0.46875 0.0781,-0.76562 0.5,-1.26562 0.4375,-0.51563 1.07813,-0.75 0.64062,-0.25 1.375,-0.25 1.42187,0 2.0625,0.70312 0.65625,0.6875 0.65625,1.78125 0,0.65625 -0.26563,1.26563 -0.25,0.59375 -0.89062,1.35937 -0.625,0.75 -1.75,1.82813 -0.29688,0.29687 -0.71875,0.70312 -0.40625,0.39063 -0.85938,0.8125 h 4.90625 v 1.20313 z" />
    <path
       style="fill:#f3f3f3;fill-rule:evenodd"
       id="path557"
       d="m 52.85625,282.21387 h 51.93701 v 20.7244 H 52.85625 Z" />
    <path
       style="fill-rule:evenodd;stroke:#000000;stroke-width:1;stroke-linecap:butt;stroke-linejoin:round"
       id="path559"
       d="m 52.85625,282.21387 h 51.93701 v 20.7244 H 52.85625 Z" />
    <path
       style="fill:#000000;fill-rule:nonzero"
       id="path561"
       d="m 73.08256,288.45294 v -0.60938 h 4.15625 v 0.60938 l -1.359375,0.15625 q -0.01563,0.92187 -0.01563,1.875 0,0.95312 0,1.90625 v 0.71875 q 0,0.9375 0,1.89062 0,0.9375 0.01563,1.89063 l 1.359375,0.17187 v 0.59375 h -4.15625 v -0.59375 l 1.359375,-0.17187 q 0.01563,-0.92188 0.01563,-1.875 0,-0.95313 0,-1.90625 v -0.71875 q 0,-0.95313 0,-1.89063 0,-0.95312 -0.01563,-1.89062 z m 7.29686,3.85937 h 0.578125 q 1,0 1.546875,-0.51562 0.5625,-0.51563 0.5625,-1.45313 0,-0.8125 -0.46875,-1.25 -0.453125,-0.4375 -1.328125,-0.4375 -0.140625,0 -0.3125,0.0156 -0.15625,0.0156 -0.359375,0.0469 l -0.1875,0.73438 q -0.125,0.45312 -0.296875,0.6875 -0.171875,0.21875 -0.5625,0.21875 -0.234375,0 -0.421875,-0.10938 -0.1875,-0.125 -0.28125,-0.40625 0.203125,-0.92187 0.921875,-1.375 0.734375,-0.46875 1.75,-0.46875 1.296875,0 2.046875,0.64063 0.765625,0.625 0.765625,1.65625 0,0.79687 -0.515625,1.42187 -0.5,0.625 -1.40625,0.9375 1.140625,0.21875 1.671875,0.85938 0.546875,0.625 0.546875,1.53125 0,0.79687 -0.421875,1.42187 -0.40625,0.625 -1.140625,1 -0.71875,0.375 -1.71875,0.375 -1.078125,0 -1.84375,-0.48437 -0.765625,-0.5 -0.96875,-1.59375 0.25,-0.48438 0.75,-0.48438 0.375,0 0.546875,0.25 0.171875,0.25 0.3125,0.8125 l 0.1875,0.75 q 0.25,0.0625 0.453125,0.0781 0.203125,0.0156 0.375,0.0156 1.078125,0 1.609375,-0.5625 0.546875,-0.5625 0.546875,-1.54687 0,-0.95313 -0.5625,-1.48438 -0.546875,-0.54687 -1.671875,-0.54687 H 80.37942 Z" />
    <path
       style="fill:#000000;fill-opacity:0;fill-rule:evenodd"
       id="path563"
       d="m 187.18842,321.33087 29.25984,28.75589" />
    <path
       style="fill-rule:evenodd;stroke:#000000;stroke-width:1;stroke-linecap:butt;stroke-linejoin:round"
       id="path565"
       d="m 187.1884,321.33087 24.98051,24.55029" />
    <path
       style="fill:#000000;fill-rule:evenodd;stroke:#000000;stroke-width:1;stroke-linecap:butt"
       id="path567"
       d="m 211.01115,347.0592 4.39442,2.00287 -2.0789,-4.35898 z" />
    <path
       style="fill:#000000;fill-opacity:0;fill-rule:evenodd"
       id="path569"
       d="m 104.79326,292.57608 29.60629,28.75589" />
    <path
       style="fill-rule:evenodd;stroke:#000000;stroke-width:1;stroke-linecap:butt;stroke-linejoin:round"
       id="path571"
       d="m 104.79326,292.57608 25.30229,24.5755" />
    <path
       style="fill:#000000;fill-rule:evenodd;stroke:#000000;stroke-width:1;stroke-linecap:butt"
       id="path573"
       d="m 128.94475,318.33646 4.40613,1.97696 -2.10451,-4.34665 z" />
    <path
       style="fill:#f3f3f3;fill-rule:evenodd"
       id="path575"
       d="m 134.40102,310.96866 h 52.7874 v 20.72443 h -52.7874 z" />
    <path
       style="fill-rule:evenodd;stroke:#000000;stroke-width:1;stroke-linecap:butt;stroke-linejoin:round"
       id="path577"
       d="m 134.40102,310.96866 h 52.7874 v 20.72443 h -52.7874 z" />
    <path
       style="fill:#000000;fill-rule:nonzero"
       id="path579"
       d="m 155.05252,317.20773 v -0.60937 h 4.15625 v 0.60937 l -1.35938,0.15625 q -0.0156,0.92188 -0.0156,1.875 0,0.95313 0,1.90625 v 0.71875 q 0,0.9375 0,1.89063 0,0.9375 0.0156,1.89062 l 1.35938,0.17188 v 0.59375 h -4.15625 v -0.59375 l 1.35937,-0.17188 q 0.0156,-0.92187 0.0156,-1.875 0,-0.95312 0,-1.90625 v -0.71875 q 0,-0.95312 0,-1.89062 0,-0.95313 -0.0156,-1.89063 z m 7.29686,3.85938 h 0.57812 q 1,0 1.54688,-0.51563 0.5625,-0.51562 0.5625,-1.45312 0,-0.8125 -0.46875,-1.25 -0.45313,-0.4375 -1.32813,-0.4375 -0.14062,0 -0.3125,0.0156 -0.15625,0.0156 -0.35937,0.0469 l -0.1875,0.73437 q -0.125,0.45313 -0.29688,0.6875 -0.17187,0.21875 -0.5625,0.21875 -0.23437,0 -0.42187,-0.10937 -0.1875,-0.125 -0.28125,-0.40625 0.20312,-0.92188 0.92187,-1.375 0.73438,-0.46875 1.75,-0.46875 1.29688,0 2.04688,0.64062 0.76562,0.625 0.76562,1.65625 0,0.79688 -0.51562,1.42188 -0.5,0.625 -1.40625,0.9375 1.14062,0.21875 1.67187,0.85937 0.54688,0.625 0.54688,1.53125 0,0.79688 -0.42188,1.42188 -0.40625,0.625 -1.14062,1 -0.71875,0.375 -1.71875,0.375 -1.07813,0 -1.84375,-0.48438 -0.76563,-0.5 -0.96875,-1.59375 0.25,-0.48437 0.75,-0.48437 0.375,0 0.54687,0.25 0.17188,0.25 0.3125,0.8125 l 0.1875,0.75 q 0.25,0.0625 0.45313,0.0781 0.20312,0.0156 0.375,0.0156 1.07812,0 1.60937,-0.5625 0.54688,-0.5625 0.54688,-1.54688 0,-0.95312 -0.5625,-1.48437 -0.54688,-0.54688 -1.67188,-0.54688 h -0.70312 z" />
    <path
       style="fill:#000000;fill-opacity:0;fill-rule:evenodd"
       id="path581"
       d="M 298.42337,321.3255 H 187.17929" />
    <path
       style="fill-rule:evenodd;stroke:#980000;stroke-width:1;stroke-linecap:butt;stroke-linejoin:round"
       id="path583"
       d="M 298.42337,321.3255 H 193.17927" />
    <path
       style="fill:#980000;fill-rule:evenodd;stroke:#980000;stroke-width:1;stroke-linecap:butt"
       id="path585"
       d="m 193.17928,319.67377 -4.5381,1.65173 4.5381,1.65174 z" />
    <path
       style="fill:#000000;fill-opacity:0;fill-rule:evenodd"
       id="path587"
       d="m 297.867,271.75073 v 0 c 0,-2.12509 1.72272,-3.84784 3.84784,-3.84784 h 50.41455 c 1.02051,0 1.99921,0.4054 2.72082,1.12701 0.72162,0.72159 1.12702,1.70032 1.12702,2.72083 v 15.39093 c 0,2.12509 -1.72275,3.84784 -3.84784,3.84784 h -50.41455 v 0 c -2.12512,0 -3.84784,-1.72275 -3.84784,-3.84784 z" />
    <path
       style="fill-rule:evenodd;stroke:#980000;stroke-width:1;stroke-linecap:butt;stroke-linejoin:round;stroke-dasharray:4, 3"
       id="path589"
       d="m 297.867,271.75073 v 0 c 0,-2.12509 1.72272,-3.84784 3.84784,-3.84784 h 50.41455 c 1.02051,0 1.99921,0.4054 2.72082,1.12701 0.72162,0.72159 1.12702,1.70032 1.12702,2.72083 v 15.39093 c 0,2.12509 -1.72275,3.84784 -3.84784,3.84784 h -50.41455 v 0 c -2.12512,0 -3.84784,-1.72275 -3.84784,-3.84784 z" />
    <path
       style="fill:#000000;fill-rule:nonzero"
       id="path591"
       d="m 310.99548,278.4337 v -0.51563 h 2.48437 v 0.51563 l -0.78125,0.14062 -1.90625,2.35938 1.84375,2.64062 1.01563,0.1875 v 0.48438 h -3.25 v -0.48438 l 0.95312,-0.17187 -1.3125,-1.90625 -1.46875,1.90625 1,0.17187 v 0.48438 h -2.65625 v -0.48438 l 0.84375,-0.15625 1.95313,-2.40625 -1.79688,-2.625 -0.90625,-0.14062 v -0.51563 h 2.96875 v 0.51563 l -0.8125,0.14062 1.28125,1.85938 1.42188,-1.82813 z m 5.05746,0.95312 h 0.53125 q 0.90625,0 1.40625,-0.46875 0.5,-0.46875 0.5,-1.32812 0,-0.73438 -0.42187,-1.125 -0.40625,-0.40625 -1.20313,-0.40625 -0.125,0 -0.28125,0.0156 -0.14062,0.0156 -0.32812,0.0469 l -0.17188,0.65625 q -0.10937,0.42187 -0.26562,0.625 -0.15625,0.20312 -0.51563,0.20312 -0.20312,0 -0.375,-0.0937 -0.17187,-0.10937 -0.26562,-0.375 0.1875,-0.82812 0.84375,-1.25 0.67187,-0.42187 1.59375,-0.42187 1.17187,0 1.85937,0.57812 0.6875,0.57813 0.6875,1.51563 0,0.71875 -0.45312,1.28125 -0.45313,0.5625 -1.28125,0.85937 1.01562,0.20313 1.51562,0.78125 0.5,0.5625 0.5,1.39063 0,0.71875 -0.375,1.29687 -0.375,0.57813 -1.04687,0.92188 -0.67188,0.32812 -1.57813,0.32812 -0.96875,0 -1.67187,-0.4375 -0.6875,-0.45312 -0.875,-1.45312 0.21875,-0.4375 0.67187,-0.4375 0.34375,0 0.5,0.23437 0.15625,0.21875 0.29688,0.71875 l 0.17187,0.70313 q 0.21875,0.0469 0.40625,0.0625 0.1875,0.0156 0.32813,0.0156 1,0 1.48437,-0.51562 0.5,-0.51563 0.5,-1.40625 0,-0.875 -0.51562,-1.35938 -0.5,-0.5 -1.53125,-0.5 h -0.64063 z m 14.19135,2.17188 h -6.29688 v -0.75 h 6.29688 z m 0,-2.65625 h -6.29688 v -0.75 h 6.29688 z m 9.94827,2.76562 h -1.39062 v 2.57813 h -1.10938 v -2.57813 h -3.625 v -0.70312 l 3.95313,-5.45313 h 0.78125 v 5.32813 h 1.39062 z m -5.32812,-0.82812 h 2.82812 v -3.9375 z m 6.19528,3.40625 v -0.85938 q 0.53125,-0.53125 1.03125,-1.03125 0.5,-0.51562 0.92187,-0.96875 1,-1.0625 1.46875,-1.90625 0.46875,-0.85937 0.46875,-1.625 0,-0.82812 -0.4375,-1.3125 -0.4375,-0.48437 -1.17187,-0.48437 -0.125,0 -0.29688,0.0156 -0.15625,0.0156 -0.34375,0.0625 l -0.26562,0.90625 q -0.125,0.5 -0.3125,0.70313 -0.17188,0.20312 -0.45313,0.20312 -0.4375,0 -0.67187,-0.42187 0.0781,-0.70313 0.45312,-1.15625 0.39063,-0.46875 0.96875,-0.6875 0.59375,-0.21875 1.26563,-0.21875 1.29687,0 1.875,0.64062 0.59375,0.625 0.59375,1.625 0,0.57813 -0.23438,1.14063 -0.23437,0.54687 -0.8125,1.23437 -0.57812,0.6875 -1.59375,1.67188 -0.26562,0.26562 -0.65625,0.625 -0.375,0.35937 -0.78125,0.75 h 4.45313 v 1.09375 z" />
    <path
       style="fill:#000000;fill-opacity:0;fill-rule:evenodd"
       id="path593"
       d="m 297.867,279.4462 c -9.96851,0 -19.93701,20.94488 -19.93701,41.88977" />
    <path
       style="fill-rule:evenodd;stroke:#980000;stroke-width:1;stroke-linecap:butt;stroke-linejoin:round;stroke-dasharray:4, 3"
       id="path595"
       d="m 297.867,279.4462 c -9.96851,0 -19.93701,20.94488 -19.93701,41.88977" />
    <path
       style="fill:#000000;fill-opacity:0;fill-rule:evenodd"
       id="path597"
       d="m 216.39755,326.97726 h 52.81891 v 38.2677 h -52.81891 z" />
    <path
       style="fill:#000000;fill-rule:nonzero"
       id="path599"
       d="m 237.60315,357.06985 q -0.51563,0 -0.875,-0.35938 -0.34375,-0.35937 -0.34375,-0.85937 0,-0.53125 0.34375,-0.89063 0.35937,-0.35937 0.875,-0.35937 0.53125,0 0.875,0.35937 0.35937,0.35938 0.35937,0.89063 0,0.5 -0.35937,0.85937 -0.34375,0.35938 -0.875,0.35938 z m 5.20312,0 q -0.51562,0 -0.875,-0.35938 -0.34375,-0.35937 -0.34375,-0.85937 0,-0.53125 0.34375,-0.89063 0.35938,-0.35937 0.875,-0.35937 0.53125,0 0.875,0.35937 0.35938,0.35938 0.35938,0.89063 0,0.5 -0.35938,0.85937 -0.34375,0.35938 -0.875,0.35938 z m 5.1875,0 q -0.51562,0 -0.875,-0.35938 -0.34375,-0.35937 -0.34375,-0.85937 0,-0.53125 0.34375,-0.89063 0.35938,-0.35937 0.875,-0.35937 0.53125,0 0.875,0.35937 0.35938,0.35938 0.35938,0.89063 0,0.5 -0.35938,0.85937 -0.34375,0.35938 -0.875,0.35938 z" />
    <path
       style="fill:#000000;fill-opacity:0;fill-rule:evenodd"
       id="path607"
       d="m 351.1163,321.3255 29.25983,28.75592" />
    <path
       style="fill-rule:evenodd;stroke:#000000;stroke-width:1;stroke-linecap:butt;stroke-linejoin:round"
       id="path609"
       d="m 351.1163,321.3255 24.98053,24.55029" />
    <path
       style="fill:#000000;fill-rule:evenodd;stroke:#000000;stroke-width:1;stroke-linecap:butt"
       id="path611"
       d="m 374.93906,347.05383 4.39444,2.00287 -2.07892,-4.35898 z" />
  </g>
</svg>
