<?xml version="1.0" encoding="UTF-8" standalone="no"?>
<svg
   xmlns:dc="http://purl.org/dc/elements/1.1/"
   xmlns:cc="http://creativecommons.org/ns#"
   xmlns:rdf="http://www.w3.org/1999/02/22-rdf-syntax-ns#"
   xmlns:svg="http://www.w3.org/2000/svg"
   xmlns="http://www.w3.org/2000/svg"
   xmlns:sodipodi="http://sodipodi.sourceforge.net/DTD/sodipodi-0.dtd"
   xmlns:inkscape="http://www.inkscape.org/namespaces/inkscape"
   version="1.1"
   viewBox="0 0 694.79529 113.88188"
   stroke-miterlimit="10"
   id="svg739"
   sodipodi:docname="cpu-implementation-fetch-sub1.svg"
   width="694.79529"
   height="113.88188"
   style="fill:none;stroke:none;stroke-linecap:square;stroke-miterlimit:10"
   inkscape:version="0.92.5 (2060ec1f9f, 2020-04-08)">
  <metadata
     id="metadata745">
    <rdf:RDF>
      <cc:Work
         rdf:about="">
        <dc:format>image/svg+xml</dc:format>
        <dc:type
           rdf:resource="http://purl.org/dc/dcmitype/StillImage" />
        <dc:title></dc:title>
      </cc:Work>
    </rdf:RDF>
  </metadata>
  <defs
     id="defs743" />
  <sodipodi:namedview
     pagecolor="#ffffff"
     bordercolor="#666666"
     borderopacity="1"
     objecttolerance="10"
     gridtolerance="10"
     guidetolerance="10"
     inkscape:pageopacity="0"
     inkscape:pageshadow="2"
     inkscape:window-width="2050"
     inkscape:window-height="1432"
     id="namedview741"
     showgrid="false"
     inkscape:zoom="1.4458333"
     inkscape:cx="382.43505"
     inkscape:cy="-101.28495"
     inkscape:window-x="72"
     inkscape:window-y="27"
     inkscape:window-maximized="0"
     inkscape:current-layer="g737" />
  <clipPath
     id="g2fe881e1fab_0_0.0">
    <path
       d="M 0,0 H 960 V 540 H 0 Z"
       id="path2"
       inkscape:connector-curvature="0"
       style="clip-rule:nonzero" />
  </clipPath>
  <g
     clip-path="url(#g2fe881e1fab_0_0.0)"
     id="g737"
     transform="translate(-96.53412,-146.74889)">
    <path
       d="m 134.30971,168.80481 h 70.96063 v 62.89763 h -70.96063 z"
       id="path155"
       inkscape:connector-curvature="0"
       style="fill:#f3f3f3;fill-rule:evenodd" />
    <path
       d="m 134.30971,168.80481 h 70.96063 v 62.89763 h -70.96063 z"
       id="path157"
       inkscape:connector-curvature="0"
       style="fill-rule:evenodd;stroke:#000000;stroke-width:1;stroke-linecap:butt;stroke-linejoin:round" />
    <path
       d="m 107.39632,231.70244 h 124.78741 v 29.19685 H 107.39632 Z"
       id="path159"
       inkscape:connector-curvature="0"
       style="fill:#000000;fill-opacity:0;fill-rule:evenodd" />
    <path
       d="m 149.25711,252.26399 q -0.67188,0 -1.23438,-0.15625 -0.5625,-0.14063 -1.15625,-0.45313 l -0.0625,-1.75 h 0.875 l 0.3125,1.39063 q 0.5625,0.25 1.29688,0.25 0.90625,0 1.34375,-0.32813 0.45312,-0.34375 0.45312,-0.89062 0,-0.5 -0.375,-0.8125 -0.375,-0.3125 -1.125,-0.57813 l -0.73437,-0.26562 q -0.875,-0.32813 -1.40625,-0.82813 -0.53125,-0.51562 -0.53125,-1.32812 0,-0.59375 0.3125,-1.10938 0.32812,-0.51562 0.95312,-0.82812 0.625,-0.32813 1.51563,-0.32813 0.65625,0 1.1875,0.17188 0.54687,0.17187 1.0625,0.48437 l -0.0625,1.64063 h -0.84375 l -0.25,-1.28125 q -0.54688,-0.28125 -1.10938,-0.28125 -0.73437,0 -1.10937,0.29687 -0.375,0.29688 -0.375,0.79688 0,0.53125 0.32812,0.8125 0.32813,0.26562 1.14063,0.5625 l 0.5,0.17187 q 1.20312,0.45313 1.70312,1.03125 0.5,0.57813 0.5,1.32813 0,0.60937 -0.35937,1.125 -0.34375,0.51562 -1.03125,0.84375 -0.6875,0.3125 -1.71875,0.3125 z m 8.13152,0 q -0.9375,0 -1.78125,-0.4375 -0.82813,-0.4375 -1.35938,-1.32813 -0.53125,-0.89062 -0.53125,-2.20312 0,-1.32813 0.53125,-2.21875 0.53125,-0.90625 1.35938,-1.35938 0.84375,-0.46875 1.78125,-0.46875 0.92187,0 1.75,0.46875 0.84375,0.45313 1.375,1.35938 0.54687,0.89062 0.54687,2.21875 0,1.3125 -0.54687,2.20312 -0.53125,0.89063 -1.375,1.32813 -0.82813,0.4375 -1.75,0.4375 z m 0,-0.71875 q 1.03125,0 1.59375,-0.8125 0.5625,-0.82813 0.5625,-2.4375 0,-1.60938 -0.5625,-2.45313 -0.5625,-0.85937 -1.59375,-0.85937 -1.04688,0 -1.60938,0.85937 -0.54687,0.84375 -0.54687,2.45313 0,1.60937 0.54687,2.4375 0.5625,0.8125 1.60938,0.8125 z m 7.79588,0.71875 q -0.96875,0 -1.53125,-0.64063 -0.5625,-0.65625 -0.54688,-2.23437 l 0.0469,-3.98438 -1.125,-0.23437 v -0.57813 l 2.34375,-0.23437 0.15625,0.17187 -0.0781,2.23438 v 2.48437 q 0,1.03125 0.3125,1.46875 0.32813,0.42188 0.96875,0.42188 1.125,0 2.25,-1.04688 l 0.0469,-4.70312 -1.14063,-0.21875 v -0.57813 l 2.3125,-0.23437 0.17188,0.17187 -0.0469,2.23438 v 4.5 l 1.07813,0.21875 v 0.57812 l -2.21875,0.125 -0.15625,-1.42187 q -0.64063,0.78125 -1.375,1.14062 -0.73438,0.35938 -1.46875,0.35938 z m 6.43739,-0.20313 v -0.57812 l 1.15625,-0.20313 q 0.0156,-0.60937 0.0156,-1.3125 0.0156,-0.71875 0.0156,-1.26562 v -0.76563 q 0,-0.65625 -0.0156,-1.07812 0,-0.4375 -0.0312,-0.92188 l -1.26563,-0.14062 v -0.5625 l 2.23438,-0.98438 0.25,0.17188 0.17187,1.875 q 0.39063,-0.95313 1.01563,-1.5 0.64062,-0.54688 1.28125,-0.54688 0.375,0 0.6875,0.17188 0.32812,0.15625 0.46875,0.42187 0,1.17188 -0.9375,1.17188 -0.28125,0 -0.53125,-0.0937 -0.23438,-0.10938 -0.45313,-0.3125 l -0.1875,-0.17188 q -0.48437,0.35938 -0.8125,0.875 -0.3125,0.5 -0.51562,1.1875 v 1.20313 q 0,0.53125 0,1.23437 0.0156,0.70313 0.0312,1.3125 l 1.3125,0.23438 v 0.57812 z m 10.20177,0.20313 q -1.64063,0 -2.625,-1.0625 -0.96875,-1.07813 -0.96875,-2.92188 0,-1.26562 0.51562,-2.15625 0.53125,-0.90625 1.375,-1.39062 0.84375,-0.48438 1.8125,-0.48438 0.71875,0 1.3125,0.28125 0.60938,0.26563 1.01563,0.75 0.40625,0.46875 0.5,1.04688 -0.10938,0.60937 -0.73438,0.60937 -0.40625,0 -0.60937,-0.20312 -0.20313,-0.21875 -0.28125,-0.5625 l -0.28125,-1.04688 q -0.21875,-0.0937 -0.4375,-0.10937 -0.21875,-0.0312 -0.42188,-0.0312 -1.03125,0 -1.70312,0.8125 -0.65625,0.79687 -0.65625,2.32812 0,1.5 0.71875,2.3125 0.71875,0.79688 1.84375,0.79688 0.6875,0 1.26562,-0.3125 0.57813,-0.3125 0.9375,-0.90625 l 0.40625,0.20312 q -0.34375,1 -1.09375,1.53125 -0.75,0.51563 -1.89062,0.51563 z m 7.83926,-7.28125 q -0.4375,0 -0.90625,0.26562 -0.45312,0.25 -0.78125,0.8125 -0.32812,0.5625 -0.42187,1.48438 h 2.92187 q 0.57813,0 0.75,-0.23438 0.1875,-0.23437 0.1875,-0.59375 0,-0.46875 -0.23437,-0.85937 -0.23438,-0.39063 -0.625,-0.625 -0.39063,-0.25 -0.89063,-0.25 z m -0.0156,7.28125 q -1.60938,0 -2.59375,-1.04688 -0.96875,-1.04687 -0.96875,-2.89062 0,-1.21875 0.5,-2.125 0.51562,-0.92188 1.34375,-1.4375 0.84375,-0.51563 1.84375,-0.51563 0.82812,0 1.5,0.375 0.67187,0.35938 1.0625,1.04688 0.40625,0.67187 0.40625,1.65625 0,0.26562 -0.0312,0.5 -0.0312,0.23437 -0.0781,0.39062 h -5.10937 q 0.0312,1.46875 0.73437,2.25 0.70313,0.76563 1.85938,0.76563 0.76562,0 1.28125,-0.3125 0.51562,-0.3125 0.9375,-0.8125 l 0.39062,0.3125 q -0.45312,0.84375 -1.21875,1.34375 -0.76562,0.5 -1.85937,0.5 z"
       id="path161"
       inkscape:connector-curvature="0"
       style="fill:#000000;fill-rule:nonzero" />
    <path
       d="m 330.0656,168.80219 h 114.96063 v 62.89763 H 330.0656 Z"
       id="path163"
       inkscape:connector-curvature="0"
       style="fill:#f3f3f3;fill-rule:evenodd" />
    <path
       d="m 330.0656,168.80219 h 114.96063 v 62.89763 H 330.0656 Z"
       id="path165"
       inkscape:connector-curvature="0"
       style="fill-rule:evenodd;stroke:#000000;stroke-width:1;stroke-linecap:butt;stroke-linejoin:round" />
    <path
       d="m 325.1517,231.70244 h 124.78742 v 29.19685 H 325.1517 Z"
       id="path167"
       inkscape:connector-curvature="0"
       style="fill:#000000;fill-opacity:0;fill-rule:evenodd" />
    <path
       d="m 351.35547,252.06087 v -0.57813 l 1.26563,-0.21875 q 0.0156,-0.64062 0.0156,-1.28125 0.0156,-0.64062 0.0156,-1.28125 v -3.39062 h -1.32813 v -0.70313 l 1.34375,-0.17187 q 0.0781,-0.9375 0.21875,-1.54688 0.14063,-0.60937 0.40625,-1.04687 0.26563,-0.4375 0.67188,-0.84375 0.4375,-0.45313 1.14062,-0.6875 0.71875,-0.23438 1.45313,-0.23438 1.03125,0 1.75,0.4375 0.71875,0.42188 0.71875,1.15625 -0.0625,0.26563 -0.26563,0.45313 -0.20312,0.17187 -0.53125,0.17187 -0.29687,0 -0.54687,-0.17187 -0.25,-0.17188 -0.46875,-0.48438 l -0.70313,-0.96875 q -0.54687,0.0312 -1.01562,0.25 -0.45313,0.20313 -0.76563,0.51563 -0.42187,0.42187 -0.60937,1.14062 -0.17188,0.70313 -0.14063,1.89063 h 3.64063 l 1.1875,-0.21875 0.25,0.17187 -0.0469,2.09375 v 2.1875 q 0,0.53125 0,1.25 0.0156,0.70313 0.0312,1.3125 l 1.09375,0.21875 v 0.57813 h -3.71875 v -0.57813 l 1.20313,-0.21875 q 0.0156,-0.60937 0.0156,-1.3125 0.0156,-0.71875 0.0156,-1.25 v -0.8125 q 0,-0.85937 -0.0156,-1.40625 0,-0.5625 -0.0312,-1.17187 h -3.59375 v 3.39062 q 0,0.64063 0,1.28125 0.0156,0.625 0.0312,1.26563 l 1.42188,0.23437 v 0.57813 z m 9.70013,0 v -0.57813 l 1.28125,-0.21875 q 0.0156,-0.65625 0.0156,-1.28125 0.0156,-0.64062 0.0156,-1.28125 v -7.03125 l -1.3125,-0.15625 v -0.5625 l 2.48438,-0.71875 0.23437,0.125 -0.0625,2.28125 v 6.0625 q 0,0.64063 0,1.28125 0.0156,0.64063 0.0312,1.28125 l 1.28125,0.21875 v 0.57813 z m 7.64301,0.20312 q -0.82813,0 -1.32813,-0.4375 -0.5,-0.45312 -0.5,-1.375 0,-0.3125 0,-0.60937 0.0156,-0.29688 0.0156,-0.75 v -3.78125 h -1.32813 v -0.70313 l 1.42188,-0.17187 0.42187,-2.15625 h 0.95313 l -0.0937,2.1875 h 2.17187 v 0.84375 h -2.1875 v 4.95312 q 0,0.60938 0.23438,0.89063 0.25,0.28125 0.65625,0.28125 0.26562,0 0.51562,-0.10938 0.25,-0.10937 0.54688,-0.32812 l 0.39062,0.42187 q -0.65625,0.84375 -1.89062,0.84375 z m 6.21564,-7.28125 q -0.4375,0 -0.90625,0.26563 -0.45313,0.25 -0.78125,0.8125 -0.32813,0.5625 -0.42188,1.48437 h 2.92188 q 0.57812,0 0.75,-0.23437 0.1875,-0.23438 0.1875,-0.59375 0,-0.46875 -0.23438,-0.85938 -0.23437,-0.39062 -0.625,-0.625 -0.39062,-0.25 -0.89062,-0.25 z m -0.0156,7.28125 q -1.60937,0 -2.59375,-1.04687 -0.96875,-1.04688 -0.96875,-2.89063 0,-1.21875 0.5,-2.125 0.51563,-0.92187 1.34375,-1.4375 0.84375,-0.51562 1.84375,-0.51562 0.82813,0 1.5,0.375 0.67188,0.35937 1.0625,1.04687 0.40625,0.67188 0.40625,1.65625 0,0.26563 -0.0312,0.5 -0.0312,0.23438 -0.0781,0.39063 h -5.10938 q 0.0312,1.46875 0.73438,2.25 0.70312,0.76562 1.85937,0.76562 0.76563,0 1.28125,-0.3125 0.51563,-0.3125 0.9375,-0.8125 l 0.39063,0.3125 q -0.45313,0.84375 -1.21875,1.34375 -0.76563,0.5 -1.85938,0.5 z m 4.55066,-0.20312 v -0.57813 l 1.15625,-0.20312 q 0.0156,-0.60938 0.0156,-1.3125 0.0156,-0.71875 0.0156,-1.26563 v -0.76562 q 0,-0.65625 -0.0156,-1.07813 0,-0.4375 -0.0312,-0.92187 l -1.26563,-0.14063 v -0.5625 l 2.23438,-0.98437 0.25,0.17187 0.17187,1.875 q 0.39063,-0.95312 1.01563,-1.5 0.64062,-0.54687 1.28125,-0.54687 0.375,0 0.6875,0.17187 0.32812,0.15625 0.46875,0.42188 0,1.17187 -0.9375,1.17187 -0.28125,0 -0.53125,-0.0937 -0.23438,-0.10937 -0.45313,-0.3125 l -0.1875,-0.17187 q -0.48437,0.35937 -0.8125,0.875 -0.3125,0.5 -0.51562,1.1875 v 1.20312 q 0,0.53125 0,1.23438 0.0156,0.70312 0.0312,1.3125 l 1.3125,0.23437 v 0.57813 z m 5.74475,1.0625 v -1.0625 h 6.90625 v 1.0625 z m 8.19202,-1.0625 v -0.57813 l 1.1875,-0.21875 q 0.0156,-0.60937 0.0156,-1.3125 0.0156,-0.70312 0.0156,-1.25 v -0.76562 q 0,-0.65625 -0.0156,-1.07813 0,-0.4375 -0.0312,-0.92187 l -1.26562,-0.14063 v -0.5625 l 2.23437,-0.98437 0.25,0.17187 0.125,1.28125 q 0.5625,-0.625 1.3125,-1.03125 0.75,-0.42187 1.48438,-0.42187 0.75,0 1.21875,0.35937 0.46875,0.34375 0.6875,1.15625 0.60937,-0.76562 1.35937,-1.14062 0.75,-0.375 1.53125,-0.375 0.98438,0 1.51563,0.65625 0.53125,0.65625 0.53125,2.14062 v 1.65625 q 0,0.54688 0,1.25 0.0156,0.70313 0.0312,1.3125 l 1.125,0.21875 v 0.57813 h -3.71875 v -0.57813 l 1.1875,-0.21875 q 0.0156,-0.59375 0.0156,-1.29687 0.0156,-0.71875 0.0156,-1.26563 v -1.39062 q 0,-1.125 -0.32813,-1.51563 -0.3125,-0.39062 -1.01562,-0.39062 -0.5,0 -1.01563,0.23437 -0.51562,0.21875 -1.125,0.78125 0.0156,0.17188 0.0156,0.375 0.0156,0.1875 0.0156,0.42188 v 1.48437 q 0,0.54688 0,1.25 0.0156,0.70313 0.0312,1.3125 l 1.125,0.21875 v 0.57813 h -3.71875 v -0.57813 l 1.1875,-0.21875 q 0.0156,-0.59375 0.0156,-1.29687 0.0156,-0.71875 0.0156,-1.26563 v -1.35937 q 0,-1.09375 -0.3125,-1.51563 -0.29687,-0.42187 -1,-0.42187 -0.54687,0 -1.04687,0.23437 -0.48438,0.21875 -1.07813,0.71875 v 2.34375 q 0,0.53125 0,1.25 0.0156,0.70313 0.0312,1.3125 l 1.10938,0.21875 v 0.57813 z m 20.43167,0.15625 q -0.57813,0 -0.96875,-0.32813 -0.375,-0.34375 -0.46875,-0.90625 -0.65625,0.64063 -1.15625,0.96875 -0.5,0.3125 -1.20313,0.3125 -0.875,0 -1.51562,-0.5 -0.625,-0.5 -0.625,-1.5 0,-0.45312 0.21875,-0.85937 0.21875,-0.40625 0.78125,-0.78125 0.57812,-0.39063 1.65625,-0.76563 0.375,-0.14062 0.84375,-0.28125 0.48437,-0.14062 0.96875,-0.25 v -0.40625 q 0,-1.15625 -0.35938,-1.54687 -0.34375,-0.39063 -1.14062,-0.39063 -0.1875,0 -0.40625,0.0156 -0.20313,0.0156 -0.46875,0.0937 l -0.29688,1.03125 q -0.23437,0.76562 -0.82812,0.76562 -0.67188,0 -0.76563,-0.65625 0.23438,-0.90625 1.0625,-1.4375 0.84375,-0.54687 2.0625,-0.54687 1.26563,0 1.875,0.64062 0.60938,0.625 0.60938,2.14063 v 3.42187 q 0,0.5 0.15625,0.71875 0.15625,0.21875 0.42187,0.21875 0.20313,0 0.34375,-0.0937 0.14063,-0.0937 0.28125,-0.26562 l 0.3125,0.35937 q -0.28125,0.46875 -0.625,0.65625 -0.34375,0.17188 -0.76562,0.17188 z m -4.51563,-2.1875 q 0,0.64062 0.35938,0.92187 0.375,0.26563 0.92187,0.26563 0.23438,0 0.45313,-0.0625 0.21875,-0.0625 0.51562,-0.25 0.3125,-0.1875 0.79688,-0.54688 v -2.4375 q -0.42188,0.10938 -0.82813,0.25 -0.39062,0.125 -0.64062,0.23438 -0.6875,0.26562 -1.03125,0.5625 -0.32813,0.28125 -0.4375,0.5625 -0.10938,0.26562 -0.10938,0.5 z m 6.24588,5.85937 v -0.5625 l 1.28125,-0.21875 q 0.0156,-0.65625 0.0156,-1.3125 0.0156,-0.64062 0.0156,-1.28125 v -4.57812 q 0,-0.65625 -0.0156,-1.07813 0,-0.4375 -0.0312,-0.92187 l -1.26563,-0.14063 v -0.5625 l 2.23438,-0.98437 0.25,0.17187 0.0937,1.03125 q 1.125,-1.20312 2.40625,-1.20312 0.875,0 1.5625,0.48437 0.6875,0.48438 1.09375,1.375 0.40625,0.875 0.40625,2.125 0,1.23438 -0.4375,2.14063 -0.42188,0.90625 -1.17188,1.40625 -0.75,0.48437 -1.6875,0.48437 -0.54687,0 -1.07812,-0.21875 -0.53125,-0.21875 -1.04688,-0.8125 v 1.26563 q 0,0.64062 0,1.28125 0.0156,0.65625 0.0312,1.3125 l 1.45313,0.23437 v 0.5625 z m 4.60938,-10.71875 q -0.375,0 -0.85938,0.1875 -0.46875,0.17188 -1.07812,0.6875 v 4.5 q 0.45312,0.42188 0.875,0.625 0.4375,0.1875 0.875,0.1875 0.90625,0 1.54687,-0.71875 0.64063,-0.71875 0.64063,-2.28125 0,-1.53125 -0.5625,-2.35937 -0.5625,-0.82813 -1.4375,-0.82813 z"
       id="path169"
       inkscape:connector-curvature="0"
       style="fill:#000000;fill-rule:nonzero" />
    <path
       d="m 569.78217,168.80481 h 70.96063 v 62.89763 h -70.96063 z"
       id="path171"
       inkscape:connector-curvature="0"
       style="fill:#f3f3f3;fill-rule:evenodd" />
    <path
       d="m 569.78217,168.80481 h 70.96063 v 62.89763 h -70.96063 z"
       id="path173"
       inkscape:connector-curvature="0"
       style="fill-rule:evenodd;stroke:#000000;stroke-width:1;stroke-linecap:butt;stroke-linejoin:round" />
    <path
       d="m 542.9071,231.70244 h 124.78735 v 29.19685 H 542.9071 Z"
       id="path175"
       inkscape:connector-curvature="0"
       style="fill:#000000;fill-opacity:0;fill-rule:evenodd" />
    <path
       d="m 576.9486,252.06087 v -0.57813 l 1.15625,-0.20312 q 0.0156,-0.60938 0.0156,-1.3125 0.0156,-0.71875 0.0156,-1.26563 v -0.76562 q 0,-0.65625 -0.0156,-1.07813 0,-0.4375 -0.0312,-0.92187 l -1.26563,-0.14063 v -0.5625 l 2.23438,-0.98437 0.25,0.17187 0.17187,1.875 q 0.39063,-0.95312 1.01563,-1.5 0.64062,-0.54687 1.28125,-0.54687 0.375,0 0.6875,0.17187 0.32812,0.15625 0.46875,0.42188 0,1.17187 -0.9375,1.17187 -0.28125,0 -0.53125,-0.0937 -0.23438,-0.10937 -0.45313,-0.3125 l -0.1875,-0.17187 q -0.48437,0.35937 -0.8125,0.875 -0.3125,0.5 -0.51562,1.1875 v 1.20312 q 0,0.53125 0,1.23438 0.0156,0.70312 0.0312,1.3125 l 1.3125,0.23437 v 0.57813 z m 10.23303,-7.07813 q -0.4375,0 -0.90625,0.26563 -0.45312,0.25 -0.78125,0.8125 -0.32812,0.5625 -0.42187,1.48437 h 2.92187 q 0.57813,0 0.75,-0.23437 0.1875,-0.23438 0.1875,-0.59375 0,-0.46875 -0.23437,-0.85938 -0.23438,-0.39062 -0.625,-0.625 -0.39063,-0.25 -0.89063,-0.25 z m -0.0156,7.28125 q -1.60938,0 -2.59375,-1.04687 -0.96875,-1.04688 -0.96875,-2.89063 0,-1.21875 0.5,-2.125 0.51562,-0.92187 1.34375,-1.4375 0.84375,-0.51562 1.84375,-0.51562 0.82812,0 1.5,0.375 0.67187,0.35937 1.0625,1.04687 0.40625,0.67188 0.40625,1.65625 0,0.26563 -0.0312,0.5 -0.0312,0.23438 -0.0781,0.39063 h -5.10937 q 0.0312,1.46875 0.73437,2.25 0.70313,0.76562 1.85938,0.76562 0.76562,0 1.28125,-0.3125 0.51562,-0.3125 0.9375,-0.8125 l 0.39062,0.3125 q -0.45312,0.84375 -1.21875,1.34375 -0.76562,0.5 -1.85937,0.5 z m 7.6756,-3.40625 q 0.76562,0 1.1875,-0.57812 0.4375,-0.57813 0.4375,-1.45313 0,-0.84375 -0.40625,-1.375 -0.40625,-0.54687 -1.15625,-0.54687 -0.75,0 -1.1875,0.5625 -0.4375,0.54687 -0.4375,1.42187 0,0.89063 0.40625,1.4375 0.42187,0.53125 1.15625,0.53125 z m 0.0312,0.64063 q -0.625,0 -1.1875,-0.17188 -0.40625,0.51563 -0.40625,1.01563 0,0.32812 0.1875,0.51562 0.1875,0.1875 0.75,0.1875 h 2.09375 q 1.32812,0 1.95312,0.54688 0.625,0.54687 0.625,1.53125 0,0.6875 -0.45312,1.32812 -0.4375,0.64063 -1.3125,1.03125 -0.875,0.40625 -2.1875,0.40625 -1.75,0 -2.53125,-0.54687 -0.78125,-0.54688 -0.78125,-1.39063 0,-0.51562 0.34375,-0.95312 0.34375,-0.4375 1.21875,-0.875 -1.04688,-0.28125 -1.04688,-1.21875 0,-0.375 0.23438,-0.79688 0.25,-0.42187 0.84375,-0.96875 -0.57813,-0.32812 -0.90625,-0.89062 -0.32813,-0.5625 -0.32813,-1.375 0,-1.26563 0.82813,-1.9375 0.82812,-0.6875 2.07812,-0.6875 1.26563,0 2.03125,0.625 l 1.8125,-0.625 0.23438,0.17187 v 1 h -1.5625 q 0.35937,0.59375 0.35937,1.45313 0,1.26562 -0.82812,1.95312 -0.8125,0.67188 -2.0625,0.67188 z m -1.9375,4.1875 q 0,0.79687 0.5625,1.125 0.5625,0.34375 1.5,0.34375 1.3125,0 2,-0.48438 0.6875,-0.46875 0.6875,-1.14062 0,-0.53125 -0.375,-0.89063 -0.35938,-0.35937 -1.21875,-0.35937 h -1.875 q -0.15625,0 -0.32813,-0.0156 -0.17187,0 -0.32812,-0.0156 -0.34375,0.35937 -0.48438,0.70312 -0.14062,0.34375 -0.14062,0.73438 z m 7.03802,-0.5625 v -1.0625 h 6.90625 v 1.0625 z m 8.12952,-1.0625 v -0.57813 l 1.26562,-0.21875 q 0.0156,-0.64062 0.0156,-1.28125 0.0156,-0.64062 0.0156,-1.28125 v -3.39062 h -1.32812 v -0.70313 l 1.35937,-0.17187 q 0.10938,-1.28125 0.35938,-2.07813 0.25,-0.79687 0.84375,-1.39062 0.5,-0.5 1.0625,-0.6875 0.5625,-0.20313 1.10937,-0.20313 0.5625,0 0.98438,0.20313 0.4375,0.20312 0.54687,0.65625 -0.0156,0.3125 -0.28125,0.51562 -0.25,0.20313 -0.6875,0.20313 -0.57812,0 -1.15625,-0.46875 l -0.45312,-0.35938 q -0.0625,0.0469 -0.125,0.0937 -0.0469,0.0469 -0.0937,0.0937 -0.42188,0.42188 -0.64063,1.26563 -0.20312,0.84375 -0.17187,2.1875 h 2.20312 v 0.84375 h -2.17187 v 3.39062 q 0,0.64063 0,1.28125 0.0156,0.625 0.0312,1.26563 l 1.4375,0.23437 v 0.57813 z m 14.38653,-6.96875 v -0.625 h 2.92188 v 0.625 l -0.85938,0.20312 -2.34375,6.85938 h -0.59375 l -2.07812,-5.67188 -2.10938,5.67188 h -0.59375 l -2.57812,-6.90625 -0.90625,-0.15625 v -0.625 h 3.64062 v 0.625 l -1.23437,0.1875 1.64062,4.90625 1.79688,-4.90625 -1.1875,-0.1875 v -0.625 h 3.53125 v 0.625 l -1.17188,0.20312 1.8125,4.875 1.48438,-4.85937 z m 4.91962,3.20312 q 0,1.57813 0.625,2.32813 0.64062,0.73437 1.60937,0.73437 0.51563,0 0.92188,-0.21875 0.42187,-0.21875 0.85937,-0.70312 v -4.4375 q -0.54687,-0.48438 -0.98437,-0.65625 -0.42188,-0.17188 -0.8125,-0.17188 -0.59375,0 -1.10938,0.32813 -0.5,0.32812 -0.8125,1.03125 -0.29687,0.6875 -0.29687,1.76562 z m 4.1875,3.92188 -0.125,-1.09375 q -0.40625,0.53125 -0.95313,0.84375 -0.53125,0.29687 -1.28125,0.29687 -0.96875,0 -1.71875,-0.48437 -0.73437,-0.5 -1.14062,-1.39063 -0.40625,-0.89062 -0.40625,-2.0625 0,-1.21875 0.4375,-2.125 0.45312,-0.92187 1.21875,-1.4375 0.78125,-0.51562 1.75,-0.51562 0.5625,0 1.07812,0.23437 0.53125,0.21875 1.01563,0.8125 v -3.625 l -1.35938,-0.15625 v -0.5625 l 2.5,-0.71875 0.21875,0.125 -0.0625,2.28125 v 8.65625 l 1.29688,0.1875 v 0.57813 z"
       id="path177"
       inkscape:connector-curvature="0"
       style="fill:#000000;fill-rule:nonzero" />
    <path
       d="M 445.01578,189.62204 H 569.80316"
       id="path179"
       inkscape:connector-curvature="0"
       style="fill:#000000;fill-opacity:0;fill-rule:evenodd" />
    <path
       d="M 445.01578,189.62204 H 557.80316"
       id="path181"
       inkscape:connector-curvature="0"
       style="fill-rule:evenodd;stroke:#595959;stroke-width:2;stroke-linecap:butt;stroke-linejoin:round" />
    <path
       d="m 557.80316,192.9255 9.07623,-3.30347 -9.07623,-3.30345 z"
       id="path183"
       inkscape:connector-curvature="0"
       style="fill:#595959;fill-rule:evenodd;stroke:#595959;stroke-width:2;stroke-linecap:butt" />
    <path
       d="M 569.80255,213.62204 H 445.01513"
       id="path185"
       inkscape:connector-curvature="0"
       style="fill:#000000;fill-opacity:0;fill-rule:evenodd" />
    <path
       d="M 569.80255,213.62204 H 457.01513"
       id="path187"
       inkscape:connector-curvature="0"
       style="fill-rule:evenodd;stroke:#351c75;stroke-width:2;stroke-linecap:butt;stroke-linejoin:round" />
    <path
       d="m 457.01514,210.31859 -9.0762,3.30345 9.0762,3.30347 z"
       id="path189"
       inkscape:connector-curvature="0"
       style="fill:#351c75;fill-rule:evenodd;stroke:#351c75;stroke-width:2;stroke-linecap:butt" />
    <path
       d="m 205.28595,169.81102 h 124.78738 v 19.71654 H 205.28595 Z"
       id="path191"
       inkscape:connector-curvature="0"
       style="fill:#000000;fill-opacity:0;fill-rule:evenodd" />
    <path
       d="m 216.97516,180.64554 q 0,0.96875 0.15625,1.8125 0.17187,0.82812 0.57812,1.6875 0.40625,0.85937 1.10938,1.875 l -0.3125,0.26562 q -1.26563,-1.1875 -1.89063,-2.57812 -0.60937,-1.40625 -0.60937,-3.0625 0,-1.64063 0.60937,-3.03125 0.625,-1.40625 1.89063,-2.59375 l 0.3125,0.26562 q -0.70313,1.01563 -1.10938,1.875 -0.40625,0.85938 -0.57812,1.70313 -0.15625,0.82812 -0.15625,1.78125 z m 6.15614,3.53125 q -0.70312,0 -1.35937,-0.26563 -0.65625,-0.28125 -1.1875,-0.8125 -0.53125,-0.53125 -0.84375,-1.3125 -0.29688,-0.78125 -0.29688,-1.8125 0,-0.98437 0.3125,-1.76562 0.3125,-0.78125 0.82813,-1.3125 0.53125,-0.54688 1.1875,-0.82813 0.65625,-0.28125 1.35937,-0.28125 0.6875,0 1.34375,0.26563 0.65625,0.26562 1.17188,0.79687 0.53125,0.53125 0.84375,1.3125 0.3125,0.78125 0.3125,1.8125 0,0.98438 -0.3125,1.76563 -0.29688,0.78125 -0.82813,1.32812 -0.51562,0.53125 -1.1875,0.82813 -0.65625,0.28125 -1.34375,0.28125 z m 0,-0.60938 q 0.625,0 1.0625,-0.29687 0.45313,-0.3125 0.73438,-0.8125 0.29687,-0.51563 0.42187,-1.15625 0.125,-0.65625 0.125,-1.32813 0,-0.67187 -0.125,-1.3125 -0.125,-0.64062 -0.42187,-1.15625 -0.28125,-0.53125 -0.73438,-0.82812 -0.4375,-0.29688 -1.0625,-0.29688 -0.625,0 -1.07812,0.29688 -0.45313,0.29687 -0.75,0.82812 -0.28125,0.51563 -0.42188,1.15625 -0.125,0.64063 -0.125,1.3125 0,0.67188 0.125,1.32813 0.14063,0.64062 0.42188,1.15625 0.29687,0.5 0.75,0.8125 0.45312,0.29687 1.07812,0.29687 z m 4.65593,3.29688 v -0.42188 l 0.95313,-0.17187 q 0.0156,-0.5 0.0156,-0.98438 0.0156,-0.48437 0.0156,-0.95312 v -3.4375 q 0,-0.5 -0.0156,-0.8125 0,-0.32813 -0.0156,-0.6875 l -0.95313,-0.10938 v -0.42187 l 1.67188,-0.73438 0.1875,0.125 0.0781,0.78125 q 0.84375,-0.90625 1.79688,-0.90625 0.65625,0 1.17187,0.35938 0.51563,0.35937 0.8125,1.03125 0.3125,0.67187 0.3125,1.59375 0,0.9375 -0.32812,1.60937 -0.3125,0.67188 -0.875,1.04688 -0.5625,0.375 -1.26563,0.375 -0.40625,0 -0.8125,-0.17188 -0.40625,-0.17187 -0.78125,-0.60937 v 0.95312 q 0,0.46875 0,0.95313 0.0156,0.5 0.0156,0.98437 l 1.09375,0.1875 v 0.42188 z m 3.45313,-8.04688 q -0.28125,0 -0.64063,0.14063 -0.35937,0.14062 -0.8125,0.51562 v 3.375 q 0.34375,0.32813 0.65625,0.46875 0.32813,0.14063 0.67188,0.14063 0.67187,0 1.14062,-0.53125 0.48438,-0.54688 0.48438,-1.70313 0,-1.15625 -0.42188,-1.78125 -0.42187,-0.625 -1.07812,-0.625 z m 5.45418,5.32813 q -0.60938,0 -0.98438,-0.32813 -0.375,-0.34375 -0.375,-1.04687 0,-0.21875 0,-0.4375 0.0156,-0.23438 0.0156,-0.57813 v -2.82812 h -1 v -0.53125 l 1.0625,-0.125 0.3125,-1.60938 h 0.71875 l -0.0625,1.625 h 1.60937 v 0.64063 h -1.625 v 3.71875 q 0,0.45312 0.17188,0.67187 0.1875,0.20313 0.48437,0.20313 0.20313,0 0.39063,-0.0781 0.1875,-0.0937 0.42187,-0.25 l 0.28125,0.3125 q -0.48437,0.64063 -1.42187,0.64063 z m 2.1344,-3.82813 v -0.5625 l 4.64062,-2.70312 0.35938,0.65625 -4.15625,2.32812 4.15625,2.32813 -0.35938,0.65625 z m 6.21579,-3.85937 v -0.5 h 5.96875 l 0.0937,2.125 h -0.6875 l -0.26563,-1.51563 h -2.82812 q 0,0.76563 -0.0156,1.53125 0,0.76563 0,1.51563 h 1.85938 l 0.17187,-1.14063 h 0.54688 v 2.95313 h -0.54688 l -0.17187,-1.25 h -1.85938 q 0,0.89062 0,1.67187 0.0156,0.76563 0.0156,1.51563 l 1.125,0.14062 v 0.48438 h -3.40625 v -0.48438 l 1.09375,-0.14062 q 0.0312,-0.75 0.0312,-1.53125 0,-0.78125 0,-1.5625 v -0.59375 q 0,-0.78125 0,-1.54688 0,-0.78125 -0.0312,-1.54687 z m 9.15916,2.23437 q -0.34375,0 -0.6875,0.1875 -0.34375,0.1875 -0.59375,0.60938 -0.23438,0.42187 -0.3125,1.10937 h 2.1875 q 0.4375,0 0.5625,-0.17187 0.14062,-0.1875 0.14062,-0.45313 0,-0.34375 -0.17187,-0.625 -0.17188,-0.29687 -0.46875,-0.46875 -0.29688,-0.1875 -0.65625,-0.1875 z m -0.0156,5.45313 q -1.21875,0 -1.95312,-0.78125 -0.71875,-0.79688 -0.71875,-2.17188 0,-0.92187 0.375,-1.60937 0.375,-0.6875 1,-1.0625 0.64062,-0.39063 1.375,-0.39063 0.625,0 1.125,0.28125 0.51562,0.28125 0.8125,0.79688 0.29687,0.5 0.29687,1.23437 0,0.20313 -0.0312,0.375 -0.0156,0.17188 -0.0469,0.29688 h -3.82813 q 0.0156,1.09375 0.54688,1.67187 0.53125,0.57813 1.39062,0.57813 0.57813,0 0.95313,-0.23438 0.39062,-0.23437 0.71875,-0.60937 l 0.28125,0.23437 q -0.32813,0.64063 -0.90625,1.01563 -0.57813,0.375 -1.39063,0.375 z m 5.35444,0 q -0.60938,0 -0.98438,-0.32813 -0.375,-0.34375 -0.375,-1.04687 0,-0.21875 0,-0.4375 0.0156,-0.23438 0.0156,-0.57813 v -2.82812 h -1 v -0.53125 l 1.0625,-0.125 0.3125,-1.60938 h 0.71875 l -0.0625,1.625 h 1.60937 v 0.64063 h -1.625 v 3.71875 q 0,0.45312 0.17188,0.67187 0.1875,0.20313 0.48437,0.20313 0.20313,0 0.39063,-0.0781 0.1875,-0.0937 0.42187,-0.25 l 0.28125,0.3125 q -0.48437,0.64063 -1.42187,0.64063 z m 1.97814,-7.6875 v -0.5 h 5.96875 l 0.0937,2.125 h -0.6875 l -0.26562,-1.51563 h -2.82813 q 0,0.76563 -0.0156,1.53125 0,0.76563 0,1.51563 h 1.76562 l 0.17188,-1.14063 h 0.54687 v 2.82813 h -0.54687 l -0.15625,-1.125 h -1.78125 q 0,0.89062 0,1.6875 0.0156,0.78125 0.0156,1.53125 h 3.0625 l 0.26563,-1.54688 h 0.6875 l -0.0781,2.14063 h -6.21875 v -0.48438 l 1.09375,-0.14062 q 0.0312,-0.75 0.0312,-1.53125 0,-0.78125 0,-1.5625 v -0.59375 q 0,-0.78125 0,-1.54688 0,-0.78125 -0.0312,-1.54687 z m 10.25168,0.0625 h -0.73437 q 0,0.76562 -0.0156,1.5625 0,0.79687 0,1.59375 v 0.57812 h 0.79688 q 1.09375,0 1.54687,-0.53125 0.46875,-0.53125 0.46875,-1.375 0,-0.875 -0.5,-1.34375 -0.48437,-0.48437 -1.5625,-0.48437 z m -3.01562,-0.0625 v -0.5 h 3.21875 q 1.53125,0 2.28125,0.67187 0.76562,0.65625 0.76562,1.71875 0,0.67188 -0.34375,1.23438 -0.32812,0.5625 -1.0625,0.90625 -0.73437,0.32812 -1.96875,0.32812 h -0.625 q 0,0.65625 0,1.28125 0.0156,0.625 0.0156,1.26563 l 1.125,0.14062 v 0.48438 h -3.40625 v -0.48438 l 1.09375,-0.14062 q 0.0312,-0.75 0.0312,-1.53125 0,-0.78125 0,-1.5625 v -0.59375 q 0,-0.78125 0,-1.54688 0,-0.78125 -0.0312,-1.54687 z m 12.2243,3.29687 v 0.5625 l -4.64062,2.70313 -0.35938,-0.65625 4.15625,-2.32813 -4.15625,-2.32812 0.35938,-0.65625 z m 3.24704,3.89063 q 0,0.71875 -0.34375,1.32812 -0.34375,0.60938 -0.875,1.04688 -0.53125,0.4375 -1.10937,0.65625 l -0.15625,-0.40625 q 0.60937,-0.3125 1.07812,-0.76563 0.46875,-0.4375 0.6875,-1.10937 l -0.45312,-0.34375 q -0.23438,-0.1875 -0.34375,-0.40625 -0.10938,-0.23438 -0.10938,-0.45313 0,-0.3125 0.1875,-0.53125 0.1875,-0.23437 0.5625,-0.23437 0.15625,0 0.32813,0.0781 0.1875,0.0625 0.40625,0.26563 0.0781,0.23437 0.10937,0.45312 0.0312,0.20313 0.0312,0.42188 z m 6.6304,-3.51563 q 0,0.875 0,1.6875 0.0156,0.8125 0.0156,1.60938 h 0.95312 q 1.39063,0 2.125,-0.90625 0.75,-0.90625 0.75,-2.54688 0,-1.6875 -0.73437,-2.5625 -0.71875,-0.89062 -2.03125,-0.89062 h -1.0625 q 0,0.76562 -0.0156,1.5625 0,0.79687 0,1.59375 z m -2.26562,-3.67187 v -0.5 h 3.53125 q 1.15625,0 2.03125,0.46875 0.875,0.45312 1.35937,1.35937 0.5,0.89063 0.5,2.1875 0,1.29688 -0.54687,2.20313 -0.53125,0.89062 -1.46875,1.35937 -0.92188,0.45313 -2.09375,0.45313 h -3.3125 v -0.48438 l 1.09375,-0.14062 q 0.0312,-0.76563 0.0312,-1.5625 0,-0.79688 0,-1.67188 v -0.45312 q 0,-0.78125 0,-1.54688 0,-0.78125 -0.0312,-1.54687 z m 11.2232,2.23437 q -0.34375,0 -0.6875,0.1875 -0.34375,0.1875 -0.59375,0.60938 -0.23437,0.42187 -0.3125,1.10937 h 2.1875 q 0.4375,0 0.5625,-0.17187 0.14063,-0.1875 0.14063,-0.45313 0,-0.34375 -0.17188,-0.625 -0.17187,-0.29687 -0.46875,-0.46875 -0.29687,-0.1875 -0.65625,-0.1875 z m -0.0156,5.45313 q -1.21875,0 -1.95313,-0.78125 -0.71875,-0.79688 -0.71875,-2.17188 0,-0.92187 0.375,-1.60937 0.375,-0.6875 1,-1.0625 0.64063,-0.39063 1.375,-0.39063 0.625,0 1.125,0.28125 0.51563,0.28125 0.8125,0.79688 0.29688,0.5 0.29688,1.23437 0,0.20313 -0.0312,0.375 -0.0156,0.17188 -0.0469,0.29688 h -3.82812 q 0.0156,1.09375 0.54687,1.67187 0.53125,0.57813 1.39063,0.57813 0.57812,0 0.95312,-0.23438 0.39063,-0.23437 0.71875,-0.60937 l 0.28125,0.23437 q -0.32812,0.64063 -0.90625,1.01563 -0.57812,0.375 -1.39062,0.375 z m 6.1044,0 q -1.23438,0 -1.96875,-0.79688 -0.73438,-0.8125 -0.73438,-2.1875 0,-0.95312 0.39063,-1.625 0.39062,-0.6875 1.03125,-1.04687 0.64062,-0.35938 1.35937,-0.35938 0.53125,0 0.98438,0.20313 0.46875,0.20312 0.76562,0.5625 0.29688,0.35937 0.375,0.79687 -0.0937,0.45313 -0.5625,0.45313 -0.29687,0 -0.45312,-0.15625 -0.14063,-0.15625 -0.20313,-0.42188 l -0.21875,-0.78125 q -0.17187,-0.0625 -0.32812,-0.0781 -0.15625,-0.0156 -0.3125,-0.0156 -0.76563,0 -1.26563,0.59375 -0.5,0.59375 -0.5,1.75 0,1.125 0.53125,1.73438 0.54688,0.59375 1.39063,0.59375 0.51562,0 0.9375,-0.23438 0.4375,-0.23437 0.71875,-0.67187 l 0.29687,0.15625 q -0.25,0.73437 -0.8125,1.14062 -0.5625,0.39063 -1.42187,0.39063 z m 6.38031,-7.625 h -1.04688 q 0,0.78125 -0.0156,1.57812 0,0.78125 0,1.625 h 0.92187 q 0.96875,0 1.42188,-0.46875 0.46875,-0.46875 0.46875,-1.1875 0,-0.75 -0.42188,-1.14062 -0.40625,-0.40625 -1.32812,-0.40625 z m -3.32813,-0.0625 v -0.5 h 3.35938 q 1.375,0 2.14062,0.5625 0.76563,0.54687 0.76563,1.54687 0,0.6875 -0.5,1.26563 -0.5,0.57812 -1.51563,0.75 0.53125,0.10937 0.875,0.46875 0.34375,0.35937 0.54688,1.0625 l 0.51562,1.78125 0.92188,0.10937 v 0.48438 q -0.17188,0.0469 -0.40625,0.0781 -0.21875,0.0469 -0.48438,0.0469 -0.5625,0 -0.85937,-0.17188 -0.28125,-0.17187 -0.375,-0.59375 l -0.48438,-1.92187 q -0.10937,-0.5 -0.3125,-0.73438 -0.20312,-0.25 -0.53125,-0.32812 -0.3125,-0.0937 -0.79687,-0.0937 h -0.59375 q 0,0.85937 0,1.625 0.0156,0.75 0.0156,1.46875 l 1.10938,0.14062 v 0.48438 h -3.39063 v -0.48438 l 1.09375,-0.14062 q 0.0312,-0.75 0.0312,-1.53125 0,-0.78125 0,-1.5625 v -0.59375 q 0,-0.78125 0,-1.54688 0,-0.78125 -0.0312,-1.54687 z m 9.42142,4.1875 q 0,-0.95313 -0.17187,-1.78125 -0.15625,-0.84375 -0.5625,-1.70313 -0.39063,-0.85937 -1.10938,-1.875 l 0.3125,-0.26562 q 1.28125,1.1875 1.89063,2.59375 0.60937,1.39062 0.60937,3.03125 0,1.65625 -0.60937,3.0625 -0.60938,1.39062 -1.89063,2.57812 l -0.3125,-0.26562 q 0.71875,-1.01563 1.10938,-1.875 0.40625,-0.85938 0.5625,-1.6875 0.17187,-0.84375 0.17187,-1.8125 z"
       id="path193"
       inkscape:connector-curvature="0"
       style="fill:#000000;fill-rule:nonzero" />
    <path
       d="m 205.28595,213.62204 h 124.78738 v 19.71654 H 205.28595 Z"
       id="path195"
       inkscape:connector-curvature="0"
       style="fill:#000000;fill-opacity:0;fill-rule:evenodd" />
    <path
       d="m 216.97516,224.45656 q 0,0.96875 0.15625,1.8125 0.17187,0.82812 0.57812,1.6875 0.40625,0.85937 1.10938,1.875 l -0.3125,0.26562 q -1.26563,-1.1875 -1.89063,-2.57812 -0.60937,-1.40625 -0.60937,-3.0625 0,-1.64063 0.60937,-3.03125 0.625,-1.40625 1.89063,-2.59375 l 0.3125,0.26562 q -0.70313,1.01563 -1.10938,1.875 -0.40625,0.85938 -0.57812,1.70313 -0.15625,0.82812 -0.15625,1.78125 z m 6.15614,3.53125 q -0.70312,0 -1.35937,-0.26563 -0.65625,-0.28125 -1.1875,-0.8125 -0.53125,-0.53125 -0.84375,-1.3125 -0.29688,-0.78125 -0.29688,-1.8125 0,-0.98437 0.3125,-1.76562 0.3125,-0.78125 0.82813,-1.3125 0.53125,-0.54688 1.1875,-0.82813 0.65625,-0.28125 1.35937,-0.28125 0.6875,0 1.34375,0.26563 0.65625,0.26562 1.17188,0.79687 0.53125,0.53125 0.84375,1.3125 0.3125,0.78125 0.3125,1.8125 0,0.98438 -0.3125,1.76563 -0.29688,0.78125 -0.82813,1.32812 -0.51562,0.53125 -1.1875,0.82813 -0.65625,0.28125 -1.34375,0.28125 z m 0,-0.60938 q 0.625,0 1.0625,-0.29687 0.45313,-0.3125 0.73438,-0.8125 0.29687,-0.51563 0.42187,-1.15625 0.125,-0.65625 0.125,-1.32813 0,-0.67187 -0.125,-1.3125 -0.125,-0.64062 -0.42187,-1.15625 -0.28125,-0.53125 -0.73438,-0.82812 -0.4375,-0.29688 -1.0625,-0.29688 -0.625,0 -1.07812,0.29688 -0.45313,0.29687 -0.75,0.82812 -0.28125,0.51563 -0.42188,1.15625 -0.125,0.64063 -0.125,1.3125 0,0.67188 0.125,1.32813 0.14063,0.64062 0.42188,1.15625 0.29687,0.5 0.75,0.8125 0.45312,0.29687 1.07812,0.29687 z m 4.65593,3.29688 v -0.42188 l 0.95313,-0.17187 q 0.0156,-0.5 0.0156,-0.98438 0.0156,-0.48437 0.0156,-0.95312 v -3.4375 q 0,-0.5 -0.0156,-0.8125 0,-0.32813 -0.0156,-0.6875 l -0.95313,-0.10938 v -0.42187 l 1.67188,-0.73438 0.1875,0.125 0.0781,0.78125 q 0.84375,-0.90625 1.79688,-0.90625 0.65625,0 1.17187,0.35938 0.51563,0.35937 0.8125,1.03125 0.3125,0.67187 0.3125,1.59375 0,0.9375 -0.32812,1.60937 -0.3125,0.67188 -0.875,1.04688 -0.5625,0.375 -1.26563,0.375 -0.40625,0 -0.8125,-0.17188 -0.40625,-0.17187 -0.78125,-0.60937 v 0.95312 q 0,0.46875 0,0.95313 0.0156,0.5 0.0156,0.98437 l 1.09375,0.1875 v 0.42188 z m 3.45313,-8.04688 q -0.28125,0 -0.64063,0.14063 -0.35937,0.14062 -0.8125,0.51562 v 3.375 q 0.34375,0.32813 0.65625,0.46875 0.32813,0.14063 0.67188,0.14063 0.67187,0 1.14062,-0.53125 0.48438,-0.54688 0.48438,-1.70313 0,-1.15625 -0.42188,-1.78125 -0.42187,-0.625 -1.07812,-0.625 z m 5.45418,5.32813 q -0.60938,0 -0.98438,-0.32813 -0.375,-0.34375 -0.375,-1.04687 0,-0.21875 0,-0.4375 0.0156,-0.23438 0.0156,-0.57813 v -2.82812 h -1 v -0.53125 l 1.0625,-0.125 0.3125,-1.60938 h 0.71875 l -0.0625,1.625 h 1.60937 v 0.64063 h -1.625 v 3.71875 q 0,0.45312 0.17188,0.67187 0.1875,0.20313 0.48437,0.20313 0.20313,0 0.39063,-0.0781 0.1875,-0.0937 0.42187,-0.25 l 0.28125,0.3125 q -0.48437,0.64063 -1.42187,0.64063 z m 2.1344,-3.82813 v -0.5625 l 4.64062,-2.70312 0.35938,0.65625 -4.15625,2.32812 4.15625,2.32813 -0.35938,0.65625 z m 6.21579,-3.85937 v -0.5 h 5.96875 l 0.0937,2.125 h -0.6875 l -0.26563,-1.51563 h -2.82812 q 0,0.76563 -0.0156,1.53125 0,0.76563 0,1.51563 h 1.85938 l 0.17187,-1.14063 h 0.54688 v 2.95313 h -0.54688 l -0.17187,-1.25 h -1.85938 q 0,0.89062 0,1.67187 0.0156,0.76563 0.0156,1.51563 l 1.125,0.14062 v 0.48438 h -3.40625 v -0.48438 l 1.09375,-0.14062 q 0.0312,-0.75 0.0312,-1.53125 0,-0.78125 0,-1.5625 v -0.59375 q 0,-0.78125 0,-1.54688 0,-0.78125 -0.0312,-1.54687 z m 9.15916,2.23437 q -0.34375,0 -0.6875,0.1875 -0.34375,0.1875 -0.59375,0.60938 -0.23438,0.42187 -0.3125,1.10937 h 2.1875 q 0.4375,0 0.5625,-0.17187 0.14062,-0.1875 0.14062,-0.45313 0,-0.34375 -0.17187,-0.625 -0.17188,-0.29687 -0.46875,-0.46875 -0.29688,-0.1875 -0.65625,-0.1875 z m -0.0156,5.45313 q -1.21875,0 -1.95312,-0.78125 -0.71875,-0.79688 -0.71875,-2.17188 0,-0.92187 0.375,-1.60937 0.375,-0.6875 1,-1.0625 0.64062,-0.39063 1.375,-0.39063 0.625,0 1.125,0.28125 0.51562,0.28125 0.8125,0.79688 0.29687,0.5 0.29687,1.23437 0,0.20313 -0.0312,0.375 -0.0156,0.17188 -0.0469,0.29688 h -3.82813 q 0.0156,1.09375 0.54688,1.67187 0.53125,0.57813 1.39062,0.57813 0.57813,0 0.95313,-0.23438 0.39062,-0.23437 0.71875,-0.60937 l 0.28125,0.23437 q -0.32813,0.64063 -0.90625,1.01563 -0.57813,0.375 -1.39063,0.375 z m 5.35444,0 q -0.60938,0 -0.98438,-0.32813 -0.375,-0.34375 -0.375,-1.04687 0,-0.21875 0,-0.4375 0.0156,-0.23438 0.0156,-0.57813 v -2.82812 h -1 v -0.53125 l 1.0625,-0.125 0.3125,-1.60938 h 0.71875 l -0.0625,1.625 h 1.60937 v 0.64063 h -1.625 v 3.71875 q 0,0.45312 0.17188,0.67187 0.1875,0.20313 0.48437,0.20313 0.20313,0 0.39063,-0.0781 0.1875,-0.0937 0.42187,-0.25 l 0.28125,0.3125 q -0.48437,0.64063 -1.42187,0.64063 z m 1.97814,-7.6875 v -0.5 h 5.96875 l 0.0937,2.125 h -0.6875 l -0.26562,-1.51563 h -2.82813 q 0,0.76563 -0.0156,1.53125 0,0.76563 0,1.51563 h 1.76562 l 0.17188,-1.14063 h 0.54687 v 2.82813 h -0.54687 l -0.15625,-1.125 h -1.78125 q 0,0.89062 0,1.6875 0.0156,0.78125 0.0156,1.53125 h 3.0625 l 0.26563,-1.54688 h 0.6875 l -0.0781,2.14063 h -6.21875 v -0.48438 l 1.09375,-0.14062 q 0.0312,-0.75 0.0312,-1.53125 0,-0.78125 0,-1.5625 v -0.59375 q 0,-0.78125 0,-1.54688 0,-0.78125 -0.0312,-1.54687 z m 10.25168,0.0625 h -0.73437 q 0,0.76562 -0.0156,1.5625 0,0.79687 0,1.59375 v 0.57812 h 0.79688 q 1.09375,0 1.54687,-0.53125 0.46875,-0.53125 0.46875,-1.375 0,-0.875 -0.5,-1.34375 -0.48437,-0.48437 -1.5625,-0.48437 z m -3.01562,-0.0625 v -0.5 h 3.21875 q 1.53125,0 2.28125,0.67187 0.76562,0.65625 0.76562,1.71875 0,0.67188 -0.34375,1.23438 -0.32812,0.5625 -1.0625,0.90625 -0.73437,0.32812 -1.96875,0.32812 h -0.625 q 0,0.65625 0,1.28125 0.0156,0.625 0.0156,1.26563 l 1.125,0.14062 v 0.48438 h -3.40625 v -0.48438 l 1.09375,-0.14062 q 0.0312,-0.75 0.0312,-1.53125 0,-0.78125 0,-1.5625 v -0.59375 q 0,-0.78125 0,-1.54688 0,-0.78125 -0.0312,-1.54687 z m 12.2243,3.29687 v 0.5625 l -4.64062,2.70313 -0.35938,-0.65625 4.15625,-2.32813 -4.15625,-2.32812 0.35938,-0.65625 z m 3.24704,3.89063 q 0,0.71875 -0.34375,1.32812 -0.34375,0.60938 -0.875,1.04688 -0.53125,0.4375 -1.10937,0.65625 l -0.15625,-0.40625 q 0.60937,-0.3125 1.07812,-0.76563 0.46875,-0.4375 0.6875,-1.10937 l -0.45312,-0.34375 q -0.23438,-0.1875 -0.34375,-0.40625 -0.10938,-0.23438 -0.10938,-0.45313 0,-0.3125 0.1875,-0.53125 0.1875,-0.23437 0.5625,-0.23437 0.15625,0 0.32813,0.0781 0.1875,0.0625 0.40625,0.26563 0.0781,0.23437 0.10937,0.45312 0.0312,0.20313 0.0312,0.42188 z m 6.6304,-3.51563 q 0,0.875 0,1.6875 0.0156,0.8125 0.0156,1.60938 h 0.95312 q 1.39063,0 2.125,-0.90625 0.75,-0.90625 0.75,-2.54688 0,-1.6875 -0.73437,-2.5625 -0.71875,-0.89062 -2.03125,-0.89062 h -1.0625 q 0,0.76562 -0.0156,1.5625 0,0.79687 0,1.59375 z m -2.26562,-3.67187 v -0.5 h 3.53125 q 1.15625,0 2.03125,0.46875 0.875,0.45312 1.35937,1.35937 0.5,0.89063 0.5,2.1875 0,1.29688 -0.54687,2.20313 -0.53125,0.89062 -1.46875,1.35937 -0.92188,0.45313 -2.09375,0.45313 h -3.3125 v -0.48438 l 1.09375,-0.14062 q 0.0312,-0.76563 0.0312,-1.5625 0,-0.79688 0,-1.67188 v -0.45312 q 0,-0.78125 0,-1.54688 0,-0.78125 -0.0312,-1.54687 z m 11.2232,2.23437 q -0.34375,0 -0.6875,0.1875 -0.34375,0.1875 -0.59375,0.60938 -0.23437,0.42187 -0.3125,1.10937 h 2.1875 q 0.4375,0 0.5625,-0.17187 0.14063,-0.1875 0.14063,-0.45313 0,-0.34375 -0.17188,-0.625 -0.17187,-0.29687 -0.46875,-0.46875 -0.29687,-0.1875 -0.65625,-0.1875 z m -0.0156,5.45313 q -1.21875,0 -1.95313,-0.78125 -0.71875,-0.79688 -0.71875,-2.17188 0,-0.92187 0.375,-1.60937 0.375,-0.6875 1,-1.0625 0.64063,-0.39063 1.375,-0.39063 0.625,0 1.125,0.28125 0.51563,0.28125 0.8125,0.79688 0.29688,0.5 0.29688,1.23437 0,0.20313 -0.0312,0.375 -0.0156,0.17188 -0.0469,0.29688 h -3.82812 q 0.0156,1.09375 0.54687,1.67187 0.53125,0.57813 1.39063,0.57813 0.57812,0 0.95312,-0.23438 0.39063,-0.23437 0.71875,-0.60937 l 0.28125,0.23437 q -0.32812,0.64063 -0.90625,1.01563 -0.57812,0.375 -1.39062,0.375 z m 6.1044,0 q -1.23438,0 -1.96875,-0.79688 -0.73438,-0.8125 -0.73438,-2.1875 0,-0.95312 0.39063,-1.625 0.39062,-0.6875 1.03125,-1.04687 0.64062,-0.35938 1.35937,-0.35938 0.53125,0 0.98438,0.20313 0.46875,0.20312 0.76562,0.5625 0.29688,0.35937 0.375,0.79687 -0.0937,0.45313 -0.5625,0.45313 -0.29687,0 -0.45312,-0.15625 -0.14063,-0.15625 -0.20313,-0.42188 l -0.21875,-0.78125 q -0.17187,-0.0625 -0.32812,-0.0781 -0.15625,-0.0156 -0.3125,-0.0156 -0.76563,0 -1.26563,0.59375 -0.5,0.59375 -0.5,1.75 0,1.125 0.53125,1.73438 0.54688,0.59375 1.39063,0.59375 0.51562,0 0.9375,-0.23438 0.4375,-0.23437 0.71875,-0.67187 l 0.29687,0.15625 q -0.25,0.73437 -0.8125,1.14062 -0.5625,0.39063 -1.42187,0.39063 z m 6.38031,-7.625 h -1.04688 q 0,0.78125 -0.0156,1.57812 0,0.78125 0,1.625 h 0.92187 q 0.96875,0 1.42188,-0.46875 0.46875,-0.46875 0.46875,-1.1875 0,-0.75 -0.42188,-1.14062 -0.40625,-0.40625 -1.32812,-0.40625 z m -3.32813,-0.0625 v -0.5 h 3.35938 q 1.375,0 2.14062,0.5625 0.76563,0.54687 0.76563,1.54687 0,0.6875 -0.5,1.26563 -0.5,0.57812 -1.51563,0.75 0.53125,0.10937 0.875,0.46875 0.34375,0.35937 0.54688,1.0625 l 0.51562,1.78125 0.92188,0.10937 v 0.48438 q -0.17188,0.0469 -0.40625,0.0781 -0.21875,0.0469 -0.48438,0.0469 -0.5625,0 -0.85937,-0.17188 -0.28125,-0.17187 -0.375,-0.59375 l -0.48438,-1.92187 q -0.10937,-0.5 -0.3125,-0.73438 -0.20312,-0.25 -0.53125,-0.32812 -0.3125,-0.0937 -0.79687,-0.0937 h -0.59375 q 0,0.85937 0,1.625 0.0156,0.75 0.0156,1.46875 l 1.10938,0.14062 v 0.48438 h -3.39063 v -0.48438 l 1.09375,-0.14062 q 0.0312,-0.75 0.0312,-1.53125 0,-0.78125 0,-1.5625 v -0.59375 q 0,-0.78125 0,-1.54688 0,-0.78125 -0.0312,-1.54687 z m 9.42142,4.1875 q 0,-0.95313 -0.17187,-1.78125 -0.15625,-0.84375 -0.5625,-1.70313 -0.39063,-0.85937 -1.10938,-1.875 l 0.3125,-0.26562 q 1.28125,1.1875 1.89063,2.59375 0.60937,1.39062 0.60937,3.03125 0,1.65625 -0.60937,3.0625 -0.60938,1.39062 -1.89063,2.57812 l -0.3125,-0.26562 q 0.71875,-1.01563 1.10938,-1.875 0.40625,-0.85938 0.5625,-1.6875 0.17187,-0.84375 0.17187,-1.8125 z"
       id="path197"
       inkscape:connector-curvature="0"
       style="fill:#000000;fill-rule:nonzero" />
    <path
       d="m 445.01642,213.62204 h 124.78741 v 19.71654 H 445.01642 Z"
       id="path199"
       inkscape:connector-curvature="0"
       style="fill:#000000;fill-opacity:0;fill-rule:evenodd" />
    <path
       d="m 456.70563,224.45656 q 0,0.96875 0.15625,1.8125 0.17187,0.82812 0.57812,1.6875 0.40625,0.85937 1.10938,1.875 l -0.3125,0.26562 q -1.26563,-1.1875 -1.89063,-2.57812 -0.60937,-1.40625 -0.60937,-3.0625 0,-1.64063 0.60937,-3.03125 0.625,-1.40625 1.89063,-2.59375 l 0.3125,0.26562 q -0.70313,1.01563 -1.10938,1.875 -0.40625,0.85938 -0.57812,1.70313 -0.15625,0.82812 -0.15625,1.78125 z m 6.15616,3.53125 q -0.70313,0 -1.35938,-0.26563 -0.65625,-0.28125 -1.1875,-0.8125 -0.53125,-0.53125 -0.84375,-1.3125 -0.29687,-0.78125 -0.29687,-1.8125 0,-0.98437 0.3125,-1.76562 0.3125,-0.78125 0.82812,-1.3125 0.53125,-0.54688 1.1875,-0.82813 0.65625,-0.28125 1.35938,-0.28125 0.6875,0 1.34375,0.26563 0.65625,0.26562 1.17187,0.79687 0.53125,0.53125 0.84375,1.3125 0.3125,0.78125 0.3125,1.8125 0,0.98438 -0.3125,1.76563 -0.29687,0.78125 -0.82812,1.32812 -0.51563,0.53125 -1.1875,0.82813 -0.65625,0.28125 -1.34375,0.28125 z m 0,-0.60938 q 0.625,0 1.0625,-0.29687 0.45312,-0.3125 0.73437,-0.8125 0.29688,-0.51563 0.42188,-1.15625 0.125,-0.65625 0.125,-1.32813 0,-0.67187 -0.125,-1.3125 -0.125,-0.64062 -0.42188,-1.15625 -0.28125,-0.53125 -0.73437,-0.82812 -0.4375,-0.29688 -1.0625,-0.29688 -0.625,0 -1.07813,0.29688 -0.45312,0.29687 -0.75,0.82812 -0.28125,0.51563 -0.42187,1.15625 -0.125,0.64063 -0.125,1.3125 0,0.67188 0.125,1.32813 0.14062,0.64062 0.42187,1.15625 0.29688,0.5 0.75,0.8125 0.45313,0.29687 1.07813,0.29687 z m 4.65591,3.29688 v -0.42188 l 0.95313,-0.17187 q 0.0156,-0.5 0.0156,-0.98438 0.0156,-0.48437 0.0156,-0.95312 v -3.4375 q 0,-0.5 -0.0156,-0.8125 0,-0.32813 -0.0156,-0.6875 l -0.95313,-0.10938 v -0.42187 l 1.67188,-0.73438 0.1875,0.125 0.0781,0.78125 q 0.84375,-0.90625 1.79688,-0.90625 0.65625,0 1.17187,0.35938 0.51563,0.35937 0.8125,1.03125 0.3125,0.67187 0.3125,1.59375 0,0.9375 -0.32812,1.60937 -0.3125,0.67188 -0.875,1.04688 -0.5625,0.375 -1.26563,0.375 -0.40625,0 -0.8125,-0.17188 -0.40625,-0.17187 -0.78125,-0.60937 v 0.95312 q 0,0.46875 0,0.95313 0.0156,0.5 0.0156,0.98437 l 1.09375,0.1875 v 0.42188 z m 3.45313,-8.04688 q -0.28125,0 -0.64063,0.14063 -0.35937,0.14062 -0.8125,0.51562 v 3.375 q 0.34375,0.32813 0.65625,0.46875 0.32813,0.14063 0.67188,0.14063 0.67187,0 1.14062,-0.53125 0.48438,-0.54688 0.48438,-1.70313 0,-1.15625 -0.42188,-1.78125 -0.42187,-0.625 -1.07812,-0.625 z m 5.45419,5.32813 q -0.60937,0 -0.98437,-0.32813 -0.375,-0.34375 -0.375,-1.04687 0,-0.21875 0,-0.4375 0.0156,-0.23438 0.0156,-0.57813 v -2.82812 h -1 v -0.53125 l 1.0625,-0.125 0.3125,-1.60938 h 0.71875 l -0.0625,1.625 h 1.60938 v 0.64063 h -1.625 v 3.71875 q 0,0.45312 0.17187,0.67187 0.1875,0.20313 0.48438,0.20313 0.20312,0 0.39062,-0.0781 0.1875,-0.0937 0.42188,-0.25 l 0.28125,0.3125 q -0.48438,0.64063 -1.42188,0.64063 z m 2.1344,-3.82813 v -0.5625 l 4.64063,-2.70312 0.35937,0.65625 -4.15625,2.32812 4.15625,2.32813 -0.35937,0.65625 z m 6.21579,-3.85937 v -0.5 h 5.96875 l 0.0937,2.125 h -0.6875 l -0.26562,-1.51563 h -2.82813 q 0,0.76563 -0.0156,1.53125 0,0.76563 0,1.51563 h 1.85937 l 0.17188,-1.14063 h 0.54687 v 2.95313 h -0.54687 l -0.17188,-1.25 h -1.85937 q 0,0.89062 0,1.67187 0.0156,0.76563 0.0156,1.51563 l 1.125,0.14062 v 0.48438 h -3.40625 v -0.48438 l 1.09375,-0.14062 q 0.0312,-0.75 0.0312,-1.53125 0,-0.78125 0,-1.5625 v -0.59375 q 0,-0.78125 0,-1.54688 0,-0.78125 -0.0312,-1.54687 z m 9.15915,2.23437 q -0.34375,0 -0.6875,0.1875 -0.34375,0.1875 -0.59375,0.60938 -0.23438,0.42187 -0.3125,1.10937 h 2.1875 q 0.4375,0 0.5625,-0.17187 0.14062,-0.1875 0.14062,-0.45313 0,-0.34375 -0.17187,-0.625 -0.17188,-0.29687 -0.46875,-0.46875 -0.29688,-0.1875 -0.65625,-0.1875 z m -0.0156,5.45313 q -1.21875,0 -1.95312,-0.78125 -0.71875,-0.79688 -0.71875,-2.17188 0,-0.92187 0.375,-1.60937 0.375,-0.6875 1,-1.0625 0.64062,-0.39063 1.375,-0.39063 0.625,0 1.125,0.28125 0.51562,0.28125 0.8125,0.79688 0.29687,0.5 0.29687,1.23437 0,0.20313 -0.0312,0.375 -0.0156,0.17188 -0.0469,0.29688 h -3.82813 q 0.0156,1.09375 0.54688,1.67187 0.53125,0.57813 1.39062,0.57813 0.57813,0 0.95313,-0.23438 0.39062,-0.23437 0.71875,-0.60937 l 0.28125,0.23437 q -0.32813,0.64063 -0.90625,1.01563 -0.57813,0.375 -1.39063,0.375 z m 5.35444,0 q -0.60938,0 -0.98438,-0.32813 -0.375,-0.34375 -0.375,-1.04687 0,-0.21875 0,-0.4375 0.0156,-0.23438 0.0156,-0.57813 v -2.82812 h -1 v -0.53125 l 1.0625,-0.125 0.3125,-1.60938 h 0.71875 l -0.0625,1.625 h 1.60937 v 0.64063 h -1.625 v 3.71875 q 0,0.45312 0.17188,0.67187 0.1875,0.20313 0.48437,0.20313 0.20313,0 0.39063,-0.0781 0.1875,-0.0937 0.42187,-0.25 l 0.28125,0.3125 q -0.48437,0.64063 -1.42187,0.64063 z m 1.97814,-7.6875 v -0.5 h 5.96875 l 0.0937,2.125 h -0.6875 l -0.26562,-1.51563 h -2.82813 q 0,0.76563 -0.0156,1.53125 0,0.76563 0,1.51563 h 1.76562 l 0.17188,-1.14063 h 0.54687 v 2.82813 h -0.54687 l -0.15625,-1.125 h -1.78125 q 0,0.89062 0,1.6875 0.0156,0.78125 0.0156,1.53125 h 3.0625 l 0.26563,-1.54688 h 0.6875 l -0.0781,2.14063 h -6.21875 v -0.48438 l 1.09375,-0.14062 q 0.0312,-0.75 0.0312,-1.53125 0,-0.78125 0,-1.5625 v -0.59375 q 0,-0.78125 0,-1.54688 0,-0.78125 -0.0312,-1.54687 z m 10.25168,0.0625 h -0.73437 q 0,0.76562 -0.0156,1.5625 0,0.79687 0,1.59375 v 0.57812 h 0.79688 q 1.09375,0 1.54687,-0.53125 0.46875,-0.53125 0.46875,-1.375 0,-0.875 -0.5,-1.34375 -0.48437,-0.48437 -1.5625,-0.48437 z m -3.01562,-0.0625 v -0.5 h 3.21875 q 1.53125,0 2.28125,0.67187 0.76562,0.65625 0.76562,1.71875 0,0.67188 -0.34375,1.23438 -0.32812,0.5625 -1.0625,0.90625 -0.73437,0.32812 -1.96875,0.32812 h -0.625 q 0,0.65625 0,1.28125 0.0156,0.625 0.0156,1.26563 l 1.125,0.14062 v 0.48438 h -3.40625 v -0.48438 l 1.09375,-0.14062 q 0.0312,-0.75 0.0312,-1.53125 0,-0.78125 0,-1.5625 v -0.59375 q 0,-0.78125 0,-1.54688 0,-0.78125 -0.0312,-1.54687 z m 12.2243,3.29687 v 0.5625 l -4.64062,2.70313 -0.35938,-0.65625 4.15625,-2.32813 -4.15625,-2.32812 0.35938,-0.65625 z m 3.24701,3.89063 q 0,0.71875 -0.34375,1.32812 -0.34375,0.60938 -0.875,1.04688 -0.53125,0.4375 -1.10937,0.65625 l -0.15625,-0.40625 q 0.60937,-0.3125 1.07812,-0.76563 0.46875,-0.4375 0.6875,-1.10937 l -0.45312,-0.34375 q -0.23438,-0.1875 -0.34375,-0.40625 -0.10938,-0.23438 -0.10938,-0.45313 0,-0.3125 0.1875,-0.53125 0.1875,-0.23437 0.5625,-0.23437 0.15625,0 0.32813,0.0781 0.1875,0.0625 0.40625,0.26563 0.0781,0.23437 0.10937,0.45312 0.0312,0.20313 0.0312,0.42188 z m 6.63043,-3.51563 q 0,0.875 0,1.6875 0.0156,0.8125 0.0156,1.60938 h 0.95312 q 1.39063,0 2.125,-0.90625 0.75,-0.90625 0.75,-2.54688 0,-1.6875 -0.73437,-2.5625 -0.71875,-0.89062 -2.03125,-0.89062 h -1.0625 q 0,0.76562 -0.0156,1.5625 0,0.79687 0,1.59375 z m -2.26562,-3.67187 v -0.5 h 3.53125 q 1.15625,0 2.03125,0.46875 0.875,0.45312 1.35937,1.35937 0.5,0.89063 0.5,2.1875 0,1.29688 -0.54687,2.20313 -0.53125,0.89062 -1.46875,1.35937 -0.92188,0.45313 -2.09375,0.45313 h -3.3125 v -0.48438 l 1.09375,-0.14062 q 0.0312,-0.76563 0.0312,-1.5625 0,-0.79688 0,-1.67188 v -0.45312 q 0,-0.78125 0,-1.54688 0,-0.78125 -0.0312,-1.54687 z m 11.2232,2.23437 q -0.34375,0 -0.6875,0.1875 -0.34375,0.1875 -0.59375,0.60938 -0.23437,0.42187 -0.3125,1.10937 h 2.1875 q 0.4375,0 0.5625,-0.17187 0.14063,-0.1875 0.14063,-0.45313 0,-0.34375 -0.17188,-0.625 -0.17187,-0.29687 -0.46875,-0.46875 -0.29687,-0.1875 -0.65625,-0.1875 z m -0.0156,5.45313 q -1.21875,0 -1.95313,-0.78125 -0.71875,-0.79688 -0.71875,-2.17188 0,-0.92187 0.375,-1.60937 0.375,-0.6875 1,-1.0625 0.64063,-0.39063 1.375,-0.39063 0.625,0 1.125,0.28125 0.51563,0.28125 0.8125,0.79688 0.29688,0.5 0.29688,1.23437 0,0.20313 -0.0312,0.375 -0.0156,0.17188 -0.0469,0.29688 h -3.82812 q 0.0156,1.09375 0.54687,1.67187 0.53125,0.57813 1.39063,0.57813 0.57812,0 0.95312,-0.23438 0.39063,-0.23437 0.71875,-0.60937 l 0.28125,0.23437 q -0.32812,0.64063 -0.90625,1.01563 -0.57812,0.375 -1.39062,0.375 z m 6.10443,0 q -1.23438,0 -1.96875,-0.79688 -0.73438,-0.8125 -0.73438,-2.1875 0,-0.95312 0.39063,-1.625 0.39062,-0.6875 1.03125,-1.04687 0.64062,-0.35938 1.35937,-0.35938 0.53125,0 0.98438,0.20313 0.46875,0.20312 0.76562,0.5625 0.29688,0.35937 0.375,0.79687 -0.0937,0.45313 -0.5625,0.45313 -0.29687,0 -0.45312,-0.15625 -0.14063,-0.15625 -0.20313,-0.42188 l -0.21875,-0.78125 q -0.17187,-0.0625 -0.32812,-0.0781 -0.15625,-0.0156 -0.3125,-0.0156 -0.76563,0 -1.26563,0.59375 -0.5,0.59375 -0.5,1.75 0,1.125 0.53125,1.73438 0.54688,0.59375 1.39063,0.59375 0.51562,0 0.9375,-0.23438 0.4375,-0.23437 0.71875,-0.67187 l 0.29687,0.15625 q -0.25,0.73437 -0.8125,1.14062 -0.5625,0.39063 -1.42187,0.39063 z m 6.38025,-7.625 h -1.04688 q 0,0.78125 -0.0156,1.57812 0,0.78125 0,1.625 h 0.92187 q 0.96875,0 1.42188,-0.46875 0.46875,-0.46875 0.46875,-1.1875 0,-0.75 -0.42188,-1.14062 -0.40625,-0.40625 -1.32812,-0.40625 z m -3.32813,-0.0625 v -0.5 h 3.35938 q 1.375,0 2.14062,0.5625 0.76563,0.54687 0.76563,1.54687 0,0.6875 -0.5,1.26563 -0.5,0.57812 -1.51563,0.75 0.53125,0.10937 0.875,0.46875 0.34375,0.35937 0.54688,1.0625 l 0.51562,1.78125 0.92188,0.10937 v 0.48438 q -0.17188,0.0469 -0.40625,0.0781 -0.21875,0.0469 -0.48438,0.0469 -0.5625,0 -0.85937,-0.17188 -0.28125,-0.17187 -0.375,-0.59375 l -0.48438,-1.92187 q -0.10937,-0.5 -0.3125,-0.73438 -0.20312,-0.25 -0.53125,-0.32812 -0.3125,-0.0937 -0.79687,-0.0937 h -0.59375 q 0,0.85937 0,1.625 0.0156,0.75 0.0156,1.46875 l 1.10938,0.14062 v 0.48438 h -3.39063 v -0.48438 l 1.09375,-0.14062 q 0.0312,-0.75 0.0312,-1.53125 0,-0.78125 0,-1.5625 v -0.59375 q 0,-0.78125 0,-1.54688 0,-0.78125 -0.0312,-1.54687 z m 9.42145,4.1875 q 0,-0.95313 -0.17187,-1.78125 -0.15625,-0.84375 -0.5625,-1.70313 -0.39063,-0.85937 -1.10938,-1.875 l 0.3125,-0.26562 q 1.28125,1.1875 1.89063,2.59375 0.60937,1.39062 0.60937,3.03125 0,1.65625 -0.60937,3.0625 -0.60938,1.39062 -1.89063,2.57812 l -0.3125,-0.26562 q 0.71875,-1.01563 1.10938,-1.875 0.40625,-0.85938 0.5625,-1.6875 0.17187,-0.84375 0.17187,-1.8125 z"
       id="path201"
       inkscape:connector-curvature="0"
       style="fill:#000000;fill-rule:nonzero" />
    <path
       d="m 445.01642,169.81102 h 124.78741 v 19.71654 H 445.01642 Z"
       id="path203"
       inkscape:connector-curvature="0"
       style="fill:#000000;fill-opacity:0;fill-rule:evenodd" />
    <path
       d="m 500.58392,184.14554 q -0.73438,0 -1.15625,-0.48438 -0.40625,-0.48437 -0.40625,-1.67187 l 0.0469,-2.98438 -0.85937,-0.1875 v -0.4375 l 1.76562,-0.15625 0.125,0.10938 -0.0625,1.6875 v 1.85937 q 0,0.78125 0.23438,1.09375 0.25,0.3125 0.71875,0.3125 0.84375,0 1.6875,-0.76562 l 0.0312,-3.53125 -0.84375,-0.17188 v -0.4375 l 1.73437,-0.15625 0.125,0.10938 -0.0469,1.6875 v 3.375 l 0.82812,0.15625 v 0.4375 l -1.67187,0.0937 -0.125,-1.0625 q -0.48438,0.57812 -1.03125,0.85937 -0.53125,0.26563 -1.09375,0.26563 z m 6.35544,-4.53125 h 0.48437 q 0.8125,0 1.26563,-0.42188 0.45312,-0.42187 0.45312,-1.1875 0,-0.65625 -0.375,-1.01562 -0.375,-0.375 -1.09375,-0.375 -0.10937,0 -0.25,0.0156 -0.125,0.0156 -0.29687,0.0469 l -0.15625,0.59375 q -0.0937,0.375 -0.25,0.5625 -0.14063,0.1875 -0.45313,0.1875 -0.1875,0 -0.34375,-0.0937 -0.15625,-0.10938 -0.21875,-0.32813 0.15625,-0.76562 0.75,-1.14062 0.59375,-0.375 1.42188,-0.375 1.0625,0 1.6875,0.53125 0.625,0.51562 0.625,1.34375 0,0.65625 -0.42188,1.17187 -0.40625,0.5 -1.15625,0.76563 0.92188,0.1875 1.35938,0.70312 0.45312,0.51563 0.45312,1.25 0,0.65625 -0.34375,1.17188 -0.32812,0.51562 -0.9375,0.82812 -0.59375,0.29688 -1.40625,0.29688 -0.875,0 -1.51562,-0.39063 -0.625,-0.40625 -0.78125,-1.3125 0.20312,-0.39062 0.60937,-0.39062 0.3125,0 0.4375,0.20312 0.14063,0.20313 0.26563,0.65625 l 0.15625,0.625 q 0.20312,0.0469 0.375,0.0625 0.17187,0 0.29687,0 0.89063,0 1.32813,-0.45312 0.45312,-0.46875 0.45312,-1.26563 0,-0.78125 -0.46875,-1.21875 -0.45312,-0.45312 -1.375,-0.45312 h -0.57812 z m 4.56253,4.375 v -0.78125 q 0.48437,-0.46875 0.92187,-0.92188 0.45313,-0.46875 0.84375,-0.875 0.90625,-0.95312 1.3125,-1.71875 0.42188,-0.76562 0.42188,-1.46875 0,-0.73437 -0.39063,-1.17187 -0.39062,-0.4375 -1.04687,-0.4375 -0.125,0 -0.28125,0.0156 -0.14063,0.0156 -0.3125,0.0469 l -0.21875,0.82812 q -0.125,0.45313 -0.29688,0.64063 -0.15625,0.1875 -0.40625,0.1875 -0.39062,0 -0.60937,-0.39063 0.0781,-0.64062 0.42187,-1.04687 0.34375,-0.42188 0.875,-0.60938 0.53125,-0.20312 1.125,-0.20312 1.17188,0 1.6875,0.57812 0.53125,0.5625 0.53125,1.45313 0,0.53125 -0.20312,1.03125 -0.20313,0.5 -0.73438,1.125 -0.51562,0.60937 -1.4375,1.5 -0.23437,0.23437 -0.57812,0.5625 -0.34375,0.32812 -0.71875,0.67187 h 4.03125 v 0.98438 z"
       id="path205"
       inkscape:connector-curvature="0"
       style="fill:#000000;fill-rule:nonzero" />
    <path
       d="m 205.28084,189.62204 h 124.7874"
       id="path207"
       inkscape:connector-curvature="0"
       style="fill:#000000;fill-opacity:0;fill-rule:evenodd" />
    <path
       d="m 205.28084,189.62204 h 112.7874"
       id="path209"
       inkscape:connector-curvature="0"
       style="fill-rule:evenodd;stroke:#595959;stroke-width:2;stroke-linecap:butt;stroke-linejoin:round" />
    <path
       d="m 318.06824,192.9255 9.0762,-3.30347 -9.0762,-3.30345 z"
       id="path211"
       inkscape:connector-curvature="0"
       style="fill:#595959;fill-rule:evenodd;stroke:#595959;stroke-width:2;stroke-linecap:butt" />
    <path
       d="M 330.06824,213.62204 H 205.28084"
       id="path213"
       inkscape:connector-curvature="0"
       style="fill:#000000;fill-opacity:0;fill-rule:evenodd" />
    <path
       d="M 330.06824,213.62204 H 217.28084"
       id="path215"
       inkscape:connector-curvature="0"
       style="fill-rule:evenodd;stroke:#351c75;stroke-width:2;stroke-linecap:butt;stroke-linejoin:round" />
    <path
       d="m 217.28084,210.31859 -9.07619,3.30345 9.07619,3.30347 z"
       id="path217"
       inkscape:connector-curvature="0"
       style="fill:#351c75;fill-rule:evenodd;stroke:#351c75;stroke-width:2;stroke-linecap:butt" />
    <path
       d="m 189.36935,199.6693 h 15.937 v 11.9055 h -15.937 z"
       id="path219"
       inkscape:connector-curvature="0"
       style="fill:#000000;fill-opacity:0;fill-rule:evenodd" />
    <path
       d="m 189.36935,183.6693 h 15.937 v 11.9055 h -15.937 z"
       id="path221"
       inkscape:connector-curvature="0"
       style="fill:#000000;fill-opacity:0;fill-rule:evenodd" />
    <path
       d="m 205.36935,207.6693 h 15.937 v 11.9055 h -15.937 z"
       id="path223"
       inkscape:connector-curvature="0"
       style="fill:#000000;fill-opacity:0;fill-rule:evenodd" />
    <path
       d="m 205.36935,183.6693 h 15.937 v 11.9055 h -15.937 z"
       id="path225"
       inkscape:connector-curvature="0"
       style="fill:#000000;fill-opacity:0;fill-rule:evenodd" />
    <path
       d="m 205.36935,213.62204 c -12.5,0 -25.00787,-6 -25,-12 0.008,-6 12.53149,-12 25.06299,-12"
       id="path227"
       inkscape:connector-curvature="0"
       style="fill:#000000;fill-opacity:0;fill-rule:evenodd" />
    <path
       d="m 205.36934,213.62204 c -12.5,0 -25.00787,-6 -25,-12 0.004,-3 3.13681,-6 7.83514,-8.25 2.34916,-1.125 5.08969,-2.0625 8.02614,-2.71875 0.73412,-0.16406 1.48049,-0.31055 2.23602,-0.43799 0.18889,-0.0319 0.37836,-0.0625 0.56835,-0.092 l 0.4135,-0.0613"
       id="path229"
       inkscape:connector-curvature="0"
       style="fill-rule:evenodd;stroke:#351c75;stroke-width:1;stroke-linecap:butt;stroke-linejoin:round" />
    <path
       d="m 199.56961,191.70932 4.40475,-1.98007 -4.647,-1.3145 z"
       id="path231"
       inkscape:connector-curvature="0"
       style="fill:#351c75;fill-rule:evenodd;stroke:#351c75;stroke-width:1;stroke-linecap:butt" />
    <path
       d="m 348.93176,182.21793 v 0 c 0,-2.04393 1.65692,-3.70087 3.70087,-3.70087 h 69.8266 c 0.98153,0 1.92288,0.38991 2.61691,1.08396 0.69406,0.69404 1.08395,1.63537 1.08395,2.61691 v 14.80299 c 0,2.04393 -1.65692,3.70087 -3.70086,3.70087 h -69.8266 c -2.04395,0 -3.70087,-1.65694 -3.70087,-3.70087 z"
       id="path233"
       inkscape:connector-curvature="0"
       style="fill:#d9d9d9;fill-rule:evenodd" />
    <path
       d="m 348.93176,182.21793 v 0 c 0,-2.04393 1.65692,-3.70087 3.70087,-3.70087 h 69.8266 c 0.98153,0 1.92288,0.38991 2.61691,1.08396 0.69406,0.69404 1.08395,1.63537 1.08395,2.61691 v 14.80299 c 0,2.04393 -1.65692,3.70087 -3.70086,3.70087 h -69.8266 c -2.04395,0 -3.70087,-1.65694 -3.70087,-3.70087 z"
       id="path235"
       inkscape:connector-curvature="0"
       style="fill-rule:evenodd;stroke:#595959;stroke-width:1;stroke-linecap:butt;stroke-linejoin:round" />
    <path
       d="m 365.28616,194.41942 v -0.48438 l 0.98437,-0.1875 q 0.0156,-0.5 0.0156,-1.07812 0.0156,-0.59375 0.0156,-1.04688 v -0.64062 q 0,-0.54688 -0.0156,-0.90625 0,-0.35938 -0.0312,-0.76563 l -1.04688,-0.10937 v -0.46875 l 1.85938,-0.8125 0.20312,0.125 0.10938,1.07812 q 0.5,-0.54687 1.125,-0.875 0.64062,-0.32812 1.26562,-0.32812 0.85938,0 1.28125,0.57812 0.42188,0.57813 0.42188,1.89063 v 1.23437 q 0,0.45313 0,1.04688 0.0156,0.57812 0.0312,1.07812 l 0.92187,0.1875 v 0.48438 H 369.333 v -0.48438 l 1,-0.1875 q 0,-0.48437 0,-1.07812 0.0156,-0.59375 0.0156,-1.04688 v -1.14062 q 0,-0.90625 -0.26563,-1.25 -0.25,-0.35938 -0.84375,-0.35938 -0.45312,0 -0.875,0.1875 -0.42187,0.1875 -0.9375,0.60938 v 1.95312 q 0,0.4375 0,1.03125 0.0156,0.59375 0.0312,1.09375 l 0.92188,0.1875 v 0.48438 z m 11.12369,-5.89063 q -0.35938,0 -0.75,0.21875 -0.375,0.20313 -0.65625,0.67188 -0.26563,0.46875 -0.34375,1.23437 h 2.42187 q 0.48438,0 0.625,-0.1875 0.15625,-0.20312 0.15625,-0.5 0,-0.39062 -0.1875,-0.70312 -0.1875,-0.32813 -0.51562,-0.53125 -0.32813,-0.20313 -0.75,-0.20313 z m 0,6.0625 q -1.35938,0 -2.17188,-0.875 -0.8125,-0.875 -0.8125,-2.40625 0,-1.01562 0.42188,-1.78125 0.42187,-0.76562 1.125,-1.1875 0.70312,-0.42187 1.53125,-0.42187 0.6875,0 1.25,0.3125 0.5625,0.29687 0.89062,0.85937 0.32813,0.5625 0.32813,1.39063 0,0.21875 -0.0312,0.42187 -0.0156,0.1875 -0.0625,0.3125 h -4.25 q 0.0312,1.23438 0.60937,1.875 0.59375,0.64063 1.54688,0.64063 0.64062,0 1.0625,-0.26563 0.4375,-0.26562 0.79687,-0.67187 l 0.3125,0.25 q -0.375,0.70312 -1.01562,1.125 -0.625,0.42187 -1.53125,0.42187 z m 7.43796,-5.98437 v -0.51563 h 2.48437 v 0.51563 l -0.78125,0.14062 -1.90625,2.35938 1.84375,2.64062 1.01563,0.1875 v 0.48438 h -3.25 v -0.48438 l 0.95312,-0.17187 -1.3125,-1.90625 -1.46875,1.90625 1,0.17187 v 0.48438 h -2.65625 v -0.48438 l 0.84375,-0.15625 1.95313,-2.40625 -1.79688,-2.625 -0.90625,-0.14062 v -0.51563 h 2.96875 v 0.51563 l -0.8125,0.14062 1.28125,1.85938 1.42188,-1.82813 z m 5.52618,5.98437 q -0.6875,0 -1.10938,-0.375 -0.40625,-0.375 -0.40625,-1.14062 0,-0.25 0,-0.5 0,-0.25 0,-0.64063 v -3.14062 h -1.09375 v -0.57813 l 1.1875,-0.15625 0.34375,-1.78125 h 0.79688 l -0.0781,1.8125 h 1.79688 v 0.70313 h -1.8125 v 4.125 q 0,0.51562 0.20312,0.75 0.20313,0.23437 0.53125,0.23437 0.21875,0 0.42188,-0.0937 0.21875,-0.0937 0.46875,-0.26562 l 0.32812,0.34375 q -0.54687,0.70312 -1.57812,0.70312 z m 8.6402,-8.46875 h -0.8125 q 0,0.84375 -0.0156,1.73438 0,0.89062 0,1.78125 v 0.64062 h 0.875 q 1.21875,0 1.73438,-0.59375 0.51562,-0.59375 0.51562,-1.53125 0,-0.96875 -0.5625,-1.5 -0.54687,-0.53125 -1.73437,-0.53125 z m -3.34375,-0.0781 v -0.54688 h 3.57812 q 1.6875,0 2.53125,0.75 0.85938,0.73438 0.85938,1.90625 0,0.75 -0.375,1.375 -0.375,0.625 -1.20313,1 -0.8125,0.375 -2.1875,0.375 h -0.6875 q 0,0.71875 0,1.42188 0.0156,0.6875 0.0156,1.40625 l 1.25,0.14062 v 0.54688 h -3.78125 v -0.54688 l 1.21875,-0.14062 q 0.0312,-0.84375 0.0312,-1.70313 0,-0.875 0,-1.73437 v -0.65625 q 0,-0.875 0,-1.73438 0,-0.85937 -0.0312,-1.70312 z m 12.39709,8.57812 q -1.34375,0 -2.35937,-0.59375 -1.01563,-0.59375 -1.59375,-1.64062 -0.5625,-1.0625 -0.5625,-2.4375 0,-1.01563 0.34375,-1.85938 0.34375,-0.84375 0.9375,-1.46875 0.60937,-0.625 1.42187,-0.96875 0.82813,-0.34375 1.79688,-0.34375 0.54687,0 1.21875,0.125 0.6875,0.125 1.35937,0.5 l 0.0469,1.9375 h -0.8125 l -0.28125,-1.54687 q -0.35938,-0.20313 -0.70313,-0.28125 -0.32812,-0.0781 -0.65625,-0.0781 -0.89062,0 -1.625,0.45313 -0.71875,0.45312 -1.15625,1.34375 -0.4375,0.89062 -0.4375,2.1875 0,1.3125 0.39063,2.20312 0.40625,0.89063 1.125,1.34375 0.71875,0.45313 1.625,0.45313 0.375,0 0.78125,-0.0781 0.40625,-0.0937 0.79687,-0.28125 l 0.26563,-1.54687 h 0.82812 l -0.0469,1.9375 q -0.625,0.32812 -1.3125,0.48437 -0.6875,0.15625 -1.39063,0.15625 z"
       id="path237"
       inkscape:connector-curvature="0"
       style="fill:#202122;fill-rule:nonzero" />
    <path
       d="m 314.13837,207.6693 h 15.93701 v 11.9055 h -15.93701 z"
       id="path239"
       inkscape:connector-curvature="0"
       style="fill:#000000;fill-opacity:0;fill-rule:evenodd" />
    <path
       d="m 314.13837,183.6693 h 15.93701 v 11.9055 h -15.93701 z"
       id="path241"
       inkscape:connector-curvature="0"
       style="fill:#000000;fill-opacity:0;fill-rule:evenodd" />
    <path
       d="m 445.015,207.6693 h 15.93701 v 11.9055 H 445.015 Z"
       id="path243"
       inkscape:connector-curvature="0"
       style="fill:#000000;fill-opacity:0;fill-rule:evenodd" />
    <path
       d="m 445.015,183.6693 h 15.93701 v 11.9055 H 445.015 Z"
       id="path245"
       inkscape:connector-curvature="0"
       style="fill:#000000;fill-opacity:0;fill-rule:evenodd" />
    <path
       d="m 330.07538,189.62204 h 18.86615"
       id="path247"
       inkscape:connector-curvature="0"
       style="fill:#000000;fill-opacity:0;fill-rule:evenodd" />
    <path
       d="m 330.07538,189.62204 h 12.86615"
       id="path249"
       inkscape:connector-curvature="0"
       style="fill-rule:evenodd;stroke:#595959;stroke-width:1;stroke-linecap:butt;stroke-linejoin:round" />
    <path
       d="m 342.94153,191.27377 4.53809,-1.65173 -4.53809,-1.65172 z"
       id="path251"
       inkscape:connector-curvature="0"
       style="fill:#595959;fill-rule:evenodd;stroke:#595959;stroke-width:1;stroke-linecap:butt" />
    <path
       d="m 426.1601,189.61942 h 18.86615"
       id="path253"
       inkscape:connector-curvature="0"
       style="fill:#000000;fill-opacity:0;fill-rule:evenodd" />
    <path
       d="m 426.1601,189.61942 h 12.86615"
       id="path255"
       inkscape:connector-curvature="0"
       style="fill-rule:evenodd;stroke:#595959;stroke-width:1;stroke-linecap:butt;stroke-linejoin:round" />
    <path
       d="m 439.02625,191.27115 4.53809,-1.65173 -4.53809,-1.65172 z"
       id="path257"
       inkscape:connector-curvature="0"
       style="fill:#595959;fill-rule:evenodd;stroke:#595959;stroke-width:1;stroke-linecap:butt" />
    <path
       d="M 445.015,213.62204 H 330.08586"
       id="path259"
       inkscape:connector-curvature="0"
       style="fill:#000000;fill-opacity:0;fill-rule:evenodd" />
    <path
       d="M 445.015,213.62204 H 336.08586"
       id="path261"
       inkscape:connector-curvature="0"
       style="fill-rule:evenodd;stroke:#351c75;stroke-width:1;stroke-linecap:butt;stroke-linejoin:round" />
    <path
       d="m 336.08588,211.97032 -4.53809,1.65172 4.53809,1.65173 z"
       id="path263"
       inkscape:connector-curvature="0"
       style="fill:#351c75;fill-rule:evenodd;stroke:#351c75;stroke-width:1;stroke-linecap:butt" />
    <path
       d="m 585.1286,183.01581 v 0 c 0,-1.82358 1.47833,-3.3019 3.30194,-3.3019 h 33.74262 c 0.87573,0 1.71557,0.34787 2.33477,0.96711 0.61927,0.61923 0.96711,1.45907 0.96711,2.33479 v 13.20723 c 0,1.82358 -1.47828,3.3019 -3.30188,3.3019 h -33.74262 c -1.82361,0 -3.30194,-1.47832 -3.30194,-3.3019 z"
       id="path265"
       inkscape:connector-curvature="0"
       style="fill:#cfe2f3;fill-rule:evenodd" />
    <path
       d="m 585.1286,183.01581 v 0 c 0,-1.82358 1.47833,-3.3019 3.30194,-3.3019 h 33.74262 c 0.87573,0 1.71557,0.34787 2.33477,0.96711 0.61927,0.61923 0.96711,1.45907 0.96711,2.33479 v 13.20723 c 0,1.82358 -1.47828,3.3019 -3.30188,3.3019 h -33.74262 c -1.82361,0 -3.30194,-1.47832 -3.30194,-3.3019 z"
       id="path267"
       inkscape:connector-curvature="0"
       style="fill-rule:evenodd;stroke:#595959;stroke-width:1;stroke-linecap:butt;stroke-linejoin:round" />
    <path
       d="m 601.1092,186.12254 h -0.8125 q 0,0.84375 -0.0156,1.73437 0,0.89063 0,1.78125 v 0.64063 h 0.875 q 1.21875,0 1.73438,-0.59375 0.51562,-0.59375 0.51562,-1.53125 0,-0.96875 -0.5625,-1.5 -0.54687,-0.53125 -1.73437,-0.53125 z m -3.34375,-0.0781 v -0.54687 h 3.57812 q 1.6875,0 2.53125,0.75 0.85938,0.73437 0.85938,1.90625 0,0.75 -0.375,1.375 -0.375,0.625 -1.20313,1 -0.8125,0.375 -2.1875,0.375 h -0.6875 q 0,0.71875 0,1.42187 0.0156,0.6875 0.0156,1.40625 l 1.25,0.14063 v 0.54687 h -3.78125 v -0.54687 l 1.21875,-0.14063 q 0.0312,-0.84375 0.0312,-1.70312 0,-0.875 0,-1.73438 v -0.65625 q 0,-0.875 0,-1.73437 0,-0.85938 -0.0312,-1.70313 z m 12.39716,8.57813 q -1.34375,0 -2.35938,-0.59375 -1.01562,-0.59375 -1.59375,-1.64063 -0.5625,-1.0625 -0.5625,-2.4375 0,-1.01562 0.34375,-1.85937 0.34375,-0.84375 0.9375,-1.46875 0.60938,-0.625 1.42188,-0.96875 0.82812,-0.34375 1.79687,-0.34375 0.54688,0 1.21875,0.125 0.6875,0.125 1.35938,0.5 l 0.0469,1.9375 h -0.8125 l -0.28125,-1.54688 q -0.35937,-0.20312 -0.70312,-0.28125 -0.32813,-0.0781 -0.65625,-0.0781 -0.89063,0 -1.625,0.45312 -0.71875,0.45313 -1.15625,1.34375 -0.4375,0.89063 -0.4375,2.1875 0,1.3125 0.39062,2.20313 0.40625,0.89062 1.125,1.34375 0.71875,0.45312 1.625,0.45312 0.375,0 0.78125,-0.0781 0.40625,-0.0937 0.79688,-0.28125 l 0.26562,-1.54688 h 0.82813 l -0.0469,1.9375 q -0.625,0.32813 -1.3125,0.48438 -0.6875,0.15625 -1.39062,0.15625 z"
       id="path269"
       inkscape:connector-curvature="0"
       style="fill:#202122;fill-rule:nonzero" />
    <path
       d="m 553.78406,207.6693 h 15.93701 v 11.9055 h -15.93701 z"
       id="path271"
       inkscape:connector-curvature="0"
       style="fill:#000000;fill-opacity:0;fill-rule:evenodd" />
    <path
       d="m 553.78406,183.6693 h 15.93701 v 11.9055 h -15.93701 z"
       id="path273"
       inkscape:connector-curvature="0"
       style="fill:#000000;fill-opacity:0;fill-rule:evenodd" />
    <path
       d="m 569.72107,189.62204 h 15.40155"
       id="path275"
       inkscape:connector-curvature="0"
       style="fill:#000000;fill-opacity:0;fill-rule:evenodd" />
    <path
       d="m 569.72107,189.62204 h 9.40155"
       id="path277"
       inkscape:connector-curvature="0"
       style="fill-rule:evenodd;stroke:#595959;stroke-width:1;stroke-linecap:butt;stroke-linejoin:round" />
    <path
       d="m 579.1226,191.27377 4.53809,-1.65173 -4.53809,-1.65172 z"
       id="path279"
       inkscape:connector-curvature="0"
       style="fill:#595959;fill-rule:evenodd;stroke:#595959;stroke-width:1;stroke-linecap:butt" />
    <path
       d="M 640.80316,189.62204 H 765.59058"
       id="path281"
       inkscape:connector-curvature="0"
       style="fill:#000000;fill-opacity:0;fill-rule:evenodd" />
    <path
       d="M 640.80316,189.62204 H 753.59058"
       id="path283"
       inkscape:connector-curvature="0"
       style="fill-rule:evenodd;stroke:#595959;stroke-width:2;stroke-linecap:butt;stroke-linejoin:round" />
    <path
       d="m 753.5906,192.9255 9.07617,-3.30347 -9.07617,-3.30345 z"
       id="path285"
       inkscape:connector-curvature="0"
       style="fill:#595959;fill-rule:evenodd;stroke:#595959;stroke-width:2;stroke-linecap:butt" />
    <path
       d="M 765.58997,213.62204 H 640.80255"
       id="path287"
       inkscape:connector-curvature="0"
       style="fill:#000000;fill-opacity:0;fill-rule:evenodd" />
    <path
       d="M 765.58997,213.62204 H 652.80255"
       id="path289"
       inkscape:connector-curvature="0"
       style="fill-rule:evenodd;stroke:#351c75;stroke-width:2;stroke-linecap:butt;stroke-linejoin:round" />
    <path
       d="m 652.80255,210.31859 -9.07623,3.30345 9.07623,3.30347 z"
       id="path291"
       inkscape:connector-curvature="0"
       style="fill:#351c75;fill-rule:evenodd;stroke:#351c75;stroke-width:2;stroke-linecap:butt" />
    <path
       d="m 640.80383,213.62204 h 124.78741 v 19.71654 H 640.80383 Z"
       id="path293"
       inkscape:connector-curvature="0"
       style="fill:#000000;fill-opacity:0;fill-rule:evenodd" />
    <path
       d="m 652.49304,224.45656 q 0,0.96875 0.15625,1.8125 0.17187,0.82812 0.57812,1.6875 0.40625,0.85937 1.10938,1.875 l -0.3125,0.26562 q -1.26563,-1.1875 -1.89063,-2.57812 -0.60937,-1.40625 -0.60937,-3.0625 0,-1.64063 0.60937,-3.03125 0.625,-1.40625 1.89063,-2.59375 l 0.3125,0.26562 q -0.70313,1.01563 -1.10938,1.875 -0.40625,0.85938 -0.57812,1.70313 -0.15625,0.82812 -0.15625,1.78125 z m 6.15613,3.53125 q -0.70313,0 -1.35938,-0.26563 -0.65625,-0.28125 -1.1875,-0.8125 -0.53125,-0.53125 -0.84375,-1.3125 -0.29687,-0.78125 -0.29687,-1.8125 0,-0.98437 0.3125,-1.76562 0.3125,-0.78125 0.82812,-1.3125 0.53125,-0.54688 1.1875,-0.82813 0.65625,-0.28125 1.35938,-0.28125 0.6875,0 1.34375,0.26563 0.65625,0.26562 1.17187,0.79687 0.53125,0.53125 0.84375,1.3125 0.3125,0.78125 0.3125,1.8125 0,0.98438 -0.3125,1.76563 -0.29687,0.78125 -0.82812,1.32812 -0.51563,0.53125 -1.1875,0.82813 -0.65625,0.28125 -1.34375,0.28125 z m 0,-0.60938 q 0.625,0 1.0625,-0.29687 0.45312,-0.3125 0.73437,-0.8125 0.29688,-0.51563 0.42188,-1.15625 0.125,-0.65625 0.125,-1.32813 0,-0.67187 -0.125,-1.3125 -0.125,-0.64062 -0.42188,-1.15625 -0.28125,-0.53125 -0.73437,-0.82812 -0.4375,-0.29688 -1.0625,-0.29688 -0.625,0 -1.07813,0.29688 -0.45312,0.29687 -0.75,0.82812 -0.28125,0.51563 -0.42187,1.15625 -0.125,0.64063 -0.125,1.3125 0,0.67188 0.125,1.32813 0.14062,0.64062 0.42187,1.15625 0.29688,0.5 0.75,0.8125 0.45313,0.29687 1.07813,0.29687 z m 4.65594,3.29688 v -0.42188 l 0.95313,-0.17187 q 0.0156,-0.5 0.0156,-0.98438 0.0156,-0.48437 0.0156,-0.95312 v -3.4375 q 0,-0.5 -0.0156,-0.8125 0,-0.32813 -0.0156,-0.6875 l -0.95313,-0.10938 v -0.42187 l 1.67188,-0.73438 0.1875,0.125 0.0781,0.78125 q 0.84375,-0.90625 1.79688,-0.90625 0.65625,0 1.17187,0.35938 0.51563,0.35937 0.8125,1.03125 0.3125,0.67187 0.3125,1.59375 0,0.9375 -0.32812,1.60937 -0.3125,0.67188 -0.875,1.04688 -0.5625,0.375 -1.26563,0.375 -0.40625,0 -0.8125,-0.17188 -0.40625,-0.17187 -0.78125,-0.60937 v 0.95312 q 0,0.46875 0,0.95313 0.0156,0.5 0.0156,0.98437 l 1.09375,0.1875 v 0.42188 z m 3.45313,-8.04688 q -0.28125,0 -0.64063,0.14063 -0.35937,0.14062 -0.8125,0.51562 v 3.375 q 0.34375,0.32813 0.65625,0.46875 0.32813,0.14063 0.67188,0.14063 0.67187,0 1.14062,-0.53125 0.48438,-0.54688 0.48438,-1.70313 0,-1.15625 -0.42188,-1.78125 -0.42187,-0.625 -1.07812,-0.625 z m 5.45416,5.32813 q -0.60937,0 -0.98437,-0.32813 -0.375,-0.34375 -0.375,-1.04687 0,-0.21875 0,-0.4375 0.0156,-0.23438 0.0156,-0.57813 v -2.82812 h -1 v -0.53125 l 1.0625,-0.125 0.3125,-1.60938 h 0.71875 l -0.0625,1.625 h 1.60938 v 0.64063 h -1.625 v 3.71875 q 0,0.45312 0.17187,0.67187 0.1875,0.20313 0.48438,0.20313 0.20312,0 0.39062,-0.0781 0.1875,-0.0937 0.42188,-0.25 l 0.28125,0.3125 q -0.48438,0.64063 -1.42188,0.64063 z m 2.1344,-3.82813 v -0.5625 l 4.64062,-2.70312 0.35938,0.65625 -4.15625,2.32812 4.15625,2.32813 -0.35938,0.65625 z m 6.21582,-3.85937 v -0.5 h 5.96875 l 0.0937,2.125 h -0.6875 l -0.26562,-1.51563 h -2.82813 q 0,0.76563 -0.0156,1.53125 0,0.76563 0,1.51563 h 1.85937 l 0.17188,-1.14063 h 0.54687 v 2.95313 h -0.54687 l -0.17188,-1.25 h -1.85937 q 0,0.89062 0,1.67187 0.0156,0.76563 0.0156,1.51563 l 1.125,0.14062 v 0.48438 h -3.40625 v -0.48438 l 1.09375,-0.14062 q 0.0312,-0.75 0.0312,-1.53125 0,-0.78125 0,-1.5625 v -0.59375 q 0,-0.78125 0,-1.54688 0,-0.78125 -0.0312,-1.54687 z m 9.15918,2.23437 q -0.34375,0 -0.6875,0.1875 -0.34375,0.1875 -0.59375,0.60938 -0.23437,0.42187 -0.3125,1.10937 h 2.1875 q 0.4375,0 0.5625,-0.17187 0.14063,-0.1875 0.14063,-0.45313 0,-0.34375 -0.17188,-0.625 -0.17187,-0.29687 -0.46875,-0.46875 -0.29687,-0.1875 -0.65625,-0.1875 z m -0.0156,5.45313 q -1.21875,0 -1.95313,-0.78125 -0.71875,-0.79688 -0.71875,-2.17188 0,-0.92187 0.375,-1.60937 0.375,-0.6875 1,-1.0625 0.64063,-0.39063 1.375,-0.39063 0.625,0 1.125,0.28125 0.51563,0.28125 0.8125,0.79688 0.29688,0.5 0.29688,1.23437 0,0.20313 -0.0312,0.375 -0.0156,0.17188 -0.0469,0.29688 h -3.82812 q 0.0156,1.09375 0.54687,1.67187 0.53125,0.57813 1.39063,0.57813 0.57812,0 0.95312,-0.23438 0.39063,-0.23437 0.71875,-0.60937 l 0.28125,0.23437 q -0.32812,0.64063 -0.90625,1.01563 -0.57812,0.375 -1.39062,0.375 z m 5.35437,0 q -0.60938,0 -0.98438,-0.32813 -0.375,-0.34375 -0.375,-1.04687 0,-0.21875 0,-0.4375 0.0156,-0.23438 0.0156,-0.57813 v -2.82812 h -1 v -0.53125 l 1.0625,-0.125 0.3125,-1.60938 h 0.71875 l -0.0625,1.625 h 1.60937 v 0.64063 h -1.625 v 3.71875 q 0,0.45312 0.17188,0.67187 0.1875,0.20313 0.48437,0.20313 0.20313,0 0.39063,-0.0781 0.1875,-0.0937 0.42187,-0.25 l 0.28125,0.3125 q -0.48437,0.64063 -1.42187,0.64063 z m 1.97814,-7.6875 v -0.5 h 5.96875 l 0.0937,2.125 h -0.6875 l -0.26562,-1.51563 h -2.82813 q 0,0.76563 -0.0156,1.53125 0,0.76563 0,1.51563 h 1.76562 l 0.17188,-1.14063 h 0.54687 v 2.82813 h -0.54687 l -0.15625,-1.125 h -1.78125 q 0,0.89062 0,1.6875 0.0156,0.78125 0.0156,1.53125 h 3.0625 l 0.26563,-1.54688 h 0.6875 l -0.0781,2.14063 h -6.21875 v -0.48438 l 1.09375,-0.14062 q 0.0312,-0.75 0.0312,-1.53125 0,-0.78125 0,-1.5625 v -0.59375 q 0,-0.78125 0,-1.54688 0,-0.78125 -0.0312,-1.54687 z m 10.25171,0.0625 h -0.73437 q 0,0.76562 -0.0156,1.5625 0,0.79687 0,1.59375 v 0.57812 h 0.79688 q 1.09375,0 1.54687,-0.53125 0.46875,-0.53125 0.46875,-1.375 0,-0.875 -0.5,-1.34375 -0.48437,-0.48437 -1.5625,-0.48437 z m -3.01562,-0.0625 v -0.5 h 3.21875 q 1.53125,0 2.28125,0.67187 0.76562,0.65625 0.76562,1.71875 0,0.67188 -0.34375,1.23438 -0.32812,0.5625 -1.0625,0.90625 -0.73437,0.32812 -1.96875,0.32812 h -0.625 q 0,0.65625 0,1.28125 0.0156,0.625 0.0156,1.26563 l 1.125,0.14062 v 0.48438 h -3.40625 v -0.48438 l 1.09375,-0.14062 q 0.0312,-0.75 0.0312,-1.53125 0,-0.78125 0,-1.5625 v -0.59375 q 0,-0.78125 0,-1.54688 0,-0.78125 -0.0312,-1.54687 z m 12.2243,3.29687 v 0.5625 l -4.64062,2.70313 -0.35938,-0.65625 4.15625,-2.32813 -4.15625,-2.32812 0.35938,-0.65625 z m 3.24701,3.89063 q 0,0.71875 -0.34375,1.32812 -0.34375,0.60938 -0.875,1.04688 -0.53125,0.4375 -1.10937,0.65625 l -0.15625,-0.40625 q 0.60937,-0.3125 1.07812,-0.76563 0.46875,-0.4375 0.6875,-1.10937 l -0.45312,-0.34375 q -0.23438,-0.1875 -0.34375,-0.40625 -0.10938,-0.23438 -0.10938,-0.45313 0,-0.3125 0.1875,-0.53125 0.1875,-0.23437 0.5625,-0.23437 0.15625,0 0.32813,0.0781 0.1875,0.0625 0.40625,0.26563 0.0781,0.23437 0.10937,0.45312 0.0312,0.20313 0.0312,0.42188 z m 6.63043,-3.51563 q 0,0.875 0,1.6875 0.0156,0.8125 0.0156,1.60938 h 0.95312 q 1.39063,0 2.125,-0.90625 0.75,-0.90625 0.75,-2.54688 0,-1.6875 -0.73437,-2.5625 -0.71875,-0.89062 -2.03125,-0.89062 h -1.0625 q 0,0.76562 -0.0156,1.5625 0,0.79687 0,1.59375 z m -2.26562,-3.67187 v -0.5 h 3.53125 q 1.15625,0 2.03125,0.46875 0.875,0.45312 1.35937,1.35937 0.5,0.89063 0.5,2.1875 0,1.29688 -0.54687,2.20313 -0.53125,0.89062 -1.46875,1.35937 -0.92188,0.45313 -2.09375,0.45313 h -3.3125 v -0.48438 l 1.09375,-0.14062 q 0.0312,-0.76563 0.0312,-1.5625 0,-0.79688 0,-1.67188 v -0.45312 q 0,-0.78125 0,-1.54688 0,-0.78125 -0.0312,-1.54687 z m 11.2232,2.23437 q -0.34375,0 -0.6875,0.1875 -0.34375,0.1875 -0.59375,0.60938 -0.23437,0.42187 -0.3125,1.10937 h 2.1875 q 0.4375,0 0.5625,-0.17187 0.14063,-0.1875 0.14063,-0.45313 0,-0.34375 -0.17188,-0.625 -0.17187,-0.29687 -0.46875,-0.46875 -0.29687,-0.1875 -0.65625,-0.1875 z m -0.0156,5.45313 q -1.21875,0 -1.95313,-0.78125 -0.71875,-0.79688 -0.71875,-2.17188 0,-0.92187 0.375,-1.60937 0.375,-0.6875 1,-1.0625 0.64063,-0.39063 1.375,-0.39063 0.625,0 1.125,0.28125 0.51563,0.28125 0.8125,0.79688 0.29688,0.5 0.29688,1.23437 0,0.20313 -0.0312,0.375 -0.0156,0.17188 -0.0469,0.29688 h -3.82812 q 0.0156,1.09375 0.54687,1.67187 0.53125,0.57813 1.39063,0.57813 0.57812,0 0.95312,-0.23438 0.39063,-0.23437 0.71875,-0.60937 l 0.28125,0.23437 q -0.32812,0.64063 -0.90625,1.01563 -0.57812,0.375 -1.39062,0.375 z m 6.10443,0 q -1.23437,0 -1.96875,-0.79688 -0.73437,-0.8125 -0.73437,-2.1875 0,-0.95312 0.39062,-1.625 0.39063,-0.6875 1.03125,-1.04687 0.64063,-0.35938 1.35938,-0.35938 0.53125,0 0.98437,0.20313 0.46875,0.20312 0.76563,0.5625 0.29687,0.35937 0.375,0.79687 -0.0937,0.45313 -0.5625,0.45313 -0.29688,0 -0.45313,-0.15625 -0.14062,-0.15625 -0.20312,-0.42188 l -0.21875,-0.78125 q -0.17188,-0.0625 -0.32813,-0.0781 -0.15625,-0.0156 -0.3125,-0.0156 -0.76562,0 -1.26562,0.59375 -0.5,0.59375 -0.5,1.75 0,1.125 0.53125,1.73438 0.54687,0.59375 1.39062,0.59375 0.51563,0 0.9375,-0.23438 0.4375,-0.23437 0.71875,-0.67187 l 0.29688,0.15625 q -0.25,0.73437 -0.8125,1.14062 -0.5625,0.39063 -1.42188,0.39063 z m 6.38025,-7.625 h -1.04688 q 0,0.78125 -0.0156,1.57812 0,0.78125 0,1.625 h 0.92187 q 0.96875,0 1.42188,-0.46875 0.46875,-0.46875 0.46875,-1.1875 0,-0.75 -0.42188,-1.14062 -0.40625,-0.40625 -1.32812,-0.40625 z m -3.32813,-0.0625 v -0.5 h 3.35938 q 1.375,0 2.14062,0.5625 0.76563,0.54687 0.76563,1.54687 0,0.6875 -0.5,1.26563 -0.5,0.57812 -1.51563,0.75 0.53125,0.10937 0.875,0.46875 0.34375,0.35937 0.54688,1.0625 l 0.51562,1.78125 0.92188,0.10937 v 0.48438 q -0.17188,0.0469 -0.40625,0.0781 -0.21875,0.0469 -0.48438,0.0469 -0.5625,0 -0.85937,-0.17188 -0.28125,-0.17187 -0.375,-0.59375 l -0.48438,-1.92187 q -0.10937,-0.5 -0.3125,-0.73438 -0.20312,-0.25 -0.53125,-0.32812 -0.3125,-0.0937 -0.79687,-0.0937 h -0.59375 q 0,0.85937 0,1.625 0.0156,0.75 0.0156,1.46875 l 1.10938,0.14062 v 0.48438 h -3.39063 v -0.48438 l 1.09375,-0.14062 q 0.0312,-0.75 0.0312,-1.53125 0,-0.78125 0,-1.5625 v -0.59375 q 0,-0.78125 0,-1.54688 0,-0.78125 -0.0312,-1.54687 z m 9.42145,4.1875 q 0,-0.95313 -0.17187,-1.78125 -0.15625,-0.84375 -0.5625,-1.70313 -0.39063,-0.85937 -1.10938,-1.875 l 0.3125,-0.26562 q 1.28125,1.1875 1.89063,2.59375 0.60937,1.39062 0.60937,3.03125 0,1.65625 -0.60937,3.0625 -0.60938,1.39062 -1.89063,2.57812 l -0.3125,-0.26562 q 0.71875,-1.01563 1.10938,-1.875 0.40625,-0.85938 0.5625,-1.6875 0.17187,-0.84375 0.17187,-1.8125 z"
       id="path295"
       inkscape:connector-curvature="0"
       style="fill:#000000;fill-rule:nonzero" />
    <path
       d="m 640.80383,169.81102 h 124.78741 v 19.71654 H 640.80383 Z"
       id="path297"
       inkscape:connector-curvature="0"
       style="fill:#000000;fill-opacity:0;fill-rule:evenodd" />
    <path
       d="m 696.37134,184.14554 q -0.73437,0 -1.15625,-0.48438 -0.40625,-0.48437 -0.40625,-1.67187 l 0.0469,-2.98438 -0.85938,-0.1875 v -0.4375 l 1.76563,-0.15625 0.125,0.10938 -0.0625,1.6875 v 1.85937 q 0,0.78125 0.23437,1.09375 0.25,0.3125 0.71875,0.3125 0.84375,0 1.6875,-0.76562 l 0.0312,-3.53125 -0.84375,-0.17188 v -0.4375 l 1.73438,-0.15625 0.125,0.10938 -0.0469,1.6875 v 3.375 l 0.82813,0.15625 v 0.4375 l -1.67188,0.0937 -0.125,-1.0625 q -0.48437,0.57812 -1.03125,0.85937 -0.53125,0.26563 -1.09375,0.26563 z m 6.35541,-4.53125 h 0.48437 q 0.8125,0 1.26563,-0.42188 0.45312,-0.42187 0.45312,-1.1875 0,-0.65625 -0.375,-1.01562 -0.375,-0.375 -1.09375,-0.375 -0.10937,0 -0.25,0.0156 -0.125,0.0156 -0.29687,0.0469 l -0.15625,0.59375 q -0.0937,0.375 -0.25,0.5625 -0.14063,0.1875 -0.45313,0.1875 -0.1875,0 -0.34375,-0.0937 -0.15625,-0.10938 -0.21875,-0.32813 0.15625,-0.76562 0.75,-1.14062 0.59375,-0.375 1.42188,-0.375 1.0625,0 1.6875,0.53125 0.625,0.51562 0.625,1.34375 0,0.65625 -0.42188,1.17187 -0.40625,0.5 -1.15625,0.76563 0.92188,0.1875 1.35938,0.70312 0.45312,0.51563 0.45312,1.25 0,0.65625 -0.34375,1.17188 -0.32812,0.51562 -0.9375,0.82812 -0.59375,0.29688 -1.40625,0.29688 -0.875,0 -1.51562,-0.39063 -0.625,-0.40625 -0.78125,-1.3125 0.20312,-0.39062 0.60937,-0.39062 0.3125,0 0.4375,0.20312 0.14063,0.20313 0.26563,0.65625 l 0.15625,0.625 q 0.20312,0.0469 0.375,0.0625 0.17187,0 0.29687,0 0.89063,0 1.32813,-0.45312 0.45312,-0.46875 0.45312,-1.26563 0,-0.78125 -0.46875,-1.21875 -0.45312,-0.45312 -1.375,-0.45312 h -0.57812 z m 4.56256,4.375 v -0.78125 q 0.48437,-0.46875 0.92187,-0.92188 0.45313,-0.46875 0.84375,-0.875 0.90625,-0.95312 1.3125,-1.71875 0.42188,-0.76562 0.42188,-1.46875 0,-0.73437 -0.39063,-1.17187 -0.39062,-0.4375 -1.04687,-0.4375 -0.125,0 -0.28125,0.0156 -0.14063,0.0156 -0.3125,0.0469 l -0.21875,0.82812 q -0.125,0.45313 -0.29688,0.64063 -0.15625,0.1875 -0.40625,0.1875 -0.39062,0 -0.60937,-0.39063 0.0781,-0.64062 0.42187,-1.04687 0.34375,-0.42188 0.875,-0.60938 0.53125,-0.20312 1.125,-0.20312 1.17188,0 1.6875,0.57812 0.53125,0.5625 0.53125,1.45313 0,0.53125 -0.20312,1.03125 -0.20313,0.5 -0.73438,1.125 -0.51562,0.60937 -1.4375,1.5 -0.23437,0.23437 -0.57812,0.5625 -0.34375,0.32812 -0.71875,0.67187 h 4.03125 v 0.98438 z"
       id="path299"
       inkscape:connector-curvature="0"
       style="fill:#000000;fill-rule:nonzero" />
    <path
       d="m 640.8024,207.6693 h 15.93701 v 11.9055 H 640.8024 Z"
       id="path301"
       inkscape:connector-curvature="0"
       style="fill:#000000;fill-opacity:0;fill-rule:evenodd" />
    <path
       d="m 640.8024,183.6693 h 15.93701 v 11.9055 H 640.8024 Z"
       id="path303"
       inkscape:connector-curvature="0"
       style="fill:#000000;fill-opacity:0;fill-rule:evenodd" />
    <path
       d="M 640.8024,213.62204 H 569.71579"
       id="path305"
       inkscape:connector-curvature="0"
       style="fill:#000000;fill-opacity:0;fill-rule:evenodd" />
    <path
       d="M 640.8024,213.62204 H 575.71579"
       id="path307"
       inkscape:connector-curvature="0"
       style="fill-rule:evenodd;stroke:#351c75;stroke-width:1;stroke-linecap:butt;stroke-linejoin:round" />
    <path
       d="m 575.7158,211.97032 -4.53815,1.65172 4.53815,1.65173 z"
       id="path309"
       inkscape:connector-curvature="0"
       style="fill:#351c75;fill-rule:evenodd;stroke:#351c75;stroke-width:1;stroke-linecap:butt" />
    <path
       d="m 625.47504,189.61942 h 15.33862"
       id="path311"
       inkscape:connector-curvature="0"
       style="fill:#000000;fill-opacity:0;fill-rule:evenodd" />
    <path
       d="m 625.47504,189.61942 h 9.33862"
       id="path313"
       inkscape:connector-curvature="0"
       style="fill-rule:evenodd;stroke:#595959;stroke-width:1;stroke-linecap:butt;stroke-linejoin:round" />
    <path
       d="m 634.81366,191.27115 4.53809,-1.65173 -4.53809,-1.65172 z"
       id="path315"
       inkscape:connector-curvature="0"
       style="fill:#595959;fill-rule:evenodd;stroke:#595959;stroke-width:1;stroke-linecap:butt" />
    <path
       d="m 605.3018,199.52493 c 0,7.05511 -17.79523,14.11024 -35.59052,14.11024"
       id="path317"
       inkscape:connector-curvature="0"
       style="fill:#000000;fill-opacity:0;fill-rule:evenodd" />
    <path
       d="m 605.3018,199.52493 c 0,3.52756 -4.44879,7.05511 -11.12201,9.70079 -3.33661,1.32283 -7.22937,2.4252 -11.40015,3.19685 -2.08532,0.38582 -4.24023,0.68897 -6.42993,0.89566 l -0.64404,0.0571"
       id="path319"
       inkscape:connector-curvature="0"
       style="fill-rule:evenodd;stroke:#351c75;stroke-width:1;stroke-linecap:butt;stroke-linejoin:round" />
    <path
       d="m 575.63416,211.72519 -4.46234,1.84668 4.60535,1.45367 z"
       id="path321"
       inkscape:connector-curvature="0"
       style="fill:#351c75;fill-rule:evenodd;stroke:#351c75;stroke-width:1;stroke-linecap:butt" />
    <path
       d="m 211.2769,148.03232 h 112.9449 v 19.71654 H 211.2769 Z"
       id="path323"
       inkscape:connector-curvature="0"
       style="fill:#000000;fill-opacity:0;fill-rule:evenodd" />
    <path
       d="m 254.70805,154.13934 v -0.6875 h 4.35939 v 0.70312 l -1.32812,0.15625 2.23437,6.54688 2.23438,-6.54688 -1.23438,-0.15625 v -0.70312 h 3.28125 v 0.6875 l -1.1875,0.17187 -3.0625,8.92188 h -1.01562 l -3.28127,-8.98438 z m 9.21114,9.03125 v -0.59375 l 0.9375,-0.1875 q 0.0156,-0.54688 0.0156,-1.1875 0,-0.64063 0,-1.10938 v -0.78125 q 0,-0.59375 -0.0156,-0.95312 0,-0.35938 -0.0312,-0.79688 l -1.03125,-0.14062 v -0.54688 l 2.45312,-0.92187 0.23438,0.14062 0.14062,1.73438 q 0.34375,-0.92188 0.90625,-1.39063 0.57813,-0.48437 1.15625,-0.48437 0.39063,0 0.71875,0.20312 0.32813,0.20313 0.4375,0.57813 -0.0156,0.54687 -0.26562,0.84375 -0.25,0.29687 -0.6875,0.29687 -0.53125,0 -1,-0.51562 l -0.125,-0.15625 q -0.78125,0.65625 -1.125,1.82812 v 1.0625 q 0,0.45313 0,1.07813 0,0.625 0.0156,1.17187 l 1.20313,0.23438 v 0.59375 z m 12.09384,-9.03125 v -0.6875 h 4.35937 v 0.6875 l -1.21875,0.14062 q -0.0156,0.90625 -0.0312,1.84375 0,0.92188 0,1.875 v 0.625 q 0,0.92188 0,1.85938 0.0156,0.92187 0.0312,1.85937 l 1.21875,0.14063 v 0.6875 h -4.35937 v -0.6875 l 1.1875,-0.14063 q 0.0312,-0.92187 0.0312,-1.875 0,-0.95312 0,-1.90625 h -3.98438 q 0,1.0625 0,1.98438 0.0156,0.92187 0.0312,1.79687 l 1.20313,0.14063 v 0.6875 h -4.35938 v -0.6875 l 1.20313,-0.14063 q 0.0312,-0.90625 0.0312,-1.84375 0,-0.9375 0,-1.875 v -0.625 q 0,-0.92187 0,-1.84375 0,-0.9375 -0.0312,-1.875 l -1.20313,-0.14062 v -0.6875 h 4.35938 v 0.6875 l -1.20313,0.14062 q -0.0156,0.90625 -0.0312,1.8125 0,0.90625 0,1.71875 h 3.98438 q 0,-0.90625 0,-1.78125 0,-0.89062 -0.0312,-1.75 z"
       id="path325"
       inkscape:connector-curvature="0"
       style="fill:#000000;fill-rule:nonzero" />
    <path
       d="m 450.93045,148.03232 h 112.94486 v 19.71654 H 450.93045 Z"
       id="path327"
       inkscape:connector-curvature="0"
       style="fill:#000000;fill-opacity:0;fill-rule:evenodd" />
    <path
       d="m 494.3616,154.13934 v -0.6875 h 4.35937 v 0.70312 l -1.32812,0.15625 2.23437,6.54688 2.23438,-6.54688 -1.23438,-0.15625 v -0.70312 h 3.28125 v 0.6875 l -1.1875,0.17187 -3.0625,8.92188 h -1.01562 l -3.28125,-8.98438 z m 9.21112,9.03125 v -0.59375 l 0.9375,-0.1875 q 0.0156,-0.54688 0.0156,-1.1875 0,-0.64063 0,-1.10938 v -0.78125 q 0,-0.59375 -0.0156,-0.95312 0,-0.35938 -0.0312,-0.79688 l -1.03125,-0.14062 v -0.54688 l 2.45313,-0.92187 0.23437,0.14062 0.14063,1.73438 q 0.34375,-0.92188 0.90625,-1.39063 0.57812,-0.48437 1.15625,-0.48437 0.39062,0 0.71875,0.20312 0.32812,0.20313 0.4375,0.57813 -0.0156,0.54687 -0.26563,0.84375 -0.25,0.29687 -0.6875,0.29687 -0.53125,0 -1,-0.51562 l -0.125,-0.15625 q -0.78125,0.65625 -1.125,1.82812 v 1.0625 q 0,0.45313 0,1.07813 0,0.625 0.0156,1.17187 l 1.20312,0.23438 v 0.59375 z m 12.09384,-9.03125 v -0.6875 h 4.35938 v 0.6875 l -1.21875,0.14062 q -0.0156,0.90625 -0.0312,1.84375 0,0.92188 0,1.875 v 0.625 q 0,0.92188 0,1.85938 0.0156,0.92187 0.0312,1.85937 l 1.21875,0.14063 v 0.6875 h -4.35938 v -0.6875 l 1.1875,-0.14063 q 0.0312,-0.92187 0.0312,-1.875 0,-0.95312 0,-1.90625 h -3.98437 q 0,1.0625 0,1.98438 0.0156,0.92187 0.0312,1.79687 l 1.20312,0.14063 v 0.6875 h -4.35934 v -0.6875 l 1.20312,-0.14063 q 0.0312,-0.90625 0.0312,-1.84375 0,-0.9375 0,-1.875 v -0.625 q 0,-0.92187 0,-1.84375 0,-0.9375 -0.0312,-1.875 l -1.20312,-0.14062 v -0.6875 h 4.35934 v 0.6875 l -1.20312,0.14062 q -0.0156,0.90625 -0.0312,1.8125 0,0.90625 0,1.71875 h 3.98437 q 0,-0.90625 0,-1.78125 0,-0.89062 -0.0312,-1.75 z"
       id="path329"
       inkscape:connector-curvature="0"
       style="fill:#000000;fill-rule:nonzero" />
    <path
       d="m 646.647,148.03232 h 112.94489 v 19.71654 H 646.647 Z"
       id="path331"
       inkscape:connector-curvature="0"
       style="fill:#000000;fill-opacity:0;fill-rule:evenodd" />
    <path
       d="m 690.0781,154.13934 v -0.6875 h 4.35937 v 0.70312 l -1.32812,0.15625 2.23437,6.54688 2.23438,-6.54688 -1.23438,-0.15625 v -0.70312 h 3.28125 v 0.6875 l -1.1875,0.17187 -3.0625,8.92188 h -1.01562 l -3.28125,-8.98438 z m 9.21112,9.03125 v -0.59375 l 0.9375,-0.1875 q 0.0156,-0.54688 0.0156,-1.1875 0,-0.64063 0,-1.10938 v -0.78125 q 0,-0.59375 -0.0156,-0.95312 0,-0.35938 -0.0312,-0.79688 l -1.03125,-0.14062 v -0.54688 l 2.45313,-0.92187 0.23437,0.14062 0.14063,1.73438 q 0.34375,-0.92188 0.90625,-1.39063 0.57812,-0.48437 1.15625,-0.48437 0.39062,0 0.71875,0.20312 0.32812,0.20313 0.4375,0.57813 -0.0156,0.54687 -0.26563,0.84375 -0.25,0.29687 -0.6875,0.29687 -0.53125,0 -1,-0.51562 l -0.125,-0.15625 q -0.78125,0.65625 -1.125,1.82812 v 1.0625 q 0,0.45313 0,1.07813 0,0.625 0.0156,1.17187 l 1.20312,0.23438 v 0.59375 z m 12.09387,-9.03125 v -0.6875 h 4.35938 v 0.6875 l -1.21875,0.14062 q -0.0156,0.90625 -0.0312,1.84375 0,0.92188 0,1.875 v 0.625 q 0,0.92188 0,1.85938 0.0156,0.92187 0.0312,1.85937 l 1.21875,0.14063 v 0.6875 h -4.35938 v -0.6875 l 1.1875,-0.14063 q 0.0312,-0.92187 0.0312,-1.875 0,-0.95312 0,-1.90625 h -3.98437 q 0,1.0625 0,1.98438 0.0156,0.92187 0.0312,1.79687 l 1.20312,0.14063 v 0.6875 h -4.35937 v -0.6875 l 1.20312,-0.14063 q 0.0312,-0.90625 0.0312,-1.84375 0,-0.9375 0,-1.875 v -0.625 q 0,-0.92187 0,-1.84375 0,-0.9375 -0.0312,-1.875 l -1.20312,-0.14062 v -0.6875 h 4.35937 v 0.6875 l -1.20312,0.14062 q -0.0156,0.90625 -0.0312,1.8125 0,0.90625 0,1.71875 h 3.98437 q 0,-0.90625 0,-1.78125 0,-0.89062 -0.0312,-1.75 z"
       id="path333"
       inkscape:connector-curvature="0"
       style="fill:#000000;fill-rule:nonzero" />
    <path
       d="m 97.03412,147.24889 h 693.7953 V 260.13077 H 97.03412 Z"
       id="path733"
       inkscape:connector-curvature="0"
       style="fill:#000000;fill-opacity:0;fill-rule:evenodd" />
  </g>
</svg>
