<?xml version="1.0" encoding="UTF-8" standalone="no"?>
<svg
   xmlns:dc="http://purl.org/dc/elements/1.1/"
   xmlns:cc="http://creativecommons.org/ns#"
   xmlns:rdf="http://www.w3.org/1999/02/22-rdf-syntax-ns#"
   xmlns:svg="http://www.w3.org/2000/svg"
   xmlns="http://www.w3.org/2000/svg"
   style="fill:none;stroke:none;stroke-linecap:square;stroke-miterlimit:10"
   height="149.91339"
   width="466.60629"
   id="svg621"
   stroke-miterlimit="10"
   viewBox="0 0 466.60629 149.91339"
   version="1.1">
  <metadata
     id="metadata627">
    <rdf:RDF>
      <cc:Work
         rdf:about="">
        <dc:format>image/svg+xml</dc:format>
        <dc:type
           rdf:resource="http://purl.org/dc/dcmitype/StillImage" />
        <dc:title></dc:title>
      </cc:Work>
    </rdf:RDF>
  </metadata>
  <defs
     id="defs625" />
  <clipPath
     id="g2fd53e73fb8_0_45.0">
    <path
       style="clip-rule:nonzero"
       id="path2"
       d="M 0,0 H 960 V 540 H 0 Z" />
  </clipPath>
  <g
     transform="translate(-9.450131,-18.528872)"
     id="g619"
     clip-path="url(#g2fd53e73fb8_0_45.0)">
    <path
       style="fill:#000000;fill-opacity:0;fill-rule:evenodd"
       id="path15"
       d="M 9.950131,19.028872 H 475.55643 V 167.94226 H 9.950131 Z" />
    <path
       style="fill:#d9d9d9;fill-rule:evenodd"
       id="path19"
       d="m 52.43707,22.56367 h 52.7874 v 26.64567 h -52.7874 z" />
    <path
       style="fill-rule:evenodd;stroke:#000000;stroke-width:1;stroke-linecap:butt;stroke-linejoin:round"
       id="path21"
       d="m 52.43707,22.56367 h 52.7874 v 26.64567 h -52.7874 z" />
    <path
       style="fill:#000000;fill-rule:nonzero"
       id="path23"
       d="m 74.901886,31.699629 v -0.65625 h 7.96875 l 0.109375,2.828127 h -0.90625 l -0.359375,-2.031252 h -3.75 q -0.01563,1.031252 -0.03125,2.062502 0,1.015625 0,2 h 2.46875 l 0.234375,-1.515625 h 0.734375 v 3.9375 h -0.734375 l -0.234375,-1.671875 h -2.46875 q 0,1.1875 0,2.234375 0.01563,1.03125 0.03125,2.03125 l 1.484375,0.171875 v 0.65625 h -4.546875 v -0.65625 l 1.46875,-0.171875 q 0.03125,-1.015625 0.03125,-2.046875 0,-1.046875 0,-2.078125 v -0.796875 q 0,-1.03125 0,-2.0625 0,-1.03125 -0.03125,-2.062502 z" />
    <path
       style="fill:#d9d9d9;fill-rule:evenodd"
       id="path25"
       d="m 134.40102,22.564991 h 52.7874 v 26.645672 h -52.7874 z" />
    <path
       style="fill-rule:evenodd;stroke:#000000;stroke-width:1;stroke-linecap:butt;stroke-linejoin:round"
       id="path27"
       d="m 134.40102,22.564991 h 52.7874 v 26.645672 h -52.7874 z" />
    <path
       style="fill:#000000;fill-rule:nonzero"
       id="path29"
       d="m 158.84908,36.591576 q 0,1.171875 0,2.265625 0.0156,1.078125 0.0312,2.140625 h 1.26562 q 1.84375,0 2.82813,-1.203125 1,-1.21875 1,-3.390625 0,-2.25 -0.98438,-3.4375 -0.96875,-1.1875 -2.70312,-1.1875 h -1.40625 q -0.0156,1.03125 -0.0312,2.09375 0,1.0625 0,2.125 z m -3.03125,-4.890625 v -0.65625 h 4.71875 q 1.53125,0 2.70312,0.625 1.17188,0.609375 1.82813,1.796875 0.65625,1.1875 0.65625,2.9375 0,1.734375 -0.71875,2.921875 -0.71875,1.1875 -1.96875,1.8125 -1.23438,0.609375 -2.79688,0.609375 h -4.42187 v -0.65625 l 1.46875,-0.171875 q 0.0312,-1.03125 0.0312,-2.09375 0,-1.0625 0,-2.234375 v -0.59375 q 0,-1.03125 0,-2.0625 0,-1.03125 -0.0312,-2.0625 z" />
    <path
       style="fill:#000000;fill-opacity:0;fill-rule:evenodd"
       id="path31"
       d="M 9.228346e-4,58.154854 H 52.81982 V 78.879265 H 9.228346e-4 Z" />
    <path
       style="fill:#000000;fill-rule:nonzero"
       id="path33"
       d="m 21.890863,66.41769 0.140625,-2.84375 h 8.765625 l 0.125,2.84375 h -0.921875 l -0.359375,-2.046875 h -2.453125 q -0.01563,1.03125 -0.03125,2.078125 0,1.03125 0,2.078125 v 0.796875 q 0,1.015625 0,2.046875 0.01563,1.03125 0.03125,2.078125 l 1.640625,0.171875 v 0.65625 h -4.828125 v -0.65625 l 1.625,-0.171875 q 0.03125,-1.03125 0.03125,-2.0625 0,-1.03125 0,-2.0625 v -0.796875 q 0,-1.03125 0,-2.0625 0,-1.046875 -0.03125,-2.09375 h -2.453125 l -0.34375,2.046875 z" />
    <path
       style="fill:#f3f3f3;fill-rule:evenodd"
       id="path35"
       d="m 52.85625,58.150867 h 51.93701 V 78.875274 H 52.85625 Z" />
    <path
       style="fill-rule:evenodd;stroke:#000000;stroke-width:1;stroke-linecap:butt;stroke-linejoin:round"
       id="path37"
       d="m 52.85625,58.150867 h 51.93701 V 78.875274 H 52.85625 Z" />
    <path
       style="fill:#000000;fill-rule:nonzero"
       id="path39"
       d="m 73.08256,64.389946 v -0.609371 h 4.15625 v 0.609371 l -1.359375,0.15625 q -0.01563,0.921875 -0.01563,1.875 0,0.953125 0,1.90625 v 0.71875 q 0,0.9375 0,1.890625 0,0.9375 0.01563,1.890625 l 1.359375,0.171875 v 0.59375 h -4.15625 v -0.59375 l 1.359375,-0.171875 q 0.01563,-0.921875 0.01563,-1.875 0,-0.953125 0,-1.90625 v -0.71875 q 0,-0.953125 0,-1.890625 0,-0.953125 -0.01563,-1.890625 z m 6.04686,0.390625 3.015625,-0.765625 0.203125,0.140625 -0.0625,2.09375 v 4.25 q 0,0.546875 0,1.109375 0.01563,0.546875 0.03125,1.109375 l 2.078125,0.34375 v 0.53125 h -5.4375 v -0.53125 l 2.078125,-0.34375 q 0.01563,-0.5625 0.01563,-1.109375 0.01563,-0.5625 0.01563,-1.109375 v -5.28125 l -1.9375,0.171875 z" />
    <path
       style="fill:#000000;fill-opacity:0;fill-rule:evenodd"
       id="path41"
       d="m 187.18842,97.267876 29.25984,28.755904" />
    <path
       style="fill-rule:evenodd;stroke:#000000;stroke-width:1;stroke-linecap:butt;stroke-linejoin:round"
       id="path43"
       d="m 187.1884,97.26787 24.98051,24.55028" />
    <path
       style="fill:#000000;fill-rule:evenodd;stroke:#000000;stroke-width:1;stroke-linecap:butt"
       id="path45"
       d="m 211.01115,122.9962 4.39442,2.00287 -2.0789,-4.35898 z" />
    <path
       style="fill:#000000;fill-opacity:0;fill-rule:evenodd"
       id="path47"
       d="m 104.79326,68.51308 29.60629,28.755905" />
    <path
       style="fill-rule:evenodd;stroke:#000000;stroke-width:1;stroke-linecap:butt;stroke-linejoin:round"
       id="path49"
       d="m 104.79326,68.51307 25.30229,24.575531" />
    <path
       style="fill:#000000;fill-rule:evenodd;stroke:#000000;stroke-width:1;stroke-linecap:butt"
       id="path51"
       d="m 128.94475,94.273445 4.40613,1.976982 -2.10451,-4.346672 z" />
    <path
       style="fill:#000000;fill-opacity:0;fill-rule:evenodd"
       id="path53"
       d="m 104.79326,97.26778 29.60629,28.75591" />
    <path
       style="fill-rule:evenodd;stroke:#000000;stroke-width:1;stroke-linecap:butt;stroke-linejoin:round"
       id="path55"
       d="m 104.79326,97.26778 25.30229,24.57553" />
    <path
       style="fill:#000000;fill-rule:evenodd;stroke:#000000;stroke-width:1;stroke-linecap:butt"
       id="path57"
       d="m 128.94475,123.02815 4.40613,1.97698 -2.10451,-4.34667 z" />
    <path
       style="fill:#000000;fill-opacity:0;fill-rule:evenodd"
       id="path59"
       d="m 216.34935,131.93622 h 52.81889 v 38.26771 h -52.81889 z" />
    <path
       style="fill:#000000;fill-rule:nonzero"
       id="path61"
       d="m 237.55495,162.02882 q -0.51563,0 -0.875,-0.35938 -0.34375,-0.35937 -0.34375,-0.85937 0,-0.53125 0.34375,-0.89063 0.35937,-0.35937 0.875,-0.35937 0.53125,0 0.875,0.35937 0.35937,0.35938 0.35937,0.89063 0,0.5 -0.35937,0.85937 -0.34375,0.35938 -0.875,0.35938 z m 5.20312,0 q -0.51562,0 -0.875,-0.35938 -0.34375,-0.35937 -0.34375,-0.85937 0,-0.53125 0.34375,-0.89063 0.35938,-0.35937 0.875,-0.35937 0.53125,0 0.875,0.35937 0.35938,0.35938 0.35938,0.89063 0,0.5 -0.35938,0.85937 -0.34375,0.35938 -0.875,0.35938 z m 5.1875,0 q -0.51562,0 -0.875,-0.35938 -0.34375,-0.35937 -0.34375,-0.85937 0,-0.53125 0.34375,-0.89063 0.35938,-0.35937 0.875,-0.35937 0.53125,0 0.875,0.35937 0.35938,0.35938 0.35938,0.89063 0,0.5 -0.35938,0.85937 -0.34375,0.35938 -0.875,0.35938 z" />
    <path
       style="fill:#000000;fill-opacity:0;fill-rule:evenodd"
       id="path63"
       d="M 9.228346e-4,86.90551 H 52.81982 v 20.72441 H 9.228346e-4 Z" />
    <path
       style="fill:#000000;fill-rule:nonzero"
       id="path65"
       d="m 13.642847,95.16834 0.140625,-2.84375 h 8.765625 l 0.125,2.84375 h -0.921875 l -0.359375,-2.046875 h -2.453125 q -0.01563,1.03125 -0.03125,2.078125 0,1.03125 0,2.078125 v 0.796875 q 0,1.015625 0,2.04688 0.01563,1.03125 0.03125,2.07812 l 1.640625,0.17188 v 0.65625 h -4.828125 v -0.65625 l 1.625,-0.17188 q 0.03125,-1.03125 0.03125,-2.0625 0,-1.03125 0,-2.0625 v -0.796875 q 0,-1.03125 0,-2.0625 0,-1.046875 -0.03125,-2.09375 h -2.453125 l -0.34375,2.046875 z m 13.117142,6.625 V 98.215215 H 23.463114 V 97.29334 h 3.296875 v -3.5 h 0.96875 v 3.5 h 3.296875 v 0.921875 h -3.296875 v 3.578125 z m 6.089765,-8.375 3.296875,-0.859375 0.21875,0.171875 -0.0625,2.28125 v 4.640625 q 0,0.593755 0,1.203125 0.01563,0.60938 0.03125,1.21875 l 2.28125,0.375 v 0.57813 h -5.9375 v -0.57813 l 2.25,-0.375 q 0.01563,-0.60937 0.01563,-1.21875 0.01563,-0.60937 0.01563,-1.203125 V 93.88709 l -2.109375,0.1875 z" />
    <path
       style="fill:#f3f3f3;fill-rule:evenodd"
       id="path67"
       d="m 52.85625,86.90557 h 51.93701 v 20.72441 H 52.85625 Z" />
    <path
       style="fill-rule:evenodd;stroke:#000000;stroke-width:1;stroke-linecap:butt;stroke-linejoin:round"
       id="path69"
       d="m 52.85625,86.90557 h 51.93701 v 20.72441 H 52.85625 Z" />
    <path
       style="fill:#000000;fill-rule:nonzero"
       id="path71"
       d="m 73.08256,93.14465 v -0.609375 h 4.15625 v 0.609375 l -1.359375,0.15625 q -0.01563,0.921875 -0.01563,1.875 0,0.953125 0,1.90625 v 0.71875 q 0,0.9375 0,1.890625 0,0.937505 0.01563,1.890625 l 1.359375,0.17188 v 0.59375 h -4.15625 v -0.59375 l 1.359375,-0.17188 q 0.01563,-0.92187 0.01563,-1.875 0,-0.953125 0,-1.90625 v -0.71875 q 0,-0.953125 0,-1.890625 0,-0.953125 -0.01563,-1.890625 z m 5.51561,9.20313 v -0.95313 q 0.578125,-0.57812 1.125,-1.14062 0.546875,-0.562505 1.015625,-1.062505 1.109375,-1.15625 1.609375,-2.09375 0.515625,-0.9375 0.515625,-1.78125 0,-0.90625 -0.484375,-1.4375 -0.46875,-0.53125 -1.265625,-0.53125 -0.15625,0 -0.34375,0.01563 -0.171875,0.01563 -0.375,0.0625 l -0.28125,1 q -0.140625,0.546875 -0.34375,0.78125 -0.203125,0.21875 -0.5,0.21875 -0.484375,0 -0.75,-0.46875 0.07813,-0.765625 0.5,-1.265625 0.4375,-0.515625 1.078125,-0.75 0.640625,-0.25 1.375,-0.25 1.421875,0 2.0625,0.703125 0.65625,0.6875 0.65625,1.78125 0,0.65625 -0.265625,1.265625 -0.25,0.59375 -0.890625,1.359375 -0.625,0.75 -1.75,1.828125 -0.296875,0.296875 -0.71875,0.70313 -0.40625,0.39063 -0.859375,0.8125 h 4.90625 v 1.20313 z" />
    <path
       style="fill:#f3f3f3;fill-rule:evenodd"
       id="path73"
       d="m 134.40102,86.90567 h 52.7874 v 20.72441 h -52.7874 z" />
    <path
       style="fill-rule:evenodd;stroke:#000000;stroke-width:1;stroke-linecap:butt;stroke-linejoin:round"
       id="path75"
       d="m 134.40102,86.90567 h 52.7874 v 20.72441 h -52.7874 z" />
    <path
       style="fill:#000000;fill-rule:nonzero"
       id="path77"
       d="m 155.05252,93.14475 v -0.609375 h 4.15625 v 0.609375 l -1.35938,0.15625 q -0.0156,0.921875 -0.0156,1.875 0,0.953125 0,1.90625 V 97.801 q 0,0.9375 0,1.890625 0,0.937505 0.0156,1.890625 l 1.35938,0.17188 v 0.59375 h -4.15625 v -0.59375 l 1.35937,-0.17188 q 0.0156,-0.92187 0.0156,-1.875 0,-0.953125 0,-1.90625 v -0.71875 q 0,-0.953125 0,-1.890625 0,-0.953125 -0.0156,-1.890625 z m 6.04686,0.390625 3.01562,-0.765625 0.20313,0.140625 -0.0625,2.09375 v 4.25 q 0,0.546875 0,1.109375 0.0156,0.54688 0.0312,1.10938 l 2.07812,0.34375 v 0.53125 h -5.4375 v -0.53125 l 2.07813,-0.34375 q 0.0156,-0.5625 0.0156,-1.10938 0.0156,-0.5625 0.0156,-1.109375 v -5.28125 l -1.9375,0.171875 z" />
    <path
       style="fill:#d9d9d9;fill-rule:evenodd"
       id="path79"
       d="m 216.36494,22.56367 h 52.7874 v 26.64567 h -52.7874 z" />
    <path
       style="fill-rule:evenodd;stroke:#000000;stroke-width:1;stroke-linecap:butt;stroke-linejoin:round"
       id="path81"
       d="m 216.36494,22.56367 h 52.7874 v 26.64567 h -52.7874 z" />
    <path
       style="fill:#000000;fill-rule:nonzero"
       id="path83"
       d="m 238.63777,31.699629 v -0.65625 h 7.96875 l 0.10937,2.828127 h -0.90625 l -0.35937,-2.031252 h -3.75 q -0.0156,1.031252 -0.0312,2.062502 0,1.015625 0,2 h 2.34375 l 0.21875,-1.515625 h 0.75 v 3.78125 h -0.75 l -0.20313,-1.515625 h -2.35937 q 0,1.203125 0,2.25 0.0156,1.046875 0.0312,2.046875 h 4.07812 l 0.34375,-2.046875 h 0.92188 l -0.125,2.84375 h -8.28125 v -0.65625 l 1.46875,-0.171875 q 0.0312,-1.015625 0.0312,-2.046875 0,-1.046875 0,-2.078125 v -0.796875 q 0,-1.03125 0,-2.0625 0,-1.03125 -0.0312,-2.062502 z" />
    <path
       style="fill:#d9d9d9;fill-rule:evenodd"
       id="path85"
       d="m 298.3289,22.564991 h 52.78741 V 49.210663 H 298.3289 Z" />
    <path
       style="fill-rule:evenodd;stroke:#000000;stroke-width:1;stroke-linecap:butt;stroke-linejoin:round"
       id="path87"
       d="m 298.3289,22.564991 h 52.78741 V 49.210663 H 298.3289 Z" />
    <path
       style="fill:#000000;fill-rule:nonzero"
       id="path89"
       d="m 318.1316,41.747826 v -0.65625 l 1.4375,-0.203125 v -9.015625 l -1.4375,-0.171875 v -0.65625 h 2.95312 l 3.59375,8.796875 3.39063,-8.796875 h 3.15625 v 0.65625 l -1.48438,0.171875 q -0.0156,1.015625 -0.0312,2.0625 0,1.03125 0,2.0625 v 0.796875 q 0,1.015625 0,2.046875 0.0156,1.03125 0.0312,2.078125 l 1.48438,0.171875 v 0.65625 h -4.35938 v -0.65625 l 1.34375,-0.171875 q 0.0312,-1.015625 0.0312,-2.046875 0,-1.046875 0,-2.0625 v -3.984375 l -3.46875,8.921875 h -0.79687 l -3.67188,-8.921875 0.0937,3.015625 v 5.046875 l 1.3125,0.203125 v 0.65625 z" />
    <path
       style="fill:#d9d9d9;fill-rule:evenodd"
       id="path91"
       d="m 380.29282,22.564991 h 52.78742 v 26.645672 h -52.78742 z" />
    <path
       style="fill-rule:evenodd;stroke:#000000;stroke-width:1;stroke-linecap:butt;stroke-linejoin:round"
       id="path93"
       d="m 380.29282,22.564991 h 52.78742 v 26.645672 h -52.78742 z" />
    <path
       style="fill:#000000;fill-rule:nonzero"
       id="path95"
       d="M 410.59988,31.70095 V 31.0447 h 3.64062 v 0.65625 l -1.34375,0.1875 -2.70312,9.96875 h -0.6875 l -2.76563,-8.28125 -2.60937,8.28125 h -0.6875 l -2.89063,-10 -1.32812,-0.15625 V 31.0447 h 4.35937 v 0.65625 l -1.46875,0.171875 1.96875,7.34375 2.42188,-7.328125 -1.59375,-0.1875 V 31.0447 h 4.34375 v 0.65625 l -1.60938,0.1875 2.39063,7.40625 2.03125,-7.390625 z" />
    <path
       style="fill:#f3f3f3;fill-rule:evenodd"
       id="path97"
       d="m 216.45944,115.65621 h 52.6929 v 20.7244 h -52.6929 z" />
    <path
       style="fill-rule:evenodd;stroke:#000000;stroke-width:1;stroke-linecap:butt;stroke-linejoin:round"
       id="path99"
       d="m 216.45944,115.65621 h 52.6929 v 20.7244 h -52.6929 z" />
    <path
       style="fill:#000000;fill-rule:nonzero"
       id="path101"
       d="m 237.0637,121.89529 v -0.60937 h 4.15625 v 0.60937 l -1.35938,0.15625 q -0.0156,0.92188 -0.0156,1.875 0,0.95313 0,1.90625 v 0.71875 q 0,0.9375 0,1.89063 0,0.9375 0.0156,1.89063 l 1.35938,0.17187 v 0.59375 h -4.15625 v -0.59375 l 1.35937,-0.17187 q 0.0156,-0.92188 0.0156,-1.875 0,-0.95314 0,-1.90626 v -0.71875 q 0,-0.95313 0,-1.89063 0,-0.95312 -0.0156,-1.89062 z m 6.04686,0.39063 3.01562,-0.76563 0.20313,0.14063 -0.0625,2.09375 v 4.25 q 0,0.54688 0,1.10938 0.0156,0.54687 0.0312,1.10937 l 2.07812,0.34375 v 0.53125 h -5.4375 v -0.53125 l 2.07813,-0.34375 q 0.0156,-0.5625 0.0156,-1.10937 0.0156,-0.5625 0.0156,-1.10938 v -5.28126 l -1.9375,0.17188 z" />
    <path
       style="fill:#f3f3f3;fill-rule:evenodd"
       id="path103"
       d="m 134.40102,115.65621 h 52.7874 v 20.7244 h -52.7874 z" />
    <path
       style="fill-rule:evenodd;stroke:#000000;stroke-width:1;stroke-linecap:butt;stroke-linejoin:round"
       id="path105"
       d="m 134.40102,115.65621 h 52.7874 v 20.7244 h -52.7874 z" />
    <path
       style="fill:#000000;fill-rule:nonzero"
       id="path107"
       d="m 155.05252,121.89529 v -0.60937 h 4.15625 v 0.60937 l -1.35938,0.15625 q -0.0156,0.92188 -0.0156,1.875 0,0.95313 0,1.90625 v 0.71875 q 0,0.9375 0,1.89063 0,0.9375 0.0156,1.89063 l 1.35938,0.17187 v 0.59375 h -4.15625 v -0.59375 l 1.35937,-0.17187 q 0.0156,-0.92188 0.0156,-1.875 0,-0.95314 0,-1.90626 v -0.71875 q 0,-0.95313 0,-1.89063 0,-0.95312 -0.0156,-1.89062 z m 5.51561,9.20313 v -0.95312 q 0.57812,-0.57813 1.125,-1.14063 0.54687,-0.5625 1.01562,-1.0625 1.10938,-1.15625 1.60938,-2.09375 0.51562,-0.9375 0.51562,-1.78125 0,-0.90625 -0.48437,-1.4375 -0.46875,-0.53125 -1.26563,-0.53125 -0.15625,0 -0.34375,0.0156 -0.17187,0.0156 -0.375,0.0625 l -0.28125,1 q -0.14062,0.54688 -0.34375,0.78125 -0.20312,0.21875 -0.5,0.21875 -0.48437,0 -0.75,-0.46875 0.0781,-0.76562 0.5,-1.26562 0.4375,-0.51563 1.07813,-0.75 0.64062,-0.25 1.375,-0.25 1.42187,0 2.0625,0.70312 0.65625,0.6875 0.65625,1.78125 0,0.65625 -0.26563,1.26563 -0.25,0.59375 -0.89062,1.35937 -0.625,0.75 -1.75,1.82813 -0.29688,0.29688 -0.71875,0.70313 -0.40625,0.39062 -0.85938,0.8125 h 4.90625 v 1.20312 z" />
    <path
       style="fill:#000000;fill-opacity:0;fill-rule:evenodd"
       id="path109"
       d="M 9.228346e-4,115.65617 H 52.81982 v 20.72441 H 9.228346e-4 Z" />
    <path
       style="fill:#000000;fill-rule:nonzero"
       id="path111"
       d="m 13.642847,123.919 0.140625,-2.84375 h 8.765625 l 0.125,2.84375 h -0.921875 l -0.359375,-2.04688 h -2.453125 q -0.01563,1.03125 -0.03125,2.07813 0,1.03125 0,2.07812 v 0.79688 q 0,1.01562 0,2.04688 0.01563,1.03125 0.03125,2.07813 l 1.640625,0.17187 v 0.65625 h -4.828125 v -0.65625 l 1.625,-0.17187 q 0.03125,-1.03125 0.03125,-2.0625 0,-1.03126 0,-2.06251 v -0.79688 q 0,-1.03125 0,-2.0625 0,-1.04687 -0.03125,-2.09375 h -2.453125 l -0.34375,2.04688 z m 13.117142,6.62501 v -3.57814 H 23.463114 V 126.044 h 3.296875 v -3.5 h 0.96875 v 3.5 h 3.296875 v 0.92187 h -3.296875 v 3.57814 z m 5.51164,1.23437 v -1.04687 q 0.640625,-0.60938 1.234375,-1.21875 0.609375,-0.625 1.125,-1.17188 1.203125,-1.26563 1.75,-2.28126 0.5625,-1.03125 0.5625,-1.96875 0,-0.98437 -0.515625,-1.5625 -0.515625,-0.57812 -1.40625,-0.57812 -0.15625,0 -0.359375,0.0156 -0.1875,0.0156 -0.421875,0.0625 l -0.296875,1.10938 q -0.15625,0.59375 -0.375,0.84375 -0.21875,0.25 -0.5625,0.25 -0.515625,0 -0.8125,-0.51563 0.09375,-0.84375 0.5625,-1.39062 0.46875,-0.5625 1.171875,-0.82813 0.703125,-0.26562 1.5,-0.26562 1.546875,0 2.25,0.76562 0.71875,0.75 0.71875,1.95313 0,0.70312 -0.28125,1.375 -0.28125,0.65625 -0.96875,1.48437 -0.6875,0.82813 -1.921875,2.01564 -0.328125,0.3125 -0.78125,0.75 -0.453125,0.42187 -0.953125,0.89062 h 5.359375 v 1.3125 z" />
    <path
       style="fill:#000000;fill-opacity:0;fill-rule:evenodd"
       id="path113"
       d="m 105.22447,35.886505 h 29.16536" />
    <path
       style="fill-rule:evenodd;stroke:#000000;stroke-width:1;stroke-linecap:butt;stroke-linejoin:round"
       id="path115"
       d="m 105.22447,35.886505 h 23.16536" />
    <path
       style="fill:#000000;fill-rule:evenodd;stroke:#000000;stroke-width:1;stroke-linecap:butt"
       id="path117"
       d="m 128.38983,37.538235 4.53809,-1.65173 -4.53809,-1.651733 z" />
    <path
       style="fill:#000000;fill-opacity:0;fill-rule:evenodd"
       id="path119"
       d="m 187.18842,35.887825 h 29.16534" />
    <path
       style="fill-rule:evenodd;stroke:#000000;stroke-width:1;stroke-linecap:butt;stroke-linejoin:round"
       id="path121"
       d="m 187.1884,35.887825 h 23.16536" />
    <path
       style="fill:#000000;fill-rule:evenodd;stroke:#000000;stroke-width:1;stroke-linecap:butt"
       id="path123"
       d="m 210.35376,37.53956 4.5381,-1.651733 -4.5381,-1.65173 z" />
    <path
       style="fill:#000000;fill-opacity:0;fill-rule:evenodd"
       id="path125"
       d="m 269.15234,35.886505 h 29.16537" />
    <path
       style="fill-rule:evenodd;stroke:#000000;stroke-width:1;stroke-linecap:butt;stroke-linejoin:round"
       id="path127"
       d="m 269.15234,35.886505 h 23.16537" />
    <path
       style="fill:#000000;fill-rule:evenodd;stroke:#000000;stroke-width:1;stroke-linecap:butt"
       id="path129"
       d="m 292.31772,37.538235 4.53809,-1.65173 -4.53809,-1.651733 z" />
    <path
       style="fill:#000000;fill-opacity:0;fill-rule:evenodd"
       id="path131"
       d="m 351.1163,35.887825 h 29.16534" />
    <path
       style="fill-rule:evenodd;stroke:#000000;stroke-width:1;stroke-linecap:butt;stroke-linejoin:round"
       id="path133"
       d="m 351.1163,35.887825 h 23.16534" />
    <path
       style="fill:#000000;fill-rule:evenodd;stroke:#000000;stroke-width:1;stroke-linecap:butt"
       id="path135"
       d="m 374.28165,37.53956 4.53812,-1.651733 -4.53812,-1.65173 z" />
    <path
       style="fill:#000000;fill-opacity:0;fill-rule:evenodd"
       id="path137"
       d="m 187.18842,126.01842 29.25984,28.7559" />
    <path
       style="fill-rule:evenodd;stroke:#000000;stroke-width:1;stroke-linecap:butt;stroke-linejoin:round"
       id="path139"
       d="m 187.1884,126.01842 24.98051,24.55028" />
    <path
       style="fill:#000000;fill-rule:evenodd;stroke:#000000;stroke-width:1;stroke-linecap:butt"
       id="path141"
       d="m 211.01115,151.74673 4.39442,2.00288 -2.0789,-4.35897 z" />
    <path
       style="fill:#000000;fill-opacity:0;fill-rule:evenodd"
       id="path143"
       d="M 216.45944,126.01842 H 187.1996" />
    <path
       style="fill-rule:evenodd;stroke:#980000;stroke-width:1;stroke-linecap:butt;stroke-linejoin:round"
       id="path145"
       d="M 216.45944,126.01842 H 193.1996" />
    <path
       style="fill:#980000;fill-rule:evenodd;stroke:#980000;stroke-width:1;stroke-linecap:butt"
       id="path147"
       d="m 193.1996,124.36668 -4.5381,1.65174 4.5381,1.65172 z" />
    <path
       style="fill:#000000;fill-opacity:0;fill-rule:evenodd"
       id="path149"
       d="m 219.38577,75.96858 v 0 c 0,-2.125107 1.72275,-3.847847 3.84785,-3.847847 h 50.41454 c 1.02051,0 1.99924,0.405395 2.72086,1.127006 0.72158,0.721611 1.12698,1.700325 1.12698,2.720841 v 15.390923 c 0,2.125107 -1.72272,3.847847 -3.84784,3.847847 h -50.41454 v 0 c -2.1251,0 -3.84785,-1.72274 -3.84785,-3.847847 z" />
    <path
       style="fill-rule:evenodd;stroke:#980000;stroke-width:1;stroke-linecap:butt;stroke-linejoin:round;stroke-dasharray:4, 3"
       id="path151"
       d="m 219.38577,75.96858 v 0 c 0,-2.125107 1.72275,-3.847847 3.84785,-3.847847 h 50.41454 c 1.02051,0 1.99924,0.405395 2.72086,1.127006 0.72158,0.721611 1.12698,1.700325 1.12698,2.720841 v 15.390923 c 0,2.125107 -1.72272,3.847847 -3.84784,3.847847 h -50.41454 v 0 c -2.1251,0 -3.84785,-1.72274 -3.84785,-3.847847 z" />
    <path
       style="fill:#000000;fill-rule:nonzero"
       id="path153"
       d="m 232.51427,82.65154 v -0.515625 h 2.48437 v 0.515625 l -0.78125,0.140625 -1.90625,2.359375 1.84375,2.640625 1.01563,0.1875 v 0.484375 h -3.25 v -0.484375 l 0.95312,-0.171875 -1.3125,-1.90625 -1.46875,1.90625 1,0.171875 v 0.484375 h -2.65625 v -0.484375 l 0.84375,-0.15625 1.95313,-2.40625 -1.79688,-2.625 -0.90625,-0.140625 v -0.515625 h 2.96875 v 0.515625 l -0.8125,0.140625 1.28125,1.859375 1.42188,-1.828125 z m 5.05745,0.953125 h 0.53125 q 0.90625,0 1.40625,-0.46875 0.5,-0.46875 0.5,-1.328125 0,-0.734375 -0.42188,-1.125 -0.40625,-0.40625 -1.20312,-0.40625 -0.125,0 -0.28125,0.01563 -0.14063,0.01563 -0.32813,0.04687 l -0.17187,0.65625 q -0.10938,0.421875 -0.26563,0.625 -0.15625,0.203125 -0.51562,0.203125 -0.20313,0 -0.375,-0.09375 -0.17188,-0.109375 -0.26563,-0.375 0.1875,-0.828125 0.84375,-1.25 0.67188,-0.421875 1.59375,-0.421875 1.17188,0 1.85938,0.578125 0.6875,0.578125 0.6875,1.515625 0,0.71875 -0.45313,1.28125 -0.45312,0.5625 -1.28125,0.859375 1.01563,0.203125 1.51563,0.78125 0.5,0.5625 0.5,1.390625 0,0.71875 -0.375,1.296875 -0.375,0.578125 -1.04688,0.921875 -0.67187,0.328125 -1.57812,0.328125 -0.96875,0 -1.67188,-0.4375 -0.6875,-0.453125 -0.875,-1.453125 0.21875,-0.4375 0.67188,-0.4375 0.34375,0 0.5,0.234375 0.15625,0.21875 0.29687,0.71875 l 0.17188,0.703125 q 0.21875,0.04687 0.40625,0.0625 0.1875,0.01563 0.32812,0.01563 1,0 1.48438,-0.515625 0.5,-0.515625 0.5,-1.40625 0,-0.875 -0.51563,-1.359375 -0.5,-0.5 -1.53125,-0.5 h -0.64062 z m 14.19134,2.171875 h -6.29687 v -0.75 h 6.29687 z m 0,-2.65625 h -6.29687 v -0.75 h 6.29687 z m 9.94828,2.765625 h -1.39063 v 2.578125 h -1.10937 v -2.578125 h -3.625 V 85.18279 l 3.95312,-5.453125 h 0.78125 v 5.328125 h 1.39063 z m -5.32813,-0.828125 h 2.82813 v -3.9375 z m 6.19528,3.40625 v -0.859375 q 0.53125,-0.53125 1.03125,-1.03125 0.5,-0.515625 0.92188,-0.96875 1,-1.0625 1.46875,-1.90625 0.46875,-0.859375 0.46875,-1.625 0,-0.828125 -0.4375,-1.3125 -0.4375,-0.484375 -1.17188,-0.484375 -0.125,0 -0.29687,0.01563 -0.15625,0.01563 -0.34375,0.0625 l -0.26563,0.90625 q -0.125,0.5 -0.3125,0.703125 -0.17187,0.203125 -0.45312,0.203125 -0.4375,0 -0.67188,-0.421875 0.0781,-0.703125 0.45313,-1.15625 0.39062,-0.46875 0.96875,-0.6875 0.59375,-0.21875 1.26562,-0.21875 1.29688,0 1.875,0.640625 0.59375,0.625 0.59375,1.625 0,0.578125 -0.23437,1.140625 -0.23438,0.546875 -0.8125,1.234375 -0.57813,0.6875 -1.59375,1.671875 -0.26563,0.265625 -0.65625,0.625 -0.375,0.359375 -0.78125,0.75 h 4.45312 v 1.09375 z" />
    <path
       style="fill:#000000;fill-opacity:0;fill-rule:evenodd"
       id="path155"
       d="m 219.38577,83.66404 c -9.96851,0 -19.937,20.94489 -19.937,41.88976" />
    <path
       style="fill-rule:evenodd;stroke:#980000;stroke-width:1;stroke-linecap:butt;stroke-linejoin:round;stroke-dasharray:4, 3"
       id="path157"
       d="m 219.38577,83.66404 c -9.96851,0 -19.937,20.94489 -19.937,41.88976" />
    <path
       style="fill:#000000;fill-opacity:0;fill-rule:evenodd"
       id="path171"
       d="m 481.47336,58.56168 h 52.81888 v 20.724407 h -52.81888 z" />
    <path
       style="fill:#000000;fill-opacity:0;fill-rule:evenodd"
       id="path203"
       d="m 481.47336,87.31234 h 52.81888 v 20.7244 h -52.81888 z" />
    <path
       style="fill:#000000;fill-opacity:0;fill-rule:evenodd"
       id="path237"
       d="m 481.47336,116.063 h 52.81888 v 20.7244 h -52.81888 z" />
    <path
       style="fill:#000000;fill-opacity:0;fill-rule:evenodd"
       id="path271"
       d="m 481.47336,144.81364 h 52.81888 v 20.72441 h -52.81888 z" />
    <path
       style="fill:#000000;fill-opacity:0;fill-rule:evenodd"
       id="path275"
       d="m 481.47336,173.5643 h 52.81888 v 20.72441 h -52.81888 z" />
    <path
       style="fill:#000000;fill-opacity:0;fill-rule:evenodd"
       id="path601"
       d="m 269.15234,126.01842 29.35434,28.7559" />
    <path
       style="fill-rule:evenodd;stroke:#000000;stroke-width:1;stroke-linecap:butt;stroke-linejoin:round"
       id="path603"
       d="m 269.15234,126.01842 25.06824,24.55718" />
    <path
       style="fill:#000000;fill-rule:evenodd;stroke:#000000;stroke-width:1;stroke-linecap:butt"
       id="path605"
       d="m 293.06473,151.75551 4.39764,1.99579 -2.08593,-4.35562 z" />
  </g>
</svg>
