<?xml version="1.0" encoding="UTF-8" standalone="no"?>
<svg
   xmlns:dc="http://purl.org/dc/elements/1.1/"
   xmlns:cc="http://creativecommons.org/ns#"
   xmlns:rdf="http://www.w3.org/1999/02/22-rdf-syntax-ns#"
   xmlns:svg="http://www.w3.org/2000/svg"
   xmlns="http://www.w3.org/2000/svg"
   xmlns:sodipodi="http://sodipodi.sourceforge.net/DTD/sodipodi-0.dtd"
   xmlns:inkscape="http://www.inkscape.org/namespaces/inkscape"
   version="1.1"
   viewBox="0 0 466.60629 175.61417"
   stroke-miterlimit="10"
   id="svg369"
   sodipodi:docname="hazard-stall.svg"
   width="466.60629"
   height="175.61417"
   style="fill:none;stroke:none;stroke-linecap:square;stroke-miterlimit:10"
   inkscape:version="0.92.5 (2060ec1f9f, 2020-04-08)">
  <metadata
     id="metadata375">
    <rdf:RDF>
      <cc:Work
         rdf:about="">
        <dc:format>image/svg+xml</dc:format>
        <dc:type
           rdf:resource="http://purl.org/dc/dcmitype/StillImage" />
        <dc:title></dc:title>
      </cc:Work>
    </rdf:RDF>
  </metadata>
  <defs
     id="defs373" />
  <sodipodi:namedview
     pagecolor="#ffffff"
     bordercolor="#666666"
     borderopacity="1"
     objecttolerance="10"
     gridtolerance="10"
     guidetolerance="10"
     inkscape:pageopacity="0"
     inkscape:pageshadow="2"
     inkscape:window-width="1557"
     inkscape:window-height="1211"
     id="namedview371"
     showgrid="false"
     inkscape:zoom="1.0223586"
     inkscape:cx="509.26901"
     inkscape:cy="6.0612555"
     inkscape:window-x="915"
     inkscape:window-y="500"
     inkscape:window-maximized="0"
     inkscape:current-layer="g367" />
  <clipPath
     id="g2fd53e73fb8_0_45.0">
    <path
       d="M 0,0 H 960 V 540 H 0 Z"
       id="path2"
       inkscape:connector-curvature="0"
       style="clip-rule:nonzero" />
  </clipPath>
  <g
     clip-path="url(#g2fd53e73fb8_0_45.0)"
     id="g367"
     transform="translate(-9.450131,-250.52887)">
    <path
       d="M 9.950131,251.02887 H 475.55643 V 425.64304 H 9.950131 Z"
       id="path157"
       inkscape:connector-curvature="0"
       style="fill:#000000;fill-opacity:0;fill-rule:evenodd" />
    <path
       d="m 52.43707,254.56367 h 52.7874 v 26.64568 h -52.7874 z"
       id="path161"
       inkscape:connector-curvature="0"
       style="fill:#d9d9d9;fill-rule:evenodd" />
    <path
       d="m 52.43707,254.56367 h 52.7874 v 26.64568 h -52.7874 z"
       id="path163"
       inkscape:connector-curvature="0"
       style="fill-rule:evenodd;stroke:#000000;stroke-width:1;stroke-linecap:butt;stroke-linejoin:round" />
    <path
       d="m 74.901886,263.69962 v -0.65625 h 7.96875 l 0.109375,2.82812 h -0.90625 l -0.359375,-2.03125 h -3.75 q -0.01563,1.03125 -0.03125,2.0625 0,1.01563 0,2 h 2.46875 l 0.234375,-1.51562 h 0.734375 v 3.9375 h -0.734375 l -0.234375,-1.67188 h -2.46875 q 0,1.1875 0,2.23438 0.01563,1.03125 0.03125,2.03125 l 1.484375,0.17187 v 0.65625 h -4.546875 v -0.65625 l 1.46875,-0.17187 q 0.03125,-1.01563 0.03125,-2.04688 0,-1.04687 0,-2.07812 v -0.79688 q 0,-1.03125 0,-2.0625 0,-1.03125 -0.03125,-2.0625 z"
       id="path165"
       inkscape:connector-curvature="0"
       style="fill:#000000;fill-rule:nonzero" />
    <path
       d="m 134.40102,254.56499 h 52.7874 v 26.64568 h -52.7874 z"
       id="path167"
       inkscape:connector-curvature="0"
       style="fill:#d9d9d9;fill-rule:evenodd" />
    <path
       d="m 134.40102,254.56499 h 52.7874 v 26.64568 h -52.7874 z"
       id="path169"
       inkscape:connector-curvature="0"
       style="fill-rule:evenodd;stroke:#000000;stroke-width:1;stroke-linecap:butt;stroke-linejoin:round" />
    <path
       d="m 158.84908,268.59158 q 0,1.17188 0,2.26563 0.0156,1.07812 0.0312,2.14062 h 1.26562 q 1.84375,0 2.82813,-1.20312 1,-1.21875 1,-3.39063 0,-2.25 -0.98438,-3.4375 -0.96875,-1.1875 -2.70312,-1.1875 h -1.40625 q -0.0156,1.03125 -0.0312,2.09375 0,1.0625 0,2.125 z m -3.03125,-4.89062 v -0.65625 h 4.71875 q 1.53125,0 2.70312,0.625 1.17188,0.60937 1.82813,1.79687 0.65625,1.1875 0.65625,2.9375 0,1.73438 -0.71875,2.92188 -0.71875,1.1875 -1.96875,1.8125 -1.23438,0.60937 -2.79688,0.60937 h -4.42187 v -0.65625 l 1.46875,-0.17187 q 0.0312,-1.03125 0.0312,-2.09375 0,-1.0625 0,-2.23438 v -0.59375 q 0,-1.03125 0,-2.0625 0,-1.03125 -0.0312,-2.0625 z"
       id="path171"
       inkscape:connector-curvature="0"
       style="fill:#000000;fill-rule:nonzero" />
    <path
       d="M 9.228346e-4,290.15485 H 52.81982 v 20.72443 H 9.228346e-4 Z"
       id="path173"
       inkscape:connector-curvature="0"
       style="fill:#000000;fill-opacity:0;fill-rule:evenodd" />
    <path
       d="m 21.890863,298.4177 0.140625,-2.84375 h 8.765625 l 0.125,2.84375 h -0.921875 l -0.359375,-2.04687 h -2.453125 q -0.01563,1.03125 -0.03125,2.07812 0,1.03125 0,2.07813 v 0.79687 q 0,1.01563 0,2.04688 0.01563,1.03125 0.03125,2.07812 l 1.640625,0.17188 v 0.65625 h -4.828125 v -0.65625 l 1.625,-0.17188 q 0.03125,-1.03125 0.03125,-2.0625 0,-1.03125 0,-2.0625 v -0.79687 q 0,-1.03125 0,-2.0625 0,-1.04688 -0.03125,-2.09375 h -2.453125 l -0.34375,2.04687 z"
       id="path175"
       inkscape:connector-curvature="0"
       style="fill:#000000;fill-rule:nonzero" />
    <path
       d="m 52.85625,290.15088 h 51.93701 v 20.7244 H 52.85625 Z"
       id="path177"
       inkscape:connector-curvature="0"
       style="fill:#000000;fill-opacity:0;fill-rule:evenodd" />
    <path
       d="m 52.85625,290.15088 h 51.93701 v 20.7244 H 52.85625 Z"
       id="path179"
       inkscape:connector-curvature="0"
       style="fill-rule:evenodd;stroke:#999999;stroke-width:1;stroke-linecap:butt;stroke-linejoin:round" />
    <path
       d="m 73.08256,296.38995 v -0.60938 h 4.15625 v 0.60938 l -1.359375,0.15625 q -0.01563,0.92187 -0.01563,1.875 0,0.95312 0,1.90625 v 0.71875 q 0,0.9375 0,1.89062 0,0.9375 0.01563,1.89063 l 1.359375,0.17187 v 0.59375 h -4.15625 v -0.59375 l 1.359375,-0.17187 q 0.01563,-0.92188 0.01563,-1.875 0,-0.95313 0,-1.90625 v -0.71875 q 0,-0.95313 0,-1.89063 0,-0.95312 -0.01563,-1.89062 z m 6.04686,0.39062 3.015625,-0.76562 0.203125,0.14062 -0.0625,2.09375 v 4.25 q 0,0.54688 0,1.10938 0.01563,0.54687 0.03125,1.10937 l 2.078125,0.34375 v 0.53125 h -5.4375 v -0.53125 l 2.078125,-0.34375 q 0.01563,-0.5625 0.01563,-1.10937 0.01563,-0.5625 0.01563,-1.10938 v -5.28125 l -1.9375,0.17188 z"
       id="path181"
       inkscape:connector-curvature="0"
       style="fill:#999999;fill-rule:nonzero" />
    <path
       d="m 104.79326,300.51306 29.60629,28.75592"
       id="path183"
       inkscape:connector-curvature="0"
       style="fill:#000000;fill-opacity:0;fill-rule:evenodd" />
    <path
       d="m 104.79326,300.5131 25.30229,24.5755"
       id="path185"
       inkscape:connector-curvature="0"
       style="fill-rule:evenodd;stroke:#999999;stroke-width:1;stroke-linecap:butt;stroke-linejoin:round" />
    <path
       d="m 128.94475,326.27347 4.40613,1.97696 -2.10451,-4.34665 z"
       id="path187"
       inkscape:connector-curvature="0"
       style="fill:#999999;fill-rule:evenodd;stroke:#999999;stroke-width:1;stroke-linecap:butt" />
    <path
       d="m 134.3861,390.28406 h 52.81891 v 38.2677 H 134.3861 Z"
       id="path189"
       inkscape:connector-curvature="0"
       style="fill:#000000;fill-opacity:0;fill-rule:evenodd" />
    <path
       d="m 155.59169,420.37665 q -0.51563,0 -0.875,-0.35938 -0.34375,-0.35937 -0.34375,-0.85937 0,-0.53125 0.34375,-0.89063 0.35937,-0.35937 0.875,-0.35937 0.53125,0 0.875,0.35937 0.35937,0.35938 0.35937,0.89063 0,0.5 -0.35937,0.85937 -0.34375,0.35938 -0.875,0.35938 z m 5.20312,0 q -0.51562,0 -0.875,-0.35938 -0.34375,-0.35937 -0.34375,-0.85937 0,-0.53125 0.34375,-0.89063 0.35938,-0.35937 0.875,-0.35937 0.53125,0 0.875,0.35937 0.35938,0.35938 0.35938,0.89063 0,0.5 -0.35938,0.85937 -0.34375,0.35938 -0.875,0.35938 z m 5.1875,0 q -0.51562,0 -0.875,-0.35938 -0.34375,-0.35937 -0.34375,-0.85937 0,-0.53125 0.34375,-0.89063 0.35938,-0.35937 0.875,-0.35937 0.53125,0 0.875,0.35937 0.35938,0.35938 0.35938,0.89063 0,0.5 -0.35938,0.85937 -0.34375,0.35938 -0.875,0.35938 z"
       id="path191"
       inkscape:connector-curvature="0"
       style="fill:#000000;fill-rule:nonzero" />
    <path
       d="M 9.228346e-4,318.90552 H 52.81982 v 20.7244 H 9.228346e-4 Z"
       id="path193"
       inkscape:connector-curvature="0"
       style="fill:#000000;fill-opacity:0;fill-rule:evenodd" />
    <path
       d="m 13.642847,327.16833 0.140625,-2.84375 h 8.765625 l 0.125,2.84375 h -0.921875 l -0.359375,-2.04687 h -2.453125 q -0.01563,1.03125 -0.03125,2.07812 0,1.03125 0,2.07813 v 0.79687 q 0,1.01563 0,2.04688 0.01563,1.03125 0.03125,2.07812 l 1.640625,0.17188 v 0.65625 h -4.828125 v -0.65625 l 1.625,-0.17188 q 0.03125,-1.03125 0.03125,-2.0625 0,-1.03125 0,-2.0625 v -0.79687 q 0,-1.03125 0,-2.0625 0,-1.04688 -0.03125,-2.09375 h -2.453125 l -0.34375,2.04687 z m 13.117142,6.625 v -3.57812 h -3.296875 v -0.92188 h 3.296875 v -3.5 h 0.96875 v 3.5 h 3.296875 v 0.92188 h -3.296875 v 3.57812 z m 6.089765,-8.375 3.296875,-0.85937 0.21875,0.17187 -0.0625,2.28125 v 4.64063 q 0,0.59375 0,1.20312 0.01563,0.60938 0.03125,1.21875 l 2.28125,0.375 v 0.57813 h -5.9375 v -0.57813 l 2.25,-0.375 q 0.01563,-0.60937 0.01563,-1.21875 0.01563,-0.60937 0.01563,-1.20312 v -5.76563 l -2.109375,0.1875 z"
       id="path195"
       inkscape:connector-curvature="0"
       style="fill:#000000;fill-rule:nonzero" />
    <path
       d="m 52.85625,318.90558 h 51.93701 v 20.7244 H 52.85625 Z"
       id="path197"
       inkscape:connector-curvature="0"
       style="fill:#f3f3f3;fill-rule:evenodd" />
    <path
       d="m 52.85625,318.90558 h 51.93701 v 20.7244 H 52.85625 Z"
       id="path199"
       inkscape:connector-curvature="0"
       style="fill-rule:evenodd;stroke:#000000;stroke-width:1;stroke-linecap:butt;stroke-linejoin:round" />
    <path
       d="m 73.08256,325.14465 v -0.60937 h 4.15625 v 0.60937 l -1.359375,0.15625 q -0.01563,0.92188 -0.01563,1.875 0,0.95313 0,1.90625 v 0.71875 q 0,0.9375 0,1.89063 0,0.9375 0.01563,1.89062 l 1.359375,0.17188 v 0.59375 h -4.15625 v -0.59375 l 1.359375,-0.17188 q 0.01563,-0.92187 0.01563,-1.875 0,-0.95312 0,-1.90625 v -0.71875 q 0,-0.95312 0,-1.89062 0,-0.95313 -0.01563,-1.89063 z m 5.51561,9.20313 v -0.95313 q 0.578125,-0.57812 1.125,-1.14062 0.546875,-0.5625 1.015625,-1.0625 1.109375,-1.15625 1.609375,-2.09375 0.515625,-0.9375 0.515625,-1.78125 0,-0.90625 -0.484375,-1.4375 -0.46875,-0.53125 -1.265625,-0.53125 -0.15625,0 -0.34375,0.0156 -0.171875,0.0156 -0.375,0.0625 l -0.28125,1 q -0.140625,0.54688 -0.34375,0.78125 -0.203125,0.21875 -0.5,0.21875 -0.484375,0 -0.75,-0.46875 0.07813,-0.76562 0.5,-1.26562 0.4375,-0.51563 1.078125,-0.75 0.640625,-0.25 1.375,-0.25 1.421875,0 2.0625,0.70312 0.65625,0.6875 0.65625,1.78125 0,0.65625 -0.265625,1.26563 -0.25,0.59375 -0.890625,1.35937 -0.625,0.75 -1.75,1.82813 -0.296875,0.29687 -0.71875,0.70312 -0.40625,0.39063 -0.859375,0.8125 h 4.90625 v 1.20313 z"
       id="path201"
       inkscape:connector-curvature="0"
       style="fill:#000000;fill-rule:nonzero" />
    <path
       d="m 134.40102,318.90567 h 52.7874 v 20.7244 h -52.7874 z"
       id="path203"
       inkscape:connector-curvature="0"
       style="fill:#000000;fill-opacity:0;fill-rule:evenodd" />
    <path
       d="m 134.40102,318.90567 h 52.7874 v 20.7244 h -52.7874 z"
       id="path205"
       inkscape:connector-curvature="0"
       style="fill-rule:evenodd;stroke:#999999;stroke-width:1;stroke-linecap:butt;stroke-linejoin:round" />
    <path
       d="m 155.05252,325.14474 v -0.60937 h 4.15625 v 0.60937 l -1.35938,0.15625 q -0.0156,0.92188 -0.0156,1.875 0,0.95313 0,1.90625 v 0.71875 q 0,0.9375 0,1.89063 0,0.9375 0.0156,1.89062 l 1.35938,0.17188 v 0.59375 h -4.15625 v -0.59375 l 1.35937,-0.17188 q 0.0156,-0.92187 0.0156,-1.875 0,-0.95312 0,-1.90625 v -0.71875 q 0,-0.95312 0,-1.89062 0,-0.95313 -0.0156,-1.89063 z m 6.04686,0.39063 3.01562,-0.76563 0.20313,0.14063 -0.0625,2.09375 v 4.25 q 0,0.54687 0,1.10937 0.0156,0.54688 0.0312,1.10938 l 2.07812,0.34375 v 0.53125 h -5.4375 v -0.53125 l 2.07813,-0.34375 q 0.0156,-0.5625 0.0156,-1.10938 0.0156,-0.5625 0.0156,-1.10937 v -5.28125 l -1.9375,0.17187 z"
       id="path207"
       inkscape:connector-curvature="0"
       style="fill:#999999;fill-rule:nonzero" />
    <path
       d="m 216.36494,254.56367 h 52.7874 v 26.64568 h -52.7874 z"
       id="path209"
       inkscape:connector-curvature="0"
       style="fill:#d9d9d9;fill-rule:evenodd" />
    <path
       d="m 216.36494,254.56367 h 52.7874 v 26.64568 h -52.7874 z"
       id="path211"
       inkscape:connector-curvature="0"
       style="fill-rule:evenodd;stroke:#000000;stroke-width:1;stroke-linecap:butt;stroke-linejoin:round" />
    <path
       d="m 238.63777,263.69962 v -0.65625 h 7.96875 l 0.10937,2.82812 h -0.90625 l -0.35937,-2.03125 h -3.75 q -0.0156,1.03125 -0.0312,2.0625 0,1.01563 0,2 h 2.34375 l 0.21875,-1.51562 h 0.75 v 3.78125 h -0.75 l -0.20313,-1.51563 h -2.35937 q 0,1.20313 0,2.25 0.0156,1.04688 0.0312,2.04688 h 4.07812 l 0.34375,-2.04688 h 0.92188 l -0.125,2.84375 h -8.28125 v -0.65625 l 1.46875,-0.17187 q 0.0312,-1.01563 0.0312,-2.04688 0,-1.04687 0,-2.07812 v -0.79688 q 0,-1.03125 0,-2.0625 0,-1.03125 -0.0312,-2.0625 z"
       id="path213"
       inkscape:connector-curvature="0"
       style="fill:#000000;fill-rule:nonzero" />
    <path
       d="m 298.3289,254.56499 h 52.78741 v 26.64568 H 298.3289 Z"
       id="path215"
       inkscape:connector-curvature="0"
       style="fill:#d9d9d9;fill-rule:evenodd" />
    <path
       d="m 298.3289,254.56499 h 52.78741 v 26.64568 H 298.3289 Z"
       id="path217"
       inkscape:connector-curvature="0"
       style="fill-rule:evenodd;stroke:#000000;stroke-width:1;stroke-linecap:butt;stroke-linejoin:round" />
    <path
       d="m 318.1316,273.74783 v -0.65625 l 1.4375,-0.20312 v -9.01563 l -1.4375,-0.17187 v -0.65625 h 2.95312 l 3.59375,8.79687 3.39063,-8.79687 h 3.15625 v 0.65625 l -1.48438,0.17187 q -0.0156,1.01563 -0.0312,2.0625 0,1.03125 0,2.0625 v 0.79688 q 0,1.01562 0,2.04687 0.0156,1.03125 0.0312,2.07813 l 1.48438,0.17187 v 0.65625 h -4.35938 v -0.65625 l 1.34375,-0.17187 q 0.0312,-1.01563 0.0312,-2.04688 0,-1.04687 0,-2.0625 v -3.98437 l -3.46875,8.92187 h -0.79687 l -3.67188,-8.92187 0.0937,3.01562 v 5.04688 l 1.3125,0.20312 v 0.65625 z"
       id="path219"
       inkscape:connector-curvature="0"
       style="fill:#000000;fill-rule:nonzero" />
    <path
       d="m 380.29282,254.56499 h 52.78742 v 26.64568 h -52.78742 z"
       id="path221"
       inkscape:connector-curvature="0"
       style="fill:#d9d9d9;fill-rule:evenodd" />
    <path
       d="m 380.29282,254.56499 h 52.78742 v 26.64568 h -52.78742 z"
       id="path223"
       inkscape:connector-curvature="0"
       style="fill-rule:evenodd;stroke:#000000;stroke-width:1;stroke-linecap:butt;stroke-linejoin:round" />
    <path
       d="m 410.59988,263.70096 v -0.65625 h 3.64062 v 0.65625 l -1.34375,0.1875 -2.70312,9.96875 h -0.6875 l -2.76563,-8.28125 -2.60937,8.28125 h -0.6875 l -2.89063,-10 -1.32812,-0.15625 v -0.65625 h 4.35937 v 0.65625 l -1.46875,0.17187 1.96875,7.34375 2.42188,-7.32812 -1.59375,-0.1875 v -0.65625 h 4.34375 v 0.65625 l -1.60938,0.1875 2.39063,7.40625 2.03125,-7.39063 z"
       id="path225"
       inkscape:connector-curvature="0"
       style="fill:#000000;fill-rule:nonzero" />
    <path
       d="M 9.228346e-4,347.65616 H 52.81982 v 20.72443 H 9.228346e-4 Z"
       id="path227"
       inkscape:connector-curvature="0"
       style="fill:#000000;fill-opacity:0;fill-rule:evenodd" />
    <path
       d="m 13.642847,355.919 0.140625,-2.84375 h 8.765625 l 0.125,2.84375 h -0.921875 l -0.359375,-2.04688 h -2.453125 q -0.01563,1.03125 -0.03125,2.07813 0,1.03125 0,2.07812 v 0.79688 q 0,1.01562 0,2.04687 0.01563,1.03125 0.03125,2.07813 l 1.640625,0.17187 v 0.65625 h -4.828125 v -0.65625 l 1.625,-0.17187 q 0.03125,-1.03125 0.03125,-2.0625 0,-1.03125 0,-2.0625 v -0.79688 q 0,-1.03125 0,-2.0625 0,-1.04687 -0.03125,-2.09375 h -2.453125 l -0.34375,2.04688 z m 13.117142,6.625 v -3.57813 H 23.463114 V 358.044 h 3.296875 v -3.5 h 0.96875 v 3.5 h 3.296875 v 0.92187 h -3.296875 v 3.57813 z m 5.51164,1.23437 v -1.04687 q 0.640625,-0.60938 1.234375,-1.21875 0.609375,-0.625 1.125,-1.17188 1.203125,-1.26562 1.75,-2.28125 0.5625,-1.03125 0.5625,-1.96875 0,-0.98437 -0.515625,-1.5625 -0.515625,-0.57812 -1.40625,-0.57812 -0.15625,0 -0.359375,0.0156 -0.1875,0.0156 -0.421875,0.0625 l -0.296875,1.10938 q -0.15625,0.59375 -0.375,0.84375 -0.21875,0.25 -0.5625,0.25 -0.515625,0 -0.8125,-0.51563 0.09375,-0.84375 0.5625,-1.39062 0.46875,-0.5625 1.171875,-0.82813 0.703125,-0.26562 1.5,-0.26562 1.546875,0 2.25,0.76562 0.71875,0.75 0.71875,1.95313 0,0.70312 -0.28125,1.375 -0.28125,0.65625 -0.96875,1.48437 -0.6875,0.82813 -1.921875,2.01563 -0.328125,0.3125 -0.78125,0.75 -0.453125,0.42187 -0.953125,0.89062 h 5.359375 v 1.3125 z"
       id="path229"
       inkscape:connector-curvature="0"
       style="fill:#000000;fill-rule:nonzero" />
    <path
       d="m 105.22447,267.8865 h 29.16536"
       id="path231"
       inkscape:connector-curvature="0"
       style="fill:#000000;fill-opacity:0;fill-rule:evenodd" />
    <path
       d="m 105.22447,267.8865 h 23.16536"
       id="path233"
       inkscape:connector-curvature="0"
       style="fill-rule:evenodd;stroke:#000000;stroke-width:1;stroke-linecap:butt;stroke-linejoin:round" />
    <path
       d="m 128.38983,269.53824 4.53809,-1.65173 -4.53809,-1.65174 z"
       id="path235"
       inkscape:connector-curvature="0"
       style="fill:#000000;fill-rule:evenodd;stroke:#000000;stroke-width:1;stroke-linecap:butt" />
    <path
       d="m 187.18842,267.88782 h 29.16534"
       id="path237"
       inkscape:connector-curvature="0"
       style="fill:#000000;fill-opacity:0;fill-rule:evenodd" />
    <path
       d="m 187.1884,267.88785 h 23.16536"
       id="path239"
       inkscape:connector-curvature="0"
       style="fill-rule:evenodd;stroke:#000000;stroke-width:1;stroke-linecap:butt;stroke-linejoin:round" />
    <path
       d="m 210.35376,269.53958 4.5381,-1.65173 -4.5381,-1.65174 z"
       id="path241"
       inkscape:connector-curvature="0"
       style="fill:#000000;fill-rule:evenodd;stroke:#000000;stroke-width:1;stroke-linecap:butt" />
    <path
       d="m 269.15234,267.8865 h 29.16537"
       id="path243"
       inkscape:connector-curvature="0"
       style="fill:#000000;fill-opacity:0;fill-rule:evenodd" />
    <path
       d="m 269.15234,267.8865 h 23.16537"
       id="path245"
       inkscape:connector-curvature="0"
       style="fill-rule:evenodd;stroke:#000000;stroke-width:1;stroke-linecap:butt;stroke-linejoin:round" />
    <path
       d="m 292.31772,269.53824 4.53809,-1.65173 -4.53809,-1.65174 z"
       id="path247"
       inkscape:connector-curvature="0"
       style="fill:#000000;fill-rule:evenodd;stroke:#000000;stroke-width:1;stroke-linecap:butt" />
    <path
       d="m 351.1163,267.88782 h 29.16534"
       id="path249"
       inkscape:connector-curvature="0"
       style="fill:#000000;fill-opacity:0;fill-rule:evenodd" />
    <path
       d="m 351.1163,267.88785 h 23.16534"
       id="path251"
       inkscape:connector-curvature="0"
       style="fill-rule:evenodd;stroke:#000000;stroke-width:1;stroke-linecap:butt;stroke-linejoin:round" />
    <path
       d="m 374.28165,269.53958 4.53812,-1.65173 -4.53812,-1.65174 z"
       id="path253"
       inkscape:connector-curvature="0"
       style="fill:#000000;fill-rule:evenodd;stroke:#000000;stroke-width:1;stroke-linecap:butt" />
    <path
       d="m 52.85625,347.65622 h 51.93701 v 20.7244 H 52.85625 Z"
       id="path255"
       inkscape:connector-curvature="0"
       style="fill:#f3f3f3;fill-rule:evenodd" />
    <path
       d="m 52.85625,347.65622 h 51.93701 v 20.7244 H 52.85625 Z"
       id="path257"
       inkscape:connector-curvature="0"
       style="fill-rule:evenodd;stroke:#000000;stroke-width:1;stroke-linecap:butt;stroke-linejoin:round" />
    <path
       d="m 73.08256,353.8953 v -0.60937 h 4.15625 v 0.60937 l -1.359375,0.15625 q -0.01563,0.92188 -0.01563,1.875 0,0.95313 0,1.90625 v 0.71875 q 0,0.9375 0,1.89063 0,0.9375 0.01563,1.89062 l 1.359375,0.17188 v 0.59375 h -4.15625 v -0.59375 l 1.359375,-0.17188 q 0.01563,-0.92187 0.01563,-1.875 0,-0.95312 0,-1.90625 v -0.71875 q 0,-0.95312 0,-1.89062 0,-0.95313 -0.01563,-1.89063 z m 7.29686,3.85938 h 0.578125 q 1,0 1.546875,-0.51563 0.5625,-0.51562 0.5625,-1.45312 0,-0.8125 -0.46875,-1.25 -0.453125,-0.4375 -1.328125,-0.4375 -0.140625,0 -0.3125,0.0156 -0.15625,0.0156 -0.359375,0.0469 l -0.1875,0.73437 q -0.125,0.45313 -0.296875,0.6875 -0.171875,0.21875 -0.5625,0.21875 -0.234375,0 -0.421875,-0.10937 -0.1875,-0.125 -0.28125,-0.40625 0.203125,-0.92188 0.921875,-1.375 0.734375,-0.46875 1.75,-0.46875 1.296875,0 2.046875,0.64062 0.765625,0.625 0.765625,1.65625 0,0.79688 -0.515625,1.42188 -0.5,0.625 -1.40625,0.9375 1.140625,0.21875 1.671875,0.85937 0.546875,0.625 0.546875,1.53125 0,0.79688 -0.421875,1.42188 -0.40625,0.625 -1.140625,1 -0.71875,0.375 -1.71875,0.375 -1.078125,0 -1.84375,-0.48438 -0.765625,-0.5 -0.96875,-1.59375 0.25,-0.48437 0.75,-0.48437 0.375,0 0.546875,0.25 0.171875,0.25 0.3125,0.8125 l 0.1875,0.75 q 0.25,0.0625 0.453125,0.0781 0.203125,0.0156 0.375,0.0156 1.078125,0 1.609375,-0.5625 0.546875,-0.5625 0.546875,-1.54688 0,-0.95312 -0.5625,-1.48437 Q 82.207545,358.489 81.082545,358.489 H 80.37942 Z"
       id="path259"
       inkscape:connector-curvature="0"
       style="fill:#000000;fill-rule:nonzero" />
    <path
       d="m 160.79471,376.40555 v -8.03149"
       id="path261"
       inkscape:connector-curvature="0"
       style="fill:#000000;fill-opacity:0;fill-rule:evenodd" />
    <path
       d="m 160.79471,376.40555 v -8.03149"
       id="path263"
       inkscape:connector-curvature="0"
       style="fill-rule:evenodd;stroke:#000000;stroke-width:1;stroke-linecap:butt;stroke-linejoin:round" />
    <path
       d="m 105.19366,386.76776 29.85827,28.75589"
       id="path265"
       inkscape:connector-curvature="0"
       style="fill:#000000;fill-opacity:0;fill-rule:evenodd" />
    <path
       d="m 105.19366,386.76776 25.53661,24.59378"
       id="path267"
       inkscape:connector-curvature="0"
       style="fill-rule:evenodd;stroke:#000000;stroke-width:1;stroke-linecap:butt;stroke-linejoin:round" />
    <path
       d="m 129.58447,412.55127 4.41447,1.95828 -2.1229,-4.33771 z"
       id="path269"
       inkscape:connector-curvature="0"
       style="fill:#000000;fill-rule:evenodd;stroke:#000000;stroke-width:1;stroke-linecap:butt" />
    <path
       d="M 134.40102,358.0184 H 104.79471"
       id="path271"
       inkscape:connector-curvature="0"
       style="fill:#000000;fill-opacity:0;fill-rule:evenodd" />
    <path
       d="M 134.40102,358.0184 H 110.79471"
       id="path273"
       inkscape:connector-curvature="0"
       style="fill-rule:evenodd;stroke:#4a86e8;stroke-width:1;stroke-linecap:butt;stroke-linejoin:round" />
    <path
       d="m 110.79471,356.36667 -4.53809,1.65173 4.53809,1.65174 z"
       id="path275"
       inkscape:connector-curvature="0"
       style="fill:#4a86e8;fill-rule:evenodd;stroke:#4a86e8;stroke-width:1;stroke-linecap:butt" />
    <path
       d="m 216.35901,347.65622 h 52.78742 v 20.7244 h -52.78742 z"
       id="path277"
       inkscape:connector-curvature="0"
       style="fill:#000000;fill-opacity:0;fill-rule:evenodd" />
    <path
       d="m 216.35901,347.65622 h 52.78742 v 20.7244 h -52.78742 z"
       id="path279"
       inkscape:connector-curvature="0"
       style="fill-rule:evenodd;stroke:#999999;stroke-width:1;stroke-linecap:butt;stroke-linejoin:round" />
    <path
       d="m 237.01053,353.8953 v -0.60937 h 4.15625 v 0.60937 l -1.35938,0.15625 q -0.0156,0.92188 -0.0156,1.875 0,0.95313 0,1.90625 v 0.71875 q 0,0.9375 0,1.89063 0,0.9375 0.0156,1.89062 l 1.35938,0.17188 v 0.59375 h -4.15625 v -0.59375 l 1.35937,-0.17188 q 0.0156,-0.92187 0.0156,-1.875 0,-0.95312 0,-1.90625 v -0.71875 q 0,-0.95312 0,-1.89062 0,-0.95313 -0.0156,-1.89063 z m 6.04686,0.39063 3.01562,-0.76563 0.20313,0.14063 -0.0625,2.09375 v 4.25 q 0,0.54687 0,1.10937 0.0156,0.54688 0.0312,1.10938 l 2.07812,0.34375 v 0.53125 h -5.4375 v -0.53125 l 2.07813,-0.34375 q 0.0156,-0.5625 0.0156,-1.10938 0.0156,-0.5625 0.0156,-1.10937 v -5.28125 l -1.9375,0.17187 z"
       id="path281"
       inkscape:connector-curvature="0"
       style="fill:#999999;fill-rule:nonzero" />
    <path
       d="m 187.18842,329.20215 29.25984,28.75589"
       id="path283"
       inkscape:connector-curvature="0"
       style="fill:#000000;fill-opacity:0;fill-rule:evenodd" />
    <path
       d="m 187.1884,329.20215 24.98051,24.55026"
       id="path285"
       inkscape:connector-curvature="0"
       style="fill-rule:evenodd;stroke:#999999;stroke-width:1;stroke-linecap:butt;stroke-linejoin:round" />
    <path
       d="m 211.01115,354.93048 4.39442,2.00287 -2.0789,-4.35898 z"
       id="path287"
       inkscape:connector-curvature="0"
       style="fill:#999999;fill-rule:evenodd;stroke:#999999;stroke-width:1;stroke-linecap:butt" />
    <path
       d="m 187.18842,386.76907 29.25984,28.75589"
       id="path289"
       inkscape:connector-curvature="0"
       style="fill:#000000;fill-opacity:0;fill-rule:evenodd" />
    <path
       d="m 187.1884,386.76907 24.98051,24.55026"
       id="path291"
       inkscape:connector-curvature="0"
       style="fill-rule:evenodd;stroke:#000000;stroke-width:1;stroke-linecap:butt;stroke-linejoin:round" />
    <path
       d="m 211.01115,412.4974 4.39442,2.00287 -2.0789,-4.35898 z"
       id="path293"
       inkscape:connector-curvature="0"
       style="fill:#000000;fill-rule:evenodd;stroke:#000000;stroke-width:1;stroke-linecap:butt" />
    <path
       d="M 9.228346e-4,376.40683 H 52.81982 v 20.7244 H 9.228346e-4 Z"
       id="path295"
       inkscape:connector-curvature="0"
       style="fill:#000000;fill-opacity:0;fill-rule:evenodd" />
    <path
       d="m 13.642847,384.66965 0.140625,-2.84375 h 8.765625 l 0.125,2.84375 h -0.921875 l -0.359375,-2.04688 h -2.453125 q -0.01563,1.03125 -0.03125,2.07813 0,1.03125 0,2.07812 v 0.79688 q 0,1.01562 0,2.04687 0.01563,1.03125 0.03125,2.07813 l 1.640625,0.17187 v 0.65625 h -4.828125 v -0.65625 l 1.625,-0.17187 q 0.03125,-1.03125 0.03125,-2.0625 0,-1.03125 0,-2.0625 v -0.79688 q 0,-1.03125 0,-2.0625 0,-1.04687 -0.03125,-2.09375 h -2.453125 l -0.34375,2.04688 z m 13.117142,6.625 v -3.57813 h -3.296875 v -0.92187 h 3.296875 v -3.5 h 0.96875 v 3.5 h 3.296875 v 0.92187 h -3.296875 v 3.57813 z m 7.44914,-4.60938 h 0.640625 q 1.078125,0 1.671875,-0.54687 0.609375,-0.5625 0.609375,-1.59375 0,-0.875 -0.5,-1.35938 -0.5,-0.48437 -1.453125,-0.48437 -0.15625,0 -0.328125,0.0156 -0.171875,0.0156 -0.40625,0.0469 l -0.203125,0.8125 q -0.125,0.48437 -0.328125,0.73437 -0.1875,0.25 -0.59375,0.25 -0.265625,0 -0.46875,-0.125 -0.203125,-0.125 -0.3125,-0.4375 0.21875,-1 1.015625,-1.5 0.796875,-0.51562 1.90625,-0.51562 1.40625,0 2.234375,0.70312 0.828125,0.6875 0.828125,1.8125 0,0.85938 -0.546875,1.54688 -0.546875,0.67187 -1.546875,1.03125 1.234375,0.23437 1.828125,0.92187 0.59375,0.6875 0.59375,1.6875 0,0.85938 -0.453125,1.54688 -0.4375,0.6875 -1.25,1.09375 -0.796875,0.40625 -1.890625,0.40625 -1.15625,0 -2,-0.53125 -0.84375,-0.53125 -1.0625,-1.73438 0.265625,-0.53125 0.8125,-0.53125 0.421875,0 0.59375,0.28125 0.1875,0.26563 0.359375,0.875 l 0.203125,0.82813 q 0.265625,0.0625 0.484375,0.0781 0.234375,0.0156 0.40625,0.0156 1.1875,0 1.78125,-0.60938 0.59375,-0.625 0.59375,-1.6875 0,-1.04687 -0.609375,-1.64062 -0.609375,-0.59375 -1.84375,-0.59375 h -0.765625 z"
       id="path297"
       inkscape:connector-curvature="0"
       style="fill:#000000;fill-rule:nonzero" />
    <path
       d="m 298.4443,376.40686 h 52.78741 v 20.72443 H 298.4443 Z"
       id="path299"
       inkscape:connector-curvature="0"
       style="fill:#000000;fill-opacity:0;fill-rule:evenodd" />
    <path
       d="m 298.4443,376.40686 h 52.78741 v 20.72443 H 298.4443 Z"
       id="path301"
       inkscape:connector-curvature="0"
       style="fill-rule:evenodd;stroke:#999999;stroke-width:1;stroke-linecap:butt;stroke-linejoin:round" />
    <path
       d="m 319.09583,382.64594 v -0.60938 h 4.15625 v 0.60938 l -1.35938,0.15625 q -0.0156,0.92187 -0.0156,1.875 0,0.95312 0,1.90625 v 0.71875 q 0,0.9375 0,1.89062 0,0.9375 0.0156,1.89063 l 1.35938,0.17187 v 0.59375 h -4.15625 v -0.59375 l 1.35937,-0.17187 q 0.0156,-0.92188 0.0156,-1.875 0,-0.95313 0,-1.90625 v -0.71875 q 0,-0.95313 0,-1.89063 0,-0.95312 -0.0156,-1.89062 z m 6.04684,0.39062 3.01563,-0.76562 0.20312,0.14062 -0.0625,2.09375 v 4.25 q 0,0.54688 0,1.10938 0.0156,0.54687 0.0312,1.10937 l 2.07813,0.34375 v 0.53125 h -5.4375 v -0.53125 l 2.07812,-0.34375 q 0.0156,-0.5625 0.0156,-1.10937 0.0156,-0.5625 0.0156,-1.10938 v -5.28125 l -1.9375,0.17188 z"
       id="path303"
       inkscape:connector-curvature="0"
       style="fill:#999999;fill-rule:nonzero" />
    <path
       d="m 269.14642,358.0184 29.29132,28.75592"
       id="path305"
       inkscape:connector-curvature="0"
       style="fill:#000000;fill-opacity:0;fill-rule:evenodd" />
    <path
       d="m 269.1464,358.0184 25.00977,24.55258"
       id="path307"
       inkscape:connector-curvature="0"
       style="fill-rule:evenodd;stroke:#999999;stroke-width:1;stroke-linecap:butt;stroke-linejoin:round" />
    <path
       d="m 292.99902,383.74966 4.39551,2.00052 -2.08124,-4.35788 z"
       id="path309"
       inkscape:connector-curvature="0"
       style="fill:#999999;fill-rule:evenodd;stroke:#999999;stroke-width:1;stroke-linecap:butt" />
    <path
       d="m 351.13593,386.77432 29.29132,28.75589"
       id="path311"
       inkscape:connector-curvature="0"
       style="fill:#000000;fill-opacity:0;fill-rule:evenodd" />
    <path
       d="m 351.1359,386.77432 25.00977,24.55258"
       id="path313"
       inkscape:connector-curvature="0"
       style="fill-rule:evenodd;stroke:#999999;stroke-width:1;stroke-linecap:butt;stroke-linejoin:round" />
    <path
       d="m 374.98853,412.50558 4.39551,2.00049 -2.08124,-4.35785 z"
       id="path315"
       inkscape:connector-curvature="0"
       style="fill:#999999;fill-rule:evenodd;stroke:#999999;stroke-width:1;stroke-linecap:butt" />
    <path
       d="m 134.40102,376.40555 h 52.7874 v 20.72443 h -52.7874 z"
       id="path317"
       inkscape:connector-curvature="0"
       style="fill:#f3f3f3;fill-rule:evenodd" />
    <path
       d="m 134.40102,376.40555 h 52.7874 v 20.72443 h -52.7874 z"
       id="path319"
       inkscape:connector-curvature="0"
       style="fill-rule:evenodd;stroke:#000000;stroke-width:1;stroke-linecap:butt;stroke-linejoin:round" />
    <path
       d="m 155.05252,382.64462 v -0.60938 h 4.15625 v 0.60938 l -1.35938,0.15625 q -0.0156,0.92187 -0.0156,1.875 0,0.95312 0,1.90625 v 0.71875 q 0,0.9375 0,1.89062 0,0.9375 0.0156,1.89063 l 1.35938,0.17187 v 0.59375 h -4.15625 v -0.59375 l 1.35937,-0.17187 q 0.0156,-0.92188 0.0156,-1.875 0,-0.95313 0,-1.90625 v -0.71875 q 0,-0.95313 0,-1.89063 0,-0.95312 -0.0156,-1.89062 z m 5.51561,9.20312 v -0.95312 q 0.57812,-0.57813 1.125,-1.14063 0.54687,-0.5625 1.01562,-1.0625 1.10938,-1.15625 1.60938,-2.09375 0.51562,-0.9375 0.51562,-1.78125 0,-0.90625 -0.48437,-1.4375 -0.46875,-0.53125 -1.26563,-0.53125 -0.15625,0 -0.34375,0.0156 -0.17187,0.0156 -0.375,0.0625 l -0.28125,1 q -0.14062,0.54687 -0.34375,0.78125 -0.20312,0.21875 -0.5,0.21875 -0.48437,0 -0.75,-0.46875 0.0781,-0.76563 0.5,-1.26563 0.4375,-0.51562 1.07813,-0.75 0.64062,-0.25 1.375,-0.25 1.42187,0 2.0625,0.70313 0.65625,0.6875 0.65625,1.78125 0,0.65625 -0.26563,1.26562 -0.25,0.59375 -0.89062,1.35938 -0.625,0.75 -1.75,1.82812 -0.29688,0.29688 -0.71875,0.70313 -0.40625,0.39062 -0.85938,0.8125 h 4.90625 v 1.20312 z"
       id="path321"
       inkscape:connector-curvature="0"
       style="fill:#000000;fill-rule:nonzero" />
    <path
       d="m 52.40626,376.40555 h 52.7874 v 20.72443 h -52.7874 z"
       id="path323"
       inkscape:connector-curvature="0"
       style="fill:#f3f3f3;fill-rule:evenodd" />
    <path
       d="m 52.40626,376.40555 h 52.7874 v 20.72443 h -52.7874 z"
       id="path325"
       inkscape:connector-curvature="0"
       style="fill-rule:evenodd;stroke:#000000;stroke-width:1;stroke-linecap:butt;stroke-linejoin:round" />
    <path
       d="m 73.05777,382.64462 v -0.60938 h 4.15625 v 0.60938 l -1.359375,0.15625 q -0.01563,0.92187 -0.01563,1.875 0,0.95312 0,1.90625 v 0.71875 q 0,0.9375 0,1.89062 0,0.9375 0.01563,1.89063 l 1.359375,0.17187 v 0.59375 h -4.15625 v -0.59375 l 1.359375,-0.17187 q 0.01563,-0.92188 0.01563,-1.875 0,-0.95313 0,-1.90625 v -0.71875 q 0,-0.95313 0,-1.89063 0,-0.95312 -0.01563,-1.89062 z m 7.29686,3.85937 h 0.578125 q 1,0 1.546875,-0.51562 0.5625,-0.51563 0.5625,-1.45313 0,-0.8125 -0.46875,-1.25 -0.453125,-0.4375 -1.328125,-0.4375 -0.140625,0 -0.3125,0.0156 -0.15625,0.0156 -0.359375,0.0469 l -0.1875,0.73438 q -0.125,0.45312 -0.296875,0.6875 -0.171875,0.21875 -0.5625,0.21875 -0.234375,0 -0.421875,-0.10938 -0.1875,-0.125 -0.28125,-0.40625 0.203125,-0.92187 0.921875,-1.375 0.734375,-0.46875 1.75,-0.46875 1.296875,0 2.046875,0.64063 0.765625,0.625 0.765625,1.65625 0,0.79687 -0.515625,1.42187 -0.5,0.625 -1.40625,0.9375 1.140625,0.21875 1.671875,0.85938 0.546867,0.625 0.546867,1.53125 0,0.79687 -0.421867,1.42187 -0.40625,0.625 -1.140625,1 -0.71875,0.375 -1.71875,0.375 -1.078125,0 -1.84375,-0.48437 -0.765625,-0.5 -0.96875,-1.59375 0.25,-0.48438 0.75,-0.48438 0.375,0 0.546875,0.25 0.171875,0.25 0.3125,0.8125 l 0.1875,0.75 q 0.25,0.0625 0.453125,0.0781 0.203125,0.0156 0.375,0.0156 1.078125,0 1.609375,-0.5625 0.546875,-0.5625 0.546875,-1.54687 0,-0.95313 -0.5625,-1.48438 -0.546875,-0.54687 -1.671875,-0.54687 H 80.35463 Z"
       id="path327"
       inkscape:connector-curvature="0"
       style="fill:#000000;fill-rule:nonzero" />
    <path
       d="m 78.79996,376.40555 0.0315,-8.03149"
       id="path329"
       inkscape:connector-curvature="0"
       style="fill:#000000;fill-opacity:0;fill-rule:evenodd" />
    <path
       d="m 78.79996,376.40555 0.0315,-8.03149"
       id="path331"
       inkscape:connector-curvature="0"
       style="fill-rule:evenodd;stroke:#000000;stroke-width:1;stroke-linecap:butt;stroke-linejoin:round" />
    <path
       d="m 104.79326,329.26776 29.60629,28.75592"
       id="path333"
       inkscape:connector-curvature="0"
       style="fill:#000000;fill-opacity:0;fill-rule:evenodd" />
    <path
       d="m 104.79326,329.2678 25.30229,24.5755"
       id="path335"
       inkscape:connector-curvature="0"
       style="fill-rule:evenodd;stroke:#000000;stroke-width:1;stroke-linecap:butt;stroke-linejoin:round" />
    <path
       d="m 128.94473,355.02814 4.40614,1.97699 -2.1045,-4.34668 z"
       id="path337"
       inkscape:connector-curvature="0"
       style="fill:#000000;fill-rule:evenodd;stroke:#000000;stroke-width:1;stroke-linecap:butt" />
    <path
       d="m 137.50781,291.79706 v 0 c 0,-2.12509 1.72273,-3.84784 3.84784,-3.84784 h 63.17046 c 1.0205,0 1.99922,0.4054 2.72084,1.12701 0.7216,0.72162 1.12701,1.70032 1.12701,2.72083 v 15.39093 c 0,2.12512 -1.72275,3.84784 -3.84785,3.84784 h -63.17046 c -2.12511,0 -3.84784,-1.72272 -3.84784,-3.84784 z"
       id="path339"
       inkscape:connector-curvature="0"
       style="fill:#000000;fill-opacity:0;fill-rule:evenodd" />
    <path
       d="m 137.50781,291.79706 v 0 c 0,-2.12509 1.72273,-3.84784 3.84784,-3.84784 h 63.17046 c 1.0205,0 1.99922,0.4054 2.72084,1.12701 0.7216,0.72162 1.12701,1.70032 1.12701,2.72083 v 15.39093 c 0,2.12512 -1.72275,3.84784 -3.84785,3.84784 h -63.17046 c -2.12511,0 -3.84784,-1.72272 -3.84784,-3.84784 z"
       id="path341"
       inkscape:connector-curvature="0"
       style="fill-rule:evenodd;stroke:#4a86e8;stroke-width:1;stroke-linecap:butt;stroke-linejoin:round;stroke-dasharray:4, 3" />
    <path
       d="m 150.25923,295.91754 v -0.54688 h 3.21875 v 0.54688 l -1.14063,0.17187 v 8.29688 h -0.46875 l -5.32812,-7.26563 v 6.4375 l 1.42187,0.1875 v 0.54688 h -3.23437 v -0.54688 l 1.14062,-0.15625 v -7.40625 l -0.125,-0.15625 -0.9375,-0.10937 v -0.54688 h 2.04688 l 4.8125,6.60938 v -5.89063 z m 7.24551,8.54687 q -0.78125,0 -1.48437,-0.35937 -0.6875,-0.375 -1.14063,-1.10938 -0.4375,-0.75 -0.4375,-1.82812 0,-1.10938 0.4375,-1.85938 0.45313,-0.76562 1.14063,-1.14062 0.70312,-0.375 1.48437,-0.375 0.76563,0 1.46875,0.375 0.70313,0.375 1.14063,1.14062 0.45312,0.75 0.45312,1.85938 0,1.07812 -0.45312,1.82812 -0.4375,0.73438 -1.14063,1.10938 -0.70312,0.35937 -1.46875,0.35937 z m 0,-0.59375 q 0.85938,0 1.32813,-0.6875 0.46875,-0.6875 0.46875,-2.01562 0,-1.35938 -0.46875,-2.0625 -0.46875,-0.70313 -1.32813,-0.70313 -0.875,0 -1.34375,0.70313 -0.45312,0.70312 -0.45312,2.0625 0,1.32812 0.45312,2.01562 0.46875,0.6875 1.34375,0.6875 z m 6.26191,0.59375 q -0.6875,0 -1.10938,-0.375 -0.40625,-0.375 -0.40625,-1.14062 0,-0.25 0,-0.5 0,-0.25 0,-0.64063 v -3.14062 h -1.09375 v -0.57813 l 1.1875,-0.15625 0.34375,-1.78125 h 0.79688 l -0.0781,1.8125 h 1.79688 v 0.70313 h -1.8125 v 4.125 q 0,0.51562 0.20312,0.75 0.20313,0.23437 0.53125,0.23437 0.21875,0 0.42188,-0.0937 0.21875,-0.0937 0.46875,-0.26562 l 0.32812,0.34375 q -0.54687,0.70312 -1.57812,0.70312 z m 5.26518,-0.17187 v -0.48438 l 0.95312,-0.17187 q 0.0156,-0.5 0.0156,-1.09375 0.0156,-0.59375 0.0156,-1.04688 v -0.64062 q 0,-0.54688 -0.0156,-0.90625 0,-0.35938 -0.0312,-0.76563 l -1.04688,-0.10937 v -0.46875 l 1.85938,-0.8125 0.20312,0.125 0.15625,1.57812 q 0.32813,-0.79687 0.84375,-1.25 0.53125,-0.45312 1.0625,-0.45312 0.3125,0 0.57813,0.14062 0.26562,0.125 0.39062,0.34375 0,0.98438 -0.78125,0.98438 -0.23437,0 -0.4375,-0.0937 -0.20312,-0.0937 -0.39062,-0.25 l -0.15625,-0.14063 q -0.39063,0.29688 -0.65625,0.71875 -0.26563,0.42188 -0.45313,1 v 1 q 0,0.4375 0,1.03125 0.0156,0.57813 0.0312,1.07813 l 1.09375,0.20312 v 0.48438 z m 8.52006,-5.89063 q -0.35937,0 -0.75,0.21875 -0.375,0.20313 -0.65625,0.67188 -0.26562,0.46875 -0.34375,1.23437 h 2.42188 q 0.48437,0 0.625,-0.1875 0.15625,-0.20312 0.15625,-0.5 0,-0.39062 -0.1875,-0.70312 -0.1875,-0.32813 -0.51563,-0.53125 -0.32812,-0.20313 -0.75,-0.20313 z m 0,6.0625 q -1.35937,0 -2.17187,-0.875 -0.8125,-0.875 -0.8125,-2.40625 0,-1.01562 0.42187,-1.78125 0.42188,-0.76562 1.125,-1.1875 0.70313,-0.42187 1.53125,-0.42187 0.6875,0 1.25,0.3125 0.5625,0.29687 0.89063,0.85937 0.32812,0.5625 0.32812,1.39063 0,0.21875 -0.0312,0.42187 -0.0156,0.1875 -0.0625,0.3125 h -4.25 q 0.0312,1.23438 0.60938,1.875 0.59375,0.64063 1.54687,0.64063 0.64063,0 1.0625,-0.26563 0.4375,-0.26562 0.79688,-0.67187 l 0.3125,0.25 q -0.375,0.70312 -1.01563,1.125 -0.625,0.42187 -1.53125,0.42187 z m 8.63274,-0.0312 q -0.48438,0 -0.8125,-0.28125 -0.3125,-0.28125 -0.39063,-0.75 -0.54687,0.53125 -0.96875,0.79688 -0.40625,0.26562 -0.98437,0.26562 -0.73438,0 -1.26563,-0.42187 -0.53125,-0.42188 -0.53125,-1.25 0,-0.375 0.17188,-0.70313 0.1875,-0.34375 0.67187,-0.65625 0.48438,-0.32812 1.375,-0.64062 0.3125,-0.10938 0.70313,-0.23438 0.40625,-0.125 0.79687,-0.20312 v -0.34375 q 0,-0.96875 -0.29687,-1.28125 -0.28125,-0.32813 -0.95313,-0.32813 -0.14062,0 -0.32812,0.0156 -0.17188,0.0156 -0.39063,0.0625 l -0.25,0.875 q -0.1875,0.625 -0.6875,0.625 -0.5625,0 -0.64062,-0.53125 0.1875,-0.76563 0.89062,-1.20313 0.70313,-0.45312 1.71875,-0.45312 1.04688,0 1.54688,0.53125 0.51562,0.51562 0.51562,1.78125 v 2.84375 q 0,0.42187 0.125,0.60937 0.14063,0.17188 0.35938,0.17188 0.17187,0 0.28125,-0.0781 0.125,-0.0781 0.23437,-0.21875 l 0.26563,0.29688 q -0.23438,0.39062 -0.53125,0.54687 -0.28125,0.15625 -0.625,0.15625 z m -3.76563,-1.82812 q 0,0.53125 0.3125,0.76562 0.3125,0.21875 0.76563,0.21875 0.1875,0 0.35937,-0.0469 0.1875,-0.0625 0.4375,-0.21875 0.26563,-0.15625 0.65625,-0.4375 v -2.04688 q -0.34375,0.0937 -0.67187,0.21875 -0.32813,0.10938 -0.54688,0.1875 -0.57812,0.21875 -0.85937,0.46875 -0.28125,0.23438 -0.375,0.46875 -0.0781,0.21875 -0.0781,0.42188 z m 6.79963,-1.4375 q 0,1.29687 0.53125,1.92187 0.53125,0.60938 1.32812,0.60938 0.4375,0 0.76563,-0.17188 0.34375,-0.1875 0.71875,-0.59375 v -3.6875 q -0.45313,-0.40625 -0.8125,-0.54687 -0.35938,-0.15625 -0.6875,-0.15625 -0.5,0 -0.92188,0.28125 -0.40625,0.26562 -0.67187,0.85937 -0.25,0.57813 -0.25,1.48438 z m 3.48437,3.26562 -0.0937,-0.92187 q -0.34375,0.45312 -0.79687,0.70312 -0.45313,0.25 -1.07813,0.25 -0.8125,0 -1.42187,-0.40625 -0.60938,-0.42187 -0.95313,-1.15625 -0.34375,-0.73437 -0.34375,-1.71875 0,-1.01562 0.375,-1.78125 0.375,-0.76562 1.01563,-1.1875 0.64062,-0.42187 1.45312,-0.42187 0.46875,0 0.89063,0.1875 0.4375,0.1875 0.85937,0.67187 v -3.01562 l -1.14062,-0.125 v -0.46875 l 2.07812,-0.59375 0.1875,0.0937 -0.0469,1.90625 v 7.20312 l 1.07812,0.15625 v 0.48438 z m 6.36119,-5.98437 v -0.48438 h 2.60938 v 0.48438 l -0.71875,0.14062 -2.15625,5.65625 q -0.65625,1.78125 -1.28125,2.5625 -0.625,0.79688 -1.45313,0.79688 -0.48437,0 -0.85937,-0.25 -0.35938,-0.23438 -0.35938,-0.625 0.0625,-0.29688 0.32813,-0.4375 0.26562,-0.14063 0.5625,-0.14063 0.26562,0 0.48437,0.10938 0.23438,0.10937 0.5,0.39062 l 0.0781,0.0625 q 0.42187,-0.35937 0.70312,-0.875 0.29688,-0.5 0.48438,-1.04687 l 0.0625,-0.15625 -2.42188,-6.09375 -0.73437,-0.0937 v -0.48438 h 3.20312 v 0.48438 l -1.17187,0.14062 1.67187,4.54688 1.64063,-4.53125 z"
       id="path343"
       inkscape:connector-curvature="0"
       style="fill:#000000;fill-rule:nonzero" />
    <path
       d="m 137.50781,299.49252 c -8.85039,0 -17.70079,28.77167 -17.70079,57.5433"
       id="path345"
       inkscape:connector-curvature="0"
       style="fill:#000000;fill-opacity:0;fill-rule:evenodd" />
    <path
       d="m 137.50781,299.49252 c -8.85039,0 -17.70079,28.77167 -17.70079,57.5433"
       id="path347"
       inkscape:connector-curvature="0"
       style="fill-rule:evenodd;stroke:#4a86e8;stroke-width:1;stroke-linecap:butt;stroke-linejoin:round;stroke-dasharray:4, 3" />
    <path
       d="M 298.4443,386.76907 H 187.20022"
       id="path349"
       inkscape:connector-curvature="0"
       style="fill:#000000;fill-opacity:0;fill-rule:evenodd" />
    <path
       d="M 298.4443,386.76907 H 193.2002"
       id="path351"
       inkscape:connector-curvature="0"
       style="fill-rule:evenodd;stroke:#999999;stroke-width:1;stroke-linecap:butt;stroke-linejoin:round" />
    <path
       d="m 193.20021,385.11734 -4.5381,1.65173 4.5381,1.65174 z"
       id="path353"
       inkscape:connector-curvature="0"
       style="fill:#999999;fill-rule:evenodd;stroke:#999999;stroke-width:1;stroke-linecap:butt" />
    <path
       d="M 216.35901,358.0184 H 187.19367"
       id="path355"
       inkscape:connector-curvature="0"
       style="fill:#000000;fill-opacity:0;fill-rule:evenodd" />
    <path
       d="M 216.35901,358.0184 H 193.19365"
       id="path357"
       inkscape:connector-curvature="0"
       style="fill-rule:evenodd;stroke:#999999;stroke-width:1;stroke-linecap:butt;stroke-linejoin:round" />
    <path
       d="m 193.19365,356.36667 -4.5381,1.65173 4.5381,1.65174 z"
       id="path359"
       inkscape:connector-curvature="0"
       style="fill:#999999;fill-rule:evenodd;stroke:#999999;stroke-width:1;stroke-linecap:butt" />
    <path
       d="m 134.40102,347.65622 h 52.7874 v 20.7244 h -52.7874 z"
       id="path361"
       inkscape:connector-curvature="0"
       style="fill:#f3f3f3;fill-rule:evenodd" />
    <path
       d="m 134.40102,347.65622 h 52.7874 v 20.7244 h -52.7874 z"
       id="path363"
       inkscape:connector-curvature="0"
       style="fill-rule:evenodd;stroke:#000000;stroke-width:1;stroke-linecap:butt;stroke-linejoin:round" />
    <path
       d="m 155.05252,353.8953 v -0.60937 h 4.15625 v 0.60937 l -1.35938,0.15625 q -0.0156,0.92188 -0.0156,1.875 0,0.95313 0,1.90625 v 0.71875 q 0,0.9375 0,1.89063 0,0.9375 0.0156,1.89062 l 1.35938,0.17188 v 0.59375 h -4.15625 v -0.59375 l 1.35937,-0.17188 q 0.0156,-0.92187 0.0156,-1.875 0,-0.95312 0,-1.90625 v -0.71875 q 0,-0.95312 0,-1.89062 0,-0.95313 -0.0156,-1.89063 z m 5.51561,9.20313 v -0.95313 q 0.57812,-0.57812 1.125,-1.14062 0.54687,-0.5625 1.01562,-1.0625 1.10938,-1.15625 1.60938,-2.09375 0.51562,-0.9375 0.51562,-1.78125 0,-0.90625 -0.48437,-1.4375 -0.46875,-0.53125 -1.26563,-0.53125 -0.15625,0 -0.34375,0.0156 -0.17187,0.0156 -0.375,0.0625 l -0.28125,1 q -0.14062,0.54688 -0.34375,0.78125 -0.20312,0.21875 -0.5,0.21875 -0.48437,0 -0.75,-0.46875 0.0781,-0.76562 0.5,-1.26562 0.4375,-0.51563 1.07813,-0.75 0.64062,-0.25 1.375,-0.25 1.42187,0 2.0625,0.70312 0.65625,0.6875 0.65625,1.78125 0,0.65625 -0.26563,1.26563 -0.25,0.59375 -0.89062,1.35937 -0.625,0.75 -1.75,1.82813 -0.29688,0.29687 -0.71875,0.70312 -0.40625,0.39063 -0.85938,0.8125 h 4.90625 v 1.20313 z"
       id="path365"
       inkscape:connector-curvature="0"
       style="fill:#000000;fill-rule:nonzero" />
  </g>
</svg>
