<?xml version="1.0" encoding="UTF-8" standalone="no"?>
<svg
   xmlns:dc="http://purl.org/dc/elements/1.1/"
   xmlns:cc="http://creativecommons.org/ns#"
   xmlns:rdf="http://www.w3.org/1999/02/22-rdf-syntax-ns#"
   xmlns:svg="http://www.w3.org/2000/svg"
   xmlns="http://www.w3.org/2000/svg"
   xmlns:sodipodi="http://sodipodi.sourceforge.net/DTD/sodipodi-0.dtd"
   xmlns:inkscape="http://www.inkscape.org/namespaces/inkscape"
   version="1.1"
   viewBox="0 0 603.36218 215.26773"
   stroke-miterlimit="10"
   id="svg137"
   sodipodi:docname="custom-fifo-spec.svg"
   width="603.36218"
   height="215.26773"
   style="fill:none;stroke:none;stroke-linecap:square;stroke-miterlimit:10"
   inkscape:version="0.92.5 (2060ec1f9f, 2020-04-08)">
  <metadata
     id="metadata143">
    <rdf:RDF>
      <cc:Work
         rdf:about="">
        <dc:format>image/svg+xml</dc:format>
        <dc:type
           rdf:resource="http://purl.org/dc/dcmitype/StillImage" />
        <dc:title></dc:title>
      </cc:Work>
    </rdf:RDF>
  </metadata>
  <defs
     id="defs141" />
  <sodipodi:namedview
     pagecolor="#ffffff"
     bordercolor="#666666"
     borderopacity="1"
     objecttolerance="10"
     gridtolerance="10"
     guidetolerance="10"
     inkscape:pageopacity="0"
     inkscape:pageshadow="2"
     inkscape:window-width="1647"
     inkscape:window-height="1321"
     id="namedview139"
     showgrid="false"
     inkscape:zoom="1.4458333"
     inkscape:cx="231.28066"
     inkscape:cy="-25.252729"
     inkscape:window-x="693"
     inkscape:window-y="411"
     inkscape:window-maximized="0"
     inkscape:current-layer="g135" />
  <clipPath
     id="g2f951fc4f74_0_0.0">
    <path
       d="M 0,0 H 960 V 540 H 0 Z"
       id="path2"
       inkscape:connector-curvature="0"
       style="clip-rule:nonzero" />
  </clipPath>
  <g
     clip-path="url(#g2f951fc4f74_0_0.0)"
     id="g135"
     transform="translate(-244.25066,-91.02756)">
    <path
       d="m 244.75066,91.52756 h 602.3622 v 214.26773 h -602.3622 z"
       id="path7"
       inkscape:connector-curvature="0"
       style="fill:#000000;fill-opacity:0;fill-rule:evenodd" />
    <path
       d="M 4.2440944,2.703412 H 508.24409 v 72.97637 H 4.2440944 Z"
       id="path11"
       inkscape:connector-curvature="0"
       style="fill:#000000;fill-opacity:0;fill-rule:evenodd" />
    <path
       d="m 244.75073,95.35939 h 51.21259 v 39.52756 h -51.21259 z"
       id="path15"
       inkscape:connector-curvature="0"
       style="fill:#000000;fill-opacity:0;fill-rule:evenodd" />
    <path
       d="m 254.80457,124.72317 v -0.95313 l 2,-0.375 q 0.0156,-1.01562 0.0312,-2.20312 0.0156,-1.1875 0.0156,-2.0625 v -1.25 q 0,-1.09375 -0.0156,-1.82813 -0.0156,-0.73437 -0.0625,-1.53125 l -2.14063,-0.25 v -0.92187 l 4.10938,-1.64063 0.40625,0.28125 -0.0781,3.625 v 3.51563 q 0,0.875 0,2.0625 0.0156,1.1875 0.0469,2.20312 l 1.875,0.375 v 0.95313 z m 3.14062,-15.9375 q -0.75,0 -1.26562,-0.48438 -0.51563,-0.48437 -0.51563,-1.21875 0,-0.78125 0.51563,-1.25 0.51562,-0.46875 1.26562,-0.46875 0.75,0 1.26563,0.46875 0.51562,0.46875 0.51562,1.25 0,0.73438 -0.51562,1.21875 -0.51563,0.48438 -1.26563,0.48438 z m 4.92789,15.9375 v -0.95313 l 1.96875,-0.375 q 0.0312,-1.01562 0.0469,-2.1875 0.0156,-1.17187 0.0156,-2.07812 v -1.28125 q 0,-1.09375 -0.0156,-1.8125 -0.0156,-0.71875 -0.0625,-1.51563 l -2.10938,-0.25 v -0.92187 l 3.73438,-1.64063 0.39062,0.28125 0.21875,2.125 q 0.98438,-1.0625 2.26563,-1.73437 1.28125,-0.67188 2.5,-0.67188 1.73437,0 2.57812,1.17188 0.84375,1.15625 0.84375,3.76562 v 2.48438 q 0,0.90625 0.0156,2.07812 0.0156,1.17188 0.0312,2.1875 l 1.87503,0.375 v 0.95313 h -6.18753 v -0.95313 l 1.96875,-0.375 q 0.0312,-0.98437 0.0469,-2.17187 0.0156,-1.1875 0.0156,-2.09375 v -2.26563 q 0,-1.84375 -0.53125,-2.53125 -0.51563,-0.70312 -1.6875,-0.70312 -0.90625,0 -1.76563,0.375 -0.84375,0.375 -1.85937,1.23437 v 3.89063 q 0,0.875 0.0156,2.0625 0.0156,1.1875 0.0312,2.20312 l 1.84375,0.375 v 0.95313 z"
       id="path17"
       inkscape:connector-curvature="0"
       style="fill:#000000;fill-rule:nonzero" />
    <path
       d="m 279.47986,124.05129 3.65625,-0.95313 0.25,0.1875 -0.0781,2.53125 v 5.15625 q 0,0.65625 0,1.34375 0.0156,0.67187 0.0469,1.34375 l 2.51562,0.42187 v 0.64063 h -6.59375 v -0.64063 l 2.5,-0.42187 q 0.0312,-0.67188 0.0312,-1.34375 0.0156,-0.6875 0.0156,-1.34375 v -6.39062 l -2.34375,0.1875 z"
       id="path19"
       inkscape:connector-curvature="0"
       style="fill:#000000;fill-rule:nonzero" />
    <path
       d="m 244.75073,151.39876 h 51.21259 v 39.52756 h -51.21259 z"
       id="path21"
       inkscape:connector-curvature="0"
       style="fill:#000000;fill-opacity:0;fill-rule:evenodd" />
    <path
       d="m 254.80457,180.76254 v -0.95313 l 2,-0.375 q 0.0156,-1.01562 0.0312,-2.20312 0.0156,-1.1875 0.0156,-2.0625 v -1.25 q 0,-1.09375 -0.0156,-1.82813 -0.0156,-0.73437 -0.0625,-1.53125 l -2.14063,-0.25 v -0.92187 l 4.10938,-1.64063 0.40625,0.28125 -0.0781,3.625 v 3.51563 q 0,0.875 0,2.0625 0.0156,1.1875 0.0469,2.20312 l 1.875,0.375 v 0.95313 z m 3.14062,-15.9375 q -0.75,0 -1.26562,-0.48438 -0.51563,-0.48437 -0.51563,-1.21875 0,-0.78125 0.51563,-1.25 0.51562,-0.46875 1.26562,-0.46875 0.75,0 1.26563,0.46875 0.51562,0.46875 0.51562,1.25 0,0.73438 -0.51562,1.21875 -0.51563,0.48438 -1.26563,0.48438 z m 4.92789,15.9375 v -0.95313 l 1.96875,-0.375 q 0.0312,-1.01562 0.0469,-2.1875 0.0156,-1.17187 0.0156,-2.07812 v -1.28125 q 0,-1.09375 -0.0156,-1.8125 -0.0156,-0.71875 -0.0625,-1.51563 l -2.10938,-0.25 v -0.92187 l 3.73438,-1.64063 0.39062,0.28125 0.21875,2.125 q 0.98438,-1.0625 2.26563,-1.73437 1.28125,-0.67188 2.5,-0.67188 1.73437,0 2.57812,1.17188 0.84375,1.15625 0.84375,3.76562 v 2.48438 q 0,0.90625 0.0156,2.07812 0.0156,1.17188 0.0312,2.1875 l 1.87503,0.375 v 0.95313 h -6.18753 v -0.95313 l 1.96875,-0.375 q 0.0312,-0.98437 0.0469,-2.17187 0.0156,-1.1875 0.0156,-2.09375 v -2.26563 q 0,-1.84375 -0.53125,-2.53125 -0.51563,-0.70312 -1.6875,-0.70312 -0.90625,0 -1.76563,0.375 -0.84375,0.375 -1.85937,1.23437 v 3.89063 q 0,0.875 0.0156,2.0625 0.0156,1.1875 0.0312,2.20312 l 1.84375,0.375 v 0.95313 z"
       id="path23"
       inkscape:connector-curvature="0"
       style="fill:#000000;fill-rule:nonzero" />
    <path
       d="m 278.83923,190.76253 v -1.15625 q 0.70312,-0.6875 1.35937,-1.375 0.67188,-0.6875 1.25,-1.28125 1.32813,-1.40625 1.95313,-2.54688 0.625,-1.14062 0.625,-2.17187 0,-1.09375 -0.57813,-1.73438 -0.57812,-0.64062 -1.5625,-0.64062 -0.17187,0 -0.40625,0.0156 -0.21875,0.0156 -0.45312,0.0781 l -0.34375,1.21875 q -0.17188,0.65625 -0.42188,0.9375 -0.23437,0.26562 -0.60937,0.26562 -0.59375,0 -0.90625,-0.5625 0.10937,-0.9375 0.625,-1.54687 0.51562,-0.625 1.29687,-0.90625 0.78125,-0.29688 1.67188,-0.29688 1.71875,0 2.5,0.84375 0.78125,0.84375 0.78125,2.17188 0,0.78125 -0.3125,1.51562 -0.3125,0.73438 -1.07813,1.65625 -0.76562,0.92188 -2.125,2.23438 -0.35937,0.34375 -0.875,0.82812 -0.5,0.48438 -1.04687,1 h 5.95312 v 1.45313 z"
       id="path25"
       inkscape:connector-curvature="0"
       style="fill:#000000;fill-rule:nonzero" />
    <path
       d="m 244.75073,255.03654 h 51.21259 v 39.52757 h -51.21259 z"
       id="path27"
       inkscape:connector-curvature="0"
       style="fill:#000000;fill-opacity:0;fill-rule:evenodd" />
    <path
       d="m 252.71712,284.40033 v -0.95313 l 2,-0.375 q 0.0156,-1.01562 0.0312,-2.20312 0.0156,-1.1875 0.0156,-2.0625 v -1.25 q 0,-1.09375 -0.0156,-1.82813 -0.0156,-0.73437 -0.0625,-1.53125 l -2.14063,-0.25 v -0.92187 l 4.10936,-1.64063 0.40625,0.28125 -0.0781,3.625 v 3.51563 q 0,0.875 0,2.0625 0.0156,1.1875 0.0469,2.20312 l 1.875,0.375 v 0.95313 z m 3.14062,-15.9375 q -0.75,0 -1.26562,-0.48438 -0.51563,-0.48437 -0.51563,-1.21875 0,-0.78125 0.51563,-1.25 0.51562,-0.46875 1.26562,-0.46875 0.74999,0 1.26561,0.46875 0.51563,0.46875 0.51563,1.25 0,0.73438 -0.51563,1.21875 -0.51562,0.48438 -1.26561,0.48438 z m 4.92791,15.9375 v -0.95313 l 1.96875,-0.375 q 0.0312,-1.01562 0.0469,-2.1875 0.0156,-1.17187 0.0156,-2.07812 v -1.28125 q 0,-1.09375 -0.0156,-1.8125 -0.0156,-0.71875 -0.0625,-1.51563 l -2.10937,-0.25 v -0.92187 l 3.73437,-1.64063 0.39063,0.28125 0.21875,2.125 q 0.98437,-1.0625 2.26562,-1.73437 1.28125,-0.67188 2.5,-0.67188 1.73438,0 2.57813,1.17188 0.84375,1.15625 0.84375,3.76562 v 2.48438 q 0,0.90625 0.0156,2.07812 0.0156,1.17188 0.0312,2.1875 l 1.875,0.375 v 0.95313 h -6.1875 v -0.95313 l 1.96875,-0.375 q 0.0312,-0.98437 0.0469,-2.17187 0.0156,-1.1875 0.0156,-2.09375 v -2.26563 q 0,-1.84375 -0.53125,-2.53125 -0.51562,-0.70312 -1.6875,-0.70312 -0.90625,0 -1.76562,0.375 -0.84375,0.375 -1.85938,1.23437 v 3.89063 q 0,0.875 0.0156,2.0625 0.0156,1.1875 0.0312,2.20312 l 1.84375,0.375 v 0.95313 z"
       id="path29"
       inkscape:connector-curvature="0"
       style="fill:#000000;fill-rule:nonzero" />
    <path
       d="m 283.93927,283.24408 v -0.73438 h 4.28125 v 0.73438 l -1.5,0.23437 v 11.04688 h -0.625 l -7.10937,-9.6875 v 8.57812 l 1.875,0.25 v 0.73438 h -4.29688 v -0.73438 l 1.51563,-0.20312 v -9.85938 l -0.15625,-0.21875 -1.26563,-0.14062 v -0.73438 h 2.73438 l 6.42187,8.8125 v -7.84375 z"
       id="path31"
       inkscape:connector-curvature="0"
       style="fill:#000000;fill-rule:nonzero" />
    <path
       d="m 270.35733,207.43813 v 31.08661"
       id="path33"
       inkscape:connector-curvature="0"
       style="fill:#000000;fill-opacity:0;fill-rule:evenodd" />
    <path
       d="m 270.35733,207.43813 v 31.08661"
       id="path35"
       inkscape:connector-curvature="0"
       style="fill-rule:evenodd;stroke:#000000;stroke-width:2;stroke-linecap:butt;stroke-linejoin:round;stroke-dasharray:2, 6" />
    <path
       d="m 295.96332,115.12317 86.36221,51.37007"
       id="path37"
       inkscape:connector-curvature="0"
       style="fill:#000000;fill-opacity:0;fill-rule:evenodd" />
    <path
       d="m 295.96332,115.12316 76.04883,45.23545"
       id="path39"
       inkscape:connector-curvature="0"
       style="fill-rule:evenodd;stroke:#000000;stroke-width:2;stroke-linecap:butt;stroke-linejoin:round" />
    <path
       d="m 370.32333,163.19778 9.48935,1.80075 -6.11176,-7.47908 z"
       id="path41"
       inkscape:connector-curvature="0"
       style="fill:#000000;fill-rule:evenodd;stroke:#000000;stroke-width:2;stroke-linecap:butt" />
    <path
       d="m 405.03998,155.70604 h 339.9685 v 91.87401 h -339.9685 z"
       id="path43"
       inkscape:connector-curvature="0"
       style="fill:#f3f3f3;fill-rule:evenodd" />
    <path
       d="m 405.03998,155.70604 h 339.9685 v 91.87401 h -339.9685 z"
       id="path45"
       inkscape:connector-curvature="0"
       style="fill-rule:evenodd;stroke:#000000;stroke-width:2;stroke-linecap:butt;stroke-linejoin:round" />
    <path
       d="m 295.96332,171.16254 86.36221,16.44095"
       id="path47"
       inkscape:connector-curvature="0"
       style="fill:#000000;fill-opacity:0;fill-rule:evenodd" />
    <path
       d="m 295.96332,171.16254 74.57391,14.19679"
       id="path49"
       inkscape:connector-curvature="0"
       style="fill-rule:evenodd;stroke:#000000;stroke-width:2;stroke-linecap:butt;stroke-linejoin:round" />
    <path
       d="m 369.91946,188.6045 9.53384,-1.54781 -8.29824,-4.94255 z"
       id="path51"
       inkscape:connector-curvature="0"
       style="fill:#000000;fill-rule:evenodd;stroke:#000000;stroke-width:2;stroke-linecap:butt" />
    <path
       d="m 295.96332,274.80032 86.36221,-40.62991"
       id="path53"
       inkscape:connector-curvature="0"
       style="fill:#000000;fill-opacity:0;fill-rule:evenodd" />
    <path
       d="M 295.96332,274.80035 371.4672,239.27882"
       id="path55"
       inkscape:connector-curvature="0"
       style="fill-rule:evenodd;stroke:#000000;stroke-width:2;stroke-linecap:butt;stroke-linejoin:round" />
    <path
       d="m 372.87347,242.26802 6.80643,-6.85294 -9.61902,0.87458 z"
       id="path57"
       inkscape:connector-curvature="0"
       style="fill:#000000;fill-rule:evenodd;stroke:#000000;stroke-width:2;stroke-linecap:butt" />
    <path
       d="m 745.0085,201.64305 h 44.31494"
       id="path59"
       inkscape:connector-curvature="0"
       style="fill:#000000;fill-opacity:0;fill-rule:evenodd" />
    <path
       d="m 745.0084,201.64305 h 32.315"
       id="path61"
       inkscape:connector-curvature="0"
       style="fill-rule:evenodd;stroke:#000000;stroke-width:2;stroke-linecap:butt;stroke-linejoin:round" />
    <path
       d="m 777.3234,204.9465 9.07617,-3.30345 -9.07617,-3.30347 z"
       id="path63"
       inkscape:connector-curvature="0"
       style="fill:#000000;fill-rule:evenodd;stroke:#000000;stroke-width:2;stroke-linecap:butt" />
    <path
       d="m 789.3234,181.87401 h 57.79529 v 39.52757 H 789.3234 Z"
       id="path65"
       inkscape:connector-curvature="0"
       style="fill:#000000;fill-opacity:0;fill-rule:evenodd" />
    <path
       d="m 806.23224,211.58154 q -1.54687,0 -2.95312,-0.73438 -1.39063,-0.73437 -2.26563,-2.20312 -0.875,-1.48438 -0.875,-3.67188 0,-2.21875 0.875,-3.71875 0.875,-1.5 2.26563,-2.26562 1.40625,-0.76563 2.95312,-0.76563 1.54688,0 2.95313,0.76563 1.40625,0.76562 2.29687,2.26562 0.89063,1.5 0.89063,3.71875 0,2.1875 -0.89063,3.67188 -0.89062,1.46875 -2.29687,2.20312 -1.40625,0.73438 -2.95313,0.73438 z m 0,-1.20313 q 1.73438,0 2.67188,-1.35937 0.9375,-1.375 0.9375,-4.04688 0,-2.6875 -0.9375,-4.09375 -0.9375,-1.42187 -2.67188,-1.42187 -1.71875,0 -2.64062,1.42187 -0.92188,1.40625 -0.92188,4.09375 0,2.67188 0.92188,4.04688 0.92187,1.35937 2.64062,1.35937 z m 13.00824,1.20313 q -1.625,0 -2.5625,-1.07813 -0.92187,-1.07812 -0.89062,-3.71875 l 0.0781,-6.64062 -1.89062,-0.39063 v -0.96875 l 3.90625,-0.375 0.26562,0.26563 -0.125,3.73437 v 4.14063 q 0,1.73437 0.53125,2.4375 0.53125,0.70312 1.59375,0.70312 1.875,0 3.73438,-1.73437 l 0.0781,-7.82813 -1.89062,-0.375 v -0.96875 l 3.875,-0.375 0.26562,0.26563 -0.0781,3.73437 v 7.5 l 1.8125,0.375 v 0.95313 l -3.71875,0.21875 -0.26563,-2.375 q -1.0625,1.29687 -2.28125,1.90625 -1.20312,0.59375 -2.4375,0.59375 z m 15.07178,0 q -1.39063,0 -2.21875,-0.73438 -0.82813,-0.75 -0.82813,-2.29687 0,-0.51563 0.0156,-1 0.0156,-0.5 0.0156,-1.26563 v -6.29687 h -2.21875 v -1.17188 l 2.375,-0.29687 0.70313,-3.5625 h 1.59375 l -0.15625,3.625 h 3.59375 v 1.40625 h -3.625 v 8.26562 q 0,1.01563 0.39062,1.48438 0.40625,0.45312 1.07813,0.45312 0.45312,0 0.85937,-0.17187 0.42188,-0.1875 0.92188,-0.54688 l 0.64062,0.70313 q -1.09375,1.40625 -3.14062,1.40625 z"
       id="path67"
       inkscape:connector-curvature="0"
       style="fill:#000000;fill-rule:nonzero" />
    <path
       d="M 505.31287,201.64305 H 466.82468"
       id="path69"
       inkscape:connector-curvature="0"
       style="fill:#000000;fill-opacity:0;fill-rule:evenodd" />
    <path
       d="M 505.31287,201.64305 H 466.82468"
       id="path71"
       inkscape:connector-curvature="0"
       style="fill-rule:evenodd;stroke:#000000;stroke-width:2;stroke-linecap:butt;stroke-linejoin:round;stroke-dasharray:2, 6" />
    <path
       d="m 411.61472,162.47769 h 47.33859 v 78.3307 h -47.33859 z"
       id="path73"
       inkscape:connector-curvature="0"
       style="fill:#ffffff;fill-rule:evenodd" />
    <path
       d="m 411.61472,162.47769 h 47.33859 v 78.3307 h -47.33859 z"
       id="path75"
       inkscape:connector-curvature="0"
       style="fill-rule:evenodd;stroke:#000000;stroke-width:2;stroke-linecap:butt;stroke-linejoin:round" />
    <path
       d="m 420.0119,196.84428 v -0.76563 h 5.26563 v 0.76563 l -1.70313,0.20312 q -0.0312,1.1875 -0.0469,2.40625 0,1.20313 0,2.40625 v 0.92188 q 0,1.1875 0,2.39062 0.0156,1.20313 0.0469,2.42188 l 1.70313,0.20312 v 0.76563 h -5.26563 v -0.76563 l 1.70313,-0.20312 q 0.0469,-1.17188 0.0469,-2.39063 0,-1.21875 0,-2.42187 v -0.92188 q 0,-1.20312 0,-2.40625 0,-1.20312 -0.0469,-2.40625 z m 8.23563,7.32812 q 0,1.82813 0.73437,2.70313 0.75,0.85937 1.85938,0.85937 0.625,0 1.09375,-0.25 0.46875,-0.25 1,-0.82812 v -5.17188 q -0.64063,-0.54687 -1.14063,-0.75 -0.5,-0.21875 -0.96875,-0.21875 -0.6875,0 -1.28125,0.39063 -0.57812,0.375 -0.9375,1.1875 -0.35937,0.8125 -0.35937,2.07812 z m 4.875,4.57813 -0.14063,-1.28125 q -0.48437,0.625 -1.10937,0.98437 -0.625,0.35938 -1.5,0.35938 -1.14063,0 -2,-0.57813 -0.84375,-0.59375 -1.32813,-1.625 -0.46875,-1.03125 -0.46875,-2.39062 0,-1.4375 0.51563,-2.5 0.53125,-1.0625 1.42187,-1.65625 0.89063,-0.60938 2.03125,-0.60938 0.65625,0 1.25,0.26563 0.60938,0.26562 1.1875,0.95312 v -4.21875 l -1.57812,-0.1875 v -0.65625 l 2.90625,-0.82812 0.26562,0.14062 -0.0781,2.65625 v 10.09375 l 1.51562,0.21875 v 0.67188 z m 3.65622,-0.1875 v -0.67188 l 1.48437,-0.26562 q 0.0312,-0.76563 0.0312,-1.5 0.0156,-0.73438 0.0156,-1.48438 v -8.1875 l -1.53125,-0.1875 v -0.65625 l 2.90625,-0.82812 0.26562,0.14062 -0.0781,2.65625 v 7.0625 q 0,0.75 0,1.5 0.0156,0.75 0.0312,1.48438 l 1.5,0.26562 v 0.67188 z m 10.10644,-8.25 q -0.51562,0 -1.04687,0.29687 -0.53125,0.29688 -0.92188,0.95313 -0.375,0.65625 -0.48437,1.73437 h 3.39062 q 0.67188,0 0.875,-0.28125 0.21875,-0.28125 0.21875,-0.6875 0,-0.53125 -0.26562,-0.98437 -0.26563,-0.46875 -0.73438,-0.75 -0.45312,-0.28125 -1.03125,-0.28125 z m -0.0156,8.5 q -1.89063,0 -3.03125,-1.21875 -1.125,-1.23438 -1.125,-3.375 0,-1.4375 0.57812,-2.5 0.59375,-1.0625 1.5625,-1.65625 0.98438,-0.60938 2.14063,-0.60938 0.96875,0 1.75,0.4375 0.79687,0.42188 1.25,1.21875 0.46875,0.79688 0.46875,1.9375 0,0.3125 -0.0312,0.57813 -0.0312,0.26562 -0.0937,0.45312 h -5.95313 q 0.0469,1.71875 0.85938,2.625 0.82812,0.89063 2.17187,0.89063 0.89063,0 1.48438,-0.35938 0.59375,-0.375 1.10937,-0.95312 l 0.4375,0.35937 q -0.51562,0.98438 -1.42187,1.57813 -0.89063,0.59375 -2.15625,0.59375 z"
       id="path77"
       inkscape:connector-curvature="0"
       style="fill:#000000;fill-rule:nonzero" />
    <path
       d="m 657.31647,161.48032 h 80.315 v 78.3307 h -80.315 z"
       id="path79"
       inkscape:connector-curvature="0"
       style="fill:#f9cb9c;fill-rule:evenodd" />
    <path
       d="m 657.31647,161.48032 h 80.315 v 78.3307 h -80.315 z"
       id="path81"
       inkscape:connector-curvature="0"
       style="fill-rule:evenodd;stroke:#000000;stroke-width:2;stroke-linecap:butt;stroke-linejoin:round" />
    <path
       d="m 692.8156,184.94066 h -1.10937 q -0.0312,1.20312 -0.0469,2.4375 0,1.23437 0,2.48437 v 0.90625 h 1.23438 q 1.70312,0 2.42187,-0.82812 0.73438,-0.84375 0.73438,-2.14063 0,-1.35937 -0.78125,-2.10937 -0.76563,-0.75 -2.45313,-0.75 z m -4.67187,-0.0937 v -0.76563 h 5.01562 q 2.35938,0 3.54688,1.04688 1.1875,1.03125 1.1875,2.67187 0,1.04688 -0.53125,1.92188 -0.51563,0.875 -1.67188,1.40625 -1.14062,0.51562 -3.0625,0.51562 h -0.96875 q 0,1 0,1.96875 0.0156,0.96875 0.0469,1.98438 l 1.73437,0.20312 v 0.76563 h -5.29687 v -0.76563 l 1.70312,-0.20312 q 0.0469,-1.17188 0.0469,-2.39063 0,-1.21875 0,-2.42187 v -0.92188 q 0,-1.20312 0,-2.40625 0,-1.20312 -0.0469,-2.40625 z m 11.73858,0.5 3.84375,-0.98438 0.26563,0.1875 -0.0781,2.67188 v 5.40625 q 0,0.6875 0.0156,1.40625 0.0156,0.70312 0.0312,1.40625 l 2.64062,0.45312 v 0.67188 h -6.92187 v -0.67188 l 2.64062,-0.45312 q 0.0156,-0.70313 0.0156,-1.40625 0.0156,-0.71875 0.0156,-1.40625 v -6.71875 l -2.46875,0.20312 z"
       id="path83"
       inkscape:connector-curvature="0"
       style="fill:#000000;fill-rule:nonzero" />
    <path
       d="m 658.1188,202.27821 h 80.31494 v 39.52756 H 658.1188 Z"
       id="path85"
       inkscape:connector-curvature="0"
       style="fill:#000000;fill-opacity:0;fill-rule:evenodd" />
    <path
       d="m 666.9582,227.802 v -0.57813 l 1.26563,-0.21875 q 0.0156,-0.64062 0.0156,-1.28125 0.0156,-0.64062 0.0156,-1.28125 V 221.052 h -1.32813 v -0.70313 l 1.35938,-0.17187 q 0.10937,-1.28125 0.35937,-2.07813 0.25,-0.79687 0.84375,-1.39062 0.5,-0.5 1.0625,-0.6875 0.5625,-0.20313 1.10938,-0.20313 0.5625,0 0.98437,0.20313 0.4375,0.20312 0.54688,0.65625 -0.0156,0.3125 -0.28125,0.51562 -0.25,0.20313 -0.6875,0.20313 -0.57813,0 -1.15625,-0.46875 l -0.45313,-0.35938 q -0.0625,0.0469 -0.125,0.0937 -0.0469,0.0469 -0.0937,0.0937 -0.42187,0.42188 -0.64062,1.26563 -0.20313,0.84375 -0.17188,2.1875 h 2.20313 v 0.84375 h -2.17188 v 3.39062 q 0,0.64063 0,1.28125 0.0156,0.625 0.0312,1.26563 l 1.4375,0.23437 v 0.57813 z m 5.75781,0 v -0.57813 l 1.15625,-0.20312 q 0.0156,-0.60938 0.0156,-1.3125 0.0156,-0.71875 0.0156,-1.26563 V 223.677 q 0,-0.65625 -0.0156,-1.07813 0,-0.4375 -0.0312,-0.92187 l -1.26563,-0.14063 v -0.5625 l 2.23438,-0.98437 0.25,0.17187 0.17187,1.875 q 0.39063,-0.95312 1.01563,-1.5 0.64062,-0.54687 1.28125,-0.54687 0.375,0 0.6875,0.17187 0.32812,0.15625 0.46875,0.42188 0,1.17187 -0.9375,1.17187 -0.28125,0 -0.53125,-0.0937 -0.23438,-0.10937 -0.45313,-0.3125 l -0.1875,-0.17187 q -0.48437,0.35937 -0.8125,0.875 -0.3125,0.5 -0.51562,1.1875 v 1.20312 q 0,0.53125 0,1.23438 0.0156,0.70312 0.0312,1.3125 l 1.3125,0.23437 v 0.57813 z m 10.32672,0.20312 q -0.9375,0 -1.78125,-0.4375 -0.82812,-0.4375 -1.35937,-1.32812 -0.53125,-0.89063 -0.53125,-2.20313 0,-1.32812 0.53125,-2.21875 0.53125,-0.90625 1.35937,-1.35937 0.84375,-0.46875 1.78125,-0.46875 0.92188,0 1.75,0.46875 0.84375,0.45312 1.375,1.35937 0.54688,0.89063 0.54688,2.21875 0,1.3125 -0.54688,2.20313 -0.53125,0.89062 -1.375,1.32812 -0.82812,0.4375 -1.75,0.4375 z m 0,-0.71875 q 1.03125,0 1.59375,-0.8125 0.5625,-0.82812 0.5625,-2.4375 0,-1.60937 -0.5625,-2.45312 -0.5625,-0.85938 -1.59375,-0.85938 -1.04687,0 -1.60937,0.85938 -0.54688,0.84375 -0.54688,2.45312 0,1.60938 0.54688,2.4375 0.5625,0.8125 1.60937,0.8125 z m 5.03406,0.51563 v -0.57813 l 1.1875,-0.21875 q 0.0156,-0.60937 0.0156,-1.3125 0.0156,-0.70312 0.0156,-1.25 V 223.677 q 0,-0.65625 -0.0156,-1.07813 0,-0.4375 -0.0312,-0.92187 l -1.26563,-0.14063 v -0.5625 l 2.23438,-0.98437 0.25,0.17187 0.125,1.28125 q 0.5625,-0.625 1.3125,-1.03125 0.75,-0.42187 1.48437,-0.42187 0.75,0 1.21875,0.35937 0.46875,0.34375 0.6875,1.15625 0.60938,-0.76562 1.35938,-1.14062 0.75,-0.375 1.53125,-0.375 0.98437,0 1.51562,0.65625 0.53125,0.65625 0.53125,2.14062 v 1.65625 q 0,0.54688 0,1.25 0.0156,0.70313 0.0312,1.3125 l 1.125,0.21875 v 0.57813 h -3.71875 v -0.57813 l 1.1875,-0.21875 q 0.0156,-0.59375 0.0156,-1.29687 0.0156,-0.71875 0.0156,-1.26563 V 223.052 q 0,-1.125 -0.32812,-1.51563 -0.3125,-0.39062 -1.01563,-0.39062 -0.5,0 -1.01562,0.23437 -0.51563,0.21875 -1.125,0.78125 0.0156,0.17188 0.0156,0.375 0.0156,0.1875 0.0156,0.42188 v 1.48437 q 0,0.54688 0,1.25 0.0156,0.70313 0.0312,1.3125 l 1.125,0.21875 v 0.57813 h -3.71875 v -0.57813 l 1.1875,-0.21875 q 0.0156,-0.59375 0.0156,-1.29687 0.0156,-0.71875 0.0156,-1.26563 v -1.35937 q 0,-1.09375 -0.3125,-1.51563 -0.29688,-0.42187 -1,-0.42187 -0.54688,0 -1.04688,0.23437 -0.48437,0.21875 -1.07812,0.71875 v 2.34375 q 0,0.53125 0,1.25 0.0156,0.70313 0.0312,1.3125 l 1.10937,0.21875 v 0.57813 z m 16.18164,-5.60938 q -0.48437,0 -0.8125,-0.32812 -0.32812,-0.34375 -0.32812,-0.79688 0,-0.48437 0.32812,-0.8125 0.32813,-0.34375 0.8125,-0.34375 0.46875,0 0.79688,0.34375 0.32812,0.32813 0.32812,0.8125 0,0.45313 -0.32812,0.79688 -0.32813,0.32812 -0.79688,0.32812 z m 0,5.8125 q -0.48437,0 -0.8125,-0.32812 -0.32812,-0.34375 -0.32812,-0.79688 0,-0.48437 0.32812,-0.8125 0.32813,-0.34375 0.8125,-0.34375 0.46875,0 0.79688,0.34375 0.32812,0.32813 0.32812,0.8125 0,0.45313 -0.32812,0.79688 -0.32813,0.32812 -0.79688,0.32812 z m 6.68427,-0.20312 v -0.57813 l 1.20312,-0.21875 q 0.0156,-0.60937 0.0156,-1.3125 0.0156,-0.71875 0.0156,-1.25 v -0.75 q 0,-0.65625 -0.0156,-1.09375 0,-0.4375 -0.0312,-0.92187 l -1.28125,-0.14063 v -0.5625 l 2.45312,-0.98437 0.25,0.17187 -0.0469,2.17188 v 2.10937 q 0,0.53125 0,1.25 0.0156,0.70313 0.0312,1.3125 l 1.10937,0.21875 v 0.57813 z m 1.89062,-9.5625 q -0.45312,0 -0.76562,-0.28125 -0.3125,-0.29688 -0.3125,-0.75 0,-0.46875 0.3125,-0.73438 0.3125,-0.28125 0.76562,-0.28125 0.4375,0 0.75,0.28125 0.3125,0.26563 0.3125,0.73438 0,0.45312 -0.3125,0.75 -0.3125,0.28125 -0.75,0.28125 z m 2.95551,9.5625 v -0.57813 l 1.1875,-0.21875 q 0.0156,-0.60937 0.0156,-1.3125 0.0156,-0.70312 0.0156,-1.25 V 223.677 q 0,-0.65625 -0.0156,-1.07813 0,-0.4375 -0.0312,-0.92187 l -1.26562,-0.14063 v -0.5625 l 2.23437,-0.98437 0.25,0.17187 0.125,1.26563 q 0.59375,-0.64063 1.35938,-1.03125 0.76562,-0.40625 1.5,-0.40625 1.04687,0 1.54687,0.70312 0.5,0.6875 0.5,2.26563 v 1.48437 q 0,0.54688 0,1.25 0.0156,0.70313 0.0312,1.3125 l 1.125,0.21875 v 0.57813 h -3.71875 v -0.57813 l 1.1875,-0.21875 q 0.0156,-0.59375 0.0156,-1.29687 0.0156,-0.71875 0.0156,-1.26563 v -1.35937 q 0,-1.10938 -0.3125,-1.51563 -0.3125,-0.42187 -1.01562,-0.42187 -0.54688,0 -1.0625,0.23437 -0.5,0.21875 -1.10938,0.71875 v 2.34375 q 0,0.53125 0,1.25 0.0156,0.70313 0.0312,1.3125 l 1.10938,0.21875 v 0.57813 z"
       id="path87"
       inkscape:connector-curvature="0"
       style="fill:#000000;fill-rule:nonzero" />
    <path
       d="m 725.7505,227.39575 2.1875,-0.5625 0.15625,0.10937 -0.0469,1.51563 v 3.09375 q 0,0.39062 0,0.79687 0.0156,0.40625 0.0312,0.8125 l 1.5,0.25 v 0.39063 h -3.95312 v -0.39063 l 1.51562,-0.25 q 0,-0.40625 0,-0.8125 0.0156,-0.40625 0.0156,-0.79687 v -3.82813 l -1.40625,0.10938 z"
       id="path89"
       inkscape:connector-curvature="0"
       style="fill:#000000;fill-rule:nonzero" />
    <path
       d="m 569.9794,161.48032 h 80.31494 v 78.3307 H 569.9794 Z"
       id="path91"
       inkscape:connector-curvature="0"
       style="fill:#f9cb9c;fill-rule:evenodd" />
    <path
       d="m 569.9794,161.48032 h 80.31494 v 78.3307 H 569.9794 Z"
       id="path93"
       inkscape:connector-curvature="0"
       style="fill-rule:evenodd;stroke:#000000;stroke-width:2;stroke-linecap:butt;stroke-linejoin:round" />
    <path
       d="m 605.4785,184.94066 h -1.10937 q -0.0312,1.20312 -0.0469,2.4375 0,1.23437 0,2.48437 v 0.90625 h 1.23438 q 1.70312,0 2.42187,-0.82812 0.73438,-0.84375 0.73438,-2.14063 0,-1.35937 -0.78125,-2.10937 -0.76563,-0.75 -2.45313,-0.75 z m -4.67187,-0.0937 v -0.76563 h 5.01562 q 2.35938,0 3.54688,1.04688 1.1875,1.03125 1.1875,2.67187 0,1.04688 -0.53125,1.92188 -0.51563,0.875 -1.67188,1.40625 -1.14062,0.51562 -3.0625,0.51562 h -0.96875 q 0,1 0,1.96875 0.0156,0.96875 0.0469,1.98438 l 1.73437,0.20312 v 0.76563 h -5.29687 v -0.76563 l 1.70312,-0.20312 q 0.0469,-1.17188 0.0469,-2.39063 0,-1.21875 0,-2.42187 v -0.92188 q 0,-1.20312 0,-2.40625 0,-1.20312 -0.0469,-2.40625 z m 11.08227,11.71875 v -1.21875 q 0.75,-0.71875 1.4375,-1.4375 0.70313,-0.71875 1.29688,-1.35938 1.40625,-1.46875 2.0625,-2.65625 0.65625,-1.20312 0.65625,-2.28125 0,-1.15625 -0.60938,-1.82812 -0.60937,-0.67188 -1.64062,-0.67188 -0.1875,0 -0.42188,0.0156 -0.23437,0.0156 -0.48437,0.0781 l -0.35938,1.28125 q -0.1875,0.6875 -0.4375,0.98438 -0.25,0.28125 -0.64062,0.28125 -0.625,0 -0.95313,-0.59375 0.10938,-0.98438 0.64063,-1.625 0.54687,-0.64063 1.35937,-0.95313 0.82813,-0.3125 1.76563,-0.3125 1.8125,0 2.625,0.89063 0.82812,0.89062 0.82812,2.28125 0,0.82812 -0.32812,1.60937 -0.32813,0.76563 -1.14063,1.73438 -0.79687,0.95312 -2.21875,2.32812 -0.375,0.375 -0.90625,0.875 -0.53125,0.5 -1.10937,1.04688 h 6.25 v 1.53125 z"
       id="path95"
       inkscape:connector-curvature="0"
       style="fill:#000000;fill-rule:nonzero" />
    <path
       d="m 569.97546,202.27821 h 80.31494 v 39.52756 h -80.31494 z"
       id="path97"
       inkscape:connector-curvature="0"
       style="fill:#000000;fill-opacity:0;fill-rule:evenodd" />
    <path
       d="m 577.5628,227.802 v -0.57813 l 1.26563,-0.21875 q 0.0156,-0.64062 0.0156,-1.28125 0.0156,-0.64062 0.0156,-1.28125 V 221.052 h -1.32813 v -0.70313 l 1.35938,-0.17187 q 0.10937,-1.28125 0.35937,-2.07813 0.25,-0.79687 0.84375,-1.39062 0.5,-0.5 1.0625,-0.6875 0.5625,-0.20313 1.10938,-0.20313 0.5625,0 0.98437,0.20313 0.4375,0.20312 0.54688,0.65625 -0.0156,0.3125 -0.28125,0.51562 -0.25,0.20313 -0.6875,0.20313 -0.57813,0 -1.15625,-0.46875 l -0.45313,-0.35938 q -0.0625,0.0469 -0.125,0.0937 -0.0469,0.0469 -0.0937,0.0937 -0.42187,0.42188 -0.64062,1.26563 -0.20313,0.84375 -0.17188,2.1875 h 2.20313 v 0.84375 h -2.17188 v 3.39062 q 0,0.64063 0,1.28125 0.0156,0.625 0.0312,1.26563 l 1.4375,0.23437 v 0.57813 z m 5.75775,0 v -0.57813 l 1.15625,-0.20312 q 0.0156,-0.60938 0.0156,-1.3125 0.0156,-0.71875 0.0156,-1.26563 V 223.677 q 0,-0.65625 -0.0156,-1.07813 0,-0.4375 -0.0312,-0.92187 l -1.26563,-0.14063 v -0.5625 l 2.23438,-0.98437 0.25,0.17187 0.17187,1.875 q 0.39063,-0.95312 1.01563,-1.5 0.64062,-0.54687 1.28125,-0.54687 0.375,0 0.6875,0.17187 0.32812,0.15625 0.46875,0.42188 0,1.17187 -0.9375,1.17187 -0.28125,0 -0.53125,-0.0937 -0.23438,-0.10937 -0.45313,-0.3125 l -0.1875,-0.17187 q -0.48437,0.35937 -0.8125,0.875 -0.3125,0.5 -0.51562,1.1875 v 1.20312 q 0,0.53125 0,1.23438 0.0156,0.70312 0.0312,1.3125 l 1.3125,0.23437 v 0.57813 z m 10.32678,0.20312 q -0.9375,0 -1.78125,-0.4375 -0.82812,-0.4375 -1.35937,-1.32812 -0.53125,-0.89063 -0.53125,-2.20313 0,-1.32812 0.53125,-2.21875 0.53125,-0.90625 1.35937,-1.35937 0.84375,-0.46875 1.78125,-0.46875 0.92188,0 1.75,0.46875 0.84375,0.45312 1.375,1.35937 0.54688,0.89063 0.54688,2.21875 0,1.3125 -0.54688,2.20313 -0.53125,0.89062 -1.375,1.32812 -0.82812,0.4375 -1.75,0.4375 z m 0,-0.71875 q 1.03125,0 1.59375,-0.8125 0.5625,-0.82812 0.5625,-2.4375 0,-1.60937 -0.5625,-2.45312 -0.5625,-0.85938 -1.59375,-0.85938 -1.04687,0 -1.60937,0.85938 -0.54688,0.84375 -0.54688,2.45312 0,1.60938 0.54688,2.4375 0.5625,0.8125 1.60937,0.8125 z m 5.034,0.51563 v -0.57813 l 1.1875,-0.21875 q 0.0156,-0.60937 0.0156,-1.3125 0.0156,-0.70312 0.0156,-1.25 V 223.677 q 0,-0.65625 -0.0156,-1.07813 0,-0.4375 -0.0312,-0.92187 l -1.26563,-0.14063 v -0.5625 l 2.23438,-0.98437 0.25,0.17187 0.125,1.28125 q 0.5625,-0.625 1.3125,-1.03125 0.75,-0.42187 1.48437,-0.42187 0.75,0 1.21875,0.35937 0.46875,0.34375 0.6875,1.15625 0.60938,-0.76562 1.35938,-1.14062 0.75,-0.375 1.53125,-0.375 0.98437,0 1.51562,0.65625 0.53125,0.65625 0.53125,2.14062 v 1.65625 q 0,0.54688 0,1.25 0.0156,0.70313 0.0312,1.3125 l 1.125,0.21875 v 0.57813 h -3.71875 v -0.57813 l 1.1875,-0.21875 q 0.0156,-0.59375 0.0156,-1.29687 0.0156,-0.71875 0.0156,-1.26563 V 223.052 q 0,-1.125 -0.32812,-1.51563 -0.3125,-0.39062 -1.01563,-0.39062 -0.5,0 -1.01562,0.23437 -0.51563,0.21875 -1.125,0.78125 0.0156,0.17188 0.0156,0.375 0.0156,0.1875 0.0156,0.42188 v 1.48437 q 0,0.54688 0,1.25 0.0156,0.70313 0.0312,1.3125 l 1.125,0.21875 v 0.57813 h -3.71875 v -0.57813 l 1.1875,-0.21875 q 0.0156,-0.59375 0.0156,-1.29687 0.0156,-0.71875 0.0156,-1.26563 v -1.35937 q 0,-1.09375 -0.3125,-1.51563 -0.29688,-0.42187 -1,-0.42187 -0.54688,0 -1.04688,0.23437 -0.48437,0.21875 -1.07812,0.71875 v 2.34375 q 0,0.53125 0,1.25 0.0156,0.70313 0.0312,1.3125 l 1.10937,0.21875 v 0.57813 z m 16.18164,-5.60938 q -0.48437,0 -0.8125,-0.32812 -0.32812,-0.34375 -0.32812,-0.79688 0,-0.48437 0.32812,-0.8125 0.32813,-0.34375 0.8125,-0.34375 0.46875,0 0.79688,0.34375 0.32812,0.32813 0.32812,0.8125 0,0.45313 -0.32812,0.79688 -0.32813,0.32812 -0.79688,0.32812 z m 0,5.8125 q -0.48437,0 -0.8125,-0.32812 -0.32812,-0.34375 -0.32812,-0.79688 0,-0.48437 0.32812,-0.8125 0.32813,-0.34375 0.8125,-0.34375 0.46875,0 0.79688,0.34375 0.32812,0.32813 0.32812,0.8125 0,0.45313 -0.32812,0.79688 -0.32813,0.32812 -0.79688,0.32812 z m 6.68427,-0.20312 v -0.57813 l 1.20312,-0.21875 q 0.0156,-0.60937 0.0156,-1.3125 0.0156,-0.71875 0.0156,-1.25 v -0.75 q 0,-0.65625 -0.0156,-1.09375 0,-0.4375 -0.0312,-0.92187 l -1.28125,-0.14063 v -0.5625 l 2.45312,-0.98437 0.25,0.17187 -0.0469,2.17188 v 2.10937 q 0,0.53125 0,1.25 0.0156,0.70313 0.0312,1.3125 l 1.10937,0.21875 v 0.57813 z m 1.89062,-9.5625 q -0.45312,0 -0.76562,-0.28125 -0.3125,-0.29688 -0.3125,-0.75 0,-0.46875 0.3125,-0.73438 0.3125,-0.28125 0.76562,-0.28125 0.4375,0 0.75,0.28125 0.3125,0.26563 0.3125,0.73438 0,0.45312 -0.3125,0.75 -0.3125,0.28125 -0.75,0.28125 z m 2.95551,9.5625 v -0.57813 l 1.1875,-0.21875 q 0.0156,-0.60937 0.0156,-1.3125 0.0156,-0.70312 0.0156,-1.25 V 223.677 q 0,-0.65625 -0.0156,-1.07813 0,-0.4375 -0.0312,-0.92187 l -1.26562,-0.14063 v -0.5625 l 2.23437,-0.98437 0.25,0.17187 0.125,1.26563 q 0.59375,-0.64063 1.35938,-1.03125 0.76562,-0.40625 1.5,-0.40625 1.04687,0 1.54687,0.70312 0.5,0.6875 0.5,2.26563 v 1.48437 q 0,0.54688 0,1.25 0.0156,0.70313 0.0312,1.3125 l 1.125,0.21875 v 0.57813 h -3.71875 v -0.57813 l 1.1875,-0.21875 q 0.0156,-0.59375 0.0156,-1.29687 0.0156,-0.71875 0.0156,-1.26563 v -1.35937 q 0,-1.10938 -0.3125,-1.51563 -0.3125,-0.42187 -1.01562,-0.42187 -0.54688,0 -1.0625,0.23437 -0.5,0.21875 -1.10938,0.71875 v 2.34375 q 0,0.53125 0,1.25 0.0156,0.70313 0.0312,1.3125 l 1.10938,0.21875 v 0.57813 z"
       id="path99"
       inkscape:connector-curvature="0"
       style="fill:#000000;fill-rule:nonzero" />
    <path
       d="m 640.29254,227.1145 v -0.4375 h 2.5625 v 0.4375 l -0.90625,0.14062 v 6.625 h -0.375 l -4.26562,-5.8125 v 5.14063 l 1.14062,0.15625 v 0.4375 h -2.57812 v -0.4375 l 0.90625,-0.125 v -5.92188 l -0.10938,-0.125 -0.75,-0.0781 v -0.4375 h 1.64063 l 3.84375,5.28125 v -4.70313 z"
       id="path101"
       inkscape:connector-curvature="0"
       style="fill:#000000;fill-rule:nonzero" />
    <path
       d="m 515.61475,162.47769 h 47.33856 v 78.3307 h -47.33856 z"
       id="path103"
       inkscape:connector-curvature="0"
       style="fill:#ffffff;fill-rule:evenodd" />
    <path
       d="m 515.61475,162.47769 h 47.33856 v 78.3307 h -47.33856 z"
       id="path105"
       inkscape:connector-curvature="0"
       style="fill-rule:evenodd;stroke:#000000;stroke-width:2;stroke-linecap:butt;stroke-linejoin:round" />
    <path
       d="m 524.0119,196.84428 v -0.76563 h 5.26562 v 0.76563 l -1.70312,0.20312 q -0.0312,1.1875 -0.0469,2.40625 0,1.20313 0,2.40625 v 0.92188 q 0,1.1875 0,2.39062 0.0156,1.20313 0.0469,2.42188 l 1.70312,0.20312 v 0.76563 h -5.26562 v -0.76563 l 1.70312,-0.20312 q 0.0469,-1.17188 0.0469,-2.39063 0,-1.21875 0,-2.42187 v -0.92188 q 0,-1.20312 0,-2.40625 0,-1.20312 -0.0469,-2.40625 z m 8.2356,7.32812 q 0,1.82813 0.73437,2.70313 0.75,0.85937 1.85938,0.85937 0.625,0 1.09375,-0.25 0.46875,-0.25 1,-0.82812 v -5.17188 q -0.64063,-0.54687 -1.14063,-0.75 -0.5,-0.21875 -0.96875,-0.21875 -0.6875,0 -1.28125,0.39063 -0.57812,0.375 -0.9375,1.1875 -0.35937,0.8125 -0.35937,2.07812 z m 4.875,4.57813 -0.14063,-1.28125 q -0.48437,0.625 -1.10937,0.98437 -0.625,0.35938 -1.5,0.35938 -1.14063,0 -2,-0.57813 -0.84375,-0.59375 -1.32813,-1.625 -0.46875,-1.03125 -0.46875,-2.39062 0,-1.4375 0.51563,-2.5 0.53125,-1.0625 1.42187,-1.65625 0.89063,-0.60938 2.03125,-0.60938 0.65625,0 1.25,0.26563 0.60938,0.26562 1.1875,0.95312 v -4.21875 l -1.57812,-0.1875 v -0.65625 l 2.90625,-0.82812 0.26562,0.14062 -0.0781,2.65625 v 10.09375 l 1.51562,0.21875 v 0.67188 z m 3.65625,-0.1875 v -0.67188 l 1.48437,-0.26562 q 0.0312,-0.76563 0.0312,-1.5 0.0156,-0.73438 0.0156,-1.48438 v -8.1875 l -1.53125,-0.1875 v -0.65625 l 2.90625,-0.82812 0.26562,0.14062 -0.0781,2.65625 v 7.0625 q 0,0.75 0,1.5 0.0156,0.75 0.0312,1.48438 l 1.5,0.26562 v 0.67188 z m 10.10644,-8.25 q -0.51562,0 -1.04687,0.29687 -0.53125,0.29688 -0.92188,0.95313 -0.375,0.65625 -0.48437,1.73437 h 3.39062 q 0.67188,0 0.875,-0.28125 0.21875,-0.28125 0.21875,-0.6875 0,-0.53125 -0.26562,-0.98437 -0.26563,-0.46875 -0.73438,-0.75 -0.45312,-0.28125 -1.03125,-0.28125 z m -0.0156,8.5 q -1.89063,0 -3.03125,-1.21875 -1.125,-1.23438 -1.125,-3.375 0,-1.4375 0.57812,-2.5 0.59375,-1.0625 1.5625,-1.65625 0.98438,-0.60938 2.14063,-0.60938 0.96875,0 1.75,0.4375 0.79687,0.42188 1.25,1.21875 0.46875,0.79688 0.46875,1.9375 0,0.3125 -0.0312,0.57813 -0.0312,0.26562 -0.0937,0.45312 h -5.95313 q 0.0469,1.71875 0.85938,2.625 0.82812,0.89063 2.17187,0.89063 0.89063,0 1.48438,-0.35938 0.59375,-0.375 1.10937,-0.95312 l 0.4375,0.35937 q -0.51562,0.98438 -1.42187,1.57813 -0.89063,0.59375 -2.15625,0.59375 z"
       id="path107"
       inkscape:connector-curvature="0"
       style="fill:#000000;fill-rule:nonzero" />
    <path
       d="m 516.0603,111.39996 h 117.9212 v 39.52755 H 516.0603 Z"
       id="path109"
       inkscape:connector-curvature="0"
       style="fill:#000000;fill-opacity:0;fill-rule:evenodd" />
    <path
       d="m 546.65784,124.02936 v -1.09375 h 13.28125 l 0.1875,4.71875 h -1.53125 l -0.57813,-3.39063 h -6.26562 q -0.0312,1.70313 -0.0469,3.42188 -0.0156,1.70312 -0.0156,3.34375 h 4.14062 l 0.375,-2.53125 h 1.21875 v 6.5625 h -1.21875 l -0.375,-2.78125 h -4.14062 q 0,1.98437 0.0156,3.71875 0.0156,1.73437 0.0469,3.375 l 2.48437,0.29687 v 1.09375 h -7.57812 v -1.09375 l 2.45312,-0.29687 q 0.0469,-1.67188 0.0469,-3.40625 0,-1.73438 0,-3.46875 v -1.29688 q 0,-1.73437 0,-3.45312 0,-1.71875 -0.0469,-3.4375 z m 15.1673,0 v -1.09375 h 7.54687 v 1.09375 l -2.45312,0.28125 q -0.0312,1.6875 -0.0469,3.42187 -0.0156,1.73438 -0.0156,3.46875 v 1.29688 q 0,1.70312 0.0156,3.42187 0.0156,1.71875 0.0469,3.45313 l 2.45312,0.29687 v 1.09375 h -7.54687 v -1.09375 l 2.45312,-0.29687 q 0.0469,-1.67188 0.0469,-3.40625 0,-1.73438 0,-3.46875 v -1.29688 q 0,-1.73437 0,-3.45312 0,-1.71875 -0.0469,-3.4375 z m 9.8894,0 v -1.09375 h 13.28125 l 0.1875,4.71875 h -1.53125 l -0.57812,-3.39063 h -6.26563 q -0.0312,1.70313 -0.0469,3.42188 -0.0156,1.70312 -0.0156,3.34375 h 4.14063 l 0.375,-2.53125 h 1.21875 v 6.5625 h -1.21875 l -0.375,-2.78125 h -4.14063 q 0,1.98437 0.0156,3.71875 0.0156,1.73437 0.0469,3.375 l 2.48438,0.29687 v 1.09375 h -7.57813 v -1.09375 l 2.45313,-0.29687 q 0.0469,-1.67188 0.0469,-3.40625 0,-1.73438 0,-3.46875 v -1.29688 q 0,-1.73437 0,-3.45312 0,-1.71875 -0.0469,-3.4375 z m 23.43286,17.14062 q -1.54687,0 -3.01562,-0.59375 -1.46875,-0.60937 -2.64063,-1.78125 -1.17187,-1.17187 -1.85937,-2.92187 -0.67188,-1.75 -0.67188,-4.04688 0,-2.17187 0.6875,-3.90625 0.70313,-1.73437 1.85938,-2.9375 1.15625,-1.20312 2.625,-1.82812 1.46875,-0.625 3.01562,-0.625 1.54688,0 3,0.60937 1.45313,0.59375 2.60938,1.76563 1.15625,1.17187 1.84375,2.90625 0.70312,1.73437 0.70312,4.01562 0,2.1875 -0.6875,3.92188 -0.67187,1.73437 -1.82812,2.95312 -1.15625,1.20313 -2.625,1.84375 -1.46875,0.625 -3.01563,0.625 z m 0,-1.34375 q 1.39063,0 2.39063,-0.67187 1,-0.6875 1.625,-1.8125 0.625,-1.14063 0.90625,-2.5625 0.29687,-1.42188 0.29687,-2.95313 0,-1.48437 -0.29687,-2.90625 -0.28125,-1.4375 -0.90625,-2.57812 -0.625,-1.14063 -1.625,-1.8125 -1,-0.67188 -2.39063,-0.67188 -1.39062,0 -2.39062,0.67188 -1,0.67187 -1.64063,1.8125 -0.64062,1.14062 -0.95312,2.57812 -0.29688,1.42188 -0.29688,2.90625 0,1.53125 0.29688,2.95313 0.3125,1.42187 0.95312,2.5625 0.64063,1.125 1.64063,1.8125 1,0.67187 2.39062,0.67187 z"
       id="path111"
       inkscape:connector-curvature="0"
       style="fill:#000000;fill-rule:nonzero" />
    <path
       d="m 382.33603,234.18442 v 0 c 0,-4.60092 3.73682,-8.33072 8.34644,-8.33072 v 0 c 2.21362,0 4.33657,0.8777 5.90185,2.44002 1.56525,1.5623 2.44461,3.68126 2.44461,5.8907 v 0 c 0,4.60092 -3.73684,8.3307 -8.34646,8.3307 v 0 c -4.60962,0 -8.34644,-3.72978 -8.34644,-8.3307 z"
       id="path113"
       inkscape:connector-curvature="0"
       style="fill:#dd7e6b;fill-rule:evenodd" />
    <path
       d="m 382.33603,234.18442 v 0 c 0,-4.60092 3.73682,-8.33072 8.34644,-8.33072 v 0 c 2.21362,0 4.33657,0.8777 5.90185,2.44002 1.56525,1.5623 2.44461,3.68126 2.44461,5.8907 v 0 c 0,4.60092 -3.73684,8.3307 -8.34646,8.3307 v 0 c -4.60962,0 -8.34644,-3.72978 -8.34644,-8.3307 z"
       id="path115"
       inkscape:connector-curvature="0"
       style="fill-rule:evenodd;stroke:#000000;stroke-width:2;stroke-linecap:butt;stroke-linejoin:round" />
    <path
       d="m 382.33603,187.59787 v 0 c 0,-4.60092 3.73682,-8.33072 8.34644,-8.33072 v 0 c 2.21362,0 4.33657,0.8777 5.90185,2.44002 1.56525,1.5623 2.44461,3.68126 2.44461,5.8907 v 0 c 0,4.60092 -3.73684,8.3307 -8.34646,8.3307 v 0 c -4.60962,0 -8.34644,-3.72978 -8.34644,-8.3307 z"
       id="path117"
       inkscape:connector-curvature="0"
       style="fill:#d9ead3;fill-rule:evenodd" />
    <path
       d="m 382.33603,187.59787 v 0 c 0,-4.60092 3.73682,-8.33072 8.34644,-8.33072 v 0 c 2.21362,0 4.33657,0.8777 5.90185,2.44002 1.56525,1.5623 2.44461,3.68126 2.44461,5.8907 v 0 c 0,4.60092 -3.73684,8.3307 -8.34646,8.3307 v 0 c -4.60962,0 -8.34644,-3.72978 -8.34644,-8.3307 z"
       id="path119"
       inkscape:connector-curvature="0"
       style="fill-rule:evenodd;stroke:#000000;stroke-width:2;stroke-linecap:butt;stroke-linejoin:round" />
    <path
       d="m 382.33603,166.50531 v 0 c 0,-4.60092 3.73682,-8.3307 8.34644,-8.3307 v 0 c 2.21362,0 4.33657,0.8777 5.90185,2.44001 1.56525,1.56231 2.44461,3.68126 2.44461,5.89069 v 0 c 0,4.60094 -3.73684,8.33072 -8.34646,8.33072 v 0 c -4.60962,0 -8.34644,-3.72978 -8.34644,-8.33072 z"
       id="path121"
       inkscape:connector-curvature="0"
       style="fill:#dd7e6b;fill-rule:evenodd" />
    <path
       d="m 382.33603,166.50531 v 0 c 0,-4.60092 3.73682,-8.3307 8.34644,-8.3307 v 0 c 2.21362,0 4.33657,0.8777 5.90185,2.44001 1.56525,1.56231 2.44461,3.68126 2.44461,5.89069 v 0 c 0,4.60094 -3.73684,8.33072 -8.34646,8.33072 v 0 c -4.60962,0 -8.34644,-3.72978 -8.34644,-8.33072 z"
       id="path123"
       inkscape:connector-curvature="0"
       style="fill-rule:evenodd;stroke:#000000;stroke-width:2;stroke-linecap:butt;stroke-linejoin:round" />
    <path
       d="m 738.6063,253.6483 v 0 c 0,1.05669 -0.4198,2.0701 -1.16699,2.81728 -0.74719,0.74719 -1.76062,1.16696 -2.81726,1.16696 H 579.88188 c -2.20044,0 -3.98426,1.78381 -3.98426,3.98425 v 0 c 0,-2.20044 -1.78381,-3.98425 -3.98425,-3.98425 H 417.1732 c -2.20044,0 -3.98425,-1.7838 -3.98425,-3.98424 z"
       id="path125"
       inkscape:connector-curvature="0"
       style="fill:#000000;fill-opacity:0;fill-rule:evenodd" />
    <path
       d="m 738.6063,253.6483 v 0 c 0,1.05669 -0.4198,2.0701 -1.16699,2.81728 -0.74719,0.74719 -1.76062,1.16696 -2.81726,1.16696 H 579.88188 c -2.20044,0 -3.98426,1.78381 -3.98426,3.98425 v 0 c 0,-2.20044 -1.78381,-3.98425 -3.98425,-3.98425 H 417.1732 c -2.20044,0 -3.98425,-1.7838 -3.98425,-3.98424"
       id="path127"
       inkscape:connector-curvature="0"
       style="fill:#000000;fill-opacity:0;fill-rule:evenodd" />
    <path
       d="m 738.6063,253.6483 v 0 c 0,1.05669 -0.4198,2.0701 -1.16699,2.81728 -0.74719,0.74719 -1.76062,1.16696 -2.81726,1.16696 H 579.88188 c -2.20044,0 -3.98426,1.78381 -3.98426,3.98425 v 0 c 0,-2.20044 -1.78381,-3.98425 -3.98425,-3.98425 H 417.1732 c -2.20044,0 -3.98425,-1.7838 -3.98425,-3.98424"
       id="path129"
       inkscape:connector-curvature="0"
       style="fill-rule:evenodd;stroke:#000000;stroke-width:2;stroke-linecap:butt;stroke-linejoin:round" />
    <path
       d="m 386.40158,263.79507 h 378.9921 v 26.07873 h -378.9921 z"
       id="path131"
       inkscape:connector-curvature="0"
       style="fill:#000000;fill-opacity:0;fill-rule:evenodd" />
    <path
       d="m 403.23758,283.07443 v -0.70313 l 1.5625,-0.23437 v -9.75 l -1.5625,-0.1875 v -0.71875 h 3.20312 l 3.89063,9.53125 3.67187,-9.53125 h 3.40625 v 0.71875 l -1.59375,0.1875 q -0.0156,1.09375 -0.0312,2.21875 0,1.125 0,2.25 v 0.84375 q 0,1.10937 0,2.23437 0.0156,1.10938 0.0312,2.23438 l 1.59375,0.20312 v 0.70313 h -4.70312 v -0.70313 l 1.45312,-0.20312 q 0.0312,-1.09375 0.0312,-2.21875 0,-1.125 0,-2.23438 v -4.3125 l -3.76562,9.67188 h -0.85938 l -3.96875,-9.67188 0.10938,3.28125 v 5.45313 l 1.42187,0.23437 v 0.70313 z m 23.65167,-7.65625 q -0.48437,0 -0.98437,0.28125 -0.48438,0.26562 -0.84375,0.875 -0.34375,0.60937 -0.45313,1.60937 h 3.15625 q 0.625,0 0.8125,-0.25 0.20313,-0.26562 0.20313,-0.64062 0,-0.51563 -0.25,-0.9375 -0.25,-0.42188 -0.67188,-0.67188 -0.42187,-0.26562 -0.96875,-0.26562 z m -0.0156,7.875 q -1.75,0 -2.8125,-1.125 -1.04688,-1.14063 -1.04688,-3.125 0,-1.34375 0.54688,-2.32813 0.54687,-0.98437 1.45312,-1.53125 0.90625,-0.5625 1.98438,-0.5625 0.90625,0 1.625,0.40625 0.73437,0.39063 1.15625,1.125 0.4375,0.73438 0.4375,1.79688 0,0.29687 -0.0312,0.54687 -0.0312,0.25 -0.0937,0.42188 h -5.51563 q 0.0312,1.59375 0.79688,2.42187 0.76562,0.82813 2,0.82813 0.84375,0 1.39062,-0.32813 0.5625,-0.34375 1.03125,-0.875 l 0.40625,0.32813 q -0.48437,0.92187 -1.3125,1.46875 -0.82812,0.53125 -2.01562,0.53125 z m 4.88418,-0.21875 v -0.625 l 1.28125,-0.23438 q 0.0312,-0.67187 0.0312,-1.42187 0.0156,-0.76563 0.0156,-1.35938 v -0.82812 q 0,-0.71875 -0.0156,-1.17188 0,-0.46875 -0.0469,-1 l -1.35938,-0.15625 v -0.60937 l 2.42188,-1.04688 0.26562,0.17188 0.125,1.39062 q 0.65625,-0.70312 1.48438,-1.125 0.82812,-0.4375 1.625,-0.4375 1.125,0 1.67187,0.75 0.54688,0.75 0.54688,2.45313 v 1.60937 q 0,0.59375 0,1.35938 0.0156,0.75 0.0312,1.42187 l 1.21875,0.23438 v 0.625 h -4.03125 v -0.625 l 1.29687,-0.23438 q 0.0156,-0.64062 0.0156,-1.40625 0.0156,-0.78125 0.0156,-1.375 v -1.46875 q 0,-1.20312 -0.34375,-1.64062 -0.32812,-0.45313 -1.09375,-0.45313 -0.59375,0 -1.15625,0.25 -0.54687,0.23438 -1.20312,0.78125 v 2.53125 q 0,0.57813 0,1.34375 0.0156,0.76563 0.0312,1.4375 l 1.20312,0.23438 v 0.625 z m 13.27347,0.21875 q -0.89062,0 -1.4375,-0.48438 -0.53125,-0.48437 -0.53125,-1.48437 0,-0.32813 0,-0.64063 0.0156,-0.32812 0.0156,-0.82812 v -4.09375 h -1.4375 v -0.76563 l 1.54687,-0.1875 0.45313,-2.32812 h 1.03125 l -0.10938,2.35937 h 2.34375 v 0.92188 h -2.35937 v 5.375 q 0,0.65625 0.26562,0.96875 0.26563,0.29687 0.6875,0.29687 0.29688,0 0.5625,-0.125 0.28125,-0.125 0.60938,-0.34375 l 0.40625,0.45313 q -0.70313,0.90625 -2.04688,0.90625 z m 2.81912,-0.21875 v -0.625 l 1.23438,-0.21875 q 0.0312,-0.65625 0.0312,-1.42188 0.0156,-0.78125 0.0156,-1.375 v -0.82812 q 0,-0.71875 -0.0156,-1.17188 0,-0.46875 -0.0469,-1 l -1.35937,-0.15625 v -0.60937 l 2.42187,-1.04688 0.26563,0.17188 0.1875,2.04687 q 0.4375,-1.04687 1.10937,-1.625 0.6875,-0.59375 1.375,-0.59375 0.40625,0 0.75,0.17188 0.34375,0.17187 0.5,0.46875 0,1.26562 -1.01562,1.26562 -0.29688,0 -0.5625,-0.10937 -0.25,-0.125 -0.5,-0.32813 l -0.20313,-0.1875 q -0.51562,0.375 -0.875,0.9375 -0.34375,0.54688 -0.5625,1.29688 v 1.29687 q 0,0.57813 0,1.34375 0.0156,0.75 0.0312,1.40625 l 1.42188,0.26563 v 0.625 z m 7.20475,0 v -0.625 l 1.29687,-0.23438 q 0.0156,-0.67187 0.0156,-1.4375 0.0156,-0.76562 0.0156,-1.34375 v -0.8125 q 0,-0.70312 -0.0156,-1.17187 0,-0.48438 -0.0312,-1.01563 l -1.39063,-0.15625 v -0.60937 l 2.67188,-1.04688 0.26562,0.17188 -0.0625,2.35937 v 2.28125 q 0,0.57813 0,1.34375 0.0156,0.76563 0.0312,1.4375 l 1.21875,0.23438 v 0.625 z m 2.04687,-10.35938 q -0.48437,0 -0.82812,-0.3125 -0.34375,-0.3125 -0.34375,-0.79687 0,-0.5 0.34375,-0.79688 0.34375,-0.3125 0.82812,-0.3125 0.48438,0 0.8125,0.3125 0.34375,0.29688 0.34375,0.79688 0,0.48437 -0.34375,0.79687 -0.32812,0.3125 -0.8125,0.3125 z m 7.16376,2.70313 q -0.48438,0 -0.98438,0.28125 -0.48437,0.26562 -0.84375,0.875 -0.34375,0.60937 -0.45312,1.60937 h 3.15625 q 0.625,0 0.8125,-0.25 0.20312,-0.26562 0.20312,-0.64062 0,-0.51563 -0.25,-0.9375 -0.25,-0.42188 -0.67187,-0.67188 -0.42188,-0.26562 -0.96875,-0.26562 z m -0.0156,7.875 q -1.75,0 -2.8125,-1.125 -1.04687,-1.14063 -1.04687,-3.125 0,-1.34375 0.54687,-2.32813 0.54688,-0.98437 1.45313,-1.53125 0.90625,-0.5625 1.98437,-0.5625 0.90625,0 1.625,0.40625 0.73438,0.39063 1.15625,1.125 0.4375,0.73438 0.4375,1.79688 0,0.29687 -0.0312,0.54687 -0.0312,0.25 -0.0937,0.42188 h -5.51562 q 0.0312,1.59375 0.79687,2.42187 0.76563,0.82813 2,0.82813 0.84375,0 1.39063,-0.32813 0.5625,-0.34375 1.03125,-0.875 l 0.40625,0.32813 q -0.48438,0.92187 -1.3125,1.46875 -0.82813,0.53125 -2.01563,0.53125 z m 7.66544,0 q -0.73438,0 -1.34375,-0.17188 -0.59375,-0.15625 -1.23438,-0.48437 l -0.0781,-1.90625 h 0.95312 l 0.32813,1.51562 q 0.60937,0.28125 1.40625,0.28125 0.98437,0 1.45312,-0.35937 0.48438,-0.375 0.48438,-0.96875 0,-0.54688 -0.40625,-0.89063 -0.39063,-0.34375 -1.20313,-0.60937 l -0.79687,-0.29688 q -0.95313,-0.34375 -1.53125,-0.89062 -0.5625,-0.5625 -0.5625,-1.45313 0,-0.64062 0.34375,-1.1875 0.34375,-0.5625 1.01562,-0.90625 0.6875,-0.34375 1.65625,-0.34375 0.70313,0 1.28125,0.1875 0.59375,0.17188 1.14063,0.51563 l -0.0625,1.76562 h -0.90625 l -0.28125,-1.375 q -0.57813,-0.29687 -1.1875,-0.29687 -0.79688,0 -1.20313,0.32812 -0.40625,0.3125 -0.40625,0.84375 0,0.57813 0.34375,0.875 0.35938,0.29688 1.25,0.625 l 0.53125,0.1875 q 1.29688,0.48438 1.84375,1.10938 0.54688,0.625 0.54688,1.4375 0,0.65625 -0.39063,1.21875 -0.375,0.5625 -1.125,0.90625 -0.73437,0.34375 -1.85937,0.34375 z m 7.39242,-0.71875 q 0,1.03125 -0.5,1.90625 -0.48437,0.89062 -1.25,1.51562 -0.76562,0.64063 -1.59375,0.95313 l -0.23437,-0.57813 q 0.875,-0.45312 1.54687,-1.09375 0.6875,-0.64062 1,-1.60937 l -0.64062,-0.5 q -0.35938,-0.28125 -0.51563,-0.59375 -0.14062,-0.32813 -0.14062,-0.65625 0,-0.45313 0.26562,-0.76563 0.26563,-0.32812 0.79688,-0.32812 0.25,0 0.5,0.10937 0.25,0.0937 0.57812,0.39063 0.10938,0.32812 0.14063,0.64062 0.0469,0.29688 0.0469,0.60938 z m 6.23584,0.5 v -0.625 l 1.28125,-0.23438 q 0.0312,-0.67187 0.0312,-1.42187 0.0156,-0.76563 0.0156,-1.35938 v -0.82812 q 0,-0.71875 -0.0156,-1.17188 0,-0.46875 -0.0469,-1 l -1.35938,-0.15625 v -0.60937 l 2.42188,-1.04688 0.26562,0.17188 0.125,1.39062 q 0.65625,-0.70312 1.48438,-1.125 0.82812,-0.4375 1.625,-0.4375 1.125,0 1.67187,0.75 0.54688,0.75 0.54688,2.45313 v 1.60937 q 0,0.59375 0,1.35938 0.0156,0.75 0.0312,1.42187 l 1.21875,0.23438 v 0.625 h -4.03125 v -0.625 l 1.29687,-0.23438 q 0.0156,-0.64062 0.0156,-1.40625 0.0156,-0.78125 0.0156,-1.375 v -1.46875 q 0,-1.20312 -0.34375,-1.64062 -0.32812,-0.45313 -1.09375,-0.45313 -0.59375,0 -1.15625,0.25 -0.54687,0.23438 -1.20312,0.78125 v 2.53125 q 0,0.57813 0,1.34375 0.0156,0.76563 0.0312,1.4375 l 1.20312,0.23438 v 0.625 z m 14.5633,0.21875 q -1,0 -1.92188,-0.46875 -0.90625,-0.48438 -1.48437,-1.4375 -0.5625,-0.96875 -0.5625,-2.39063 0,-1.4375 0.5625,-2.40625 0.57812,-0.98437 1.48437,-1.46875 0.92188,-0.5 1.92188,-0.5 1,0 1.90625,0.5 0.92187,0.48438 1.5,1.46875 0.57812,0.96875 0.57812,2.40625 0,1.42188 -0.57812,2.39063 -0.57813,0.95312 -1.5,1.4375 -0.90625,0.46875 -1.90625,0.46875 z m 0,-0.76563 q 1.125,0 1.73437,-0.89062 0.60938,-0.90625 0.60938,-2.64063 0,-1.75 -0.60938,-2.65625 -0.60937,-0.92187 -1.73437,-0.92187 -1.125,0 -1.73438,0.92187 -0.59375,0.90625 -0.59375,2.65625 0,1.73438 0.59375,2.64063 0.60938,0.89062 1.73438,0.89062 z m 11.14425,-3.53125 q 0,1.70313 0.67188,2.51563 0.6875,0.79687 1.73437,0.79687 0.5625,0 1,-0.23437 0.45313,-0.23438 0.9375,-0.76563 v -4.79687 q -0.59375,-0.53125 -1.0625,-0.71875 -0.46875,-0.1875 -0.89062,-0.1875 -0.64063,0 -1.1875,0.35937 -0.54688,0.34375 -0.875,1.10938 -0.32813,0.75 -0.32813,1.92187 z m 4.51563,4.25 -0.125,-1.1875 q -0.4375,0.57813 -1.03125,0.90625 -0.57813,0.32813 -1.39063,0.32813 -1.0625,0 -1.85937,-0.53125 -0.79688,-0.53125 -1.23438,-1.48438 -0.4375,-0.96875 -0.4375,-2.23437 0,-1.34375 0.48438,-2.32813 0.48437,-0.98437 1.3125,-1.53125 0.82812,-0.5625 1.89062,-0.5625 0.60938,0 1.17188,0.25 0.5625,0.23438 1.09375,0.875 v -3.92187 l -1.46875,-0.17188 v -0.60937 l 2.70312,-0.78125 0.25,0.14062 -0.0781,2.46875 v 9.375 l 1.40625,0.20313 v 0.625 z m 6.65167,0.0469 q -1.04687,0 -1.65625,-0.6875 -0.60937,-0.70313 -0.59375,-2.42188 l 0.0469,-4.3125 -1.21875,-0.26562 v -0.625 l 2.54687,-0.23438 0.17188,0.17188 -0.0937,2.42187 v 2.6875 q 0,1.125 0.34375,1.59375 0.35937,0.45313 1.04687,0.45313 1.21875,0 2.42188,-1.125 l 0.0625,-5.09375 -1.23438,-0.25 v -0.625 l 2.51563,-0.23438 0.17187,0.17188 -0.0625,2.42187 v 4.875 l 1.1875,0.23438 v 0.625 l -2.40625,0.14062 -0.17187,-1.54687 q -0.70313,0.85937 -1.5,1.25 -0.78125,0.375 -1.57813,0.375 z m 6.6789,3.92187 v -0.60937 l 1.39062,-0.23438 q 0.0156,-0.71875 0.0156,-1.42187 0.0156,-0.70313 0.0156,-1.39063 v -4.95312 q 0,-0.71875 -0.0156,-1.17188 0,-0.46875 -0.0469,-1 l -1.35937,-0.15625 v -0.60937 l 2.42187,-1.04688 0.26563,0.17188 0.0937,1.125 q 1.23437,-1.29688 2.625,-1.29688 0.9375,0 1.67187,0.51563 0.75,0.51562 1.1875,1.48437 0.45313,0.95313 0.45313,2.3125 0,1.32813 -0.46875,2.3125 -0.46875,0.98438 -1.28125,1.51563 -0.79688,0.53125 -1.82813,0.53125 -0.59375,0 -1.17187,-0.23438 -0.57813,-0.25 -1.125,-0.89062 v 1.375 q 0,0.6875 0,1.39062 0.0156,0.70313 0.0312,1.42188 l 1.57812,0.25 v 0.60937 z m 4.98437,-11.60937 q -0.39062,0 -0.92187,0.20312 -0.51563,0.20313 -1.17188,0.75 v 4.875 q 0.48438,0.46875 0.95313,0.67188 0.46875,0.20312 0.95312,0.20312 0.96875,0 1.65625,-0.78125 0.70313,-0.78125 0.70313,-2.45312 0,-1.67188 -0.60938,-2.5625 -0.60937,-0.90625 -1.5625,-0.90625 z m 4.77264,7.46875 v -0.625 l 1.375,-0.23438 q 0.0312,-0.71875 0.0312,-1.40625 0.0156,-0.6875 0.0156,-1.375 v -7.60937 l -1.42188,-0.17188 v -0.60937 l 2.70313,-0.78125 0.23437,0.14062 -0.0625,2.46875 v 6.5625 q 0,0.6875 0,1.39063 0.0156,0.6875 0.0312,1.39062 l 1.39063,0.23438 v 0.625 z m 5.33564,0 v -0.625 l 1.29687,-0.23438 q 0.0156,-0.67187 0.0156,-1.4375 0.0156,-0.76562 0.0156,-1.34375 v -0.8125 q 0,-0.70312 -0.0156,-1.17187 0,-0.48438 -0.0312,-1.01563 l -1.39063,-0.15625 v -0.60937 l 2.67188,-1.04688 0.26562,0.17188 -0.0625,2.35937 v 2.28125 q 0,0.57813 0,1.34375 0.0156,0.76563 0.0312,1.4375 l 1.21875,0.23438 v 0.625 z m 2.04687,-10.35938 q -0.48437,0 -0.82812,-0.3125 -0.34375,-0.3125 -0.34375,-0.79687 0,-0.5 0.34375,-0.79688 0.34375,-0.3125 0.82812,-0.3125 0.48438,0 0.8125,0.3125 0.34375,0.29688 0.34375,0.79688 0,0.48437 -0.34375,0.79687 -0.32812,0.3125 -0.8125,0.3125 z m 7.13251,10.57813 q -1.78125,0 -2.84375,-1.15625 -1.04688,-1.15625 -1.04688,-3.15625 0,-1.35938 0.5625,-2.34375 0.5625,-0.98438 1.46875,-1.5 0.92188,-0.51563 1.96875,-0.51563 0.78125,0 1.4375,0.29688 0.65625,0.29687 1.07813,0.8125 0.4375,0.5 0.54687,1.14062 -0.125,0.65625 -0.79687,0.65625 -0.4375,0 -0.65625,-0.23437 -0.20313,-0.23438 -0.29688,-0.59375 l -0.3125,-1.14063 q -0.23437,-0.0937 -0.46875,-0.10937 -0.23437,-0.0312 -0.46875,-0.0312 -1.10937,0 -1.82812,0.875 -0.71875,0.85937 -0.71875,2.51562 0,1.625 0.78125,2.5 0.78125,0.85938 2,0.85938 0.73437,0 1.35937,-0.32813 0.625,-0.34375 1.03125,-0.98437 l 0.42188,0.21875 q -0.35938,1.07812 -1.17188,1.65625 -0.8125,0.5625 -2.04687,0.5625 z m 11.03418,-0.0469 q -0.625,0 -1.04688,-0.35937 -0.40625,-0.35938 -0.5,-0.96875 -0.71875,0.6875 -1.26562,1.03125 -0.53125,0.34375 -1.28125,0.34375 -0.95313,0 -1.64063,-0.53125 -0.6875,-0.54688 -0.6875,-1.625 0,-0.5 0.23438,-0.9375 0.23437,-0.4375 0.85937,-0.84375 0.625,-0.42188 1.78125,-0.84375 0.40625,-0.14063 0.92188,-0.28125 0.51562,-0.15625 1.03125,-0.28125 v -0.4375 q 0,-1.26563 -0.375,-1.67188 -0.375,-0.42187 -1.25,-0.42187 -0.1875,0 -0.42188,0.0156 -0.23437,0.0156 -0.51562,0.0781 l -0.32813,1.14062 q -0.23437,0.82813 -0.90625,0.82813 -0.71875,0 -0.8125,-0.71875 0.25,-0.98438 1.15625,-1.5625 0.90625,-0.57813 2.23438,-0.57813 1.35937,0 2.01562,0.6875 0.65625,0.67188 0.65625,2.32813 v 3.6875 q 0,0.54687 0.17188,0.78125 0.1875,0.23437 0.45312,0.23437 0.23438,0 0.39063,-0.0937 0.15625,-0.10937 0.29687,-0.28125 l 0.34375,0.375 q -0.3125,0.51563 -0.6875,0.71875 -0.375,0.1875 -0.82812,0.1875 z m -4.875,-2.375 q 0,0.70313 0.39062,1 0.40625,0.28125 0.98438,0.28125 0.26562,0 0.5,-0.0625 0.23437,-0.0781 0.5625,-0.26562 0.32812,-0.20313 0.84375,-0.59375 v -2.64063 q -0.45313,0.125 -0.89063,0.26563 -0.42187,0.14062 -0.70312,0.25 -0.73438,0.29687 -1.10938,0.60937 -0.35937,0.3125 -0.46875,0.60938 -0.10937,0.29687 -0.10937,0.54687 z m 10.0387,2.42188 q -0.89063,0 -1.4375,-0.48438 -0.53125,-0.48437 -0.53125,-1.48437 0,-0.32813 0,-0.64063 0.0156,-0.32812 0.0156,-0.82812 v -4.09375 h -1.4375 v -0.76563 l 1.54688,-0.1875 0.45312,-2.32812 h 1.03125 l -0.10937,2.35937 h 2.34375 v 0.92188 h -2.35938 v 5.375 q 0,0.65625 0.26563,0.96875 0.26562,0.29687 0.6875,0.29687 0.29687,0 0.5625,-0.125 0.28125,-0.125 0.60937,-0.34375 l 0.40625,0.45313 q -0.70312,0.90625 -2.04687,0.90625 z m 6.74102,-7.875 q -0.48437,0 -0.98437,0.28125 -0.48438,0.26562 -0.84375,0.875 -0.34375,0.60937 -0.45313,1.60937 h 3.15625 q 0.625,0 0.8125,-0.25 0.20313,-0.26562 0.20313,-0.64062 0,-0.51563 -0.25,-0.9375 -0.25,-0.42188 -0.67188,-0.67188 -0.42187,-0.26562 -0.96875,-0.26562 z m -0.0156,7.875 q -1.75,0 -2.8125,-1.125 -1.04688,-1.14063 -1.04688,-3.125 0,-1.34375 0.54688,-2.32813 0.54687,-0.98437 1.45312,-1.53125 0.90625,-0.5625 1.98438,-0.5625 0.90625,0 1.625,0.40625 0.73437,0.39063 1.15625,1.125 0.4375,0.73438 0.4375,1.79688 0,0.29687 -0.0312,0.54687 -0.0312,0.25 -0.0937,0.42188 h -5.51563 q 0.0312,1.59375 0.79688,2.42187 0.76562,0.82813 2,0.82813 0.84375,0 1.39062,-0.32813 0.5625,-0.34375 1.03125,-0.875 l 0.40625,0.32813 q -0.48437,0.92187 -1.3125,1.46875 -0.82812,0.53125 -2.01562,0.53125 z m 7.6654,0 q -0.73437,0 -1.34375,-0.17188 -0.59375,-0.15625 -1.23437,-0.48437 l -0.0781,-1.90625 h 0.95313 l 0.32812,1.51562 q 0.60938,0.28125 1.40625,0.28125 0.98438,0 1.45313,-0.35937 0.48437,-0.375 0.48437,-0.96875 0,-0.54688 -0.40625,-0.89063 -0.39062,-0.34375 -1.20312,-0.60937 l -0.79688,-0.29688 q -0.95312,-0.34375 -1.53125,-0.89062 -0.5625,-0.5625 -0.5625,-1.45313 0,-0.64062 0.34375,-1.1875 0.34375,-0.5625 1.01563,-0.90625 0.6875,-0.34375 1.65625,-0.34375 0.70312,0 1.28125,0.1875 0.59375,0.17188 1.14062,0.51563 l -0.0625,1.76562 h -0.90625 l -0.28125,-1.375 q -0.57812,-0.29687 -1.1875,-0.29687 -0.79687,0 -1.20312,0.32812 -0.40625,0.3125 -0.40625,0.84375 0,0.57813 0.34375,0.875 0.35937,0.29688 1.25,0.625 l 0.53125,0.1875 q 1.29687,0.48438 1.84375,1.10938 0.54687,0.625 0.54687,1.4375 0,0.65625 -0.39062,1.21875 -0.375,0.5625 -1.125,0.90625 -0.73438,0.34375 -1.85938,0.34375 z m 8.71405,-0.21875 v -0.625 l 1.375,-0.23438 q 0.0156,-0.70312 0.0156,-1.39062 0.0156,-0.70313 0.0156,-1.39063 v -3.67187 h -1.4375 v -0.76563 l 1.46875,-0.1875 q 0.125,-1.39062 0.39063,-2.23437 0.26562,-0.85938 0.90625,-1.51563 0.5625,-0.54687 1.15625,-0.75 0.60937,-0.21875 1.20312,-0.21875 0.60938,0 1.07813,0.21875 0.46875,0.21875 0.57812,0.71875 -0.0156,0.32813 -0.29687,0.5625 -0.26563,0.21875 -0.75,0.21875 -0.625,0 -1.25,-0.51562 l -0.48438,-0.39063 q -0.0781,0.0625 -0.14062,0.10938 -0.0469,0.0469 -0.10938,0.10937 -0.4375,0.45313 -0.67187,1.35938 -0.23438,0.90625 -0.20313,2.35937 h 2.39063 v 0.92188 h -2.35938 v 3.67187 q 0,0.6875 0,1.375 0.0156,0.6875 0.0312,1.375 l 1.5625,0.26563 v 0.625 z m 6.24347,0 v -0.625 l 1.23438,-0.21875 q 0.0312,-0.65625 0.0312,-1.42188 0.0156,-0.78125 0.0156,-1.375 v -0.82812 q 0,-0.71875 -0.0156,-1.17188 0,-0.46875 -0.0469,-1 l -1.35937,-0.15625 v -0.60937 l 2.42187,-1.04688 0.26563,0.17188 0.1875,2.04687 q 0.4375,-1.04687 1.10937,-1.625 0.6875,-0.59375 1.375,-0.59375 0.40625,0 0.75,0.17188 0.34375,0.17187 0.5,0.46875 0,1.26562 -1.01562,1.26562 -0.29688,0 -0.5625,-0.10937 -0.25,-0.125 -0.5,-0.32813 l -0.20313,-0.1875 q -0.51562,0.375 -0.875,0.9375 -0.34375,0.54688 -0.5625,1.29688 v 1.29687 q 0,0.57813 0,1.34375 0.0156,0.75 0.0312,1.40625 l 1.42188,0.26563 v 0.625 z m 11.17206,0.21875 q -1,0 -1.92187,-0.46875 -0.90625,-0.48438 -1.48438,-1.4375 -0.5625,-0.96875 -0.5625,-2.39063 0,-1.4375 0.5625,-2.40625 0.57813,-0.98437 1.48438,-1.46875 0.92187,-0.5 1.92187,-0.5 1,0 1.90625,0.5 0.92188,0.48438 1.5,1.46875 0.57813,0.96875 0.57813,2.40625 0,1.42188 -0.57813,2.39063 -0.57812,0.95312 -1.5,1.4375 -0.90625,0.46875 -1.90625,0.46875 z m 0,-0.76563 q 1.125,0 1.73438,-0.89062 0.60937,-0.90625 0.60937,-2.64063 0,-1.75 -0.60937,-2.65625 -0.60938,-0.92187 -1.73438,-0.92187 -1.125,0 -1.73437,0.92187 -0.59375,0.90625 -0.59375,2.65625 0,1.73438 0.59375,2.64063 0.60937,0.89062 1.73437,0.89062 z m 5.45056,0.54688 v -0.625 l 1.28125,-0.23438 q 0.0312,-0.67187 0.0312,-1.42187 0.0156,-0.76563 0.0156,-1.35938 v -0.82812 q 0,-0.71875 -0.0156,-1.17188 0,-0.46875 -0.0469,-1 l -1.35938,-0.15625 v -0.60937 l 2.42188,-1.04688 0.26562,0.17188 0.125,1.40625 q 0.60938,-0.70313 1.42188,-1.14063 0.82812,-0.4375 1.625,-0.4375 0.8125,0 1.3125,0.39063 0.51562,0.375 0.75,1.23437 0.65625,-0.8125 1.46875,-1.21875 0.8125,-0.40625 1.65625,-0.40625 1.0625,0 1.64062,0.71875 0.57813,0.70313 0.57813,2.3125 v 1.78125 q 0,0.59375 0,1.35938 0.0156,0.75 0.0312,1.42187 l 1.21875,0.23438 v 0.625 h -4.01563 v -0.625 l 1.28125,-0.23438 q 0.0156,-0.64062 0.0156,-1.40625 0.0156,-0.78125 0.0156,-1.375 v -1.5 q 0,-1.21875 -0.34375,-1.64062 -0.34375,-0.42188 -1.10937,-0.42188 -0.53125,0 -1.10938,0.25 -0.5625,0.23438 -1.21875,0.84375 0.0156,0.1875 0.0156,0.40625 0.0156,0.20313 0.0156,0.45313 v 1.60937 q 0,0.59375 0.0156,1.35938 0.0156,0.75 0.0312,1.42187 l 1.20312,0.23438 v 0.625 h -4.01562 v -0.625 l 1.28125,-0.23438 q 0.0156,-0.64062 0.0156,-1.40625 0.0156,-0.78125 0.0156,-1.375 v -1.46875 q 0,-1.1875 -0.32813,-1.64062 -0.32812,-0.45313 -1.09375,-0.45313 -0.57812,0 -1.125,0.25 -0.53125,0.23438 -1.17187,0.78125 v 2.53125 q 0,0.57813 0,1.34375 0.0156,0.76563 0.0312,1.4375 l 1.20312,0.23438 v 0.625 z m 22.5094,0.21875 q -0.89062,0 -1.4375,-0.48438 -0.53125,-0.48437 -0.53125,-1.48437 0,-0.32813 0,-0.64063 0.0156,-0.32812 0.0156,-0.82812 v -4.09375 h -1.4375 v -0.76563 l 1.54687,-0.1875 0.45313,-2.32812 h 1.03125 l -0.10938,2.35937 h 2.34375 v 0.92188 h -2.35937 v 5.375 q 0,0.65625 0.26562,0.96875 0.26563,0.29687 0.6875,0.29687 0.29688,0 0.5625,-0.125 0.28125,-0.125 0.60938,-0.34375 l 0.40625,0.45313 q -0.70313,0.90625 -2.04688,0.90625 z m 2.60034,-0.21875 v -0.625 l 1.29688,-0.23438 q 0.0312,-0.67187 0.0312,-1.4375 0.0156,-0.76562 0.0156,-1.34375 v -7.60937 l -1.42187,-0.17188 v -0.60937 l 2.64062,-0.78125 0.25,0.14062 -0.0781,2.46875 v 3.34375 q 0.65625,-0.71875 1.5,-1.15625 0.84375,-0.4375 1.67187,-0.4375 1.14063,0 1.67188,0.75 0.54687,0.75 0.54687,2.45313 v 1.60937 q 0,0.59375 0,1.35938 0.0156,0.75 0.0469,1.42187 l 1.20312,0.23438 v 0.625 h -4.01562 v -0.625 l 1.26562,-0.21875 q 0.0156,-0.65625 0.0156,-1.42188 0.0156,-0.78125 0.0156,-1.375 v -1.46875 q 0,-1.20312 -0.32812,-1.64062 -0.32813,-0.45313 -1.09375,-0.45313 -0.64063,0 -1.21875,0.26563 -0.5625,0.25 -1.21875,0.85937 v 2.4375 q 0,0.57813 0,1.34375 0.0156,0.76563 0.0312,1.4375 l 1.20312,0.23438 v 0.625 z m 14.55475,-7.65625 q -0.48437,0 -0.98437,0.28125 -0.48438,0.26562 -0.84375,0.875 -0.34375,0.60937 -0.45313,1.60937 h 3.15625 q 0.625,0 0.8125,-0.25 0.20313,-0.26562 0.20313,-0.64062 0,-0.51563 -0.25,-0.9375 -0.25,-0.42188 -0.67188,-0.67188 -0.42187,-0.26562 -0.96875,-0.26562 z m -0.0156,7.875 q -1.75,0 -2.8125,-1.125 -1.04688,-1.14063 -1.04688,-3.125 0,-1.34375 0.54688,-2.32813 0.54687,-0.98437 1.45312,-1.53125 0.90625,-0.5625 1.98438,-0.5625 0.90625,0 1.625,0.40625 0.73437,0.39063 1.15625,1.125 0.4375,0.73438 0.4375,1.79688 0,0.29687 -0.0312,0.54687 -0.0312,0.25 -0.0937,0.42188 h -5.51563 q 0.0312,1.59375 0.79688,2.42187 0.76562,0.82813 2,0.82813 0.84375,0 1.39062,-0.32813 0.5625,-0.34375 1.03125,-0.875 l 0.40625,0.32813 q -0.48437,0.92187 -1.3125,1.46875 -0.82812,0.53125 -2.01562,0.53125 z m 11.70282,0 q -0.73438,0 -1.34375,-0.17188 -0.59375,-0.15625 -1.23438,-0.48437 l -0.0781,-1.90625 h 0.95312 l 0.32813,1.51562 q 0.60937,0.28125 1.40625,0.28125 0.98437,0 1.45312,-0.35937 0.48438,-0.375 0.48438,-0.96875 0,-0.54688 -0.40625,-0.89063 -0.39063,-0.34375 -1.20313,-0.60937 l -0.79687,-0.29688 q -0.95313,-0.34375 -1.53125,-0.89062 -0.5625,-0.5625 -0.5625,-1.45313 0,-0.64062 0.34375,-1.1875 0.34375,-0.5625 1.01562,-0.90625 0.6875,-0.34375 1.65625,-0.34375 0.70313,0 1.28125,0.1875 0.59375,0.17188 1.14063,0.51563 l -0.0625,1.76562 h -0.90625 l -0.28125,-1.375 q -0.57813,-0.29687 -1.1875,-0.29687 -0.79688,0 -1.20313,0.32812 -0.40625,0.3125 -0.40625,0.84375 0,0.57813 0.34375,0.875 0.35938,0.29688 1.25,0.625 l 0.53125,0.1875 q 1.29688,0.48438 1.84375,1.10938 0.54688,0.625 0.54688,1.4375 0,0.65625 -0.39063,1.21875 -0.375,0.5625 -1.125,0.90625 -0.73437,0.34375 -1.85937,0.34375 z m 11.25476,-0.0469 q -0.625,0 -1.04688,-0.35937 -0.40625,-0.35938 -0.5,-0.96875 -0.71875,0.6875 -1.26562,1.03125 -0.53125,0.34375 -1.28125,0.34375 -0.95313,0 -1.64063,-0.53125 -0.6875,-0.54688 -0.6875,-1.625 0,-0.5 0.23438,-0.9375 0.23437,-0.4375 0.85937,-0.84375 0.625,-0.42188 1.78125,-0.84375 0.40625,-0.14063 0.92188,-0.28125 0.51562,-0.15625 1.03125,-0.28125 v -0.4375 q 0,-1.26563 -0.375,-1.67188 -0.375,-0.42187 -1.25,-0.42187 -0.1875,0 -0.42188,0.0156 -0.23437,0.0156 -0.51562,0.0781 l -0.32813,1.14062 q -0.23437,0.82813 -0.90625,0.82813 -0.71875,0 -0.8125,-0.71875 0.25,-0.98438 1.15625,-1.5625 0.90625,-0.57813 2.23438,-0.57813 1.35937,0 2.01562,0.6875 0.65625,0.67188 0.65625,2.32813 v 3.6875 q 0,0.54687 0.17188,0.78125 0.1875,0.23437 0.45312,0.23437 0.23438,0 0.39063,-0.0937 0.15625,-0.10937 0.29687,-0.28125 l 0.34375,0.375 q -0.3125,0.51563 -0.6875,0.71875 -0.375,0.1875 -0.82812,0.1875 z m -4.875,-2.375 q 0,0.70313 0.39062,1 0.40625,0.28125 0.98438,0.28125 0.26562,0 0.5,-0.0625 0.23437,-0.0781 0.5625,-0.26562 0.32812,-0.20313 0.84375,-0.59375 v -2.64063 q -0.45313,0.125 -0.89063,0.26563 -0.42187,0.14062 -0.70312,0.25 -0.73438,0.29687 -1.10938,0.60937 -0.35937,0.3125 -0.46875,0.60938 -0.10937,0.29687 -0.10937,0.54687 z m 7.09265,2.20313 v -0.625 l 1.28125,-0.23438 q 0.0312,-0.67187 0.0312,-1.42187 0.0156,-0.76563 0.0156,-1.35938 v -0.82812 q 0,-0.71875 -0.0156,-1.17188 0,-0.46875 -0.0469,-1 l -1.35938,-0.15625 v -0.60937 l 2.42188,-1.04688 0.26562,0.17188 0.125,1.40625 q 0.60938,-0.70313 1.42188,-1.14063 0.82812,-0.4375 1.625,-0.4375 0.8125,0 1.3125,0.39063 0.51562,0.375 0.75,1.23437 0.65625,-0.8125 1.46875,-1.21875 0.8125,-0.40625 1.65625,-0.40625 1.0625,0 1.64062,0.71875 0.57813,0.70313 0.57813,2.3125 v 1.78125 q 0,0.59375 0,1.35938 0.0156,0.75 0.0312,1.42187 l 1.21875,0.23438 v 0.625 h -4.01563 v -0.625 l 1.28125,-0.23438 q 0.0156,-0.64062 0.0156,-1.40625 0.0156,-0.78125 0.0156,-1.375 v -1.5 q 0,-1.21875 -0.34375,-1.64062 -0.34375,-0.42188 -1.10937,-0.42188 -0.53125,0 -1.10938,0.25 -0.5625,0.23438 -1.21875,0.84375 0.0156,0.1875 0.0156,0.40625 0.0156,0.20313 0.0156,0.45313 v 1.60937 q 0,0.59375 0.0156,1.35938 0.0156,0.75 0.0312,1.42187 l 1.20312,0.23438 v 0.625 h -4.01562 v -0.625 l 1.28125,-0.23438 q 0.0156,-0.64062 0.0156,-1.40625 0.0156,-0.78125 0.0156,-1.375 v -1.46875 q 0,-1.1875 -0.32813,-1.64062 -0.32812,-0.45313 -1.09375,-0.45313 -0.57812,0 -1.125,0.25 -0.53125,0.23438 -1.17187,0.78125 v 2.53125 q 0,0.57813 0,1.34375 0.0156,0.76563 0.0312,1.4375 l 1.20312,0.23438 v 0.625 z m 19.5813,-7.65625 q -0.48438,0 -0.98438,0.28125 -0.48437,0.26562 -0.84375,0.875 -0.34375,0.60937 -0.45312,1.60937 h 3.15625 q 0.625,0 0.8125,-0.25 0.20312,-0.26562 0.20312,-0.64062 0,-0.51563 -0.25,-0.9375 -0.25,-0.42188 -0.67187,-0.67188 -0.42188,-0.26562 -0.96875,-0.26562 z m -0.0156,7.875 q -1.75,0 -2.8125,-1.125 -1.04687,-1.14063 -1.04687,-3.125 0,-1.34375 0.54687,-2.32813 0.54688,-0.98437 1.45313,-1.53125 0.90625,-0.5625 1.98437,-0.5625 0.90625,0 1.625,0.40625 0.73438,0.39063 1.15625,1.125 0.4375,0.73438 0.4375,1.79688 0,0.29687 -0.0312,0.54687 -0.0312,0.25 -0.0937,0.42188 h -5.51562 q 0.0312,1.59375 0.79687,2.42187 0.76563,0.82813 2,0.82813 0.84375,0 1.39063,-0.32813 0.5625,-0.34375 1.03125,-0.875 l 0.40625,0.32813 q -0.48438,0.92187 -1.3125,1.46875 -0.82813,0.53125 -2.01563,0.53125 z m 8.84345,-0.21875 v -0.625 l 1.29687,-0.23438 q 0.0156,-0.67187 0.0156,-1.4375 0.0156,-0.76562 0.0156,-1.34375 v -0.8125 q 0,-0.70312 -0.0156,-1.17187 0,-0.48438 -0.0312,-1.01563 l -1.39063,-0.15625 v -0.60937 l 2.67188,-1.04688 0.26562,0.17188 -0.0625,2.35937 v 2.28125 q 0,0.57813 0,1.34375 0.0156,0.76563 0.0312,1.4375 l 1.21875,0.23438 v 0.625 z m 2.04687,-10.35938 q -0.48437,0 -0.82812,-0.3125 -0.34375,-0.3125 -0.34375,-0.79687 0,-0.5 0.34375,-0.79688 0.34375,-0.3125 0.82812,-0.3125 0.48438,0 0.8125,0.3125 0.34375,0.29688 0.34375,0.79688 0,0.48437 -0.34375,0.79687 -0.32812,0.3125 -0.8125,0.3125 z m 3.19501,10.35938 v -0.625 l 1.28125,-0.23438 q 0.0312,-0.67187 0.0312,-1.42187 0.0156,-0.76563 0.0156,-1.35938 v -0.82812 q 0,-0.71875 -0.0156,-1.17188 0,-0.46875 -0.0469,-1 l -1.35938,-0.15625 v -0.60937 l 2.42188,-1.04688 0.26562,0.17188 0.125,1.39062 q 0.65625,-0.70312 1.48438,-1.125 0.82812,-0.4375 1.625,-0.4375 1.125,0 1.67187,0.75 0.54688,0.75 0.54688,2.45313 v 1.60937 q 0,0.59375 0,1.35938 0.0156,0.75 0.0312,1.42187 l 1.21875,0.23438 v 0.625 h -4.03125 v -0.625 l 1.29687,-0.23438 q 0.0156,-0.64062 0.0156,-1.40625 0.0156,-0.78125 0.0156,-1.375 v -1.46875 q 0,-1.20312 -0.34375,-1.64062 -0.32812,-0.45313 -1.09375,-0.45313 -0.59375,0 -1.15625,0.25 -0.54687,0.23438 -1.20312,0.78125 v 2.53125 q 0,0.57813 0,1.34375 0.0156,0.76563 0.0312,1.4375 l 1.20312,0.23438 v 0.625 z m 10.16266,4.14062 v -0.60937 l 1.39063,-0.23438 q 0.0156,-0.71875 0.0156,-1.42187 0.0156,-0.70313 0.0156,-1.39063 v -4.95312 q 0,-0.71875 -0.0156,-1.17188 0,-0.46875 -0.0469,-1 l -1.35938,-0.15625 v -0.60937 l 2.42188,-1.04688 0.26562,0.17188 0.0937,1.125 q 1.23438,-1.29688 2.625,-1.29688 0.9375,0 1.67188,0.51563 0.75,0.51562 1.1875,1.48437 0.45312,0.95313 0.45312,2.3125 0,1.32813 -0.46875,2.3125 -0.46875,0.98438 -1.28125,1.51563 -0.79687,0.53125 -1.82812,0.53125 -0.59375,0 -1.17188,-0.23438 -0.57812,-0.25 -1.125,-0.89062 v 1.375 q 0,0.6875 0,1.39062 0.0156,0.70313 0.0312,1.42188 l 1.57813,0.25 v 0.60937 z m 4.98438,-11.60937 q -0.39063,0 -0.92188,0.20312 -0.51562,0.20313 -1.17187,0.75 v 4.875 q 0.48437,0.46875 0.95312,0.67188 0.46875,0.20312 0.95313,0.20312 0.96875,0 1.65625,-0.78125 0.70312,-0.78125 0.70312,-2.45312 0,-1.67188 -0.60937,-2.5625 -0.60938,-0.90625 -1.5625,-0.90625 z m 8.19451,7.6875 q -1.04687,0 -1.65625,-0.6875 -0.60937,-0.70313 -0.59375,-2.42188 l 0.0469,-4.3125 -1.21875,-0.26562 v -0.625 l 2.54687,-0.23438 0.17188,0.17188 -0.0937,2.42187 v 2.6875 q 0,1.125 0.34375,1.59375 0.35937,0.45313 1.04687,0.45313 1.21875,0 2.42188,-1.125 l 0.0625,-5.09375 -1.23438,-0.25 v -0.625 l 2.51563,-0.23438 0.17187,0.17188 -0.0625,2.42187 v 4.875 l 1.1875,0.23438 v 0.625 l -2.40625,0.14062 -0.17187,-1.54687 q -0.70313,0.85937 -1.5,1.25 -0.78125,0.375 -1.57813,0.375 z m 9.78974,0 q -0.89063,0 -1.4375,-0.48438 -0.53125,-0.48437 -0.53125,-1.48437 0,-0.32813 0,-0.64063 0.0156,-0.32812 0.0156,-0.82812 v -4.09375 h -1.4375 v -0.76563 l 1.54688,-0.1875 0.45312,-2.32812 h 1.03125 l -0.10937,2.35937 h 2.34375 v 0.92188 h -2.35938 v 5.375 q 0,0.65625 0.26563,0.96875 0.26562,0.29687 0.6875,0.29687 0.29687,0 0.5625,-0.125 0.28125,-0.125 0.60937,-0.34375 l 0.40625,0.45313 q -0.70312,0.90625 -2.04687,0.90625 z"
       id="path133"
       inkscape:connector-curvature="0"
       style="fill:#000000;fill-rule:nonzero" />
  </g>
</svg>
