<?xml version="1.0" encoding="UTF-8" standalone="no"?>
<svg
   xmlns:dc="http://purl.org/dc/elements/1.1/"
   xmlns:cc="http://creativecommons.org/ns#"
   xmlns:rdf="http://www.w3.org/1999/02/22-rdf-syntax-ns#"
   xmlns:svg="http://www.w3.org/2000/svg"
   xmlns="http://www.w3.org/2000/svg"
   xmlns:sodipodi="http://sodipodi.sourceforge.net/DTD/sodipodi-0.dtd"
   xmlns:inkscape="http://www.inkscape.org/namespaces/inkscape"
   version="1.1"
   viewBox="0 0 505 104.1181"
   stroke-miterlimit="10"
   id="svg221"
   sodipodi:docname="dependency-sink.svg"
   width="505"
   height="104.1181"
   style="fill:none;stroke:none;stroke-linecap:square;stroke-miterlimit:10"
   inkscape:version="0.92.5 (2060ec1f9f, 2020-04-08)">
  <metadata
     id="metadata227">
    <rdf:RDF>
      <cc:Work
         rdf:about="">
        <dc:format>image/svg+xml</dc:format>
        <dc:type
           rdf:resource="http://purl.org/dc/dcmitype/StillImage" />
        <dc:title></dc:title>
      </cc:Work>
    </rdf:RDF>
  </metadata>
  <defs
     id="defs225" />
  <sodipodi:namedview
     pagecolor="#ffffff"
     bordercolor="#666666"
     borderopacity="1"
     objecttolerance="10"
     gridtolerance="10"
     guidetolerance="10"
     inkscape:pageopacity="0"
     inkscape:pageshadow="2"
     inkscape:window-width="640"
     inkscape:window-height="480"
     id="namedview223"
     showgrid="false"
     inkscape:zoom="0.36145833"
     inkscape:cx="388.26771"
     inkscape:cy="195.37664"
     inkscape:window-x="72"
     inkscape:window-y="27"
     inkscape:window-maximized="0"
     inkscape:current-layer="g219" />
  <clipPath
     id="g30afa501cbb_0_116.0">
    <path
       d="M 0,0 H 960 V 540 H 0 Z"
       id="path2"
       inkscape:connector-curvature="0"
       style="clip-rule:nonzero" />
  </clipPath>
  <g
     clip-path="url(#g30afa501cbb_0_116.0)"
     id="g219"
     transform="translate(-91.732285,-361.25854)">
    <path
       d="M 92.232285,361.75854 H 596.23229 v 103.1181 H 92.232285 Z"
       id="path7"
       inkscape:connector-curvature="0"
       style="fill:#000000;fill-opacity:0;fill-rule:evenodd" />
    <path
       d="m 334.29263,356.7454 h 91.811 v 27.87402 h -91.811 z"
       id="path165"
       inkscape:connector-curvature="0"
       style="fill:#000000;fill-opacity:0;fill-rule:evenodd" />
    <path
       d="m 368.66547,376.18115 q -1.39062,0 -2.54687,-0.67188 l 0.0469,-1.79687 h 1.17188 l 0.25,1.45312 q 0.26562,0.10938 0.53125,0.15625 0.26562,0.0469 0.5625,0.0469 0.64062,0 0.96875,-0.20313 0.34375,-0.21875 0.34375,-0.65625 0,-0.32812 -0.25,-0.57812 -0.25,-0.25 -0.98438,-0.45313 l -0.79687,-0.23437 q -0.84375,-0.25 -1.3125,-0.8125 -0.45313,-0.5625 -0.45313,-1.375 0,-1.01563 0.78125,-1.70313 0.79688,-0.70312 2.28125,-0.70312 0.64063,0 1.1875,0.15625 0.54688,0.15625 1.125,0.4375 l -0.0937,1.60937 h -1.1875 l -0.28125,-1.26562 q -0.3125,-0.125 -0.8125,-0.125 -0.5,0 -0.79687,0.21875 -0.29688,0.20312 -0.29688,0.60937 0,0.29688 0.23438,0.53125 0.23437,0.21875 1,0.45313 l 0.71875,0.20312 q 1.03125,0.3125 1.48437,0.89063 0.45313,0.5625 0.45313,1.375 0,1.15625 -0.89063,1.79687 -0.875,0.64063 -2.4375,0.64063 z m 4.06308,-0.21875 v -0.6875 l 0.79688,-0.17188 q 0.0156,-0.53125 0.0156,-1.14062 0,-0.625 0,-1.07813 v -0.70312 q 0,-0.59375 -0.0156,-1 0,-0.40625 -0.0312,-0.84375 l -0.90625,-0.14063 v -0.5625 l 3.07812,-0.98437 0.25,0.15625 -0.0469,2.125 v 1.95312 q 0,0.45313 0,1.07813 0,0.625 0.0156,1.17187 l 0.73438,0.14063 v 0.6875 z m 1.95313,-8.39063 q -0.51563,0 -0.89063,-0.32812 -0.35937,-0.34375 -0.35937,-0.84375 0,-0.5 0.35937,-0.82813 0.375,-0.34375 0.89063,-0.34375 0.51562,0 0.875,0.34375 0.375,0.32813 0.375,0.82813 0,0.5 -0.375,0.84375 -0.35938,0.32812 -0.875,0.32812 z m 2.647,8.39063 v -0.6875 l 0.79687,-0.17188 q 0.0156,-0.53125 0.0156,-1.14062 0,-0.625 0,-1.07813 v -0.84375 q 0,-0.60937 -0.0156,-0.9375 0,-0.32812 -0.0312,-0.76562 l -0.89062,-0.14063 v -0.5625 l 2.89062,-0.98437 0.25,0.15625 0.0937,1.0625 q 0.57813,-0.67188 1.14063,-0.9375 0.5625,-0.28125 1.20312,-0.28125 0.95313,0 1.53125,0.64062 0.57813,0.625 0.57813,1.875 v 1.71875 q 0,0.48438 0,1.09375 0,0.60938 0.0156,1.15625 l 0.73438,0.14063 v 0.6875 h -3.875 v -0.6875 l 0.76562,-0.15625 q 0.0156,-0.54688 0.0156,-1.15625 0,-0.60938 0,-1.07813 v -1.53125 q 0,-0.70312 -0.1875,-0.98437 -0.1875,-0.29688 -0.60938,-0.29688 -0.57812,0 -1.26562,0.53125 v 2.28125 q 0,0.45313 0,1.07813 0,0.625 0.0156,1.17187 l 0.6875,0.14063 v 0.6875 z m 8.99704,0 v -0.6875 l 0.82812,-0.17188 q 0.0156,-0.54687 0.0156,-1.15625 0,-0.625 0,-1.0625 v -6.14062 l -0.90625,-0.14063 v -0.625 l 3.07812,-0.65625 0.23438,0.14063 -0.0625,2.0625 v 4.5 l 2.375,-2.32813 -1.10938,-0.17187 v -0.64063 h 3.53125 v 0.64063 l -1.32812,0.1875 -1.28125,1.21875 2.0625,4.125 0.9375,0.21875 v 0.6875 h -2.98438 l -1.65625,-3.5 -0.54687,0.51562 q 0,0.48438 0,1.0625 0.0156,0.57813 0.0156,1.07813 l 0.79688,0.15625 v 0.6875 z"
       id="path167"
       inkscape:connector-curvature="0"
       style="fill:#202122;fill-rule:nonzero" />
    <path
       d="m 334.2923,383.3589 h 91.81104 v 76.50394 H 334.2923 Z"
       id="path169"
       inkscape:connector-curvature="0"
       style="fill:#d9d9d9;fill-rule:evenodd" />
    <path
       d="m 334.2923,383.3589 h 91.81104 v 76.50394 H 334.2923 Z"
       id="path171"
       inkscape:connector-curvature="0"
       style="fill-rule:evenodd;stroke:#595959;stroke-width:1;stroke-linecap:butt;stroke-linejoin:round" />
    <path
       d="M 226.08246,391.07086 H 334.5864 v 14.86615 H 226.08246 Z"
       id="path173"
       inkscape:connector-curvature="0"
       style="fill:#000000;fill-opacity:0;fill-rule:evenodd" />
    <path
       d="m 291.909,402.94012 q -0.78125,0 -1.51563,-0.29688 -0.71875,-0.3125 -1.3125,-0.89062 -0.57812,-0.59375 -0.92187,-1.45313 -0.34375,-0.875 -0.34375,-2.03125 0,-1.09375 0.34375,-1.95312 0.34375,-0.875 0.92187,-1.46875 0.59375,-0.59375 1.3125,-0.90625 0.73438,-0.3125 1.51563,-0.3125 0.76562,0 1.48437,0.29687 0.73438,0.29688 1.3125,0.89063 0.59375,0.57812 0.9375,1.45312 0.34375,0.85938 0.34375,2 0,1.09375 -0.34375,1.96875 -0.34375,0.85938 -0.92187,1.46875 -0.57813,0.60938 -1.3125,0.92188 -0.73438,0.3125 -1.5,0.3125 z m 0,-0.67188 q 0.6875,0 1.1875,-0.32812 0.5,-0.34375 0.8125,-0.90625 0.3125,-0.57813 0.45312,-1.28125 0.15625,-0.71875 0.15625,-1.48438 0,-0.75 -0.15625,-1.45312 -0.14062,-0.71875 -0.45312,-1.28125 -0.3125,-0.57813 -0.8125,-0.90625 -0.5,-0.34375 -1.1875,-0.34375 -0.6875,0 -1.1875,0.34375 -0.5,0.32812 -0.82813,0.90625 -0.3125,0.5625 -0.46875,1.28125 -0.15625,0.70312 -0.15625,1.45312 0,0.76563 0.15625,1.48438 0.15625,0.70312 0.46875,1.28125 0.32813,0.5625 0.82813,0.90625 0.5,0.32812 1.1875,0.32812 z m 5.17294,3.65625 v -0.46875 l 1.0625,-0.1875 q 0.0156,-0.54687 0.0156,-1.09375 0.0156,-0.53125 0.0156,-1.0625 v -3.8125 q 0,-0.54687 -0.0156,-0.90625 0,-0.35937 -0.0312,-0.76562 l -1.04688,-0.10938 v -0.46875 l 1.85938,-0.8125 0.20312,0.125 0.0781,0.875 q 0.95312,-1 2.01562,-1 0.71875,0 1.28125,0.40625 0.57813,0.39063 0.92188,1.14063 0.34375,0.73437 0.34375,1.76562 0,1.03125 -0.35938,1.78125 -0.35937,0.75 -0.98437,1.17188 -0.60938,0.40625 -1.40625,0.40625 -0.45313,0 -0.90625,-0.1875 -0.4375,-0.1875 -0.85938,-0.67188 v 1.04688 q 0,0.53125 0,1.0625 0.0156,0.54687 0.0156,1.09375 l 1.21875,0.20312 v 0.46875 z m 3.84375,-8.9375 q -0.3125,0 -0.71875,0.15625 -0.39062,0.15625 -0.90625,0.57813 v 3.75 q 0.375,0.35937 0.73438,0.51562 0.35937,0.15625 0.73437,0.15625 0.75,0 1.28125,-0.59375 0.53125,-0.59375 0.53125,-1.89062 0,-1.28125 -0.46875,-1.96875 -0.46875,-0.70313 -1.1875,-0.70313 z m 6.05881,5.92188 q -0.6875,0 -1.10937,-0.375 -0.40625,-0.375 -0.40625,-1.14063 0,-0.25 0,-0.5 0,-0.25 0,-0.64062 v -3.14063 h -1.09375 v -0.57812 l 1.1875,-0.15625 0.34375,-1.78125 h 0.79687 l -0.0781,1.8125 h 1.79687 v 0.70312 h -1.8125 v 4.125 q 0,0.51563 0.20313,0.75 0.20312,0.23438 0.53125,0.23438 0.21875,0 0.42187,-0.0937 0.21875,-0.0937 0.46875,-0.26563 l 0.32813,0.34375 q -0.54688,0.70313 -1.57813,0.70313 z m 2.36288,-4.25 v -0.625 l 5.15625,-3 0.39063,0.71875 -4.625,2.59375 4.625,2.59375 -0.39063,0.71875 z m 10.24909,-4.21875 h -0.8125 q 0,0.84375 -0.0156,1.73437 0,0.89063 0,1.78125 v 0.64063 h 0.875 q 1.21875,0 1.73438,-0.59375 0.51562,-0.59375 0.51562,-1.53125 0,-0.96875 -0.5625,-1.5 -0.54687,-0.53125 -1.73437,-0.53125 z m -3.34375,-0.0781 v -0.54687 h 3.57812 q 1.6875,0 2.53125,0.75 0.85938,0.73437 0.85938,1.90625 0,0.75 -0.375,1.375 -0.375,0.625 -1.20313,1 -0.8125,0.375 -2.1875,0.375 h -0.6875 q 0,0.71875 0,1.42187 0.0156,0.6875 0.0156,1.40625 l 1.25,0.14063 v 0.54687 h -3.78125 v -0.54687 l 1.21875,-0.14063 q 0.0312,-0.84375 0.0312,-1.70312 0,-0.875 0,-1.73438 v -0.65625 q 0,-0.875 0,-1.73437 0,-0.85938 -0.0312,-1.70313 z m 13.56897,3.67188 v 0.625 l -5.15625,3 -0.39063,-0.71875 4.625,-2.59375 -4.625,-2.59375 0.39063,-0.71875 z"
       id="path175"
       inkscape:connector-curvature="0"
       style="fill:#202122;fill-rule:nonzero" />
    <path
       d="M 226.08246,419.88666 H 334.5864 v 14.86615 H 226.08246 Z"
       id="path177"
       inkscape:connector-curvature="0"
       style="fill:#000000;fill-opacity:0;fill-rule:evenodd" />
    <path
       d="m 241.07819,423.25592 h -1.15625 q 0,0.875 -0.0156,1.75 0,0.875 0,1.8125 h 1.01563 q 1.09375,0 1.59375,-0.51563 0.51562,-0.51562 0.51562,-1.32812 0,-0.82813 -0.46875,-1.26563 -0.46875,-0.45312 -1.48437,-0.45312 z m -3.6875,-0.0781 v -0.54687 h 3.71875 q 1.53125,0 2.39062,0.625 0.85938,0.60937 0.85938,1.71875 0,0.76562 -0.5625,1.40625 -0.5625,0.64062 -1.6875,0.84375 0.59375,0.10937 0.96875,0.51562 0.375,0.39063 0.60937,1.17188 l 0.57813,1.96875 1.01562,0.125 v 0.54687 q -0.1875,0.0469 -0.4375,0.0937 -0.25,0.0469 -0.5625,0.0469 -0.625,0 -0.9375,-0.1875 -0.3125,-0.1875 -0.42187,-0.67188 l -0.54688,-2.14062 q -0.10937,-0.54688 -0.34375,-0.8125 -0.21875,-0.26563 -0.57812,-0.35938 -0.34375,-0.0937 -0.89063,-0.0937 h -0.65625 q 0,0.95313 0,1.79688 0.0156,0.82812 0.0156,1.64062 l 1.23437,0.14063 v 0.54687 h -3.76562 v -0.54687 l 1.21875,-0.14063 q 0.0312,-0.84375 0.0312,-1.70312 0,-0.875 0,-1.73438 v -0.65625 q 0,-0.875 0,-1.73437 0,-0.85938 -0.0312,-1.70313 z m 11.52762,2.48438 q -0.35938,0 -0.75,0.21875 -0.375,0.20312 -0.65625,0.67187 -0.26563,0.46875 -0.34375,1.23438 h 2.42187 q 0.48438,0 0.625,-0.1875 0.15625,-0.20313 0.15625,-0.5 0,-0.39063 -0.1875,-0.70313 -0.1875,-0.32812 -0.51562,-0.53125 -0.32813,-0.20312 -0.75,-0.20312 z m 0,6.0625 q -1.35938,0 -2.17188,-0.875 -0.8125,-0.875 -0.8125,-2.40625 0,-1.01563 0.42188,-1.78125 0.42187,-0.76563 1.125,-1.1875 0.70312,-0.42188 1.53125,-0.42188 0.6875,0 1.25,0.3125 0.5625,0.29688 0.89062,0.85938 0.32813,0.5625 0.32813,1.39062 0,0.21875 -0.0312,0.42188 -0.0156,0.1875 -0.0625,0.3125 h -4.25 q 0.0312,1.23437 0.60937,1.875 0.59375,0.64062 1.54688,0.64062 0.64062,0 1.0625,-0.26562 0.4375,-0.26563 0.79687,-0.67188 l 0.3125,0.25 q -0.375,0.70313 -1.01562,1.125 -0.625,0.42188 -1.53125,0.42188 z m 8.63275,-0.0312 q -0.48438,0 -0.8125,-0.28125 -0.3125,-0.28125 -0.39063,-0.75 -0.54689,0.53125 -0.96876,0.79687 -0.40625,0.26563 -0.98438,0.26563 -0.73437,0 -1.26562,-0.42188 -0.53125,-0.42187 -0.53125,-1.25 0,-0.375 0.17187,-0.70312 0.1875,-0.34375 0.67188,-0.65625 0.48437,-0.32813 1.375,-0.64063 0.3125,-0.10937 0.70312,-0.23437 0.40625,-0.125 0.79689,-0.20313 v -0.34375 q 0,-0.96875 -0.29687,-1.28125 -0.28127,-0.32812 -0.95314,-0.32812 -0.14063,0 -0.32813,0.0156 -0.17187,0.0156 -0.39062,0.0625 l -0.25,0.875 q -0.1875,0.625 -0.6875,0.625 -0.5625,0 -0.64063,-0.53125 0.1875,-0.76562 0.89063,-1.20312 0.70312,-0.45313 1.71875,-0.45313 1.04689,0 1.54689,0.53125 0.51562,0.51563 0.51562,1.78125 v 2.84375 q 0,0.42188 0.125,0.60938 0.14063,0.17187 0.35938,0.17187 0.17187,0 0.28125,-0.0781 0.125,-0.0781 0.23437,-0.21875 l 0.26563,0.29687 q -0.23438,0.39063 -0.53125,0.54688 -0.28125,0.15625 -0.625,0.15625 z m -3.76564,-1.82813 q 0,0.53125 0.3125,0.76563 0.3125,0.21875 0.76562,0.21875 0.1875,0 0.35938,-0.0469 0.1875,-0.0625 0.4375,-0.21875 0.26562,-0.15625 0.65626,-0.4375 v -2.04687 q -0.34376,0.0937 -0.67189,0.21875 -0.32812,0.10937 -0.54687,0.1875 -0.57813,0.21875 -0.85938,0.46875 -0.28125,0.23437 -0.375,0.46875 -0.0781,0.21875 -0.0781,0.42187 z m 6.79964,-1.4375 q 0,1.29688 0.53125,1.92188 0.53125,0.60937 1.32812,0.60937 0.4375,0 0.76563,-0.17187 0.34375,-0.1875 0.71875,-0.59375 v -3.6875 q -0.45313,-0.40625 -0.8125,-0.54688 -0.35938,-0.15625 -0.6875,-0.15625 -0.5,0 -0.92188,0.28125 -0.40625,0.26563 -0.67187,0.85938 -0.25,0.57812 -0.25,1.48437 z m 3.48437,3.26563 -0.0937,-0.92188 q -0.34375,0.45313 -0.79687,0.70313 -0.45313,0.25 -1.07813,0.25 -0.8125,0 -1.42187,-0.40625 -0.60938,-0.42188 -0.95313,-1.15625 -0.34375,-0.73438 -0.34375,-1.71875 0,-1.01563 0.375,-1.78125 0.375,-0.76563 1.01563,-1.1875 0.64062,-0.42188 1.45312,-0.42188 0.46875,0 0.89063,0.1875 0.4375,0.1875 0.85937,0.67188 v -3.01563 l -1.14062,-0.125 v -0.46875 l 2.07812,-0.59375 0.1875,0.0937 -0.0469,1.90625 v 7.20313 l 1.07812,0.15625 v 0.48437 z m 6.36118,-5.98438 v -0.48437 h 2.60937 v 0.48437 l -0.71875,0.14063 -2.15625,5.65625 q -0.65625,1.78125 -1.28125,2.5625 -0.625,0.79687 -1.45312,0.79687 -0.48438,0 -0.85938,-0.25 -0.35937,-0.23437 -0.35937,-0.625 0.0625,-0.29687 0.32812,-0.4375 0.26563,-0.14062 0.5625,-0.14062 0.26563,0 0.48438,0.10937 0.23437,0.10938 0.5,0.39063 l 0.0781,0.0625 q 0.42188,-0.35938 0.70313,-0.875 0.29687,-0.5 0.48437,-1.04688 l 0.0625,-0.15625 -2.42187,-6.09375 -0.73438,-0.0937 v -0.48437 h 3.20313 v 0.48437 l -1.17188,0.14063 1.67188,4.54687 1.64062,-4.53125 z m 3.37085,1.76563 v -0.625 l 5.15625,-3 0.39062,0.71875 -4.625,2.59375 4.625,2.59375 -0.39062,0.71875 z m 11.03033,4.28125 q -0.78125,0 -1.51563,-0.29688 -0.71875,-0.3125 -1.3125,-0.89062 -0.57812,-0.59375 -0.92187,-1.45313 -0.34375,-0.875 -0.34375,-2.03125 0,-1.09375 0.34375,-1.95312 0.34375,-0.875 0.92187,-1.46875 0.59375,-0.59375 1.3125,-0.90625 0.73438,-0.3125 1.51563,-0.3125 0.76562,0 1.48437,0.29687 0.73438,0.29688 1.3125,0.89063 0.59375,0.57812 0.9375,1.45312 0.34375,0.85938 0.34375,2 0,1.09375 -0.34375,1.96875 -0.34375,0.85938 -0.92187,1.46875 -0.57813,0.60938 -1.3125,0.92188 -0.73438,0.3125 -1.5,0.3125 z m 0,-0.67188 q 0.6875,0 1.1875,-0.32812 0.5,-0.34375 0.8125,-0.90625 0.3125,-0.57813 0.45312,-1.28125 0.15625,-0.71875 0.15625,-1.48438 0,-0.75 -0.15625,-1.45312 -0.14062,-0.71875 -0.45312,-1.28125 -0.3125,-0.57813 -0.8125,-0.90625 -0.5,-0.34375 -1.1875,-0.34375 -0.6875,0 -1.1875,0.34375 -0.5,0.32812 -0.82813,0.90625 -0.3125,0.5625 -0.46875,1.28125 -0.15625,0.70312 -0.15625,1.45312 0,0.76563 0.15625,1.48438 0.15625,0.70312 0.46875,1.28125 0.32813,0.5625 0.82813,0.90625 0.5,0.32812 1.1875,0.32812 z m 5.17294,3.65625 v -0.46875 l 1.0625,-0.1875 q 0.0156,-0.54687 0.0156,-1.09375 0.0156,-0.53125 0.0156,-1.0625 v -3.8125 q 0,-0.54687 -0.0156,-0.90625 0,-0.35937 -0.0312,-0.76562 l -1.04688,-0.10938 v -0.46875 l 1.85938,-0.8125 0.20312,0.125 0.0781,0.875 q 0.95312,-1 2.01562,-1 0.71875,0 1.28125,0.40625 0.57813,0.39063 0.92188,1.14063 0.34375,0.73437 0.34375,1.76562 0,1.03125 -0.35938,1.78125 -0.35937,0.75 -0.98437,1.17188 -0.60938,0.40625 -1.40625,0.40625 -0.45313,0 -0.90625,-0.1875 -0.4375,-0.1875 -0.85938,-0.67188 v 1.04688 q 0,0.53125 0,1.0625 0.0156,0.54687 0.0156,1.09375 l 1.21875,0.20312 v 0.46875 z m 3.84375,-8.9375 q -0.3125,0 -0.71875,0.15625 -0.39062,0.15625 -0.90625,0.57813 v 3.75 q 0.375,0.35937 0.73438,0.51562 0.35937,0.15625 0.73437,0.15625 0.75,0 1.28125,-0.59375 0.53125,-0.59375 0.53125,-1.89062 0,-1.28125 -0.46875,-1.96875 -0.46875,-0.70313 -1.1875,-0.70313 z m 6.05881,5.92188 q -0.6875,0 -1.10937,-0.375 -0.40625,-0.375 -0.40625,-1.14063 0,-0.25 0,-0.5 0,-0.25 0,-0.64062 v -3.14063 h -1.09375 v -0.57812 l 1.1875,-0.15625 0.34375,-1.78125 h 0.79687 l -0.0781,1.8125 h 1.79687 v 0.70312 h -1.8125 v 4.125 q 0,0.51563 0.20313,0.75 0.20312,0.23438 0.53125,0.23438 0.21875,0 0.42187,-0.0937 0.21875,-0.0937 0.46875,-0.26563 l 0.32813,0.34375 q -0.54688,0.70313 -1.57813,0.70313 z m 2.36288,-4.25 v -0.625 l 5.15625,-3 0.39063,0.71875 -4.625,2.59375 4.625,2.59375 -0.39063,0.71875 z m 10.24909,-4.21875 h -0.8125 q 0,0.84375 -0.0156,1.73437 0,0.89063 0,1.78125 v 0.64063 h 0.875 q 1.21875,0 1.73438,-0.59375 0.51562,-0.59375 0.51562,-1.53125 0,-0.96875 -0.5625,-1.5 -0.54687,-0.53125 -1.73437,-0.53125 z m -3.34375,-0.0781 v -0.54687 h 3.57812 q 1.6875,0 2.53125,0.75 0.85938,0.73437 0.85938,1.90625 0,0.75 -0.375,1.375 -0.375,0.625 -1.20313,1 -0.8125,0.375 -2.1875,0.375 h -0.6875 q 0,0.71875 0,1.42187 0.0156,0.6875 0.0156,1.40625 l 1.25,0.14063 v 0.54687 h -3.78125 v -0.54687 l 1.21875,-0.14063 q 0.0312,-0.84375 0.0312,-1.70312 0,-0.875 0,-1.73438 v -0.65625 q 0,-0.875 0,-1.73437 0,-0.85938 -0.0312,-1.70313 z m 13.56897,3.67188 v 0.625 l -5.15625,3 -0.39063,-0.71875 4.625,-2.59375 -4.625,-2.59375 0.39063,-0.71875 z m 7.07721,0 v 0.625 l -5.15625,3 -0.39063,-0.71875 4.625,-2.59375 -4.625,-2.59375 0.39063,-0.71875 z"
       id="path179"
       inkscape:connector-curvature="0"
       style="fill:#202122;fill-rule:nonzero" />
    <path
       d="m 334.4707,410.623 c 12.52203,0 25.03619,7.46457 25.04407,14.92914 0.008,7.46457 -12.49054,14.92914 -24.98108,14.92914"
       id="path181"
       inkscape:connector-curvature="0"
       style="fill:#000000;fill-opacity:0;fill-rule:evenodd" />
    <path
       d="m 334.4707,410.623 c 12.52203,0 25.03619,7.46457 25.04407,14.92914 0.004,3.73227 -3.11869,7.46457 -7.80365,10.26379 -2.34244,1.3996 -5.0755,2.56592 -8.0036,3.38236 -0.732,0.20413 -1.47623,0.38638 -2.22956,0.54492 -0.18835,0.0396 -0.37726,0.0778 -0.56668,0.11441 l -0.40277,0.0745"
       id="path183"
       inkscape:connector-curvature="0"
       style="fill-rule:evenodd;stroke:#595959;stroke-width:1;stroke-linecap:butt;stroke-linejoin:round" />
    <path
       d="m 340.35733,438.28732 -4.36786,2.06015 4.6702,1.22943 z"
       id="path185"
       inkscape:connector-curvature="0"
       style="fill:#595959;fill-rule:evenodd;stroke:#595959;stroke-width:1;stroke-linecap:butt" />
    <path
       d="M 226.06754,410.623 H 334.51477"
       id="path187"
       inkscape:connector-curvature="0"
       style="fill:#000000;fill-opacity:0;fill-rule:evenodd" />
    <path
       d="m 226.06755,410.623 h 96.44722"
       id="path189"
       inkscape:connector-curvature="0"
       style="fill-rule:evenodd;stroke:#595959;stroke-width:2;stroke-linecap:butt;stroke-linejoin:round" />
    <path
       d="m 322.51477,413.92645 9.0762,-3.30347 -9.0762,-3.30346 z"
       id="path191"
       inkscape:connector-curvature="0"
       style="fill:#595959;fill-rule:evenodd;stroke:#595959;stroke-width:2;stroke-linecap:butt" />
    <path
       d="m 226.06754,404.6722 h 39.04102 v 11.90158 h -39.04102 z"
       id="path193"
       inkscape:connector-curvature="0"
       style="fill:#000000;fill-opacity:0;fill-rule:evenodd" />
    <path
       d="m 295.4297,404.6722 h 39.04102 v 11.90158 H 295.4297 Z"
       id="path195"
       inkscape:connector-curvature="0"
       style="fill:#000000;fill-opacity:0;fill-rule:evenodd" />
    <path
       d="M 334.51328,440.46844 H 226.06603"
       id="path197"
       inkscape:connector-curvature="0"
       style="fill:#000000;fill-opacity:0;fill-rule:evenodd" />
    <path
       d="M 334.51328,440.4684 H 238.06603"
       id="path199"
       inkscape:connector-curvature="0"
       style="fill-rule:evenodd;stroke:#1c4587;stroke-width:2;stroke-linecap:butt;stroke-linejoin:round" />
    <path
       d="m 238.06602,437.16495 -9.07619,3.30347 9.07619,3.30346 z"
       id="path201"
       inkscape:connector-curvature="0"
       style="fill:#1c4587;fill-rule:evenodd;stroke:#1c4587;stroke-width:2;stroke-linecap:butt" />
    <path
       d="m 226.11232,434.51764 h 39.041 v 11.90158 h -39.041 z"
       id="path203"
       inkscape:connector-curvature="0"
       style="fill:#000000;fill-opacity:0;fill-rule:evenodd" />
    <path
       d="m 295.4738,434.51764 h 39.04098 v 11.90158 H 295.4738 Z"
       id="path205"
       inkscape:connector-curvature="0"
       style="fill:#000000;fill-opacity:0;fill-rule:evenodd" />
    <path
       d="m 90.60236,409.64304 h 135.46457 v 23.93701 H 90.60236 Z"
       id="path207"
       inkscape:connector-curvature="0"
       style="fill:#000000;fill-opacity:0;fill-rule:evenodd" />
    <path
       d="m 101.24329,409.7478 v -0.78125 h 4.71875 v 0.78125 l -1.09375,0.125 q -0.0156,0.89062 -0.0312,1.79687 0,0.90625 0,1.84375 v 0.51563 q 0,0.90625 0,1.82812 0.0156,0.92188 0.0312,1.82813 l 1.09375,0.10937 v 0.79688 h -4.71875 v -0.79688 l 1.09375,-0.10937 q 0.0312,-0.89063 0.0312,-1.79688 0,-0.92187 0,-1.84375 v -0.53125 q 0,-0.92187 0,-1.82812 0,-0.92188 -0.0312,-1.8125 z m 5.76477,4.65625 v -1.10938 l 6.125,-3.15625 0.625,1.25 -5.03125,2.45313 5.03125,2.46875 -0.625,1.25 z m 13.89491,-4.6875 v -0.75 h 3.17188 v 0.78125 l -1.09375,0.1875 -3.01563,8.6875 h -1.42187 l -3.15625,-8.78125 -0.84375,-0.0937 v -0.78125 h 4.71875 v 0.75 l -1.25,0.15625 2,6.03125 2.03125,-6 z m 2.61141,8.875 v -0.6875 l 0.8125,-0.15625 q 0.0156,-0.54688 0.0156,-1.15625 0,-0.625 0,-1.07813 v -0.85937 q 0,-0.42188 -0.0156,-0.67188 0,-0.26562 -0.0156,-0.48437 0,-0.23438 -0.0156,-0.53125 l -0.89063,-0.14063 v -0.5625 l 2.89063,-0.98437 0.25,0.15625 0.14062,1.73437 q 0.3125,-0.9375 0.85938,-1.40625 0.56249,-0.48437 1.10937,-0.48437 0.48437,0 0.82812,0.28125 0.35938,0.26562 0.4375,0.79687 -0.0156,0.57813 -0.3125,0.89063 -0.28125,0.3125 -0.71875,0.3125 -0.625,0 -1.14062,-0.6875 l -0.0781,-0.10938 q -0.32813,0.29688 -0.60938,0.76563 -0.26562,0.46875 -0.375,0.98437 v 1 q 0,0.45313 0,1.04688 0,0.57812 0.0156,1.09375 l 1.15625,0.25 v 0.6875 z m 12.13793,-8.84375 v -0.78125 h 4.64062 v 0.78125 l -1.09375,0.125 q -0.0156,0.89062 -0.0312,1.79687 0,0.90625 0,1.84375 v 0.53125 q 0,0.89063 0,1.8125 0.0156,0.92188 0.0312,1.82813 l 1.09375,0.10937 v 0.79688 h -4.64062 v -0.79688 l 1.03125,-0.0937 q 0.0312,-0.90625 0.0312,-1.8125 0,-0.92187 0,-1.8125 h -3.125 q 0,0.98438 0,1.875 0.0156,0.875 0.0312,1.75 l 1.01562,0.0937 v 0.79688 h -4.60937 v -0.79688 l 1.0625,-0.10937 q 0.0312,-0.89063 0.0312,-1.79688 0,-0.92187 0,-1.84375 v -0.53125 q 0,-0.92187 0,-1.82812 0,-0.90625 -0.0312,-1.8125 l -1.0625,-0.125 v -0.78125 h 4.60937 v 0.78125 l -1.01562,0.10937 q -0.0156,0.89063 -0.0312,1.78125 0,0.875 0,1.57813 h 3.125 q 0,-0.84375 0,-1.6875 0,-0.84375 -0.0312,-1.67188 z m 5.66519,4.65625 v -1.10938 l 6.125,-3.15625 0.625,1.25 -5.03125,2.45313 5.03125,2.46875 -0.625,1.25 z m 11.84804,-4.59375 h -0.32813 q -0.0156,0.90625 -0.0312,1.82812 0,0.92188 0,1.875 v 0.57813 h 0.42188 q 0.96875,0 1.45312,-0.625 0.48438,-0.625 0.48438,-1.60938 0,-1.01562 -0.53125,-1.53125 -0.51563,-0.51562 -1.46875,-0.51562 z m -3.95313,-0.0625 v -0.78125 h 3.98438 q 1.53125,0 2.46875,0.35937 0.9375,0.35938 1.35937,1.01563 0.4375,0.64062 0.4375,1.51562 0,0.84375 -0.40625,1.54688 -0.40625,0.6875 -1.32812,1.10937 -0.92188,0.40625 -2.51563,0.40625 h -0.40625 q 0,0.625 0,1.32813 0.0156,0.6875 0.0312,1.42187 l 1.29688,0.125 v 0.79688 h -4.92188 v -0.79688 l 1.09375,-0.10937 q 0.0312,-0.89063 0.0312,-1.79688 0,-0.92187 0,-1.84375 v -0.53125 q 0,-0.92187 0,-1.82812 0,-0.92188 -0.0312,-1.8125 z m 10.19498,8.01562 q 0,1 -0.46875,1.78125 -0.45312,0.78125 -1.15625,1.28125 -0.6875,0.5 -1.39062,0.71875 l -0.20313,-0.60937 q 0.73438,-0.375 1.20313,-0.89063 0.48437,-0.51562 0.75,-1.09375 l -0.51563,-0.26562 q -0.45312,-0.25 -0.64062,-0.57813 -0.1875,-0.34375 -0.1875,-0.65625 0,-0.54687 0.35937,-0.90625 0.375,-0.375 0.9375,-0.375 0.3125,0 0.5625,0.0937 0.26563,0.0781 0.53125,0.3125 0.14063,0.34375 0.17188,0.60938 0.0469,0.25 0.0469,0.57812 z"
       id="path209"
       inkscape:connector-curvature="0"
       style="fill:#202122;fill-rule:nonzero" />
    <path
       d="m 168.59698,418.8728 q -0.90625,0 -1.75,-0.3125 -0.82813,-0.32813 -1.48438,-0.95313 -0.64062,-0.64062 -1.03125,-1.59375 -0.375,-0.95312 -0.375,-2.25 0,-1.25 0.375,-2.20312 0.39063,-0.95313 1.04688,-1.59375 0.65625,-0.64063 1.48437,-0.95313 0.84375,-0.32812 1.73438,-0.32812 0.90625,0 1.73437,0.3125 0.82813,0.3125 1.48438,0.95312 0.67187,0.625 1.04687,1.59375 0.39063,0.95313 0.39063,2.21875 0,1.28125 -0.39063,2.23438 -0.375,0.95312 -1.03125,1.59375 -0.65625,0.64062 -1.5,0.96875 -0.82812,0.3125 -1.73437,0.3125 z m 0,-0.85938 q 0.75,0 1.1875,-0.54687 0.45312,-0.5625 0.65625,-1.51563 0.21875,-0.96875 0.21875,-2.1875 0,-1.20312 -0.21875,-2.15625 -0.20313,-0.95312 -0.65625,-1.51562 -0.4375,-0.5625 -1.1875,-0.5625 -0.73438,0 -1.1875,0.5625 -0.45313,0.5625 -0.65625,1.51562 -0.20313,0.95313 -0.20313,2.15625 0,1.21875 0.20313,2.1875 0.20312,0.95313 0.65625,1.51563 0.45312,0.54687 1.1875,0.54687 z m 5.56998,3.90625 v -0.6875 l 0.82812,-0.17187 q 0.0156,-0.70313 0.0156,-1.29688 0.0156,-0.57812 0.0156,-1.125 v -3.96875 q 0,-0.60937 -0.0156,-0.9375 0,-0.32812 -0.0312,-0.76562 l -0.90625,-0.14063 v -0.5625 l 2.85937,-0.98437 0.25,0.14062 0.0625,0.82813 q 0.92188,-0.96875 2.17188,-0.96875 0.8125,0 1.45312,0.42187 0.64063,0.42188 1.03125,1.26563 0.39063,0.82812 0.39063,2.04687 0,1.17188 -0.4375,2.03125 -0.4375,0.85938 -1.15625,1.3125 -0.70313,0.45313 -1.54688,0.45313 -1.125,0 -1.84375,-0.76563 v 0.57813 q 0,0.54687 0,1.125 0.0156,0.59375 0.0312,1.26562 l 0.9375,0.21875 v 0.6875 z m 4.1875,-9.35937 q -0.28125,0 -0.53125,0.125 -0.23438,0.10937 -0.46875,0.28125 v 4.25 q 0.4375,0.35937 0.95312,0.35937 0.65625,0 1.0625,-0.60937 0.42188,-0.625 0.42188,-1.92188 0,-1.29687 -0.40625,-1.89062 -0.39063,-0.59375 -1.03125,-0.59375 z m 7.48912,6.25 q -0.96875,0 -1.53125,-0.46875 -0.5625,-0.48438 -0.5625,-1.5625 0,-0.39063 0,-0.71875 0.0156,-0.32813 0.0156,-0.75 v -2.79688 h -0.95312 v -0.875 l 1.09375,-0.14062 0.73437,-2.04688 h 1.48438 l -0.0312,2.0625 h 1.54687 v 1 h -1.54687 v 4.09375 q 0,0.51563 0.21875,0.76563 0.21875,0.23437 0.53125,0.23437 0.39062,0 0.79687,-0.3125 l 0.35938,0.34375 q -0.28125,0.5625 -0.8125,0.875 -0.51563,0.29688 -1.34375,0.29688 z m 2.62196,-4.40625 v -1.10938 l 6.125,-3.15625 0.625,1.25 -5.03125,2.45313 5.03125,2.46875 -0.625,1.25 z m 11.84804,-4.59375 h -0.32813 q -0.0156,0.90625 -0.0312,1.82812 0,0.92188 0,1.875 v 0.57813 h 0.42188 q 0.96875,0 1.45312,-0.625 0.48438,-0.625 0.48438,-1.60938 0,-1.01562 -0.53125,-1.53125 -0.51563,-0.51562 -1.46875,-0.51562 z m -3.95313,-0.0625 v -0.78125 h 3.98438 q 1.53125,0 2.46875,0.35937 0.9375,0.35938 1.35937,1.01563 0.4375,0.64062 0.4375,1.51562 0,0.84375 -0.40625,1.54688 -0.40625,0.6875 -1.32812,1.10937 -0.92188,0.40625 -2.51563,0.40625 h -0.40625 q 0,0.625 0,1.32813 0.0156,0.6875 0.0312,1.42187 l 1.29688,0.125 v 0.79688 h -4.92188 v -0.79688 l 1.09375,-0.10937 q 0.0312,-0.89063 0.0312,-1.79688 0,-0.92187 0,-1.84375 v -0.53125 q 0,-0.92187 0,-1.82812 0,-0.92188 -0.0312,-1.8125 z m 15.92182,3.54687 v 1.10938 l -6.125,3.15625 -0.64063,-1.25 5.03125,-2.46875 -5.03125,-2.45313 0.64063,-1.25 z m 7.97304,0 v 1.10938 l -6.125,3.15625 -0.64063,-1.25 5.03125,-2.46875 -5.03125,-2.45313 0.64063,-1.25 z m 4.03553,4.46875 q 0,1 -0.46875,1.78125 -0.45312,0.78125 -1.15625,1.28125 -0.6875,0.5 -1.39062,0.71875 l -0.20313,-0.60937 q 0.73438,-0.375 1.20313,-0.89063 0.48437,-0.51562 0.75,-1.09375 l -0.51563,-0.26562 q -0.45312,-0.25 -0.64062,-0.57813 -0.1875,-0.34375 -0.1875,-0.65625 0,-0.54687 0.35937,-0.90625 0.375,-0.375 0.9375,-0.375 0.3125,0 0.5625,0.0937 0.26563,0.0781 0.53125,0.3125 0.14063,0.34375 0.17188,0.60938 0.0469,0.25 0.0469,0.57812 z"
       id="path211"
       inkscape:connector-curvature="0"
       style="fill:#202122;fill-rule:nonzero" />
    <path
       d="m 169.6543,427.3478 v -0.78125 h 4.64062 v 0.78125 l -1.09375,0.125 q -0.0156,0.89062 -0.0312,1.79687 0,0.90625 0,1.84375 v 0.53125 q 0,0.89063 0,1.8125 0.0156,0.92188 0.0312,1.82813 l 1.09375,0.10937 v 0.79688 h -4.64062 v -0.79688 l 1.03125,-0.0937 q 0.0312,-0.90625 0.0312,-1.8125 0,-0.92187 0,-1.8125 h -3.125 q 0,0.98438 0,1.875 0.0156,0.875 0.0312,1.75 l 1.01562,0.0937 v 0.79688 h -4.60937 v -0.79688 l 1.0625,-0.10937 q 0.0312,-0.89063 0.0312,-1.79688 0,-0.92187 0,-1.84375 v -0.53125 q 0,-0.92187 0,-1.82812 0,-0.90625 -0.0312,-1.8125 l -1.0625,-0.125 v -0.78125 h 4.60937 v 0.78125 l -1.01562,0.10937 q -0.0156,0.89063 -0.0312,1.78125 0,0.875 0,1.57813 h 3.125 q 0,-0.84375 0,-1.6875 0,-0.84375 -0.0312,-1.67188 z m 8.75357,2.29687 q -0.40625,0 -0.75,0.5 -0.34375,0.5 -0.39062,1.85938 h 1.23437 q 0.53125,0 0.71875,-0.20313 0.1875,-0.21875 0.1875,-0.71875 0,-0.73437 -0.29687,-1.07812 -0.29688,-0.35938 -0.70313,-0.35938 z m 0.0312,6.76563 q -1.07812,0 -1.90625,-0.4375 -0.8125,-0.45313 -1.28125,-1.29688 -0.46875,-0.84375 -0.46875,-2.01562 0,-1.23438 0.54688,-2.07813 0.5625,-0.84375 1.42187,-1.26562 0.85938,-0.4375 1.79688,-0.4375 0.96875,0 1.64062,0.40625 0.6875,0.40625 1.03125,1.10937 0.35938,0.70313 0.35938,1.59375 0,0.42188 -0.0781,0.78125 h -4.23437 q 0.0625,1.15625 0.625,1.70313 0.57812,0.54687 1.32812,0.54687 0.60938,0 1.03125,-0.21875 0.42188,-0.23437 0.75,-0.57812 l 0.51563,0.46875 q -0.45313,0.875 -1.23438,1.29687 -0.78125,0.42188 -1.84375,0.42188 z m 3.68349,-0.21875 v -0.6875 l 0.8125,-0.17188 q 0.0156,-0.5625 0.0156,-1.10937 0.0156,-0.5625 0.0156,-1.10938 v -6.14062 l -0.90625,-0.14063 v -0.625 l 3.07812,-0.65625 0.23438,0.14063 -0.0625,2.0625 v 5.35937 q 0,0.5625 0,1.125 0.0156,0.54688 0.0312,1.10938 l 0.79687,0.15625 v 0.6875 z m 4.59019,3.32812 v -0.6875 l 0.82813,-0.17187 q 0.0156,-0.70313 0.0156,-1.29688 0.0156,-0.57812 0.0156,-1.125 v -3.96875 q 0,-0.60937 -0.0156,-0.9375 0,-0.32812 -0.0312,-0.76562 l -0.90625,-0.14063 v -0.5625 l 2.85938,-0.98437 0.25,0.14062 0.0625,0.82813 q 0.92187,-0.96875 2.17187,-0.96875 0.8125,0 1.45313,0.42187 0.64062,0.42188 1.03125,1.26563 0.39062,0.82812 0.39062,2.04687 0,1.17188 -0.4375,2.03125 -0.4375,0.85938 -1.15625,1.3125 -0.70312,0.45313 -1.54687,0.45313 -1.125,0 -1.84375,-0.76563 v 0.57813 q 0,0.54687 0,1.125 0.0156,0.59375 0.0312,1.26562 l 0.9375,0.21875 v 0.6875 z m 4.1875,-9.35937 q -0.28125,0 -0.53125,0.125 -0.23437,0.10937 -0.46875,0.28125 v 4.25 q 0.4375,0.35937 0.95313,0.35937 0.65625,0 1.0625,-0.60937 0.42187,-0.625 0.42187,-1.92188 0,-1.29687 -0.40625,-1.89062 -0.39062,-0.59375 -1.03125,-0.59375 z m 4.78313,6.03125 v -0.6875 l 0.8125,-0.15625 q 0.0156,-0.5625 0.0156,-1.10938 0.0156,-0.5625 0.0156,-1.125 v -3 h -0.95313 v -0.875 l 0.96875,-0.10937 q 0.125,-1 0.39063,-1.60938 0.28125,-0.60937 0.75,-1.09375 0.53125,-0.53125 1.21875,-0.76562 0.6875,-0.25 1.3125,-0.25 0.60937,0 1.10937,0.23437 0.5,0.21875 0.65625,0.79688 -0.0156,0.40625 -0.29687,0.70312 -0.26563,0.28125 -0.76563,0.28125 -0.35937,0 -0.6875,-0.25 -0.32812,-0.25 -0.625,-0.79687 l -0.125,-0.17188 q -0.39062,0.40625 -0.54687,1.07813 -0.14063,0.67187 -0.10938,1.82812 h 1.5625 v 1 h -1.53125 v 3 q 0,0.54688 0,1.07813 0,0.53125 0.0156,1.07812 l 1.125,0.23438 v 0.6875 z m 10.37384,0.15625 -0.0781,-1.21875 q -0.46875,0.60937 -1.07812,0.95312 -0.59375,0.32813 -1.29688,0.32813 -0.9375,0 -1.51562,-0.59375 -0.5625,-0.59375 -0.5625,-2.04688 l 0.0625,-3.57812 -0.84375,-0.1875 v -0.60938 l 2.98437,-0.42187 0.23438,0.15625 -0.0781,2.0625 v 2.59375 q 0,0.67187 0.21875,0.9375 0.21875,0.26562 0.57813,0.26562 0.3125,0 0.64062,-0.1875 0.32813,-0.1875 0.625,-0.46875 l 0.0625,-4.15625 -0.8125,-0.17187 v -0.5625 l 2.92188,-0.46875 0.23437,0.15625 -0.0469,2.0625 v 4.17187 l 0.76562,0.15625 v 0.6875 z m 3.67763,-0.15625 v -0.6875 l 0.8125,-0.17188 q 0.0156,-0.5625 0.0156,-1.10937 0.0156,-0.5625 0.0156,-1.10938 v -6.14062 l -0.90625,-0.14063 v -0.625 l 3.07812,-0.65625 0.23438,0.14063 -0.0625,2.0625 v 5.35937 q 0,0.5625 0,1.125 0.0156,0.54688 0.0312,1.10938 l 0.79687,0.15625 v 0.6875 z m 11.78087,-5.29688 v 1.10938 l -6.125,3.15625 -0.64063,-1.25 5.03125,-2.46875 -5.03125,-2.45313 0.64063,-1.25 z"
       id="path213"
       inkscape:connector-curvature="0"
       style="fill:#202122;fill-rule:nonzero" />
  </g>
</svg>
