<?xml version="1.0" encoding="UTF-8" standalone="no"?>
<svg
   xmlns:dc="http://purl.org/dc/elements/1.1/"
   xmlns:cc="http://creativecommons.org/ns#"
   xmlns:rdf="http://www.w3.org/1999/02/22-rdf-syntax-ns#"
   xmlns:svg="http://www.w3.org/2000/svg"
   xmlns="http://www.w3.org/2000/svg"
   xmlns:sodipodi="http://sodipodi.sourceforge.net/DTD/sodipodi-0.dtd"
   xmlns:inkscape="http://www.inkscape.org/namespaces/inkscape"
   version="1.1"
   viewBox="0 0 552.93701 123.70865"
   stroke-miterlimit="10"
   id="svg141"
   sodipodi:docname="dependency-comb-loop.svg"
   width="552.93701"
   height="123.70865"
   style="fill:none;stroke:none;stroke-linecap:square;stroke-miterlimit:10"
   inkscape:version="0.92.5 (2060ec1f9f, 2020-04-08)">
  <metadata
     id="metadata147">
    <rdf:RDF>
      <cc:Work
         rdf:about="">
        <dc:format>image/svg+xml</dc:format>
        <dc:type
           rdf:resource="http://purl.org/dc/dcmitype/StillImage" />
        <dc:title></dc:title>
      </cc:Work>
    </rdf:RDF>
  </metadata>
  <defs
     id="defs145" />
  <sodipodi:namedview
     pagecolor="#ffffff"
     bordercolor="#666666"
     borderopacity="1"
     objecttolerance="10"
     gridtolerance="10"
     guidetolerance="10"
     inkscape:pageopacity="0"
     inkscape:pageshadow="2"
     inkscape:window-width="640"
     inkscape:window-height="480"
     id="namedview143"
     showgrid="false"
     inkscape:zoom="0.36145833"
     inkscape:cx="352.43701"
     inkscape:cy="43.73883"
     inkscape:window-x="72"
     inkscape:window-y="27"
     inkscape:window-maximized="0"
     inkscape:current-layer="g139" />
  <clipPath
     id="g30afa501cbb_0_0.0">
    <path
       d="M 0,0 H 960 V 540 H 0 Z"
       id="path2"
       inkscape:connector-curvature="0"
       style="clip-rule:nonzero" />
  </clipPath>
  <g
     clip-path="url(#g30afa501cbb_0_0.0)"
     id="g139"
     transform="translate(-127.56299,-190.03018)">
    <path
       d="m 128.06299,190.53018 h 551.937 v 122.70865 h -551.937 z"
       id="path7"
       inkscape:connector-curvature="0"
       style="fill:#000000;fill-opacity:0;fill-rule:evenodd" />
    <path
       d="m 130.15974,213.63185 h 91.81103 v 76.50392 h -91.81103 z"
       id="path11"
       inkscape:connector-curvature="0"
       style="fill:#d9d9d9;fill-rule:evenodd" />
    <path
       d="m 130.15974,213.63185 h 91.81103 v 76.50392 h -91.81103 z"
       id="path13"
       inkscape:connector-curvature="0"
       style="fill-rule:evenodd;stroke:#595959;stroke-width:1;stroke-linecap:butt;stroke-linejoin:round" />
    <path
       d="m 221.95801,221.34383 h 120.47244 v 14.86615 H 221.95801 Z"
       id="path15"
       inkscape:connector-curvature="0"
       style="fill:#000000;fill-opacity:0;fill-rule:evenodd" />
    <path
       d="m 245.11346,233.00998 v -0.48437 l 1.04687,-0.1875 q 0.0156,-0.53125 0.0156,-1.0625 0.0156,-0.53125 0.0156,-1.0625 v -2.82813 h -1.10937 v -0.57812 l 1.14062,-0.15625 q 0.0781,-1.0625 0.28125,-1.71875 0.21875,-0.67188 0.70313,-1.15625 0.4375,-0.42188 0.89062,-0.57813 0.46875,-0.17187 0.92188,-0.17187 0.46875,0 0.82812,0.17187 0.35938,0.15625 0.45313,0.54688 0,0.25 -0.21875,0.4375 -0.21875,0.17187 -0.59375,0.17187 -0.46875,0 -0.95313,-0.40625 l -0.375,-0.29687 q -0.0469,0.0469 -0.0937,0.0937 -0.0469,0.0312 -0.0937,0.0625 -0.34375,0.35937 -0.53125,1.0625 -0.17187,0.6875 -0.14062,1.8125 h 1.82812 v 0.70312 h -1.8125 v 2.82813 q 0,0.53125 0,1.0625 0.0156,0.51562 0.0312,1.04687 l 1.20313,0.20313 v 0.48437 z m 5.37439,-8.01562 2.73437,-0.70313 0.1875,0.14063 -0.0469,1.90625 v 3.85937 q 0,0.5 0,1 0.0156,0.5 0.0156,1.01563 l 1.90625,0.3125 v 0.48437 h -4.95312 v -0.48437 l 1.875,-0.3125 q 0.0156,-0.51563 0.0156,-1.01563 0.0156,-0.5 0.0156,-1 v -4.79687 l -1.75,0.14062 z m 7.52341,3.34375 q -0.40625,0 -0.6875,-0.28125 -0.26563,-0.28125 -0.26563,-0.65625 0,-0.40625 0.26563,-0.6875 0.28125,-0.28125 0.6875,-0.28125 0.40625,0 0.67187,0.28125 0.28125,0.28125 0.28125,0.6875 0,0.375 -0.28125,0.65625 -0.26562,0.28125 -0.67187,0.28125 z m 0,4.84375 q -0.40625,0 -0.6875,-0.28125 -0.26563,-0.28125 -0.26563,-0.65625 0,-0.40625 0.26563,-0.6875 0.28125,-0.28125 0.6875,-0.28125 0.40625,0 0.67187,0.28125 0.28125,0.28125 0.28125,0.6875 0,0.375 -0.28125,0.65625 -0.26562,0.28125 -0.67187,0.28125 z m 9.8226,0.0312 q -0.78125,0 -1.51563,-0.29688 -0.71875,-0.3125 -1.3125,-0.89062 -0.57812,-0.59375 -0.92187,-1.45313 -0.34375,-0.875 -0.34375,-2.03125 0,-1.09375 0.34375,-1.95312 0.34375,-0.875 0.92187,-1.46875 0.59375,-0.59375 1.3125,-0.90625 0.73438,-0.3125 1.51563,-0.3125 0.76562,0 1.48437,0.29687 0.73438,0.29688 1.3125,0.89063 0.59375,0.57812 0.9375,1.45312 0.34375,0.85938 0.34375,2 0,1.09375 -0.34375,1.96875 -0.34375,0.85938 -0.92187,1.46875 -0.57813,0.60938 -1.3125,0.92188 -0.73438,0.3125 -1.5,0.3125 z m 0,-0.67188 q 0.6875,0 1.1875,-0.32812 0.5,-0.34375 0.8125,-0.90625 0.3125,-0.57813 0.45312,-1.28125 0.15625,-0.71875 0.15625,-1.48438 0,-0.75 -0.15625,-1.45312 -0.14062,-0.71875 -0.45312,-1.28125 -0.3125,-0.57813 -0.8125,-0.90625 -0.5,-0.34375 -1.1875,-0.34375 -0.6875,0 -1.1875,0.34375 -0.5,0.32812 -0.82813,0.90625 -0.3125,0.5625 -0.46875,1.28125 -0.15625,0.70312 -0.15625,1.45312 0,0.76563 0.15625,1.48438 0.15625,0.70312 0.46875,1.28125 0.32813,0.5625 0.82813,0.90625 0.5,0.32812 1.1875,0.32812 z m 5.17294,3.65625 v -0.46875 l 1.0625,-0.1875 q 0.0156,-0.54687 0.0156,-1.09375 0.0156,-0.53125 0.0156,-1.0625 v -3.8125 q 0,-0.54687 -0.0156,-0.90625 0,-0.35937 -0.0312,-0.76562 l -1.04688,-0.10938 v -0.46875 l 1.85938,-0.8125 0.20312,0.125 0.0781,0.875 q 0.95312,-1 2.01562,-1 0.71875,0 1.28125,0.40625 0.57813,0.39063 0.92188,1.14063 0.34375,0.73437 0.34375,1.76562 0,1.03125 -0.35938,1.78125 -0.35937,0.75 -0.98437,1.17188 -0.60938,0.40625 -1.40625,0.40625 -0.45313,0 -0.90625,-0.1875 -0.4375,-0.1875 -0.85938,-0.67188 v 1.04688 q 0,0.53125 0,1.0625 0.0156,0.54687 0.0156,1.09375 l 1.21875,0.20312 v 0.46875 z m 3.84375,-8.9375 q -0.3125,0 -0.71875,0.15625 -0.39062,0.15625 -0.90625,0.57813 v 3.75 q 0.375,0.35937 0.73438,0.51562 0.35937,0.15625 0.73437,0.15625 0.75,0 1.28125,-0.59375 0.53125,-0.59375 0.53125,-1.89062 0,-1.28125 -0.46875,-1.96875 -0.46875,-0.70313 -1.1875,-0.70313 z m 6.05881,5.92188 q -0.6875,0 -1.10938,-0.375 -0.40625,-0.375 -0.40625,-1.14063 0,-0.25 0,-0.5 0,-0.25 0,-0.64062 v -3.14063 h -1.09375 v -0.57812 l 1.1875,-0.15625 0.34375,-1.78125 h 0.79688 l -0.0781,1.8125 h 1.79688 v 0.70312 h -1.8125 v 4.125 q 0,0.51563 0.20312,0.75 0.20313,0.23438 0.53125,0.23438 0.21875,0 0.42188,-0.0937 0.21875,-0.0937 0.46875,-0.26563 l 0.32812,0.34375 q -0.54687,0.70313 -1.57812,0.70313 z m 2.36288,-4.25 v -0.625 l 5.15625,-3 0.39063,0.71875 -4.625,2.59375 4.625,2.59375 -0.39063,0.71875 z m 9.28034,4.25 q -0.8125,0 -1.28125,-0.53125 -0.46875,-0.54688 -0.45313,-1.85938 l 0.0469,-3.32812 -0.95313,-0.20313 v -0.46875 l 1.96875,-0.1875 0.125,0.125 -0.0625,1.875 v 2.0625 q 0,0.85938 0.26563,1.21875 0.26562,0.35938 0.79687,0.35938 0.9375,0 1.875,-0.875 l 0.0312,-3.92188 -0.9375,-0.1875 v -0.46875 l 1.92188,-0.1875 0.14062,0.125 -0.0469,1.875 v 3.73438 l 0.90625,0.1875 v 0.48437 l -1.84375,0.10938 -0.14063,-1.1875 q -0.53125,0.65625 -1.14062,0.95312 -0.60938,0.29688 -1.21875,0.29688 z m 7.06714,-5.03125 h 0.53125 q 0.90625,0 1.40625,-0.46875 0.5,-0.46875 0.5,-1.32813 0,-0.73437 -0.42188,-1.125 -0.40625,-0.40625 -1.20312,-0.40625 -0.125,0 -0.28125,0.0156 -0.14063,0.0156 -0.32813,0.0469 l -0.17187,0.65625 q -0.10938,0.42188 -0.26563,0.625 -0.15625,0.20313 -0.51562,0.20313 -0.20313,0 -0.375,-0.0937 -0.17188,-0.10938 -0.26563,-0.375 0.1875,-0.82813 0.84375,-1.25 0.67188,-0.42188 1.59375,-0.42188 1.17188,0 1.85938,0.57813 0.6875,0.57812 0.6875,1.51562 0,0.71875 -0.45313,1.28125 -0.45312,0.5625 -1.28125,0.85938 1.01563,0.20312 1.51563,0.78125 0.5,0.5625 0.5,1.39062 0,0.71875 -0.375,1.29688 -0.375,0.57812 -1.04688,0.92187 -0.67187,0.32813 -1.57812,0.32813 -0.96875,0 -1.67188,-0.4375 -0.6875,-0.45313 -0.875,-1.45313 0.21875,-0.4375 0.67188,-0.4375 0.34375,0 0.5,0.23438 0.15625,0.21875 0.29687,0.71875 l 0.17188,0.70312 q 0.21875,0.0469 0.40625,0.0625 0.1875,0.0156 0.32812,0.0156 1,0 1.48438,-0.51563 0.5,-0.51562 0.5,-1.40625 0,-0.875 -0.51563,-1.35937 -0.5,-0.5 -1.53125,-0.5 h -0.64062 z m 5.05465,4.85937 v -0.85937 q 0.53125,-0.53125 1.03125,-1.03125 0.5,-0.51563 0.92188,-0.96875 1,-1.0625 1.46875,-1.90625 0.46875,-0.85938 0.46875,-1.625 0,-0.82813 -0.4375,-1.3125 -0.4375,-0.48438 -1.17188,-0.48438 -0.125,0 -0.29687,0.0156 -0.15625,0.0156 -0.34375,0.0625 l -0.26563,0.90625 q -0.125,0.5 -0.3125,0.70312 -0.17187,0.20313 -0.45312,0.20313 -0.4375,0 -0.67188,-0.42188 0.0781,-0.70312 0.45313,-1.15625 0.39062,-0.46875 0.96875,-0.6875 0.59375,-0.21875 1.26562,-0.21875 1.29688,0 1.875,0.64063 0.59375,0.625 0.59375,1.625 0,0.57812 -0.23437,1.14062 -0.23438,0.54688 -0.8125,1.23438 -0.57813,0.6875 -1.59375,1.67187 -0.26563,0.26563 -0.65625,0.625 -0.375,0.35938 -0.78125,0.75 h 4.45312 v 1.09375 z m 12.32028,-4.70312 v 0.625 l -5.15625,3 -0.39062,-0.71875 4.625,-2.59375 -4.625,-2.59375 0.39062,-0.71875 z"
       id="path17"
       inkscape:connector-curvature="0"
       style="fill:#202122;fill-rule:nonzero" />
    <path
       d="m 221.95801,250.15991 h 120.47244 v 14.86615 H 221.95801 Z"
       id="path19"
       inkscape:connector-curvature="0"
       style="fill:#000000;fill-opacity:0;fill-rule:evenodd" />
    <path
       d="m 236.12556,261.82605 v -0.48438 l 1,-0.17187 q 0,-0.5 0,-1.09375 0.0156,-0.59375 0.0156,-1.04688 v -5.85935 l -1.09375,-0.125 v -0.46875 l 2.04688,-0.59375 0.1875,0.0937 -0.0625,1.90625 v 2.35935 q 0.48437,-0.53123 1,-0.7656 0.51562,-0.25 1.0625,-0.25 0.70312,0 1.26562,0.39062 0.57813,0.37498 0.92188,1.10936 0.34375,0.73437 0.34375,1.78125 0,1.01562 -0.35938,1.78125 -0.35937,0.76562 -0.98437,1.1875 -0.625,0.42187 -1.40625,0.42187 -0.46875,0 -0.9375,-0.20312 -0.45313,-0.20313 -0.90625,-0.73438 l -0.0937,0.90625 z m 3.79687,-5.75 q -0.3125,0 -0.71875,0.17187 -0.39062,0.15625 -0.9375,0.60938 v 3.65625 q 0.40625,0.375 0.8125,0.54687 0.40625,0.17188 0.76563,0.17188 0.71875,0 1.23437,-0.60938 0.53125,-0.625 0.53125,-1.92187 0,-1.26563 -0.48437,-1.9375 -0.46875,-0.6875 -1.20313,-0.6875 z m 4.6278,-2.26561 2.73437,-0.70312 0.1875,0.14062 -0.0469,1.90625 v 3.85936 q 0,0.5 0,1 0.0156,0.5 0.0156,1.01562 l 1.90625,0.3125 v 0.48438 h -4.95312 v -0.48438 l 1.875,-0.3125 q 0.0156,-0.51562 0.0156,-1.01562 0.0156,-0.5 0.0156,-1 v -4.79686 l -1.75,0.14063 z m 7.5234,3.34373 q -0.40625,0 -0.6875,-0.28125 -0.26562,-0.28125 -0.26562,-0.65625 0,-0.40623 0.26562,-0.68748 0.28125,-0.28125 0.6875,-0.28125 0.40625,0 0.67188,0.28125 0.28125,0.28125 0.28125,0.68748 0,0.375 -0.28125,0.65625 -0.26563,0.28125 -0.67188,0.28125 z m 0,4.84375 q -0.40625,0 -0.6875,-0.28125 -0.26562,-0.28125 -0.26562,-0.65625 0,-0.40625 0.26562,-0.6875 0.28125,-0.28125 0.6875,-0.28125 0.40625,0 0.67188,0.28125 0.28125,0.28125 0.28125,0.6875 0,0.375 -0.28125,0.65625 -0.26563,0.28125 -0.67188,0.28125 z m 9.38511,-8.46873 h -1.15625 q 0,0.875 -0.0156,1.75 0,0.87498 0,1.81248 h 1.01563 q 1.09375,0 1.59375,-0.51562 0.51562,-0.51563 0.51562,-1.32811 0,-0.82813 -0.46875,-1.26563 -0.46875,-0.45312 -1.48437,-0.45312 z m -3.6875,-0.0781 v -0.54687 h 3.71875 q 1.53125,0 2.39062,0.625 0.85938,0.60937 0.85938,1.71875 0,0.76561 -0.5625,1.40623 -0.5625,0.64063 -1.6875,0.84375 0.59375,0.10938 0.96875,0.51563 0.375,0.39062 0.60937,1.17187 l 0.57813,1.96875 1.01562,0.125 v 0.54688 q -0.1875,0.0469 -0.4375,0.0937 -0.25,0.0469 -0.5625,0.0469 -0.625,0 -0.9375,-0.1875 -0.3125,-0.1875 -0.42187,-0.67187 l -0.54688,-2.14063 q -0.10937,-0.54687 -0.34375,-0.8125 -0.21875,-0.26562 -0.57812,-0.35937 -0.34375,-0.0937 -0.89063,-0.0937 h -0.65625 q 0,0.95312 0,1.79687 0.0156,0.82813 0.0156,1.64063 l 1.23437,0.14062 v 0.54688 h -3.76562 v -0.54688 l 1.21875,-0.14062 q 0.0312,-0.84375 0.0312,-1.70313 0,-0.875 0,-1.73437 v -0.65625 q 0,-0.875 0,-1.73436 0,-0.85938 -0.0312,-1.70313 z m 11.52761,2.48438 q -0.35937,0 -0.75,0.21873 -0.375,0.20313 -0.65625,0.67188 -0.26562,0.46875 -0.34375,1.23437 h 2.42188 q 0.48437,0 0.625,-0.1875 0.15625,-0.20312 0.15625,-0.5 0,-0.39062 -0.1875,-0.70312 -0.1875,-0.32813 -0.51563,-0.53125 -0.32812,-0.20311 -0.75,-0.20311 z m 0,6.06248 q -1.35937,0 -2.17187,-0.875 -0.8125,-0.875 -0.8125,-2.40625 0,-1.01562 0.42187,-1.78125 0.42188,-0.76562 1.125,-1.18748 0.70313,-0.42188 1.53125,-0.42188 0.6875,0 1.25,0.3125 0.5625,0.29688 0.89063,0.85936 0.32812,0.5625 0.32812,1.39063 0,0.21875 -0.0312,0.42187 -0.0156,0.1875 -0.0625,0.3125 h -4.25 q 0.0312,1.23438 0.60938,1.875 0.59375,0.64063 1.54687,0.64063 0.64063,0 1.0625,-0.26563 0.4375,-0.26562 0.79688,-0.67187 l 0.3125,0.25 q -0.375,0.70312 -1.01563,1.125 -0.625,0.42187 -1.53125,0.42187 z m 8.63275,-0.0312 q -0.48437,0 -0.8125,-0.28125 -0.3125,-0.28125 -0.39062,-0.75 -0.54688,0.53125 -0.96875,0.79688 -0.40625,0.26562 -0.98438,0.26562 -0.73437,0 -1.26562,-0.42187 -0.53125,-0.42188 -0.53125,-1.25 0,-0.375 0.17187,-0.70313 0.1875,-0.34375 0.67188,-0.65625 0.48437,-0.32812 1.375,-0.64062 0.3125,-0.10938 0.70312,-0.23438 0.40625,-0.125 0.79688,-0.20312 v -0.34375 q 0,-0.96875 -0.29688,-1.28125 -0.28125,-0.32811 -0.95312,-0.32811 -0.14063,0 -0.32813,0.0156 -0.17187,0.0156 -0.39062,0.0625 l -0.25,0.875 q -0.1875,0.625 -0.6875,0.625 -0.5625,0 -0.64063,-0.53125 0.1875,-0.76563 0.89063,-1.20311 0.70312,-0.45313 1.71875,-0.45313 1.04687,0 1.54687,0.53125 0.51563,0.51561 0.51563,1.78124 v 2.84375 q 0,0.42187 0.125,0.60937 0.14062,0.17188 0.35937,0.17188 0.17188,0 0.28125,-0.0781 0.125,-0.0781 0.23438,-0.21875 l 0.26562,0.29688 q -0.23437,0.39062 -0.53125,0.54687 -0.28125,0.15625 -0.625,0.15625 z m -3.76562,-1.82812 q 0,0.53125 0.3125,0.76562 0.3125,0.21875 0.76562,0.21875 0.1875,0 0.35938,-0.0469 0.1875,-0.0625 0.4375,-0.21875 0.26562,-0.15625 0.65625,-0.4375 v -2.04688 q -0.34375,0.0937 -0.67188,0.21875 -0.32812,0.10938 -0.54687,0.1875 -0.57813,0.21875 -0.85938,0.46875 -0.28125,0.23438 -0.375,0.46875 -0.0781,0.21875 -0.0781,0.42188 z m 6.79962,-1.4375 q 0,1.29687 0.53125,1.92187 0.53125,0.60938 1.32813,0.60938 0.4375,0 0.76562,-0.17188 0.34375,-0.1875 0.71875,-0.59375 v -3.6875 q -0.45312,-0.40625 -0.8125,-0.54687 -0.35937,-0.15625 -0.6875,-0.15625 -0.5,0 -0.92187,0.28125 -0.40625,0.26562 -0.67188,0.85937 -0.25,0.57813 -0.25,1.48438 z m 3.48438,3.26562 -0.0937,-0.92187 q -0.34375,0.45312 -0.79688,0.70312 -0.45312,0.25 -1.07812,0.25 -0.8125,0 -1.42188,-0.40625 -0.60937,-0.42187 -0.95312,-1.15625 -0.34375,-0.73437 -0.34375,-1.71875 0,-1.01562 0.375,-1.78125 0.375,-0.76562 1.01562,-1.18748 0.64063,-0.42188 1.45313,-0.42188 0.46875,0 0.89062,0.1875 0.4375,0.1875 0.85938,0.67186 v -3.0156 l -1.14063,-0.125 v -0.46875 l 2.07813,-0.59375 0.1875,0.0937 -0.0469,1.90625 v 7.2031 l 1.07813,0.15625 v 0.48438 z m 6.36117,-5.98436 v -0.48437 h 2.60938 v 0.48437 l -0.71875,0.14061 -2.15625,5.65625 q -0.65625,1.78125 -1.28125,2.5625 -0.625,0.79688 -1.45313,0.79688 -0.48437,0 -0.85937,-0.25 -0.35938,-0.23438 -0.35938,-0.625 0.0625,-0.29688 0.32813,-0.4375 0.26562,-0.14063 0.5625,-0.14063 0.26562,0 0.48437,0.10938 0.23438,0.10937 0.5,0.39062 l 0.0781,0.0625 q 0.42187,-0.35937 0.70312,-0.875 0.29688,-0.5 0.48438,-1.04687 l 0.0625,-0.15625 -2.42188,-6.09375 -0.73437,-0.0937 v -0.48437 h 3.20312 v 0.48437 l -1.17187,0.14061 1.67187,4.54688 1.64063,-4.53125 z m 3.37085,1.76561 v -0.625 l 5.15625,-2.99998 0.39063,0.71875 -4.625,2.59373 4.625,2.59375 -0.39063,0.71875 z m 9.28034,4.25 q -0.8125,0 -1.28125,-0.53125 -0.46875,-0.54687 -0.45313,-1.85937 l 0.0469,-3.32813 -0.95313,-0.20312 v -0.46874 l 1.96875,-0.1875 0.125,0.125 -0.0625,1.87499 v 2.0625 q 0,0.85937 0.26563,1.21875 0.26562,0.35937 0.79687,0.35937 0.9375,0 1.875,-0.875 l 0.0312,-3.92187 -0.9375,-0.1875 v -0.46874 l 1.92188,-0.1875 0.14062,0.125 -0.0469,1.87499 v 3.73437 l 0.90625,0.1875 v 0.48438 l -1.84375,0.10937 -0.14063,-1.1875 q -0.53125,0.65625 -1.14062,0.95313 -0.60938,0.29687 -1.21875,0.29687 z m 7.06713,-5.03125 h 0.53125 q 0.90625,0 1.40625,-0.46875 0.5,-0.46875 0.5,-1.32811 0,-0.73437 -0.42187,-1.125 -0.40625,-0.40625 -1.20313,-0.40625 -0.125,0 -0.28125,0.0156 -0.14062,0.0156 -0.32812,0.0469 l -0.17188,0.65625 q -0.10937,0.42188 -0.26562,0.625 -0.15625,0.20313 -0.51563,0.20313 -0.20312,0 -0.375,-0.0937 -0.17187,-0.10938 -0.26562,-0.375 0.1875,-0.82813 0.84375,-1.25 0.67187,-0.42188 1.59375,-0.42188 1.17187,0 1.85937,0.57813 0.6875,0.57812 0.6875,1.51562 0,0.71875 -0.45312,1.28124 -0.45313,0.5625 -1.28125,0.85937 1.01562,0.20313 1.51562,0.78125 0.5,0.5625 0.5,1.39063 0,0.71875 -0.375,1.29687 -0.375,0.57813 -1.04687,0.92188 -0.67188,0.32812 -1.57813,0.32812 -0.96875,0 -1.67187,-0.4375 -0.6875,-0.45312 -0.875,-1.45312 0.21875,-0.4375 0.67187,-0.4375 0.34375,0 0.5,0.23437 0.15625,0.21875 0.29688,0.71875 l 0.17187,0.70313 q 0.21875,0.0469 0.40625,0.0625 0.1875,0.0156 0.32813,0.0156 1,0 1.48437,-0.51562 0.5,-0.51563 0.5,-1.40625 0,-0.875 -0.51562,-1.35938 -0.5,-0.5 -1.53125,-0.5 h -0.64063 z m 5.05466,4.85938 v -0.85938 q 0.53125,-0.53125 1.03125,-1.03125 0.5,-0.51562 0.92188,-0.96875 1,-1.0625 1.46875,-1.90625 0.46875,-0.85937 0.46875,-1.62498 0,-0.82813 -0.4375,-1.3125 -0.4375,-0.48438 -1.17188,-0.48438 -0.125,0 -0.29687,0.0156 -0.15625,0.0156 -0.34375,0.0625 l -0.26563,0.90625 q -0.125,0.5 -0.3125,0.70312 -0.17187,0.20313 -0.45312,0.20313 -0.4375,0 -0.67188,-0.42188 0.0781,-0.70312 0.45313,-1.15625 0.39062,-0.46875 0.96875,-0.6875 0.59375,-0.21875 1.26562,-0.21875 1.29688,0 1.875,0.64063 0.59375,0.625 0.59375,1.625 0,0.57812 -0.23437,1.14061 -0.23438,0.54687 -0.8125,1.23437 -0.57813,0.6875 -1.59375,1.67188 -0.26563,0.26562 -0.65625,0.625 -0.375,0.35937 -0.78125,0.75 h 4.45312 v 1.09375 z m 12.32028,-4.70313 v 0.625 l -5.15625,3 -0.39062,-0.71875 4.625,-2.59375 -4.625,-2.59373 0.39062,-0.71875 z"
       id="path21"
       inkscape:connector-curvature="0"
       style="fill:#202122;fill-rule:nonzero" />
    <path
       d="m 130.14714,185.07874 h 91.81102 v 27.87402 h -91.81102 z"
       id="path23"
       inkscape:connector-curvature="0"
       style="fill:#000000;fill-opacity:0;fill-rule:evenodd" />
    <path
       d="m 156.32721,204.5145 q -1.39063,0 -2.54688,-0.67188 l 0.0469,-1.79687 h 1.17187 l 0.25,1.45312 q 0.26563,0.10938 0.53125,0.15625 0.26563,0.0469 0.5625,0.0469 0.64063,0 0.96875,-0.20313 0.34375,-0.21875 0.34375,-0.65625 0,-0.32812 -0.25,-0.57812 -0.25,-0.25 -0.98437,-0.45313 l -0.79688,-0.23437 q -0.84375,-0.25 -1.3125,-0.8125 -0.45312,-0.5625 -0.45312,-1.375 0,-1.01563 0.78125,-1.70313 0.79687,-0.70312 2.28125,-0.70312 0.64062,0 1.1875,0.15625 0.54687,0.15625 1.125,0.4375 l -0.0937,1.60937 h -1.1875 l -0.28125,-1.26562 q -0.3125,-0.125 -0.8125,-0.125 -0.5,0 -0.79688,0.21875 -0.29687,0.20312 -0.29687,0.60937 0,0.29688 0.23437,0.53125 0.23438,0.21875 1,0.45313 l 0.71875,0.20312 q 1.03125,0.3125 1.48438,0.89063 0.45312,0.5625 0.45312,1.375 0,1.15625 -0.89062,1.79687 -0.875,0.64063 -2.4375,0.64063 z m 7.82487,0 q -1.14062,0 -1.98437,-0.46875 -0.82813,-0.48438 -1.28125,-1.34375 -0.45313,-0.85938 -0.45313,-1.98438 0,-1.125 0.48438,-1.95312 0.5,-0.84375 1.34375,-1.3125 0.85937,-0.46875 1.89062,-0.46875 1.04688,0 1.89063,0.45312 0.84375,0.45313 1.34375,1.29688 0.5,0.84375 0.5,1.98437 0,1.14063 -0.45313,2 -0.45312,0.84375 -1.29687,1.32813 -0.82813,0.46875 -1.98438,0.46875 z m 0,-0.76563 q 0.625,0 0.92188,-0.71875 0.3125,-0.71875 0.3125,-2.26562 0,-1.5625 -0.3125,-2.28125 -0.29688,-0.71875 -0.92188,-0.71875 -0.625,0 -0.9375,0.71875 -0.29687,0.71875 -0.29687,2.28125 0,1.54687 0.29687,2.26562 0.3125,0.71875 0.9375,0.71875 z m 9.68993,0.70313 -0.0781,-1.21875 q -0.46875,0.60937 -1.07813,0.95312 -0.59375,0.32813 -1.29687,0.32813 -0.9375,0 -1.51563,-0.59375 -0.5625,-0.59375 -0.5625,-2.04688 l 0.0625,-3.57812 -0.84375,-0.1875 v -0.60938 l 2.98438,-0.42187 0.23437,0.15625 -0.0781,2.0625 v 2.59375 q 0,0.67187 0.21875,0.9375 0.21875,0.26562 0.57812,0.26562 0.3125,0 0.64063,-0.1875 0.32812,-0.1875 0.625,-0.46875 l 0.0625,-4.15625 -0.8125,-0.17187 v -0.5625 l 2.92187,-0.46875 0.23438,0.15625 -0.0469,2.0625 v 4.17187 l 0.76563,0.15625 v 0.6875 z m 3.69325,-0.15625 v -0.6875 l 0.8125,-0.15625 q 0.0156,-0.54688 0.0156,-1.15625 0,-0.625 0,-1.07813 v -0.85937 q 0,-0.42188 -0.0156,-0.67188 0,-0.26562 -0.0156,-0.48437 0,-0.23438 -0.0156,-0.53125 l -0.89062,-0.14063 v -0.5625 l 2.89062,-0.98437 0.25,0.15625 0.14063,1.73437 q 0.3125,-0.9375 0.85937,-1.40625 0.5625,-0.48437 1.10938,-0.48437 0.48437,0 0.82812,0.28125 0.35938,0.26562 0.4375,0.79687 -0.0156,0.57813 -0.3125,0.89063 -0.28125,0.3125 -0.71875,0.3125 -0.625,0 -1.14062,-0.6875 l -0.0781,-0.10938 q -0.32812,0.29688 -0.60937,0.76563 -0.26563,0.46875 -0.375,0.98437 v 1 q 0,0.45313 0,1.04688 0,0.57812 0.0156,1.09375 l 1.15625,0.25 v 0.6875 z m 10.23774,0.21875 q -1,0 -1.82813,-0.40625 -0.82812,-0.42188 -1.32812,-1.25 -0.5,-0.84375 -0.5,-2.07813 0,-1.20312 0.53125,-2.04687 0.54687,-0.85938 1.4375,-1.29688 0.90625,-0.45312 2,-0.45312 0.76562,0 1.35937,0.29687 0.60938,0.28125 0.96875,0.76563 0.35938,0.48437 0.40625,1.07812 -0.23437,0.76563 -1,0.76563 -0.42187,0 -0.75,-0.3125 -0.3125,-0.3125 -0.35937,-1.07813 l -0.10938,-0.73437 q -0.0469,-0.0156 -0.125,-0.0156 -0.0781,0 -0.15625,0 -0.40625,0 -0.8125,0.28125 -0.40625,0.26563 -0.67187,0.875 -0.26563,0.59375 -0.26563,1.59375 0,1.26563 0.5625,1.95313 0.5625,0.67187 1.48438,0.67187 0.53125,0 0.92187,-0.21875 0.40625,-0.23437 0.71875,-0.60937 l 0.51563,0.46875 q -0.42188,0.89062 -1.20313,1.32812 -0.76562,0.42188 -1.79687,0.42188 z m 7.4004,-6.76563 q -0.40625,0 -0.75,0.5 -0.34375,0.5 -0.39062,1.85938 h 1.23437 q 0.53125,0 0.71875,-0.20313 0.1875,-0.21875 0.1875,-0.71875 0,-0.73437 -0.29687,-1.07812 -0.29688,-0.35938 -0.70313,-0.35938 z m 0.0312,6.76563 q -1.07812,0 -1.90625,-0.4375 -0.8125,-0.45313 -1.28125,-1.29688 -0.46875,-0.84375 -0.46875,-2.01562 0,-1.23438 0.54688,-2.07813 0.5625,-0.84375 1.42187,-1.26562 0.85938,-0.4375 1.79688,-0.4375 0.96875,0 1.64062,0.40625 0.6875,0.40625 1.03125,1.10937 0.35938,0.70313 0.35938,1.59375 0,0.42188 -0.0781,0.78125 h -4.23437 q 0.0625,1.15625 0.625,1.70313 0.57812,0.54687 1.32812,0.54687 0.60938,0 1.03125,-0.21875 0.42188,-0.23437 0.75,-0.57812 l 0.51563,0.46875 q -0.45313,0.875 -1.23438,1.29687 -0.78125,0.42188 -1.84375,0.42188 z"
       id="path25"
       inkscape:connector-curvature="0"
       style="fill:#202122;fill-rule:nonzero" />
    <path
       d="m 213.18636,290.1653 h 138.01573 v 23.93701 H 213.18636 Z"
       id="path27"
       inkscape:connector-curvature="0"
       style="fill:#000000;fill-opacity:0;fill-rule:evenodd" />
    <path
       d="m 222.17053,299.07007 v -0.78125 h 4.71875 v 0.78125 l -1.09375,0.125 q -0.0156,0.89062 -0.0312,1.79687 0,0.90625 0,1.84375 v 0.51563 q 0,0.90625 0,1.82812 0.0156,0.92188 0.0312,1.82813 l 1.09375,0.10937 v 0.79688 h -4.71875 v -0.79688 l 1.09375,-0.10937 q 0.0312,-0.89063 0.0312,-1.79688 0,-0.92187 0,-1.84375 v -0.53125 q 0,-0.92187 0,-1.82812 0,-0.92188 -0.0312,-1.8125 z m 5.76477,4.65625 v -1.10938 l 6.125,-3.15625 0.625,1.25 -5.03125,2.45313 5.03125,2.46875 -0.625,1.25 z m 13.89491,-4.6875 v -0.75 h 3.17188 v 0.78125 l -1.09375,0.1875 -3.01563,8.6875 h -1.42187 l -3.15625,-8.78125 -0.84375,-0.0937 v -0.78125 h 4.71875 v 0.75 l -1.25,0.15625 2,6.03125 2.03125,-6 z m 2.61141,8.875 v -0.6875 l 0.8125,-0.15625 q 0.0156,-0.54688 0.0156,-1.15625 0,-0.625 0,-1.07813 v -0.85937 q 0,-0.42188 -0.0156,-0.67188 0,-0.26562 -0.0156,-0.48437 0,-0.23438 -0.0156,-0.53125 l -0.89063,-0.14063 v -0.5625 l 2.89063,-0.98437 0.25,0.15625 0.14062,1.73437 q 0.3125,-0.9375 0.85938,-1.40625 0.5625,-0.48437 1.10937,-0.48437 0.48438,0 0.82813,0.28125 0.35937,0.26562 0.4375,0.79687 -0.0156,0.57813 -0.3125,0.89063 -0.28125,0.3125 -0.71875,0.3125 -0.625,0 -1.14063,-0.6875 l -0.0781,-0.10938 q -0.32813,0.29688 -0.60938,0.76563 -0.26562,0.46875 -0.375,0.98437 v 1 q 0,0.45313 0,1.04688 0,0.57812 0.0156,1.09375 l 1.15625,0.25 v 0.6875 z m 12.13794,-8.84375 v -0.78125 h 4.64062 v 0.78125 l -1.09375,0.125 q -0.0156,0.89062 -0.0312,1.79687 0,0.90625 0,1.84375 v 0.53125 q 0,0.89063 0,1.8125 0.0156,0.92188 0.0312,1.82813 l 1.09375,0.10937 v 0.79688 h -4.64062 v -0.79688 l 1.03125,-0.0937 q 0.0312,-0.90625 0.0312,-1.8125 0,-0.92187 0,-1.8125 h -3.125 q 0,0.98438 0,1.875 0.0156,0.875 0.0312,1.75 l 1.01562,0.0937 v 0.79688 h -4.60937 v -0.79688 l 1.0625,-0.10937 q 0.0312,-0.89063 0.0312,-1.79688 0,-0.92187 0,-1.84375 v -0.53125 q 0,-0.92187 0,-1.82812 0,-0.90625 -0.0312,-1.8125 l -1.0625,-0.125 v -0.78125 h 4.60937 v 0.78125 l -1.01562,0.10937 q -0.0156,0.89063 -0.0312,1.78125 0,0.875 0,1.57813 h 3.125 q 0,-0.84375 0,-1.6875 0,-0.84375 -0.0312,-1.67188 z m 5.66519,4.65625 v -1.10938 l 6.125,-3.15625 0.625,1.25 -5.03125,2.45313 5.03125,2.46875 -0.625,1.25 z m 13.00427,4.34375 -0.0781,-1.21875 q -0.46875,0.60937 -1.07813,0.95312 -0.59375,0.32813 -1.29687,0.32813 -0.9375,0 -1.51563,-0.59375 -0.5625,-0.59375 -0.5625,-2.04688 l 0.0625,-3.57812 -0.84375,-0.1875 v -0.60938 l 2.98438,-0.42187 0.23437,0.15625 -0.0781,2.0625 v 2.59375 q 0,0.67187 0.21875,0.9375 0.21875,0.26562 0.57812,0.26562 0.3125,0 0.64063,-0.1875 0.32812,-0.1875 0.625,-0.46875 l 0.0625,-4.15625 -0.8125,-0.17187 v -0.5625 l 2.92187,-0.46875 0.23438,0.15625 -0.0469,2.0625 v 4.17187 l 0.76563,0.15625 v 0.6875 z m 5.97452,-5.375 h 0.42187 q 0.82813,0 1.29688,-0.42188 0.48437,-0.4375 0.48437,-1.39062 0,-0.84375 -0.39062,-1.25 -0.375,-0.42188 -1.09375,-0.42188 -0.0625,0 -0.14063,0 -0.0625,0 -0.14062,0.0156 l -0.15625,0.95312 q -0.0781,0.54688 -0.39063,0.78125 -0.29687,0.21875 -0.6875,0.21875 -0.5625,0 -0.8125,-0.46875 0.0312,-0.79687 0.4375,-1.29687 0.40625,-0.5 1.04688,-0.73438 0.65625,-0.23437 1.40625,-0.23437 1.625,0 2.42187,0.67187 0.8125,0.67188 0.8125,1.67188 0,0.6875 -0.48437,1.32812 -0.48438,0.625 -1.60938,0.92188 1.29688,0.23437 1.82813,0.85937 0.53125,0.60938 0.53125,1.5625 0,0.76563 -0.4375,1.375 -0.42188,0.60938 -1.23438,0.95313 -0.8125,0.34375 -1.96875,0.34375 -1.53125,0 -2.34375,-0.625 -0.79687,-0.64063 -0.85937,-1.79688 0.14062,-0.34375 0.39062,-0.5 0.26563,-0.15625 0.53125,-0.15625 0.45313,0 0.70313,0.28125 0.26562,0.28125 0.375,1.03125 l 0.125,0.96875 q 0.0937,0.0156 0.17187,0.0312 0.0781,0 0.17188,0 1.98437,0 1.98437,-1.96875 0,-0.90625 -0.48437,-1.39062 -0.48438,-0.48438 -1.39063,-0.48438 h -0.51562 z m 6.02182,5.21875 v -1.29688 q 0.51562,-0.5 1,-0.98437 0.5,-0.48438 0.9375,-0.9375 0.70312,-0.70313 1.15625,-1.28125 0.46875,-0.59375 0.70312,-1.17188 0.23438,-0.59375 0.23438,-1.25 0,-0.84375 -0.40625,-1.3125 -0.39063,-0.46875 -1.07813,-0.46875 -0.0937,0 -0.1875,0 -0.0937,0 -0.1875,0.0156 l -0.1875,1.03125 q -0.10937,0.76562 -0.4375,1.01562 -0.3125,0.23438 -0.64062,0.23438 -0.3125,0 -0.57813,-0.15625 -0.25,-0.17188 -0.375,-0.4375 0.0156,-0.8125 0.48438,-1.35938 0.46875,-0.54687 1.23437,-0.82812 0.76563,-0.28125 1.67188,-0.28125 1.07812,0 1.73437,0.34375 0.67188,0.32812 0.98438,0.90625 0.32812,0.5625 0.32812,1.28125 0,0.70312 -0.375,1.375 -0.35937,0.65625 -1.14062,1.34375 -0.76563,0.6875 -1.98438,1.51562 -0.29687,0.21875 -0.625,0.4375 -0.3125,0.21875 -0.64062,0.46875 h 4.95312 v 1.79688 z m 10.6781,-0.82813 q 0,1 -0.46875,1.78125 -0.45313,0.78125 -1.15625,1.28125 -0.6875,0.5 -1.39063,0.71875 l -0.20312,-0.60937 q 0.73437,-0.375 1.20312,-0.89063 0.48438,-0.51562 0.75,-1.09375 l -0.51562,-0.26562 q -0.45313,-0.25 -0.64063,-0.57813 -0.1875,-0.34375 -0.1875,-0.65625 0,-0.54687 0.35938,-0.90625 0.375,-0.375 0.9375,-0.375 0.3125,0 0.5625,0.0937 0.26562,0.0781 0.53125,0.3125 0.14062,0.34375 0.17187,0.60938 0.0469,0.25 0.0469,0.57812 z m 9.6427,0.98438 -0.0781,-1.21875 q -0.46875,0.60937 -1.07812,0.95312 -0.59375,0.32813 -1.29688,0.32813 -0.9375,0 -1.51562,-0.59375 -0.5625,-0.59375 -0.5625,-2.04688 l 0.0625,-3.57812 -0.84375,-0.1875 v -0.60938 l 2.98437,-0.42187 0.23438,0.15625 -0.0781,2.0625 v 2.59375 q 0,0.67187 0.21875,0.9375 0.21875,0.26562 0.57813,0.26562 0.3125,0 0.64062,-0.1875 0.32813,-0.1875 0.625,-0.46875 l 0.0625,-4.15625 -0.8125,-0.17187 v -0.5625 l 2.92188,-0.46875 0.23437,0.15625 -0.0469,2.0625 v 4.17187 l 0.76562,0.15625 v 0.6875 z m 5.97452,-5.375 h 0.42187 q 0.82813,0 1.29688,-0.42188 0.48437,-0.4375 0.48437,-1.39062 0,-0.84375 -0.39062,-1.25 -0.375,-0.42188 -1.09375,-0.42188 -0.0625,0 -0.14063,0 -0.0625,0 -0.14062,0.0156 l -0.15625,0.95312 q -0.0781,0.54688 -0.39063,0.78125 -0.29687,0.21875 -0.6875,0.21875 -0.5625,0 -0.8125,-0.46875 0.0312,-0.79687 0.4375,-1.29687 0.40625,-0.5 1.04688,-0.73438 0.65625,-0.23437 1.40625,-0.23437 1.625,0 2.42187,0.67187 0.8125,0.67188 0.8125,1.67188 0,0.6875 -0.48437,1.32812 -0.48438,0.625 -1.60938,0.92188 1.29688,0.23437 1.82813,0.85937 0.53125,0.60938 0.53125,1.5625 0,0.76563 -0.4375,1.375 -0.42188,0.60938 -1.23438,0.95313 -0.8125,0.34375 -1.96875,0.34375 -1.53125,0 -2.34375,-0.625 -0.79687,-0.64063 -0.85937,-1.79688 0.14062,-0.34375 0.39062,-0.5 0.26563,-0.15625 0.53125,-0.15625 0.45313,0 0.70313,0.28125 0.26562,0.28125 0.375,1.03125 l 0.125,0.96875 q 0.0937,0.0156 0.17187,0.0312 0.0781,0 0.17188,0 1.98437,0 1.98437,-1.96875 0,-0.90625 -0.48437,-1.39062 -0.48438,-0.48438 -1.39063,-0.48438 h -0.51562 z m 6.02182,5.21875 v -1.29688 q 0.51562,-0.5 1,-0.98437 0.5,-0.48438 0.9375,-0.9375 0.70312,-0.70313 1.15625,-1.28125 0.46875,-0.59375 0.70312,-1.17188 0.23438,-0.59375 0.23438,-1.25 0,-0.84375 -0.40625,-1.3125 -0.39063,-0.46875 -1.07813,-0.46875 -0.0937,0 -0.1875,0 -0.0937,0 -0.1875,0.0156 l -0.1875,1.03125 q -0.10937,0.76562 -0.4375,1.01562 -0.3125,0.23438 -0.64062,0.23438 -0.3125,0 -0.57813,-0.15625 -0.25,-0.17188 -0.375,-0.4375 0.0156,-0.8125 0.48438,-1.35938 0.46875,-0.54687 1.23437,-0.82812 0.76563,-0.28125 1.67188,-0.28125 1.07812,0 1.73437,0.34375 0.67188,0.32812 0.98438,0.90625 0.32812,0.5625 0.32812,1.28125 0,0.70312 -0.375,1.375 -0.35937,0.65625 -1.14062,1.34375 -0.76563,0.6875 -1.98438,1.51562 -0.29687,0.21875 -0.625,0.4375 -0.3125,0.21875 -0.64062,0.46875 h 4.95312 v 1.79688 z m 14.6156,-5.29688 v 1.10938 l -6.125,3.15625 -0.64063,-1.25 5.03125,-2.46875 -5.03125,-2.45313 0.64063,-1.25 z m 7.97302,0 v 1.10938 l -6.125,3.15625 -0.64062,-1.25 5.03125,-2.46875 -5.03125,-2.45313 0.64062,-1.25 z"
       id="path29"
       inkscape:connector-curvature="0"
       style="fill:#202122;fill-rule:nonzero" />
    <path
       d="m 221.99771,270.74106 c -12.52487,0 -25.05762,-7.46457 -25.04974,-14.92914 0.008,-7.46457 12.55636,-14.92914 25.11273,-14.92914"
       id="path31"
       inkscape:connector-curvature="0"
       style="fill:#000000;fill-opacity:0;fill-rule:evenodd" />
    <path
       d="m 221.9977,270.74103 c -12.52487,0 -25.05762,-7.46457 -25.04974,-14.92912 0.004,-3.73229 3.14303,-7.46457 7.85069,-10.26378 2.35383,-1.39961 5.09979,-2.56595 8.04207,-3.38239 0.73558,-0.2041 1.48341,-0.38633 2.24046,-0.5449 0.18927,-0.0396 0.37911,-0.0778 0.56947,-0.11444 l 0.43474,-0.08"
       id="path33"
       inkscape:connector-curvature="0"
       style="fill-rule:evenodd;stroke:#1c4587;stroke-width:1;stroke-linecap:butt;stroke-linejoin:round" />
    <path
       d="m 216.23503,243.07133 4.36978,-2.05611 -4.6691,-1.23376 z"
       id="path35"
       inkscape:connector-curvature="0"
       style="fill:#1c4587;fill-rule:evenodd;stroke:#1c4587;stroke-width:1;stroke-linecap:butt" />
    <path
       d="M 0,0 H 504 V 72.97638 H 0 Z"
       id="path37"
       inkscape:connector-curvature="0"
       style="fill:#000000;fill-opacity:0;fill-rule:evenodd" />
    <path
       d="m 342.4171,213.63255 h 105.44882 v 76.50392 H 342.4171 Z"
       id="path41"
       inkscape:connector-curvature="0"
       style="fill:#d9d9d9;fill-rule:evenodd" />
    <path
       d="m 342.4171,213.63255 h 105.44882 v 76.50392 H 342.4171 Z"
       id="path43"
       inkscape:connector-curvature="0"
       style="fill-rule:evenodd;stroke:#595959;stroke-width:1;stroke-linecap:butt;stroke-linejoin:round" />
    <path
       d="M 447.86615,221.34383 H 585.8819 v 14.86615 H 447.86615 Z"
       id="path45"
       inkscape:connector-curvature="0"
       style="fill:#000000;fill-opacity:0;fill-rule:evenodd" />
    <path
       d="m 479.79324,233.00998 v -0.48437 l 1.04688,-0.1875 q 0.0156,-0.53125 0.0156,-1.0625 0.0156,-0.53125 0.0156,-1.0625 v -2.82813 h -1.10938 v -0.57812 l 1.14063,-0.15625 q 0.0781,-1.0625 0.28125,-1.71875 0.21875,-0.67188 0.70312,-1.15625 0.4375,-0.42188 0.89063,-0.57813 0.46875,-0.17187 0.92187,-0.17187 0.46875,0 0.82813,0.17187 0.35937,0.15625 0.45312,0.54688 0,0.25 -0.21875,0.4375 -0.21875,0.17187 -0.59375,0.17187 -0.46875,0 -0.95312,-0.40625 l -0.375,-0.29687 q -0.0469,0.0469 -0.0937,0.0937 -0.0469,0.0312 -0.0937,0.0625 -0.34375,0.35937 -0.53125,1.0625 -0.17188,0.6875 -0.14063,1.8125 h 1.82813 v 0.70312 h -1.8125 v 2.82813 q 0,0.53125 0,1.0625 0.0156,0.51562 0.0312,1.04687 l 1.20312,0.20313 v 0.48437 z m 4.89001,0 v -0.85937 q 0.53125,-0.53125 1.03125,-1.03125 0.5,-0.51563 0.92188,-0.96875 1,-1.0625 1.46875,-1.90625 0.46875,-0.85938 0.46875,-1.625 0,-0.82813 -0.4375,-1.3125 -0.4375,-0.48438 -1.17188,-0.48438 -0.125,0 -0.29687,0.0156 -0.15625,0.0156 -0.34375,0.0625 l -0.26563,0.90625 q -0.125,0.5 -0.3125,0.70312 -0.17187,0.20313 -0.45312,0.20313 -0.4375,0 -0.67188,-0.42188 0.0781,-0.70312 0.45313,-1.15625 0.39062,-0.46875 0.96875,-0.6875 0.59375,-0.21875 1.26562,-0.21875 1.29688,0 1.875,0.64063 0.59375,0.625 0.59375,1.625 0,0.57812 -0.23437,1.14062 -0.23438,0.54688 -0.8125,1.23438 -0.57813,0.6875 -1.59375,1.67187 -0.26563,0.26563 -0.65625,0.625 -0.375,0.35938 -0.78125,0.75 h 4.45312 v 1.09375 z m 8.00779,-4.67187 q -0.40625,0 -0.6875,-0.28125 -0.26563,-0.28125 -0.26563,-0.65625 0,-0.40625 0.26563,-0.6875 0.28125,-0.28125 0.6875,-0.28125 0.40625,0 0.67187,0.28125 0.28125,0.28125 0.28125,0.6875 0,0.375 -0.28125,0.65625 -0.26562,0.28125 -0.67187,0.28125 z m 0,4.84375 q -0.40625,0 -0.6875,-0.28125 -0.26563,-0.28125 -0.26563,-0.65625 0,-0.40625 0.26563,-0.6875 0.28125,-0.28125 0.6875,-0.28125 0.40625,0 0.67187,0.28125 0.28125,0.28125 0.28125,0.6875 0,0.375 -0.28125,0.65625 -0.26562,0.28125 -0.67187,0.28125 z m 9.82263,0.0312 q -0.78125,0 -1.51563,-0.29688 -0.71875,-0.3125 -1.3125,-0.89062 -0.57812,-0.59375 -0.92187,-1.45313 -0.34375,-0.875 -0.34375,-2.03125 0,-1.09375 0.34375,-1.95312 0.34375,-0.875 0.92187,-1.46875 0.59375,-0.59375 1.3125,-0.90625 0.73438,-0.3125 1.51563,-0.3125 0.76562,0 1.48437,0.29687 0.73438,0.29688 1.3125,0.89063 0.59375,0.57812 0.9375,1.45312 0.34375,0.85938 0.34375,2 0,1.09375 -0.34375,1.96875 -0.34375,0.85938 -0.92187,1.46875 -0.57813,0.60938 -1.3125,0.92188 -0.73438,0.3125 -1.5,0.3125 z m 0,-0.67188 q 0.6875,0 1.1875,-0.32812 0.5,-0.34375 0.8125,-0.90625 0.3125,-0.57813 0.45312,-1.28125 0.15625,-0.71875 0.15625,-1.48438 0,-0.75 -0.15625,-1.45312 -0.14062,-0.71875 -0.45312,-1.28125 -0.3125,-0.57813 -0.8125,-0.90625 -0.5,-0.34375 -1.1875,-0.34375 -0.6875,0 -1.1875,0.34375 -0.5,0.32812 -0.82813,0.90625 -0.3125,0.5625 -0.46875,1.28125 -0.15625,0.70312 -0.15625,1.45312 0,0.76563 0.15625,1.48438 0.15625,0.70312 0.46875,1.28125 0.32813,0.5625 0.82813,0.90625 0.5,0.32812 1.1875,0.32812 z m 5.17294,3.65625 v -0.46875 l 1.0625,-0.1875 q 0.0156,-0.54687 0.0156,-1.09375 0.0156,-0.53125 0.0156,-1.0625 v -3.8125 q 0,-0.54687 -0.0156,-0.90625 0,-0.35937 -0.0312,-0.76562 l -1.04688,-0.10938 v -0.46875 l 1.85938,-0.8125 0.20312,0.125 0.0781,0.875 q 0.95312,-1 2.01562,-1 0.71872,0 1.28122,0.40625 0.57813,0.39063 0.92188,1.14063 0.34375,0.73437 0.34375,1.76562 0,1.03125 -0.35938,1.78125 -0.35937,0.75 -0.98437,1.17188 -0.60938,0.40625 -1.40622,0.40625 -0.45313,0 -0.90625,-0.1875 -0.4375,-0.1875 -0.85938,-0.67188 v 1.04688 q 0,0.53125 0,1.0625 0.0156,0.54687 0.0156,1.09375 l 1.21875,0.20312 v 0.46875 z m 3.84375,-8.9375 q -0.3125,0 -0.71875,0.15625 -0.39062,0.15625 -0.90625,0.57813 v 3.75 q 0.375,0.35937 0.73438,0.51562 0.35937,0.15625 0.73437,0.15625 0.74997,0 1.28122,-0.59375 0.53125,-0.59375 0.53125,-1.89062 0,-1.28125 -0.46875,-1.96875 -0.46875,-0.70313 -1.18747,-0.70313 z m 6.05881,5.92188 q -0.6875,0 -1.10938,-0.375 -0.40625,-0.375 -0.40625,-1.14063 0,-0.25 0,-0.5 0,-0.25 0,-0.64062 v -3.14063 h -1.09375 v -0.57812 l 1.1875,-0.15625 0.34375,-1.78125 h 0.79688 l -0.0781,1.8125 h 1.79688 v 0.70312 h -1.8125 v 4.125 q 0,0.51563 0.20312,0.75 0.20313,0.23438 0.53125,0.23438 0.21875,0 0.42188,-0.0937 0.21875,-0.0937 0.46875,-0.26563 l 0.32812,0.34375 q -0.54687,0.70313 -1.57812,0.70313 z m 2.36285,-4.25 v -0.625 l 5.15625,-3 0.39063,0.71875 -4.625,2.59375 4.625,2.59375 -0.39063,0.71875 z m 9.28034,4.25 q -0.8125,0 -1.28125,-0.53125 -0.46875,-0.54688 -0.45313,-1.85938 l 0.0469,-3.32812 -0.95313,-0.20313 v -0.46875 l 1.96875,-0.1875 0.125,0.125 -0.0625,1.875 v 2.0625 q 0,0.85938 0.26563,1.21875 0.26562,0.35938 0.79687,0.35938 0.9375,0 1.875,-0.875 l 0.0312,-3.92188 -0.9375,-0.1875 v -0.46875 l 1.92188,-0.1875 0.14062,0.125 -0.0469,1.875 v 3.73438 l 0.90625,0.1875 v 0.48437 l -1.84375,0.10938 -0.14063,-1.1875 q -0.53125,0.65625 -1.14062,0.95312 -0.60938,0.29688 -1.21875,0.29688 z m 7.06714,-5.03125 h 0.53125 q 0.90625,0 1.40625,-0.46875 0.5,-0.46875 0.5,-1.32813 0,-0.73437 -0.42188,-1.125 -0.40625,-0.40625 -1.20312,-0.40625 -0.125,0 -0.28125,0.0156 -0.14063,0.0156 -0.32813,0.0469 l -0.17187,0.65625 q -0.10938,0.42188 -0.26563,0.625 -0.15625,0.20313 -0.51562,0.20313 -0.20313,0 -0.375,-0.0937 -0.17188,-0.10938 -0.26563,-0.375 0.1875,-0.82813 0.84375,-1.25 0.67188,-0.42188 1.59375,-0.42188 1.17188,0 1.85938,0.57813 0.6875,0.57812 0.6875,1.51562 0,0.71875 -0.45313,1.28125 -0.45312,0.5625 -1.28125,0.85938 1.01563,0.20312 1.51563,0.78125 0.5,0.5625 0.5,1.39062 0,0.71875 -0.375,1.29688 -0.375,0.57812 -1.04688,0.92187 -0.67187,0.32813 -1.57812,0.32813 -0.96875,0 -1.67188,-0.4375 -0.6875,-0.45313 -0.875,-1.45313 0.21875,-0.4375 0.67188,-0.4375 0.34375,0 0.5,0.23438 0.15625,0.21875 0.29687,0.71875 l 0.17188,0.70312 q 0.21875,0.0469 0.40625,0.0625 0.1875,0.0156 0.32812,0.0156 1,0 1.48438,-0.51563 0.5,-0.51562 0.5,-1.40625 0,-0.875 -0.51563,-1.35937 -0.5,-0.5 -1.53125,-0.5 h -0.64062 z m 5.05468,4.85937 v -0.85937 q 0.53125,-0.53125 1.03125,-1.03125 0.5,-0.51563 0.92188,-0.96875 1,-1.0625 1.46875,-1.90625 0.46875,-0.85938 0.46875,-1.625 0,-0.82813 -0.4375,-1.3125 -0.4375,-0.48438 -1.17188,-0.48438 -0.125,0 -0.29687,0.0156 -0.15625,0.0156 -0.34375,0.0625 l -0.26563,0.90625 q -0.125,0.5 -0.3125,0.70312 -0.17187,0.20313 -0.45312,0.20313 -0.4375,0 -0.67188,-0.42188 0.0781,-0.70312 0.45313,-1.15625 0.39062,-0.46875 0.96875,-0.6875 0.59375,-0.21875 1.26562,-0.21875 1.29688,0 1.875,0.64063 0.59375,0.625 0.59375,1.625 0,0.57812 -0.23437,1.14062 -0.23438,0.54688 -0.8125,1.23438 -0.57813,0.6875 -1.59375,1.67187 -0.26563,0.26563 -0.65625,0.625 -0.375,0.35938 -0.78125,0.75 h 4.45312 v 1.09375 z m 12.32025,-4.70312 v 0.625 l -5.15625,3 -0.39062,-0.71875 4.625,-2.59375 -4.625,-2.59375 0.39062,-0.71875 z"
       id="path47"
       inkscape:connector-curvature="0"
       style="fill:#202122;fill-rule:nonzero" />
    <path
       d="M 447.86615,250.16048 H 585.8819 v 14.86613 H 447.86615 Z"
       id="path49"
       inkscape:connector-curvature="0"
       style="fill:#000000;fill-opacity:0;fill-rule:evenodd" />
    <path
       d="m 453.03238,261.82663 v -0.48437 l 1,-0.17188 q 0,-0.5 0,-1.09375 0.0156,-0.59375 0.0156,-1.04687 v -5.8594 l -1.09375,-0.125 v -0.46875 l 2.04688,-0.59375 0.1875,0.0937 -0.0625,1.90625 v 2.3594 q 0.48437,-0.53127 1,-0.76565 0.51562,-0.25 1.0625,-0.25 0.70312,0 1.26562,0.39063 0.57813,0.37502 0.92188,1.10939 0.34375,0.73438 0.34375,1.78125 0,1.01563 -0.35938,1.78125 -0.35937,0.76563 -0.98437,1.1875 -0.625,0.42188 -1.40625,0.42188 -0.46875,0 -0.9375,-0.20313 -0.45313,-0.20312 -0.90625,-0.73437 l -0.0937,0.90625 z m 3.79687,-5.75 q -0.3125,0 -0.71875,0.17188 -0.39062,0.15625 -0.9375,0.60937 v 3.65625 q 0.40625,0.375 0.8125,0.54688 0.40625,0.17187 0.76563,0.17187 0.71875,0 1.23437,-0.60937 0.53125,-0.625 0.53125,-1.92188 0,-1.26562 -0.48437,-1.9375 -0.46875,-0.6875 -1.20313,-0.6875 z m 4.14344,5.75 v -0.85937 q 0.53125,-0.53125 1.03125,-1.03125 0.5,-0.51563 0.92187,-0.96875 1,-1.0625 1.46875,-1.90625 0.46875,-0.85938 0.46875,-1.62502 0,-0.82813 -0.4375,-1.3125 -0.4375,-0.48438 -1.17187,-0.48438 -0.125,0 -0.29688,0.0156 -0.15625,0.0156 -0.34375,0.0625 l -0.26562,0.90625 q -0.125,0.5 -0.3125,0.70312 -0.17188,0.20313 -0.45313,0.20313 -0.4375,0 -0.67187,-0.42188 0.0781,-0.70312 0.45312,-1.15625 0.39063,-0.46875 0.96875,-0.6875 0.59375,-0.21875 1.26563,-0.21875 1.29687,0 1.875,0.64063 0.59375,0.625 0.59375,1.625 0,0.57812 -0.23438,1.14064 -0.23437,0.54688 -0.8125,1.23438 -0.57812,0.6875 -1.59375,1.67187 -0.26562,0.26563 -0.65625,0.625 -0.375,0.35938 -0.78125,0.75 h 4.45313 v 1.09375 z m 8.00778,-4.67187 q -0.40625,0 -0.6875,-0.28125 -0.26563,-0.28125 -0.26563,-0.65625 0,-0.40627 0.26563,-0.68752 0.28125,-0.28125 0.6875,-0.28125 0.40625,0 0.67187,0.28125 0.28125,0.28125 0.28125,0.68752 0,0.375 -0.28125,0.65625 -0.26562,0.28125 -0.67187,0.28125 z m 0,4.84375 q -0.40625,0 -0.6875,-0.28125 -0.26563,-0.28125 -0.26563,-0.65625 0,-0.40625 0.26563,-0.6875 0.28125,-0.28125 0.6875,-0.28125 0.40625,0 0.67187,0.28125 0.28125,0.28125 0.28125,0.6875 0,0.375 -0.28125,0.65625 -0.26562,0.28125 -0.67187,0.28125 z m 9.3851,-8.46877 h -1.15625 q 0,0.875 -0.0156,1.75 0,0.87502 0,1.81252 h 1.01562 q 1.09375,0 1.59375,-0.51563 0.51563,-0.51562 0.51563,-1.32814 0,-0.82812 -0.46875,-1.26562 -0.46875,-0.45313 -1.48438,-0.45313 z m -3.6875,-0.0781 v -0.54688 h 3.71875 q 1.53125,0 2.39063,0.625 0.85937,0.60938 0.85937,1.71875 0,0.76564 -0.5625,1.40627 -0.5625,0.64062 -1.6875,0.84375 0.59375,0.10937 0.96875,0.51562 0.375,0.39063 0.60938,1.17188 l 0.57812,1.96875 1.01563,0.125 v 0.54687 q -0.1875,0.0469 -0.4375,0.0937 -0.25,0.0469 -0.5625,0.0469 -0.625,0 -0.9375,-0.1875 -0.3125,-0.1875 -0.42188,-0.67188 l -0.54687,-2.14062 q -0.10938,-0.54688 -0.34375,-0.8125 -0.21875,-0.26563 -0.57813,-0.35938 -0.34375,-0.0937 -0.89062,-0.0937 h -0.65625 q 0,0.95313 0,1.79688 0.0156,0.82812 0.0156,1.64062 l 1.23438,0.14063 v 0.54687 h -3.76563 v -0.54687 l 1.21875,-0.14063 q 0.0312,-0.84375 0.0312,-1.70312 0,-0.875 0,-1.73438 v -0.65625 q 0,-0.875 0,-1.73439 0,-0.85937 -0.0312,-1.70312 z m 11.52762,2.48437 q -0.35938,0 -0.75,0.21877 -0.375,0.20312 -0.65625,0.67187 -0.26563,0.46875 -0.34375,1.23438 h 2.42187 q 0.48438,0 0.625,-0.1875 0.15625,-0.20313 0.15625,-0.5 0,-0.39063 -0.1875,-0.70313 -0.1875,-0.32812 -0.51562,-0.53125 -0.32813,-0.20314 -0.75,-0.20314 z m 0,6.06252 q -1.35938,0 -2.17188,-0.875 -0.8125,-0.875 -0.8125,-2.40625 0,-1.01563 0.42188,-1.78125 0.42187,-0.76563 1.125,-1.18752 0.70312,-0.42187 1.53125,-0.42187 0.6875,0 1.25,0.3125 0.5625,0.29687 0.89062,0.85939 0.32813,0.5625 0.32813,1.39062 0,0.21875 -0.0312,0.42188 -0.0156,0.1875 -0.0625,0.3125 h -4.25 q 0.0312,1.23437 0.60937,1.875 0.59375,0.64062 1.54688,0.64062 0.64062,0 1.0625,-0.26562 0.4375,-0.26563 0.79687,-0.67188 l 0.3125,0.25 q -0.375,0.70313 -1.01562,1.125 -0.625,0.42188 -1.53125,0.42188 z m 8.63275,-0.0312 q -0.48438,0 -0.8125,-0.28125 -0.3125,-0.28125 -0.39063,-0.75 -0.54687,0.53125 -0.96875,0.79687 -0.40625,0.26563 -0.98437,0.26563 -0.73438,0 -1.26563,-0.42188 -0.53125,-0.42187 -0.53125,-1.25 0,-0.375 0.17188,-0.70312 0.1875,-0.34375 0.67187,-0.65625 0.48438,-0.32813 1.375,-0.64063 0.3125,-0.10937 0.70313,-0.23437 0.40625,-0.125 0.79687,-0.20313 v -0.34375 q 0,-0.96875 -0.29687,-1.28125 -0.28125,-0.32814 -0.95313,-0.32814 -0.14062,0 -0.32812,0.0156 -0.17188,0.0156 -0.39063,0.0625 l -0.25,0.875 q -0.1875,0.625 -0.6875,0.625 -0.5625,0 -0.64062,-0.53125 0.1875,-0.76562 0.89062,-1.20314 0.70313,-0.45312 1.71875,-0.45312 1.04688,0 1.54688,0.53125 0.51562,0.51564 0.51562,1.78126 v 2.84375 q 0,0.42188 0.125,0.60938 0.14063,0.17187 0.35938,0.17187 0.17187,0 0.28125,-0.0781 0.125,-0.0781 0.23437,-0.21875 l 0.26563,0.29687 q -0.23438,0.39063 -0.53125,0.54688 -0.28125,0.15625 -0.625,0.15625 z m -3.76563,-1.82813 q 0,0.53125 0.3125,0.76563 0.3125,0.21875 0.76563,0.21875 0.1875,0 0.35937,-0.0469 0.1875,-0.0625 0.4375,-0.21875 0.26563,-0.15625 0.65625,-0.4375 v -2.04687 q -0.34375,0.0937 -0.67187,0.21875 -0.32813,0.10937 -0.54688,0.1875 -0.57812,0.21875 -0.85937,0.46875 -0.28125,0.23437 -0.375,0.46875 -0.0781,0.21875 -0.0781,0.42187 z m 6.79963,-1.4375 q 0,1.29688 0.53125,1.92188 0.53125,0.60937 1.32812,0.60937 0.4375,0 0.76563,-0.17187 0.34375,-0.1875 0.71875,-0.59375 v -3.6875 q -0.45313,-0.40625 -0.8125,-0.54688 -0.35938,-0.15625 -0.6875,-0.15625 -0.5,0 -0.92188,0.28125 -0.40625,0.26563 -0.67187,0.85938 -0.25,0.57812 -0.25,1.48437 z m 3.48437,3.26563 -0.0937,-0.92188 q -0.34375,0.45313 -0.79687,0.70313 -0.45313,0.25 -1.07813,0.25 -0.8125,0 -1.42187,-0.40625 -0.60938,-0.42188 -0.95313,-1.15625 -0.34375,-0.73438 -0.34375,-1.71875 0,-1.01563 0.375,-1.78125 0.375,-0.76563 1.01563,-1.18752 0.64062,-0.42187 1.45312,-0.42187 0.46875,0 0.89063,0.1875 0.4375,0.1875 0.85937,0.67189 v -3.01565 l -1.14062,-0.125 v -0.46875 l 2.07812,-0.59375 0.1875,0.0937 -0.0469,1.90625 v 7.20315 l 1.07812,0.15625 v 0.48437 z m 6.36118,-5.98439 v -0.48438 h 2.60937 v 0.48438 l -0.71875,0.14064 -2.15625,5.65625 q -0.65625,1.78125 -1.28125,2.5625 -0.625,0.79687 -1.45312,0.79687 -0.48438,0 -0.85938,-0.25 -0.35937,-0.23437 -0.35937,-0.625 0.0625,-0.29687 0.32812,-0.4375 0.26563,-0.14062 0.5625,-0.14062 0.26563,0 0.48438,0.10937 0.23437,0.10938 0.5,0.39063 l 0.0781,0.0625 q 0.42188,-0.35938 0.70313,-0.875 0.29687,-0.5 0.48437,-1.04688 l 0.0625,-0.15625 -2.42187,-6.09375 -0.73438,-0.0938 v -0.48438 h 3.20313 v 0.48438 l -1.17188,0.14064 1.67188,4.54687 1.64062,-4.53125 z m 3.37085,1.76564 v -0.625 l 5.15628,-3.00002 0.39062,0.71875 -4.625,2.59377 4.625,2.59375 -0.39062,0.71875 z m 11.03036,4.28125 q -0.78125,0 -1.51562,-0.29688 -0.71875,-0.3125 -1.3125,-0.89062 -0.57813,-0.59375 -0.92188,-1.45313 -0.34375,-0.875 -0.34375,-2.03125 0,-1.09375 0.34375,-1.95314 0.34375,-0.875 0.92188,-1.46875 0.59375,-0.59375 1.3125,-0.90625 0.73437,-0.3125 1.51562,-0.3125 0.76563,0 1.48438,0.29688 0.73437,0.29687 1.3125,0.89062 0.59375,0.57813 0.9375,1.45313 0.34375,0.85939 0.34375,2.00001 0,1.09375 -0.34375,1.96875 -0.34375,0.85938 -0.92188,1.46875 -0.57812,0.60938 -1.3125,0.92188 -0.73437,0.3125 -1.5,0.3125 z m 0,-0.67188 q 0.6875,0 1.1875,-0.32812 0.5,-0.34375 0.8125,-0.90625 0.3125,-0.57813 0.45313,-1.28125 0.15625,-0.71875 0.15625,-1.48438 0,-0.75 -0.15625,-1.45314 -0.14063,-0.71875 -0.45313,-1.28125 -0.3125,-0.57812 -0.8125,-0.90625 -0.5,-0.34375 -1.1875,-0.34375 -0.6875,0 -1.1875,0.34375 -0.5,0.32813 -0.82812,0.90625 -0.3125,0.5625 -0.46875,1.28125 -0.15625,0.70314 -0.15625,1.45314 0,0.76563 0.15625,1.48438 0.15625,0.70312 0.46875,1.28125 0.32812,0.5625 0.82812,0.90625 0.5,0.32812 1.1875,0.32812 z m 5.17291,3.65625 v -0.46875 l 1.0625,-0.1875 q 0.0156,-0.54687 0.0156,-1.09375 0.0156,-0.53125 0.0156,-1.0625 v -3.8125 q 0,-0.54687 -0.0156,-0.90625 0,-0.35937 -0.0312,-0.76562 l -1.04688,-0.10938 v -0.46875 l 1.85938,-0.81251 0.20312,0.125 0.0781,0.87501 q 0.95312,-1.00001 2.01562,-1.00001 0.71875,0 1.28125,0.40625 0.57813,0.39064 0.92188,1.14064 0.34375,0.73437 0.34375,1.76562 0,1.03125 -0.35938,1.78125 -0.35937,0.75 -0.98437,1.17188 -0.60938,0.40625 -1.40625,0.40625 -0.45313,0 -0.90625,-0.1875 -0.4375,-0.1875 -0.85938,-0.67188 v 1.04688 q 0,0.53125 0,1.0625 0.0156,0.54687 0.0156,1.09375 l 1.21875,0.20312 v 0.46875 z m 3.84375,-8.9375 q -0.3125,0 -0.71875,0.15625 -0.39062,0.15625 -0.90625,0.57813 v 3.75 q 0.375,0.35937 0.73438,0.51562 0.35937,0.15625 0.73437,0.15625 0.75,0 1.28125,-0.59375 0.53125,-0.59375 0.53125,-1.89062 0,-1.28125 -0.46875,-1.96875 -0.46875,-0.70313 -1.1875,-0.70313 z m 6.05884,5.92188 q -0.6875,0 -1.10937,-0.375 -0.40625,-0.375 -0.40625,-1.14063 0,-0.25 0,-0.5 0,-0.25 0,-0.64062 v -3.14063 h -1.09375 v -0.57814 l 1.1875,-0.15625 0.34375,-1.78125 h 0.79687 l -0.0781,1.8125 h 1.79687 v 0.70314 h -1.8125 v 4.125 q 0,0.51563 0.20313,0.75 0.20312,0.23438 0.53125,0.23438 0.21875,0 0.42187,-0.0937 0.21875,-0.0937 0.46875,-0.26563 l 0.32813,0.34375 q -0.54688,0.70313 -1.57813,0.70313 z m 2.36286,-4.25 v -0.625 l 5.15625,-3.00002 0.39062,0.71875 -4.625,2.59377 4.625,2.59375 -0.39062,0.71875 z m 9.28033,4.25 q -0.8125,0 -1.28125,-0.53125 -0.46875,-0.54688 -0.45313,-1.85938 l 0.0469,-3.32812 -0.95313,-0.20313 v -0.46876 l 1.96875,-0.1875 0.125,0.125 -0.0625,1.87501 v 2.0625 q 0,0.85938 0.26563,1.21875 0.26562,0.35938 0.79687,0.35938 0.9375,0 1.875,-0.875 l 0.0312,-3.92188 -0.9375,-0.1875 v -0.46876 l 1.92188,-0.1875 0.14062,0.125 -0.0469,1.87501 v 3.73438 l 0.90625,0.1875 v 0.48437 l -1.84375,0.10938 -0.14063,-1.1875 q -0.53125,0.65625 -1.14062,0.95312 -0.60938,0.29688 -1.21875,0.29688 z m 7.06714,-5.03125 h 0.53125 q 0.90625,0 1.40625,-0.46875 0.5,-0.46875 0.5,-1.32814 0,-0.73438 -0.42188,-1.125 -0.40625,-0.40625 -1.20312,-0.40625 -0.125,0 -0.28125,0.0156 -0.14063,0.0156 -0.32813,0.0469 l -0.17187,0.65625 q -0.10938,0.42187 -0.26563,0.625 -0.15625,0.20312 -0.51562,0.20312 -0.20313,0 -0.375,-0.0937 -0.17188,-0.10937 -0.26563,-0.375 0.1875,-0.82812 0.84375,-1.25 0.67188,-0.42187 1.59375,-0.42187 1.17188,0 1.85938,0.57812 0.6875,0.57813 0.6875,1.51563 0,0.71875 -0.45313,1.28126 -0.45312,0.5625 -1.28125,0.85938 1.01563,0.20312 1.51563,0.78125 0.5,0.5625 0.5,1.39062 0,0.71875 -0.375,1.29688 -0.375,0.57812 -1.04688,0.92187 -0.67187,0.32813 -1.57812,0.32813 -0.96875,0 -1.67188,-0.4375 -0.6875,-0.45313 -0.875,-1.45313 0.21875,-0.4375 0.67188,-0.4375 0.34375,0 0.5,0.23438 0.15625,0.21875 0.29687,0.71875 l 0.17188,0.70312 q 0.21875,0.0469 0.40625,0.0625 0.1875,0.0156 0.32812,0.0156 1,0 1.48438,-0.51563 0.5,-0.51562 0.5,-1.40625 0,-0.875 -0.51563,-1.35937 -0.5,-0.5 -1.53125,-0.5 h -0.64062 z m 5.05463,4.85937 v -0.85937 q 0.53125,-0.53125 1.03125,-1.03125 0.5,-0.51563 0.92187,-0.96875 1,-1.0625 1.46875,-1.90625 0.46875,-0.85938 0.46875,-1.62502 0,-0.82812 -0.4375,-1.3125 -0.4375,-0.48437 -1.17187,-0.48437 -0.125,0 -0.29688,0.0156 -0.15625,0.0156 -0.34375,0.0625 l -0.26562,0.90625 q -0.125,0.5 -0.3125,0.70313 -0.17188,0.20312 -0.45313,0.20312 -0.4375,0 -0.67187,-0.42187 0.0781,-0.70313 0.45312,-1.15625 0.39063,-0.46875 0.96875,-0.6875 0.59375,-0.21875 1.26563,-0.21875 1.29687,0 1.875,0.64062 0.59375,0.625 0.59375,1.625 0,0.57813 -0.23438,1.14064 -0.23437,0.54688 -0.8125,1.23438 -0.57812,0.6875 -1.59375,1.67187 -0.26562,0.26563 -0.65625,0.625 -0.375,0.35938 -0.78125,0.75 h 4.45313 v 1.09375 z m 12.32031,-4.70312 v 0.625 l -5.15625,3 -0.39063,-0.71875 4.625,-2.59375 -4.625,-2.59377 0.39063,-0.71875 z m 7.07721,0 v 0.625 l -5.15625,3 -0.39063,-0.71875 4.625,-2.59375 -4.625,-2.59377 0.39063,-0.71875 z"
       id="path51"
       inkscape:connector-curvature="0"
       style="fill:#202122;fill-rule:nonzero" />
    <path
       d="m 585.9732,213.63185 h 91.81104 v 76.50392 H 585.9732 Z"
       id="path53"
       inkscape:connector-curvature="0"
       style="fill:#d9d9d9;fill-rule:evenodd" />
    <path
       d="m 585.9732,213.63185 h 91.81104 v 76.50392 H 585.9732 Z"
       id="path55"
       inkscape:connector-curvature="0"
       style="fill-rule:evenodd;stroke:#595959;stroke-width:1;stroke-linecap:butt;stroke-linejoin:round" />
    <path
       d="m 585.96063,185.07874 h 91.81097 v 27.87402 h -91.81097 z"
       id="path57"
       inkscape:connector-curvature="0"
       style="fill:#000000;fill-opacity:0;fill-rule:evenodd" />
    <path
       d="m 620.33344,204.5145 q -1.39063,0 -2.54688,-0.67188 l 0.0469,-1.79687 h 1.17187 l 0.25,1.45312 q 0.26563,0.10938 0.53125,0.15625 0.26563,0.0469 0.5625,0.0469 0.64063,0 0.96875,-0.20313 0.34375,-0.21875 0.34375,-0.65625 0,-0.32812 -0.25,-0.57812 -0.25,-0.25 -0.98437,-0.45313 l -0.79688,-0.23437 q -0.84375,-0.25 -1.3125,-0.8125 -0.45312,-0.5625 -0.45312,-1.375 0,-1.01563 0.78125,-1.70313 0.79687,-0.70312 2.28125,-0.70312 0.64062,0 1.1875,0.15625 0.54687,0.15625 1.125,0.4375 l -0.0937,1.60937 h -1.1875 l -0.28125,-1.26562 q -0.3125,-0.125 -0.8125,-0.125 -0.5,0 -0.79688,0.21875 -0.29687,0.20312 -0.29687,0.60937 0,0.29688 0.23437,0.53125 0.23438,0.21875 1,0.45313 l 0.71875,0.20312 q 1.03125,0.3125 1.48438,0.89063 0.45312,0.5625 0.45312,1.375 0,1.15625 -0.89062,1.79687 -0.875,0.64063 -2.4375,0.64063 z m 4.06311,-0.21875 v -0.6875 l 0.79688,-0.17188 q 0.0156,-0.53125 0.0156,-1.14062 0,-0.625 0,-1.07813 v -0.70312 q 0,-0.59375 -0.0156,-1 0,-0.40625 -0.0312,-0.84375 l -0.90625,-0.14063 v -0.5625 l 3.07812,-0.98437 0.25,0.15625 -0.0469,2.125 v 1.95312 q 0,0.45313 0,1.07813 0,0.625 0.0156,1.17187 l 0.73438,0.14063 v 0.6875 z m 1.95313,-8.39063 q -0.51563,0 -0.89063,-0.32812 -0.35937,-0.34375 -0.35937,-0.84375 0,-0.5 0.35937,-0.82813 0.375,-0.34375 0.89063,-0.34375 0.51562,0 0.875,0.34375 0.375,0.32813 0.375,0.82813 0,0.5 -0.375,0.84375 -0.35938,0.32812 -0.875,0.32812 z m 2.64697,8.39063 v -0.6875 l 0.79687,-0.17188 q 0.0156,-0.53125 0.0156,-1.14062 0,-0.625 0,-1.07813 v -0.84375 q 0,-0.60937 -0.0156,-0.9375 0,-0.32812 -0.0312,-0.76562 l -0.89062,-0.14063 v -0.5625 l 2.89062,-0.98437 0.25,0.15625 0.0937,1.0625 q 0.57813,-0.67188 1.14063,-0.9375 0.5625,-0.28125 1.20312,-0.28125 0.95313,0 1.53125,0.64062 0.57813,0.625 0.57813,1.875 v 1.71875 q 0,0.48438 0,1.09375 0,0.60938 0.0156,1.15625 l 0.73438,0.14063 v 0.6875 h -3.875 v -0.6875 l 0.76562,-0.15625 q 0.0156,-0.54688 0.0156,-1.15625 0,-0.60938 0,-1.07813 v -1.53125 q 0,-0.70312 -0.1875,-0.98437 -0.1875,-0.29688 -0.60938,-0.29688 -0.57812,0 -1.26562,0.53125 v 2.28125 q 0,0.45313 0,1.07813 0,0.625 0.0156,1.17187 l 0.6875,0.14063 v 0.6875 z m 8.99707,0 v -0.6875 l 0.82812,-0.17188 q 0.0156,-0.54687 0.0156,-1.15625 0,-0.625 0,-1.0625 V 195.077 l -0.90625,-0.14063 v -0.625 l 3.07812,-0.65625 0.23438,0.14063 -0.0625,2.0625 v 4.5 l 2.375,-2.32813 -1.10938,-0.17187 v -0.64063 h 3.53125 v 0.64063 l -1.32812,0.1875 -1.28125,1.21875 2.0625,4.125 0.9375,0.21875 v 0.6875 h -2.98438 l -1.65625,-3.5 -0.54687,0.51562 q 0,0.48438 0,1.0625 0.0156,0.57813 0.0156,1.07813 l 0.79688,0.15625 v 0.6875 z"
       id="path59"
       inkscape:connector-curvature="0"
       style="fill:#202122;fill-rule:nonzero" />
    <path
       d="m 342.4171,185.07874 h 105.44882 v 27.87402 H 342.4171 Z"
       id="path61"
       inkscape:connector-curvature="0"
       style="fill:#000000;fill-opacity:0;fill-rule:evenodd" />
    <path
       d="m 349.46173,204.29575 v -0.6875 l 0.79687,-0.17188 q 0.0156,-0.53125 0.0156,-1.14062 0,-0.625 0,-1.07813 v -0.84375 q 0,-0.60937 -0.0156,-0.9375 0,-0.32812 -0.0312,-0.76562 l -0.89062,-0.14063 v -0.5625 l 2.89062,-0.98437 0.25,0.15625 0.0937,1.0625 q 0.51563,-0.60938 1.07813,-0.90625 0.5625,-0.3125 1.20312,-0.3125 1.51563,0 1.95313,1.29687 0.60937,-0.71875 1.17187,-1 0.5625,-0.29687 1.1875,-0.29687 1.125,0 1.625,0.64062 0.51563,0.64063 0.51563,1.95313 v 1.64062 q 0,0.46875 0,1.09375 0,0.60938 0.0156,1.14063 l 0.73438,0.15625 v 0.6875 h -3.78125 v -0.6875 l 0.71875,-0.17188 q 0.0156,-0.53125 0.0156,-1.14062 0,-0.60938 0,-1.07813 v -1.42187 q 0,-0.8125 -0.1875,-1.09375 -0.1875,-0.29688 -0.65625,-0.29688 -0.60937,0 -1.21875,0.53125 0.0156,0.125 0.0156,0.26563 0.0156,0.14062 0.0156,0.29687 v 1.71875 q 0,0.48438 0,1.09375 0,0.60938 0,1.15625 l 0.70313,0.14063 v 0.6875 h -3.78125 v -0.6875 l 0.75,-0.17188 q 0.0156,-0.53125 0.0156,-1.14062 0,-0.60938 0,-1.07813 v -1.40625 q 0,-0.78125 -0.1875,-1.09375 -0.17187,-0.3125 -0.65625,-0.3125 -0.3125,0 -0.625,0.15625 -0.29687,0.14063 -0.57812,0.375 v 2.28125 q 0,0.45313 0,1.07813 0,0.625 0.0156,1.17187 l 0.6875,0.14063 v 0.6875 z m 18.86249,0.20312 q -1.26563,0 -1.60938,-1.04687 -0.46875,0.48437 -0.90625,0.78125 -0.42187,0.28125 -1.1875,0.28125 -0.84375,0 -1.39062,-0.48438 -0.53125,-0.48437 -0.53125,-1.39062 0,-0.53125 0.23437,-0.95313 0.23438,-0.42187 0.84375,-0.78125 0.625,-0.375 1.75,-0.70312 0.21875,-0.0625 0.51563,-0.14063 0.29687,-0.0781 0.59375,-0.14062 v -0.48438 q 0,-0.98437 -0.25,-1.32812 -0.23438,-0.35938 -0.9375,-0.35938 -0.0937,0 -0.1875,0 -0.0781,0 -0.20313,0.0156 l -0.0781,0.64062 q -0.0156,0.71875 -0.32813,1.04688 -0.3125,0.3125 -0.73437,0.3125 -0.8125,0 -0.98438,-0.73438 0.0625,-0.90625 0.92188,-1.46875 0.875,-0.57812 2.45312,-0.57812 1.40625,0 2.01563,0.64062 0.60937,0.64063 0.60937,2.125 v 3.28125 q 0,0.4375 0.3125,0.4375 0.125,0 0.21875,-0.0625 0.10938,-0.0781 0.23438,-0.26562 l 0.39062,0.26562 q -0.26562,0.57813 -0.6875,0.84375 -0.42187,0.25 -1.07812,0.25 z m -3.45313,-2.23437 q 0,0.53125 0.25,0.79687 0.26563,0.26563 0.625,0.26563 0.17188,0 0.34375,-0.0625 0.17188,-0.0781 0.54688,-0.34375 v -2.375 q -0.1875,0.0625 -0.375,0.125 -0.17188,0.0625 -0.3125,0.125 -0.5,0.20312 -0.79688,0.57812 -0.28125,0.375 -0.28125,0.89063 z m 5.28604,5.35937 v -0.6875 l 0.82813,-0.17187 q 0.0156,-0.70313 0.0156,-1.29688 0.0156,-0.57812 0.0156,-1.125 v -3.96875 q 0,-0.60937 -0.0156,-0.9375 0,-0.32812 -0.0312,-0.76562 l -0.90625,-0.14063 v -0.5625 l 2.85938,-0.98437 0.25,0.14062 0.0625,0.82813 q 0.92187,-0.96875 2.17187,-0.96875 0.8125,0 1.45313,0.42187 0.64062,0.42188 1.03125,1.26563 0.39062,0.82812 0.39062,2.04687 0,1.17188 -0.4375,2.03125 -0.4375,0.85938 -1.15625,1.3125 -0.70312,0.45313 -1.54687,0.45313 -1.125,0 -1.84375,-0.76563 v 0.57813 q 0,0.54687 0,1.125 0.0156,0.59375 0.0312,1.26562 l 0.9375,0.21875 v 0.6875 z m 4.1875,-9.35937 q -0.28125,0 -0.53125,0.125 -0.23437,0.10937 -0.46875,0.28125 v 4.25 q 0.4375,0.35937 0.95313,0.35937 0.65625,0 1.0625,-0.60937 0.42187,-0.625 0.42187,-1.92188 0,-1.29687 -0.40625,-1.89062 -0.39062,-0.59375 -1.03125,-0.59375 z m 4.10337,7.34375 v -1.3125 h 6.71875 v 1.3125 z m 7.69662,-1.3125 v -0.6875 l 0.8125,-0.15625 q 0.0156,-0.54688 0.0156,-1.15625 0,-0.625 0,-1.07813 v -0.85937 q 0,-0.42188 -0.0156,-0.67188 0,-0.26562 -0.0156,-0.48437 0,-0.23438 -0.0156,-0.53125 l -0.89062,-0.14063 v -0.5625 l 2.89062,-0.98437 0.25,0.15625 0.14063,1.73437 q 0.3125,-0.9375 0.85937,-1.40625 0.5625,-0.48437 1.10938,-0.48437 0.48437,0 0.82812,0.28125 0.35938,0.26562 0.4375,0.79687 -0.0156,0.57813 -0.3125,0.89063 -0.28125,0.3125 -0.71875,0.3125 -0.625,0 -1.14062,-0.6875 l -0.0781,-0.10938 q -0.32812,0.29688 -0.60937,0.76563 -0.26563,0.46875 -0.375,0.98437 v 1 q 0,0.45313 0,1.04688 0,0.57812 0.0156,1.09375 l 1.15625,0.25 v 0.6875 z m 10.22211,-6.54688 q -0.40625,0 -0.75,0.5 -0.34375,0.5 -0.39063,1.85938 h 1.23438 q 0.53125,0 0.71875,-0.20313 0.1875,-0.21875 0.1875,-0.71875 0,-0.73437 -0.29688,-1.07812 -0.29687,-0.35938 -0.70312,-0.35938 z m 0.0312,6.76563 q -1.07813,0 -1.90625,-0.4375 -0.8125,-0.45313 -1.28125,-1.29688 -0.46875,-0.84375 -0.46875,-2.01562 0,-1.23438 0.54687,-2.07813 0.5625,-0.84375 1.42188,-1.26562 0.85937,-0.4375 1.79687,-0.4375 0.96875,0 1.64063,0.40625 0.6875,0.40625 1.03125,1.10937 0.35937,0.70313 0.35937,1.59375 0,0.42188 -0.0781,0.78125 h -4.23438 q 0.0625,1.15625 0.625,1.70313 0.57813,0.54687 1.32813,0.54687 0.60937,0 1.03125,-0.21875 0.42187,-0.23437 0.75,-0.57812 l 0.51562,0.46875 q -0.45312,0.875 -1.23437,1.29687 -0.78125,0.42188 -1.84375,0.42188 z m 6.54221,0 q -1.39063,0 -2.54688,-0.67188 l 0.0469,-1.79687 h 1.17187 l 0.25,1.45312 q 0.26563,0.10938 0.53125,0.15625 0.26563,0.0469 0.5625,0.0469 0.64063,0 0.96875,-0.20313 0.34375,-0.21875 0.34375,-0.65625 0,-0.32812 -0.25,-0.57812 -0.25,-0.25 -0.98437,-0.45313 l -0.79688,-0.23437 q -0.84375,-0.25 -1.3125,-0.8125 -0.45312,-0.5625 -0.45312,-1.375 0,-1.01563 0.78125,-1.70313 0.79687,-0.70312 2.28125,-0.70312 0.64062,0 1.1875,0.15625 0.54687,0.15625 1.125,0.4375 l -0.0937,1.60937 h -1.1875 l -0.28125,-1.26562 q -0.3125,-0.125 -0.8125,-0.125 -0.5,0 -0.79688,0.21875 -0.29687,0.20312 -0.29687,0.60937 0,0.29688 0.23437,0.53125 0.23438,0.21875 1,0.45313 l 0.71875,0.20312 q 1.03125,0.3125 1.48438,0.89063 0.45312,0.5625 0.45312,1.375 0,1.15625 -0.89062,1.79687 -0.875,0.64063 -2.4375,0.64063 z m 7.82485,0 q -1.14062,0 -1.98437,-0.46875 -0.82813,-0.48438 -1.28125,-1.34375 -0.45313,-0.85938 -0.45313,-1.98438 0,-1.125 0.48438,-1.95312 0.5,-0.84375 1.34375,-1.3125 0.85937,-0.46875 1.89062,-0.46875 1.04688,0 1.89063,0.45312 0.84375,0.45313 1.34375,1.29688 0.5,0.84375 0.5,1.98437 0,1.14063 -0.45313,2 -0.45312,0.84375 -1.29687,1.32813 -0.82813,0.46875 -1.98438,0.46875 z m 0,-0.76563 q 0.625,0 0.92188,-0.71875 0.3125,-0.71875 0.3125,-2.26562 0,-1.5625 -0.3125,-2.28125 -0.29688,-0.71875 -0.92188,-0.71875 -0.625,0 -0.9375,0.71875 -0.29687,0.71875 -0.29687,2.28125 0,1.54687 0.29687,2.26562 0.3125,0.71875 0.9375,0.71875 z m 4.4712,0.54688 v -0.6875 l 0.8125,-0.17188 q 0.0156,-0.5625 0.0156,-1.10937 0.0156,-0.5625 0.0156,-1.10938 V 195.077 l -0.90625,-0.14063 v -0.625 l 3.07812,-0.65625 0.23438,0.14063 -0.0625,2.0625 v 5.35937 q 0,0.5625 0,1.125 0.0156,0.54688 0.0312,1.10938 l 0.79687,0.15625 v 0.6875 z m 9.07168,-6.4375 v -0.64063 h 2.78125 v 0.64063 l -0.85937,0.17187 -2.40625,6.29688 h -1.125 l -2.64063,-6.3125 -0.71875,-0.15625 v -0.64063 h 4.17188 v 0.64063 l -0.92188,0.1875 1.375,3.76562 1.28125,-3.78125 z m 6.51538,-0.10938 q -0.40625,0 -0.75,0.5 -0.34375,0.5 -0.39062,1.85938 h 1.23437 q 0.53125,0 0.71875,-0.20313 0.1875,-0.21875 0.1875,-0.71875 0,-0.73437 -0.29687,-1.07812 -0.29688,-0.35938 -0.70313,-0.35938 z m 0.0312,6.76563 q -1.07812,0 -1.90625,-0.4375 -0.8125,-0.45313 -1.28125,-1.29688 -0.46875,-0.84375 -0.46875,-2.01562 0,-1.23438 0.54688,-2.07813 0.5625,-0.84375 1.42187,-1.26562 0.85938,-0.4375 1.79688,-0.4375 0.96875,0 1.64062,0.40625 0.6875,0.40625 1.03125,1.10937 0.35938,0.70313 0.35938,1.59375 0,0.42188 -0.0781,0.78125 h -4.23437 q 0.0625,1.15625 0.625,1.70313 0.57812,0.54687 1.32812,0.54687 0.60938,0 1.03125,-0.21875 0.42188,-0.23437 0.75,-0.57812 l 0.51563,0.46875 q -0.45313,0.875 -1.23438,1.29687 -0.78125,0.42188 -1.84375,0.42188 z m 3.94846,-0.21875 v -0.6875 l 0.8125,-0.15625 q 0.0156,-0.54688 0.0156,-1.15625 0,-0.625 0,-1.07813 v -0.85937 q 0,-0.42188 -0.0156,-0.67188 0,-0.26562 -0.0156,-0.48437 0,-0.23438 -0.0156,-0.53125 l -0.89063,-0.14063 v -0.5625 l 2.89063,-0.98437 0.25,0.15625 0.14062,1.73437 q 0.3125,-0.9375 0.85938,-1.40625 0.5625,-0.48437 1.10937,-0.48437 0.48438,0 0.82813,0.28125 0.35937,0.26562 0.4375,0.79687 -0.0156,0.57813 -0.3125,0.89063 -0.28125,0.3125 -0.71875,0.3125 -0.625,0 -1.14063,-0.6875 l -0.0781,-0.10938 q -0.32813,0.29688 -0.60938,0.76563 -0.26562,0.46875 -0.375,0.98437 v 1 q 0,0.45313 0,1.04688 0,0.57812 0.0156,1.09375 l 1.15625,0.25 v 0.6875 z"
       id="path63"
       inkscape:connector-curvature="0"
       style="fill:#202122;fill-rule:nonzero" />
    <path
       d="M 221.94797,240.89558 H 342.40152"
       id="path65"
       inkscape:connector-curvature="0"
       style="fill:#000000;fill-opacity:0;fill-rule:evenodd" />
    <path
       d="M 221.94795,240.89558 H 330.40152"
       id="path67"
       inkscape:connector-curvature="0"
       style="fill-rule:evenodd;stroke:#595959;stroke-width:2;stroke-linecap:butt;stroke-linejoin:round" />
    <path
       d="m 330.40152,244.19905 9.0762,-3.30347 -9.0762,-3.30346 z"
       id="path69"
       inkscape:connector-curvature="0"
       style="fill:#595959;fill-rule:evenodd;stroke:#595959;stroke-width:2;stroke-linecap:butt" />
    <path
       d="m 221.94797,234.94478 h 43.36328 v 11.9016 h -43.36328 z"
       id="path71"
       inkscape:connector-curvature="0"
       style="fill:#000000;fill-opacity:0;fill-rule:evenodd" />
    <path
       d="m 298.98926,234.94478 h 43.36328 v 11.9016 h -43.36328 z"
       id="path73"
       inkscape:connector-curvature="0"
       style="fill:#000000;fill-opacity:0;fill-rule:evenodd" />
    <path
       d="M 342.39984,270.74106 H 221.94629"
       id="path75"
       inkscape:connector-curvature="0"
       style="fill:#000000;fill-opacity:0;fill-rule:evenodd" />
    <path
       d="M 342.39984,270.74103 H 233.9463"
       id="path77"
       inkscape:connector-curvature="0"
       style="fill-rule:evenodd;stroke:#1c4587;stroke-width:2;stroke-linecap:butt;stroke-linejoin:round" />
    <path
       d="m 233.94629,267.43756 -9.07619,3.30347 9.07619,3.30346 z"
       id="path79"
       inkscape:connector-curvature="0"
       style="fill:#1c4587;fill-rule:evenodd;stroke:#1c4587;stroke-width:2;stroke-linecap:butt" />
    <path
       d="m 221.99771,264.79025 h 43.36328 v 11.90161 h -43.36328 z"
       id="path81"
       inkscape:connector-curvature="0"
       style="fill:#000000;fill-opacity:0;fill-rule:evenodd" />
    <path
       d="m 299.03824,264.79025 h 43.36325 v 11.90161 h -43.36325 z"
       id="path83"
       inkscape:connector-curvature="0"
       style="fill:#000000;fill-opacity:0;fill-rule:evenodd" />
    <path
       d="M 447.89575,240.89485 H 585.88946"
       id="path85"
       inkscape:connector-curvature="0"
       style="fill:#000000;fill-opacity:0;fill-rule:evenodd" />
    <path
       d="M 447.89575,240.89485 H 573.88946"
       id="path87"
       inkscape:connector-curvature="0"
       style="fill-rule:evenodd;stroke:#595959;stroke-width:2;stroke-linecap:butt;stroke-linejoin:round" />
    <path
       d="m 573.88947,244.19832 9.07623,-3.30347 -9.07623,-3.30346 z"
       id="path89"
       inkscape:connector-curvature="0"
       style="fill:#595959;fill-rule:evenodd;stroke:#595959;stroke-width:2;stroke-linecap:butt" />
    <path
       d="m 447.89575,234.94406 h 49.67773 v 11.9016 h -49.67773 z"
       id="path91"
       inkscape:connector-curvature="0"
       style="fill:#000000;fill-opacity:0;fill-rule:evenodd" />
    <path
       d="m 536.15564,234.94406 h 49.67773 v 11.9016 h -49.67773 z"
       id="path93"
       inkscape:connector-curvature="0"
       style="fill:#000000;fill-opacity:0;fill-rule:evenodd" />
    <path
       d="M 585.8876,270.7404 H 447.89386"
       id="path95"
       inkscape:connector-curvature="0"
       style="fill:#000000;fill-opacity:0;fill-rule:evenodd" />
    <path
       d="M 585.8876,270.7404 H 459.89389"
       id="path97"
       inkscape:connector-curvature="0"
       style="fill-rule:evenodd;stroke:#1c4587;stroke-width:2;stroke-linecap:butt;stroke-linejoin:round" />
    <path
       d="m 459.89386,267.43692 -9.0762,3.30347 9.0762,3.30346 z"
       id="path99"
       inkscape:connector-curvature="0"
       style="fill:#1c4587;fill-rule:evenodd;stroke:#1c4587;stroke-width:2;stroke-linecap:butt" />
    <path
       d="m 447.95276,264.78958 h 49.67773 v 11.90161 h -49.67773 z"
       id="path101"
       inkscape:connector-curvature="0"
       style="fill:#000000;fill-opacity:0;fill-rule:evenodd" />
    <path
       d="m 536.21173,264.78958 h 49.67773 v 11.90161 h -49.67773 z"
       id="path103"
       inkscape:connector-curvature="0"
       style="fill:#000000;fill-opacity:0;fill-rule:evenodd" />
    <path
       d="M 342.38394,240.89485 H 447.89575"
       id="path105"
       inkscape:connector-curvature="0"
       style="fill:#000000;fill-opacity:0;fill-rule:evenodd" />
    <path
       d="m 342.38397,240.89485 h 99.51178"
       id="path107"
       inkscape:connector-curvature="0"
       style="fill-rule:evenodd;stroke:#595959;stroke-width:1;stroke-linecap:butt;stroke-linejoin:round" />
    <path
       d="m 441.89575,242.54659 4.53809,-1.65173 -4.53809,-1.65174 z"
       id="path109"
       inkscape:connector-curvature="0"
       style="fill:#595959;fill-rule:evenodd;stroke:#595959;stroke-width:1;stroke-linecap:butt" />
    <path
       d="m 585.8334,240.89485 c 12.52801,0 25.04822,7.46457 25.05609,14.92914 0.008,7.46455 -12.49658,14.92912 -24.9931,14.92912"
       id="path111"
       inkscape:connector-curvature="0"
       style="fill:#000000;fill-opacity:0;fill-rule:evenodd" />
    <path
       d="m 585.8334,240.89485 c 12.52808,0 25.04822,7.46457 25.05609,14.92914 0.004,3.73228 -3.12018,7.46455 -7.80737,10.26378 -2.34363,1.39959 -5.07794,2.56595 -8.00745,3.38238 -0.73236,0.2041 -1.47693,0.38635 -2.23065,0.54489 -0.18842,0.0396 -0.37744,0.0778 -0.56696,0.11444 l -0.40582,0.075"
       id="path113"
       inkscape:connector-curvature="0"
       style="fill-rule:evenodd;stroke:#595959;stroke-width:1;stroke-linecap:butt;stroke-linejoin:round" />
    <path
       d="m 591.7202,268.5597 -4.36804,2.05975 4.6701,1.22986 z"
       id="path115"
       inkscape:connector-curvature="0"
       style="fill:#595959;fill-rule:evenodd;stroke:#595959;stroke-width:1;stroke-linecap:butt" />
    <path
       d="M 447.95276,270.7404 H 424.58267"
       id="path117"
       inkscape:connector-curvature="0"
       style="fill:#000000;fill-opacity:0;fill-rule:evenodd" />
    <path
       d="M 447.95276,270.7404 H 430.58267"
       id="path119"
       inkscape:connector-curvature="0"
       style="fill-rule:evenodd;stroke:#1c4587;stroke-width:1;stroke-linecap:butt;stroke-linejoin:round" />
    <path
       d="m 430.58267,269.08865 -4.53809,1.65173 4.53809,1.65174 z"
       id="path121"
       inkscape:connector-curvature="0"
       style="fill:#1c4587;fill-rule:evenodd;stroke:#1c4587;stroke-width:1;stroke-linecap:butt" />
    <path
       d="m 417.14435,290.16534 h 199.4961 v 23.93701 h -199.4961 z"
       id="path123"
       inkscape:connector-curvature="0"
       style="fill:#000000;fill-opacity:0;fill-rule:evenodd" />
    <path
       d="m 436.6723,299.0701 v -0.78125 h 4.71875 v 0.78125 l -1.09375,0.125 q -0.0156,0.89063 -0.0312,1.79688 0,0.90625 0,1.84375 v 0.51562 q 0,0.90625 0,1.82813 0.0156,0.92187 0.0312,1.82812 l 1.09375,0.10938 v 0.79687 h -4.71875 v -0.79687 l 1.09375,-0.10938 q 0.0312,-0.89062 0.0312,-1.79687 0,-0.92188 0,-1.84375 v -0.53125 q 0,-0.92188 0,-1.82813 0,-0.92187 -0.0312,-1.8125 z m 5.76477,4.65625 v -1.10937 l 6.125,-3.15625 0.625,1.25 -5.03125,2.45312 5.03125,2.46875 -0.625,1.25 z m 13.89493,-4.6875 v -0.75 h 3.17187 v 0.78125 l -1.09375,0.1875 -3.01562,8.6875 h -1.42188 l -3.15625,-8.78125 -0.84375,-0.0937 v -0.78125 h 4.71875 v 0.75 l -1.25,0.15625 2,6.03125 2.03125,-6 z m 2.61139,8.875 v -0.6875 l 0.8125,-0.15625 q 0.0156,-0.54687 0.0156,-1.15625 0,-0.625 0,-1.07812 v -0.85938 q 0,-0.42187 -0.0156,-0.67187 0,-0.26563 -0.0156,-0.48438 0,-0.23437 -0.0156,-0.53125 l -0.89063,-0.14062 v -0.5625 l 2.89063,-0.98438 0.25,0.15625 0.14062,1.73438 q 0.3125,-0.9375 0.85938,-1.40625 0.5625,-0.48438 1.10937,-0.48438 0.48438,0 0.82813,0.28125 0.35937,0.26563 0.4375,0.79688 -0.0156,0.57812 -0.3125,0.89062 -0.28125,0.3125 -0.71875,0.3125 -0.625,0 -1.14063,-0.6875 l -0.0781,-0.10937 q -0.32813,0.29687 -0.60938,0.76562 -0.26562,0.46875 -0.375,0.98438 v 1 q 0,0.45312 0,1.04687 0,0.57813 0.0156,1.09375 l 1.15625,0.25 v 0.6875 z m 12.13794,-8.84375 v -0.78125 h 4.64062 v 0.78125 l -1.09375,0.125 q -0.0156,0.89063 -0.0312,1.79688 0,0.90625 0,1.84375 v 0.53125 q 0,0.89062 0,1.8125 0.0156,0.92187 0.0312,1.82812 l 1.09375,0.10938 v 0.79687 h -4.64062 v -0.79687 l 1.03125,-0.0937 q 0.0312,-0.90625 0.0312,-1.8125 0,-0.92188 0,-1.8125 h -3.125 q 0,0.98437 0,1.875 0.0156,0.875 0.0312,1.75 l 1.01562,0.0937 v 0.79687 h -4.60937 v -0.79687 l 1.0625,-0.10938 q 0.0312,-0.89062 0.0312,-1.79687 0,-0.92188 0,-1.84375 v -0.53125 q 0,-0.92188 0,-1.82813 0,-0.90625 -0.0312,-1.8125 l -1.0625,-0.125 v -0.78125 h 4.60937 v 0.78125 l -1.01562,0.10938 q -0.0156,0.89062 -0.0312,1.78125 0,0.875 0,1.57812 h 3.125 q 0,-0.84375 0,-1.6875 0,-0.84375 -0.0312,-1.67187 z m 5.66519,4.65625 v -1.10937 l 6.125,-3.15625 0.625,1.25 -5.03125,2.45312 5.03125,2.46875 -0.625,1.25 z m 13.0043,4.34375 -0.0781,-1.21875 q -0.46875,0.60938 -1.07813,0.95313 -0.59375,0.32812 -1.29687,0.32812 -0.9375,0 -1.51563,-0.59375 -0.5625,-0.59375 -0.5625,-2.04687 l 0.0625,-3.57813 -0.84375,-0.1875 v -0.60937 l 2.98438,-0.42188 0.23437,0.15625 -0.0781,2.0625 v 2.59375 q 0,0.67188 0.21875,0.9375 0.21875,0.26563 0.57812,0.26563 0.3125,0 0.64063,-0.1875 0.32812,-0.1875 0.625,-0.46875 l 0.0625,-4.15625 -0.8125,-0.17188 v -0.5625 l 2.92187,-0.46875 0.23438,0.15625 -0.0469,2.0625 v 4.17188 l 0.76563,0.15625 v 0.6875 z m 5.97449,-5.375 h 0.42187 q 0.82813,0 1.29688,-0.42187 0.48437,-0.4375 0.48437,-1.39063 0,-0.84375 -0.39062,-1.25 -0.375,-0.42187 -1.09375,-0.42187 -0.0625,0 -0.14063,0 -0.0625,0 -0.14062,0.0156 l -0.15625,0.95313 q -0.0781,0.54687 -0.39063,0.78125 -0.29687,0.21875 -0.6875,0.21875 -0.5625,0 -0.8125,-0.46875 0.0312,-0.79688 0.4375,-1.29688 0.40625,-0.5 1.04688,-0.73437 0.65625,-0.23438 1.40625,-0.23438 1.625,0 2.42187,0.67188 0.8125,0.67187 0.8125,1.67187 0,0.6875 -0.48437,1.32813 -0.48438,0.625 -1.60938,0.92187 1.29688,0.23438 1.82813,0.85938 0.53125,0.60937 0.53125,1.5625 0,0.76562 -0.4375,1.375 -0.42188,0.60937 -1.23438,0.95312 -0.8125,0.34375 -1.96875,0.34375 -1.53125,0 -2.34375,-0.625 -0.79687,-0.64062 -0.85937,-1.79687 0.14062,-0.34375 0.39062,-0.5 0.26563,-0.15625 0.53125,-0.15625 0.45313,0 0.70313,0.28125 0.26562,0.28125 0.375,1.03125 l 0.125,0.96875 q 0.0937,0.0156 0.17187,0.0312 0.0781,0 0.17188,0 1.98437,0 1.98437,-1.96875 0,-0.90625 -0.48437,-1.39063 -0.48438,-0.48437 -1.39063,-0.48437 h -0.51562 z m 6.02185,5.21875 v -1.29687 q 0.51562,-0.5 1,-0.98438 0.5,-0.48437 0.9375,-0.9375 0.70312,-0.70312 1.15625,-1.28125 0.46875,-0.59375 0.70312,-1.17187 0.23438,-0.59375 0.23438,-1.25 0,-0.84375 -0.40625,-1.3125 -0.39063,-0.46875 -1.07813,-0.46875 -0.0937,0 -0.1875,0 -0.0937,0 -0.1875,0.0156 l -0.1875,1.03125 q -0.10937,0.76563 -0.4375,1.01563 -0.3125,0.23437 -0.64062,0.23437 -0.3125,0 -0.57813,-0.15625 -0.25,-0.17187 -0.375,-0.4375 0.0156,-0.8125 0.48438,-1.35937 0.46875,-0.54688 1.23437,-0.82813 0.76563,-0.28125 1.67188,-0.28125 1.07812,0 1.73437,0.34375 0.67188,0.32813 0.98438,0.90625 0.32812,0.5625 0.32812,1.28125 0,0.70313 -0.375,1.375 -0.35937,0.65625 -1.14062,1.34375 -0.76563,0.6875 -1.98438,1.51563 -0.29687,0.21875 -0.625,0.4375 -0.3125,0.21875 -0.64062,0.46875 h 4.95312 v 1.79687 z m 10.67807,-0.82812 q 0,1 -0.46875,1.78125 -0.45313,0.78125 -1.15625,1.28125 -0.6875,0.5 -1.39063,0.71875 l -0.20312,-0.60938 q 0.73437,-0.375 1.20312,-0.89062 0.48438,-0.51563 0.75,-1.09375 l -0.51562,-0.26563 q -0.45313,-0.25 -0.64063,-0.57812 -0.1875,-0.34375 -0.1875,-0.65625 0,-0.54688 0.35938,-0.90625 0.375,-0.375 0.9375,-0.375 0.3125,0 0.5625,0.0937 0.26562,0.0781 0.53125,0.3125 0.14062,0.34375 0.17187,0.60937 0.0469,0.25 0.0469,0.57813 z m 9.18957,1.10937 q -0.90625,0 -1.75,-0.3125 -0.82812,-0.32812 -1.48437,-0.95312 -0.64063,-0.64063 -1.03125,-1.59375 -0.375,-0.95313 -0.375,-2.25 0,-1.25 0.375,-2.20313 0.39062,-0.95312 1.04687,-1.59375 0.65625,-0.64062 1.48438,-0.95312 0.84375,-0.32813 1.73437,-0.32813 0.90625,0 1.73438,0.3125 0.82812,0.3125 1.48437,0.95313 0.67188,0.625 1.04688,1.59375 0.39062,0.95312 0.39062,2.21875 0,1.28125 -0.39062,2.23437 -0.375,0.95313 -1.03125,1.59375 -0.65625,0.64063 -1.5,0.96875 -0.82813,0.3125 -1.73438,0.3125 z m 0,-0.85937 q 0.75,0 1.1875,-0.54688 0.45313,-0.5625 0.65625,-1.51562 0.21875,-0.96875 0.21875,-2.1875 0,-1.20313 -0.21875,-2.15625 -0.20312,-0.95313 -0.65625,-1.51563 -0.4375,-0.5625 -1.1875,-0.5625 -0.73437,0 -1.1875,0.5625 -0.45312,0.5625 -0.65625,1.51563 -0.20312,0.95312 -0.20312,2.15625 0,1.21875 0.20312,2.1875 0.20313,0.95312 0.65625,1.51562 0.45313,0.54688 1.1875,0.54688 z m 5.57001,3.90625 v -0.6875 l 0.82813,-0.17188 q 0.0156,-0.70312 0.0156,-1.29687 0.0156,-0.57813 0.0156,-1.125 v -3.96875 q 0,-0.60938 -0.0156,-0.9375 0,-0.32813 -0.0312,-0.76563 l -0.90625,-0.14062 v -0.5625 l 2.85938,-0.98438 0.25,0.14063 0.0625,0.82812 q 0.92187,-0.96875 2.17187,-0.96875 0.8125,0 1.45313,0.42188 0.64062,0.42187 1.03125,1.26562 0.39062,0.82813 0.39062,2.04688 0,1.17187 -0.4375,2.03125 -0.4375,0.85937 -1.15625,1.3125 -0.70312,0.45312 -1.54687,0.45312 -1.125,0 -1.84375,-0.76562 v 0.57812 q 0,0.54688 0,1.125 0.0156,0.59375 0.0312,1.26563 l 0.9375,0.21875 v 0.6875 z m 4.1875,-9.35938 q -0.28125,0 -0.53125,0.125 -0.23437,0.10938 -0.46875,0.28125 v 4.25 q 0.4375,0.35938 0.95313,0.35938 0.65625,0 1.0625,-0.60938 0.42187,-0.625 0.42187,-1.92187 0,-1.29688 -0.40625,-1.89063 -0.39062,-0.59375 -1.03125,-0.59375 z m 7.48914,6.25 q -0.96875,0 -1.53125,-0.46875 -0.5625,-0.48437 -0.5625,-1.5625 0,-0.39062 0,-0.71875 0.0156,-0.32812 0.0156,-0.75 v -2.79687 h -0.95312 v -0.875 l 1.09375,-0.14063 0.73437,-2.04687 h 1.48438 l -0.0312,2.0625 h 1.54687 v 1 h -1.54687 v 4.09375 q 0,0.51562 0.21875,0.76562 0.21875,0.23438 0.53125,0.23438 0.39062,0 0.79687,-0.3125 l 0.35938,0.34375 q -0.28125,0.5625 -0.8125,0.875 -0.51563,0.29687 -1.34375,0.29687 z m 2.62195,-4.40625 v -1.10937 l 6.125,-3.15625 0.625,1.25 -5.03125,2.45312 5.03125,2.46875 -0.625,1.25 z m 13.00427,4.34375 -0.0781,-1.21875 q -0.46875,0.60938 -1.07812,0.95313 -0.59375,0.32812 -1.29688,0.32812 -0.9375,0 -1.51562,-0.59375 -0.5625,-0.59375 -0.5625,-2.04687 l 0.0625,-3.57813 -0.84375,-0.1875 v -0.60937 l 2.98437,-0.42188 0.23438,0.15625 -0.0781,2.0625 v 2.59375 q 0,0.67188 0.21875,0.9375 0.21875,0.26563 0.57813,0.26563 0.3125,0 0.64062,-0.1875 0.32813,-0.1875 0.625,-0.46875 l 0.0625,-4.15625 -0.8125,-0.17188 v -0.5625 l 2.92188,-0.46875 0.23437,0.15625 -0.0469,2.0625 v 4.17188 l 0.76562,0.15625 v 0.6875 z m 5.97448,-5.375 h 0.42188 q 0.82812,0 1.29687,-0.42187 0.48438,-0.4375 0.48438,-1.39063 0,-0.84375 -0.39063,-1.25 -0.375,-0.42187 -1.09375,-0.42187 -0.0625,0 -0.14062,0 -0.0625,0 -0.14063,0.0156 l -0.15625,0.95313 q -0.0781,0.54687 -0.39062,0.78125 -0.29688,0.21875 -0.6875,0.21875 -0.5625,0 -0.8125,-0.46875 0.0312,-0.79688 0.4375,-1.29688 0.40625,-0.5 1.04687,-0.73437 0.65625,-0.23438 1.40625,-0.23438 1.625,0 2.42188,0.67188 0.8125,0.67187 0.8125,1.67187 0,0.6875 -0.48438,1.32813 -0.48437,0.625 -1.60937,0.92187 1.29687,0.23438 1.82812,0.85938 0.53125,0.60937 0.53125,1.5625 0,0.76562 -0.4375,1.375 -0.42187,0.60937 -1.23437,0.95312 -0.8125,0.34375 -1.96875,0.34375 -1.53125,0 -2.34375,-0.625 -0.79688,-0.64062 -0.85938,-1.79687 0.14063,-0.34375 0.39063,-0.5 0.26562,-0.15625 0.53125,-0.15625 0.45312,0 0.70312,0.28125 0.26563,0.28125 0.375,1.03125 l 0.125,0.96875 q 0.0937,0.0156 0.17188,0.0312 0.0781,0 0.17187,0 1.98438,0 1.98438,-1.96875 0,-0.90625 -0.48438,-1.39063 -0.48437,-0.48437 -1.39062,-0.48437 h -0.51563 z m 6.02186,5.21875 v -1.29687 q 0.51562,-0.5 1,-0.98438 0.5,-0.48437 0.9375,-0.9375 0.70312,-0.70312 1.15625,-1.28125 0.46875,-0.59375 0.70312,-1.17187 0.23438,-0.59375 0.23438,-1.25 0,-0.84375 -0.40625,-1.3125 -0.39063,-0.46875 -1.07813,-0.46875 -0.0937,0 -0.1875,0 -0.0937,0 -0.1875,0.0156 l -0.1875,1.03125 q -0.10937,0.76563 -0.4375,1.01563 -0.3125,0.23437 -0.64062,0.23437 -0.3125,0 -0.57813,-0.15625 -0.25,-0.17187 -0.375,-0.4375 0.0156,-0.8125 0.48438,-1.35937 0.46875,-0.54688 1.23437,-0.82813 0.76563,-0.28125 1.67188,-0.28125 1.07812,0 1.73437,0.34375 0.67188,0.32813 0.98438,0.90625 0.32812,0.5625 0.32812,1.28125 0,0.70313 -0.375,1.375 -0.35937,0.65625 -1.14062,1.34375 -0.76563,0.6875 -1.98438,1.51563 -0.29687,0.21875 -0.625,0.4375 -0.3125,0.21875 -0.64062,0.46875 h 4.95312 v 1.79687 z m 14.6156,-5.29687 v 1.10937 l -6.125,3.15625 -0.64063,-1.25 5.03125,-2.46875 -5.03125,-2.45312 0.64063,-1.25 z m 7.97302,0 v 1.10937 l -6.125,3.15625 -0.64063,-1.25 5.03125,-2.46875 -5.03125,-2.45312 0.64063,-1.25 z m 7.97302,0 v 1.10937 l -6.125,3.15625 -0.64062,-1.25 5.03125,-2.46875 -5.03125,-2.45312 0.64062,-1.25 z"
       id="path125"
       inkscape:connector-curvature="0"
       style="fill:#202122;fill-rule:nonzero" />
    <path
       d="m 365.71652,261.45007 v 0 c 0,-2.5658 2.07999,-4.64578 4.64578,-4.64578 h 49.57462 c 1.23211,0 2.41379,0.48947 3.28503,1.36072 0.87125,0.87124 1.36072,2.05291 1.36072,3.28506 v 18.58249 c 0,2.56576 -2.07999,4.64575 -4.64575,4.64575 H 370.3623 c -2.56579,0 -4.64578,-2.07999 -4.64578,-4.64575 z"
       id="path127"
       inkscape:connector-curvature="0"
       style="fill:#000000;fill-opacity:0;fill-rule:evenodd" />
    <path
       d="m 365.71652,261.45007 v 0 c 0,-2.5658 2.07999,-4.64578 4.64578,-4.64578 h 49.57462 c 1.23211,0 2.41379,0.48947 3.28503,1.36072 0.87125,0.87124 1.36072,2.05291 1.36072,3.28506 v 18.58249 c 0,2.56576 -2.07999,4.64575 -4.64575,4.64575 H 370.3623 c -2.56579,0 -4.64578,-2.07999 -4.64578,-4.64575 z"
       id="path129"
       inkscape:connector-curvature="0"
       style="fill-rule:evenodd;stroke:#595959;stroke-width:1;stroke-linecap:butt;stroke-linejoin:round" />
    <path
       d="m 393.2749,275.54132 v -0.48438 l 1.04687,-0.1875 q 0.0156,-0.53125 0.0156,-1.0625 0.0156,-0.53125 0.0156,-1.0625 v -2.82812 h -1.10937 v -0.57813 l 1.14062,-0.15625 q 0.0781,-1.0625 0.28125,-1.71875 0.21875,-0.67187 0.70313,-1.15625 0.4375,-0.42187 0.89062,-0.57812 0.46875,-0.17188 0.92188,-0.17188 0.46875,0 0.82812,0.17188 0.35938,0.15625 0.45313,0.54687 0,0.25 -0.21875,0.4375 -0.21875,0.17188 -0.59375,0.17188 -0.46875,0 -0.95313,-0.40625 l -0.375,-0.29688 q -0.0469,0.0469 -0.0937,0.0937 -0.0469,0.0312 -0.0937,0.0625 -0.34375,0.35938 -0.53125,1.0625 -0.17187,0.6875 -0.14062,1.8125 h 1.82812 v 0.70313 h -1.8125 v 2.82812 q 0,0.53125 0,1.0625 0.0156,0.51563 0.0312,1.04688 l 1.20313,0.20312 v 0.48438 z"
       id="path131"
       inkscape:connector-curvature="0"
       style="fill:#202122;fill-rule:nonzero" />
    <path
       d="M 365.71652,270.7413 H 342.40945"
       id="path133"
       inkscape:connector-curvature="0"
       style="fill:#000000;fill-opacity:0;fill-rule:evenodd" />
    <path
       d="M 365.71652,270.7413 H 348.40945"
       id="path135"
       inkscape:connector-curvature="0"
       style="fill-rule:evenodd;stroke:#1c4587;stroke-width:1;stroke-linecap:butt;stroke-linejoin:round" />
    <path
       d="m 348.40945,269.08957 -4.53812,1.65173 4.53812,1.65174 z"
       id="path137"
       inkscape:connector-curvature="0"
       style="fill:#1c4587;fill-rule:evenodd;stroke:#1c4587;stroke-width:1;stroke-linecap:butt" />
  </g>
</svg>
