<?xml version="1.0" encoding="UTF-8" standalone="no"?>
<svg
   xmlns:dc="http://purl.org/dc/elements/1.1/"
   xmlns:cc="http://creativecommons.org/ns#"
   xmlns:rdf="http://www.w3.org/1999/02/22-rdf-syntax-ns#"
   xmlns:svg="http://www.w3.org/2000/svg"
   xmlns="http://www.w3.org/2000/svg"
   xmlns:sodipodi="http://sodipodi.sourceforge.net/DTD/sodipodi-0.dtd"
   xmlns:inkscape="http://www.inkscape.org/namespaces/inkscape"
   version="1.1"
   viewBox="0 0 552.93701 144.84253"
   stroke-miterlimit="10"
   id="svg275"
   sodipodi:docname="dependency-comb-loop-detection.svg"
   width="552.93701"
   height="144.84253"
   style="fill:none;stroke:none;stroke-linecap:square;stroke-miterlimit:10"
   inkscape:version="0.92.5 (2060ec1f9f, 2020-04-08)">
  <metadata
     id="metadata281">
    <rdf:RDF>
      <cc:Work
         rdf:about="">
        <dc:format>image/svg+xml</dc:format>
        <dc:type
           rdf:resource="http://purl.org/dc/dcmitype/StillImage" />
        <dc:title></dc:title>
      </cc:Work>
    </rdf:RDF>
  </metadata>
  <defs
     id="defs279" />
  <sodipodi:namedview
     pagecolor="#ffffff"
     bordercolor="#666666"
     borderopacity="1"
     objecttolerance="10"
     gridtolerance="10"
     guidetolerance="10"
     inkscape:pageopacity="0"
     inkscape:pageshadow="2"
     inkscape:window-width="2015"
     inkscape:window-height="1481"
     id="namedview277"
     showgrid="false"
     inkscape:zoom="1.0223586"
     inkscape:cx="513.74292"
     inkscape:cy="-69.50622"
     inkscape:window-x="72"
     inkscape:window-y="27"
     inkscape:window-maximized="0"
     inkscape:current-layer="g273" />
  <clipPath
     id="g30afa501cbb_0_0.0">
    <path
       d="M 0,0 H 960 V 540 H 0 Z"
       id="path2"
       inkscape:connector-curvature="0"
       style="clip-rule:nonzero" />
  </clipPath>
  <g
     clip-path="url(#g30afa501cbb_0_0.0)"
     id="g273"
     transform="translate(-127.56299,-279.62073)">
    <path
       d="m 128.06299,280.12073 h 551.937 v 143.84253 h -551.937 z"
       id="path139"
       inkscape:connector-curvature="0"
       style="fill:#000000;fill-opacity:0;fill-rule:evenodd" />
    <path
       d="m 130.15974,303.2224 h 91.81103 v 76.50394 h -91.81103 z"
       id="path143"
       inkscape:connector-curvature="0"
       style="fill:#d9d9d9;fill-rule:evenodd" />
    <path
       d="m 130.15974,303.2224 h 91.81103 v 76.50394 h -91.81103 z"
       id="path145"
       inkscape:connector-curvature="0"
       style="fill-rule:evenodd;stroke:#595959;stroke-width:1;stroke-linecap:butt;stroke-linejoin:round" />
    <path
       d="m 221.95801,310.9344 h 120.47244 v 14.86615 H 221.95801 Z"
       id="path147"
       inkscape:connector-curvature="0"
       style="fill:#000000;fill-opacity:0;fill-rule:evenodd" />
    <path
       d="m 245.11346,322.60052 v -0.48437 l 1.04687,-0.1875 q 0.0156,-0.53125 0.0156,-1.0625 0.0156,-0.53125 0.0156,-1.0625 v -2.82813 h -1.10937 v -0.57812 l 1.14062,-0.15625 q 0.0781,-1.0625 0.28125,-1.71875 0.21875,-0.67188 0.70313,-1.15625 0.4375,-0.42188 0.89062,-0.57813 0.46875,-0.17187 0.92188,-0.17187 0.46875,0 0.82812,0.17187 0.35938,0.15625 0.45313,0.54688 0,0.25 -0.21875,0.4375 -0.21875,0.17187 -0.59375,0.17187 -0.46875,0 -0.95313,-0.40625 l -0.375,-0.29687 q -0.0469,0.0469 -0.0937,0.0937 -0.0469,0.0312 -0.0937,0.0625 -0.34375,0.35937 -0.53125,1.0625 -0.17187,0.6875 -0.14062,1.8125 h 1.82812 v 0.70312 h -1.8125 v 2.82813 q 0,0.53125 0,1.0625 0.0156,0.51562 0.0312,1.04687 l 1.20313,0.20313 v 0.48437 z m 5.37439,-8.01562 2.73437,-0.70313 0.1875,0.14063 -0.0469,1.90625 v 3.85937 q 0,0.5 0,1 0.0156,0.5 0.0156,1.01563 l 1.90625,0.3125 v 0.48437 h -4.95312 v -0.48437 l 1.875,-0.3125 q 0.0156,-0.51563 0.0156,-1.01563 0.0156,-0.5 0.0156,-1 v -4.79687 l -1.75,0.14062 z m 7.52341,3.34375 q -0.40625,0 -0.6875,-0.28125 -0.26563,-0.28125 -0.26563,-0.65625 0,-0.40625 0.26563,-0.6875 0.28125,-0.28125 0.6875,-0.28125 0.40625,0 0.67187,0.28125 0.28125,0.28125 0.28125,0.6875 0,0.375 -0.28125,0.65625 -0.26562,0.28125 -0.67187,0.28125 z m 0,4.84375 q -0.40625,0 -0.6875,-0.28125 -0.26563,-0.28125 -0.26563,-0.65625 0,-0.40625 0.26563,-0.6875 0.28125,-0.28125 0.6875,-0.28125 0.40625,0 0.67187,0.28125 0.28125,0.28125 0.28125,0.6875 0,0.375 -0.28125,0.65625 -0.26562,0.28125 -0.67187,0.28125 z m 9.8226,0.0312 q -0.78125,0 -1.51563,-0.29688 -0.71875,-0.3125 -1.3125,-0.89062 -0.57812,-0.59375 -0.92187,-1.45313 -0.34375,-0.875 -0.34375,-2.03125 0,-1.09375 0.34375,-1.95312 0.34375,-0.875 0.92187,-1.46875 0.59375,-0.59375 1.3125,-0.90625 0.73438,-0.3125 1.51563,-0.3125 0.76562,0 1.48437,0.29687 0.73438,0.29688 1.3125,0.89063 0.59375,0.57812 0.9375,1.45312 0.34375,0.85938 0.34375,2 0,1.09375 -0.34375,1.96875 -0.34375,0.85938 -0.92187,1.46875 -0.57813,0.60938 -1.3125,0.92188 -0.73438,0.3125 -1.5,0.3125 z m 0,-0.67188 q 0.6875,0 1.1875,-0.32812 0.5,-0.34375 0.8125,-0.90625 0.3125,-0.57813 0.45312,-1.28125 0.15625,-0.71875 0.15625,-1.48438 0,-0.75 -0.15625,-1.45312 -0.14062,-0.71875 -0.45312,-1.28125 -0.3125,-0.57813 -0.8125,-0.90625 -0.5,-0.34375 -1.1875,-0.34375 -0.6875,0 -1.1875,0.34375 -0.5,0.32812 -0.82813,0.90625 -0.3125,0.5625 -0.46875,1.28125 -0.15625,0.70312 -0.15625,1.45312 0,0.76563 0.15625,1.48438 0.15625,0.70312 0.46875,1.28125 0.32813,0.5625 0.82813,0.90625 0.5,0.32812 1.1875,0.32812 z m 5.17294,3.65625 v -0.46875 l 1.0625,-0.1875 q 0.0156,-0.54687 0.0156,-1.09375 0.0156,-0.53125 0.0156,-1.0625 v -3.8125 q 0,-0.54687 -0.0156,-0.90625 0,-0.35937 -0.0312,-0.76562 l -1.04688,-0.10938 v -0.46875 l 1.85938,-0.8125 0.20312,0.125 0.0781,0.875 q 0.95312,-1 2.01562,-1 0.71875,0 1.28125,0.40625 0.57813,0.39063 0.92188,1.14063 0.34375,0.73437 0.34375,1.76562 0,1.03125 -0.35938,1.78125 -0.35937,0.75 -0.98437,1.17188 -0.60938,0.40625 -1.40625,0.40625 -0.45313,0 -0.90625,-0.1875 -0.4375,-0.1875 -0.85938,-0.67188 v 1.04688 q 0,0.53125 0,1.0625 0.0156,0.54687 0.0156,1.09375 l 1.21875,0.20312 v 0.46875 z m 3.84375,-8.9375 q -0.3125,0 -0.71875,0.15625 -0.39062,0.15625 -0.90625,0.57813 v 3.75 q 0.375,0.35937 0.73438,0.51562 0.35937,0.15625 0.73437,0.15625 0.75,0 1.28125,-0.59375 0.53125,-0.59375 0.53125,-1.89062 0,-1.28125 -0.46875,-1.96875 -0.46875,-0.70313 -1.1875,-0.70313 z m 6.05881,5.92188 q -0.6875,0 -1.10938,-0.375 -0.40625,-0.375 -0.40625,-1.14063 0,-0.25 0,-0.5 0,-0.25 0,-0.64062 v -3.14063 h -1.09375 v -0.57812 l 1.1875,-0.15625 0.34375,-1.78125 h 0.79688 l -0.0781,1.8125 h 1.79688 v 0.70312 h -1.8125 v 4.125 q 0,0.51563 0.20312,0.75 0.20313,0.23438 0.53125,0.23438 0.21875,0 0.42188,-0.0937 0.21875,-0.0937 0.46875,-0.26563 l 0.32812,0.34375 q -0.54687,0.70313 -1.57812,0.70313 z m 2.36288,-4.25 v -0.625 l 5.15625,-3 0.39063,0.71875 -4.625,2.59375 4.625,2.59375 -0.39063,0.71875 z m 9.28034,4.25 q -0.8125,0 -1.28125,-0.53125 -0.46875,-0.54688 -0.45313,-1.85938 l 0.0469,-3.32812 -0.95313,-0.20313 v -0.46875 l 1.96875,-0.1875 0.125,0.125 -0.0625,1.875 v 2.0625 q 0,0.85938 0.26563,1.21875 0.26562,0.35938 0.79687,0.35938 0.9375,0 1.875,-0.875 l 0.0312,-3.92188 -0.9375,-0.1875 v -0.46875 l 1.92188,-0.1875 0.14062,0.125 -0.0469,1.875 v 3.73438 l 0.90625,0.1875 v 0.48437 l -1.84375,0.10938 -0.14063,-1.1875 q -0.53125,0.65625 -1.14062,0.95312 -0.60938,0.29688 -1.21875,0.29688 z m 7.06714,-5.03125 h 0.53125 q 0.90625,0 1.40625,-0.46875 0.5,-0.46875 0.5,-1.32813 0,-0.73437 -0.42188,-1.125 -0.40625,-0.40625 -1.20312,-0.40625 -0.125,0 -0.28125,0.0156 -0.14063,0.0156 -0.32813,0.0469 l -0.17187,0.65625 q -0.10938,0.42188 -0.26563,0.625 -0.15625,0.20313 -0.51562,0.20313 -0.20313,0 -0.375,-0.0937 -0.17188,-0.10938 -0.26563,-0.375 0.1875,-0.82813 0.84375,-1.25 0.67188,-0.42188 1.59375,-0.42188 1.17188,0 1.85938,0.57813 0.6875,0.57812 0.6875,1.51562 0,0.71875 -0.45313,1.28125 -0.45312,0.5625 -1.28125,0.85938 1.01563,0.20312 1.51563,0.78125 0.5,0.5625 0.5,1.39062 0,0.71875 -0.375,1.29688 -0.375,0.57812 -1.04688,0.92187 -0.67187,0.32813 -1.57812,0.32813 -0.96875,0 -1.67188,-0.4375 -0.6875,-0.45313 -0.875,-1.45313 0.21875,-0.4375 0.67188,-0.4375 0.34375,0 0.5,0.23438 0.15625,0.21875 0.29687,0.71875 l 0.17188,0.70312 q 0.21875,0.0469 0.40625,0.0625 0.1875,0.0156 0.32812,0.0156 1,0 1.48438,-0.51563 0.5,-0.51562 0.5,-1.40625 0,-0.875 -0.51563,-1.35937 -0.5,-0.5 -1.53125,-0.5 h -0.64062 z m 5.05465,4.85937 v -0.85937 q 0.53125,-0.53125 1.03125,-1.03125 0.5,-0.51563 0.92188,-0.96875 1,-1.0625 1.46875,-1.90625 0.46875,-0.85938 0.46875,-1.625 0,-0.82813 -0.4375,-1.3125 -0.4375,-0.48438 -1.17188,-0.48438 -0.125,0 -0.29687,0.0156 -0.15625,0.0156 -0.34375,0.0625 l -0.26563,0.90625 q -0.125,0.5 -0.3125,0.70312 -0.17187,0.20313 -0.45312,0.20313 -0.4375,0 -0.67188,-0.42188 0.0781,-0.70312 0.45313,-1.15625 0.39062,-0.46875 0.96875,-0.6875 0.59375,-0.21875 1.26562,-0.21875 1.29688,0 1.875,0.64063 0.59375,0.625 0.59375,1.625 0,0.57812 -0.23437,1.14062 -0.23438,0.54688 -0.8125,1.23438 -0.57813,0.6875 -1.59375,1.67187 -0.26563,0.26563 -0.65625,0.625 -0.375,0.35938 -0.78125,0.75 h 4.45312 v 1.09375 z m 12.32028,-4.70312 v 0.625 l -5.15625,3 -0.39062,-0.71875 4.625,-2.59375 -4.625,-2.59375 0.39062,-0.71875 z"
       id="path149"
       inkscape:connector-curvature="0"
       style="fill:#202122;fill-rule:nonzero" />
    <path
       d="m 221.95801,339.75046 h 120.47244 v 14.86615 H 221.95801 Z"
       id="path151"
       inkscape:connector-curvature="0"
       style="fill:#000000;fill-opacity:0;fill-rule:evenodd" />
    <path
       d="m 236.12556,351.41663 v -0.48438 l 1,-0.17187 q 0,-0.5 0,-1.09375 0.0156,-0.59375 0.0156,-1.04688 v -5.85937 l -1.09375,-0.125 v -0.46875 l 2.04688,-0.59375 0.1875,0.0937 -0.0625,1.90625 v 2.35937 q 0.48437,-0.53125 1,-0.76562 0.51562,-0.25 1.0625,-0.25 0.70312,0 1.26562,0.39062 0.57813,0.375 0.92188,1.10938 0.34375,0.73437 0.34375,1.78125 0,1.01562 -0.35938,1.78125 -0.35937,0.76562 -0.98437,1.1875 -0.625,0.42187 -1.40625,0.42187 -0.46875,0 -0.9375,-0.20312 -0.45313,-0.20313 -0.90625,-0.73438 l -0.0937,0.90625 z m 3.79687,-5.75 q -0.3125,0 -0.71875,0.17187 -0.39062,0.15625 -0.9375,0.60938 v 3.65625 q 0.40625,0.375 0.8125,0.54687 0.40625,0.17188 0.76563,0.17188 0.71875,0 1.23437,-0.60938 0.53125,-0.625 0.53125,-1.92187 0,-1.26563 -0.48437,-1.9375 -0.46875,-0.6875 -1.20313,-0.6875 z m 4.6278,-2.26563 2.73437,-0.70312 0.1875,0.14062 -0.0469,1.90625 v 3.85938 q 0,0.5 0,1 0.0156,0.5 0.0156,1.01562 l 1.90625,0.3125 v 0.48438 h -4.95312 v -0.48438 l 1.875,-0.3125 q 0.0156,-0.51562 0.0156,-1.01562 0.0156,-0.5 0.0156,-1 v -4.79688 l -1.75,0.14063 z m 7.5234,3.34375 q -0.40625,0 -0.6875,-0.28125 -0.26562,-0.28125 -0.26562,-0.65625 0,-0.40625 0.26562,-0.6875 0.28125,-0.28125 0.6875,-0.28125 0.40625,0 0.67188,0.28125 0.28125,0.28125 0.28125,0.6875 0,0.375 -0.28125,0.65625 -0.26563,0.28125 -0.67188,0.28125 z m 0,4.84375 q -0.40625,0 -0.6875,-0.28125 -0.26562,-0.28125 -0.26562,-0.65625 0,-0.40625 0.26562,-0.6875 0.28125,-0.28125 0.6875,-0.28125 0.40625,0 0.67188,0.28125 0.28125,0.28125 0.28125,0.6875 0,0.375 -0.28125,0.65625 -0.26563,0.28125 -0.67188,0.28125 z m 9.38511,-8.46875 h -1.15625 q 0,0.875 -0.0156,1.75 0,0.875 0,1.8125 h 1.01563 q 1.09375,0 1.59375,-0.51562 0.51562,-0.51563 0.51562,-1.32813 0,-0.82812 -0.46875,-1.26562 -0.46875,-0.45313 -1.48437,-0.45313 z m -3.6875,-0.0781 v -0.54688 h 3.71875 q 1.53125,0 2.39062,0.625 0.85938,0.60938 0.85938,1.71875 0,0.76563 -0.5625,1.40625 -0.5625,0.64063 -1.6875,0.84375 0.59375,0.10938 0.96875,0.51563 0.375,0.39062 0.60937,1.17187 l 0.57813,1.96875 1.01562,0.125 v 0.54688 q -0.1875,0.0469 -0.4375,0.0937 -0.25,0.0469 -0.5625,0.0469 -0.625,0 -0.9375,-0.1875 -0.3125,-0.1875 -0.42187,-0.67187 l -0.54688,-2.14063 q -0.10937,-0.54687 -0.34375,-0.8125 -0.21875,-0.26562 -0.57812,-0.35937 -0.34375,-0.0937 -0.89063,-0.0937 h -0.65625 q 0,0.95312 0,1.79687 0.0156,0.82813 0.0156,1.64063 l 1.23437,0.14062 v 0.54688 h -3.76562 v -0.54688 l 1.21875,-0.14062 q 0.0312,-0.84375 0.0312,-1.70313 0,-0.875 0,-1.73437 v -0.65625 q 0,-0.875 0,-1.73438 0,-0.85937 -0.0312,-1.70312 z m 11.52761,2.48437 q -0.35937,0 -0.75,0.21875 -0.375,0.20313 -0.65625,0.67188 -0.26562,0.46875 -0.34375,1.23437 h 2.42188 q 0.48437,0 0.625,-0.1875 0.15625,-0.20312 0.15625,-0.5 0,-0.39062 -0.1875,-0.70312 -0.1875,-0.32813 -0.51563,-0.53125 -0.32812,-0.20313 -0.75,-0.20313 z m 0,6.0625 q -1.35937,0 -2.17187,-0.875 -0.8125,-0.875 -0.8125,-2.40625 0,-1.01562 0.42187,-1.78125 0.42188,-0.76562 1.125,-1.1875 0.70313,-0.42187 1.53125,-0.42187 0.6875,0 1.25,0.3125 0.5625,0.29687 0.89063,0.85937 0.32812,0.5625 0.32812,1.39063 0,0.21875 -0.0312,0.42187 -0.0156,0.1875 -0.0625,0.3125 h -4.25 q 0.0312,1.23438 0.60938,1.875 0.59375,0.64063 1.54687,0.64063 0.64063,0 1.0625,-0.26563 0.4375,-0.26562 0.79688,-0.67187 l 0.3125,0.25 q -0.375,0.70312 -1.01563,1.125 -0.625,0.42187 -1.53125,0.42187 z m 8.63275,-0.0312 q -0.48437,0 -0.8125,-0.28125 -0.3125,-0.28125 -0.39062,-0.75 -0.54688,0.53125 -0.96875,0.79688 -0.40625,0.26562 -0.98438,0.26562 -0.73437,0 -1.26562,-0.42187 -0.53125,-0.42188 -0.53125,-1.25 0,-0.375 0.17187,-0.70313 0.1875,-0.34375 0.67188,-0.65625 0.48437,-0.32812 1.375,-0.64062 0.3125,-0.10938 0.70312,-0.23438 0.40625,-0.125 0.79688,-0.20312 v -0.34375 q 0,-0.96875 -0.29688,-1.28125 -0.28125,-0.32813 -0.95312,-0.32813 -0.14063,0 -0.32813,0.0156 -0.17187,0.0156 -0.39062,0.0625 l -0.25,0.875 q -0.1875,0.625 -0.6875,0.625 -0.5625,0 -0.64063,-0.53125 0.1875,-0.76563 0.89063,-1.20313 0.70312,-0.45312 1.71875,-0.45312 1.04687,0 1.54687,0.53125 0.51563,0.51562 0.51563,1.78125 v 2.84375 q 0,0.42187 0.125,0.60937 0.14062,0.17188 0.35937,0.17188 0.17188,0 0.28125,-0.0781 0.125,-0.0781 0.23438,-0.21875 l 0.26562,0.29688 q -0.23437,0.39062 -0.53125,0.54687 -0.28125,0.15625 -0.625,0.15625 z m -3.76562,-1.82812 q 0,0.53125 0.3125,0.76562 0.3125,0.21875 0.76562,0.21875 0.1875,0 0.35938,-0.0469 0.1875,-0.0625 0.4375,-0.21875 0.26562,-0.15625 0.65625,-0.4375 v -2.04688 q -0.34375,0.0937 -0.67188,0.21875 -0.32812,0.10938 -0.54687,0.1875 -0.57813,0.21875 -0.85938,0.46875 -0.28125,0.23438 -0.375,0.46875 -0.0781,0.21875 -0.0781,0.42188 z m 6.79962,-1.4375 q 0,1.29687 0.53125,1.92187 0.53125,0.60938 1.32813,0.60938 0.4375,0 0.76562,-0.17188 0.34375,-0.1875 0.71875,-0.59375 v -3.6875 q -0.45312,-0.40625 -0.8125,-0.54687 -0.35937,-0.15625 -0.6875,-0.15625 -0.5,0 -0.92187,0.28125 -0.40625,0.26562 -0.67188,0.85937 -0.25,0.57813 -0.25,1.48438 z m 3.48438,3.26562 -0.0937,-0.92187 q -0.34375,0.45312 -0.79688,0.70312 -0.45312,0.25 -1.07812,0.25 -0.8125,0 -1.42188,-0.40625 -0.60937,-0.42187 -0.95312,-1.15625 -0.34375,-0.73437 -0.34375,-1.71875 0,-1.01562 0.375,-1.78125 0.375,-0.76562 1.01562,-1.1875 0.64063,-0.42187 1.45313,-0.42187 0.46875,0 0.89062,0.1875 0.4375,0.1875 0.85938,0.67187 v -3.01562 l -1.14063,-0.125 v -0.46875 l 2.07813,-0.59375 0.1875,0.0937 -0.0469,1.90625 v 7.20312 l 1.07813,0.15625 v 0.48438 z m 6.36117,-5.98437 v -0.48438 h 2.60938 v 0.48438 l -0.71875,0.14062 -2.15625,5.65625 q -0.65625,1.78125 -1.28125,2.5625 -0.625,0.79688 -1.45313,0.79688 -0.48437,0 -0.85937,-0.25 -0.35938,-0.23438 -0.35938,-0.625 0.0625,-0.29688 0.32813,-0.4375 0.26562,-0.14063 0.5625,-0.14063 0.26562,0 0.48437,0.10938 0.23438,0.10937 0.5,0.39062 l 0.0781,0.0625 q 0.42187,-0.35937 0.70312,-0.875 0.29688,-0.5 0.48438,-1.04687 l 0.0625,-0.15625 -2.42188,-6.09375 -0.73437,-0.0937 v -0.48438 h 3.20312 v 0.48438 l -1.17187,0.14062 1.67187,4.54688 1.64063,-4.53125 z m 3.37085,1.76562 v -0.625 l 5.15625,-3 0.39063,0.71875 -4.625,2.59375 4.625,2.59375 -0.39063,0.71875 z m 9.28034,4.25 q -0.8125,0 -1.28125,-0.53125 -0.46875,-0.54687 -0.45313,-1.85937 l 0.0469,-3.32813 -0.95313,-0.20312 v -0.46875 l 1.96875,-0.1875 0.125,0.125 -0.0625,1.875 v 2.0625 q 0,0.85937 0.26563,1.21875 0.26562,0.35937 0.79687,0.35937 0.9375,0 1.875,-0.875 l 0.0312,-3.92187 -0.9375,-0.1875 v -0.46875 l 1.92188,-0.1875 0.14062,0.125 -0.0469,1.875 v 3.73437 l 0.90625,0.1875 v 0.48438 l -1.84375,0.10937 -0.14063,-1.1875 q -0.53125,0.65625 -1.14062,0.95313 -0.60938,0.29687 -1.21875,0.29687 z m 7.06713,-5.03125 h 0.53125 q 0.90625,0 1.40625,-0.46875 0.5,-0.46875 0.5,-1.32812 0,-0.73438 -0.42187,-1.125 -0.40625,-0.40625 -1.20313,-0.40625 -0.125,0 -0.28125,0.0156 -0.14062,0.0156 -0.32812,0.0469 l -0.17188,0.65625 q -0.10937,0.42187 -0.26562,0.625 -0.15625,0.20312 -0.51563,0.20312 -0.20312,0 -0.375,-0.0937 -0.17187,-0.10937 -0.26562,-0.375 0.1875,-0.82812 0.84375,-1.25 0.67187,-0.42187 1.59375,-0.42187 1.17187,0 1.85937,0.57812 0.6875,0.57813 0.6875,1.51563 0,0.71875 -0.45312,1.28125 -0.45313,0.5625 -1.28125,0.85937 1.01562,0.20313 1.51562,0.78125 0.5,0.5625 0.5,1.39063 0,0.71875 -0.375,1.29687 -0.375,0.57813 -1.04687,0.92188 -0.67188,0.32812 -1.57813,0.32812 -0.96875,0 -1.67187,-0.4375 -0.6875,-0.45312 -0.875,-1.45312 0.21875,-0.4375 0.67187,-0.4375 0.34375,0 0.5,0.23437 0.15625,0.21875 0.29688,0.71875 l 0.17187,0.70313 q 0.21875,0.0469 0.40625,0.0625 0.1875,0.0156 0.32813,0.0156 1,0 1.48437,-0.51562 0.5,-0.51563 0.5,-1.40625 0,-0.875 -0.51562,-1.35938 -0.5,-0.5 -1.53125,-0.5 h -0.64063 z m 5.05466,4.85938 v -0.85938 q 0.53125,-0.53125 1.03125,-1.03125 0.5,-0.51562 0.92188,-0.96875 1,-1.0625 1.46875,-1.90625 0.46875,-0.85937 0.46875,-1.625 0,-0.82812 -0.4375,-1.3125 -0.4375,-0.48437 -1.17188,-0.48437 -0.125,0 -0.29687,0.0156 -0.15625,0.0156 -0.34375,0.0625 l -0.26563,0.90625 q -0.125,0.5 -0.3125,0.70313 -0.17187,0.20312 -0.45312,0.20312 -0.4375,0 -0.67188,-0.42187 0.0781,-0.70313 0.45313,-1.15625 0.39062,-0.46875 0.96875,-0.6875 0.59375,-0.21875 1.26562,-0.21875 1.29688,0 1.875,0.64062 0.59375,0.625 0.59375,1.625 0,0.57813 -0.23437,1.14063 -0.23438,0.54687 -0.8125,1.23437 -0.57813,0.6875 -1.59375,1.67188 -0.26563,0.26562 -0.65625,0.625 -0.375,0.35937 -0.78125,0.75 h 4.45312 v 1.09375 z m 12.32028,-4.70313 v 0.625 l -5.15625,3 -0.39062,-0.71875 4.625,-2.59375 -4.625,-2.59375 0.39062,-0.71875 z"
       id="path153"
       inkscape:connector-curvature="0"
       style="fill:#202122;fill-rule:nonzero" />
    <path
       d="m 130.14714,274.66928 h 91.81102 v 27.87402 h -91.81102 z"
       id="path155"
       inkscape:connector-curvature="0"
       style="fill:#000000;fill-opacity:0;fill-rule:evenodd" />
    <path
       d="m 156.32721,294.10504 q -1.39063,0 -2.54688,-0.67188 l 0.0469,-1.79687 h 1.17187 l 0.25,1.45312 q 0.26563,0.10938 0.53125,0.15625 0.26563,0.0469 0.5625,0.0469 0.64063,0 0.96875,-0.20313 0.34375,-0.21875 0.34375,-0.65625 0,-0.32812 -0.25,-0.57812 -0.25,-0.25 -0.98437,-0.45313 l -0.79688,-0.23437 q -0.84375,-0.25 -1.3125,-0.8125 -0.45312,-0.5625 -0.45312,-1.375 0,-1.01563 0.78125,-1.70313 0.79687,-0.70312 2.28125,-0.70312 0.64062,0 1.1875,0.15625 0.54687,0.15625 1.125,0.4375 l -0.0937,1.60937 h -1.1875 l -0.28125,-1.26562 q -0.3125,-0.125 -0.8125,-0.125 -0.5,0 -0.79688,0.21875 -0.29687,0.20312 -0.29687,0.60937 0,0.29688 0.23437,0.53125 0.23438,0.21875 1,0.45313 l 0.71875,0.20312 q 1.03125,0.3125 1.48438,0.89063 0.45312,0.5625 0.45312,1.375 0,1.15625 -0.89062,1.79687 -0.875,0.64063 -2.4375,0.64063 z m 7.82487,0 q -1.14062,0 -1.98437,-0.46875 -0.82813,-0.48438 -1.28125,-1.34375 -0.45313,-0.85938 -0.45313,-1.98438 0,-1.125 0.48438,-1.95312 0.5,-0.84375 1.34375,-1.3125 0.85937,-0.46875 1.89062,-0.46875 1.04688,0 1.89063,0.45312 0.84375,0.45313 1.34375,1.29688 0.5,0.84375 0.5,1.98437 0,1.14063 -0.45313,2 -0.45312,0.84375 -1.29687,1.32813 -0.82813,0.46875 -1.98438,0.46875 z m 0,-0.76563 q 0.625,0 0.92188,-0.71875 0.3125,-0.71875 0.3125,-2.26562 0,-1.5625 -0.3125,-2.28125 -0.29688,-0.71875 -0.92188,-0.71875 -0.625,0 -0.9375,0.71875 -0.29687,0.71875 -0.29687,2.28125 0,1.54687 0.29687,2.26562 0.3125,0.71875 0.9375,0.71875 z m 9.68993,0.70313 -0.0781,-1.21875 q -0.46875,0.60937 -1.07813,0.95312 -0.59375,0.32813 -1.29687,0.32813 -0.9375,0 -1.51563,-0.59375 -0.5625,-0.59375 -0.5625,-2.04688 l 0.0625,-3.57812 -0.84375,-0.1875 v -0.60938 l 2.98438,-0.42187 0.23437,0.15625 -0.0781,2.0625 v 2.59375 q 0,0.67187 0.21875,0.9375 0.21875,0.26562 0.57812,0.26562 0.3125,0 0.64063,-0.1875 0.32812,-0.1875 0.625,-0.46875 l 0.0625,-4.15625 -0.8125,-0.17187 v -0.5625 l 2.92187,-0.46875 0.23438,0.15625 -0.0469,2.0625 v 4.17187 l 0.76563,0.15625 v 0.6875 z m 3.69325,-0.15625 v -0.6875 l 0.8125,-0.15625 q 0.0156,-0.54688 0.0156,-1.15625 0,-0.625 0,-1.07813 v -0.85937 q 0,-0.42188 -0.0156,-0.67188 0,-0.26562 -0.0156,-0.48437 0,-0.23438 -0.0156,-0.53125 l -0.89062,-0.14063 v -0.5625 l 2.89062,-0.98437 0.25,0.15625 0.14063,1.73437 q 0.3125,-0.9375 0.85937,-1.40625 0.5625,-0.48437 1.10938,-0.48437 0.48437,0 0.82812,0.28125 0.35938,0.26562 0.4375,0.79687 -0.0156,0.57813 -0.3125,0.89063 -0.28125,0.3125 -0.71875,0.3125 -0.625,0 -1.14062,-0.6875 l -0.0781,-0.10938 q -0.32812,0.29688 -0.60937,0.76563 -0.26563,0.46875 -0.375,0.98437 v 1 q 0,0.45313 0,1.04688 0,0.57812 0.0156,1.09375 l 1.15625,0.25 v 0.6875 z m 10.23774,0.21875 q -1,0 -1.82813,-0.40625 -0.82812,-0.42188 -1.32812,-1.25 -0.5,-0.84375 -0.5,-2.07813 0,-1.20312 0.53125,-2.04687 0.54687,-0.85938 1.4375,-1.29688 0.90625,-0.45312 2,-0.45312 0.76562,0 1.35937,0.29687 0.60938,0.28125 0.96875,0.76563 0.35938,0.48437 0.40625,1.07812 -0.23437,0.76563 -1,0.76563 -0.42187,0 -0.75,-0.3125 -0.3125,-0.3125 -0.35937,-1.07813 l -0.10938,-0.73437 q -0.0469,-0.0156 -0.125,-0.0156 -0.0781,0 -0.15625,0 -0.40625,0 -0.8125,0.28125 -0.40625,0.26563 -0.67187,0.875 -0.26563,0.59375 -0.26563,1.59375 0,1.26563 0.5625,1.95313 0.5625,0.67187 1.48438,0.67187 0.53125,0 0.92187,-0.21875 0.40625,-0.23437 0.71875,-0.60937 l 0.51563,0.46875 q -0.42188,0.89062 -1.20313,1.32812 -0.76562,0.42188 -1.79687,0.42188 z m 7.4004,-6.76563 q -0.40625,0 -0.75,0.5 -0.34375,0.5 -0.39062,1.85938 h 1.23437 q 0.53125,0 0.71875,-0.20313 0.1875,-0.21875 0.1875,-0.71875 0,-0.73437 -0.29687,-1.07812 -0.29688,-0.35938 -0.70313,-0.35938 z m 0.0312,6.76563 q -1.07812,0 -1.90625,-0.4375 -0.8125,-0.45313 -1.28125,-1.29688 -0.46875,-0.84375 -0.46875,-2.01562 0,-1.23438 0.54688,-2.07813 0.5625,-0.84375 1.42187,-1.26562 0.85938,-0.4375 1.79688,-0.4375 0.96875,0 1.64062,0.40625 0.6875,0.40625 1.03125,1.10937 0.35938,0.70313 0.35938,1.59375 0,0.42188 -0.0781,0.78125 h -4.23437 q 0.0625,1.15625 0.625,1.70313 0.57812,0.54687 1.32812,0.54687 0.60938,0 1.03125,-0.21875 0.42188,-0.23437 0.75,-0.57812 l 0.51563,0.46875 q -0.45313,0.875 -1.23438,1.29687 -0.78125,0.42188 -1.84375,0.42188 z"
       id="path157"
       inkscape:connector-curvature="0"
       style="fill:#202122;fill-rule:nonzero" />
    <path
       d="m 213.18636,379.75586 h 138.01573 v 23.93701 H 213.18636 Z"
       id="path159"
       inkscape:connector-curvature="0"
       style="fill:#000000;fill-opacity:0;fill-rule:evenodd" />
    <path
       d="m 223.9586,385.99213 v -0.78125 h 4.71875 v 0.78125 l -1.09375,0.125 q -0.0156,0.89062 -0.0312,1.79687 0,0.90625 0,1.84375 v 0.51563 q 0,0.90625 0,1.82812 0.0156,0.92188 0.0312,1.82813 l 1.09375,0.10937 v 0.79688 H 223.9586 V 394.039 l 1.09375,-0.10937 q 0.0312,-0.89063 0.0312,-1.79688 0,-0.92187 0,-1.84375 v -0.53125 q 0,-0.92187 0,-1.82812 0,-0.92188 -0.0312,-1.8125 z m 5.76477,4.65625 V 389.539 l 6.125,-3.15625 0.625,1.25 -5.03125,2.45313 5.03125,2.46875 -0.625,1.25 z m 13.89491,-4.6875 v -0.75 h 3.17188 v 0.78125 l -1.09375,0.1875 -3.01563,8.6875 h -1.42187 l -3.15625,-8.78125 -0.84375,-0.0937 v -0.78125 h 4.71875 v 0.75 l -1.25,0.15625 2,6.03125 2.03125,-6 z m 2.61141,8.875 v -0.6875 l 0.8125,-0.15625 q 0.0156,-0.54688 0.0156,-1.15625 0,-0.625 0,-1.07813 v -0.85937 q 0,-0.42188 -0.0156,-0.67188 0,-0.26562 -0.0156,-0.48437 0,-0.23438 -0.0156,-0.53125 l -0.89063,-0.14063 v -0.5625 l 2.89063,-0.98437 0.25,0.15625 0.14062,1.73437 q 0.3125,-0.9375 0.85938,-1.40625 0.5625,-0.48437 1.10937,-0.48437 0.48438,0 0.82813,0.28125 0.35937,0.26562 0.4375,0.79687 -0.0156,0.57813 -0.3125,0.89063 -0.28125,0.3125 -0.71875,0.3125 -0.625,0 -1.14063,-0.6875 l -0.0781,-0.10938 q -0.32813,0.29688 -0.60938,0.76563 -0.26562,0.46875 -0.375,0.98437 v 1 q 0,0.45313 0,1.04688 0,0.57812 0.0156,1.09375 l 1.15625,0.25 v 0.6875 z m 12.13792,-8.84375 v -0.78125 h 4.64063 v 0.78125 l -1.09375,0.125 q -0.0156,0.89062 -0.0312,1.79687 0,0.90625 0,1.84375 v 0.53125 q 0,0.89063 0,1.8125 0.0156,0.92188 0.0312,1.82813 l 1.09375,0.10937 v 0.79688 h -4.64063 V 394.039 l 1.03125,-0.0937 q 0.0312,-0.90625 0.0312,-1.8125 0,-0.92187 0,-1.8125 h -3.125 q 0,0.98438 0,1.875 0.0156,0.875 0.0312,1.75 l 1.01563,0.0937 v 0.79688 h -4.60936 V 394.039 l 1.0625,-0.10937 q 0.0312,-0.89063 0.0312,-1.79688 0,-0.92187 0,-1.84375 v -0.53125 q 0,-0.92187 0,-1.82812 0,-0.90625 -0.0312,-1.8125 l -1.0625,-0.125 v -0.78125 h 4.60936 v 0.78125 l -1.01563,0.10937 q -0.0156,0.89063 -0.0312,1.78125 0,0.875 0,1.57813 h 3.125 q 0,-0.84375 0,-1.6875 0,-0.84375 -0.0312,-1.67188 z m 5.66519,4.65625 V 389.539 l 6.125,-3.15625 0.625,1.25 -5.03125,2.45313 5.03125,2.46875 -0.625,1.25 z m 13.00431,4.34375 -0.0781,-1.21875 q -0.46875,0.60937 -1.07812,0.95312 -0.59375,0.32813 -1.29688,0.32813 -0.9375,0 -1.51562,-0.59375 -0.5625,-0.59375 -0.5625,-2.04688 l 0.0625,-3.57812 -0.84375,-0.1875 V 388.039 l 2.98437,-0.42187 0.23438,0.15625 -0.0781,2.0625 v 2.59375 q 0,0.67187 0.21875,0.9375 0.21875,0.26562 0.57813,0.26562 0.3125,0 0.64062,-0.1875 0.32813,-0.1875 0.625,-0.46875 l 0.0625,-4.15625 -0.8125,-0.17187 v -0.5625 l 2.92188,-0.46875 0.23437,0.15625 -0.0469,2.0625 v 4.17187 l 0.76562,0.15625 v 0.6875 z m 5.97448,-5.375 h 0.42188 q 0.82812,0 1.29687,-0.42188 0.48438,-0.4375 0.48438,-1.39062 0,-0.84375 -0.39063,-1.25 -0.375,-0.42188 -1.09375,-0.42188 -0.0625,0 -0.14062,0 -0.0625,0 -0.14063,0.0156 l -0.15625,0.95312 q -0.0781,0.54688 -0.39062,0.78125 -0.29688,0.21875 -0.6875,0.21875 -0.5625,0 -0.8125,-0.46875 0.0312,-0.79687 0.4375,-1.29687 0.40625,-0.5 1.04687,-0.73438 0.65625,-0.23437 1.40625,-0.23437 1.625,0 2.42188,0.67187 0.8125,0.67188 0.8125,1.67188 0,0.6875 -0.48438,1.32812 -0.48437,0.625 -1.60937,0.92188 1.29687,0.23437 1.82812,0.85937 0.53125,0.60938 0.53125,1.5625 0,0.76563 -0.4375,1.375 -0.42187,0.60938 -1.23437,0.95313 -0.8125,0.34375 -1.96875,0.34375 -1.53125,0 -2.34375,-0.625 -0.79688,-0.64063 -0.85938,-1.79688 0.14063,-0.34375 0.39063,-0.5 0.26562,-0.15625 0.53125,-0.15625 0.45312,0 0.70312,0.28125 0.26563,0.28125 0.375,1.03125 l 0.125,0.96875 q 0.0937,0.0156 0.17188,0.0312 0.0781,0 0.17187,0 1.98438,0 1.98438,-1.96875 0,-0.90625 -0.48438,-1.39062 -0.48437,-0.48438 -1.39062,-0.48438 h -0.51563 z m 6.02185,5.21875 V 393.539 q 0.51563,-0.5 1,-0.98437 0.5,-0.48438 0.9375,-0.9375 0.70313,-0.70313 1.15625,-1.28125 0.46875,-0.59375 0.70313,-1.17188 0.23437,-0.59375 0.23437,-1.25 0,-0.84375 -0.40625,-1.3125 -0.39062,-0.46875 -1.07812,-0.46875 -0.0937,0 -0.1875,0 -0.0937,0 -0.1875,0.0156 l -0.1875,1.03125 q -0.10938,0.76562 -0.4375,1.01562 -0.3125,0.23438 -0.64063,0.23438 -0.3125,0 -0.57812,-0.15625 -0.25,-0.17188 -0.375,-0.4375 0.0156,-0.8125 0.48437,-1.35938 0.46875,-0.54687 1.23438,-0.82812 0.76562,-0.28125 1.67187,-0.28125 1.07813,0 1.73438,0.34375 0.67187,0.32812 0.98437,0.90625 0.32813,0.5625 0.32813,1.28125 0,0.70312 -0.375,1.375 -0.35938,0.65625 -1.14063,1.34375 -0.76562,0.6875 -1.98437,1.51562 -0.29688,0.21875 -0.625,0.4375 -0.3125,0.21875 -0.64063,0.46875 h 4.95313 v 1.79688 z m 10.67807,-0.82813 q 0,1 -0.46875,1.78125 -0.45312,0.78125 -1.15625,1.28125 -0.6875,0.5 -1.39062,0.71875 l -0.20313,-0.60937 q 0.73438,-0.375 1.20313,-0.89063 0.48437,-0.51562 0.75,-1.09375 l -0.51563,-0.26562 q -0.45312,-0.25 -0.64062,-0.57813 -0.1875,-0.34375 -0.1875,-0.65625 0,-0.54687 0.35937,-0.90625 0.375,-0.375 0.9375,-0.375 0.3125,0 0.5625,0.0937 0.26563,0.0781 0.53125,0.3125 0.14063,0.34375 0.17188,0.60938 0.0469,0.25 0.0469,0.57812 z m 9.64274,0.98438 -0.0781,-1.21875 q -0.46875,0.60937 -1.07812,0.95312 -0.59375,0.32813 -1.29688,0.32813 -0.9375,0 -1.51562,-0.59375 -0.5625,-0.59375 -0.5625,-2.04688 l 0.0625,-3.57812 -0.84375,-0.1875 V 388.039 l 2.98437,-0.42187 0.23438,0.15625 -0.0781,2.0625 v 2.59375 q 0,0.67187 0.21875,0.9375 0.21875,0.26562 0.57813,0.26562 0.3125,0 0.64062,-0.1875 0.32813,-0.1875 0.625,-0.46875 l 0.0625,-4.15625 -0.8125,-0.17187 v -0.5625 l 2.92188,-0.46875 0.23437,0.15625 -0.0469,2.0625 v 4.17187 l 0.76562,0.15625 v 0.6875 z m 5.97448,-5.375 h 0.42188 q 0.82812,0 1.29687,-0.42188 0.48438,-0.4375 0.48438,-1.39062 0,-0.84375 -0.39063,-1.25 -0.375,-0.42188 -1.09375,-0.42188 -0.0625,0 -0.14062,0 -0.0625,0 -0.14063,0.0156 l -0.15625,0.95312 q -0.0781,0.54688 -0.39062,0.78125 -0.29688,0.21875 -0.6875,0.21875 -0.5625,0 -0.8125,-0.46875 0.0312,-0.79687 0.4375,-1.29687 0.40625,-0.5 1.04687,-0.73438 0.65625,-0.23437 1.40625,-0.23437 1.625,0 2.42188,0.67187 0.8125,0.67188 0.8125,1.67188 0,0.6875 -0.48438,1.32812 -0.48437,0.625 -1.60937,0.92188 1.29687,0.23437 1.82812,0.85937 0.53125,0.60938 0.53125,1.5625 0,0.76563 -0.4375,1.375 -0.42187,0.60938 -1.23437,0.95313 -0.8125,0.34375 -1.96875,0.34375 -1.53125,0 -2.34375,-0.625 -0.79688,-0.64063 -0.85938,-1.79688 0.14063,-0.34375 0.39063,-0.5 0.26562,-0.15625 0.53125,-0.15625 0.45312,0 0.70312,0.28125 0.26563,0.28125 0.375,1.03125 l 0.125,0.96875 q 0.0937,0.0156 0.17188,0.0312 0.0781,0 0.17187,0 1.98438,0 1.98438,-1.96875 0,-0.90625 -0.48438,-1.39062 -0.48437,-0.48438 -1.39062,-0.48438 h -0.51563 z m 6.02185,5.21875 V 393.539 q 0.51563,-0.5 1,-0.98437 0.5,-0.48438 0.9375,-0.9375 0.70313,-0.70313 1.15625,-1.28125 0.46875,-0.59375 0.70313,-1.17188 0.23437,-0.59375 0.23437,-1.25 0,-0.84375 -0.40625,-1.3125 -0.39062,-0.46875 -1.07812,-0.46875 -0.0937,0 -0.1875,0 -0.0937,0 -0.1875,0.0156 l -0.1875,1.03125 q -0.10938,0.76562 -0.4375,1.01562 -0.3125,0.23438 -0.64063,0.23438 -0.3125,0 -0.57812,-0.15625 -0.25,-0.17188 -0.375,-0.4375 0.0156,-0.8125 0.48437,-1.35938 0.46875,-0.54687 1.23438,-0.82812 0.76562,-0.28125 1.67187,-0.28125 1.07813,0 1.73438,0.34375 0.67187,0.32812 0.98437,0.90625 0.32813,0.5625 0.32813,1.28125 0,0.70312 -0.375,1.375 -0.35938,0.65625 -1.14063,1.34375 -0.76562,0.6875 -1.98437,1.51562 -0.29688,0.21875 -0.625,0.4375 -0.3125,0.21875 -0.64063,0.46875 h 4.95313 v 1.79688 z m 14.61557,-5.29688 v 1.10938 l -6.125,3.15625 -0.64062,-1.25 5.03125,-2.46875 -5.03125,-2.45313 0.64062,-1.25 z m 4.03556,4.46875 q 0,1 -0.46875,1.78125 -0.45313,0.78125 -1.15625,1.28125 -0.6875,0.5 -1.39063,0.71875 l -0.20312,-0.60937 q 0.73437,-0.375 1.20312,-0.89063 0.48438,-0.51562 0.75,-1.09375 l -0.51562,-0.26562 q -0.45313,-0.25 -0.64063,-0.57813 -0.1875,-0.34375 -0.1875,-0.65625 0,-0.54687 0.35938,-0.90625 0.375,-0.375 0.9375,-0.375 0.3125,0 0.5625,0.0937 0.26562,0.0781 0.53125,0.3125 0.14062,0.34375 0.17187,0.60938 0.0469,0.25 0.0469,0.57812 z"
       id="path161"
       inkscape:connector-curvature="0"
       style="fill:#202122;fill-rule:nonzero" />
    <path
       d="m 243.13885,407.82648 q 0,0.95312 0,1.90625 0.0156,0.9375 0.0312,1.85937 h 0.48437 q 1.25,0 1.96875,-1.03125 0.73438,-1.04687 0.73438,-2.95312 0,-1.92188 -0.73438,-2.9375 -0.71875,-1.01563 -1.95312,-1.01563 h -0.5 q -0.0156,0.90625 -0.0312,1.82813 0,0.92187 0,1.875 z m -3.59375,-4.23438 v -0.78125 h 4.35937 q 1.5625,0 2.67188,0.57813 1.10937,0.57812 1.70312,1.65625 0.60938,1.0625 0.60938,2.54687 0,1.53125 -0.64063,2.625 -0.64062,1.07813 -1.82812,1.65625 -1.17188,0.5625 -2.78125,0.5625 h -4.09375 v -0.79687 l 1.09375,-0.10938 q 0.0312,-0.89062 0.0312,-1.8125 0,-0.9375 0,-1.875 v -0.48437 q 0,-0.92188 0,-1.82813 0,-0.92187 -0.0312,-1.8125 z m 13.8952,2.29688 q -0.40625,0 -0.75,0.5 -0.34375,0.5 -0.39062,1.85937 h 1.23437 q 0.53125,0 0.71875,-0.20312 0.1875,-0.21875 0.1875,-0.71875 0,-0.73438 -0.29687,-1.07813 -0.29688,-0.35937 -0.70313,-0.35937 z m 0.0312,6.76562 q -1.07812,0 -1.90625,-0.4375 -0.8125,-0.45312 -1.28125,-1.29687 -0.46875,-0.84375 -0.46875,-2.01563 0,-1.23437 0.54688,-2.07812 0.5625,-0.84375 1.42187,-1.26563 0.85938,-0.4375 1.79688,-0.4375 0.96875,0 1.64062,0.40625 0.6875,0.40625 1.03125,1.10938 0.35938,0.70312 0.35938,1.59375 0,0.42187 -0.0781,0.78125 h -4.23437 q 0.0625,1.15625 0.625,1.70312 0.57812,0.54688 1.32812,0.54688 0.60938,0 1.03125,-0.21875 0.42188,-0.23438 0.75,-0.57813 l 0.51563,0.46875 q -0.45313,0.875 -1.23438,1.29688 -0.78125,0.42187 -1.84375,0.42187 z m 3.96408,-0.21875 v -0.6875 l 0.79688,-0.17187 q 0.0156,-0.53125 0.0156,-1.14063 0,-0.625 0,-1.07812 v -0.84375 q 0,-0.60938 -0.0156,-0.9375 0,-0.32813 -0.0312,-0.76563 l -0.89063,-0.14062 v -0.5625 l 2.89063,-0.98438 0.25,0.15625 0.0937,1.0625 q 0.51562,-0.60937 1.07812,-0.90625 0.5625,-0.3125 1.20313,-0.3125 1.51562,0 1.95312,1.29688 0.60938,-0.71875 1.17188,-1 0.5625,-0.29688 1.1875,-0.29688 1.125,0 1.625,0.64063 0.51562,0.64062 0.51562,1.95312 v 1.64063 q 0,0.46875 0,1.09375 0,0.60937 0.0156,1.14062 l 0.73437,0.15625 v 0.6875 h -3.78125 v -0.6875 l 0.71875,-0.17187 q 0.0156,-0.53125 0.0156,-1.14063 0,-0.60937 0,-1.07812 v -1.42188 q 0,-0.8125 -0.1875,-1.09375 -0.1875,-0.29687 -0.65625,-0.29687 -0.60938,0 -1.21875,0.53125 0.0156,0.125 0.0156,0.26562 0.0156,0.14063 0.0156,0.29688 v 1.71875 q 0,0.48437 0,1.09375 0,0.60937 0,1.15625 l 0.70312,0.14062 v 0.6875 h -3.78125 v -0.6875 l 0.75,-0.17187 q 0.0156,-0.53125 0.0156,-1.14063 0,-0.60937 0,-1.07812 v -1.40625 q 0,-0.78125 -0.1875,-1.09375 -0.17188,-0.3125 -0.65625,-0.3125 -0.3125,0 -0.625,0.15625 -0.29688,0.14062 -0.57813,0.375 v 2.28125 q 0,0.45312 0,1.07812 0,0.625 0.0156,1.17188 l 0.6875,0.14062 v 0.6875 z m 18.86249,0.20313 q -1.26562,0 -1.60937,-1.04688 -0.46875,0.48438 -0.90625,0.78125 -0.42188,0.28125 -1.1875,0.28125 -0.84375,0 -1.39063,-0.48437 -0.53125,-0.48438 -0.53125,-1.39063 0,-0.53125 0.23438,-0.95312 0.23437,-0.42188 0.84375,-0.78125 0.625,-0.375 1.75,-0.70313 0.21875,-0.0625 0.51562,-0.14062 0.29688,-0.0781 0.59375,-0.14063 v -0.48437 q 0,-0.98438 -0.25,-1.32813 -0.23437,-0.35937 -0.9375,-0.35937 -0.0937,0 -0.1875,0 -0.0781,0 -0.20312,0.0156 l -0.0781,0.64063 q -0.0156,0.71875 -0.32812,1.04687 -0.3125,0.3125 -0.73438,0.3125 -0.8125,0 -0.98437,-0.73437 0.0625,-0.90625 0.92187,-1.46875 0.875,-0.57813 2.45313,-0.57813 1.40625,0 2.01562,0.64063 0.60938,0.64062 0.60938,2.125 v 3.28125 q 0,0.4375 0.3125,0.4375 0.125,0 0.21875,-0.0625 0.10937,-0.0781 0.23437,-0.26563 l 0.39063,0.26563 q -0.26563,0.57812 -0.6875,0.84375 -0.42188,0.25 -1.07813,0.25 z M 272.845,410.4046 q 0,0.53125 0.25,0.79688 0.26562,0.26562 0.625,0.26562 0.17187,0 0.34375,-0.0625 0.17187,-0.0781 0.54687,-0.34375 v -2.375 q -0.1875,0.0625 -0.375,0.125 -0.17187,0.0625 -0.3125,0.125 -0.5,0.20313 -0.79687,0.57813 -0.28125,0.375 -0.28125,0.89062 z m 5.56375,2.03125 v -0.6875 l 0.79687,-0.17187 q 0.0156,-0.53125 0.0156,-1.14063 0,-0.625 0,-1.07812 v -0.84375 q 0,-0.60938 -0.0156,-0.9375 0,-0.32813 -0.0312,-0.76563 l -0.89062,-0.14062 v -0.5625 l 2.89062,-0.98438 0.25,0.15625 0.0937,1.0625 q 0.57813,-0.67187 1.14063,-0.9375 0.5625,-0.28125 1.20312,-0.28125 0.95313,0 1.53125,0.64063 0.57813,0.625 0.57813,1.875 v 1.71875 q 0,0.48437 0,1.09375 0,0.60937 0.0156,1.15625 l 0.73438,0.14062 v 0.6875 h -3.875 v -0.6875 l 0.76562,-0.15625 q 0.0156,-0.54687 0.0156,-1.15625 0,-0.60937 0,-1.07812 v -1.53125 q 0,-0.70313 -0.1875,-0.98438 -0.1875,-0.29687 -0.60938,-0.29687 -0.57812,0 -1.26562,0.53125 v 2.28125 q 0,0.45312 0,1.07812 0,0.625 0.0156,1.17188 l 0.6875,0.14062 v 0.6875 z m 11.52829,-3.5 q 0,1.20313 0.42187,1.82813 0.42188,0.60937 1.09375,0.60937 0.5,0 0.90625,-0.32812 v -4.375 q -0.39062,-0.29688 -0.85937,-0.29688 -0.67188,0 -1.125,0.625 -0.4375,0.625 -0.4375,1.9375 z m 2.625,3.65625 -0.125,-0.82812 q -0.84375,0.89062 -2.0625,0.89062 -0.82813,0 -1.5,-0.42187 -0.65625,-0.42188 -1.04688,-1.25 -0.375,-0.82813 -0.375,-2.01563 0,-1.20312 0.45313,-2.0625 0.46875,-0.85937 1.20312,-1.3125 0.75,-0.46875 1.57813,-0.46875 0.5625,0 0.98437,0.20313 0.4375,0.1875 0.78125,0.57812 v -2.6875 l -1.03125,-0.14062 v -0.625 l 3.09375,-0.65625 0.23438,0.14062 -0.0469,2.0625 v 7.60938 l 0.71875,0.14062 v 0.6875 z m 3.61209,-0.15625 v -0.6875 l 0.79687,-0.17187 q 0.0156,-0.53125 0.0156,-1.14063 0,-0.625 0,-1.07812 v -0.70313 q 0,-0.59375 -0.0156,-1 0,-0.40625 -0.0312,-0.84375 l -0.90625,-0.14062 v -0.5625 l 3.07813,-0.98438 0.25,0.15625 -0.0469,2.125 v 1.95313 q 0,0.45312 0,1.07812 0,0.625 0.0156,1.17188 l 0.73437,0.14062 v 0.6875 z m 1.95312,-8.39062 q -0.51562,0 -0.89062,-0.32813 -0.35938,-0.34375 -0.35938,-0.84375 0,-0.5 0.35938,-0.82812 0.375,-0.34375 0.89062,-0.34375 0.51563,0 0.875,0.34375 0.375,0.32812 0.375,0.82812 0,0.5 -0.375,0.84375 -0.35937,0.32813 -0.875,0.32813 z m 2.64701,8.39062 v -0.6875 l 0.79687,-0.17187 q 0.0156,-0.53125 0.0156,-1.14063 0,-0.625 0,-1.07812 v -0.84375 q 0,-0.60938 -0.0156,-0.9375 0,-0.32813 -0.0312,-0.76563 l -0.89062,-0.14062 v -0.5625 l 2.89062,-0.98438 0.25,0.15625 0.0937,1.0625 q 0.57813,-0.67187 1.14063,-0.9375 0.5625,-0.28125 1.20312,-0.28125 0.95313,0 1.53125,0.64063 0.57813,0.625 0.57813,1.875 v 1.71875 q 0,0.48437 0,1.09375 0,0.60937 0.0156,1.15625 l 0.73438,0.14062 v 0.6875 h -3.875 v -0.6875 l 0.76562,-0.15625 q 0.0156,-0.54687 0.0156,-1.15625 0,-0.60937 0,-1.07812 v -1.53125 q 0,-0.70313 -0.1875,-0.98438 -0.1875,-0.29687 -0.60938,-0.29687 -0.57812,0 -1.26562,0.53125 v 2.28125 q 0,0.45312 0,1.07812 0,0.625 0.0156,1.17188 l 0.6875,0.14062 v 0.6875 z m 12.21579,-3.28125 q 0.51562,0 0.76562,-0.45312 0.25,-0.45313 0.25,-1.23438 0,-0.78125 -0.25,-1.20312 -0.25,-0.4375 -0.73437,-0.4375 -0.5,0 -0.75,0.4375 -0.25,0.4375 -0.25,1.21875 0,0.78125 0.23437,1.23437 0.23438,0.4375 0.73438,0.4375 z m -1.95313,4.5 q 0,0.64063 0.48438,0.9375 0.48437,0.3125 1.48437,0.3125 1.09375,0 1.64063,-0.32812 0.5625,-0.32813 0.5625,-0.8125 0,-0.3125 -0.23438,-0.57813 -0.23437,-0.25 -0.82812,-0.25 h -1.54688 q -0.79687,0 -1.32812,-0.14062 -0.10938,0.21875 -0.17188,0.40625 -0.0625,0.1875 -0.0625,0.45312 z m 1.96875,-3.8125 q -0.76562,0 -1.34375,-0.17187 -0.17187,0.29687 -0.17187,0.67187 0,0.25 0.1875,0.40625 0.20312,0.15625 0.67187,0.15625 h 1.70313 q 1.125,0 1.78125,0.26563 0.65625,0.26562 0.9375,0.75 0.29687,0.46875 0.29687,1.10937 0,0.73438 -0.48437,1.35938 -0.48438,0.625 -1.45313,1 -0.95312,0.375 -2.35937,0.375 -1.21875,0 -1.90625,-0.25 -0.6875,-0.23438 -0.96875,-0.64063 -0.28125,-0.39062 -0.28125,-0.82812 0,-0.9375 1.21875,-1.5 -0.45313,-0.20313 -0.65625,-0.5 -0.1875,-0.3125 -0.1875,-0.67188 0,-0.51562 0.29687,-0.96875 0.29688,-0.46875 0.84375,-0.9375 -0.60937,-0.3125 -0.90625,-0.82812 -0.28125,-0.51563 -0.28125,-1.14063 0,-1.03125 0.75,-1.70312 0.75,-0.67188 2.3125,-0.67188 0.78125,0 1.35938,0.17188 0.59375,0.17187 0.96875,0.5 l 1.64062,-0.70313 0.23438,0.14063 v 1.14062 h -1.39063 q 0.26563,0.48438 0.26563,1.125 0,0.98438 -0.76563,1.67188 -0.75,0.67187 -2.3125,0.67187 z m 11.77088,-2.70312 v 1.10937 l -6.125,3.15625 -0.64063,-1.25 5.03125,-2.46875 -5.03125,-2.45312 0.64063,-1.25 z"
       id="path163"
       inkscape:connector-curvature="0"
       style="fill:#202122;fill-rule:nonzero" />
    <path
       d="m 221.99771,360.3316 c -12.52487,0 -25.05762,-7.46457 -25.04974,-14.92914 0.008,-7.46457 12.55636,-14.92914 25.11273,-14.92914"
       id="path165"
       inkscape:connector-curvature="0"
       style="fill:#000000;fill-opacity:0;fill-rule:evenodd" />
    <path
       d="m 221.9977,360.3316 c -12.52487,0 -25.05762,-7.46457 -25.04974,-14.92914 0.004,-3.73227 3.14303,-7.46457 7.85069,-10.26379 2.35383,-1.3996 5.09979,-2.56595 8.04207,-3.38239 0.73558,-0.2041 1.48341,-0.38632 2.24046,-0.54489 0.18927,-0.0396 0.37911,-0.0778 0.56947,-0.11444 l 0.43474,-0.08"
       id="path167"
       inkscape:connector-curvature="0"
       style="fill-rule:evenodd;stroke:#1c4587;stroke-width:1;stroke-linecap:butt;stroke-linejoin:round" />
    <path
       d="m 216.23503,332.6619 4.36978,-2.05612 -4.6691,-1.23377 z"
       id="path169"
       inkscape:connector-curvature="0"
       style="fill:#1c4587;fill-rule:evenodd;stroke:#1c4587;stroke-width:1;stroke-linecap:butt" />
    <path
       d="m 342.4171,303.22308 h 105.44882 v 76.50394 H 342.4171 Z"
       id="path171"
       inkscape:connector-curvature="0"
       style="fill:#d9d9d9;fill-rule:evenodd" />
    <path
       d="m 342.4171,303.22308 h 105.44882 v 76.50394 H 342.4171 Z"
       id="path173"
       inkscape:connector-curvature="0"
       style="fill-rule:evenodd;stroke:#595959;stroke-width:1;stroke-linecap:butt;stroke-linejoin:round" />
    <path
       d="M 447.86615,310.9344 H 585.8819 v 14.86615 H 447.86615 Z"
       id="path175"
       inkscape:connector-curvature="0"
       style="fill:#000000;fill-opacity:0;fill-rule:evenodd" />
    <path
       d="m 479.79324,322.60052 v -0.48437 l 1.04688,-0.1875 q 0.0156,-0.53125 0.0156,-1.0625 0.0156,-0.53125 0.0156,-1.0625 v -2.82813 h -1.10938 v -0.57812 l 1.14063,-0.15625 q 0.0781,-1.0625 0.28125,-1.71875 0.21875,-0.67188 0.70312,-1.15625 0.4375,-0.42188 0.89063,-0.57813 0.46875,-0.17187 0.92187,-0.17187 0.46875,0 0.82813,0.17187 0.35937,0.15625 0.45312,0.54688 0,0.25 -0.21875,0.4375 -0.21875,0.17187 -0.59375,0.17187 -0.46875,0 -0.95312,-0.40625 l -0.375,-0.29687 q -0.0469,0.0469 -0.0937,0.0937 -0.0469,0.0312 -0.0937,0.0625 -0.34375,0.35937 -0.53125,1.0625 -0.17188,0.6875 -0.14063,1.8125 h 1.82813 v 0.70312 h -1.8125 v 2.82813 q 0,0.53125 0,1.0625 0.0156,0.51562 0.0312,1.04687 l 1.20312,0.20313 v 0.48437 z m 4.89001,0 v -0.85937 q 0.53125,-0.53125 1.03125,-1.03125 0.5,-0.51563 0.92188,-0.96875 1,-1.0625 1.46875,-1.90625 0.46875,-0.85938 0.46875,-1.625 0,-0.82813 -0.4375,-1.3125 -0.4375,-0.48438 -1.17188,-0.48438 -0.125,0 -0.29687,0.0156 -0.15625,0.0156 -0.34375,0.0625 l -0.26563,0.90625 q -0.125,0.5 -0.3125,0.70312 -0.17187,0.20313 -0.45312,0.20313 -0.4375,0 -0.67188,-0.42188 0.0781,-0.70312 0.45313,-1.15625 0.39062,-0.46875 0.96875,-0.6875 0.59375,-0.21875 1.26562,-0.21875 1.29688,0 1.875,0.64063 0.59375,0.625 0.59375,1.625 0,0.57812 -0.23437,1.14062 -0.23438,0.54688 -0.8125,1.23438 -0.57813,0.6875 -1.59375,1.67187 -0.26563,0.26563 -0.65625,0.625 -0.375,0.35938 -0.78125,0.75 h 4.45312 v 1.09375 z m 8.00779,-4.67187 q -0.40625,0 -0.6875,-0.28125 -0.26563,-0.28125 -0.26563,-0.65625 0,-0.40625 0.26563,-0.6875 0.28125,-0.28125 0.6875,-0.28125 0.40625,0 0.67187,0.28125 0.28125,0.28125 0.28125,0.6875 0,0.375 -0.28125,0.65625 -0.26562,0.28125 -0.67187,0.28125 z m 0,4.84375 q -0.40625,0 -0.6875,-0.28125 -0.26563,-0.28125 -0.26563,-0.65625 0,-0.40625 0.26563,-0.6875 0.28125,-0.28125 0.6875,-0.28125 0.40625,0 0.67187,0.28125 0.28125,0.28125 0.28125,0.6875 0,0.375 -0.28125,0.65625 -0.26562,0.28125 -0.67187,0.28125 z m 9.82263,0.0312 q -0.78125,0 -1.51563,-0.29688 -0.71875,-0.3125 -1.3125,-0.89062 -0.57812,-0.59375 -0.92187,-1.45313 -0.34375,-0.875 -0.34375,-2.03125 0,-1.09375 0.34375,-1.95312 0.34375,-0.875 0.92187,-1.46875 0.59375,-0.59375 1.3125,-0.90625 0.73438,-0.3125 1.51563,-0.3125 0.76562,0 1.48437,0.29687 0.73438,0.29688 1.3125,0.89063 0.59375,0.57812 0.9375,1.45312 0.34375,0.85938 0.34375,2 0,1.09375 -0.34375,1.96875 -0.34375,0.85938 -0.92187,1.46875 -0.57813,0.60938 -1.3125,0.92188 -0.73438,0.3125 -1.5,0.3125 z m 0,-0.67188 q 0.6875,0 1.1875,-0.32812 0.5,-0.34375 0.8125,-0.90625 0.3125,-0.57813 0.45312,-1.28125 0.15625,-0.71875 0.15625,-1.48438 0,-0.75 -0.15625,-1.45312 -0.14062,-0.71875 -0.45312,-1.28125 -0.3125,-0.57813 -0.8125,-0.90625 -0.5,-0.34375 -1.1875,-0.34375 -0.6875,0 -1.1875,0.34375 -0.5,0.32812 -0.82813,0.90625 -0.3125,0.5625 -0.46875,1.28125 -0.15625,0.70312 -0.15625,1.45312 0,0.76563 0.15625,1.48438 0.15625,0.70312 0.46875,1.28125 0.32813,0.5625 0.82813,0.90625 0.5,0.32812 1.1875,0.32812 z m 5.17294,3.65625 v -0.46875 l 1.0625,-0.1875 q 0.0156,-0.54687 0.0156,-1.09375 0.0156,-0.53125 0.0156,-1.0625 v -3.8125 q 0,-0.54687 -0.0156,-0.90625 0,-0.35937 -0.0312,-0.76562 l -1.04688,-0.10938 v -0.46875 l 1.85938,-0.8125 0.20312,0.125 0.0781,0.875 q 0.95312,-1 2.01562,-1 0.71872,0 1.28122,0.40625 0.57813,0.39063 0.92188,1.14063 0.34375,0.73437 0.34375,1.76562 0,1.03125 -0.35938,1.78125 -0.35937,0.75 -0.98437,1.17188 -0.60938,0.40625 -1.40622,0.40625 -0.45313,0 -0.90625,-0.1875 -0.4375,-0.1875 -0.85938,-0.67188 v 1.04688 q 0,0.53125 0,1.0625 0.0156,0.54687 0.0156,1.09375 l 1.21875,0.20312 v 0.46875 z m 3.84375,-8.9375 q -0.3125,0 -0.71875,0.15625 -0.39062,0.15625 -0.90625,0.57813 v 3.75 q 0.375,0.35937 0.73438,0.51562 0.35937,0.15625 0.73437,0.15625 0.74997,0 1.28122,-0.59375 0.53125,-0.59375 0.53125,-1.89062 0,-1.28125 -0.46875,-1.96875 -0.46875,-0.70313 -1.18747,-0.70313 z m 6.05881,5.92188 q -0.6875,0 -1.10938,-0.375 -0.40625,-0.375 -0.40625,-1.14063 0,-0.25 0,-0.5 0,-0.25 0,-0.64062 v -3.14063 h -1.09375 v -0.57812 l 1.1875,-0.15625 0.34375,-1.78125 h 0.79688 l -0.0781,1.8125 h 1.79688 v 0.70312 h -1.8125 v 4.125 q 0,0.51563 0.20312,0.75 0.20313,0.23438 0.53125,0.23438 0.21875,0 0.42188,-0.0937 0.21875,-0.0937 0.46875,-0.26563 l 0.32812,0.34375 q -0.54687,0.70313 -1.57812,0.70313 z m 2.36285,-4.25 v -0.625 l 5.15625,-3 0.39063,0.71875 -4.625,2.59375 4.625,2.59375 -0.39063,0.71875 z m 9.28034,4.25 q -0.8125,0 -1.28125,-0.53125 -0.46875,-0.54688 -0.45313,-1.85938 l 0.0469,-3.32812 -0.95313,-0.20313 v -0.46875 l 1.96875,-0.1875 0.125,0.125 -0.0625,1.875 v 2.0625 q 0,0.85938 0.26563,1.21875 0.26562,0.35938 0.79687,0.35938 0.9375,0 1.875,-0.875 l 0.0312,-3.92188 -0.9375,-0.1875 v -0.46875 l 1.92188,-0.1875 0.14062,0.125 -0.0469,1.875 v 3.73438 l 0.90625,0.1875 v 0.48437 l -1.84375,0.10938 -0.14063,-1.1875 q -0.53125,0.65625 -1.14062,0.95312 -0.60938,0.29688 -1.21875,0.29688 z m 7.06714,-5.03125 h 0.53125 q 0.90625,0 1.40625,-0.46875 0.5,-0.46875 0.5,-1.32813 0,-0.73437 -0.42188,-1.125 -0.40625,-0.40625 -1.20312,-0.40625 -0.125,0 -0.28125,0.0156 -0.14063,0.0156 -0.32813,0.0469 l -0.17187,0.65625 q -0.10938,0.42188 -0.26563,0.625 -0.15625,0.20313 -0.51562,0.20313 -0.20313,0 -0.375,-0.0937 -0.17188,-0.10938 -0.26563,-0.375 0.1875,-0.82813 0.84375,-1.25 0.67188,-0.42188 1.59375,-0.42188 1.17188,0 1.85938,0.57813 0.6875,0.57812 0.6875,1.51562 0,0.71875 -0.45313,1.28125 -0.45312,0.5625 -1.28125,0.85938 1.01563,0.20312 1.51563,0.78125 0.5,0.5625 0.5,1.39062 0,0.71875 -0.375,1.29688 -0.375,0.57812 -1.04688,0.92187 -0.67187,0.32813 -1.57812,0.32813 -0.96875,0 -1.67188,-0.4375 -0.6875,-0.45313 -0.875,-1.45313 0.21875,-0.4375 0.67188,-0.4375 0.34375,0 0.5,0.23438 0.15625,0.21875 0.29687,0.71875 l 0.17188,0.70312 q 0.21875,0.0469 0.40625,0.0625 0.1875,0.0156 0.32812,0.0156 1,0 1.48438,-0.51563 0.5,-0.51562 0.5,-1.40625 0,-0.875 -0.51563,-1.35937 -0.5,-0.5 -1.53125,-0.5 h -0.64062 z m 5.05468,4.85937 v -0.85937 q 0.53125,-0.53125 1.03125,-1.03125 0.5,-0.51563 0.92188,-0.96875 1,-1.0625 1.46875,-1.90625 0.46875,-0.85938 0.46875,-1.625 0,-0.82813 -0.4375,-1.3125 -0.4375,-0.48438 -1.17188,-0.48438 -0.125,0 -0.29687,0.0156 -0.15625,0.0156 -0.34375,0.0625 l -0.26563,0.90625 q -0.125,0.5 -0.3125,0.70312 -0.17187,0.20313 -0.45312,0.20313 -0.4375,0 -0.67188,-0.42188 0.0781,-0.70312 0.45313,-1.15625 0.39062,-0.46875 0.96875,-0.6875 0.59375,-0.21875 1.26562,-0.21875 1.29688,0 1.875,0.64063 0.59375,0.625 0.59375,1.625 0,0.57812 -0.23437,1.14062 -0.23438,0.54688 -0.8125,1.23438 -0.57813,0.6875 -1.59375,1.67187 -0.26563,0.26563 -0.65625,0.625 -0.375,0.35938 -0.78125,0.75 h 4.45312 v 1.09375 z m 12.32025,-4.70312 v 0.625 l -5.15625,3 -0.39062,-0.71875 4.625,-2.59375 -4.625,-2.59375 0.39062,-0.71875 z"
       id="path177"
       inkscape:connector-curvature="0"
       style="fill:#202122;fill-rule:nonzero" />
    <path
       d="M 447.86615,339.75104 H 585.8819 v 14.86612 H 447.86615 Z"
       id="path179"
       inkscape:connector-curvature="0"
       style="fill:#000000;fill-opacity:0;fill-rule:evenodd" />
    <path
       d="m 453.03238,351.41718 v -0.48438 l 1,-0.17187 q 0,-0.5 0,-1.09375 0.0156,-0.59375 0.0156,-1.04688 v -5.85937 l -1.09375,-0.125 v -0.46875 l 2.04688,-0.59375 0.1875,0.0937 -0.0625,1.90625 v 2.35937 q 0.48437,-0.53125 1,-0.76562 0.51562,-0.25 1.0625,-0.25 0.70312,0 1.26562,0.39062 0.57813,0.375 0.92188,1.10938 0.34375,0.73437 0.34375,1.78125 0,1.01562 -0.35938,1.78125 -0.35937,0.76562 -0.98437,1.1875 -0.625,0.42187 -1.40625,0.42187 -0.46875,0 -0.9375,-0.20312 -0.45313,-0.20313 -0.90625,-0.73438 l -0.0937,0.90625 z m 3.79687,-5.75 q -0.3125,0 -0.71875,0.17187 -0.39062,0.15625 -0.9375,0.60938 v 3.65625 q 0.40625,0.375 0.8125,0.54687 0.40625,0.17188 0.76563,0.17188 0.71875,0 1.23437,-0.60938 0.53125,-0.625 0.53125,-1.92187 0,-1.26563 -0.48437,-1.9375 -0.46875,-0.6875 -1.20313,-0.6875 z m 4.14344,5.75 v -0.85938 q 0.53125,-0.53125 1.03125,-1.03125 0.5,-0.51562 0.92187,-0.96875 1,-1.0625 1.46875,-1.90625 0.46875,-0.85937 0.46875,-1.625 0,-0.82812 -0.4375,-1.3125 -0.4375,-0.48437 -1.17187,-0.48437 -0.125,0 -0.29688,0.0156 -0.15625,0.0156 -0.34375,0.0625 l -0.26562,0.90625 q -0.125,0.5 -0.3125,0.70313 -0.17188,0.20312 -0.45313,0.20312 -0.4375,0 -0.67187,-0.42187 0.0781,-0.70313 0.45312,-1.15625 0.39063,-0.46875 0.96875,-0.6875 0.59375,-0.21875 1.26563,-0.21875 1.29687,0 1.875,0.64062 0.59375,0.625 0.59375,1.625 0,0.57813 -0.23438,1.14063 -0.23437,0.54687 -0.8125,1.23437 -0.57812,0.6875 -1.59375,1.67188 -0.26562,0.26562 -0.65625,0.625 -0.375,0.35937 -0.78125,0.75 h 4.45313 v 1.09375 z m 8.00778,-4.67188 q -0.40625,0 -0.6875,-0.28125 -0.26563,-0.28125 -0.26563,-0.65625 0,-0.40625 0.26563,-0.6875 0.28125,-0.28125 0.6875,-0.28125 0.40625,0 0.67187,0.28125 0.28125,0.28125 0.28125,0.6875 0,0.375 -0.28125,0.65625 -0.26562,0.28125 -0.67187,0.28125 z m 0,4.84375 q -0.40625,0 -0.6875,-0.28125 -0.26563,-0.28125 -0.26563,-0.65625 0,-0.40625 0.26563,-0.6875 0.28125,-0.28125 0.6875,-0.28125 0.40625,0 0.67187,0.28125 0.28125,0.28125 0.28125,0.6875 0,0.375 -0.28125,0.65625 -0.26562,0.28125 -0.67187,0.28125 z m 9.3851,-8.46875 h -1.15625 q 0,0.875 -0.0156,1.75 0,0.875 0,1.8125 h 1.01562 q 1.09375,0 1.59375,-0.51562 0.51563,-0.51563 0.51563,-1.32813 0,-0.82812 -0.46875,-1.26562 -0.46875,-0.45313 -1.48438,-0.45313 z m -3.6875,-0.0781 v -0.54688 h 3.71875 q 1.53125,0 2.39063,0.625 0.85937,0.60938 0.85937,1.71875 0,0.76563 -0.5625,1.40625 -0.5625,0.64063 -1.6875,0.84375 0.59375,0.10938 0.96875,0.51563 0.375,0.39062 0.60938,1.17187 l 0.57812,1.96875 1.01563,0.125 v 0.54688 q -0.1875,0.0469 -0.4375,0.0937 -0.25,0.0469 -0.5625,0.0469 -0.625,0 -0.9375,-0.1875 -0.3125,-0.1875 -0.42188,-0.67187 l -0.54687,-2.14063 q -0.10938,-0.54687 -0.34375,-0.8125 -0.21875,-0.26562 -0.57813,-0.35937 -0.34375,-0.0937 -0.89062,-0.0937 h -0.65625 q 0,0.95312 0,1.79687 0.0156,0.82813 0.0156,1.64063 l 1.23438,0.14062 v 0.54688 h -3.76563 v -0.54688 l 1.21875,-0.14062 q 0.0312,-0.84375 0.0312,-1.70313 0,-0.875 0,-1.73437 v -0.65625 q 0,-0.875 0,-1.73438 0,-0.85937 -0.0312,-1.70312 z m 11.52762,2.48437 q -0.35938,0 -0.75,0.21875 -0.375,0.20313 -0.65625,0.67188 -0.26563,0.46875 -0.34375,1.23437 h 2.42187 q 0.48438,0 0.625,-0.1875 0.15625,-0.20312 0.15625,-0.5 0,-0.39062 -0.1875,-0.70312 -0.1875,-0.32813 -0.51562,-0.53125 -0.32813,-0.20313 -0.75,-0.20313 z m 0,6.0625 q -1.35938,0 -2.17188,-0.875 -0.8125,-0.875 -0.8125,-2.40625 0,-1.01562 0.42188,-1.78125 0.42187,-0.76562 1.125,-1.1875 0.70312,-0.42187 1.53125,-0.42187 0.6875,0 1.25,0.3125 0.5625,0.29687 0.89062,0.85937 0.32813,0.5625 0.32813,1.39063 0,0.21875 -0.0312,0.42187 -0.0156,0.1875 -0.0625,0.3125 h -4.25 q 0.0312,1.23438 0.60937,1.875 0.59375,0.64063 1.54688,0.64063 0.64062,0 1.0625,-0.26563 0.4375,-0.26562 0.79687,-0.67187 l 0.3125,0.25 q -0.375,0.70312 -1.01562,1.125 -0.625,0.42187 -1.53125,0.42187 z m 8.63275,-0.0312 q -0.48438,0 -0.8125,-0.28125 -0.3125,-0.28125 -0.39063,-0.75 -0.54687,0.53125 -0.96875,0.79688 -0.40625,0.26562 -0.98437,0.26562 -0.73438,0 -1.26563,-0.42187 -0.53125,-0.42188 -0.53125,-1.25 0,-0.375 0.17188,-0.70313 0.1875,-0.34375 0.67187,-0.65625 0.48438,-0.32812 1.375,-0.64062 0.3125,-0.10938 0.70313,-0.23438 0.40625,-0.125 0.79687,-0.20312 V 347.136 q 0,-0.96875 -0.29687,-1.28125 -0.28125,-0.32813 -0.95313,-0.32813 -0.14062,0 -0.32812,0.0156 -0.17188,0.0156 -0.39063,0.0625 l -0.25,0.875 q -0.1875,0.625 -0.6875,0.625 -0.5625,0 -0.64062,-0.53125 0.1875,-0.76563 0.89062,-1.20313 0.70313,-0.45312 1.71875,-0.45312 1.04688,0 1.54688,0.53125 0.51562,0.51562 0.51562,1.78125 v 2.84375 q 0,0.42187 0.125,0.60937 0.14063,0.17188 0.35938,0.17188 0.17187,0 0.28125,-0.0781 0.125,-0.0781 0.23437,-0.21875 l 0.26563,0.29688 q -0.23438,0.39062 -0.53125,0.54687 -0.28125,0.15625 -0.625,0.15625 z m -3.76563,-1.82812 q 0,0.53125 0.3125,0.76562 0.3125,0.21875 0.76563,0.21875 0.1875,0 0.35937,-0.0469 0.1875,-0.0625 0.4375,-0.21875 0.26563,-0.15625 0.65625,-0.4375 v -2.04688 q -0.34375,0.0937 -0.67187,0.21875 -0.32813,0.10938 -0.54688,0.1875 -0.57812,0.21875 -0.85937,0.46875 -0.28125,0.23438 -0.375,0.46875 -0.0781,0.21875 -0.0781,0.42188 z m 6.79963,-1.4375 q 0,1.29687 0.53125,1.92187 0.53125,0.60938 1.32812,0.60938 0.4375,0 0.76563,-0.17188 0.34375,-0.1875 0.71875,-0.59375 v -3.6875 q -0.45313,-0.40625 -0.8125,-0.54687 -0.35938,-0.15625 -0.6875,-0.15625 -0.5,0 -0.92188,0.28125 -0.40625,0.26562 -0.67187,0.85937 -0.25,0.57813 -0.25,1.48438 z m 3.48437,3.26562 -0.0937,-0.92187 q -0.34375,0.45312 -0.79687,0.70312 -0.45313,0.25 -1.07813,0.25 -0.8125,0 -1.42187,-0.40625 -0.60938,-0.42187 -0.95313,-1.15625 -0.34375,-0.73437 -0.34375,-1.71875 0,-1.01562 0.375,-1.78125 0.375,-0.76562 1.01563,-1.1875 0.64062,-0.42187 1.45312,-0.42187 0.46875,0 0.89063,0.1875 0.4375,0.1875 0.85937,0.67187 V 342.761 l -1.14062,-0.125 v -0.46875 l 2.07812,-0.59375 0.1875,0.0937 -0.0469,1.90625 v 7.20312 l 1.07812,0.15625 v 0.48438 z m 6.36118,-5.98437 v -0.48438 h 2.60937 v 0.48438 l -0.71875,0.14062 -2.15625,5.65625 q -0.65625,1.78125 -1.28125,2.5625 -0.625,0.79688 -1.45312,0.79688 -0.48438,0 -0.85938,-0.25 -0.35937,-0.23438 -0.35937,-0.625 0.0625,-0.29688 0.32812,-0.4375 0.26563,-0.14063 0.5625,-0.14063 0.26563,0 0.48438,0.10938 0.23437,0.10937 0.5,0.39062 l 0.0781,0.0625 q 0.42188,-0.35937 0.70313,-0.875 0.29687,-0.5 0.48437,-1.04687 l 0.0625,-0.15625 -2.42187,-6.09375 -0.73438,-0.0937 v -0.48438 h 3.20313 v 0.48438 l -1.17188,0.14062 1.67188,4.54688 1.64062,-4.53125 z m 3.37085,1.76562 v -0.625 l 5.15628,-3 0.39062,0.71875 -4.625,2.59375 4.625,2.59375 -0.39062,0.71875 z m 11.03036,4.28125 q -0.78125,0 -1.51562,-0.29687 -0.71875,-0.3125 -1.3125,-0.89063 -0.57813,-0.59375 -0.92188,-1.45312 -0.34375,-0.875 -0.34375,-2.03125 0,-1.09375 0.34375,-1.95313 0.34375,-0.875 0.92188,-1.46875 0.59375,-0.59375 1.3125,-0.90625 0.73437,-0.3125 1.51562,-0.3125 0.76563,0 1.48438,0.29688 0.73437,0.29687 1.3125,0.89062 0.59375,0.57813 0.9375,1.45313 0.34375,0.85937 0.34375,2 0,1.09375 -0.34375,1.96875 -0.34375,0.85937 -0.92188,1.46875 -0.57812,0.60937 -1.3125,0.92187 -0.73437,0.3125 -1.5,0.3125 z m 0,-0.67187 q 0.6875,0 1.1875,-0.32813 0.5,-0.34375 0.8125,-0.90625 0.3125,-0.57812 0.45313,-1.28125 0.15625,-0.71875 0.15625,-1.48437 0,-0.75 -0.15625,-1.45313 -0.14063,-0.71875 -0.45313,-1.28125 -0.3125,-0.57812 -0.8125,-0.90625 -0.5,-0.34375 -1.1875,-0.34375 -0.6875,0 -1.1875,0.34375 -0.5,0.32813 -0.82812,0.90625 -0.3125,0.5625 -0.46875,1.28125 -0.15625,0.70313 -0.15625,1.45313 0,0.76562 0.15625,1.48437 0.15625,0.70313 0.46875,1.28125 0.32812,0.5625 0.82812,0.90625 0.5,0.32813 1.1875,0.32813 z m 5.17291,3.65625 V 354.136 l 1.0625,-0.1875 q 0.0156,-0.54688 0.0156,-1.09375 0.0156,-0.53125 0.0156,-1.0625 v -3.8125 q 0,-0.54688 -0.0156,-0.90625 0,-0.35938 -0.0312,-0.76563 l -1.04688,-0.10937 v -0.46875 l 1.85938,-0.8125 0.20312,0.125 0.0781,0.875 q 0.95312,-1 2.01562,-1 0.71875,0 1.28125,0.40625 0.57813,0.39062 0.92188,1.14062 0.34375,0.73438 0.34375,1.76563 0,1.03125 -0.35938,1.78125 -0.35937,0.75 -0.98437,1.17187 -0.60938,0.40625 -1.40625,0.40625 -0.45313,0 -0.90625,-0.1875 -0.4375,-0.1875 -0.85938,-0.67187 v 1.04687 q 0,0.53125 0,1.0625 0.0156,0.54688 0.0156,1.09375 l 1.21875,0.20313 v 0.46875 z m 3.84375,-8.9375 q -0.3125,0 -0.71875,0.15625 -0.39062,0.15625 -0.90625,0.57812 v 3.75 q 0.375,0.35938 0.73438,0.51563 0.35937,0.15625 0.73437,0.15625 0.75,0 1.28125,-0.59375 0.53125,-0.59375 0.53125,-1.89063 0,-1.28125 -0.46875,-1.96875 -0.46875,-0.70312 -1.1875,-0.70312 z m 6.05884,5.92187 q -0.6875,0 -1.10937,-0.375 -0.40625,-0.375 -0.40625,-1.14062 0,-0.25 0,-0.5 0,-0.25 0,-0.64063 v -3.14062 h -1.09375 v -0.57813 l 1.1875,-0.15625 0.34375,-1.78125 h 0.79687 l -0.0781,1.8125 h 1.79687 v 0.70313 h -1.8125 v 4.125 q 0,0.51562 0.20313,0.75 0.20312,0.23437 0.53125,0.23437 0.21875,0 0.42187,-0.0937 0.21875,-0.0937 0.46875,-0.26562 l 0.32813,0.34375 q -0.54688,0.70312 -1.57813,0.70312 z m 2.36286,-4.25 v -0.625 l 5.15625,-3 0.39062,0.71875 -4.625,2.59375 4.625,2.59375 -0.39062,0.71875 z m 9.28033,4.25 q -0.8125,0 -1.28125,-0.53125 -0.46875,-0.54687 -0.45313,-1.85937 l 0.0469,-3.32813 -0.95313,-0.20312 v -0.46875 l 1.96875,-0.1875 0.125,0.125 -0.0625,1.875 v 2.0625 q 0,0.85937 0.26563,1.21875 0.26562,0.35937 0.79687,0.35937 0.9375,0 1.875,-0.875 l 0.0312,-3.92187 -0.9375,-0.1875 v -0.46875 l 1.92188,-0.1875 0.14062,0.125 -0.0469,1.875 v 3.73437 l 0.90625,0.1875 v 0.48438 l -1.84375,0.10937 -0.14063,-1.1875 q -0.53125,0.65625 -1.14062,0.95313 -0.60938,0.29687 -1.21875,0.29687 z m 7.06714,-5.03125 h 0.53125 q 0.90625,0 1.40625,-0.46875 0.5,-0.46875 0.5,-1.32812 0,-0.73438 -0.42188,-1.125 -0.40625,-0.40625 -1.20312,-0.40625 -0.125,0 -0.28125,0.0156 -0.14063,0.0156 -0.32813,0.0469 l -0.17187,0.65625 q -0.10938,0.42187 -0.26563,0.625 -0.15625,0.20312 -0.51562,0.20312 -0.20313,0 -0.375,-0.0937 -0.17188,-0.10937 -0.26563,-0.375 0.1875,-0.82812 0.84375,-1.25 0.67188,-0.42187 1.59375,-0.42187 1.17188,0 1.85938,0.57812 0.6875,0.57813 0.6875,1.51563 0,0.71875 -0.45313,1.28125 -0.45312,0.5625 -1.28125,0.85937 1.01563,0.20313 1.51563,0.78125 0.5,0.5625 0.5,1.39063 0,0.71875 -0.375,1.29687 -0.375,0.57813 -1.04688,0.92188 -0.67187,0.32812 -1.57812,0.32812 -0.96875,0 -1.67188,-0.4375 -0.6875,-0.45312 -0.875,-1.45312 0.21875,-0.4375 0.67188,-0.4375 0.34375,0 0.5,0.23437 0.15625,0.21875 0.29687,0.71875 l 0.17188,0.70313 q 0.21875,0.0469 0.40625,0.0625 0.1875,0.0156 0.32812,0.0156 1,0 1.48438,-0.51562 0.5,-0.51563 0.5,-1.40625 0,-0.875 -0.51563,-1.35938 -0.5,-0.5 -1.53125,-0.5 h -0.64062 z m 5.05463,4.85938 v -0.85938 q 0.53125,-0.53125 1.03125,-1.03125 0.5,-0.51562 0.92187,-0.96875 1,-1.0625 1.46875,-1.90625 0.46875,-0.85937 0.46875,-1.625 0,-0.82812 -0.4375,-1.3125 -0.4375,-0.48437 -1.17187,-0.48437 -0.125,0 -0.29688,0.0156 -0.15625,0.0156 -0.34375,0.0625 l -0.26562,0.90625 q -0.125,0.5 -0.3125,0.70313 -0.17188,0.20312 -0.45313,0.20312 -0.4375,0 -0.67187,-0.42187 0.0781,-0.70313 0.45312,-1.15625 0.39063,-0.46875 0.96875,-0.6875 0.59375,-0.21875 1.26563,-0.21875 1.29687,0 1.875,0.64062 0.59375,0.625 0.59375,1.625 0,0.57813 -0.23438,1.14063 -0.23437,0.54687 -0.8125,1.23437 -0.57812,0.6875 -1.59375,1.67188 -0.26562,0.26562 -0.65625,0.625 -0.375,0.35937 -0.78125,0.75 h 4.45313 v 1.09375 z m 12.32031,-4.70313 v 0.625 l -5.15625,3 -0.39063,-0.71875 4.625,-2.59375 -4.625,-2.59375 0.39063,-0.71875 z m 7.07721,0 v 0.625 l -5.15625,3 -0.39063,-0.71875 4.625,-2.59375 -4.625,-2.59375 0.39063,-0.71875 z"
       id="path181"
       inkscape:connector-curvature="0"
       style="fill:#202122;fill-rule:nonzero" />
    <path
       d="m 585.9732,303.2224 h 91.81104 v 76.50394 H 585.9732 Z"
       id="path183"
       inkscape:connector-curvature="0"
       style="fill:#f3f3f3;fill-rule:evenodd" />
    <path
       d="m 585.9732,303.2224 h 91.81104 v 76.50394 H 585.9732 Z"
       id="path185"
       inkscape:connector-curvature="0"
       style="fill-rule:evenodd;stroke:#595959;stroke-width:1;stroke-linecap:butt;stroke-linejoin:round;stroke-dasharray:4, 3" />
    <path
       d="M 342.4171,274.66928 H 447.86592 V 302.5433 H 342.4171 Z"
       id="path187"
       inkscape:connector-curvature="0"
       style="fill:#000000;fill-opacity:0;fill-rule:evenodd" />
    <path
       d="m 349.46173,293.8863 v -0.6875 l 0.79687,-0.17188 q 0.0156,-0.53125 0.0156,-1.14062 0,-0.625 0,-1.07813 v -0.84375 q 0,-0.60937 -0.0156,-0.9375 0,-0.32812 -0.0312,-0.76562 l -0.89062,-0.14063 v -0.5625 l 2.89062,-0.98437 0.25,0.15625 0.0937,1.0625 q 0.51563,-0.60938 1.07813,-0.90625 0.5625,-0.3125 1.20312,-0.3125 1.51563,0 1.95313,1.29687 0.60937,-0.71875 1.17187,-1 0.5625,-0.29687 1.1875,-0.29687 1.125,0 1.625,0.64062 0.51563,0.64063 0.51563,1.95313 v 1.64062 q 0,0.46875 0,1.09375 0,0.60938 0.0156,1.14063 l 0.73438,0.15625 v 0.6875 h -3.78125 v -0.6875 l 0.71875,-0.17188 q 0.0156,-0.53125 0.0156,-1.14062 0,-0.60938 0,-1.07813 v -1.42187 q 0,-0.8125 -0.1875,-1.09375 -0.1875,-0.29688 -0.65625,-0.29688 -0.60937,0 -1.21875,0.53125 0.0156,0.125 0.0156,0.26563 0.0156,0.14062 0.0156,0.29687 v 1.71875 q 0,0.48438 0,1.09375 0,0.60938 0,1.15625 l 0.70313,0.14063 v 0.6875 h -3.78125 v -0.6875 l 0.75,-0.17188 q 0.0156,-0.53125 0.0156,-1.14062 0,-0.60938 0,-1.07813 v -1.40625 q 0,-0.78125 -0.1875,-1.09375 -0.17187,-0.3125 -0.65625,-0.3125 -0.3125,0 -0.625,0.15625 -0.29687,0.14063 -0.57812,0.375 v 2.28125 q 0,0.45313 0,1.07813 0,0.625 0.0156,1.17187 l 0.6875,0.14063 v 0.6875 z m 18.86249,0.20312 q -1.26563,0 -1.60938,-1.04687 -0.46875,0.48437 -0.90625,0.78125 -0.42187,0.28125 -1.1875,0.28125 -0.84375,0 -1.39062,-0.48438 -0.53125,-0.48437 -0.53125,-1.39062 0,-0.53125 0.23437,-0.95313 0.23438,-0.42187 0.84375,-0.78125 0.625,-0.375 1.75,-0.70312 0.21875,-0.0625 0.51563,-0.14063 0.29687,-0.0781 0.59375,-0.14062 v -0.48438 q 0,-0.98437 -0.25,-1.32812 -0.23438,-0.35938 -0.9375,-0.35938 -0.0937,0 -0.1875,0 -0.0781,0 -0.20313,0.0156 l -0.0781,0.64062 q -0.0156,0.71875 -0.32813,1.04688 -0.3125,0.3125 -0.73437,0.3125 -0.8125,0 -0.98438,-0.73438 0.0625,-0.90625 0.92188,-1.46875 0.875,-0.57812 2.45312,-0.57812 1.40625,0 2.01563,0.64062 0.60937,0.64063 0.60937,2.125 v 3.28125 q 0,0.4375 0.3125,0.4375 0.125,0 0.21875,-0.0625 0.10938,-0.0781 0.23438,-0.26562 l 0.39062,0.26562 q -0.26562,0.57813 -0.6875,0.84375 -0.42187,0.25 -1.07812,0.25 z m -3.45313,-2.23437 q 0,0.53125 0.25,0.79687 0.26563,0.26563 0.625,0.26563 0.17188,0 0.34375,-0.0625 0.17188,-0.0781 0.54688,-0.34375 v -2.375 q -0.1875,0.0625 -0.375,0.125 -0.17188,0.0625 -0.3125,0.125 -0.5,0.20312 -0.79688,0.57812 -0.28125,0.375 -0.28125,0.89063 z m 5.28604,5.35937 v -0.6875 l 0.82813,-0.17187 q 0.0156,-0.70313 0.0156,-1.29688 0.0156,-0.57812 0.0156,-1.125 v -3.96875 q 0,-0.60937 -0.0156,-0.9375 0,-0.32812 -0.0312,-0.76562 l -0.90625,-0.14063 v -0.5625 l 2.85938,-0.98437 0.25,0.14062 0.0625,0.82813 q 0.92187,-0.96875 2.17187,-0.96875 0.8125,0 1.45313,0.42187 0.64062,0.42188 1.03125,1.26563 0.39062,0.82812 0.39062,2.04687 0,1.17188 -0.4375,2.03125 -0.4375,0.85938 -1.15625,1.3125 -0.70312,0.45313 -1.54687,0.45313 -1.125,0 -1.84375,-0.76563 v 0.57813 q 0,0.54687 0,1.125 0.0156,0.59375 0.0312,1.26562 l 0.9375,0.21875 v 0.6875 z m 4.1875,-9.35937 q -0.28125,0 -0.53125,0.125 -0.23437,0.10937 -0.46875,0.28125 v 4.25 q 0.4375,0.35937 0.95313,0.35937 0.65625,0 1.0625,-0.60937 0.42187,-0.625 0.42187,-1.92188 0,-1.29687 -0.40625,-1.89062 -0.39062,-0.59375 -1.03125,-0.59375 z m 4.10337,7.34375 v -1.3125 h 6.71875 v 1.3125 z m 7.69662,-1.3125 v -0.6875 l 0.8125,-0.15625 q 0.0156,-0.54688 0.0156,-1.15625 0,-0.625 0,-1.07813 v -0.85937 q 0,-0.42188 -0.0156,-0.67188 0,-0.26562 -0.0156,-0.48437 0,-0.23438 -0.0156,-0.53125 l -0.89062,-0.14063 v -0.5625 l 2.89062,-0.98437 0.25,0.15625 0.14063,1.73437 q 0.3125,-0.9375 0.85937,-1.40625 0.5625,-0.48437 1.10938,-0.48437 0.48437,0 0.82812,0.28125 0.35938,0.26562 0.4375,0.79687 -0.0156,0.57813 -0.3125,0.89063 -0.28125,0.3125 -0.71875,0.3125 -0.625,0 -1.14062,-0.6875 l -0.0781,-0.10938 q -0.32812,0.29688 -0.60937,0.76563 -0.26563,0.46875 -0.375,0.98437 v 1 q 0,0.45313 0,1.04688 0,0.57812 0.0156,1.09375 l 1.15625,0.25 v 0.6875 z m 10.22211,-6.54688 q -0.40625,0 -0.75,0.5 -0.34375,0.5 -0.39063,1.85938 h 1.23438 q 0.53125,0 0.71875,-0.20313 0.1875,-0.21875 0.1875,-0.71875 0,-0.73437 -0.29688,-1.07812 -0.29687,-0.35938 -0.70312,-0.35938 z m 0.0312,6.76563 q -1.07813,0 -1.90625,-0.4375 -0.8125,-0.45313 -1.28125,-1.29688 -0.46875,-0.84375 -0.46875,-2.01562 0,-1.23438 0.54687,-2.07813 0.5625,-0.84375 1.42188,-1.26562 0.85937,-0.4375 1.79687,-0.4375 0.96875,0 1.64063,0.40625 0.6875,0.40625 1.03125,1.10937 0.35937,0.70313 0.35937,1.59375 0,0.42188 -0.0781,0.78125 h -4.23438 q 0.0625,1.15625 0.625,1.70313 0.57813,0.54687 1.32813,0.54687 0.60937,0 1.03125,-0.21875 0.42187,-0.23437 0.75,-0.57812 l 0.51562,0.46875 q -0.45312,0.875 -1.23437,1.29687 -0.78125,0.42188 -1.84375,0.42188 z m 6.54221,0 q -1.39063,0 -2.54688,-0.67188 l 0.0469,-1.79687 h 1.17187 l 0.25,1.45312 q 0.26563,0.10938 0.53125,0.15625 0.26563,0.0469 0.5625,0.0469 0.64063,0 0.96875,-0.20313 0.34375,-0.21875 0.34375,-0.65625 0,-0.32812 -0.25,-0.57812 -0.25,-0.25 -0.98437,-0.45313 l -0.79688,-0.23437 q -0.84375,-0.25 -1.3125,-0.8125 -0.45312,-0.5625 -0.45312,-1.375 0,-1.01563 0.78125,-1.70313 0.79687,-0.70312 2.28125,-0.70312 0.64062,0 1.1875,0.15625 0.54687,0.15625 1.125,0.4375 l -0.0937,1.60937 h -1.1875 l -0.28125,-1.26562 q -0.3125,-0.125 -0.8125,-0.125 -0.5,0 -0.79688,0.21875 -0.29687,0.20312 -0.29687,0.60937 0,0.29688 0.23437,0.53125 0.23438,0.21875 1,0.45313 l 0.71875,0.20312 q 1.03125,0.3125 1.48438,0.89063 0.45312,0.5625 0.45312,1.375 0,1.15625 -0.89062,1.79687 -0.875,0.64063 -2.4375,0.64063 z m 7.82485,0 q -1.14062,0 -1.98437,-0.46875 -0.82813,-0.48438 -1.28125,-1.34375 -0.45313,-0.85938 -0.45313,-1.98438 0,-1.125 0.48438,-1.95312 0.5,-0.84375 1.34375,-1.3125 0.85937,-0.46875 1.89062,-0.46875 1.04688,0 1.89063,0.45312 0.84375,0.45313 1.34375,1.29688 0.5,0.84375 0.5,1.98437 0,1.14063 -0.45313,2 -0.45312,0.84375 -1.29687,1.32813 -0.82813,0.46875 -1.98438,0.46875 z m 0,-0.76563 q 0.625,0 0.92188,-0.71875 0.3125,-0.71875 0.3125,-2.26562 0,-1.5625 -0.3125,-2.28125 -0.29688,-0.71875 -0.92188,-0.71875 -0.625,0 -0.9375,0.71875 -0.29687,0.71875 -0.29687,2.28125 0,1.54687 0.29687,2.26562 0.3125,0.71875 0.9375,0.71875 z m 4.4712,0.54688 v -0.6875 l 0.8125,-0.17188 q 0.0156,-0.5625 0.0156,-1.10937 0.0156,-0.5625 0.0156,-1.10938 v -6.14062 l -0.90625,-0.14063 v -0.625 l 3.07812,-0.65625 0.23438,0.14063 -0.0625,2.0625 v 5.35937 q 0,0.5625 0,1.125 0.0156,0.54688 0.0312,1.10938 l 0.79687,0.15625 v 0.6875 z m 9.07168,-6.4375 v -0.64063 h 2.78125 v 0.64063 l -0.85937,0.17187 -2.40625,6.29688 h -1.125 l -2.64063,-6.3125 -0.71875,-0.15625 v -0.64063 h 4.17188 v 0.64063 l -0.92188,0.1875 1.375,3.76562 1.28125,-3.78125 z m 6.51538,-0.10938 q -0.40625,0 -0.75,0.5 -0.34375,0.5 -0.39062,1.85938 h 1.23437 q 0.53125,0 0.71875,-0.20313 0.1875,-0.21875 0.1875,-0.71875 0,-0.73437 -0.29687,-1.07812 -0.29688,-0.35938 -0.70313,-0.35938 z m 0.0312,6.76563 q -1.07812,0 -1.90625,-0.4375 -0.8125,-0.45313 -1.28125,-1.29688 -0.46875,-0.84375 -0.46875,-2.01562 0,-1.23438 0.54688,-2.07813 0.5625,-0.84375 1.42187,-1.26562 0.85938,-0.4375 1.79688,-0.4375 0.96875,0 1.64062,0.40625 0.6875,0.40625 1.03125,1.10937 0.35938,0.70313 0.35938,1.59375 0,0.42188 -0.0781,0.78125 h -4.23437 q 0.0625,1.15625 0.625,1.70313 0.57812,0.54687 1.32812,0.54687 0.60938,0 1.03125,-0.21875 0.42188,-0.23437 0.75,-0.57812 l 0.51563,0.46875 q -0.45313,0.875 -1.23438,1.29687 -0.78125,0.42188 -1.84375,0.42188 z m 3.94846,-0.21875 v -0.6875 l 0.8125,-0.15625 q 0.0156,-0.54688 0.0156,-1.15625 0,-0.625 0,-1.07813 v -0.85937 q 0,-0.42188 -0.0156,-0.67188 0,-0.26562 -0.0156,-0.48437 0,-0.23438 -0.0156,-0.53125 l -0.89063,-0.14063 v -0.5625 l 2.89063,-0.98437 0.25,0.15625 0.14062,1.73437 q 0.3125,-0.9375 0.85938,-1.40625 0.5625,-0.48437 1.10937,-0.48437 0.48438,0 0.82813,0.28125 0.35937,0.26562 0.4375,0.79687 -0.0156,0.57813 -0.3125,0.89063 -0.28125,0.3125 -0.71875,0.3125 -0.625,0 -1.14063,-0.6875 l -0.0781,-0.10938 q -0.32813,0.29688 -0.60938,0.76563 -0.26562,0.46875 -0.375,0.98437 v 1 q 0,0.45313 0,1.04688 0,0.57812 0.0156,1.09375 l 1.15625,0.25 v 0.6875 z"
       id="path189"
       inkscape:connector-curvature="0"
       style="fill:#202122;fill-rule:nonzero" />
    <path
       d="M 585.96063,274.66928 H 677.7716 V 302.5433 H 585.96063 Z"
       id="path191"
       inkscape:connector-curvature="0"
       style="fill:#000000;fill-opacity:0;fill-rule:evenodd" />
    <path
       d="m 620.33344,294.10504 q -1.39063,0 -2.54688,-0.67188 l 0.0469,-1.79687 h 1.17187 l 0.25,1.45312 q 0.26563,0.10938 0.53125,0.15625 0.26563,0.0469 0.5625,0.0469 0.64063,0 0.96875,-0.20313 0.34375,-0.21875 0.34375,-0.65625 0,-0.32812 -0.25,-0.57812 -0.25,-0.25 -0.98437,-0.45313 l -0.79688,-0.23437 q -0.84375,-0.25 -1.3125,-0.8125 -0.45312,-0.5625 -0.45312,-1.375 0,-1.01563 0.78125,-1.70313 0.79687,-0.70312 2.28125,-0.70312 0.64062,0 1.1875,0.15625 0.54687,0.15625 1.125,0.4375 l -0.0937,1.60937 h -1.1875 l -0.28125,-1.26562 q -0.3125,-0.125 -0.8125,-0.125 -0.5,0 -0.79688,0.21875 -0.29687,0.20312 -0.29687,0.60937 0,0.29688 0.23437,0.53125 0.23438,0.21875 1,0.45313 l 0.71875,0.20312 q 1.03125,0.3125 1.48438,0.89063 0.45312,0.5625 0.45312,1.375 0,1.15625 -0.89062,1.79687 -0.875,0.64063 -2.4375,0.64063 z m 4.06311,-0.21875 v -0.6875 l 0.79688,-0.17188 q 0.0156,-0.53125 0.0156,-1.14062 0,-0.625 0,-1.07813 v -0.70312 q 0,-0.59375 -0.0156,-1 0,-0.40625 -0.0312,-0.84375 l -0.90625,-0.14063 v -0.5625 l 3.07812,-0.98437 0.25,0.15625 -0.0469,2.125 v 1.95312 q 0,0.45313 0,1.07813 0,0.625 0.0156,1.17187 l 0.73438,0.14063 v 0.6875 z m 1.95313,-8.39063 q -0.51563,0 -0.89063,-0.32812 -0.35937,-0.34375 -0.35937,-0.84375 0,-0.5 0.35937,-0.82813 0.375,-0.34375 0.89063,-0.34375 0.51562,0 0.875,0.34375 0.375,0.32813 0.375,0.82813 0,0.5 -0.375,0.84375 -0.35938,0.32812 -0.875,0.32812 z m 2.64697,8.39063 v -0.6875 l 0.79687,-0.17188 q 0.0156,-0.53125 0.0156,-1.14062 0,-0.625 0,-1.07813 v -0.84375 q 0,-0.60937 -0.0156,-0.9375 0,-0.32812 -0.0312,-0.76562 l -0.89062,-0.14063 v -0.5625 l 2.89062,-0.98437 0.25,0.15625 0.0937,1.0625 q 0.57813,-0.67188 1.14063,-0.9375 0.5625,-0.28125 1.20312,-0.28125 0.95313,0 1.53125,0.64062 0.57813,0.625 0.57813,1.875 v 1.71875 q 0,0.48438 0,1.09375 0,0.60938 0.0156,1.15625 l 0.73438,0.14063 v 0.6875 h -3.875 v -0.6875 l 0.76562,-0.15625 q 0.0156,-0.54688 0.0156,-1.15625 0,-0.60938 0,-1.07813 v -1.53125 q 0,-0.70312 -0.1875,-0.98437 -0.1875,-0.29688 -0.60938,-0.29688 -0.57812,0 -1.26562,0.53125 v 2.28125 q 0,0.45313 0,1.07813 0,0.625 0.0156,1.17187 l 0.6875,0.14063 v 0.6875 z m 8.99707,0 v -0.6875 l 0.82812,-0.17188 q 0.0156,-0.54687 0.0156,-1.15625 0,-0.625 0,-1.0625 v -6.14062 l -0.90625,-0.14063 v -0.625 l 3.07812,-0.65625 0.23438,0.14063 -0.0625,2.0625 v 4.5 l 2.375,-2.32813 -1.10938,-0.17187 v -0.64063 h 3.53125 v 0.64063 l -1.32812,0.1875 -1.28125,1.21875 2.0625,4.125 0.9375,0.21875 v 0.6875 h -2.98438 l -1.65625,-3.5 -0.54687,0.51562 q 0,0.48438 0,1.0625 0.0156,0.57813 0.0156,1.07813 l 0.79688,0.15625 v 0.6875 z"
       id="path193"
       inkscape:connector-curvature="0"
       style="fill:#202122;fill-rule:nonzero" />
    <path
       d="M 221.94797,330.48615 H 342.40152"
       id="path195"
       inkscape:connector-curvature="0"
       style="fill:#000000;fill-opacity:0;fill-rule:evenodd" />
    <path
       d="M 221.94795,330.48615 H 330.40152"
       id="path197"
       inkscape:connector-curvature="0"
       style="fill-rule:evenodd;stroke:#595959;stroke-width:2;stroke-linecap:butt;stroke-linejoin:round" />
    <path
       d="m 330.40152,333.7896 9.0762,-3.30347 -9.0762,-3.30346 z"
       id="path199"
       inkscape:connector-curvature="0"
       style="fill:#595959;fill-rule:evenodd;stroke:#595959;stroke-width:2;stroke-linecap:butt" />
    <path
       d="m 221.94797,324.53534 h 43.36328 v 11.90158 h -43.36328 z"
       id="path201"
       inkscape:connector-curvature="0"
       style="fill:#000000;fill-opacity:0;fill-rule:evenodd" />
    <path
       d="m 298.98926,324.53534 h 43.36328 v 11.90158 h -43.36328 z"
       id="path203"
       inkscape:connector-curvature="0"
       style="fill:#000000;fill-opacity:0;fill-rule:evenodd" />
    <path
       d="M 342.39984,360.3316 H 221.94629"
       id="path205"
       inkscape:connector-curvature="0"
       style="fill:#000000;fill-opacity:0;fill-rule:evenodd" />
    <path
       d="M 342.39984,360.3316 H 233.9463"
       id="path207"
       inkscape:connector-curvature="0"
       style="fill-rule:evenodd;stroke:#1c4587;stroke-width:2;stroke-linecap:butt;stroke-linejoin:round" />
    <path
       d="m 233.94629,357.02814 -9.07619,3.30347 9.07619,3.30346 z"
       id="path209"
       inkscape:connector-curvature="0"
       style="fill:#1c4587;fill-rule:evenodd;stroke:#1c4587;stroke-width:2;stroke-linecap:butt" />
    <path
       d="m 221.99771,354.3808 h 43.36328 v 11.90161 h -43.36328 z"
       id="path211"
       inkscape:connector-curvature="0"
       style="fill:#000000;fill-opacity:0;fill-rule:evenodd" />
    <path
       d="m 299.03824,354.3808 h 43.36325 v 11.90161 h -43.36325 z"
       id="path213"
       inkscape:connector-curvature="0"
       style="fill:#000000;fill-opacity:0;fill-rule:evenodd" />
    <path
       d="M 447.89575,330.4854 H 585.88946"
       id="path215"
       inkscape:connector-curvature="0"
       style="fill:#000000;fill-opacity:0;fill-rule:evenodd" />
    <path
       d="M 447.89575,330.4854 H 573.88946"
       id="path217"
       inkscape:connector-curvature="0"
       style="fill-rule:evenodd;stroke:#595959;stroke-width:2;stroke-linecap:butt;stroke-linejoin:round" />
    <path
       d="m 573.88947,333.78888 9.07623,-3.30347 -9.07623,-3.30346 z"
       id="path219"
       inkscape:connector-curvature="0"
       style="fill:#595959;fill-rule:evenodd;stroke:#595959;stroke-width:2;stroke-linecap:butt" />
    <path
       d="m 447.89575,324.5346 h 49.67773 v 11.90161 h -49.67773 z"
       id="path221"
       inkscape:connector-curvature="0"
       style="fill:#000000;fill-opacity:0;fill-rule:evenodd" />
    <path
       d="m 536.15564,324.5346 h 49.67773 v 11.90161 h -49.67773 z"
       id="path223"
       inkscape:connector-curvature="0"
       style="fill:#000000;fill-opacity:0;fill-rule:evenodd" />
    <path
       d="M 585.8876,360.33093 H 447.89386"
       id="path225"
       inkscape:connector-curvature="0"
       style="fill:#000000;fill-opacity:0;fill-rule:evenodd" />
    <path
       d="M 585.8876,360.33096 H 459.89389"
       id="path227"
       inkscape:connector-curvature="0"
       style="fill-rule:evenodd;stroke:#1c4587;stroke-width:2;stroke-linecap:butt;stroke-linejoin:round" />
    <path
       d="m 459.89386,357.0275 -9.0762,3.30347 9.0762,3.30346 z"
       id="path229"
       inkscape:connector-curvature="0"
       style="fill:#1c4587;fill-rule:evenodd;stroke:#1c4587;stroke-width:2;stroke-linecap:butt" />
    <path
       d="m 447.95276,354.38013 h 49.67773 v 11.90161 h -49.67773 z"
       id="path231"
       inkscape:connector-curvature="0"
       style="fill:#000000;fill-opacity:0;fill-rule:evenodd" />
    <path
       d="m 536.21173,354.38013 h 49.67773 v 11.90161 h -49.67773 z"
       id="path233"
       inkscape:connector-curvature="0"
       style="fill:#000000;fill-opacity:0;fill-rule:evenodd" />
    <path
       d="M 342.38394,330.4854 H 447.89575"
       id="path235"
       inkscape:connector-curvature="0"
       style="fill:#000000;fill-opacity:0;fill-rule:evenodd" />
    <path
       d="m 342.38397,330.4854 h 99.51178"
       id="path237"
       inkscape:connector-curvature="0"
       style="fill-rule:evenodd;stroke:#595959;stroke-width:1;stroke-linecap:butt;stroke-linejoin:round" />
    <path
       d="m 441.89575,332.13715 4.53809,-1.65173 -4.53809,-1.65174 z"
       id="path239"
       inkscape:connector-curvature="0"
       style="fill:#595959;fill-rule:evenodd;stroke:#595959;stroke-width:1;stroke-linecap:butt" />
    <path
       d="m 585.8334,330.4854 c 12.52801,0 25.04822,7.46457 25.05609,14.92914 0.008,7.46457 -12.49658,14.92911 -24.9931,14.92911"
       id="path241"
       inkscape:connector-curvature="0"
       style="fill:#000000;fill-opacity:0;fill-rule:evenodd" />
    <path
       d="m 585.8334,330.4854 c 12.52808,0 25.04822,7.46457 25.05609,14.92911 0.004,3.7323 -3.12018,7.46457 -7.80737,10.26379 -2.34363,1.3996 -5.07794,2.56595 -8.00745,3.38239 -0.73236,0.2041 -1.47693,0.38635 -2.23065,0.54489 -0.18842,0.0396 -0.37744,0.0778 -0.56696,0.11444 l -0.40582,0.075"
       id="path243"
       inkscape:connector-curvature="0"
       style="fill-rule:evenodd;stroke:#595959;stroke-width:1;stroke-linecap:butt;stroke-linejoin:round;stroke-dasharray:4, 3" />
    <path
       d="m 591.7202,358.15024 -4.36804,2.05975 4.6701,1.22986 z"
       id="path245"
       inkscape:connector-curvature="0"
       style="fill:#595959;fill-rule:evenodd;stroke:#595959;stroke-width:1;stroke-linecap:butt" />
    <path
       d="M 447.95276,360.33093 H 424.58267"
       id="path247"
       inkscape:connector-curvature="0"
       style="fill:#000000;fill-opacity:0;fill-rule:evenodd" />
    <path
       d="M 447.95276,360.33096 H 430.58267"
       id="path249"
       inkscape:connector-curvature="0"
       style="fill-rule:evenodd;stroke:#1c4587;stroke-width:1;stroke-linecap:butt;stroke-linejoin:round" />
    <path
       d="m 430.58267,358.67923 -4.53809,1.65173 4.53809,1.65174 z"
       id="path251"
       inkscape:connector-curvature="0"
       style="fill:#1c4587;fill-rule:evenodd;stroke:#1c4587;stroke-width:1;stroke-linecap:butt" />
    <path
       d="m 417.14435,379.75592 h 199.4961 v 23.93698 h -199.4961 z"
       id="path253"
       inkscape:connector-curvature="0"
       style="fill:#000000;fill-opacity:0;fill-rule:evenodd" />
    <path
       d="m 438.4604,385.99216 v -0.78125 h 4.71875 v 0.78125 l -1.09375,0.125 q -0.0156,0.89062 -0.0312,1.79687 0,0.90625 0,1.84375 v 0.51563 q 0,0.90625 0,1.82812 0.0156,0.92188 0.0312,1.82813 l 1.09375,0.10937 v 0.79688 h -4.71875 v -0.79688 l 1.09375,-0.10937 q 0.0312,-0.89063 0.0312,-1.79688 0,-0.92187 0,-1.84375 v -0.53125 q 0,-0.92187 0,-1.82812 0,-0.92188 -0.0312,-1.8125 z m 5.76477,4.65625 v -1.10938 l 6.125,-3.15625 0.625,1.25 -5.03125,2.45313 5.03125,2.46875 -0.625,1.25 z m 13.8949,-4.6875 v -0.75 h 3.17187 v 0.78125 l -1.09375,0.1875 -3.01562,8.6875 h -1.42188 l -3.15625,-8.78125 -0.84375,-0.0937 v -0.78125 h 4.71875 v 0.75 l -1.25,0.15625 2,6.03125 2.03125,-6 z m 2.61142,8.875 v -0.6875 l 0.8125,-0.15625 q 0.0156,-0.54688 0.0156,-1.15625 0,-0.625 0,-1.07813 v -0.85937 q 0,-0.42188 -0.0156,-0.67188 0,-0.26562 -0.0156,-0.48437 0,-0.23438 -0.0156,-0.53125 l -0.89063,-0.14063 v -0.5625 l 2.89063,-0.98437 0.25,0.15625 0.14062,1.73437 q 0.3125,-0.9375 0.85938,-1.40625 0.5625,-0.48437 1.10937,-0.48437 0.48438,0 0.82813,0.28125 0.35937,0.26562 0.4375,0.79687 -0.0156,0.57813 -0.3125,0.89063 -0.28125,0.3125 -0.71875,0.3125 -0.625,0 -1.14063,-0.6875 l -0.0781,-0.10938 q -0.32813,0.29688 -0.60938,0.76563 -0.26562,0.46875 -0.375,0.98437 v 1 q 0,0.45313 0,1.04688 0,0.57812 0.0156,1.09375 l 1.15625,0.25 v 0.6875 z m 12.13794,-8.84375 v -0.78125 h 4.64062 v 0.78125 l -1.09375,0.125 q -0.0156,0.89062 -0.0312,1.79687 0,0.90625 0,1.84375 v 0.53125 q 0,0.89063 0,1.8125 0.0156,0.92188 0.0312,1.82813 l 1.09375,0.10937 v 0.79688 h -4.64062 v -0.79688 l 1.03125,-0.0937 q 0.0312,-0.90625 0.0312,-1.8125 0,-0.92187 0,-1.8125 h -3.125 q 0,0.98438 0,1.875 0.0156,0.875 0.0312,1.75 l 1.01562,0.0937 v 0.79688 h -4.60937 v -0.79688 l 1.0625,-0.10937 q 0.0312,-0.89063 0.0312,-1.79688 0,-0.92187 0,-1.84375 v -0.53125 q 0,-0.92187 0,-1.82812 0,-0.90625 -0.0312,-1.8125 l -1.0625,-0.125 v -0.78125 h 4.60937 v 0.78125 l -1.01562,0.10937 q -0.0156,0.89063 -0.0312,1.78125 0,0.875 0,1.57813 h 3.125 q 0,-0.84375 0,-1.6875 0,-0.84375 -0.0312,-1.67188 z m 5.66519,4.65625 v -1.10938 l 6.125,-3.15625 0.625,1.25 -5.03125,2.45313 5.03125,2.46875 -0.625,1.25 z m 13.00427,4.34375 -0.0781,-1.21875 q -0.46875,0.60937 -1.07812,0.95312 -0.59375,0.32813 -1.29688,0.32813 -0.9375,0 -1.51562,-0.59375 -0.5625,-0.59375 -0.5625,-2.04688 l 0.0625,-3.57812 -0.84375,-0.1875 v -0.60938 l 2.98437,-0.42187 0.23438,0.15625 -0.0781,2.0625 v 2.59375 q 0,0.67187 0.21875,0.9375 0.21875,0.26562 0.57813,0.26562 0.3125,0 0.64062,-0.1875 0.32813,-0.1875 0.625,-0.46875 l 0.0625,-4.15625 -0.8125,-0.17187 v -0.5625 l 2.92188,-0.46875 0.23437,0.15625 -0.0469,2.0625 v 4.17187 l 0.76562,0.15625 v 0.6875 z m 5.97452,-5.375 h 0.42187 q 0.82813,0 1.29688,-0.42188 0.48437,-0.4375 0.48437,-1.39062 0,-0.84375 -0.39062,-1.25 -0.375,-0.42188 -1.09375,-0.42188 -0.0625,0 -0.14063,0 -0.0625,0 -0.14062,0.0156 l -0.15625,0.95312 q -0.0781,0.54688 -0.39063,0.78125 -0.29687,0.21875 -0.6875,0.21875 -0.5625,0 -0.8125,-0.46875 0.0312,-0.79687 0.4375,-1.29687 0.40625,-0.5 1.04688,-0.73438 0.65625,-0.23437 1.40625,-0.23437 1.625,0 2.42187,0.67187 0.8125,0.67188 0.8125,1.67188 0,0.6875 -0.48437,1.32812 -0.48438,0.625 -1.60938,0.92188 1.29688,0.23437 1.82813,0.85937 0.53125,0.60938 0.53125,1.5625 0,0.76563 -0.4375,1.375 -0.42188,0.60938 -1.23438,0.95313 -0.8125,0.34375 -1.96875,0.34375 -1.53125,0 -2.34375,-0.625 -0.79687,-0.64063 -0.85937,-1.79688 0.14062,-0.34375 0.39062,-0.5 0.26563,-0.15625 0.53125,-0.15625 0.45313,0 0.70313,0.28125 0.26562,0.28125 0.375,1.03125 l 0.125,0.96875 q 0.0937,0.0156 0.17187,0.0312 0.0781,0 0.17188,0 1.98437,0 1.98437,-1.96875 0,-0.90625 -0.48437,-1.39062 -0.48438,-0.48438 -1.39063,-0.48438 h -0.51562 z m 6.02182,5.21875 v -1.29688 q 0.51562,-0.5 1,-0.98437 0.5,-0.48438 0.9375,-0.9375 0.70312,-0.70313 1.15625,-1.28125 0.46875,-0.59375 0.70312,-1.17188 0.23438,-0.59375 0.23438,-1.25 0,-0.84375 -0.40625,-1.3125 -0.39063,-0.46875 -1.07813,-0.46875 -0.0937,0 -0.1875,0 -0.0937,0 -0.1875,0.0156 l -0.1875,1.03125 q -0.10937,0.76562 -0.4375,1.01562 -0.3125,0.23438 -0.64062,0.23438 -0.3125,0 -0.57813,-0.15625 -0.25,-0.17188 -0.375,-0.4375 0.0156,-0.8125 0.48438,-1.35938 0.46875,-0.54687 1.23437,-0.82812 0.76563,-0.28125 1.67188,-0.28125 1.07812,0 1.73437,0.34375 0.67188,0.32812 0.98438,0.90625 0.32812,0.5625 0.32812,1.28125 0,0.70312 -0.375,1.375 -0.35937,0.65625 -1.14062,1.34375 -0.76563,0.6875 -1.98438,1.51562 -0.29687,0.21875 -0.625,0.4375 -0.3125,0.21875 -0.64062,0.46875 h 4.95312 v 1.79688 z m 10.6781,-0.82813 q 0,1 -0.46875,1.78125 -0.45313,0.78125 -1.15625,1.28125 -0.6875,0.5 -1.39063,0.71875 l -0.20312,-0.60937 q 0.73437,-0.375 1.20312,-0.89063 0.48438,-0.51562 0.75,-1.09375 l -0.51562,-0.26562 q -0.45313,-0.25 -0.64063,-0.57813 -0.1875,-0.34375 -0.1875,-0.65625 0,-0.54687 0.35938,-0.90625 0.375,-0.375 0.9375,-0.375 0.3125,0 0.5625,0.0937 0.26562,0.0781 0.53125,0.3125 0.14062,0.34375 0.17187,0.60938 0.0469,0.25 0.0469,0.57812 z m 9.18957,1.10938 q -0.90625,0 -1.75,-0.3125 -0.82812,-0.32813 -1.48437,-0.95313 -0.64063,-0.64062 -1.03125,-1.59375 -0.375,-0.95312 -0.375,-2.25 0,-1.25 0.375,-2.20312 0.39062,-0.95313 1.04687,-1.59375 0.65625,-0.64063 1.48438,-0.95313 0.84375,-0.32812 1.73437,-0.32812 0.90625,0 1.73438,0.3125 0.82812,0.3125 1.48437,0.95312 0.67188,0.625 1.04688,1.59375 0.39062,0.95313 0.39062,2.21875 0,1.28125 -0.39062,2.23438 -0.375,0.95312 -1.03125,1.59375 -0.65625,0.64062 -1.5,0.96875 -0.82813,0.3125 -1.73438,0.3125 z m 0,-0.85938 q 0.75,0 1.1875,-0.54687 0.45313,-0.5625 0.65625,-1.51563 0.21875,-0.96875 0.21875,-2.1875 0,-1.20312 -0.21875,-2.15625 -0.20312,-0.95312 -0.65625,-1.51562 -0.4375,-0.5625 -1.1875,-0.5625 -0.73437,0 -1.1875,0.5625 -0.45312,0.5625 -0.65625,1.51562 -0.20312,0.95313 -0.20312,2.15625 0,1.21875 0.20312,2.1875 0.20313,0.95313 0.65625,1.51563 0.45313,0.54687 1.1875,0.54687 z m 5.57001,3.90625 v -0.6875 l 0.82813,-0.17187 q 0.0156,-0.70313 0.0156,-1.29688 0.0156,-0.57812 0.0156,-1.125 v -3.96875 q 0,-0.60937 -0.0156,-0.9375 0,-0.32812 -0.0312,-0.76562 l -0.90625,-0.14063 v -0.5625 l 2.85938,-0.98437 0.25,0.14062 0.0625,0.82813 q 0.92187,-0.96875 2.17187,-0.96875 0.8125,0 1.45313,0.42187 0.64062,0.42188 1.03125,1.26563 0.39062,0.82812 0.39062,2.04687 0,1.17188 -0.4375,2.03125 -0.4375,0.85938 -1.15625,1.3125 -0.70312,0.45313 -1.54687,0.45313 -1.125,0 -1.84375,-0.76563 v 0.57813 q 0,0.54687 0,1.125 0.0156,0.59375 0.0312,1.26562 l 0.9375,0.21875 v 0.6875 z m 4.1875,-9.35937 q -0.28125,0 -0.53125,0.125 -0.23437,0.10937 -0.46875,0.28125 v 4.25 q 0.4375,0.35937 0.95313,0.35937 0.65625,0 1.0625,-0.60937 0.42187,-0.625 0.42187,-1.92188 0,-1.29687 -0.40625,-1.89062 -0.39062,-0.59375 -1.03125,-0.59375 z m 7.48908,6.25 q -0.96875,0 -1.53125,-0.46875 -0.5625,-0.48438 -0.5625,-1.5625 0,-0.39063 0,-0.71875 0.0156,-0.32813 0.0156,-0.75 v -2.79688 h -0.95312 v -0.875 l 1.09375,-0.14062 0.73437,-2.04688 h 1.48438 l -0.0312,2.0625 h 1.54687 v 1 h -1.54687 v 4.09375 q 0,0.51563 0.21875,0.76563 0.21875,0.23437 0.53125,0.23437 0.39062,0 0.79687,-0.3125 l 0.35938,0.34375 q -0.28125,0.5625 -0.8125,0.875 -0.51563,0.29688 -1.34375,0.29688 z m 2.62201,-4.40625 v -1.10938 l 6.125,-3.15625 0.625,1.25 -5.03125,2.45313 5.03125,2.46875 -0.625,1.25 z m 13.00427,4.34375 -0.0781,-1.21875 q -0.46875,0.60937 -1.07812,0.95312 -0.59375,0.32813 -1.29688,0.32813 -0.9375,0 -1.51562,-0.59375 -0.5625,-0.59375 -0.5625,-2.04688 l 0.0625,-3.57812 -0.84375,-0.1875 v -0.60938 l 2.98437,-0.42187 0.23438,0.15625 -0.0781,2.0625 v 2.59375 q 0,0.67187 0.21875,0.9375 0.21875,0.26562 0.57813,0.26562 0.3125,0 0.64062,-0.1875 0.32813,-0.1875 0.625,-0.46875 l 0.0625,-4.15625 -0.8125,-0.17187 v -0.5625 l 2.92188,-0.46875 0.23437,0.15625 -0.0469,2.0625 v 4.17187 l 0.76562,0.15625 v 0.6875 z m 5.97448,-5.375 h 0.42188 q 0.82812,0 1.29687,-0.42188 0.48438,-0.4375 0.48438,-1.39062 0,-0.84375 -0.39063,-1.25 -0.375,-0.42188 -1.09375,-0.42188 -0.0625,0 -0.14062,0 -0.0625,0 -0.14063,0.0156 l -0.15625,0.95312 q -0.0781,0.54688 -0.39062,0.78125 -0.29688,0.21875 -0.6875,0.21875 -0.5625,0 -0.8125,-0.46875 0.0312,-0.79687 0.4375,-1.29687 0.40625,-0.5 1.04687,-0.73438 0.65625,-0.23437 1.40625,-0.23437 1.625,0 2.42188,0.67187 0.8125,0.67188 0.8125,1.67188 0,0.6875 -0.48438,1.32812 -0.48437,0.625 -1.60937,0.92188 1.29687,0.23437 1.82812,0.85937 0.53125,0.60938 0.53125,1.5625 0,0.76563 -0.4375,1.375 -0.42187,0.60938 -1.23437,0.95313 -0.8125,0.34375 -1.96875,0.34375 -1.53125,0 -2.34375,-0.625 -0.79688,-0.64063 -0.85938,-1.79688 0.14063,-0.34375 0.39063,-0.5 0.26562,-0.15625 0.53125,-0.15625 0.45312,0 0.70312,0.28125 0.26563,0.28125 0.375,1.03125 l 0.125,0.96875 q 0.0937,0.0156 0.17188,0.0312 0.0781,0 0.17187,0 1.98438,0 1.98438,-1.96875 0,-0.90625 -0.48438,-1.39062 -0.48437,-0.48438 -1.39062,-0.48438 h -0.51563 z m 6.02186,5.21875 v -1.29688 q 0.51562,-0.5 1,-0.98437 0.5,-0.48438 0.9375,-0.9375 0.70312,-0.70313 1.15625,-1.28125 0.46875,-0.59375 0.70312,-1.17188 0.23438,-0.59375 0.23438,-1.25 0,-0.84375 -0.40625,-1.3125 -0.39063,-0.46875 -1.07813,-0.46875 -0.0937,0 -0.1875,0 -0.0937,0 -0.1875,0.0156 l -0.1875,1.03125 q -0.10937,0.76562 -0.4375,1.01562 -0.3125,0.23438 -0.64062,0.23438 -0.3125,0 -0.57813,-0.15625 -0.25,-0.17188 -0.375,-0.4375 0.0156,-0.8125 0.48438,-1.35938 0.46875,-0.54687 1.23437,-0.82812 0.76563,-0.28125 1.67188,-0.28125 1.07812,0 1.73437,0.34375 0.67188,0.32812 0.98438,0.90625 0.32812,0.5625 0.32812,1.28125 0,0.70312 -0.375,1.375 -0.35937,0.65625 -1.14062,1.34375 -0.76563,0.6875 -1.98438,1.51562 -0.29687,0.21875 -0.625,0.4375 -0.3125,0.21875 -0.64062,0.46875 h 4.95312 v 1.79688 z m 14.6156,-5.29688 v 1.10938 l -6.125,3.15625 -0.64063,-1.25 5.03125,-2.46875 -5.03125,-2.45313 0.64063,-1.25 z m 7.97302,0 v 1.10938 l -6.125,3.15625 -0.64063,-1.25 5.03125,-2.46875 -5.03125,-2.45313 0.64063,-1.25 z m 4.03552,4.46875 q 0,1 -0.46875,1.78125 -0.45312,0.78125 -1.15625,1.28125 -0.6875,0.5 -1.39062,0.71875 l -0.20313,-0.60937 q 0.73438,-0.375 1.20313,-0.89063 0.48437,-0.51562 0.75,-1.09375 l -0.51563,-0.26562 q -0.45312,-0.25 -0.64062,-0.57813 -0.1875,-0.34375 -0.1875,-0.65625 0,-0.54687 0.35937,-0.90625 0.375,-0.375 0.9375,-0.375 0.3125,0 0.5625,0.0937 0.26563,0.0781 0.53125,0.3125 0.14063,0.34375 0.17188,0.60938 0.0469,0.25 0.0469,0.57812 z"
       id="path255"
       inkscape:connector-curvature="0"
       style="fill:#202122;fill-rule:nonzero" />
    <path
       d="m 477.83704,407.82654 q 0,0.95313 0,1.90625 0.0156,0.9375 0.0312,1.85938 h 0.48437 q 1.25,0 1.96875,-1.03125 0.73438,-1.04688 0.73438,-2.95313 0,-1.92187 -0.73438,-2.9375 -0.71875,-1.01562 -1.95312,-1.01562 h -0.5 q -0.0156,0.90625 -0.0312,1.82812 0,0.92188 0,1.875 z m -3.59375,-4.23437 v -0.78125 h 4.35937 q 1.5625,0 2.67188,0.57812 1.10937,0.57813 1.70312,1.65625 0.60938,1.0625 0.60938,2.54688 0,1.53125 -0.64063,2.625 -0.64062,1.07812 -1.82812,1.65625 -1.17188,0.5625 -2.78125,0.5625 h -4.09375 v -0.79688 l 1.09375,-0.10937 q 0.0312,-0.89063 0.0312,-1.8125 0,-0.9375 0,-1.875 v -0.48438 q 0,-0.92187 0,-1.82812 0,-0.92188 -0.0312,-1.8125 z m 13.8952,2.29687 q -0.40625,0 -0.75,0.5 -0.34375,0.5 -0.39062,1.85938 h 1.23437 q 0.53125,0 0.71875,-0.20313 0.1875,-0.21875 0.1875,-0.71875 0,-0.73437 -0.29687,-1.07812 -0.29688,-0.35938 -0.70313,-0.35938 z m 0.0312,6.76563 q -1.07812,0 -1.90625,-0.4375 -0.8125,-0.45313 -1.28125,-1.29688 -0.46875,-0.84375 -0.46875,-2.01562 0,-1.23438 0.54688,-2.07813 0.5625,-0.84375 1.42187,-1.26562 0.85938,-0.4375 1.79688,-0.4375 0.96875,0 1.64062,0.40625 0.6875,0.40625 1.03125,1.10937 0.35938,0.70313 0.35938,1.59375 0,0.42188 -0.0781,0.78125 h -4.23437 q 0.0625,1.15625 0.625,1.70313 0.57812,0.54687 1.32812,0.54687 0.60938,0 1.03125,-0.21875 0.42188,-0.23437 0.75,-0.57812 l 0.51563,0.46875 q -0.45313,0.875 -1.23438,1.29687 -0.78125,0.42188 -1.84375,0.42188 z m 3.96405,-0.21875 v -0.6875 l 0.79688,-0.17188 q 0.0156,-0.53125 0.0156,-1.14062 0,-0.625 0,-1.07813 v -0.84375 q 0,-0.60937 -0.0156,-0.9375 0,-0.32812 -0.0312,-0.76562 l -0.89063,-0.14063 v -0.5625 l 2.89063,-0.98437 0.25,0.15625 0.0937,1.0625 q 0.51562,-0.60938 1.07812,-0.90625 0.5625,-0.3125 1.20313,-0.3125 1.51562,0 1.95312,1.29687 0.60938,-0.71875 1.17188,-1 0.5625,-0.29687 1.1875,-0.29687 1.125,0 1.625,0.64062 0.51562,0.64063 0.51562,1.95313 v 1.64062 q 0,0.46875 0,1.09375 0,0.60938 0.0156,1.14063 l 0.73437,0.15625 v 0.6875 h -3.78125 v -0.6875 l 0.71875,-0.17188 q 0.0156,-0.53125 0.0156,-1.14062 0,-0.60938 0,-1.07813 v -1.42187 q 0,-0.8125 -0.1875,-1.09375 -0.1875,-0.29688 -0.65625,-0.29688 -0.60938,0 -1.21875,0.53125 0.0156,0.125 0.0156,0.26563 0.0156,0.14062 0.0156,0.29687 v 1.71875 q 0,0.48438 0,1.09375 0,0.60938 0,1.15625 l 0.70312,0.14063 v 0.6875 h -3.78125 v -0.6875 l 0.75,-0.17188 q 0.0156,-0.53125 0.0156,-1.14062 0,-0.60938 0,-1.07813 v -1.40625 q 0,-0.78125 -0.1875,-1.09375 -0.17188,-0.3125 -0.65625,-0.3125 -0.3125,0 -0.625,0.15625 -0.29688,0.14063 -0.57813,0.375 v 2.28125 q 0,0.45313 0,1.07813 0,0.625 0.0156,1.17187 l 0.6875,0.14063 v 0.6875 z m 18.86249,0.20312 q -1.26562,0 -1.60937,-1.04687 -0.46875,0.48437 -0.90625,0.78125 -0.42188,0.28125 -1.1875,0.28125 -0.84375,0 -1.39063,-0.48438 -0.53125,-0.48437 -0.53125,-1.39062 0,-0.53125 0.23438,-0.95313 0.23437,-0.42187 0.84375,-0.78125 0.625,-0.375 1.75,-0.70312 0.21875,-0.0625 0.51562,-0.14063 0.29688,-0.0781 0.59375,-0.14062 v -0.48438 q 0,-0.98437 -0.25,-1.32812 -0.23437,-0.35938 -0.9375,-0.35938 -0.0937,0 -0.1875,0 -0.0781,0 -0.20312,0.0156 l -0.0781,0.64062 q -0.0156,0.71875 -0.32812,1.04688 -0.3125,0.3125 -0.73438,0.3125 -0.8125,0 -0.98437,-0.73438 0.0625,-0.90625 0.92187,-1.46875 0.875,-0.57812 2.45313,-0.57812 1.40625,0 2.01562,0.64062 0.60938,0.64063 0.60938,2.125 v 3.28125 q 0,0.4375 0.3125,0.4375 0.125,0 0.21875,-0.0625 0.10937,-0.0781 0.23437,-0.26562 l 0.39063,0.26562 q -0.26563,0.57813 -0.6875,0.84375 -0.42188,0.25 -1.07813,0.25 z m -3.45312,-2.23437 q 0,0.53125 0.25,0.79687 0.26562,0.26563 0.625,0.26563 0.17187,0 0.34375,-0.0625 0.17187,-0.0781 0.54687,-0.34375 v -2.375 q -0.1875,0.0625 -0.375,0.125 -0.17187,0.0625 -0.3125,0.125 -0.5,0.20312 -0.79687,0.57812 -0.28125,0.375 -0.28125,0.89063 z m 5.56378,2.03125 v -0.6875 l 0.79687,-0.17188 q 0.0156,-0.53125 0.0156,-1.14062 0,-0.625 0,-1.07813 v -0.84375 q 0,-0.60937 -0.0156,-0.9375 0,-0.32812 -0.0312,-0.76562 l -0.89062,-0.14063 v -0.5625 l 2.89062,-0.98437 0.25,0.15625 0.0937,1.0625 q 0.57813,-0.67188 1.14063,-0.9375 0.5625,-0.28125 1.20312,-0.28125 0.95313,0 1.53125,0.64062 0.57813,0.625 0.57813,1.875 v 1.71875 q 0,0.48438 0,1.09375 0,0.60938 0.0156,1.15625 l 0.73438,0.14063 v 0.6875 h -3.875 v -0.6875 l 0.76562,-0.15625 q 0.0156,-0.54688 0.0156,-1.15625 0,-0.60938 0,-1.07813 v -1.53125 q 0,-0.70312 -0.1875,-0.98437 -0.1875,-0.29688 -0.60938,-0.29688 -0.57812,0 -1.26562,0.53125 v 2.28125 q 0,0.45313 0,1.07813 0,0.625 0.0156,1.17187 l 0.6875,0.14063 v 0.6875 z m 11.52826,-3.5 q 0,1.20312 0.42187,1.82812 0.42188,0.60938 1.09375,0.60938 0.5,0 0.90625,-0.32813 v -4.375 q -0.39062,-0.29687 -0.85937,-0.29687 -0.67188,0 -1.125,0.625 -0.4375,0.625 -0.4375,1.9375 z m 2.625,3.65625 -0.125,-0.82813 q -0.84375,0.89063 -2.0625,0.89063 -0.82813,0 -1.5,-0.42188 -0.65625,-0.42187 -1.04688,-1.25 -0.375,-0.82812 -0.375,-2.01562 0,-1.20313 0.45313,-2.0625 0.46875,-0.85938 1.20312,-1.3125 0.75,-0.46875 1.57813,-0.46875 0.5625,0 0.98437,0.20312 0.4375,0.1875 0.78125,0.57813 v -2.6875 l -1.03125,-0.14063 v -0.625 l 3.09375,-0.65625 0.23438,0.14063 -0.0469,2.0625 v 7.60937 l 0.71875,0.14063 v 0.6875 z m 3.61212,-0.15625 v -0.6875 l 0.79687,-0.17188 q 0.0156,-0.53125 0.0156,-1.14062 0,-0.625 0,-1.07813 v -0.70312 q 0,-0.59375 -0.0156,-1 0,-0.40625 -0.0312,-0.84375 l -0.90625,-0.14063 v -0.5625 l 3.07813,-0.98437 0.25,0.15625 -0.0469,2.125 v 1.95312 q 0,0.45313 0,1.07813 0,0.625 0.0156,1.17187 l 0.73437,0.14063 v 0.6875 z m 1.95312,-8.39063 q -0.51562,0 -0.89062,-0.32812 -0.35938,-0.34375 -0.35938,-0.84375 0,-0.5 0.35938,-0.82813 0.375,-0.34375 0.89062,-0.34375 0.51563,0 0.875,0.34375 0.375,0.32813 0.375,0.82813 0,0.5 -0.375,0.84375 -0.35937,0.32812 -0.875,0.32812 z m 2.64698,8.39063 v -0.6875 l 0.79687,-0.17188 q 0.0156,-0.53125 0.0156,-1.14062 0,-0.625 0,-1.07813 v -0.84375 q 0,-0.60937 -0.0156,-0.9375 0,-0.32812 -0.0312,-0.76562 l -0.89062,-0.14063 v -0.5625 l 2.89062,-0.98437 0.25,0.15625 0.0937,1.0625 q 0.57813,-0.67188 1.14063,-0.9375 0.5625,-0.28125 1.20312,-0.28125 0.95313,0 1.53125,0.64062 0.57813,0.625 0.57813,1.875 v 1.71875 q 0,0.48438 0,1.09375 0,0.60938 0.0156,1.15625 l 0.73438,0.14063 v 0.6875 h -3.875 v -0.6875 l 0.76562,-0.15625 q 0.0156,-0.54688 0.0156,-1.15625 0,-0.60938 0,-1.07813 v -1.53125 q 0,-0.70312 -0.1875,-0.98437 -0.1875,-0.29688 -0.60938,-0.29688 -0.57812,0 -1.26562,0.53125 v 2.28125 q 0,0.45313 0,1.07813 0,0.625 0.0156,1.17187 l 0.6875,0.14063 v 0.6875 z m 12.21582,-3.28125 q 0.51562,0 0.76562,-0.45313 0.25,-0.45312 0.25,-1.23437 0,-0.78125 -0.25,-1.20313 -0.25,-0.4375 -0.73437,-0.4375 -0.5,0 -0.75,0.4375 -0.25,0.4375 -0.25,1.21875 0,0.78125 0.23437,1.23438 0.23438,0.4375 0.73438,0.4375 z m -1.95313,4.5 q 0,0.64062 0.48438,0.9375 0.48437,0.3125 1.48437,0.3125 1.09375,0 1.64063,-0.32813 0.5625,-0.32812 0.5625,-0.8125 0,-0.3125 -0.23438,-0.57812 -0.23437,-0.25 -0.82812,-0.25 h -1.54688 q -0.79687,0 -1.32812,-0.14063 -0.10938,0.21875 -0.17188,0.40625 -0.0625,0.1875 -0.0625,0.45313 z m 1.96875,-3.8125 q -0.76562,0 -1.34375,-0.17188 -0.17187,0.29688 -0.17187,0.67188 0,0.25 0.1875,0.40625 0.20312,0.15625 0.67187,0.15625 h 1.70313 q 1.125,0 1.78125,0.26562 0.65625,0.26563 0.9375,0.75 0.29687,0.46875 0.29687,1.10938 0,0.73437 -0.48437,1.35937 -0.48438,0.625 -1.45313,1 -0.95312,0.375 -2.35937,0.375 -1.21875,0 -1.90625,-0.25 -0.6875,-0.23437 -0.96875,-0.64062 -0.28125,-0.39063 -0.28125,-0.82813 0,-0.9375 1.21875,-1.5 -0.45313,-0.20312 -0.65625,-0.5 -0.1875,-0.3125 -0.1875,-0.67187 0,-0.51563 0.29687,-0.96875 0.29688,-0.46875 0.84375,-0.9375 -0.60937,-0.3125 -0.90625,-0.82813 -0.28125,-0.51562 -0.28125,-1.14062 0,-1.03125 0.75,-1.70313 0.75,-0.67187 2.3125,-0.67187 0.78125,0 1.35938,0.17187 0.59375,0.17188 0.96875,0.5 l 1.64062,-0.70312 0.23438,0.14062 v 1.14063 h -1.39063 q 0.26563,0.48437 0.26563,1.125 0,0.98437 -0.76563,1.67187 -0.75,0.67188 -2.3125,0.67188 z m 11.77088,-2.70313 v 1.10938 l -6.125,3.15625 -0.64063,-1.25 5.03125,-2.46875 -5.03125,-2.45313 0.64063,-1.25 z"
       id="path257"
       inkscape:connector-curvature="0"
       style="fill:#202122;fill-rule:nonzero" />
    <path
       d="m 365.71652,351.04062 v 0 c 0,-2.5658 2.07999,-4.64578 4.64578,-4.64578 h 49.57462 c 1.23211,0 2.41379,0.48947 3.28503,1.36072 0.87125,0.87124 1.36072,2.05291 1.36072,3.28506 v 18.58249 c 0,2.56579 -2.07999,4.64575 -4.64575,4.64575 H 370.3623 c -2.56579,0 -4.64578,-2.07995 -4.64578,-4.64575 z"
       id="path259"
       inkscape:connector-curvature="0"
       style="fill:#000000;fill-opacity:0;fill-rule:evenodd" />
    <path
       d="m 365.71652,351.04062 v 0 c 0,-2.5658 2.07999,-4.64578 4.64578,-4.64578 h 49.57462 c 1.23211,0 2.41379,0.48947 3.28503,1.36072 0.87125,0.87124 1.36072,2.05291 1.36072,3.28506 v 18.58249 c 0,2.56579 -2.07999,4.64575 -4.64575,4.64575 H 370.3623 c -2.56579,0 -4.64578,-2.07995 -4.64578,-4.64575 z"
       id="path261"
       inkscape:connector-curvature="0"
       style="fill-rule:evenodd;stroke:#595959;stroke-width:1;stroke-linecap:butt;stroke-linejoin:round" />
    <path
       d="m 393.2749,365.13187 v -0.48438 l 1.04687,-0.1875 q 0.0156,-0.53125 0.0156,-1.0625 0.0156,-0.53125 0.0156,-1.0625 v -2.82812 h -1.10937 v -0.57813 l 1.14062,-0.15625 q 0.0781,-1.0625 0.28125,-1.71875 0.21875,-0.67187 0.70313,-1.15625 0.4375,-0.42187 0.89062,-0.57812 0.46875,-0.17188 0.92188,-0.17188 0.46875,0 0.82812,0.17188 0.35938,0.15625 0.45313,0.54687 0,0.25 -0.21875,0.4375 -0.21875,0.17188 -0.59375,0.17188 -0.46875,0 -0.95313,-0.40625 l -0.375,-0.29688 q -0.0469,0.0469 -0.0937,0.0937 -0.0469,0.0312 -0.0937,0.0625 -0.34375,0.35938 -0.53125,1.0625 -0.17187,0.6875 -0.14062,1.8125 h 1.82812 v 0.70313 h -1.8125 v 2.82812 q 0,0.53125 0,1.0625 0.0156,0.51563 0.0312,1.04688 l 1.20313,0.20312 v 0.48438 z"
       id="path263"
       inkscape:connector-curvature="0"
       style="fill:#202122;fill-rule:nonzero" />
    <path
       d="M 365.71652,360.33185 H 342.40945"
       id="path265"
       inkscape:connector-curvature="0"
       style="fill:#000000;fill-opacity:0;fill-rule:evenodd" />
    <path
       d="M 365.71652,360.33185 H 348.40945"
       id="path267"
       inkscape:connector-curvature="0"
       style="fill-rule:evenodd;stroke:#1c4587;stroke-width:1;stroke-linecap:butt;stroke-linejoin:round" />
    <path
       d="m 348.40945,358.6801 -4.53812,1.65173 4.53812,1.65174 z"
       id="path269"
       inkscape:connector-curvature="0"
       style="fill:#1c4587;fill-rule:evenodd;stroke:#1c4587;stroke-width:1;stroke-linecap:butt" />
    <path
       d="m 603.3768,319.1595 6.18561,-6.18561 22.31689,22.31683 22.31684,-22.31683 6.1856,6.18561 -22.31683,22.31686 22.31683,22.31684 -6.1856,6.18564 -22.31684,-22.31687 -22.31689,22.31687 -6.18561,-6.18564 22.31683,-22.31684 z"
       id="path271"
       inkscape:connector-curvature="0"
       style="fill:#980000;fill-rule:evenodd" />
  </g>
</svg>
