<?xml version="1.0" encoding="UTF-8" standalone="no"?>
<svg
   xmlns:dc="http://purl.org/dc/elements/1.1/"
   xmlns:cc="http://creativecommons.org/ns#"
   xmlns:rdf="http://www.w3.org/1999/02/22-rdf-syntax-ns#"
   xmlns:svg="http://www.w3.org/2000/svg"
   xmlns="http://www.w3.org/2000/svg"
   xmlns:sodipodi="http://sodipodi.sourceforge.net/DTD/sodipodi-0.dtd"
   xmlns:inkscape="http://www.inkscape.org/namespaces/inkscape"
   version="1.1"
   viewBox="0 0 436.02362 191.23624"
   stroke-miterlimit="10"
   id="svg233"
   sodipodi:docname="dependency-limitations.svg"
   width="436.02362"
   height="191.23624"
   style="fill:none;stroke:none;stroke-linecap:square;stroke-miterlimit:10"
   inkscape:version="0.92.5 (2060ec1f9f, 2020-04-08)">
  <metadata
     id="metadata239">
    <rdf:RDF>
      <cc:Work
         rdf:about="">
        <dc:format>image/svg+xml</dc:format>
        <dc:type
           rdf:resource="http://purl.org/dc/dcmitype/StillImage" />
        <dc:title></dc:title>
      </cc:Work>
    </rdf:RDF>
  </metadata>
  <defs
     id="defs237" />
  <sodipodi:namedview
     pagecolor="#ffffff"
     bordercolor="#666666"
     borderopacity="1"
     objecttolerance="10"
     gridtolerance="10"
     guidetolerance="10"
     inkscape:pageopacity="0"
     inkscape:pageshadow="2"
     inkscape:window-width="1580"
     inkscape:window-height="961"
     id="namedview235"
     showgrid="false"
     inkscape:zoom="1.4458333"
     inkscape:cx="254.10718"
     inkscape:cy="25.140138"
     inkscape:window-x="884"
     inkscape:window-y="579"
     inkscape:window-maximized="0"
     inkscape:current-layer="g231" />
  <clipPath
     id="g30afa501cbb_0_344.0">
    <path
       d="M 0,0 H 960 V 540 H 0 Z"
       id="path2"
       inkscape:connector-curvature="0"
       style="clip-rule:nonzero" />
  </clipPath>
  <g
     clip-path="url(#g30afa501cbb_0_344.0)"
     id="g231"
     transform="translate(-81.61811,-158.8627)">
    <path
       d="m 82.11811,159.3627 435.02362,0.063 v 190.17325 l -435.02362,-0.063 z"
       id="path7"
       inkscape:connector-curvature="0"
       style="fill:#000000;fill-opacity:0;fill-rule:evenodd" />
    <path
       d="m 254.6128,188.9895 h 90.07873 v 14.86613 H 254.6128 Z"
       id="path11"
       inkscape:connector-curvature="0"
       style="fill:#000000;fill-opacity:0;fill-rule:evenodd" />
    <path
       d="m 269.19547,200.65564 v -0.48438 l 1.04687,-0.1875 q 0.0156,-0.53125 0.0156,-1.0625 0.0156,-0.53125 0.0156,-1.0625 v -2.82812 h -1.10937 v -0.57813 l 1.14062,-0.15625 q 0.0781,-1.0625 0.28125,-1.71875 0.21875,-0.67187 0.70313,-1.15625 0.4375,-0.42187 0.89062,-0.57812 0.46875,-0.17188 0.92188,-0.17188 0.46875,0 0.82812,0.17188 0.35938,0.15625 0.45313,0.54687 0,0.25 -0.21875,0.4375 -0.21875,0.17188 -0.59375,0.17188 -0.46875,0 -0.95313,-0.40625 l -0.375,-0.29688 q -0.0469,0.0469 -0.0937,0.0937 -0.0469,0.0312 -0.0937,0.0625 -0.34375,0.35938 -0.53125,1.0625 -0.17187,0.6875 -0.14062,1.8125 h 1.82812 v 0.70313 h -1.8125 v 2.82812 q 0,0.53125 0,1.0625 0.0156,0.51563 0.0312,1.04688 l 1.20313,0.20312 v 0.48438 z m 5.37439,-8.01563 2.73437,-0.70312 0.1875,0.14062 -0.0469,1.90625 v 3.85938 q 0,0.5 0,1 0.0156,0.5 0.0156,1.01562 l 1.90625,0.3125 v 0.48438 h -4.95312 v -0.48438 l 1.875,-0.3125 q 0.0156,-0.51562 0.0156,-1.01562 0.0156,-0.5 0.0156,-1 v -4.79688 l -1.75,0.14063 z m 7.52341,3.34375 q -0.40625,0 -0.6875,-0.28125 -0.26563,-0.28125 -0.26563,-0.65625 0,-0.40625 0.26563,-0.6875 0.28125,-0.28125 0.6875,-0.28125 0.40625,0 0.67187,0.28125 0.28125,0.28125 0.28125,0.6875 0,0.375 -0.28125,0.65625 -0.26562,0.28125 -0.67187,0.28125 z m 0,4.84375 q -0.40625,0 -0.6875,-0.28125 -0.26563,-0.28125 -0.26563,-0.65625 0,-0.40625 0.26563,-0.6875 0.28125,-0.28125 0.6875,-0.28125 0.40625,0 0.67187,0.28125 0.28125,0.28125 0.28125,0.6875 0,0.375 -0.28125,0.65625 -0.26562,0.28125 -0.67187,0.28125 z m 9.8226,0.0312 q -0.78125,0 -1.51563,-0.29687 -0.71875,-0.3125 -1.3125,-0.89063 -0.57812,-0.59375 -0.92187,-1.45312 -0.34375,-0.875 -0.34375,-2.03125 0,-1.09375 0.34375,-1.95313 0.34375,-0.875 0.92187,-1.46875 0.59375,-0.59375 1.3125,-0.90625 0.73438,-0.3125 1.51563,-0.3125 0.76562,0 1.48437,0.29688 0.73438,0.29687 1.3125,0.89062 0.59375,0.57813 0.9375,1.45313 0.34375,0.85937 0.34375,2 0,1.09375 -0.34375,1.96875 -0.34375,0.85937 -0.92187,1.46875 -0.57813,0.60937 -1.3125,0.92187 -0.73438,0.3125 -1.5,0.3125 z m 0,-0.67187 q 0.6875,0 1.1875,-0.32813 0.5,-0.34375 0.8125,-0.90625 0.3125,-0.57812 0.45312,-1.28125 0.15625,-0.71875 0.15625,-1.48437 0,-0.75 -0.15625,-1.45313 -0.14062,-0.71875 -0.45312,-1.28125 -0.3125,-0.57812 -0.8125,-0.90625 -0.5,-0.34375 -1.1875,-0.34375 -0.6875,0 -1.1875,0.34375 -0.5,0.32813 -0.82813,0.90625 -0.3125,0.5625 -0.46875,1.28125 -0.15625,0.70313 -0.15625,1.45313 0,0.76562 0.15625,1.48437 0.15625,0.70313 0.46875,1.28125 0.32813,0.5625 0.82813,0.90625 0.5,0.32813 1.1875,0.32813 z m 5.17294,3.65625 v -0.46875 l 1.0625,-0.1875 q 0.0156,-0.54688 0.0156,-1.09375 0.0156,-0.53125 0.0156,-1.0625 v -3.8125 q 0,-0.54688 -0.0156,-0.90625 0,-0.35938 -0.0312,-0.76563 l -1.04688,-0.10937 v -0.46875 l 1.85938,-0.8125 0.20312,0.125 0.0781,0.875 q 0.95312,-1 2.01562,-1 0.71875,0 1.28125,0.40625 0.57813,0.39062 0.92188,1.14062 0.34375,0.73438 0.34375,1.76563 0,1.03125 -0.35938,1.78125 -0.35937,0.75 -0.98437,1.17187 -0.60938,0.40625 -1.40625,0.40625 -0.45313,0 -0.90625,-0.1875 -0.4375,-0.1875 -0.85938,-0.67187 v 1.04687 q 0,0.53125 0,1.0625 0.0156,0.54688 0.0156,1.09375 l 1.21875,0.20313 v 0.46875 z m 3.84375,-8.9375 q -0.3125,0 -0.71875,0.15625 -0.39062,0.15625 -0.90625,0.57812 v 3.75 q 0.375,0.35938 0.73438,0.51563 0.35937,0.15625 0.73437,0.15625 0.75,0 1.28125,-0.59375 0.53125,-0.59375 0.53125,-1.89063 0,-1.28125 -0.46875,-1.96875 -0.46875,-0.70312 -1.1875,-0.70312 z m 6.05881,5.92187 q -0.6875,0 -1.10938,-0.375 -0.40625,-0.375 -0.40625,-1.14062 0,-0.25 0,-0.5 0,-0.25 0,-0.64063 v -3.14062 h -1.09375 v -0.57813 l 1.1875,-0.15625 0.34375,-1.78125 h 0.79688 l -0.0781,1.8125 h 1.79688 v 0.70313 h -1.8125 v 4.125 q 0,0.51562 0.20312,0.75 0.20313,0.23437 0.53125,0.23437 0.21875,0 0.42188,-0.0937 0.21875,-0.0937 0.46875,-0.26562 l 0.32812,0.34375 q -0.54687,0.70312 -1.57812,0.70312 z m 2.36288,-4.25 v -0.625 l 5.15625,-3 0.39063,0.71875 -4.625,2.59375 4.625,2.59375 -0.39063,0.71875 z m 10.24909,-4.21875 h -0.8125 q 0,0.84375 -0.0156,1.73438 0,0.89062 0,1.78125 v 0.64062 h 0.875 q 1.21875,0 1.73438,-0.59375 0.51562,-0.59375 0.51562,-1.53125 0,-0.96875 -0.5625,-1.5 -0.54687,-0.53125 -1.73437,-0.53125 z m -3.34375,-0.0781 v -0.54688 h 3.57812 q 1.6875,0 2.53125,0.75 0.85938,0.73438 0.85938,1.90625 0,0.75 -0.375,1.375 -0.375,0.625 -1.20313,1 -0.8125,0.375 -2.1875,0.375 h -0.6875 q 0,0.71875 0,1.42188 0.0156,0.6875 0.0156,1.40625 l 1.25,0.14062 v 0.54688 h -3.78125 v -0.54688 l 1.21875,-0.14062 q 0.0312,-0.84375 0.0312,-1.70313 0,-0.875 0,-1.73437 v -0.65625 q 0,-0.875 0,-1.73438 0,-0.85937 -0.0312,-1.70312 z m 13.56897,3.67187 v 0.625 l -5.15625,3 -0.39063,-0.71875 4.625,-2.59375 -4.625,-2.59375 0.39063,-0.71875 z"
       id="path13"
       inkscape:connector-curvature="0"
       style="fill:#202122;fill-rule:nonzero" />
    <path
       d="m 254.6128,217.80779 h 90.07873 v 14.86613 H 254.6128 Z"
       id="path15"
       inkscape:connector-curvature="0"
       style="fill:#000000;fill-opacity:0;fill-rule:evenodd" />
    <path
       d="m 259.61444,229.47392 v -0.48438 l 1,-0.17187 q 0,-0.5 0,-1.09375 0.0156,-0.59375 0.0156,-1.04688 v -5.85937 l -1.09375,-0.125 v -0.46875 l 2.04688,-0.59375 0.1875,0.0937 -0.0625,1.90625 v 2.35937 q 0.48437,-0.53125 1,-0.76562 0.51562,-0.25 1.0625,-0.25 0.70312,0 1.26562,0.39062 0.57813,0.375 0.92188,1.10938 0.34375,0.73437 0.34375,1.78125 0,1.01562 -0.35938,1.78125 -0.35937,0.76562 -0.98437,1.1875 -0.625,0.42187 -1.40625,0.42187 -0.46875,0 -0.9375,-0.20312 -0.45313,-0.20313 -0.90625,-0.73438 l -0.0937,0.90625 z m 3.79687,-5.75 q -0.3125,0 -0.71875,0.17187 -0.39062,0.15625 -0.9375,0.60938 v 3.65625 q 0.40625,0.375 0.8125,0.54687 0.40625,0.17188 0.76563,0.17188 0.71875,0 1.23437,-0.60938 0.53125,-0.625 0.53125,-1.92187 0,-1.26563 -0.48437,-1.9375 -0.46875,-0.6875 -1.20313,-0.6875 z m 4.62781,-2.26563 2.73438,-0.70312 0.1875,0.14062 -0.0469,1.90625 v 3.85938 q 0,0.5 0,1 0.0156,0.5 0.0156,1.01562 l 1.90625,0.3125 v 0.48438 h -4.95313 v -0.48438 l 1.875,-0.3125 q 0.0156,-0.51562 0.0156,-1.01562 0.0156,-0.5 0.0156,-1 v -4.79688 l -1.75,0.14063 z m 7.52341,3.34375 q -0.40625,0 -0.6875,-0.28125 -0.26563,-0.28125 -0.26563,-0.65625 0,-0.40625 0.26563,-0.6875 0.28125,-0.28125 0.6875,-0.28125 0.40625,0 0.67187,0.28125 0.28125,0.28125 0.28125,0.6875 0,0.375 -0.28125,0.65625 -0.26562,0.28125 -0.67187,0.28125 z m 0,4.84375 q -0.40625,0 -0.6875,-0.28125 -0.26563,-0.28125 -0.26563,-0.65625 0,-0.40625 0.26563,-0.6875 0.28125,-0.28125 0.6875,-0.28125 0.40625,0 0.67187,0.28125 0.28125,0.28125 0.28125,0.6875 0,0.375 -0.28125,0.65625 -0.26562,0.28125 -0.67187,0.28125 z m 9.3851,-8.46875 h -1.15625 q 0,0.875 -0.0156,1.75 0,0.875 0,1.8125 h 1.01562 q 1.09375,0 1.59375,-0.51562 0.51563,-0.51563 0.51563,-1.32813 0,-0.82812 -0.46875,-1.26562 -0.46875,-0.45313 -1.48438,-0.45313 z m -3.6875,-0.0781 v -0.54688 h 3.71875 q 1.53125,0 2.39063,0.625 0.85937,0.60938 0.85937,1.71875 0,0.76563 -0.5625,1.40625 -0.5625,0.64063 -1.6875,0.84375 0.59375,0.10938 0.96875,0.51563 0.375,0.39062 0.60938,1.17187 l 0.57812,1.96875 1.01563,0.125 v 0.54688 q -0.1875,0.0469 -0.4375,0.0937 -0.25,0.0469 -0.5625,0.0469 -0.625,0 -0.9375,-0.1875 -0.3125,-0.1875 -0.42188,-0.67187 l -0.54687,-2.14063 q -0.10938,-0.54687 -0.34375,-0.8125 -0.21875,-0.26562 -0.57813,-0.35937 -0.34375,-0.0937 -0.89062,-0.0937 h -0.65625 q 0,0.95312 0,1.79687 0.0156,0.82813 0.0156,1.64063 l 1.23438,0.14062 v 0.54688 h -3.76563 v -0.54688 l 1.21875,-0.14062 q 0.0312,-0.84375 0.0312,-1.70313 0,-0.875 0,-1.73437 v -0.65625 q 0,-0.875 0,-1.73438 0,-0.85937 -0.0312,-1.70312 z m 11.52762,2.48437 q -0.35938,0 -0.75,0.21875 -0.375,0.20313 -0.65625,0.67188 -0.26563,0.46875 -0.34375,1.23437 h 2.42187 q 0.48438,0 0.625,-0.1875 0.15625,-0.20312 0.15625,-0.5 0,-0.39062 -0.1875,-0.70312 -0.1875,-0.32813 -0.51562,-0.53125 -0.32813,-0.20313 -0.75,-0.20313 z m 0,6.0625 q -1.35938,0 -2.17188,-0.875 -0.8125,-0.875 -0.8125,-2.40625 0,-1.01562 0.42188,-1.78125 0.42187,-0.76562 1.125,-1.1875 0.70312,-0.42187 1.53125,-0.42187 0.6875,0 1.25,0.3125 0.5625,0.29687 0.89062,0.85937 0.32813,0.5625 0.32813,1.39063 0,0.21875 -0.0312,0.42187 -0.0156,0.1875 -0.0625,0.3125 h -4.25 q 0.0312,1.23438 0.60937,1.875 0.59375,0.64063 1.54688,0.64063 0.64062,0 1.0625,-0.26563 0.4375,-0.26562 0.79687,-0.67187 l 0.3125,0.25 q -0.375,0.70312 -1.01562,1.125 -0.625,0.42187 -1.53125,0.42187 z m 8.63275,-0.0312 q -0.48438,0 -0.8125,-0.28125 -0.3125,-0.28125 -0.39063,-0.75 -0.54687,0.53125 -0.96875,0.79688 -0.40625,0.26562 -0.98437,0.26562 -0.73438,0 -1.26563,-0.42187 -0.53125,-0.42188 -0.53125,-1.25 0,-0.375 0.17188,-0.70313 0.1875,-0.34375 0.67187,-0.65625 0.48438,-0.32812 1.375,-0.64062 0.3125,-0.10938 0.70313,-0.23438 0.40625,-0.125 0.79687,-0.20312 v -0.34375 q 0,-0.96875 -0.29687,-1.28125 -0.28125,-0.32813 -0.95313,-0.32813 -0.14062,0 -0.32812,0.0156 -0.17188,0.0156 -0.39063,0.0625 l -0.25,0.875 q -0.1875,0.625 -0.6875,0.625 -0.5625,0 -0.64062,-0.53125 0.1875,-0.76563 0.89062,-1.20313 0.70313,-0.45312 1.71875,-0.45312 1.04688,0 1.54688,0.53125 0.51562,0.51562 0.51562,1.78125 v 2.84375 q 0,0.42187 0.125,0.60937 0.14063,0.17188 0.35938,0.17188 0.17187,0 0.28125,-0.0781 0.125,-0.0781 0.23437,-0.21875 l 0.26563,0.29688 q -0.23438,0.39062 -0.53125,0.54687 -0.28125,0.15625 -0.625,0.15625 z m -3.76563,-1.82812 q 0,0.53125 0.3125,0.76562 0.3125,0.21875 0.76563,0.21875 0.1875,0 0.35937,-0.0469 0.1875,-0.0625 0.4375,-0.21875 0.26563,-0.15625 0.65625,-0.4375 v -2.04688 q -0.34375,0.0937 -0.67187,0.21875 -0.32813,0.10938 -0.54688,0.1875 -0.57812,0.21875 -0.85937,0.46875 -0.28125,0.23438 -0.375,0.46875 -0.0781,0.21875 -0.0781,0.42188 z m 6.79963,-1.4375 q 0,1.29687 0.53125,1.92187 0.53125,0.60938 1.32812,0.60938 0.4375,0 0.76563,-0.17188 0.34375,-0.1875 0.71875,-0.59375 v -3.6875 q -0.45313,-0.40625 -0.8125,-0.54687 -0.35938,-0.15625 -0.6875,-0.15625 -0.5,0 -0.92188,0.28125 -0.40625,0.26562 -0.67187,0.85937 -0.25,0.57813 -0.25,1.48438 z m 3.48437,3.26562 -0.0937,-0.92187 q -0.34375,0.45312 -0.79687,0.70312 -0.45313,0.25 -1.07813,0.25 -0.8125,0 -1.42187,-0.40625 -0.60938,-0.42187 -0.95313,-1.15625 -0.34375,-0.73437 -0.34375,-1.71875 0,-1.01562 0.375,-1.78125 0.375,-0.76562 1.01563,-1.1875 0.64062,-0.42187 1.45312,-0.42187 0.46875,0 0.89063,0.1875 0.4375,0.1875 0.85937,0.67187 v -3.01562 l -1.14062,-0.125 v -0.46875 l 2.07812,-0.59375 0.1875,0.0937 -0.0469,1.90625 v 7.20312 l 1.07812,0.15625 v 0.48438 z m 6.36118,-5.98437 v -0.48438 h 2.60937 v 0.48438 l -0.71875,0.14062 -2.15625,5.65625 q -0.65625,1.78125 -1.28125,2.5625 -0.625,0.79688 -1.45312,0.79688 -0.48438,0 -0.85938,-0.25 -0.35937,-0.23438 -0.35937,-0.625 0.0625,-0.29688 0.32812,-0.4375 0.26563,-0.14063 0.5625,-0.14063 0.26563,0 0.48438,0.10938 0.23437,0.10937 0.5,0.39062 l 0.0781,0.0625 q 0.42188,-0.35937 0.70313,-0.875 0.29687,-0.5 0.48437,-1.04687 l 0.0625,-0.15625 -2.42187,-6.09375 -0.73438,-0.0937 v -0.48438 h 3.20313 v 0.48438 l -1.17188,0.14062 1.67188,4.54688 1.64062,-4.53125 z m 3.37085,1.76562 v -0.625 l 5.15625,-3 0.39062,0.71875 -4.625,2.59375 4.625,2.59375 -0.39062,0.71875 z m 8.43658,0.375 q 0,1.0625 0.1875,2 0.1875,0.92188 0.64063,1.875 0.45312,0.95313 1.23437,2.07813 l -0.34375,0.3125 q -1.42187,-1.32813 -2.10937,-2.875 -0.67188,-1.5625 -0.67188,-3.39063 0,-1.82812 0.67188,-3.39062 0.6875,-1.5625 2.10937,-2.875 l 0.34375,0.3125 q -0.78125,1.125 -1.23437,2.07812 -0.45313,0.95313 -0.64063,1.89063 -0.1875,0.92187 -0.1875,1.98437 z m 4.78384,0 q 0,-1.0625 -0.1875,-1.98437 -0.1875,-0.9375 -0.64062,-1.89063 -0.4375,-0.95312 -1.23438,-2.07812 l 0.35938,-0.3125 q 1.40625,1.3125 2.07812,2.875 0.6875,1.5625 0.6875,3.39062 0,1.82813 -0.6875,3.39063 -0.67187,1.54687 -2.07812,2.875 l -0.35938,-0.3125 q 0.79688,-1.125 1.23438,-2.07813 0.45312,-0.95312 0.64062,-1.875 0.1875,-0.9375 0.1875,-2 z m 8.4401,-1 v 0.625 l -5.15625,3 -0.39063,-0.71875 4.625,-2.59375 -4.625,-2.59375 0.39063,-0.71875 z"
       id="path17"
       inkscape:connector-curvature="0"
       style="fill:#202122;fill-rule:nonzero" />
    <path
       d="m 254.6128,287.1056 h 90.07873 v 14.86615 H 254.6128 Z"
       id="path19"
       inkscape:connector-curvature="0"
       style="fill:#000000;fill-opacity:0;fill-rule:evenodd" />
    <path
       d="m 269.19547,298.77173 v -0.48438 l 1.04687,-0.1875 q 0.0156,-0.53125 0.0156,-1.0625 0.0156,-0.53125 0.0156,-1.0625 v -2.82812 h -1.10937 v -0.57813 l 1.14062,-0.15625 q 0.0781,-1.0625 0.28125,-1.71875 0.21875,-0.67187 0.70313,-1.15625 0.4375,-0.42187 0.89062,-0.57812 0.46875,-0.17188 0.92188,-0.17188 0.46875,0 0.82812,0.17188 0.35938,0.15625 0.45313,0.54687 0,0.25 -0.21875,0.4375 -0.21875,0.17188 -0.59375,0.17188 -0.46875,0 -0.95313,-0.40625 l -0.375,-0.29688 q -0.0469,0.0469 -0.0937,0.0937 -0.0469,0.0312 -0.0937,0.0625 -0.34375,0.35938 -0.53125,1.0625 -0.17187,0.6875 -0.14062,1.8125 h 1.82812 v 0.70313 h -1.8125 v 2.82812 q 0,0.53125 0,1.0625 0.0156,0.51563 0.0312,1.04688 l 1.20313,0.20312 v 0.48438 z m 4.89001,0 v -0.85938 q 0.53125,-0.53125 1.03125,-1.03125 0.5,-0.51562 0.92188,-0.96875 1,-1.0625 1.46875,-1.90625 0.46875,-0.85937 0.46875,-1.625 0,-0.82812 -0.4375,-1.3125 -0.4375,-0.48437 -1.17188,-0.48437 -0.125,0 -0.29687,0.0156 -0.15625,0.0156 -0.34375,0.0625 l -0.26563,0.90625 q -0.125,0.5 -0.3125,0.70313 -0.17187,0.20312 -0.45312,0.20312 -0.4375,0 -0.67188,-0.42187 0.0781,-0.70313 0.45313,-1.15625 0.39062,-0.46875 0.96875,-0.6875 0.59375,-0.21875 1.26562,-0.21875 1.29688,0 1.875,0.64062 0.59375,0.625 0.59375,1.625 0,0.57813 -0.23437,1.14063 -0.23438,0.54687 -0.8125,1.23437 -0.57813,0.6875 -1.59375,1.67188 -0.26563,0.26562 -0.65625,0.625 -0.375,0.35937 -0.78125,0.75 h 4.45312 v 1.09375 z m 8.00779,-4.67188 q -0.40625,0 -0.6875,-0.28125 -0.26563,-0.28125 -0.26563,-0.65625 0,-0.40625 0.26563,-0.6875 0.28125,-0.28125 0.6875,-0.28125 0.40625,0 0.67187,0.28125 0.28125,0.28125 0.28125,0.6875 0,0.375 -0.28125,0.65625 -0.26562,0.28125 -0.67187,0.28125 z m 0,4.84375 q -0.40625,0 -0.6875,-0.28125 -0.26563,-0.28125 -0.26563,-0.65625 0,-0.40625 0.26563,-0.6875 0.28125,-0.28125 0.6875,-0.28125 0.40625,0 0.67187,0.28125 0.28125,0.28125 0.28125,0.6875 0,0.375 -0.28125,0.65625 -0.26562,0.28125 -0.67187,0.28125 z m 9.8226,0.0312 q -0.78125,0 -1.51563,-0.29687 -0.71875,-0.3125 -1.3125,-0.89063 -0.57812,-0.59375 -0.92187,-1.45312 -0.34375,-0.875 -0.34375,-2.03125 0,-1.09375 0.34375,-1.95313 0.34375,-0.875 0.92187,-1.46875 0.59375,-0.59375 1.3125,-0.90625 0.73438,-0.3125 1.51563,-0.3125 0.76562,0 1.48437,0.29688 0.73438,0.29687 1.3125,0.89062 0.59375,0.57813 0.9375,1.45313 0.34375,0.85937 0.34375,2 0,1.09375 -0.34375,1.96875 -0.34375,0.85937 -0.92187,1.46875 -0.57813,0.60937 -1.3125,0.92187 -0.73438,0.3125 -1.5,0.3125 z m 0,-0.67187 q 0.6875,0 1.1875,-0.32813 0.5,-0.34375 0.8125,-0.90625 0.3125,-0.57812 0.45312,-1.28125 0.15625,-0.71875 0.15625,-1.48437 0,-0.75 -0.15625,-1.45313 -0.14062,-0.71875 -0.45312,-1.28125 -0.3125,-0.57812 -0.8125,-0.90625 -0.5,-0.34375 -1.1875,-0.34375 -0.6875,0 -1.1875,0.34375 -0.5,0.32813 -0.82813,0.90625 -0.3125,0.5625 -0.46875,1.28125 -0.15625,0.70313 -0.15625,1.45313 0,0.76562 0.15625,1.48437 0.15625,0.70313 0.46875,1.28125 0.32813,0.5625 0.82813,0.90625 0.5,0.32813 1.1875,0.32813 z m 5.17294,3.65625 v -0.46875 l 1.0625,-0.1875 q 0.0156,-0.54688 0.0156,-1.09375 0.0156,-0.53125 0.0156,-1.0625 v -3.8125 q 0,-0.54688 -0.0156,-0.90625 0,-0.35938 -0.0312,-0.76563 l -1.04688,-0.10937 v -0.46875 l 1.85938,-0.8125 0.20312,0.125 0.0781,0.875 q 0.95312,-1 2.01562,-1 0.71875,0 1.28125,0.40625 0.57813,0.39062 0.92188,1.14062 0.34375,0.73438 0.34375,1.76563 0,1.03125 -0.35938,1.78125 -0.35937,0.75 -0.98437,1.17187 -0.60938,0.40625 -1.40625,0.40625 -0.45313,0 -0.90625,-0.1875 -0.4375,-0.1875 -0.85938,-0.67187 v 1.04687 q 0,0.53125 0,1.0625 0.0156,0.54688 0.0156,1.09375 l 1.21875,0.20313 v 0.46875 z m 3.84375,-8.9375 q -0.3125,0 -0.71875,0.15625 -0.39062,0.15625 -0.90625,0.57812 v 3.75 q 0.375,0.35938 0.73438,0.51563 0.35937,0.15625 0.73437,0.15625 0.75,0 1.28125,-0.59375 0.53125,-0.59375 0.53125,-1.89063 0,-1.28125 -0.46875,-1.96875 -0.46875,-0.70312 -1.1875,-0.70312 z m 6.05881,5.92187 q -0.6875,0 -1.10938,-0.375 -0.40625,-0.375 -0.40625,-1.14062 0,-0.25 0,-0.5 0,-0.25 0,-0.64063 v -3.14062 h -1.09375 v -0.57813 l 1.1875,-0.15625 0.34375,-1.78125 h 0.79688 l -0.0781,1.8125 h 1.79688 v 0.70313 h -1.8125 v 4.125 q 0,0.51562 0.20312,0.75 0.20313,0.23437 0.53125,0.23437 0.21875,0 0.42188,-0.0937 0.21875,-0.0937 0.46875,-0.26562 l 0.32812,0.34375 q -0.54687,0.70312 -1.57812,0.70312 z m 2.36288,-4.25 v -0.625 l 5.15625,-3 0.39063,0.71875 -4.625,2.59375 4.625,2.59375 -0.39063,0.71875 z m 10.24909,-4.21875 h -0.8125 q 0,0.84375 -0.0156,1.73438 0,0.89062 0,1.78125 v 0.64062 h 0.875 q 1.21875,0 1.73438,-0.59375 0.51562,-0.59375 0.51562,-1.53125 0,-0.96875 -0.5625,-1.5 -0.54687,-0.53125 -1.73437,-0.53125 z m -3.34375,-0.0781 v -0.54688 h 3.57812 q 1.6875,0 2.53125,0.75 0.85938,0.73438 0.85938,1.90625 0,0.75 -0.375,1.375 -0.375,0.625 -1.20313,1 -0.8125,0.375 -2.1875,0.375 h -0.6875 q 0,0.71875 0,1.42188 0.0156,0.6875 0.0156,1.40625 l 1.25,0.14062 v 0.54688 h -3.78125 v -0.54688 l 1.21875,-0.14062 q 0.0312,-0.84375 0.0312,-1.70313 0,-0.875 0,-1.73437 v -0.65625 q 0,-0.875 0,-1.73438 0,-0.85937 -0.0312,-1.70312 z m 13.56897,3.67187 v 0.625 l -5.15625,3 -0.39063,-0.71875 4.625,-2.59375 -4.625,-2.59375 0.39063,-0.71875 z"
       id="path21"
       inkscape:connector-curvature="0"
       style="fill:#202122;fill-rule:nonzero" />
    <path
       d="m 254.6128,315.9239 h 90.07873 v 14.86615 H 254.6128 Z"
       id="path23"
       inkscape:connector-curvature="0"
       style="fill:#000000;fill-opacity:0;fill-rule:evenodd" />
    <path
       d="m 259.61444,327.59003 v -0.48437 l 1,-0.17188 q 0,-0.5 0,-1.09375 0.0156,-0.59375 0.0156,-1.04687 v -5.85938 l -1.09375,-0.125 v -0.46875 l 2.04688,-0.59375 0.1875,0.0937 -0.0625,1.90625 v 2.35938 q 0.48437,-0.53125 1,-0.76563 0.51562,-0.25 1.0625,-0.25 0.70312,0 1.26562,0.39063 0.57813,0.375 0.92188,1.10937 0.34375,0.73438 0.34375,1.78125 0,1.01563 -0.35938,1.78125 -0.35937,0.76563 -0.98437,1.1875 -0.625,0.42188 -1.40625,0.42188 -0.46875,0 -0.9375,-0.20313 -0.45313,-0.20312 -0.90625,-0.73437 l -0.0937,0.90625 z m 3.79687,-5.75 q -0.3125,0 -0.71875,0.17188 -0.39062,0.15625 -0.9375,0.60937 v 3.65625 q 0.40625,0.375 0.8125,0.54688 0.40625,0.17187 0.76563,0.17187 0.71875,0 1.23437,-0.60937 0.53125,-0.625 0.53125,-1.92188 0,-1.26562 -0.48437,-1.9375 -0.46875,-0.6875 -1.20313,-0.6875 z m 4.14344,5.75 v -0.85937 q 0.53125,-0.53125 1.03125,-1.03125 0.5,-0.51563 0.92187,-0.96875 1,-1.0625 1.46875,-1.90625 0.46875,-0.85938 0.46875,-1.625 0,-0.82813 -0.4375,-1.3125 -0.4375,-0.48438 -1.17187,-0.48438 -0.125,0 -0.29688,0.0156 -0.15625,0.0156 -0.34375,0.0625 l -0.26562,0.90625 q -0.125,0.5 -0.3125,0.70312 -0.17188,0.20313 -0.45313,0.20313 -0.4375,0 -0.67187,-0.42188 0.0781,-0.70312 0.45312,-1.15625 0.39063,-0.46875 0.96875,-0.6875 0.59375,-0.21875 1.26563,-0.21875 1.29687,0 1.875,0.64063 0.59375,0.625 0.59375,1.625 0,0.57812 -0.23438,1.14062 -0.23437,0.54688 -0.8125,1.23438 -0.57812,0.6875 -1.59375,1.67187 -0.26562,0.26563 -0.65625,0.625 -0.375,0.35938 -0.78125,0.75 h 4.45313 V 327.59 Z m 8.00778,-4.67187 q -0.40625,0 -0.6875,-0.28125 -0.26563,-0.28125 -0.26563,-0.65625 0,-0.40625 0.26563,-0.6875 0.28125,-0.28125 0.6875,-0.28125 0.40625,0 0.67187,0.28125 0.28125,0.28125 0.28125,0.6875 0,0.375 -0.28125,0.65625 -0.26562,0.28125 -0.67187,0.28125 z m 0,4.84375 q -0.40625,0 -0.6875,-0.28125 -0.26563,-0.28125 -0.26563,-0.65625 0,-0.40625 0.26563,-0.6875 0.28125,-0.28125 0.6875,-0.28125 0.40625,0 0.67187,0.28125 0.28125,0.28125 0.28125,0.6875 0,0.375 -0.28125,0.65625 -0.26562,0.28125 -0.67187,0.28125 z m 9.3851,-8.46875 h -1.15625 q 0,0.875 -0.0156,1.75 0,0.875 0,1.8125 h 1.01562 q 1.09375,0 1.59375,-0.51563 0.51563,-0.51562 0.51563,-1.32812 0,-0.82813 -0.46875,-1.26563 -0.46875,-0.45312 -1.48438,-0.45312 z m -3.6875,-0.0781 v -0.54687 h 3.71875 q 1.53125,0 2.39063,0.625 0.85937,0.60937 0.85937,1.71875 0,0.76562 -0.5625,1.40625 -0.5625,0.64062 -1.6875,0.84375 0.59375,0.10937 0.96875,0.51562 0.375,0.39063 0.60938,1.17188 l 0.57812,1.96875 1.01563,0.125 v 0.54687 q -0.1875,0.0469 -0.4375,0.0937 -0.25,0.0469 -0.5625,0.0469 -0.625,0 -0.9375,-0.1875 -0.3125,-0.1875 -0.42188,-0.67188 l -0.54687,-2.14062 q -0.10938,-0.54688 -0.34375,-0.8125 -0.21875,-0.26563 -0.57813,-0.35938 -0.34375,-0.0937 -0.89062,-0.0937 h -0.65625 q 0,0.95313 0,1.79688 0.0156,0.82812 0.0156,1.64062 l 1.23438,0.14063 v 0.54687 h -3.76563 v -0.54687 l 1.21875,-0.14063 q 0.0312,-0.84375 0.0312,-1.70312 0,-0.875 0,-1.73438 v -0.65625 q 0,-0.875 0,-1.73437 0,-0.85938 -0.0312,-1.70313 z m 11.52762,2.48438 q -0.35938,0 -0.75,0.21875 -0.375,0.20312 -0.65625,0.67187 -0.26563,0.46875 -0.34375,1.23438 h 2.42187 q 0.48438,0 0.625,-0.1875 0.15625,-0.20313 0.15625,-0.5 0,-0.39063 -0.1875,-0.70313 -0.1875,-0.32812 -0.51562,-0.53125 -0.32813,-0.20312 -0.75,-0.20312 z m 0,6.0625 q -1.35938,0 -2.17188,-0.875 -0.8125,-0.875 -0.8125,-2.40625 0,-1.01563 0.42188,-1.78125 0.42187,-0.76563 1.125,-1.1875 0.70312,-0.42188 1.53125,-0.42188 0.6875,0 1.25,0.3125 0.5625,0.29688 0.89062,0.85938 0.32813,0.5625 0.32813,1.39062 0,0.21875 -0.0312,0.42188 -0.0156,0.1875 -0.0625,0.3125 h -4.25 q 0.0312,1.23437 0.60937,1.875 0.59375,0.64062 1.54688,0.64062 0.64062,0 1.0625,-0.26562 0.4375,-0.26563 0.79687,-0.67188 l 0.3125,0.25 q -0.375,0.70313 -1.01562,1.125 -0.625,0.42188 -1.53125,0.42188 z m 8.63275,-0.0312 q -0.48438,0 -0.8125,-0.28125 -0.3125,-0.28125 -0.39063,-0.75 -0.54687,0.53125 -0.96875,0.79687 -0.40625,0.26563 -0.98437,0.26563 -0.73438,0 -1.26563,-0.42188 -0.53125,-0.42187 -0.53125,-1.25 0,-0.375 0.17188,-0.70312 0.1875,-0.34375 0.67187,-0.65625 0.48438,-0.32813 1.375,-0.64063 0.3125,-0.10937 0.70313,-0.23437 0.40625,-0.125 0.79687,-0.20313 v -0.34375 q 0,-0.96875 -0.29687,-1.28125 -0.28125,-0.32812 -0.95313,-0.32812 -0.14062,0 -0.32812,0.0156 -0.17188,0.0156 -0.39063,0.0625 l -0.25,0.875 q -0.1875,0.625 -0.6875,0.625 -0.5625,0 -0.64062,-0.53125 0.1875,-0.76562 0.89062,-1.20312 0.70313,-0.45313 1.71875,-0.45313 1.04688,0 1.54688,0.53125 0.51562,0.51563 0.51562,1.78125 v 2.84375 q 0,0.42188 0.125,0.60938 0.14063,0.17187 0.35938,0.17187 0.17187,0 0.28125,-0.0781 0.125,-0.0781 0.23437,-0.21875 l 0.26563,0.29687 q -0.23438,0.39063 -0.53125,0.54688 -0.28125,0.15625 -0.625,0.15625 z m -3.76563,-1.82813 q 0,0.53125 0.3125,0.76563 0.3125,0.21875 0.76563,0.21875 0.1875,0 0.35937,-0.0469 0.1875,-0.0625 0.4375,-0.21875 0.26563,-0.15625 0.65625,-0.4375 v -2.04687 q -0.34375,0.0937 -0.67187,0.21875 -0.32813,0.10937 -0.54688,0.1875 -0.57812,0.21875 -0.85937,0.46875 -0.28125,0.23437 -0.375,0.46875 -0.0781,0.21875 -0.0781,0.42187 z m 6.79963,-1.4375 q 0,1.29688 0.53125,1.92188 0.53125,0.60937 1.32812,0.60937 0.4375,0 0.76563,-0.17187 0.34375,-0.1875 0.71875,-0.59375 v -3.6875 q -0.45313,-0.40625 -0.8125,-0.54688 -0.35938,-0.15625 -0.6875,-0.15625 -0.5,0 -0.92188,0.28125 -0.40625,0.26563 -0.67187,0.85938 -0.25,0.57812 -0.25,1.48437 z m 3.48437,3.26563 -0.0937,-0.92188 q -0.34375,0.45313 -0.79687,0.70313 -0.45313,0.25 -1.07813,0.25 -0.8125,0 -1.42187,-0.40625 -0.60938,-0.42188 -0.95313,-1.15625 -0.34375,-0.73438 -0.34375,-1.71875 0,-1.01563 0.375,-1.78125 0.375,-0.76563 1.01563,-1.1875 0.64062,-0.42188 1.45312,-0.42188 0.46875,0 0.89063,0.1875 0.4375,0.1875 0.85937,0.67188 v -3.01563 l -1.14062,-0.125 v -0.46875 l 2.07812,-0.59375 0.1875,0.0937 -0.0469,1.90625 v 7.20313 l 1.07812,0.15625 v 0.48437 z m 6.36118,-5.98438 v -0.48437 h 2.60937 v 0.48437 l -0.71875,0.14063 -2.15625,5.65625 q -0.65625,1.78125 -1.28125,2.5625 -0.625,0.79687 -1.45312,0.79687 -0.48438,0 -0.85938,-0.25 -0.35937,-0.23437 -0.35937,-0.625 0.0625,-0.29687 0.32812,-0.4375 0.26563,-0.14062 0.5625,-0.14062 0.26563,0 0.48438,0.10937 0.23437,0.10938 0.5,0.39063 l 0.0781,0.0625 q 0.42188,-0.35938 0.70313,-0.875 0.29687,-0.5 0.48437,-1.04688 l 0.0625,-0.15625 -2.42187,-6.09375 -0.73438,-0.0937 v -0.48437 h 3.20313 v 0.48437 l -1.17188,0.14063 1.67188,4.54687 1.64062,-4.53125 z m 3.37085,1.76563 v -0.625 l 5.15625,-3 0.39062,0.71875 -4.625,2.59375 4.625,2.59375 -0.39062,0.71875 z m 8.43658,0.375 q 0,1.0625 0.1875,2 0.1875,0.92187 0.64063,1.875 0.45312,0.95312 1.23437,2.07812 l -0.34375,0.3125 q -1.42187,-1.32812 -2.10937,-2.875 -0.67188,-1.5625 -0.67188,-3.39062 0,-1.82813 0.67188,-3.39063 0.6875,-1.5625 2.10937,-2.875 l 0.34375,0.3125 q -0.78125,1.125 -1.23437,2.07813 -0.45313,0.95312 -0.64063,1.89062 -0.1875,0.92188 -0.1875,1.98438 z m 4.78384,0 q 0,-1.0625 -0.1875,-1.98438 -0.1875,-0.9375 -0.64062,-1.89062 -0.4375,-0.95313 -1.23438,-2.07813 l 0.35938,-0.3125 q 1.40625,1.3125 2.07812,2.875 0.6875,1.5625 0.6875,3.39063 0,1.82812 -0.6875,3.39062 -0.67187,1.54688 -2.07812,2.875 l -0.35938,-0.3125 q 0.79688,-1.125 1.23438,-2.07812 0.45312,-0.95313 0.64062,-1.875 0.1875,-0.9375 0.1875,-2 z m 8.4401,-1 v 0.625 l -5.15625,3 -0.39063,-0.71875 4.625,-2.59375 -4.625,-2.59375 0.39063,-0.71875 z"
       id="path25"
       inkscape:connector-curvature="0"
       style="fill:#202122;fill-rule:nonzero" />
    <path
       d="M 0,0 H 504 V 72.97638 H 0 Z"
       id="path27"
       inkscape:connector-curvature="0"
       style="fill:#000000;fill-opacity:0;fill-rule:evenodd" />
    <path
       d="m 322.04724,159.67192 h 124.15747 v 27.87401 H 322.04724 Z"
       id="path31"
       inkscape:connector-curvature="0"
       style="fill:#000000;fill-opacity:0;fill-rule:evenodd" />
    <path
       d="m 371.04663,182.35768 q -0.76563,0 -1.23438,-0.3125 -0.46875,-0.29688 -0.64062,-0.6875 0.0625,-0.51563 0.4375,-0.79688 0.35937,-0.28125 0.79687,-0.28125 0.8125,0 1.32813,0.85938 l 0.1875,0.28125 q 0.0781,-0.15625 0.125,-0.34375 0.0937,-0.35938 0.0937,-0.90625 0.0156,-0.54688 -0.0156,-1.20313 -0.0156,-0.65625 -0.0156,-1.3125 v -2.54687 q 0,-0.59375 -0.0156,-1 0,-0.40625 -0.0312,-0.84375 l -0.89062,-0.14063 v -0.5625 l 3.04687,-0.98437 0.25,0.15625 -0.0469,2.125 v 4.23437 q 0,0.89063 -0.0937,1.48438 -0.0781,0.60937 -0.28125,1.01562 -0.20313,0.42188 -0.57813,0.78125 -0.5625,0.57813 -1.21875,0.78125 -0.64062,0.20313 -1.20312,0.20313 z m 2.20312,-11.85938 q -0.51562,0 -0.89062,-0.32812 -0.35938,-0.34375 -0.35938,-0.84375 0,-0.5 0.35938,-0.82813 0.375,-0.34375 0.89062,-0.34375 0.51563,0 0.875,0.34375 0.375,0.32813 0.375,0.82813 0,0.5 -0.375,0.84375 -0.35937,0.32812 -0.875,0.32812 z m 6.29636,8.60938 q -1.14062,0 -1.98437,-0.46875 -0.82813,-0.48438 -1.28125,-1.34375 -0.45313,-0.85938 -0.45313,-1.98438 0,-1.125 0.48438,-1.95312 0.5,-0.84375 1.34375,-1.3125 0.85937,-0.46875 1.89062,-0.46875 1.04688,0 1.89063,0.45312 0.84375,0.45313 1.34375,1.29688 0.5,0.84375 0.5,1.98437 0,1.14063 -0.45313,2 -0.45312,0.84375 -1.29687,1.32813 -0.82813,0.46875 -1.98438,0.46875 z m 0,-0.76563 q 0.625,0 0.92188,-0.71875 0.3125,-0.71875 0.3125,-2.26562 0,-1.5625 -0.3125,-2.28125 -0.29688,-0.71875 -0.92188,-0.71875 -0.625,0 -0.9375,0.71875 -0.29687,0.71875 -0.29687,2.28125 0,1.54687 0.29687,2.26562 0.3125,0.71875 0.9375,0.71875 z m 4.57767,0.54688 v -0.6875 l 0.79687,-0.17188 q 0.0156,-0.53125 0.0156,-1.14062 0,-0.625 0,-1.07813 v -0.70312 q 0,-0.59375 -0.0156,-1 0,-0.40625 -0.0312,-0.84375 l -0.90625,-0.14063 v -0.5625 l 3.07813,-0.98437 0.25,0.15625 -0.0469,2.125 v 1.95312 q 0,0.45313 0,1.07813 0,0.625 0.0156,1.17187 l 0.73437,0.14063 v 0.6875 z m 1.95312,-8.39063 q -0.51562,0 -0.89062,-0.32812 -0.35938,-0.34375 -0.35938,-0.84375 0,-0.5 0.35938,-0.82813 0.375,-0.34375 0.89062,-0.34375 0.51563,0 0.875,0.34375 0.375,0.32813 0.375,0.82813 0,0.5 -0.375,0.84375 -0.35937,0.32812 -0.875,0.32812 z m 2.64704,8.39063 v -0.6875 l 0.79687,-0.17188 q 0.0156,-0.53125 0.0156,-1.14062 0,-0.625 0,-1.07813 v -0.84375 q 0,-0.60937 -0.0156,-0.9375 0,-0.32812 -0.0312,-0.76562 l -0.89062,-0.14063 v -0.5625 l 2.89062,-0.98437 0.25,0.15625 0.0937,1.0625 q 0.57813,-0.67188 1.14063,-0.9375 0.5625,-0.28125 1.20312,-0.28125 0.95313,0 1.53125,0.64062 0.57813,0.625 0.57813,1.875 v 1.71875 q 0,0.48438 0,1.09375 0,0.60938 0.0156,1.15625 l 0.73438,0.14063 v 0.6875 h -3.875 v -0.6875 l 0.76562,-0.15625 q 0.0156,-0.54688 0.0156,-1.15625 0,-0.60938 0,-1.07813 v -1.53125 q 0,-0.70312 -0.1875,-0.98437 -0.1875,-0.29688 -0.60938,-0.29688 -0.57812,0 -1.26562,0.53125 v 2.28125 q 0,0.45313 0,1.07813 0,0.625 0.0156,1.17187 l 0.6875,0.14063 v 0.6875 z"
       id="path33"
       inkscape:connector-curvature="0"
       style="fill:#202122;fill-rule:nonzero" />
    <path
       d="M 431.58005,209.77165 H 541.4068 v 23.93701 H 431.58005 Z"
       id="path35"
       inkscape:connector-curvature="0"
       style="fill:#000000;fill-opacity:0;fill-rule:evenodd" />
    <path
       d="m 442.06442,218.64516 v -0.75 h 3.17187 v 0.78125 l -1.09375,0.1875 -3.01562,8.6875 h -1.42188 l -3.15625,-8.78125 -0.84375,-0.0937 v -0.78125 h 4.71875 v 0.75 l -1.25,0.15625 2,6.03125 2.03125,-6 z m 2.61142,8.875 v -0.6875 l 0.8125,-0.15625 q 0.0156,-0.54688 0.0156,-1.15625 0,-0.625 0,-1.07813 v -0.85937 q 0,-0.42188 -0.0156,-0.67188 0,-0.26562 -0.0156,-0.48437 0,-0.23438 -0.0156,-0.53125 l -0.89063,-0.14063 v -0.5625 l 2.89063,-0.98437 0.25,0.15625 0.14062,1.73437 q 0.3125,-0.9375 0.85938,-1.40625 0.5625,-0.48437 1.10937,-0.48437 0.48438,0 0.82813,0.28125 0.35937,0.26562 0.4375,0.79687 -0.0156,0.57813 -0.3125,0.89063 -0.28125,0.3125 -0.71875,0.3125 -0.625,0 -1.14063,-0.6875 l -0.0781,-0.10938 q -0.32813,0.29688 -0.60938,0.76563 -0.26562,0.46875 -0.375,0.98437 v 1 q 0,0.45313 0,1.04688 0,0.57812 0.0156,1.09375 l 1.15625,0.25 v 0.6875 z m 6.98706,-4.1875 v -1.10938 l 6.125,-3.15625 0.625,1.25 -5.03125,2.45313 5.03125,2.46875 -0.625,1.25 z m 10.22302,0.10937 q 0,1.14063 0.23438,2.10938 0.23437,0.96875 0.73437,1.89062 0.51563,0.92188 1.32813,1.9375 l -0.6875,0.60938 q -1.64063,-1.29688 -2.5,-2.9375 -0.85938,-1.64063 -0.85938,-3.60938 0,-1.95312 0.85938,-3.59375 0.85937,-1.65625 2.5,-2.9375 l 0.6875,0.59375 q -0.8125,1.01563 -1.32813,1.9375 -0.5,0.92188 -0.73437,1.89063 -0.23438,0.96875 -0.23438,2.10937 z m 7.15042,-4.70312 h -0.32812 q -0.0156,0.90625 -0.0312,1.82812 0,0.92188 0,1.875 v 0.57813 h 0.42187 q 0.96875,0 1.45313,-0.625 0.48437,-0.625 0.48437,-1.60938 0,-1.01562 -0.53125,-1.53125 -0.51562,-0.51562 -1.46875,-0.51562 z m -3.95312,-0.0625 v -0.78125 h 3.98437 q 1.53125,0 2.46875,0.35937 0.9375,0.35938 1.35938,1.01563 0.4375,0.64062 0.4375,1.51562 0,0.84375 -0.40625,1.54688 -0.40625,0.6875 -1.32813,1.10937 -0.92187,0.40625 -2.51562,0.40625 h -0.40625 q 0,0.625 0,1.32813 0.0156,0.6875 0.0312,1.42187 l 1.29687,0.125 v 0.79688 h -4.92187 v -0.79688 l 1.09375,-0.10937 q 0.0312,-0.89063 0.0312,-1.79688 0,-0.92187 0,-1.84375 v -0.53125 q 0,-0.92187 0,-1.82812 0,-0.92188 -0.0312,-1.8125 z m 10.19498,8.01562 q 0,1 -0.46875,1.78125 -0.45313,0.78125 -1.15625,1.28125 -0.6875,0.5 -1.39063,0.71875 l -0.20312,-0.60937 q 0.73437,-0.375 1.20312,-0.89063 0.48438,-0.51562 0.75,-1.09375 l -0.51562,-0.26562 q -0.45313,-0.25 -0.64063,-0.57813 -0.1875,-0.34375 -0.1875,-0.65625 0,-0.54687 0.35938,-0.90625 0.375,-0.375 0.9375,-0.375 0.3125,0 0.5625,0.0937 0.26562,0.0781 0.53125,0.3125 0.14062,0.34375 0.17187,0.60938 0.0469,0.25 0.0469,0.57812 z m 8.48648,-7.95312 h -0.32813 q -0.0156,0.90625 -0.0312,1.82812 0,0.92188 0,1.875 v 0.57813 h 0.42188 q 0.96875,0 1.45312,-0.625 0.48438,-0.625 0.48438,-1.60938 0,-1.01562 -0.53125,-1.53125 -0.51563,-0.51562 -1.46875,-0.51562 z m -3.95313,-0.0625 v -0.78125 h 3.98438 q 1.53125,0 2.46875,0.35937 0.9375,0.35938 1.35937,1.01563 0.4375,0.64062 0.4375,1.51562 0,0.84375 -0.40625,1.54688 -0.40625,0.6875 -1.32812,1.10937 -0.92188,0.40625 -2.51563,0.40625 h -0.40625 q 0,0.625 0,1.32813 0.0156,0.6875 0.0312,1.42187 l 1.29688,0.125 v 0.79688 h -4.92188 v -0.79688 l 1.09375,-0.10937 q 0.0312,-0.89063 0.0312,-1.79688 0,-0.92187 0,-1.84375 v -0.53125 q 0,-0.92187 0,-1.82812 0,-0.92188 -0.0312,-1.8125 z m 10.96936,4.76562 q 0,-1.14062 -0.23437,-2.10937 -0.23438,-0.96875 -0.75,-1.89063 -0.5,-0.92187 -1.32813,-1.9375 l 0.6875,-0.59375 q 1.64063,1.28125 2.5,2.9375 0.85938,1.64063 0.85938,3.59375 0,1.96875 -0.85938,3.60938 -0.85937,1.64062 -2.5,2.9375 l -0.6875,-0.60938 q 0.82813,-1.01562 1.32813,-1.9375 0.51562,-0.92187 0.75,-1.89062 0.23437,-0.96875 0.23437,-2.10938 z m 10.22855,-1.21875 v 1.10938 l -6.125,3.15625 -0.64063,-1.25 5.03125,-2.46875 -5.03125,-2.45313 0.64063,-1.25 z"
       id="path37"
       inkscape:connector-curvature="0"
       style="fill:#202122;fill-rule:nonzero" />
    <path
       d="m 264.3084,156.56905 h 70.70865 v 23.937 H 264.3084 Z"
       id="path39"
       inkscape:connector-curvature="0"
       style="fill:#000000;fill-opacity:0;fill-rule:evenodd" />
    <path
       d="m 269.98932,174.31755 v -0.6875 l 0.79688,-0.17188 q 0.0156,-0.53125 0.0156,-1.14062 0,-0.625 0,-1.07813 v -0.70312 q 0,-0.59375 -0.0156,-1 0,-0.40625 -0.0312,-0.84375 l -0.90625,-0.14063 v -0.5625 l 3.07812,-0.98437 0.25,0.15625 -0.0469,2.125 v 1.95312 q 0,0.45313 0,1.07813 0,0.625 0.0156,1.17187 l 0.73438,0.14063 v 0.6875 z m 1.95313,-8.39063 q -0.51563,0 -0.89063,-0.32812 -0.35937,-0.34375 -0.35937,-0.84375 0,-0.5 0.35937,-0.82813 0.375,-0.34375 0.89063,-0.34375 0.51562,0 0.875,0.34375 0.375,0.32813 0.375,0.82813 0,0.5 -0.375,0.84375 -0.35938,0.32812 -0.875,0.32812 z m 3.67825,-0.20312 3.64062,-0.79688 0.21875,0.14063 -0.0625,2.07812 v 4.125 q 0,0.48438 0,0.96875 0,0.48438 0.0156,0.98438 l 1.70312,0.40625 v 0.6875 h -5.89062 v -0.6875 l 1.79687,-0.40625 q 0.0156,-0.48438 0.0156,-0.96875 0,-0.5 0,-0.98438 v -4.82812 l -1.4375,0.14062 z m 8.70935,3.84375 q -0.5625,0 -0.95313,-0.375 -0.375,-0.39063 -0.375,-0.92188 0,-0.54687 0.375,-0.9375 0.39063,-0.40625 0.95313,-0.40625 0.54687,0 0.92187,0.40625 0.39063,0.39063 0.39063,0.9375 0,0.53125 -0.39063,0.92188 -0.375,0.375 -0.92187,0.375 z m 0,4.96875 q -0.5625,0 -0.95313,-0.375 -0.375,-0.39063 -0.375,-0.92188 0,-0.54687 0.375,-0.9375 0.39063,-0.40625 0.95313,-0.40625 0.54687,0 0.92187,0.40625 0.39063,0.39063 0.39063,0.9375 0,0.53125 -0.39063,0.92188 -0.375,0.375 -0.92187,0.375 z m 11.47726,-9.09375 v -0.75 h 3.17188 v 0.78125 l -1.09375,0.1875 -3.01563,8.6875 h -1.42187 l -3.15625,-8.78125 -0.84375,-0.0937 v -0.78125 h 4.71875 v 0.75 l -1.25,0.15625 2,6.03125 2.03125,-6 z m 2.61139,8.875 v -0.6875 l 0.8125,-0.15625 q 0.0156,-0.54688 0.0156,-1.15625 0,-0.625 0,-1.07813 v -0.85937 q 0,-0.42188 -0.0156,-0.67188 0,-0.26562 -0.0156,-0.48437 0,-0.23438 -0.0156,-0.53125 l -0.89062,-0.14063 v -0.5625 l 2.89062,-0.98437 0.25,0.15625 0.14063,1.73437 q 0.3125,-0.9375 0.85937,-1.40625 0.5625,-0.48437 1.10938,-0.48437 0.48437,0 0.82812,0.28125 0.35938,0.26562 0.4375,0.79687 -0.0156,0.57813 -0.3125,0.89063 -0.28125,0.3125 -0.71875,0.3125 -0.625,0 -1.14062,-0.6875 l -0.0781,-0.10938 q -0.32812,0.29688 -0.60937,0.76563 -0.26563,0.46875 -0.375,0.98437 v 1 q 0,0.45313 0,1.04688 0,0.57812 0.0156,1.09375 l 1.15625,0.25 v 0.6875 z m 6.98706,-4.1875 v -1.10938 l 6.125,-3.15625 0.625,1.25 -5.03125,2.45313 5.03125,2.46875 -0.625,1.25 z m 11.84806,-4.59375 h -0.32813 q -0.0156,0.90625 -0.0312,1.82812 0,0.92188 0,1.875 v 0.57813 h 0.42188 q 0.96875,0 1.45312,-0.625 0.48438,-0.625 0.48438,-1.60938 0,-1.01562 -0.53125,-1.53125 -0.51563,-0.51562 -1.46875,-0.51562 z m -3.95313,-0.0625 v -0.78125 h 3.98438 q 1.53125,0 2.46875,0.35937 0.9375,0.35938 1.35937,1.01563 0.4375,0.64062 0.4375,1.51562 0,0.84375 -0.40625,1.54688 -0.40625,0.6875 -1.32812,1.10937 -0.92188,0.40625 -2.51563,0.40625 h -0.40625 q 0,0.625 0,1.32813 0.0156,0.6875 0.0312,1.42187 l 1.29688,0.125 v 0.79688 h -4.92188 v -0.79688 l 1.09375,-0.10937 q 0.0312,-0.89063 0.0312,-1.79688 0,-0.92187 0,-1.84375 v -0.53125 q 0,-0.92187 0,-1.82812 0,-0.92188 -0.0312,-1.8125 z m 15.92181,3.54687 v 1.10938 l -6.125,3.15625 -0.64062,-1.25 5.03125,-2.46875 -5.03125,-2.45313 0.64062,-1.25 z"
       id="path41"
       inkscape:connector-curvature="0"
       style="fill:#202122;fill-rule:nonzero" />
    <path
       d="m 344.69028,346.88715 78.86615,-21.94214 V 206.49857 l -78.86615,-21.94214 z"
       id="path43"
       inkscape:connector-curvature="0"
       style="fill:#d9d9d9;fill-rule:evenodd" />
    <path
       d="m 344.69028,346.88715 78.86615,-21.94214 V 206.49857 l -78.86615,-21.94214 z"
       id="path45"
       inkscape:connector-curvature="0"
       style="fill-rule:evenodd;stroke:#595959;stroke-width:1;stroke-linecap:butt;stroke-linejoin:round" />
    <path
       d="m 264.3084,254.68452 h 70.70865 v 23.937 H 264.3084 Z"
       id="path47"
       inkscape:connector-curvature="0"
       style="fill:#000000;fill-opacity:0;fill-rule:evenodd" />
    <path
       d="m 269.98932,272.43304 v -0.6875 l 0.79688,-0.17188 q 0.0156,-0.53125 0.0156,-1.14062 0,-0.625 0,-1.07813 v -0.70312 q 0,-0.59375 -0.0156,-1 0,-0.40625 -0.0312,-0.84375 l -0.90625,-0.14063 v -0.5625 l 3.07812,-0.98437 0.25,0.15625 -0.0469,2.125 v 1.95312 q 0,0.45313 0,1.07813 0,0.625 0.0156,1.17187 l 0.73438,0.14063 v 0.6875 z m 1.95313,-8.39063 q -0.51563,0 -0.89063,-0.32812 -0.35937,-0.34375 -0.35937,-0.84375 0,-0.5 0.35937,-0.82813 0.375,-0.34375 0.89063,-0.34375 0.51562,0 0.875,0.34375 0.375,0.32813 0.375,0.82813 0,0.5 -0.375,0.84375 -0.35938,0.32812 -0.875,0.32812 z m 2.99075,8.39063 v -1.29688 q 0.51562,-0.5 1,-0.98437 0.5,-0.48438 0.9375,-0.9375 0.70312,-0.70313 1.15625,-1.28125 0.46875,-0.59375 0.70312,-1.17188 0.23438,-0.59375 0.23438,-1.25 0,-0.84375 -0.40625,-1.3125 -0.39063,-0.46875 -1.07813,-0.46875 -0.0937,0 -0.1875,0 -0.0937,0 -0.1875,0.0156 l -0.1875,1.03125 q -0.10937,0.76562 -0.4375,1.01562 -0.3125,0.23438 -0.64062,0.23438 -0.3125,0 -0.57813,-0.15625 -0.25,-0.17188 -0.375,-0.4375 0.0156,-0.8125 0.48438,-1.35938 0.46875,-0.54687 1.23437,-0.82812 0.76563,-0.28125 1.67188,-0.28125 1.07812,0 1.73437,0.34375 0.67188,0.32812 0.98438,0.90625 0.32812,0.5625 0.32812,1.28125 0,0.70312 -0.375,1.375 -0.35937,0.65625 -1.14062,1.34375 -0.76563,0.6875 -1.98438,1.51562 -0.29687,0.21875 -0.625,0.4375 -0.3125,0.21875 -0.64062,0.46875 h 4.95312 v 1.79688 z m 9.39685,-4.75 q -0.5625,0 -0.95313,-0.375 -0.375,-0.39063 -0.375,-0.92188 0,-0.54687 0.375,-0.9375 0.39063,-0.40625 0.95313,-0.40625 0.54687,0 0.92187,0.40625 0.39063,0.39063 0.39063,0.9375 0,0.53125 -0.39063,0.92188 -0.375,0.375 -0.92187,0.375 z m 0,4.96875 q -0.5625,0 -0.95313,-0.375 -0.375,-0.39063 -0.375,-0.92188 0,-0.54687 0.375,-0.9375 0.39063,-0.40625 0.95313,-0.40625 0.54687,0 0.92187,0.40625 0.39063,0.39063 0.39063,0.9375 0,0.53125 -0.39063,0.92188 -0.375,0.375 -0.92187,0.375 z m 11.47726,-9.09375 v -0.75 h 3.17188 v 0.78125 l -1.09375,0.1875 -3.01563,8.6875 h -1.42187 l -3.15625,-8.78125 -0.84375,-0.0937 v -0.78125 h 4.71875 v 0.75 l -1.25,0.15625 2,6.03125 2.03125,-6 z m 2.61139,8.875 v -0.6875 l 0.8125,-0.15625 q 0.0156,-0.54688 0.0156,-1.15625 0,-0.625 0,-1.07813 v -0.85937 q 0,-0.42188 -0.0156,-0.67188 0,-0.26562 -0.0156,-0.48437 0,-0.23438 -0.0156,-0.53125 l -0.89062,-0.14063 v -0.5625 l 2.89062,-0.98437 0.25,0.15625 0.14063,1.73437 q 0.3125,-0.9375 0.85937,-1.40625 0.5625,-0.48437 1.10938,-0.48437 0.48437,0 0.82812,0.28125 0.35938,0.26562 0.4375,0.79687 -0.0156,0.57813 -0.3125,0.89063 -0.28125,0.3125 -0.71875,0.3125 -0.625,0 -1.14062,-0.6875 l -0.0781,-0.10938 q -0.32812,0.29688 -0.60937,0.76563 -0.26563,0.46875 -0.375,0.98437 v 1 q 0,0.45313 0,1.04688 0,0.57812 0.0156,1.09375 l 1.15625,0.25 v 0.6875 z m 6.98706,-4.1875 v -1.10938 l 6.125,-3.15625 0.625,1.25 -5.03125,2.45313 5.03125,2.46875 -0.625,1.25 z m 11.84806,-4.59375 h -0.32813 q -0.0156,0.90625 -0.0312,1.82812 0,0.92188 0,1.875 v 0.57813 h 0.42188 q 0.96875,0 1.45312,-0.625 0.48438,-0.625 0.48438,-1.60938 0,-1.01562 -0.53125,-1.53125 -0.51563,-0.51562 -1.46875,-0.51562 z m -3.95313,-0.0625 v -0.78125 h 3.98438 q 1.53125,0 2.46875,0.35937 0.9375,0.35938 1.35937,1.01563 0.4375,0.64062 0.4375,1.51562 0,0.84375 -0.40625,1.54688 -0.40625,0.6875 -1.32812,1.10937 -0.92188,0.40625 -2.51563,0.40625 h -0.40625 q 0,0.625 0,1.32813 0.0156,0.6875 0.0312,1.42187 l 1.29688,0.125 v 0.79688 h -4.92188 v -0.79688 l 1.09375,-0.10937 q 0.0312,-0.89063 0.0312,-1.79688 0,-0.92187 0,-1.84375 v -0.53125 q 0,-0.92187 0,-1.82812 0,-0.92188 -0.0312,-1.8125 z m 15.92181,3.54687 v 1.10938 l -6.125,3.15625 -0.64062,-1.25 5.03125,-2.46875 -5.03125,-2.45313 0.64062,-1.25 z"
       id="path49"
       inkscape:connector-curvature="0"
       style="fill:#202122;fill-rule:nonzero" />
    <path
       d="m 423.55905,238.04724 h 90.07877 v 14.86615 h -90.07877 z"
       id="path51"
       inkscape:connector-curvature="0"
       style="fill:#000000;fill-opacity:0;fill-rule:evenodd" />
    <path
       d="m 432.2778,249.9165 q -0.78125,0 -1.51562,-0.29687 -0.71875,-0.3125 -1.3125,-0.89063 -0.57813,-0.59375 -0.92188,-1.45312 -0.34375,-0.875 -0.34375,-2.03125 0,-1.09375 0.34375,-1.95313 0.34375,-0.875 0.92188,-1.46875 0.59375,-0.59375 1.3125,-0.90625 0.73437,-0.3125 1.51562,-0.3125 0.76563,0 1.48438,0.29688 0.73437,0.29687 1.3125,0.89062 0.59375,0.57813 0.9375,1.45313 0.34375,0.85937 0.34375,2 0,1.09375 -0.34375,1.96875 -0.34375,0.85937 -0.92188,1.46875 -0.57812,0.60937 -1.3125,0.92187 -0.73437,0.3125 -1.5,0.3125 z m 0,-0.67187 q 0.6875,0 1.1875,-0.32813 0.5,-0.34375 0.8125,-0.90625 0.3125,-0.57812 0.45313,-1.28125 0.15625,-0.71875 0.15625,-1.48437 0,-0.75 -0.15625,-1.45313 -0.14063,-0.71875 -0.45313,-1.28125 -0.3125,-0.57812 -0.8125,-0.90625 -0.5,-0.34375 -1.1875,-0.34375 -0.6875,0 -1.1875,0.34375 -0.5,0.32813 -0.82812,0.90625 -0.3125,0.5625 -0.46875,1.28125 -0.15625,0.70313 -0.15625,1.45313 0,0.76562 0.15625,1.48437 0.15625,0.70313 0.46875,1.28125 0.32812,0.5625 0.82812,0.90625 0.5,0.32813 1.1875,0.32813 z m 5.17294,3.65625 v -0.46875 l 1.0625,-0.1875 q 0.0156,-0.54688 0.0156,-1.09375 0.0156,-0.53125 0.0156,-1.0625 v -3.8125 q 0,-0.54688 -0.0156,-0.90625 0,-0.35938 -0.0312,-0.76563 l -1.04688,-0.10937 v -0.46875 l 1.85938,-0.8125 0.20312,0.125 0.0781,0.875 q 0.95312,-1 2.01562,-1 0.71875,0 1.28125,0.40625 0.57813,0.39062 0.92188,1.14062 0.34375,0.73438 0.34375,1.76563 0,1.03125 -0.35938,1.78125 -0.35937,0.75 -0.98437,1.17187 -0.60938,0.40625 -1.40625,0.40625 -0.45313,0 -0.90625,-0.1875 -0.4375,-0.1875 -0.85938,-0.67187 v 1.04687 q 0,0.53125 0,1.0625 0.0156,0.54688 0.0156,1.09375 l 1.21875,0.20313 v 0.46875 z m 3.84375,-8.9375 q -0.3125,0 -0.71875,0.15625 -0.39062,0.15625 -0.90625,0.57812 v 3.75 q 0.375,0.35938 0.73438,0.51563 0.35937,0.15625 0.73437,0.15625 0.75,0 1.28125,-0.59375 0.53125,-0.59375 0.53125,-1.89063 0,-1.28125 -0.46875,-1.96875 -0.46875,-0.70312 -1.1875,-0.70312 z m 6.05881,5.92187 q -0.6875,0 -1.10937,-0.375 -0.40625,-0.375 -0.40625,-1.14062 0,-0.25 0,-0.5 0,-0.25 0,-0.64063 v -3.14062 h -1.09375 v -0.57813 l 1.1875,-0.15625 0.34375,-1.78125 h 0.79687 l -0.0781,1.8125 h 1.79687 v 0.70313 h -1.8125 v 4.125 q 0,0.51562 0.20313,0.75 0.20312,0.23437 0.53125,0.23437 0.21875,0 0.42187,-0.0937 0.21875,-0.0937 0.46875,-0.26562 l 0.32813,0.34375 q -0.54688,0.70312 -1.57813,0.70312 z m 2.36288,-4.25 v -0.625 l 5.15625,-3 0.39063,0.71875 -4.625,2.59375 4.625,2.59375 -0.39063,0.71875 z m 8.43659,0.375 q 0,1.0625 0.1875,2 0.1875,0.92188 0.64062,1.875 0.45313,0.95313 1.23438,2.07813 l -0.34375,0.3125 q -1.42188,-1.32813 -2.10938,-2.875 -0.67187,-1.5625 -0.67187,-3.39063 0,-1.82812 0.67187,-3.39062 0.6875,-1.5625 2.10938,-2.875 l 0.34375,0.3125 q -0.78125,1.125 -1.23438,2.07812 -0.45312,0.95313 -0.64062,1.89063 -0.1875,0.92187 -0.1875,1.98437 z m 6.33072,-4.59375 h -0.8125 q 0,0.84375 -0.0156,1.73438 0,0.89062 0,1.78125 v 0.64062 h 0.875 q 1.21875,0 1.73438,-0.59375 0.51562,-0.59375 0.51562,-1.53125 0,-0.96875 -0.5625,-1.5 -0.54687,-0.53125 -1.73437,-0.53125 z m -3.34375,-0.0781 v -0.54688 h 3.57812 q 1.6875,0 2.53125,0.75 0.85938,0.73438 0.85938,1.90625 0,0.75 -0.375,1.375 -0.375,0.625 -1.20313,1 -0.8125,0.375 -2.1875,0.375 h -0.6875 q 0,0.71875 0,1.42188 0.0156,0.6875 0.0156,1.40625 l 1.25,0.14062 v 0.54688 h -3.78125 v -0.54688 l 1.21875,-0.14062 q 0.0312,-0.84375 0.0312,-1.70313 0,-0.875 0,-1.73437 v -0.65625 q 0,-0.875 0,-1.73438 0,-0.85937 -0.0312,-1.70312 z m 8.75357,7.98437 q 0,0.79688 -0.39063,1.46875 -0.375,0.6875 -0.96875,1.17188 -0.57812,0.5 -1.21875,0.73437 l -0.1875,-0.45312 q 0.6875,-0.34375 1.20313,-0.84375 0.51562,-0.48438 0.76562,-1.23438 l -0.5,-0.39062 q -0.26562,-0.20313 -0.39062,-0.45313 -0.10938,-0.25 -0.10938,-0.5 0,-0.34375 0.20313,-0.59375 0.20312,-0.25 0.60937,-0.25 0.1875,0 0.375,0.0781 0.20313,0.0781 0.45313,0.3125 0.0781,0.25 0.10937,0.48437 0.0469,0.23438 0.0469,0.46875 z m 8.1976,-7.90625 h -0.8125 q 0,0.84375 -0.0156,1.73438 0,0.89062 0,1.78125 v 0.64062 h 0.875 q 1.21875,0 1.73438,-0.59375 0.51562,-0.59375 0.51562,-1.53125 0,-0.96875 -0.5625,-1.5 -0.54687,-0.53125 -1.73437,-0.53125 z m -3.34375,-0.0781 v -0.54688 h 3.57812 q 1.6875,0 2.53125,0.75 0.85938,0.73438 0.85938,1.90625 0,0.75 -0.375,1.375 -0.375,0.625 -1.20313,1 -0.8125,0.375 -2.1875,0.375 h -0.6875 q 0,0.71875 0,1.42188 0.0156,0.6875 0.0156,1.40625 l 1.25,0.14062 v 0.54688 h -3.78125 v -0.54688 l 1.21875,-0.14062 q 0.0312,-0.84375 0.0312,-1.70313 0,-0.875 0,-1.73437 v -0.65625 q 0,-0.875 0,-1.73438 0,-0.85937 -0.0312,-1.70312 z m 9.51379,4.67187 q 0,-1.0625 -0.1875,-1.98437 -0.1875,-0.9375 -0.64062,-1.89063 -0.4375,-0.95312 -1.23438,-2.07812 l 0.35938,-0.3125 q 1.40625,1.3125 2.07812,2.875 0.6875,1.5625 0.6875,3.39062 0,1.82813 -0.6875,3.39063 -0.67187,1.54687 -2.07812,2.875 l -0.35938,-0.3125 q 0.79688,-1.125 1.23438,-2.07813 0.45312,-0.95312 0.64062,-1.875 0.1875,-0.9375 0.1875,-2 z m 8.4401,-1 v 0.625 l -5.15625,3 -0.39063,-0.71875 4.625,-2.59375 -4.625,-2.59375 0.39063,-0.71875 z"
       id="path53"
       inkscape:connector-curvature="0"
       style="fill:#202122;fill-rule:nonzero" />
    <path
       d="m 423.54788,257.6038 h 90.07877"
       id="path55"
       inkscape:connector-curvature="0"
       style="fill:#000000;fill-opacity:0;fill-rule:evenodd" />
    <path
       d="m 423.5479,257.6038 h 78.07874"
       id="path57"
       inkscape:connector-curvature="0"
       style="fill-rule:evenodd;stroke:#595959;stroke-width:2;stroke-linecap:butt;stroke-linejoin:round" />
    <path
       d="m 501.62665,260.90726 9.0762,-3.30347 -9.0762,-3.30348 z"
       id="path59"
       inkscape:connector-curvature="0"
       style="fill:#595959;fill-rule:evenodd;stroke:#595959;stroke-width:2;stroke-linecap:butt" />
    <path
       d="m 423.54788,251.65298 h 32.42834 v 11.90161 h -32.42834 z"
       id="path61"
       inkscape:connector-curvature="0"
       style="fill:#000000;fill-opacity:0;fill-rule:evenodd" />
    <path
       d="m 481.16168,251.65298 h 32.42834 v 11.90161 h -32.42834 z"
       id="path63"
       inkscape:connector-curvature="0"
       style="fill:#000000;fill-opacity:0;fill-rule:evenodd" />
    <path
       d="M 513.62537,287.44916 H 423.54663"
       id="path65"
       inkscape:connector-curvature="0"
       style="fill:#000000;fill-opacity:0;fill-rule:evenodd" />
    <path
       d="M 513.62537,287.44916 H 435.54663"
       id="path67"
       inkscape:connector-curvature="0"
       style="fill-rule:evenodd;stroke:#1c4587;stroke-width:2;stroke-linecap:butt;stroke-linejoin:round" />
    <path
       d="m 435.54663,284.1457 -9.0762,3.30347 9.0762,3.30346 z"
       id="path69"
       inkscape:connector-curvature="0"
       style="fill:#1c4587;fill-rule:evenodd;stroke:#1c4587;stroke-width:2;stroke-linecap:butt" />
    <path
       d="m 423.58508,281.49835 h 32.42834 v 11.90158 h -32.42834 z"
       id="path71"
       inkscape:connector-curvature="0"
       style="fill:#000000;fill-opacity:0;fill-rule:evenodd" />
    <path
       d="m 481.19827,281.49835 h 32.42837 v 11.90158 h -32.42837 z"
       id="path73"
       inkscape:connector-curvature="0"
       style="fill:#000000;fill-opacity:0;fill-rule:evenodd" />
    <path
       d="m 254.59537,208.54218 h 90.07245"
       id="path75"
       inkscape:connector-curvature="0"
       style="fill:#000000;fill-opacity:0;fill-rule:evenodd" />
    <path
       d="m 254.59537,208.54218 h 78.07245"
       id="path77"
       inkscape:connector-curvature="0"
       style="fill-rule:evenodd;stroke:#595959;stroke-width:2;stroke-linecap:butt;stroke-linejoin:round" />
    <path
       d="m 332.66782,211.84564 9.0762,-3.30347 -9.0762,-3.30346 z"
       id="path79"
       inkscape:connector-curvature="0"
       style="fill:#595959;fill-rule:evenodd;stroke:#595959;stroke-width:2;stroke-linecap:butt" />
    <path
       d="m 254.59537,202.59137 h 32.42609 v 11.9016 h -32.42609 z"
       id="path81"
       inkscape:connector-curvature="0"
       style="fill:#000000;fill-opacity:0;fill-rule:evenodd" />
    <path
       d="m 312.2051,202.59137 h 32.42609 v 11.9016 H 312.2051 Z"
       id="path83"
       inkscape:connector-curvature="0"
       style="fill:#000000;fill-opacity:0;fill-rule:evenodd" />
    <path
       d="M 344.66656,238.38766 H 254.59411"
       id="path85"
       inkscape:connector-curvature="0"
       style="fill:#000000;fill-opacity:0;fill-rule:evenodd" />
    <path
       d="M 344.66653,238.38765 H 266.59411"
       id="path87"
       inkscape:connector-curvature="0"
       style="fill-rule:evenodd;stroke:#1c4587;stroke-width:2;stroke-linecap:butt;stroke-linejoin:round" />
    <path
       d="m 266.59412,235.08418 -9.0762,3.30347 9.0762,3.30346 z"
       id="path89"
       inkscape:connector-curvature="0"
       style="fill:#1c4587;fill-rule:evenodd;stroke:#1c4587;stroke-width:2;stroke-linecap:butt" />
    <path
       d="m 254.63257,232.43686 h 32.42609 v 11.9016 h -32.42609 z"
       id="path91"
       inkscape:connector-curvature="0"
       style="fill:#000000;fill-opacity:0;fill-rule:evenodd" />
    <path
       d="m 312.24173,232.43686 h 32.42609 v 11.9016 h -32.42609 z"
       id="path93"
       inkscape:connector-curvature="0"
       style="fill:#000000;fill-opacity:0;fill-rule:evenodd" />
    <path
       d="m 423.55905,266.86615 h 70.70868 v 14.86612 h -70.70868 z"
       id="path95"
       inkscape:connector-curvature="0"
       style="fill:#000000;fill-opacity:0;fill-rule:evenodd" />
    <path
       d="m 431.8403,270.2354 h -1.15625 q 0,0.875 -0.0156,1.75 0,0.875 0,1.8125 h 1.01562 q 1.09375,0 1.59375,-0.51562 0.51563,-0.51563 0.51563,-1.32813 0,-0.82812 -0.46875,-1.26562 -0.46875,-0.45313 -1.48438,-0.45313 z m -3.6875,-0.0781 v -0.54688 h 3.71875 q 1.53125,0 2.39063,0.625 0.85937,0.60938 0.85937,1.71875 0,0.76563 -0.5625,1.40625 -0.5625,0.64063 -1.6875,0.84375 0.59375,0.10938 0.96875,0.51563 0.375,0.39062 0.60938,1.17187 l 0.57812,1.96875 1.01563,0.125 v 0.54688 q -0.1875,0.0469 -0.4375,0.0937 -0.25,0.0469 -0.5625,0.0469 -0.625,0 -0.9375,-0.1875 -0.3125,-0.1875 -0.42188,-0.67187 l -0.54687,-2.14063 q -0.10938,-0.54687 -0.34375,-0.8125 -0.21875,-0.26562 -0.57813,-0.35937 -0.34375,-0.0937 -0.89062,-0.0937 h -0.65625 q 0,0.95312 0,1.79687 0.0156,0.82813 0.0156,1.64063 l 1.23438,0.14062 v 0.54688 h -3.76563 v -0.54688 l 1.21875,-0.14062 q 0.0312,-0.84375 0.0312,-1.70313 0,-0.875 0,-1.73437 v -0.65625 q 0,-0.875 0,-1.73438 0,-0.85937 -0.0312,-1.70312 z m 11.52762,2.48437 q -0.35938,0 -0.75,0.21875 -0.375,0.20313 -0.65625,0.67188 -0.26563,0.46875 -0.34375,1.23437 h 2.42187 q 0.48438,0 0.625,-0.1875 0.15625,-0.20312 0.15625,-0.5 0,-0.39062 -0.1875,-0.70312 -0.1875,-0.32813 -0.51562,-0.53125 -0.32813,-0.20313 -0.75,-0.20313 z m 0,6.0625 q -1.35938,0 -2.17188,-0.875 -0.8125,-0.875 -0.8125,-2.40625 0,-1.01562 0.42188,-1.78125 0.42187,-0.76562 1.125,-1.1875 0.70312,-0.42187 1.53125,-0.42187 0.6875,0 1.25,0.3125 0.5625,0.29687 0.89062,0.85937 0.32813,0.5625 0.32813,1.39063 0,0.21875 -0.0312,0.42187 -0.0156,0.1875 -0.0625,0.3125 h -4.25 q 0.0312,1.23438 0.60937,1.875 0.59375,0.64063 1.54688,0.64063 0.64062,0 1.0625,-0.26563 0.4375,-0.26562 0.79687,-0.67187 l 0.3125,0.25 q -0.375,0.70312 -1.01562,1.125 -0.625,0.42187 -1.53125,0.42187 z m 8.63275,-0.0312 q -0.48438,0 -0.8125,-0.28125 -0.3125,-0.28125 -0.39063,-0.75 -0.54687,0.53125 -0.96875,0.79688 -0.40625,0.26562 -0.98437,0.26562 -0.73438,0 -1.26563,-0.42187 -0.53125,-0.42188 -0.53125,-1.25 0,-0.375 0.17188,-0.70313 0.1875,-0.34375 0.67187,-0.65625 0.48438,-0.32812 1.375,-0.64062 0.3125,-0.10938 0.70313,-0.23438 0.40625,-0.125 0.79687,-0.20312 v -0.34375 q 0,-0.96875 -0.29687,-1.28125 -0.28125,-0.32813 -0.95313,-0.32813 -0.14062,0 -0.32812,0.0156 -0.17188,0.0156 -0.39063,0.0625 l -0.25,0.875 q -0.1875,0.625 -0.6875,0.625 -0.5625,0 -0.64062,-0.53125 0.1875,-0.76563 0.89062,-1.20313 0.70313,-0.45312 1.71875,-0.45312 1.04688,0 1.54688,0.53125 0.51562,0.51562 0.51562,1.78125 v 2.84375 q 0,0.42187 0.125,0.60937 0.14063,0.17188 0.35938,0.17188 0.17187,0 0.28125,-0.0781 0.125,-0.0781 0.23437,-0.21875 l 0.26563,0.29688 q -0.23438,0.39062 -0.53125,0.54687 -0.28125,0.15625 -0.625,0.15625 z m -3.76563,-1.82812 q 0,0.53125 0.3125,0.76562 0.3125,0.21875 0.76563,0.21875 0.1875,0 0.35937,-0.0469 0.1875,-0.0625 0.4375,-0.21875 0.26563,-0.15625 0.65625,-0.4375 v -2.04688 q -0.34375,0.0937 -0.67187,0.21875 -0.32813,0.10938 -0.54688,0.1875 -0.57812,0.21875 -0.85937,0.46875 -0.28125,0.23438 -0.375,0.46875 -0.0781,0.21875 -0.0781,0.42188 z m 6.79963,-1.4375 q 0,1.29687 0.53125,1.92187 0.53125,0.60938 1.32812,0.60938 0.4375,0 0.76563,-0.17188 0.34375,-0.1875 0.71875,-0.59375 v -3.6875 q -0.45313,-0.40625 -0.8125,-0.54687 -0.35938,-0.15625 -0.6875,-0.15625 -0.5,0 -0.92188,0.28125 -0.40625,0.26562 -0.67187,0.85937 -0.25,0.57813 -0.25,1.48438 z m 3.48437,3.26562 -0.0937,-0.92187 q -0.34375,0.45312 -0.79687,0.70312 -0.45313,0.25 -1.07813,0.25 -0.8125,0 -1.42187,-0.40625 -0.60938,-0.42187 -0.95313,-1.15625 -0.34375,-0.73437 -0.34375,-1.71875 0,-1.01562 0.375,-1.78125 0.375,-0.76562 1.01563,-1.1875 0.64062,-0.42187 1.45312,-0.42187 0.46875,0 0.89063,0.1875 0.4375,0.1875 0.85937,0.67187 v -3.01562 l -1.14062,-0.125 v -0.46875 l 2.07812,-0.59375 0.1875,0.0937 -0.0469,1.90625 v 7.20312 l 1.07812,0.15625 v 0.48438 z m 6.36118,-5.98437 v -0.48438 h 2.60937 v 0.48438 l -0.71875,0.14062 -2.15625,5.65625 q -0.65625,1.78125 -1.28125,2.5625 -0.625,0.79688 -1.45312,0.79688 -0.48438,0 -0.85938,-0.25 -0.35937,-0.23438 -0.35937,-0.625 0.0625,-0.29688 0.32812,-0.4375 0.26563,-0.14063 0.5625,-0.14063 0.26563,0 0.48438,0.10938 0.23437,0.10937 0.5,0.39062 l 0.0781,0.0625 q 0.42188,-0.35937 0.70313,-0.875 0.29687,-0.5 0.48437,-1.04687 l 0.0625,-0.15625 -2.42187,-6.09375 -0.73438,-0.0937 v -0.48438 h 3.20313 v 0.48438 l -1.17188,0.14062 1.67188,4.54688 1.64062,-4.53125 z m 3.37085,1.76562 v -0.625 l 5.15625,-3 0.39062,0.71875 -4.625,2.59375 4.625,2.59375 -0.39062,0.71875 z m 8.43658,0.375 q 0,1.0625 0.1875,2 0.1875,0.92188 0.64062,1.875 0.45313,0.95313 1.23438,2.07813 l -0.34375,0.3125 q -1.42188,-1.32813 -2.10938,-2.875 -0.67187,-1.5625 -0.67187,-3.39063 0,-1.82812 0.67187,-3.39062 0.6875,-1.5625 2.10938,-2.875 l 0.34375,0.3125 q -0.78125,1.125 -1.23438,2.07812 -0.45312,0.95313 -0.64062,1.89063 -0.1875,0.92187 -0.1875,1.98437 z m 4.78384,0 q 0,-1.0625 -0.1875,-1.98437 -0.1875,-0.9375 -0.64062,-1.89063 -0.4375,-0.95312 -1.23438,-2.07812 l 0.35938,-0.3125 q 1.40625,1.3125 2.07812,2.875 0.6875,1.5625 0.6875,3.39062 0,1.82813 -0.6875,3.39063 -0.67187,1.54687 -2.07812,2.875 l -0.35938,-0.3125 q 0.79688,-1.125 1.23438,-2.07813 0.45312,-0.95312 0.64062,-1.875 0.1875,-0.9375 0.1875,-2 z m 8.4401,-1 v 0.625 l -5.15625,3 -0.39063,-0.71875 4.625,-2.59375 -4.625,-2.59375 0.39063,-0.71875 z"
       id="path97"
       inkscape:connector-curvature="0"
       style="fill:#202122;fill-rule:nonzero" />
    <path
       d="m 254.59537,306.65775 h 90.07245"
       id="path99"
       inkscape:connector-curvature="0"
       style="fill:#000000;fill-opacity:0;fill-rule:evenodd" />
    <path
       d="m 254.59537,306.65775 h 78.07245"
       id="path101"
       inkscape:connector-curvature="0"
       style="fill-rule:evenodd;stroke:#595959;stroke-width:2;stroke-linecap:butt;stroke-linejoin:round" />
    <path
       d="m 332.66782,309.9612 9.0762,-3.30347 -9.0762,-3.30346 z"
       id="path103"
       inkscape:connector-curvature="0"
       style="fill:#595959;fill-rule:evenodd;stroke:#595959;stroke-width:2;stroke-linecap:butt" />
    <path
       d="m 254.59537,300.70694 h 32.42609 v 11.90161 h -32.42609 z"
       id="path105"
       inkscape:connector-curvature="0"
       style="fill:#000000;fill-opacity:0;fill-rule:evenodd" />
    <path
       d="m 312.2051,300.70694 h 32.42609 v 11.90161 H 312.2051 Z"
       id="path107"
       inkscape:connector-curvature="0"
       style="fill:#000000;fill-opacity:0;fill-rule:evenodd" />
    <path
       d="M 344.66656,336.50323 H 254.59411"
       id="path109"
       inkscape:connector-curvature="0"
       style="fill:#000000;fill-opacity:0;fill-rule:evenodd" />
    <path
       d="M 344.66653,336.50323 H 266.59411"
       id="path111"
       inkscape:connector-curvature="0"
       style="fill-rule:evenodd;stroke:#1c4587;stroke-width:2;stroke-linecap:butt;stroke-linejoin:round" />
    <path
       d="m 266.59412,333.19977 -9.0762,3.30347 9.0762,3.30346 z"
       id="path113"
       inkscape:connector-curvature="0"
       style="fill:#1c4587;fill-rule:evenodd;stroke:#1c4587;stroke-width:2;stroke-linecap:butt" />
    <path
       d="m 254.63257,330.55243 h 32.42609 v 11.90161 h -32.42609 z"
       id="path115"
       inkscape:connector-curvature="0"
       style="fill:#000000;fill-opacity:0;fill-rule:evenodd" />
    <path
       d="m 312.24173,330.55243 h 32.42609 v 11.90161 h -32.42609 z"
       id="path117"
       inkscape:connector-curvature="0"
       style="fill:#000000;fill-opacity:0;fill-rule:evenodd" />
    <path
       d="m 344.6312,208.54218 c 19.72913,0 29.5921,12.26771 39.45825,24.53543 9.86615,12.26771 19.73544,24.53543 39.47089,24.53543"
       id="path119"
       inkscape:connector-curvature="0"
       style="fill:#000000;fill-opacity:0;fill-rule:evenodd" />
    <path
       d="m 344.6312,208.54218 c 19.72913,0 29.5921,12.26771 39.45825,24.53543 4.93308,6.13387 9.86691,12.26771 16.03446,16.86812 3.08377,2.3002 6.47592,4.21702 10.33062,5.55881 1.92737,0.67088 3.97034,1.19801 6.1482,1.55744 0.27227,0.0449 0.5466,0.0872 0.82309,0.12687 l 0.14813,0.0204"
       id="path121"
       inkscape:connector-curvature="0"
       style="fill-rule:evenodd;stroke:#595959;stroke-width:1;stroke-linecap:butt;stroke-linejoin:round" />
    <path
       d="m 417.46277,258.85724 4.63898,-1.34259 -4.41666,-1.95337 z"
       id="path123"
       inkscape:connector-curvature="0"
       style="fill:#595959;fill-rule:evenodd;stroke:#595959;stroke-width:1;stroke-linecap:butt" />
    <path
       d="m 344.65027,306.67465 c 19.7244,0 29.58661,-12.26773 39.44879,-24.53543 9.86221,-12.26773 19.72443,-24.53543 39.44882,-24.53543"
       id="path125"
       inkscape:connector-curvature="0"
       style="fill:#000000;fill-opacity:0;fill-rule:evenodd" />
    <path
       d="m 344.65027,306.67465 c 19.7244,0 29.58661,-12.26773 39.44882,-24.53543 4.93109,-6.13388 9.86218,-12.26773 16.02606,-16.86813 3.08194,-2.30018 6.47208,-4.21701 10.3245,-5.55881 1.92621,-0.67087 3.96801,-1.198 6.14462,-1.55744 0.27206,-0.0449 0.54626,-0.0872 0.8226,-0.12686 l 0.14465,-0.02"
       id="path127"
       inkscape:connector-curvature="0"
       style="fill-rule:evenodd;stroke:#595959;stroke-width:1;stroke-linecap:butt;stroke-linejoin:round" />
    <path
       d="m 417.67282,259.656 4.4165,-1.95374 -4.63906,-1.34222 z"
       id="path129"
       inkscape:connector-curvature="0"
       style="fill:#595959;fill-rule:evenodd;stroke:#595959;stroke-width:1;stroke-linecap:butt" />
    <path
       d="m 344.6312,208.54218 c 16.28809,0 32.56827,31.99213 32.57614,63.98425 0.008,31.99213 -16.25656,63.98426 -32.51315,63.98426"
       id="path131"
       inkscape:connector-curvature="0"
       style="fill:#000000;fill-opacity:0;fill-rule:evenodd" />
    <path
       d="m 344.6312,208.54218 c 16.28809,0 32.56827,31.99213 32.57614,63.98425 0.004,15.99607 -4.06018,31.99213 -10.15738,43.98917 -3.04861,5.99853 -6.6055,10.99731 -10.41623,14.49643 -1.90539,1.74957 -3.8742,3.12427 -5.87475,4.06149 l -0.21613,0.0982"
       id="path133"
       inkscape:connector-curvature="0"
       style="fill-rule:evenodd;stroke:#595959;stroke-width:1;stroke-linecap:butt;stroke-linejoin:round" />
    <path
       d="m 350.1743,333.56165 -4.05505,2.6228 4.79223,0.59735 z"
       id="path135"
       inkscape:connector-curvature="0"
       style="fill:#595959;fill-rule:evenodd;stroke:#595959;stroke-width:1;stroke-linecap:butt" />
    <path
       d="m 344.6312,306.65775 c 8.66867,0 17.32944,-17.07086 17.33731,-34.14172 0.008,-17.07088 -8.63715,-34.14174 -17.27432,-34.14174"
       id="path137"
       inkscape:connector-curvature="0"
       style="fill:#000000;fill-opacity:0;fill-rule:evenodd" />
    <path
       d="m 344.6312,306.65775 c 8.66867,0 17.32944,-17.07086 17.33731,-34.14172 0.004,-8.53544 -2.15533,-17.07088 -5.39526,-23.47245 -1.61997,-3.20079 -3.51007,-5.86812 -5.53504,-7.73524 -0.25311,-0.23338 -0.50836,-0.45427 -0.76541,-0.66213 l -0.0192,-0.0152"
       id="path139"
       inkscape:connector-curvature="0"
       style="fill-rule:evenodd;stroke:#595959;stroke-width:1;stroke-linecap:butt;stroke-linejoin:round" />
    <path
       d="m 350.87488,239.10051 -4.82614,-0.17639 3.58365,3.23729 z"
       id="path141"
       inkscape:connector-curvature="0"
       style="fill:#595959;fill-rule:evenodd;stroke:#595959;stroke-width:1;stroke-linecap:butt" />
    <path
       d="m 423.58508,287.44916 c -19.72913,0 -29.5921,-12.26773 -39.45825,-24.53546 -9.86615,-12.2677 -19.73544,-24.53542 -39.47089,-24.53542"
       id="path143"
       inkscape:connector-curvature="0"
       style="fill:#000000;fill-opacity:0;fill-rule:evenodd" />
    <path
       d="m 423.58508,287.44916 c -19.72913,0 -29.5921,-12.26773 -39.45825,-24.53543 -4.93305,-6.13388 -9.86692,-12.26773 -16.03443,-16.86812 -3.0838,-2.3002 -6.47595,-4.21702 -10.33062,-5.55881 -1.92737,-0.67089 -3.97037,-1.19802 -6.14823,-1.55741 -0.27227,-0.0449 -0.5466,-0.0873 -0.82309,-0.1269 l -0.14813,-0.0204"
       id="path145"
       inkscape:connector-curvature="0"
       style="fill-rule:evenodd;stroke:#1c4587;stroke-width:1;stroke-linecap:butt;stroke-linejoin:round" />
    <path
       d="m 350.7535,237.13408 -4.63895,1.34259 4.41663,1.95338 z"
       id="path147"
       inkscape:connector-curvature="0"
       style="fill:#1c4587;fill-rule:evenodd;stroke:#1c4587;stroke-width:1;stroke-linecap:butt" />
    <path
       d="m 423.58508,287.44916 c -19.72913,0 -29.5921,12.25983 -39.45825,24.51968 -9.86615,12.25983 -19.73544,24.51969 -39.47089,24.51969"
       id="path149"
       inkscape:connector-curvature="0"
       style="fill:#000000;fill-opacity:0;fill-rule:evenodd" />
    <path
       d="m 423.58508,287.44916 c -19.72913,0 -29.5921,12.25983 -39.45825,24.51968 -4.93305,6.12992 -9.86692,12.25983 -16.03443,16.85727 -3.0838,2.29874 -6.47595,4.21433 -10.33062,5.55524 -1.92737,0.67047 -3.97037,1.19727 -6.14823,1.55643 -0.27227,0.0449 -0.5466,0.0872 -0.82309,0.1268 l -0.14807,0.0204"
       id="path151"
       inkscape:connector-curvature="0"
       style="fill-rule:evenodd;stroke:#1c4587;stroke-width:1;stroke-linecap:butt;stroke-linejoin:round" />
    <path
       d="m 350.53128,334.437 -4.41672,1.95319 4.63892,1.34277 z"
       id="path153"
       inkscape:connector-curvature="0"
       style="fill:#1c4587;fill-rule:evenodd;stroke:#1c4587;stroke-width:1;stroke-linecap:butt" />
    <path
       d="m 152.89589,158.98581 h 124.15749 v 27.87402 H 152.89589 Z"
       id="path155"
       inkscape:connector-curvature="0"
       style="fill:#000000;fill-opacity:0;fill-rule:evenodd" />
    <path
       d="m 198.65628,178.20282 v -0.6875 l 0.8125,-0.17188 q 0.0156,-0.5625 0.0156,-1.10937 0.0156,-0.5625 0.0156,-1.10938 v -6.14062 l -0.90625,-0.14063 v -0.625 l 3.07812,-0.65625 0.23438,0.14063 -0.0625,2.0625 v 5.35937 q 0,0.5625 0,1.125 0.0156,0.54688 0.0312,1.10938 l 0.79687,0.15625 v 0.6875 z m 4.79649,0 v -0.6875 l 0.8125,-0.15625 q 0.0156,-0.5625 0.0156,-1.10938 0.0156,-0.5625 0.0156,-1.125 v -3 h -0.95312 v -0.875 l 0.96875,-0.10937 q 0.125,-1 0.39062,-1.60938 0.28125,-0.60937 0.75,-1.09375 0.53125,-0.53125 1.21875,-0.76562 0.6875,-0.25 1.3125,-0.25 0.60938,0 1.10938,0.23437 0.5,0.21875 0.65625,0.79688 -0.0156,0.40625 -0.29688,0.70312 -0.26562,0.28125 -0.76562,0.28125 -0.35938,0 -0.6875,-0.25 -0.32813,-0.25 -0.625,-0.79687 l -0.125,-0.17188 q -0.39063,0.40625 -0.54688,1.07813 -0.14062,0.67187 -0.10937,1.82812 h 1.5625 v 1 h -1.53125 v 3 q 0,0.54688 0,1.07813 0,0.53125 0.0156,1.07812 l 1.125,0.23438 v 0.6875 z m 8.84739,0.21875 q -1.14063,0 -1.98438,-0.46875 -0.82812,-0.48438 -1.28125,-1.34375 -0.45312,-0.85938 -0.45312,-1.98438 0,-1.125 0.48437,-1.95312 0.5,-0.84375 1.34375,-1.3125 0.85938,-0.46875 1.89063,-0.46875 1.04687,0 1.89062,0.45312 0.84375,0.45313 1.34375,1.29688 0.5,0.84375 0.5,1.98437 0,1.14063 -0.45312,2 -0.45313,0.84375 -1.29688,1.32813 -0.82812,0.46875 -1.98437,0.46875 z m 0,-0.76563 q 0.625,0 0.92187,-0.71875 0.3125,-0.71875 0.3125,-2.26562 0,-1.5625 -0.3125,-2.28125 -0.29687,-0.71875 -0.92187,-0.71875 -0.625,0 -0.9375,0.71875 -0.29688,0.71875 -0.29688,2.28125 0,1.54687 0.29688,2.26562 0.3125,0.71875 0.9375,0.71875 z m 4.5308,0.54688 v -0.6875 l 0.8125,-0.15625 q 0.0156,-0.54688 0.0156,-1.15625 0,-0.625 0,-1.07813 v -0.85937 q 0,-0.42188 -0.0156,-0.67188 0,-0.26562 -0.0156,-0.48437 0,-0.23438 -0.0156,-0.53125 l -0.89062,-0.14063 v -0.5625 l 2.89062,-0.98437 0.25,0.15625 0.14063,1.73437 q 0.3125,-0.9375 0.85937,-1.40625 0.5625,-0.48437 1.10938,-0.48437 0.48437,0 0.82812,0.28125 0.35938,0.26562 0.4375,0.79687 -0.0156,0.57813 -0.3125,0.89063 -0.28125,0.3125 -0.71875,0.3125 -0.625,0 -1.14062,-0.6875 l -0.0781,-0.10938 q -0.32812,0.29688 -0.60937,0.76563 -0.26563,0.46875 -0.375,0.98437 v 1 q 0,0.45313 0,1.04688 0,0.57812 0.0156,1.09375 l 1.15625,0.25 v 0.6875 z m 6.44756,0 v -0.6875 l 0.82812,-0.17188 q 0.0156,-0.54687 0.0156,-1.15625 0,-0.625 0,-1.0625 v -6.14062 l -0.90625,-0.14063 v -0.625 l 3.07812,-0.65625 0.23438,0.14063 -0.0625,2.0625 v 4.5 l 2.375,-2.32813 -1.10938,-0.17187 v -0.64063 h 3.53125 v 0.64063 l -1.32812,0.1875 -1.28125,1.21875 2.0625,4.125 0.9375,0.21875 v 0.6875 h -2.98438 l -1.65625,-3.5 -0.54687,0.51562 q 0,0.48438 0,1.0625 0.0156,0.57813 0.0156,1.07813 l 0.79688,0.15625 v 0.6875 z"
       id="path157"
       inkscape:connector-curvature="0"
       style="fill:#202122;fill-rule:nonzero" />
    <path
       d="m 105.34996,209.0833 h 61.98425 v 23.93701 h -61.98425 z"
       id="path159"
       inkscape:connector-curvature="0"
       style="fill:#000000;fill-opacity:0;fill-rule:evenodd" />
    <path
       d="m 129.36786,217.9568 v -0.75 h 3.17187 v 0.78125 l -1.09375,0.1875 -3.01562,8.6875 h -1.42187 l -3.15625,-8.78125 -0.84375,-0.0937 v -0.78125 h 4.71875 v 0.75 l -1.25,0.15625 1.99999,6.03125 2.03125,-6 z m 2.6114,8.875 v -0.6875 l 0.8125,-0.15625 q 0.0156,-0.54688 0.0156,-1.15625 0,-0.625 0,-1.07813 v -0.85937 q 0,-0.42188 -0.0156,-0.67188 0,-0.26562 -0.0156,-0.48437 0,-0.23438 -0.0156,-0.53125 l -0.89062,-0.14063 v -0.5625 l 2.89062,-0.98437 0.25,0.15625 0.14063,1.73437 q 0.3125,-0.9375 0.85937,-1.40625 0.5625,-0.48437 1.10938,-0.48437 0.48437,0 0.82812,0.28125 0.35938,0.26562 0.4375,0.79687 -0.0156,0.57813 -0.3125,0.89063 -0.28125,0.3125 -0.71875,0.3125 -0.625,0 -1.14062,-0.6875 l -0.0781,-0.10938 q -0.32812,0.29688 -0.60937,0.76563 -0.26563,0.46875 -0.375,0.98437 v 1 q 0,0.45313 0,1.04688 0,0.57812 0.0156,1.09375 l 1.15625,0.25 v 0.6875 z m 6.98706,-4.1875 v -1.10938 l 6.125,-3.15625 0.625,1.25 -5.03125,2.45313 5.03125,2.46875 -0.625,1.25 z m 11.84804,-4.59375 h -0.32812 q -0.0156,0.90625 -0.0312,1.82812 0,0.92188 0,1.875 v 0.57813 h 0.42187 q 0.96875,0 1.45313,-0.625 0.48437,-0.625 0.48437,-1.60938 0,-1.01562 -0.53125,-1.53125 -0.51562,-0.51562 -1.46875,-0.51562 z m -3.95312,-0.0625 v -0.78125 h 3.98437 q 1.53125,0 2.46875,0.35937 0.9375,0.35938 1.35938,1.01563 0.4375,0.64062 0.4375,1.51562 0,0.84375 -0.40625,1.54688 -0.40625,0.6875 -1.32813,1.10937 -0.92187,0.40625 -2.51562,0.40625 h -0.40625 q 0,0.625 0,1.32813 0.0156,0.6875 0.0312,1.42187 l 1.29687,0.125 v 0.79688 h -4.92187 v -0.79688 l 1.09375,-0.10937 q 0.0312,-0.89063 0.0312,-1.79688 0,-0.92187 0,-1.84375 v -0.53125 q 0,-0.92187 0,-1.82812 0,-0.92188 -0.0312,-1.8125 z m 15.92181,3.54687 v 1.10938 l -6.125,3.15625 -0.64062,-1.25 5.03125,-2.46875 -5.03125,-2.45313 0.64062,-1.25 z"
       id="path161"
       inkscape:connector-curvature="0"
       style="fill:#202122;fill-rule:nonzero" />
    <path
       d="m 254.40508,183.87033 -78.86614,21.94214 v 118.44644 l 78.86614,21.94214 z"
       id="path163"
       inkscape:connector-curvature="0"
       style="fill:#d9d9d9;fill-rule:evenodd" />
    <path
       d="m 254.40508,183.87033 -78.86614,21.94214 v 118.44644 l 78.86614,21.94214 z"
       id="path165"
       inkscape:connector-curvature="0"
       style="fill-rule:evenodd;stroke:#595959;stroke-width:1;stroke-linecap:butt;stroke-linejoin:round" />
    <path
       d="m 85.464424,237.3622 h 90.078736 v 14.86615 H 85.464424 Z"
       id="path167"
       inkscape:connector-curvature="0"
       style="fill:#000000;fill-opacity:0;fill-rule:evenodd" />
    <path
       d="m 132.86577,249.23148 q -0.78125,0 -1.51563,-0.29688 -0.71875,-0.3125 -1.3125,-0.89062 -0.57812,-0.59375 -0.92187,-1.45313 -0.34375,-0.875 -0.34375,-2.03125 0,-1.09375 0.34375,-1.95312 0.34375,-0.875 0.92187,-1.46875 0.59375,-0.59375 1.3125,-0.90625 0.73438,-0.3125 1.51563,-0.3125 0.76562,0 1.48437,0.29687 0.73438,0.29688 1.3125,0.89063 0.59375,0.57812 0.9375,1.45312 0.34375,0.85938 0.34375,2 0,1.09375 -0.34375,1.96875 -0.34375,0.85938 -0.92187,1.46875 -0.57813,0.60938 -1.3125,0.92188 -0.73438,0.3125 -1.5,0.3125 z m 0,-0.67188 q 0.6875,0 1.1875,-0.32812 0.5,-0.34375 0.8125,-0.90625 0.3125,-0.57813 0.45312,-1.28125 0.15625,-0.71875 0.15625,-1.48438 0,-0.75 -0.15625,-1.45312 -0.14062,-0.71875 -0.45312,-1.28125 -0.3125,-0.57813 -0.8125,-0.90625 -0.5,-0.34375 -1.1875,-0.34375 -0.6875,0 -1.1875,0.34375 -0.5,0.32812 -0.82813,0.90625 -0.3125,0.5625 -0.46875,1.28125 -0.15625,0.70312 -0.15625,1.45312 0,0.76563 0.15625,1.48438 0.15625,0.70312 0.46875,1.28125 0.32813,0.5625 0.82813,0.90625 0.5,0.32812 1.1875,0.32812 z m 5.17294,3.65625 v -0.46875 l 1.0625,-0.1875 q 0.0156,-0.54687 0.0156,-1.09375 0.0156,-0.53125 0.0156,-1.0625 v -3.8125 q 0,-0.54687 -0.0156,-0.90625 0,-0.35937 -0.0312,-0.76562 l -1.04688,-0.10938 v -0.46875 l 1.85938,-0.8125 0.20312,0.125 0.0781,0.875 q 0.95312,-1 2.01562,-1 0.71875,0 1.28125,0.40625 0.57813,0.39063 0.92188,1.14063 0.34375,0.73437 0.34375,1.76562 0,1.03125 -0.35938,1.78125 -0.35937,0.75 -0.98437,1.17188 -0.60938,0.40625 -1.40625,0.40625 -0.45313,0 -0.90625,-0.1875 -0.4375,-0.1875 -0.85938,-0.67188 v 1.04688 q 0,0.53125 0,1.0625 0.0156,0.54687 0.0156,1.09375 l 1.21875,0.20312 v 0.46875 z m 3.84375,-8.9375 q -0.3125,0 -0.71875,0.15625 -0.39062,0.15625 -0.90625,0.57813 v 3.75 q 0.375,0.35937 0.73438,0.51562 0.35937,0.15625 0.73437,0.15625 0.75,0 1.28125,-0.59375 0.53125,-0.59375 0.53125,-1.89062 0,-1.28125 -0.46875,-1.96875 -0.46875,-0.70313 -1.1875,-0.70313 z m 6.05881,5.92188 q -0.6875,0 -1.10937,-0.375 -0.40625,-0.375 -0.40625,-1.14063 0,-0.25 0,-0.5 0,-0.25 0,-0.64062 v -3.14063 h -1.09375 v -0.57812 l 1.1875,-0.15625 0.34375,-1.78125 h 0.79687 l -0.0781,1.8125 h 1.79687 v 0.70312 h -1.8125 v 4.125 q 0,0.51563 0.20313,0.75 0.20312,0.23438 0.53125,0.23438 0.21875,0 0.42187,-0.0937 0.21875,-0.0937 0.46875,-0.26563 l 0.32813,0.34375 q -0.54688,0.70313 -1.57813,0.70313 z m 2.36287,-4.25 v -0.625 l 5.15625,-3 0.39062,0.71875 -4.625,2.59375 4.625,2.59375 -0.39062,0.71875 z m 10.24908,-4.21875 h -0.8125 q 0,0.84375 -0.0156,1.73437 0,0.89063 0,1.78125 v 0.64063 h 0.875 q 1.21875,0 1.73437,-0.59375 0.51563,-0.59375 0.51563,-1.53125 0,-0.96875 -0.5625,-1.5 -0.54688,-0.53125 -1.73438,-0.53125 z m -3.34375,-0.0781 v -0.54687 h 3.57813 q 1.6875,0 2.53125,0.75 0.85937,0.73437 0.85937,1.90625 0,0.75 -0.375,1.375 -0.375,0.625 -1.20312,1 -0.8125,0.375 -2.1875,0.375 h -0.6875 q 0,0.71875 0,1.42187 0.0156,0.6875 0.0156,1.40625 l 1.25,0.14063 v 0.54687 h -3.78125 v -0.54687 l 1.21875,-0.14063 q 0.0312,-0.84375 0.0312,-1.70312 0,-0.875 0,-1.73438 v -0.65625 q 0,-0.875 0,-1.73437 0,-0.85938 -0.0312,-1.70313 z m 13.56899,3.67188 v 0.625 l -5.15625,3 -0.39063,-0.71875 4.625,-2.59375 -4.625,-2.59375 0.39063,-0.71875 z"
       id="path169"
       inkscape:connector-curvature="0"
       style="fill:#202122;fill-rule:nonzero" />
    <path
       d="M 85.47176,256.9129 H 175.5505"
       id="path171"
       inkscape:connector-curvature="0"
       style="fill:#000000;fill-opacity:0;fill-rule:evenodd" />
    <path
       d="M 85.47176,256.9129 H 163.5505"
       id="path173"
       inkscape:connector-curvature="0"
       style="fill-rule:evenodd;stroke:#595959;stroke-width:2;stroke-linecap:butt;stroke-linejoin:round" />
    <path
       d="m 163.5505,260.21637 9.07619,-3.30347 -9.07619,-3.30346 z"
       id="path175"
       inkscape:connector-curvature="0"
       style="fill:#595959;fill-rule:evenodd;stroke:#595959;stroke-width:2;stroke-linecap:butt" />
    <path
       d="m 85.47176,250.9621 h 32.42834 v 11.90161 H 85.47176 Z"
       id="path177"
       inkscape:connector-curvature="0"
       style="fill:#000000;fill-opacity:0;fill-rule:evenodd" />
    <path
       d="m 143.08554,250.9621 h 32.42835 v 11.90161 h -32.42835 z"
       id="path179"
       inkscape:connector-curvature="0"
       style="fill:#000000;fill-opacity:0;fill-rule:evenodd" />
    <path
       d="M 175.54926,286.75845 H 85.47052"
       id="path181"
       inkscape:connector-curvature="0"
       style="fill:#000000;fill-opacity:0;fill-rule:evenodd" />
    <path
       d="M 175.54926,286.75845 H 97.47051"
       id="path183"
       inkscape:connector-curvature="0"
       style="fill-rule:evenodd;stroke:#1c4587;stroke-width:2;stroke-linecap:butt;stroke-linejoin:round" />
    <path
       d="m 97.470505,283.455 -9.076195,3.30347 9.076195,3.30346 z"
       id="path185"
       inkscape:connector-curvature="0"
       style="fill:#1c4587;fill-rule:evenodd;stroke:#1c4587;stroke-width:2;stroke-linecap:butt" />
    <path
       d="m 85.50896,280.80765 h 32.42835 v 11.90161 H 85.50896 Z"
       id="path187"
       inkscape:connector-curvature="0"
       style="fill:#000000;fill-opacity:0;fill-rule:evenodd" />
    <path
       d="m 143.12215,280.80765 h 32.42836 v 11.90161 h -32.42836 z"
       id="path189"
       inkscape:connector-curvature="0"
       style="fill:#000000;fill-opacity:0;fill-rule:evenodd" />
    <path
       d="m 85.464424,266.17914 h 90.078736 v 14.86615 H 85.464424 Z"
       id="path191"
       inkscape:connector-curvature="0"
       style="fill:#000000;fill-opacity:0;fill-rule:evenodd" />
    <path
       d="m 116.39467,269.5484 h -1.15625 q 0,0.875 -0.0156,1.75 0,0.875 0,1.8125 h 1.01562 q 1.09375,0 1.59375,-0.51562 0.51563,-0.51563 0.51563,-1.32813 0,-0.82812 -0.46875,-1.26562 -0.46875,-0.45313 -1.48438,-0.45313 z m -3.6875,-0.0781 v -0.54688 h 3.71875 q 1.53125,0 2.39063,0.625 0.85937,0.60938 0.85937,1.71875 0,0.76563 -0.5625,1.40625 -0.5625,0.64063 -1.6875,0.84375 0.59375,0.10938 0.96875,0.51563 0.375,0.39062 0.60938,1.17187 l 0.57812,1.96875 1.01563,0.125 v 0.54688 q -0.1875,0.0469 -0.4375,0.0937 -0.25,0.0469 -0.5625,0.0469 -0.625,0 -0.9375,-0.1875 -0.3125,-0.1875 -0.42188,-0.67187 l -0.54687,-2.14063 q -0.10938,-0.54687 -0.34375,-0.8125 -0.21875,-0.26562 -0.57813,-0.35937 -0.34375,-0.0937 -0.89062,-0.0937 h -0.65625 q 0,0.95312 0,1.79687 0.0156,0.82813 0.0156,1.64063 l 1.23438,0.14062 v 0.54688 h -3.76563 v -0.54688 l 1.21875,-0.14062 q 0.0312,-0.84375 0.0312,-1.70313 0,-0.875 0,-1.73437 v -0.65625 q 0,-0.875 0,-1.73438 0,-0.85937 -0.0312,-1.70312 z m 11.52762,2.48437 q -0.35938,0 -0.75,0.21875 -0.375,0.20313 -0.65625,0.67188 -0.26563,0.46875 -0.34375,1.23437 h 2.42187 q 0.48438,0 0.625,-0.1875 0.15625,-0.20312 0.15625,-0.5 0,-0.39062 -0.1875,-0.70312 -0.1875,-0.32813 -0.51562,-0.53125 -0.32813,-0.20313 -0.75,-0.20313 z m 0,6.0625 q -1.35938,0 -2.17188,-0.875 -0.8125,-0.875 -0.8125,-2.40625 0,-1.01562 0.42188,-1.78125 0.42187,-0.76562 1.125,-1.1875 0.70312,-0.42187 1.53125,-0.42187 0.6875,0 1.25,0.3125 0.5625,0.29687 0.89062,0.85937 0.32813,0.5625 0.32813,1.39063 0,0.21875 -0.0312,0.42187 -0.0156,0.1875 -0.0625,0.3125 h -4.25 q 0.0312,1.23438 0.60937,1.875 0.59375,0.64063 1.54688,0.64063 0.64062,0 1.0625,-0.26563 0.4375,-0.26562 0.79687,-0.67187 l 0.3125,0.25 q -0.375,0.70312 -1.01562,1.125 -0.625,0.42187 -1.53125,0.42187 z m 8.63273,-0.0312 q -0.48437,0 -0.8125,-0.28125 -0.3125,-0.28125 -0.39062,-0.75 -0.54688,0.53125 -0.96875,0.79688 -0.40625,0.26562 -0.98438,0.26562 -0.73437,0 -1.26562,-0.42187 -0.53125,-0.42188 -0.53125,-1.25 0,-0.375 0.17187,-0.70313 0.1875,-0.34375 0.67188,-0.65625 0.48437,-0.32812 1.375,-0.64062 0.3125,-0.10938 0.70312,-0.23438 0.40625,-0.125 0.79688,-0.20312 v -0.34375 q 0,-0.96875 -0.29688,-1.28125 -0.28125,-0.32813 -0.95312,-0.32813 -0.14063,0 -0.32813,0.0156 -0.17187,0.0156 -0.39062,0.0625 l -0.25,0.875 q -0.1875,0.625 -0.6875,0.625 -0.5625,0 -0.64063,-0.53125 0.1875,-0.76563 0.89063,-1.20313 0.70312,-0.45312 1.71875,-0.45312 1.04687,0 1.54687,0.53125 0.51563,0.51562 0.51563,1.78125 v 2.84375 q 0,0.42187 0.125,0.60937 0.14062,0.17188 0.35937,0.17188 0.17188,0 0.28125,-0.0781 0.125,-0.0781 0.23438,-0.21875 l 0.26562,0.29688 q -0.23437,0.39062 -0.53125,0.54687 -0.28125,0.15625 -0.625,0.15625 z m -3.76562,-1.82812 q 0,0.53125 0.3125,0.76562 0.3125,0.21875 0.76562,0.21875 0.1875,0 0.35938,-0.0469 0.1875,-0.0625 0.4375,-0.21875 0.26562,-0.15625 0.65625,-0.4375 v -2.04688 q -0.34375,0.0937 -0.67188,0.21875 -0.32812,0.10938 -0.54687,0.1875 -0.57813,0.21875 -0.85938,0.46875 -0.28125,0.23438 -0.375,0.46875 -0.0781,0.21875 -0.0781,0.42188 z m 6.79962,-1.4375 q 0,1.29687 0.53125,1.92187 0.53125,0.60938 1.32813,0.60938 0.4375,0 0.76562,-0.17188 0.34375,-0.1875 0.71875,-0.59375 v -3.6875 q -0.45312,-0.40625 -0.8125,-0.54687 -0.35937,-0.15625 -0.6875,-0.15625 -0.5,0 -0.92187,0.28125 -0.40625,0.26562 -0.67188,0.85937 -0.25,0.57813 -0.25,1.48438 z m 3.48438,3.26562 -0.0937,-0.92187 q -0.34375,0.45312 -0.79688,0.70312 -0.45312,0.25 -1.07812,0.25 -0.8125,0 -1.42188,-0.40625 -0.60937,-0.42187 -0.95312,-1.15625 -0.34375,-0.73437 -0.34375,-1.71875 0,-1.01562 0.375,-1.78125 0.375,-0.76562 1.01562,-1.1875 0.64063,-0.42187 1.45313,-0.42187 0.46875,0 0.89062,0.1875 0.4375,0.1875 0.85938,0.67187 v -3.01562 l -1.14063,-0.125 v -0.46875 l 2.07813,-0.59375 0.1875,0.0937 -0.0469,1.90625 v 7.20312 l 1.07813,0.15625 v 0.48438 z m 6.36119,-5.98437 v -0.48438 h 2.60937 v 0.48438 l -0.71875,0.14062 -2.15625,5.65625 q -0.65625,1.78125 -1.28125,2.5625 -0.625,0.79688 -1.45312,0.79688 -0.48438,0 -0.85938,-0.25 -0.35937,-0.23438 -0.35937,-0.625 0.0625,-0.29688 0.32812,-0.4375 0.26563,-0.14063 0.5625,-0.14063 0.26563,0 0.48438,0.10938 0.23437,0.10937 0.5,0.39062 l 0.0781,0.0625 q 0.42188,-0.35937 0.70313,-0.875 0.29687,-0.5 0.48437,-1.04687 l 0.0625,-0.15625 -2.42187,-6.09375 -0.73438,-0.0937 v -0.48438 h 3.20313 v 0.48438 l -1.17188,0.14062 1.67188,4.54688 1.64062,-4.53125 z m 3.37085,1.76562 v -0.625 l 5.15625,-3 0.39062,0.71875 -4.625,2.59375 4.625,2.59375 -0.39062,0.71875 z m 8.43658,0.375 q 0,1.0625 0.1875,2 0.1875,0.92188 0.64063,1.875 0.45312,0.95313 1.23437,2.07813 l -0.34375,0.3125 q -1.42187,-1.32813 -2.10937,-2.875 -0.67188,-1.5625 -0.67188,-3.39063 0,-1.82812 0.67188,-3.39062 0.6875,-1.5625 2.10937,-2.875 l 0.34375,0.3125 q -0.78125,1.125 -1.23437,2.07812 -0.45313,0.95313 -0.64063,1.89063 -0.1875,0.92187 -0.1875,1.98437 z m 4.78384,0 q 0,-1.0625 -0.1875,-1.98437 -0.1875,-0.9375 -0.64062,-1.89063 -0.4375,-0.95312 -1.23438,-2.07812 l 0.35938,-0.3125 q 1.40625,1.3125 2.07812,2.875 0.6875,1.5625 0.6875,3.39062 0,1.82813 -0.6875,3.39063 -0.67187,1.54687 -2.07812,2.875 l -0.35938,-0.3125 q 0.79688,-1.125 1.23438,-2.07813 0.45312,-0.95312 0.64062,-1.875 0.1875,-0.9375 0.1875,-2 z m 8.4401,-1 v 0.625 l -5.15625,3 -0.39063,-0.71875 4.625,-2.59375 -4.625,-2.59375 0.39063,-0.71875 z"
       id="path193"
       inkscape:connector-curvature="0"
       style="fill:#202122;fill-rule:nonzero" />
    <path
       d="m 175.51389,256.9129 c 19.72441,0 29.58662,-12.26773 39.44882,-24.53545 9.8622,-12.26771 19.72441,-24.53543 39.44882,-24.53543"
       id="path195"
       inkscape:connector-curvature="0"
       style="fill:#000000;fill-opacity:0;fill-rule:evenodd" />
    <path
       d="m 175.51389,256.9129 c 19.72441,0 29.58661,-12.26773 39.44882,-24.53545 4.93109,-6.13385 9.8622,-12.26771 16.02608,-16.8681 3.08194,-2.3002 6.47208,-4.21702 10.32449,-5.55881 1.92623,-0.67089 3.96799,-1.19803 6.14462,-1.55742 0.27207,-0.0449 0.54627,-0.0872 0.82259,-0.12689 l 0.14467,-0.02"
       id="path197"
       inkscape:connector-curvature="0"
       style="fill-rule:evenodd;stroke:#595959;stroke-width:1;stroke-linecap:butt;stroke-linejoin:round" />
    <path
       d="m 248.53644,209.89426 4.4165,-1.95374 -4.63906,-1.34222 z"
       id="path199"
       inkscape:connector-curvature="0"
       style="fill:#595959;fill-rule:evenodd;stroke:#595959;stroke-width:1;stroke-linecap:butt" />
    <path
       d="m 175.51389,256.9129 c 19.72441,0 29.58662,12.2677 39.44882,24.53543 9.8622,12.2677 19.72441,24.53543 39.44882,24.53543"
       id="path201"
       inkscape:connector-curvature="0"
       style="fill:#000000;fill-opacity:0;fill-rule:evenodd" />
    <path
       d="m 175.51389,256.9129 c 19.72441,0 29.58661,12.2677 39.44882,24.53543 4.93109,6.13385 9.8622,12.2677 16.02608,16.8681 3.08194,2.3002 6.47208,4.21704 10.32449,5.55881 1.92623,0.6709 3.96799,1.19803 6.14462,1.5574 0.27207,0.045 0.54627,0.0872 0.82259,0.1269 l 0.14467,0.02"
       id="path203"
       inkscape:connector-curvature="0"
       style="fill-rule:evenodd;stroke:#595959;stroke-width:1;stroke-linecap:butt;stroke-linejoin:round" />
    <path
       d="m 248.31387,307.22748 4.63907,-1.34222 -4.41651,-1.95374 z"
       id="path205"
       inkscape:connector-curvature="0"
       style="fill:#595959;fill-rule:evenodd;stroke:#595959;stroke-width:1;stroke-linecap:butt" />
    <path
       d="m 254.44814,237.68759 c -19.72441,0 -29.58661,12.26771 -39.44882,24.53543 -9.8622,12.2677 -19.72441,24.53543 -39.44881,24.53543"
       id="path207"
       inkscape:connector-curvature="0"
       style="fill:#000000;fill-opacity:0;fill-rule:evenodd" />
    <path
       d="m 254.44814,237.68758 c -19.7244,0 -29.58661,12.26771 -39.44881,24.53545 -4.9311,6.13385 -9.86221,12.2677 -16.02609,16.8681 -3.08194,2.3002 -6.47206,4.21704 -10.32449,5.55881 -1.92623,0.67089 -3.96799,1.19802 -6.14463,1.5574 -0.27206,0.045 -0.54626,0.0873 -0.82258,0.12689 l -0.14467,0.02"
       id="path209"
       inkscape:connector-curvature="0"
       style="fill-rule:evenodd;stroke:#1c4587;stroke-width:1;stroke-linecap:butt;stroke-linejoin:round" />
    <path
       d="m 181.42558,284.7062 -4.4165,1.95374 4.63908,1.34222 z"
       id="path211"
       inkscape:connector-curvature="0"
       style="fill:#1c4587;fill-rule:evenodd;stroke:#1c4587;stroke-width:1;stroke-linecap:butt" />
    <path
       d="m 254.44814,335.8293 c -19.72441,0 -29.58661,-12.2677 -39.44882,-24.53543 -9.8622,-12.2677 -19.72441,-24.53543 -39.44881,-24.53543"
       id="path213"
       inkscape:connector-curvature="0"
       style="fill:#000000;fill-opacity:0;fill-rule:evenodd" />
    <path
       d="m 254.44814,335.8293 c -19.7244,0 -29.58661,-12.26773 -39.44881,-24.53543 -4.9311,-6.13385 -9.86221,-12.26773 -16.02609,-16.8681 -3.08194,-2.3002 -6.47206,-4.21704 -10.32449,-5.55881 -1.92623,-0.6709 -3.96799,-1.19803 -6.14463,-1.55743 -0.27206,-0.0449 -0.54626,-0.0872 -0.82258,-0.1269 l -0.14467,-0.02"
       id="path215"
       inkscape:connector-curvature="0"
       style="fill-rule:evenodd;stroke:#1c4587;stroke-width:1;stroke-linecap:butt;stroke-linejoin:round" />
    <path
       d="m 181.64816,285.5147 -4.63908,1.34222 4.4165,1.95374 z"
       id="path217"
       inkscape:connector-curvature="0"
       style="fill:#1c4587;fill-rule:evenodd;stroke:#1c4587;stroke-width:1;stroke-linecap:butt" />
    <path
       d="m 254.63257,336.50323 c -17.76117,0 -35.53021,-31.99213 -35.52234,-63.98425 0.008,-31.99213 17.79266,-63.98426 35.58533,-63.98426"
       id="path219"
       inkscape:connector-curvature="0"
       style="fill:#000000;fill-opacity:0;fill-rule:evenodd" />
    <path
       d="m 254.63257,336.50323 c -17.76119,0 -35.53021,-31.99213 -35.52234,-63.98425 0.004,-15.99607 4.4521,-31.99213 11.12337,-43.98917 3.33563,-5.99852 7.22703,-10.9973 11.39657,-14.49643 2.08477,-1.74957 4.23909,-3.12422 6.42821,-4.06149 0.13683,-0.0586 0.27379,-0.11548 0.41086,-0.17061 l 0.33487,-0.13037"
       id="path221"
       inkscape:connector-curvature="0"
       style="fill-rule:evenodd;stroke:#1c4587;stroke-width:1;stroke-linecap:butt;stroke-linejoin:round" />
    <path
       d="m 249.1169,211.29276 4.1432,-2.48119 -4.76876,-0.76249 z"
       id="path223"
       inkscape:connector-curvature="0"
       style="fill:#1c4587;fill-rule:evenodd;stroke:#1c4587;stroke-width:1;stroke-linecap:butt" />
    <path
       d="m 254.63257,238.38766 c -9.189,0 -18.38585,17.07086 -18.37798,34.14172 0.008,17.07087 9.22048,34.14173 18.44097,34.14173"
       id="path225"
       inkscape:connector-curvature="0"
       style="fill:#000000;fill-opacity:0;fill-rule:evenodd" />
    <path
       d="m 254.63257,238.38765 c -9.189,0 -18.38585,17.07086 -18.37798,34.14174 0.004,8.53543 2.30906,17.07086 5.76575,23.47244 1.72835,3.20078 3.74459,5.86811 5.90502,7.73523 0.27006,0.2334 0.54237,0.45429 0.81665,0.66214 0.0686,0.052 0.13726,0.10312 0.20607,0.15344 l 0.10583,0.076"
       id="path227"
       inkscape:connector-curvature="0"
       style="fill-rule:evenodd;stroke:#1c4587;stroke-width:1;stroke-linecap:butt;stroke-linejoin:round" />
    <path
       d="m 248.49164,306.18173 4.82933,-0.008 -3.7048,-3.0979 z"
       id="path229"
       inkscape:connector-curvature="0"
       style="fill:#1c4587;fill-rule:evenodd;stroke:#1c4587;stroke-width:1;stroke-linecap:butt" />
  </g>
</svg>
