<?xml version="1.0" encoding="UTF-8" standalone="no"?>
<svg
   xmlns:dc="http://purl.org/dc/elements/1.1/"
   xmlns:cc="http://creativecommons.org/ns#"
   xmlns:rdf="http://www.w3.org/1999/02/22-rdf-syntax-ns#"
   xmlns:svg="http://www.w3.org/2000/svg"
   xmlns="http://www.w3.org/2000/svg"
   xmlns:sodipodi="http://sodipodi.sourceforge.net/DTD/sodipodi-0.dtd"
   xmlns:inkscape="http://www.inkscape.org/namespaces/inkscape"
   version="1.1"
   viewBox="0 0 505 104.1181"
   stroke-miterlimit="10"
   id="svg221"
   sodipodi:docname="dependency-map-resolver.svg"
   width="505"
   height="104.1181"
   style="fill:none;stroke:none;stroke-linecap:square;stroke-miterlimit:10"
   inkscape:version="0.92.5 (2060ec1f9f, 2020-04-08)">
  <metadata
     id="metadata227">
    <rdf:RDF>
      <cc:Work
         rdf:about="">
        <dc:format>image/svg+xml</dc:format>
        <dc:type
           rdf:resource="http://purl.org/dc/dcmitype/StillImage" />
        <dc:title></dc:title>
      </cc:Work>
    </rdf:RDF>
  </metadata>
  <defs
     id="defs225" />
  <sodipodi:namedview
     pagecolor="#ffffff"
     bordercolor="#666666"
     borderopacity="1"
     objecttolerance="10"
     gridtolerance="10"
     guidetolerance="10"
     inkscape:pageopacity="0"
     inkscape:pageshadow="2"
     inkscape:window-width="1502"
     inkscape:window-height="1048"
     id="namedview223"
     showgrid="false"
     inkscape:zoom="1.4458333"
     inkscape:cx="263.42665"
     inkscape:cy="149.11163"
     inkscape:window-x="72"
     inkscape:window-y="27"
     inkscape:window-maximized="0"
     inkscape:current-layer="g219" />
  <clipPath
     id="g30afa501cbb_0_116.0">
    <path
       d="M 0,0 H 960 V 540 H 0 Z"
       id="path2"
       inkscape:connector-curvature="0"
       style="clip-rule:nonzero" />
  </clipPath>
  <g
     clip-path="url(#g30afa501cbb_0_116.0)"
     id="g219"
     transform="translate(-90.63386,-231.57874)">
    <path
       d="m 91.13386,232.07874 h 504 v 103.1181 h -504 z"
       id="path7"
       inkscape:connector-curvature="0"
       style="fill:#000000;fill-opacity:0;fill-rule:evenodd" />
    <path
       d="m 286.551,254.2546 h 105.44879 v 76.50395 H 286.551 Z"
       id="path63"
       inkscape:connector-curvature="0"
       style="fill:#d9d9d9;fill-rule:evenodd" />
    <path
       d="m 286.551,254.2546 h 105.44879 v 76.50395 H 286.551 Z"
       id="path65"
       inkscape:connector-curvature="0"
       style="fill-rule:evenodd;stroke:#595959;stroke-width:1;stroke-linecap:butt;stroke-linejoin:round" />
    <path
       d="M 286.55096,225.70079 H 391.99978 V 253.5748 H 286.55096 Z"
       id="path67"
       inkscape:connector-curvature="0"
       style="fill:#000000;fill-opacity:0;fill-rule:evenodd" />
    <path
       d="m 293.59558,244.9178 v -0.6875 l 0.79687,-0.17188 q 0.0156,-0.53125 0.0156,-1.14062 0,-0.625 0,-1.07813 v -0.84375 q 0,-0.60937 -0.0156,-0.9375 0,-0.32812 -0.0312,-0.76562 l -0.89062,-0.14063 v -0.5625 l 2.89062,-0.98437 0.25,0.15625 0.0937,1.0625 q 0.51563,-0.60938 1.07813,-0.90625 0.5625,-0.3125 1.20312,-0.3125 1.51563,0 1.95313,1.29687 0.60937,-0.71875 1.17187,-1 0.5625,-0.29687 1.1875,-0.29687 1.125,0 1.625,0.64062 0.51563,0.64063 0.51563,1.95313 v 1.64062 q 0,0.46875 0,1.09375 0,0.60938 0.0156,1.14063 l 0.73438,0.15625 v 0.6875 h -3.78125 v -0.6875 l 0.71875,-0.17188 q 0.0156,-0.53125 0.0156,-1.14062 0,-0.60938 0,-1.07813 v -1.42187 q 0,-0.8125 -0.1875,-1.09375 -0.1875,-0.29688 -0.65625,-0.29688 -0.60937,0 -1.21875,0.53125 0.0156,0.125 0.0156,0.26563 0.0156,0.14062 0.0156,0.29687 v 1.71875 q 0,0.48438 0,1.09375 0,0.60938 0,1.15625 l 0.70313,0.14063 v 0.6875 h -3.78125 v -0.6875 l 0.75,-0.17188 q 0.0156,-0.53125 0.0156,-1.14062 0,-0.60938 0,-1.07813 v -1.40625 q 0,-0.78125 -0.1875,-1.09375 -0.17187,-0.3125 -0.65625,-0.3125 -0.3125,0 -0.625,0.15625 -0.29687,0.14063 -0.57812,0.375 v 2.28125 q 0,0.45313 0,1.07813 0,0.625 0.0156,1.17187 l 0.6875,0.14063 v 0.6875 z m 18.86249,0.20312 q -1.26563,0 -1.60938,-1.04687 -0.46875,0.48437 -0.90625,0.78125 -0.42187,0.28125 -1.1875,0.28125 -0.84375,0 -1.39062,-0.48438 -0.53125,-0.48437 -0.53125,-1.39062 0,-0.53125 0.23437,-0.95313 0.23438,-0.42187 0.84375,-0.78125 0.625,-0.375 1.75,-0.70312 0.21875,-0.0625 0.51563,-0.14063 0.29687,-0.0781 0.59375,-0.14062 v -0.48438 q 0,-0.98437 -0.25,-1.32812 -0.23438,-0.35938 -0.9375,-0.35938 -0.0937,0 -0.1875,0 -0.0781,0 -0.20313,0.0156 l -0.0781,0.64062 q -0.0156,0.71875 -0.32813,1.04688 -0.3125,0.3125 -0.73437,0.3125 -0.8125,0 -0.98438,-0.73438 0.0625,-0.90625 0.92188,-1.46875 0.875,-0.57812 2.45312,-0.57812 1.40625,0 2.01563,0.64062 0.60937,0.64063 0.60937,2.125 v 3.28125 q 0,0.4375 0.3125,0.4375 0.125,0 0.21875,-0.0625 0.10938,-0.0781 0.23438,-0.26562 l 0.39062,0.26562 q -0.26562,0.57813 -0.6875,0.84375 -0.42187,0.25 -1.07812,0.25 z m -3.45313,-2.23437 q 0,0.53125 0.25,0.79687 0.26563,0.26563 0.625,0.26563 0.17188,0 0.34375,-0.0625 0.17188,-0.0781 0.54688,-0.34375 v -2.375 q -0.1875,0.0625 -0.375,0.125 -0.17188,0.0625 -0.3125,0.125 -0.5,0.20312 -0.79688,0.57812 -0.28125,0.375 -0.28125,0.89063 z m 5.28604,5.35937 v -0.6875 l 0.82813,-0.17187 q 0.0156,-0.70313 0.0156,-1.29688 0.0156,-0.57812 0.0156,-1.125 v -3.96875 q 0,-0.60937 -0.0156,-0.9375 0,-0.32812 -0.0312,-0.76562 l -0.90625,-0.14063 v -0.5625 l 2.85938,-0.98437 0.25,0.14062 0.0625,0.82813 q 0.92187,-0.96875 2.17187,-0.96875 0.8125,0 1.45313,0.42187 0.64062,0.42188 1.03125,1.26563 0.39062,0.82812 0.39062,2.04687 0,1.17188 -0.4375,2.03125 -0.4375,0.85938 -1.15625,1.3125 -0.70312,0.45313 -1.54687,0.45313 -1.125,0 -1.84375,-0.76563 v 0.57813 q 0,0.54687 0,1.125 0.0156,0.59375 0.0312,1.26562 l 0.9375,0.21875 v 0.6875 z m 4.1875,-9.35937 q -0.28125,0 -0.53125,0.125 -0.23437,0.10937 -0.46875,0.28125 v 4.25 q 0.4375,0.35937 0.95313,0.35937 0.65625,0 1.0625,-0.60937 0.42187,-0.625 0.42187,-1.92188 0,-1.29687 -0.40625,-1.89062 -0.39062,-0.59375 -1.03125,-0.59375 z m 4.10337,7.34375 v -1.3125 h 6.71875 v 1.3125 z m 7.69662,-1.3125 v -0.6875 l 0.8125,-0.15625 q 0.0156,-0.54688 0.0156,-1.15625 0,-0.625 0,-1.07813 v -0.85937 q 0,-0.42188 -0.0156,-0.67188 0,-0.26562 -0.0156,-0.48437 0,-0.23438 -0.0156,-0.53125 l -0.89062,-0.14063 v -0.5625 l 2.89062,-0.98437 0.25,0.15625 0.14063,1.73437 q 0.3125,-0.9375 0.85937,-1.40625 0.5625,-0.48437 1.10938,-0.48437 0.48437,0 0.82812,0.28125 0.35938,0.26562 0.4375,0.79687 -0.0156,0.57813 -0.3125,0.89063 -0.28125,0.3125 -0.71875,0.3125 -0.625,0 -1.14062,-0.6875 l -0.0781,-0.10938 q -0.32812,0.29688 -0.60937,0.76563 -0.26563,0.46875 -0.375,0.98437 v 1 q 0,0.45313 0,1.04688 0,0.57812 0.0156,1.09375 l 1.15625,0.25 v 0.6875 z m 10.22211,-6.54688 q -0.40625,0 -0.75,0.5 -0.34375,0.5 -0.39063,1.85938 h 1.23438 q 0.53125,0 0.71875,-0.20313 0.1875,-0.21875 0.1875,-0.71875 0,-0.73437 -0.29688,-1.07812 -0.29687,-0.35938 -0.70312,-0.35938 z m 0.0312,6.76563 q -1.07813,0 -1.90625,-0.4375 -0.8125,-0.45313 -1.28125,-1.29688 -0.46875,-0.84375 -0.46875,-2.01562 0,-1.23438 0.54687,-2.07813 0.5625,-0.84375 1.42188,-1.26562 0.85937,-0.4375 1.79687,-0.4375 0.96875,0 1.64063,0.40625 0.6875,0.40625 1.03125,1.10937 0.35937,0.70313 0.35937,1.59375 0,0.42188 -0.0781,0.78125 h -4.23438 q 0.0625,1.15625 0.625,1.70313 0.57813,0.54687 1.32813,0.54687 0.60937,0 1.03125,-0.21875 0.42187,-0.23437 0.75,-0.57812 l 0.51562,0.46875 q -0.45312,0.875 -1.23437,1.29687 -0.78125,0.42188 -1.84375,0.42188 z m 6.54221,0 q -1.39063,0 -2.54688,-0.67188 l 0.0469,-1.79687 h 1.17187 l 0.25,1.45312 q 0.26563,0.10938 0.53125,0.15625 0.26563,0.0469 0.5625,0.0469 0.64063,0 0.96875,-0.20313 0.34375,-0.21875 0.34375,-0.65625 0,-0.32812 -0.25,-0.57812 -0.25,-0.25 -0.98437,-0.45313 l -0.79688,-0.23437 q -0.84375,-0.25 -1.3125,-0.8125 -0.45312,-0.5625 -0.45312,-1.375 0,-1.01563 0.78125,-1.70313 0.79687,-0.70312 2.28125,-0.70312 0.64062,0 1.1875,0.15625 0.54687,0.15625 1.125,0.4375 l -0.0937,1.60937 h -1.1875 l -0.28125,-1.26562 q -0.3125,-0.125 -0.8125,-0.125 -0.5,0 -0.79688,0.21875 -0.29687,0.20312 -0.29687,0.60937 0,0.29688 0.23437,0.53125 0.23438,0.21875 1,0.45313 l 0.71875,0.20312 q 1.03125,0.3125 1.48438,0.89063 0.45312,0.5625 0.45312,1.375 0,1.15625 -0.89062,1.79687 -0.875,0.64063 -2.4375,0.64063 z m 7.82485,0 q -1.14062,0 -1.98437,-0.46875 -0.82813,-0.48438 -1.28125,-1.34375 -0.45313,-0.85938 -0.45313,-1.98438 0,-1.125 0.48438,-1.95312 0.5,-0.84375 1.34375,-1.3125 0.85937,-0.46875 1.89062,-0.46875 1.04688,0 1.89063,0.45312 0.84375,0.45313 1.34375,1.29688 0.5,0.84375 0.5,1.98437 0,1.14063 -0.45313,2 -0.45312,0.84375 -1.29687,1.32813 -0.82813,0.46875 -1.98438,0.46875 z m 0,-0.76563 q 0.625,0 0.92188,-0.71875 0.3125,-0.71875 0.3125,-2.26562 0,-1.5625 -0.3125,-2.28125 -0.29688,-0.71875 -0.92188,-0.71875 -0.625,0 -0.9375,0.71875 -0.29687,0.71875 -0.29687,2.28125 0,1.54687 0.29687,2.26562 0.3125,0.71875 0.9375,0.71875 z m 4.4712,0.54688 v -0.6875 l 0.8125,-0.17188 q 0.0156,-0.5625 0.0156,-1.10937 0.0156,-0.5625 0.0156,-1.10938 v -6.14062 l -0.90625,-0.14063 v -0.625 l 3.07812,-0.65625 0.23438,0.14063 -0.0625,2.0625 v 5.35937 q 0,0.5625 0,1.125 0.0156,0.54688 0.0312,1.10938 l 0.79687,0.15625 v 0.6875 z m 9.07168,-6.4375 v -0.64063 h 2.78125 v 0.64063 l -0.85937,0.17187 -2.40625,6.29688 h -1.125 l -2.64063,-6.3125 -0.71875,-0.15625 v -0.64063 h 4.17188 v 0.64063 l -0.92188,0.1875 1.375,3.76562 1.28125,-3.78125 z m 6.51538,-0.10938 q -0.40625,0 -0.75,0.5 -0.34375,0.5 -0.39062,1.85938 h 1.23437 q 0.53125,0 0.71875,-0.20313 0.1875,-0.21875 0.1875,-0.71875 0,-0.73437 -0.29687,-1.07812 -0.29688,-0.35938 -0.70313,-0.35938 z m 0.0312,6.76563 q -1.07812,0 -1.90625,-0.4375 -0.8125,-0.45313 -1.28125,-1.29688 -0.46875,-0.84375 -0.46875,-2.01562 0,-1.23438 0.54688,-2.07813 0.5625,-0.84375 1.42187,-1.26562 0.85938,-0.4375 1.79688,-0.4375 0.96875,0 1.64062,0.40625 0.6875,0.40625 1.03125,1.10937 0.35938,0.70313 0.35938,1.59375 0,0.42188 -0.0781,0.78125 h -4.23437 q 0.0625,1.15625 0.625,1.70313 0.57812,0.54687 1.32812,0.54687 0.60938,0 1.03125,-0.21875 0.42188,-0.23437 0.75,-0.57812 l 0.51563,0.46875 q -0.45313,0.875 -1.23438,1.29687 -0.78125,0.42188 -1.84375,0.42188 z m 3.94846,-0.21875 v -0.6875 l 0.8125,-0.15625 q 0.0156,-0.54688 0.0156,-1.15625 0,-0.625 0,-1.07813 v -0.85937 q 0,-0.42188 -0.0156,-0.67188 0,-0.26562 -0.0156,-0.48437 0,-0.23438 -0.0156,-0.53125 l -0.89063,-0.14063 v -0.5625 l 2.89063,-0.98437 0.25,0.15625 0.14062,1.73437 q 0.3125,-0.9375 0.85938,-1.40625 0.5625,-0.48437 1.10937,-0.48437 0.48438,0 0.82813,0.28125 0.35937,0.26562 0.4375,0.79687 -0.0156,0.57813 -0.3125,0.89063 -0.28125,0.3125 -0.71875,0.3125 -0.625,0 -1.14063,-0.6875 l -0.0781,-0.10938 q -0.32813,0.29688 -0.60938,0.76563 -0.26562,0.46875 -0.375,0.98437 v 1 q 0,0.45313 0,1.04688 0,0.57812 0.0156,1.09375 l 1.15625,0.25 v 0.6875 z"
       id="path69"
       inkscape:connector-curvature="0"
       style="fill:#202122;fill-rule:nonzero" />
    <path
       d="M 286.51782,281.5169 H 392.02963"
       id="path71"
       inkscape:connector-curvature="0"
       style="fill:#000000;fill-opacity:0;fill-rule:evenodd" />
    <path
       d="M 286.51782,281.5169 H 386.0296"
       id="path73"
       inkscape:connector-curvature="0"
       style="fill-rule:evenodd;stroke:#595959;stroke-width:1;stroke-linecap:butt;stroke-linejoin:round" />
    <path
       d="m 386.0296,283.16864 4.53812,-1.65173 -4.53812,-1.65174 z"
       id="path75"
       inkscape:connector-curvature="0"
       style="fill:#595959;fill-rule:evenodd;stroke:#595959;stroke-width:1;stroke-linecap:butt" />
    <path
       d="M 392.0866,311.36334 H 368.71651"
       id="path77"
       inkscape:connector-curvature="0"
       style="fill:#000000;fill-opacity:0;fill-rule:evenodd" />
    <path
       d="M 392.0866,311.36334 H 374.71651"
       id="path79"
       inkscape:connector-curvature="0"
       style="fill-rule:evenodd;stroke:#1c4587;stroke-width:1;stroke-linecap:butt;stroke-linejoin:round" />
    <path
       d="m 374.71652,309.7116 -4.53809,1.65173 4.53809,1.65174 z"
       id="path81"
       inkscape:connector-curvature="0"
       style="fill:#1c4587;fill-rule:evenodd;stroke:#1c4587;stroke-width:1;stroke-linecap:butt" />
    <path
       d="m 309.8504,302.0721 v 0 c 0,-2.5658 2.07996,-4.64575 4.64575,-4.64575 h 49.57462 c 1.23214,0 2.41382,0.48944 3.28506,1.36069 0.87125,0.87124 1.36069,2.05291 1.36069,3.28506 v 18.58249 c 0,2.56579 -2.07996,4.64575 -4.64575,4.64575 h -49.57462 c -2.56579,0 -4.64575,-2.07995 -4.64575,-4.64575 z"
       id="path83"
       inkscape:connector-curvature="0"
       style="fill:#000000;fill-opacity:0;fill-rule:evenodd" />
    <path
       d="m 309.8504,302.0721 v 0 c 0,-2.5658 2.07996,-4.64575 4.64575,-4.64575 h 49.57462 c 1.23214,0 2.41382,0.48944 3.28506,1.36069 0.87125,0.87124 1.36069,2.05291 1.36069,3.28506 v 18.58249 c 0,2.56579 -2.07996,4.64575 -4.64575,4.64575 h -49.57462 c -2.56579,0 -4.64575,-2.07995 -4.64575,-4.64575 z"
       id="path85"
       inkscape:connector-curvature="0"
       style="fill-rule:evenodd;stroke:#595959;stroke-width:1;stroke-linecap:butt;stroke-linejoin:round" />
    <path
       d="m 337.40878,316.16336 v -0.48438 l 1.04687,-0.1875 q 0.0156,-0.53125 0.0156,-1.0625 0.0156,-0.53125 0.0156,-1.0625 v -2.82812 h -1.10937 v -0.57813 l 1.14062,-0.15625 q 0.0781,-1.0625 0.28125,-1.71875 0.21875,-0.67187 0.70313,-1.15625 0.4375,-0.42187 0.89062,-0.57812 0.46875,-0.17188 0.92188,-0.17188 0.46875,0 0.82812,0.17188 0.35938,0.15625 0.45313,0.54687 0,0.25 -0.21875,0.4375 -0.21875,0.17188 -0.59375,0.17188 -0.46875,0 -0.95313,-0.40625 l -0.375,-0.29688 q -0.0469,0.0469 -0.0937,0.0937 -0.0469,0.0312 -0.0937,0.0625 -0.34375,0.35938 -0.53125,1.0625 -0.17187,0.6875 -0.14062,1.8125 h 1.82812 v 0.70313 h -1.8125 v 2.82812 q 0,0.53125 0,1.0625 0.0156,0.51563 0.0312,1.04688 l 1.20313,0.20312 v 0.48438 z"
       id="path87"
       inkscape:connector-curvature="0"
       style="fill:#202122;fill-rule:nonzero" />
    <path
       d="M 309.8504,311.36334 H 286.5433"
       id="path89"
       inkscape:connector-curvature="0"
       style="fill:#000000;fill-opacity:0;fill-rule:evenodd" />
    <path
       d="M 309.8504,311.36334 H 292.5433"
       id="path91"
       inkscape:connector-curvature="0"
       style="fill-rule:evenodd;stroke:#1c4587;stroke-width:1;stroke-linecap:butt;stroke-linejoin:round" />
    <path
       d="m 292.5433,309.7116 -4.53809,1.65173 4.53809,1.65174 z"
       id="path93"
       inkscape:connector-curvature="0"
       style="fill:#1c4587;fill-rule:evenodd;stroke:#1c4587;stroke-width:1;stroke-linecap:butt" />
    <path
       d="m 392.0211,261.96588 h 83.71652 v 14.86615 H 392.0211 Z"
       id="path95"
       inkscape:connector-curvature="0"
       style="fill:#000000;fill-opacity:0;fill-rule:evenodd" />
    <path
       d="m 400.73984,273.83514 q -0.78125,0 -1.51562,-0.29687 -0.71875,-0.3125 -1.3125,-0.89063 -0.57813,-0.59375 -0.92188,-1.45312 -0.34375,-0.875 -0.34375,-2.03125 0,-1.09375 0.34375,-1.95313 0.34375,-0.875 0.92188,-1.46875 0.59375,-0.59375 1.3125,-0.90625 0.73437,-0.3125 1.51562,-0.3125 0.76563,0 1.48438,0.29688 0.73437,0.29687 1.3125,0.89062 0.59375,0.57813 0.9375,1.45313 0.34375,0.85937 0.34375,2 0,1.09375 -0.34375,1.96875 -0.34375,0.85937 -0.92188,1.46875 -0.57812,0.60937 -1.3125,0.92187 -0.73437,0.3125 -1.5,0.3125 z m 0,-0.67187 q 0.6875,0 1.1875,-0.32813 0.5,-0.34375 0.8125,-0.90625 0.3125,-0.57812 0.45313,-1.28125 0.15625,-0.71875 0.15625,-1.48437 0,-0.75 -0.15625,-1.45313 -0.14063,-0.71875 -0.45313,-1.28125 -0.3125,-0.57812 -0.8125,-0.90625 -0.5,-0.34375 -1.1875,-0.34375 -0.6875,0 -1.1875,0.34375 -0.5,0.32813 -0.82812,0.90625 -0.3125,0.5625 -0.46875,1.28125 -0.15625,0.70313 -0.15625,1.45313 0,0.76562 0.15625,1.48437 0.15625,0.70313 0.46875,1.28125 0.32812,0.5625 0.82812,0.90625 0.5,0.32813 1.1875,0.32813 z m 5.17294,3.65625 v -0.46875 l 1.0625,-0.1875 q 0.0156,-0.54688 0.0156,-1.09375 0.0156,-0.53125 0.0156,-1.0625 v -3.8125 q 0,-0.54688 -0.0156,-0.90625 0,-0.35938 -0.0312,-0.76563 l -1.04688,-0.10937 v -0.46875 l 1.85938,-0.8125 0.20312,0.125 0.0781,0.875 q 0.95312,-1 2.01562,-1 0.71875,0 1.28125,0.40625 0.57813,0.39062 0.92188,1.14062 0.34375,0.73438 0.34375,1.76563 0,1.03125 -0.35938,1.78125 -0.35937,0.75 -0.98437,1.17187 -0.60938,0.40625 -1.40625,0.40625 -0.45313,0 -0.90625,-0.1875 -0.4375,-0.1875 -0.85938,-0.67187 v 1.04687 q 0,0.53125 0,1.0625 0.0156,0.54688 0.0156,1.09375 l 1.21875,0.20313 v 0.46875 z m 3.84375,-8.9375 q -0.3125,0 -0.71875,0.15625 -0.39062,0.15625 -0.90625,0.57812 v 3.75 q 0.375,0.35938 0.73438,0.51563 0.35937,0.15625 0.73437,0.15625 0.75,0 1.28125,-0.59375 0.53125,-0.59375 0.53125,-1.89063 0,-1.28125 -0.46875,-1.96875 -0.46875,-0.70312 -1.1875,-0.70312 z m 6.05881,5.92187 q -0.6875,0 -1.10937,-0.375 -0.40625,-0.375 -0.40625,-1.14062 0,-0.25 0,-0.5 0,-0.25 0,-0.64063 v -3.14062 h -1.09375 v -0.57813 l 1.1875,-0.15625 0.34375,-1.78125 h 0.79687 l -0.0781,1.8125 h 1.79687 v 0.70313 h -1.8125 v 4.125 q 0,0.51562 0.20313,0.75 0.20312,0.23437 0.53125,0.23437 0.21875,0 0.42187,-0.0937 0.21875,-0.0937 0.46875,-0.26562 l 0.32813,0.34375 q -0.54688,0.70312 -1.57813,0.70312 z m 2.36285,-4.25 v -0.625 l 5.15625,-3 0.39063,0.71875 -4.625,2.59375 4.625,2.59375 -0.39063,0.71875 z m 10.24909,-4.21875 h -0.8125 q 0,0.84375 -0.0156,1.73438 0,0.89062 0,1.78125 v 0.64062 h 0.875 q 1.21875,0 1.73438,-0.59375 0.51562,-0.59375 0.51562,-1.53125 0,-0.96875 -0.5625,-1.5 -0.54687,-0.53125 -1.73437,-0.53125 z m -3.34375,-0.0781 v -0.54688 h 3.57812 q 1.6875,0 2.53125,0.75 0.85938,0.73438 0.85938,1.90625 0,0.75 -0.375,1.375 -0.375,0.625 -1.20313,1 -0.8125,0.375 -2.1875,0.375 h -0.6875 q 0,0.71875 0,1.42188 0.0156,0.6875 0.0156,1.40625 l 1.25,0.14062 v 0.54688 h -3.78125 v -0.54688 l 1.21875,-0.14062 q 0.0312,-0.84375 0.0312,-1.70313 0,-0.875 0,-1.73437 v -0.65625 q 0,-0.875 0,-1.73438 0,-0.85937 -0.0312,-1.70312 z m 13.569,3.67187 v 0.625 l -5.15625,3 -0.39063,-0.71875 4.625,-2.59375 -4.625,-2.59375 0.39063,-0.71875 z"
       id="path97"
       inkscape:connector-curvature="0"
       style="fill:#202122;fill-rule:nonzero" />
    <path
       d="m 392.0211,290.78232 h 83.71652 v 14.86615 H 392.0211 Z"
       id="path99"
       inkscape:connector-curvature="0"
       style="fill:#000000;fill-opacity:0;fill-rule:evenodd" />
    <path
       d="m 400.30234,294.15158 h -1.15625 q 0,0.875 -0.0156,1.75 0,0.875 0,1.8125 h 1.01562 q 1.09375,0 1.59375,-0.51562 0.51563,-0.51563 0.51563,-1.32813 0,-0.82812 -0.46875,-1.26562 -0.46875,-0.45313 -1.48438,-0.45313 z m -3.6875,-0.0781 v -0.54688 h 3.71875 q 1.53125,0 2.39063,0.625 0.85937,0.60938 0.85937,1.71875 0,0.76563 -0.5625,1.40625 -0.5625,0.64063 -1.6875,0.84375 0.59375,0.10938 0.96875,0.51563 0.375,0.39062 0.60938,1.17187 l 0.57812,1.96875 1.01563,0.125 v 0.54688 q -0.1875,0.0469 -0.4375,0.0937 -0.25,0.0469 -0.5625,0.0469 -0.625,0 -0.9375,-0.1875 -0.3125,-0.1875 -0.42188,-0.67187 l -0.54687,-2.14063 q -0.10938,-0.54687 -0.34375,-0.8125 -0.21875,-0.26562 -0.57813,-0.35937 -0.34375,-0.0937 -0.89062,-0.0937 h -0.65625 q 0,0.95312 0,1.79687 0.0156,0.82813 0.0156,1.64063 l 1.23438,0.14062 v 0.54688 h -3.76563 v -0.54688 l 1.21875,-0.14062 q 0.0312,-0.84375 0.0312,-1.70313 0,-0.875 0,-1.73437 v -0.65625 q 0,-0.875 0,-1.73438 0,-0.85937 -0.0312,-1.70312 z m 11.52762,2.48437 q -0.35938,0 -0.75,0.21875 -0.375,0.20313 -0.65625,0.67188 -0.26563,0.46875 -0.34375,1.23437 h 2.42187 q 0.48438,0 0.625,-0.1875 0.15625,-0.20312 0.15625,-0.5 0,-0.39062 -0.1875,-0.70312 -0.1875,-0.32813 -0.51562,-0.53125 -0.32813,-0.20313 -0.75,-0.20313 z m 0,6.0625 q -1.35938,0 -2.17188,-0.875 -0.8125,-0.875 -0.8125,-2.40625 0,-1.01562 0.42188,-1.78125 0.42187,-0.76562 1.125,-1.1875 0.70312,-0.42187 1.53125,-0.42187 0.6875,0 1.25,0.3125 0.5625,0.29687 0.89062,0.85937 0.32813,0.5625 0.32813,1.39063 0,0.21875 -0.0312,0.42187 -0.0156,0.1875 -0.0625,0.3125 h -4.25 q 0.0312,1.23438 0.60937,1.875 0.59375,0.64063 1.54688,0.64063 0.64062,0 1.0625,-0.26563 0.4375,-0.26562 0.79687,-0.67187 l 0.3125,0.25 q -0.375,0.70312 -1.01562,1.125 -0.625,0.42187 -1.53125,0.42187 z m 8.63272,-0.0312 q -0.48438,0 -0.8125,-0.28125 -0.3125,-0.28125 -0.39063,-0.75 -0.54687,0.53125 -0.96875,0.79688 -0.40625,0.26562 -0.98437,0.26562 -0.73438,0 -1.26563,-0.42187 -0.53125,-0.42188 -0.53125,-1.25 0,-0.375 0.17188,-0.70313 0.1875,-0.34375 0.67187,-0.65625 0.48438,-0.32812 1.375,-0.64062 0.3125,-0.10938 0.70313,-0.23438 0.40625,-0.125 0.79687,-0.20312 v -0.34375 q 0,-0.96875 -0.29687,-1.28125 -0.28125,-0.32813 -0.95313,-0.32813 -0.14062,0 -0.32812,0.0156 -0.17188,0.0156 -0.39063,0.0625 l -0.25,0.875 q -0.1875,0.625 -0.6875,0.625 -0.5625,0 -0.64062,-0.53125 0.1875,-0.76563 0.89062,-1.20313 0.70313,-0.45312 1.71875,-0.45312 1.04688,0 1.54688,0.53125 0.51562,0.51562 0.51562,1.78125 v 2.84375 q 0,0.42187 0.125,0.60937 0.14063,0.17188 0.35938,0.17188 0.17187,0 0.28125,-0.0781 0.125,-0.0781 0.23437,-0.21875 l 0.26563,0.29688 q -0.23438,0.39062 -0.53125,0.54687 -0.28125,0.15625 -0.625,0.15625 z m -3.76563,-1.82812 q 0,0.53125 0.3125,0.76562 0.3125,0.21875 0.76563,0.21875 0.1875,0 0.35937,-0.0469 0.1875,-0.0625 0.4375,-0.21875 0.26563,-0.15625 0.65625,-0.4375 v -2.04688 q -0.34375,0.0937 -0.67187,0.21875 -0.32813,0.10938 -0.54688,0.1875 -0.57812,0.21875 -0.85937,0.46875 -0.28125,0.23438 -0.375,0.46875 -0.0781,0.21875 -0.0781,0.42188 z m 6.79963,-1.4375 q 0,1.29687 0.53125,1.92187 0.53125,0.60938 1.32812,0.60938 0.4375,0 0.76563,-0.17188 0.34375,-0.1875 0.71875,-0.59375 v -3.6875 q -0.45313,-0.40625 -0.8125,-0.54687 -0.35938,-0.15625 -0.6875,-0.15625 -0.5,0 -0.92188,0.28125 -0.40625,0.26562 -0.67187,0.85937 -0.25,0.57813 -0.25,1.48438 z m 3.48437,3.26562 -0.0937,-0.92187 q -0.34375,0.45312 -0.79687,0.70312 -0.45313,0.25 -1.07813,0.25 -0.8125,0 -1.42187,-0.40625 -0.60938,-0.42187 -0.95313,-1.15625 -0.34375,-0.73437 -0.34375,-1.71875 0,-1.01562 0.375,-1.78125 0.375,-0.76562 1.01563,-1.1875 0.64062,-0.42187 1.45312,-0.42187 0.46875,0 0.89063,0.1875 0.4375,0.1875 0.85937,0.67187 v -3.01562 l -1.14062,-0.125 v -0.46875 l 2.07812,-0.59375 0.1875,0.0937 -0.0469,1.90625 v 7.20312 l 1.07812,0.15625 v 0.48438 z m 6.36121,-5.98437 v -0.48438 h 2.60937 v 0.48438 l -0.71875,0.14062 -2.15625,5.65625 q -0.65625,1.78125 -1.28125,2.5625 -0.625,0.79688 -1.45312,0.79688 -0.48438,0 -0.85938,-0.25 -0.35937,-0.23438 -0.35937,-0.625 0.0625,-0.29688 0.32812,-0.4375 0.26563,-0.14063 0.5625,-0.14063 0.26563,0 0.48438,0.10938 0.23437,0.10937 0.5,0.39062 l 0.0781,0.0625 q 0.42188,-0.35937 0.70313,-0.875 0.29687,-0.5 0.48437,-1.04687 l 0.0625,-0.15625 -2.42187,-6.09375 -0.73438,-0.0937 v -0.48438 h 3.20313 v 0.48438 l -1.17188,0.14062 1.67188,4.54688 1.64062,-4.53125 z m 3.37085,1.76562 v -0.625 l 5.15625,-3 0.39062,0.71875 -4.625,2.59375 4.625,2.59375 -0.39062,0.71875 z m 6.90533,-4.29687 v -0.54688 h 6.625 l 0.0937,2.35938 h -0.75 l -0.29687,-1.6875 h -3.14063 q 0,0.85937 -0.0156,1.71875 0,0.84375 0,1.67187 h 1.95312 l 0.1875,-1.26562 h 0.60938 v 3.14062 h -0.60938 l -0.17187,-1.25 h -1.96875 q 0,1 0,1.875 0.0156,0.85938 0.0156,1.6875 h 3.40625 l 0.29688,-1.70312 h 0.75 l -0.0937,2.375 h -6.89063 v -0.54688 l 1.21875,-0.14062 q 0.0312,-0.84375 0.0312,-1.70313 0,-0.875 0,-1.73437 v -0.65625 q 0,-0.875 0,-1.73438 0,-0.85937 -0.0312,-1.70312 z m 11.72434,0.0781 h -1.15625 q 0,0.875 -0.0156,1.75 0,0.875 0,1.8125 h 1.01563 q 1.09375,0 1.59375,-0.51562 0.51562,-0.51563 0.51562,-1.32813 0,-0.82812 -0.46875,-1.26562 -0.46875,-0.45313 -1.48437,-0.45313 z m -3.6875,-0.0781 v -0.54688 h 3.71875 q 1.53125,0 2.39062,0.625 0.85938,0.60938 0.85938,1.71875 0,0.76563 -0.5625,1.40625 -0.5625,0.64063 -1.6875,0.84375 0.59375,0.10938 0.96875,0.51563 0.375,0.39062 0.60937,1.17187 l 0.57813,1.96875 1.01562,0.125 v 0.54688 q -0.1875,0.0469 -0.4375,0.0937 -0.25,0.0469 -0.5625,0.0469 -0.625,0 -0.9375,-0.1875 -0.3125,-0.1875 -0.42187,-0.67187 l -0.54688,-2.14063 q -0.10937,-0.54687 -0.34375,-0.8125 -0.21875,-0.26562 -0.57812,-0.35937 -0.34375,-0.0937 -0.89063,-0.0937 h -0.65625 q 0,0.95312 0,1.79687 0.0156,0.82813 0.0156,1.64063 l 1.23437,0.14062 v 0.54688 h -3.76562 v -0.54688 l 1.21875,-0.14062 q 0.0312,-0.84375 0.0312,-1.70313 0,-0.875 0,-1.73437 v -0.65625 q 0,-0.875 0,-1.73438 0,-0.85937 -0.0312,-1.70312 z m 14.39532,3.67187 v 0.625 l -5.15625,3 -0.39062,-0.71875 4.625,-2.59375 -4.625,-2.59375 0.39062,-0.71875 z"
       id="path101"
       inkscape:connector-curvature="0"
       style="fill:#202122;fill-rule:nonzero" />
    <path
       d="m 471.5538,280.53806 h 126.26773 v 23.93701 H 471.5538 Z"
       id="path103"
       inkscape:connector-curvature="0"
       style="fill:#000000;fill-opacity:0;fill-rule:evenodd" />
    <path
       d="m 476.03818,289.4428 v -0.78125 h 4.71875 v 0.78125 l -1.09375,0.125 q -0.0156,0.89062 -0.0312,1.79687 0,0.90625 0,1.84375 v 0.51563 q 0,0.90625 0,1.82812 0.0156,0.92188 0.0312,1.82813 l 1.09375,0.10937 v 0.79688 h -4.71875 v -0.79688 l 1.09375,-0.10937 q 0.0312,-0.89063 0.0312,-1.79688 0,-0.92187 0,-1.84375 v -0.53125 q 0,-0.92187 0,-1.82812 0,-0.92188 -0.0312,-1.8125 z m 5.76477,4.65625 v -1.10938 l 6.125,-3.15625 0.625,1.25 -5.03125,2.45313 5.03125,2.46875 -0.625,1.25 z m 13.89493,-4.6875 v -0.75 h 3.17187 v 0.78125 l -1.09375,0.1875 -3.01562,8.6875 h -1.42188 l -3.15625,-8.78125 -0.84375,-0.0937 v -0.78125 h 4.71875 v 0.75 l -1.25,0.15625 2,6.03125 2.03125,-6 z m 2.61139,8.875 v -0.6875 l 0.8125,-0.15625 q 0.0156,-0.54688 0.0156,-1.15625 0,-0.625 0,-1.07813 v -0.85937 q 0,-0.42188 -0.0156,-0.67188 0,-0.26562 -0.0156,-0.48437 0,-0.23438 -0.0156,-0.53125 l -0.89063,-0.14063 v -0.5625 l 2.89063,-0.98437 0.25,0.15625 0.14062,1.73437 q 0.3125,-0.9375 0.85938,-1.40625 0.5625,-0.48437 1.10937,-0.48437 0.48438,0 0.82813,0.28125 0.35937,0.26562 0.4375,0.79687 -0.0156,0.57813 -0.3125,0.89063 -0.28125,0.3125 -0.71875,0.3125 -0.625,0 -1.14063,-0.6875 l -0.0781,-0.10938 q -0.32813,0.29688 -0.60938,0.76563 -0.26562,0.46875 -0.375,0.98437 v 1 q 0,0.45313 0,1.04688 0,0.57812 0.0156,1.09375 l 1.15625,0.25 v 0.6875 z m 12.13794,-8.84375 v -0.78125 h 4.64062 v 0.78125 l -1.09375,0.125 q -0.0156,0.89062 -0.0312,1.79687 0,0.90625 0,1.84375 v 0.53125 q 0,0.89063 0,1.8125 0.0156,0.92188 0.0312,1.82813 l 1.09375,0.10937 v 0.79688 h -4.64062 v -0.79688 l 1.03125,-0.0937 q 0.0312,-0.90625 0.0312,-1.8125 0,-0.92187 0,-1.8125 h -3.125 q 0,0.98438 0,1.875 0.0156,0.875 0.0312,1.75 l 1.01562,0.0937 v 0.79688 h -4.60937 v -0.79688 l 1.0625,-0.10937 q 0.0312,-0.89063 0.0312,-1.79688 0,-0.92187 0,-1.84375 v -0.53125 q 0,-0.92187 0,-1.82812 0,-0.90625 -0.0312,-1.8125 l -1.0625,-0.125 v -0.78125 h 4.60937 v 0.78125 l -1.01562,0.10937 q -0.0156,0.89063 -0.0312,1.78125 0,0.875 0,1.57813 h 3.125 q 0,-0.84375 0,-1.6875 0,-0.84375 -0.0312,-1.67188 z m 5.66522,4.65625 v -1.10938 l 6.125,-3.15625 0.625,1.25 -5.03125,2.45313 5.03125,2.46875 -0.625,1.25 z m 11.84802,-4.59375 h -0.32812 q -0.0156,0.90625 -0.0312,1.82812 0,0.92188 0,1.875 v 0.57813 h 0.42187 q 0.96875,0 1.45313,-0.625 0.48437,-0.625 0.48437,-1.60938 0,-1.01562 -0.53125,-1.53125 -0.51562,-0.51562 -1.46875,-0.51562 z m -3.95312,-0.0625 v -0.78125 h 3.98437 q 1.53125,0 2.46875,0.35937 0.9375,0.35938 1.35938,1.01563 0.4375,0.64062 0.4375,1.51562 0,0.84375 -0.40625,1.54688 -0.40625,0.6875 -1.32813,1.10937 -0.92187,0.40625 -2.51562,0.40625 h -0.40625 q 0,0.625 0,1.32813 0.0156,0.6875 0.0312,1.42187 l 1.29687,0.125 v 0.79688 h -4.92187 v -0.79688 l 1.09375,-0.10937 q 0.0312,-0.89063 0.0312,-1.79688 0,-0.92187 0,-1.84375 v -0.53125 q 0,-0.92187 0,-1.82812 0,-0.92188 -0.0312,-1.8125 z m 10.19494,8.01562 q 0,1 -0.46875,1.78125 -0.45312,0.78125 -1.15625,1.28125 -0.6875,0.5 -1.39062,0.71875 l -0.20313,-0.60937 q 0.73438,-0.375 1.20313,-0.89063 0.48437,-0.51562 0.75,-1.09375 l -0.51563,-0.26562 q -0.45312,-0.25 -0.64062,-0.57813 -0.1875,-0.34375 -0.1875,-0.65625 0,-0.54687 0.35937,-0.90625 0.375,-0.375 0.9375,-0.375 0.3125,0 0.5625,0.0937 0.26563,0.0781 0.53125,0.3125 0.14063,0.34375 0.17188,0.60938 0.0469,0.25 0.0469,0.57812 z m 4.53339,-8.01562 v -0.78125 h 7.46875 l 0.10937,2.51562 h -1.21875 l -0.29687,-1.70312 h -2.4375 q -0.0156,0.84375 -0.0312,1.70312 0,0.84375 0,1.70313 h 1.57812 l 0.17188,-1.14063 h 0.85937 v 3.14063 h -0.85937 l -0.17188,-1.14063 h -1.57812 q 0,1.01563 0,1.92188 0.0156,0.90625 0.0312,1.79687 h 2.73437 l 0.29688,-1.6875 h 1.21875 l -0.10938,2.51563 h -7.76562 v -0.79688 l 1.09375,-0.10937 q 0.0312,-0.89063 0.0312,-1.79688 0,-0.92187 0,-1.84375 v -0.53125 q 0,-0.92187 0,-1.82812 0,-0.92188 -0.0312,-1.8125 z m 12.87671,0.0625 h -0.57813 q -0.0156,0.90625 -0.0312,1.8125 0,0.90625 0,1.71875 h 0.5625 q 0.71875,0 1.125,-0.25 0.42188,-0.25 0.59375,-0.65625 0.1875,-0.40625 0.1875,-0.875 0,-1.75 -1.85937,-1.75 z m -4.15625,-0.0625 v -0.78125 h 4.76562 q 1.71875,0 2.65625,0.64062 0.9375,0.64063 0.9375,1.78125 0,0.48438 -0.25,0.96875 -0.25,0.46875 -0.82812,0.82813 -0.5625,0.35937 -1.54688,0.53125 0.82813,0.0937 1.29688,0.40625 0.46875,0.29687 0.70312,0.78125 0.23438,0.46875 0.34375,1.15625 l 0.28125,1.625 1.10938,0.10937 v 0.79688 q -0.35938,0.0781 -0.59375,0.125 -0.23438,0.0469 -0.46875,0.0625 -0.21875,0.0156 -0.54688,0.0156 -0.9375,0 -1.48437,-0.3125 -0.53125,-0.32812 -0.64063,-1.1875 l -0.26562,-1.6875 q -0.10938,-0.73437 -0.42188,-1.07812 -0.3125,-0.35938 -0.96875,-0.35938 h -0.53125 q 0,0.9375 0,1.79688 0.0156,0.85937 0.0312,1.71875 l 1.14063,0.10937 v 0.79688 h -4.71875 v -0.79688 l 1.09375,-0.10937 q 0.0312,-0.89063 0.0312,-1.79688 0,-0.92187 0,-1.84375 v -0.53125 q 0,-0.92187 0,-1.82812 0,-0.92188 -0.0312,-1.8125 z m 16.94775,3.54687 v 1.10938 l -6.125,3.15625 -0.64062,-1.25 5.03125,-2.46875 -5.03125,-2.45313 0.64062,-1.25 z m 4.03558,4.46875 q 0,1 -0.46875,1.78125 -0.45312,0.78125 -1.15625,1.28125 -0.6875,0.5 -1.39062,0.71875 l -0.20313,-0.60937 q 0.73438,-0.375 1.20313,-0.89063 0.48437,-0.51562 0.75,-1.09375 l -0.51563,-0.26562 q -0.45312,-0.25 -0.64062,-0.57813 -0.1875,-0.34375 -0.1875,-0.65625 0,-0.54687 0.35937,-0.90625 0.375,-0.375 0.9375,-0.375 0.3125,0 0.5625,0.0937 0.26563,0.0781 0.53125,0.3125 0.14063,0.34375 0.17188,0.60938 0.0469,0.25 0.0469,0.57812 z"
       id="path105"
       inkscape:connector-curvature="0"
       style="fill:#202122;fill-rule:nonzero" />
    <path
       d="m 576.5665,293.6772 q 0,0.95313 0,1.90625 0.0156,0.9375 0.0312,1.85938 h 0.48438 q 1.25,0 1.96875,-1.03125 0.73437,-1.04688 0.73437,-2.95313 0,-1.92187 -0.73437,-2.9375 -0.71875,-1.01562 -1.95313,-1.01562 h -0.5 q -0.0156,0.90625 -0.0312,1.82812 0,0.92188 0,1.875 z m -3.59375,-4.23437 v -0.78125 h 4.35938 q 1.5625,0 2.67187,0.57812 1.10938,0.57813 1.70313,1.65625 0.60937,1.0625 0.60937,2.54688 0,1.53125 -0.64062,2.625 -0.64063,1.07812 -1.82813,1.65625 -1.17187,0.5625 -2.78125,0.5625 h -4.09375 v -0.79688 l 1.09375,-0.10937 q 0.0312,-0.89063 0.0312,-1.8125 0,-0.9375 0,-1.875 v -0.48438 q 0,-0.92187 0,-1.82812 0,-0.92188 -0.0312,-1.8125 z m 17.2702,3.54687 v 1.10938 l -6.125,3.15625 -0.64062,-1.25 5.03125,-2.46875 -5.03125,-2.45313 0.64062,-1.25 z"
       id="path107"
       inkscape:connector-curvature="0"
       style="fill:#202122;fill-rule:nonzero" />
    <path
       d="m 392.0155,281.51672 h 74.51025"
       id="path109"
       inkscape:connector-curvature="0"
       style="fill:#000000;fill-opacity:0;fill-rule:evenodd" />
    <path
       d="m 392.0155,281.51672 h 62.51025"
       id="path111"
       inkscape:connector-curvature="0"
       style="fill-rule:evenodd;stroke:#595959;stroke-width:2;stroke-linecap:butt;stroke-linejoin:round" />
    <path
       d="m 454.52576,284.8202 9.0762,-3.30347 -9.0762,-3.30346 z"
       id="path113"
       inkscape:connector-curvature="0"
       style="fill:#595959;fill-rule:evenodd;stroke:#595959;stroke-width:2;stroke-linecap:butt" />
    <path
       d="m 392.0155,275.56592 h 26.8237 v 11.90161 h -26.8237 z"
       id="path115"
       inkscape:connector-curvature="0"
       style="fill:#000000;fill-opacity:0;fill-rule:evenodd" />
    <path
       d="m 439.67178,275.56592 h 26.82367 v 11.90161 h -26.82367 z"
       id="path117"
       inkscape:connector-curvature="0"
       style="fill:#000000;fill-opacity:0;fill-rule:evenodd" />
    <path
       d="M 466.52472,311.36227 H 392.0145"
       id="path119"
       inkscape:connector-curvature="0"
       style="fill:#000000;fill-opacity:0;fill-rule:evenodd" />
    <path
       d="M 466.52472,311.36227 H 404.01447"
       id="path121"
       inkscape:connector-curvature="0"
       style="fill-rule:evenodd;stroke:#1c4587;stroke-width:2;stroke-linecap:butt;stroke-linejoin:round" />
    <path
       d="m 404.01447,308.0588 -9.07617,3.30347 9.07617,3.30346 z"
       id="path123"
       inkscape:connector-curvature="0"
       style="fill:#1c4587;fill-rule:evenodd;stroke:#1c4587;stroke-width:2;stroke-linecap:butt" />
    <path
       d="m 392.0463,305.41147 h 26.82367 v 11.90158 H 392.0463 Z"
       id="path125"
       inkscape:connector-curvature="0"
       style="fill:#000000;fill-opacity:0;fill-rule:evenodd" />
    <path
       d="m 439.70206,305.41147 h 26.8237 v 11.90158 h -26.8237 z"
       id="path127"
       inkscape:connector-curvature="0"
       style="fill:#000000;fill-opacity:0;fill-rule:evenodd" />
    <path
       d="m 211.98357,261.96588 h 74.55119 v 14.86615 h -74.55119 z"
       id="path129"
       inkscape:connector-curvature="0"
       style="fill:#000000;fill-opacity:0;fill-rule:evenodd" />
    <path
       d="m 243.85735,273.83514 q -0.78125,0 -1.51563,-0.29687 -0.71875,-0.3125 -1.3125,-0.89063 -0.57812,-0.59375 -0.92187,-1.45312 -0.34375,-0.875 -0.34375,-2.03125 0,-1.09375 0.34375,-1.95313 0.34375,-0.875 0.92187,-1.46875 0.59375,-0.59375 1.3125,-0.90625 0.73438,-0.3125 1.51563,-0.3125 0.76562,0 1.48437,0.29688 0.73438,0.29687 1.3125,0.89062 0.59375,0.57813 0.9375,1.45313 0.34375,0.85937 0.34375,2 0,1.09375 -0.34375,1.96875 -0.34375,0.85937 -0.92187,1.46875 -0.57813,0.60937 -1.3125,0.92187 -0.73438,0.3125 -1.5,0.3125 z m 0,-0.67187 q 0.6875,0 1.1875,-0.32813 0.5,-0.34375 0.8125,-0.90625 0.3125,-0.57812 0.45312,-1.28125 0.15625,-0.71875 0.15625,-1.48437 0,-0.75 -0.15625,-1.45313 -0.14062,-0.71875 -0.45312,-1.28125 -0.3125,-0.57812 -0.8125,-0.90625 -0.5,-0.34375 -1.1875,-0.34375 -0.6875,0 -1.1875,0.34375 -0.5,0.32813 -0.82813,0.90625 -0.3125,0.5625 -0.46875,1.28125 -0.15625,0.70313 -0.15625,1.45313 0,0.76562 0.15625,1.48437 0.15625,0.70313 0.46875,1.28125 0.32813,0.5625 0.82813,0.90625 0.5,0.32813 1.1875,0.32813 z m 5.17294,3.65625 v -0.46875 l 1.0625,-0.1875 q 0.0156,-0.54688 0.0156,-1.09375 0.0156,-0.53125 0.0156,-1.0625 v -3.8125 q 0,-0.54688 -0.0156,-0.90625 0,-0.35938 -0.0312,-0.76563 l -1.04688,-0.10937 v -0.46875 l 1.85938,-0.8125 0.20312,0.125 0.0781,0.875 q 0.95312,-1 2.01562,-1 0.71875,0 1.28125,0.40625 0.57813,0.39062 0.92188,1.14062 0.34375,0.73438 0.34375,1.76563 0,1.03125 -0.35938,1.78125 -0.35937,0.75 -0.98437,1.17187 -0.60938,0.40625 -1.40625,0.40625 -0.45313,0 -0.90625,-0.1875 -0.4375,-0.1875 -0.85938,-0.67187 v 1.04687 q 0,0.53125 0,1.0625 0.0156,0.54688 0.0156,1.09375 l 1.21875,0.20313 v 0.46875 z m 3.84375,-8.9375 q -0.3125,0 -0.71875,0.15625 -0.39062,0.15625 -0.90625,0.57812 v 3.75 q 0.375,0.35938 0.73438,0.51563 0.35937,0.15625 0.73437,0.15625 0.75,0 1.28125,-0.59375 0.53125,-0.59375 0.53125,-1.89063 0,-1.28125 -0.46875,-1.96875 -0.46875,-0.70312 -1.1875,-0.70312 z m 6.05879,5.92187 q -0.6875,0 -1.10937,-0.375 -0.40625,-0.375 -0.40625,-1.14062 0,-0.25 0,-0.5 0,-0.25 0,-0.64063 v -3.14062 h -1.09375 v -0.57813 l 1.1875,-0.15625 0.34375,-1.78125 h 0.79687 l -0.0781,1.8125 h 1.79687 v 0.70313 h -1.8125 v 4.125 q 0,0.51562 0.20313,0.75 0.20312,0.23437 0.53125,0.23437 0.21875,0 0.42187,-0.0937 0.21875,-0.0937 0.46875,-0.26562 l 0.32813,0.34375 q -0.54688,0.70312 -1.57813,0.70312 z m 2.36289,-4.25 v -0.625 l 5.15625,-3 0.39062,0.71875 -4.625,2.59375 4.625,2.59375 -0.39062,0.71875 z m 10.24908,-4.21875 h -0.8125 q 0,0.84375 -0.0156,1.73438 0,0.89062 0,1.78125 v 0.64062 h 0.875 q 1.21875,0 1.73437,-0.59375 0.51563,-0.59375 0.51563,-1.53125 0,-0.96875 -0.5625,-1.5 -0.54688,-0.53125 -1.73438,-0.53125 z m -3.34375,-0.0781 v -0.54688 h 3.57813 q 1.6875,0 2.53125,0.75 0.85937,0.73438 0.85937,1.90625 0,0.75 -0.375,1.375 -0.375,0.625 -1.20312,1 -0.8125,0.375 -2.1875,0.375 h -0.6875 q 0,0.71875 0,1.42188 0.0156,0.6875 0.0156,1.40625 l 1.25,0.14062 v 0.54688 h -3.78125 v -0.54688 l 1.21875,-0.14062 q 0.0312,-0.84375 0.0312,-1.70313 0,-0.875 0,-1.73437 v -0.65625 q 0,-0.875 0,-1.73438 0,-0.85937 -0.0312,-1.70312 z m 13.56897,3.67187 v 0.625 l -5.15625,3 -0.39062,-0.71875 4.625,-2.59375 -4.625,-2.59375 0.39062,-0.71875 z"
       id="path131"
       inkscape:connector-curvature="0"
       style="fill:#202122;fill-rule:nonzero" />
    <path
       d="m 211.98357,290.78265 h 74.55119 v 14.86615 h -74.55119 z"
       id="path133"
       inkscape:connector-curvature="0"
       style="fill:#000000;fill-opacity:0;fill-rule:evenodd" />
    <path
       d="m 227.74611,294.15192 h -1.15625 q 0,0.875 -0.0156,1.75 0,0.875 0,1.8125 h 1.01563 q 1.09375,0 1.59375,-0.51562 0.51562,-0.51563 0.51562,-1.32813 0,-0.82812 -0.46875,-1.26562 -0.46875,-0.45313 -1.48437,-0.45313 z m -3.6875,-0.0781 v -0.54688 h 3.71875 q 1.53125,0 2.39062,0.625 0.85938,0.60938 0.85938,1.71875 0,0.76563 -0.5625,1.40625 -0.5625,0.64063 -1.6875,0.84375 0.59375,0.10938 0.96875,0.51563 0.375,0.39062 0.60937,1.17187 l 0.57813,1.96875 1.01562,0.125 v 0.54688 q -0.1875,0.0469 -0.4375,0.0937 -0.25,0.0469 -0.5625,0.0469 -0.625,0 -0.9375,-0.1875 -0.3125,-0.1875 -0.42187,-0.67187 l -0.54688,-2.14063 q -0.10937,-0.54687 -0.34375,-0.8125 -0.21875,-0.26562 -0.57812,-0.35937 -0.34375,-0.0937 -0.89063,-0.0937 h -0.65625 q 0,0.95312 0,1.79687 0.0156,0.82813 0.0156,1.64063 l 1.23437,0.14062 v 0.54688 h -3.76562 v -0.54688 l 1.21875,-0.14062 q 0.0312,-0.84375 0.0312,-1.70313 0,-0.875 0,-1.73437 v -0.65625 q 0,-0.875 0,-1.73438 0,-0.85937 -0.0312,-1.70312 z m 11.52762,2.48437 q -0.35938,0 -0.75,0.21875 -0.375,0.20313 -0.65625,0.67188 -0.26563,0.46875 -0.34375,1.23437 h 2.42187 q 0.48438,0 0.625,-0.1875 0.15625,-0.20312 0.15625,-0.5 0,-0.39062 -0.1875,-0.70312 -0.1875,-0.32813 -0.51562,-0.53125 -0.32813,-0.20313 -0.75,-0.20313 z m 0,6.0625 q -1.35938,0 -2.17188,-0.875 -0.8125,-0.875 -0.8125,-2.40625 0,-1.01562 0.42188,-1.78125 0.42187,-0.76562 1.125,-1.1875 0.70312,-0.42187 1.53125,-0.42187 0.6875,0 1.25,0.3125 0.5625,0.29687 0.89062,0.85937 0.32813,0.5625 0.32813,1.39063 0,0.21875 -0.0312,0.42187 -0.0156,0.1875 -0.0625,0.3125 h -4.25 q 0.0312,1.23438 0.60937,1.875 0.59375,0.64063 1.54688,0.64063 0.64062,0 1.0625,-0.26563 0.4375,-0.26562 0.79687,-0.67187 l 0.3125,0.25 q -0.375,0.70312 -1.01562,1.125 -0.625,0.42187 -1.53125,0.42187 z m 8.63273,-0.0312 q -0.48437,0 -0.8125,-0.28125 -0.3125,-0.28125 -0.39062,-0.75 -0.54688,0.53125 -0.96875,0.79688 -0.40625,0.26562 -0.98438,0.26562 -0.73437,0 -1.26562,-0.42187 -0.53125,-0.42188 -0.53125,-1.25 0,-0.375 0.17187,-0.70313 0.1875,-0.34375 0.67188,-0.65625 0.48437,-0.32812 1.375,-0.64062 0.3125,-0.10938 0.70312,-0.23438 0.40625,-0.125 0.79688,-0.20312 v -0.34375 q 0,-0.96875 -0.29688,-1.28125 -0.28125,-0.32813 -0.95312,-0.32813 -0.14063,0 -0.32813,0.0156 -0.17187,0.0156 -0.39062,0.0625 l -0.25,0.875 q -0.1875,0.625 -0.6875,0.625 -0.5625,0 -0.64063,-0.53125 0.1875,-0.76563 0.89063,-1.20313 0.70312,-0.45312 1.71875,-0.45312 1.04687,0 1.54687,0.53125 0.51563,0.51562 0.51563,1.78125 v 2.84375 q 0,0.42187 0.125,0.60937 0.14062,0.17188 0.35937,0.17188 0.17188,0 0.28125,-0.0781 0.125,-0.0781 0.23438,-0.21875 l 0.26562,0.29688 q -0.23437,0.39062 -0.53125,0.54687 -0.28125,0.15625 -0.625,0.15625 z m -3.76562,-1.82812 q 0,0.53125 0.3125,0.76562 0.3125,0.21875 0.76562,0.21875 0.1875,0 0.35938,-0.0469 0.1875,-0.0625 0.4375,-0.21875 0.26562,-0.15625 0.65625,-0.4375 v -2.04688 q -0.34375,0.0937 -0.67188,0.21875 -0.32812,0.10938 -0.54687,0.1875 -0.57813,0.21875 -0.85938,0.46875 -0.28125,0.23438 -0.375,0.46875 -0.0781,0.21875 -0.0781,0.42188 z m 6.79962,-1.4375 q 0,1.29687 0.53125,1.92187 0.53125,0.60938 1.32813,0.60938 0.4375,0 0.76562,-0.17188 0.34375,-0.1875 0.71875,-0.59375 v -3.6875 q -0.45312,-0.40625 -0.8125,-0.54687 -0.35937,-0.15625 -0.6875,-0.15625 -0.5,0 -0.92187,0.28125 -0.40625,0.26562 -0.67188,0.85937 -0.25,0.57813 -0.25,1.48438 z m 3.48438,3.26562 -0.0937,-0.92187 q -0.34375,0.45312 -0.79688,0.70312 -0.45312,0.25 -1.07812,0.25 -0.8125,0 -1.42188,-0.40625 -0.60937,-0.42187 -0.95312,-1.15625 -0.34375,-0.73437 -0.34375,-1.71875 0,-1.01562 0.375,-1.78125 0.375,-0.76562 1.01562,-1.1875 0.64063,-0.42187 1.45313,-0.42187 0.46875,0 0.89062,0.1875 0.4375,0.1875 0.85938,0.67187 v -3.01562 l -1.14063,-0.125 v -0.46875 l 2.07813,-0.59375 0.1875,0.0937 -0.0469,1.90625 v 7.20312 l 1.07813,0.15625 v 0.48438 z m 6.36117,-5.98437 v -0.48438 h 2.60938 v 0.48438 l -0.71875,0.14062 -2.15625,5.65625 q -0.65625,1.78125 -1.28124,2.5625 -0.625,0.79688 -1.45312,0.79688 -0.48438,0 -0.85938,-0.25 -0.35937,-0.23438 -0.35937,-0.625 0.0625,-0.29688 0.32812,-0.4375 0.26563,-0.14063 0.5625,-0.14063 0.26563,0 0.48438,0.10938 0.23437,0.10937 0.5,0.39062 l 0.0781,0.0625 q 0.42188,-0.35937 0.70313,-0.875 0.29687,-0.5 0.48436,-1.04687 l 0.0625,-0.15625 -2.42186,-6.09375 -0.73438,-0.0937 v -0.48438 h 3.20311 v 0.48438 l -1.17186,0.14062 1.67186,4.54688 1.64063,-4.53125 z m 3.37085,1.76562 v -0.625 l 5.15625,-3 0.39063,0.71875 -4.625,2.59375 4.625,2.59375 -0.39063,0.71875 z m 10.59283,-4.21875 h -1.15625 q 0,0.875 -0.0156,1.75 0,0.875 0,1.8125 h 1.01562 q 1.09375,0 1.59375,-0.51562 0.51563,-0.51563 0.51563,-1.32813 0,-0.82812 -0.46875,-1.26562 -0.46875,-0.45313 -1.48438,-0.45313 z m -3.6875,-0.0781 v -0.54688 h 3.71875 q 1.53125,0 2.39063,0.625 0.85937,0.60938 0.85937,1.71875 0,0.76563 -0.5625,1.40625 -0.5625,0.64063 -1.6875,0.84375 0.59375,0.10938 0.96875,0.51563 0.375,0.39062 0.60938,1.17187 l 0.57812,1.96875 1.01563,0.125 v 0.54688 q -0.1875,0.0469 -0.4375,0.0937 -0.25,0.0469 -0.5625,0.0469 -0.625,0 -0.9375,-0.1875 -0.3125,-0.1875 -0.42188,-0.67187 l -0.54687,-2.14063 q -0.10938,-0.54687 -0.34375,-0.8125 -0.21875,-0.26562 -0.57813,-0.35937 -0.34375,-0.0937 -0.89062,-0.0937 h -0.65625 q 0,0.95312 0,1.79687 0.0156,0.82813 0.0156,1.64063 l 1.23438,0.14062 v 0.54688 h -3.76563 v -0.54688 l 1.21875,-0.14062 q 0.0312,-0.84375 0.0312,-1.70313 0,-0.875 0,-1.73437 v -0.65625 q 0,-0.875 0,-1.73438 0,-0.85937 -0.0312,-1.70312 z m 14.39533,3.67187 v 0.625 l -5.15625,3 -0.39063,-0.71875 4.625,-2.59375 -4.625,-2.59375 0.39063,-0.71875 z"
       id="path135"
       inkscape:connector-curvature="0"
       style="fill:#202122;fill-rule:nonzero" />
    <path
       d="m 94.28084,280.53806 h 117.70079 v 23.93701 H 94.28084 Z"
       id="path137"
       inkscape:connector-curvature="0"
       style="fill:#000000;fill-opacity:0;fill-rule:evenodd" />
    <path
       d="m 101.94618,289.4428 v -0.78125 h 4.71875 v 0.78125 l -1.09375,0.125 q -0.0156,0.89062 -0.0312,1.79687 0,0.90625 0,1.84375 v 0.51563 q 0,0.90625 0,1.82812 0.0156,0.92188 0.0312,1.82813 l 1.09375,0.10937 v 0.79688 h -4.71875 v -0.79688 l 1.09375,-0.10937 q 0.0312,-0.89063 0.0312,-1.79688 0,-0.92187 0,-1.84375 v -0.53125 q 0,-0.92187 0,-1.82812 0,-0.92188 -0.0312,-1.8125 z m 5.76477,4.65625 v -1.10938 l 6.125,-3.15625 0.625,1.25 -5.03125,2.45313 5.03125,2.46875 -0.625,1.25 z m 13.89491,-4.6875 v -0.75 h 3.17188 v 0.78125 l -1.09375,0.1875 -3.01563,8.6875 h -1.42187 l -3.15625,-8.78125 -0.84375,-0.0937 v -0.78125 h 4.71875 v 0.75 l -1.25,0.15625 2,6.03125 2.03125,-6 z m 2.61141,8.875 v -0.6875 l 0.8125,-0.15625 q 0.0156,-0.54688 0.0156,-1.15625 0,-0.625 0,-1.07813 v -0.85937 q 0,-0.42188 -0.0156,-0.67188 0,-0.26562 -0.0156,-0.48437 0,-0.23438 -0.0156,-0.53125 l -0.89063,-0.14063 v -0.5625 l 2.89063,-0.98437 0.25,0.15625 0.14062,1.73437 q 0.3125,-0.9375 0.85938,-1.40625 0.5625,-0.48437 1.10937,-0.48437 0.48438,0 0.82813,0.28125 0.35937,0.26562 0.4375,0.79687 -0.0156,0.57813 -0.3125,0.89063 -0.28125,0.3125 -0.71875,0.3125 -0.625,0 -1.14063,-0.6875 l -0.0781,-0.10938 q -0.32813,0.29688 -0.60938,0.76563 -0.26562,0.46875 -0.375,0.98437 v 1 q 0,0.45313 0,1.04688 0,0.57812 0.0156,1.09375 l 1.15625,0.25 v 0.6875 z m 12.13794,-8.84375 v -0.78125 h 4.64062 v 0.78125 l -1.09375,0.125 q -0.0156,0.89062 -0.0312,1.79687 0,0.90625 0,1.84375 v 0.53125 q 0,0.89063 0,1.8125 0.0156,0.92188 0.0312,1.82813 l 1.09375,0.10937 v 0.79688 h -4.64062 v -0.79688 l 1.03125,-0.0937 q 0.0312,-0.90625 0.0312,-1.8125 0,-0.92187 0,-1.8125 h -3.125 q 0,0.98438 0,1.875 0.0156,0.875 0.0312,1.75 l 1.01562,0.0937 v 0.79688 h -4.60937 v -0.79688 l 1.0625,-0.10937 q 0.0312,-0.89063 0.0312,-1.79688 0,-0.92187 0,-1.84375 v -0.53125 q 0,-0.92187 0,-1.82812 0,-0.90625 -0.0312,-1.8125 l -1.0625,-0.125 v -0.78125 h 4.60937 v 0.78125 l -1.01562,0.10937 q -0.0156,0.89063 -0.0312,1.78125 0,0.875 0,1.57813 h 3.125 q 0,-0.84375 0,-1.6875 0,-0.84375 -0.0312,-1.67188 z m 5.66519,4.65625 v -1.10938 l 6.125,-3.15625 0.625,1.25 -5.03125,2.45313 5.03125,2.46875 -0.625,1.25 z m 11.84804,-4.59375 h -0.32813 q -0.0156,0.90625 -0.0312,1.82812 0,0.92188 0,1.875 v 0.57813 h 0.42188 q 0.96875,0 1.45312,-0.625 0.48438,-0.625 0.48438,-1.60938 0,-1.01562 -0.53125,-1.53125 -0.51563,-0.51562 -1.46875,-0.51562 z m -3.95313,-0.0625 v -0.78125 h 3.98438 q 1.53125,0 2.46875,0.35937 0.9375,0.35938 1.35937,1.01563 0.4375,0.64062 0.4375,1.51562 0,0.84375 -0.40625,1.54688 -0.40625,0.6875 -1.32812,1.10937 -0.92188,0.40625 -2.51563,0.40625 h -0.40625 q 0,0.625 0,1.32813 0.0156,0.6875 0.0312,1.42187 l 1.29688,0.125 v 0.79688 h -4.92188 v -0.79688 l 1.09375,-0.10937 q 0.0312,-0.89063 0.0312,-1.79688 0,-0.92187 0,-1.84375 v -0.53125 q 0,-0.92187 0,-1.82812 0,-0.92188 -0.0312,-1.8125 z m 10.19498,8.01562 q 0,1 -0.46875,1.78125 -0.45313,0.78125 -1.15625,1.28125 -0.6875,0.5 -1.39063,0.71875 l -0.20312,-0.60937 q 0.73437,-0.375 1.20312,-0.89063 0.48438,-0.51562 0.75,-1.09375 l -0.51562,-0.26562 q -0.45313,-0.25 -0.64063,-0.57813 -0.1875,-0.34375 -0.1875,-0.65625 0,-0.54687 0.35938,-0.90625 0.375,-0.375 0.9375,-0.375 0.3125,0 0.5625,0.0937 0.26562,0.0781 0.53125,0.3125 0.14062,0.34375 0.17187,0.60938 0.0469,0.25 0.0469,0.57812 z m 8.68959,-7.95312 h -0.57813 q -0.0156,0.90625 -0.0312,1.8125 0,0.90625 0,1.71875 h 0.5625 q 0.71875,0 1.125,-0.25 0.42188,-0.25 0.59375,-0.65625 0.1875,-0.40625 0.1875,-0.875 0,-1.75 -1.85937,-1.75 z m -4.15625,-0.0625 v -0.78125 h 4.76562 q 1.71875,0 2.65625,0.64062 0.9375,0.64063 0.9375,1.78125 0,0.48438 -0.25,0.96875 -0.25,0.46875 -0.82812,0.82813 -0.5625,0.35937 -1.54688,0.53125 0.82813,0.0937 1.29688,0.40625 0.46875,0.29687 0.70312,0.78125 0.23438,0.46875 0.34375,1.15625 l 0.28125,1.625 1.10938,0.10937 v 0.79688 q -0.35938,0.0781 -0.59375,0.125 -0.23438,0.0469 -0.46875,0.0625 -0.21875,0.0156 -0.54688,0.0156 -0.9375,0 -1.48437,-0.3125 -0.53125,-0.32812 -0.64063,-1.1875 l -0.26562,-1.6875 q -0.10938,-0.73437 -0.42188,-1.07812 -0.3125,-0.35938 -0.96875,-0.35938 h -0.53125 q 0,0.9375 0,1.79688 0.0156,0.85937 0.0312,1.71875 l 1.14063,0.10937 v 0.79688 h -4.71875 v -0.79688 l 1.09375,-0.10937 q 0.0312,-0.89063 0.0312,-1.79688 0,-0.92187 0,-1.84375 v -0.53125 q 0,-0.92187 0,-1.82812 0,-0.92188 -0.0312,-1.8125 z m 16.94775,3.54687 v 1.10938 l -6.125,3.15625 -0.64062,-1.25 5.03125,-2.46875 -5.03125,-2.45313 0.64062,-1.25 z m 4.03554,4.46875 q 0,1 -0.46875,1.78125 -0.45312,0.78125 -1.15625,1.28125 -0.6875,0.5 -1.39062,0.71875 l -0.20313,-0.60937 q 0.73438,-0.375 1.20313,-0.89063 0.48437,-0.51562 0.75,-1.09375 l -0.51563,-0.26562 q -0.45312,-0.25 -0.64062,-0.57813 -0.1875,-0.34375 -0.1875,-0.65625 0,-0.54687 0.35937,-0.90625 0.375,-0.375 0.9375,-0.375 0.3125,0 0.5625,0.0937 0.26563,0.0781 0.53125,0.3125 0.14063,0.34375 0.17188,0.60938 0.0469,0.25 0.0469,0.57812 z m 8.12709,-3.78125 q 0,0.95313 0,1.90625 0.0156,0.9375 0.0312,1.85938 h 0.48438 q 1.25,0 1.96875,-1.03125 0.73437,-1.04688 0.73437,-2.95313 0,-1.92187 -0.73437,-2.9375 -0.71875,-1.01562 -1.95313,-1.01562 h -0.5 q -0.0156,0.90625 -0.0312,1.82812 0,0.92188 0,1.875 z m -3.59375,-4.23437 v -0.78125 h 4.35938 q 1.5625,0 2.67187,0.57812 1.10938,0.57813 1.70313,1.65625 0.60937,1.0625 0.60937,2.54688 0,1.53125 -0.64062,2.625 -0.64063,1.07812 -1.82813,1.65625 -1.17187,0.5625 -2.78125,0.5625 h -4.09375 v -0.79688 l 1.09375,-0.10937 q 0.0312,-0.89063 0.0312,-1.8125 0,-0.9375 0,-1.875 v -0.48438 q 0,-0.92187 0,-1.82812 0,-0.92188 -0.0312,-1.8125 z m 17.2702,3.54687 v 1.10938 l -6.125,3.15625 -0.64062,-1.25 5.03125,-2.46875 -5.03125,-2.45313 0.64062,-1.25 z"
       id="path139"
       inkscape:connector-curvature="0"
       style="fill:#202122;fill-rule:nonzero" />
    <path
       d="m 211.97878,281.51672 h 74.51024"
       id="path141"
       inkscape:connector-curvature="0"
       style="fill:#000000;fill-opacity:0;fill-rule:evenodd" />
    <path
       d="m 211.97878,281.51672 h 62.51024"
       id="path143"
       inkscape:connector-curvature="0"
       style="fill-rule:evenodd;stroke:#595959;stroke-width:2;stroke-linecap:butt;stroke-linejoin:round" />
    <path
       d="m 274.489,284.8202 9.0762,-3.30347 -9.0762,-3.30346 z"
       id="path145"
       inkscape:connector-curvature="0"
       style="fill:#595959;fill-rule:evenodd;stroke:#595959;stroke-width:2;stroke-linecap:butt" />
    <path
       d="m 211.97878,275.56592 h 26.82368 v 11.90161 h -26.82368 z"
       id="path147"
       inkscape:connector-curvature="0"
       style="fill:#000000;fill-opacity:0;fill-rule:evenodd" />
    <path
       d="m 259.63504,275.56592 h 26.82367 v 11.90161 h -26.82367 z"
       id="path149"
       inkscape:connector-curvature="0"
       style="fill:#000000;fill-opacity:0;fill-rule:evenodd" />
    <path
       d="M 286.48798,311.36227 H 211.97774"
       id="path151"
       inkscape:connector-curvature="0"
       style="fill:#000000;fill-opacity:0;fill-rule:evenodd" />
    <path
       d="M 286.48798,311.36227 H 223.97774"
       id="path153"
       inkscape:connector-curvature="0"
       style="fill-rule:evenodd;stroke:#1c4587;stroke-width:2;stroke-linecap:butt;stroke-linejoin:round" />
    <path
       d="m 223.97774,308.0588 -9.0762,3.30347 9.0762,3.30346 z"
       id="path155"
       inkscape:connector-curvature="0"
       style="fill:#1c4587;fill-rule:evenodd;stroke:#1c4587;stroke-width:2;stroke-linecap:butt" />
    <path
       d="m 212.00954,305.41147 h 26.82368 v 11.90158 h -26.82368 z"
       id="path157"
       inkscape:connector-curvature="0"
       style="fill:#000000;fill-opacity:0;fill-rule:evenodd" />
    <path
       d="m 259.6653,305.41147 h 26.8237 v 11.90158 h -26.8237 z"
       id="path159"
       inkscape:connector-curvature="0"
       style="fill:#000000;fill-opacity:0;fill-rule:evenodd" />
  </g>
</svg>
