<?xml version="1.0" encoding="UTF-8" standalone="no"?>
<svg
   xmlns:dc="http://purl.org/dc/elements/1.1/"
   xmlns:cc="http://creativecommons.org/ns#"
   xmlns:rdf="http://www.w3.org/1999/02/22-rdf-syntax-ns#"
   xmlns:svg="http://www.w3.org/2000/svg"
   xmlns="http://www.w3.org/2000/svg"
   xmlns:sodipodi="http://sodipodi.sourceforge.net/DTD/sodipodi-0.dtd"
   xmlns:inkscape="http://www.inkscape.org/namespaces/inkscape"
   version="1.1"
   viewBox="0 0 255.92914 108.49605"
   stroke-miterlimit="10"
   id="svg4202"
   sodipodi:docname="filter-map.svg"
   width="255.92914"
   height="108.49605"
   style="fill:none;stroke:none;stroke-linecap:square;stroke-miterlimit:10"
   inkscape:version="0.92.5 (2060ec1f9f, 2020-04-08)">
  <metadata
     id="metadata4208">
    <rdf:RDF>
      <cc:Work
         rdf:about="">
        <dc:format>image/svg+xml</dc:format>
        <dc:type
           rdf:resource="http://purl.org/dc/dcmitype/StillImage" />
        <dc:title></dc:title>
      </cc:Work>
    </rdf:RDF>
  </metadata>
  <defs
     id="defs4206" />
  <sodipodi:namedview
     pagecolor="#ffffff"
     bordercolor="#666666"
     borderopacity="1"
     objecttolerance="10"
     gridtolerance="10"
     guidetolerance="10"
     inkscape:pageopacity="0"
     inkscape:pageshadow="2"
     inkscape:window-width="1711"
     inkscape:window-height="1083"
     id="namedview4204"
     showgrid="false"
     inkscape:zoom="1.4625"
     inkscape:cx="234.52392"
     inkscape:cy="-98.722052"
     inkscape:window-x="508"
     inkscape:window-y="726"
     inkscape:window-maximized="0"
     inkscape:current-layer="g4200" />
  <clipPath
     id="g2201e325d36_0_0.0">
    <path
       d="M 0,0 H 960 V 540 H 0 Z"
       id="path4101"
       inkscape:connector-curvature="0"
       style="clip-rule:nonzero" />
  </clipPath>
  <g
     clip-path="url(#g2201e325d36_0_0.0)"
     id="g4200"
     transform="translate(-238.93832,-151.14305)">
    <path
       d="m 304.83334,176.99475 h 124.15747 v 76.50394 H 304.83334 Z"
       id="path4110"
       inkscape:connector-curvature="0"
       style="fill:#d9d9d9;fill-rule:evenodd" />
    <path
       d="m 304.83334,176.99475 h 124.15747 v 76.50394 H 304.83334 Z"
       id="path4112"
       inkscape:connector-curvature="0"
       style="fill-rule:evenodd;stroke:#595959;stroke-width:1;stroke-linecap:butt;stroke-linejoin:round" />
    <path
       d="m 242.84514,189.1267 h 61.98427 v 14.86614 h -61.98427 z"
       id="path4114"
       inkscape:connector-curvature="0"
       style="fill:#000000;fill-opacity:0;fill-rule:evenodd" />
    <path
       d="m 262.152,200.99596 q -0.78125,0 -1.51563,-0.29688 -0.71875,-0.3125 -1.3125,-0.89062 -0.57812,-0.59375 -0.92187,-1.45313 -0.34375,-0.875 -0.34375,-2.03125 0,-1.09375 0.34375,-1.95312 0.34375,-0.875 0.92187,-1.46875 0.59375,-0.59375 1.3125,-0.90625 0.73438,-0.3125 1.51563,-0.3125 0.76562,0 1.48437,0.29687 0.73438,0.29688 1.3125,0.89063 0.59375,0.57812 0.9375,1.45312 0.34375,0.85938 0.34375,2 0,1.09375 -0.34375,1.96875 -0.34375,0.85938 -0.92187,1.46875 -0.57813,0.60938 -1.3125,0.92188 -0.73438,0.3125 -1.5,0.3125 z m 0,-0.67188 q 0.6875,0 1.1875,-0.32812 0.5,-0.34375 0.8125,-0.90625 0.3125,-0.57813 0.45312,-1.28125 0.15625,-0.71875 0.15625,-1.48438 0,-0.75 -0.15625,-1.45312 -0.14062,-0.71875 -0.45312,-1.28125 -0.3125,-0.57813 -0.8125,-0.90625 -0.5,-0.34375 -1.1875,-0.34375 -0.6875,0 -1.1875,0.34375 -0.5,0.32812 -0.82813,0.90625 -0.3125,0.5625 -0.46875,1.28125 -0.15625,0.70312 -0.15625,1.45312 0,0.76563 0.15625,1.48438 0.15625,0.70312 0.46875,1.28125 0.32813,0.5625 0.82813,0.90625 0.5,0.32812 1.1875,0.32812 z m 5.17294,3.65625 v -0.46875 l 1.0625,-0.1875 q 0.0156,-0.54687 0.0156,-1.09375 0.0156,-0.53125 0.0156,-1.0625 v -3.8125 q 0,-0.54687 -0.0156,-0.90625 0,-0.35937 -0.0312,-0.76562 l -1.04688,-0.10938 v -0.46875 l 1.85938,-0.8125 0.20312,0.125 0.0781,0.875 q 0.95312,-1 2.01562,-1 0.71875,0 1.28125,0.40625 0.57813,0.39063 0.92188,1.14063 0.34375,0.73437 0.34375,1.76562 0,1.03125 -0.35938,1.78125 -0.35937,0.75 -0.98437,1.17188 -0.60938,0.40625 -1.40625,0.40625 -0.45313,0 -0.90625,-0.1875 -0.4375,-0.1875 -0.85938,-0.67188 v 1.04688 q 0,0.53125 0,1.0625 0.0156,0.54687 0.0156,1.09375 l 1.21875,0.20312 v 0.46875 z m 3.84375,-8.9375 q -0.3125,0 -0.71875,0.15625 -0.39062,0.15625 -0.90625,0.57813 v 3.75 q 0.375,0.35937 0.73438,0.51562 0.35937,0.15625 0.73437,0.15625 0.75,0 1.28125,-0.59375 0.53125,-0.59375 0.53125,-1.89062 0,-1.28125 -0.46875,-1.96875 -0.46875,-0.70313 -1.1875,-0.70313 z m 6.05881,5.92188 q -0.6875,0 -1.10937,-0.375 -0.40625,-0.375 -0.40625,-1.14063 0,-0.25 0,-0.5 0,-0.25 0,-0.64062 v -3.14063 h -1.09375 v -0.57812 l 1.1875,-0.15625 0.34375,-1.78125 h 0.79687 l -0.0781,1.8125 h 1.79687 v 0.70312 h -1.8125 v 4.125 q 0,0.51563 0.20313,0.75 0.20312,0.23438 0.53125,0.23438 0.21875,0 0.42187,-0.0937 0.21875,-0.0937 0.46875,-0.26563 l 0.32813,0.34375 q -0.54688,0.70313 -1.57813,0.70313 z m 2.36285,-4.25 v -0.625 l 5.15625,-3 0.39063,0.71875 -4.625,2.59375 4.625,2.59375 -0.39063,0.71875 z m 10.24909,-4.21875 h -0.8125 q 0,0.84375 -0.0156,1.73437 0,0.89063 0,1.78125 v 0.64063 h 0.875 q 1.21875,0 1.73438,-0.59375 0.51562,-0.59375 0.51562,-1.53125 0,-0.96875 -0.5625,-1.5 -0.54687,-0.53125 -1.73437,-0.53125 z m -3.34375,-0.0781 v -0.54687 h 3.57812 q 1.6875,0 2.53125,0.75 0.85938,0.73437 0.85938,1.90625 0,0.75 -0.375,1.375 -0.375,0.625 -1.20313,1 -0.8125,0.375 -2.1875,0.375 h -0.6875 q 0,0.71875 0,1.42187 0.0156,0.6875 0.0156,1.40625 l 1.25,0.14063 v 0.54687 h -3.78125 v -0.54687 l 1.21875,-0.14063 q 0.0312,-0.84375 0.0312,-1.70312 0,-0.875 0,-1.73438 v -0.65625 q 0,-0.875 0,-1.73437 0,-0.85938 -0.0312,-1.70313 z m 13.569,3.67188 v 0.625 l -5.15625,3 -0.39063,-0.71875 4.625,-2.59375 -4.625,-2.59375 0.39063,-0.71875 z"
       id="path4116"
       inkscape:connector-curvature="0"
       style="fill:#202122;fill-rule:nonzero" />
    <path
       d="M 253.72548,208.6792 H 304.831"
       id="path4118"
       inkscape:connector-curvature="0"
       style="fill:#000000;fill-opacity:0;fill-rule:evenodd" />
    <path
       d="M 253.72548,208.6792 H 292.831"
       id="path4120"
       inkscape:connector-curvature="0"
       style="fill-rule:evenodd;stroke:#595959;stroke-width:2;stroke-linecap:butt;stroke-linejoin:round" />
    <path
       d="m 292.831,211.98267 9.0762,-3.30347 -9.0762,-3.30346 z"
       id="path4122"
       inkscape:connector-curvature="0"
       style="fill:#595959;fill-rule:evenodd;stroke:#595959;stroke-width:2;stroke-linecap:butt" />
    <path
       d="m 253.72548,202.72841 h 18.39799 v 11.9016 h -18.39799 z"
       id="path4124"
       inkscape:connector-curvature="0"
       style="fill:#000000;fill-opacity:0;fill-rule:evenodd" />
    <path
       d="m 286.41223,202.72841 h 18.39798 v 11.9016 h -18.39798 z"
       id="path4126"
       inkscape:connector-curvature="0"
       style="fill:#000000;fill-opacity:0;fill-rule:evenodd" />
    <path
       d="M 304.8303,238.52469 H 253.72479"
       id="path4128"
       inkscape:connector-curvature="0"
       style="fill:#000000;fill-opacity:0;fill-rule:evenodd" />
    <path
       d="M 304.8303,238.52469 H 265.7248"
       id="path4130"
       inkscape:connector-curvature="0"
       style="fill-rule:evenodd;stroke:#1c4587;stroke-width:2;stroke-linecap:butt;stroke-linejoin:round" />
    <path
       d="m 265.7248,235.22122 -9.0762,3.30347 9.0762,3.30346 z"
       id="path4132"
       inkscape:connector-curvature="0"
       style="fill:#1c4587;fill-rule:evenodd;stroke:#1c4587;stroke-width:2;stroke-linecap:butt" />
    <path
       d="m 253.7466,232.57388 h 18.39796 v 11.90161 H 253.7466 Z"
       id="path4134"
       inkscape:connector-curvature="0"
       style="fill:#000000;fill-opacity:0;fill-rule:evenodd" />
    <path
       d="m 286.433,232.57388 h 18.39798 v 11.90161 H 286.433 Z"
       id="path4136"
       inkscape:connector-curvature="0"
       style="fill:#000000;fill-opacity:0;fill-rule:evenodd" />
    <path
       d="m 328.29782,195.18646 v 0 c 0,-3.03255 2.45837,-5.49092 5.49091,-5.49092 h 66.24652 c 1.45626,0 2.8529,0.57851 3.88266,1.60824 1.02975,1.02976 1.60824,2.4264 1.60824,3.88268 v 21.96303 c 0,3.03256 -2.45837,5.49093 -5.4909,5.49093 h -66.24652 c -3.03254,0 -5.49091,-2.45837 -5.49091,-5.49093 z"
       id="path4138"
       inkscape:connector-curvature="0"
       style="fill:#000000;fill-opacity:0;fill-rule:evenodd" />
    <path
       d="m 328.29782,195.18646 v 0 c 0,-3.03255 2.45837,-5.49092 5.49091,-5.49092 h 66.24652 c 1.45626,0 2.8529,0.57851 3.88266,1.60824 1.02975,1.02976 1.60824,2.4264 1.60824,3.88268 v 21.96303 c 0,3.03256 -2.45837,5.49093 -5.4909,5.49093 h -66.24652 c -3.03254,0 -5.49091,-2.45837 -5.49091,-5.49093 z"
       id="path4140"
       inkscape:connector-curvature="0"
       style="fill-rule:evenodd;stroke:#595959;stroke-width:1;stroke-linecap:butt;stroke-linejoin:round" />
    <path
       d="m 344.53894,211.24799 v -0.53125 l 1.15625,-0.20313 q 0.0156,-0.57812 0.0156,-1.15625 0.0156,-0.59375 0.0156,-1.1875 v -3.10937 h -1.21875 v -0.64063 l 1.25,-0.15625 q 0.0937,-1.17187 0.3125,-1.89062 0.23438,-0.73438 0.78125,-1.28125 0.46875,-0.46875 0.98438,-0.64063 0.51562,-0.1875 1.01562,-0.1875 0.5,0 0.89063,0.1875 0.40625,0.1875 0.51562,0.60938 -0.0156,0.28125 -0.25,0.46875 -0.23437,0.1875 -0.65625,0.1875 -0.51562,0 -1.04687,-0.4375 l -0.40625,-0.3125 q -0.0625,0.0312 -0.125,0.0781 -0.0469,0.0469 -0.0937,0.0937 -0.375,0.375 -0.57813,1.15625 -0.1875,0.76563 -0.15625,1.98438 h 2.01563 v 0.78125 h -2 v 3.10937 q 0,0.59375 0,1.17188 0.0156,0.57812 0.0312,1.15625 l 1.32812,0.21875 v 0.53125 z"
       id="path4142"
       inkscape:connector-curvature="0"
       style="fill:#202122;fill-rule:nonzero" />
    <path
       d="m 353.9139,207.90424 q 0,0.96875 0.15625,1.8125 0.17187,0.82812 0.57812,1.6875 0.40625,0.85937 1.10938,1.875 l -0.3125,0.26562 q -1.26563,-1.1875 -1.89063,-2.57812 -0.60937,-1.40625 -0.60937,-3.0625 0,-1.64063 0.60937,-3.03125 0.625,-1.40625 1.89063,-2.59375 l 0.3125,0.26562 q -0.70313,1.01563 -1.10938,1.875 -0.40625,0.85938 -0.57812,1.70313 -0.15625,0.82812 -0.15625,1.78125 z m 4.98929,3.5 q -1.23438,0 -1.96875,-0.79688 -0.73438,-0.8125 -0.73438,-2.1875 0,-0.95312 0.39063,-1.625 0.39062,-0.6875 1.03125,-1.04687 0.64062,-0.35938 1.35937,-0.35938 0.53125,0 0.98438,0.20313 0.46875,0.20312 0.76562,0.5625 0.29688,0.35937 0.375,0.79687 -0.0937,0.45313 -0.5625,0.45313 -0.29687,0 -0.45312,-0.15625 -0.14063,-0.15625 -0.20313,-0.42188 l -0.21875,-0.78125 q -0.17187,-0.0625 -0.32812,-0.0781 -0.15625,-0.0156 -0.3125,-0.0156 -0.76563,0 -1.26563,0.59375 -0.5,0.59375 -0.5,1.75 0,1.125 0.53125,1.73438 0.54688,0.59375 1.39063,0.59375 0.51562,0 0.9375,-0.23438 0.4375,-0.23437 0.71875,-0.67187 l 0.29687,0.15625 q -0.25,0.73437 -0.8125,1.14062 -0.5625,0.39063 -1.42187,0.39063 z m 5.93417,0 q -0.6875,0 -1.32812,-0.32813 -0.625,-0.32812 -1.01563,-1 -0.39062,-0.67187 -0.39062,-1.64062 0,-1 0.39062,-1.67188 0.39063,-0.6875 1.01563,-1.03125 0.64062,-0.34375 1.32812,-0.34375 0.70313,0 1.32813,0.34375 0.64062,0.34375 1.03125,1.03125 0.40625,0.67188 0.40625,1.67188 0,0.96875 -0.40625,1.64062 -0.39063,0.67188 -1.03125,1 -0.625,0.32813 -1.32813,0.32813 z m 0,-0.54688 q 0.78125,0 1.20313,-0.60937 0.42187,-0.625 0.42187,-1.8125 0,-1.21875 -0.42187,-1.84375 -0.42188,-0.64063 -1.20313,-0.64063 -0.76562,0 -1.1875,0.64063 -0.40625,0.625 -0.40625,1.84375 0,1.1875 0.40625,1.8125 0.42188,0.60937 1.1875,0.60937 z m 3.79117,0.39063 v -0.4375 l 0.89063,-0.15625 q 0,-0.46875 0,-0.98438 0.0156,-0.53125 0.0156,-0.9375 v -0.57812 q 0,-0.5 -0.0156,-0.8125 0,-0.32813 -0.0156,-0.6875 l -0.95312,-0.10938 v -0.42187 l 1.6875,-0.73438 0.17187,0.125 0.0937,0.96875 q 0.42188,-0.48437 0.98438,-0.78125 0.5625,-0.3125 1.125,-0.3125 0.5625,0 0.90625,0.26563 0.35937,0.26562 0.51562,0.85937 0.45313,-0.5625 1.01563,-0.84375 0.5625,-0.28125 1.15625,-0.28125 0.73437,0 1.125,0.5 0.40625,0.48438 0.40625,1.60938 v 1.23437 q 0,0.40625 0,0.9375 0.0156,0.51563 0.0312,0.98438 l 0.84375,0.15625 v 0.4375 h -2.78125 v -0.4375 l 0.875,-0.15625 q 0.0156,-0.45313 0.0156,-0.98438 0.0156,-0.53125 0.0156,-0.9375 v -1.04687 q 0,-0.84375 -0.25,-1.125 -0.23438,-0.29688 -0.76563,-0.29688 -0.35937,0 -0.75,0.17188 -0.39062,0.15625 -0.85937,0.57812 0.0156,0.125 0.0156,0.28125 0.0156,0.15625 0.0156,0.3125 v 1.125 q 0,0.40625 0,0.9375 0.0156,0.51563 0.0312,0.98438 l 0.82812,0.15625 v 0.4375 h -2.78125 v -0.4375 l 0.89063,-0.15625 q 0.0156,-0.45313 0.0156,-0.98438 0,-0.53125 0,-0.9375 v -1.03125 q 0,-0.8125 -0.23437,-1.125 -0.21875,-0.3125 -0.73438,-0.3125 -0.42187,0 -0.79687,0.17188 -0.35938,0.15625 -0.8125,0.54687 v 1.75 q 0,0.39063 0,0.92188 0.0156,0.53125 0.0312,1 l 0.82812,0.15625 v 0.4375 z m 10.68707,0 v -0.4375 l 0.90625,-0.15625 q 0,-0.45313 0,-0.98438 0.0156,-0.53125 0.0156,-0.9375 v -5.26562 l -0.98438,-0.125 v -0.42188 l 1.84375,-0.54687 0.15625,0.10937 -0.0469,1.70313 v 2.125 q 0.4375,-0.46875 0.89062,-0.6875 0.46875,-0.23438 0.96875,-0.23438 0.625,0 1.14063,0.35938 0.51562,0.34375 0.82812,1 0.3125,0.65625 0.3125,1.59375 0,0.92187 -0.32812,1.625 -0.32813,0.6875 -0.89063,1.0625 -0.54687,0.375 -1.26562,0.375 -0.42188,0 -0.84375,-0.17188 -0.40625,-0.1875 -0.8125,-0.6875 l -0.0937,0.82813 z m 3.42188,-5.17188 q -0.28125,0 -0.64063,0.14063 -0.35937,0.14062 -0.84375,0.5625 v 3.28125 q 0.35938,0.34375 0.71875,0.5 0.375,0.15625 0.70313,0.15625 0.64062,0 1.10937,-0.54688 0.46875,-0.5625 0.46875,-1.73437 0,-1.14063 -0.42187,-1.75 -0.42188,-0.60938 -1.09375,-0.60938 z m 5.1514,1.82813 q 0,-0.95313 -0.17188,-1.78125 -0.15625,-0.84375 -0.5625,-1.70313 -0.39062,-0.85937 -1.10937,-1.875 l 0.3125,-0.26562 q 1.28125,1.1875 1.89062,2.59375 0.60938,1.39062 0.60938,3.03125 0,1.65625 -0.60938,3.0625 -0.60937,1.39062 -1.89062,2.57812 l -0.3125,-0.26562 q 0.71875,-1.01563 1.10937,-1.875 0.40625,-0.85938 0.5625,-1.6875 0.17188,-0.84375 0.17188,-1.8125 z"
       id="path4144"
       inkscape:connector-curvature="0"
       style="fill:#202122;fill-rule:nonzero" />
    <path
       d="m 428.99582,208.6792 h 51.10553"
       id="path4146"
       inkscape:connector-curvature="0"
       style="fill:#000000;fill-opacity:0;fill-rule:evenodd" />
    <path
       d="m 428.99582,208.6792 h 39.10553"
       id="path4148"
       inkscape:connector-curvature="0"
       style="fill-rule:evenodd;stroke:#595959;stroke-width:2;stroke-linecap:butt;stroke-linejoin:round" />
    <path
       d="m 468.10135,211.98267 9.07617,-3.30347 -9.07617,-3.30346 z"
       id="path4150"
       inkscape:connector-curvature="0"
       style="fill:#595959;fill-rule:evenodd;stroke:#595959;stroke-width:2;stroke-linecap:butt" />
    <path
       d="m 428.99582,202.72841 h 18.39798 v 11.9016 h -18.39798 z"
       id="path4152"
       inkscape:connector-curvature="0"
       style="fill:#000000;fill-opacity:0;fill-rule:evenodd" />
    <path
       d="m 461.6826,202.72841 h 18.39798 v 11.9016 H 461.6826 Z"
       id="path4154"
       inkscape:connector-curvature="0"
       style="fill:#000000;fill-opacity:0;fill-rule:evenodd" />
    <path
       d="m 480.10062,238.52469 h -51.1055"
       id="path4156"
       inkscape:connector-curvature="0"
       style="fill:#000000;fill-opacity:0;fill-rule:evenodd" />
    <path
       d="M 480.10065,238.52469 H 440.99512"
       id="path4158"
       inkscape:connector-curvature="0"
       style="fill-rule:evenodd;stroke:#1c4587;stroke-width:2;stroke-linecap:butt;stroke-linejoin:round" />
    <path
       d="m 440.99512,235.22122 -9.0762,3.30347 9.0762,3.30346 z"
       id="path4160"
       inkscape:connector-curvature="0"
       style="fill:#1c4587;fill-rule:evenodd;stroke:#1c4587;stroke-width:2;stroke-linecap:butt" />
    <path
       d="m 429.01694,232.57388 h 18.39798 v 11.90161 h -18.39798 z"
       id="path4162"
       inkscape:connector-curvature="0"
       style="fill:#000000;fill-opacity:0;fill-rule:evenodd" />
    <path
       d="m 461.70334,232.57388 h 18.39801 v 11.90161 h -18.39801 z"
       id="path4164"
       inkscape:connector-curvature="0"
       style="fill:#000000;fill-opacity:0;fill-rule:evenodd" />
    <path
       d="M 458.4058,238.52469 H 304.831"
       id="path4166"
       inkscape:connector-curvature="0"
       style="fill:#000000;fill-opacity:0;fill-rule:evenodd" />
    <path
       d="M 458.4058,238.52469 H 310.831"
       id="path4168"
       inkscape:connector-curvature="0"
       style="fill-rule:evenodd;stroke:#1c4587;stroke-width:1;stroke-linecap:butt;stroke-linejoin:round" />
    <path
       d="m 310.831,236.87296 -4.53809,1.65173 4.53809,1.65174 z"
       id="path4170"
       inkscape:connector-curvature="0"
       style="fill:#1c4587;fill-rule:evenodd;stroke:#1c4587;stroke-width:1;stroke-linecap:butt" />
    <path
       d="m 304.8102,208.6792 c 5.87192,0 8.80679,-0.62991 11.74381,-1.25984 2.93701,-0.62992 5.87612,-1.25984 11.75225,-1.25984"
       id="path4172"
       inkscape:connector-curvature="0"
       style="fill:#000000;fill-opacity:0;fill-rule:evenodd" />
    <path
       d="m 304.8102,208.6792 c 5.87192,0 8.80682,-0.62993 11.74381,-1.25984 1.4685,-0.31497 2.93756,-0.62993 4.77395,-0.86615 0.22955,-0.0295 0.46488,-0.0578 0.70664,-0.0848 l 0.27822,-0.0285"
       id="path4174"
       inkscape:connector-curvature="0"
       style="fill-rule:evenodd;stroke:#595959;stroke-width:1;stroke-linecap:butt;stroke-linejoin:round" />
    <path
       d="m 322.39005,208.08986 4.45593,-1.86201 -4.61032,-1.43784 z"
       id="path4176"
       inkscape:connector-curvature="0"
       style="fill:#595959;fill-rule:evenodd;stroke:#595959;stroke-width:1;stroke-linecap:butt" />
    <path
       d="m 405.52615,206.16798 c 5.86743,0 8.80179,0.62991 11.73486,1.25984 2.93308,0.62992 5.86487,1.25984 11.72971,1.25984"
       id="path4178"
       inkscape:connector-curvature="0"
       style="fill:#000000;fill-opacity:0;fill-rule:evenodd" />
    <path
       d="m 405.52615,206.16798 c 5.86743,0 8.80182,0.62991 11.73486,1.25984 1.46656,0.31496 2.93277,0.62992 4.76544,0.86614 0.22907,0.0295 0.4639,0.0578 0.70517,0.0847 l 0.26572,0.0273"
       id="path4180"
       inkscape:connector-curvature="0"
       style="fill-rule:evenodd;stroke:#595959;stroke-width:1;stroke-linecap:butt;stroke-linejoin:round" />
    <path
       d="m 422.9198,210.05592 4.61063,-1.43689 -4.45554,-1.86293 z"
       id="path4182"
       inkscape:connector-curvature="0"
       style="fill:#595959;fill-rule:evenodd;stroke:#595959;stroke-width:1;stroke-linecap:butt" />
    <path
       d="m 242.84514,217.9448 h 61.98427 v 14.86615 h -61.98427 z"
       id="path4184"
       inkscape:connector-curvature="0"
       style="fill:#000000;fill-opacity:0;fill-rule:evenodd" />
    <path
       d="m 275.0727,229.61093 v -0.48438 l 1,-0.17187 q 0,-0.5 0,-1.09375 0.0156,-0.59375 0.0156,-1.04688 v -5.85937 l -1.09375,-0.125 v -0.46875 l 2.04688,-0.59375 0.1875,0.0937 -0.0625,1.90625 v 2.35937 q 0.48437,-0.53125 1,-0.76562 0.51562,-0.25 1.0625,-0.25 0.70312,0 1.26562,0.39062 0.57813,0.375 0.92188,1.10938 0.34375,0.73437 0.34375,1.78125 0,1.01562 -0.35938,1.78125 -0.35937,0.76562 -0.98437,1.1875 -0.625,0.42187 -1.40625,0.42187 -0.46875,0 -0.9375,-0.20312 -0.45313,-0.20313 -0.90625,-0.73438 l -0.0937,0.90625 z m 3.79687,-5.75 q -0.3125,0 -0.71875,0.17187 -0.39062,0.15625 -0.9375,0.60938 v 3.65625 q 0.40625,0.375 0.8125,0.54687 0.40625,0.17188 0.76563,0.17188 0.71875,0 1.23437,-0.60938 0.53125,-0.625 0.53125,-1.92187 0,-1.26563 -0.48437,-1.9375 -0.46875,-0.6875 -1.20313,-0.6875 z m 7.14344,5.92187 q -0.78125,0 -1.48438,-0.35937 -0.6875,-0.375 -1.14062,-1.10938 -0.4375,-0.75 -0.4375,-1.82812 0,-1.10938 0.4375,-1.85938 0.45312,-0.76562 1.14062,-1.14062 0.70313,-0.375 1.48438,-0.375 0.76562,0 1.46875,0.375 0.70312,0.375 1.14062,1.14062 0.45313,0.75 0.45313,1.85938 0,1.07812 -0.45313,1.82812 -0.4375,0.73438 -1.14062,1.10938 -0.70313,0.35937 -1.46875,0.35937 z m 0,-0.59375 q 0.85937,0 1.32812,-0.6875 0.46875,-0.6875 0.46875,-2.01562 0,-1.35938 -0.46875,-2.0625 -0.46875,-0.70313 -1.32812,-0.70313 -0.875,0 -1.34375,0.70313 -0.45313,0.70312 -0.45313,2.0625 0,1.32812 0.45313,2.01562 0.46875,0.6875 1.34375,0.6875 z m 7.31711,0.59375 q -0.78125,0 -1.48438,-0.35937 -0.6875,-0.375 -1.14062,-1.10938 -0.4375,-0.75 -0.4375,-1.82812 0,-1.10938 0.4375,-1.85938 0.45312,-0.76562 1.14062,-1.14062 0.70313,-0.375 1.48438,-0.375 0.76562,0 1.46875,0.375 0.70312,0.375 1.14062,1.14062 0.45313,0.75 0.45313,1.85938 0,1.07812 -0.45313,1.82812 -0.4375,0.73438 -1.14062,1.10938 -0.70313,0.35937 -1.46875,0.35937 z m 0,-0.59375 q 0.85937,0 1.32812,-0.6875 0.46875,-0.6875 0.46875,-2.01562 0,-1.35938 -0.46875,-2.0625 -0.46875,-0.70313 -1.32812,-0.70313 -0.875,0 -1.34375,0.70313 -0.45313,0.70312 -0.45313,2.0625 0,1.32812 0.45313,2.01562 0.46875,0.6875 1.34375,0.6875 z m 3.85565,0.42188 v -0.48438 l 1.07812,-0.1875 q 0,-0.54687 0,-1.0625 0.0156,-0.53125 0.0156,-1.0625 v -5.85937 l -1.09375,-0.125 v -0.46875 l 2.07812,-0.59375 0.1875,0.0937 -0.0469,1.90625 v 5.04687 q 0,0.53125 0,1.0625 0.0156,0.53125 0.0312,1.0625 l 1.0625,0.1875 v 0.48438 z"
       id="path4186"
       inkscape:connector-curvature="0"
       style="fill:#202122;fill-rule:nonzero" />
    <path
       d="m 428.99213,189.1267 h 61.98425 v 14.86614 h -61.98425 z"
       id="path4188"
       inkscape:connector-curvature="0"
       style="fill:#000000;fill-opacity:0;fill-rule:evenodd" />
    <path
       d="m 437.71088,200.99596 q -0.78125,0 -1.51563,-0.29688 -0.71875,-0.3125 -1.3125,-0.89062 -0.57812,-0.59375 -0.92187,-1.45313 -0.34375,-0.875 -0.34375,-2.03125 0,-1.09375 0.34375,-1.95312 0.34375,-0.875 0.92187,-1.46875 0.59375,-0.59375 1.3125,-0.90625 0.73438,-0.3125 1.51563,-0.3125 0.76562,0 1.48437,0.29687 0.73438,0.29688 1.3125,0.89063 0.59375,0.57812 0.9375,1.45312 0.34375,0.85938 0.34375,2 0,1.09375 -0.34375,1.96875 -0.34375,0.85938 -0.92187,1.46875 -0.57813,0.60938 -1.3125,0.92188 -0.73438,0.3125 -1.5,0.3125 z m 0,-0.67188 q 0.6875,0 1.1875,-0.32812 0.5,-0.34375 0.8125,-0.90625 0.3125,-0.57813 0.45312,-1.28125 0.15625,-0.71875 0.15625,-1.48438 0,-0.75 -0.15625,-1.45312 -0.14062,-0.71875 -0.45312,-1.28125 -0.3125,-0.57813 -0.8125,-0.90625 -0.5,-0.34375 -1.1875,-0.34375 -0.6875,0 -1.1875,0.34375 -0.5,0.32812 -0.82813,0.90625 -0.3125,0.5625 -0.46875,1.28125 -0.15625,0.70312 -0.15625,1.45312 0,0.76563 0.15625,1.48438 0.15625,0.70312 0.46875,1.28125 0.32813,0.5625 0.82813,0.90625 0.5,0.32812 1.1875,0.32812 z m 5.17294,3.65625 v -0.46875 l 1.0625,-0.1875 q 0.0156,-0.54687 0.0156,-1.09375 0.0156,-0.53125 0.0156,-1.0625 v -3.8125 q 0,-0.54687 -0.0156,-0.90625 0,-0.35937 -0.0312,-0.76562 l -1.04688,-0.10938 v -0.46875 l 1.85938,-0.8125 0.20312,0.125 0.0781,0.875 q 0.95312,-1 2.01562,-1 0.71875,0 1.28125,0.40625 0.57813,0.39063 0.92188,1.14063 0.34375,0.73437 0.34375,1.76562 0,1.03125 -0.35938,1.78125 -0.35937,0.75 -0.98437,1.17188 -0.60938,0.40625 -1.40625,0.40625 -0.45313,0 -0.90625,-0.1875 -0.4375,-0.1875 -0.85938,-0.67188 v 1.04688 q 0,0.53125 0,1.0625 0.0156,0.54687 0.0156,1.09375 l 1.21875,0.20312 v 0.46875 z m 3.84375,-8.9375 q -0.3125,0 -0.71875,0.15625 -0.39062,0.15625 -0.90625,0.57813 v 3.75 q 0.375,0.35937 0.73438,0.51562 0.35937,0.15625 0.73437,0.15625 0.75,0 1.28125,-0.59375 0.53125,-0.59375 0.53125,-1.89062 0,-1.28125 -0.46875,-1.96875 -0.46875,-0.70313 -1.1875,-0.70313 z m 6.05881,5.92188 q -0.6875,0 -1.10937,-0.375 -0.40625,-0.375 -0.40625,-1.14063 0,-0.25 0,-0.5 0,-0.25 0,-0.64062 v -3.14063 h -1.09375 v -0.57812 l 1.1875,-0.15625 0.34375,-1.78125 h 0.79687 l -0.0781,1.8125 h 1.79687 v 0.70312 h -1.8125 v 4.125 q 0,0.51563 0.20313,0.75 0.20312,0.23438 0.53125,0.23438 0.21875,0 0.42187,-0.0937 0.21875,-0.0937 0.46875,-0.26563 l 0.32813,0.34375 q -0.54688,0.70313 -1.57813,0.70313 z m 2.36285,-4.25 v -0.625 l 5.15625,-3 0.39063,0.71875 -4.625,2.59375 4.625,2.59375 -0.39063,0.71875 z m 6.90534,-4.29688 v -0.54687 h 6.625 l 0.0937,2.35937 h -0.75 l -0.29688,-1.6875 h -3.14062 q 0,0.85938 -0.0156,1.71875 0,0.84375 0,1.67188 h 1.95313 l 0.1875,-1.26563 h 0.60937 v 3.14063 h -0.60937 l -0.17188,-1.25 h -1.96875 q 0,1 0,1.875 0.0156,0.85937 0.0156,1.6875 h 3.40625 l 0.29687,-1.70313 h 0.75 l -0.0937,2.375 h -6.89062 v -0.54687 l 1.21875,-0.14063 q 0.0312,-0.84375 0.0312,-1.70312 0,-0.875 0,-1.73438 v -0.65625 q 0,-0.875 0,-1.73437 0,-0.85938 -0.0312,-1.70313 z m 11.38058,0.0781 h -0.8125 q 0,0.84375 -0.0156,1.73437 0,0.89063 0,1.78125 v 0.64063 h 0.875 q 1.21875,0 1.73437,-0.59375 0.51563,-0.59375 0.51563,-1.53125 0,-0.96875 -0.5625,-1.5 -0.54688,-0.53125 -1.73438,-0.53125 z m -3.34375,-0.0781 v -0.54687 h 3.57813 q 1.6875,0 2.53125,0.75 0.85937,0.73437 0.85937,1.90625 0,0.75 -0.375,1.375 -0.375,0.625 -1.20312,1 -0.8125,0.375 -2.1875,0.375 h -0.6875 q 0,0.71875 0,1.42187 0.0156,0.6875 0.0156,1.40625 l 1.25,0.14063 v 0.54687 h -3.78125 v -0.54687 l 1.21875,-0.14063 q 0.0312,-0.84375 0.0312,-1.70312 0,-0.875 0,-1.73438 v -0.65625 q 0,-0.875 0,-1.73437 0,-0.85938 -0.0312,-1.70313 z m 13.569,3.67188 v 0.625 l -5.15625,3 -0.39062,-0.71875 4.625,-2.59375 -4.625,-2.59375 0.39062,-0.71875 z"
       id="path4190"
       inkscape:connector-curvature="0"
       style="fill:#202122;fill-rule:nonzero" />
    <path
       d="m 428.99213,217.9448 h 61.98425 v 14.86615 h -61.98425 z"
       id="path4192"
       inkscape:connector-curvature="0"
       style="fill:#000000;fill-opacity:0;fill-rule:evenodd" />
    <path
       d="m 433.39838,229.61093 v -0.48438 l 1,-0.17187 q 0,-0.5 0,-1.09375 0.0156,-0.59375 0.0156,-1.04688 v -5.85937 l -1.09375,-0.125 v -0.46875 l 2.04688,-0.59375 0.1875,0.0937 -0.0625,1.90625 v 2.35937 q 0.48437,-0.53125 1,-0.76562 0.51562,-0.25 1.0625,-0.25 0.70312,0 1.26562,0.39062 0.57813,0.375 0.92188,1.10938 0.34375,0.73437 0.34375,1.78125 0,1.01562 -0.35938,1.78125 -0.35937,0.76562 -0.98437,1.1875 -0.625,0.42187 -1.40625,0.42187 -0.46875,0 -0.9375,-0.20312 -0.45313,-0.20313 -0.90625,-0.73438 l -0.0937,0.90625 z m 3.79687,-5.75 q -0.3125,0 -0.71875,0.17187 -0.39062,0.15625 -0.9375,0.60938 v 3.65625 q 0.40625,0.375 0.8125,0.54687 0.40625,0.17188 0.76563,0.17188 0.71875,0 1.23437,-0.60938 0.53125,-0.625 0.53125,-1.92187 0,-1.26563 -0.48437,-1.9375 -0.46875,-0.6875 -1.20313,-0.6875 z m 7.14341,5.92187 q -0.78125,0 -1.48438,-0.35937 -0.6875,-0.375 -1.14062,-1.10938 -0.4375,-0.75 -0.4375,-1.82812 0,-1.10938 0.4375,-1.85938 0.45312,-0.76562 1.14062,-1.14062 0.70313,-0.375 1.48438,-0.375 0.76562,0 1.46875,0.375 0.70312,0.375 1.14062,1.14062 0.45313,0.75 0.45313,1.85938 0,1.07812 -0.45313,1.82812 -0.4375,0.73438 -1.14062,1.10938 -0.70313,0.35937 -1.46875,0.35937 z m 0,-0.59375 q 0.85937,0 1.32812,-0.6875 0.46875,-0.6875 0.46875,-2.01562 0,-1.35938 -0.46875,-2.0625 -0.46875,-0.70313 -1.32812,-0.70313 -0.875,0 -1.34375,0.70313 -0.45313,0.70312 -0.45313,2.0625 0,1.32812 0.45313,2.01562 0.46875,0.6875 1.34375,0.6875 z m 7.3171,0.59375 q -0.78125,0 -1.48437,-0.35937 -0.6875,-0.375 -1.14063,-1.10938 -0.4375,-0.75 -0.4375,-1.82812 0,-1.10938 0.4375,-1.85938 0.45313,-0.76562 1.14063,-1.14062 0.70312,-0.375 1.48437,-0.375 0.76563,0 1.46875,0.375 0.70313,0.375 1.14063,1.14062 0.45312,0.75 0.45312,1.85938 0,1.07812 -0.45312,1.82812 -0.4375,0.73438 -1.14063,1.10938 -0.70312,0.35937 -1.46875,0.35937 z m 0,-0.59375 q 0.85938,0 1.32813,-0.6875 0.46875,-0.6875 0.46875,-2.01562 0,-1.35938 -0.46875,-2.0625 -0.46875,-0.70313 -1.32813,-0.70313 -0.875,0 -1.34375,0.70313 -0.45312,0.70312 -0.45312,2.0625 0,1.32812 0.45312,2.01562 0.46875,0.6875 1.34375,0.6875 z m 3.85566,0.42188 v -0.48438 l 1.07812,-0.1875 q 0,-0.54687 0,-1.0625 0.0156,-0.53125 0.0156,-1.0625 v -5.85937 l -1.09375,-0.125 v -0.46875 l 2.07812,-0.59375 0.1875,0.0937 -0.0469,1.90625 v 5.04687 q 0,0.53125 0,1.0625 0.0156,0.53125 0.0312,1.0625 l 1.0625,0.1875 v 0.48438 z"
       id="path4194"
       inkscape:connector-curvature="0"
       style="fill:#202122;fill-rule:nonzero" />
    <path
       d="M 304.83203,148.44095 H 428.9895 v 27.87401 H 304.83203 Z"
       id="path4196"
       inkscape:connector-curvature="0"
       style="fill:#000000;fill-opacity:0;fill-rule:evenodd" />
    <path
       d="m 332.54022,167.65796 v -0.6875 l 0.8125,-0.15625 q 0.0156,-0.5625 0.0156,-1.10938 0.0156,-0.5625 0.0156,-1.125 v -3 h -0.95313 v -0.875 l 0.96875,-0.10937 q 0.125,-1 0.4375,-1.57813 0.32813,-0.57812 0.82813,-1.07812 0.5,-0.5 1.34375,-0.78125 0.84375,-0.28125 1.85937,-0.28125 0.78125,0 1.35938,0.29687 0.59375,0.28125 0.70312,0.9375 -0.0156,0.42188 -0.26562,0.70313 -0.25,0.26562 -0.71875,0.26562 -0.375,0 -0.70313,-0.25 -0.3125,-0.26562 -0.60937,-0.84375 l -0.3125,-0.5 q -0.40625,0.20313 -0.73438,0.53125 -0.26562,0.26563 -0.45312,0.57813 -0.1875,0.3125 -0.29688,0.78125 -0.0937,0.46875 -0.125,1.20312 h 2.89063 l 1.45312,-0.23437 0.25,0.15625 -0.0469,2.07812 v 2 q 0,0.45313 0,1.07813 0,0.625 0.0156,1.17187 l 0.73438,0.14063 v 0.6875 h -3.89063 v -0.6875 l 0.78125,-0.17188 q 0.0156,-0.53125 0.0156,-1.14062 0,-0.625 0,-1.07813 v -1.0625 q 0,-0.64062 -0.0156,-1.0625 0,-0.4375 -0.0156,-0.875 h -2.17188 v 3 q 0,0.54688 0,1.10938 0.0156,0.54687 0.0312,1.10937 l 0.84375,0.17188 v 0.6875 z m 9.15631,0 v -0.6875 l 0.8125,-0.17188 q 0.0156,-0.5625 0.0156,-1.10937 0.0156,-0.5625 0.0156,-1.10938 v -6.14062 l -0.90625,-0.14063 v -0.625 l 3.07813,-0.65625 0.23437,0.14063 -0.0625,2.0625 v 5.35937 q 0,0.5625 0,1.125 0.0156,0.54688 0.0312,1.10938 l 0.79688,0.15625 v 0.6875 z m 7.54648,0.21875 q -0.96875,0 -1.53125,-0.46875 -0.5625,-0.48438 -0.5625,-1.5625 0,-0.39063 0,-0.71875 0.0156,-0.32813 0.0156,-0.75 v -2.79688 h -0.95312 v -0.875 l 1.09375,-0.14062 0.73437,-2.04688 h 1.48438 l -0.0312,2.0625 h 1.54687 v 1 h -1.54687 v 4.09375 q 0,0.51563 0.21875,0.76563 0.21875,0.23437 0.53125,0.23437 0.39062,0 0.79687,-0.3125 l 0.35938,0.34375 q -0.28125,0.5625 -0.8125,0.875 -0.51563,0.29688 -1.34375,0.29688 z m 6.04767,-6.76563 q -0.40625,0 -0.75,0.5 -0.34375,0.5 -0.39063,1.85938 h 1.23438 q 0.53125,0 0.71875,-0.20313 0.1875,-0.21875 0.1875,-0.71875 0,-0.73437 -0.29688,-1.07812 -0.29687,-0.35938 -0.70312,-0.35938 z m 0.0312,6.76563 q -1.07813,0 -1.90625,-0.4375 -0.8125,-0.45313 -1.28125,-1.29688 -0.46875,-0.84375 -0.46875,-2.01562 0,-1.23438 0.54687,-2.07813 0.5625,-0.84375 1.42188,-1.26562 0.85937,-0.4375 1.79687,-0.4375 0.96875,0 1.64063,0.40625 0.6875,0.40625 1.03125,1.10937 0.35937,0.70313 0.35937,1.59375 0,0.42188 -0.0781,0.78125 h -4.23438 q 0.0625,1.15625 0.625,1.70313 0.57813,0.54687 1.32813,0.54687 0.60937,0 1.03125,-0.21875 0.42187,-0.23437 0.75,-0.57812 l 0.51562,0.46875 q -0.45312,0.875 -1.23437,1.29687 -0.78125,0.42188 -1.84375,0.42188 z m 3.94845,-0.21875 v -0.6875 l 0.8125,-0.15625 q 0.0156,-0.54688 0.0156,-1.15625 0,-0.625 0,-1.07813 v -0.85937 q 0,-0.42188 -0.0156,-0.67188 0,-0.26562 -0.0156,-0.48437 0,-0.23438 -0.0156,-0.53125 l -0.89062,-0.14063 v -0.5625 l 2.89062,-0.98437 0.25,0.15625 0.14063,1.73437 q 0.3125,-0.9375 0.85937,-1.40625 0.5625,-0.48437 1.10938,-0.48437 0.48437,0 0.82812,0.28125 0.35938,0.26562 0.4375,0.79687 -0.0156,0.57813 -0.3125,0.89063 -0.28125,0.3125 -0.71875,0.3125 -0.625,0 -1.14062,-0.6875 l -0.0781,-0.10938 q -0.32812,0.29688 -0.60937,0.76563 -0.26563,0.46875 -0.375,0.98437 v 1 q 0,0.45313 0,1.04688 0,0.57812 0.0156,1.09375 l 1.15625,0.25 v 0.6875 z m 5.50763,1.3125 v -1.3125 h 6.71875 v 1.3125 z m 7.71225,-1.3125 v -0.6875 l 0.79688,-0.17188 q 0.0156,-0.53125 0.0156,-1.14062 0,-0.625 0,-1.07813 v -0.84375 q 0,-0.60937 -0.0156,-0.9375 0,-0.32812 -0.0312,-0.76562 l -0.89063,-0.14063 v -0.5625 l 2.89063,-0.98437 0.25,0.15625 0.0937,1.0625 q 0.51562,-0.60938 1.07812,-0.90625 0.5625,-0.3125 1.20313,-0.3125 1.51562,0 1.95312,1.29687 0.60938,-0.71875 1.17188,-1 0.5625,-0.29687 1.1875,-0.29687 1.125,0 1.625,0.64062 0.51562,0.64063 0.51562,1.95313 v 1.64062 q 0,0.46875 0,1.09375 0,0.60938 0.0156,1.14063 l 0.73437,0.15625 v 0.6875 h -3.78125 v -0.6875 l 0.71875,-0.17188 q 0.0156,-0.53125 0.0156,-1.14062 0,-0.60938 0,-1.07813 v -1.42187 q 0,-0.8125 -0.1875,-1.09375 -0.1875,-0.29688 -0.65625,-0.29688 -0.60938,0 -1.21875,0.53125 0.0156,0.125 0.0156,0.26563 0.0156,0.14062 0.0156,0.29687 v 1.71875 q 0,0.48438 0,1.09375 0,0.60938 0,1.15625 l 0.70312,0.14063 v 0.6875 h -3.78125 v -0.6875 l 0.75,-0.17188 q 0.0156,-0.53125 0.0156,-1.14062 0,-0.60938 0,-1.07813 v -1.40625 q 0,-0.78125 -0.1875,-1.09375 -0.17188,-0.3125 -0.65625,-0.3125 -0.3125,0 -0.625,0.15625 -0.29688,0.14063 -0.57813,0.375 v 2.28125 q 0,0.45313 0,1.07813 0,0.625 0.0156,1.17187 l 0.6875,0.14063 v 0.6875 z m 18.86249,0.20312 q -1.26562,0 -1.60937,-1.04687 -0.46875,0.48437 -0.90625,0.78125 -0.42188,0.28125 -1.1875,0.28125 -0.84375,0 -1.39063,-0.48438 -0.53125,-0.48437 -0.53125,-1.39062 0,-0.53125 0.23438,-0.95313 0.23437,-0.42187 0.84375,-0.78125 0.625,-0.375 1.75,-0.70312 0.21875,-0.0625 0.51562,-0.14063 0.29688,-0.0781 0.59375,-0.14062 v -0.48438 q 0,-0.98437 -0.25,-1.32812 -0.23437,-0.35938 -0.9375,-0.35938 -0.0937,0 -0.1875,0 -0.0781,0 -0.20312,0.0156 l -0.0781,0.64062 q -0.0156,0.71875 -0.32812,1.04688 -0.3125,0.3125 -0.73438,0.3125 -0.8125,0 -0.98437,-0.73438 0.0625,-0.90625 0.92187,-1.46875 0.875,-0.57812 2.45313,-0.57812 1.40625,0 2.01562,0.64062 0.60938,0.64063 0.60938,2.125 v 3.28125 q 0,0.4375 0.3125,0.4375 0.125,0 0.21875,-0.0625 0.10937,-0.0781 0.23437,-0.26562 l 0.39063,0.26562 q -0.26563,0.57813 -0.6875,0.84375 -0.42188,0.25 -1.07813,0.25 z m -3.45312,-2.23437 q 0,0.53125 0.25,0.79687 0.26562,0.26563 0.625,0.26563 0.17187,0 0.34375,-0.0625 0.17187,-0.0781 0.54687,-0.34375 v -2.375 q -0.1875,0.0625 -0.375,0.125 -0.17187,0.0625 -0.3125,0.125 -0.5,0.20312 -0.79687,0.57812 -0.28125,0.375 -0.28125,0.89063 z m 5.28604,5.35937 v -0.6875 l 0.82812,-0.17187 q 0.0156,-0.70313 0.0156,-1.29688 0.0156,-0.57812 0.0156,-1.125 v -3.96875 q 0,-0.60937 -0.0156,-0.9375 0,-0.32812 -0.0312,-0.76562 l -0.90625,-0.14063 v -0.5625 l 2.85937,-0.98437 0.25,0.14062 0.0625,0.82813 q 0.92188,-0.96875 2.17188,-0.96875 0.8125,0 1.45312,0.42187 0.64063,0.42188 1.03125,1.26563 0.39063,0.82812 0.39063,2.04687 0,1.17188 -0.4375,2.03125 -0.4375,0.85938 -1.15625,1.3125 -0.70313,0.45313 -1.54688,0.45313 -1.125,0 -1.84375,-0.76563 v 0.57813 q 0,0.54687 0,1.125 0.0156,0.59375 0.0312,1.26562 l 0.9375,0.21875 v 0.6875 z m 4.1875,-9.35937 q -0.28125,0 -0.53125,0.125 -0.23438,0.10937 -0.46875,0.28125 v 4.25 q 0.4375,0.35937 0.95312,0.35937 0.65625,0 1.0625,-0.60937 0.42188,-0.625 0.42188,-1.92188 0,-1.29687 -0.40625,-1.89062 -0.39063,-0.59375 -1.03125,-0.59375 z"
       id="path4198"
       inkscape:connector-curvature="0"
       style="fill:#202122;fill-rule:nonzero" />
  </g>
</svg>
