<?xml version="1.0" encoding="UTF-8" standalone="no"?>
<svg
   version="1.1"
   viewBox="0 0 412.40161 374.4173"
   fill="none"
   stroke="none"
   stroke-linecap="square"
   stroke-miterlimit="10"
   id="svg269"
   sodipodi:docname="fir-filter-modular.svg"
   width="412.40161"
   height="374.4173"
   inkscape:version="1.1.2 (b8e25be8, 2022-02-05)"
   xmlns:inkscape="http://www.inkscape.org/namespaces/inkscape"
   xmlns:sodipodi="http://sodipodi.sourceforge.net/DTD/sodipodi-0.dtd"
   xmlns="http://www.w3.org/2000/svg"
   xmlns:svg="http://www.w3.org/2000/svg">
  <defs
     id="defs273" />
  <sodipodi:namedview
     id="namedview271"
     pagecolor="#ffffff"
     bordercolor="#666666"
     borderopacity="1.0"
     inkscape:pageshadow="2"
     inkscape:pageopacity="0.0"
     inkscape:pagecheckerboard="0"
     showgrid="false"
     inkscape:zoom="1.1739583"
     inkscape:cx="351.37533"
     inkscape:cy="186.97427"
     inkscape:window-width="1296"
     inkscape:window-height="789"
     inkscape:window-x="278"
     inkscape:window-y="1195"
     inkscape:window-maximized="0"
     inkscape:current-layer="g267" />
  <clipPath
     id="g2ecfbb8f1c8_0_58.0">
    <path
       d="M 0,0 H 960 V 540 H 0 Z"
       clip-rule="nonzero"
       id="path2" />
  </clipPath>
  <g
     clip-path="url(#g2ecfbb8f1c8_0_58.0)"
     id="g267"
     transform="translate(-128.7231,-93.25853)">
    <path
       fill="#fafafa"
       fill-opacity="0.7"
       d="m 238.98163,138.05511 h 191.87402 v 79.90552 H 238.98163 Z"
       fill-rule="evenodd"
       id="path11" />
    <path
       stroke="#000000"
       stroke-width="2"
       stroke-linejoin="round"
       stroke-linecap="butt"
       d="m 238.98163,138.05511 h 191.87402 v 79.90552 H 238.98163 Z"
       fill-rule="evenodd"
       id="path13" />
    <path
       fill="#fafafa"
       fill-opacity="0.7"
       d="m 238.98163,327.18372 h 191.87402 v 79.90552 H 238.98163 Z"
       fill-rule="evenodd"
       id="path15" />
    <path
       stroke="#000000"
       stroke-width="2"
       stroke-linejoin="round"
       stroke-linecap="butt"
       d="m 238.98163,327.18372 h 191.87402 v 79.90552 H 238.98163 Z"
       fill-rule="evenodd"
       id="path17" />
    <path
       fill="#fafafa"
       fill-opacity="0.7"
       d="m 238.98163,232.61942 h 191.87402 v 79.90552 H 238.98163 Z"
       fill-rule="evenodd"
       id="path19" />
    <path
       stroke="#000000"
       stroke-width="2"
       stroke-linejoin="round"
       stroke-linecap="butt"
       d="m 238.98163,232.61942 h 191.87402 v 79.90552 H 238.98163 Z"
       fill-rule="evenodd"
       id="path21" />
    <path
       fill="#fce5cd"
       d="M 413.31235,358.2966 403.1706,398.86352 H 267.26511 L 257.12335,358.2966 Z"
       fill-rule="evenodd"
       id="path23" />
    <path
       stroke="#000000"
       stroke-width="2"
       stroke-linejoin="round"
       stroke-linecap="butt"
       d="M 413.31235,358.2966 403.1706,398.86352 H 267.26511 L 257.12335,358.2966 Z"
       fill-rule="evenodd"
       id="path25" />
    <path
       fill="#000000"
       fill-opacity="0"
       d="m 329.40158,303.7045 v 32.31497"
       fill-rule="evenodd"
       id="path27" />
    <path
       stroke="#000000"
       stroke-width="2"
       stroke-linejoin="round"
       stroke-linecap="butt"
       d="m 329.40158,303.7045 v 32.31497"
       fill-rule="evenodd"
       id="path29" />
    <path
       fill="#000000"
       fill-opacity="0"
       d="m 334.92487,303.70828 v 32.31497"
       fill-rule="evenodd"
       id="path31" />
    <path
       stroke="#000000"
       stroke-width="2"
       stroke-linejoin="round"
       stroke-linecap="butt"
       d="m 334.92487,303.70828 v 32.31497"
       fill-rule="evenodd"
       id="path33" />
    <path
       fill="#000000"
       fill-opacity="0"
       d="m 340.4462,303.70828 v 32.31497"
       fill-rule="evenodd"
       id="path35" />
    <path
       stroke="#000000"
       stroke-width="2"
       stroke-linejoin="round"
       stroke-linecap="butt"
       d="m 340.4462,303.70828 v 32.31497"
       fill-rule="evenodd"
       id="path37" />
    <path
       fill="#000000"
       fill-opacity="0"
       d="m 335.21783,398.86353 v 32.31494"
       fill-rule="evenodd"
       id="path39" />
    <path
       stroke="#000000"
       stroke-width="2"
       stroke-linejoin="round"
       stroke-linecap="butt"
       d="m 335.21783,398.86353 v 20.31494"
       fill-rule="evenodd"
       id="path41" />
    <path
       fill="#000000"
       stroke="#000000"
       stroke-width="2"
       stroke-linecap="butt"
       d="m 331.91437,419.17847 3.30347,9.0762 3.30346,-9.0762 z"
       fill-rule="evenodd"
       id="path43" />
    <path
       fill="#000000"
       fill-opacity="0"
       d="m 291.14172,431.18448 h 88.1575 v 31.08661 h -88.1575 z"
       fill-rule="evenodd"
       id="path45" />
    <path
       fill="#000000"
       d="m 324.29422,445.14655 v -0.71875 h 3.89062 v 0.71875 l -1.07812,0.21875 -3.21875,8.5 q -1,2.65625 -1.9375,3.84375 -0.92188,1.20312 -2.15625,1.20312 -0.75,0 -1.29688,-0.375 -0.54687,-0.375 -0.54687,-0.95312 0.0937,-0.4375 0.48437,-0.65625 0.39063,-0.21875 0.85938,-0.21875 0.39062,0 0.73437,0.17187 0.34375,0.17188 0.73438,0.59375 l 0.10937,0.0937 q 0.64063,-0.54687 1.07813,-1.3125 0.4375,-0.76562 0.71875,-1.5625 l 0.0781,-0.25 -3.60937,-9.14062 -1.10938,-0.15625 v -0.71875 h 4.79688 v 0.73437 l -1.75,0.20313 2.5,6.82812 2.45312,-6.8125 z m 5.95874,5.625 v -4.79688 q 0,-1.59375 -0.0156,-3.17187 0,-1.59375 -0.0469,-3.17188 h 3.8125 v 0.8125 l -2.25,0.26563 q -0.0156,1.28125 -0.0312,2.60937 -0.0156,1.32813 -0.0156,2.65625 v 4.79688 q 0,1.29687 0.0156,2.625 0.0156,1.32812 0.0312,2.625 l 2.25,0.26562 v 0.82813 h -3.8125 q 0.0469,-1.54688 0.0469,-3.15625 0.0156,-1.59375 0.0156,-3.1875 z m 4.73437,3.15625 v -0.71875 l 1.48438,-0.28125 q 0.0156,-0.76563 0.0156,-1.64063 0.0156,-0.875 0.0156,-1.5625 v -0.95312 q 0,-0.82813 -0.0156,-1.35938 0,-0.54687 -0.0312,-1.14062 l -1.57812,-0.1875 v -0.70313 l 2.79687,-1.21875 0.29688,0.20313 0.15625,1.60937 q 0.75,-0.8125 1.70312,-1.3125 0.95313,-0.5 1.875,-0.5 1.29688,0 1.92188,0.875 0.64062,0.875 0.64062,2.82813 v 1.85937 q 0,0.6875 0,1.5625 0.0156,0.875 0.0469,1.64063 l 1.39062,0.28125 v 0.71875 h -4.64062 v -0.71875 l 1.48437,-0.28125 q 0.0156,-0.73438 0.0312,-1.625 0.0156,-0.89063 0.0156,-1.57813 v -1.70312 q 0,-1.375 -0.39063,-1.89063 -0.39062,-0.51562 -1.28125,-0.51562 -0.67187,0 -1.3125,0.28125 -0.64062,0.26562 -1.40625,0.90625 v 2.92187 q 0,0.65625 0.0156,1.54688 0.0156,0.89062 0.0312,1.65625 l 1.375,0.28125 v 0.71875 z m 15.44687,-7.95313 v 4.79688 q 0,1.57812 0,3.15625 0.0156,1.59375 0.0625,3.1875 h -3.82812 v -0.82813 l 2.26562,-0.26562 q 0.0312,-1.29688 0.0312,-2.60938 0,-1.32812 0,-2.64062 v -4.79688 q 0,-1.3125 0,-2.64062 0,-1.32813 -0.0312,-2.625 l -2.26562,-0.26563 v -0.8125 h 3.82812 q -0.0469,1.53125 -0.0625,3.14063 0,1.59375 0,3.20312 z"
       fill-rule="nonzero"
       id="path47" />
    <path
       fill="#000000"
       fill-opacity="0"
       d="m 291.53827,378.56393 v 0 c 0,-7.76086 6.29144,-14.05231 14.05231,-14.05231 v 0 c 3.7269,0 7.30117,1.4805 9.93649,4.11582 2.63531,2.63534 4.11581,6.20959 4.11581,9.93649 v 0 c 0,7.76086 -6.29144,14.05231 -14.0523,14.05231 v 0 c -7.76087,0 -14.05231,-6.29145 -14.05231,-14.05231 z"
       fill-rule="evenodd"
       id="path49" />
    <path
       stroke="#000000"
       stroke-width="2"
       stroke-linejoin="round"
       stroke-linecap="butt"
       d="m 291.53827,378.56393 v 0 c 0,-7.76086 6.29144,-14.05231 14.05231,-14.05231 v 0 c 3.7269,0 7.30117,1.4805 9.93649,4.11582 2.63531,2.63534 4.11581,6.20959 4.11581,9.93649 v 0 c 0,7.76086 -6.29144,14.05231 -14.0523,14.05231 v 0 c -7.76087,0 -14.05231,-6.29145 -14.05231,-14.05231 z"
       fill-rule="evenodd"
       id="path51" />
    <path
       fill="#000000"
       d="m 295.26123,377.7663 h 9.52487 v -9.52487 h 1.61823 v 9.52487 h 9.5249 v 1.61823 h -9.5249 v 9.5249 h -1.61823 v -9.5249 h -9.52487 z"
       fill-rule="evenodd"
       id="path53" />
    <path
       fill="#000000"
       fill-opacity="0"
       d="m 350.1953,378.56393 v 0 c 0,-7.76086 6.29141,-14.05231 14.05231,-14.05231 v 0 c 3.7269,0 7.30114,1.4805 9.93646,4.11582 2.63531,2.63534 4.11581,6.20959 4.11581,9.93649 v 0 c 0,7.76086 -6.29141,14.05231 -14.05227,14.05231 v 0 c -7.7609,0 -14.05231,-6.29145 -14.05231,-14.05231 z"
       fill-rule="evenodd"
       id="path55" />
    <path
       stroke="#000000"
       stroke-width="2"
       stroke-linejoin="round"
       stroke-linecap="butt"
       d="m 350.1953,378.56393 v 0 c 0,-7.76086 6.29141,-14.05231 14.05231,-14.05231 v 0 c 3.7269,0 7.30114,1.4805 9.93646,4.11582 2.63531,2.63534 4.11581,6.20959 4.11581,9.93649 v 0 c 0,7.76086 -6.29141,14.05231 -14.05227,14.05231 v 0 c -7.7609,0 -14.05231,-6.29145 -14.05231,-14.05231 z"
       fill-rule="evenodd"
       id="path57" />
    <path
       fill="#000000"
       d="m 353.91824,377.7663 h 9.5249 v -9.52487 h 1.61823 v 9.52487 h 9.52487 v 1.61823 h -9.52487 v 9.5249 h -1.61823 v -9.5249 h -9.5249 z"
       fill-rule="evenodd"
       id="path59" />
    <path
       fill="#000000"
       fill-opacity="0"
       d="m 278.61417,342.17578 v 16.12601"
       fill-rule="evenodd"
       id="path61" />
    <path
       stroke="#000000"
       stroke-width="2"
       stroke-linejoin="round"
       stroke-linecap="butt"
       d="m 278.61417,342.17578 v 4.12601"
       fill-rule="evenodd"
       id="path63" />
    <path
       fill="#000000"
       stroke="#000000"
       stroke-width="2"
       stroke-linecap="butt"
       d="m 275.3107,346.3018 3.30347,9.0762 3.30346,-9.0762 z"
       fill-rule="evenodd"
       id="path65" />
    <path
       fill="#000000"
       fill-opacity="0"
       d="m 334.9239,342.17767 v 16.12601"
       fill-rule="evenodd"
       id="path67" />
    <path
       stroke="#000000"
       stroke-width="2"
       stroke-linejoin="round"
       stroke-linecap="butt"
       d="m 334.9239,342.17767 v 4.12601"
       fill-rule="evenodd"
       id="path69" />
    <path
       fill="#000000"
       stroke="#000000"
       stroke-width="2"
       stroke-linecap="butt"
       d="m 331.62042,346.30368 3.30347,9.0762 3.30346,-9.0762 z"
       fill-rule="evenodd"
       id="path71" />
    <path
       fill="#000000"
       fill-opacity="0"
       d="m 391.23358,342.17767 v 16.12601"
       fill-rule="evenodd"
       id="path73" />
    <path
       stroke="#000000"
       stroke-width="2"
       stroke-linejoin="round"
       stroke-linecap="butt"
       d="m 391.23358,342.17767 v 4.12601"
       fill-rule="evenodd"
       id="path75" />
    <path
       fill="#000000"
       stroke="#000000"
       stroke-width="2"
       stroke-linecap="butt"
       d="m 387.93015,346.30368 3.30344,9.0762 3.30346,-9.0762 z"
       fill-rule="evenodd"
       id="path77" />
    <path
       fill="#000000"
       fill-opacity="0"
       d="m 340.27298,335.2773 50.9606,7.65356"
       fill-rule="evenodd"
       id="path79" />
    <path
       stroke="#000000"
       stroke-width="2"
       stroke-linejoin="round"
       stroke-linecap="butt"
       d="m 340.27298,335.2773 50.9606,7.65356"
       fill-rule="evenodd"
       id="path81" />
    <path
       fill="#000000"
       fill-opacity="0"
       d="m 334.9239,335.2751 v 7.65356"
       fill-rule="evenodd"
       id="path83" />
    <path
       stroke="#000000"
       stroke-width="2"
       stroke-linejoin="round"
       stroke-linecap="butt"
       d="m 334.9239,335.2751 v 7.65356"
       fill-rule="evenodd"
       id="path85" />
    <path
       fill="#000000"
       fill-opacity="0"
       d="m 329.5748,335.2773 -50.96063,7.65356"
       fill-rule="evenodd"
       id="path87" />
    <path
       stroke="#000000"
       stroke-width="2"
       stroke-linejoin="round"
       stroke-linecap="butt"
       d="m 329.5748,335.2773 -50.96063,7.65356"
       fill-rule="evenodd"
       id="path89" />
    <path
       fill="#000000"
       fill-opacity="0"
       d="m 320.86197,272.56726 v 0 c 0,-7.76086 6.29144,-14.05231 14.05231,-14.05231 v 0 c 3.7269,0 7.30114,1.48053 9.93646,4.11585 2.63531,2.63531 4.11584,6.20956 4.11584,9.93646 v 0 c 0,7.76086 -6.29144,14.05231 -14.0523,14.05231 v 0 c -7.76087,0 -14.05231,-6.29145 -14.05231,-14.05231 z"
       fill-rule="evenodd"
       id="path91" />
    <path
       stroke="#000000"
       stroke-width="2"
       stroke-linejoin="round"
       stroke-linecap="butt"
       d="m 320.86197,272.56726 v 0 c 0,-7.76086 6.29144,-14.05231 14.05231,-14.05231 v 0 c 3.7269,0 7.30114,1.48053 9.93646,4.11585 2.63531,2.63531 4.11584,6.20956 4.11584,9.93646 v 0 c 0,7.76086 -6.29144,14.05231 -14.0523,14.05231 v 0 c -7.76087,0 -14.05231,-6.29145 -14.05231,-14.05231 z"
       fill-rule="evenodd"
       id="path93" />
    <path
       fill="#000000"
       d="m 328.18604,264.6954 6.73288,6.73288 6.73288,-6.73288 1.14389,1.14389 -6.73288,6.73288 6.73288,6.73288 -1.14389,1.14389 -6.73288,-6.73288 -6.73288,6.73288 -1.14389,-1.14389 6.73288,-6.73288 -6.73288,-6.73288 z"
       fill-rule="evenodd"
       id="path95" />
    <path
       fill="#000000"
       fill-opacity="0"
       d="m 264.5575,272.56726 v 0 c 0,-7.76086 6.29144,-14.05231 14.05231,-14.05231 v 0 c 3.7269,0 7.30117,1.48053 9.93649,4.11585 2.63531,2.63531 4.11581,6.20956 4.11581,9.93646 v 0 c 0,7.76086 -6.29141,14.05231 -14.0523,14.05231 v 0 c -7.76087,0 -14.05231,-6.29145 -14.05231,-14.05231 z"
       fill-rule="evenodd"
       id="path97" />
    <path
       stroke="#000000"
       stroke-width="2"
       stroke-linejoin="round"
       stroke-linecap="butt"
       d="m 264.5575,272.56726 v 0 c 0,-7.76086 6.29144,-14.05231 14.05231,-14.05231 v 0 c 3.7269,0 7.30117,1.48053 9.93649,4.11585 2.63531,2.63531 4.11581,6.20956 4.11581,9.93646 v 0 c 0,7.76086 -6.29141,14.05231 -14.0523,14.05231 v 0 c -7.76087,0 -14.05231,-6.29145 -14.05231,-14.05231 z"
       fill-rule="evenodd"
       id="path99" />
    <path
       fill="#000000"
       d="m 271.88156,264.6954 6.73288,6.73288 6.73291,-6.73288 1.14386,1.14389 -6.73288,6.73288 6.73288,6.73288 -1.14386,1.14389 -6.73291,-6.73288 -6.73288,6.73288 -1.14389,-1.14389 6.73291,-6.73288 -6.73291,-6.73288 z"
       fill-rule="evenodd"
       id="path101" />
    <path
       fill="#000000"
       fill-opacity="0"
       d="m 377.16644,272.56726 v 0 c 0,-7.76086 6.29141,-14.05231 14.05231,-14.05231 v 0 c 3.7269,0 7.30114,1.48053 9.93646,4.11585 2.63531,2.63531 4.11581,6.20956 4.11581,9.93646 v 0 c 0,7.76086 -6.29141,14.05231 -14.05227,14.05231 v 0 c -7.7609,0 -14.05231,-6.29145 -14.05231,-14.05231 z"
       fill-rule="evenodd"
       id="path103" />
    <path
       stroke="#000000"
       stroke-width="2"
       stroke-linejoin="round"
       stroke-linecap="butt"
       d="m 377.16644,272.56726 v 0 c 0,-7.76086 6.29141,-14.05231 14.05231,-14.05231 v 0 c 3.7269,0 7.30114,1.48053 9.93646,4.11585 2.63531,2.63531 4.11581,6.20956 4.11581,9.93646 v 0 c 0,7.76086 -6.29141,14.05231 -14.05227,14.05231 v 0 c -7.7609,0 -14.05231,-6.29145 -14.05231,-14.05231 z"
       fill-rule="evenodd"
       id="path105" />
    <path
       fill="#000000"
       d="m 384.49048,264.6954 6.73291,6.73288 6.73288,-6.73288 1.14389,1.14389 -6.73291,6.73288 6.73291,6.73288 -1.14389,1.14389 -6.73288,-6.73288 -6.73291,6.73288 -1.14386,-1.14389 6.73288,-6.73288 -6.73288,-6.73288 z"
       fill-rule="evenodd"
       id="path107" />
    <path
       fill="#000000"
       fill-opacity="0"
       d="m 329.40158,213.5959 v 22.04724"
       fill-rule="evenodd"
       id="path109" />
    <path
       stroke="#000000"
       stroke-width="2"
       stroke-linejoin="round"
       stroke-linecap="butt"
       d="m 329.40158,213.5959 v 22.04724"
       fill-rule="evenodd"
       id="path111" />
    <path
       fill="#000000"
       fill-opacity="0"
       d="m 334.92487,213.59848 v 22.04724"
       fill-rule="evenodd"
       id="path113" />
    <path
       stroke="#000000"
       stroke-width="2"
       stroke-linejoin="round"
       stroke-linecap="butt"
       d="m 334.92487,213.59848 v 22.04724"
       fill-rule="evenodd"
       id="path115" />
    <path
       fill="#000000"
       fill-opacity="0"
       d="m 340.4462,213.59848 v 22.04724"
       fill-rule="evenodd"
       id="path117" />
    <path
       stroke="#000000"
       stroke-width="2"
       stroke-linejoin="round"
       stroke-linecap="butt"
       d="m 340.4462,213.59848 v 22.04724"
       fill-rule="evenodd"
       id="path119" />
    <path
       fill="#000000"
       fill-opacity="0"
       d="m 278.61417,241.8149 v 16.12599"
       fill-rule="evenodd"
       id="path121" />
    <path
       stroke="#000000"
       stroke-width="2"
       stroke-linejoin="round"
       stroke-linecap="butt"
       d="m 278.61417,241.8149 v 4.12599"
       fill-rule="evenodd"
       id="path123" />
    <path
       fill="#000000"
       stroke="#000000"
       stroke-width="2"
       stroke-linecap="butt"
       d="m 275.3107,245.94089 3.30347,9.07619 3.30346,-9.07619 z"
       fill-rule="evenodd"
       id="path125" />
    <path
       fill="#000000"
       fill-opacity="0"
       d="m 334.9239,241.81679 v 16.12599"
       fill-rule="evenodd"
       id="path127" />
    <path
       stroke="#000000"
       stroke-width="2"
       stroke-linejoin="round"
       stroke-linecap="butt"
       d="m 334.9239,241.81679 v 4.12598"
       fill-rule="evenodd"
       id="path129" />
    <path
       fill="#000000"
       stroke="#000000"
       stroke-width="2"
       stroke-linecap="butt"
       d="m 331.62042,245.94276 3.30347,9.0762 3.30346,-9.0762 z"
       fill-rule="evenodd"
       id="path131" />
    <path
       fill="#000000"
       fill-opacity="0"
       d="m 391.23358,241.81679 v 16.12599"
       fill-rule="evenodd"
       id="path133" />
    <path
       stroke="#000000"
       stroke-width="2"
       stroke-linejoin="round"
       stroke-linecap="butt"
       d="m 391.23358,241.81679 v 4.12598"
       fill-rule="evenodd"
       id="path135" />
    <path
       fill="#000000"
       stroke="#000000"
       stroke-width="2"
       stroke-linecap="butt"
       d="m 387.93015,245.94276 3.30344,9.0762 3.30346,-9.0762 z"
       fill-rule="evenodd"
       id="path137" />
    <path
       fill="#000000"
       fill-opacity="0"
       d="m 340.27298,234.91643 50.9606,7.65355"
       fill-rule="evenodd"
       id="path139" />
    <path
       stroke="#000000"
       stroke-width="2"
       stroke-linejoin="round"
       stroke-linecap="butt"
       d="m 340.27298,234.91643 50.9606,7.65355"
       fill-rule="evenodd"
       id="path141" />
    <path
       fill="#000000"
       fill-opacity="0"
       d="m 334.9239,234.9142 v 7.65355"
       fill-rule="evenodd"
       id="path143" />
    <path
       stroke="#000000"
       stroke-width="2"
       stroke-linejoin="round"
       stroke-linecap="butt"
       d="m 334.9239,234.9142 v 7.65355"
       fill-rule="evenodd"
       id="path145" />
    <path
       fill="#000000"
       fill-opacity="0"
       d="m 329.5748,234.91643 -50.96063,7.65355"
       fill-rule="evenodd"
       id="path147" />
    <path
       stroke="#000000"
       stroke-width="2"
       stroke-linejoin="round"
       stroke-linecap="butt"
       d="m 329.5748,234.91643 -50.96063,7.65355"
       fill-rule="evenodd"
       id="path149" />
    <path
       fill="#000000"
       fill-opacity="0"
       d="M 278.60892,297.36237 V 287.28363"
       fill-rule="evenodd"
       id="path151" />
    <path
       stroke="#000000"
       stroke-width="2"
       stroke-linejoin="round"
       stroke-linecap="butt"
       d="M 278.60892,297.36237 V 287.28363"
       fill-rule="evenodd"
       id="path153" />
    <path
       fill="#000000"
       fill-opacity="0"
       d="M 334.91864,297.3612 V 287.28246"
       fill-rule="evenodd"
       id="path155" />
    <path
       stroke="#000000"
       stroke-width="2"
       stroke-linejoin="round"
       stroke-linecap="butt"
       d="M 334.91864,297.3612 V 287.28246"
       fill-rule="evenodd"
       id="path157" />
    <path
       fill="#000000"
       fill-opacity="0"
       d="M 391.22833,297.3612 V 287.28246"
       fill-rule="evenodd"
       id="path159" />
    <path
       stroke="#000000"
       stroke-width="2"
       stroke-linejoin="round"
       stroke-linecap="butt"
       d="M 391.22833,297.3612 V 287.28246"
       fill-rule="evenodd"
       id="path161" />
    <path
       fill="#000000"
       fill-opacity="0"
       d="m 340.26773,304.26117 50.9606,-7.65353"
       fill-rule="evenodd"
       id="path163" />
    <path
       stroke="#000000"
       stroke-width="2"
       stroke-linejoin="round"
       stroke-linecap="butt"
       d="m 340.26773,304.26117 50.9606,-7.65353"
       fill-rule="evenodd"
       id="path165" />
    <path
       fill="#000000"
       fill-opacity="0"
       d="m 334.91864,304.2634 v -7.65353"
       fill-rule="evenodd"
       id="path167" />
    <path
       stroke="#000000"
       stroke-width="2"
       stroke-linejoin="round"
       stroke-linecap="butt"
       d="m 334.91864,304.2634 v -7.65353"
       fill-rule="evenodd"
       id="path169" />
    <path
       fill="#000000"
       fill-opacity="0"
       d="m 329.56955,304.26117 -50.96063,-7.65353"
       fill-rule="evenodd"
       id="path171" />
    <path
       stroke="#000000"
       stroke-width="2"
       stroke-linejoin="round"
       stroke-linecap="butt"
       d="m 329.56955,304.26117 -50.96063,-7.65353"
       fill-rule="evenodd"
       id="path173" />
    <path
       fill="#000000"
       fill-opacity="0"
       d="m 285.25226,257.46313 h 46.70865 v 39.52756 h -46.70865 z"
       fill-rule="evenodd"
       id="path175" />
    <path
       fill="#000000"
       d="m 294.846,284.4269 v -0.71875 l 1.5,-0.26563 q 0.0312,-0.75 0.0312,-1.64062 0.0156,-0.89063 0.0156,-1.57813 v -8.78125 l -1.64062,-0.20312 v -0.6875 l 3.0625,-0.90625 0.28125,0.15625 -0.0781,2.84375 v 3.5625 q 0.71875,-0.79688 1.48438,-1.17188 0.76562,-0.375 1.59375,-0.375 1.0625,0 1.92187,0.59375 0.85938,0.57813 1.35938,1.67188 0.51562,1.09375 0.51562,2.65625 0,1.54687 -0.54687,2.70312 -0.53125,1.14063 -1.46875,1.78125 -0.92188,0.625 -2.10938,0.625 -0.70312,0 -1.40625,-0.29687 -0.6875,-0.3125 -1.34375,-1.125 l -0.17187,1.35937 z m 5.70312,-8.625 q -0.45312,0 -1.0625,0.25 -0.59375,0.23437 -1.42187,0.92187 v 5.46875 q 0.625,0.57813 1.21875,0.84375 0.60937,0.26563 1.17187,0.26563 1.0625,0 1.84375,-0.92188 0.79688,-0.9375 0.79688,-2.89062 0,-1.90625 -0.71875,-2.92188 -0.70313,-1.01562 -1.82813,-1.01562 z"
       fill-rule="nonzero"
       id="path177" />
    <path
       fill="#000000"
       d="m 307.55786,287.63004 q 0,1.54687 0.21875,2.39062 0.23437,0.84375 0.59375,1.17188 0.35937,0.3125 0.76562,0.3125 0.40625,0 0.75,-0.32813 0.35938,-0.32812 0.57813,-1.17187 0.21875,-0.84375 0.21875,-2.375 0,-1.54688 -0.21875,-2.39063 -0.21875,-0.84375 -0.57813,-1.17187 -0.34375,-0.32813 -0.75,-0.32813 -0.3125,0 -0.59375,0.17188 -0.28125,0.17187 -0.5,0.60937 -0.21875,0.42188 -0.35937,1.1875 -0.125,0.75 -0.125,1.92188 z m 1.57812,-4.48438 q 0.70313,0 1.32813,0.4375 0.64062,0.42188 1.04687,1.42188 0.40625,0.98437 0.40625,2.625 0,1.64062 -0.40625,2.625 -0.40625,0.98437 -1.04687,1.42187 -0.625,0.42188 -1.32813,0.42188 -0.70312,0 -1.35937,-0.42188 -0.64063,-0.4375 -1.04688,-1.42187 -0.39062,-0.98438 -0.39062,-2.625 0,-1.64063 0.39062,-2.625 0.40625,-1 1.04688,-1.42188 0.65625,-0.4375 1.35937,-0.4375 z"
       fill-rule="nonzero"
       id="path179" />
    <path
       fill="#000000"
       fill-opacity="0"
       d="m 341.55673,257.46313 h 46.70865 v 39.52756 h -46.70865 z"
       fill-rule="evenodd"
       id="path181" />
    <path
       fill="#000000"
       d="m 351.15048,284.4269 v -0.71875 l 1.5,-0.26563 q 0.0312,-0.75 0.0312,-1.64062 0.0156,-0.89063 0.0156,-1.57813 v -8.78125 l -1.64063,-0.20312 v -0.6875 l 3.0625,-0.90625 0.28125,0.15625 -0.0781,2.84375 v 3.5625 q 0.71875,-0.79688 1.48437,-1.17188 0.76563,-0.375 1.59375,-0.375 1.0625,0 1.92188,0.59375 0.85937,0.57813 1.35937,1.67188 0.51563,1.09375 0.51563,2.65625 0,1.54687 -0.54688,2.70312 -0.53125,1.14063 -1.46875,1.78125 -0.92187,0.625 -2.10937,0.625 -0.70313,0 -1.40625,-0.29687 -0.6875,-0.3125 -1.34375,-1.125 l -0.17188,1.35937 z m 5.70313,-8.625 q -0.45313,0 -1.0625,0.25 -0.59375,0.23437 -1.42188,0.92187 v 5.46875 q 0.625,0.57813 1.21875,0.84375 0.60938,0.26563 1.17188,0.26563 1.0625,0 1.84375,-0.92188 0.79687,-0.9375 0.79687,-2.89062 0,-1.90625 -0.71875,-2.92188 -0.70312,-1.01562 -1.82812,-1.01562 z"
       fill-rule="nonzero"
       id="path183" />
    <path
       fill="#000000"
       d="m 363.23734,283.9113 2.73438,-0.70313 0.1875,0.14063 -0.0469,1.90625 v 3.85937 q 0,0.5 0,1 0.0156,0.5 0.0156,1.01563 l 1.90625,0.3125 v 0.48437 h -4.95313 v -0.48437 l 1.875,-0.3125 q 0.0156,-0.51563 0.0156,-1.01563 0.0156,-0.5 0.0156,-1 v -4.79687 l -1.75,0.14062 z"
       fill-rule="nonzero"
       id="path185" />
    <path
       fill="#000000"
       fill-opacity="0"
       d="m 397.86118,257.46313 h 46.70868 v 39.52756 h -46.70868 z"
       fill-rule="evenodd"
       id="path187" />
    <path
       fill="#000000"
       d="m 407.45493,284.4269 v -0.71875 l 1.5,-0.26563 q 0.0312,-0.75 0.0312,-1.64062 0.0156,-0.89063 0.0156,-1.57813 v -8.78125 l -1.64062,-0.20312 v -0.6875 l 3.0625,-0.90625 0.28125,0.15625 -0.0781,2.84375 v 3.5625 q 0.71875,-0.79688 1.48438,-1.17188 0.76562,-0.375 1.59375,-0.375 1.0625,0 1.92187,0.59375 0.85938,0.57813 1.35938,1.67188 0.51562,1.09375 0.51562,2.65625 0,1.54687 -0.54687,2.70312 -0.53125,1.14063 -1.46875,1.78125 -0.92188,0.625 -2.10938,0.625 -0.70312,0 -1.40625,-0.29687 -0.6875,-0.3125 -1.34375,-1.125 l -0.17187,1.35937 z m 5.70312,-8.625 q -0.45312,0 -1.0625,0.25 -0.59375,0.23437 -1.42187,0.92187 v 5.46875 q 0.625,0.57813 1.21875,0.84375 0.60937,0.26563 1.17187,0.26563 1.0625,0 1.84375,-0.92188 0.79688,-0.9375 0.79688,-2.89062 0,-1.90625 -0.71875,-2.92188 -0.70313,-1.01562 -1.82813,-1.01562 z"
       fill-rule="nonzero"
       id="path189" />
    <path
       fill="#000000"
       d="m 419.05743,291.9269 v -0.85938 q 0.53125,-0.53125 1.03125,-1.03125 0.5,-0.51562 0.92187,-0.96875 1,-1.0625 1.46875,-1.90625 0.46875,-0.85937 0.46875,-1.625 0,-0.82812 -0.4375,-1.3125 -0.4375,-0.48437 -1.17187,-0.48437 -0.125,0 -0.29688,0.0156 -0.15625,0.0156 -0.34375,0.0625 l -0.26562,0.90625 q -0.125,0.5 -0.3125,0.70313 -0.17188,0.20312 -0.45313,0.20312 -0.4375,0 -0.67187,-0.42187 0.0781,-0.70313 0.45312,-1.15625 0.39063,-0.46875 0.96875,-0.6875 0.59375,-0.21875 1.26563,-0.21875 1.29687,0 1.875,0.64062 0.59375,0.625 0.59375,1.625 0,0.57813 -0.23438,1.14063 -0.23437,0.54687 -0.8125,1.23437 -0.57812,0.6875 -1.59375,1.67188 -0.26562,0.26562 -0.65625,0.625 -0.375,0.35937 -0.78125,0.75 h 4.45313 v 1.09375 z"
       fill-rule="nonzero"
       id="path191" />
    <path
       fill="#000000"
       fill-opacity="0"
       d="M 278.60892,207.23195 V 197.1532"
       fill-rule="evenodd"
       id="path193" />
    <path
       stroke="#000000"
       stroke-width="2"
       stroke-linejoin="round"
       stroke-linecap="butt"
       d="M 278.60892,207.23195 V 197.1532"
       fill-rule="evenodd"
       id="path195" />
    <path
       fill="#000000"
       fill-opacity="0"
       d="M 334.91864,207.23076 V 197.15202"
       fill-rule="evenodd"
       id="path197" />
    <path
       stroke="#000000"
       stroke-width="2"
       stroke-linejoin="round"
       stroke-linecap="butt"
       d="M 334.91864,207.23076 V 197.15202"
       fill-rule="evenodd"
       id="path199" />
    <path
       fill="#000000"
       fill-opacity="0"
       d="M 391.22833,207.23076 V 197.15202"
       fill-rule="evenodd"
       id="path201" />
    <path
       stroke="#000000"
       stroke-width="2"
       stroke-linejoin="round"
       stroke-linecap="butt"
       d="M 391.22833,207.23076 V 197.15202"
       fill-rule="evenodd"
       id="path203" />
    <path
       fill="#000000"
       fill-opacity="0"
       d="m 340.26773,214.13075 50.9606,-7.65355"
       fill-rule="evenodd"
       id="path205" />
    <path
       stroke="#000000"
       stroke-width="2"
       stroke-linejoin="round"
       stroke-linecap="butt"
       d="m 340.26773,214.13075 50.9606,-7.65355"
       fill-rule="evenodd"
       id="path207" />
    <path
       fill="#000000"
       fill-opacity="0"
       d="m 334.91864,214.13297 v -7.65353"
       fill-rule="evenodd"
       id="path209" />
    <path
       stroke="#000000"
       stroke-width="2"
       stroke-linejoin="round"
       stroke-linecap="butt"
       d="m 334.91864,214.13297 v -7.65353"
       fill-rule="evenodd"
       id="path211" />
    <path
       fill="#000000"
       fill-opacity="0"
       d="M 329.56955,214.13075 278.60892,206.4772"
       fill-rule="evenodd"
       id="path213" />
    <path
       stroke="#000000"
       stroke-width="2"
       stroke-linejoin="round"
       stroke-linecap="butt"
       d="M 329.56955,214.13075 278.60892,206.4772"
       fill-rule="evenodd"
       id="path215" />
    <path
       fill="#000000"
       fill-opacity="0"
       d="M 278.60892,124.21785 V 198.1076"
       fill-rule="evenodd"
       id="path217" />
    <path
       stroke="#000000"
       stroke-width="2"
       stroke-linejoin="round"
       stroke-linecap="butt"
       d="M 278.60892,124.21785 V 198.1076"
       fill-rule="evenodd"
       id="path219" />
    <path
       fill="#000000"
       fill-opacity="0"
       d="M 317.23358,178.36482 H 279.09186"
       fill-rule="evenodd"
       id="path221" />
    <path
       stroke="#000000"
       stroke-width="2"
       stroke-linejoin="round"
       stroke-linecap="butt"
       d="M 305.23358,178.36482 H 279.09186"
       fill-rule="evenodd"
       id="path223" />
    <path
       fill="#000000"
       stroke="#000000"
       stroke-width="2"
       stroke-linecap="butt"
       d="m 305.23358,181.66829 9.0762,-3.30347 -9.0762,-3.30345 z"
       fill-rule="evenodd"
       id="path225" />
    <path
       fill="#f3f3f3"
       d="m 317.23358,160.6798 h 35.37009 v 35.37007 h -35.37009 z"
       fill-rule="evenodd"
       id="path227" />
    <path
       stroke="#000000"
       stroke-width="2"
       stroke-linejoin="round"
       stroke-linecap="butt"
       d="m 317.23358,160.6798 h 35.37009 v 35.37007 h -35.37009 z"
       fill-rule="evenodd"
       id="path229" />
    <path
       fill="#000000"
       d="m 324.2749,186.62483 v -0.79688 l 6.5,-8.98437 h -4.57813 l -0.60937,2.51562 -1.17188,-0.0937 0.17188,-3.40625 h 8.45312 v 0.8125 l -6.48437,9 h 4.96875 l 0.6875,-2.73437 h 1.17187 l -0.23437,3.6875 z"
       fill-rule="nonzero"
       id="path231" />
    <path
       fill="#000000"
       d="m 334.55923,174.82796 v -1 h 3.5 v 1 z m 5.38599,-5.78125 3.10937,-0.79688 0.21875,0.14063 -0.0625,2.17187 v 4.375 q 0,0.5625 0,1.14063 0.0156,0.5625 0.0312,1.14062 l 2.14063,0.35938 v 0.54687 h -5.59375 v -0.54687 l 2.125,-0.35938 q 0.0156,-0.57812 0.0156,-1.14062 0.0156,-0.57813 0.0156,-1.14063 v -5.4375 l -2,0.15625 z"
       fill-rule="nonzero"
       id="path233" />
    <path
       fill="#f3f3f3"
       d="m 373.53674,160.6798 h 35.37009 v 35.37007 h -35.37009 z"
       fill-rule="evenodd"
       id="path235" />
    <path
       stroke="#000000"
       stroke-width="2"
       stroke-linejoin="round"
       stroke-linecap="butt"
       d="m 373.53674,160.6798 h 35.37009 v 35.37007 h -35.37009 z"
       fill-rule="evenodd"
       id="path237" />
    <path
       fill="#000000"
       d="m 380.57803,186.62483 v -0.79688 l 6.5,-8.98437 h -4.57813 l -0.60937,2.51562 -1.17188,-0.0937 0.17188,-3.40625 h 8.45312 v 0.8125 l -6.48437,9 h 4.96875 l 0.6875,-2.73437 h 1.17187 l -0.23437,3.6875 z"
       fill-rule="nonzero"
       id="path239" />
    <path
       fill="#000000"
       d="m 390.8624,174.82796 v -1 h 3.5 v 1 z m 5.38596,-5.78125 3.10937,-0.79688 0.21875,0.14063 -0.0625,2.17187 v 4.375 q 0,0.5625 0,1.14063 0.0156,0.5625 0.0312,1.14062 l 2.14063,0.35938 v 0.54687 h -5.59375 v -0.54687 l 2.125,-0.35938 q 0.0156,-0.57812 0.0156,-1.14062 0.0156,-0.57813 0.0156,-1.14063 v -5.4375 l -2,0.15625 z"
       fill-rule="nonzero"
       id="path241" />
    <path
       fill="#000000"
       fill-opacity="0"
       d="M 373.53674,178.36482 H 352.59185"
       fill-rule="evenodd"
       id="path243" />
    <path
       stroke="#000000"
       stroke-width="2"
       stroke-linejoin="round"
       stroke-linecap="butt"
       d="m 361.53674,178.36482 h -8.94489"
       fill-rule="evenodd"
       id="path245" />
    <path
       fill="#000000"
       stroke="#000000"
       stroke-width="2"
       stroke-linecap="butt"
       d="m 361.53674,181.66829 9.0762,-3.30347 -9.0762,-3.30345 z"
       fill-rule="evenodd"
       id="path247" />
    <path
       fill="#000000"
       fill-opacity="0"
       d="m 234.53018,92.31046 h 88.15747 v 31.08661 h -88.15747 z"
       fill-rule="evenodd"
       id="path249" />
    <path
       fill="#000000"
       d="m 267.51144,106.33502 v -0.78125 h 3.75 v 0.78125 l -1.1875,0.21875 -2.85938,3.51563 2.78125,3.98437 1.51563,0.28125 v 0.71875 h -4.875 v -0.71875 l 1.42187,-0.26562 -1.95312,-2.85938 -2.20313,2.85938 1.5,0.26562 v 0.71875 h -4 v -0.71875 l 1.28125,-0.23437 2.92188,-3.625 -2.6875,-3.92188 -1.375,-0.21875 v -0.78125 h 4.45312 v 0.78125 l -1.21875,0.21875 1.92188,2.78125 2.14062,-2.73437 z m 6.26999,5.5625 v -4.79687 q 0,-1.59375 -0.0156,-3.17188 0,-1.59375 -0.0469,-3.17187 h 3.8125 v 0.8125 l -2.25,0.26562 q -0.0156,1.28125 -0.0312,2.60938 -0.0156,1.32812 -0.0156,2.65625 v 4.79687 q 0,1.29688 0.0156,2.625 0.0156,1.32813 0.0312,2.625 l 2.25,0.26563 v 0.82812 h -3.8125 q 0.0469,-1.54687 0.0469,-3.15625 0.0156,-1.59375 0.0156,-3.1875 z m 4.73437,3.15625 v -0.71875 l 1.48438,-0.28125 q 0.0156,-0.76562 0.0156,-1.64062 0.0156,-0.875 0.0156,-1.5625 v -0.95313 q 0,-0.82812 -0.0156,-1.35937 0,-0.54688 -0.0312,-1.14063 l -1.57812,-0.1875 v -0.70312 l 2.79687,-1.21875 0.29688,0.20312 0.15625,1.60938 q 0.75,-0.8125 1.70312,-1.3125 0.95313,-0.5 1.875,-0.5 1.29688,0 1.92188,0.875 0.64062,0.875 0.64062,2.82812 v 1.85938 q 0,0.6875 0,1.5625 0.0156,0.875 0.0469,1.64062 l 1.39062,0.28125 v 0.71875 h -4.64062 v -0.71875 l 1.48437,-0.28125 q 0.0156,-0.73437 0.0312,-1.625 0.0156,-0.89062 0.0156,-1.57812 v -1.70313 q 0,-1.375 -0.39063,-1.89062 -0.39062,-0.51563 -1.28125,-0.51563 -0.67187,0 -1.3125,0.28125 -0.64062,0.26563 -1.40625,0.90625 v 2.92188 q 0,0.65625 0.0156,1.54687 0.0156,0.89063 0.0312,1.65625 l 1.375,0.28125 v 0.71875 z m 15.44687,-7.95312 v 4.79687 q 0,1.57813 0,3.15625 0.0156,1.59375 0.0625,3.1875 h -3.82812 v -0.82812 l 2.26562,-0.26563 q 0.0312,-1.29687 0.0312,-2.60937 0,-1.32813 0,-2.64063 v -4.79687 q 0,-1.3125 0,-2.64063 0,-1.32812 -0.0312,-2.625 l -2.26562,-0.26562 v -0.8125 h 3.82812 q -0.0469,1.53125 -0.0625,3.14062 0,1.59375 0,3.20313 z"
       fill-rule="nonzero"
       id="path251" />
    <path
       fill="#000000"
       fill-opacity="0"
       d="m 141.40683,138.05511 h 97.5748 v 57.98425 h -97.5748 z"
       fill-rule="evenodd"
       id="path253" />
    <path
       fill="#000000"
       d="m 178.3924,147.13261 v -0.67188 h 3.17187 v 0.67188 l -0.9375,0.23437 -2.53125,7.4375 h -0.64062 l -2.25,-6.15625 -2.28125,6.15625 h -0.64063 l -2.79687,-7.48437 -0.98438,-0.1875 v -0.67188 h 3.95313 v 0.67188 l -1.35938,0.21875 1.79688,5.3125 1.9375,-5.3125 -1.28125,-0.21875 v -0.67188 h 3.82812 v 0.67188 l -1.28125,0.23437 1.96875,5.28125 1.60938,-5.26562 z m 3.95737,7.5625 v -0.625 l 1.29687,-0.23438 q 0.0156,-0.67187 0.0156,-1.4375 0.0156,-0.76562 0.0156,-1.34375 v -0.8125 q 0,-0.70312 -0.0156,-1.17187 0,-0.48438 -0.0312,-1.01563 l -1.39063,-0.15625 v -0.60937 l 2.67188,-1.04688 0.26562,0.17188 -0.0625,2.35937 v 2.28125 q 0,0.57813 0,1.34375 0.0156,0.76563 0.0312,1.4375 l 1.21875,0.23438 v 0.625 z m 2.04687,-10.35938 q -0.48437,0 -0.82812,-0.3125 -0.34375,-0.3125 -0.34375,-0.79687 0,-0.5 0.34375,-0.79688 0.34375,-0.3125 0.82812,-0.3125 0.48438,0 0.8125,0.3125 0.34375,0.29688 0.34375,0.79688 0,0.48437 -0.34375,0.79687 -0.32812,0.3125 -0.8125,0.3125 z m 3.19501,10.35938 v -0.625 l 1.28125,-0.23438 q 0.0312,-0.67187 0.0312,-1.42187 0.0156,-0.76563 0.0156,-1.35938 v -0.82812 q 0,-0.71875 -0.0156,-1.17188 0,-0.46875 -0.0469,-1 l -1.35937,-0.15625 v -0.60937 l 2.42187,-1.04688 0.26563,0.17188 0.125,1.39062 q 0.65625,-0.70312 1.48437,-1.125 0.82813,-0.4375 1.625,-0.4375 1.125,0 1.67188,0.75 0.54687,0.75 0.54687,2.45313 v 1.60937 q 0,0.59375 0,1.35938 0.0156,0.75 0.0312,1.42187 l 1.21875,0.23438 v 0.625 h -4.03125 v -0.625 l 1.29688,-0.23438 q 0.0156,-0.64062 0.0156,-1.40625 0.0156,-0.78125 0.0156,-1.375 v -1.46875 q 0,-1.20312 -0.34375,-1.64062 -0.32813,-0.45313 -1.09375,-0.45313 -0.59375,0 -1.15625,0.25 -0.54688,0.23438 -1.20313,0.78125 v 2.53125 q 0,0.57813 0,1.34375 0.0156,0.76563 0.0312,1.4375 l 1.20313,0.23438 v 0.625 z m 12.15703,-4.07813 q 0,1.70313 0.67187,2.51563 0.6875,0.79687 1.73438,0.79687 0.5625,0 1,-0.23437 0.45312,-0.23438 0.9375,-0.76563 v -4.79687 q -0.59375,-0.53125 -1.0625,-0.71875 -0.46875,-0.1875 -0.89063,-0.1875 -0.64062,0 -1.1875,0.35937 -0.54687,0.34375 -0.875,1.10938 -0.32812,0.75 -0.32812,1.92187 z m 4.51562,4.25 -0.125,-1.1875 q -0.4375,0.57813 -1.03125,0.90625 -0.57812,0.32813 -1.39062,0.32813 -1.0625,0 -1.85938,-0.53125 -0.79687,-0.53125 -1.23437,-1.48438 -0.4375,-0.96875 -0.4375,-2.23437 0,-1.34375 0.48437,-2.32813 0.48438,-0.98437 1.3125,-1.53125 0.82813,-0.5625 1.89063,-0.5625 0.60937,0 1.17187,0.25 0.5625,0.23438 1.09375,0.875 v -3.92187 l -1.46875,-0.17188 v -0.60937 l 2.70313,-0.78125 0.25,0.14062 -0.0781,2.46875 v 9.375 l 1.40625,0.20313 v 0.625 z m 7.71562,0.0469 q -1,0 -1.92187,-0.46875 -0.90625,-0.48438 -1.48438,-1.4375 -0.5625,-0.96875 -0.5625,-2.39063 0,-1.4375 0.5625,-2.40625 0.57813,-0.98437 1.48438,-1.46875 0.92187,-0.5 1.92187,-0.5 1,0 1.90625,0.5 0.92188,0.48438 1.5,1.46875 0.57813,0.96875 0.57813,2.40625 0,1.42188 -0.57813,2.39063 -0.57812,0.95312 -1.5,1.4375 -0.90625,0.46875 -1.90625,0.46875 z m 0,-0.76563 q 1.125,0 1.73438,-0.89062 0.60937,-0.90625 0.60937,-2.64063 0,-1.75 -0.60937,-2.65625 -0.60938,-0.92187 -1.73438,-0.92187 -1.125,0 -1.73437,0.92187 -0.59375,0.90625 -0.59375,2.65625 0,1.73438 0.59375,2.64063 0.60937,0.89062 1.73437,0.89062 z m 14.65372,-7.01562 v -0.67188 h 3.17188 v 0.67188 l -0.9375,0.23437 -2.53125,7.4375 h -0.64063 l -2.25,-6.15625 -2.28125,6.15625 h -0.64062 l -2.79688,-7.48437 -0.98437,-0.1875 v -0.67188 h 3.95312 v 0.67188 l -1.35937,0.21875 1.79687,5.3125 1.9375,-5.3125 -1.28125,-0.21875 v -0.67188 h 3.82813 v 0.67188 l -1.28125,0.23437 1.96875,5.28125 1.60937,-5.26562 z"
       fill-rule="nonzero"
       id="path255" />
    <path
       fill="#000000"
       d="m 154.73676,170.68262 q 0,1.375 0.23437,2.59375 0.25,1.20312 0.82813,2.4375 0.59375,1.23437 1.60937,2.70312 l -0.45312,0.40625 q -1.82813,-1.71875 -2.71875,-3.73437 -0.875,-2.03125 -0.875,-4.40625 0,-2.375 0.875,-4.40625 0.89062,-2.03125 2.71875,-3.75 l 0.45312,0.40625 q -1.01562,1.46875 -1.60937,2.71875 -0.57813,1.23437 -0.82813,2.4375 -0.23437,1.20312 -0.23437,2.59375 z m 3.49629,4.8125 v -0.625 l 1.23438,-0.21875 q 0.0312,-0.65625 0.0312,-1.42188 0.0156,-0.78125 0.0156,-1.375 v -0.82812 q 0,-0.71875 -0.0156,-1.17188 0,-0.46875 -0.0469,-1 l -1.35937,-0.15625 v -0.60937 l 2.42187,-1.04688 0.26563,0.17188 0.1875,2.04687 q 0.4375,-1.04687 1.10937,-1.625 0.6875,-0.59375 1.375,-0.59375 0.40625,0 0.75,0.17188 0.34375,0.17187 0.5,0.46875 0,1.26562 -1.01562,1.26562 -0.29688,0 -0.5625,-0.10937 -0.25,-0.125 -0.5,-0.32813 l -0.20313,-0.1875 q -0.51562,0.375 -0.875,0.9375 -0.34375,0.54688 -0.5625,1.29688 v 1.29687 q 0,0.57813 0,1.34375 0.0156,0.75 0.0312,1.40625 l 1.42188,0.26563 v 0.625 z m 11.0783,-7.65625 q -0.48438,0 -0.98438,0.28125 -0.48437,0.26562 -0.84375,0.875 -0.34375,0.60937 -0.45312,1.60937 h 3.15625 q 0.625,0 0.8125,-0.25 0.20312,-0.26562 0.20312,-0.64062 0,-0.51563 -0.25,-0.9375 -0.25,-0.42188 -0.67187,-0.67188 -0.42188,-0.26562 -0.96875,-0.26562 z m -0.0156,7.875 q -1.75,0 -2.8125,-1.125 -1.04687,-1.14063 -1.04687,-3.125 0,-1.34375 0.54687,-2.32813 0.54688,-0.98437 1.45313,-1.53125 0.90625,-0.5625 1.98437,-0.5625 0.90625,0 1.625,0.40625 0.73438,0.39063 1.15625,1.125 0.4375,0.73438 0.4375,1.79688 0,0.29687 -0.0312,0.54687 -0.0312,0.25 -0.0937,0.42188 h -5.51562 q 0.0312,1.59375 0.79687,2.42187 0.76563,0.82813 2,0.82813 0.84375,0 1.39063,-0.32813 0.5625,-0.34375 1.03125,-0.875 l 0.40625,0.32813 q -0.48438,0.92187 -1.3125,1.46875 -0.82813,0.53125 -2.01563,0.53125 z m 8.30605,-3.6875 q 0.82812,0 1.29687,-0.625 0.46875,-0.625 0.46875,-1.57813 0,-0.90625 -0.45312,-1.48437 -0.4375,-0.59375 -1.25,-0.59375 -0.8125,0 -1.28125,0.60937 -0.46875,0.59375 -0.46875,1.54688 0,0.95312 0.4375,1.54687 0.45312,0.57813 1.25,0.57813 z m 0.0312,0.70312 q -0.67188,0 -1.28125,-0.20312 -0.4375,0.5625 -0.4375,1.10937 0,0.35938 0.20312,0.5625 0.20313,0.20313 0.8125,0.20313 h 2.26563 q 1.4375,0 2.10937,0.59375 0.67188,0.59375 0.67188,1.64062 0,0.75 -0.48438,1.4375 -0.46875,0.70313 -1.42187,1.125 -0.95313,0.4375 -2.375,0.4375 -1.875,0 -2.73438,-0.59375 -0.84375,-0.57812 -0.84375,-1.5 0,-0.5625 0.375,-1.04687 0.375,-0.46875 1.32813,-0.9375 -1.15625,-0.3125 -1.15625,-1.3125 0,-0.40625 0.26562,-0.85938 0.28125,-0.45312 0.92188,-1.0625 -0.625,-0.34375 -0.98438,-0.95312 -0.35937,-0.60938 -0.35937,-1.48438 0,-1.375 0.89062,-2.10937 0.90625,-0.73438 2.25,-0.73438 1.375,0 2.20313,0.67188 l 1.95312,-0.67188 0.26563,0.17188 v 1.09375 h -1.70313 q 0.40625,0.64062 0.40625,1.57812 0,1.35938 -0.89062,2.10938 -0.89063,0.73437 -2.25,0.73437 z m -2.09375,4.53125 q 0,0.84375 0.59375,1.20313 0.60937,0.375 1.64062,0.375 1.42188,0 2.15625,-0.51563 0.75,-0.5 0.75,-1.23437 0,-0.57813 -0.40625,-0.96875 -0.39062,-0.375 -1.32812,-0.375 h -2.01563 q -0.1875,0 -0.375,-0.0156 -0.17187,-0.0156 -0.34375,-0.0312 -0.35937,0.39063 -0.51562,0.75 -0.15625,0.375 -0.15625,0.8125 z m 7.53842,-1.76562 v -0.625 l 1.29687,-0.23438 q 0.0156,-0.67187 0.0156,-1.4375 0.0156,-0.76562 0.0156,-1.34375 v -0.8125 q 0,-0.70312 -0.0156,-1.17187 0,-0.48438 -0.0312,-1.01563 l -1.39063,-0.15625 v -0.60937 l 2.67188,-1.04688 0.26562,0.17188 -0.0625,2.35937 v 2.28125 q 0,0.57813 0,1.34375 0.0156,0.76563 0.0312,1.4375 l 1.21875,0.23438 v 0.625 z m 2.04687,-10.35938 q -0.48437,0 -0.82812,-0.3125 -0.34375,-0.3125 -0.34375,-0.79687 0,-0.5 0.34375,-0.79688 0.34375,-0.3125 0.82812,-0.3125 0.48438,0 0.8125,0.3125 0.34375,0.29688 0.34375,0.79688 0,0.48437 -0.34375,0.79687 -0.32812,0.3125 -0.8125,0.3125 z m 5.97626,10.57813 q -0.73438,0 -1.34375,-0.17188 -0.59375,-0.15625 -1.23438,-0.48437 l -0.0781,-1.90625 h 0.95312 l 0.32813,1.51562 q 0.60937,0.28125 1.40625,0.28125 0.98437,0 1.45312,-0.35937 0.48438,-0.375 0.48438,-0.96875 0,-0.54688 -0.40625,-0.89063 -0.39063,-0.34375 -1.20313,-0.60937 l -0.79687,-0.29688 q -0.95313,-0.34375 -1.53125,-0.89062 -0.5625,-0.5625 -0.5625,-1.45313 0,-0.64062 0.34375,-1.1875 0.34375,-0.5625 1.01562,-0.90625 0.6875,-0.34375 1.65625,-0.34375 0.70313,0 1.28125,0.1875 0.59375,0.17188 1.14063,0.51563 l -0.0625,1.76562 h -0.90625 l -0.28125,-1.375 q -0.57813,-0.29687 -1.1875,-0.29687 -0.79688,0 -1.20313,0.32812 -0.40625,0.3125 -0.40625,0.84375 0,0.57813 0.34375,0.875 0.35938,0.29688 1.25,0.625 l 0.53125,0.1875 q 1.29688,0.48438 1.84375,1.10938 0.54688,0.625 0.54688,1.4375 0,0.65625 -0.39063,1.21875 -0.375,0.5625 -1.125,0.90625 -0.73437,0.34375 -1.85937,0.34375 z m 7.59848,0 q -0.89063,0 -1.4375,-0.48438 -0.53125,-0.48437 -0.53125,-1.48437 0,-0.32813 0,-0.64063 0.0156,-0.32812 0.0156,-0.82812 v -4.09375 h -1.4375 v -0.76563 l 1.54688,-0.1875 0.45312,-2.32812 h 1.03125 l -0.10937,2.35937 h 2.34375 v 0.92188 h -2.35938 v 5.375 q 0,0.65625 0.26563,0.96875 0.26562,0.29687 0.6875,0.29687 0.29687,0 0.5625,-0.125 0.28125,-0.125 0.60937,-0.34375 l 0.40625,0.45313 q -0.70312,0.90625 -2.04687,0.90625 z m 6.74098,-7.875 q -0.48437,0 -0.98437,0.28125 -0.48438,0.26562 -0.84375,0.875 -0.34375,0.60937 -0.45313,1.60937 h 3.15625 q 0.625,0 0.8125,-0.25 0.20313,-0.26562 0.20313,-0.64062 0,-0.51563 -0.25,-0.9375 -0.25,-0.42188 -0.67188,-0.67188 -0.42187,-0.26562 -0.96875,-0.26562 z m -0.0156,7.875 q -1.75,0 -2.8125,-1.125 -1.04688,-1.14063 -1.04688,-3.125 0,-1.34375 0.54688,-2.32813 0.54687,-0.98437 1.45312,-1.53125 0.90625,-0.5625 1.98438,-0.5625 0.90625,0 1.625,0.40625 0.73437,0.39063 1.15625,1.125 0.4375,0.73438 0.4375,1.79688 0,0.29687 -0.0312,0.54687 -0.0312,0.25 -0.0937,0.42188 h -5.51563 q 0.0312,1.59375 0.79688,2.42187 0.76562,0.82813 2,0.82813 0.84375,0 1.39062,-0.32813 0.5625,-0.34375 1.03125,-0.875 l 0.40625,0.32813 q -0.48437,0.92187 -1.3125,1.46875 -0.82812,0.53125 -2.01562,0.53125 z m 4.93104,-0.21875 v -0.625 l 1.23438,-0.21875 q 0.0312,-0.65625 0.0312,-1.42188 0.0156,-0.78125 0.0156,-1.375 v -0.82812 q 0,-0.71875 -0.0156,-1.17188 0,-0.46875 -0.0469,-1 l -1.35937,-0.15625 v -0.60937 l 2.42187,-1.04688 0.26563,0.17188 0.1875,2.04687 q 0.4375,-1.04687 1.10937,-1.625 0.6875,-0.59375 1.375,-0.59375 0.40625,0 0.75,0.17188 0.34375,0.17187 0.5,0.46875 0,1.26562 -1.01562,1.26562 -0.29688,0 -0.5625,-0.10937 -0.25,-0.125 -0.5,-0.32813 l -0.20313,-0.1875 q -0.51562,0.375 -0.875,0.9375 -0.34375,0.54688 -0.5625,1.29688 v 1.29687 q 0,0.57813 0,1.34375 0.0156,0.75 0.0312,1.40625 l 1.42188,0.26563 v 0.625 z m 9.8908,0.21875 q -0.73438,0 -1.34375,-0.17188 -0.59375,-0.15625 -1.23438,-0.48437 l -0.0781,-1.90625 h 0.95312 l 0.32813,1.51562 q 0.60937,0.28125 1.40625,0.28125 0.98437,0 1.45312,-0.35937 0.48438,-0.375 0.48438,-0.96875 0,-0.54688 -0.40625,-0.89063 -0.39063,-0.34375 -1.20313,-0.60937 l -0.79687,-0.29688 q -0.95313,-0.34375 -1.53125,-0.89062 -0.5625,-0.5625 -0.5625,-1.45313 0,-0.64062 0.34375,-1.1875 0.34375,-0.5625 1.01562,-0.90625 0.6875,-0.34375 1.65625,-0.34375 0.70313,0 1.28125,0.1875 0.59375,0.17188 1.14063,0.51563 l -0.0625,1.76562 H 222.184 l -0.28125,-1.375 q -0.57813,-0.29687 -1.1875,-0.29687 -0.79688,0 -1.20313,0.32812 -0.40625,0.3125 -0.40625,0.84375 0,0.57813 0.34375,0.875 0.35938,0.29688 1.25,0.625 l 0.53125,0.1875 q 1.29688,0.48438 1.84375,1.10938 0.54688,0.625 0.54688,1.4375 0,0.65625 -0.39063,1.21875 -0.375,0.5625 -1.125,0.90625 -0.73437,0.34375 -1.85937,0.34375 z m 6.9703,-5.03125 q 0,-1.39063 -0.25,-2.59375 -0.25,-1.20313 -0.82812,-2.4375 -0.57813,-1.25 -1.59375,-2.71875 l 0.45312,-0.40625 q 1.82813,1.71875 2.70313,3.75 0.89062,2.03125 0.89062,4.40625 0,2.375 -0.89062,4.40625 -0.875,2.01562 -2.70313,3.73437 l -0.45312,-0.40625 q 1.01562,-1.46875 1.59375,-2.70312 0.57812,-1.23438 0.82812,-2.4375 0.25,-1.21875 0.25,-2.59375 z"
       fill-rule="nonzero"
       id="path257" />
    <path
       fill="#000000"
       fill-opacity="0"
       d="m 141.40683,232.61942 h 97.5748 v 57.98425 h -97.5748 z"
       fill-rule="evenodd"
       id="path259" />
    <path
       fill="#000000"
       d="m 188.21759,241.69691 v -0.67188 h 3.17187 v 0.67188 l -0.9375,0.23437 -2.53125,7.4375 h -0.64062 l -2.25,-6.15625 -2.28125,6.15625 h -0.64063 l -2.79687,-7.48437 -0.98438,-0.1875 v -0.67188 h 3.95313 v 0.67188 l -1.35938,0.21875 1.79688,5.3125 1.9375,-5.3125 -1.28125,-0.21875 v -0.67188 h 3.82812 v 0.67188 l -1.28125,0.23437 1.96875,5.28125 1.60938,-5.26562 z m 7.65758,-0.0937 q -0.48438,0 -0.98438,0.28125 -0.48437,0.26562 -0.84375,0.875 -0.34375,0.60937 -0.45312,1.60937 h 3.15625 q 0.625,0 0.8125,-0.25 0.20312,-0.26562 0.20312,-0.64062 0,-0.51563 -0.25,-0.9375 -0.25,-0.42188 -0.67187,-0.67188 -0.42188,-0.26562 -0.96875,-0.26562 z m -0.0156,7.875 q -1.75,0 -2.8125,-1.125 -1.04687,-1.14063 -1.04687,-3.125 0,-1.34375 0.54687,-2.32813 0.54688,-0.98437 1.45313,-1.53125 0.90625,-0.5625 1.98437,-0.5625 0.90625,0 1.625,0.40625 0.73438,0.39063 1.15625,1.125 0.4375,0.73438 0.4375,1.79688 0,0.29687 -0.0312,0.54687 -0.0312,0.25 -0.0937,0.42188 h -5.51562 q 0.0312,1.59375 0.79687,2.42187 0.76563,0.82813 2,0.82813 0.84375,0 1.39063,-0.32813 0.5625,-0.34375 1.03125,-0.875 l 0.40625,0.32813 q -0.48438,0.92187 -1.3125,1.46875 -0.82813,0.53125 -2.01563,0.53125 z m 4.80605,-0.21875 v -0.625 l 1.29687,-0.23438 q 0.0156,-0.67187 0.0156,-1.4375 0.0156,-0.76562 0.0156,-1.34375 v -0.8125 q 0,-0.70312 -0.0156,-1.17187 0,-0.48438 -0.0312,-1.01563 l -1.39063,-0.15625 v -0.60937 l 2.67188,-1.04688 0.26562,0.17188 -0.0625,2.35937 v 2.28125 q 0,0.57813 0,1.34375 0.0156,0.76563 0.0312,1.4375 l 1.21875,0.23438 v 0.625 z m 2.04687,-10.35938 q -0.48437,0 -0.82812,-0.3125 -0.34375,-0.3125 -0.34375,-0.79687 0,-0.5 0.34375,-0.79688 0.34375,-0.3125 0.82812,-0.3125 0.48438,0 0.8125,0.3125 0.34375,0.29688 0.34375,0.79688 0,0.48437 -0.34375,0.79687 -0.32812,0.3125 -0.8125,0.3125 z m 6.61689,6.89063 q 0.82812,0 1.29687,-0.625 0.46875,-0.625 0.46875,-1.57813 0,-0.90625 -0.45312,-1.48437 -0.4375,-0.59375 -1.25,-0.59375 -0.8125,0 -1.28125,0.60937 -0.46875,0.59375 -0.46875,1.54688 0,0.95312 0.4375,1.54687 0.45312,0.57813 1.25,0.57813 z m 0.0312,0.70312 q -0.67188,0 -1.28125,-0.20312 -0.4375,0.5625 -0.4375,1.10937 0,0.35938 0.20312,0.5625 0.20313,0.20313 0.8125,0.20313 h 2.26563 q 1.4375,0 2.10937,0.59375 0.67188,0.59375 0.67188,1.64062 0,0.75 -0.48438,1.4375 -0.46875,0.70313 -1.42187,1.125 -0.95313,0.4375 -2.375,0.4375 -1.875,0 -2.73438,-0.59375 -0.84375,-0.57812 -0.84375,-1.5 0,-0.5625 0.375,-1.04687 0.375,-0.46875 1.32813,-0.9375 -1.15625,-0.3125 -1.15625,-1.3125 0,-0.40625 0.26562,-0.85938 0.28125,-0.45312 0.92188,-1.0625 -0.625,-0.34375 -0.98438,-0.95312 -0.35937,-0.60938 -0.35937,-1.48438 0,-1.375 0.89062,-2.10937 0.90625,-0.73438 2.25,-0.73438 1.375,0 2.20313,0.67188 l 1.95312,-0.67188 0.26563,0.17188 v 1.09375 h -1.70313 q 0.40625,0.64062 0.40625,1.57812 0,1.35938 -0.89062,2.10938 -0.89063,0.73437 -2.25,0.73437 z m -2.09375,4.53125 q 0,0.84375 0.59375,1.20313 0.60937,0.375 1.64062,0.375 1.42188,0 2.15625,-0.51563 0.75,-0.5 0.75,-1.23437 0,-0.57813 -0.40625,-0.96875 -0.39062,-0.375 -1.32812,-0.375 h -2.01563 q -0.1875,0 -0.375,-0.0156 -0.17187,-0.0156 -0.34375,-0.0312 -0.35937,0.39063 -0.51562,0.75 -0.15625,0.375 -0.15625,0.8125 z m 7.27133,-1.76562 v -0.625 l 1.29687,-0.23438 q 0.0312,-0.67187 0.0312,-1.4375 0.0156,-0.76562 0.0156,-1.34375 v -7.60937 l -1.42188,-0.17188 v -0.60937 l 2.64063,-0.78125 0.25,0.14062 -0.0781,2.46875 v 3.34375 q 0.65625,-0.71875 1.5,-1.15625 0.84375,-0.4375 1.67188,-0.4375 1.14062,0 1.67187,0.75 0.54688,0.75 0.54688,2.45313 v 1.60937 q 0,0.59375 0,1.35938 0.0156,0.75 0.0469,1.42187 l 1.20313,0.23438 v 0.625 h -4.01563 v -0.625 l 1.26563,-0.21875 q 0.0156,-0.65625 0.0156,-1.42188 0.0156,-0.78125 0.0156,-1.375 v -1.46875 q 0,-1.20312 -0.32813,-1.64062 -0.32812,-0.45313 -1.09375,-0.45313 -0.64062,0 -1.21875,0.26563 -0.5625,0.25 -1.21875,0.85937 v 2.4375 q 0,0.57813 0,1.34375 0.0156,0.76563 0.0312,1.4375 l 1.20313,0.23438 v 0.625 z m 13.35872,0.21875 q -0.89063,0 -1.4375,-0.48438 -0.53125,-0.48437 -0.53125,-1.48437 0,-0.32813 0,-0.64063 0.0156,-0.32812 0.0156,-0.82812 v -4.09375 h -1.4375 v -0.76563 l 1.54688,-0.1875 0.45312,-2.32812 h 1.03125 l -0.10937,2.35937 h 2.34375 v 0.92188 h -2.35938 v 5.375 q 0,0.65625 0.26563,0.96875 0.26562,0.29687 0.6875,0.29687 0.29687,0 0.5625,-0.125 0.28125,-0.125 0.60937,-0.34375 l 0.40625,0.45313 q -0.70312,0.90625 -2.04687,0.90625 z"
       fill-rule="nonzero"
       id="path261" />
    <path
       fill="#000000"
       fill-opacity="0"
       d="m 141.40683,327.18372 h 97.5748 v 57.98425 h -97.5748 z"
       fill-rule="evenodd"
       id="path263" />
    <path
       fill="#000000"
       d="m 200.21524,344.04248 q -0.73438,0 -1.34375,-0.17188 -0.59375,-0.15625 -1.23438,-0.48437 l -0.0781,-1.90625 h 0.95312 l 0.32813,1.51562 q 0.60937,0.28125 1.40625,0.28125 0.98437,0 1.45312,-0.35937 0.48438,-0.375 0.48438,-0.96875 0,-0.54688 -0.40625,-0.89063 -0.39063,-0.34375 -1.20313,-0.60937 l -0.79687,-0.29688 q -0.95313,-0.34375 -1.53125,-0.89062 -0.5625,-0.5625 -0.5625,-1.45313 0,-0.64062 0.34375,-1.1875 0.34375,-0.5625 1.01562,-0.90625 0.6875,-0.34375 1.65625,-0.34375 0.70313,0 1.28125,0.1875 0.59375,0.17188 1.14063,0.51563 l -0.0625,1.76562 h -0.90625 l -0.28125,-1.375 q -0.57813,-0.29687 -1.1875,-0.29687 -0.79688,0 -1.20313,0.32812 -0.40625,0.3125 -0.40625,0.84375 0,0.57813 0.34375,0.875 0.35938,0.29688 1.25,0.625 l 0.53125,0.1875 q 1.29688,0.48438 1.84375,1.10938 0.54688,0.625 0.54688,1.4375 0,0.65625 -0.39063,1.21875 -0.375,0.5625 -1.125,0.90625 -0.73437,0.34375 -1.85937,0.34375 z m 7.91098,0 q -1.04688,0 -1.65625,-0.6875 -0.60938,-0.70313 -0.59375,-2.42188 l 0.0469,-4.3125 -1.21875,-0.26562 v -0.625 l 2.54688,-0.23438 0.17187,0.17188 -0.0937,2.42187 v 2.6875 q 0,1.125 0.34375,1.59375 0.35938,0.45313 1.04688,0.45313 1.21875,0 2.42187,-1.125 l 0.0625,-5.09375 -1.23437,-0.25 v -0.625 l 2.51562,-0.23438 0.17188,0.17188 -0.0625,2.42187 v 4.875 l 1.1875,0.23438 v 0.625 l -2.40625,0.14062 -0.17188,-1.54687 q -0.70312,0.85937 -1.5,1.25 -0.78125,0.375 -1.57812,0.375 z m 6.93036,-0.21875 v -0.625 l 1.28125,-0.23438 q 0.0312,-0.67187 0.0312,-1.42187 0.0156,-0.76563 0.0156,-1.35938 v -0.82812 q 0,-0.71875 -0.0156,-1.17188 0,-0.46875 -0.0469,-1 l -1.35937,-0.15625 v -0.60937 l 2.42187,-1.04688 0.26563,0.17188 0.125,1.40625 q 0.60937,-0.70313 1.42187,-1.14063 0.82813,-0.4375 1.625,-0.4375 0.8125,0 1.3125,0.39063 0.51563,0.375 0.75,1.23437 0.65625,-0.8125 1.46875,-1.21875 0.8125,-0.40625 1.65625,-0.40625 1.0625,0 1.64063,0.71875 0.57812,0.70313 0.57812,2.3125 v 1.78125 q 0,0.59375 0,1.35938 0.0156,0.75 0.0312,1.42187 l 1.21875,0.23438 v 0.625 h -4.01562 v -0.625 l 1.28125,-0.23438 q 0.0156,-0.64062 0.0156,-1.40625 0.0156,-0.78125 0.0156,-1.375 v -1.5 q 0,-1.21875 -0.34375,-1.64062 -0.34375,-0.42188 -1.10938,-0.42188 -0.53125,0 -1.10937,0.25 -0.5625,0.23438 -1.21875,0.84375 0.0156,0.1875 0.0156,0.40625 0.0156,0.20313 0.0156,0.45313 v 1.60937 q 0,0.59375 0.0156,1.35938 0.0156,0.75 0.0312,1.42187 l 1.20313,0.23438 v 0.625 h -4.01563 v -0.625 l 1.28125,-0.23438 q 0.0156,-0.64062 0.0156,-1.40625 0.0156,-0.78125 0.0156,-1.375 v -1.46875 q 0,-1.1875 -0.32812,-1.64062 -0.32813,-0.45313 -1.09375,-0.45313 -0.57813,0 -1.125,0.25 -0.53125,0.23438 -1.17188,0.78125 v 2.53125 q 0,0.57813 0,1.34375 0.0156,0.76563 0.0312,1.4375 l 1.20313,0.23438 v 0.625 z"
       fill-rule="nonzero"
       id="path265" />
  </g>
</svg>
