<?xml version="1.0" encoding="UTF-8" standalone="no"?>
<svg
   version="1.1"
   viewBox="0 0 573.8504 237.97638"
   fill="none"
   stroke="none"
   stroke-linecap="square"
   stroke-miterlimit="10"
   id="svg203"
   sodipodi:docname="fir-filter-def.svg"
   width="573.8504"
   height="237.97638"
   inkscape:version="1.1.2 (b8e25be8, 2022-02-05)"
   xmlns:inkscape="http://www.inkscape.org/namespaces/inkscape"
   xmlns:sodipodi="http://sodipodi.sourceforge.net/DTD/sodipodi-0.dtd"
   xmlns="http://www.w3.org/2000/svg"
   xmlns:svg="http://www.w3.org/2000/svg">
  <defs
     id="defs207" />
  <sodipodi:namedview
     id="namedview205"
     pagecolor="#ffffff"
     bordercolor="#666666"
     borderopacity="1.0"
     inkscape:pageshadow="2"
     inkscape:pageopacity="0.0"
     inkscape:pagecheckerboard="0"
     showgrid="false"
     inkscape:zoom="1.1739583"
     inkscape:cx="397.37356"
     inkscape:cy="169.08607"
     inkscape:window-width="1296"
     inkscape:window-height="969"
     inkscape:window-x="0"
     inkscape:window-y="25"
     inkscape:window-maximized="0"
     inkscape:current-layer="svg203" />
  <clipPath
     id="g2ed06b39f27_0_50.0">
    <path
       d="M 0,0 H 960 V 540 H 0 Z"
       clip-rule="nonzero"
       id="path2" />
  </clipPath>
  <g
     clip-path="url(#g2ed06b39f27_0_50.0)"
     id="g201"
     transform="translate(-82.37664,-110.45801)">
    <path
       fill="#f3f3f3"
       d="m 202.71129,129.61942 h 46.70866 v 46.70866 h -46.70866 z"
       fill-rule="evenodd"
       id="path11" />
    <path
       stroke="#000000"
       stroke-width="2"
       stroke-linejoin="round"
       stroke-linecap="butt"
       d="m 202.71129,129.61942 h 46.70866 v 46.70866 h -46.70866 z"
       fill-rule="evenodd"
       id="path13" />
    <path
       fill="#000000"
       d="m 213.54083,162.57375 v -0.9375 l 7.65625,-10.57813 h -5.39063 l -0.71875,2.95313 -1.375,-0.0937 0.20313,-4 h 9.95312 v 0.95312 l -7.625,10.57813 h 5.82813 l 0.8125,-3.21875 h 1.375 l -0.26563,4.34375 z"
       fill-rule="nonzero"
       id="path15" />
    <path
       fill="#000000"
       d="m 225.63354,148.69875 v -1.17188 h 4.125 v 1.17188 z m 6.35535,-6.79688 3.65625,-0.95312 0.25,0.1875 -0.0781,2.53125 v 5.15625 q 0,0.65625 0,1.34375 0.0156,0.67187 0.0469,1.34375 l 2.51562,0.42187 v 0.64063 h -6.59375 v -0.64063 l 2.5,-0.42187 q 0.0312,-0.67188 0.0312,-1.34375 0.0156,-0.6875 0.0156,-1.34375 v -6.39063 l -2.34375,0.1875 z"
       fill-rule="nonzero"
       id="path17" />
    <path
       fill="#f3f3f3"
       d="m 282.71127,129.61942 h 46.70868 v 46.70866 h -46.70868 z"
       fill-rule="evenodd"
       id="path19" />
    <path
       stroke="#000000"
       stroke-width="2"
       stroke-linejoin="round"
       stroke-linecap="butt"
       d="m 282.71127,129.61942 h 46.70868 v 46.70866 h -46.70868 z"
       fill-rule="evenodd"
       id="path21" />
    <path
       fill="#000000"
       d="m 293.54083,162.57375 v -0.9375 l 7.65625,-10.57813 h -5.39062 l -0.71875,2.95313 -1.375,-0.0937 0.20312,-4 h 9.95313 v 0.95312 l -7.625,10.57813 h 5.82812 l 0.8125,-3.21875 h 1.375 l -0.26562,4.34375 z"
       fill-rule="nonzero"
       id="path23" />
    <path
       fill="#000000"
       d="m 305.63354,148.69875 v -1.17188 h 4.125 v 1.17188 z m 6.35535,-6.79688 3.65625,-0.95312 0.25,0.1875 -0.0781,2.53125 v 5.15625 q 0,0.65625 0,1.34375 0.0156,0.67187 0.0469,1.34375 l 2.51562,0.42187 v 0.64063 h -6.59375 v -0.64063 l 2.5,-0.42187 q 0.0312,-0.67188 0.0312,-1.34375 0.0156,-0.6875 0.0156,-1.34375 v -6.39063 l -2.34375,0.1875 z"
       fill-rule="nonzero"
       id="path25" />
    <path
       fill="#f3f3f3"
       d="m 472.41208,129.61942 h 46.70865 v 46.70866 h -46.70865 z"
       fill-rule="evenodd"
       id="path27" />
    <path
       stroke="#000000"
       stroke-width="2"
       stroke-linejoin="round"
       stroke-linecap="butt"
       d="m 472.41208,129.61942 h 46.70865 v 46.70866 h -46.70865 z"
       fill-rule="evenodd"
       id="path29" />
    <path
       fill="#000000"
       d="m 483.2416,162.57375 v -0.9375 l 7.65625,-10.57813 h -5.39063 l -0.71875,2.95313 -1.375,-0.0937 0.20313,-4 h 9.95312 v 0.95312 l -7.625,10.57813 h 5.82813 l 0.8125,-3.21875 h 1.375 l -0.26563,4.34375 z"
       fill-rule="nonzero"
       id="path31" />
    <path
       fill="#000000"
       d="m 495.33432,148.69875 v -1.17188 h 4.125 v 1.17188 z m 6.35535,-6.79688 3.65625,-0.95312 0.25,0.1875 -0.0781,2.53125 v 5.15625 q 0,0.65625 0,1.34375 0.0156,0.67187 0.0469,1.34375 l 2.51562,0.42187 v 0.64063 h -6.59375 v -0.64063 l 2.5,-0.42187 q 0.0312,-0.67188 0.0312,-1.34375 0.0156,-0.6875 0.0156,-1.34375 v -6.39063 l -2.34375,0.1875 z"
       fill-rule="nonzero"
       id="path33" />
    <path
       fill="#000000"
       fill-opacity="0"
       d="m 162.70998,225.93336 v 0 c 0,-12.89824 10.45608,-23.35432 23.35432,-23.35432 v 0 c 6.19396,0 12.13422,2.46054 16.51401,6.84031 4.37979,4.37979 6.84033,10.32006 6.84033,16.51401 v 0 c 0,12.89824 -10.4561,23.35434 -23.35434,23.35434 v 0 c -12.89824,0 -23.35432,-10.4561 -23.35432,-23.35434 z"
       fill-rule="evenodd"
       id="path35" />
    <path
       stroke="#000000"
       stroke-width="2"
       stroke-linejoin="round"
       stroke-linecap="butt"
       d="m 162.70998,225.93336 v 0 c 0,-12.89824 10.45608,-23.35432 23.35432,-23.35432 v 0 c 6.19396,0 12.13422,2.46054 16.51401,6.84031 4.37979,4.37979 6.84033,10.32006 6.84033,16.51401 v 0 c 0,12.89824 -10.4561,23.35434 -23.35434,23.35434 v 0 c -12.89824,0 -23.35432,-10.4561 -23.35432,-23.35434 z"
       fill-rule="evenodd"
       id="path37" />
    <path
       fill="#000000"
       d="m 174.87453,212.85387 11.18977,11.18977 11.18978,-11.18977 1.90109,1.90109 -11.18977,11.18978 11.18977,11.18977 -1.90109,1.90108 -11.18978,-11.18978 -11.18977,11.18978 -1.90108,-1.90108 11.18978,-11.18977 -11.18978,-11.18978 z"
       fill-rule="evenodd"
       id="path39" />
    <path
       fill="#000000"
       fill-opacity="0"
       d="m 242.70998,225.93336 v 0 c 0,-12.89824 10.45608,-23.35432 23.35432,-23.35432 v 0 c 6.19397,0 12.13422,2.46054 16.51401,6.84031 4.37979,4.37979 6.84033,10.32006 6.84033,16.51401 v 0 c 0,12.89824 -10.45608,23.35434 -23.35434,23.35434 v 0 c -12.89824,0 -23.35432,-10.4561 -23.35432,-23.35434 z"
       fill-rule="evenodd"
       id="path41" />
    <path
       stroke="#000000"
       stroke-width="2"
       stroke-linejoin="round"
       stroke-linecap="butt"
       d="m 242.70998,225.93336 v 0 c 0,-12.89824 10.45608,-23.35432 23.35432,-23.35432 v 0 c 6.19397,0 12.13422,2.46054 16.51401,6.84031 4.37979,4.37979 6.84033,10.32006 6.84033,16.51401 v 0 c 0,12.89824 -10.45608,23.35434 -23.35434,23.35434 v 0 c -12.89824,0 -23.35432,-10.4561 -23.35432,-23.35434 z"
       fill-rule="evenodd"
       id="path43" />
    <path
       fill="#000000"
       d="m 254.87453,212.85387 11.18977,11.18977 11.18979,-11.18977 1.90107,1.90109 -11.18976,11.18978 11.18976,11.18977 -1.90107,1.90108 -11.18979,-11.18978 -11.18977,11.18978 -1.90108,-1.90108 11.18976,-11.18977 -11.18976,-11.18978 z"
       fill-rule="evenodd"
       id="path45" />
    <path
       fill="#000000"
       fill-opacity="0"
       d="m 322.70996,225.93336 v 0 c 0,-12.89824 10.45612,-23.35432 23.35434,-23.35432 v 0 c 6.19397,0 12.13422,2.46054 16.51401,6.84031 4.37979,4.37979 6.84033,10.32006 6.84033,16.51401 v 0 c 0,12.89824 -10.45609,23.35434 -23.35434,23.35434 v 0 c -12.89822,0 -23.35434,-10.4561 -23.35434,-23.35434 z"
       fill-rule="evenodd"
       id="path47" />
    <path
       stroke="#000000"
       stroke-width="2"
       stroke-linejoin="round"
       stroke-linecap="butt"
       d="m 322.70996,225.93336 v 0 c 0,-12.89824 10.45612,-23.35432 23.35434,-23.35432 v 0 c 6.19397,0 12.13422,2.46054 16.51401,6.84031 4.37979,4.37979 6.84033,10.32006 6.84033,16.51401 v 0 c 0,12.89824 -10.45609,23.35434 -23.35434,23.35434 v 0 c -12.89822,0 -23.35434,-10.4561 -23.35434,-23.35434 z"
       fill-rule="evenodd"
       id="path49" />
    <path
       fill="#000000"
       d="m 334.87454,212.85387 11.18976,11.18977 11.18979,-11.18977 1.90106,1.90109 -11.18976,11.18978 11.18976,11.18977 -1.90106,1.90108 -11.18979,-11.18978 -11.18976,11.18978 -1.90109,-1.90108 11.18976,-11.18977 -11.18976,-11.18978 z"
       fill-rule="evenodd"
       id="path51" />
    <path
       fill="#000000"
       fill-opacity="0"
       d="m 242.70998,303.73227 v 0 c 0,-12.89822 10.45608,-23.35431 23.35432,-23.35431 v 0 c 6.19397,0 12.13422,2.46054 16.51401,6.84033 4.37979,4.37976 6.84033,10.32004 6.84033,16.51398 v 0 c 0,12.89825 -10.45608,23.35434 -23.35434,23.35434 v 0 c -12.89824,0 -23.35432,-10.45609 -23.35432,-23.35434 z"
       fill-rule="evenodd"
       id="path53" />
    <path
       stroke="#000000"
       stroke-width="2"
       stroke-linejoin="round"
       stroke-linecap="butt"
       d="m 242.70998,303.73227 v 0 c 0,-12.89822 10.45608,-23.35431 23.35432,-23.35431 v 0 c 6.19397,0 12.13422,2.46054 16.51401,6.84033 4.37979,4.37976 6.84033,10.32004 6.84033,16.51398 v 0 c 0,12.89825 -10.45608,23.35434 -23.35434,23.35434 v 0 c -12.89824,0 -23.35432,-10.45609 -23.35432,-23.35434 z"
       fill-rule="evenodd"
       id="path55" />
    <path
       fill="#000000"
       d="m 248.89735,302.40665 h 15.82994 v -15.82996 h 2.68945 v 15.82996 h 15.82996 v 2.68942 h -15.82996 v 15.82996 h -2.68945 v -15.82996 h -15.82994 z"
       fill-rule="evenodd"
       id="path57" />
    <path
       fill="#000000"
       fill-opacity="0"
       d="m 322.70996,303.73227 v 0 c 0,-12.89822 10.45612,-23.35431 23.35434,-23.35431 v 0 c 6.19397,0 12.13422,2.46054 16.51401,6.84033 4.37979,4.37976 6.84033,10.32004 6.84033,16.51398 v 0 c 0,12.89825 -10.45609,23.35434 -23.35434,23.35434 v 0 c -12.89822,0 -23.35434,-10.45609 -23.35434,-23.35434 z"
       fill-rule="evenodd"
       id="path59" />
    <path
       stroke="#000000"
       stroke-width="2"
       stroke-linejoin="round"
       stroke-linecap="butt"
       d="m 322.70996,303.73227 v 0 c 0,-12.89822 10.45612,-23.35431 23.35434,-23.35431 v 0 c 6.19397,0 12.13422,2.46054 16.51401,6.84033 4.37979,4.37976 6.84033,10.32004 6.84033,16.51398 v 0 c 0,12.89825 -10.45609,23.35434 -23.35434,23.35434 v 0 c -12.89822,0 -23.35434,-10.45609 -23.35434,-23.35434 z"
       fill-rule="evenodd"
       id="path61" />
    <path
       fill="#000000"
       d="m 328.89734,302.40665 h 15.82996 v -15.82996 h 2.68945 v 15.82996 h 15.82996 v 2.68942 h -15.82996 v 15.82996 h -2.68945 v -15.82996 h -15.82996 z"
       fill-rule="evenodd"
       id="path63" />
    <path
       fill="#000000"
       fill-opacity="0"
       d="m 249.41995,152.97375 h 33.29132"
       fill-rule="evenodd"
       id="path65" />
    <path
       stroke="#000000"
       stroke-width="2"
       stroke-linejoin="round"
       stroke-linecap="butt"
       d="m 249.41995,152.97375 h 21.29132"
       fill-rule="evenodd"
       id="path67" />
    <path
       fill="#000000"
       stroke="#000000"
       stroke-width="2"
       stroke-linecap="butt"
       d="m 270.71127,156.27722 9.0762,-3.30347 -9.0762,-3.30346 z"
       fill-rule="evenodd"
       id="path69" />
    <path
       fill="#000000"
       fill-opacity="0"
       d="m 329.41995,152.97375 h 33.29132"
       fill-rule="evenodd"
       id="path71" />
    <path
       stroke="#000000"
       stroke-width="2"
       stroke-linejoin="round"
       stroke-linecap="butt"
       d="m 329.41995,152.97375 h 33.29132"
       fill-rule="evenodd"
       id="path73" />
    <path
       fill="#000000"
       fill-opacity="0"
       d="m 266.0643,153.98062 v 48.59842"
       fill-rule="evenodd"
       id="path75" />
    <path
       stroke="#000000"
       stroke-width="2"
       stroke-linejoin="round"
       stroke-linecap="butt"
       d="m 266.0643,153.9806 v 36.59843"
       fill-rule="evenodd"
       id="path77" />
    <path
       fill="#000000"
       stroke="#000000"
       stroke-width="2"
       stroke-linecap="butt"
       d="m 262.76083,190.57906 3.30347,9.07619 3.30346,-9.07619 z"
       fill-rule="evenodd"
       id="path79" />
    <path
       fill="#000000"
       fill-opacity="0"
       d="m 346.0643,153.98062 v 48.59842"
       fill-rule="evenodd"
       id="path81" />
    <path
       stroke="#000000"
       stroke-width="2"
       stroke-linejoin="round"
       stroke-linecap="butt"
       d="m 346.0643,153.9806 v 36.59843"
       fill-rule="evenodd"
       id="path83" />
    <path
       fill="#000000"
       stroke="#000000"
       stroke-width="2"
       stroke-linecap="butt"
       d="m 342.76083,190.57906 3.30347,9.07619 3.30346,-9.07619 z"
       fill-rule="evenodd"
       id="path85" />
    <path
       fill="#000000"
       fill-opacity="0"
       d="M 362.45932,152.97375 H 472.41208"
       fill-rule="evenodd"
       id="path87" />
    <path
       stroke="#000000"
       stroke-width="2"
       stroke-linejoin="round"
       stroke-linecap="butt"
       stroke-dasharray="2, 6"
       d="m 362.45932,152.97375 h 97.95276"
       fill-rule="evenodd"
       id="path89" />
    <path
       fill="#000000"
       stroke="#000000"
       stroke-width="2"
       stroke-linecap="butt"
       d="m 460.41208,156.27722 9.0762,-3.30347 -9.0762,-3.30346 z"
       fill-rule="evenodd"
       id="path91" />
    <path
       fill="#000000"
       fill-opacity="0"
       d="m 151.50656,152.97375 h 51.2126"
       fill-rule="evenodd"
       id="path93" />
    <path
       stroke="#000000"
       stroke-width="2"
       stroke-linejoin="round"
       stroke-linecap="butt"
       d="m 151.50656,152.97375 h 39.2126"
       fill-rule="evenodd"
       id="path95" />
    <path
       fill="#000000"
       stroke="#000000"
       stroke-width="2"
       stroke-linecap="butt"
       d="m 190.71916,156.27722 9.07619,-3.30347 -9.07619,-3.30346 z"
       fill-rule="evenodd"
       id="path97" />
    <path
       fill="#000000"
       fill-opacity="0"
       d="m 186.0643,153.98062 v 48.59842"
       fill-rule="evenodd"
       id="path99" />
    <path
       stroke="#000000"
       stroke-width="2"
       stroke-linejoin="round"
       stroke-linecap="butt"
       d="m 186.0643,153.9806 v 36.59843"
       fill-rule="evenodd"
       id="path101" />
    <path
       fill="#000000"
       stroke="#000000"
       stroke-width="2"
       stroke-linecap="butt"
       d="m 182.76083,190.57906 3.30347,9.07619 3.30346,-9.07619 z"
       fill-rule="evenodd"
       id="path103" />
    <path
       fill="#000000"
       fill-opacity="0"
       d="m 186.0643,249.2877 v 54.45668 h 56.66142"
       fill-rule="evenodd"
       id="path105" />
    <path
       stroke="#000000"
       stroke-width="2"
       stroke-linejoin="round"
       stroke-linecap="butt"
       d="m 186.0643,249.2877 v 54.45671 h 44.66142"
       fill-rule="evenodd"
       id="path107" />
    <path
       fill="#000000"
       stroke="#000000"
       stroke-width="2"
       stroke-linecap="butt"
       d="m 230.72572,307.04788 9.07619,-3.30347 -9.07619,-3.30346 z"
       fill-rule="evenodd"
       id="path109" />
    <path
       fill="#000000"
       fill-opacity="0"
       d="m 266.0643,249.2877 v 31.08662"
       fill-rule="evenodd"
       id="path111" />
    <path
       stroke="#000000"
       stroke-width="2"
       stroke-linejoin="round"
       stroke-linecap="butt"
       d="m 266.0643,249.2877 v 19.08662"
       fill-rule="evenodd"
       id="path113" />
    <path
       fill="#000000"
       stroke="#000000"
       stroke-width="2"
       stroke-linecap="butt"
       d="m 262.76083,268.37433 3.30347,9.0762 3.30346,-9.0762 z"
       fill-rule="evenodd"
       id="path115" />
    <path
       fill="#000000"
       fill-opacity="0"
       d="m 346.0643,249.29134 v 31.08662"
       fill-rule="evenodd"
       id="path117" />
    <path
       stroke="#000000"
       stroke-width="2"
       stroke-linejoin="round"
       stroke-linecap="butt"
       d="m 346.0643,249.29134 v 19.08662"
       fill-rule="evenodd"
       id="path119" />
    <path
       fill="#000000"
       stroke="#000000"
       stroke-width="2"
       stroke-linecap="butt"
       d="m 342.76083,268.37796 3.30347,9.0762 3.30346,-9.0762 z"
       fill-rule="evenodd"
       id="path121" />
    <path
       fill="#000000"
       fill-opacity="0"
       d="m 512.41077,225.93336 v 0 c 0,-12.89824 10.45605,-23.35432 23.35431,-23.35432 v 0 c 6.19397,0 12.13422,2.46054 16.51404,6.84031 4.37976,4.37979 6.84033,10.32006 6.84033,16.51401 v 0 c 0,12.89824 -10.45612,23.35434 -23.35437,23.35434 v 0 c -12.89825,0 -23.35431,-10.4561 -23.35431,-23.35434 z"
       fill-rule="evenodd"
       id="path123" />
    <path
       stroke="#000000"
       stroke-width="2"
       stroke-linejoin="round"
       stroke-linecap="butt"
       d="m 512.41077,225.93336 v 0 c 0,-12.89824 10.45605,-23.35432 23.35431,-23.35432 v 0 c 6.19397,0 12.13422,2.46054 16.51404,6.84031 4.37976,4.37979 6.84033,10.32006 6.84033,16.51401 v 0 c 0,12.89824 -10.45612,23.35434 -23.35437,23.35434 v 0 c -12.89825,0 -23.35431,-10.4561 -23.35431,-23.35434 z"
       fill-rule="evenodd"
       id="path125" />
    <path
       fill="#000000"
       d="m 524.5753,212.85387 11.18976,11.18977 11.18982,-11.18977 1.90106,1.90109 -11.18976,11.18978 11.18976,11.18977 -1.90106,1.90108 -11.18982,-11.18978 -11.18976,11.18978 -1.90106,-1.90108 11.18976,-11.18977 -11.18976,-11.18978 z"
       fill-rule="evenodd"
       id="path127" />
    <path
       fill="#000000"
       fill-opacity="0"
       d="m 512.41077,303.73227 v 0 c 0,-12.89822 10.45605,-23.35431 23.35431,-23.35431 v 0 c 6.19397,0 12.13422,2.46054 16.51404,6.84033 4.37976,4.37976 6.84033,10.32004 6.84033,16.51398 v 0 c 0,12.89825 -10.45612,23.35434 -23.35437,23.35434 v 0 c -12.89825,0 -23.35431,-10.45609 -23.35431,-23.35434 z"
       fill-rule="evenodd"
       id="path129" />
    <path
       stroke="#000000"
       stroke-width="2"
       stroke-linejoin="round"
       stroke-linecap="butt"
       d="m 512.41077,303.73227 v 0 c 0,-12.89822 10.45605,-23.35431 23.35431,-23.35431 v 0 c 6.19397,0 12.13422,2.46054 16.51404,6.84033 4.37976,4.37976 6.84033,10.32004 6.84033,16.51398 v 0 c 0,12.89825 -10.45612,23.35434 -23.35437,23.35434 v 0 c -12.89825,0 -23.35431,-10.45609 -23.35431,-23.35434 z"
       fill-rule="evenodd"
       id="path131" />
    <path
       fill="#000000"
       d="m 518.59814,302.40665 h 15.82996 v -15.82996 h 2.68939 v 15.82996 h 15.82995 v 2.68942 h -15.82995 v 15.82996 h -2.68939 v -15.82996 h -15.82996 z"
       fill-rule="evenodd"
       id="path133" />
    <path
       fill="#000000"
       fill-opacity="0"
       d="m 535.7651,249.29134 v 31.08662"
       fill-rule="evenodd"
       id="path135" />
    <path
       stroke="#000000"
       stroke-width="2"
       stroke-linejoin="round"
       stroke-linecap="butt"
       d="m 535.7651,249.29134 v 19.08662"
       fill-rule="evenodd"
       id="path137" />
    <path
       fill="#000000"
       stroke="#000000"
       stroke-width="2"
       stroke-linecap="butt"
       d="m 532.4616,268.37796 3.30347,9.0762 3.30346,-9.0762 z"
       fill-rule="evenodd"
       id="path139" />
    <path
       fill="#000000"
       fill-opacity="0"
       d="m 369.44095,303.74933 h 33.29132"
       fill-rule="evenodd"
       id="path141" />
    <path
       stroke="#000000"
       stroke-width="2"
       stroke-linejoin="round"
       stroke-linecap="butt"
       d="m 369.44095,303.74933 h 33.29132"
       fill-rule="evenodd"
       id="path143" />
    <path
       fill="#000000"
       fill-opacity="0"
       d="M 402.4777,303.74933 H 512.43043"
       fill-rule="evenodd"
       id="path145" />
    <path
       stroke="#000000"
       stroke-width="2"
       stroke-linejoin="round"
       stroke-linecap="butt"
       stroke-dasharray="2, 6"
       d="m 402.4777,303.74933 h 97.95276"
       fill-rule="evenodd"
       id="path147" />
    <path
       fill="#000000"
       stroke="#000000"
       stroke-width="2"
       stroke-linecap="butt"
       d="m 500.43045,307.0528 9.0762,-3.30347 -9.0762,-3.30343 z"
       fill-rule="evenodd"
       id="path149" />
    <path
       fill="#000000"
       fill-opacity="0"
       d="m 289.41995,303.75067 h 33.29132"
       fill-rule="evenodd"
       id="path151" />
    <path
       stroke="#000000"
       stroke-width="2"
       stroke-linejoin="round"
       stroke-linecap="butt"
       d="m 289.41995,303.75067 h 21.29132"
       fill-rule="evenodd"
       id="path153" />
    <path
       fill="#000000"
       stroke="#000000"
       stroke-width="2"
       stroke-linecap="butt"
       d="m 310.71127,307.0541 9.0762,-3.30344 -9.0762,-3.30346 z"
       fill-rule="evenodd"
       id="path155" />
    <path
       fill="#000000"
       fill-opacity="0"
       d="m 519.1207,152.97375 h 16.62994 v 49.60629"
       fill-rule="evenodd"
       id="path157" />
    <path
       stroke="#000000"
       stroke-width="2"
       stroke-linejoin="round"
       stroke-linecap="butt"
       d="m 519.1207,152.97375 h 16.62994 v 37.60629"
       fill-rule="evenodd"
       id="path159" />
    <path
       fill="#000000"
       stroke="#000000"
       stroke-width="2"
       stroke-linecap="butt"
       d="m 532.4472,190.58005 3.30347,9.0762 3.30346,-9.0762 z"
       fill-rule="evenodd"
       id="path161" />
    <path
       fill="#000000"
       fill-opacity="0"
       d="m 559.1417,303.75067 h 33.29132"
       fill-rule="evenodd"
       id="path163" />
    <path
       stroke="#000000"
       stroke-width="2"
       stroke-linejoin="round"
       stroke-linecap="butt"
       d="m 559.1417,303.75067 h 21.29132"
       fill-rule="evenodd"
       id="path165" />
    <path
       fill="#000000"
       stroke="#000000"
       stroke-width="2"
       stroke-linecap="butt"
       d="m 580.43304,307.0541 9.07623,-3.30344 -9.07623,-3.30346 z"
       fill-rule="evenodd"
       id="path167" />
    <path
       fill="#000000"
       fill-opacity="0"
       d="m 201.12247,223.00447 h 46.70865 v 39.52757 h -46.70865 z"
       fill-rule="evenodd"
       id="path169" />
    <path
       fill="#000000"
       d="m 210.79434,250.92825 v -0.8125 l 1.70312,-0.29688 q 0.0312,-0.85937 0.0312,-1.85937 0.0156,-1.01563 0.0156,-1.78125 v -9.95313 l -1.85938,-0.23437 v -0.78125 l 3.46875,-1.03125 0.3125,0.1875 -0.0781,3.21875 v 4.03125 q 0.8125,-0.90625 1.67187,-1.32813 0.875,-0.42187 1.8125,-0.42187 1.20313,0 2.17188,0.67187 0.96875,0.65625 1.54687,1.90625 0.57813,1.23438 0.57813,3 0,1.75 -0.60938,3.0625 -0.60937,1.29688 -1.67187,2.01563 -1.04688,0.70312 -2.375,0.70312 -0.79688,0 -1.59375,-0.34375 -0.79688,-0.34375 -1.53125,-1.26562 l -0.1875,1.53125 z m 6.46875,-9.76563 q -0.53125,0 -1.21875,0.28125 -0.67188,0.26563 -1.59375,1.03125 v 6.20313 q 0.70312,0.67187 1.375,0.96875 0.6875,0.28125 1.3125,0.28125 1.20312,0 2.09375,-1.04688 0.90625,-1.0625 0.90625,-3.25 0,-2.17187 -0.8125,-3.3125 -0.79688,-1.15625 -2.0625,-1.15625 z"
       fill-rule="nonzero"
       id="path171" />
    <path
       fill="#000000"
       d="m 225.21072,254.56888 q 0,1.75 0.25,2.70313 0.25,0.95312 0.65625,1.3125 0.40625,0.35937 0.875,0.35937 0.45312,0 0.84375,-0.35937 0.40625,-0.375 0.65625,-1.32813 0.25,-0.95312 0.25,-2.6875 0,-1.78125 -0.25,-2.71875 -0.25,-0.95312 -0.65625,-1.32812 -0.39063,-0.375 -0.84375,-0.375 -0.35938,0 -0.6875,0.20312 -0.3125,0.1875 -0.5625,0.67188 -0.25,0.48437 -0.39063,1.35937 -0.14062,0.85938 -0.14062,2.1875 z m 1.78125,-5.09375 q 0.79687,0 1.51562,0.5 0.71875,0.48437 1.17188,1.60937 0.46875,1.10938 0.46875,2.98438 0,1.85938 -0.46875,2.96875 -0.45313,1.10938 -1.17188,1.60938 -0.71875,0.48437 -1.51562,0.48437 -0.8125,0 -1.54688,-0.48437 -0.71875,-0.5 -1.17187,-1.60938 -0.45313,-1.10937 -0.45313,-2.96875 0,-1.875 0.45313,-2.98437 0.45312,-1.125 1.17187,-1.60938 0.73438,-0.5 1.54688,-0.5 z"
       fill-rule="nonzero"
       id="path173" />
    <path
       fill="#000000"
       fill-opacity="0"
       d="m 281.12247,223.00447 h 46.70865 v 39.52757 h -46.70865 z"
       fill-rule="evenodd"
       id="path175" />
    <path
       fill="#000000"
       d="m 290.79434,250.92825 v -0.8125 l 1.70312,-0.29688 q 0.0312,-0.85937 0.0312,-1.85937 0.0156,-1.01563 0.0156,-1.78125 v -9.95313 l -1.85938,-0.23437 v -0.78125 l 3.46875,-1.03125 0.3125,0.1875 -0.0781,3.21875 v 4.03125 q 0.8125,-0.90625 1.67187,-1.32813 0.875,-0.42187 1.8125,-0.42187 1.20313,0 2.17188,0.67187 0.96875,0.65625 1.54687,1.90625 0.57813,1.23438 0.57813,3 0,1.75 -0.60938,3.0625 -0.60937,1.29688 -1.67187,2.01563 -1.04688,0.70312 -2.375,0.70312 -0.79688,0 -1.59375,-0.34375 -0.79688,-0.34375 -1.53125,-1.26562 l -0.1875,1.53125 z m 6.46875,-9.76563 q -0.53125,0 -1.21875,0.28125 -0.67188,0.26563 -1.59375,1.03125 v 6.20313 q 0.70312,0.67187 1.375,0.96875 0.6875,0.28125 1.3125,0.28125 1.20312,0 2.09375,-1.04688 0.90625,-1.0625 0.90625,-3.25 0,-2.17187 -0.8125,-3.3125 -0.79688,-1.15625 -2.0625,-1.15625 z"
       fill-rule="nonzero"
       id="path177" />
    <path
       fill="#000000"
       d="m 304.47635,250.35013 3.10938,-0.79688 0.21875,0.14063 -0.0625,2.17187 v 4.37501 q 0,0.5625 0,1.14062 0.0156,0.5625 0.0312,1.14063 l 2.14062,0.35937 v 0.54688 h -5.59375 v -0.54688 l 2.125,-0.35937 q 0.0156,-0.57813 0.0156,-1.14063 0.0156,-0.57812 0.0156,-1.14062 v -5.4375 l -2,0.15625 z"
       fill-rule="nonzero"
       id="path179" />
    <path
       fill="#000000"
       fill-opacity="0"
       d="m 361.12247,223.00447 h 46.70865 v 39.52757 h -46.70865 z"
       fill-rule="evenodd"
       id="path181" />
    <path
       fill="#000000"
       d="m 370.79434,250.92825 v -0.8125 l 1.70312,-0.29688 q 0.0312,-0.85937 0.0312,-1.85937 0.0156,-1.01563 0.0156,-1.78125 v -9.95313 l -1.85938,-0.23437 v -0.78125 l 3.46875,-1.03125 0.3125,0.1875 -0.0781,3.21875 v 4.03125 q 0.8125,-0.90625 1.67187,-1.32813 0.875,-0.42187 1.8125,-0.42187 1.20313,0 2.17188,0.67187 0.96875,0.65625 1.54687,1.90625 0.57813,1.23438 0.57813,3 0,1.75 -0.60938,3.0625 -0.60937,1.29688 -1.67187,2.01563 -1.04688,0.70312 -2.375,0.70312 -0.79688,0 -1.59375,-0.34375 -0.79688,-0.34375 -1.53125,-1.26562 l -0.1875,1.53125 z m 6.46875,-9.76563 q -0.53125,0 -1.21875,0.28125 -0.67188,0.26563 -1.59375,1.03125 v 6.20313 q 0.70312,0.67187 1.375,0.96875 0.6875,0.28125 1.3125,0.28125 1.20312,0 2.09375,-1.04688 0.90625,-1.0625 0.90625,-3.25 0,-2.17187 -0.8125,-3.3125 -0.79688,-1.15625 -2.0625,-1.15625 z"
       fill-rule="nonzero"
       id="path183" />
    <path
       fill="#000000"
       d="m 383.92947,259.42825 v -0.98438 q 0.60937,-0.59375 1.17187,-1.17187 0.5625,-0.57813 1.04688,-1.09375 1.14062,-1.1875 1.67187,-2.15625 0.53125,-0.96875 0.53125,-1.84375 0,-0.9375 -0.5,-1.48438 -0.48437,-0.54687 -1.32812,-0.54687 -0.14063,0 -0.32813,0.0156 -0.1875,0.0156 -0.40625,0.0625 l -0.28125,1.04688 q -0.15625,0.5625 -0.35937,0.79687 -0.20313,0.23438 -0.51563,0.23438 -0.5,0 -0.78125,-0.48438 0.0937,-0.8125 0.53125,-1.32812 0.4375,-0.51563 1.09375,-0.76563 0.67188,-0.25 1.4375,-0.25 1.45313,0 2.125,0.71875 0.67188,0.71875 0.67188,1.84375 0,0.67188 -0.26563,1.29688 -0.26562,0.625 -0.92187,1.40625 -0.64063,0.78125 -1.8125,1.89062 -0.29688,0.29688 -0.73438,0.71875 -0.42187,0.40625 -0.89062,0.84375 h 5.0625 v 1.23438 z"
       fill-rule="nonzero"
       id="path185" />
    <path
       fill="#000000"
       fill-opacity="0"
       d="m 550.82324,223.00447 h 46.70868 v 39.52757 h -46.70868 z"
       fill-rule="evenodd"
       id="path187" />
    <path
       fill="#000000"
       d="m 560.4951,250.92825 v -0.8125 l 1.70312,-0.29688 q 0.0312,-0.85937 0.0312,-1.85937 0.0156,-1.01563 0.0156,-1.78125 v -9.95313 l -1.85938,-0.23437 v -0.78125 l 3.46875,-1.03125 0.3125,0.1875 -0.0781,3.21875 v 4.03125 q 0.8125,-0.90625 1.67187,-1.32813 0.875,-0.42187 1.8125,-0.42187 1.20313,0 2.17188,0.67187 0.96875,0.65625 1.54687,1.90625 0.57813,1.23438 0.57813,3 0,1.75 -0.60938,3.0625 -0.60937,1.29688 -1.67187,2.01563 -1.04688,0.70312 -2.375,0.70312 -0.79688,0 -1.59375,-0.34375 -0.79688,-0.34375 -1.53125,-1.26562 l -0.1875,1.53125 z m 6.46875,-9.76563 q -0.53125,0 -1.21875,0.28125 -0.67188,0.26563 -1.59375,1.03125 v 6.20313 q 0.70312,0.67187 1.375,0.96875 0.6875,0.28125 1.3125,0.28125 1.20312,0 2.09375,-1.04688 0.90625,-1.0625 0.90625,-3.25 0,-2.17187 -0.8125,-3.3125 -0.79688,-1.15625 -2.0625,-1.15625 z"
       fill-rule="nonzero"
       id="path189" />
    <path
       fill="#000000"
       d="m 579.75525,249.94388 v -0.625 h 3.64063 v 0.625 l -1.28125,0.1875 v 9.40625 h -0.53125 l -6.04688,-8.23437 v 7.29687 l 1.60938,0.20313 v 0.625 h -3.65625 v -0.625 l 1.28125,-0.17188 v -8.39062 l -0.14063,-0.1875 -1.0625,-0.10938 v -0.625 h 2.3125 l 5.46875,7.5 v -6.6875 z"
       fill-rule="nonzero"
       id="path191" />
    <path
       fill="#000000"
       fill-opacity="0"
       d="m 85.428185,133.20998 h 66.078735 v 39.52756 H 85.428185 Z"
       fill-rule="evenodd"
       id="path193" />
    <path
       fill="#000000"
       d="m 104.52078,150.94875 v -1.03125 h 4.98438 v 1.03125 l -1.57813,0.29687 -3.79687,4.6875 3.70312,5.3125 2.01563,0.375 v 0.95313 h -6.5 v -0.95313 l 1.89062,-0.35937 -2.60937,-3.8125 -2.937505,3.8125 2.000005,0.35937 v 0.95313 h -5.32813 v -0.95313 l 1.703125,-0.32812 3.890625,-4.82813 -3.5625,-5.21875 -1.84375,-0.29687 v -1.03125 h 5.9375 v 1.03125 l -1.625,0.29687 2.5625,3.70313 2.85938,-3.65625 z m 8.34926,7.40625 v -6.39063 q 0,-2.10937 -0.0156,-4.21875 -0.0156,-2.125 -0.0625,-4.23437 h 5.07813 v 1.09375 l -3,0.34375 q -0.0312,1.71875 -0.0469,3.48437 -0.0156,1.76563 -0.0156,3.53125 v 6.39063 q 0,1.73437 0.0156,3.51562 0.0156,1.76563 0.0469,3.5 l 3,0.34375 v 1.09375 h -5.07813 q 0.0469,-2.04687 0.0625,-4.1875 0.0156,-2.125 0.0156,-4.26562 z m 6.30913,4.21875 v -0.95313 l 1.96875,-0.375 q 0.0312,-1.01562 0.0469,-2.1875 0.0156,-1.17187 0.0156,-2.07812 v -1.28125 q 0,-1.09375 -0.0156,-1.8125 -0.0156,-0.71875 -0.0625,-1.51563 l -2.10937,-0.25 v -0.92187 l 3.73437,-1.64063 0.39063,0.28125 0.21875,2.125 q 0.98437,-1.0625 2.26562,-1.73437 1.28125,-0.67188 2.5,-0.67188 1.73438,0 2.57813,1.17188 0.84375,1.15625 0.84375,3.76562 V 156.98 q 0,0.90625 0.0156,2.07812 0.0156,1.17188 0.0312,2.1875 l 1.875,0.375 v 0.95313 h -6.1875 v -0.95313 l 1.96875,-0.375 q 0.0312,-0.98437 0.0469,-2.17187 0.0156,-1.1875 0.0156,-2.09375 v -2.26563 q 0,-1.84375 -0.53125,-2.53125 -0.51562,-0.70312 -1.6875,-0.70312 -0.90625,0 -1.76562,0.375 -0.84375,0.375 -1.85938,1.23437 V 156.98 q 0,0.875 0.0156,2.0625 0.0156,1.1875 0.0312,2.20312 l 1.84375,0.375 v 0.95313 z m 20.57904,-10.60938 v 6.39063 q 0,2.10937 0.0156,4.21875 0.0156,2.125 0.0625,4.23437 h -5.09375 v -1.09375 l 3.01563,-0.34375 q 0.0625,-1.73437 0.0625,-3.48437 0,-1.76563 0,-3.53125 v -6.39063 q 0,-1.73437 0,-3.5 0,-1.78125 -0.0625,-3.51562 l -3.01563,-0.34375 v -1.09375 h 5.09375 q -0.0469,2.0625 -0.0625,4.20312 -0.0156,2.125 -0.0156,4.25 z"
       fill-rule="nonzero"
       id="path195" />
    <path
       fill="#000000"
       fill-opacity="0"
       d="m 592.1969,283.98688 h 57.79529 v 39.52756 H 592.1969 Z"
       fill-rule="evenodd"
       id="path197" />
    <path
       fill="#000000"
       d="m 609.65,301.64752 v -0.95313 h 5.1875 v 0.95313 l -1.4375,0.29687 -4.28125,11.32813 q -1.34375,3.54687 -2.57813,5.125 -1.23437,1.59375 -2.89062,1.59375 -0.98438,0 -1.71875,-0.5 -0.73438,-0.48438 -0.73438,-1.26563 0.14063,-0.57812 0.65625,-0.875 0.51563,-0.29687 1.125,-0.29687 0.53125,0 0.98438,0.21875 0.45312,0.23437 1,0.79687 l 0.125,0.125 q 0.85937,-0.71875 1.4375,-1.75 0.59375,-1.01562 0.96875,-2.07812 l 0.0937,-0.32813 -4.8125,-12.17187 -1.46875,-0.21875 v -0.95313 h 6.39062 v 0.98438 l -2.34375,0.26562 3.32813,9.09375 3.28125,-9.0625 z m 7.94482,7.48437 v -6.39062 q 0,-2.10938 -0.0156,-4.21875 -0.0156,-2.125 -0.0625,-4.23438 h 5.07812 v 1.09375 l -3,0.34375 q -0.0312,1.71875 -0.0469,3.48438 -0.0156,1.76562 -0.0156,3.53125 v 6.39062 q 0,1.73438 0.0156,3.51563 0.0156,1.76562 0.0469,3.5 l 3,0.34375 v 1.09375 h -5.07812 q 0.0469,-2.04688 0.0625,-4.1875 0.0156,-2.125 0.0156,-4.26563 z m 6.30915,4.21875 v -0.95312 l 1.96875,-0.375 q 0.0312,-1.01563 0.0469,-2.1875 0.0156,-1.17188 0.0156,-2.07813 v -1.28125 q 0,-1.09375 -0.0156,-1.8125 -0.0156,-0.71875 -0.0625,-1.51562 l -2.10937,-0.25 v -0.92188 l 3.73437,-1.64062 0.39063,0.28125 0.21875,2.125 q 0.98437,-1.0625 2.26562,-1.73438 1.28125,-0.67187 2.5,-0.67187 1.73438,0 2.57813,1.17187 0.84375,1.15625 0.84375,3.76563 v 2.48437 q 0,0.90625 0.0156,2.07813 0.0156,1.17187 0.0312,2.1875 l 1.875,0.375 v 0.95312 h -6.1875 v -0.95312 l 1.96875,-0.375 q 0.0312,-0.98438 0.0469,-2.17188 0.0156,-1.1875 0.0156,-2.09375 v -2.26562 q 0,-1.84375 -0.53125,-2.53125 -0.51562,-0.70313 -1.6875,-0.70313 -0.90625,0 -1.76562,0.375 -0.84375,0.375 -1.85938,1.23438 v 3.89062 q 0,0.875 0.0156,2.0625 0.0156,1.1875 0.0312,2.20313 l 1.84375,0.375 v 0.95312 z m 20.57904,-10.60937 v 6.39062 q 0,2.10938 0.0156,4.21875 0.0156,2.125 0.0625,4.23438 h -5.09375 v -1.09375 l 3.01563,-0.34375 q 0.0625,-1.73438 0.0625,-3.48438 0,-1.76562 0,-3.53125 v -6.39062 q 0,-1.73438 0,-3.5 0,-1.78125 -0.0625,-3.51563 l -3.01563,-0.34375 v -1.09375 h 5.09375 q -0.0469,2.0625 -0.0625,4.20313 -0.0156,2.125 -0.0156,4.25 z"
       fill-rule="nonzero"
       id="path199" />
  </g>
</svg>
