<?xml version="1.0" encoding="UTF-8" standalone="no"?>
<svg
   xmlns:dc="http://purl.org/dc/elements/1.1/"
   xmlns:cc="http://creativecommons.org/ns#"
   xmlns:rdf="http://www.w3.org/1999/02/22-rdf-syntax-ns#"
   xmlns:svg="http://www.w3.org/2000/svg"
   xmlns="http://www.w3.org/2000/svg"
   xmlns:sodipodi="http://sodipodi.sourceforge.net/DTD/sodipodi-0.dtd"
   xmlns:inkscape="http://www.inkscape.org/namespaces/inkscape"
   version="1.1"
   viewBox="0 0 285.56696 78.354332"
   stroke-miterlimit="10"
   id="svg261"
   sodipodi:docname="handshake.svg"
   width="285.56696"
   height="78.354332"
   style="fill:none;stroke:none;stroke-linecap:square;stroke-miterlimit:10"
   inkscape:version="0.92.5 (2060ec1f9f, 2020-04-08)">
  <metadata
     id="metadata267">
    <rdf:RDF>
      <cc:Work
         rdf:about="">
        <dc:format>image/svg+xml</dc:format>
        <dc:type
           rdf:resource="http://purl.org/dc/dcmitype/StillImage" />
        <dc:title></dc:title>
      </cc:Work>
    </rdf:RDF>
  </metadata>
  <defs
     id="defs265" />
  <sodipodi:namedview
     pagecolor="#ffffff"
     bordercolor="#666666"
     borderopacity="1"
     objecttolerance="10"
     gridtolerance="10"
     guidetolerance="10"
     inkscape:pageopacity="0"
     inkscape:pageshadow="2"
     inkscape:window-width="1302"
     inkscape:window-height="952"
     id="namedview263"
     showgrid="false"
     inkscape:zoom="1.0223586"
     inkscape:cx="-181.78982"
     inkscape:cy="-145.03224"
     inkscape:window-x="1101"
     inkscape:window-y="500"
     inkscape:window-maximized="0"
     inkscape:current-layer="g259" />
  <clipPath
     id="g2f80604df9e_0_0.0">
    <path
       d="M 0,0 H 960 V 540 H 0 Z"
       id="path2"
       inkscape:connector-curvature="0"
       style="clip-rule:nonzero" />
  </clipPath>
  <g
     clip-path="url(#g2f80604df9e_0_0.0)"
     id="g259"
     transform="translate(-633.8884,-126.34777)">
    <path
       d="M 0,0 H 504 V 72.97638 H 0 Z"
       id="path7"
       inkscape:connector-curvature="0"
       style="fill:#000000;fill-opacity:0;fill-rule:evenodd" />
    <path
       d="M 634.3884,126.84777 H 918.95536 V 204.2021 H 634.3884 Z"
       id="path97"
       inkscape:connector-curvature="0"
       style="fill:#000000;fill-opacity:0;fill-rule:evenodd" />
    <path
       d="M 829.917,189.51706 H 723.42878"
       id="path101"
       inkscape:connector-curvature="0"
       style="fill:#000000;fill-opacity:0;fill-rule:evenodd" />
    <path
       d="M 829.917,189.51706 H 735.42884"
       id="path103"
       inkscape:connector-curvature="0"
       style="fill-rule:evenodd;stroke:#1c4587;stroke-width:2;stroke-linecap:butt;stroke-linejoin:round" />
    <path
       d="m 735.42883,186.2136 -9.07623,3.30347 9.07623,3.30346 z"
       id="path105"
       inkscape:connector-curvature="0"
       style="fill:#1c4587;fill-rule:evenodd;stroke:#1c4587;stroke-width:2;stroke-linecap:butt" />
    <path
       d="m 717.2703,171.81369 h 118.86615 v 14.55118 H 717.2703 Z"
       id="path107"
       inkscape:connector-curvature="0"
       style="fill:#000000;fill-opacity:0;fill-rule:evenodd" />
    <path
       d="m 750.3952,183.3337 v -0.4375 l 0.875,-0.15625 q 0,-0.45313 0,-0.98438 0.0156,-0.53125 0.0156,-0.9375 v -0.57812 q 0,-0.5 -0.0156,-0.8125 0,-0.32813 -0.0156,-0.6875 l -0.95313,-0.10938 v -0.42187 l 1.6875,-0.73438 0.17188,0.125 0.14062,1.42188 q 0.29688,-0.73438 0.76563,-1.14063 0.46875,-0.40625 0.95312,-0.40625 0.28125,0 0.51563,0.125 0.25,0.125 0.34375,0.32813 0,0.875 -0.70313,0.875 -0.20312,0 -0.39062,-0.0781 -0.17188,-0.0781 -0.34375,-0.23437 l -0.14063,-0.125 q -0.35937,0.26562 -0.60937,0.65625 -0.23438,0.375 -0.39063,0.89062 v 0.90625 q 0,0.39063 0,0.92188 0.0156,0.53125 0.0312,0.98437 l 0.98438,0.17188 v 0.4375 z m 7.69043,-5.29688 q -0.34375,0 -0.6875,0.1875 -0.34375,0.1875 -0.59375,0.60938 -0.23438,0.42187 -0.3125,1.10937 h 2.1875 q 0.4375,0 0.5625,-0.17187 0.14062,-0.1875 0.14062,-0.45313 0,-0.34375 -0.17187,-0.625 -0.17188,-0.29687 -0.46875,-0.46875 -0.29688,-0.1875 -0.65625,-0.1875 z m -0.0156,5.45313 q -1.21875,0 -1.95312,-0.78125 -0.71875,-0.79688 -0.71875,-2.17188 0,-0.92187 0.375,-1.60937 0.375,-0.6875 1,-1.0625 0.64062,-0.39063 1.375,-0.39063 0.625,0 1.125,0.28125 0.51562,0.28125 0.8125,0.79688 0.29687,0.5 0.29687,1.23437 0,0.20313 -0.0312,0.375 -0.0156,0.17188 -0.0469,0.29688 h -3.82813 q 0.0156,1.09375 0.54688,1.67187 0.53125,0.57813 1.39062,0.57813 0.57813,0 0.95313,-0.23438 0.39062,-0.23437 0.71875,-0.60937 l 0.28125,0.23437 q -0.32813,0.64063 -0.90625,1.01563 -0.57813,0.375 -1.39063,0.375 z m 7.76569,-0.0312 q -0.42187,0 -0.71875,-0.25 -0.28125,-0.26563 -0.35937,-0.67188 -0.48438,0.46875 -0.85938,0.71875 -0.375,0.23438 -0.90625,0.23438 -0.65625,0 -1.125,-0.375 -0.46875,-0.375 -0.46875,-1.125 0,-0.34375 0.15625,-0.64063 0.15625,-0.3125 0.59375,-0.59375 0.4375,-0.29687 1.23438,-0.57812 0.28125,-0.0937 0.64062,-0.20313 0.35938,-0.10937 0.71875,-0.1875 v -0.3125 q 0,-0.875 -0.26562,-1.15625 -0.26563,-0.28125 -0.85938,-0.28125 -0.14062,0 -0.3125,0.0156 -0.15625,0 -0.34375,0.0469 l -0.21875,0.78125 q -0.17187,0.57813 -0.625,0.57813 -0.51562,0 -0.5625,-0.5 0.15625,-0.67188 0.78125,-1.07813 0.64063,-0.40625 1.54688,-0.40625 0.95312,0 1.40625,0.48438 0.45312,0.46875 0.45312,1.60937 v 2.54688 q 0,0.39062 0.125,0.5625 0.125,0.15625 0.3125,0.15625 0.15625,0 0.26563,-0.0625 0.10937,-0.0781 0.20312,-0.20313 l 0.23438,0.26563 q -0.21875,0.34375 -0.48438,0.48437 -0.25,0.14063 -0.5625,0.14063 z m -3.375,-1.65625 q 0,0.48437 0.26563,0.6875 0.28125,0.20312 0.6875,0.20312 0.1875,0 0.34375,-0.0469 0.17187,-0.0469 0.39062,-0.1875 0.23438,-0.14063 0.59375,-0.39063 v -1.84375 q -0.3125,0.0781 -0.625,0.1875 -0.29687,0.10938 -0.48437,0.17188 -0.51563,0.20312 -0.76563,0.42187 -0.25,0.21875 -0.32812,0.42188 -0.0781,0.20312 -0.0781,0.375 z m 6.12366,-1.28125 q 0,1.17187 0.46875,1.73437 0.46875,0.54688 1.1875,0.54688 0.40625,0 0.70312,-0.15625 0.3125,-0.17188 0.64063,-0.53125 v -3.32813 q -0.40625,-0.35937 -0.73438,-0.48437 -0.3125,-0.14063 -0.60937,-0.14063 -0.45313,0 -0.82813,0.25 -0.375,0.23438 -0.60937,0.76563 -0.21875,0.51562 -0.21875,1.34375 z m 3.125,2.9375 -0.0781,-0.82813 q -0.3125,0.40625 -0.71875,0.64063 -0.40625,0.21875 -0.96875,0.21875 -0.73437,0 -1.28125,-0.375 -0.54687,-0.375 -0.85937,-1.03125 -0.29688,-0.67188 -0.29688,-1.54688 0,-0.92187 0.32813,-1.60937 0.34375,-0.6875 0.90625,-1.0625 0.57812,-0.39063 1.3125,-0.39063 0.42187,0 0.8125,0.17188 0.39062,0.17187 0.76562,0.60937 v -2.70312 l -1.03125,-0.125 v -0.42188 l 1.875,-0.54687 0.17188,0.10937 -0.0469,1.70313 v 6.48437 l 0.96875,0.14063 v 0.4375 z m 5.73095,-5.39063 v -0.4375 h 2.34375 v 0.4375 l -0.64062,0.125 -1.9375,5.10938 q -0.59375,1.59375 -1.15625,2.29687 -0.5625,0.71875 -1.29688,0.71875 -0.45312,0 -0.78125,-0.21875 -0.32812,-0.21875 -0.32812,-0.5625 0.0625,-0.26562 0.29687,-0.40625 0.23438,-0.125 0.5,-0.125 0.25,0 0.45313,0.0937 0.20312,0.10938 0.4375,0.35938 l 0.0625,0.0625 q 0.39062,-0.32813 0.64062,-0.79688 0.26563,-0.45312 0.4375,-0.9375 l 0.0469,-0.14062 -2.17188,-5.48438 -0.65625,-0.0937 v -0.4375 h 2.875 v 0.45313 l -1.04687,0.10937 1.5,4.09375 1.46875,-4.07812 z m 7.06507,1.92188 q 0,0.96875 0.15625,1.8125 0.17187,0.82812 0.57812,1.6875 0.40625,0.85937 1.10938,1.875 l -0.3125,0.26562 q -1.26563,-1.1875 -1.89063,-2.57812 -0.60937,-1.40625 -0.60937,-3.0625 0,-1.64063 0.60937,-3.03125 0.625,-1.40625 1.89063,-2.59375 l 0.3125,0.26562 q -0.70313,1.01563 -1.10938,1.875 -0.40625,0.85938 -0.57812,1.70313 -0.15625,0.82812 -0.15625,1.78125 z m 3.16174,-3.875 2.46875,-0.625 0.17188,0.10937 -0.0469,1.71875 v 3.48438 q 0,0.4375 0,0.90625 0.0156,0.45312 0.0312,0.90625 l 1.70313,0.28125 v 0.4375 h -4.45313 v -0.4375 l 1.6875,-0.28125 q 0.0156,-0.45313 0.0156,-0.90625 0.0156,-0.46875 0.0156,-0.90625 v -4.32813 l -1.59375,0.14063 z m 5.34381,7.21875 v -0.4375 L 793.9172,182.74 q 0,-0.45313 0,-0.98438 0.0156,-0.53125 0.0156,-0.9375 v -5.26562 l -0.98438,-0.125 v -0.42188 l 1.84375,-0.54687 0.15625,0.10937 -0.0469,1.70313 v 2.125 q 0.4375,-0.46875 0.89062,-0.6875 0.46875,-0.23438 0.96875,-0.23438 0.625,0 1.14063,0.35938 0.51562,0.34375 0.82812,1 0.3125,0.65625 0.3125,1.59375 0,0.92187 -0.32812,1.625 -0.32813,0.6875 -0.89063,1.0625 -0.54687,0.375 -1.26562,0.375 -0.42188,0 -0.84375,-0.17188 -0.40625,-0.1875 -0.8125,-0.6875 l -0.0937,0.82813 z m 3.42188,-5.17188 q -0.28125,0 -0.64063,0.14063 -0.35937,0.14062 -0.84375,0.5625 v 3.28125 q 0.35938,0.34375 0.71875,0.5 0.375,0.15625 0.70313,0.15625 0.64062,0 1.10937,-0.54688 0.46875,-0.5625 0.46875,-1.73437 0,-1.14063 -0.42187,-1.75 -0.42188,-0.60938 -1.09375,-0.60938 z m 5.15143,1.82813 q 0,-0.95313 -0.17188,-1.78125 -0.15625,-0.84375 -0.5625,-1.70313 -0.39062,-0.85937 -1.10937,-1.875 l 0.3125,-0.26562 q 1.28125,1.1875 1.89062,2.59375 0.60938,1.39062 0.60938,3.03125 0,1.65625 -0.60938,3.0625 -0.60937,1.39062 -1.89062,2.57812 l -0.3125,-0.26562 q 0.71875,-1.01563 1.10937,-1.875 0.40625,-0.85938 0.5625,-1.6875 0.17188,-0.84375 0.17188,-1.8125 z"
       id="path109"
       inkscape:connector-curvature="0"
       style="fill:#000000;fill-rule:nonzero" />
    <path
       d="m 717.2703,133.1258 h 118.86615 v 14.55119 H 717.2703 Z"
       id="path111"
       inkscape:connector-curvature="0"
       style="fill:#000000;fill-opacity:0;fill-rule:evenodd" />
    <path
       d="m 756.1431,147.5208 v -0.42188 l 0.95312,-0.17187 q 0.0156,-0.5 0.0156,-0.98438 0.0156,-0.48437 0.0156,-0.95312 v -3.4375 q 0,-0.5 -0.0156,-0.8125 0,-0.32813 -0.0156,-0.6875 l -0.95312,-0.10938 v -0.42187 l 1.67187,-0.73438 0.1875,0.125 0.0781,0.78125 q 0.84375,-0.90625 1.79687,-0.90625 0.65625,0 1.17188,0.35938 0.51562,0.35937 0.8125,1.03125 0.3125,0.67187 0.3125,1.59375 0,0.9375 -0.32813,1.60937 -0.3125,0.67188 -0.875,1.04688 -0.5625,0.375 -1.26562,0.375 -0.40625,0 -0.8125,-0.17188 -0.40625,-0.17187 -0.78125,-0.60937 v 0.95312 q 0,0.46875 0,0.95313 0.0156,0.5 0.0156,0.98437 l 1.09375,0.1875 v 0.42188 z m 3.45312,-8.04688 q -0.28125,0 -0.64062,0.14063 -0.35938,0.14062 -0.8125,0.51562 v 3.375 q 0.34375,0.32813 0.65625,0.46875 0.32812,0.14063 0.67187,0.14063 0.67188,0 1.14063,-0.53125 0.48437,-0.54688 0.48437,-1.70313 0,-1.15625 -0.42187,-1.78125 -0.42188,-0.625 -1.07813,-0.625 z m 8.10541,5.29688 q -0.42187,0 -0.71875,-0.25 -0.28125,-0.26563 -0.35937,-0.67188 -0.48438,0.46875 -0.85938,0.71875 -0.375,0.23438 -0.90625,0.23438 -0.65625,0 -1.125,-0.375 -0.46875,-0.375 -0.46875,-1.125 0,-0.34375 0.15625,-0.64063 0.15625,-0.3125 0.59375,-0.59375 0.4375,-0.29687 1.23438,-0.57812 0.28125,-0.0937 0.64062,-0.20313 0.35938,-0.10937 0.71875,-0.1875 v -0.3125 q 0,-0.875 -0.26562,-1.15625 -0.26563,-0.28125 -0.85938,-0.28125 -0.14062,0 -0.3125,0.0156 -0.15625,0 -0.34375,0.0469 l -0.21875,0.78125 q -0.17187,0.57813 -0.625,0.57813 -0.51562,0 -0.5625,-0.5 0.15625,-0.67188 0.78125,-1.07813 0.64063,-0.40625 1.54688,-0.40625 0.95312,0 1.40625,0.48438 0.45312,0.46875 0.45312,1.60937 v 2.54688 q 0,0.39062 0.125,0.5625 0.125,0.15625 0.3125,0.15625 0.15625,0 0.26563,-0.0625 0.10937,-0.0781 0.20312,-0.20313 l 0.23438,0.26563 q -0.21875,0.34375 -0.48438,0.48437 -0.25,0.14063 -0.5625,0.14063 z m -3.375,-1.65625 q 0,0.48437 0.26563,0.6875 0.28125,0.20312 0.6875,0.20312 0.1875,0 0.34375,-0.0469 0.17187,-0.0469 0.39062,-0.1875 0.23438,-0.14063 0.59375,-0.39063 v -1.84375 q -0.3125,0.0781 -0.625,0.1875 -0.29687,0.10938 -0.48437,0.17188 -0.51563,0.20312 -0.76563,0.42187 -0.25,0.21875 -0.32812,0.42188 -0.0781,0.20312 -0.0781,0.375 z m 8.1756,-3.73438 v -0.4375 h 2.34375 v 0.4375 l -0.64062,0.125 -1.9375,5.10938 q -0.59375,1.59375 -1.15625,2.29687 -0.5625,0.71875 -1.29688,0.71875 -0.45312,0 -0.78125,-0.21875 -0.32812,-0.21875 -0.32812,-0.5625 0.0625,-0.26562 0.29687,-0.40625 0.23438,-0.125 0.5,-0.125 0.25,0 0.45313,0.0937 0.20312,0.10938 0.4375,0.35938 l 0.0625,0.0625 q 0.39062,-0.32813 0.64062,-0.79688 0.26563,-0.45312 0.4375,-0.9375 l 0.0469,-0.14062 -2.17188,-5.48438 -0.65625,-0.0937 v -0.4375 h 2.875 v 0.45313 l -1.04687,0.10937 1.5,4.09375 1.46875,-4.07812 z m 2.40399,5.26563 v -0.4375 l 0.96875,-0.15625 q 0,-0.5 0,-0.96875 0.0156,-0.48438 0.0156,-0.95313 v -5.26562 l -0.98438,-0.125 v -0.42188 l 1.875,-0.54687 0.17188,0.10937 -0.0469,1.70313 v 4.54687 q 0,0.46875 0,0.95313 0,0.48437 0.0156,0.96875 l 0.96875,0.15625 v 0.4375 z m 6.56043,0.15625 q -0.6875,0 -1.32813,-0.32813 -0.625,-0.32812 -1.01562,-1 -0.39063,-0.67187 -0.39063,-1.64062 0,-1 0.39063,-1.67188 0.39062,-0.6875 1.01562,-1.03125 0.64063,-0.34375 1.32813,-0.34375 0.70312,0 1.32812,0.34375 0.64063,0.34375 1.03125,1.03125 0.40625,0.67188 0.40625,1.67188 0,0.96875 -0.40625,1.64062 -0.39062,0.67188 -1.03125,1 -0.625,0.32813 -1.32812,0.32813 z m 0,-0.54688 q 0.78125,0 1.20312,-0.60937 0.42188,-0.625 0.42188,-1.8125 0,-1.21875 -0.42188,-1.84375 -0.42187,-0.64063 -1.20312,-0.64063 -0.76563,0 -1.1875,0.64063 -0.40625,0.625 -0.40625,1.84375 0,1.1875 0.40625,1.8125 0.42187,0.60937 1.1875,0.60937 z m 8.2912,0.51563 q -0.42188,0 -0.71875,-0.25 -0.28125,-0.26563 -0.35938,-0.67188 -0.48437,0.46875 -0.85937,0.71875 -0.375,0.23438 -0.90625,0.23438 -0.65625,0 -1.125,-0.375 -0.46875,-0.375 -0.46875,-1.125 0,-0.34375 0.15625,-0.64063 0.15625,-0.3125 0.59375,-0.59375 0.4375,-0.29687 1.23437,-0.57812 0.28125,-0.0937 0.64063,-0.20313 0.35937,-0.10937 0.71875,-0.1875 v -0.3125 q 0,-0.875 -0.26563,-1.15625 -0.26562,-0.28125 -0.85937,-0.28125 -0.14063,0 -0.3125,0.0156 -0.15625,0 -0.34375,0.0469 l -0.21875,0.78125 q -0.17188,0.57813 -0.625,0.57813 -0.51563,0 -0.5625,-0.5 0.15625,-0.67188 0.78125,-1.07813 0.64062,-0.40625 1.54687,-0.40625 0.95313,0 1.40625,0.48438 0.45313,0.46875 0.45313,1.60937 v 2.54688 q 0,0.39062 0.125,0.5625 0.125,0.15625 0.3125,0.15625 0.15625,0 0.26562,-0.0625 0.10938,-0.0781 0.20313,-0.20313 l 0.23437,0.26563 q -0.21875,0.34375 -0.48437,0.48437 -0.25,0.14063 -0.5625,0.14063 z m -3.375,-1.65625 q 0,0.48437 0.26562,0.6875 0.28125,0.20312 0.6875,0.20312 0.1875,0 0.34375,-0.0469 0.17188,-0.0469 0.39063,-0.1875 0.23437,-0.14063 0.59375,-0.39063 v -1.84375 q -0.3125,0.0781 -0.625,0.1875 -0.29688,0.10938 -0.48438,0.17188 -0.51562,0.20312 -0.76562,0.42187 -0.25,0.21875 -0.32813,0.42188 -0.0781,0.20312 -0.0781,0.375 z m 6.12365,-1.28125 q 0,1.17187 0.46875,1.73437 0.46875,0.54688 1.1875,0.54688 0.40625,0 0.70313,-0.15625 0.3125,-0.17188 0.64062,-0.53125 v -3.32813 q -0.40625,-0.35937 -0.73437,-0.48437 -0.3125,-0.14063 -0.60938,-0.14063 -0.45312,0 -0.82812,0.25 -0.375,0.23438 -0.60938,0.76563 -0.21875,0.51562 -0.21875,1.34375 z m 3.125,2.9375 -0.0781,-0.82813 q -0.3125,0.40625 -0.71875,0.64063 -0.40625,0.21875 -0.96875,0.21875 -0.73438,0 -1.28125,-0.375 -0.54688,-0.375 -0.85938,-1.03125 -0.29687,-0.67188 -0.29687,-1.54688 0,-0.92187 0.32812,-1.60937 0.34375,-0.6875 0.90625,-1.0625 0.57813,-0.39063 1.3125,-0.39063 0.42188,0 0.8125,0.17188 0.39063,0.17187 0.76563,0.60937 v -2.70312 l -1.03125,-0.125 v -0.42188 l 1.875,-0.54687 0.17187,0.10937 -0.0469,1.70313 v 6.48437 l 0.96875,0.14063 v 0.4375 z"
       id="path113"
       inkscape:connector-curvature="0"
       style="fill:#000000;fill-rule:nonzero" />
    <path
       d="M 723.45306,150.82918 H 829.94128"
       id="path115"
       inkscape:connector-curvature="0"
       style="fill:#000000;fill-opacity:0;fill-rule:evenodd" />
    <path
       d="m 723.45306,150.82918 h 94.48822"
       id="path117"
       inkscape:connector-curvature="0"
       style="fill-rule:evenodd;stroke:#595959;stroke-width:2;stroke-linecap:butt;stroke-linejoin:round" />
    <path
       d="m 817.9413,154.13263 9.07617,-3.30345 -9.07617,-3.30347 z"
       id="path119"
       inkscape:connector-curvature="0"
       style="fill:#595959;fill-rule:evenodd;stroke:#595959;stroke-width:2;stroke-linecap:butt" />
    <path
       d="M 723.45306,170.17313 H 829.94128"
       id="path121"
       inkscape:connector-curvature="0"
       style="fill:#000000;fill-opacity:0;fill-rule:evenodd" />
    <path
       d="m 723.45306,170.17311 h 94.48822"
       id="path123"
       inkscape:connector-curvature="0"
       style="fill-rule:evenodd;stroke:#595959;stroke-width:2;stroke-linecap:butt;stroke-linejoin:round" />
    <path
       d="m 817.9413,173.47658 9.07617,-3.30347 -9.07617,-3.30346 z"
       id="path125"
       inkscape:connector-curvature="0"
       style="fill:#595959;fill-rule:evenodd;stroke:#595959;stroke-width:2;stroke-linecap:butt" />
    <path
       d="m 717.2703,152.46974 h 118.86615 v 14.55118 H 717.2703 Z"
       id="path127"
       inkscape:connector-curvature="0"
       style="fill:#000000;fill-opacity:0;fill-rule:evenodd" />
    <path
       d="m 755.5471,158.75537 v -0.46875 h 2.28125 v 0.46875 l -0.65625,0.15625 -1.95313,5.15625 h -0.51562 l -2.1875,-5.1875 -0.64063,-0.125 v -0.46875 h 2.90625 v 0.46875 l -1.0625,0.15625 1.46875,3.84375 1.32813,-3.82813 z m 7.18054,5.35937 q -0.42187,0 -0.71875,-0.25 -0.28125,-0.26562 -0.35937,-0.67187 -0.48438,0.46875 -0.85938,0.71875 -0.375,0.23437 -0.90625,0.23437 -0.65625,0 -1.125,-0.375 -0.46875,-0.375 -0.46875,-1.125 0,-0.34375 0.15625,-0.64062 0.15625,-0.3125 0.59375,-0.59375 0.4375,-0.29688 1.23438,-0.57813 0.28125,-0.0937 0.64062,-0.20312 0.35938,-0.10938 0.71875,-0.1875 v -0.3125 q 0,-0.875 -0.26562,-1.15625 -0.26563,-0.28125 -0.85938,-0.28125 -0.14062,0 -0.3125,0.0156 -0.15625,0 -0.34375,0.0469 l -0.21875,0.78125 q -0.17187,0.57812 -0.625,0.57812 -0.51562,0 -0.5625,-0.5 0.15625,-0.67187 0.78125,-1.07812 0.64063,-0.40625 1.54688,-0.40625 0.95312,0 1.40625,0.48437 0.45312,0.46875 0.45312,1.60938 v 2.54687 q 0,0.39063 0.125,0.5625 0.125,0.15625 0.3125,0.15625 0.15625,0 0.26563,-0.0625 0.10937,-0.0781 0.20312,-0.20312 l 0.23438,0.26562 q -0.21875,0.34375 -0.48438,0.48438 -0.25,0.14062 -0.5625,0.14062 z m -3.375,-1.65625 q 0,0.48438 0.26563,0.6875 0.28125,0.20313 0.6875,0.20313 0.1875,0 0.34375,-0.0469 0.17187,-0.0469 0.39062,-0.1875 0.23438,-0.14062 0.59375,-0.39062 v -1.84375 q -0.3125,0.0781 -0.625,0.1875 -0.29687,0.10937 -0.48437,0.17187 -0.51563,0.20313 -0.76563,0.42188 -0.25,0.21875 -0.32812,0.42187 -0.0781,0.20313 -0.0781,0.375 z m 4.79553,1.53125 v -0.4375 l 0.96875,-0.15625 q 0,-0.5 0,-0.96875 0.0156,-0.48437 0.0156,-0.95312 v -5.26563 l -0.98438,-0.125 v -0.42187 l 1.875,-0.54688 0.17188,0.10938 -0.0469,1.70312 v 4.54688 q 0,0.46875 0,0.95312 0,0.48438 0.0156,0.96875 l 0.96875,0.15625 v 0.4375 z m 3.70105,0 v -0.4375 l 0.89063,-0.15625 q 0.0156,-0.46875 0.0156,-1 0.0156,-0.53125 0.0156,-0.92187 v -0.5625 q 0,-0.5 -0.0156,-0.82813 0,-0.32812 -0.0156,-0.6875 l -0.96875,-0.10937 v -0.42188 l 1.85937,-0.73437 0.17188,0.125 -0.0312,1.625 v 1.59375 q 0,0.39062 0,0.92187 0.0156,0.53125 0.0156,1 l 0.84375,0.15625 v 0.4375 z m 1.42188,-7.17187 q -0.34375,0 -0.57813,-0.21875 -0.23437,-0.21875 -0.23437,-0.54688 0,-0.35937 0.23437,-0.5625 0.23438,-0.21875 0.57813,-0.21875 0.32812,0 0.5625,0.21875 0.23437,0.20313 0.23437,0.5625 0,0.32813 -0.23437,0.54688 -0.23438,0.21875 -0.5625,0.21875 z m 3.35724,4.35937 q 0,1.17188 0.46875,1.73438 0.46875,0.54687 1.1875,0.54687 0.40625,0 0.70312,-0.15625 0.3125,-0.17187 0.64063,-0.53125 v -3.32812 q -0.40625,-0.35938 -0.73438,-0.48438 -0.3125,-0.14062 -0.60937,-0.14062 -0.45313,0 -0.82813,0.25 -0.375,0.23437 -0.60937,0.76562 -0.21875,0.51563 -0.21875,1.34375 z m 3.125,2.9375 -0.0781,-0.82812 q -0.3125,0.40625 -0.71875,0.64062 -0.40625,0.21875 -0.96875,0.21875 -0.73437,0 -1.28125,-0.375 -0.54687,-0.375 -0.85937,-1.03125 -0.29688,-0.67187 -0.29688,-1.54687 0,-0.92188 0.32813,-1.60938 0.34375,-0.6875 0.90625,-1.0625 0.57812,-0.39062 1.3125,-0.39062 0.42187,0 0.8125,0.17187 0.39062,0.17188 0.76562,0.60938 v -2.70313 l -1.03125,-0.125 v -0.42187 l 1.875,-0.54688 0.17188,0.10938 -0.0469,1.70312 v 6.48438 l 0.96875,0.14062 v 0.4375 z m 6.77197,-3.46875 q 0,0.96875 0.15625,1.8125 0.17188,0.82813 0.57813,1.6875 0.40625,0.85938 1.10937,1.875 l -0.3125,0.26563 q -1.26562,-1.1875 -1.89062,-2.57813 -0.60938,-1.40625 -0.60938,-3.0625 0,-1.64062 0.60938,-3.03125 0.625,-1.40625 1.89062,-2.59375 l 0.3125,0.26563 q -0.70312,1.01562 -1.10937,1.875 -0.40625,0.85937 -0.57813,1.70312 -0.15625,0.82813 -0.15625,1.78125 z m 3.16174,-3.875 2.46875,-0.625 0.17188,0.10938 -0.0469,1.71875 v 3.48437 q 0,0.4375 0,0.90625 0.0156,0.45313 0.0312,0.90625 l 1.70313,0.28125 v 0.4375 h -4.45313 v -0.4375 l 1.6875,-0.28125 q 0.0156,-0.45312 0.0156,-0.90625 0.0156,-0.46875 0.0156,-0.90625 v -4.32812 l -1.59375,0.14062 z m 5.34381,7.21875 v -0.4375 l 0.90625,-0.15625 q 0,-0.45312 0,-0.98437 0.0156,-0.53125 0.0156,-0.9375 v -5.26563 l -0.98438,-0.125 v -0.42187 l 1.84375,-0.54688 0.15625,0.10938 -0.0469,1.70312 v 2.125 q 0.4375,-0.46875 0.89062,-0.6875 0.46875,-0.23437 0.96875,-0.23437 0.625,0 1.14063,0.35937 0.51562,0.34375 0.82812,1 0.3125,0.65625 0.3125,1.59375 0,0.92188 -0.32812,1.625 -0.32813,0.6875 -0.89063,1.0625 -0.54687,0.375 -1.26562,0.375 -0.42188,0 -0.84375,-0.17187 -0.40625,-0.1875 -0.8125,-0.6875 l -0.0937,0.82812 z m 3.42188,-5.17187 q -0.28125,0 -0.64063,0.14062 -0.35937,0.14063 -0.84375,0.5625 v 3.28125 q 0.35938,0.34375 0.71875,0.5 0.375,0.15625 0.70313,0.15625 0.64062,0 1.10937,-0.54687 0.46875,-0.5625 0.46875,-1.73438 0,-1.14062 -0.42187,-1.75 -0.42188,-0.60937 -1.09375,-0.60937 z m 5.15143,1.82812 q 0,-0.95312 -0.17188,-1.78125 -0.15625,-0.84375 -0.5625,-1.70312 -0.39062,-0.85938 -1.10937,-1.875 l 0.3125,-0.26563 q 1.28125,1.1875 1.89062,2.59375 0.60938,1.39063 0.60938,3.03125 0,1.65625 -0.60938,3.0625 -0.60937,1.39063 -1.89062,2.57813 l -0.3125,-0.26563 q 0.71875,-1.01562 1.10937,-1.875 0.40625,-0.85937 0.5625,-1.6875 0.17188,-0.84375 0.17188,-1.8125 z"
       id="path129"
       inkscape:connector-curvature="0"
       style="fill:#000000;fill-rule:nonzero" />
    <path
       d="m 647.6967,144.94662 h 75.74799 v 50.79509 H 647.6967 Z"
       id="path131"
       inkscape:connector-curvature="0"
       style="fill:#d9d9d9;fill-rule:evenodd" />
    <path
       d="m 647.6845,144.94891 h 48.05286"
       id="path133"
       inkscape:connector-curvature="0"
       style="fill:#000000;fill-opacity:0;fill-rule:evenodd" />
    <path
       d="m 647.6845,144.94891 h 48.05286"
       id="path135"
       inkscape:connector-curvature="0"
       style="fill-rule:evenodd;stroke:#595959;stroke-width:1;stroke-linecap:butt;stroke-linejoin:round;stroke-dasharray:4, 3" />
    <path
       d="m 647.6845,195.74399 h 48.05286"
       id="path137"
       inkscape:connector-curvature="0"
       style="fill:#000000;fill-opacity:0;fill-rule:evenodd" />
    <path
       d="m 647.6845,195.74399 h 48.05286"
       id="path139"
       inkscape:connector-curvature="0"
       style="fill-rule:evenodd;stroke:#595959;stroke-width:1;stroke-linecap:butt;stroke-linejoin:round;stroke-dasharray:4, 3" />
    <path
       d="m 695.03534,195.74399 h 28.39484"
       id="path141"
       inkscape:connector-curvature="0"
       style="fill:#000000;fill-opacity:0;fill-rule:evenodd" />
    <path
       d="m 695.03534,195.74399 h 28.39484"
       id="path143"
       inkscape:connector-curvature="0"
       style="fill-rule:evenodd;stroke:#595959;stroke-width:1;stroke-linecap:butt;stroke-linejoin:round" />
    <path
       d="m 695.03534,144.94891 h 28.39484"
       id="path145"
       inkscape:connector-curvature="0"
       style="fill:#000000;fill-opacity:0;fill-rule:evenodd" />
    <path
       d="m 695.03534,144.94891 h 28.39484"
       id="path147"
       inkscape:connector-curvature="0"
       style="fill-rule:evenodd;stroke:#595959;stroke-width:1;stroke-linecap:butt;stroke-linejoin:round" />
    <path
       d="M 723.4302,195.74171 V 145.16534"
       id="path149"
       inkscape:connector-curvature="0"
       style="fill:#000000;fill-opacity:0;fill-rule:evenodd" />
    <path
       d="M 723.4302,195.74171 V 145.16534"
       id="path151"
       inkscape:connector-curvature="0"
       style="fill-rule:evenodd;stroke:#595959;stroke-width:1;stroke-linecap:butt;stroke-linejoin:round" />
    <path
       d="m 642.44617,153.32404 h 81.00787 v 34.04724 h -81.00787 z"
       id="path153"
       inkscape:connector-curvature="0"
       style="fill:#000000;fill-opacity:0;fill-rule:evenodd" />
    <path
       d="m 672.04663,175.8464 q -0.8125,0 -1.57812,-0.21875 -0.76563,-0.23438 -1.26563,-0.5625 l 0.0781,-2.04688 h 0.90625 l 0.29687,1.73438 q 0.34375,0.1875 0.70313,0.28125 0.35937,0.0781 0.82812,0.0781 1.03125,0 1.64063,-0.45312 0.625,-0.46875 0.625,-1.3125 0,-0.70313 -0.4375,-1.09375 -0.42188,-0.39063 -1.35938,-0.76563 l -0.57812,-0.23437 q -1.125,-0.4375 -1.82813,-1.125 -0.6875,-0.70313 -0.6875,-1.8125 0,-0.84375 0.42188,-1.4375 0.4375,-0.60938 1.1875,-0.9375 0.75,-0.34375 1.6875,-0.34375 0.73437,0 1.32812,0.21875 0.60938,0.20312 1.07813,0.54687 l -0.0937,1.92188 h -0.89063 l -0.3125,-1.65625 q -0.54687,-0.29688 -1.20312,-0.29688 -0.82813,0 -1.40625,0.42188 -0.5625,0.42187 -0.5625,1.23437 0,0.67188 0.42187,1.125 0.4375,0.4375 1.23438,0.73438 l 0.57812,0.21875 q 1.4375,0.5625 2.04688,1.26562 0.625,0.6875 0.625,1.73438 0,0.85937 -0.45313,1.48437 -0.4375,0.625 -1.21875,0.96875 -0.78125,0.32813 -1.8125,0.32813 z m 8.00403,-6.70313 q -0.40625,0 -0.82813,0.23438 -0.40625,0.23437 -0.71875,0.75 -0.29687,0.51562 -0.375,1.35937 h 2.65625 q 0.53125,0 0.70313,-0.21875 0.17187,-0.21875 0.17187,-0.53125 0,-0.42187 -0.21875,-0.78125 -0.21875,-0.35937 -0.57812,-0.57812 -0.35938,-0.23438 -0.8125,-0.23438 z m -0.0156,6.67188 q -1.46875,0 -2.375,-0.95313 -0.89062,-0.96875 -0.89062,-2.65625 0,-1.125 0.45312,-1.95312 0.46875,-0.84375 1.23438,-1.3125 0.78125,-0.46875 1.6875,-0.46875 0.76562,0 1.375,0.34375 0.625,0.32812 0.98437,0.95312 0.35938,0.625 0.35938,1.51563 0,0.25 -0.0312,0.46875 -0.0156,0.20312 -0.0625,0.35937 h -4.67188 q 0.0312,1.34375 0.67188,2.04688 0.64062,0.70312 1.70312,0.70312 0.70313,0 1.17188,-0.28125 0.46875,-0.28125 0.85937,-0.73437 l 0.34375,0.26562 q -0.40625,0.78125 -1.10937,1.25 -0.70313,0.45313 -1.70313,0.45313 z m 4.14661,-0.1875 v -0.53125 l 1.07812,-0.20313 q 0.0156,-0.5625 0.0156,-1.20312 0.0156,-0.64063 0.0156,-1.14063 v -0.70312 q 0,-0.59375 -0.0156,-0.98438 0,-0.40625 -0.0312,-0.84375 l -1.15625,-0.14062 v -0.51563 l 2.04687,-0.89062 0.21875,0.15625 0.125,1.17187 q 0.53125,-0.59375 1.23438,-0.95312 0.71875,-0.375 1.39062,-0.375 0.95313,0 1.40625,0.64062 0.46875,0.64063 0.46875,2.07813 v 1.35937 q 0,0.5 0,1.14063 0.0156,0.64062 0.0312,1.20312 l 1.01563,0.20313 v 0.53125 h -3.39063 v -0.53125 l 1.07813,-0.20313 q 0.0156,-0.54687 0.0156,-1.1875 0.0156,-0.65625 0.0156,-1.15625 v -1.25 q 0,-1 -0.29688,-1.375 -0.28125,-0.39062 -0.92187,-0.39062 -0.5,0 -0.96875,0.20312 -0.46875,0.20313 -1.01563,0.67188 v 2.14062 q 0,0.48438 0,1.14063 0,0.64062 0.0156,1.20312 l 1.01562,0.20313 v 0.53125 z m 10.27234,-3.4375 q 0,1.42187 0.57812,2.10937 0.57813,0.6875 1.45313,0.6875 0.48437,0 0.85937,-0.20312 0.375,-0.20313 0.78125,-0.65625 v -4.0625 q -0.5,-0.4375 -0.89062,-0.59375 -0.39063,-0.15625 -0.76563,-0.15625 -0.54687,0 -1.01562,0.29687 -0.45313,0.29688 -0.73438,0.9375 -0.26562,0.64063 -0.26562,1.64063 z m 3.8125,3.57812 -0.0937,-1 q -0.39063,0.5 -0.875,0.78125 -0.48438,0.26563 -1.17188,0.26563 -0.90625,0 -1.57812,-0.45313 -0.67188,-0.45312 -1.04688,-1.26562 -0.375,-0.8125 -0.375,-1.89063 0,-1.125 0.40625,-1.95312 0.42188,-0.84375 1.125,-1.3125 0.70313,-0.46875 1.59375,-0.46875 0.51563,0 0.98438,0.21875 0.48437,0.20312 0.9375,0.73437 v -3.3125 l -1.25,-0.14062 v -0.51563 l 2.28125,-0.65625 0.21875,0.10938 -0.0625,2.09375 v 7.92187 l 1.1875,0.17188 v 0.53125 z m 6.45074,-6.625 q -0.40625,0 -0.82812,0.23438 -0.40625,0.23437 -0.71875,0.75 -0.29688,0.51562 -0.375,1.35937 h 2.65625 q 0.53125,0 0.70312,-0.21875 0.17188,-0.21875 0.17188,-0.53125 0,-0.42187 -0.21875,-0.78125 -0.21875,-0.35937 -0.57813,-0.57812 -0.35937,-0.23438 -0.8125,-0.23438 z m -0.0156,6.67188 q -1.46875,0 -2.375,-0.95313 -0.89063,-0.96875 -0.89063,-2.65625 0,-1.125 0.45313,-1.95312 0.46875,-0.84375 1.23437,-1.3125 0.78125,-0.46875 1.6875,-0.46875 0.76563,0 1.375,0.34375 0.625,0.32812 0.98438,0.95312 0.35937,0.625 0.35937,1.51563 0,0.25 -0.0312,0.46875 -0.0156,0.20312 -0.0625,0.35937 h -4.67187 q 0.0312,1.34375 0.67187,2.04688 0.64063,0.70312 1.70313,0.70312 0.70312,0 1.17187,-0.28125 0.46875,-0.28125 0.85938,-0.73437 l 0.34375,0.26562 q -0.40625,0.78125 -1.10938,1.25 -0.70312,0.45313 -1.70312,0.45313 z m 4.16223,-0.1875 v -0.53125 l 1.0625,-0.1875 q 0.0156,-0.5625 0.0156,-1.20313 0.0156,-0.65625 0.0156,-1.15625 v -0.70312 q 0,-0.59375 -0.0156,-0.98438 0,-0.40625 -0.0312,-0.84375 l -1.15625,-0.14062 v -0.51563 l 2.04688,-0.89062 0.21875,0.15625 0.17187,1.71875 q 0.35938,-0.875 0.9375,-1.375 0.57813,-0.5 1.17188,-0.5 0.32812,0 0.625,0.15625 0.29687,0.14062 0.42187,0.39062 0,1.0625 -0.85937,1.0625 -0.25,0 -0.46875,-0.0937 -0.21875,-0.0937 -0.42188,-0.26562 l -0.1875,-0.15625 q -0.4375,0.3125 -0.73437,0.78125 -0.28125,0.46875 -0.46875,1.10937 v 1.09375 q 0,0.48438 0,1.14063 0,0.64062 0.0156,1.1875 l 1.20313,0.21875 v 0.53125 z"
       id="path155"
       inkscape:connector-curvature="0"
       style="fill:#000000;fill-rule:nonzero" />
    <path
       d="m 829.91455,144.94777 h 75.74805 v 50.79509 h -75.74805 z"
       id="path157"
       inkscape:connector-curvature="0"
       style="fill:#d9d9d9;fill-rule:evenodd" />
    <path
       d="M 905.6602,144.94777 H 857.60734"
       id="path159"
       inkscape:connector-curvature="0"
       style="fill:#000000;fill-opacity:0;fill-rule:evenodd" />
    <path
       d="M 905.6602,144.94777 H 857.60734"
       id="path161"
       inkscape:connector-curvature="0"
       style="fill-rule:evenodd;stroke:#595959;stroke-width:1;stroke-linecap:butt;stroke-linejoin:round;stroke-dasharray:4, 3" />
    <path
       d="M 905.6602,195.74286 H 857.60734"
       id="path163"
       inkscape:connector-curvature="0"
       style="fill:#000000;fill-opacity:0;fill-rule:evenodd" />
    <path
       d="M 905.6602,195.74286 H 857.60734"
       id="path165"
       inkscape:connector-curvature="0"
       style="fill-rule:evenodd;stroke:#595959;stroke-width:1;stroke-linecap:butt;stroke-linejoin:round;stroke-dasharray:4, 3" />
    <path
       d="m 858.30945,195.74286 h -28.3949"
       id="path167"
       inkscape:connector-curvature="0"
       style="fill:#000000;fill-opacity:0;fill-rule:evenodd" />
    <path
       d="m 858.30945,195.74286 h -28.3949"
       id="path169"
       inkscape:connector-curvature="0"
       style="fill-rule:evenodd;stroke:#595959;stroke-width:1;stroke-linecap:butt;stroke-linejoin:round" />
    <path
       d="m 858.30945,144.94777 h -28.3949"
       id="path171"
       inkscape:connector-curvature="0"
       style="fill:#000000;fill-opacity:0;fill-rule:evenodd" />
    <path
       d="m 858.30945,144.94777 h -28.3949"
       id="path173"
       inkscape:connector-curvature="0"
       style="fill-rule:evenodd;stroke:#595959;stroke-width:1;stroke-linecap:butt;stroke-linejoin:round" />
    <path
       d="M 829.91455,195.74057 V 145.1642"
       id="path175"
       inkscape:connector-curvature="0"
       style="fill:#000000;fill-opacity:0;fill-rule:evenodd" />
    <path
       d="M 829.91455,195.74057 V 145.1642"
       id="path177"
       inkscape:connector-curvature="0"
       style="fill-rule:evenodd;stroke:#595959;stroke-width:1;stroke-linecap:butt;stroke-linejoin:round" />
    <path
       d="m 829.916,153.32404 h 81.00787 v 34.04724 H 829.916 Z"
       id="path179"
       inkscape:connector-curvature="0"
       style="fill:#000000;fill-opacity:0;fill-rule:evenodd" />
    <path
       d="m 843.61914,166.50266 h -1.26562 q -0.0156,0.96875 -0.0156,1.92187 0,0.95313 0,2 h 1.125 q 1.1875,0 1.75,-0.5625 0.5625,-0.57812 0.5625,-1.45312 0,-0.9375 -0.51562,-1.42188 -0.51563,-0.48437 -1.64063,-0.48437 z m -4.0625,-0.0781 v -0.60937 h 4.10938 q 1.6875,0 2.625,0.6875 0.9375,0.67187 0.9375,1.89062 0,0.84375 -0.625,1.54688 -0.60938,0.70312 -1.84375,0.92187 0.65625,0.14063 1.0625,0.57813 0.42187,0.42187 0.67187,1.28125 l 0.625,2.17187 1.14063,0.14063 v 0.59375 q -0.23438,0.0625 -0.5,0.0937 -0.26563,0.0469 -0.60938,0.0469 -0.6875,0 -1.03125,-0.20312 -0.34375,-0.20313 -0.46875,-0.73438 l -0.59375,-2.34375 q -0.125,-0.59375 -0.375,-0.89062 -0.25,-0.3125 -0.64062,-0.40625 -0.39063,-0.10938 -0.98438,-0.10938 h -0.71875 q 0,1.0625 0,1.98438 0,0.92187 0.0156,1.79687 l 1.35937,0.17188 v 0.59375 h -4.15625 v -0.59375 l 1.35938,-0.17188 q 0.0156,-0.92187 0.0156,-1.875 0,-0.95312 0,-1.90625 v -0.71875 q 0,-0.95312 0,-1.89062 0,-0.95313 -0.0156,-1.89063 z m 12.69147,2.71875 q -0.40625,0 -0.82813,0.23438 -0.40625,0.23437 -0.71875,0.75 -0.29687,0.51562 -0.375,1.35937 h 2.65625 q 0.53125,0 0.70313,-0.21875 0.17187,-0.21875 0.17187,-0.53125 0,-0.42187 -0.21875,-0.78125 -0.21875,-0.35937 -0.57812,-0.57812 -0.35938,-0.23438 -0.8125,-0.23438 z m -0.0156,6.67188 q -1.46875,0 -2.375,-0.95313 -0.89062,-0.96875 -0.89062,-2.65625 0,-1.125 0.45312,-1.95312 0.46875,-0.84375 1.23438,-1.3125 0.78125,-0.46875 1.6875,-0.46875 0.76562,0 1.375,0.34375 0.625,0.32812 0.98437,0.95312 0.35938,0.625 0.35938,1.51563 0,0.25 -0.0312,0.46875 -0.0156,0.20312 -0.0625,0.35937 h -4.67188 q 0.0312,1.34375 0.67188,2.04688 0.64062,0.70312 1.70312,0.70312 0.70313,0 1.17188,-0.28125 0.46875,-0.28125 0.85937,-0.73437 l 0.34375,0.26562 q -0.40625,0.78125 -1.10937,1.25 -0.70313,0.45313 -1.70313,0.45313 z m 7.45911,0 q -1.5,0 -2.40625,-0.96875 -0.89063,-0.98438 -0.89063,-2.67188 0,-1.15625 0.46875,-1.98437 0.48438,-0.82813 1.26563,-1.26563 0.78125,-0.45312 1.65625,-0.45312 0.65625,0 1.21875,0.25 0.5625,0.25 0.92187,0.6875 0.35938,0.42187 0.45313,0.96875 -0.0937,0.5625 -0.67188,0.5625 -0.35937,0 -0.54687,-0.1875 -0.1875,-0.20313 -0.26563,-0.51563 l -0.26562,-0.96875 q -0.20313,-0.0781 -0.40625,-0.0937 -0.1875,-0.0312 -0.375,-0.0312 -0.9375,0 -1.54688,0.73438 -0.60937,0.73437 -0.60937,2.14062 0,1.375 0.65625,2.10938 0.65625,0.73437 1.6875,0.73437 0.625,0 1.15625,-0.28125 0.53125,-0.28125 0.85937,-0.82812 l 0.375,0.1875 q -0.3125,0.90625 -1,1.39062 -0.6875,0.48438 -1.73437,0.48438 z m 7.18353,-6.67188 q -0.40625,0 -0.82812,0.23438 -0.40625,0.23437 -0.71875,0.75 -0.29688,0.51562 -0.375,1.35937 h 2.65625 q 0.53125,0 0.70312,-0.21875 0.17188,-0.21875 0.17188,-0.53125 0,-0.42187 -0.21875,-0.78125 -0.21875,-0.35937 -0.57813,-0.57812 -0.35937,-0.23438 -0.8125,-0.23438 z m -0.0156,6.67188 q -1.46875,0 -2.375,-0.95313 -0.89063,-0.96875 -0.89063,-2.65625 0,-1.125 0.45313,-1.95312 0.46875,-0.84375 1.23437,-1.3125 0.78125,-0.46875 1.6875,-0.46875 0.76563,0 1.375,0.34375 0.625,0.32812 0.98438,0.95312 0.35937,0.625 0.35937,1.51563 0,0.25 -0.0312,0.46875 -0.0156,0.20312 -0.0625,0.35937 H 864.922 q 0.0312,1.34375 0.67187,2.04688 0.64063,0.70312 1.70313,0.70312 0.70312,0 1.17187,-0.28125 0.46875,-0.28125 0.85938,-0.73437 l 0.34375,0.26562 q -0.40625,0.78125 -1.10938,1.25 -0.70312,0.45313 -1.70312,0.45313 z m 4.06842,-0.1875 v -0.53125 l 1.09375,-0.20313 q 0.0156,-0.5625 0.0156,-1.20312 0.0156,-0.65625 0.0156,-1.14063 v -0.6875 q 0,-0.60937 -0.0156,-1 0,-0.40625 -0.0312,-0.84375 l -1.17187,-0.14062 v -0.51563 l 2.26562,-0.89062 0.21875,0.15625 -0.0469,1.98437 v 1.9375 q 0,0.48438 0,1.14063 0.0156,0.64062 0.0312,1.20312 l 1.01562,0.20313 v 0.53125 z m 1.73437,-8.76563 q -0.42187,0 -0.70312,-0.26562 -0.28125,-0.26563 -0.28125,-0.67188 0,-0.42187 0.28125,-0.67187 0.28125,-0.26563 0.70312,-0.26563 0.40625,0 0.6875,0.26563 0.28125,0.25 0.28125,0.67187 0,0.40625 -0.28125,0.67188 -0.28125,0.26562 -0.6875,0.26562 z m 6.38196,2.375 v -0.57812 h 2.78125 v 0.57812 l -0.79688,0.1875 -2.375,6.29688 H 878.013 l -2.65625,-6.34375 -0.79688,-0.14063 v -0.57812 h 3.54688 v 0.57812 l -1.29688,0.1875 1.79688,4.6875 1.625,-4.67187 z m 6.56122,-0.0937 q -0.40625,0 -0.82813,0.23438 -0.40625,0.23437 -0.71875,0.75 -0.29687,0.51562 -0.375,1.35937 h 2.65625 q 0.53125,0 0.70313,-0.21875 0.17187,-0.21875 0.17187,-0.53125 0,-0.42187 -0.21875,-0.78125 -0.21875,-0.35937 -0.57812,-0.57812 -0.35938,-0.23438 -0.8125,-0.23438 z m -0.0156,6.67188 q -1.46875,0 -2.375,-0.95313 -0.89062,-0.96875 -0.89062,-2.65625 0,-1.125 0.45312,-1.95312 0.46875,-0.84375 1.23438,-1.3125 0.78125,-0.46875 1.6875,-0.46875 0.76562,0 1.375,0.34375 0.625,0.32812 0.98437,0.95312 0.35938,0.625 0.35938,1.51563 0,0.25 -0.0312,0.46875 -0.0156,0.20312 -0.0625,0.35937 h -4.67188 q 0.0312,1.34375 0.67188,2.04688 0.64062,0.70312 1.70312,0.70312 0.70313,0 1.17188,-0.28125 0.46875,-0.28125 0.85937,-0.73437 l 0.34375,0.26562 q -0.40625,0.78125 -1.10937,1.25 -0.70313,0.45313 -1.70313,0.45313 z m 4.16223,-0.1875 v -0.53125 l 1.0625,-0.1875 q 0.0156,-0.5625 0.0156,-1.20313 0.0156,-0.65625 0.0156,-1.15625 v -0.70312 q 0,-0.59375 -0.0156,-0.98438 0,-0.40625 -0.0312,-0.84375 l -1.15625,-0.14062 v -0.51563 l 2.04687,-0.89062 0.21875,0.15625 0.17188,1.71875 q 0.35937,-0.875 0.9375,-1.375 0.57812,-0.5 1.17187,-0.5 0.32813,0 0.625,0.15625 0.29688,0.14062 0.42188,0.39062 0,1.0625 -0.85938,1.0625 -0.25,0 -0.46875,-0.0937 -0.21875,-0.0937 -0.42187,-0.26562 l -0.1875,-0.15625 q -0.4375,0.3125 -0.73438,0.78125 -0.28125,0.46875 -0.46875,1.10937 v 1.09375 q 0,0.48438 0,1.14063 0,0.64062 0.0156,1.1875 l 1.20312,0.21875 v 0.53125 z"
       id="path181"
       inkscape:connector-curvature="0"
       style="fill:#000000;fill-rule:nonzero" />
  </g>
</svg>
