<?xml version="1.0" encoding="UTF-8" standalone="no"?>
<svg
   xmlns:dc="http://purl.org/dc/elements/1.1/"
   xmlns:cc="http://creativecommons.org/ns#"
   xmlns:rdf="http://www.w3.org/1999/02/22-rdf-syntax-ns#"
   xmlns:svg="http://www.w3.org/2000/svg"
   xmlns="http://www.w3.org/2000/svg"
   xmlns:sodipodi="http://sodipodi.sourceforge.net/DTD/sodipodi-0.dtd"
   xmlns:inkscape="http://www.inkscape.org/namespaces/inkscape"
   version="1.1"
   viewBox="0 0 284.56696 77.35434"
   stroke-miterlimit="10"
   id="svg1483"
   sodipodi:docname="figure-hazard.svg"
   width="284.56696"
   height="77.35434"
   style="fill:none;stroke:none;stroke-linecap:square;stroke-miterlimit:10"
   inkscape:version="0.92.5 (2060ec1f9f, 2020-04-08)">
  <metadata
     id="metadata1489">
    <rdf:RDF>
      <cc:Work
         rdf:about="">
        <dc:format>image/svg+xml</dc:format>
        <dc:type
           rdf:resource="http://purl.org/dc/dcmitype/StillImage" />
        <dc:title></dc:title>
      </cc:Work>
    </rdf:RDF>
  </metadata>
  <defs
     id="defs1487" />
  <sodipodi:namedview
     pagecolor="#ffffff"
     bordercolor="#666666"
     borderopacity="1"
     objecttolerance="10"
     gridtolerance="10"
     guidetolerance="10"
     inkscape:pageopacity="0"
     inkscape:pageshadow="2"
     inkscape:window-width="3768"
     inkscape:window-height="2096"
     id="namedview1485"
     showgrid="false"
     inkscape:zoom="2.925"
     inkscape:cx="64.168323"
     inkscape:cy="89.370813"
     inkscape:window-x="72"
     inkscape:window-y="27"
     inkscape:window-maximized="1"
     inkscape:current-layer="g1481" />
  <clipPath
     id="g24c207e3aff_1_39.0">
    <path
       d="M 0,0 H 960 V 540 H 0 Z"
       id="path1072"
       inkscape:connector-curvature="0"
       style="clip-rule:nonzero" />
  </clipPath>
  <g
     clip-path="url(#g24c207e3aff_1_39.0)"
     id="g1481"
     transform="translate(-445.00787,-295.69553)">
    <path
       d="m 445.00787,295.69553 h 284.56696 v 77.35434 H 445.00787 Z"
       id="path1395"
       inkscape:connector-curvature="0"
       style="fill:#000000;fill-opacity:0;fill-rule:evenodd" />
    <path
       d="M 640.5364,358.36484 H 534.04824"
       id="path1399"
       inkscape:connector-curvature="0"
       style="fill:#000000;fill-opacity:0;fill-rule:evenodd" />
    <path
       d="M 640.5364,358.36484 H 546.04824"
       id="path1401"
       inkscape:connector-curvature="0"
       style="fill-rule:evenodd;stroke:#1c4587;stroke-width:2;stroke-linecap:butt;stroke-linejoin:round" />
    <path
       d="m 546.04816,355.06137 -9.07617,3.30347 9.07617,3.30346 z"
       id="path1403"
       inkscape:connector-curvature="0"
       style="fill:#1c4587;fill-rule:evenodd;stroke:#1c4587;stroke-width:2;stroke-linecap:butt" />
    <path
       d="m 527.8898,340.66147 h 118.86615 v 14.55118 H 527.8898 Z"
       id="path1405"
       inkscape:connector-curvature="0"
       style="fill:#000000;fill-opacity:0;fill-rule:evenodd" />
    <path
       d="m 561.01465,352.18146 v -0.4375 l 0.875,-0.15625 q 0,-0.45312 0,-0.98437 0.0156,-0.53125 0.0156,-0.9375 v -0.57813 q 0,-0.5 -0.0156,-0.8125 0,-0.32812 -0.0156,-0.6875 l -0.95312,-0.10937 v -0.42188 l 1.6875,-0.73437 0.17187,0.125 0.14063,1.42187 q 0.29687,-0.73437 0.76562,-1.14062 0.46875,-0.40625 0.95313,-0.40625 0.28125,0 0.51562,0.125 0.25,0.125 0.34375,0.32812 0,0.875 -0.70312,0.875 -0.20313,0 -0.39063,-0.0781 -0.17187,-0.0781 -0.34375,-0.23438 l -0.14062,-0.125 q -0.35938,0.26563 -0.60938,0.65625 -0.23437,0.375 -0.39062,0.89063 v 0.90625 q 0,0.39062 0,0.92187 0.0156,0.53125 0.0312,0.98438 l 0.98437,0.17187 v 0.4375 z m 7.69043,-5.29687 q -0.34375,0 -0.6875,0.1875 -0.34375,0.1875 -0.59375,0.60937 -0.23438,0.42188 -0.3125,1.10938 h 2.1875 q 0.4375,0 0.5625,-0.17188 0.14062,-0.1875 0.14062,-0.45312 0,-0.34375 -0.17187,-0.625 -0.17188,-0.29688 -0.46875,-0.46875 -0.29688,-0.1875 -0.65625,-0.1875 z m -0.0156,5.45312 q -1.21875,0 -1.95312,-0.78125 -0.71875,-0.79687 -0.71875,-2.17187 0,-0.92188 0.375,-1.60938 0.375,-0.6875 1,-1.0625 0.64062,-0.39062 1.375,-0.39062 0.625,0 1.125,0.28125 0.51562,0.28125 0.8125,0.79687 0.29687,0.5 0.29687,1.23438 0,0.20312 -0.0312,0.375 -0.0156,0.17187 -0.0469,0.29687 h -3.82813 q 0.0156,1.09375 0.54688,1.67188 0.53125,0.57812 1.39062,0.57812 0.57813,0 0.95313,-0.23437 0.39062,-0.23438 0.71875,-0.60938 l 0.28125,0.23438 q -0.32813,0.64062 -0.90625,1.01562 -0.57813,0.375 -1.39063,0.375 z m 7.76563,-0.0312 q -0.42188,0 -0.71875,-0.25 -0.28125,-0.26562 -0.35938,-0.67187 -0.48437,0.46875 -0.85937,0.71875 -0.375,0.23437 -0.90625,0.23437 -0.65625,0 -1.125,-0.375 -0.46875,-0.375 -0.46875,-1.125 0,-0.34375 0.15625,-0.64062 0.15625,-0.3125 0.59375,-0.59375 0.4375,-0.29688 1.23437,-0.57813 0.28125,-0.0937 0.64063,-0.20312 0.35937,-0.10938 0.71875,-0.1875 v -0.3125 q 0,-0.875 -0.26563,-1.15625 -0.26562,-0.28125 -0.85937,-0.28125 -0.14063,0 -0.3125,0.0156 -0.15625,0 -0.34375,0.0469 l -0.21875,0.78125 q -0.17188,0.57812 -0.625,0.57812 -0.51563,0 -0.5625,-0.5 0.15625,-0.67187 0.78125,-1.07812 0.64062,-0.40625 1.54687,-0.40625 0.95313,0 1.40625,0.48437 0.45313,0.46875 0.45313,1.60938 v 2.54687 q 0,0.39063 0.125,0.5625 0.125,0.15625 0.3125,0.15625 0.15625,0 0.26562,-0.0625 0.10938,-0.0781 0.20313,-0.20312 l 0.23437,0.26562 q -0.21875,0.34375 -0.48437,0.48438 -0.25,0.14062 -0.5625,0.14062 z m -3.375,-1.65625 q 0,0.48438 0.26562,0.6875 0.28125,0.20313 0.6875,0.20313 0.1875,0 0.34375,-0.0469 0.17188,-0.0469 0.39063,-0.1875 0.23437,-0.14062 0.59375,-0.39062 v -1.84375 q -0.3125,0.0781 -0.625,0.1875 -0.29688,0.10937 -0.48438,0.17187 -0.51562,0.20313 -0.76562,0.42188 -0.25,0.21875 -0.32813,0.42187 -0.0781,0.20313 -0.0781,0.375 z m 6.12372,-1.28125 q 0,1.17188 0.46875,1.73438 0.46875,0.54687 1.1875,0.54687 0.40625,0 0.70312,-0.15625 0.3125,-0.17187 0.64063,-0.53125 v -3.32812 q -0.40625,-0.35938 -0.73438,-0.48438 -0.3125,-0.14062 -0.60937,-0.14062 -0.45313,0 -0.82813,0.25 -0.375,0.23437 -0.60937,0.76562 -0.21875,0.51563 -0.21875,1.34375 z m 3.125,2.9375 -0.0781,-0.82812 q -0.3125,0.40625 -0.71875,0.64062 -0.40625,0.21875 -0.96875,0.21875 -0.73437,0 -1.28125,-0.375 -0.54687,-0.375 -0.85937,-1.03125 -0.29688,-0.67187 -0.29688,-1.54687 0,-0.92188 0.32813,-1.60938 0.34375,-0.6875 0.90625,-1.0625 0.57812,-0.39062 1.3125,-0.39062 0.42187,0 0.8125,0.17187 0.39062,0.17188 0.76562,0.60938 v -2.70313 l -1.03125,-0.125 v -0.42187 l 1.875,-0.54688 0.17188,0.10938 -0.0469,1.70312 v 6.48438 l 0.96875,0.14062 v 0.4375 z m 5.73089,-5.39062 v -0.4375 h 2.34375 v 0.4375 l -0.64062,0.125 -1.9375,5.10937 q -0.59375,1.59375 -1.15625,2.29688 -0.5625,0.71875 -1.29688,0.71875 -0.45312,0 -0.78125,-0.21875 -0.32812,-0.21875 -0.32812,-0.5625 0.0625,-0.26563 0.29687,-0.40625 0.23438,-0.125 0.5,-0.125 0.25,0 0.45313,0.0937 0.20312,0.10937 0.4375,0.35937 l 0.0625,0.0625 q 0.39062,-0.32812 0.64062,-0.79687 0.26563,-0.45313 0.4375,-0.9375 l 0.0469,-0.14063 -2.17188,-5.48437 -0.65625,-0.0937 v -0.4375 h 2.875 v 0.45312 l -1.04687,0.10938 1.5,4.09375 1.46875,-4.07813 z m 7.06507,1.92187 q 0,0.96875 0.15625,1.8125 0.17187,0.82813 0.57812,1.6875 0.40625,0.85938 1.10938,1.875 l -0.3125,0.26563 q -1.26563,-1.1875 -1.89063,-2.57813 -0.60937,-1.40625 -0.60937,-3.0625 0,-1.64062 0.60937,-3.03125 0.625,-1.40625 1.89063,-2.59375 l 0.3125,0.26563 q -0.70313,1.01562 -1.10938,1.875 -0.40625,0.85937 -0.57812,1.70312 -0.15625,0.82813 -0.15625,1.78125 z m 3.1618,-3.875 2.46875,-0.625 0.17188,0.10938 -0.0469,1.71875 v 3.48437 q 0,0.4375 0,0.90625 0.0156,0.45313 0.0312,0.90625 l 1.70313,0.28125 v 0.4375 h -4.45313 v -0.4375 l 1.6875,-0.28125 q 0.0156,-0.45312 0.0156,-0.90625 0.0156,-0.46875 0.0156,-0.90625 v -4.32812 l -1.59375,0.14062 z m 5.34375,7.21875 v -0.4375 l 0.90625,-0.15625 q 0,-0.45312 0,-0.98437 0.0156,-0.53125 0.0156,-0.9375 v -5.26563 l -0.98438,-0.125 v -0.42187 l 1.84375,-0.54688 0.15625,0.10938 -0.0469,1.70312 v 2.125 q 0.4375,-0.46875 0.89062,-0.6875 0.46875,-0.23437 0.96875,-0.23437 0.625,0 1.14063,0.35937 0.51562,0.34375 0.82812,1 0.3125,0.65625 0.3125,1.59375 0,0.92188 -0.32812,1.625 -0.32813,0.6875 -0.89063,1.0625 -0.54687,0.375 -1.26562,0.375 -0.42188,0 -0.84375,-0.17187 -0.40625,-0.1875 -0.8125,-0.6875 l -0.0937,0.82812 z m 3.42188,-5.17187 q -0.28125,0 -0.64063,0.14062 -0.35937,0.14063 -0.84375,0.5625 v 3.28125 q 0.35938,0.34375 0.71875,0.5 0.375,0.15625 0.70313,0.15625 0.64062,0 1.10937,-0.54687 0.46875,-0.5625 0.46875,-1.73438 0,-1.14062 -0.42187,-1.75 -0.42188,-0.60937 -1.09375,-0.60937 z m 5.15142,1.82812 q 0,-0.95312 -0.17187,-1.78125 -0.15625,-0.84375 -0.5625,-1.70312 -0.39063,-0.85938 -1.10938,-1.875 l 0.3125,-0.26563 q 1.28125,1.1875 1.89063,2.59375 0.60937,1.39063 0.60937,3.03125 0,1.65625 -0.60937,3.0625 -0.60938,1.39063 -1.89063,2.57813 l -0.3125,-0.26563 q 0.71875,-1.01562 1.10938,-1.875 0.40625,-0.85937 0.5625,-1.6875 0.17187,-0.84375 0.17187,-1.8125 z"
       id="path1407"
       inkscape:connector-curvature="0"
       style="fill:#000000;fill-rule:nonzero" />
    <path
       d="m 527.8898,301.97357 h 118.86615 v 14.55118 H 527.8898 Z"
       id="path1409"
       inkscape:connector-curvature="0"
       style="fill:#000000;fill-opacity:0;fill-rule:evenodd" />
    <path
       d="m 566.16656,308.2592 v -0.46875 h 2.28125 v 0.46875 l -0.65625,0.15625 -1.95313,5.15625 h -0.51562 l -2.1875,-5.1875 -0.64063,-0.125 v -0.46875 h 2.90625 v 0.46875 l -1.0625,0.15625 1.46875,3.84375 1.32813,-3.82812 z m 7.18054,5.35938 q -0.42187,0 -0.71875,-0.25 -0.28125,-0.26563 -0.35937,-0.67188 -0.48438,0.46875 -0.85938,0.71875 -0.375,0.23438 -0.90625,0.23438 -0.65625,0 -1.125,-0.375 -0.46875,-0.375 -0.46875,-1.125 0,-0.34375 0.15625,-0.64063 0.15625,-0.3125 0.59375,-0.59375 0.4375,-0.29687 1.23438,-0.57812 0.28125,-0.0937 0.64062,-0.20313 0.35938,-0.10937 0.71875,-0.1875 v -0.3125 q 0,-0.875 -0.26562,-1.15625 -0.26563,-0.28125 -0.85938,-0.28125 -0.14062,0 -0.3125,0.0156 -0.15625,0 -0.34375,0.0469 l -0.21875,0.78125 q -0.17187,0.57813 -0.625,0.57813 -0.51562,0 -0.5625,-0.5 0.15625,-0.67188 0.78125,-1.07813 0.64063,-0.40625 1.54688,-0.40625 0.95312,0 1.40625,0.48438 0.45312,0.46875 0.45312,1.60937 v 2.54688 q 0,0.39062 0.125,0.5625 0.125,0.15625 0.3125,0.15625 0.15625,0 0.26563,-0.0625 0.10937,-0.0781 0.20312,-0.20313 l 0.23438,0.26563 q -0.21875,0.34375 -0.48438,0.48437 -0.25,0.14063 -0.5625,0.14063 z m -3.375,-1.65625 q 0,0.48437 0.26563,0.6875 0.28125,0.20312 0.6875,0.20312 0.1875,0 0.34375,-0.0469 0.17187,-0.0469 0.39062,-0.1875 0.23438,-0.14063 0.59375,-0.39063 v -1.84375 q -0.3125,0.0781 -0.625,0.1875 -0.29687,0.10938 -0.48437,0.17188 -0.51563,0.20312 -0.76563,0.42187 -0.25,0.21875 -0.32812,0.42188 -0.0781,0.20312 -0.0781,0.375 z m 4.79553,1.53125 v -0.4375 l 0.96875,-0.15625 q 0,-0.5 0,-0.96875 0.0156,-0.48438 0.0156,-0.95313 v -5.26562 l -0.98438,-0.125 v -0.42188 l 1.875,-0.54687 0.17188,0.10937 -0.0469,1.70313 v 4.54687 q 0,0.46875 0,0.95313 0,0.48437 0.0156,0.96875 l 0.96875,0.15625 v 0.4375 z m 3.70099,0 v -0.4375 l 0.89063,-0.15625 q 0.0156,-0.46875 0.0156,-1 0.0156,-0.53125 0.0156,-0.92188 v -0.5625 q 0,-0.5 -0.0156,-0.82812 0,-0.32813 -0.0156,-0.6875 l -0.96875,-0.10938 v -0.42187 l 1.85937,-0.73438 0.17188,0.125 -0.0312,1.625 v 1.59375 q 0,0.39063 0,0.92188 0.0156,0.53125 0.0156,1 l 0.84375,0.15625 v 0.4375 z m 1.42188,-7.17188 q -0.34375,0 -0.57813,-0.21875 -0.23437,-0.21875 -0.23437,-0.54687 0,-0.35938 0.23437,-0.5625 0.23438,-0.21875 0.57813,-0.21875 0.32812,0 0.5625,0.21875 0.23437,0.20312 0.23437,0.5625 0,0.32812 -0.23437,0.54687 -0.23438,0.21875 -0.5625,0.21875 z m 3.3573,4.35938 q 0,1.17187 0.46875,1.73437 0.46875,0.54688 1.1875,0.54688 0.40625,0 0.70312,-0.15625 0.3125,-0.17188 0.64063,-0.53125 v -3.32813 q -0.40625,-0.35937 -0.73438,-0.48437 -0.3125,-0.14063 -0.60937,-0.14063 -0.45313,0 -0.82813,0.25 -0.375,0.23438 -0.60937,0.76563 -0.21875,0.51562 -0.21875,1.34375 z m 3.125,2.9375 -0.0781,-0.82813 q -0.3125,0.40625 -0.71875,0.64063 -0.40625,0.21875 -0.96875,0.21875 -0.73437,0 -1.28125,-0.375 -0.54687,-0.375 -0.85937,-1.03125 -0.29688,-0.67188 -0.29688,-1.54688 0,-0.92187 0.32813,-1.60937 0.34375,-0.6875 0.90625,-1.0625 0.57812,-0.39063 1.3125,-0.39063 0.42187,0 0.8125,0.17188 0.39062,0.17187 0.76562,0.60937 v -2.70312 l -1.03125,-0.125 v -0.42188 l 1.875,-0.54687 0.17188,0.10937 -0.0469,1.70313 v 6.48437 l 0.96875,0.14063 v 0.4375 z m 6.77191,-3.46875 q 0,0.96875 0.15625,1.8125 0.17187,0.82812 0.57812,1.6875 0.40625,0.85937 1.10938,1.875 l -0.3125,0.26562 q -1.26563,-1.1875 -1.89063,-2.57812 -0.60937,-1.40625 -0.60937,-3.0625 0,-1.64063 0.60937,-3.03125 0.625,-1.40625 1.89063,-2.59375 l 0.3125,0.26562 q -0.70313,1.01563 -1.10938,1.875 -0.40625,0.85938 -0.57812,1.70313 -0.15625,0.82812 -0.15625,1.78125 z m 3.1618,-3.875 2.46875,-0.625 0.17188,0.10937 -0.0469,1.71875 v 3.48438 q 0,0.4375 0,0.90625 0.0156,0.45312 0.0312,0.90625 l 1.70313,0.28125 v 0.4375 h -4.45313 v -0.4375 l 1.6875,-0.28125 q 0.0156,-0.45313 0.0156,-0.90625 0.0156,-0.46875 0.0156,-0.90625 v -4.32813 l -1.59375,0.14063 z m 5.34381,7.21875 v -0.4375 l 0.90625,-0.15625 q 0,-0.45313 0,-0.98438 0.0156,-0.53125 0.0156,-0.9375 v -5.26562 l -0.98438,-0.125 v -0.42188 l 1.84375,-0.54687 0.15625,0.10937 -0.0469,1.70313 v 2.125 q 0.4375,-0.46875 0.89062,-0.6875 0.46875,-0.23438 0.96875,-0.23438 0.625,0 1.14063,0.35938 0.51562,0.34375 0.82812,1 0.3125,0.65625 0.3125,1.59375 0,0.92187 -0.32812,1.625 -0.32813,0.6875 -0.89063,1.0625 -0.54687,0.375 -1.26562,0.375 -0.42188,0 -0.84375,-0.17188 -0.40625,-0.1875 -0.8125,-0.6875 l -0.0937,0.82813 z m 3.42188,-5.17188 q -0.28125,0 -0.64063,0.14063 -0.35937,0.14062 -0.84375,0.5625 v 3.28125 q 0.35938,0.34375 0.71875,0.5 0.375,0.15625 0.70313,0.15625 0.64062,0 1.10937,-0.54688 0.46875,-0.5625 0.46875,-1.73437 0,-1.14063 -0.42187,-1.75 -0.42188,-0.60938 -1.09375,-0.60938 z m 5.15137,1.82813 q 0,-0.95313 -0.17188,-1.78125 -0.15625,-0.84375 -0.5625,-1.70313 -0.39062,-0.85937 -1.10937,-1.875 l 0.3125,-0.26562 q 1.28125,1.1875 1.89062,2.59375 0.60938,1.39062 0.60938,3.03125 0,1.65625 -0.60938,3.0625 -0.60937,1.39062 -1.89062,2.57812 l -0.3125,-0.26562 q 0.71875,-1.01563 1.10937,-1.875 0.40625,-0.85938 0.5625,-1.6875 0.17188,-0.84375 0.17188,-1.8125 z"
       id="path1411"
       inkscape:connector-curvature="0"
       style="fill:#000000;fill-rule:nonzero" />
    <path
       d="M 534.0725,319.67694 H 640.56066"
       id="path1413"
       inkscape:connector-curvature="0"
       style="fill:#000000;fill-opacity:0;fill-rule:evenodd" />
    <path
       d="m 534.0725,319.67694 h 94.48816"
       id="path1415"
       inkscape:connector-curvature="0"
       style="fill-rule:evenodd;stroke:#595959;stroke-width:2;stroke-linecap:butt;stroke-linejoin:round" />
    <path
       d="m 628.56067,322.9804 9.07623,-3.30347 -9.07623,-3.30346 z"
       id="path1417"
       inkscape:connector-curvature="0"
       style="fill:#595959;fill-rule:evenodd;stroke:#595959;stroke-width:2;stroke-linecap:butt" />
    <path
       d="M 534.0725,339.02087 H 640.56066"
       id="path1419"
       inkscape:connector-curvature="0"
       style="fill:#000000;fill-opacity:0;fill-rule:evenodd" />
    <path
       d="m 534.0725,339.0209 h 94.48816"
       id="path1421"
       inkscape:connector-curvature="0"
       style="fill-rule:evenodd;stroke:#595959;stroke-width:2;stroke-linecap:butt;stroke-linejoin:round" />
    <path
       d="m 628.56067,342.32437 9.07623,-3.30347 -9.07623,-3.30346 z"
       id="path1423"
       inkscape:connector-curvature="0"
       style="fill:#595959;fill-rule:evenodd;stroke:#595959;stroke-width:2;stroke-linecap:butt" />
    <path
       d="m 527.8898,321.3175 h 118.86615 v 14.55118 H 527.8898 Z"
       id="path1425"
       inkscape:connector-curvature="0"
       style="fill:#000000;fill-opacity:0;fill-rule:evenodd" />
    <path
       d="m 566.7626,335.71252 v -0.42188 l 0.95313,-0.17187 q 0.0156,-0.5 0.0156,-0.98438 0.0156,-0.48437 0.0156,-0.95312 v -3.4375 q 0,-0.5 -0.0156,-0.8125 0,-0.32813 -0.0156,-0.6875 l -0.95313,-0.10938 v -0.42187 l 1.67188,-0.73438 0.1875,0.125 0.0781,0.78125 q 0.84375,-0.90625 1.79688,-0.90625 0.65625,0 1.17187,0.35938 0.51563,0.35937 0.8125,1.03125 0.3125,0.67187 0.3125,1.59375 0,0.9375 -0.32812,1.60937 -0.3125,0.67188 -0.875,1.04688 -0.5625,0.375 -1.26563,0.375 -0.40625,0 -0.8125,-0.17188 -0.40625,-0.17187 -0.78125,-0.60937 v 0.95312 q 0,0.46875 0,0.95313 0.0156,0.5 0.0156,0.98437 l 1.09375,0.1875 v 0.42188 z m 3.45313,-8.04688 q -0.28125,0 -0.64063,0.14063 -0.35937,0.14062 -0.8125,0.51562 v 3.375 q 0.34375,0.32813 0.65625,0.46875 0.32813,0.14063 0.67188,0.14063 0.67187,0 1.14062,-0.53125 0.48438,-0.54688 0.48438,-1.70313 0,-1.15625 -0.42188,-1.78125 -0.42187,-0.625 -1.07812,-0.625 z m 8.1054,5.29688 q -0.42187,0 -0.71875,-0.25 -0.28125,-0.26563 -0.35937,-0.67188 -0.48438,0.46875 -0.85938,0.71875 -0.375,0.23438 -0.90625,0.23438 -0.65625,0 -1.125,-0.375 -0.46875,-0.375 -0.46875,-1.125 0,-0.34375 0.15625,-0.64063 0.15625,-0.3125 0.59375,-0.59375 0.4375,-0.29687 1.23438,-0.57812 0.28125,-0.0937 0.64062,-0.20313 0.35938,-0.10937 0.71875,-0.1875 v -0.3125 q 0,-0.875 -0.26562,-1.15625 -0.26563,-0.28125 -0.85938,-0.28125 -0.14062,0 -0.3125,0.0156 -0.15625,0 -0.34375,0.0469 l -0.21875,0.78125 q -0.17187,0.57813 -0.625,0.57813 -0.51562,0 -0.5625,-0.5 0.15625,-0.67188 0.78125,-1.07813 0.64063,-0.40625 1.54688,-0.40625 0.95312,0 1.40625,0.48438 0.45312,0.46875 0.45312,1.60937 v 2.54688 q 0,0.39062 0.125,0.5625 0.125,0.15625 0.3125,0.15625 0.15625,0 0.26563,-0.0625 0.10937,-0.0781 0.20312,-0.20313 l 0.23438,0.26563 q -0.21875,0.34375 -0.48438,0.48437 -0.25,0.14063 -0.5625,0.14063 z m -3.375,-1.65625 q 0,0.48437 0.26563,0.6875 0.28125,0.20312 0.6875,0.20312 0.1875,0 0.34375,-0.0469 0.17187,-0.0469 0.39062,-0.1875 0.23438,-0.14063 0.59375,-0.39063 v -1.84375 q -0.3125,0.0781 -0.625,0.1875 -0.29687,0.10938 -0.48437,0.17188 -0.51563,0.20312 -0.76563,0.42187 -0.25,0.21875 -0.32812,0.42188 -0.0781,0.20312 -0.0781,0.375 z m 8.17554,-3.73438 v -0.4375 h 2.34375 v 0.4375 l -0.64063,0.125 -1.9375,5.10938 q -0.59375,1.59375 -1.15625,2.29687 -0.5625,0.71875 -1.29687,0.71875 -0.45313,0 -0.78125,-0.21875 -0.32813,-0.21875 -0.32813,-0.5625 0.0625,-0.26562 0.29688,-0.40625 0.23437,-0.125 0.5,-0.125 0.25,0 0.45312,0.0937 0.20313,0.10938 0.4375,0.35938 l 0.0625,0.0625 q 0.39063,-0.32813 0.64063,-0.79688 0.26562,-0.45312 0.4375,-0.9375 l 0.0469,-0.14062 -2.17187,-5.48438 -0.65625,-0.0937 v -0.4375 h 2.875 v 0.45313 l -1.04688,0.10937 1.5,4.09375 1.46875,-4.07812 z m 2.40405,5.26563 v -0.4375 l 0.96875,-0.15625 q 0,-0.5 0,-0.96875 0.0156,-0.48438 0.0156,-0.95313 v -5.26562 l -0.98438,-0.125 v -0.42188 l 1.875,-0.54687 0.17188,0.10937 -0.0469,1.70313 v 4.54687 q 0,0.46875 0,0.95313 0,0.48437 0.0156,0.96875 l 0.96875,0.15625 v 0.4375 z m 6.56043,0.15625 q -0.6875,0 -1.32813,-0.32813 -0.625,-0.32812 -1.01562,-1 -0.39063,-0.67187 -0.39063,-1.64062 0,-1 0.39063,-1.67188 0.39062,-0.6875 1.01562,-1.03125 0.64063,-0.34375 1.32813,-0.34375 0.70312,0 1.32812,0.34375 0.64063,0.34375 1.03125,1.03125 0.40625,0.67188 0.40625,1.67188 0,0.96875 -0.40625,1.64062 -0.39062,0.67188 -1.03125,1 -0.625,0.32813 -1.32812,0.32813 z m 0,-0.54688 q 0.78125,0 1.20312,-0.60937 0.42188,-0.625 0.42188,-1.8125 0,-1.21875 -0.42188,-1.84375 -0.42187,-0.64063 -1.20312,-0.64063 -0.76563,0 -1.1875,0.64063 -0.40625,0.625 -0.40625,1.84375 0,1.1875 0.40625,1.8125 0.42187,0.60937 1.1875,0.60937 z m 8.29114,0.51563 q -0.42188,0 -0.71875,-0.25 -0.28125,-0.26563 -0.35938,-0.67188 -0.48437,0.46875 -0.85937,0.71875 -0.375,0.23438 -0.90625,0.23438 -0.65625,0 -1.125,-0.375 -0.46875,-0.375 -0.46875,-1.125 0,-0.34375 0.15625,-0.64063 0.15625,-0.3125 0.59375,-0.59375 0.4375,-0.29687 1.23437,-0.57812 0.28125,-0.0937 0.64063,-0.20313 0.35937,-0.10937 0.71875,-0.1875 v -0.3125 q 0,-0.875 -0.26563,-1.15625 -0.26562,-0.28125 -0.85937,-0.28125 -0.14063,0 -0.3125,0.0156 -0.15625,0 -0.34375,0.0469 l -0.21875,0.78125 q -0.17188,0.57813 -0.625,0.57813 -0.51563,0 -0.5625,-0.5 0.15625,-0.67188 0.78125,-1.07813 0.64062,-0.40625 1.54687,-0.40625 0.95313,0 1.40625,0.48438 0.45313,0.46875 0.45313,1.60937 v 2.54688 q 0,0.39062 0.125,0.5625 0.125,0.15625 0.3125,0.15625 0.15625,0 0.26562,-0.0625 0.10938,-0.0781 0.20313,-0.20313 l 0.23437,0.26563 q -0.21875,0.34375 -0.48437,0.48437 -0.25,0.14063 -0.5625,0.14063 z m -3.375,-1.65625 q 0,0.48437 0.26562,0.6875 0.28125,0.20312 0.6875,0.20312 0.1875,0 0.34375,-0.0469 0.17188,-0.0469 0.39063,-0.1875 0.23437,-0.14063 0.59375,-0.39063 v -1.84375 q -0.3125,0.0781 -0.625,0.1875 -0.29688,0.10938 -0.48438,0.17188 -0.51562,0.20312 -0.76562,0.42187 -0.25,0.21875 -0.32813,0.42188 -0.0781,0.20312 -0.0781,0.375 z m 6.12365,-1.28125 q 0,1.17187 0.46875,1.73437 0.46875,0.54688 1.1875,0.54688 0.40625,0 0.70313,-0.15625 0.3125,-0.17188 0.64062,-0.53125 v -3.32813 q -0.40625,-0.35937 -0.73437,-0.48437 -0.3125,-0.14063 -0.60938,-0.14063 -0.45312,0 -0.82812,0.25 -0.375,0.23438 -0.60938,0.76563 -0.21875,0.51562 -0.21875,1.34375 z m 3.125,2.9375 -0.0781,-0.82813 q -0.3125,0.40625 -0.71875,0.64063 -0.40625,0.21875 -0.96875,0.21875 -0.73438,0 -1.28125,-0.375 -0.54688,-0.375 -0.85938,-1.03125 -0.29687,-0.67188 -0.29687,-1.54688 0,-0.92187 0.32812,-1.60937 0.34375,-0.6875 0.90625,-1.0625 0.57813,-0.39063 1.3125,-0.39063 0.42188,0 0.8125,0.17188 0.39063,0.17187 0.76563,0.60937 v -2.70312 l -1.03125,-0.125 v -0.42188 l 1.875,-0.54687 0.17187,0.10937 -0.0469,1.70313 v 6.48437 l 0.96875,0.14063 v 0.4375 z"
       id="path1427"
       inkscape:connector-curvature="0"
       style="fill:#000000;fill-rule:nonzero" />
    <path
       d="m 458.31613,313.7944 h 75.74802 v 50.79507 h -75.74802 z"
       id="path1429"
       inkscape:connector-curvature="0"
       style="fill:#d9d9d9;fill-rule:evenodd" />
    <path
       d="m 458.30396,313.7967 h 48.05286"
       id="path1431"
       inkscape:connector-curvature="0"
       style="fill:#000000;fill-opacity:0;fill-rule:evenodd" />
    <path
       d="m 458.30396,313.7967 h 48.05286"
       id="path1433"
       inkscape:connector-curvature="0"
       style="fill-rule:evenodd;stroke:#595959;stroke-width:1;stroke-linecap:butt;stroke-linejoin:round;stroke-dasharray:4, 3" />
    <path
       d="m 458.30396,364.59177 h 48.05286"
       id="path1435"
       inkscape:connector-curvature="0"
       style="fill:#000000;fill-opacity:0;fill-rule:evenodd" />
    <path
       d="m 458.30396,364.59177 h 48.05286"
       id="path1437"
       inkscape:connector-curvature="0"
       style="fill-rule:evenodd;stroke:#595959;stroke-width:1;stroke-linecap:butt;stroke-linejoin:round;stroke-dasharray:4, 3" />
    <path
       d="m 505.65472,364.59177 h 28.3949"
       id="path1439"
       inkscape:connector-curvature="0"
       style="fill:#000000;fill-opacity:0;fill-rule:evenodd" />
    <path
       d="m 505.65472,364.59177 h 28.3949"
       id="path1441"
       inkscape:connector-curvature="0"
       style="fill-rule:evenodd;stroke:#595959;stroke-width:1;stroke-linecap:butt;stroke-linejoin:round" />
    <path
       d="m 505.65472,313.7967 h 28.3949"
       id="path1443"
       inkscape:connector-curvature="0"
       style="fill:#000000;fill-opacity:0;fill-rule:evenodd" />
    <path
       d="m 505.65472,313.7967 h 28.3949"
       id="path1445"
       inkscape:connector-curvature="0"
       style="fill-rule:evenodd;stroke:#595959;stroke-width:1;stroke-linecap:butt;stroke-linejoin:round" />
    <path
       d="M 534.0496,364.58948 V 314.01309"
       id="path1447"
       inkscape:connector-curvature="0"
       style="fill:#000000;fill-opacity:0;fill-rule:evenodd" />
    <path
       d="M 534.0496,364.58948 V 314.01309"
       id="path1449"
       inkscape:connector-curvature="0"
       style="fill-rule:evenodd;stroke:#595959;stroke-width:1;stroke-linecap:butt;stroke-linejoin:round" />
    <path
       d="m 453.0656,322.1718 h 81.00787 v 34.04724 H 453.0656 Z"
       id="path1451"
       inkscape:connector-curvature="0"
       style="fill:#000000;fill-opacity:0;fill-rule:evenodd" />
    <path
       d="m 482.66608,344.69418 q -0.8125,0 -1.57812,-0.21875 -0.76563,-0.23437 -1.26563,-0.5625 l 0.0781,-2.04687 h 0.90625 l 0.29687,1.73437 q 0.34375,0.1875 0.70313,0.28125 0.35937,0.0781 0.82812,0.0781 1.03125,0 1.64063,-0.45313 0.625,-0.46875 0.625,-1.3125 0,-0.70312 -0.4375,-1.09375 -0.42188,-0.39062 -1.35938,-0.76562 l -0.57812,-0.23438 q -1.125,-0.4375 -1.82813,-1.125 -0.6875,-0.70312 -0.6875,-1.8125 0,-0.84375 0.42188,-1.4375 0.4375,-0.60937 1.1875,-0.9375 0.75,-0.34375 1.6875,-0.34375 0.73437,0 1.32812,0.21875 0.60938,0.20313 1.07813,0.54688 l -0.0937,1.92187 h -0.89063 l -0.3125,-1.65625 q -0.54687,-0.29687 -1.20312,-0.29687 -0.82813,0 -1.40625,0.42187 -0.5625,0.42188 -0.5625,1.23438 0,0.67187 0.42187,1.125 0.4375,0.4375 1.23438,0.73437 l 0.57812,0.21875 q 1.4375,0.5625 2.04688,1.26563 0.625,0.6875 0.625,1.73437 0,0.85938 -0.45313,1.48438 -0.4375,0.625 -1.21875,0.96875 -0.78125,0.32812 -1.8125,0.32812 z m 8.00403,-6.70312 q -0.40625,0 -0.82813,0.23437 -0.40625,0.23438 -0.71875,0.75 -0.29687,0.51563 -0.375,1.35938 h 2.65625 q 0.53125,0 0.70313,-0.21875 0.17187,-0.21875 0.17187,-0.53125 0,-0.42188 -0.21875,-0.78125 -0.21875,-0.35938 -0.57812,-0.57813 -0.35938,-0.23437 -0.8125,-0.23437 z m -0.0156,6.67187 q -1.46875,0 -2.375,-0.95312 -0.89062,-0.96875 -0.89062,-2.65625 0,-1.125 0.45312,-1.95313 0.46875,-0.84375 1.23438,-1.3125 0.78125,-0.46875 1.6875,-0.46875 0.76562,0 1.375,0.34375 0.625,0.32813 0.98437,0.95313 0.35938,0.625 0.35938,1.51562 0,0.25 -0.0312,0.46875 -0.0156,0.20313 -0.0625,0.35938 h -4.67188 q 0.0312,1.34375 0.67188,2.04687 0.64062,0.70313 1.70312,0.70313 0.70313,0 1.17188,-0.28125 0.46875,-0.28125 0.85937,-0.73438 l 0.34375,0.26563 q -0.40625,0.78125 -1.10937,1.25 -0.70313,0.45312 -1.70313,0.45312 z m 4.14661,-0.1875 v -0.53125 l 1.07812,-0.20312 q 0.0156,-0.5625 0.0156,-1.20313 0.0156,-0.64062 0.0156,-1.14062 v -0.70313 q 0,-0.59375 -0.0156,-0.98437 0,-0.40625 -0.0312,-0.84375 l -1.15625,-0.14063 v -0.51562 l 2.04687,-0.89063 0.21875,0.15625 0.125,1.17188 q 0.53125,-0.59375 1.23438,-0.95313 0.71875,-0.375 1.39062,-0.375 0.95313,0 1.40625,0.64063 0.46875,0.64062 0.46875,2.07812 v 1.35938 q 0,0.5 0,1.14062 0.0156,0.64063 0.0312,1.20313 l 1.01563,0.20312 v 0.53125 h -3.39063 v -0.53125 l 1.07813,-0.20312 q 0.0156,-0.54688 0.0156,-1.1875 0.0156,-0.65625 0.0156,-1.15625 v -1.25 q 0,-1 -0.29688,-1.375 -0.28125,-0.39063 -0.92187,-0.39063 -0.5,0 -0.96875,0.20313 -0.46875,0.20312 -1.01563,0.67187 v 2.14063 q 0,0.48437 0,1.14062 0,0.64063 0.0156,1.20313 l 1.01562,0.20312 v 0.53125 z m 10.27234,-3.4375 q 0,1.42188 0.57812,2.10938 0.57813,0.6875 1.45313,0.6875 0.48437,0 0.85937,-0.20313 0.375,-0.20312 0.78125,-0.65625 v -4.0625 q -0.5,-0.4375 -0.89062,-0.59375 -0.39063,-0.15625 -0.76563,-0.15625 -0.54687,0 -1.01562,0.29688 -0.45313,0.29687 -0.73438,0.9375 -0.26562,0.64062 -0.26562,1.64062 z m 3.8125,3.57813 -0.0937,-1 q -0.39063,0.5 -0.875,0.78125 -0.48438,0.26562 -1.17188,0.26562 -0.90625,0 -1.57812,-0.45312 -0.67188,-0.45313 -1.04688,-1.26563 -0.375,-0.8125 -0.375,-1.89062 0,-1.125 0.40625,-1.95313 0.42188,-0.84375 1.125,-1.3125 0.70313,-0.46875 1.59375,-0.46875 0.51563,0 0.98438,0.21875 0.48437,0.20313 0.9375,0.73438 v -3.3125 l -1.25,-0.14063 v -0.51562 l 2.28125,-0.65625 0.21875,0.10937 -0.0625,2.09375 v 7.92188 l 1.1875,0.17187 v 0.53125 z m 6.45074,-6.625 q -0.40625,0 -0.82812,0.23437 -0.40625,0.23438 -0.71875,0.75 -0.29688,0.51563 -0.375,1.35938 h 2.65625 q 0.53125,0 0.70312,-0.21875 0.17188,-0.21875 0.17188,-0.53125 0,-0.42188 -0.21875,-0.78125 -0.21875,-0.35938 -0.57813,-0.57813 -0.35937,-0.23437 -0.8125,-0.23437 z m -0.0156,6.67187 q -1.46875,0 -2.375,-0.95312 -0.89063,-0.96875 -0.89063,-2.65625 0,-1.125 0.45313,-1.95313 0.46875,-0.84375 1.23437,-1.3125 0.78125,-0.46875 1.6875,-0.46875 0.76563,0 1.375,0.34375 0.625,0.32813 0.98438,0.95313 0.35937,0.625 0.35937,1.51562 0,0.25 -0.0312,0.46875 -0.0156,0.20313 -0.0625,0.35938 h -4.67187 q 0.0312,1.34375 0.67187,2.04687 0.64063,0.70313 1.70313,0.70313 0.70312,0 1.17187,-0.28125 0.46875,-0.28125 0.85938,-0.73438 l 0.34375,0.26563 q -0.40625,0.78125 -1.10938,1.25 -0.70312,0.45312 -1.70312,0.45312 z m 4.16223,-0.1875 v -0.53125 l 1.0625,-0.1875 q 0.0156,-0.5625 0.0156,-1.20312 0.0156,-0.65625 0.0156,-1.15625 v -0.70313 q 0,-0.59375 -0.0156,-0.98437 0,-0.40625 -0.0312,-0.84375 l -1.15625,-0.14063 v -0.51562 l 2.04688,-0.89063 0.21875,0.15625 0.17187,1.71875 q 0.35938,-0.875 0.9375,-1.375 0.57813,-0.5 1.17188,-0.5 0.32812,0 0.625,0.15625 0.29687,0.14063 0.42187,0.39063 0,1.0625 -0.85937,1.0625 -0.25,0 -0.46875,-0.0937 -0.21875,-0.0937 -0.42188,-0.26563 l -0.1875,-0.15625 q -0.4375,0.3125 -0.73437,0.78125 -0.28125,0.46875 -0.46875,1.10938 v 1.09375 q 0,0.48437 0,1.14062 0,0.64063 0.0156,1.1875 l 1.20313,0.21875 v 0.53125 z"
       id="path1453"
       inkscape:connector-curvature="0"
       style="fill:#000000;fill-rule:nonzero" />
    <path
       d="m 640.534,313.79553 h 75.74805 v 50.7951 H 640.534 Z"
       id="path1455"
       inkscape:connector-curvature="0"
       style="fill:#d9d9d9;fill-rule:evenodd" />
    <path
       d="M 716.27966,313.79553 H 668.2268"
       id="path1457"
       inkscape:connector-curvature="0"
       style="fill:#000000;fill-opacity:0;fill-rule:evenodd" />
    <path
       d="M 716.27966,313.79553 H 668.2268"
       id="path1459"
       inkscape:connector-curvature="0"
       style="fill-rule:evenodd;stroke:#595959;stroke-width:1;stroke-linecap:butt;stroke-linejoin:round;stroke-dasharray:4, 3" />
    <path
       d="M 716.27966,364.59064 H 668.2268"
       id="path1461"
       inkscape:connector-curvature="0"
       style="fill:#000000;fill-opacity:0;fill-rule:evenodd" />
    <path
       d="M 716.27966,364.59064 H 668.2268"
       id="path1463"
       inkscape:connector-curvature="0"
       style="fill-rule:evenodd;stroke:#595959;stroke-width:1;stroke-linecap:butt;stroke-linejoin:round;stroke-dasharray:4, 3" />
    <path
       d="M 668.92883,364.59064 H 640.53399"
       id="path1465"
       inkscape:connector-curvature="0"
       style="fill:#000000;fill-opacity:0;fill-rule:evenodd" />
    <path
       d="M 668.92883,364.59064 H 640.53399"
       id="path1467"
       inkscape:connector-curvature="0"
       style="fill-rule:evenodd;stroke:#595959;stroke-width:1;stroke-linecap:butt;stroke-linejoin:round" />
    <path
       d="M 668.92883,313.79553 H 640.53399"
       id="path1469"
       inkscape:connector-curvature="0"
       style="fill:#000000;fill-opacity:0;fill-rule:evenodd" />
    <path
       d="M 668.92883,313.79553 H 640.53399"
       id="path1471"
       inkscape:connector-curvature="0"
       style="fill-rule:evenodd;stroke:#595959;stroke-width:1;stroke-linecap:butt;stroke-linejoin:round" />
    <path
       d="M 640.534,364.58835 V 314.01196"
       id="path1473"
       inkscape:connector-curvature="0"
       style="fill:#000000;fill-opacity:0;fill-rule:evenodd" />
    <path
       d="M 640.534,364.58835 V 314.01196"
       id="path1475"
       inkscape:connector-curvature="0"
       style="fill-rule:evenodd;stroke:#595959;stroke-width:1;stroke-linecap:butt;stroke-linejoin:round" />
    <path
       d="m 640.53546,322.1718 h 81.00787 v 34.04724 h -81.00787 z"
       id="path1477"
       inkscape:connector-curvature="0"
       style="fill:#000000;fill-opacity:0;fill-rule:evenodd" />
    <path
       d="m 654.2386,335.35043 h -1.26562 q -0.0156,0.96875 -0.0156,1.92188 0,0.95312 0,2 h 1.125 q 1.1875,0 1.75,-0.5625 0.5625,-0.57813 0.5625,-1.45313 0,-0.9375 -0.51562,-1.42187 -0.51563,-0.48438 -1.64063,-0.48438 z m -4.0625,-0.0781 v -0.60938 h 4.10938 q 1.6875,0 2.625,0.6875 0.9375,0.67188 0.9375,1.89063 0,0.84375 -0.625,1.54687 -0.60938,0.70313 -1.84375,0.92188 0.65625,0.14062 1.0625,0.57812 0.42187,0.42188 0.67187,1.28125 l 0.625,2.17188 1.14063,0.14062 v 0.59375 q -0.23438,0.0625 -0.5,0.0937 -0.26563,0.0469 -0.60938,0.0469 -0.6875,0 -1.03125,-0.20313 -0.34375,-0.20312 -0.46875,-0.73437 l -0.59375,-2.34375 q -0.125,-0.59375 -0.375,-0.89063 -0.25,-0.3125 -0.64062,-0.40625 -0.39063,-0.10937 -0.98438,-0.10937 h -0.71875 q 0,1.0625 0,1.98437 0,0.92188 0.0156,1.79688 l 1.35937,0.17187 v 0.59375 h -4.15625 v -0.59375 l 1.35938,-0.17187 q 0.0156,-0.92188 0.0156,-1.875 0,-0.95313 0,-1.90625 v -0.71875 q 0,-0.95313 0,-1.89063 0,-0.95312 -0.0156,-1.89062 z m 12.69147,2.71875 q -0.40625,0 -0.82813,0.23437 -0.40625,0.23438 -0.71875,0.75 -0.29687,0.51563 -0.375,1.35938 h 2.65625 q 0.53125,0 0.70313,-0.21875 0.17187,-0.21875 0.17187,-0.53125 0,-0.42188 -0.21875,-0.78125 -0.21875,-0.35938 -0.57812,-0.57813 -0.35938,-0.23437 -0.8125,-0.23437 z m -0.0156,6.67187 q -1.46875,0 -2.375,-0.95312 -0.89062,-0.96875 -0.89062,-2.65625 0,-1.125 0.45312,-1.95313 0.46875,-0.84375 1.23438,-1.3125 0.78125,-0.46875 1.6875,-0.46875 0.76562,0 1.375,0.34375 0.625,0.32813 0.98437,0.95313 0.35938,0.625 0.35938,1.51562 0,0.25 -0.0312,0.46875 -0.0156,0.20313 -0.0625,0.35938 h -4.67188 q 0.0312,1.34375 0.67188,2.04687 0.64062,0.70313 1.70312,0.70313 0.70313,0 1.17188,-0.28125 0.46875,-0.28125 0.85937,-0.73438 l 0.34375,0.26563 q -0.40625,0.78125 -1.10937,1.25 -0.70313,0.45312 -1.70313,0.45312 z m 7.45905,0 q -1.5,0 -2.40625,-0.96875 -0.89063,-0.98437 -0.89063,-2.67187 0,-1.15625 0.46875,-1.98438 0.48438,-0.82812 1.26563,-1.26562 0.78125,-0.45313 1.65625,-0.45313 0.65625,0 1.21875,0.25 0.5625,0.25 0.92187,0.6875 0.35938,0.42188 0.45313,0.96875 -0.0937,0.5625 -0.67188,0.5625 -0.35937,0 -0.54687,-0.1875 -0.1875,-0.20312 -0.26563,-0.51562 l -0.26562,-0.96875 q -0.20313,-0.0781 -0.40625,-0.0937 -0.1875,-0.0312 -0.375,-0.0312 -0.9375,0 -1.54688,0.73437 -0.60937,0.73438 -0.60937,2.14063 0,1.375 0.65625,2.10937 0.65625,0.73438 1.6875,0.73438 0.625,0 1.15625,-0.28125 0.53125,-0.28125 0.85937,-0.82813 l 0.375,0.1875 q -0.3125,0.90625 -1,1.39063 -0.6875,0.48437 -1.73437,0.48437 z m 7.18353,-6.67187 q -0.40625,0 -0.82812,0.23437 -0.40625,0.23438 -0.71875,0.75 -0.29688,0.51563 -0.375,1.35938 h 2.65625 q 0.53125,0 0.70312,-0.21875 0.17188,-0.21875 0.17188,-0.53125 0,-0.42188 -0.21875,-0.78125 -0.21875,-0.35938 -0.57813,-0.57813 -0.35937,-0.23437 -0.8125,-0.23437 z m -0.0156,6.67187 q -1.46875,0 -2.375,-0.95312 -0.89063,-0.96875 -0.89063,-2.65625 0,-1.125 0.45313,-1.95313 0.46875,-0.84375 1.23437,-1.3125 0.78125,-0.46875 1.6875,-0.46875 0.76563,0 1.375,0.34375 0.625,0.32813 0.98438,0.95313 0.35937,0.625 0.35937,1.51562 0,0.25 -0.0312,0.46875 -0.0156,0.20313 -0.0625,0.35938 h -4.67187 q 0.0312,1.34375 0.67187,2.04687 0.64063,0.70313 1.70313,0.70313 0.70312,0 1.17187,-0.28125 0.46875,-0.28125 0.85938,-0.73438 l 0.34375,0.26563 q -0.40625,0.78125 -1.10938,1.25 -0.70312,0.45312 -1.70312,0.45312 z m 4.06848,-0.1875 v -0.53125 l 1.09375,-0.20312 q 0.0156,-0.5625 0.0156,-1.20313 0.0156,-0.65625 0.0156,-1.14062 v -0.6875 q 0,-0.60938 -0.0156,-1 0,-0.40625 -0.0312,-0.84375 l -1.17187,-0.14063 v -0.51562 l 2.26562,-0.89063 0.21875,0.15625 -0.0469,1.98438 v 1.9375 q 0,0.48437 0,1.14062 0.0156,0.64063 0.0312,1.20313 l 1.01562,0.20312 v 0.53125 z m 1.73437,-8.76562 q -0.42187,0 -0.70312,-0.26563 -0.28125,-0.26562 -0.28125,-0.67187 0,-0.42188 0.28125,-0.67188 0.28125,-0.26562 0.70312,-0.26562 0.40625,0 0.6875,0.26562 0.28125,0.25 0.28125,0.67188 0,0.40625 -0.28125,0.67187 -0.28125,0.26563 -0.6875,0.26563 z m 6.38196,2.375 v -0.57813 h 2.78125 v 0.57813 l -0.79688,0.1875 -2.375,6.29687 h -0.64062 l -2.65625,-6.34375 -0.79688,-0.14062 v -0.57813 h 3.54688 v 0.57813 l -1.29688,0.1875 1.79688,4.6875 1.625,-4.67188 z m 6.56122,-0.0937 q -0.40625,0 -0.82813,0.23437 -0.40625,0.23438 -0.71875,0.75 -0.29687,0.51563 -0.375,1.35938 h 2.65625 q 0.53125,0 0.70313,-0.21875 0.17187,-0.21875 0.17187,-0.53125 0,-0.42188 -0.21875,-0.78125 -0.21875,-0.35938 -0.57812,-0.57813 -0.35938,-0.23437 -0.8125,-0.23437 z m -0.0156,6.67187 q -1.46875,0 -2.375,-0.95312 -0.89062,-0.96875 -0.89062,-2.65625 0,-1.125 0.45312,-1.95313 0.46875,-0.84375 1.23438,-1.3125 0.78125,-0.46875 1.6875,-0.46875 0.76562,0 1.375,0.34375 0.625,0.32813 0.98437,0.95313 0.35938,0.625 0.35938,1.51562 0,0.25 -0.0312,0.46875 -0.0156,0.20313 -0.0625,0.35938 h -4.67188 q 0.0312,1.34375 0.67188,2.04687 0.64062,0.70313 1.70312,0.70313 0.70313,0 1.17188,-0.28125 0.46875,-0.28125 0.85937,-0.73438 l 0.34375,0.26563 q -0.40625,0.78125 -1.10937,1.25 -0.70313,0.45312 -1.70313,0.45312 z m 4.16223,-0.1875 v -0.53125 l 1.0625,-0.1875 q 0.0156,-0.5625 0.0156,-1.20312 0.0156,-0.65625 0.0156,-1.15625 v -0.70313 q 0,-0.59375 -0.0156,-0.98437 0,-0.40625 -0.0312,-0.84375 l -1.15625,-0.14063 v -0.51562 l 2.04687,-0.89063 0.21875,0.15625 0.17188,1.71875 q 0.35937,-0.875 0.9375,-1.375 0.57812,-0.5 1.17187,-0.5 0.32813,0 0.625,0.15625 0.29688,0.14063 0.42188,0.39063 0,1.0625 -0.85938,1.0625 -0.25,0 -0.46875,-0.0937 -0.21875,-0.0937 -0.42187,-0.26563 l -0.1875,-0.15625 q -0.4375,0.3125 -0.73438,0.78125 -0.28125,0.46875 -0.46875,1.10938 v 1.09375 q 0,0.48437 0,1.14062 0,0.64063 0.0156,1.1875 l 1.20312,0.21875 v 0.53125 z"
       id="path1479"
       inkscape:connector-curvature="0"
       style="fill:#000000;fill-rule:nonzero" />
  </g>
</svg>
