<?xml version="1.0" encoding="UTF-8" standalone="no"?>
<svg
   version="1.1"
   viewBox="0 0 292.08661 100.37007"
   fill="none"
   stroke="none"
   stroke-linecap="square"
   stroke-miterlimit="10"
   id="svg311"
   sodipodi:docname="hazard-vr.svg"
   width="292.08661"
   height="100.37007"
   inkscape:version="1.1.2 (b8e25be8, 2022-02-05)"
   xmlns:inkscape="http://www.inkscape.org/namespaces/inkscape"
   xmlns:sodipodi="http://sodipodi.sourceforge.net/DTD/sodipodi-0.dtd"
   xmlns="http://www.w3.org/2000/svg"
   xmlns:svg="http://www.w3.org/2000/svg">
  <defs
     id="defs315" />
  <sodipodi:namedview
     id="namedview313"
     pagecolor="#ffffff"
     bordercolor="#666666"
     borderopacity="1.0"
     inkscape:pageshadow="2"
     inkscape:pageopacity="0.0"
     inkscape:pagecheckerboard="0"
     showgrid="false"
     inkscape:zoom="1.05"
     inkscape:cx="-178.57143"
     inkscape:cy="203.33333"
     inkscape:window-width="1296"
     inkscape:window-height="789"
     inkscape:window-x="0"
     inkscape:window-y="25"
     inkscape:window-maximized="0"
     inkscape:current-layer="g309" />
  <clipPath
     id="g2f80604df9e_0_0.0">
    <path
       d="M 0,0 H 960 V 540 H 0 Z"
       clip-rule="nonzero"
       id="path2" />
  </clipPath>
  <g
     clip-path="url(#g2f80604df9e_0_0.0)"
     id="g309"
     transform="translate(-657.77295,-66.80699)">
    <path
       fill="#000000"
       fill-opacity="0"
       d="M 657.147,59.44882 H 759.38321 V 91.732286 H 657.147 Z"
       fill-rule="evenodd"
       id="path207" />
    <path
       fill="#202122"
       d="m 672.0376,72.31242 v -0.671875 h 2.89062 v 0.71875 l -1,0.15625 -2.75,7.90625 h -1.28125 l -2.875,-7.984375 -0.76562,-0.07813 v -0.71875 h 4.28125 v 0.671875 l -1.125,0.140625 1.82812,5.5 1.84375,-5.46875 z m 2.38531,8.078125 v -0.625 l 0.73438,-0.140625 q 0.0156,-0.5 0.0156,-1.0625 0,-0.5625 0,-0.96875 v -0.78125 q 0,-0.375 -0.0156,-0.609375 0,-0.25 -0.0156,-0.453125 0,-0.203125 -0.0156,-0.484375 l -0.8125,-0.109375 v -0.515625 l 2.625,-0.90625 0.25,0.15625 0.10937,1.5625 q 0.28125,-0.84375 0.78125,-1.28125 0.51563,-0.4375 1.01563,-0.4375 0.4375,0 0.75,0.25 0.32812,0.25 0.40625,0.734375 -0.0156,0.53125 -0.28125,0.8125 -0.26563,0.28125 -0.67188,0.28125 -0.5625,0 -1.01562,-0.625 l -0.0937,-0.09375 q -0.28125,0.265625 -0.53125,0.703125 -0.25,0.421875 -0.35938,0.890625 v 0.90625 q 0,0.40625 0,0.953125 0,0.53125 0.0156,0.984375 l 1.0625,0.234375 v 0.625 z m 11.04065,-8.03125 v -0.71875 h 4.20313 v 0.71875 l -0.98438,0.09375 q -0.0156,0.8125 -0.0312,1.640625 0,0.828125 0,1.671875 v 0.5 q 0,0.8125 0,1.640625 0.0156,0.828125 0.0312,1.65625 l 0.98438,0.109375 v 0.71875 h -4.20313 v -0.71875 l 0.92188,-0.09375 q 0.0312,-0.828125 0.0312,-1.65625 0,-0.828125 0,-1.640625 h -2.84375 q 0,0.890625 0,1.703125 0.0156,0.8125 0.0312,1.59375 l 0.9375,0.09375 v 0.71875 h -4.20313 v -0.71875 l 0.96875,-0.109375 q 0.0312,-0.8125 0.0312,-1.640625 0,-0.828125 0,-1.65625 v -0.5 q 0,-0.828125 0,-1.65625 0,-0.828125 -0.0312,-1.65625 l -0.96875,-0.09375 v -0.71875 h 4.20313 v 0.71875 l -0.9375,0.09375 q -0.0156,0.8125 -0.0312,1.609375 0,0.796875 0,1.4375 h 2.84375 q 0,-0.765625 0,-1.53125 0,-0.765625 -0.0312,-1.515625 z m 5.13349,4.21875 v -1 l 5.57812,-2.875 0.57813,1.140625 -4.57813,2.234375 4.57813,2.234375 -0.57813,1.140625 z m 10.78174,-4.171875 h -0.29688 q -0.0156,0.828125 -0.0312,1.671875 0,0.828125 0,1.6875 v 0.53125 h 0.39063 q 0.875,0 1.3125,-0.5625 0.4375,-0.5625 0.4375,-1.46875 0,-0.921875 -0.46875,-1.390625 -0.46875,-0.46875 -1.34375,-0.46875 z m -3.59375,-0.04687 v -0.71875 h 3.625 q 1.39062,0 2.23437,0.328125 0.85938,0.3125 1.25,0.90625 0.39063,0.59375 0.39063,1.390625 0,0.765625 -0.375,1.40625 -0.35938,0.625 -1.20313,1 -0.82812,0.375 -2.28125,0.375 h -0.375 q 0,0.578125 0,1.21875 0.0156,0.625 0.0312,1.28125 l 1.1875,0.125 v 0.71875 h -4.48437 V 79.6718 l 1,-0.109375 q 0.0312,-0.8125 0.0312,-1.640625 0,-0.828125 0,-1.65625 v -0.5 q 0,-0.828125 0,-1.65625 0,-0.84375 -0.0312,-1.65625 z m 9.27783,7.28125 q 0,0.90625 -0.42188,1.609375 -0.42187,0.71875 -1.0625,1.171875 -0.625,0.46875 -1.26562,0.65625 l -0.1875,-0.5625 q 0.67187,-0.34375 1.09375,-0.8125 0.4375,-0.453125 0.6875,-1 l -0.46875,-0.234375 q -0.40625,-0.21875 -0.57813,-0.515625 -0.17187,-0.3125 -0.17187,-0.609375 0,-0.484375 0.32812,-0.8125 0.34375,-0.34375 0.84375,-0.34375 0.28125,0 0.51563,0.07813 0.25,0.07813 0.48437,0.296875 0.125,0.3125 0.15625,0.546875 0.0469,0.234375 0.0469,0.53125 z m 7.89746,-7.234375 h -0.53125 q -0.0156,0.828125 -0.0156,1.65625 0,0.8125 0,1.5625 h 0.5 q 0.67188,0 1.03125,-0.21875 0.375,-0.234375 0.53125,-0.609375 0.17188,-0.375 0.17188,-0.796875 0,-1.59375 -1.6875,-1.59375 z m -3.78125,-0.04687 v -0.71875 h 4.32812 q 1.57813,0 2.42188,0.59375 0.84375,0.578125 0.84375,1.609375 0,0.4375 -0.23438,0.875 -0.21875,0.4375 -0.73437,0.765625 -0.51563,0.328125 -1.40625,0.46875 0.75,0.09375 1.17187,0.375 0.4375,0.265625 0.64063,0.703125 0.21875,0.421875 0.3125,1.046875 l 0.25,1.484375 1.01562,0.109375 v 0.71875 q -0.3125,0.0625 -0.53125,0.109375 -0.21875,0.04687 -0.42187,0.0625 -0.20313,0.01563 -0.51563,0.01563 -0.84375,0 -1.34375,-0.296875 -0.48437,-0.296875 -0.57812,-1.0625 l -0.25,-1.546875 q -0.0937,-0.671875 -0.375,-0.984375 -0.28125,-0.328125 -0.89063,-0.328125 h -0.46875 q 0,0.859375 0,1.65625 0,0.78125 0.0156,1.546875 l 1.04687,0.109375 v 0.71875 h -4.29687 v -0.71875 l 1,-0.109375 q 0.0312,-0.8125 0.0312,-1.640625 0,-0.828125 0,-1.65625 v -0.5 q 0,-0.828125 0,-1.65625 0,-0.84375 -0.0312,-1.65625 z m 15.41559,3.21875 v 1 l -5.57813,2.875 -0.57812,-1.140625 4.57812,-2.234375 -4.57812,-2.234375 0.57812,-1.140625 z"
       fill-rule="nonzero"
       id="path209" />
    <path
       fill="#000000"
       fill-opacity="0"
       d="M 853.7654,154.7622 H 751.56069"
       fill-rule="evenodd"
       id="path211" />
    <path
       stroke="#1c4587"
       stroke-width="2"
       stroke-linejoin="round"
       stroke-linecap="butt"
       d="M 853.76544,154.7622 H 763.56067"
       fill-rule="evenodd"
       id="path213" />
    <path
       fill="#1c4587"
       stroke="#1c4587"
       stroke-width="2"
       stroke-linecap="butt"
       d="m 763.56067,151.45874 -9.07617,3.30347 9.07617,3.30345 z"
       fill-rule="evenodd"
       id="path215" />
    <path
       fill="#000000"
       fill-opacity="0"
       d="M 751.588,111.37759 H 853.79271"
       fill-rule="evenodd"
       id="path217" />
    <path
       stroke="#595959"
       stroke-width="2"
       stroke-linejoin="round"
       stroke-linecap="butt"
       d="m 751.588,111.37759 h 90.20471"
       fill-rule="evenodd"
       id="path219" />
    <path
       fill="#595959"
       stroke="#595959"
       stroke-width="2"
       stroke-linecap="butt"
       d="m 841.7927,114.68105 9.07623,-3.30346 -9.07623,-3.30347 z"
       fill-rule="evenodd"
       id="path221" />
    <path
       fill="#000000"
       fill-opacity="0"
       d="m 751.593,88.92409 h 102.20471 v 21.70078 H 751.593 Z"
       fill-rule="evenodd"
       id="path223" />
    <path
       fill="#202122"
       d="m 804.5056,99.87573 q 0.73437,0.20313 1.20312,0.75 0.48438,0.54688 0.48438,1.32813 0,1.03125 -0.9375,1.59375 -0.9375,0.54687 -2.3125,0.54687 h -3.57813 q -0.20312,0 -0.20312,-0.23437 0,-0.20313 0.39062,-0.20313 0.42188,0 0.5625,-0.125 0.15625,-0.125 0.15625,-0.53125 v -5.6875 q 0,-0.4375 -0.1875,-0.53125 -0.17187,-0.109375 -0.71875,-0.109375 -0.20312,0 -0.20312,-0.234375 0,-0.21875 0.20312,-0.21875 h 3.57813 q 2.8125,0 2.8125,2.015625 0,1.015625 -1.25,1.640625 z m 0.8125,-1.640625 q 0,-1.328125 -1.53125,-1.515625 0.48437,0.5625 0.48437,1.515625 0,1.109375 -0.60937,1.59375 1.65625,-0.796875 1.65625,-1.59375 z m -1.48438,0 q 0,-0.6875 -0.29687,-1.125 -0.28125,-0.4375 -0.82813,-0.4375 -0.25,0 -0.4375,0.125 -0.1875,0.109375 -0.1875,0.296875 v 2.703125 q 0.875,0 1.3125,-0.328125 0.4375,-0.34375 0.4375,-1.234375 z m 1.92188,3.718755 q 0,-0.73438 -0.46875,-1.125 -0.46875,-0.40625 -1.28125,-0.64063 0.625,0.46875 0.625,1.76563 0,0.98437 -0.48438,1.5625 1.60938,-0.40625 1.60938,-1.5625 z m -3.67188,1.26562 q 0,0.20313 0.1875,0.32813 0.1875,0.10937 0.4375,0.10937 1.48438,0 1.48438,-1.70312 0,-0.89063 -0.32813,-1.29688 -0.32812,-0.42187 -1.15625,-0.42187 h -0.625 z m -0.3125,-6.546875 h -1.1875 q 0.125,0.21875 0.125,0.640625 v 5.6875 q 0,0.42188 -0.125,0.65625 h 1.1875 q -0.125,-0.20312 -0.125,-0.4375 v -6.125 q 0,-0.21875 0.125,-0.421875 z"
       fill-rule="nonzero"
       id="path225" />
    <path
       fill="#000000"
       fill-opacity="0"
       d="M 751.588,133.0699 H 853.79271"
       fill-rule="evenodd"
       id="path227" />
    <path
       stroke="#595959"
       stroke-width="2"
       stroke-linejoin="round"
       stroke-linecap="butt"
       d="m 751.588,133.06989 h 90.20471"
       fill-rule="evenodd"
       id="path229" />
    <path
       fill="#595959"
       stroke="#595959"
       stroke-width="2"
       stroke-linecap="butt"
       d="m 841.7927,136.37335 9.07623,-3.30347 -9.07623,-3.30345 z"
       fill-rule="evenodd"
       id="path231" />
    <path
       fill="#000000"
       fill-opacity="0"
       d="m 751.593,110.61639 h 102.20471 v 21.70079 H 751.593 Z"
       fill-rule="evenodd"
       id="path233" />
    <path
       fill="#202122"
       d="m 802.70825,118.31804 h -0.73437 q 0,0.76562 -0.0156,1.5625 0,0.79687 0,1.59375 v 0.57812 h 0.79688 q 1.09375,0 1.54687,-0.53125 0.46875,-0.53125 0.46875,-1.375 0,-0.875 -0.5,-1.34375 -0.48437,-0.48437 -1.5625,-0.48437 z m -3.01562,-0.0625 v -0.5 h 3.21875 q 1.53125,0 2.28125,0.67187 0.76562,0.65625 0.76562,1.71875 0,0.67188 -0.34375,1.23438 -0.32812,0.5625 -1.0625,0.90625 -0.73437,0.32812 -1.96875,0.32812 h -0.625 q 0,0.65625 0,1.28125 0.0156,0.625 0.0156,1.26563 l 1.125,0.14062 v 0.48438 h -3.40625 v -0.48438 l 1.09375,-0.14062 q 0.0312,-0.75 0.0312,-1.53125 0,-0.78125 0,-1.5625 v -0.59375 q 0,-0.78125 0,-1.54688 0,-0.78125 -0.0312,-1.54687 z"
       fill-rule="nonzero"
       id="path235" />
    <path
       fill="#000000"
       fill-opacity="0"
       d="m 751.593,132.3087 h 102.20471 v 21.70079 H 751.593 Z"
       fill-rule="evenodd"
       id="path237" />
    <path
       fill="#202122"
       d="m 789.5992,144.13535 q 0,0.96875 0.15625,1.8125 0.17187,0.82812 0.57812,1.6875 0.40625,0.85937 1.10938,1.875 l -0.3125,0.26562 q -1.26563,-1.1875 -1.89063,-2.57812 -0.60937,-1.40625 -0.60937,-3.0625 0,-1.64063 0.60937,-3.03125 0.625,-1.40625 1.89063,-2.59375 l 0.3125,0.26562 q -0.70313,1.01563 -1.10938,1.875 -0.40625,0.85938 -0.57812,1.70313 -0.15625,0.82812 -0.15625,1.78125 z"
       fill-rule="nonzero"
       id="path239" />
    <path
       fill="#202122"
       d="m 797.40155,143.26035 q 0.73438,0.20312 1.20313,0.75 0.48437,0.54687 0.48437,1.32812 0,1.03125 -0.9375,1.59375 -0.9375,0.54688 -2.3125,0.54688 h -3.57812 q -0.20313,0 -0.20313,-0.23438 0,-0.20312 0.39063,-0.20312 0.42187,0 0.5625,-0.125 0.15625,-0.125 0.15625,-0.53125 v -5.6875 q 0,-0.4375 -0.1875,-0.53125 -0.17188,-0.10938 -0.71875,-0.10938 -0.20313,0 -0.20313,-0.23437 0,-0.21875 0.20313,-0.21875 h 3.57812 q 2.8125,0 2.8125,2.01562 0,1.01563 -1.25,1.64063 z m 0.8125,-1.64063 q 0,-1.32812 -1.53125,-1.51562 0.48438,0.5625 0.48438,1.51562 0,1.10938 -0.60938,1.59375 1.65625,-0.79687 1.65625,-1.59375 z m -1.48437,0 q 0,-0.6875 -0.29688,-1.125 -0.28125,-0.4375 -0.82812,-0.4375 -0.25,0 -0.4375,0.125 -0.1875,0.10938 -0.1875,0.29688 v 2.70312 q 0.875,0 1.3125,-0.32812 0.4375,-0.34375 0.4375,-1.23438 z m 1.92187,3.71875 q 0,-0.73437 -0.46875,-1.125 -0.46875,-0.40625 -1.28125,-0.64062 0.625,0.46875 0.625,1.76562 0,0.98438 -0.48437,1.5625 1.60937,-0.40625 1.60937,-1.5625 z m -3.67187,1.26563 q 0,0.20312 0.1875,0.32812 0.1875,0.10938 0.4375,0.10938 1.48437,0 1.48437,-1.70313 0,-0.89062 -0.32812,-1.29687 -0.32813,-0.42188 -1.15625,-0.42188 h -0.625 z m -0.3125,-6.54688 h -1.1875 q 0.125,0.21875 0.125,0.64063 v 5.6875 q 0,0.42187 -0.125,0.65625 h 1.1875 q -0.125,-0.20313 -0.125,-0.4375 v -6.125 q 0,-0.21875 0.125,-0.42188 z"
       fill-rule="nonzero"
       id="path241" />
    <path
       fill="#202122"
       d="m 801.9999,147.13535 q 0,0.71875 -0.34375,1.32812 -0.34375,0.60938 -0.875,1.04688 -0.53125,0.4375 -1.10937,0.65625 l -0.15625,-0.40625 q 0.60937,-0.3125 1.07812,-0.76563 0.46875,-0.4375 0.6875,-1.10937 l -0.45312,-0.34375 q -0.23438,-0.1875 -0.34375,-0.40625 -0.10938,-0.23438 -0.10938,-0.45313 0,-0.3125 0.1875,-0.53125 0.1875,-0.23437 0.5625,-0.23437 0.15625,0 0.32813,0.0781 0.1875,0.0625 0.40625,0.26563 0.0781,0.23437 0.10937,0.45312 0.0312,0.20313 0.0312,0.42188 z m 7.69287,-7.125 h -1.04687 q 0,0.78125 -0.0156,1.57812 0,0.78125 0,1.625 h 0.92188 q 0.96875,0 1.42187,-0.46875 0.46875,-0.46875 0.46875,-1.1875 0,-0.75 -0.42187,-1.14062 -0.40625,-0.40625 -1.32813,-0.40625 z m -3.32812,-0.0625 v -0.5 h 3.35937 q 1.375,0 2.14063,0.5625 0.76562,0.54687 0.76562,1.54687 0,0.6875 -0.5,1.26563 -0.5,0.57812 -1.51562,0.75 0.53125,0.10937 0.875,0.46875 0.34375,0.35937 0.54687,1.0625 l 0.51563,1.78125 0.92187,0.10937 v 0.48438 q -0.17187,0.0469 -0.40625,0.0781 -0.21875,0.0469 -0.48437,0.0469 -0.5625,0 -0.85938,-0.17188 -0.28125,-0.17187 -0.375,-0.59375 l -0.48437,-1.92187 q -0.10938,-0.5 -0.3125,-0.73438 -0.20313,-0.25 -0.53125,-0.32812 -0.3125,-0.0937 -0.79688,-0.0937 h -0.59375 q 0,0.85937 0,1.625 0.0156,0.75 0.0156,1.46875 l 1.10937,0.14062 v 0.48438 h -3.39062 v -0.48438 l 1.09375,-0.14062 q 0.0312,-0.75 0.0312,-1.53125 0,-0.78125 0,-1.5625 v -0.59375 q 0,-0.78125 0,-1.54688 0,-0.78125 -0.0312,-1.54687 z m 9.42144,4.1875 q 0,-0.95313 -0.17187,-1.78125 -0.15625,-0.84375 -0.5625,-1.70313 -0.39063,-0.85937 -1.10938,-1.875 l 0.3125,-0.26562 q 1.28125,1.1875 1.89063,2.59375 0.60937,1.39062 0.60937,3.03125 0,1.65625 -0.60937,3.0625 -0.60938,1.39062 -1.89063,2.57812 l -0.3125,-0.26562 q 0.71875,-1.01563 1.10938,-1.875 0.40625,-0.85938 0.5625,-1.6875 0.17187,-0.84375 0.17187,-1.8125 z"
       fill-rule="nonzero"
       id="path243" />
    <path
       fill="#d9d9d9"
       d="m 675.8372,103.80971 h 75.74805 v 58.51968 H 675.8372 Z"
       fill-rule="evenodd"
       id="path245" />
    <path
       fill="#000000"
       fill-opacity="0"
       d="m 675.8251,103.81233 h 48.05286"
       fill-rule="evenodd"
       id="path247" />
    <path
       stroke="#595959"
       stroke-width="1"
       stroke-linejoin="round"
       stroke-linecap="butt"
       stroke-dasharray="4, 3"
       d="m 675.8251,103.81233 h 48.05286"
       fill-rule="evenodd"
       id="path249" />
    <path
       fill="#000000"
       fill-opacity="0"
       d="m 675.8251,162.33202 h 48.05286"
       fill-rule="evenodd"
       id="path251" />
    <path
       stroke="#595959"
       stroke-width="1"
       stroke-linejoin="round"
       stroke-linecap="butt"
       stroke-dasharray="4, 3"
       d="m 675.8251,162.33202 h 48.05286"
       fill-rule="evenodd"
       id="path253" />
    <path
       fill="#000000"
       fill-opacity="0"
       d="m 723.17584,162.33202 h 28.3949"
       fill-rule="evenodd"
       id="path255" />
    <path
       stroke="#595959"
       stroke-width="1"
       stroke-linejoin="round"
       stroke-linecap="butt"
       d="m 723.17584,162.33202 h 28.3949"
       fill-rule="evenodd"
       id="path257" />
    <path
       fill="#000000"
       fill-opacity="0"
       d="m 723.17584,103.81233 h 28.3949"
       fill-rule="evenodd"
       id="path259" />
    <path
       stroke="#595959"
       stroke-width="1"
       stroke-linejoin="round"
       stroke-linecap="butt"
       d="m 723.17584,103.81233 h 28.3949"
       fill-rule="evenodd"
       id="path261" />
    <path
       fill="#000000"
       fill-opacity="0"
       d="M 751.57074,162.32939 V 104.06167"
       fill-rule="evenodd"
       id="path263" />
    <path
       stroke="#595959"
       stroke-width="1"
       stroke-linejoin="round"
       stroke-linecap="butt"
       d="M 751.57074,162.32939 V 104.06167"
       fill-rule="evenodd"
       id="path265" />
    <path
       fill="#000000"
       fill-opacity="0"
       d="m 670.5853,115.08055 h 81.00787 v 37.16534 H 670.5853 Z"
       fill-rule="evenodd"
       id="path267" />
    <path
       fill="#000000"
       d="m 700.1858,139.16197 q -0.8125,0 -1.57813,-0.21875 -0.76562,-0.23438 -1.26562,-0.5625 l 0.0781,-2.04688 h 0.90625 l 0.29688,1.73438 q 0.34375,0.1875 0.70312,0.28125 0.35938,0.0781 0.82813,0.0781 1.03125,0 1.64062,-0.45312 0.625,-0.46875 0.625,-1.3125 0,-0.70313 -0.4375,-1.09375 -0.42187,-0.39063 -1.35937,-0.76563 l -0.57813,-0.23437 q -1.125,-0.4375 -1.82812,-1.125 -0.6875,-0.70313 -0.6875,-1.8125 0,-0.84375 0.42187,-1.4375 0.4375,-0.60938 1.1875,-0.9375 0.75,-0.34375 1.6875,-0.34375 0.73438,0 1.32813,0.21875 0.60937,0.20312 1.07812,0.54687 l -0.0937,1.92188 h -0.89062 l -0.3125,-1.65625 q -0.54688,-0.29688 -1.20313,-0.29688 -0.82812,0 -1.40625,0.42188 -0.5625,0.42187 -0.5625,1.23437 0,0.67188 0.42188,1.125 0.4375,0.4375 1.23437,0.73438 l 0.57813,0.21875 q 1.4375,0.5625 2.04687,1.26562 0.625,0.6875 0.625,1.73438 0,0.85937 -0.45312,1.48437 -0.4375,0.625 -1.21875,0.96875 -0.78125,0.32813 -1.8125,0.32813 z m 8.00403,-6.70313 q -0.40625,0 -0.82813,0.23438 -0.40625,0.23437 -0.71875,0.75 -0.29687,0.51562 -0.375,1.35937 h 2.65625 q 0.53125,0 0.70313,-0.21875 0.17187,-0.21875 0.17187,-0.53125 0,-0.42187 -0.21875,-0.78125 -0.21875,-0.35937 -0.57812,-0.57812 -0.35938,-0.23438 -0.8125,-0.23438 z m -0.0156,6.67188 q -1.46875,0 -2.375,-0.95313 -0.89062,-0.96875 -0.89062,-2.65625 0,-1.125 0.45312,-1.95312 0.46875,-0.84375 1.23438,-1.3125 0.78125,-0.46875 1.6875,-0.46875 0.76562,0 1.375,0.34375 0.625,0.32812 0.98437,0.95312 0.35938,0.625 0.35938,1.51563 0,0.25 -0.0312,0.46875 -0.0156,0.20312 -0.0625,0.35937 h -4.67188 q 0.0312,1.34375 0.67188,2.04688 0.64062,0.70312 1.70312,0.70312 0.70313,0 1.17188,-0.28125 0.46875,-0.28125 0.85937,-0.73437 l 0.34375,0.26562 q -0.40625,0.78125 -1.10937,1.25 -0.70313,0.45313 -1.70313,0.45313 z m 4.14655,-0.1875 v -0.53125 l 1.07812,-0.20313 q 0.0156,-0.5625 0.0156,-1.20312 0.0156,-0.64063 0.0156,-1.14063 v -0.70312 q 0,-0.59375 -0.0156,-0.98438 0,-0.40625 -0.0312,-0.84375 l -1.15625,-0.14062 v -0.51563 l 2.04687,-0.89062 0.21875,0.15625 0.125,1.17187 q 0.53125,-0.59375 1.23438,-0.95312 0.71875,-0.375 1.39062,-0.375 0.95313,0 1.40625,0.64062 0.46875,0.64063 0.46875,2.07813 v 1.35937 q 0,0.5 0,1.14063 0.0156,0.64062 0.0312,1.20312 l 1.01563,0.20313 v 0.53125 h -3.39063 v -0.53125 l 1.07813,-0.20313 q 0.0156,-0.54687 0.0156,-1.1875 0.0156,-0.65625 0.0156,-1.15625 v -1.25 q 0,-1 -0.29688,-1.375 -0.28125,-0.39062 -0.92187,-0.39062 -0.5,0 -0.96875,0.20312 -0.46875,0.20313 -1.01563,0.67188 v 2.14062 q 0,0.48438 0,1.14063 0,0.64062 0.0156,1.20312 l 1.01562,0.20313 v 0.53125 z m 10.27234,-3.4375 q 0,1.42187 0.57812,2.10937 0.57813,0.6875 1.45313,0.6875 0.48437,0 0.85937,-0.20312 0.375,-0.20313 0.78125,-0.65625 v -4.0625 q -0.5,-0.4375 -0.89062,-0.59375 -0.39063,-0.15625 -0.76563,-0.15625 -0.54687,0 -1.01562,0.29687 -0.45313,0.29688 -0.73438,0.9375 -0.26562,0.64063 -0.26562,1.64063 z m 3.8125,3.57812 -0.0937,-1 q -0.39063,0.5 -0.875,0.78125 -0.48438,0.26563 -1.17188,0.26563 -0.90625,0 -1.57812,-0.45313 -0.67188,-0.45312 -1.04688,-1.26562 -0.375,-0.8125 -0.375,-1.89063 0,-1.125 0.40625,-1.95312 0.42188,-0.84375 1.125,-1.3125 0.70313,-0.46875 1.59375,-0.46875 0.51563,0 0.98438,0.21875 0.48437,0.20312 0.9375,0.73437 v -3.3125 l -1.25,-0.14062 v -0.51563 l 2.28125,-0.65625 0.21875,0.10938 -0.0625,2.09375 v 7.92187 l 1.1875,0.17188 v 0.53125 z m 6.45074,-6.625 q -0.40625,0 -0.82812,0.23438 -0.40625,0.23437 -0.71875,0.75 -0.29688,0.51562 -0.375,1.35937 h 2.65625 q 0.53125,0 0.70312,-0.21875 0.17188,-0.21875 0.17188,-0.53125 0,-0.42187 -0.21875,-0.78125 -0.21875,-0.35937 -0.57813,-0.57812 -0.35937,-0.23438 -0.8125,-0.23438 z m -0.0156,6.67188 q -1.46875,0 -2.375,-0.95313 -0.89063,-0.96875 -0.89063,-2.65625 0,-1.125 0.45313,-1.95312 0.46875,-0.84375 1.23437,-1.3125 0.78125,-0.46875 1.6875,-0.46875 0.76563,0 1.375,0.34375 0.625,0.32812 0.98438,0.95312 0.35937,0.625 0.35937,1.51563 0,0.25 -0.0312,0.46875 -0.0156,0.20312 -0.0625,0.35937 h -4.67187 q 0.0312,1.34375 0.67187,2.04688 0.64063,0.70312 1.70313,0.70312 0.70312,0 1.17187,-0.28125 0.46875,-0.28125 0.85938,-0.73437 l 0.34375,0.26562 q -0.40625,0.78125 -1.10938,1.25 -0.70312,0.45313 -1.70312,0.45313 z m 4.16223,-0.1875 v -0.53125 l 1.0625,-0.1875 q 0.0156,-0.5625 0.0156,-1.20313 0.0156,-0.65625 0.0156,-1.15625 v -0.70312 q 0,-0.59375 -0.0156,-0.98438 0,-0.40625 -0.0312,-0.84375 l -1.15625,-0.14062 v -0.51563 l 2.04688,-0.89062 0.21875,0.15625 0.17187,1.71875 q 0.35938,-0.875 0.9375,-1.375 0.57813,-0.5 1.17188,-0.5 0.32812,0 0.625,0.15625 0.29687,0.14062 0.42187,0.39062 0,1.0625 -0.85937,1.0625 -0.25,0 -0.46875,-0.0937 -0.21875,-0.0937 -0.42188,-0.26562 l -0.1875,-0.15625 q -0.4375,0.3125 -0.73437,0.78125 -0.28125,0.46875 -0.46875,1.10937 v 1.09375 q 0,0.48438 0,1.14063 0,0.64062 0.0156,1.1875 l 1.20313,0.21875 v 0.53125 z"
       fill-rule="nonzero"
       id="path269" />
    <path
       fill="#d9d9d9"
       d="m 853.7664,103.81233 h 75.74805 v 58.51968 H 853.7664 Z"
       fill-rule="evenodd"
       id="path271" />
    <path
       fill="#000000"
       fill-opacity="0"
       d="M 929.512,103.81233 H 881.4592"
       fill-rule="evenodd"
       id="path273" />
    <path
       stroke="#595959"
       stroke-width="1"
       stroke-linejoin="round"
       stroke-linecap="butt"
       stroke-dasharray="4, 3"
       d="M 929.512,103.81233 H 881.4592"
       fill-rule="evenodd"
       id="path275" />
    <path
       fill="#000000"
       fill-opacity="0"
       d="M 929.512,162.33202 H 881.4592"
       fill-rule="evenodd"
       id="path277" />
    <path
       stroke="#595959"
       stroke-width="1"
       stroke-linejoin="round"
       stroke-linecap="butt"
       stroke-dasharray="4, 3"
       d="M 929.512,162.33202 H 881.4592"
       fill-rule="evenodd"
       id="path279" />
    <path
       fill="#000000"
       fill-opacity="0"
       d="M 882.16125,162.33202 H 853.76641"
       fill-rule="evenodd"
       id="path281" />
    <path
       stroke="#595959"
       stroke-width="1"
       stroke-linejoin="round"
       stroke-linecap="butt"
       d="M 882.16125,162.33202 H 853.76641"
       fill-rule="evenodd"
       id="path283" />
    <path
       fill="#000000"
       fill-opacity="0"
       d="M 882.16125,103.81233 H 853.76641"
       fill-rule="evenodd"
       id="path285" />
    <path
       stroke="#595959"
       stroke-width="1"
       stroke-linejoin="round"
       stroke-linecap="butt"
       d="M 882.16125,103.81233 H 853.76641"
       fill-rule="evenodd"
       id="path287" />
    <path
       fill="#000000"
       fill-opacity="0"
       d="M 853.7664,162.32939 V 104.06167"
       fill-rule="evenodd"
       id="path289" />
    <path
       stroke="#595959"
       stroke-width="1"
       stroke-linejoin="round"
       stroke-linecap="butt"
       d="M 853.7664,162.32939 V 104.06167"
       fill-rule="evenodd"
       id="path291" />
    <path
       fill="#000000"
       fill-opacity="0"
       d="m 853.7664,115.08055 h 81.00787 v 37.16534 H 853.7664 Z"
       fill-rule="evenodd"
       id="path293" />
    <path
       fill="#000000"
       d="m 867.46954,129.81822 h -1.26562 q -0.0156,0.96875 -0.0156,1.92187 0,0.95313 0,2 h 1.125 q 1.1875,0 1.75,-0.5625 0.5625,-0.57812 0.5625,-1.45312 0,-0.9375 -0.51562,-1.42188 -0.51563,-0.48437 -1.64063,-0.48437 z m -4.0625,-0.0781 v -0.60937 h 4.10938 q 1.6875,0 2.625,0.6875 0.9375,0.67187 0.9375,1.89062 0,0.84375 -0.625,1.54688 -0.60938,0.70312 -1.84375,0.92187 0.65625,0.14063 1.0625,0.57813 0.42187,0.42187 0.67187,1.28125 l 0.625,2.17187 1.14063,0.14063 v 0.59375 q -0.23438,0.0625 -0.5,0.0937 -0.26563,0.0469 -0.60938,0.0469 -0.6875,0 -1.03125,-0.20312 -0.34375,-0.20313 -0.46875,-0.73438 l -0.59375,-2.34375 q -0.125,-0.59375 -0.375,-0.89062 -0.25,-0.3125 -0.64062,-0.40625 -0.39063,-0.10938 -0.98438,-0.10938 h -0.71875 q 0,1.0625 0,1.98438 0,0.92187 0.0156,1.79687 l 1.35937,0.17188 v 0.59375 h -4.15625 v -0.59375 l 1.35938,-0.17188 q 0.0156,-0.92187 0.0156,-1.875 0,-0.95312 0,-1.90625 v -0.71875 q 0,-0.95312 0,-1.89062 0,-0.95313 -0.0156,-1.89063 z m 12.69147,2.71875 q -0.40625,0 -0.82813,0.23438 -0.40625,0.23437 -0.71875,0.75 -0.29687,0.51562 -0.375,1.35937 h 2.65625 q 0.53125,0 0.70313,-0.21875 0.17187,-0.21875 0.17187,-0.53125 0,-0.42187 -0.21875,-0.78125 -0.21875,-0.35937 -0.57812,-0.57812 -0.35938,-0.23438 -0.8125,-0.23438 z m -0.0156,6.67188 q -1.46875,0 -2.375,-0.95313 -0.89062,-0.96875 -0.89062,-2.65625 0,-1.125 0.45312,-1.95312 0.46875,-0.84375 1.23438,-1.3125 0.78125,-0.46875 1.6875,-0.46875 0.76562,0 1.375,0.34375 0.625,0.32812 0.98437,0.95312 0.35938,0.625 0.35938,1.51563 0,0.25 -0.0312,0.46875 -0.0156,0.20312 -0.0625,0.35937 h -4.67188 q 0.0312,1.34375 0.67188,2.04688 0.64062,0.70312 1.70312,0.70312 0.70313,0 1.17188,-0.28125 0.46875,-0.28125 0.85937,-0.73437 l 0.34375,0.26562 q -0.40625,0.78125 -1.10937,1.25 -0.70313,0.45313 -1.70313,0.45313 z m 7.45911,0 q -1.5,0 -2.40625,-0.96875 -0.89063,-0.98438 -0.89063,-2.67188 0,-1.15625 0.46875,-1.98437 0.48438,-0.82813 1.26563,-1.26563 0.78125,-0.45312 1.65625,-0.45312 0.65625,0 1.21875,0.25 0.5625,0.25 0.92187,0.6875 0.35938,0.42187 0.45313,0.96875 -0.0937,0.5625 -0.67188,0.5625 -0.35937,0 -0.54687,-0.1875 -0.1875,-0.20313 -0.26563,-0.51563 l -0.26562,-0.96875 q -0.20313,-0.0781 -0.40625,-0.0937 -0.1875,-0.0312 -0.375,-0.0312 -0.9375,0 -1.54688,0.73438 -0.60937,0.73437 -0.60937,2.14062 0,1.375 0.65625,2.10938 0.65625,0.73437 1.6875,0.73437 0.625,0 1.15625,-0.28125 0.53125,-0.28125 0.85937,-0.82812 l 0.375,0.1875 q -0.3125,0.90625 -1,1.39062 -0.6875,0.48438 -1.73437,0.48438 z m 7.18353,-6.67188 q -0.40625,0 -0.82812,0.23438 -0.40625,0.23437 -0.71875,0.75 -0.29688,0.51562 -0.375,1.35937 h 2.65625 q 0.53125,0 0.70312,-0.21875 0.17188,-0.21875 0.17188,-0.53125 0,-0.42187 -0.21875,-0.78125 -0.21875,-0.35937 -0.57813,-0.57812 -0.35937,-0.23438 -0.8125,-0.23438 z m -0.0156,6.67188 q -1.46875,0 -2.375,-0.95313 -0.89063,-0.96875 -0.89063,-2.65625 0,-1.125 0.45313,-1.95312 0.46875,-0.84375 1.23437,-1.3125 0.78125,-0.46875 1.6875,-0.46875 0.76563,0 1.375,0.34375 0.625,0.32812 0.98438,0.95312 0.35937,0.625 0.35937,1.51563 0,0.25 -0.0312,0.46875 -0.0156,0.20312 -0.0625,0.35937 h -4.67187 q 0.0312,1.34375 0.67187,2.04688 0.64063,0.70312 1.70313,0.70312 0.70312,0 1.17187,-0.28125 0.46875,-0.28125 0.85938,-0.73437 l 0.34375,0.26562 q -0.40625,0.78125 -1.10938,1.25 -0.70312,0.45313 -1.70312,0.45313 z m 4.06842,-0.1875 V 138.412 l 1.09375,-0.20313 q 0.0156,-0.5625 0.0156,-1.20312 0.0156,-0.65625 0.0156,-1.14063 v -0.6875 q 0,-0.60937 -0.0156,-1 0,-0.40625 -0.0312,-0.84375 l -1.17187,-0.14062 v -0.51563 l 2.26562,-0.89062 0.21875,0.15625 -0.0469,1.98437 v 1.9375 q 0,0.48438 0,1.14063 0.0156,0.64062 0.0312,1.20312 l 1.01562,0.20313 v 0.53125 z m 1.73437,-8.76563 q -0.42187,0 -0.70312,-0.26562 -0.28125,-0.26563 -0.28125,-0.67188 0,-0.42187 0.28125,-0.67187 0.28125,-0.26563 0.70312,-0.26563 0.40625,0 0.6875,0.26563 0.28125,0.25 0.28125,0.67187 0,0.40625 -0.28125,0.67188 -0.28125,0.26562 -0.6875,0.26562 z m 6.38196,2.375 v -0.57812 h 2.78125 v 0.57812 l -0.79688,0.1875 -2.375,6.29688 h -0.64062 l -2.65625,-6.34375 -0.79688,-0.14063 v -0.57812 h 3.54688 v 0.57812 l -1.29688,0.1875 1.79688,4.6875 1.625,-4.67187 z m 6.56122,-0.0937 q -0.40625,0 -0.82813,0.23438 -0.40625,0.23437 -0.71875,0.75 -0.29687,0.51562 -0.375,1.35937 h 2.65625 q 0.53125,0 0.70313,-0.21875 0.17187,-0.21875 0.17187,-0.53125 0,-0.42187 -0.21875,-0.78125 -0.21875,-0.35937 -0.57812,-0.57812 -0.35938,-0.23438 -0.8125,-0.23438 z m -0.0156,6.67188 q -1.46875,0 -2.375,-0.95313 -0.89062,-0.96875 -0.89062,-2.65625 0,-1.125 0.45312,-1.95312 0.46875,-0.84375 1.23438,-1.3125 0.78125,-0.46875 1.6875,-0.46875 0.76562,0 1.375,0.34375 0.625,0.32812 0.98437,0.95312 0.35938,0.625 0.35938,1.51563 0,0.25 -0.0312,0.46875 -0.0156,0.20312 -0.0625,0.35937 h -4.67188 q 0.0312,1.34375 0.67188,2.04688 0.64062,0.70312 1.70312,0.70312 0.70313,0 1.17188,-0.28125 0.46875,-0.28125 0.85937,-0.73437 l 0.34375,0.26562 q -0.40625,0.78125 -1.10937,1.25 -0.70313,0.45313 -1.70313,0.45313 z m 4.16223,-0.1875 v -0.53125 l 1.0625,-0.1875 q 0.0156,-0.5625 0.0156,-1.20313 0.0156,-0.65625 0.0156,-1.15625 v -0.70312 q 0,-0.59375 -0.0156,-0.98438 0,-0.40625 -0.0312,-0.84375 l -1.15625,-0.14062 v -0.51563 l 2.04687,-0.89062 0.21875,0.15625 0.17188,1.71875 q 0.35937,-0.875 0.9375,-1.375 0.57812,-0.5 1.17187,-0.5 0.32813,0 0.625,0.15625 0.29688,0.14062 0.42188,0.39062 0,1.0625 -0.85938,1.0625 -0.25,0 -0.46875,-0.0937 -0.21875,-0.0937 -0.42187,-0.26562 l -0.1875,-0.15625 q -0.4375,0.3125 -0.73438,0.78125 -0.28125,0.46875 -0.46875,1.10937 v 1.09375 q 0,0.48438 0,1.14063 0,0.64062 0.0156,1.1875 l 1.20312,0.21875 v 0.53125 z"
       fill-rule="nonzero"
       id="path295" />
    <path
       fill="#000000"
       fill-opacity="0"
       d="M 732.2361,59.44957 H 944.80306 V 91.733033 H 732.2361 Z"
       fill-rule="evenodd"
       id="path297" />
    <path
       fill="#202122"
       d="m 732.7361,79.9113 v -0.4375 l 0.875,-0.15625 q 0,-0.453125 0,-0.984375 0.0156,-0.53125 0.0156,-0.9375 V 76.81755 q 0,-0.5 -0.0156,-0.8125 0,-0.328125 -0.0156,-0.6875 l -0.95312,-0.109375 V 74.7863 l 1.6875,-0.734375 0.17187,0.125 0.14063,1.421875 q 0.29687,-0.734375 0.76562,-1.140625 0.46875,-0.40625 0.95313,-0.40625 0.28125,0 0.51562,0.125 0.25,0.125 0.34375,0.328125 0,0.875 -0.70312,0.875 -0.20313,0 -0.39063,-0.07813 -0.17187,-0.07813 -0.34375,-0.234375 l -0.14062,-0.125 q -0.35938,0.265625 -0.60938,0.65625 -0.23437,0.375 -0.39062,0.890625 v 0.90625 q 0,0.390625 0,0.921875 0.0156,0.53125 0.0312,0.984375 l 0.98437,0.171875 v 0.4375 z m 7.69043,-5.296875 q -0.34375,0 -0.6875,0.1875 -0.34375,0.1875 -0.59375,0.609375 -0.23438,0.421875 -0.3125,1.109375 h 2.1875 q 0.4375,0 0.5625,-0.171875 0.14062,-0.1875 0.14062,-0.453125 0,-0.34375 -0.17187,-0.625 -0.17188,-0.296875 -0.46875,-0.46875 -0.29688,-0.1875 -0.65625,-0.1875 z m -0.0156,5.453125 q -1.21875,0 -1.95312,-0.78125 -0.71875,-0.796875 -0.71875,-2.171875 0,-0.921875 0.375,-1.609375 0.375,-0.6875 1,-1.0625 0.64062,-0.390625 1.375,-0.390625 0.625,0 1.125,0.28125 0.51562,0.28125 0.8125,0.796875 0.29687,0.5 0.29687,1.234375 0,0.203125 -0.0312,0.375 -0.0156,0.171875 -0.0469,0.296875 h -3.82813 q 0.0156,1.09375 0.54688,1.671875 0.53125,0.578125 1.39062,0.578125 0.57813,0 0.95313,-0.234375 0.39062,-0.234375 0.71875,-0.609375 l 0.28125,0.234375 q -0.32813,0.640625 -0.90625,1.015625 -0.57813,0.375 -1.39063,0.375 z m 7.76569,-0.03125 q -0.42187,0 -0.71875,-0.25 -0.28125,-0.265625 -0.35937,-0.671875 -0.48438,0.46875 -0.85938,0.71875 -0.375,0.234375 -0.90625,0.234375 -0.65625,0 -1.125,-0.375 -0.46875,-0.375 -0.46875,-1.125 0,-0.34375 0.15625,-0.640625 0.15625,-0.3125 0.59375,-0.59375 0.4375,-0.296875 1.23438,-0.578125 0.28125,-0.09375 0.64062,-0.203125 0.35938,-0.109375 0.71875,-0.1875 v -0.3125 q 0,-0.875 -0.26562,-1.15625 -0.26563,-0.28125 -0.85938,-0.28125 -0.14062,0 -0.3125,0.01563 -0.15625,0 -0.34375,0.04687 l -0.21875,0.78125 q -0.17187,0.578125 -0.625,0.578125 -0.51562,0 -0.5625,-0.5 0.15625,-0.671875 0.78125,-1.078125 0.64063,-0.40625 1.54688,-0.40625 0.95312,0 1.40625,0.484375 0.45312,0.46875 0.45312,1.609375 v 2.546875 q 0,0.390625 0.125,0.5625 0.125,0.15625 0.3125,0.15625 0.15625,0 0.26563,-0.0625 0.10937,-0.07813 0.20312,-0.203125 l 0.23438,0.265625 q -0.21875,0.34375 -0.48438,0.484375 -0.25,0.140625 -0.5625,0.140625 z m -3.375,-1.65625 q 0,0.484375 0.26563,0.6875 0.28125,0.203125 0.6875,0.203125 0.1875,0 0.34375,-0.04687 0.17187,-0.04687 0.39062,-0.1875 0.23438,-0.140625 0.59375,-0.390625 v -1.84375 q -0.3125,0.07813 -0.625,0.1875 -0.29687,0.109375 -0.48437,0.171875 -0.51563,0.203125 -0.76563,0.421875 -0.25,0.21875 -0.32812,0.421875 -0.0781,0.203125 -0.0781,0.375 z m 6.12366,-1.28125 q 0,1.171875 0.46875,1.734375 0.46875,0.546875 1.1875,0.546875 0.40625,0 0.70312,-0.15625 0.3125,-0.171875 0.64063,-0.53125 v -3.328125 q -0.40625,-0.359375 -0.73438,-0.484375 -0.3125,-0.140625 -0.60937,-0.140625 -0.45313,0 -0.82813,0.25 -0.375,0.234375 -0.60937,0.765625 -0.21875,0.515625 -0.21875,1.34375 z m 3.125,2.9375 -0.0781,-0.828125 q -0.3125,0.40625 -0.71875,0.640625 -0.40625,0.21875 -0.96875,0.21875 -0.73437,0 -1.28125,-0.375 -0.54687,-0.375 -0.85937,-1.03125 -0.29688,-0.671875 -0.29688,-1.546875 0,-0.921875 0.32813,-1.609375 0.34375,-0.6875 0.90625,-1.0625 0.57812,-0.390625 1.3125,-0.390625 0.42187,0 0.8125,0.171875 0.39062,0.171875 0.76562,0.609375 V 72.13005 l -1.03125,-0.125 v -0.421875 l 1.875,-0.546875 0.17188,0.109375 -0.0469,1.703125 v 6.484375 l 0.96875,0.140625 v 0.4375 z m 5.73095,-5.390625 v -0.4375 h 2.34375 v 0.4375 l -0.64062,0.125 -1.9375,5.109375 q -0.59375,1.59375 -1.15625,2.296875 -0.5625,0.71875 -1.29688,0.71875 -0.45312,0 -0.78125,-0.21875 -0.32812,-0.21875 -0.32812,-0.5625 0.0625,-0.265625 0.29687,-0.40625 0.23438,-0.125 0.5,-0.125 0.25,0 0.45313,0.09375 0.20312,0.109375 0.4375,0.359375 l 0.0625,0.0625 q 0.39062,-0.328125 0.64062,-0.796875 0.26563,-0.453125 0.4375,-0.9375 l 0.0469,-0.140625 -2.17188,-5.484375 -0.65625,-0.09375 v -0.4375 h 2.875 V 74.6613 l -1.04687,0.109375 1.5,4.09375 1.46875,-4.078125 z m 4.26905,1.921875 q 0,0.96875 0.15625,1.8125 0.17187,0.828125 0.57812,1.6875 0.40625,0.859375 1.10938,1.875 l -0.3125,0.265625 q -1.26563,-1.1875 -1.89063,-2.578125 -0.60937,-1.40625 -0.60937,-3.0625 0,-1.640625 0.60937,-3.03125 0.625,-1.40625 1.89063,-2.59375 l 0.3125,0.265625 q -0.70313,1.015625 -1.10938,1.875 -0.40625,0.859375 -0.57812,1.703125 -0.15625,0.828125 -0.15625,1.78125 z m 2.56799,6.21875 v -0.421875 l 0.95313,-0.171875 q 0.0156,-0.5 0.0156,-0.984375 0.0156,-0.484375 0.0156,-0.953125 v -3.4375 q 0,-0.5 -0.0156,-0.8125 0,-0.328125 -0.0156,-0.6875 l -0.95313,-0.109375 V 74.7863 l 1.67188,-0.734375 0.1875,0.125 0.0781,0.78125 q 0.84375,-0.90625 1.79688,-0.90625 0.65625,0 1.17187,0.359375 0.51563,0.359375 0.8125,1.03125 0.3125,0.671875 0.3125,1.59375 0,0.9375 -0.32812,1.609375 -0.3125,0.671875 -0.875,1.046875 -0.5625,0.375 -1.26563,0.375 -0.40625,0 -0.8125,-0.171875 Q 768.962,79.7238 768.587,79.2863 v 0.953125 q 0,0.46875 0,0.953125 0.0156,0.5 0.0156,0.984375 l 1.09375,0.1875 V 82.7863 Z m 3.45313,-8.046875 q -0.28125,0 -0.64063,0.140625 -0.35937,0.140625 -0.8125,0.515625 v 3.375 q 0.34375,0.328125 0.65625,0.46875 0.32813,0.140625 0.67188,0.140625 0.67187,0 1.14062,-0.53125 0.48438,-0.546875 0.48438,-1.703125 0,-1.15625 -0.42188,-1.78125 -0.42187,-0.625 -1.07812,-0.625 z m 5.44354,4.828125 q 0,0.71875 -0.34375,1.328125 -0.34375,0.609375 -0.875,1.046875 -0.53125,0.4375 -1.10938,0.65625 l -0.15625,-0.40625 q 0.60938,-0.3125 1.07813,-0.765625 0.46875,-0.4375 0.6875,-1.109375 l -0.45313,-0.34375 q -0.23437,-0.1875 -0.34375,-0.40625 -0.10937,-0.234375 -0.10937,-0.453125 0,-0.3125 0.1875,-0.53125 0.1875,-0.234375 0.5625,-0.234375 0.15625,0 0.32812,0.07813 0.1875,0.0625 0.40625,0.265625 0.0781,0.234375 0.10938,0.453125 0.0312,0.203125 0.0312,0.421875 z m 5.75543,-3 q 0,0.96875 0.15625,1.8125 0.17188,0.828125 0.57813,1.6875 0.40625,0.859375 1.10937,1.875 l -0.3125,0.265625 q -1.26562,-1.1875 -1.89062,-2.578125 -0.60938,-1.40625 -0.60938,-3.0625 0,-1.640625 0.60938,-3.03125 0.625,-1.40625 1.89062,-2.59375 l 0.3125,0.265625 q -0.70312,1.015625 -1.10937,1.875 -0.40625,0.859375 -0.57813,1.703125 -0.15625,0.828125 -0.15625,1.78125 z m 7.13049,3.46875 q -0.42187,0 -0.71875,-0.25 -0.28125,-0.265625 -0.35937,-0.671875 -0.48438,0.46875 -0.85938,0.71875 -0.375,0.234375 -0.90625,0.234375 -0.65625,0 -1.125,-0.375 -0.46875,-0.375 -0.46875,-1.125 0,-0.34375 0.15625,-0.640625 0.15625,-0.3125 0.59375,-0.59375 0.4375,-0.296875 1.23438,-0.578125 0.28125,-0.09375 0.64062,-0.203125 0.35938,-0.109375 0.71875,-0.1875 v -0.3125 q 0,-0.875 -0.26562,-1.15625 -0.26563,-0.28125 -0.85938,-0.28125 -0.14062,0 -0.3125,0.01563 -0.15625,0 -0.34375,0.04687 l -0.21875,0.78125 q -0.17187,0.578125 -0.625,0.578125 -0.51562,0 -0.5625,-0.5 0.15625,-0.671875 0.78125,-1.078125 0.64063,-0.40625 1.54688,-0.40625 0.95312,0 1.40625,0.484375 0.45312,0.46875 0.45312,1.609375 v 2.546875 q 0,0.390625 0.125,0.5625 0.125,0.15625 0.3125,0.15625 0.15625,0 0.26563,-0.0625 0.10937,-0.07813 0.20312,-0.203125 l 0.23438,0.265625 q -0.21875,0.34375 -0.48438,0.484375 -0.25,0.140625 -0.5625,0.140625 z m -3.375,-1.65625 q 0,0.484375 0.26563,0.6875 0.28125,0.203125 0.6875,0.203125 0.1875,0 0.34375,-0.04687 0.17187,-0.04687 0.39062,-0.1875 0.23438,-0.140625 0.59375,-0.390625 v -1.84375 q -0.3125,0.07813 -0.625,0.1875 -0.29687,0.109375 -0.48437,0.171875 -0.51563,0.203125 -0.76563,0.421875 -0.25,0.21875 -0.32812,0.421875 -0.0781,0.203125 -0.0781,0.375 z m 7.93055,-3.703125 v -0.46875 h 2.28125 v 0.46875 l -0.65625,0.15625 -1.95313,5.15625 h -0.51562 l -2.1875,-5.1875 -0.64063,-0.125 v -0.46875 h 2.90625 v 0.46875 l -1.0625,0.15625 1.46875,3.84375 1.32813,-3.828125 z m 7.18054,5.359375 q -0.42188,0 -0.71875,-0.25 -0.28125,-0.265625 -0.35938,-0.671875 -0.48437,0.46875 -0.85937,0.71875 -0.375,0.234375 -0.90625,0.234375 -0.65625,0 -1.125,-0.375 -0.46875,-0.375 -0.46875,-1.125 0,-0.34375 0.15625,-0.640625 0.15625,-0.3125 0.59375,-0.59375 0.4375,-0.296875 1.23437,-0.578125 0.28125,-0.09375 0.64063,-0.203125 0.35937,-0.109375 0.71875,-0.1875 v -0.3125 q 0,-0.875 -0.26563,-1.15625 -0.26562,-0.28125 -0.85937,-0.28125 -0.14063,0 -0.3125,0.01563 -0.15625,0 -0.34375,0.04687 l -0.21875,0.78125 q -0.17188,0.578125 -0.625,0.578125 -0.51563,0 -0.5625,-0.5 0.15625,-0.671875 0.78125,-1.078125 0.64062,-0.40625 1.54687,-0.40625 0.95313,0 1.40625,0.484375 0.45313,0.46875 0.45313,1.609375 v 2.546875 q 0,0.390625 0.125,0.5625 0.125,0.15625 0.3125,0.15625 0.15625,0 0.26562,-0.0625 0.10938,-0.07813 0.20313,-0.203125 l 0.23437,0.265625 q -0.21875,0.34375 -0.48437,0.484375 -0.25,0.140625 -0.5625,0.140625 z m -3.375,-1.65625 q 0,0.484375 0.26562,0.6875 0.28125,0.203125 0.6875,0.203125 0.1875,0 0.34375,-0.04687 0.17188,-0.04687 0.39063,-0.1875 0.23437,-0.140625 0.59375,-0.390625 v -1.84375 q -0.3125,0.07813 -0.625,0.1875 -0.29688,0.109375 -0.48438,0.171875 -0.51562,0.203125 -0.76562,0.421875 -0.25,0.21875 -0.32813,0.421875 -0.0781,0.203125 -0.0781,0.375 z m 4.92059,1.53125 v -0.4375 l 0.89063,-0.15625 q 0.0156,-0.46875 0.0156,-1 0.0156,-0.53125 0.0156,-0.921875 v -0.5625 q 0,-0.5 -0.0156,-0.828125 0,-0.328125 -0.0156,-0.6875 l -0.96875,-0.109375 V 74.7863 l 1.85937,-0.734375 0.17188,0.125 -0.0312,1.625 v 1.59375 q 0,0.390625 0,0.921875 0.0156,0.53125 0.0156,1 l 0.84375,0.15625 v 0.4375 z m 1.42188,-7.171875 q -0.34375,0 -0.57813,-0.21875 -0.23437,-0.21875 -0.23437,-0.546875 0,-0.359375 0.23437,-0.5625 0.23438,-0.21875 0.57813,-0.21875 0.32812,0 0.5625,0.21875 0.23437,0.203125 0.23437,0.5625 0,0.328125 -0.23437,0.546875 -0.23438,0.21875 -0.5625,0.21875 z m 2.02911,7.171875 v -0.4375 l 0.96875,-0.15625 q 0,-0.5 0,-0.96875 0.0156,-0.484375 0.0156,-0.953125 V 72.13005 l -0.98437,-0.125 v -0.421875 l 1.875,-0.546875 0.17187,0.109375 -0.0469,1.703125 v 4.546875 q 0,0.46875 0,0.953125 0,0.484375 0.0156,0.96875 l 0.96875,0.15625 v 0.4375 z m 5.84167,-0.34375 q 0,0.71875 -0.34375,1.328125 -0.34375,0.609375 -0.875,1.046875 -0.53125,0.4375 -1.10937,0.65625 l -0.15625,-0.40625 q 0.60937,-0.3125 1.07812,-0.765625 0.46875,-0.4375 0.6875,-1.109375 L 809.8033,79.9738 q -0.23438,-0.1875 -0.34375,-0.40625 -0.10938,-0.234375 -0.10938,-0.453125 0,-0.3125 0.1875,-0.53125 0.1875,-0.234375 0.5625,-0.234375 0.15625,0 0.32813,0.07813 0.1875,0.0625 0.40625,0.265625 0.0781,0.234375 0.10937,0.453125 0.0312,0.203125 0.0312,0.421875 z m 4.3335,0.34375 v -0.4375 l 0.875,-0.15625 q 0,-0.453125 0,-0.984375 0.0156,-0.53125 0.0156,-0.9375 V 76.81755 q 0,-0.5 -0.0156,-0.8125 0,-0.328125 -0.0156,-0.6875 l -0.95313,-0.109375 V 74.7863 l 1.6875,-0.734375 0.17188,0.125 0.14062,1.421875 q 0.29688,-0.734375 0.76563,-1.140625 0.46875,-0.40625 0.95312,-0.40625 0.28125,0 0.51563,0.125 0.25,0.125 0.34375,0.328125 0,0.875 -0.70313,0.875 -0.20312,0 -0.39062,-0.07813 -0.17188,-0.07813 -0.34375,-0.234375 l -0.14063,-0.125 q -0.35937,0.265625 -0.60937,0.65625 -0.23438,0.375 -0.39063,0.890625 v 0.90625 q 0,0.390625 0,0.921875 0.0156,0.53125 0.0312,0.984375 l 0.98438,0.171875 v 0.4375 z m 6.46466,-3.34375 q 0,-0.953125 -0.17187,-1.78125 -0.15625,-0.84375 -0.5625,-1.703125 -0.39063,-0.859375 -1.10938,-1.875 l 0.3125,-0.265625 q 1.28125,1.1875 1.89063,2.59375 0.60937,1.390625 0.60937,3.03125 0,1.65625 -0.60937,3.0625 -0.60938,1.390625 -1.89063,2.578125 l -0.3125,-0.265625 q 0.71875,-1.015625 1.10938,-1.875 0.40625,-0.859375 0.5625,-1.6875 0.17187,-0.84375 0.17187,-1.8125 z m 3.45606,0 q 0,-0.953125 -0.17188,-1.78125 -0.15625,-0.84375 -0.5625,-1.703125 -0.39062,-0.859375 -1.10937,-1.875 l 0.3125,-0.265625 q 1.28125,1.1875 1.89062,2.59375 0.60938,1.390625 0.60938,3.03125 0,1.65625 -0.60938,3.0625 -0.60937,1.390625 -1.89062,2.578125 l -0.3125,-0.265625 q 0.71875,-1.015625 1.10937,-1.875 0.40625,-0.859375 0.5625,-1.6875 0.17188,-0.84375 0.17188,-1.8125 z m 10.75463,0.9375 h -5.6875 v -0.6875 h 5.6875 z m 0,-2.40625 h -5.6875 v -0.6875 h 5.6875 z m 8.12122,4.9375 q -0.42187,0 -0.71875,-0.25 -0.28125,-0.265625 -0.35937,-0.671875 -0.48438,0.46875 -0.85938,0.71875 -0.375,0.234375 -0.90625,0.234375 -0.65625,0 -1.125,-0.375 -0.46875,-0.375 -0.46875,-1.125 0,-0.34375 0.15625,-0.640625 0.15625,-0.3125 0.59375,-0.59375 0.4375,-0.296875 1.23438,-0.578125 0.28125,-0.09375 0.64062,-0.203125 0.35938,-0.109375 0.71875,-0.1875 v -0.3125 q 0,-0.875 -0.26562,-1.15625 -0.26563,-0.28125 -0.85938,-0.28125 -0.14062,0 -0.3125,0.01563 -0.15625,0 -0.34375,0.04687 l -0.21875,0.78125 q -0.17187,0.578125 -0.625,0.578125 -0.51562,0 -0.5625,-0.5 0.15625,-0.671875 0.78125,-1.078125 0.64063,-0.40625 1.54688,-0.40625 0.95312,0 1.40625,0.484375 0.45312,0.46875 0.45312,1.609375 v 2.546875 q 0,0.390625 0.125,0.5625 0.125,0.15625 0.3125,0.15625 0.15625,0 0.26563,-0.0625 0.10937,-0.07813 0.20312,-0.203125 l 0.23438,0.265625 q -0.21875,0.34375 -0.48438,0.484375 -0.25,0.140625 -0.5625,0.140625 z m -3.375,-1.65625 q 0,0.484375 0.26563,0.6875 0.28125,0.203125 0.6875,0.203125 0.1875,0 0.34375,-0.04687 0.17187,-0.04687 0.39062,-0.1875 0.23438,-0.140625 0.59375,-0.390625 v -1.84375 q -0.3125,0.07813 -0.625,0.1875 -0.29687,0.109375 -0.48437,0.171875 -0.51563,0.203125 -0.76563,0.421875 -0.25,0.21875 -0.32812,0.421875 -0.0781,0.203125 -0.0781,0.375 z m 7.93054,-3.703125 v -0.46875 h 2.28125 v 0.46875 l -0.65625,0.15625 -1.95312,5.15625 h -0.51563 l -2.1875,-5.1875 -0.64062,-0.125 v -0.46875 h 2.90625 v 0.46875 l -1.0625,0.15625 1.46875,3.84375 1.32812,-3.828125 z m 7.18054,5.359375 q -0.42187,0 -0.71875,-0.25 -0.28125,-0.265625 -0.35937,-0.671875 -0.48438,0.46875 -0.85938,0.71875 -0.375,0.234375 -0.90625,0.234375 -0.65625,0 -1.125,-0.375 -0.46875,-0.375 -0.46875,-1.125 0,-0.34375 0.15625,-0.640625 0.15625,-0.3125 0.59375,-0.59375 0.4375,-0.296875 1.23438,-0.578125 0.28125,-0.09375 0.64062,-0.203125 0.35938,-0.109375 0.71875,-0.1875 v -0.3125 q 0,-0.875 -0.26562,-1.15625 -0.26563,-0.28125 -0.85938,-0.28125 -0.14062,0 -0.3125,0.01563 -0.15625,0 -0.34375,0.04687 l -0.21875,0.78125 q -0.17187,0.578125 -0.625,0.578125 -0.51562,0 -0.5625,-0.5 0.15625,-0.671875 0.78125,-1.078125 0.64063,-0.40625 1.54688,-0.40625 0.95312,0 1.40625,0.484375 0.45312,0.46875 0.45312,1.609375 v 2.546875 q 0,0.390625 0.125,0.5625 0.125,0.15625 0.3125,0.15625 0.15625,0 0.26563,-0.0625 0.10937,-0.07813 0.20312,-0.203125 l 0.23438,0.265625 q -0.21875,0.34375 -0.48438,0.484375 -0.25,0.140625 -0.5625,0.140625 z m -3.375,-1.65625 q 0,0.484375 0.26563,0.6875 0.28125,0.203125 0.6875,0.203125 0.1875,0 0.34375,-0.04687 0.17187,-0.04687 0.39062,-0.1875 0.23438,-0.140625 0.59375,-0.390625 v -1.84375 q -0.3125,0.07813 -0.625,0.1875 -0.29687,0.109375 -0.48437,0.171875 -0.51563,0.203125 -0.76563,0.421875 -0.25,0.21875 -0.32812,0.421875 -0.0781,0.203125 -0.0781,0.375 z m 4.92054,1.53125 v -0.4375 l 0.89062,-0.15625 q 0.0156,-0.46875 0.0156,-1 0.0156,-0.53125 0.0156,-0.921875 v -0.5625 q 0,-0.5 -0.0156,-0.828125 0,-0.328125 -0.0156,-0.6875 l -0.96875,-0.109375 V 74.7863 l 1.85938,-0.734375 0.17187,0.125 -0.0312,1.625 v 1.59375 q 0,0.390625 0,0.921875 0.0156,0.53125 0.0156,1 l 0.84375,0.15625 v 0.4375 z m 1.42187,-7.171875 q -0.34375,0 -0.57812,-0.21875 -0.23438,-0.21875 -0.23438,-0.546875 0,-0.359375 0.23438,-0.5625 0.23437,-0.21875 0.57812,-0.21875 0.32813,0 0.5625,0.21875 0.23438,0.203125 0.23438,0.5625 0,0.328125 -0.23438,0.546875 -0.23437,0.21875 -0.5625,0.21875 z m 2.02918,7.171875 v -0.4375 l 0.96875,-0.15625 q 0,-0.5 0,-0.96875 0.0156,-0.484375 0.0156,-0.953125 V 72.13005 l -0.98437,-0.125 v -0.421875 l 1.875,-0.546875 0.17187,0.109375 -0.0469,1.703125 v 4.546875 q 0,0.46875 0,0.953125 0,0.484375 0.0156,0.96875 l 0.96875,0.15625 v 0.4375 z"
       fill-rule="nonzero"
       id="path299" />
    <path
       fill="#000000"
       fill-opacity="0"
       d="m 658.27295,67.30699 h 291.0866 v 99.37007 h -291.0866 z"
       fill-rule="evenodd"
       id="path305" />
  </g>
</svg>
