<?xml version="1.0" encoding="UTF-8" standalone="no"?>
<svg
   xmlns:dc="http://purl.org/dc/elements/1.1/"
   xmlns:cc="http://creativecommons.org/ns#"
   xmlns:rdf="http://www.w3.org/1999/02/22-rdf-syntax-ns#"
   xmlns:svg="http://www.w3.org/2000/svg"
   xmlns="http://www.w3.org/2000/svg"
   xmlns:sodipodi="http://sodipodi.sourceforge.net/DTD/sodipodi-0.dtd"
   xmlns:inkscape="http://www.inkscape.org/namespaces/inkscape"
   version="1.1"
   viewBox="0 0 285.56696 78.354324"
   stroke-miterlimit="10"
   id="svg261"
   sodipodi:docname="hazard.svg"
   width="285.56696"
   height="78.354324"
   style="fill:none;stroke:none;stroke-linecap:square;stroke-miterlimit:10"
   inkscape:version="0.92.5 (2060ec1f9f, 2020-04-08)">
  <metadata
     id="metadata267">
    <rdf:RDF>
      <cc:Work
         rdf:about="">
        <dc:format>image/svg+xml</dc:format>
        <dc:type
           rdf:resource="http://purl.org/dc/dcmitype/StillImage" />
        <dc:title></dc:title>
      </cc:Work>
    </rdf:RDF>
  </metadata>
  <defs
     id="defs265" />
  <sodipodi:namedview
     pagecolor="#ffffff"
     bordercolor="#666666"
     borderopacity="1"
     objecttolerance="10"
     gridtolerance="10"
     guidetolerance="10"
     inkscape:pageopacity="0"
     inkscape:pageshadow="2"
     inkscape:window-width="1818"
     inkscape:window-height="1307"
     id="namedview263"
     showgrid="false"
     inkscape:zoom="1.4458333"
     inkscape:cx="280.54559"
     inkscape:cy="88.560869"
     inkscape:window-x="72"
     inkscape:window-y="27"
     inkscape:window-maximized="0"
     inkscape:current-layer="g259" />
  <clipPath
     id="g2f80604df9e_0_0.0">
    <path
       d="M 0,0 H 960 V 540 H 0 Z"
       id="path2"
       inkscape:connector-curvature="0"
       style="clip-rule:nonzero" />
  </clipPath>
  <g
     clip-path="url(#g2f80604df9e_0_0.0)"
     id="g259"
     transform="translate(-138.26115,-219.1378)">
    <path
       d="m 138.76115,219.6378 h 284.56696 v 77.35432 H 138.76115 Z"
       id="path11"
       inkscape:connector-curvature="0"
       style="fill:#000000;fill-opacity:0;fill-rule:evenodd" />
    <path
       d="M 334.28967,282.3071 H 227.80148"
       id="path15"
       inkscape:connector-curvature="0"
       style="fill:#000000;fill-opacity:0;fill-rule:evenodd" />
    <path
       d="M 334.28967,282.3071 H 239.80148"
       id="path17"
       inkscape:connector-curvature="0"
       style="fill-rule:evenodd;stroke:#1c4587;stroke-width:2;stroke-linecap:butt;stroke-linejoin:round" />
    <path
       d="m 239.80148,279.00363 -9.07619,3.30347 9.07619,3.30346 z"
       id="path19"
       inkscape:connector-curvature="0"
       style="fill:#1c4587;fill-rule:evenodd;stroke:#1c4587;stroke-width:2;stroke-linecap:butt" />
    <path
       d="m 221.64305,264.60373 h 118.86613 v 14.55118 H 221.64305 Z"
       id="path21"
       inkscape:connector-curvature="0"
       style="fill:#000000;fill-opacity:0;fill-rule:evenodd" />
    <path
       d="m 259.96396,276.12372 v -0.4375 l 0.875,-0.15625 q 0,-0.45313 0,-0.98438 0.0156,-0.53125 0.0156,-0.9375 v -0.57812 q 0,-0.5 -0.0156,-0.8125 0,-0.32813 -0.0156,-0.6875 l -0.95312,-0.10938 v -0.42187 l 1.6875,-0.73438 0.17187,0.125 0.14063,1.42188 q 0.29687,-0.73438 0.76562,-1.14063 0.46875,-0.40625 0.95313,-0.40625 0.28125,0 0.51562,0.125 0.25,0.125 0.34375,0.32813 0,0.875 -0.70312,0.875 -0.20313,0 -0.39063,-0.0781 -0.17187,-0.0781 -0.34375,-0.23437 l -0.14062,-0.125 q -0.35938,0.26562 -0.60938,0.65625 -0.23437,0.375 -0.39062,0.89062 v 0.90625 q 0,0.39063 0,0.92188 0.0156,0.53125 0.0312,0.98437 l 0.98437,0.17188 v 0.4375 z m 7.69043,-5.29688 q -0.34375,0 -0.6875,0.1875 -0.34375,0.1875 -0.59375,0.60938 -0.23438,0.42187 -0.3125,1.10937 h 2.1875 q 0.4375,0 0.5625,-0.17187 0.14062,-0.1875 0.14062,-0.45313 0,-0.34375 -0.17187,-0.625 -0.17188,-0.29687 -0.46875,-0.46875 -0.29688,-0.1875 -0.65625,-0.1875 z m -0.0156,5.45313 q -1.21875,0 -1.95312,-0.78125 -0.71875,-0.79688 -0.71875,-2.17188 0,-0.92187 0.375,-1.60937 0.375,-0.6875 1,-1.0625 0.64062,-0.39063 1.375,-0.39063 0.625,0 1.125,0.28125 0.51562,0.28125 0.8125,0.79688 0.29687,0.5 0.29687,1.23437 0,0.20313 -0.0312,0.375 -0.0156,0.17188 -0.0469,0.29688 h -3.82813 q 0.0156,1.09375 0.54688,1.67187 0.53125,0.57813 1.39062,0.57813 0.57813,0 0.95313,-0.23438 0.39062,-0.23437 0.71875,-0.60937 l 0.28125,0.23437 q -0.32813,0.64063 -0.90625,1.01563 -0.57813,0.375 -1.39063,0.375 z m 5.30753,0 q -0.51562,0 -0.9375,-0.125 -0.40625,-0.10938 -0.85937,-0.32813 l -0.0469,-1.32812 h 0.65625 l 0.23438,1.04687 q 0.42187,0.1875 0.96875,0.1875 0.6875,0 1.01562,-0.25 0.32813,-0.25 0.32813,-0.65625 0,-0.39062 -0.28125,-0.60937 -0.26563,-0.23438 -0.82813,-0.4375 l -0.5625,-0.20313 q -0.65625,-0.23437 -1.0625,-0.60937 -0.39062,-0.39063 -0.39062,-1 0,-0.45313 0.23437,-0.82813 0.25,-0.39062 0.71875,-0.625 0.46875,-0.25 1.14063,-0.25 0.5,0 0.89062,0.125 0.40625,0.125 0.79688,0.375 l -0.0469,1.21875 h -0.625 l -0.20312,-0.95312 q -0.40625,-0.20313 -0.82813,-0.20313 -0.54687,0 -0.82812,0.21875 -0.28125,0.21875 -0.28125,0.59375 0,0.39063 0.23437,0.59375 0.25,0.20313 0.875,0.4375 l 0.35938,0.125 q 0.90625,0.34375 1.28125,0.78125 0.375,0.42188 0.375,0.98438 0,0.45312 -0.26563,0.84375 -0.25,0.39062 -0.76562,0.64062 -0.51563,0.23438 -1.29688,0.23438 z m 6.08304,0 q -0.6875,0 -1.32813,-0.32813 -0.625,-0.32812 -1.01562,-1 -0.39063,-0.67187 -0.39063,-1.64062 0,-1 0.39063,-1.67188 0.39062,-0.6875 1.01562,-1.03125 0.64063,-0.34375 1.32813,-0.34375 0.70312,0 1.32812,0.34375 0.64063,0.34375 1.03125,1.03125 0.40625,0.67188 0.40625,1.67188 0,0.96875 -0.40625,1.64062 -0.39062,0.67188 -1.03125,1 -0.625,0.32813 -1.32812,0.32813 z m 0,-0.54688 q 0.78125,0 1.20312,-0.60937 0.42188,-0.625 0.42188,-1.8125 0,-1.21875 -0.42188,-1.84375 -0.42187,-0.64063 -1.20312,-0.64063 -0.76563,0 -1.1875,0.64063 -0.40625,0.625 -0.40625,1.84375 0,1.1875 0.40625,1.8125 0.42187,0.60937 1.1875,0.60937 z m 3.48367,0.39063 v -0.4375 l 0.96875,-0.15625 q 0,-0.5 0,-0.96875 0.0156,-0.48438 0.0156,-0.95313 v -5.26562 l -0.98438,-0.125 v -0.42188 l 1.875,-0.54687 0.17188,0.10937 -0.0469,1.70313 v 4.54687 q 0,0.46875 0,0.95313 0,0.48437 0.0156,0.96875 l 0.96875,0.15625 v 0.4375 z m 6.83103,-5.23438 v -0.46875 h 2.28125 v 0.46875 l -0.65625,0.15625 -1.95313,5.15625 h -0.51562 l -2.1875,-5.1875 -0.64063,-0.125 v -0.46875 h 2.90625 v 0.46875 l -1.0625,0.15625 1.46875,3.84375 1.32813,-3.82812 z m 5.38253,-0.0625 q -0.34375,0 -0.6875,0.1875 -0.34375,0.1875 -0.59375,0.60938 -0.23437,0.42187 -0.3125,1.10937 h 2.1875 q 0.4375,0 0.5625,-0.17187 0.14063,-0.1875 0.14063,-0.45313 0,-0.34375 -0.17188,-0.625 -0.17187,-0.29687 -0.46875,-0.46875 -0.29687,-0.1875 -0.65625,-0.1875 z m -0.0156,5.45313 q -1.21875,0 -1.95313,-0.78125 -0.71875,-0.79688 -0.71875,-2.17188 0,-0.92187 0.375,-1.60937 0.375,-0.6875 1,-1.0625 0.64063,-0.39063 1.375,-0.39063 0.625,0 1.125,0.28125 0.51563,0.28125 0.8125,0.79688 0.29688,0.5 0.29688,1.23437 0,0.20313 -0.0312,0.375 -0.0156,0.17188 -0.0469,0.29688 h -3.82812 q 0.0156,1.09375 0.54687,1.67187 0.53125,0.57813 1.39063,0.57813 0.57812,0 0.95312,-0.23438 0.39063,-0.23437 0.71875,-0.60937 l 0.28125,0.23437 q -0.32812,0.64063 -0.90625,1.01563 -0.57812,0.375 -1.39062,0.375 z m 3.4013,-0.15625 v -0.4375 l 0.875,-0.15625 q 0,-0.45313 0,-0.98438 0.0156,-0.53125 0.0156,-0.9375 v -0.57812 q 0,-0.5 -0.0156,-0.8125 0,-0.32813 -0.0156,-0.6875 l -0.95313,-0.10938 v -0.42187 l 1.6875,-0.73438 0.17188,0.125 0.14062,1.42188 q 0.29688,-0.73438 0.76563,-1.14063 0.46875,-0.40625 0.95312,-0.40625 0.28125,0 0.51563,0.125 0.25,0.125 0.34375,0.32813 0,0.875 -0.70313,0.875 -0.20312,0 -0.39062,-0.0781 -0.17188,-0.0781 -0.34375,-0.23437 l -0.14063,-0.125 q -0.35937,0.26562 -0.60937,0.65625 -0.23438,0.375 -0.39063,0.89062 v 0.90625 q 0,0.39063 0,0.92188 0.0156,0.53125 0.0312,0.98437 l 0.98438,0.17188 v 0.4375 z"
       id="path23"
       inkscape:connector-curvature="0"
       style="fill:#000000;fill-rule:nonzero" />
    <path
       d="m 221.64305,225.91583 h 118.86613 v 14.55118 H 221.64305 Z"
       id="path25"
       inkscape:connector-curvature="0"
       style="fill:#000000;fill-opacity:0;fill-rule:evenodd" />
    <path
       d="m 260.51584,240.31082 v -0.42188 l 0.95313,-0.17187 q 0.0156,-0.5 0.0156,-0.98438 0.0156,-0.48437 0.0156,-0.95312 v -3.4375 q 0,-0.5 -0.0156,-0.8125 0,-0.32813 -0.0156,-0.6875 l -0.95313,-0.10938 v -0.42187 l 1.67188,-0.73438 0.1875,0.125 0.0781,0.78125 q 0.84375,-0.90625 1.79688,-0.90625 0.65625,0 1.17187,0.35938 0.51563,0.35937 0.8125,1.03125 0.3125,0.67187 0.3125,1.59375 0,0.9375 -0.32812,1.60937 -0.3125,0.67188 -0.875,1.04688 -0.5625,0.375 -1.26563,0.375 -0.40625,0 -0.8125,-0.17188 -0.40625,-0.17187 -0.78125,-0.60937 v 0.95312 q 0,0.46875 0,0.95313 0.0156,0.5 0.0156,0.98437 l 1.09375,0.1875 v 0.42188 z m 3.45313,-8.04688 q -0.28125,0 -0.64063,0.14063 -0.35937,0.14062 -0.8125,0.51562 v 3.375 q 0.34375,0.32813 0.65625,0.46875 0.32813,0.14063 0.67188,0.14063 0.67187,0 1.14062,-0.53125 0.48438,-0.54688 0.48438,-1.70313 0,-1.15625 -0.42188,-1.78125 -0.42187,-0.625 -1.07812,-0.625 z m 8.10543,5.29688 q -0.42187,0 -0.71875,-0.25 -0.28125,-0.26563 -0.35937,-0.67188 -0.48438,0.46875 -0.85938,0.71875 -0.375,0.23438 -0.90625,0.23438 -0.65625,0 -1.125,-0.375 -0.46875,-0.375 -0.46875,-1.125 0,-0.34375 0.15625,-0.64063 0.15625,-0.3125 0.59375,-0.59375 0.4375,-0.29687 1.23438,-0.57812 0.28125,-0.0937 0.64062,-0.20313 0.35938,-0.10937 0.71875,-0.1875 v -0.3125 q 0,-0.875 -0.26562,-1.15625 -0.26563,-0.28125 -0.85938,-0.28125 -0.14062,0 -0.3125,0.0156 -0.15625,0 -0.34375,0.0469 l -0.21875,0.78125 q -0.17187,0.57813 -0.625,0.57813 -0.51562,0 -0.5625,-0.5 0.15625,-0.67188 0.78125,-1.07813 0.64063,-0.40625 1.54688,-0.40625 0.95312,0 1.40625,0.48438 0.45312,0.46875 0.45312,1.60937 v 2.54688 q 0,0.39062 0.125,0.5625 0.125,0.15625 0.3125,0.15625 0.15625,0 0.26563,-0.0625 0.10937,-0.0781 0.20312,-0.20313 l 0.23438,0.26563 q -0.21875,0.34375 -0.48438,0.48437 -0.25,0.14063 -0.5625,0.14063 z m -3.375,-1.65625 q 0,0.48437 0.26563,0.6875 0.28125,0.20312 0.6875,0.20312 0.1875,0 0.34375,-0.0469 0.17187,-0.0469 0.39062,-0.1875 0.23438,-0.14063 0.59375,-0.39063 v -1.84375 q -0.3125,0.0781 -0.625,0.1875 -0.29687,0.10938 -0.48437,0.17188 -0.51563,0.20312 -0.76563,0.42187 -0.25,0.21875 -0.32812,0.42188 -0.0781,0.20312 -0.0781,0.375 z m 8.17554,-3.73438 v -0.4375 h 2.34375 v 0.4375 l -0.64062,0.125 -1.9375,5.10938 q -0.59375,1.59375 -1.15625,2.29687 -0.5625,0.71875 -1.29688,0.71875 -0.45312,0 -0.78125,-0.21875 -0.32812,-0.21875 -0.32812,-0.5625 0.0625,-0.26562 0.29687,-0.40625 0.23438,-0.125 0.5,-0.125 0.25,0 0.45313,0.0937 0.20312,0.10938 0.4375,0.35938 l 0.0625,0.0625 q 0.39062,-0.32813 0.64062,-0.79688 0.26563,-0.45312 0.4375,-0.9375 l 0.0469,-0.14062 -2.17188,-5.48438 -0.65625,-0.0937 v -0.4375 h 2.875 v 0.45313 l -1.04687,0.10937 1.5,4.09375 1.46875,-4.07812 z m 2.40405,5.26563 v -0.4375 l 0.96875,-0.15625 q 0,-0.5 0,-0.96875 0.0156,-0.48438 0.0156,-0.95313 v -5.26562 l -0.98438,-0.125 v -0.42188 l 1.875,-0.54687 0.17188,0.10937 -0.0469,1.70313 v 4.54687 q 0,0.46875 0,0.95313 0,0.48437 0.0156,0.96875 l 0.96875,0.15625 v 0.4375 z m 6.5604,0.15625 q -0.6875,0 -1.32813,-0.32813 -0.625,-0.32812 -1.01562,-1 -0.39063,-0.67187 -0.39063,-1.64062 0,-1 0.39063,-1.67188 0.39062,-0.6875 1.01562,-1.03125 0.64063,-0.34375 1.32813,-0.34375 0.70312,0 1.32812,0.34375 0.64063,0.34375 1.03125,1.03125 0.40625,0.67188 0.40625,1.67188 0,0.96875 -0.40625,1.64062 -0.39062,0.67188 -1.03125,1 -0.625,0.32813 -1.32812,0.32813 z m 0,-0.54688 q 0.78125,0 1.20312,-0.60937 0.42188,-0.625 0.42188,-1.8125 0,-1.21875 -0.42188,-1.84375 -0.42187,-0.64063 -1.20312,-0.64063 -0.76563,0 -1.1875,0.64063 -0.40625,0.625 -0.40625,1.84375 0,1.1875 0.40625,1.8125 0.42187,0.60937 1.1875,0.60937 z m 8.29117,0.51563 q -0.42188,0 -0.71875,-0.25 -0.28125,-0.26563 -0.35938,-0.67188 -0.48437,0.46875 -0.85937,0.71875 -0.375,0.23438 -0.90625,0.23438 -0.65625,0 -1.125,-0.375 -0.46875,-0.375 -0.46875,-1.125 0,-0.34375 0.15625,-0.64063 0.15625,-0.3125 0.59375,-0.59375 0.4375,-0.29687 1.23437,-0.57812 0.28125,-0.0937 0.64063,-0.20313 0.35937,-0.10937 0.71875,-0.1875 v -0.3125 q 0,-0.875 -0.26563,-1.15625 -0.26562,-0.28125 -0.85937,-0.28125 -0.14063,0 -0.3125,0.0156 -0.15625,0 -0.34375,0.0469 l -0.21875,0.78125 q -0.17188,0.57813 -0.625,0.57813 -0.51563,0 -0.5625,-0.5 0.15625,-0.67188 0.78125,-1.07813 0.64062,-0.40625 1.54687,-0.40625 0.95313,0 1.40625,0.48438 0.45313,0.46875 0.45313,1.60937 v 2.54688 q 0,0.39062 0.125,0.5625 0.125,0.15625 0.3125,0.15625 0.15625,0 0.26562,-0.0625 0.10938,-0.0781 0.20313,-0.20313 l 0.23437,0.26563 q -0.21875,0.34375 -0.48437,0.48437 -0.25,0.14063 -0.5625,0.14063 z m -3.375,-1.65625 q 0,0.48437 0.26562,0.6875 0.28125,0.20312 0.6875,0.20312 0.1875,0 0.34375,-0.0469 0.17188,-0.0469 0.39063,-0.1875 0.23437,-0.14063 0.59375,-0.39063 v -1.84375 q -0.3125,0.0781 -0.625,0.1875 -0.29688,0.10938 -0.48438,0.17188 -0.51562,0.20312 -0.76562,0.42187 -0.25,0.21875 -0.32813,0.42188 -0.0781,0.20312 -0.0781,0.375 z m 6.12365,-1.28125 q 0,1.17187 0.46875,1.73437 0.46875,0.54688 1.1875,0.54688 0.40625,0 0.70313,-0.15625 0.3125,-0.17188 0.64062,-0.53125 v -3.32813 q -0.40625,-0.35937 -0.73437,-0.48437 -0.3125,-0.14063 -0.60938,-0.14063 -0.45312,0 -0.82812,0.25 -0.375,0.23438 -0.60938,0.76563 -0.21875,0.51562 -0.21875,1.34375 z m 3.125,2.9375 -0.0781,-0.82813 q -0.3125,0.40625 -0.71875,0.64063 -0.40625,0.21875 -0.96875,0.21875 -0.73438,0 -1.28125,-0.375 -0.54688,-0.375 -0.85938,-1.03125 -0.29687,-0.67188 -0.29687,-1.54688 0,-0.92187 0.32812,-1.60937 0.34375,-0.6875 0.90625,-1.0625 0.57813,-0.39063 1.3125,-0.39063 0.42188,0 0.8125,0.17188 0.39063,0.17187 0.76563,0.60937 v -2.70312 l -1.03125,-0.125 v -0.42188 l 1.875,-0.54687 0.17187,0.10937 -0.0469,1.70313 v 6.48437 l 0.96875,0.14063 v 0.4375 z"
       id="path27"
       inkscape:connector-curvature="0"
       style="fill:#000000;fill-rule:nonzero" />
    <path
       d="M 227.82579,243.6192 H 334.31396"
       id="path29"
       inkscape:connector-curvature="0"
       style="fill:#000000;fill-opacity:0;fill-rule:evenodd" />
    <path
       d="m 227.82579,243.6192 h 94.48817"
       id="path31"
       inkscape:connector-curvature="0"
       style="fill-rule:evenodd;stroke:#595959;stroke-width:2;stroke-linecap:butt;stroke-linejoin:round" />
    <path
       d="m 322.31396,246.92267 9.0762,-3.30347 -9.0762,-3.30346 z"
       id="path33"
       inkscape:connector-curvature="0"
       style="fill:#595959;fill-rule:evenodd;stroke:#595959;stroke-width:2;stroke-linecap:butt" />
    <path
       d="M 227.82579,262.96313 H 334.31396"
       id="path35"
       inkscape:connector-curvature="0"
       style="fill:#000000;fill-opacity:0;fill-rule:evenodd" />
    <path
       d="m 227.82579,262.96317 h 94.48817"
       id="path37"
       inkscape:connector-curvature="0"
       style="fill-rule:evenodd;stroke:#595959;stroke-width:2;stroke-linecap:butt;stroke-linejoin:round" />
    <path
       d="m 322.31396,266.26663 9.0762,-3.30347 -9.0762,-3.30346 z"
       id="path39"
       inkscape:connector-curvature="0"
       style="fill:#595959;fill-rule:evenodd;stroke:#595959;stroke-width:2;stroke-linecap:butt" />
    <path
       d="m 221.64305,245.25977 h 118.86613 v 14.55118 H 221.64305 Z"
       id="path41"
       inkscape:connector-curvature="0"
       style="fill:#000000;fill-opacity:0;fill-rule:evenodd" />
    <path
       d="m 259.91983,251.5454 v -0.46875 h 2.28125 v 0.46875 l -0.65625,0.15625 -1.95313,5.15627 h -0.51562 l -2.1875,-5.18752 -0.64063,-0.125 v -0.46875 h 2.90625 v 0.46875 l -1.0625,0.15625 1.46875,3.84375 1.32813,-3.82813 z m 7.18054,5.35939 q -0.42187,0 -0.71875,-0.25 -0.28125,-0.26562 -0.35937,-0.67189 -0.48438,0.46877 -0.85938,0.71877 -0.375,0.23437 -0.90625,0.23437 -0.65625,0 -1.125,-0.375 -0.46875,-0.375 -0.46875,-1.12502 0,-0.34375 0.15625,-0.64062 0.15625,-0.3125 0.59375,-0.59375 0.4375,-0.29688 1.23438,-0.57813 0.28125,-0.0937 0.64062,-0.20312 0.35938,-0.10938 0.71875,-0.1875 v -0.3125 q 0,-0.875 -0.26562,-1.15625 -0.26563,-0.28125 -0.85938,-0.28125 -0.14062,0 -0.3125,0.0156 -0.15625,0 -0.34375,0.0469 l -0.21875,0.78125 q -0.17187,0.57812 -0.625,0.57812 -0.51562,0 -0.5625,-0.5 0.15625,-0.67187 0.78125,-1.07812 0.64063,-0.40625 1.54688,-0.40625 0.95312,0 1.40625,0.48437 0.45312,0.46875 0.45312,1.60938 v 2.54687 q 0,0.39063 0.125,0.56252 0.125,0.15625 0.3125,0.15625 0.15625,0 0.26563,-0.0625 0.10937,-0.0781 0.20312,-0.20312 l 0.23438,0.26562 q -0.21875,0.34375 -0.48438,0.48438 -0.25,0.14062 -0.5625,0.14062 z m -3.375,-1.65627 q 0,0.48438 0.26563,0.6875 0.28125,0.20315 0.6875,0.20315 0.1875,0 0.34375,-0.0469 0.17187,-0.0469 0.39062,-0.18751 0.23438,-0.14063 0.59375,-0.39063 v -1.84375 q -0.3125,0.0781 -0.625,0.1875 -0.29687,0.10938 -0.48437,0.17188 -0.51563,0.20312 -0.76563,0.42187 -0.25,0.21875 -0.32812,0.42188 -0.0781,0.20312 -0.0781,0.37499 z m 4.79553,1.53127 v -0.4375 l 0.96875,-0.15625 q 0,-0.50001 0,-0.96876 0.0156,-0.48438 0.0156,-0.95313 v -5.26562 l -0.98438,-0.125 v -0.42188 l 1.875,-0.54687 0.17188,0.10937 -0.0469,1.70313 v 4.54687 q 0,0.46875 0,0.95313 0,0.48437 0.0156,0.96876 l 0.96875,0.15625 v 0.4375 z m 3.70102,0 v -0.4375 l 0.89063,-0.15625 q 0.0156,-0.46876 0.0156,-1.00002 0.0156,-0.53125 0.0156,-0.92187 v -0.5625 q 0,-0.5 -0.0156,-0.82813 0,-0.32812 -0.0156,-0.6875 l -0.96875,-0.10937 v -0.42188 l 1.85937,-0.73437 0.17188,0.125 -0.0312,1.625 v 1.59375 q 0,0.39062 0,0.92187 0.0156,0.53125 0.0156,1.00002 l 0.84375,0.15625 v 0.4375 z m 1.42188,-7.17189 q -0.34375,0 -0.57813,-0.21875 -0.23437,-0.21875 -0.23437,-0.54688 0,-0.35937 0.23437,-0.5625 0.23438,-0.21875 0.57813,-0.21875 0.32812,0 0.5625,0.21875 0.23437,0.20313 0.23437,0.5625 0,0.32813 -0.23437,0.54688 -0.23438,0.21875 -0.5625,0.21875 z m 3.35727,4.35937 q 0,1.17188 0.46875,1.73438 0.46875,0.54689 1.1875,0.54689 0.40625,0 0.70312,-0.15625 0.3125,-0.17189 0.64063,-0.53126 v -3.32813 q -0.40625,-0.35937 -0.73438,-0.48437 -0.3125,-0.14063 -0.60937,-0.14063 -0.45313,0 -0.82813,0.25 -0.375,0.23438 -0.60937,0.76563 -0.21875,0.51562 -0.21875,1.34374 z m 3.125,2.93752 -0.0781,-0.82812 q -0.3125,0.40625 -0.71875,0.64062 -0.40625,0.21875 -0.96875,0.21875 -0.73437,0 -1.28125,-0.375 -0.54687,-0.375 -0.85937,-1.03127 -0.29688,-0.67187 -0.29688,-1.54687 0,-0.92188 0.32813,-1.60938 0.34375,-0.6875 0.90625,-1.0625 0.57812,-0.39062 1.3125,-0.39062 0.42187,0 0.8125,0.17187 0.39062,0.17188 0.76562,0.60938 v -2.70313 l -1.03125,-0.125 v -0.42187 l 1.875,-0.54688 0.17188,0.10938 -0.0469,1.70312 v 6.4844 l 0.96875,0.14062 v 0.4375 z m 6.77194,-3.46877 q 0,0.96875 0.15625,1.8125 0.17187,0.82815 0.57812,1.68752 0.40625,0.85938 1.10938,1.875 l -0.3125,0.26563 q -1.26563,-1.1875 -1.89063,-2.57813 -0.60937,-1.40627 -0.60937,-3.06252 0,-1.64062 0.60937,-3.03125 0.625,-1.40625 1.89063,-2.59375 l 0.3125,0.26563 q -0.70313,1.01562 -1.10938,1.875 -0.40625,0.85937 -0.57812,1.70312 -0.15625,0.82813 -0.15625,1.78125 z m 3.16177,-3.875 2.46875,-0.625 0.17188,0.10938 -0.0469,1.71875 v 3.48437 q 0,0.4375 0,0.90625 0.0156,0.45313 0.0312,0.90627 l 1.70313,0.28125 v 0.4375 h -4.45313 v -0.4375 l 1.6875,-0.28125 q 0.0156,-0.45314 0.0156,-0.90626 0.0156,-0.46875 0.0156,-0.90625 v -4.32813 l -1.59375,0.14063 z m 5.34381,7.21877 v -0.4375 l 0.90625,-0.15625 q 0,-0.45314 0,-0.98439 0.0156,-0.53125 0.0156,-0.9375 v -5.26562 l -0.98438,-0.125 v -0.42188 l 1.84375,-0.54687 0.15625,0.10937 -0.0469,1.70313 v 2.125 q 0.4375,-0.46875 0.89062,-0.6875 0.46875,-0.23438 0.96875,-0.23438 0.625,0 1.14063,0.35938 0.51562,0.34375 0.82812,1 0.3125,0.65625 0.3125,1.59375 0,0.92187 -0.32812,1.625 -0.32813,0.68751 -0.89063,1.06251 -0.54687,0.375 -1.26562,0.375 -0.42188,0 -0.84375,-0.17187 -0.40625,-0.1875 -0.8125,-0.6875 l -0.0937,0.82812 z m 3.42188,-5.17189 q -0.28125,0 -0.64063,0.14062 -0.35937,0.14063 -0.84375,0.5625 v 3.28125 q 0.35938,0.34375 0.71875,0.50002 0.375,0.15625 0.70313,0.15625 0.64062,0 1.10937,-0.54689 0.46875,-0.5625 0.46875,-1.73437 0,-1.14063 -0.42187,-1.75 -0.42188,-0.60938 -1.09375,-0.60938 z m 5.1514,1.82812 q 0,-0.95312 -0.17188,-1.78125 -0.15625,-0.84375 -0.5625,-1.70312 -0.39062,-0.85938 -1.10937,-1.875 l 0.3125,-0.26563 q 1.28125,1.1875 1.89062,2.59375 0.60938,1.39063 0.60938,3.03125 0,1.65625 -0.60938,3.06252 -0.60937,1.39063 -1.89062,2.57813 l -0.3125,-0.26563 q 0.71875,-1.01562 1.10937,-1.875 0.40625,-0.85937 0.5625,-1.68752 0.17188,-0.84375 0.17188,-1.8125 z"
       id="path43"
       inkscape:connector-curvature="0"
       style="fill:#000000;fill-rule:nonzero" />
    <path
       d="m 152.0694,237.73665 h 75.74803 v 50.79509 H 152.0694 Z"
       id="path45"
       inkscape:connector-curvature="0"
       style="fill:#d9d9d9;fill-rule:evenodd" />
    <path
       d="M 152.05724,237.73894 H 200.1101"
       id="path47"
       inkscape:connector-curvature="0"
       style="fill:#000000;fill-opacity:0;fill-rule:evenodd" />
    <path
       d="M 152.05724,237.73894 H 200.1101"
       id="path49"
       inkscape:connector-curvature="0"
       style="fill-rule:evenodd;stroke:#595959;stroke-width:1;stroke-linecap:butt;stroke-linejoin:round;stroke-dasharray:4, 3" />
    <path
       d="M 152.05724,288.53403 H 200.1101"
       id="path51"
       inkscape:connector-curvature="0"
       style="fill:#000000;fill-opacity:0;fill-rule:evenodd" />
    <path
       d="M 152.05724,288.53403 H 200.1101"
       id="path53"
       inkscape:connector-curvature="0"
       style="fill-rule:evenodd;stroke:#595959;stroke-width:1;stroke-linecap:butt;stroke-linejoin:round;stroke-dasharray:4, 3" />
    <path
       d="m 199.40802,288.53403 h 28.39487"
       id="path55"
       inkscape:connector-curvature="0"
       style="fill:#000000;fill-opacity:0;fill-rule:evenodd" />
    <path
       d="m 199.40802,288.53403 h 28.39487"
       id="path57"
       inkscape:connector-curvature="0"
       style="fill-rule:evenodd;stroke:#595959;stroke-width:1;stroke-linecap:butt;stroke-linejoin:round" />
    <path
       d="m 199.40802,237.73894 h 28.39487"
       id="path59"
       inkscape:connector-curvature="0"
       style="fill:#000000;fill-opacity:0;fill-rule:evenodd" />
    <path
       d="m 199.40802,237.73894 h 28.39487"
       id="path61"
       inkscape:connector-curvature="0"
       style="fill-rule:evenodd;stroke:#595959;stroke-width:1;stroke-linecap:butt;stroke-linejoin:round" />
    <path
       d="M 227.80289,288.53174 V 237.95537"
       id="path63"
       inkscape:connector-curvature="0"
       style="fill:#000000;fill-opacity:0;fill-rule:evenodd" />
    <path
       d="M 227.80289,288.53174 V 237.95537"
       id="path65"
       inkscape:connector-curvature="0"
       style="fill-rule:evenodd;stroke:#595959;stroke-width:1;stroke-linecap:butt;stroke-linejoin:round" />
    <path
       d="m 146.8189,246.11406 h 81.00787 v 34.04726 H 146.8189 Z"
       id="path67"
       inkscape:connector-curvature="0"
       style="fill:#000000;fill-opacity:0;fill-rule:evenodd" />
    <path
       d="m 176.41936,268.63644 q -0.8125,0 -1.57813,-0.21875 -0.76562,-0.23438 -1.26562,-0.5625 l 0.0781,-2.04688 h 0.90625 l 0.29688,1.73438 q 0.34375,0.1875 0.70312,0.28125 0.35938,0.0781 0.82813,0.0781 1.03125,0 1.64062,-0.45312 0.625,-0.46875 0.625,-1.3125 0,-0.70313 -0.4375,-1.09375 -0.42187,-0.39063 -1.35937,-0.76563 l -0.57813,-0.23437 q -1.125,-0.4375 -1.82812,-1.125 -0.6875,-0.70313 -0.6875,-1.8125 0,-0.84375 0.42187,-1.4375 0.4375,-0.60938 1.1875,-0.9375 0.75,-0.34375 1.6875,-0.34375 0.73438,0 1.32813,0.21875 0.60937,0.20312 1.07812,0.54687 l -0.0937,1.92188 h -0.89062 l -0.3125,-1.65625 q -0.54688,-0.29688 -1.20313,-0.29688 -0.82812,0 -1.40625,0.42188 -0.5625,0.42187 -0.5625,1.23437 0,0.67188 0.42188,1.125 0.4375,0.4375 1.23437,0.73438 l 0.57813,0.21875 q 1.4375,0.5625 2.04687,1.26562 0.625,0.6875 0.625,1.73438 0,0.85937 -0.45312,1.48437 -0.4375,0.625 -1.21875,0.96875 -0.78125,0.32813 -1.8125,0.32813 z m 8.00403,-6.70313 q -0.40625,0 -0.82813,0.23438 -0.40625,0.23437 -0.71875,0.75 -0.29687,0.51562 -0.375,1.35937 h 2.65625 q 0.53125,0 0.70313,-0.21875 0.17187,-0.21875 0.17187,-0.53125 0,-0.42187 -0.21875,-0.78125 -0.21875,-0.35937 -0.57812,-0.57812 -0.35938,-0.23438 -0.8125,-0.23438 z m -0.0156,6.67188 q -1.46875,0 -2.375,-0.95313 -0.89062,-0.96875 -0.89062,-2.65625 0,-1.125 0.45312,-1.95312 0.46875,-0.84375 1.23438,-1.3125 0.78125,-0.46875 1.6875,-0.46875 0.76562,0 1.375,0.34375 0.625,0.32812 0.98437,0.95312 0.35938,0.625 0.35938,1.51563 0,0.25 -0.0312,0.46875 -0.0156,0.20312 -0.0625,0.35937 h -4.67188 q 0.0312,1.34375 0.67188,2.04688 0.64062,0.70312 1.70312,0.70312 0.70313,0 1.17188,-0.28125 0.46875,-0.28125 0.85937,-0.73437 l 0.34375,0.26562 q -0.40625,0.78125 -1.10937,1.25 -0.70313,0.45313 -1.70313,0.45313 z m 4.14659,-0.1875 v -0.53125 l 1.07813,-0.20313 q 0.0156,-0.5625 0.0156,-1.20312 0.0156,-0.64063 0.0156,-1.14063 v -0.70312 q 0,-0.59375 -0.0156,-0.98438 0,-0.40625 -0.0312,-0.84375 l -1.15625,-0.14062 v -0.51563 l 2.04688,-0.89062 0.21875,0.15625 0.125,1.17187 q 0.53125,-0.59375 1.23437,-0.95312 0.71875,-0.375 1.39063,-0.375 0.95312,0 1.40625,0.64062 0.46875,0.64063 0.46875,2.07813 v 1.35937 q 0,0.5 0,1.14063 0.0156,0.64062 0.0312,1.20312 l 1.01562,0.20313 v 0.53125 h -3.39062 v -0.53125 l 1.07812,-0.20313 q 0.0156,-0.54687 0.0156,-1.1875 0.0156,-0.65625 0.0156,-1.15625 v -1.25 q 0,-1 -0.29687,-1.375 -0.28125,-0.39062 -0.92188,-0.39062 -0.5,0 -0.96875,0.20312 -0.46875,0.20313 -1.01562,0.67188 v 2.14062 q 0,0.48438 0,1.14063 0,0.64062 0.0156,1.20312 l 1.01563,0.20313 v 0.53125 z m 10.27234,-3.4375 q 0,1.42187 0.57813,2.10937 0.57812,0.6875 1.45312,0.6875 0.48438,0 0.85938,-0.20312 0.375,-0.20313 0.78125,-0.65625 v -4.0625 q -0.5,-0.4375 -0.89063,-0.59375 -0.39062,-0.15625 -0.76562,-0.15625 -0.54688,0 -1.01563,0.29687 -0.45312,0.29688 -0.73437,0.9375 -0.26563,0.64063 -0.26563,1.64063 z m 3.8125,3.57812 -0.0937,-1 q -0.39062,0.5 -0.875,0.78125 -0.48437,0.26563 -1.17187,0.26563 -0.90625,0 -1.57813,-0.45313 -0.67187,-0.45312 -1.04687,-1.26562 -0.375,-0.8125 -0.375,-1.89063 0,-1.125 0.40625,-1.95312 0.42187,-0.84375 1.125,-1.3125 0.70312,-0.46875 1.59375,-0.46875 0.51562,0 0.98437,0.21875 0.48438,0.20312 0.9375,0.73437 v -3.3125 l -1.25,-0.14062 v -0.51563 l 2.28125,-0.65625 0.21875,0.10938 -0.0625,2.09375 v 7.92187 l 1.1875,0.17188 v 0.53125 z m 6.45075,-6.625 q -0.40625,0 -0.82813,0.23438 -0.40625,0.23437 -0.71875,0.75 -0.29687,0.51562 -0.375,1.35937 h 2.65625 q 0.53125,0 0.70313,-0.21875 0.17187,-0.21875 0.17187,-0.53125 0,-0.42187 -0.21875,-0.78125 -0.21875,-0.35937 -0.57812,-0.57812 -0.35938,-0.23438 -0.8125,-0.23438 z m -0.0156,6.67188 q -1.46875,0 -2.375,-0.95313 -0.89062,-0.96875 -0.89062,-2.65625 0,-1.125 0.45312,-1.95312 0.46875,-0.84375 1.23438,-1.3125 0.78125,-0.46875 1.6875,-0.46875 0.76562,0 1.375,0.34375 0.625,0.32812 0.98437,0.95312 0.35938,0.625 0.35938,1.51563 0,0.25 -0.0312,0.46875 -0.0156,0.20312 -0.0625,0.35937 h -4.67188 q 0.0312,1.34375 0.67188,2.04688 0.64062,0.70312 1.70312,0.70312 0.70313,0 1.17188,-0.28125 0.46875,-0.28125 0.85937,-0.73437 l 0.34375,0.26562 q -0.40625,0.78125 -1.10937,1.25 -0.70313,0.45313 -1.70313,0.45313 z m 4.16222,-0.1875 v -0.53125 l 1.0625,-0.1875 q 0.0156,-0.5625 0.0156,-1.20313 0.0156,-0.65625 0.0156,-1.15625 v -0.70312 q 0,-0.59375 -0.0156,-0.98438 0,-0.40625 -0.0312,-0.84375 l -1.15625,-0.14062 v -0.51563 l 2.04688,-0.89062 0.21875,0.15625 0.17187,1.71875 q 0.35938,-0.875 0.9375,-1.375 0.57813,-0.5 1.17188,-0.5 0.32812,0 0.625,0.15625 0.29687,0.14062 0.42187,0.39062 0,1.0625 -0.85937,1.0625 -0.25,0 -0.46875,-0.0937 -0.21875,-0.0937 -0.42188,-0.26562 l -0.1875,-0.15625 q -0.4375,0.3125 -0.73437,0.78125 -0.28125,0.46875 -0.46875,1.10937 v 1.09375 q 0,0.48438 0,1.14063 0,0.64062 0.0156,1.1875 l 1.20313,0.21875 v 0.53125 z"
       id="path69"
       inkscape:connector-curvature="0"
       style="fill:#000000;fill-rule:nonzero" />
    <path
       d="m 334.28726,237.7378 h 75.74805 v 50.79507 h -75.74805 z"
       id="path71"
       inkscape:connector-curvature="0"
       style="fill:#d9d9d9;fill-rule:evenodd" />
    <path
       d="M 410.03293,237.7378 H 361.98007"
       id="path73"
       inkscape:connector-curvature="0"
       style="fill:#000000;fill-opacity:0;fill-rule:evenodd" />
    <path
       d="M 410.03293,237.7378 H 361.98007"
       id="path75"
       inkscape:connector-curvature="0"
       style="fill-rule:evenodd;stroke:#595959;stroke-width:1;stroke-linecap:butt;stroke-linejoin:round;stroke-dasharray:4, 3" />
    <path
       d="M 410.03293,288.53287 H 361.98007"
       id="path77"
       inkscape:connector-curvature="0"
       style="fill:#000000;fill-opacity:0;fill-rule:evenodd" />
    <path
       d="M 410.03293,288.53287 H 361.98007"
       id="path79"
       inkscape:connector-curvature="0"
       style="fill-rule:evenodd;stroke:#595959;stroke-width:1;stroke-linecap:butt;stroke-linejoin:round;stroke-dasharray:4, 3" />
    <path
       d="M 362.68213,288.53287 H 334.28726"
       id="path81"
       inkscape:connector-curvature="0"
       style="fill:#000000;fill-opacity:0;fill-rule:evenodd" />
    <path
       d="M 362.68213,288.53287 H 334.28726"
       id="path83"
       inkscape:connector-curvature="0"
       style="fill-rule:evenodd;stroke:#595959;stroke-width:1;stroke-linecap:butt;stroke-linejoin:round" />
    <path
       d="M 362.68213,237.7378 H 334.28726"
       id="path85"
       inkscape:connector-curvature="0"
       style="fill:#000000;fill-opacity:0;fill-rule:evenodd" />
    <path
       d="M 362.68213,237.7378 H 334.28726"
       id="path87"
       inkscape:connector-curvature="0"
       style="fill-rule:evenodd;stroke:#595959;stroke-width:1;stroke-linecap:butt;stroke-linejoin:round" />
    <path
       d="M 334.28726,288.5306 V 237.95421"
       id="path89"
       inkscape:connector-curvature="0"
       style="fill:#000000;fill-opacity:0;fill-rule:evenodd" />
    <path
       d="M 334.28726,288.5306 V 237.95421"
       id="path91"
       inkscape:connector-curvature="0"
       style="fill-rule:evenodd;stroke:#595959;stroke-width:1;stroke-linecap:butt;stroke-linejoin:round" />
    <path
       d="m 334.28873,246.11406 h 81.00787 v 34.04726 h -81.00787 z"
       id="path93"
       inkscape:connector-curvature="0"
       style="fill:#000000;fill-opacity:0;fill-rule:evenodd" />
    <path
       d="m 347.99185,259.2927 h -1.26563 q -0.0156,0.96875 -0.0156,1.92188 0,0.95312 0,2 h 1.125 q 1.1875,0 1.75,-0.5625 0.5625,-0.57813 0.5625,-1.45313 0,-0.9375 -0.51563,-1.42187 -0.51562,-0.48438 -1.64062,-0.48438 z m -4.0625,-0.0781 v -0.60938 h 4.10937 q 1.6875,0 2.625,0.6875 0.9375,0.67188 0.9375,1.89063 0,0.84375 -0.625,1.54687 -0.60937,0.70313 -1.84375,0.92188 0.65625,0.14062 1.0625,0.57812 0.42188,0.42188 0.67188,1.28125 l 0.625,2.17188 1.14062,0.14062 v 0.59375 q -0.23437,0.0625 -0.5,0.0937 -0.26562,0.0469 -0.60937,0.0469 -0.6875,0 -1.03125,-0.20313 -0.34375,-0.20312 -0.46875,-0.73437 l -0.59375,-2.34375 q -0.125,-0.59375 -0.375,-0.89063 -0.25,-0.3125 -0.64063,-0.40625 -0.39062,-0.10937 -0.98437,-0.10937 h -0.71875 q 0,1.0625 0,1.98437 0,0.92188 0.0156,1.79688 l 1.35938,0.17187 v 0.59375 h -4.15625 v -0.59375 l 1.35937,-0.17187 q 0.0156,-0.92188 0.0156,-1.875 0,-0.95313 0,-1.90625 v -0.71875 q 0,-0.95313 0,-1.89063 0,-0.95312 -0.0156,-1.89062 z m 12.69147,2.71875 q -0.40625,0 -0.82813,0.23437 -0.40625,0.23438 -0.71875,0.75 -0.29687,0.51563 -0.375,1.35938 h 2.65625 q 0.53125,0 0.70313,-0.21875 0.17187,-0.21875 0.17187,-0.53125 0,-0.42188 -0.21875,-0.78125 -0.21875,-0.35938 -0.57812,-0.57813 -0.35938,-0.23437 -0.8125,-0.23437 z m -0.0156,6.67187 q -1.46875,0 -2.375,-0.95312 -0.89062,-0.96875 -0.89062,-2.65625 0,-1.125 0.45312,-1.95313 0.46875,-0.84375 1.23438,-1.3125 0.78125,-0.46875 1.6875,-0.46875 0.76562,0 1.375,0.34375 0.625,0.32813 0.98437,0.95313 0.35938,0.625 0.35938,1.51562 0,0.25 -0.0312,0.46875 -0.0156,0.20313 -0.0625,0.35938 h -4.67188 q 0.0312,1.34375 0.67188,2.04687 0.64062,0.70313 1.70312,0.70313 0.70313,0 1.17188,-0.28125 0.46875,-0.28125 0.85937,-0.73438 l 0.34375,0.26563 q -0.40625,0.78125 -1.10937,1.25 -0.70313,0.45312 -1.70313,0.45312 z m 7.45908,0 q -1.5,0 -2.40625,-0.96875 -0.89063,-0.98437 -0.89063,-2.67187 0,-1.15625 0.46875,-1.98438 0.48438,-0.82812 1.26563,-1.26562 0.78125,-0.45313 1.65625,-0.45313 0.65625,0 1.21875,0.25 0.5625,0.25 0.92187,0.6875 0.35938,0.42188 0.45313,0.96875 -0.0937,0.5625 -0.67188,0.5625 -0.35937,0 -0.54687,-0.1875 -0.1875,-0.20312 -0.26563,-0.51562 l -0.26562,-0.96875 q -0.20313,-0.0781 -0.40625,-0.0937 -0.1875,-0.0312 -0.375,-0.0312 -0.9375,0 -1.54688,0.73437 -0.60937,0.73438 -0.60937,2.14063 0,1.375 0.65625,2.10937 0.65625,0.73438 1.6875,0.73438 0.625,0 1.15625,-0.28125 0.53125,-0.28125 0.85937,-0.82813 l 0.375,0.1875 q -0.3125,0.90625 -1,1.39063 -0.6875,0.48437 -1.73437,0.48437 z m 7.18353,-6.67187 q -0.40625,0 -0.82812,0.23437 -0.40625,0.23438 -0.71875,0.75 -0.29688,0.51563 -0.375,1.35938 h 2.65625 q 0.53125,0 0.70312,-0.21875 0.17188,-0.21875 0.17188,-0.53125 0,-0.42188 -0.21875,-0.78125 -0.21875,-0.35938 -0.57813,-0.57813 -0.35937,-0.23437 -0.8125,-0.23437 z m -0.0156,6.67187 q -1.46875,0 -2.375,-0.95312 -0.89063,-0.96875 -0.89063,-2.65625 0,-1.125 0.45313,-1.95313 0.46875,-0.84375 1.23437,-1.3125 0.78125,-0.46875 1.6875,-0.46875 0.76563,0 1.375,0.34375 0.625,0.32813 0.98438,0.95313 0.35937,0.625 0.35937,1.51562 0,0.25 -0.0312,0.46875 -0.0156,0.20313 -0.0625,0.35938 h -4.67187 q 0.0312,1.34375 0.67187,2.04687 0.64063,0.70313 1.70313,0.70313 0.70312,0 1.17187,-0.28125 0.46875,-0.28125 0.85938,-0.73438 l 0.34375,0.26563 q -0.40625,0.78125 -1.10938,1.25 -0.70312,0.45312 -1.70312,0.45312 z m 4.06848,-0.1875 v -0.53125 l 1.09375,-0.20312 q 0.0156,-0.5625 0.0156,-1.20313 0.0156,-0.65625 0.0156,-1.14062 v -0.6875 q 0,-0.60938 -0.0156,-1 0,-0.40625 -0.0312,-0.84375 l -1.17187,-0.14063 v -0.51562 l 2.26562,-0.89063 0.21875,0.15625 -0.0469,1.98438 v 1.9375 q 0,0.48437 0,1.14062 0.0156,0.64063 0.0312,1.20313 l 1.01562,0.20312 v 0.53125 z m 1.73437,-8.76562 q -0.42187,0 -0.70312,-0.26563 -0.28125,-0.26562 -0.28125,-0.67187 0,-0.42188 0.28125,-0.67188 0.28125,-0.26562 0.70312,-0.26562 0.40625,0 0.6875,0.26562 0.28125,0.25 0.28125,0.67188 0,0.40625 -0.28125,0.67187 -0.28125,0.26563 -0.6875,0.26563 z m 6.38196,2.375 v -0.57813 h 2.78125 v 0.57813 l -0.79687,0.1875 -2.375,6.29687 h -0.64063 l -2.65625,-6.34375 -0.79687,-0.14062 v -0.57813 h 3.54687 v 0.57813 l -1.29687,0.1875 1.79687,4.6875 1.625,-4.67188 z m 6.56122,-0.0937 q -0.40625,0 -0.82813,0.23437 -0.40625,0.23438 -0.71875,0.75 -0.29687,0.51563 -0.375,1.35938 h 2.65625 q 0.53125,0 0.70313,-0.21875 0.17187,-0.21875 0.17187,-0.53125 0,-0.42188 -0.21875,-0.78125 -0.21875,-0.35938 -0.57812,-0.57813 -0.35938,-0.23437 -0.8125,-0.23437 z m -0.0156,6.67187 q -1.46875,0 -2.375,-0.95312 -0.89062,-0.96875 -0.89062,-2.65625 0,-1.125 0.45312,-1.95313 0.46875,-0.84375 1.23438,-1.3125 0.78125,-0.46875 1.6875,-0.46875 0.76562,0 1.375,0.34375 0.625,0.32813 0.98437,0.95313 0.35938,0.625 0.35938,1.51562 0,0.25 -0.0312,0.46875 -0.0156,0.20313 -0.0625,0.35938 h -4.67188 q 0.0312,1.34375 0.67188,2.04687 0.64062,0.70313 1.70312,0.70313 0.70313,0 1.17188,-0.28125 0.46875,-0.28125 0.85937,-0.73438 l 0.34375,0.26563 q -0.40625,0.78125 -1.10937,1.25 -0.70313,0.45312 -1.70313,0.45312 z m 4.1622,-0.1875 v -0.53125 l 1.0625,-0.1875 q 0.0156,-0.5625 0.0156,-1.20312 0.0156,-0.65625 0.0156,-1.15625 v -0.70313 q 0,-0.59375 -0.0156,-0.98437 0,-0.40625 -0.0312,-0.84375 l -1.15625,-0.14063 v -0.51562 l 2.04687,-0.89063 0.21875,0.15625 0.17188,1.71875 q 0.35937,-0.875 0.9375,-1.375 0.57812,-0.5 1.17187,-0.5 0.32813,0 0.625,0.15625 0.29688,0.14063 0.42188,0.39063 0,1.0625 -0.85938,1.0625 -0.25,0 -0.46875,-0.0937 -0.21875,-0.0937 -0.42187,-0.26563 l -0.1875,-0.15625 q -0.4375,0.3125 -0.73438,0.78125 -0.28125,0.46875 -0.46875,1.10938 v 1.09375 q 0,0.48437 0,1.14062 0,0.64063 0.0156,1.1875 l 1.20312,0.21875 v 0.53125 z"
       id="path95"
       inkscape:connector-curvature="0"
       style="fill:#000000;fill-rule:nonzero" />
  </g>
</svg>
