<?xml version="1.0" encoding="UTF-8" standalone="no"?>
<svg
   xmlns:dc="http://purl.org/dc/elements/1.1/"
   xmlns:cc="http://creativecommons.org/ns#"
   xmlns:rdf="http://www.w3.org/1999/02/22-rdf-syntax-ns#"
   xmlns:svg="http://www.w3.org/2000/svg"
   xmlns="http://www.w3.org/2000/svg"
   xmlns:sodipodi="http://sodipodi.sourceforge.net/DTD/sodipodi-0.dtd"
   xmlns:inkscape="http://www.inkscape.org/namespaces/inkscape"
   version="1.1"
   viewBox="0 0 292.08661 100.37009"
   stroke-miterlimit="10"
   id="svg305"
   sodipodi:docname="hazard-and.svg"
   width="292.08661"
   height="100.37009"
   style="fill:none;stroke:none;stroke-linecap:square;stroke-miterlimit:10"
   inkscape:version="0.92.5 (2060ec1f9f, 2020-04-08)">
  <metadata
     id="metadata311">
    <rdf:RDF>
      <cc:Work
         rdf:about="">
        <dc:format>image/svg+xml</dc:format>
        <dc:type
           rdf:resource="http://purl.org/dc/dcmitype/StillImage" />
        <dc:title></dc:title>
      </cc:Work>
    </rdf:RDF>
  </metadata>
  <defs
     id="defs309" />
  <sodipodi:namedview
     pagecolor="#ffffff"
     bordercolor="#666666"
     borderopacity="1"
     objecttolerance="10"
     gridtolerance="10"
     guidetolerance="10"
     inkscape:pageopacity="0"
     inkscape:pageshadow="2"
     inkscape:window-width="2088"
     inkscape:window-height="1427"
     id="namedview307"
     showgrid="false"
     inkscape:zoom="1.4458333"
     inkscape:cx="303.78887"
     inkscape:cy="52.430512"
     inkscape:window-x="72"
     inkscape:window-y="27"
     inkscape:window-maximized="0"
     inkscape:current-layer="g303" />
  <clipPath
     id="g28afd75af3d_0_91.0">
    <path
       d="M 0,0 H 960 V 540 H 0 Z"
       id="path2"
       inkscape:connector-curvature="0"
       style="clip-rule:nonzero" />
  </clipPath>
  <g
     clip-path="url(#g28afd75af3d_0_91.0)"
     id="g303"
     transform="translate(-191.79659,-213.13245)">
    <path
       d="m 192.29659,213.63245 h 291.0866 v 99.37009 h -291.0866 z"
       id="path7"
       inkscape:connector-curvature="0"
       style="fill:#000000;fill-opacity:0;fill-rule:evenodd" />
    <path
       d="m 191.17061,205.28609 h 102.23622 v 32.28346 H 191.17061 Z"
       id="path109"
       inkscape:connector-curvature="0"
       style="fill:#000000;fill-opacity:0;fill-rule:evenodd" />
    <path
       d="m 204.02998,219.50908 -1.09375,3.40625 h 2.17187 z m -3.73438,6.71875 v -0.71875 l 1.07813,-0.15625 2.70312,-7.89063 h 1.375 l 2.73438,7.98438 0.8125,0.0937 v 0.6875 h -4.125 v -0.6875 l 1.03125,-0.14063 -0.54688,-1.71875 h -2.6875 l -0.53125,1.67188 1.01563,0.15625 v 0.71875 z m 9.24645,0 v -0.625 l 0.71875,-0.15625 q 0.0156,-0.48438 0.0156,-1.04688 0,-0.5625 0,-0.96875 v -0.78125 q 0,-0.54687 -0.0156,-0.84375 0,-0.29687 -0.0312,-0.70312 l -0.8125,-0.10938 v -0.51562 l 2.625,-0.90625 0.25,0.15625 0.0781,0.95312 q 0.51563,-0.60937 1.03125,-0.85937 0.51563,-0.25 1.09375,-0.25 0.875,0 1.39063,0.57812 0.53125,0.57813 0.53125,1.71875 v 1.5625 q 0,0.4375 0,1 0,0.54688 0.0156,1.03125 l 0.67188,0.14063 v 0.625 h -3.53125 v -0.625 l 0.70312,-0.14063 q 0.0156,-0.5 0.0156,-1.04687 0,-0.5625 0,-0.98438 v -1.40625 q 0,-0.64062 -0.1875,-0.89062 -0.17188,-0.26563 -0.54688,-0.26563 -0.53125,0 -1.15625,0.48438 v 2.07812 q 0,0.40625 0,0.98438 0,0.5625 0.0156,1.04687 l 0.625,0.14063 v 0.625 z m 10.47572,-3.1875 q 0,1.09375 0.375,1.67187 0.39063,0.5625 1.01563,0.5625 0.45312,0 0.8125,-0.3125 v -3.96875 q -0.35938,-0.28125 -0.78125,-0.28125 -0.60938,0 -1.01563,0.57813 -0.40625,0.5625 -0.40625,1.75 z m 2.39063,3.32812 -0.10938,-0.75 q -0.78125,0.8125 -1.89062,0.8125 -0.73438,0 -1.34375,-0.39062 -0.60938,-0.39063 -0.95313,-1.14063 -0.34375,-0.75 -0.34375,-1.82812 0,-1.09375 0.40625,-1.875 0.42188,-0.78125 1.09375,-1.20313 0.6875,-0.42187 1.42188,-0.42187 0.53125,0 0.90625,0.1875 0.39062,0.17187 0.71875,0.53125 v -2.45313 l -0.9375,-0.125 v -0.5625 l 2.8125,-0.59375 0.21875,0.125 -0.0625,1.875 v 6.90625 l 0.65625,0.14063 v 0.625 z m 8.44812,-8.17187 v -0.71875 h 4.20312 v 0.71875 l -0.98437,0.0937 q -0.0156,0.8125 -0.0312,1.64062 0,0.82813 0,1.67188 v 0.5 q 0,0.8125 0,1.64062 0.0156,0.82813 0.0312,1.65625 l 0.98437,0.10938 v 0.71875 h -4.20312 v -0.71875 l 0.92187,-0.0937 q 0.0312,-0.82813 0.0312,-1.65625 0,-0.82813 0,-1.64063 h -2.84375 q 0,0.89063 0,1.70313 0.0156,0.8125 0.0312,1.59375 l 0.9375,0.0937 v 0.71875 h -4.20312 v -0.71875 l 0.96875,-0.10938 q 0.0312,-0.8125 0.0312,-1.64062 0,-0.82813 0,-1.65625 v -0.5 q 0,-0.82813 0,-1.65625 0,-0.82813 -0.0312,-1.65625 l -0.96875,-0.0937 v -0.71875 h 4.20312 v 0.71875 l -0.9375,0.0937 q -0.0156,0.8125 -0.0312,1.60937 0,0.79688 0,1.4375 h 2.84375 q 0,-0.76562 0,-1.53125 0,-0.76562 -0.0312,-1.51562 z m 5.13348,4.21875 v -1 l 5.57813,-2.875 0.57812,1.14062 -4.57812,2.23438 4.57812,2.23437 -0.57812,1.14063 z m 12.31297,-4.21875 v -0.71875 h 4.20313 v 0.71875 l -0.98438,0.0937 q -0.0156,0.8125 -0.0312,1.64062 0,0.82813 0,1.67188 v 0.5 q 0,0.8125 0,1.64062 0.0156,0.82813 0.0312,1.65625 l 0.98438,0.10938 v 0.71875 h -4.20313 v -0.71875 l 0.92188,-0.0937 q 0.0312,-0.82813 0.0312,-1.65625 0,-0.82813 0,-1.64063 h -2.84375 q 0,0.89063 0,1.70313 0.0156,0.8125 0.0312,1.59375 l 0.9375,0.0937 v 0.71875 h -4.20313 v -0.71875 l 0.96875,-0.10938 q 0.0312,-0.8125 0.0312,-1.64062 0,-0.82813 0,-1.65625 v -0.5 q 0,-0.82813 0,-1.65625 0,-0.82813 -0.0312,-1.65625 l -0.96875,-0.0937 v -0.71875 h 4.20313 v 0.71875 l -0.9375,0.0937 q -0.0156,0.8125 -0.0312,1.60937 0,0.79688 0,1.4375 h 2.84375 q 0,-0.76562 0,-1.53125 0,-0.76562 -0.0312,-1.51562 z m 11.38349,3.21875 v 1 l -5.57813,2.875 -0.57812,-1.14063 4.57812,-2.23437 -4.57812,-2.23438 0.57812,-1.14062 z"
       id="path111"
       inkscape:connector-curvature="0"
       style="fill:#202122;fill-rule:nonzero" />
    <path
       d="M 387.78903,300.5995 H 285.58429"
       id="path113"
       inkscape:connector-curvature="0"
       style="fill:#000000;fill-opacity:0;fill-rule:evenodd" />
    <path
       d="M 387.78903,300.59946 H 297.58429"
       id="path115"
       inkscape:connector-curvature="0"
       style="fill-rule:evenodd;stroke:#1c4587;stroke-width:2;stroke-linecap:butt;stroke-linejoin:round" />
    <path
       d="m 297.5843,297.29602 -9.0762,3.30344 9.0762,3.30346 z"
       id="path117"
       inkscape:connector-curvature="0"
       style="fill:#1c4587;fill-rule:evenodd;stroke:#1c4587;stroke-width:2;stroke-linecap:butt" />
    <path
       d="M 285.61163,257.21484 H 387.81637"
       id="path119"
       inkscape:connector-curvature="0"
       style="fill:#000000;fill-opacity:0;fill-rule:evenodd" />
    <path
       d="m 285.61166,257.21484 h 90.20468"
       id="path121"
       inkscape:connector-curvature="0"
       style="fill-rule:evenodd;stroke:#595959;stroke-width:2;stroke-linecap:butt;stroke-linejoin:round" />
    <path
       d="m 375.81635,260.5183 9.0762,-3.30347 -9.0762,-3.30345 z"
       id="path123"
       inkscape:connector-curvature="0"
       style="fill:#595959;fill-rule:evenodd;stroke:#595959;stroke-width:2;stroke-linecap:butt" />
    <path
       d="m 285.61664,234.76135 h 102.20474 v 21.70081 H 285.61664 Z"
       id="path125"
       inkscape:connector-curvature="0"
       style="fill:#000000;fill-opacity:0;fill-rule:evenodd" />
    <path
       d="m 330.3978,242.4005 v -0.5 h 3.375 v 0.5 l -1.09375,0.125 q -0.0156,0.76562 -0.0312,1.54687 0,0.76563 0,1.54688 v 0.59375 q 0,0.76562 0,1.54687 0.0156,0.76563 0.0312,1.54688 l 1.09375,0.14062 v 0.48438 h -3.375 v -0.48438 l 1.09375,-0.14062 q 0.0312,-0.76563 0.0312,-1.5625 0,-0.79688 0,-1.64063 h -3.875 q 0,0.90625 0,1.6875 0.0156,0.78125 0.0156,1.53125 l 1.09375,0.125 v 0.48438 h -3.375 v -0.48438 l 1.09375,-0.14062 q 0.0312,-0.75 0.0312,-1.53125 0,-0.78125 0,-1.5625 v -0.59375 q 0,-0.78125 0,-1.54688 0,-0.78125 -0.0312,-1.54687 l -1.09375,-0.125 v -0.5 h 3.375 v 0.5 l -1.09375,0.10937 q 0,0.78125 -0.0156,1.54688 0,0.76562 0,1.48437 h 3.875 q 0,-0.79687 0,-1.53125 0,-0.75 -0.0312,-1.48437 z m 5.71808,3.32812 q -0.35938,0 -0.60938,-0.25 -0.23437,-0.25 -0.23437,-0.60937 0,-0.35938 0.23437,-0.60938 0.25,-0.25 0.60938,-0.25 0.35937,0 0.60937,0.25 0.25,0.25 0.25,0.60938 0,0.35937 -0.25,0.60937 -0.25,0.25 -0.60937,0.25 z m 0,4.35938 q -0.35938,0 -0.60938,-0.25 -0.23437,-0.25 -0.23437,-0.60938 0,-0.35937 0.23437,-0.60937 0.25,-0.25 0.60938,-0.25 0.35937,0 0.60937,0.25 0.25,0.25 0.25,0.60937 0,0.35938 -0.25,0.60938 -0.25,0.25 -0.60937,0.25 z m 3.6,-4.35938 q -0.35937,0 -0.60937,-0.25 -0.23438,-0.25 -0.23438,-0.60937 0,-0.35938 0.23438,-0.60938 0.25,-0.25 0.60937,-0.25 0.35938,0 0.60938,0.25 0.25,0.25 0.25,0.60938 0,0.35937 -0.25,0.60937 -0.25,0.25 -0.60938,0.25 z m 0,4.35938 q -0.35937,0 -0.60937,-0.25 -0.23438,-0.25 -0.23438,-0.60938 0,-0.35937 0.23438,-0.60937 0.25,-0.25 0.60937,-0.25 0.35938,0 0.60938,0.25 0.25,0.25 0.25,0.60937 0,0.35938 -0.25,0.60938 -0.25,0.25 -0.60938,0.25 z m 5.35004,-7.625 h -0.73437 q 0,0.76562 -0.0156,1.5625 0,0.79687 0,1.59375 v 0.57812 h 0.79688 q 1.09375,0 1.54687,-0.53125 0.46875,-0.53125 0.46875,-1.375 0,-0.875 -0.5,-1.34375 -0.48437,-0.48437 -1.5625,-0.48437 z m -3.01562,-0.0625 v -0.5 h 3.21875 q 1.53125,0 2.28125,0.67187 0.76562,0.65625 0.76562,1.71875 0,0.67188 -0.34375,1.23438 -0.32812,0.5625 -1.0625,0.90625 -0.73437,0.32812 -1.96875,0.32812 h -0.625 q 0,0.65625 0,1.28125 0.0156,0.625 0.0156,1.26563 l 1.125,0.14062 v 0.48438 h -3.40625 v -0.48438 l 1.09375,-0.14062 q 0.0312,-0.75 0.0312,-1.53125 0,-0.78125 0,-1.5625 v -0.59375 q 0,-0.78125 0,-1.54688 0,-0.78125 -0.0312,-1.54687 z"
       id="path127"
       inkscape:connector-curvature="0"
       style="fill:#202122;fill-rule:nonzero" />
    <path
       d="M 285.61163,278.90717 H 387.81637"
       id="path129"
       inkscape:connector-curvature="0"
       style="fill:#000000;fill-opacity:0;fill-rule:evenodd" />
    <path
       d="m 285.61166,278.90717 h 90.20468"
       id="path131"
       inkscape:connector-curvature="0"
       style="fill-rule:evenodd;stroke:#595959;stroke-width:2;stroke-linecap:butt;stroke-linejoin:round" />
    <path
       d="m 375.81635,282.21063 9.0762,-3.30347 -9.0762,-3.30346 z"
       id="path133"
       inkscape:connector-curvature="0"
       style="fill:#595959;fill-rule:evenodd;stroke:#595959;stroke-width:2;stroke-linecap:butt" />
    <path
       d="m 285.61664,256.45367 h 102.20474 v 21.70077 H 285.61664 Z"
       id="path135"
       inkscape:connector-curvature="0"
       style="fill:#000000;fill-opacity:0;fill-rule:evenodd" />
    <path
       d="m 325.30032,271.62405 v -0.4375 l 0.90625,-0.15625 q 0,-0.45313 0,-0.98438 0.0156,-0.53125 0.0156,-0.9375 v -5.26562 l -0.98437,-0.125 v -0.42188 l 1.84375,-0.54687 0.15625,0.10937 -0.0469,1.70313 v 2.125 q 0.4375,-0.46875 0.89063,-0.6875 0.46875,-0.23438 0.96875,-0.23438 0.625,0 1.14062,0.35938 0.51563,0.34375 0.82813,1 0.3125,0.65625 0.3125,1.59375 0,0.92187 -0.32813,1.625 -0.32812,0.6875 -0.89062,1.0625 -0.54688,0.375 -1.26563,0.375 -0.42187,0 -0.84375,-0.17188 -0.40625,-0.1875 -0.8125,-0.6875 l -0.0937,0.82813 z m 3.42187,-5.17188 q -0.28125,0 -0.64062,0.14063 -0.35938,0.14062 -0.84375,0.5625 v 3.28125 q 0.35937,0.34375 0.71875,0.5 0.375,0.15625 0.70312,0.15625 0.64063,0 1.10938,-0.54688 0.46875,-0.5625 0.46875,-1.73437 0,-1.14063 -0.42188,-1.75 -0.42187,-0.60938 -1.09375,-0.60938 z m 6.42405,5.32813 q -0.6875,0 -1.32813,-0.32813 -0.625,-0.32812 -1.01562,-1 -0.39063,-0.67187 -0.39063,-1.64062 0,-1 0.39063,-1.67188 0.39062,-0.6875 1.01562,-1.03125 0.64063,-0.34375 1.32813,-0.34375 0.70312,0 1.32812,0.34375 0.64063,0.34375 1.03125,1.03125 0.40625,0.67188 0.40625,1.67188 0,0.96875 -0.40625,1.64062 -0.39062,0.67188 -1.03125,1 -0.625,0.32813 -1.32812,0.32813 z m 0,-0.54688 q 0.78125,0 1.20312,-0.60937 0.42188,-0.625 0.42188,-1.8125 0,-1.21875 -0.42188,-1.84375 -0.42187,-0.64063 -1.20312,-0.64063 -0.76563,0 -1.1875,0.64063 -0.40625,0.625 -0.40625,1.84375 0,1.1875 0.40625,1.8125 0.42187,0.60937 1.1875,0.60937 z m 6.58804,0.54688 q -0.6875,0 -1.32813,-0.32813 -0.625,-0.32812 -1.01562,-1 -0.39063,-0.67187 -0.39063,-1.64062 0,-1 0.39063,-1.67188 0.39062,-0.6875 1.01562,-1.03125 0.64063,-0.34375 1.32813,-0.34375 0.70312,0 1.32812,0.34375 0.64063,0.34375 1.03125,1.03125 0.40625,0.67188 0.40625,1.67188 0,0.96875 -0.40625,1.64062 -0.39062,0.67188 -1.03125,1 -0.625,0.32813 -1.32812,0.32813 z m 0,-0.54688 q 0.78125,0 1.20312,-0.60937 0.42188,-0.625 0.42188,-1.8125 0,-1.21875 -0.42188,-1.84375 -0.42187,-0.64063 -1.20312,-0.64063 -0.76563,0 -1.1875,0.64063 -0.40625,0.625 -0.40625,1.84375 0,1.1875 0.40625,1.8125 0.42187,0.60937 1.1875,0.60937 z m 3.48367,0.39063 v -0.4375 l 0.96875,-0.15625 q 0,-0.5 0,-0.96875 0.0156,-0.48438 0.0156,-0.95313 v -5.26562 l -0.98438,-0.125 v -0.42188 l 1.875,-0.54687 0.17188,0.10937 -0.0469,1.70313 v 4.54687 q 0,0.46875 0,0.95313 0,0.48437 0.0156,0.96875 l 0.96875,0.15625 v 0.4375 z"
       id="path137"
       inkscape:connector-curvature="0"
       style="fill:#202122;fill-rule:nonzero" />
    <path
       d="m 285.61664,278.14597 h 102.20474 v 21.70081 H 285.61664 Z"
       id="path139"
       inkscape:connector-curvature="0"
       style="fill:#000000;fill-opacity:0;fill-rule:evenodd" />
    <path
       d="m 305.65213,285.84763 h -1.04688 q 0,0.78125 -0.0156,1.57812 0,0.78125 0,1.625 h 0.92187 q 0.96875,0 1.42188,-0.46875 0.46875,-0.46875 0.46875,-1.1875 0,-0.75 -0.42188,-1.14062 -0.40625,-0.40625 -1.32812,-0.40625 z m -3.32813,-0.0625 v -0.5 h 3.35938 q 1.375,0 2.14062,0.5625 0.76563,0.54687 0.76563,1.54687 0,0.6875 -0.5,1.26563 -0.5,0.57812 -1.51563,0.75 0.53125,0.10937 0.875,0.46875 0.34375,0.35937 0.54688,1.0625 l 0.51562,1.78125 0.92188,0.10937 v 0.48438 q -0.17188,0.0469 -0.40625,0.0781 -0.21875,0.0469 -0.48438,0.0469 -0.5625,0 -0.85937,-0.17188 -0.28125,-0.17187 -0.375,-0.59375 l -0.48438,-1.92187 q -0.10937,-0.5 -0.3125,-0.73438 -0.20312,-0.25 -0.53125,-0.32812 -0.3125,-0.0937 -0.79687,-0.0937 h -0.59375 q 0,0.85937 0,1.625 0.0156,0.75 0.0156,1.46875 l 1.10938,0.14062 v 0.48438 H 302.324 V 292.832 l 1.09375,-0.14062 q 0.0312,-0.75 0.0312,-1.53125 0,-0.78125 0,-1.5625 v -0.59375 q 0,-0.78125 0,-1.54688 0,-0.78125 -0.0312,-1.54687 z m 10.39521,2.23437 q -0.34375,0 -0.6875,0.1875 -0.34375,0.1875 -0.59375,0.60938 -0.23438,0.42187 -0.3125,1.10937 h 2.1875 q 0.4375,0 0.5625,-0.17187 0.14062,-0.1875 0.14062,-0.45313 0,-0.34375 -0.17187,-0.625 -0.17188,-0.29687 -0.46875,-0.46875 -0.29688,-0.1875 -0.65625,-0.1875 z m -0.0156,5.45313 q -1.21875,0 -1.95312,-0.78125 -0.71875,-0.79688 -0.71875,-2.17188 0,-0.92187 0.375,-1.60937 0.375,-0.6875 1,-1.0625 0.64062,-0.39063 1.375,-0.39063 0.625,0 1.125,0.28125 0.51562,0.28125 0.8125,0.79688 0.29687,0.5 0.29687,1.23437 0,0.20313 -0.0312,0.375 -0.0156,0.17188 -0.0469,0.29688 h -3.82813 q 0.0156,1.09375 0.54688,1.67187 0.53125,0.57813 1.39062,0.57813 0.57813,0 0.95313,-0.23438 0.39062,-0.23437 0.71875,-0.60937 l 0.28125,0.23437 q -0.32813,0.64063 -0.90625,1.01563 -0.57813,0.375 -1.39063,0.375 z m 7.76566,-0.0312 q -0.42188,0 -0.71875,-0.25 -0.28125,-0.26563 -0.35938,-0.67188 -0.48437,0.46875 -0.85937,0.71875 -0.375,0.23438 -0.90625,0.23438 -0.65625,0 -1.125,-0.375 -0.46875,-0.375 -0.46875,-1.125 0,-0.34375 0.15625,-0.64063 0.15625,-0.3125 0.59375,-0.59375 0.4375,-0.29687 1.23437,-0.57812 0.28125,-0.0937 0.64063,-0.20313 0.35937,-0.10937 0.71875,-0.1875 v -0.3125 q 0,-0.875 -0.26563,-1.15625 -0.26562,-0.28125 -0.85937,-0.28125 -0.14063,0 -0.3125,0.0156 -0.15625,0 -0.34375,0.0469 l -0.21875,0.78125 q -0.17188,0.57813 -0.625,0.57813 -0.51563,0 -0.5625,-0.5 0.15625,-0.67188 0.78125,-1.07813 0.64062,-0.40625 1.54687,-0.40625 0.95313,0 1.40625,0.48438 0.45313,0.46875 0.45313,1.60937 v 2.54688 q 0,0.39062 0.125,0.5625 0.125,0.15625 0.3125,0.15625 0.15625,0 0.26562,-0.0625 0.10938,-0.0781 0.20313,-0.20313 l 0.23437,0.26563 q -0.21875,0.34375 -0.48437,0.48437 -0.25,0.14063 -0.5625,0.14063 z m -3.375,-1.65625 q 0,0.48437 0.26562,0.6875 0.28125,0.20312 0.6875,0.20312 0.1875,0 0.34375,-0.0469 0.17188,-0.0469 0.39063,-0.1875 0.23437,-0.14063 0.59375,-0.39063 V 290.207 q -0.3125,0.0781 -0.625,0.1875 -0.29688,0.10938 -0.48438,0.17188 -0.51562,0.20312 -0.76562,0.42187 -0.25,0.21875 -0.32813,0.42188 -0.0781,0.20312 -0.0781,0.375 z m 6.12369,-1.28125 q 0,1.17187 0.46875,1.73437 0.46875,0.54688 1.1875,0.54688 0.40625,0 0.70312,-0.15625 0.3125,-0.17188 0.64063,-0.53125 v -3.32813 q -0.40625,-0.35937 -0.73438,-0.48437 -0.3125,-0.14063 -0.60937,-0.14063 -0.45313,0 -0.82813,0.25 -0.375,0.23438 -0.60937,0.76563 -0.21875,0.51562 -0.21875,1.34375 z m 3.125,2.9375 -0.0781,-0.82813 q -0.3125,0.40625 -0.71875,0.64063 -0.40625,0.21875 -0.96875,0.21875 -0.73437,0 -1.28125,-0.375 -0.54687,-0.375 -0.85937,-1.03125 -0.29688,-0.67188 -0.29688,-1.54688 0,-0.92187 0.32813,-1.60937 0.34375,-0.6875 0.90625,-1.0625 0.57812,-0.39063 1.3125,-0.39063 0.42187,0 0.8125,0.17188 0.39062,0.17187 0.76562,0.60937 v -2.70312 l -1.03125,-0.125 v -0.42188 l 1.875,-0.54687 0.17188,0.10937 -0.0469,1.70313 v 6.48437 l 0.96875,0.14063 v 0.4375 z m 5.73092,-5.39063 v -0.4375 h 2.34375 v 0.4375 l -0.64062,0.125 -1.9375,5.10938 q -0.59375,1.59375 -1.15625,2.29687 -0.5625,0.71875 -1.29688,0.71875 -0.45312,0 -0.78125,-0.21875 -0.32812,-0.21875 -0.32812,-0.5625 0.0625,-0.26562 0.29687,-0.40625 0.23438,-0.125 0.5,-0.125 0.25,0 0.45313,0.0937 0.20312,0.10938 0.4375,0.35938 l 0.0625,0.0625 q 0.39062,-0.32813 0.64062,-0.79688 0.26563,-0.45312 0.4375,-0.9375 l 0.0469,-0.14062 -2.17188,-5.48438 -0.65625,-0.0937 v -0.4375 h 2.875 v 0.45313 l -1.04687,0.10937 1.5,4.09375 1.46875,-4.07812 z m 3.03467,1.59375 v -0.5625 l 4.64063,-2.70312 0.35937,0.65625 -4.15625,2.32812 4.15625,2.32813 -0.35937,0.65625 z m 11.23142,-3.85937 v -0.5 h 3.375 v 0.5 l -1.09375,0.125 q -0.0156,0.76562 -0.0312,1.54687 0,0.76563 0,1.54688 v 0.59375 q 0,0.76562 0,1.54687 0.0156,0.76563 0.0312,1.54688 l 1.09375,0.14062 v 0.48438 h -3.375 V 292.832 l 1.09375,-0.14062 q 0.0312,-0.76563 0.0312,-1.5625 0,-0.79688 0,-1.64063 h -3.875 q 0,0.90625 0,1.6875 0.0156,0.78125 0.0156,1.53125 l 1.09375,0.125 v 0.48438 h -3.375 V 292.832 l 1.09375,-0.14062 q 0.0312,-0.75 0.0312,-1.53125 0,-0.78125 0,-1.5625 v -0.59375 q 0,-0.78125 0,-1.54688 0,-0.78125 -0.0312,-1.54687 l -1.09375,-0.125 v -0.5 h 3.375 v 0.5 l -1.09375,0.10937 q 0,0.78125 -0.0156,1.54688 0,0.76562 0,1.48437 h 3.875 q 0,-0.79687 0,-1.53125 0,-0.75 -0.0312,-1.48437 z m 5.71804,3.32812 q -0.35937,0 -0.60937,-0.25 -0.23438,-0.25 -0.23438,-0.60937 0,-0.35938 0.23438,-0.60938 0.25,-0.25 0.60937,-0.25 0.35938,0 0.60938,0.25 0.25,0.25 0.25,0.60938 0,0.35937 -0.25,0.60937 -0.25,0.25 -0.60938,0.25 z m 0,4.35938 q -0.35937,0 -0.60937,-0.25 -0.23438,-0.25 -0.23438,-0.60938 0,-0.35937 0.23438,-0.60937 0.25,-0.25 0.60937,-0.25 0.35938,0 0.60938,0.25 0.25,0.25 0.25,0.60937 0,0.35938 -0.25,0.60938 -0.25,0.25 -0.60938,0.25 z m 3.60004,-4.35938 q -0.35937,0 -0.60937,-0.25 -0.23438,-0.25 -0.23438,-0.60937 0,-0.35938 0.23438,-0.60938 0.25,-0.25 0.60937,-0.25 0.35938,0 0.60938,0.25 0.25,0.25 0.25,0.60938 0,0.35937 -0.25,0.60937 -0.25,0.25 -0.60938,0.25 z m 0,4.35938 q -0.35937,0 -0.60937,-0.25 -0.23438,-0.25 -0.23438,-0.60938 0,-0.35937 0.23438,-0.60937 0.25,-0.25 0.60937,-0.25 0.35938,0 0.60938,0.25 0.25,0.25 0.25,0.60937 0,0.35938 -0.25,0.60938 -0.25,0.25 -0.60938,0.25 z m 5.66251,-7.625 h -1.04688 q 0,0.78125 -0.0156,1.57812 0,0.78125 0,1.625 h 0.92187 q 0.96875,0 1.42188,-0.46875 0.46875,-0.46875 0.46875,-1.1875 0,-0.75 -0.42188,-1.14062 -0.40625,-0.40625 -1.32812,-0.40625 z m -3.32813,-0.0625 v -0.5 h 3.35938 q 1.375,0 2.14062,0.5625 0.76563,0.54687 0.76563,1.54687 0,0.6875 -0.5,1.26563 -0.5,0.57812 -1.51563,0.75 0.53125,0.10937 0.875,0.46875 0.34375,0.35937 0.54688,1.0625 l 0.51562,1.78125 0.92188,0.10937 v 0.48438 q -0.17188,0.0469 -0.40625,0.0781 -0.21875,0.0469 -0.48438,0.0469 -0.5625,0 -0.85937,-0.17188 -0.28125,-0.17187 -0.375,-0.59375 l -0.48438,-1.92187 q -0.10937,-0.5 -0.3125,-0.73438 -0.20312,-0.25 -0.53125,-0.32812 -0.3125,-0.0937 -0.79687,-0.0937 h -0.59375 q 0,0.85937 0,1.625 0.0156,0.75 0.0156,1.46875 l 1.10938,0.14062 v 0.48438 H 357.9924 V 292.832 l 1.09375,-0.14062 q 0.0312,-0.75 0.0312,-1.53125 0,-0.78125 0,-1.5625 v -0.59375 q 0,-0.78125 0,-1.54688 0,-0.78125 -0.0312,-1.54687 z m 12.96832,3.29687 v 0.5625 l -4.64062,2.70313 -0.35938,-0.65625 4.15625,-2.32813 -4.15625,-2.32812 0.35938,-0.65625 z"
       id="path141"
       inkscape:connector-curvature="0"
       style="fill:#202122;fill-rule:nonzero" />
    <path
       d="m 209.84512,249.64568 h 75.74802 v 58.51967 h -75.74802 z"
       id="path143"
       inkscape:connector-curvature="0"
       style="fill:#d9d9d9;fill-rule:evenodd" />
    <path
       d="M 209.83296,249.6483 H 257.8858"
       id="path145"
       inkscape:connector-curvature="0"
       style="fill:#000000;fill-opacity:0;fill-rule:evenodd" />
    <path
       d="M 209.83296,249.6483 H 257.8858"
       id="path147"
       inkscape:connector-curvature="0"
       style="fill-rule:evenodd;stroke:#595959;stroke-width:1;stroke-linecap:butt;stroke-linejoin:round;stroke-dasharray:4, 3" />
    <path
       d="M 209.83296,308.16797 H 257.8858"
       id="path149"
       inkscape:connector-curvature="0"
       style="fill:#000000;fill-opacity:0;fill-rule:evenodd" />
    <path
       d="M 209.83296,308.16797 H 257.8858"
       id="path151"
       inkscape:connector-curvature="0"
       style="fill-rule:evenodd;stroke:#595959;stroke-width:1;stroke-linecap:butt;stroke-linejoin:round;stroke-dasharray:4, 3" />
    <path
       d="m 257.18375,308.16797 h 28.39487"
       id="path153"
       inkscape:connector-curvature="0"
       style="fill:#000000;fill-opacity:0;fill-rule:evenodd" />
    <path
       d="m 257.18375,308.16797 h 28.39487"
       id="path155"
       inkscape:connector-curvature="0"
       style="fill-rule:evenodd;stroke:#595959;stroke-width:1;stroke-linecap:butt;stroke-linejoin:round" />
    <path
       d="m 257.18375,249.6483 h 28.39487"
       id="path157"
       inkscape:connector-curvature="0"
       style="fill:#000000;fill-opacity:0;fill-rule:evenodd" />
    <path
       d="m 257.18375,249.6483 h 28.39487"
       id="path159"
       inkscape:connector-curvature="0"
       style="fill-rule:evenodd;stroke:#595959;stroke-width:1;stroke-linecap:butt;stroke-linejoin:round" />
    <path
       d="m 285.5786,308.16534 v -58.2677"
       id="path161"
       inkscape:connector-curvature="0"
       style="fill:#000000;fill-opacity:0;fill-rule:evenodd" />
    <path
       d="m 285.5786,308.16534 v -58.2677"
       id="path163"
       inkscape:connector-curvature="0"
       style="fill-rule:evenodd;stroke:#595959;stroke-width:1;stroke-linecap:butt;stroke-linejoin:round" />
    <path
       d="m 204.59317,260.9165 h 81.00787 v 37.16534 h -81.00787 z"
       id="path165"
       inkscape:connector-curvature="0"
       style="fill:#000000;fill-opacity:0;fill-rule:evenodd" />
    <path
       d="m 234.19363,284.99792 q -0.8125,0 -1.57812,-0.21875 -0.76563,-0.23437 -1.26563,-0.5625 l 0.0781,-2.04687 h 0.90625 l 0.29687,1.73437 q 0.34375,0.1875 0.70313,0.28125 0.35937,0.0781 0.82812,0.0781 1.03125,0 1.64063,-0.45313 0.625,-0.46875 0.625,-1.3125 0,-0.70312 -0.4375,-1.09375 -0.42188,-0.39062 -1.35938,-0.76562 l -0.57812,-0.23438 q -1.125,-0.4375 -1.82813,-1.125 -0.6875,-0.70312 -0.6875,-1.8125 0,-0.84375 0.42188,-1.4375 0.4375,-0.60937 1.1875,-0.9375 0.75,-0.34375 1.6875,-0.34375 0.73437,0 1.32812,0.21875 0.60938,0.20313 1.07813,0.54688 l -0.0937,1.92187 h -0.89063 l -0.3125,-1.65625 q -0.54687,-0.29687 -1.20312,-0.29687 -0.82813,0 -1.40625,0.42187 -0.5625,0.42188 -0.5625,1.23438 0,0.67187 0.42187,1.125 0.4375,0.4375 1.23438,0.73437 l 0.57812,0.21875 q 1.4375,0.5625 2.04688,1.26563 0.625,0.6875 0.625,1.73437 0,0.85938 -0.45313,1.48438 -0.4375,0.625 -1.21875,0.96875 -0.78125,0.32812 -1.8125,0.32812 z m 8.00403,-6.70312 q -0.40625,0 -0.82813,0.23437 -0.40625,0.23438 -0.71875,0.75 -0.29687,0.51563 -0.375,1.35938 h 2.65625 q 0.53125,0 0.70313,-0.21875 0.17187,-0.21875 0.17187,-0.53125 0,-0.42188 -0.21875,-0.78125 -0.21875,-0.35938 -0.57812,-0.57813 -0.35938,-0.23437 -0.8125,-0.23437 z m -0.0156,6.67187 q -1.46875,0 -2.375,-0.95312 -0.89062,-0.96875 -0.89062,-2.65625 0,-1.125 0.45312,-1.95313 0.46875,-0.84375 1.23438,-1.3125 0.78125,-0.46875 1.6875,-0.46875 0.76562,0 1.375,0.34375 0.625,0.32813 0.98437,0.95313 0.35938,0.625 0.35938,1.51562 0,0.25 -0.0312,0.46875 -0.0156,0.20313 -0.0625,0.35938 h -4.67188 q 0.0312,1.34375 0.67188,2.04687 0.64062,0.70313 1.70312,0.70313 0.70313,0 1.17188,-0.28125 0.46875,-0.28125 0.85937,-0.73438 l 0.34375,0.26563 q -0.40625,0.78125 -1.10937,1.25 -0.70313,0.45312 -1.70313,0.45312 z m 4.14659,-0.1875 v -0.53125 l 1.07813,-0.20312 q 0.0156,-0.5625 0.0156,-1.20313 0.0156,-0.64062 0.0156,-1.14062 v -0.70313 q 0,-0.59375 -0.0156,-0.98437 0,-0.40625 -0.0312,-0.84375 l -1.15625,-0.14063 v -0.51562 l 2.04688,-0.89063 0.21875,0.15625 0.125,1.17188 q 0.53125,-0.59375 1.23437,-0.95313 0.71875,-0.375 1.39063,-0.375 0.95312,0 1.40625,0.64063 0.46875,0.64062 0.46875,2.07812 v 1.35938 q 0,0.5 0,1.14062 0.0156,0.64063 0.0312,1.20313 l 1.01562,0.20312 v 0.53125 h -3.39062 v -0.53125 l 1.07812,-0.20312 q 0.0156,-0.54688 0.0156,-1.1875 0.0156,-0.65625 0.0156,-1.15625 v -1.25 q 0,-1 -0.29687,-1.375 -0.28125,-0.39063 -0.92188,-0.39063 -0.5,0 -0.96875,0.20313 -0.46875,0.20312 -1.01562,0.67187 v 2.14063 q 0,0.48437 0,1.14062 0,0.64063 0.0156,1.20313 l 1.01563,0.20312 v 0.53125 z m 10.27236,-3.4375 q 0,1.42188 0.57812,2.10938 0.57813,0.6875 1.45313,0.6875 0.48437,0 0.85937,-0.20313 0.375,-0.20312 0.78125,-0.65625 v -4.0625 q -0.5,-0.4375 -0.89062,-0.59375 -0.39063,-0.15625 -0.76563,-0.15625 -0.54687,0 -1.01562,0.29688 -0.45313,0.29687 -0.73438,0.9375 -0.26562,0.64062 -0.26562,1.64062 z m 3.8125,3.57813 -0.0937,-1 q -0.39063,0.5 -0.875,0.78125 -0.48438,0.26562 -1.17188,0.26562 -0.90625,0 -1.57812,-0.45312 -0.67188,-0.45313 -1.04689,-1.26563 -0.375,-0.8125 -0.375,-1.89062 0,-1.125 0.40625,-1.95313 0.42189,-0.84375 1.12501,-1.3125 0.70313,-0.46875 1.59375,-0.46875 0.51563,0 0.98438,0.21875 0.48437,0.20313 0.9375,0.73438 v -3.3125 l -1.25,-0.14063 v -0.51562 l 2.28125,-0.65625 0.21875,0.10937 -0.0625,2.09375 v 7.92188 l 1.1875,0.17187 v 0.53125 z m 6.45074,-6.625 q -0.40625,0 -0.82812,0.23437 -0.40625,0.23438 -0.71875,0.75 -0.29688,0.51563 -0.375,1.35938 h 2.65625 q 0.53125,0 0.70312,-0.21875 0.17188,-0.21875 0.17188,-0.53125 0,-0.42188 -0.21875,-0.78125 -0.21875,-0.35938 -0.57813,-0.57813 -0.35937,-0.23437 -0.8125,-0.23437 z m -0.0156,6.67187 q -1.46875,0 -2.375,-0.95312 -0.89063,-0.96875 -0.89063,-2.65625 0,-1.125 0.45313,-1.95313 0.46875,-0.84375 1.23437,-1.3125 0.78125,-0.46875 1.6875,-0.46875 0.76563,0 1.375,0.34375 0.625,0.32813 0.98438,0.95313 0.35937,0.625 0.35937,1.51562 0,0.25 -0.0312,0.46875 -0.0156,0.20313 -0.0625,0.35938 h -4.67187 q 0.0312,1.34375 0.67187,2.04687 0.64063,0.70313 1.70313,0.70313 0.70312,0 1.17187,-0.28125 0.46875,-0.28125 0.85938,-0.73438 l 0.34375,0.26563 q -0.40625,0.78125 -1.10938,1.25 -0.70312,0.45312 -1.70312,0.45312 z m 4.1622,-0.1875 v -0.53125 l 1.0625,-0.1875 q 0.0156,-0.5625 0.0156,-1.20312 0.0156,-0.65625 0.0156,-1.15625 v -0.70313 q 0,-0.59375 -0.0156,-0.98437 0,-0.40625 -0.0312,-0.84375 l -1.15625,-0.14063 v -0.51562 l 2.04688,-0.89063 0.21875,0.15625 0.17187,1.71875 q 0.35938,-0.875 0.9375,-1.375 0.57813,-0.5 1.17188,-0.5 0.32812,0 0.625,0.15625 0.29687,0.14063 0.42187,0.39063 0,1.0625 -0.85937,1.0625 -0.25,0 -0.46875,-0.0937 -0.21875,-0.0937 -0.42188,-0.26563 l -0.1875,-0.15625 q -0.4375,0.3125 -0.73437,0.78125 -0.28125,0.46875 -0.46875,1.10938 v 1.09375 q 0,0.48437 0,1.14062 0,0.64063 0.0156,1.1875 l 1.20313,0.21875 v 0.53125 z"
       id="path167"
       inkscape:connector-curvature="0"
       style="fill:#000000;fill-rule:nonzero" />
    <path
       d="m 387.7743,249.6483 h 75.74802 v 58.51967 H 387.7743 Z"
       id="path169"
       inkscape:connector-curvature="0"
       style="fill:#d9d9d9;fill-rule:evenodd" />
    <path
       d="M 463.51993,249.6483 H 415.46707"
       id="path171"
       inkscape:connector-curvature="0"
       style="fill:#000000;fill-opacity:0;fill-rule:evenodd" />
    <path
       d="M 463.51993,249.6483 H 415.46707"
       id="path173"
       inkscape:connector-curvature="0"
       style="fill-rule:evenodd;stroke:#595959;stroke-width:1;stroke-linecap:butt;stroke-linejoin:round;stroke-dasharray:4, 3" />
    <path
       d="M 463.51993,308.16797 H 415.46707"
       id="path175"
       inkscape:connector-curvature="0"
       style="fill:#000000;fill-opacity:0;fill-rule:evenodd" />
    <path
       d="M 463.51993,308.16797 H 415.46707"
       id="path177"
       inkscape:connector-curvature="0"
       style="fill-rule:evenodd;stroke:#595959;stroke-width:1;stroke-linecap:butt;stroke-linejoin:round;stroke-dasharray:4, 3" />
    <path
       d="M 416.16916,308.16797 H 387.77429"
       id="path179"
       inkscape:connector-curvature="0"
       style="fill:#000000;fill-opacity:0;fill-rule:evenodd" />
    <path
       d="M 416.16916,308.16797 H 387.77429"
       id="path181"
       inkscape:connector-curvature="0"
       style="fill-rule:evenodd;stroke:#595959;stroke-width:1;stroke-linecap:butt;stroke-linejoin:round" />
    <path
       d="M 416.16916,249.6483 H 387.77429"
       id="path183"
       inkscape:connector-curvature="0"
       style="fill:#000000;fill-opacity:0;fill-rule:evenodd" />
    <path
       d="M 416.16916,249.6483 H 387.77429"
       id="path185"
       inkscape:connector-curvature="0"
       style="fill-rule:evenodd;stroke:#595959;stroke-width:1;stroke-linecap:butt;stroke-linejoin:round" />
    <path
       d="m 387.7743,308.16534 v -58.2677"
       id="path187"
       inkscape:connector-curvature="0"
       style="fill:#000000;fill-opacity:0;fill-rule:evenodd" />
    <path
       d="m 387.7743,308.16534 v -58.2677"
       id="path189"
       inkscape:connector-curvature="0"
       style="fill-rule:evenodd;stroke:#595959;stroke-width:1;stroke-linecap:butt;stroke-linejoin:round" />
    <path
       d="m 387.7743,260.9165 h 81.00787 v 37.16534 H 387.7743 Z"
       id="path191"
       inkscape:connector-curvature="0"
       style="fill:#000000;fill-opacity:0;fill-rule:evenodd" />
    <path
       d="m 401.47742,275.65417 h -1.26563 q -0.0156,0.96875 -0.0156,1.92188 0,0.95312 0,2 h 1.125 q 1.1875,0 1.75,-0.5625 0.5625,-0.57813 0.5625,-1.45313 0,-0.9375 -0.51563,-1.42187 -0.51562,-0.48438 -1.64062,-0.48438 z m -4.0625,-0.0781 v -0.60938 h 4.10937 q 1.6875,0 2.625,0.6875 0.9375,0.67188 0.9375,1.89063 0,0.84375 -0.625,1.54687 -0.60937,0.70313 -1.84375,0.92188 0.65625,0.14062 1.0625,0.57812 0.42188,0.42188 0.67188,1.28125 l 0.625,2.17188 1.14062,0.14062 v 0.59375 q -0.23437,0.0625 -0.5,0.0937 -0.26562,0.0469 -0.60937,0.0469 -0.6875,0 -1.03125,-0.20313 -0.34375,-0.20312 -0.46875,-0.73437 l -0.59375,-2.34375 q -0.125,-0.59375 -0.375,-0.89063 -0.25,-0.3125 -0.64063,-0.40625 -0.39062,-0.10937 -0.98437,-0.10937 h -0.71875 q 0,1.0625 0,1.98437 0,0.92188 0.0156,1.79688 l 1.35938,0.17187 v 0.59375 h -4.15625 v -0.59375 l 1.35937,-0.17187 q 0.0156,-0.92188 0.0156,-1.875 0,-0.95313 0,-1.90625 v -0.71875 q 0,-0.95313 0,-1.89063 0,-0.95312 -0.0156,-1.89062 z m 12.69147,2.71875 q -0.40625,0 -0.82813,0.23437 -0.40625,0.23438 -0.71875,0.75 -0.29687,0.51563 -0.375,1.35938 h 2.65625 q 0.53125,0 0.70313,-0.21875 0.17187,-0.21875 0.17187,-0.53125 0,-0.42188 -0.21875,-0.78125 -0.21875,-0.35938 -0.57812,-0.57813 -0.35938,-0.23437 -0.8125,-0.23437 z m -0.0156,6.67187 q -1.46875,0 -2.375,-0.95312 -0.89062,-0.96875 -0.89062,-2.65625 0,-1.125 0.45312,-1.95313 0.46875,-0.84375 1.23438,-1.3125 0.78125,-0.46875 1.6875,-0.46875 0.76562,0 1.375,0.34375 0.625,0.32813 0.98437,0.95313 0.35938,0.625 0.35938,1.51562 0,0.25 -0.0312,0.46875 -0.0156,0.20313 -0.0625,0.35938 h -4.67188 q 0.0312,1.34375 0.67188,2.04687 0.64062,0.70313 1.70312,0.70313 0.70313,0 1.17188,-0.28125 0.46875,-0.28125 0.85937,-0.73438 l 0.34375,0.26563 q -0.40625,0.78125 -1.10937,1.25 -0.70313,0.45312 -1.70313,0.45312 z m 7.45908,0 q -1.5,0 -2.40625,-0.96875 -0.89063,-0.98437 -0.89063,-2.67187 0,-1.15625 0.46875,-1.98438 0.48438,-0.82812 1.26563,-1.26562 0.78125,-0.45313 1.65625,-0.45313 0.65625,0 1.21875,0.25 0.5625,0.25 0.92187,0.6875 0.35938,0.42188 0.45313,0.96875 -0.0937,0.5625 -0.67188,0.5625 -0.35937,0 -0.54687,-0.1875 -0.1875,-0.20312 -0.26563,-0.51562 l -0.26562,-0.96875 q -0.20313,-0.0781 -0.40625,-0.0937 -0.1875,-0.0312 -0.375,-0.0312 -0.9375,0 -1.54688,0.73437 -0.60937,0.73438 -0.60937,2.14063 0,1.375 0.65625,2.10937 0.65625,0.73438 1.6875,0.73438 0.625,0 1.15625,-0.28125 0.53125,-0.28125 0.85937,-0.82813 l 0.375,0.1875 q -0.3125,0.90625 -1,1.39063 -0.6875,0.48437 -1.73437,0.48437 z m 7.18353,-6.67187 q -0.40625,0 -0.82812,0.23437 -0.40625,0.23438 -0.71875,0.75 -0.29688,0.51563 -0.375,1.35938 h 2.65625 q 0.53125,0 0.70312,-0.21875 0.17188,-0.21875 0.17188,-0.53125 0,-0.42188 -0.21875,-0.78125 -0.21875,-0.35938 -0.57813,-0.57813 -0.35937,-0.23437 -0.8125,-0.23437 z m -0.0156,6.67187 q -1.46875,0 -2.375,-0.95312 -0.89063,-0.96875 -0.89063,-2.65625 0,-1.125 0.45313,-1.95313 0.46875,-0.84375 1.23437,-1.3125 0.78125,-0.46875 1.6875,-0.46875 0.76563,0 1.375,0.34375 0.625,0.32813 0.98438,0.95313 0.35937,0.625 0.35937,1.51562 0,0.25 -0.0312,0.46875 -0.0156,0.20313 -0.0625,0.35938 h -4.67187 q 0.0312,1.34375 0.67187,2.04687 0.64063,0.70313 1.70313,0.70313 0.70312,0 1.17187,-0.28125 0.46875,-0.28125 0.85938,-0.73438 l 0.34375,0.26563 q -0.40625,0.78125 -1.10938,1.25 -0.70312,0.45312 -1.70312,0.45312 z m 4.06848,-0.1875 v -0.53125 l 1.09375,-0.20312 q 0.0156,-0.5625 0.0156,-1.20313 0.0156,-0.65625 0.0156,-1.14062 v -0.6875 q 0,-0.60938 -0.0156,-1 0,-0.40625 -0.0312,-0.84375 l -1.17187,-0.14063 v -0.51562 l 2.26562,-0.89063 0.21875,0.15625 -0.0469,1.98438 v 1.9375 q 0,0.48437 0,1.14062 0.0156,0.64063 0.0312,1.20313 l 1.01562,0.20312 v 0.53125 z m 1.73437,-8.76562 q -0.42187,0 -0.70312,-0.26563 -0.28125,-0.26562 -0.28125,-0.67187 0,-0.42188 0.28125,-0.67188 0.28125,-0.26562 0.70312,-0.26562 0.40625,0 0.6875,0.26562 0.28125,0.25 0.28125,0.67188 0,0.40625 -0.28125,0.67187 -0.28125,0.26563 -0.6875,0.26563 z m 6.38196,2.375 v -0.57813 h 2.78125 v 0.57813 l -0.79687,0.1875 -2.375,6.29687 h -0.64063 l -2.65625,-6.34375 -0.79687,-0.14062 v -0.57813 h 3.54687 v 0.57813 l -1.29687,0.1875 1.79687,4.6875 1.625,-4.67188 z m 6.56122,-0.0937 q -0.40625,0 -0.82813,0.23437 -0.40625,0.23438 -0.71875,0.75 -0.29687,0.51563 -0.375,1.35938 h 2.65625 q 0.53125,0 0.70313,-0.21875 0.17187,-0.21875 0.17187,-0.53125 0,-0.42188 -0.21875,-0.78125 -0.21875,-0.35938 -0.57812,-0.57813 -0.35938,-0.23437 -0.8125,-0.23437 z m -0.0156,6.67187 q -1.46875,0 -2.375,-0.95312 -0.89062,-0.96875 -0.89062,-2.65625 0,-1.125 0.45312,-1.95313 0.46875,-0.84375 1.23438,-1.3125 0.78125,-0.46875 1.6875,-0.46875 0.76562,0 1.375,0.34375 0.625,0.32813 0.98437,0.95313 0.35938,0.625 0.35938,1.51562 0,0.25 -0.0312,0.46875 -0.0156,0.20313 -0.0625,0.35938 h -4.67188 q 0.0312,1.34375 0.67188,2.04687 0.64062,0.70313 1.70312,0.70313 0.70313,0 1.17188,-0.28125 0.46875,-0.28125 0.85937,-0.73438 l 0.34375,0.26563 q -0.40625,0.78125 -1.10937,1.25 -0.70313,0.45312 -1.70313,0.45312 z m 4.1622,-0.1875 v -0.53125 l 1.0625,-0.1875 q 0.0156,-0.5625 0.0156,-1.20312 0.0156,-0.65625 0.0156,-1.15625 v -0.70313 q 0,-0.59375 -0.0156,-0.98437 0,-0.40625 -0.0312,-0.84375 l -1.15625,-0.14063 v -0.51562 l 2.04687,-0.89063 0.21875,0.15625 0.17188,1.71875 q 0.35937,-0.875 0.9375,-1.375 0.57812,-0.5 1.17187,-0.5 0.32813,0 0.625,0.15625 0.29688,0.14063 0.42188,0.39063 0,1.0625 -0.85938,1.0625 -0.25,0 -0.46875,-0.0937 -0.21875,-0.0937 -0.42187,-0.26563 l -0.1875,-0.15625 q -0.4375,0.3125 -0.73438,0.78125 -0.28125,0.46875 -0.46875,1.10938 v 1.09375 q 0,0.48437 0,1.14062 0,0.64063 0.0156,1.1875 l 1.20312,0.21875 v 0.53125 z"
       id="path193"
       inkscape:connector-curvature="0"
       style="fill:#000000;fill-rule:nonzero" />
    <path
       d="m 266.25974,205.28683 h 212.56693 v 32.28346 H 266.25974 Z"
       id="path195"
       inkscape:connector-curvature="0"
       style="fill:#000000;fill-opacity:0;fill-rule:evenodd" />
    <path
       d="m 266.75974,225.74857 v -0.4375 l 0.875,-0.15625 q 0,-0.45313 0,-0.98438 0.0156,-0.53125 0.0156,-0.9375 v -0.57812 q 0,-0.5 -0.0156,-0.8125 0,-0.32813 -0.0156,-0.6875 l -0.95313,-0.10938 v -0.42187 l 1.6875,-0.73438 0.17188,0.125 0.14062,1.42188 q 0.29688,-0.73438 0.76563,-1.14063 0.46875,-0.40625 0.95312,-0.40625 0.28125,0 0.51563,0.125 0.25,0.125 0.34375,0.32813 0,0.875 -0.70313,0.875 -0.20312,0 -0.39062,-0.0781 -0.17188,-0.0781 -0.34375,-0.23437 l -0.14063,-0.125 q -0.35937,0.26562 -0.60937,0.65625 -0.23438,0.375 -0.39063,0.89062 v 0.90625 q 0,0.39063 0,0.92188 0.0156,0.53125 0.0312,0.98437 l 0.98438,0.17188 v 0.4375 z m 7.6904,-5.29688 q -0.34375,0 -0.6875,0.1875 -0.34375,0.1875 -0.59375,0.60938 -0.23438,0.42187 -0.3125,1.10937 h 2.1875 q 0.4375,0 0.5625,-0.17187 0.14062,-0.1875 0.14062,-0.45313 0,-0.34375 -0.17187,-0.625 -0.17188,-0.29687 -0.46875,-0.46875 -0.29688,-0.1875 -0.65625,-0.1875 z m -0.0156,5.45313 q -1.21875,0 -1.95312,-0.78125 -0.71875,-0.79688 -0.71875,-2.17188 0,-0.92187 0.375,-1.60937 0.375,-0.6875 1,-1.0625 0.64062,-0.39063 1.375,-0.39063 0.625,0 1.125,0.28125 0.51562,0.28125 0.8125,0.79688 0.29687,0.5 0.29687,1.23437 0,0.20313 -0.0312,0.375 -0.0156,0.17188 -0.0469,0.29688 h -3.82813 q 0.0156,1.09375 0.54688,1.67187 0.53125,0.57813 1.39062,0.57813 0.57813,0 0.95313,-0.23438 0.39062,-0.23437 0.71875,-0.60937 l 0.28125,0.23437 q -0.32813,0.64063 -0.90625,1.01563 -0.57813,0.375 -1.39063,0.375 z m 7.76569,-0.0312 q -0.42187,0 -0.71875,-0.25 -0.28125,-0.26563 -0.35937,-0.67188 -0.48438,0.46875 -0.85938,0.71875 -0.375,0.23438 -0.90625,0.23438 -0.65625,0 -1.125,-0.375 -0.46875,-0.375 -0.46875,-1.125 0,-0.34375 0.15625,-0.64063 0.15625,-0.3125 0.59375,-0.59375 0.4375,-0.29687 1.23438,-0.57812 0.28125,-0.0937 0.64062,-0.20313 0.35938,-0.10937 0.71875,-0.1875 v -0.3125 q 0,-0.875 -0.26562,-1.15625 -0.26563,-0.28125 -0.85938,-0.28125 -0.14062,0 -0.3125,0.0156 -0.15625,0 -0.34375,0.0469 l -0.21875,0.78125 q -0.17187,0.57813 -0.625,0.57813 -0.51562,0 -0.5625,-0.5 0.15625,-0.67188 0.78125,-1.07813 0.64063,-0.40625 1.54688,-0.40625 0.95312,0 1.40625,0.48438 0.45312,0.46875 0.45312,1.60937 v 2.54688 q 0,0.39062 0.125,0.5625 0.125,0.15625 0.3125,0.15625 0.15625,0 0.26563,-0.0625 0.10937,-0.0781 0.20312,-0.20313 l 0.23438,0.26563 q -0.21875,0.34375 -0.48438,0.48437 -0.25,0.14063 -0.5625,0.14063 z m -3.375,-1.65625 q 0,0.48437 0.26563,0.6875 0.28125,0.20312 0.6875,0.20312 0.1875,0 0.34375,-0.0469 0.17187,-0.0469 0.39062,-0.1875 0.23438,-0.14063 0.59375,-0.39063 v -1.84375 q -0.3125,0.0781 -0.625,0.1875 -0.29687,0.10938 -0.48437,0.17188 -0.51563,0.20312 -0.76563,0.42187 -0.25,0.21875 -0.32812,0.42188 -0.0781,0.20312 -0.0781,0.375 z m 6.12366,-1.28125 q 0,1.17187 0.46875,1.73437 0.46875,0.54688 1.1875,0.54688 0.40625,0 0.70312,-0.15625 0.3125,-0.17188 0.64063,-0.53125 v -3.32813 q -0.40625,-0.35937 -0.73438,-0.48437 -0.3125,-0.14063 -0.60937,-0.14063 -0.45313,0 -0.82813,0.25 -0.375,0.23438 -0.60937,0.76563 -0.21875,0.51562 -0.21875,1.34375 z m 3.125,2.9375 -0.0781,-0.82813 q -0.3125,0.40625 -0.71875,0.64063 -0.40625,0.21875 -0.96875,0.21875 -0.73437,0 -1.28125,-0.375 -0.54687,-0.375 -0.85937,-1.03125 -0.29688,-0.67188 -0.29688,-1.54688 0,-0.92187 0.32813,-1.60937 0.34375,-0.6875 0.90625,-1.0625 0.57812,-0.39063 1.3125,-0.39063 0.42187,0 0.8125,0.17188 0.39062,0.17187 0.76562,0.60937 v -2.70312 l -1.03125,-0.125 v -0.42188 l 1.875,-0.54687 0.17188,0.10937 -0.0469,1.70313 v 6.48437 l 0.96875,0.14063 v 0.4375 z m 5.73092,-5.39063 v -0.4375 h 2.34375 v 0.4375 l -0.64062,0.125 -1.9375,5.10938 q -0.59375,1.59375 -1.15625,2.29687 -0.5625,0.71875 -1.29688,0.71875 -0.45312,0 -0.78125,-0.21875 -0.32812,-0.21875 -0.32812,-0.5625 0.0625,-0.26562 0.29687,-0.40625 0.23438,-0.125 0.5,-0.125 0.25,0 0.45313,0.0937 0.20312,0.10938 0.4375,0.35938 l 0.0625,0.0625 q 0.39062,-0.32813 0.64062,-0.79688 0.26563,-0.45312 0.4375,-0.9375 l 0.0469,-0.14062 -2.17188,-5.48438 -0.65625,-0.0937 v -0.4375 h 2.875 v 0.45313 l -1.04687,0.10937 1.5,4.09375 1.46875,-4.07812 z m 4.26905,1.92188 q 0,0.96875 0.15625,1.8125 0.17187,0.82812 0.57812,1.6875 0.40625,0.85937 1.10938,1.875 l -0.3125,0.26562 q -1.26563,-1.1875 -1.89063,-2.57812 -0.60937,-1.40625 -0.60937,-3.0625 0,-1.64063 0.60937,-3.03125 0.625,-1.40625 1.89063,-2.59375 l 0.3125,0.26562 q -0.70313,1.01563 -1.10938,1.875 -0.40625,0.85938 -0.57812,1.70313 -0.15625,0.82812 -0.15625,1.78125 z m 2.56802,6.21875 v -0.42188 l 0.95313,-0.17187 q 0.0156,-0.5 0.0156,-0.98438 0.0156,-0.48437 0.0156,-0.95312 v -3.4375 q 0,-0.5 -0.0156,-0.8125 0,-0.32813 -0.0156,-0.6875 l -0.95313,-0.10938 v -0.42187 l 1.67188,-0.73438 0.1875,0.125 0.0781,0.78125 q 0.84375,-0.90625 1.79688,-0.90625 0.65625,0 1.17187,0.35938 0.51563,0.35937 0.8125,1.03125 0.3125,0.67187 0.3125,1.59375 0,0.9375 -0.32812,1.60937 -0.3125,0.67188 -0.875,1.04688 -0.5625,0.375 -1.26563,0.375 -0.40625,0 -0.8125,-0.17188 -0.40625,-0.17187 -0.78125,-0.60937 v 0.95312 q 0,0.46875 0,0.95313 0.0156,0.5 0.0156,0.98437 l 1.09375,0.1875 v 0.42188 z m 3.45313,-8.04688 q -0.28125,0 -0.64063,0.14063 -0.35937,0.14062 -0.8125,0.51562 v 3.375 q 0.34375,0.32813 0.65625,0.46875 0.32813,0.14063 0.67188,0.14063 0.67187,0 1.14062,-0.53125 0.48438,-0.54688 0.48438,-1.70313 0,-1.15625 -0.42188,-1.78125 -0.42187,-0.625 -1.07812,-0.625 z m 5.44354,4.82813 q 0,0.71875 -0.34375,1.32812 -0.34375,0.60938 -0.875,1.04688 -0.53125,0.4375 -1.10938,0.65625 l -0.15625,-0.40625 q 0.60938,-0.3125 1.07813,-0.76563 0.46875,-0.4375 0.6875,-1.10937 l -0.45313,-0.34375 q -0.23437,-0.1875 -0.34375,-0.40625 -0.10937,-0.23438 -0.10937,-0.45313 0,-0.3125 0.1875,-0.53125 0.1875,-0.23437 0.5625,-0.23437 0.15625,0 0.32812,0.0781 0.1875,0.0625 0.40625,0.26563 0.0781,0.23437 0.10938,0.45312 0.0312,0.20313 0.0312,0.42188 z m 5.75543,-3 q 0,0.96875 0.15625,1.8125 0.17187,0.82812 0.57812,1.6875 0.40625,0.85937 1.10938,1.875 l -0.3125,0.26562 q -1.26563,-1.1875 -1.89063,-2.57812 -0.60937,-1.40625 -0.60937,-3.0625 0,-1.64063 0.60937,-3.03125 0.625,-1.40625 1.89063,-2.59375 l 0.3125,0.26562 q -0.70313,1.01563 -1.10938,1.875 -0.40625,0.85938 -0.57812,1.70313 -0.15625,0.82812 -0.15625,1.78125 z m 7.13052,3.46875 q -0.42187,0 -0.71875,-0.25 -0.28125,-0.26563 -0.35937,-0.67188 -0.48438,0.46875 -0.85938,0.71875 -0.375,0.23438 -0.90625,0.23438 -0.65625,0 -1.125,-0.375 -0.46875,-0.375 -0.46875,-1.125 0,-0.34375 0.15625,-0.64063 0.15625,-0.3125 0.59375,-0.59375 0.4375,-0.29687 1.23438,-0.57812 0.28125,-0.0937 0.64062,-0.20313 0.35938,-0.10937 0.71875,-0.1875 v -0.3125 q 0,-0.875 -0.26562,-1.15625 -0.26563,-0.28125 -0.85938,-0.28125 -0.14062,0 -0.3125,0.0156 -0.15625,0 -0.34375,0.0469 l -0.21875,0.78125 q -0.17187,0.57813 -0.625,0.57813 -0.51562,0 -0.5625,-0.5 0.15625,-0.67188 0.78125,-1.07813 0.64063,-0.40625 1.54688,-0.40625 0.95312,0 1.40625,0.48438 0.45312,0.46875 0.45312,1.60937 v 2.54688 q 0,0.39062 0.125,0.5625 0.125,0.15625 0.3125,0.15625 0.15625,0 0.26563,-0.0625 0.10937,-0.0781 0.20312,-0.20313 l 0.23438,0.26563 q -0.21875,0.34375 -0.48438,0.48437 -0.25,0.14063 -0.5625,0.14063 z m -3.375,-1.65625 q 0,0.48437 0.26563,0.6875 0.28125,0.20312 0.6875,0.20312 0.1875,0 0.34375,-0.0469 0.17187,-0.0469 0.39062,-0.1875 0.23438,-0.14063 0.59375,-0.39063 v -1.84375 q -0.3125,0.0781 -0.625,0.1875 -0.29687,0.10938 -0.48437,0.17188 -0.51563,0.20312 -0.76563,0.42187 -0.25,0.21875 -0.32812,0.42188 -0.0781,0.20312 -0.0781,0.375 z m 7.93055,-3.70313 v -0.46875 h 2.28125 v 0.46875 l -0.65625,0.15625 -1.95313,5.15625 h -0.51562 l -2.1875,-5.1875 -0.64063,-0.125 v -0.46875 h 2.90625 v 0.46875 l -1.0625,0.15625 1.46875,3.84375 1.32813,-3.82812 z m 7.18054,5.35938 q -0.42188,0 -0.71875,-0.25 -0.28125,-0.26563 -0.35938,-0.67188 -0.48437,0.46875 -0.85937,0.71875 -0.375,0.23438 -0.90625,0.23438 -0.65625,0 -1.125,-0.375 -0.46875,-0.375 -0.46875,-1.125 0,-0.34375 0.15625,-0.64063 0.15625,-0.3125 0.59375,-0.59375 0.4375,-0.29687 1.23437,-0.57812 0.28125,-0.0937 0.64063,-0.20313 0.35937,-0.10937 0.71875,-0.1875 v -0.3125 q 0,-0.875 -0.26563,-1.15625 -0.26562,-0.28125 -0.85937,-0.28125 -0.14063,0 -0.3125,0.0156 -0.15625,0 -0.34375,0.0469 l -0.21875,0.78125 q -0.17188,0.57813 -0.625,0.57813 -0.51563,0 -0.5625,-0.5 0.15625,-0.67188 0.78125,-1.07813 0.64062,-0.40625 1.54687,-0.40625 0.95313,0 1.40625,0.48438 0.45313,0.46875 0.45313,1.60937 v 2.54688 q 0,0.39062 0.125,0.5625 0.125,0.15625 0.3125,0.15625 0.15625,0 0.26562,-0.0625 0.10938,-0.0781 0.20313,-0.20313 l 0.23437,0.26563 q -0.21875,0.34375 -0.48437,0.48437 -0.25,0.14063 -0.5625,0.14063 z m -3.375,-1.65625 q 0,0.48437 0.26562,0.6875 0.28125,0.20312 0.6875,0.20312 0.1875,0 0.34375,-0.0469 0.17188,-0.0469 0.39063,-0.1875 0.23437,-0.14063 0.59375,-0.39063 v -1.84375 q -0.3125,0.0781 -0.625,0.1875 -0.29688,0.10938 -0.48438,0.17188 -0.51562,0.20312 -0.76562,0.42187 -0.25,0.21875 -0.32813,0.42188 -0.0781,0.20312 -0.0781,0.375 z m 4.92053,1.53125 v -0.4375 l 0.89062,-0.15625 q 0.0156,-0.46875 0.0156,-1 0.0156,-0.53125 0.0156,-0.92188 v -0.5625 q 0,-0.5 -0.0156,-0.82812 0,-0.32813 -0.0156,-0.6875 l -0.96875,-0.10938 v -0.42187 l 1.85938,-0.73438 0.17187,0.125 -0.0312,1.625 v 1.59375 q 0,0.39063 0,0.92188 0.0156,0.53125 0.0156,1 l 0.84375,0.15625 v 0.4375 z m 1.42187,-7.17188 q -0.34375,0 -0.57812,-0.21875 -0.23438,-0.21875 -0.23438,-0.54687 0,-0.35938 0.23438,-0.5625 0.23437,-0.21875 0.57812,-0.21875 0.32813,0 0.5625,0.21875 0.23438,0.20312 0.23438,0.5625 0,0.32812 -0.23438,0.54687 -0.23437,0.21875 -0.5625,0.21875 z m 2.02915,7.17188 v -0.4375 l 0.96875,-0.15625 q 0,-0.5 0,-0.96875 0.0156,-0.48438 0.0156,-0.95313 v -5.26562 l -0.98437,-0.125 v -0.42188 l 1.875,-0.54687 0.17187,0.10937 -0.0469,1.70313 v 4.54687 q 0,0.46875 0,0.95313 0,0.48437 0.0156,0.96875 l 0.96875,0.15625 v 0.4375 z m 5.84164,-0.34375 q 0,0.71875 -0.34375,1.32812 -0.34375,0.60938 -0.875,1.04688 -0.53125,0.4375 -1.10937,0.65625 l -0.15625,-0.40625 q 0.60937,-0.3125 1.07812,-0.76563 0.46875,-0.4375 0.6875,-1.10937 l -0.45312,-0.34375 q -0.23438,-0.1875 -0.34375,-0.40625 -0.10938,-0.23438 -0.10938,-0.45313 0,-0.3125 0.1875,-0.53125 0.1875,-0.23437 0.5625,-0.23437 0.15625,0 0.32813,0.0781 0.1875,0.0625 0.40625,0.26563 0.0781,0.23437 0.10937,0.45312 0.0312,0.20313 0.0312,0.42188 z m 4.33356,0.34375 v -0.4375 l 0.875,-0.15625 q 0,-0.45313 0,-0.98438 0.0156,-0.53125 0.0156,-0.9375 v -0.57812 q 0,-0.5 -0.0156,-0.8125 0,-0.32813 -0.0156,-0.6875 l -0.95312,-0.10938 v -0.42187 l 1.6875,-0.73438 0.17187,0.125 0.14063,1.42188 q 0.29687,-0.73438 0.76562,-1.14063 0.46875,-0.40625 0.95313,-0.40625 0.28125,0 0.51562,0.125 0.25,0.125 0.34375,0.32813 0,0.875 -0.70312,0.875 -0.20313,0 -0.39063,-0.0781 -0.17187,-0.0781 -0.34375,-0.23437 l -0.14062,-0.125 q -0.35938,0.26562 -0.60938,0.65625 -0.23437,0.375 -0.39062,0.89062 v 0.90625 q 0,0.39063 0,0.92188 0.0156,0.53125 0.0312,0.98437 l 0.98437,0.17188 v 0.4375 z m 6.46466,-3.34375 q 0,-0.95313 -0.17187,-1.78125 -0.15625,-0.84375 -0.5625,-1.70313 -0.39063,-0.85937 -1.10938,-1.875 l 0.3125,-0.26562 q 1.28125,1.1875 1.89063,2.59375 0.60937,1.39062 0.60937,3.03125 0,1.65625 -0.60937,3.0625 -0.60938,1.39062 -1.89063,2.57812 l -0.3125,-0.26562 q 0.71875,-1.01563 1.10938,-1.875 0.40625,-0.85938 0.5625,-1.6875 0.17187,-0.84375 0.17187,-1.8125 z m 3.45602,0 q 0,-0.95313 -0.17187,-1.78125 -0.15625,-0.84375 -0.5625,-1.70313 -0.39063,-0.85937 -1.10938,-1.875 l 0.3125,-0.26562 q 1.28125,1.1875 1.89063,2.59375 0.60937,1.39062 0.60937,3.03125 0,1.65625 -0.60937,3.0625 -0.60938,1.39062 -1.89063,2.57812 l -0.3125,-0.26562 q 0.71875,-1.01563 1.10938,-1.875 0.40625,-0.85938 0.5625,-1.6875 0.17187,-0.84375 0.17187,-1.8125 z m 10.75467,0.9375 h -5.6875 v -0.6875 h 5.6875 z m 0,-2.40625 h -5.6875 v -0.6875 h 5.6875 z m 8.12119,4.9375 q -0.42188,0 -0.71875,-0.25 -0.28125,-0.26563 -0.35938,-0.67188 -0.48437,0.46875 -0.85937,0.71875 -0.375,0.23438 -0.90625,0.23438 -0.65625,0 -1.125,-0.375 -0.46875,-0.375 -0.46875,-1.125 0,-0.34375 0.15625,-0.64063 0.15625,-0.3125 0.59375,-0.59375 0.4375,-0.29687 1.23437,-0.57812 0.28125,-0.0937 0.64063,-0.20313 0.35937,-0.10937 0.71875,-0.1875 v -0.3125 q 0,-0.875 -0.26563,-1.15625 -0.26562,-0.28125 -0.85937,-0.28125 -0.14063,0 -0.3125,0.0156 -0.15625,0 -0.34375,0.0469 l -0.21875,0.78125 q -0.17188,0.57813 -0.625,0.57813 -0.51563,0 -0.5625,-0.5 0.15625,-0.67188 0.78125,-1.07813 0.64062,-0.40625 1.54687,-0.40625 0.95313,0 1.40625,0.48438 0.45313,0.46875 0.45313,1.60937 v 2.54688 q 0,0.39062 0.125,0.5625 0.125,0.15625 0.3125,0.15625 0.15625,0 0.26562,-0.0625 0.10938,-0.0781 0.20313,-0.20313 l 0.23437,0.26563 q -0.21875,0.34375 -0.48437,0.48437 -0.25,0.14063 -0.5625,0.14063 z m -3.375,-1.65625 q 0,0.48437 0.26562,0.6875 0.28125,0.20312 0.6875,0.20312 0.1875,0 0.34375,-0.0469 0.17188,-0.0469 0.39063,-0.1875 0.23437,-0.14063 0.59375,-0.39063 v -1.84375 q -0.3125,0.0781 -0.625,0.1875 -0.29688,0.10938 -0.48438,0.17188 -0.51562,0.20312 -0.76562,0.42187 -0.25,0.21875 -0.32813,0.42188 -0.0781,0.20312 -0.0781,0.375 z m 7.93054,-3.70313 v -0.46875 h 2.28125 v 0.46875 l -0.65625,0.15625 -1.95312,5.15625 h -0.51563 l -2.1875,-5.1875 -0.64062,-0.125 v -0.46875 h 2.90625 v 0.46875 l -1.0625,0.15625 1.46875,3.84375 1.32812,-3.82812 z m 7.18054,5.35938 q -0.42187,0 -0.71875,-0.25 -0.28125,-0.26563 -0.35937,-0.67188 -0.48438,0.46875 -0.85938,0.71875 -0.375,0.23438 -0.90625,0.23438 -0.65625,0 -1.125,-0.375 -0.46875,-0.375 -0.46875,-1.125 0,-0.34375 0.15625,-0.64063 0.15625,-0.3125 0.59375,-0.59375 0.4375,-0.29687 1.23438,-0.57812 0.28125,-0.0937 0.64062,-0.20313 0.35938,-0.10937 0.71875,-0.1875 v -0.3125 q 0,-0.875 -0.26562,-1.15625 -0.26563,-0.28125 -0.85938,-0.28125 -0.14062,0 -0.3125,0.0156 -0.15625,0 -0.34375,0.0469 l -0.21875,0.78125 q -0.17187,0.57813 -0.625,0.57813 -0.51562,0 -0.5625,-0.5 0.15625,-0.67188 0.78125,-1.07813 0.64063,-0.40625 1.54688,-0.40625 0.95312,0 1.40625,0.48438 0.45312,0.46875 0.45312,1.60937 v 2.54688 q 0,0.39062 0.125,0.5625 0.125,0.15625 0.3125,0.15625 0.15625,0 0.26563,-0.0625 0.10937,-0.0781 0.20312,-0.20313 l 0.23438,0.26563 q -0.21875,0.34375 -0.48438,0.48437 -0.25,0.14063 -0.5625,0.14063 z m -3.375,-1.65625 q 0,0.48437 0.26563,0.6875 0.28125,0.20312 0.6875,0.20312 0.1875,0 0.34375,-0.0469 0.17187,-0.0469 0.39062,-0.1875 0.23438,-0.14063 0.59375,-0.39063 v -1.84375 q -0.3125,0.0781 -0.625,0.1875 -0.29687,0.10938 -0.48437,0.17188 -0.51563,0.20312 -0.76563,0.42187 -0.25,0.21875 -0.32812,0.42188 -0.0781,0.20312 -0.0781,0.375 z m 4.92053,1.53125 v -0.4375 l 0.89063,-0.15625 q 0.0156,-0.46875 0.0156,-1 0.0156,-0.53125 0.0156,-0.92188 v -0.5625 q 0,-0.5 -0.0156,-0.82812 0,-0.32813 -0.0156,-0.6875 l -0.96875,-0.10938 v -0.42187 l 1.85937,-0.73438 0.17188,0.125 -0.0312,1.625 v 1.59375 q 0,0.39063 0,0.92188 0.0156,0.53125 0.0156,1 l 0.84375,0.15625 v 0.4375 z m 1.42188,-7.17188 q -0.34375,0 -0.57813,-0.21875 -0.23437,-0.21875 -0.23437,-0.54687 0,-0.35938 0.23437,-0.5625 0.23438,-0.21875 0.57813,-0.21875 0.32812,0 0.5625,0.21875 0.23437,0.20312 0.23437,0.5625 0,0.32812 -0.23437,0.54687 -0.23438,0.21875 -0.5625,0.21875 z m 2.02914,7.17188 v -0.4375 l 0.96875,-0.15625 q 0,-0.5 0,-0.96875 0.0156,-0.48438 0.0156,-0.95313 v -5.26562 l -0.98438,-0.125 v -0.42188 l 1.875,-0.54687 0.17188,0.10937 -0.0469,1.70313 v 4.54687 q 0,0.46875 0,0.95313 0,0.48437 0.0156,0.96875 l 0.96875,0.15625 v 0.4375 z"
       id="path197"
       inkscape:connector-curvature="0"
       style="fill:#202122;fill-rule:nonzero" />
    <path
       d="m 402.67102,226.21732 4.26562,-9.70313 4.26563,9.70313 -0.375,0.1875 -3.89063,-8.85938 -3.89062,8.85938 z"
       id="path199"
       inkscape:connector-curvature="0"
       style="fill:#202122;fill-rule:nonzero" />
    <path
       d="m 416.23267,225.74857 v -0.4375 l 0.875,-0.15625 q 0,-0.45313 0,-0.98438 0.0156,-0.53125 0.0156,-0.9375 v -0.57812 q 0,-0.5 -0.0156,-0.8125 0,-0.32813 -0.0156,-0.6875 l -0.95312,-0.10938 v -0.42187 l 1.6875,-0.73438 0.17187,0.125 0.14063,1.42188 q 0.29687,-0.73438 0.76562,-1.14063 0.46875,-0.40625 0.95313,-0.40625 0.28125,0 0.51562,0.125 0.25,0.125 0.34375,0.32813 0,0.875 -0.70312,0.875 -0.20313,0 -0.39063,-0.0781 -0.17187,-0.0781 -0.34375,-0.23437 l -0.14062,-0.125 q -0.35938,0.26562 -0.60938,0.65625 -0.23437,0.375 -0.39062,0.89062 v 0.90625 q 0,0.39063 0,0.92188 0.0156,0.53125 0.0312,0.98437 l 0.98437,0.17188 v 0.4375 z m 7.69043,-5.29688 q -0.34375,0 -0.6875,0.1875 -0.34375,0.1875 -0.59375,0.60938 -0.23438,0.42187 -0.3125,1.10937 h 2.1875 q 0.4375,0 0.5625,-0.17187 0.14062,-0.1875 0.14062,-0.45313 0,-0.34375 -0.17187,-0.625 -0.17188,-0.29687 -0.46875,-0.46875 -0.29688,-0.1875 -0.65625,-0.1875 z m -0.0156,5.45313 q -1.21875,0 -1.95312,-0.78125 -0.71875,-0.79688 -0.71875,-2.17188 0,-0.92187 0.375,-1.60937 0.375,-0.6875 1,-1.0625 0.64062,-0.39063 1.375,-0.39063 0.625,0 1.125,0.28125 0.51562,0.28125 0.8125,0.79688 0.29687,0.5 0.29687,1.23437 0,0.20313 -0.0312,0.375 -0.0156,0.17188 -0.0469,0.29688 h -3.82813 q 0.0156,1.09375 0.54688,1.67187 0.53125,0.57813 1.39062,0.57813 0.57813,0 0.95313,-0.23438 0.39062,-0.23437 0.71875,-0.60937 l 0.28125,0.23437 q -0.32813,0.64063 -0.90625,1.01563 -0.57813,0.375 -1.39063,0.375 z m 7.76566,-0.0312 q -0.42187,0 -0.71875,-0.25 -0.28125,-0.26563 -0.35937,-0.67188 -0.48438,0.46875 -0.85938,0.71875 -0.375,0.23438 -0.90625,0.23438 -0.65625,0 -1.125,-0.375 -0.46875,-0.375 -0.46875,-1.125 0,-0.34375 0.15625,-0.64063 0.15625,-0.3125 0.59375,-0.59375 0.4375,-0.29687 1.23438,-0.57812 0.28125,-0.0937 0.64062,-0.20313 0.35938,-0.10937 0.71875,-0.1875 v -0.3125 q 0,-0.875 -0.26562,-1.15625 -0.26563,-0.28125 -0.85938,-0.28125 -0.14062,0 -0.3125,0.0156 -0.15625,0 -0.34375,0.0469 l -0.21875,0.78125 q -0.17187,0.57813 -0.625,0.57813 -0.51562,0 -0.5625,-0.5 0.15625,-0.67188 0.78125,-1.07813 0.64063,-0.40625 1.54688,-0.40625 0.95312,0 1.40625,0.48438 0.45312,0.46875 0.45312,1.60937 v 2.54688 q 0,0.39062 0.125,0.5625 0.125,0.15625 0.3125,0.15625 0.15625,0 0.26563,-0.0625 0.10937,-0.0781 0.20312,-0.20313 l 0.23438,0.26563 q -0.21875,0.34375 -0.48438,0.48437 -0.25,0.14063 -0.5625,0.14063 z m -3.375,-1.65625 q 0,0.48437 0.26563,0.6875 0.28125,0.20312 0.6875,0.20312 0.1875,0 0.34375,-0.0469 0.17187,-0.0469 0.39062,-0.1875 0.23438,-0.14063 0.59375,-0.39063 v -1.84375 q -0.3125,0.0781 -0.625,0.1875 -0.29687,0.10938 -0.48437,0.17188 -0.51563,0.20312 -0.76563,0.42187 -0.25,0.21875 -0.32812,0.42188 -0.0781,0.20312 -0.0781,0.375 z m 6.12369,-1.28125 q 0,1.17187 0.46875,1.73437 0.46875,0.54688 1.1875,0.54688 0.40625,0 0.70312,-0.15625 0.3125,-0.17188 0.64063,-0.53125 v -3.32813 q -0.40625,-0.35937 -0.73438,-0.48437 -0.3125,-0.14063 -0.60937,-0.14063 -0.45313,0 -0.82813,0.25 -0.375,0.23438 -0.60937,0.76563 -0.21875,0.51562 -0.21875,1.34375 z m 3.125,2.9375 -0.0781,-0.82813 q -0.3125,0.40625 -0.71875,0.64063 -0.40625,0.21875 -0.96875,0.21875 -0.73437,0 -1.28125,-0.375 -0.54687,-0.375 -0.85937,-1.03125 -0.29688,-0.67188 -0.29688,-1.54688 0,-0.92187 0.32813,-1.60937 0.34375,-0.6875 0.90625,-1.0625 0.57812,-0.39063 1.3125,-0.39063 0.42187,0 0.8125,0.17188 0.39062,0.17187 0.76562,0.60937 v -2.70312 l -1.03125,-0.125 v -0.42188 l 1.875,-0.54687 0.17188,0.10937 -0.0469,1.70313 v 6.48437 l 0.96875,0.14063 v 0.4375 z m 5.73092,-5.39063 v -0.4375 h 2.34375 v 0.4375 l -0.64062,0.125 -1.9375,5.10938 q -0.59375,1.59375 -1.15625,2.29687 -0.5625,0.71875 -1.29688,0.71875 -0.45312,0 -0.78125,-0.21875 -0.32812,-0.21875 -0.32812,-0.5625 0.0625,-0.26562 0.29687,-0.40625 0.23438,-0.125 0.5,-0.125 0.25,0 0.45313,0.0937 0.20312,0.10938 0.4375,0.35938 l 0.0625,0.0625 q 0.39062,-0.32813 0.64062,-0.79688 0.26563,-0.45312 0.4375,-0.9375 l 0.0469,-0.14062 -2.17188,-5.48438 -0.65625,-0.0937 v -0.4375 h 2.875 v 0.45313 l -1.04687,0.10937 1.5,4.09375 1.46875,-4.07812 z"
       id="path201"
       inkscape:connector-curvature="0"
       style="fill:#202122;fill-rule:nonzero" />
    <path
       d="m 449.32803,225.21732 v -0.32813 h 2.25 v 0.32813 l -0.73438,0.0937 q -0.0156,0.5 -0.0156,1.03125 0,0.51562 0,1.03125 v 0.39062 q 0,0.51563 0,1.03125 0,0.51563 0.0156,1.03125 l 0.73438,0.0937 v 0.32813 h -2.25 v -0.32813 l 0.73437,-0.0937 q 0.0156,-0.5 0.0156,-1.03125 0,-0.53125 0,-1.09375 h -2.59375 q 0,0.60938 0,1.125 0.0156,0.51563 0.0156,1.01563 l 0.73438,0.0781 v 0.32813 h -2.25 v -0.32813 l 0.73437,-0.0937 q 0.0156,-0.5 0.0156,-1.01562 0,-0.51563 0,-1.04688 v -0.39062 q 0,-0.51563 0,-1.03125 0,-0.51563 -0.0156,-1.03125 l -0.73437,-0.0937 v -0.32813 h 2.25 v 0.32813 l -0.73438,0.0937 q 0,0.5 -0.0156,1.01562 0,0.51563 0,1 h 2.59375 q 0,-0.53125 0,-1.03125 0,-0.5 -0.0156,-0.98437 z"
       id="path203"
       inkscape:connector-curvature="0"
       style="fill:#202122;fill-rule:nonzero" />
    <path
       d="m 453.8587,222.40482 q 0,0.96875 0.15625,1.8125 0.17187,0.82812 0.57812,1.6875 0.40625,0.85937 1.10938,1.875 l -0.3125,0.26562 q -1.26563,-1.1875 -1.89063,-2.57812 -0.60937,-1.40625 -0.60937,-3.0625 0,-1.64063 0.60937,-3.03125 0.625,-1.40625 1.89063,-2.59375 l 0.3125,0.26562 q -0.70313,1.01563 -1.10938,1.875 -0.40625,0.85938 -0.57812,1.70313 -0.15625,0.82812 -0.15625,1.78125 z m 2.56802,6.21875 v -0.42188 l 0.95313,-0.17187 q 0.0156,-0.5 0.0156,-0.98438 0.0156,-0.48437 0.0156,-0.95312 v -3.4375 q 0,-0.5 -0.0156,-0.8125 0,-0.32813 -0.0156,-0.6875 l -0.95313,-0.10938 v -0.42187 l 1.67188,-0.73438 0.1875,0.125 0.0781,0.78125 q 0.84375,-0.90625 1.79688,-0.90625 0.65625,0 1.17187,0.35938 0.51563,0.35937 0.8125,1.03125 0.3125,0.67187 0.3125,1.59375 0,0.9375 -0.32812,1.60937 -0.3125,0.67188 -0.875,1.04688 -0.5625,0.375 -1.26563,0.375 -0.40625,0 -0.8125,-0.17188 -0.40625,-0.17187 -0.78125,-0.60937 v 0.95312 q 0,0.46875 0,0.95313 0.0156,0.5 0.0156,0.98437 l 1.09375,0.1875 v 0.42188 z m 3.45313,-8.04688 q -0.28125,0 -0.64063,0.14063 -0.35937,0.14062 -0.8125,0.51562 v 3.375 q 0.34375,0.32813 0.65625,0.46875 0.32813,0.14063 0.67188,0.14063 0.67187,0 1.14062,-0.53125 0.48438,-0.54688 0.48438,-1.70313 0,-1.15625 -0.42188,-1.78125 -0.42187,-0.625 -1.07812,-0.625 z m 5.44354,4.82813 q 0,0.71875 -0.34375,1.32812 -0.34375,0.60938 -0.875,1.04688 -0.53125,0.4375 -1.10937,0.65625 l -0.15625,-0.40625 q 0.60937,-0.3125 1.07812,-0.76563 0.46875,-0.4375 0.6875,-1.10937 l -0.45312,-0.34375 q -0.23438,-0.1875 -0.34375,-0.40625 -0.10938,-0.23438 -0.10938,-0.45313 0,-0.3125 0.1875,-0.53125 0.1875,-0.23437 0.5625,-0.23437 0.15625,0 0.32813,0.0781 0.1875,0.0625 0.40625,0.26563 0.0781,0.23437 0.10937,0.45312 0.0312,0.20313 0.0312,0.42188 z"
       id="path205"
       inkscape:connector-curvature="0"
       style="fill:#202122;fill-rule:nonzero" />
    <path
       d="m 469.65692,225.74857 v -0.4375 l 0.875,-0.15625 q 0,-0.45313 0,-0.98438 0.0156,-0.53125 0.0156,-0.9375 v -0.57812 q 0,-0.5 -0.0156,-0.8125 0,-0.32813 -0.0156,-0.6875 l -0.95313,-0.10938 v -0.42187 l 1.6875,-0.73438 0.17188,0.125 0.14062,1.42188 q 0.29688,-0.73438 0.76563,-1.14063 0.46875,-0.40625 0.95312,-0.40625 0.28125,0 0.51563,0.125 0.25,0.125 0.34375,0.32813 0,0.875 -0.70313,0.875 -0.20312,0 -0.39062,-0.0781 -0.17188,-0.0781 -0.34375,-0.23437 l -0.14063,-0.125 q -0.35937,0.26562 -0.60937,0.65625 -0.23438,0.375 -0.39063,0.89062 v 0.90625 q 0,0.39063 0,0.92188 0.0156,0.53125 0.0312,0.98437 l 0.98438,0.17188 v 0.4375 z m 6.46466,-3.34375 q 0,-0.95313 -0.17187,-1.78125 -0.15625,-0.84375 -0.5625,-1.70313 -0.39063,-0.85937 -1.10938,-1.875 l 0.3125,-0.26562 q 1.28125,1.1875 1.89063,2.59375 0.60937,1.39062 0.60937,3.03125 0,1.65625 -0.60937,3.0625 -0.60938,1.39062 -1.89063,2.57812 l -0.3125,-0.26562 q 0.71875,-1.01563 1.10938,-1.875 0.40625,-0.85938 0.5625,-1.6875 0.17187,-0.84375 0.17187,-1.8125 z"
       id="path207"
       inkscape:connector-curvature="0"
       style="fill:#202122;fill-rule:nonzero" />
  </g>
</svg>
