<?xml version="1.0" encoding="UTF-8" standalone="no"?>
<svg
   version="1.1"
   viewBox="0 0 423.6142 194.82678"
   fill="none"
   stroke="none"
   stroke-linecap="square"
   stroke-miterlimit="10"
   id="svg313"
   sodipodi:docname="masked-merge.svg"
   width="423.6142"
   height="194.82678"
   inkscape:version="1.1.2 (b8e25be8, 2022-02-05)"
   xmlns:inkscape="http://www.inkscape.org/namespaces/inkscape"
   xmlns:sodipodi="http://sodipodi.sourceforge.net/DTD/sodipodi-0.dtd"
   xmlns="http://www.w3.org/2000/svg"
   xmlns:svg="http://www.w3.org/2000/svg">
  <defs
     id="defs317" />
  <sodipodi:namedview
     id="namedview315"
     pagecolor="#ffffff"
     bordercolor="#666666"
     borderopacity="1.0"
     inkscape:pageshadow="2"
     inkscape:pageopacity="0.0"
     inkscape:pagecheckerboard="0"
     showgrid="false"
     inkscape:zoom="1.05"
     inkscape:cx="-10"
     inkscape:cy="237.61905"
     inkscape:window-width="1296"
     inkscape:window-height="969"
     inkscape:window-x="0"
     inkscape:window-y="25"
     inkscape:window-maximized="0"
     inkscape:current-layer="g311" />
  <clipPath
     id="g305443f3828_0_0.0">
    <path
       d="M 0,0 H 960 V 540 H 0 Z"
       clip-rule="nonzero"
       id="path2" />
  </clipPath>
  <g
     clip-path="url(#g305443f3828_0_0.0)"
     id="g311"
     transform="translate(-489.41076,-32.82546)">
    <path
       fill="#000000"
       fill-opacity="0"
       d="M 0,0 H 504 V 72.97638 H 0 Z"
       fill-rule="evenodd"
       id="path7" />
    <path
       fill="#000000"
       fill-opacity="0"
       d="M 912.52496,33.32546 V 227.15224 H 489.91076 V 33.32546 Z"
       fill-rule="evenodd"
       id="path11" />
    <path
       fill="#000000"
       fill-opacity="0"
       d="M 639.1417,32.061348 H 763.29917 V 59.935364 H 639.1417 Z"
       fill-rule="evenodd"
       id="path15" />
    <path
       fill="#202122"
       d="m 650.1542,51.27836 v -0.6875 l 0.79687,-0.171875 q 0.0156,-0.53125 0.0156,-1.140625 0,-0.625 0,-1.078125 v -0.84375 q 0,-0.609375 -0.0156,-0.9375 0,-0.328125 -0.0312,-0.765625 l -0.89062,-0.140625 v -0.5625 l 2.89062,-0.984375 0.25,0.15625 0.0937,1.0625 q 0.51563,-0.609375 1.07813,-0.90625 0.5625,-0.3125 1.20312,-0.3125 1.51563,0 1.95313,1.296875 0.60937,-0.71875 1.17187,-1 0.5625,-0.296875 1.1875,-0.296875 1.125,0 1.625,0.640625 0.51563,0.640625 0.51563,1.953125 v 1.640625 q 0,0.46875 0,1.09375 0,0.609375 0.0156,1.140625 l 0.73438,0.15625 v 0.6875 h -3.78125 v -0.6875 l 0.71875,-0.171875 q 0.0156,-0.53125 0.0156,-1.140625 0,-0.609375 0,-1.078125 V 46.77836 q 0,-0.8125 -0.1875,-1.09375 -0.1875,-0.296875 -0.65625,-0.296875 -0.60937,0 -1.21875,0.53125 0.0156,0.125 0.0156,0.265625 0.0156,0.140625 0.0156,0.296875 v 1.71875 q 0,0.484375 0,1.09375 0,0.609375 0,1.15625 l 0.70313,0.140625 v 0.6875 h -3.78125 v -0.6875 l 0.75,-0.171875 q 0.0156,-0.53125 0.0156,-1.140625 0,-0.609375 0,-1.078125 v -1.40625 q 0,-0.78125 -0.1875,-1.09375 -0.17187,-0.3125 -0.65625,-0.3125 -0.3125,0 -0.625,0.15625 -0.29687,0.140625 -0.57812,0.375 v 2.28125 q 0,0.453125 0,1.078125 0,0.625 0.0156,1.171875 l 0.6875,0.140625 v 0.6875 z m 18.86249,0.203125 q -1.26563,0 -1.60938,-1.046875 -0.46875,0.484375 -0.90625,0.78125 -0.42187,0.28125 -1.1875,0.28125 -0.84375,0 -1.39062,-0.484375 -0.53125,-0.484375 -0.53125,-1.390625 0,-0.53125 0.23437,-0.953125 0.23438,-0.421875 0.84375,-0.78125 0.625,-0.375 1.75,-0.703125 0.21875,-0.0625 0.51563,-0.140625 0.29687,-0.07813 0.59375,-0.140625 v -0.484375 q 0,-0.984375 -0.25,-1.328125 -0.23438,-0.359375 -0.9375,-0.359375 -0.0937,0 -0.1875,0 -0.0781,0 -0.20313,0.01563 l -0.0781,0.640625 q -0.0156,0.71875 -0.32813,1.046875 -0.3125,0.3125 -0.73437,0.3125 -0.8125,0 -0.98438,-0.734375 0.0625,-0.90625 0.92188,-1.46875 0.875,-0.578125 2.45312,-0.578125 1.40625,0 2.01563,0.640625 0.60937,0.640625 0.60937,2.125 v 3.28125 q 0,0.4375 0.3125,0.4375 0.125,0 0.21875,-0.0625 0.10938,-0.07813 0.23438,-0.265625 l 0.39062,0.265625 q -0.26562,0.578125 -0.6875,0.84375 -0.42187,0.25 -1.07812,0.25 z m -3.45313,-2.234375 q 0,0.53125 0.25,0.796875 0.26563,0.265625 0.625,0.265625 0.17188,0 0.34375,-0.0625 0.17188,-0.07813 0.54688,-0.34375 v -2.375 q -0.1875,0.0625 -0.375,0.125 -0.17188,0.0625 -0.3125,0.125 -0.5,0.203125 -0.79688,0.578125 -0.28125,0.375 -0.28125,0.890625 z m 8.14185,2.25 q -1.39063,0 -2.54688,-0.671875 l 0.0469,-1.796875 h 1.17187 l 0.25,1.453125 q 0.26563,0.109375 0.53125,0.15625 0.26563,0.04687 0.5625,0.04687 0.64063,0 0.96875,-0.203125 0.34375,-0.21875 0.34375,-0.65625 0,-0.328125 -0.25,-0.578125 -0.25,-0.25 -0.98437,-0.453125 l -0.79688,-0.234375 q -0.84375,-0.25 -1.3125,-0.8125 -0.45312,-0.5625 -0.45312,-1.375 0,-1.015625 0.78125,-1.703125 0.79687,-0.703125 2.28125,-0.703125 0.64062,0 1.1875,0.15625 0.54687,0.15625 1.125,0.4375 l -0.0937,1.609375 h -1.1875 l -0.28125,-1.265625 q -0.3125,-0.125 -0.8125,-0.125 -0.5,0 -0.79688,0.21875 -0.29687,0.203125 -0.29687,0.609375 0,0.296875 0.23437,0.53125 0.23438,0.21875 1,0.453125 l 0.71875,0.203125 q 1.03125,0.3125 1.48438,0.890625 0.45312,0.5625 0.45312,1.375 0,1.15625 -0.89062,1.796875 -0.875,0.640625 -2.4375,0.640625 z m 3.80994,-0.21875 v -0.6875 l 0.82812,-0.171875 q 0.0156,-0.546875 0.0156,-1.15625 0,-0.625 0,-1.0625 V 42.05961 l -0.90625,-0.140625 v -0.625 l 3.07812,-0.65625 0.23438,0.140625 -0.0625,2.0625 v 4.5 l 2.375,-2.328125 -1.10938,-0.171875 v -0.640625 h 3.53125 v 0.640625 l -1.32812,0.1875 -1.28125,1.21875 2.0625,4.125 0.9375,0.21875 v 0.6875 h -2.98438 l -1.65625,-3.5 -0.54687,0.515625 q 0,0.484375 0,1.0625 0.0156,0.578125 0.0156,1.078125 l 0.79688,0.15625 v 0.6875 z m 12.143,-6.546875 q -0.40625,0 -0.75,0.5 -0.34375,0.5 -0.39062,1.859375 h 1.23437 q 0.53125,0 0.71875,-0.203125 0.1875,-0.21875 0.1875,-0.71875 0,-0.734375 -0.29687,-1.078125 -0.29688,-0.359375 -0.70313,-0.359375 z m 0.0312,6.765625 q -1.07812,0 -1.90625,-0.4375 -0.8125,-0.453125 -1.28125,-1.296875 -0.46875,-0.84375 -0.46875,-2.015625 0,-1.234375 0.54688,-2.078125 0.5625,-0.84375 1.42187,-1.265625 0.85938,-0.4375 1.79688,-0.4375 0.96875,0 1.64062,0.40625 0.6875,0.40625 1.03125,1.109375 0.35938,0.703125 0.35938,1.59375 0,0.421875 -0.0781,0.78125 h -4.23437 q 0.0625,1.15625 0.625,1.703125 0.57812,0.546875 1.32812,0.546875 0.60938,0 1.03125,-0.21875 0.42188,-0.234375 0.75,-0.578125 l 0.51563,0.46875 q -0.45313,0.875 -1.23438,1.296875 -0.78125,0.421875 -1.84375,0.421875 z m 6.46405,-3.71875 q 0,1.203125 0.42188,1.828125 0.42187,0.609375 1.09375,0.609375 0.5,0 0.90625,-0.328125 v -4.375 q -0.39063,-0.296875 -0.85938,-0.296875 -0.67187,0 -1.125,0.625 -0.4375,0.625 -0.4375,1.9375 z m 2.625,3.65625 -0.125,-0.828125 q -0.84375,0.890625 -2.0625,0.890625 -0.82812,0 -1.5,-0.421875 -0.65625,-0.421875 -1.04687,-1.25 -0.375,-0.828125 -0.375,-2.015625 0,-1.203125 0.45312,-2.0625 0.46875,-0.859375 1.20313,-1.3125 0.75,-0.46875 1.57812,-0.46875 0.5625,0 0.98438,0.203125 0.4375,0.1875 0.78125,0.578125 v -2.6875 l -1.03125,-0.140625 v -0.625 l 3.09375,-0.65625 0.23437,0.140625 -0.0469,2.0625 v 7.609375 l 0.71875,0.140625 v 0.6875 z m 3.76837,1.15625 v -1.3125 h 6.71875 v 1.3125 z m 7.71222,-1.3125 v -0.6875 l 0.79688,-0.171875 q 0.0156,-0.53125 0.0156,-1.140625 0,-0.625 0,-1.078125 v -0.84375 q 0,-0.609375 -0.0156,-0.9375 0,-0.328125 -0.0312,-0.765625 l -0.89063,-0.140625 v -0.5625 l 2.89063,-0.984375 0.25,0.15625 0.0937,1.0625 q 0.51562,-0.609375 1.07812,-0.90625 0.5625,-0.3125 1.20313,-0.3125 1.51562,0 1.95312,1.296875 0.60938,-0.71875 1.17188,-1 0.5625,-0.296875 1.1875,-0.296875 1.125,0 1.625,0.640625 0.51562,0.640625 0.51562,1.953125 v 1.640625 q 0,0.46875 0,1.09375 0,0.609375 0.0156,1.140625 l 0.73437,0.15625 v 0.6875 h -3.78125 v -0.6875 l 0.71875,-0.171875 q 0.0156,-0.53125 0.0156,-1.140625 0,-0.609375 0,-1.078125 V 46.77836 q 0,-0.8125 -0.1875,-1.09375 -0.1875,-0.296875 -0.65625,-0.296875 -0.60938,0 -1.21875,0.53125 0.0156,0.125 0.0156,0.265625 0.0156,0.140625 0.0156,0.296875 v 1.71875 q 0,0.484375 0,1.09375 0,0.609375 0,1.15625 l 0.70312,0.140625 v 0.6875 h -3.78125 v -0.6875 l 0.75,-0.171875 q 0.0156,-0.53125 0.0156,-1.140625 0,-0.609375 0,-1.078125 v -1.40625 q 0,-0.78125 -0.1875,-1.09375 -0.17188,-0.3125 -0.65625,-0.3125 -0.3125,0 -0.625,0.15625 -0.29688,0.140625 -0.57813,0.375 v 2.28125 q 0,0.453125 0,1.078125 0,0.625 0.0156,1.171875 l 0.6875,0.140625 v 0.6875 z m 16.9339,-6.546875 q -0.40625,0 -0.75,0.5 -0.34375,0.5 -0.39062,1.859375 h 1.23437 q 0.53125,0 0.71875,-0.203125 0.1875,-0.21875 0.1875,-0.71875 0,-0.734375 -0.29687,-1.078125 -0.29688,-0.359375 -0.70313,-0.359375 z m 0.0312,6.765625 q -1.07812,0 -1.90625,-0.4375 -0.8125,-0.453125 -1.28125,-1.296875 -0.46875,-0.84375 -0.46875,-2.015625 0,-1.234375 0.54688,-2.078125 0.5625,-0.84375 1.42187,-1.265625 0.85938,-0.4375 1.79688,-0.4375 0.96875,0 1.64062,0.40625 0.6875,0.40625 1.03125,1.109375 0.35938,0.703125 0.35938,1.59375 0,0.421875 -0.0781,0.78125 h -4.23437 q 0.0625,1.15625 0.625,1.703125 0.57812,0.546875 1.32812,0.546875 0.60938,0 1.03125,-0.21875 0.42188,-0.234375 0.75,-0.578125 l 0.51563,0.46875 q -0.45313,0.875 -1.23438,1.296875 -0.78125,0.421875 -1.84375,0.421875 z m 3.94843,-0.21875 v -0.6875 l 0.8125,-0.15625 q 0.0156,-0.546875 0.0156,-1.15625 0,-0.625 0,-1.078125 V 47.34086 q 0,-0.421875 -0.0156,-0.671875 0,-0.265625 -0.0156,-0.484375 0,-0.234375 -0.0156,-0.53125 l -0.89063,-0.140625 v -0.5625 l 2.89063,-0.984375 0.25,0.15625 0.14062,1.734375 q 0.3125,-0.9375 0.85938,-1.40625 0.5625,-0.484375 1.10937,-0.484375 0.48438,0 0.82813,0.28125 0.35937,0.265625 0.4375,0.796875 -0.0156,0.578125 -0.3125,0.890625 -0.28125,0.3125 -0.71875,0.3125 -0.625,0 -1.14063,-0.6875 l -0.0781,-0.109375 q -0.32813,0.296875 -0.60938,0.765625 -0.26562,0.46875 -0.375,0.984375 v 1 q 0,0.453125 0,1.046875 0,0.578125 0.0156,1.09375 l 1.15625,0.25 v 0.6875 z m 9.76898,-3.28125 q 0.51562,0 0.76562,-0.453125 0.25,-0.453125 0.25,-1.234375 0,-0.78125 -0.25,-1.203125 -0.25,-0.4375 -0.73437,-0.4375 -0.5,0 -0.75,0.4375 -0.25,0.4375 -0.25,1.21875 0,0.78125 0.23437,1.234375 0.23438,0.4375 0.73438,0.4375 z m -1.95313,4.5 q 0,0.640625 0.48438,0.9375 0.48437,0.3125 1.48437,0.3125 1.09375,0 1.64063,-0.328125 0.5625,-0.328125 0.5625,-0.8125 0,-0.3125 -0.23438,-0.578125 -0.23437,-0.25 -0.82812,-0.25 h -1.54688 q -0.79687,0 -1.32812,-0.140625 -0.10938,0.21875 -0.17188,0.40625 -0.0625,0.1875 -0.0625,0.453125 z m 1.96875,-3.8125 q -0.76562,0 -1.34375,-0.171875 -0.17187,0.296875 -0.17187,0.671875 0,0.25 0.1875,0.40625 0.20312,0.15625 0.67187,0.15625 h 1.70313 q 1.125,0 1.78125,0.265625 0.65625,0.265625 0.9375,0.75 0.29687,0.46875 0.29687,1.109375 0,0.734375 -0.48437,1.359375 -0.48438,0.625 -1.45313,1 -0.95312,0.375 -2.35937,0.375 -1.21875,0 -1.90625,-0.25 -0.6875,-0.234375 -0.96875,-0.640625 -0.28125,-0.390625 -0.28125,-0.828125 0,-0.9375 1.21875,-1.5 -0.45313,-0.203125 -0.65625,-0.5 -0.1875,-0.3125 -0.1875,-0.671875 0,-0.515625 0.29687,-0.96875 0.29688,-0.46875 0.84375,-0.9375 -0.60937,-0.3125 -0.90625,-0.828125 -0.28125,-0.515625 -0.28125,-1.140625 0,-1.03125 0.75,-1.703125 0.75,-0.671875 2.3125,-0.671875 0.78125,0 1.35938,0.171875 0.59375,0.171875 0.96875,0.5 l 1.64062,-0.703125 0.23438,0.140625 v 1.140625 h -1.39063 q 0.26563,0.484375 0.26563,1.125 0,0.984375 -0.76563,1.671875 -0.75,0.671875 -2.3125,0.671875 z m 8.14655,-3.953125 q -0.40625,0 -0.75,0.5 -0.34375,0.5 -0.39063,1.859375 h 1.23438 q 0.53125,0 0.71875,-0.203125 0.1875,-0.21875 0.1875,-0.71875 0,-0.734375 -0.29688,-1.078125 -0.29687,-0.359375 -0.70312,-0.359375 z m 0.0312,6.765625 q -1.07813,0 -1.90625,-0.4375 -0.8125,-0.453125 -1.28125,-1.296875 -0.46875,-0.84375 -0.46875,-2.015625 0,-1.234375 0.54687,-2.078125 0.5625,-0.84375 1.42188,-1.265625 0.85937,-0.4375 1.79687,-0.4375 0.96875,0 1.64063,0.40625 0.6875,0.40625 1.03125,1.109375 0.35937,0.703125 0.35937,1.59375 0,0.421875 -0.0781,0.78125 h -4.23438 q 0.0625,1.15625 0.625,1.703125 0.57813,0.546875 1.32813,0.546875 0.60937,0 1.03125,-0.21875 0.42187,-0.234375 0.75,-0.578125 l 0.51562,0.46875 q -0.45312,0.875 -1.23437,1.296875 -0.78125,0.421875 -1.84375,0.421875 z"
       fill-rule="nonzero"
       id="path17" />
    <path
       fill="#d9d9d9"
       d="m 661.7848,222.60367 78.86615,-21.94214 V 82.215101 L 661.7848,60.272962 Z"
       fill-rule="evenodd"
       id="path19" />
    <path
       stroke="#595959"
       stroke-width="1"
       stroke-linejoin="round"
       stroke-linecap="butt"
       d="m 661.7848,222.60367 78.86615,-21.94214 V 82.215101 L 661.7848,60.272962 Z"
       fill-rule="evenodd"
       id="path21" />
    <path
       fill="#000000"
       fill-opacity="0"
       d="M 740.65356,113.76378 H 907.2677 v 14.86615 H 740.65356 Z"
       fill-rule="evenodd"
       id="path23" />
    <path
       fill="#202122"
       d="m 749.3723,125.63305 q -0.78125,0 -1.51563,-0.29688 -0.71875,-0.3125 -1.3125,-0.89062 -0.57812,-0.59375 -0.92187,-1.45313 -0.34375,-0.875 -0.34375,-2.03125 0,-1.09375 0.34375,-1.95312 0.34375,-0.875 0.92187,-1.46875 0.59375,-0.59375 1.3125,-0.90625 0.73438,-0.3125 1.51563,-0.3125 0.76562,0 1.48437,0.29687 0.73438,0.29688 1.3125,0.89063 0.59375,0.57812 0.9375,1.45312 0.34375,0.85938 0.34375,2 0,1.09375 -0.34375,1.96875 -0.34375,0.85938 -0.92187,1.46875 -0.57813,0.60938 -1.3125,0.92188 -0.73438,0.3125 -1.5,0.3125 z m 0,-0.67188 q 0.6875,0 1.1875,-0.32812 0.5,-0.34375 0.8125,-0.90625 0.3125,-0.57813 0.45312,-1.28125 0.15625,-0.71875 0.15625,-1.48438 0,-0.75 -0.15625,-1.45312 -0.14062,-0.71875 -0.45312,-1.28125 -0.3125,-0.57813 -0.8125,-0.90625 -0.5,-0.34375 -1.1875,-0.34375 -0.6875,0 -1.1875,0.34375 -0.5,0.32812 -0.82813,0.90625 -0.3125,0.5625 -0.46875,1.28125 -0.15625,0.70312 -0.15625,1.45312 0,0.76563 0.15625,1.48438 0.15625,0.70312 0.46875,1.28125 0.32813,0.5625 0.82813,0.90625 0.5,0.32812 1.1875,0.32812 z m 5.17291,3.65625 v -0.46875 l 1.0625,-0.18749 q 0.0156,-0.54688 0.0156,-1.09375 0.0156,-0.53125 0.0156,-1.0625 v -3.8125 q 0,-0.54688 -0.0156,-0.90625 0,-0.35938 -0.0312,-0.76563 l -1.04688,-0.10937 v -0.46875 l 1.85938,-0.8125 0.20312,0.125 0.0781,0.875 q 0.95312,-1 2.01562,-1 0.71875,0 1.28125,0.40625 0.57813,0.39062 0.92188,1.14062 0.34375,0.73438 0.34375,1.76563 0,1.03125 -0.35938,1.78125 -0.35937,0.75 -0.98437,1.17187 -0.60938,0.40625 -1.40625,0.40625 -0.45313,0 -0.90625,-0.1875 -0.4375,-0.1875 -0.85938,-0.67187 v 1.04687 q 0,0.53125 0,1.0625 0.0156,0.54688 0.0156,1.09375 l 1.21875,0.20312 v 0.46875 z m 3.84375,-8.93749 q -0.3125,0 -0.71875,0.15625 -0.39062,0.15625 -0.90625,0.57812 v 3.75 q 0.375,0.35938 0.73438,0.51563 0.35937,0.15625 0.73437,0.15625 0.75,0 1.28125,-0.59375 0.53125,-0.59375 0.53125,-1.89063 0,-1.28125 -0.46875,-1.96875 -0.46875,-0.70312 -1.1875,-0.70312 z m 6.05884,5.92187 q -0.6875,0 -1.10937,-0.375 -0.40625,-0.375 -0.40625,-1.14062 0,-0.25 0,-0.5 0,-0.25 0,-0.64063 v -3.14062 h -1.09375 v -0.57813 l 1.1875,-0.15625 0.34375,-1.78125 h 0.79687 l -0.0781,1.8125 h 1.79687 v 0.70313 h -1.8125 v 4.125 q 0,0.51562 0.20313,0.75 0.20312,0.23437 0.53125,0.23437 0.21875,0 0.42187,-0.0937 0.21875,-0.0937 0.46875,-0.26562 l 0.32813,0.34375 q -0.54688,0.70312 -1.57813,0.70312 z m 2.36285,-4.25 v -0.625 l 5.15625,-3 0.39063,0.71875 -4.625,2.59375 4.625,2.59375 -0.39063,0.71875 z m 8.43659,0.375 q 0,1.0625 0.1875,2 0.1875,0.92188 0.64062,1.875 0.45313,0.95313 1.23438,2.07813 l -0.34375,0.3125 q -1.42188,-1.32813 -2.10938,-2.875 -0.67187,-1.5625 -0.67187,-3.39063 0,-1.82812 0.67187,-3.39062 0.6875,-1.5625 2.10938,-2.875 l 0.34375,0.3125 q -0.78125,1.125 -1.23438,2.07812 -0.45312,0.95313 -0.64062,1.89063 -0.1875,0.92187 -0.1875,1.98437 z m 6.33069,-4.59375 h -0.8125 q 0,0.84375 -0.0156,1.73438 0,0.89062 0,1.78125 v 0.64062 h 0.875 q 1.21875,0 1.73438,-0.59375 0.51562,-0.59375 0.51562,-1.53125 0,-0.96875 -0.5625,-1.5 -0.54687,-0.53125 -1.73437,-0.53125 z m -3.34375,-0.0781 v -0.54688 h 3.57812 q 1.6875,0 2.53125,0.75 0.85938,0.73438 0.85938,1.90625 0,0.75 -0.375,1.375 -0.375,0.625 -1.20313,1 -0.8125,0.375 -2.1875,0.375 h -0.6875 q 0,0.71875 0,1.42188 0.0156,0.6875 0.0156,1.40625 l 1.25,0.14062 v 0.54688 h -3.78125 v -0.54688 l 1.21875,-0.14062 q 0.0312,-0.84375 0.0312,-1.70313 0,-0.875 0,-1.73437 v -0.65625 q 0,-0.875 0,-1.73438 0,-0.85937 -0.0312,-1.70312 z m 8.7536,7.98437 q 0,0.79688 -0.39063,1.46875 -0.375,0.6875 -0.96875,1.17188 -0.57812,0.49999 -1.21875,0.73436 l -0.1875,-0.45311 q 0.6875,-0.34375 1.20313,-0.84375 0.51562,-0.48438 0.76562,-1.23438 l -0.5,-0.39062 q -0.26562,-0.20313 -0.39062,-0.45313 -0.10938,-0.25 -0.10938,-0.5 0,-0.34375 0.20313,-0.59375 0.20312,-0.25 0.60937,-0.25 0.1875,0 0.375,0.0781 0.20313,0.0781 0.45313,0.3125 0.0781,0.25 0.10937,0.48437 0.0469,0.23438 0.0469,0.46875 z m 10.29138,-7.98437 v -0.54688 h 3.20313 v 0.54688 l -1.15625,0.15625 v 4.5625 q 0,1.40625 -0.42188,2.25 -0.40625,0.84375 -1.125,1.23437 -0.71875,0.375 -1.64062,0.375 -0.95313,0 -1.6875,-0.375 -0.73438,-0.375 -1.14063,-1.15625 -0.40625,-0.79687 -0.40625,-2.03125 v -1.4375 q 0,-0.875 0,-1.73437 0,-0.85938 -0.0312,-1.70313 l -1.10937,-0.14062 v -0.54688 h 3.78125 v 0.54688 l -1.35938,0.17187 q -0.0156,0.82813 -0.0312,1.6875 0,0.84375 0,1.71875 v 1.04688 q 0,1.14062 0.26563,1.79687 0.28125,0.65625 0.76562,0.9375 0.5,0.26563 1.1875,0.26563 1.125,0 1.6875,-0.71875 0.57813,-0.73438 0.57813,-2.5 v -4.23438 z m 4.42389,4.29687 v -0.625 l 5.15625,-3 0.39062,0.71875 -4.625,2.59375 4.625,2.59375 -0.39062,0.71875 z m 6.84283,0.64063 v -0.53125 q 0.84375,-0.10938 1.21875,-0.42188 0.375,-0.3125 0.375,-0.8125 0,-0.35937 -0.14062,-0.76562 -0.14063,-0.42188 -0.28125,-0.90625 -0.14063,-0.5 -0.14063,-1.04688 0,-0.78125 0.53125,-1.1875 0.54688,-0.42187 1.48438,-0.42187 h 0.60937 v 0.53125 l -0.35937,0.0469 q -0.70313,0.0781 -1,0.29688 -0.29688,0.20312 -0.29688,0.79687 0,0.75 0.14063,1.4375 0.15625,0.67188 0.15625,1.07813 0,0.64062 -0.29688,1.0625 -0.29687,0.42187 -0.9375,0.57812 0.64063,0.125 0.9375,0.5625 0.29688,0.4375 0.29688,1.07813 0,0.39062 -0.15625,1.07812 -0.14063,0.67188 -0.14063,1.4375 0,0.57813 0.29688,0.79688 0.29687,0.21875 1,0.29687 l 0.35937,0.0469 v 0.53125 h -0.60937 q -0.9375,0 -1.48438,-0.42188 -0.53125,-0.40625 -0.53125,-1.20312 0,-0.54688 0.14063,-1.03125 0.14062,-0.48438 0.28125,-0.90625 0.14062,-0.42188 0.14062,-0.78125 0,-0.5 -0.375,-0.79688 -0.375,-0.3125 -1.21875,-0.42187 z m 10.7215,3.60937 q -1.375,0 -2.1875,-0.89062 -0.8125,-0.89063 -0.8125,-2.42188 0,-1.0625 0.42188,-1.8125 0.4375,-0.75 1.14062,-1.14062 0.71875,-0.40625 1.51563,-0.40625 0.59375,0 1.09375,0.23437 0.51562,0.21875 0.84375,0.60938 0.34375,0.39062 0.42187,0.89062 -0.0937,0.5 -0.60937,0.5 -0.34375,0 -0.51563,-0.17187 -0.15625,-0.1875 -0.21875,-0.46875 l -0.25,-0.875 q -0.1875,-0.0625 -0.375,-0.0781 -0.17187,-0.0312 -0.34375,-0.0312 -0.84375,0 -1.40625,0.67188 -0.54687,0.65625 -0.54687,1.9375 0,1.25 0.59375,1.92187 0.60937,0.67188 1.53125,0.67188 0.57812,0 1.04687,-0.26563 0.48438,-0.26562 0.79688,-0.75 l 0.32812,0.17188 q -0.28125,0.82812 -0.90625,1.26562 -0.625,0.4375 -1.5625,0.4375 z m 3.12311,-0.17187 v -0.48438 l 1.07812,-0.1875 q 0,-0.54687 0,-1.0625 0.0156,-0.53125 0.0156,-1.0625 v -5.85937 l -1.09375,-0.125 v -0.46875 l 2.07812,-0.59375 0.1875,0.0937 -0.0469,1.90625 v 5.04687 q 0,0.53125 0,1.0625 0.0156,0.53125 0.0312,1.0625 l 1.0625,0.1875 v 0.48438 z m 7.29986,0.17187 q -0.78125,0 -1.48437,-0.35937 -0.6875,-0.375 -1.14063,-1.10938 -0.4375,-0.75 -0.4375,-1.82812 0,-1.10938 0.4375,-1.85938 0.45313,-0.76562 1.14063,-1.14062 0.70312,-0.375 1.48437,-0.375 0.76563,0 1.46875,0.375 0.70313,0.375 1.14063,1.14062 0.45312,0.75 0.45312,1.85938 0,1.07812 -0.45312,1.82812 -0.4375,0.73438 -1.14063,1.10938 -0.70312,0.35937 -1.46875,0.35937 z m 0,-0.59375 q 0.85938,0 1.32813,-0.6875 0.46875,-0.6875 0.46875,-2.01562 0,-1.35938 -0.46875,-2.0625 -0.46875,-0.70313 -1.32813,-0.70313 -0.875,0 -1.34375,0.70313 -0.45312,0.70312 -0.45312,2.0625 0,1.32812 0.45312,2.01562 0.46875,0.6875 1.34375,0.6875 z m 6.81714,-2.25 q 0.64063,0 1,-0.46875 0.35938,-0.48437 0.35938,-1.21875 0,-0.70312 -0.34375,-1.14062 -0.32813,-0.45313 -0.95313,-0.45313 -0.64062,0 -1,0.46875 -0.35937,0.45313 -0.35937,1.17188 0,0.73437 0.34375,1.1875 0.34375,0.45312 0.95312,0.45312 z m 0.0312,0.54688 q -0.51562,0 -0.98437,-0.15625 -0.34375,0.42187 -0.34375,0.85937 0,0.26563 0.15625,0.42188 0.15625,0.15625 0.625,0.15625 h 1.75 q 1.09375,0 1.60937,0.45312 0.53125,0.45313 0.53125,1.26563 0,0.57812 -0.375,1.10937 -0.35937,0.53125 -1.09375,0.85937 -0.73437,0.34375 -1.82812,0.34375 -1.45313,0 -2.10938,-0.45313 -0.64062,-0.45311 -0.64062,-1.15624 0,-0.4375 0.28125,-0.8125 0.28125,-0.35937 1.01562,-0.71875 -0.875,-0.23437 -0.875,-1 0,-0.32812 0.20313,-0.67187 0.20312,-0.34375 0.70312,-0.8125 -0.48437,-0.26563 -0.76562,-0.73438 -0.26563,-0.46875 -0.26563,-1.14062 0,-1.0625 0.6875,-1.625 0.6875,-0.5625 1.73438,-0.5625 1.04687,0 1.6875,0.51562 l 1.5,-0.51562 0.20312,0.125 v 0.84375 h -1.29687 q 0.29687,0.5 0.29687,1.21875 0,1.04687 -0.6875,1.625 -0.6875,0.5625 -1.71875,0.5625 z m -1.60937,3.48437 q 0,0.65625 0.45312,0.9375 0.46875,0.28124 1.26563,0.28124 1.09375,0 1.65625,-0.40624 0.57812,-0.39062 0.57812,-0.95312 0,-0.4375 -0.3125,-0.73438 -0.29687,-0.29687 -1.01562,-0.29687 h -1.5625 q -0.14063,0 -0.28125,-0.0156 -0.14063,0 -0.26563,-0.0156 -0.28125,0.29687 -0.40625,0.57812 -0.10937,0.29688 -0.10937,0.625 z m 5.98205,-1.35937 v -0.85938 q 0.53125,-0.53125 1.03125,-1.03125 0.5,-0.51562 0.92188,-0.96875 1,-1.0625 1.46875,-1.90625 0.46875,-0.85937 0.46875,-1.625 0,-0.82812 -0.4375,-1.3125 -0.4375,-0.48437 -1.17188,-0.48437 -0.125,0 -0.29687,0.0156 -0.15625,0.0156 -0.34375,0.0625 l -0.26563,0.90625 q -0.125,0.5 -0.3125,0.70313 -0.17187,0.20312 -0.45312,0.20312 -0.4375,0 -0.67188,-0.42187 0.0781,-0.70313 0.45313,-1.15625 0.39062,-0.46875 0.96875,-0.6875 0.59375,-0.21875 1.26562,-0.21875 1.29688,0 1.875,0.64062 0.59375,0.625 0.59375,1.625 0,0.57813 -0.23437,1.14063 -0.23438,0.54687 -0.8125,1.23437 -0.57813,0.6875 -1.59375,1.67188 -0.26563,0.26562 -0.65625,0.625 -0.375,0.35937 -0.78125,0.75 h 4.45312 v 1.09375 z m 8.13275,-3.70313 q 0,1.0625 0.1875,2 0.1875,0.92188 0.64063,1.875 0.45312,0.95313 1.23437,2.07813 l -0.34375,0.3125 q -1.42187,-1.32813 -2.10937,-2.875 -0.67188,-1.5625 -0.67188,-3.39063 0,-1.82812 0.67188,-3.39062 0.6875,-1.5625 2.10937,-2.875 l 0.34375,0.3125 q -0.78125,1.125 -1.23437,2.07812 -0.45313,0.95313 -0.64063,1.89063 -0.1875,0.92187 -0.1875,1.98437 z m 8.44013,-4.67187 v -0.54688 h 3.21875 v 0.54688 l -1.14063,0.17187 v 8.29688 h -0.46875 l -5.32812,-7.26563 v 6.4375 l 1.42187,0.1875 v 0.54688 H 851.953 v -0.54688 l 1.14062,-0.15625 v -7.40625 l -0.125,-0.15625 -0.9375,-0.10937 v -0.54688 h 2.04688 l 4.8125,6.60938 v -5.89063 z m 6.13989,4.67187 q 0,-1.0625 -0.1875,-1.98437 -0.1875,-0.9375 -0.64062,-1.89063 -0.4375,-0.95312 -1.23438,-2.07812 l 0.35938,-0.3125 q 1.40625,1.3125 2.07812,2.875 0.6875,1.5625 0.6875,3.39062 0,1.82813 -0.6875,3.39063 -0.67187,1.54687 -2.07812,2.875 l -0.35938,-0.3125 q 0.79688,-1.125 1.23438,-2.07813 0.45312,-0.95312 0.64062,-1.875 0.1875,-0.9375 0.1875,-2 z m 9.27991,-0.26562 v 0.53125 q -0.82813,0.10937 -1.20313,0.42187 -0.375,0.29688 -0.375,0.79688 0,0.35937 0.14063,0.78125 0.14062,0.42187 0.28125,0.90625 0.14062,0.48437 0.14062,1.03125 0,0.79687 -0.54687,1.20312 -0.53125,0.42188 -1.48438,0.42188 h -0.59375 v -0.53125 l 0.35938,-0.0469 q 0.6875,-0.0781 0.98437,-0.29687 0.29688,-0.21875 0.29688,-0.79688 0,-0.76562 -0.14063,-1.4375 -0.14062,-0.6875 -0.14062,-1.07812 0,-0.64063 0.28125,-1.07813 0.29687,-0.4375 0.95312,-0.5625 -0.65625,-0.15625 -0.95312,-0.57812 -0.28125,-0.42188 -0.28125,-1.0625 0,-0.40625 0.14062,-1.07813 0.14063,-0.6875 0.14063,-1.4375 0,-0.59375 -0.29688,-0.79687 -0.29687,-0.21875 -0.98437,-0.29688 l -0.35938,-0.0469 v -0.53125 h 0.59375 q 0.95313,0 1.48438,0.42187 0.54687,0.40625 0.54687,1.1875 0,0.54688 -0.14062,1.04688 -0.14063,0.48437 -0.28125,0.90625 -0.14063,0.40625 -0.14063,0.76562 0,0.5 0.375,0.8125 0.375,0.3125 1.20313,0.42188 z m 6.85046,-0.73438 v 0.625 l -5.15625,3 -0.39062,-0.71875 4.625,-2.59375 -4.625,-2.59375 0.39062,-0.71875 z m 3.15534,1 q 0,-1.0625 -0.1875,-1.98437 -0.1875,-0.9375 -0.64063,-1.89063 -0.4375,-0.95312 -1.23437,-2.07812 l 0.35937,-0.3125 q 1.40625,1.3125 2.07813,2.875 0.6875,1.5625 0.6875,3.39062 0,1.82813 -0.6875,3.39063 -0.67188,1.54687 -2.07813,2.875 l -0.35937,-0.3125 q 0.79687,-1.125 1.23437,-2.07813 0.45313,-0.95312 0.64063,-1.875 0.1875,-0.9375 0.1875,-2 z m 8.44012,-1 v 0.625 l -5.15625,3 -0.39062,-0.71875 4.625,-2.59375 -4.625,-2.59375 0.39062,-0.71875 z"
       fill-rule="nonzero"
       id="path25" />
    <path
       fill="#000000"
       fill-opacity="0"
       d="m 740.6546,133.317 h 51.10553"
       fill-rule="evenodd"
       id="path27" />
    <path
       stroke="#595959"
       stroke-width="2"
       stroke-linejoin="round"
       stroke-linecap="butt"
       d="m 740.6546,133.317 h 39.10559"
       fill-rule="evenodd"
       id="path29" />
    <path
       fill="#595959"
       stroke="#595959"
       stroke-width="2"
       stroke-linecap="butt"
       d="m 779.7602,136.62047 9.07617,-3.30347 -9.07617,-3.30346 z"
       fill-rule="evenodd"
       id="path31" />
    <path
       fill="#000000"
       fill-opacity="0"
       d="m 740.6546,127.3662 h 18.39801 v 11.90159 H 740.6546 Z"
       fill-rule="evenodd"
       id="path33" />
    <path
       fill="#000000"
       fill-opacity="0"
       d="m 773.3414,127.3662 h 18.39801 v 11.90159 H 773.3414 Z"
       fill-rule="evenodd"
       id="path35" />
    <path
       fill="#000000"
       fill-opacity="0"
       d="M 791.7594,163.16249 H 740.65393"
       fill-rule="evenodd"
       id="path37" />
    <path
       stroke="#1c4587"
       stroke-width="2"
       stroke-linejoin="round"
       stroke-linecap="butt"
       d="M 791.75946,163.16249 H 752.65387"
       fill-rule="evenodd"
       id="path39" />
    <path
       fill="#1c4587"
       stroke="#1c4587"
       stroke-width="2"
       stroke-linecap="butt"
       d="m 752.6539,159.85902 -9.07617,3.30347 9.07617,3.30345 z"
       fill-rule="evenodd"
       id="path41" />
    <path
       fill="#000000"
       fill-opacity="0"
       d="m 740.6757,157.21169 h 18.39801 v 11.9016 H 740.6757 Z"
       fill-rule="evenodd"
       id="path43" />
    <path
       fill="#000000"
       fill-opacity="0"
       d="m 773.3621,157.21169 h 18.39801 v 11.9016 H 773.3621 Z"
       fill-rule="evenodd"
       id="path45" />
    <path
       fill="#000000"
       fill-opacity="0"
       d="m 610.6756,84.25874 h 51.10553"
       fill-rule="evenodd"
       id="path47" />
    <path
       stroke="#595959"
       stroke-width="2"
       stroke-linejoin="round"
       stroke-linecap="butt"
       d="m 610.6756,84.25874 h 39.10553"
       fill-rule="evenodd"
       id="path49" />
    <path
       fill="#595959"
       stroke="#595959"
       stroke-width="2"
       stroke-linecap="butt"
       d="m 649.7811,87.5622 9.07617,-3.303459 -9.07617,-3.303467 z"
       fill-rule="evenodd"
       id="path51" />
    <path
       fill="#000000"
       fill-opacity="0"
       d="m 610.6756,78.307945 h 18.39801 V 90.209541 H 610.6756 Z"
       fill-rule="evenodd"
       id="path53" />
    <path
       fill="#000000"
       fill-opacity="0"
       d="m 643.36237,78.307945 h 18.39801 v 11.901596 h -18.39801 z"
       fill-rule="evenodd"
       id="path55" />
    <path
       fill="#000000"
       fill-opacity="0"
       d="M 661.7804,114.10423 H 610.67493"
       fill-rule="evenodd"
       id="path57" />
    <path
       stroke="#1c4587"
       stroke-width="2"
       stroke-linejoin="round"
       stroke-linecap="butt"
       d="M 661.78046,114.10423 H 622.67493"
       fill-rule="evenodd"
       id="path59" />
    <path
       fill="#1c4587"
       stroke="#1c4587"
       stroke-width="2"
       stroke-linecap="butt"
       d="m 622.6749,110.80077 -9.07623,3.30346 9.07623,3.30346 z"
       fill-rule="evenodd"
       id="path61" />
    <path
       fill="#000000"
       fill-opacity="0"
       d="m 610.6967,108.15343 h 18.39801 v 11.9016 H 610.6967 Z"
       fill-rule="evenodd"
       id="path63" />
    <path
       fill="#000000"
       fill-opacity="0"
       d="m 643.3831,108.15343 h 18.39801 v 11.9016 H 643.3831 Z"
       fill-rule="evenodd"
       id="path65" />
    <path
       fill="#000000"
       fill-opacity="0"
       d="M 740.65356,142.58267 H 907.2677 v 14.86615 H 740.65356 Z"
       fill-rule="evenodd"
       id="path67" />
    <path
       fill="#202122"
       d="m 748.9348,145.95195 h -1.15625 q 0,0.875 -0.0156,1.75 0,0.875 0,1.8125 h 1.01563 q 1.09375,0 1.59375,-0.51563 0.51562,-0.51562 0.51562,-1.32812 0,-0.82813 -0.46875,-1.26563 -0.46875,-0.45312 -1.48437,-0.45312 z m -3.6875,-0.0781 v -0.54687 h 3.71875 q 1.53125,0 2.39062,0.625 0.85938,0.60937 0.85938,1.71875 0,0.76562 -0.5625,1.40625 -0.5625,0.64062 -1.6875,0.84375 0.59375,0.10937 0.96875,0.51562 0.375,0.39063 0.60937,1.17188 l 0.57813,1.96875 1.01562,0.125 v 0.54687 q -0.1875,0.0469 -0.4375,0.0937 -0.25,0.0469 -0.5625,0.0469 -0.625,0 -0.9375,-0.1875 -0.3125,-0.1875 -0.42187,-0.67188 l -0.54688,-2.14062 q -0.10937,-0.54688 -0.34375,-0.8125 -0.21875,-0.26563 -0.57812,-0.35938 -0.34375,-0.0937 -0.89063,-0.0937 h -0.65625 q 0,0.95313 0,1.79688 0.0156,0.82812 0.0156,1.64062 l 1.23437,0.14063 v 0.54687 h -3.76562 V 153.702 l 1.21875,-0.14063 q 0.0312,-0.84375 0.0312,-1.70312 0,-0.875 0,-1.73438 v -0.65625 q 0,-0.875 0,-1.73437 0,-0.85938 -0.0312,-1.70313 z m 11.52759,2.48438 q -0.35938,0 -0.75,0.21875 -0.375,0.20312 -0.65625,0.67187 -0.26563,0.46875 -0.34375,1.23438 h 2.42187 q 0.48438,0 0.625,-0.1875 0.15625,-0.20313 0.15625,-0.5 0,-0.39063 -0.1875,-0.70313 -0.1875,-0.32812 -0.51562,-0.53125 -0.32813,-0.20312 -0.75,-0.20312 z m 0,6.0625 q -1.35938,0 -2.17188,-0.875 -0.8125,-0.875 -0.8125,-2.40625 0,-1.01563 0.42188,-1.78125 0.42187,-0.76563 1.125,-1.1875 0.70312,-0.42188 1.53125,-0.42188 0.6875,0 1.25,0.3125 0.5625,0.29688 0.89062,0.85938 0.32813,0.5625 0.32813,1.39062 0,0.21875 -0.0312,0.42188 -0.0156,0.1875 -0.0625,0.3125 h -4.25 q 0.0312,1.23437 0.60937,1.875 0.59375,0.64062 1.54688,0.64062 0.64062,0 1.0625,-0.26562 0.4375,-0.26563 0.79687,-0.67188 l 0.3125,0.25 q -0.375,0.70313 -1.01562,1.125 -0.625,0.42188 -1.53125,0.42188 z m 8.63275,-0.0312 q -0.48438,0 -0.8125,-0.28125 -0.3125,-0.28125 -0.39063,-0.75 -0.54687,0.53125 -0.96875,0.79687 -0.40625,0.26563 -0.98437,0.26563 -0.73438,0 -1.26563,-0.42188 -0.53125,-0.42187 -0.53125,-1.25 0,-0.375 0.17188,-0.70312 0.1875,-0.34375 0.67187,-0.65625 0.48438,-0.32813 1.375,-0.64063 0.3125,-0.10937 0.70313,-0.23437 0.40625,-0.125 0.79687,-0.20313 v -0.34375 q 0,-0.96875 -0.29687,-1.28125 -0.28125,-0.32812 -0.95313,-0.32812 -0.14062,0 -0.32812,0.0156 -0.17188,0.0156 -0.39063,0.0625 l -0.25,0.875 q -0.1875,0.625 -0.6875,0.625 -0.5625,0 -0.64062,-0.53125 0.1875,-0.76562 0.89062,-1.20312 0.70313,-0.45313 1.71875,-0.45313 1.04688,0 1.54688,0.53125 0.51562,0.51563 0.51562,1.78125 v 2.84375 q 0,0.42188 0.125,0.60938 0.14063,0.17187 0.35938,0.17187 0.17187,0 0.28125,-0.0781 0.125,-0.0781 0.23437,-0.21875 l 0.26563,0.29687 q -0.23438,0.39063 -0.53125,0.54688 -0.28125,0.15625 -0.625,0.15625 z m -3.76563,-1.82813 q 0,0.53125 0.3125,0.76563 0.3125,0.21875 0.76563,0.21875 0.1875,0 0.35937,-0.0469 0.1875,-0.0625 0.4375,-0.21875 0.26563,-0.15625 0.65625,-0.4375 v -2.04687 q -0.34375,0.0937 -0.67187,0.21875 -0.32813,0.10937 -0.54688,0.1875 -0.57812,0.21875 -0.85937,0.46875 -0.28125,0.23437 -0.375,0.46875 -0.0781,0.21875 -0.0781,0.42187 z m 6.79963,-1.4375 q 0,1.29688 0.53125,1.92188 0.53125,0.60937 1.32812,0.60937 0.4375,0 0.76563,-0.17187 0.34375,-0.1875 0.71875,-0.59375 v -3.6875 q -0.45313,-0.40625 -0.8125,-0.54688 -0.35938,-0.15625 -0.6875,-0.15625 -0.5,0 -0.92188,0.28125 -0.40625,0.26563 -0.67187,0.85938 -0.25,0.57812 -0.25,1.48437 z m 3.48437,3.26563 -0.0937,-0.92188 q -0.34375,0.45313 -0.79687,0.70313 -0.45313,0.25 -1.07813,0.25 -0.8125,0 -1.42187,-0.40625 -0.60938,-0.42188 -0.95313,-1.15625 -0.34375,-0.73438 -0.34375,-1.71875 0,-1.01563 0.375,-1.78125 0.375,-0.76563 1.01563,-1.1875 0.64062,-0.42188 1.45312,-0.42188 0.46875,0 0.89063,0.1875 0.4375,0.1875 0.85937,0.67188 v -3.01563 l -1.14062,-0.125 v -0.46875 l 2.07812,-0.59375 0.1875,0.0937 -0.0469,1.90625 v 7.20313 l 1.07812,0.15625 v 0.48437 z m 6.36121,-5.98438 v -0.48437 h 2.60937 v 0.48437 l -0.71875,0.14063 -2.15625,5.65625 q -0.65625,1.78125 -1.28125,2.5625 -0.625,0.79687 -1.45312,0.79687 -0.48438,0 -0.85938,-0.25 -0.35937,-0.23437 -0.35937,-0.625 0.0625,-0.29687 0.32812,-0.4375 0.26563,-0.14062 0.5625,-0.14062 0.26563,0 0.48438,0.10937 0.23437,0.10938 0.5,0.39063 l 0.0781,0.0625 q 0.42188,-0.35938 0.70313,-0.875 0.29687,-0.5 0.48437,-1.04688 l 0.0625,-0.15625 -2.42187,-6.09375 -0.73438,-0.0937 v -0.48437 h 3.20313 v 0.48437 l -1.17188,0.14063 1.67188,4.54687 1.64062,-4.53125 z m 3.37085,1.76563 v -0.625 l 5.15625,-3 0.39062,0.71875 -4.625,2.59375 4.625,2.59375 -0.39062,0.71875 z m 12.34283,-4.29688 v -0.54687 h 3.20313 v 0.54687 l -1.15625,0.15625 v 4.5625 q 0,1.40625 -0.42188,2.25 -0.40625,0.84375 -1.125,1.23438 -0.71875,0.375 -1.64062,0.375 -0.95313,0 -1.6875,-0.375 -0.73438,-0.375 -1.14063,-1.15625 -0.40625,-0.79688 -0.40625,-2.03125 v -1.4375 q 0,-0.875 0,-1.73438 0,-0.85937 -0.0312,-1.70312 l -1.10937,-0.14063 v -0.54687 h 3.78125 v 0.54687 l -1.35938,0.17188 q -0.0156,0.82812 -0.0312,1.6875 0,0.84375 0,1.71875 v 1.04687 q 0,1.14063 0.26563,1.79688 0.28125,0.65625 0.76562,0.9375 0.5,0.26562 1.1875,0.26562 1.125,0 1.6875,-0.71875 0.57813,-0.73437 0.57813,-2.5 v -4.23437 z m 4.42389,4.29688 v -0.625 l 5.15625,-3 0.39062,0.71875 -4.625,2.59375 4.625,2.59375 -0.39062,0.71875 z m 12.35846,-4.29688 v -0.54687 h 3.21875 v 0.54687 l -1.14063,0.17188 v 8.29687 h -0.46875 l -5.32812,-7.26562 v 6.4375 l 1.42187,0.1875 v 0.54687 H 805.252 v -0.54687 l 1.14062,-0.15625 v -7.40625 l -0.125,-0.15625 -0.9375,-0.10938 v -0.54687 h 2.04688 l 4.8125,6.60937 v -5.89062 z m 10.06177,3.67188 v 0.625 l -5.15625,3 -0.39063,-0.71875 4.625,-2.59375 -4.625,-2.59375 0.39063,-0.71875 z m 7.07721,0 v 0.625 l -5.15625,3 -0.39063,-0.71875 4.625,-2.59375 -4.625,-2.59375 0.39063,-0.71875 z"
       fill-rule="nonzero"
       id="path69" />
    <path
       fill="#000000"
       fill-opacity="0"
       d="m 591.0735,64.70604 h 70.70868 V 79.572182 H 591.0735 Z"
       fill-rule="evenodd"
       id="path71" />
    <path
       fill="#202122"
       d="m 619.10474,76.5753 q -0.78125,0 -1.51563,-0.296875 -0.71875,-0.3125 -1.3125,-0.890625 -0.57812,-0.59375 -0.92187,-1.453125 -0.34375,-0.875 -0.34375,-2.03125 0,-1.09375 0.34375,-1.953125 0.34375,-0.875 0.92187,-1.46875 0.59375,-0.59375 1.3125,-0.90625 0.73438,-0.3125 1.51563,-0.3125 0.76562,0 1.48437,0.296875 0.73438,0.296875 1.3125,0.890625 0.59375,0.578125 0.9375,1.453125 0.34375,0.859375 0.34375,2 0,1.09375 -0.34375,1.96875 -0.34375,0.859375 -0.92187,1.46875 -0.57813,0.609375 -1.3125,0.921875 -0.73438,0.3125 -1.5,0.3125 z m 0,-0.671875 q 0.6875,0 1.1875,-0.328125 0.5,-0.34375 0.8125,-0.90625 0.3125,-0.578125 0.45312,-1.28125 0.15625,-0.71875 0.15625,-1.484375 0,-0.75 -0.15625,-1.453125 -0.14062,-0.71875 -0.45312,-1.28125 -0.3125,-0.578125 -0.8125,-0.90625 -0.5,-0.34375 -1.1875,-0.34375 -0.6875,0 -1.1875,0.34375 -0.5,0.328125 -0.82813,0.90625 -0.3125,0.5625 -0.46875,1.28125 -0.15625,0.703125 -0.15625,1.453125 0,0.765625 0.15625,1.484375 0.15625,0.703125 0.46875,1.28125 0.32813,0.5625 0.82813,0.90625 0.5,0.328125 1.1875,0.328125 z m 5.17297,3.65625 v -0.46875 l 1.0625,-0.1875 q 0.0156,-0.546875 0.0156,-1.09375 0.0156,-0.53125 0.0156,-1.0625 v -3.8125 q 0,-0.546875 -0.0156,-0.90625 0,-0.359375 -0.0312,-0.765625 l -1.04688,-0.109375 v -0.46875 l 1.85938,-0.8125 0.20312,0.125 0.0781,0.875 q 0.95312,-1 2.01562,-1 0.71875,0 1.28125,0.40625 0.57813,0.390625 0.92188,1.140625 0.34375,0.734375 0.34375,1.765625 0,1.03125 -0.35938,1.78125 -0.35937,0.75 -0.98437,1.171875 -0.60938,0.40625 -1.40625,0.40625 -0.45313,0 -0.90625,-0.1875 -0.4375,-0.1875 -0.85938,-0.671875 v 1.046875 q 0,0.53125 0,1.0625 0.0156,0.546875 0.0156,1.09375 l 1.21875,0.203125 v 0.46875 z m 3.84375,-8.9375 q -0.3125,0 -0.71875,0.15625 -0.39062,0.15625 -0.90625,0.578125 v 3.75 q 0.375,0.359375 0.73438,0.515625 0.35937,0.15625 0.73437,0.15625 0.75,0 1.28125,-0.59375 0.53125,-0.59375 0.53125,-1.890625 0,-1.28125 -0.46875,-1.96875 -0.46875,-0.703125 -1.1875,-0.703125 z m 6.05878,5.921875 q -0.6875,0 -1.10937,-0.375 -0.40625,-0.375 -0.40625,-1.140625 0,-0.25 0,-0.5 0,-0.25 0,-0.640625 v -3.140625 h -1.09375 V 70.16905 l 1.1875,-0.15625 0.34375,-1.78125 h 0.79687 l -0.0781,1.8125 h 1.79687 v 0.703125 h -1.8125 v 4.125 q 0,0.515625 0.20313,0.75 0.20312,0.234375 0.53125,0.234375 0.21875,0 0.42187,-0.09375 0.21875,-0.09375 0.46875,-0.265625 l 0.32813,0.34375 q -0.54688,0.703125 -1.57813,0.703125 z m 2.36292,-4.25 v -0.625 l 5.15625,-3 0.39062,0.71875 -4.625,2.59375 4.625,2.59375 -0.39062,0.71875 z m 10.24908,-4.21875 h -0.8125 q 0,0.84375 -0.0156,1.734375 0,0.890625 0,1.78125 v 0.640625 h 0.875 q 1.21875,0 1.73438,-0.59375 0.51562,-0.59375 0.51562,-1.53125 0,-0.96875 -0.5625,-1.5 -0.54687,-0.53125 -1.73437,-0.53125 z m -3.34375,-0.07813 V 67.4503 h 3.57812 q 1.6875,0 2.53125,0.75 0.85938,0.734375 0.85938,1.90625 0,0.75 -0.375,1.375 -0.375,0.625 -1.20313,1 -0.8125,0.375 -2.1875,0.375 h -0.6875 q 0,0.71875 0,1.421875 0.0156,0.6875 0.0156,1.40625 l 1.25,0.140625 v 0.546875 h -3.78125 V 75.8253 l 1.21875,-0.140625 q 0.0312,-0.84375 0.0312,-1.703125 0,-0.875 0,-1.734375 v -0.65625 q 0,-0.875 0,-1.734375 0,-0.859375 -0.0312,-1.703125 z m 13.56897,3.671875 v 0.625 l -5.15625,3 -0.39063,-0.71875 4.625,-2.59375 -4.625,-2.59375 0.39063,-0.71875 z"
       fill-rule="nonzero"
       id="path73" />
    <path
       fill="#000000"
       fill-opacity="0"
       d="m 591.0735,93.524666 h 70.70868 V 108.39081 H 591.0735 Z"
       fill-rule="evenodd"
       id="path75" />
    <path
       fill="#202122"
       d="m 602.63367,96.89393 h -1.15625 q 0,0.875 -0.0156,1.75 0,0.875 0,1.8125 h 1.01562 q 1.09375,0 1.59375,-0.515625 0.51563,-0.515625 0.51563,-1.328125 0,-0.828125 -0.46875,-1.265625 -0.46875,-0.453125 -1.48438,-0.453125 z m -3.6875,-0.07813 v -0.54687 h 3.71875 q 1.53125,0 2.39063,0.625 0.85937,0.609375 0.85937,1.71875 0,0.765625 -0.5625,1.40625 -0.5625,0.64062 -1.6875,0.84375 0.59375,0.10937 0.96875,0.51562 0.375,0.39063 0.60938,1.17188 l 0.57812,1.96875 1.01563,0.125 v 0.54687 q -0.1875,0.0469 -0.4375,0.0937 -0.25,0.0469 -0.5625,0.0469 -0.625,0 -0.9375,-0.1875 -0.3125,-0.1875 -0.42188,-0.67188 l -0.54687,-2.14062 q -0.10938,-0.54688 -0.34375,-0.8125 -0.21875,-0.26563 -0.57813,-0.35938 -0.34375,-0.0937 -0.89062,-0.0937 h -0.65625 q 0,0.95313 0,1.79688 0.0156,0.82812 0.0156,1.64062 l 1.23438,0.14063 v 0.54687 h -3.76563 v -0.54687 l 1.21875,-0.14063 q 0.0312,-0.84375 0.0312,-1.70312 0,-0.875 0,-1.73438 v -0.65625 q 0,-0.874995 0,-1.73437 0,-0.859375 -0.0312,-1.703125 z m 11.52759,2.484375 q -0.35938,0 -0.75,0.21875 -0.375,0.203125 -0.65625,0.671865 -0.26563,0.46875 -0.34375,1.23438 h 2.42187 q 0.48438,0 0.625,-0.1875 0.15625,-0.20313 0.15625,-0.5 0,-0.39063 -0.1875,-0.70313 -0.1875,-0.328115 -0.51562,-0.53124 -0.32813,-0.203125 -0.75,-0.203125 z m 0,6.062495 q -1.35938,0 -2.17188,-0.875 -0.8125,-0.875 -0.8125,-2.40625 0,-1.01563 0.42188,-1.78125 0.42187,-0.76562 1.125,-1.187495 0.70312,-0.421875 1.53125,-0.421875 0.6875,0 1.25,0.3125 0.5625,0.296875 0.89062,0.859375 0.32813,0.562495 0.32813,1.390615 0,0.21875 -0.0312,0.42188 -0.0156,0.1875 -0.0625,0.3125 h -4.25 q 0.0312,1.23437 0.60937,1.875 0.59375,0.64062 1.54688,0.64062 0.64062,0 1.0625,-0.26562 0.4375,-0.26563 0.79687,-0.67188 l 0.3125,0.25 q -0.375,0.70313 -1.01562,1.125 -0.625,0.42188 -1.53125,0.42188 z m 8.63275,-0.0312 q -0.48438,0 -0.8125,-0.28125 -0.3125,-0.28125 -0.39063,-0.75 -0.54687,0.53125 -0.96875,0.79687 -0.40625,0.26563 -0.98437,0.26563 -0.73438,0 -1.26563,-0.42188 -0.53125,-0.42187 -0.53125,-1.25 0,-0.375 0.17188,-0.70312 0.1875,-0.34375 0.67187,-0.65625 0.48438,-0.32813 1.375,-0.64063 0.3125,-0.10937 0.70313,-0.23437 0.40625,-0.125 0.79687,-0.20313 v -0.34375 q 0,-0.96874 -0.29687,-1.28124 -0.28125,-0.328125 -0.95313,-0.328125 -0.14062,0 -0.32812,0.01563 -0.17188,0.01563 -0.39063,0.0625 l -0.25,0.874995 q -0.1875,0.625 -0.6875,0.625 -0.5625,0 -0.64062,-0.53125 0.1875,-0.76562 0.89062,-1.20312 0.70313,-0.453125 1.71875,-0.453125 1.04688,0 1.54688,0.53125 0.51562,0.515625 0.51562,1.781245 v 2.84375 q 0,0.42188 0.125,0.60938 0.14063,0.17187 0.35938,0.17187 0.17187,0 0.28125,-0.0781 0.125,-0.0781 0.23437,-0.21875 l 0.26563,0.29687 q -0.23438,0.39063 -0.53125,0.54688 -0.28125,0.15625 -0.625,0.15625 z m -3.76563,-1.82813 q 0,0.53125 0.3125,0.76563 0.3125,0.21875 0.76563,0.21875 0.1875,0 0.35937,-0.0469 0.1875,-0.0625 0.4375,-0.21875 0.26563,-0.15625 0.65625,-0.4375 v -2.04687 q -0.34375,0.0937 -0.67187,0.21875 -0.32813,0.10937 -0.54688,0.1875 -0.57812,0.21875 -0.85937,0.46875 -0.28125,0.23437 -0.375,0.46875 -0.0781,0.21875 -0.0781,0.42187 z m 6.79963,-1.4375 q 0,1.29688 0.53125,1.92188 0.53125,0.60937 1.32812,0.60937 0.4375,0 0.76563,-0.17187 0.34375,-0.1875 0.71875,-0.59375 v -3.6875 q -0.45313,-0.406245 -0.8125,-0.54687 -0.35938,-0.15625 -0.6875,-0.15625 -0.5,0 -0.92188,0.28125 -0.40625,0.265625 -0.67187,0.85937 -0.25,0.57812 -0.25,1.48437 z m 3.48437,3.26563 -0.0937,-0.92188 q -0.34375,0.45313 -0.79687,0.70313 -0.45313,0.25 -1.07813,0.25 -0.8125,0 -1.42187,-0.40625 -0.60938,-0.42188 -0.95313,-1.15625 -0.34375,-0.73438 -0.34375,-1.71875 0,-1.01563 0.375,-1.78125 0.375,-0.76562 1.01563,-1.187495 0.64062,-0.421875 1.45312,-0.421875 0.46875,0 0.89063,0.1875 0.4375,0.1875 0.85937,0.671875 V 96.5346 l -1.14062,-0.125 v -0.46875 l 2.07812,-0.59375 0.1875,0.09375 -0.0469,1.90625 v 7.20312 l 1.07812,0.15625 v 0.48437 z m 6.36121,-5.98437 v -0.48442 h 2.60937 v 0.484375 l -0.71875,0.140625 -2.15625,5.65625 q -0.65625,1.78125 -1.28125,2.5625 -0.625,0.79687 -1.45312,0.79687 -0.48438,0 -0.85938,-0.25 -0.35937,-0.23437 -0.35937,-0.625 0.0625,-0.29687 0.32812,-0.4375 0.26563,-0.14062 0.5625,-0.14062 0.26563,0 0.48438,0.10937 0.23437,0.10938 0.5,0.39063 l 0.0781,0.0625 q 0.42188,-0.35938 0.70313,-0.875 0.29687,-0.5 0.48437,-1.04688 l 0.0625,-0.15625 -2.42187,-6.093745 -0.73438,-0.09375 V 98.86268 h 3.20313 v 0.484375 l -1.17188,0.140625 1.67188,4.54687 1.64062,-4.531245 z m 3.37085,1.76562 v -0.625 l 5.15625,-2.999995 0.39062,0.71875 -4.625,2.593745 4.625,2.59375 -0.39062,0.71875 z m 8.43658,0.375 q 0,1.0625 0.1875,2 0.1875,0.92187 0.64063,1.875 0.45312,0.95312 1.23437,2.07812 l -0.34375,0.3125 q -1.42187,-1.32812 -2.10937,-2.875 -0.67188,-1.5625 -0.67188,-3.39062 0,-1.82812 0.67188,-3.39062 0.6875,-1.5625 2.10937,-2.875 l 0.34375,0.3125 q -0.78125,1.125 -1.23437,2.078125 -0.45313,0.953125 -0.64063,1.890625 -0.1875,0.92187 -0.1875,1.98437 z m 4.78381,0 q 0,-1.0625 -0.1875,-1.98437 -0.1875,-0.9375 -0.64062,-1.890625 -0.4375,-0.953125 -1.23438,-2.078125 l 0.35938,-0.3125 q 1.40625,1.3125 2.07812,2.875 0.6875,1.5625 0.6875,3.39062 0,1.82812 -0.6875,3.39062 -0.67187,1.54688 -2.07812,2.875 l -0.35938,-0.3125 q 0.79688,-1.125 1.23438,-2.07812 0.45312,-0.95313 0.64062,-1.875 0.1875,-0.9375 0.1875,-2 z m 8.44013,-1 v 0.625 l -5.15625,3 -0.39063,-0.71875 4.625,-2.59375 -4.625,-2.593745 0.39063,-0.71875 z"
       fill-rule="nonzero"
       id="path77" />
    <path
       fill="#000000"
       fill-opacity="0"
       d="m 610.6756,182.37422 h 51.10553"
       fill-rule="evenodd"
       id="path79" />
    <path
       stroke="#595959"
       stroke-width="2"
       stroke-linejoin="round"
       stroke-linecap="butt"
       d="m 610.6756,182.37422 h 39.10553"
       fill-rule="evenodd"
       id="path81" />
    <path
       fill="#595959"
       stroke="#595959"
       stroke-width="2"
       stroke-linecap="butt"
       d="m 649.7811,185.67769 9.07617,-3.30347 -9.07617,-3.30346 z"
       fill-rule="evenodd"
       id="path83" />
    <path
       fill="#000000"
       fill-opacity="0"
       d="m 610.6756,176.42343 h 18.39801 v 11.9016 H 610.6756 Z"
       fill-rule="evenodd"
       id="path85" />
    <path
       fill="#000000"
       fill-opacity="0"
       d="m 643.36237,176.42343 h 18.39801 v 11.9016 h -18.39801 z"
       fill-rule="evenodd"
       id="path87" />
    <path
       fill="#000000"
       fill-opacity="0"
       d="M 661.7804,212.21971 H 610.67493"
       fill-rule="evenodd"
       id="path89" />
    <path
       stroke="#1c4587"
       stroke-width="2"
       stroke-linejoin="round"
       stroke-linecap="butt"
       d="M 661.78046,212.21971 H 622.67493"
       fill-rule="evenodd"
       id="path91" />
    <path
       fill="#1c4587"
       stroke="#1c4587"
       stroke-width="2"
       stroke-linecap="butt"
       d="m 622.6749,208.91624 -9.07623,3.30347 9.07623,3.30346 z"
       fill-rule="evenodd"
       id="path93" />
    <path
       fill="#000000"
       fill-opacity="0"
       d="m 610.6967,206.26892 h 18.39801 v 11.9016 H 610.6967 Z"
       fill-rule="evenodd"
       id="path95" />
    <path
       fill="#000000"
       fill-opacity="0"
       d="m 643.3831,206.26892 h 18.39801 v 11.9016 H 643.3831 Z"
       fill-rule="evenodd"
       id="path97" />
    <path
       fill="#000000"
       fill-opacity="0"
       d="m 591.0735,162.82152 h 70.70868 v 14.86615 H 591.0735 Z"
       fill-rule="evenodd"
       id="path99" />
    <path
       fill="#202122"
       d="m 619.10474,174.6908 q -0.78125,0 -1.51563,-0.29688 -0.71875,-0.3125 -1.3125,-0.89062 -0.57812,-0.59375 -0.92187,-1.45313 -0.34375,-0.875 -0.34375,-2.03125 0,-1.09375 0.34375,-1.95312 0.34375,-0.875 0.92187,-1.46875 0.59375,-0.59375 1.3125,-0.90625 0.73438,-0.3125 1.51563,-0.3125 0.76562,0 1.48437,0.29687 0.73438,0.29688 1.3125,0.89063 0.59375,0.57812 0.9375,1.45312 0.34375,0.85938 0.34375,2 0,1.09375 -0.34375,1.96875 -0.34375,0.85938 -0.92187,1.46875 -0.57813,0.60938 -1.3125,0.92188 -0.73438,0.3125 -1.5,0.3125 z m 0,-0.67188 q 0.6875,0 1.1875,-0.32812 0.5,-0.34375 0.8125,-0.90625 0.3125,-0.57813 0.45312,-1.28125 0.15625,-0.71875 0.15625,-1.48438 0,-0.75 -0.15625,-1.45312 -0.14062,-0.71875 -0.45312,-1.28125 -0.3125,-0.57813 -0.8125,-0.90625 -0.5,-0.34375 -1.1875,-0.34375 -0.6875,0 -1.1875,0.34375 -0.5,0.32812 -0.82813,0.90625 -0.3125,0.5625 -0.46875,1.28125 -0.15625,0.70312 -0.15625,1.45312 0,0.76563 0.15625,1.48438 0.15625,0.70312 0.46875,1.28125 0.32813,0.5625 0.82813,0.90625 0.5,0.32812 1.1875,0.32812 z m 5.17297,3.65625 v -0.46875 l 1.0625,-0.1875 q 0.0156,-0.54687 0.0156,-1.09375 0.0156,-0.53125 0.0156,-1.0625 v -3.8125 q 0,-0.54687 -0.0156,-0.90625 0,-0.35937 -0.0312,-0.76562 l -1.04688,-0.10938 v -0.46875 l 1.85938,-0.8125 0.20312,0.125 0.0781,0.875 q 0.95312,-1 2.01562,-1 0.71875,0 1.28125,0.40625 0.57813,0.39063 0.92188,1.14063 0.34375,0.73437 0.34375,1.76562 0,1.03125 -0.35938,1.78125 -0.35937,0.75 -0.98437,1.17188 -0.60938,0.40625 -1.40625,0.40625 -0.45313,0 -0.90625,-0.1875 -0.4375,-0.1875 -0.85938,-0.67188 v 1.04688 q 0,0.53125 0,1.0625 0.0156,0.54687 0.0156,1.09375 l 1.21875,0.20312 v 0.46875 z m 3.84375,-8.9375 q -0.3125,0 -0.71875,0.15625 -0.39062,0.15625 -0.90625,0.57813 v 3.75 q 0.375,0.35937 0.73438,0.51562 0.35937,0.15625 0.73437,0.15625 0.75,0 1.28125,-0.59375 0.53125,-0.59375 0.53125,-1.89062 0,-1.28125 -0.46875,-1.96875 -0.46875,-0.70313 -1.1875,-0.70313 z m 6.05878,5.92188 q -0.6875,0 -1.10937,-0.375 -0.40625,-0.375 -0.40625,-1.14063 0,-0.25 0,-0.5 0,-0.25 0,-0.64062 v -3.14063 h -1.09375 v -0.57812 l 1.1875,-0.15625 0.34375,-1.78125 h 0.79687 l -0.0781,1.8125 h 1.79687 v 0.70312 h -1.8125 v 4.125 q 0,0.51563 0.20313,0.75 0.20312,0.23438 0.53125,0.23438 0.21875,0 0.42187,-0.0937 0.21875,-0.0937 0.46875,-0.26563 l 0.32813,0.34375 q -0.54688,0.70313 -1.57813,0.70313 z m 2.36292,-4.25 v -0.625 l 5.15625,-3 0.39062,0.71875 -4.625,2.59375 4.625,2.59375 -0.39062,0.71875 z m 10.24908,-4.21875 h -0.8125 q 0,0.84375 -0.0156,1.73437 0,0.89063 0,1.78125 v 0.64063 h 0.875 q 1.21875,0 1.73438,-0.59375 0.51562,-0.59375 0.51562,-1.53125 0,-0.96875 -0.5625,-1.5 -0.54687,-0.53125 -1.73437,-0.53125 z m -3.34375,-0.0781 v -0.54687 h 3.57812 q 1.6875,0 2.53125,0.75 0.85938,0.73437 0.85938,1.90625 0,0.75 -0.375,1.375 -0.375,0.625 -1.20313,1 -0.8125,0.375 -2.1875,0.375 h -0.6875 q 0,0.71875 0,1.42187 0.0156,0.6875 0.0156,1.40625 l 1.25,0.14063 v 0.54687 h -3.78125 v -0.54687 l 1.21875,-0.14063 q 0.0312,-0.84375 0.0312,-1.70312 0,-0.875 0,-1.73438 v -0.65625 q 0,-0.875 0,-1.73437 0,-0.85938 -0.0312,-1.70313 z m 13.56897,3.67188 v 0.625 l -5.15625,3 -0.39063,-0.71875 4.625,-2.59375 -4.625,-2.59375 0.39063,-0.71875 z"
       fill-rule="nonzero"
       id="path101" />
    <path
       fill="#000000"
       fill-opacity="0"
       d="m 591.0735,191.64015 h 70.70868 v 14.86613 H 591.0735 Z"
       fill-rule="evenodd"
       id="path103" />
    <path
       fill="#202122"
       d="m 602.63367,195.00941 h -1.15625 q 0,0.875 -0.0156,1.75 0,0.875 0,1.8125 h 1.01562 q 1.09375,0 1.59375,-0.51563 0.51563,-0.51562 0.51563,-1.32812 0,-0.82813 -0.46875,-1.26563 -0.46875,-0.45312 -1.48438,-0.45312 z m -3.6875,-0.0781 v -0.54687 h 3.71875 q 1.53125,0 2.39063,0.625 0.85937,0.60937 0.85937,1.71875 0,0.76562 -0.5625,1.40625 -0.5625,0.64062 -1.6875,0.84375 0.59375,0.10937 0.96875,0.51562 0.375,0.39063 0.60938,1.17188 l 0.57812,1.96875 1.01563,0.125 v 0.54687 q -0.1875,0.0469 -0.4375,0.0937 -0.25,0.0469 -0.5625,0.0469 -0.625,0 -0.9375,-0.1875 -0.3125,-0.1875 -0.42188,-0.67188 l -0.54687,-2.14062 q -0.10938,-0.54688 -0.34375,-0.8125 -0.21875,-0.26563 -0.57813,-0.35938 -0.34375,-0.0937 -0.89062,-0.0937 h -0.65625 q 0,0.95313 0,1.79688 0.0156,0.82812 0.0156,1.64062 l 1.23438,0.14063 v 0.54687 h -3.76563 v -0.54687 l 1.21875,-0.14063 q 0.0312,-0.84375 0.0312,-1.70312 0,-0.875 0,-1.73438 v -0.65625 q 0,-0.875 0,-1.73437 0,-0.85938 -0.0312,-1.70313 z m 11.52759,2.48438 q -0.35938,0 -0.75,0.21875 -0.375,0.20312 -0.65625,0.67187 -0.26563,0.46875 -0.34375,1.23438 h 2.42187 q 0.48438,0 0.625,-0.1875 0.15625,-0.20313 0.15625,-0.5 0,-0.39063 -0.1875,-0.70313 -0.1875,-0.32812 -0.51562,-0.53125 -0.32813,-0.20312 -0.75,-0.20312 z m 0,6.0625 q -1.35938,0 -2.17188,-0.875 -0.8125,-0.875 -0.8125,-2.40625 0,-1.01563 0.42188,-1.78125 0.42187,-0.76563 1.125,-1.1875 0.70312,-0.42188 1.53125,-0.42188 0.6875,0 1.25,0.3125 0.5625,0.29688 0.89062,0.85938 0.32813,0.5625 0.32813,1.39062 0,0.21875 -0.0312,0.42188 -0.0156,0.1875 -0.0625,0.3125 h -4.25 q 0.0312,1.23437 0.60937,1.875 0.59375,0.64062 1.54688,0.64062 0.64062,0 1.0625,-0.26562 0.4375,-0.26563 0.79687,-0.67188 l 0.3125,0.25 q -0.375,0.70313 -1.01562,1.125 -0.625,0.42188 -1.53125,0.42188 z m 8.63275,-0.0312 q -0.48438,0 -0.8125,-0.28125 -0.3125,-0.28125 -0.39063,-0.75 -0.54687,0.53125 -0.96875,0.79687 -0.40625,0.26563 -0.98437,0.26563 -0.73438,0 -1.26563,-0.42188 -0.53125,-0.42187 -0.53125,-1.25 0,-0.375 0.17188,-0.70312 0.1875,-0.34375 0.67187,-0.65625 0.48438,-0.32813 1.375,-0.64063 0.3125,-0.10937 0.70313,-0.23437 0.40625,-0.125 0.79687,-0.20313 v -0.34375 q 0,-0.96875 -0.29687,-1.28125 -0.28125,-0.32812 -0.95313,-0.32812 -0.14062,0 -0.32812,0.0156 -0.17188,0.0156 -0.39063,0.0625 l -0.25,0.875 q -0.1875,0.625 -0.6875,0.625 -0.5625,0 -0.64062,-0.53125 0.1875,-0.76562 0.89062,-1.20312 0.70313,-0.45313 1.71875,-0.45313 1.04688,0 1.54688,0.53125 0.51562,0.51563 0.51562,1.78125 v 2.84375 q 0,0.42188 0.125,0.60938 0.14063,0.17187 0.35938,0.17187 0.17187,0 0.28125,-0.0781 0.125,-0.0781 0.23437,-0.21875 l 0.26563,0.29687 q -0.23438,0.39063 -0.53125,0.54688 -0.28125,0.15625 -0.625,0.15625 z m -3.76563,-1.82813 q 0,0.53125 0.3125,0.76563 0.3125,0.21875 0.76563,0.21875 0.1875,0 0.35937,-0.0469 0.1875,-0.0625 0.4375,-0.21875 0.26563,-0.15625 0.65625,-0.4375 v -2.04687 q -0.34375,0.0937 -0.67187,0.21875 -0.32813,0.10937 -0.54688,0.1875 -0.57812,0.21875 -0.85937,0.46875 -0.28125,0.23437 -0.375,0.46875 -0.0781,0.21875 -0.0781,0.42187 z m 6.79963,-1.4375 q 0,1.29688 0.53125,1.92188 0.53125,0.60937 1.32812,0.60937 0.4375,0 0.76563,-0.17187 0.34375,-0.1875 0.71875,-0.59375 v -3.6875 q -0.45313,-0.40625 -0.8125,-0.54688 -0.35938,-0.15625 -0.6875,-0.15625 -0.5,0 -0.92188,0.28125 -0.40625,0.26563 -0.67187,0.85938 -0.25,0.57812 -0.25,1.48437 z m 3.48437,3.26563 -0.0937,-0.92188 q -0.34375,0.45313 -0.79687,0.70313 -0.45313,0.25 -1.07813,0.25 -0.8125,0 -1.42187,-0.40625 -0.60938,-0.42188 -0.95313,-1.15625 -0.34375,-0.73438 -0.34375,-1.71875 0,-1.01563 0.375,-1.78125 0.375,-0.76563 1.01563,-1.1875 0.64062,-0.42188 1.45312,-0.42188 0.46875,0 0.89063,0.1875 0.4375,0.1875 0.85937,0.67188 v -3.01563 l -1.14062,-0.125 v -0.46875 l 2.07812,-0.59375 0.1875,0.0937 -0.0469,1.90625 v 7.20313 l 1.07812,0.15625 v 0.48437 z m 6.36121,-5.98438 v -0.48437 h 2.60937 v 0.48437 l -0.71875,0.14063 -2.15625,5.65625 q -0.65625,1.78125 -1.28125,2.5625 -0.625,0.79687 -1.45312,0.79687 -0.48438,0 -0.85938,-0.25 -0.35937,-0.23437 -0.35937,-0.625 0.0625,-0.29687 0.32812,-0.4375 0.26563,-0.14062 0.5625,-0.14062 0.26563,0 0.48438,0.10937 0.23437,0.10938 0.5,0.39063 l 0.0781,0.0625 q 0.42188,-0.35938 0.70313,-0.875 0.29687,-0.5 0.48437,-1.04688 l 0.0625,-0.15625 -2.42187,-6.09375 -0.73438,-0.0937 v -0.48437 h 3.20313 v 0.48437 l -1.17188,0.14063 1.67188,4.54687 1.64062,-4.53125 z m 3.37085,1.76563 v -0.625 l 5.15625,-3 0.39062,0.71875 -4.625,2.59375 4.625,2.59375 -0.39062,0.71875 z m 8.43658,0.375 q 0,1.0625 0.1875,2 0.1875,0.92187 0.64063,1.875 0.45312,0.95312 1.23437,2.07812 l -0.34375,0.3125 q -1.42187,-1.32812 -2.10937,-2.875 -0.67188,-1.5625 -0.67188,-3.39062 0,-1.82813 0.67188,-3.39063 0.6875,-1.5625 2.10937,-2.875 l 0.34375,0.3125 q -0.78125,1.125 -1.23437,2.07813 -0.45313,0.95312 -0.64063,1.89062 -0.1875,0.92188 -0.1875,1.98438 z m 4.78381,0 q 0,-1.0625 -0.1875,-1.98438 -0.1875,-0.9375 -0.64062,-1.89062 -0.4375,-0.95313 -1.23438,-2.07813 l 0.35938,-0.3125 q 1.40625,1.3125 2.07812,2.875 0.6875,1.5625 0.6875,3.39063 0,1.82812 -0.6875,3.39062 -0.67187,1.54688 -2.07812,2.875 l -0.35938,-0.3125 q 0.79688,-1.125 1.23438,-2.07812 0.45312,-0.95313 0.64062,-1.875 0.1875,-0.9375 0.1875,-2 z m 8.44013,-1 v 0.625 l -5.15625,3 -0.39063,-0.71875 4.625,-2.59375 -4.625,-2.59375 0.39063,-0.71875 z"
       fill-rule="nonzero"
       id="path105" />
    <path
       fill="#000000"
       fill-opacity="0"
       d="m 661.7604,84.25874 c 19.72357,0 29.58502,12.267715 39.44721,24.53543 9.86224,12.26772 19.72522,24.53543 39.45044,24.53543"
       fill-rule="evenodd"
       id="path107" />
    <path
       stroke="#595959"
       stroke-width="1"
       stroke-linejoin="round"
       stroke-linecap="butt"
       d="m 661.7604,84.25874 c 19.72357,0 29.58502,12.267715 39.44721,24.53544 4.93109,6.13386 9.86248,12.26771 16.02661,16.86811 3.08209,2.30019 6.47241,4.21702 10.32495,5.55881 1.92633,0.67088 3.96826,1.19801 6.14489,1.55742 0.2721,0.0449 0.54627,0.0872 0.82264,0.12687 l 0.14489,0.02"
       fill-rule="evenodd"
       id="path109" />
    <path
       fill="#595959"
       stroke="#595959"
       stroke-width="1"
       stroke-linecap="butt"
       d="m 734.5603,134.57338 4.6391,-1.34225 -4.41651,-1.95371 z"
       fill-rule="evenodd"
       id="path111" />
    <path
       fill="#000000"
       fill-opacity="0"
       d="m 661.75696,182.38786 c 19.72443,0 29.58661,-12.26772 39.44885,-24.53543 C 711.068,145.58471 720.93024,133.317 740.6546,133.317"
       fill-rule="evenodd"
       id="path113" />
    <path
       stroke="#595959"
       stroke-width="1"
       stroke-linejoin="round"
       stroke-linecap="butt"
       d="m 661.75696,182.38786 c 19.72443,0 29.58661,-12.26772 39.44885,-24.53543 4.93109,-6.13385 9.86219,-12.26772 16.02607,-16.8681 3.08197,-2.3002 6.47204,-4.21703 10.32446,-5.55881 1.92627,-0.6709 3.96802,-1.19803 6.14459,-1.55743 0.27216,-0.0449 0.54626,-0.0872 0.82263,-0.12687 l 0.14466,-0.02"
       fill-rule="evenodd"
       id="path115" />
    <path
       fill="#595959"
       stroke="#595959"
       stroke-width="1"
       stroke-linecap="butt"
       d="m 734.77954,135.36923 4.4165,-1.95374 -4.63909,-1.34222 z"
       fill-rule="evenodd"
       id="path117" />
    <path
       fill="#000000"
       fill-opacity="0"
       d="m 740.6757,163.16249 c -19.72363,0 -29.58502,-12.26772 -39.44727,-24.53545 -9.86218,-12.2677 -19.72515,-24.53542 -39.45038,-24.53542"
       fill-rule="evenodd"
       id="path119" />
    <path
       stroke="#1c4587"
       stroke-width="1"
       stroke-linejoin="round"
       stroke-linecap="butt"
       d="m 740.67566,163.16249 c -19.72357,0 -29.58496,-12.26773 -39.44714,-24.53545 -4.9311,-6.13385 -9.86237,-12.2677 -16.02655,-16.8681 -3.08216,-2.3002 -6.47242,-4.21702 -10.32502,-5.55881 -1.92633,-0.67089 -3.96826,-1.19802 -6.14495,-1.55742 -0.27204,-0.0449 -0.54627,-0.0872 -0.82264,-0.12687 l -0.14489,-0.02"
       fill-rule="evenodd"
       id="path121" />
    <path
       fill="#1c4587"
       stroke="#1c4587"
       stroke-width="1"
       stroke-linecap="butt"
       d="m 667.87573,112.84785 -4.63904,1.34225 4.41651,1.95371 z"
       fill-rule="evenodd"
       id="path123" />
    <path
       fill="#000000"
       fill-opacity="0"
       d="m 740.6757,163.16249 c -19.72363,0 -29.58502,12.26771 -39.44727,24.53543 -9.86218,12.26771 -19.72515,24.53543 -39.45038,24.53543"
       fill-rule="evenodd"
       id="path125" />
    <path
       stroke="#1c4587"
       stroke-width="1"
       stroke-linejoin="round"
       stroke-linecap="butt"
       d="m 740.67566,163.16249 c -19.72357,0 -29.58496,12.26771 -39.44714,24.53543 -4.9311,6.13385 -9.86237,12.26771 -16.02655,16.8681 -3.08216,2.3002 -6.47242,4.21703 -10.32502,5.55881 -1.92633,0.6709 -3.96826,1.19803 -6.14495,1.55742 -0.27204,0.0449 -0.54627,0.0872 -0.82264,0.12689 l -0.14489,0.02"
       fill-rule="evenodd"
       id="path127" />
    <path
       fill="#1c4587"
       stroke="#1c4587"
       stroke-width="1"
       stroke-linecap="butt"
       d="m 667.6532,210.18115 -4.4165,1.9537 4.63903,1.34226 z"
       fill-rule="evenodd"
       id="path129" />
    <path
       fill="#000000"
       fill-opacity="0"
       d="m 599.9057,129.47 h 70.70862 v 23.93701 H 599.9057 Z"
       fill-rule="evenodd"
       id="path131" />
    <path
       fill="#202122"
       d="m 640.5569,148.6385 v -2.75 h 2.75 v 2.75 z m -6.65625,0 v -2.75 h 2.73438 v 2.75 z m -6.67187,0 v -2.75 h 2.73437 v 2.75 z"
       fill-rule="nonzero"
       id="path133" />
    <path
       fill="#000000"
       fill-opacity="0"
       d="m 661.7604,84.25874 c 12.51038,0 25.01288,31.99213 25.02075,63.98425 0.008,31.99213 -12.47888,63.98426 -24.95776,63.98426"
       fill-rule="evenodd"
       id="path135" />
    <path
       stroke="#595959"
       stroke-width="1"
       stroke-linejoin="round"
       stroke-linecap="butt"
       d="m 661.7604,84.25874 c 12.51038,0 25.01288,31.99213 25.02075,63.98425 0.004,15.99605 -3.11578,31.99211 -7.79632,43.98917 -2.34034,5.99852 -5.0708,10.99728 -7.99616,14.49643 -0.73132,0.8748 -1.47485,1.65584 -2.22748,2.33536 -0.37634,0.33975 -0.75494,0.65414 -1.13543,0.94215 l -0.17804,0.13148"
       fill-rule="evenodd"
       id="path137" />
    <path
       fill="#595959"
       stroke="#595959"
       stroke-width="1"
       stroke-linecap="butt"
       d="m 666.87244,208.58926 -3.67871,3.12883 4.82922,-0.0322 z"
       fill-rule="evenodd"
       id="path139" />
  </g>
</svg>
