<?xml version="1.0" encoding="UTF-8" standalone="no"?>
<svg
   version="1.1"
   viewBox="0 0 465.07086 193.82677"
   fill="none"
   stroke="none"
   stroke-linecap="square"
   stroke-miterlimit="10"
   id="svg159"
   sodipodi:docname="masked-merge.svg"
   width="465.07086"
   height="193.82677"
   inkscape:version="1.1.2 (b8e25be8, 2022-02-05)"
   xmlns:inkscape="http://www.inkscape.org/namespaces/inkscape"
   xmlns:sodipodi="http://sodipodi.sourceforge.net/DTD/sodipodi-0.dtd"
   xmlns="http://www.w3.org/2000/svg"
   xmlns:svg="http://www.w3.org/2000/svg">
  <defs
     id="defs163" />
  <sodipodi:namedview
     id="namedview161"
     pagecolor="#ffffff"
     bordercolor="#666666"
     borderopacity="1.0"
     inkscape:pageshadow="2"
     inkscape:pageopacity="0.0"
     inkscape:pagecheckerboard="0"
     showgrid="false"
     inkscape:zoom="1.05"
     inkscape:cx="261.42857"
     inkscape:cy="83.333333"
     inkscape:window-width="1296"
     inkscape:window-height="789"
     inkscape:window-x="0"
     inkscape:window-y="25"
     inkscape:window-maximized="0"
     inkscape:current-layer="g157" />
  <clipPath
     id="g305443f3828_0_0.0">
    <path
       d="M 0,0 H 960 V 540 H 0 Z"
       clip-rule="nonzero"
       id="path2" />
  </clipPath>
  <g
     clip-path="url(#g305443f3828_0_0.0)"
     id="g157"
     transform="translate(-218.10761,-186.19948)">
    <path
       fill="#000000"
       fill-opacity="0"
       d="M 0,0 H 504 V 72.97638 H 0 Z"
       fill-rule="evenodd"
       id="path7" />
    <path
       fill="#000000"
       fill-opacity="0"
       d="m 388.56693,184.93536 h 124.1575 v 27.87402 h -124.1575 z"
       fill-rule="evenodd"
       id="path15" />
    <path
       fill="#202122"
       d="m 399.57935,204.15237 v -0.6875 l 0.79687,-0.17188 q 0.0156,-0.53125 0.0156,-1.14062 0,-0.625 0,-1.07813 v -0.84375 q 0,-0.60937 -0.0156,-0.9375 0,-0.32812 -0.0312,-0.76562 l -0.89062,-0.14063 v -0.5625 l 2.89062,-0.98437 0.25,0.15625 0.0937,1.0625 q 0.51563,-0.60938 1.07813,-0.90625 0.5625,-0.3125 1.20312,-0.3125 1.51563,0 1.95313,1.29687 0.60937,-0.71875 1.17187,-1 0.5625,-0.29687 1.1875,-0.29687 1.125,0 1.625,0.64062 0.51563,0.64063 0.51563,1.95313 v 1.64062 q 0,0.46875 0,1.09375 0,0.60938 0.0156,1.14063 l 0.73438,0.15625 v 0.6875 h -3.78125 v -0.6875 l 0.71875,-0.17188 q 0.0156,-0.53125 0.0156,-1.14062 0,-0.60938 0,-1.07813 v -1.42187 q 0,-0.8125 -0.1875,-1.09375 -0.1875,-0.29688 -0.65625,-0.29688 -0.60937,0 -1.21875,0.53125 0.0156,0.125 0.0156,0.26563 0.0156,0.14062 0.0156,0.29687 v 1.71875 q 0,0.48438 0,1.09375 0,0.60938 0,1.15625 l 0.70313,0.14063 v 0.6875 h -3.78125 v -0.6875 l 0.75,-0.17188 q 0.0156,-0.53125 0.0156,-1.14062 0,-0.60938 0,-1.07813 v -1.40625 q 0,-0.78125 -0.1875,-1.09375 -0.17187,-0.3125 -0.65625,-0.3125 -0.3125,0 -0.625,0.15625 -0.29687,0.14063 -0.57812,0.375 v 2.28125 q 0,0.45313 0,1.07813 0,0.625 0.0156,1.17187 l 0.6875,0.14063 v 0.6875 z m 18.86249,0.20312 q -1.26563,0 -1.60938,-1.04687 -0.46875,0.48437 -0.90625,0.78125 -0.42187,0.28125 -1.1875,0.28125 -0.84375,0 -1.39062,-0.48438 -0.53125,-0.48437 -0.53125,-1.39062 0,-0.53125 0.23437,-0.95313 0.23438,-0.42187 0.84375,-0.78125 0.625,-0.375 1.75,-0.70312 0.21875,-0.0625 0.51563,-0.14063 0.29687,-0.0781 0.59375,-0.14062 v -0.48438 q 0,-0.98437 -0.25,-1.32812 -0.23438,-0.35938 -0.9375,-0.35938 -0.0937,0 -0.1875,0 -0.0781,0 -0.20313,0.0156 l -0.0781,0.64062 q -0.0156,0.71875 -0.32813,1.04688 -0.3125,0.3125 -0.73437,0.3125 -0.8125,0 -0.98438,-0.73438 0.0625,-0.90625 0.92188,-1.46875 0.875,-0.57812 2.45312,-0.57812 1.40625,0 2.01563,0.64062 0.60937,0.64063 0.60937,2.125 v 3.28125 q 0,0.4375 0.3125,0.4375 0.125,0 0.21875,-0.0625 0.10938,-0.0781 0.23438,-0.26562 l 0.39062,0.26562 q -0.26562,0.57813 -0.6875,0.84375 -0.42187,0.25 -1.07812,0.25 z m -3.45313,-2.23437 q 0,0.53125 0.25,0.79687 0.26563,0.26563 0.625,0.26563 0.17188,0 0.34375,-0.0625 0.17188,-0.0781 0.54688,-0.34375 v -2.375 q -0.1875,0.0625 -0.375,0.125 -0.17188,0.0625 -0.3125,0.125 -0.5,0.20312 -0.79688,0.57812 -0.28125,0.375 -0.28125,0.89063 z m 8.14188,2.25 q -1.39063,0 -2.54688,-0.67188 l 0.0469,-1.79687 h 1.17187 l 0.25,1.45312 q 0.26563,0.10938 0.53125,0.15625 0.26563,0.0469 0.5625,0.0469 0.64063,0 0.96875,-0.20313 0.34375,-0.21875 0.34375,-0.65625 0,-0.32812 -0.25,-0.57812 -0.25,-0.25 -0.98437,-0.45313 l -0.79688,-0.23437 q -0.84375,-0.25 -1.3125,-0.8125 -0.45312,-0.5625 -0.45312,-1.375 0,-1.01563 0.78125,-1.70313 0.79687,-0.70312 2.28125,-0.70312 0.64062,0 1.1875,0.15625 0.54687,0.15625 1.125,0.4375 l -0.0937,1.60937 h -1.1875 l -0.28125,-1.26562 q -0.3125,-0.125 -0.8125,-0.125 -0.5,0 -0.79688,0.21875 -0.29687,0.20312 -0.29687,0.60937 0,0.29688 0.23437,0.53125 0.23438,0.21875 1,0.45313 l 0.71875,0.20312 q 1.03125,0.3125 1.48438,0.89063 0.45312,0.5625 0.45312,1.375 0,1.15625 -0.89062,1.79687 -0.875,0.64063 -2.4375,0.64063 z m 3.80994,-0.21875 v -0.6875 l 0.82812,-0.17188 q 0.0156,-0.54687 0.0156,-1.15625 0,-0.625 0,-1.0625 v -6.14062 l -0.90625,-0.14063 v -0.625 l 3.07812,-0.65625 0.23438,0.14063 -0.0625,2.0625 v 4.5 l 2.375,-2.32813 -1.10938,-0.17187 v -0.64063 h 3.53125 v 0.64063 l -1.32812,0.1875 -1.28125,1.21875 2.0625,4.125 0.9375,0.21875 v 0.6875 h -2.98438 l -1.65625,-3.5 -0.54687,0.51562 q 0,0.48438 0,1.0625 0.0156,0.57813 0.0156,1.07813 l 0.79688,0.15625 v 0.6875 z m 12.143,-6.54688 q -0.40625,0 -0.75,0.5 -0.34375,0.5 -0.39062,1.85938 h 1.23437 q 0.53125,0 0.71875,-0.20313 0.1875,-0.21875 0.1875,-0.71875 0,-0.73437 -0.29687,-1.07812 -0.29688,-0.35938 -0.70313,-0.35938 z m 0.0312,6.76563 q -1.07812,0 -1.90625,-0.4375 -0.8125,-0.45313 -1.28125,-1.29688 -0.46875,-0.84375 -0.46875,-2.01562 0,-1.23438 0.54688,-2.07813 0.5625,-0.84375 1.42187,-1.26562 0.85938,-0.4375 1.79688,-0.4375 0.96875,0 1.64062,0.40625 0.6875,0.40625 1.03125,1.10937 0.35938,0.70313 0.35938,1.59375 0,0.42188 -0.0781,0.78125 h -4.23437 q 0.0625,1.15625 0.625,1.70313 0.57812,0.54687 1.32812,0.54687 0.60938,0 1.03125,-0.21875 0.42188,-0.23437 0.75,-0.57812 l 0.51563,0.46875 q -0.45313,0.875 -1.23438,1.29687 -0.78125,0.42188 -1.84375,0.42188 z m 6.46405,-3.71875 q 0,1.20312 0.42188,1.82812 0.42187,0.60938 1.09375,0.60938 0.5,0 0.90625,-0.32813 v -4.375 q -0.39063,-0.29687 -0.85938,-0.29687 -0.67187,0 -1.125,0.625 -0.4375,0.625 -0.4375,1.9375 z m 2.625,3.65625 -0.125,-0.82813 q -0.84375,0.89063 -2.0625,0.89063 -0.82812,0 -1.5,-0.42188 -0.65625,-0.42187 -1.04687,-1.25 -0.375,-0.82812 -0.375,-2.01562 0,-1.20313 0.45312,-2.0625 0.46875,-0.85938 1.20313,-1.3125 0.75,-0.46875 1.57812,-0.46875 0.5625,0 0.98438,0.20312 0.4375,0.1875 0.78125,0.57813 v -2.6875 l -1.03125,-0.14063 v -0.625 l 3.09375,-0.65625 0.23437,0.14063 -0.0469,2.0625 v 7.60937 l 0.71875,0.14063 v 0.6875 z m 3.76834,1.15625 v -1.3125 h 6.71875 v 1.3125 z m 7.71225,-1.3125 v -0.6875 l 0.79688,-0.17188 q 0.0156,-0.53125 0.0156,-1.14062 0,-0.625 0,-1.07813 v -0.84375 q 0,-0.60937 -0.0156,-0.9375 0,-0.32812 -0.0312,-0.76562 l -0.89063,-0.14063 v -0.5625 l 2.89063,-0.98437 0.25,0.15625 0.0937,1.0625 q 0.51562,-0.60938 1.07812,-0.90625 0.5625,-0.3125 1.20313,-0.3125 1.51562,0 1.95312,1.29687 0.60938,-0.71875 1.17188,-1 0.5625,-0.29687 1.1875,-0.29687 1.125,0 1.625,0.64062 0.51562,0.64063 0.51562,1.95313 v 1.64062 q 0,0.46875 0,1.09375 0,0.60938 0.0156,1.14063 l 0.73437,0.15625 v 0.6875 h -3.78125 v -0.6875 l 0.71875,-0.17188 q 0.0156,-0.53125 0.0156,-1.14062 0,-0.60938 0,-1.07813 v -1.42187 q 0,-0.8125 -0.1875,-1.09375 -0.1875,-0.29688 -0.65625,-0.29688 -0.60938,0 -1.21875,0.53125 0.0156,0.125 0.0156,0.26563 0.0156,0.14062 0.0156,0.29687 v 1.71875 q 0,0.48438 0,1.09375 0,0.60938 0,1.15625 l 0.70312,0.14063 v 0.6875 h -3.78125 v -0.6875 l 0.75,-0.17188 q 0.0156,-0.53125 0.0156,-1.14062 0,-0.60938 0,-1.07813 v -1.40625 q 0,-0.78125 -0.1875,-1.09375 -0.17188,-0.3125 -0.65625,-0.3125 -0.3125,0 -0.625,0.15625 -0.29688,0.14063 -0.57813,0.375 v 2.28125 q 0,0.45313 0,1.07813 0,0.625 0.0156,1.17187 l 0.6875,0.14063 v 0.6875 z m 16.9339,-6.54688 q -0.40625,0 -0.75,0.5 -0.34375,0.5 -0.39062,1.85938 h 1.23437 q 0.53125,0 0.71875,-0.20313 0.1875,-0.21875 0.1875,-0.71875 0,-0.73437 -0.29687,-1.07812 -0.29688,-0.35938 -0.70313,-0.35938 z m 0.0312,6.76563 q -1.07812,0 -1.90625,-0.4375 -0.8125,-0.45313 -1.28125,-1.29688 -0.46875,-0.84375 -0.46875,-2.01562 0,-1.23438 0.54688,-2.07813 0.5625,-0.84375 1.42187,-1.26562 0.85938,-0.4375 1.79688,-0.4375 0.96875,0 1.64062,0.40625 0.6875,0.40625 1.03125,1.10937 0.35938,0.70313 0.35938,1.59375 0,0.42188 -0.0781,0.78125 h -4.23437 q 0.0625,1.15625 0.625,1.70313 0.57812,0.54687 1.32812,0.54687 0.60938,0 1.03125,-0.21875 0.42188,-0.23437 0.75,-0.57812 l 0.51563,0.46875 q -0.45313,0.875 -1.23438,1.29687 -0.78125,0.42188 -1.84375,0.42188 z m 3.94846,-0.21875 v -0.6875 l 0.8125,-0.15625 q 0.0156,-0.54688 0.0156,-1.15625 0,-0.625 0,-1.07813 v -0.85937 q 0,-0.42188 -0.0156,-0.67188 0,-0.26562 -0.0156,-0.48437 0,-0.23438 -0.0156,-0.53125 l -0.89063,-0.14063 v -0.5625 l 2.89063,-0.98437 0.25,0.15625 0.14062,1.73437 q 0.3125,-0.9375 0.85938,-1.40625 0.5625,-0.48437 1.10937,-0.48437 0.48438,0 0.82813,0.28125 0.35937,0.26562 0.4375,0.79687 -0.0156,0.57813 -0.3125,0.89063 -0.28125,0.3125 -0.71875,0.3125 -0.625,0 -1.14063,-0.6875 l -0.0781,-0.10938 q -0.32813,0.29688 -0.60938,0.76563 -0.26562,0.46875 -0.375,0.98437 v 1 q 0,0.45313 0,1.04688 0,0.57812 0.0156,1.09375 l 1.15625,0.25 v 0.6875 z m 9.76898,-3.28125 q 0.51562,0 0.76562,-0.45313 0.25,-0.45312 0.25,-1.23437 0,-0.78125 -0.25,-1.20313 -0.25,-0.4375 -0.73437,-0.4375 -0.5,0 -0.75,0.4375 -0.25,0.4375 -0.25,1.21875 0,0.78125 0.23437,1.23438 0.23438,0.4375 0.73438,0.4375 z m -1.95313,4.5 q 0,0.64062 0.48438,0.9375 0.48437,0.3125 1.48437,0.3125 1.09375,0 1.64063,-0.32813 0.5625,-0.32812 0.5625,-0.8125 0,-0.3125 -0.23438,-0.57812 -0.23437,-0.25 -0.82812,-0.25 h -1.54688 q -0.79687,0 -1.32812,-0.14063 -0.10938,0.21875 -0.17188,0.40625 -0.0625,0.1875 -0.0625,0.45313 z m 1.96875,-3.8125 q -0.76562,0 -1.34375,-0.17188 -0.17187,0.29688 -0.17187,0.67188 0,0.25 0.1875,0.40625 0.20312,0.15625 0.67187,0.15625 h 1.70313 q 1.125,0 1.78125,0.26562 0.65625,0.26563 0.9375,0.75 0.29687,0.46875 0.29687,1.10938 0,0.73437 -0.48437,1.35937 -0.48438,0.625 -1.45313,1 -0.95312,0.375 -2.35937,0.375 -1.21875,0 -1.90625,-0.25 -0.6875,-0.23437 -0.96875,-0.64062 -0.28125,-0.39063 -0.28125,-0.82813 0,-0.9375 1.21875,-1.5 -0.45313,-0.20312 -0.65625,-0.5 -0.1875,-0.3125 -0.1875,-0.67187 0,-0.51563 0.29687,-0.96875 0.29688,-0.46875 0.84375,-0.9375 -0.60937,-0.3125 -0.90625,-0.82813 -0.28125,-0.51562 -0.28125,-1.14062 0,-1.03125 0.75,-1.70313 0.75,-0.67187 2.3125,-0.67187 0.78125,0 1.35938,0.17187 0.59375,0.17188 0.96875,0.5 l 1.64062,-0.70312 0.23438,0.14062 v 1.14063 h -1.39063 q 0.26563,0.48437 0.26563,1.125 0,0.98437 -0.76563,1.67187 -0.75,0.67188 -2.3125,0.67188 z m 8.14655,-3.95313 q -0.40625,0 -0.75,0.5 -0.34375,0.5 -0.39063,1.85938 h 1.23438 q 0.53125,0 0.71875,-0.20313 0.1875,-0.21875 0.1875,-0.71875 0,-0.73437 -0.29688,-1.07812 -0.29687,-0.35938 -0.70312,-0.35938 z m 0.0312,6.76563 q -1.07813,0 -1.90625,-0.4375 -0.8125,-0.45313 -1.28125,-1.29688 -0.46875,-0.84375 -0.46875,-2.01562 0,-1.23438 0.54687,-2.07813 0.5625,-0.84375 1.42188,-1.26562 0.85937,-0.4375 1.79687,-0.4375 0.96875,0 1.64063,0.40625 0.6875,0.40625 1.03125,1.10937 0.35937,0.70313 0.35937,1.59375 0,0.42188 -0.0781,0.78125 h -4.23438 q 0.0625,1.15625 0.625,1.70313 0.57813,0.54687 1.32813,0.54687 0.60937,0 1.03125,-0.21875 0.42187,-0.23437 0.75,-0.57812 l 0.51562,0.46875 q -0.45312,0.875 -1.23437,1.29687 -0.78125,0.42188 -1.84375,0.42188 z"
       fill-rule="nonzero"
       id="path17" />
    <path
       fill="#000000"
       fill-opacity="0"
       d="m 569.0002,284.61136 h 124.15747 v 23.93701 H 569.0002 Z"
       fill-rule="evenodd"
       id="path19" />
    <path
       fill="#202122"
       d="m 579.48456,293.48486 v -0.75 h 3.17187 v 0.78125 l -1.09375,0.1875 -3.01562,8.6875 h -1.42188 l -3.15625,-8.78125 -0.84375,-0.0937 v -0.78125 h 4.71875 v 0.75 l -1.25,0.15625 2,6.03125 2.03125,-6 z m 2.61139,8.875 v -0.6875 l 0.8125,-0.15625 q 0.0156,-0.54687 0.0156,-1.15625 0,-0.625 0,-1.07812 v -0.85938 q 0,-0.42187 -0.0156,-0.67187 0,-0.26563 -0.0156,-0.48438 0,-0.23437 -0.0156,-0.53125 l -0.89063,-0.14062 v -0.5625 l 2.89063,-0.98438 0.25,0.15625 0.14062,1.73438 q 0.3125,-0.9375 0.85938,-1.40625 0.5625,-0.48438 1.10937,-0.48438 0.48438,0 0.82813,0.28125 0.35937,0.26563 0.4375,0.79688 -0.0156,0.57812 -0.3125,0.89062 -0.28125,0.3125 -0.71875,0.3125 -0.625,0 -1.14063,-0.6875 l -0.0781,-0.10937 q -0.32813,0.29687 -0.60938,0.76562 -0.26562,0.46875 -0.375,0.98438 v 1 q 0,0.45312 0,1.04687 0,0.57813 0.0156,1.09375 l 1.15625,0.25 v 0.6875 z m 6.98706,-4.1875 v -1.10937 l 6.125,-3.15625 0.625,1.25 -5.03125,2.45312 5.03125,2.46875 -0.625,1.25 z m 11.84808,-4.59375 h -0.32812 q -0.0156,0.90625 -0.0312,1.82813 0,0.92187 0,1.875 v 0.57812 h 0.42187 q 0.96875,0 1.45313,-0.625 0.48437,-0.625 0.48437,-1.60937 0,-1.01563 -0.53125,-1.53125 -0.51562,-0.51563 -1.46875,-0.51563 z m -3.95312,-0.0625 v -0.78125 h 3.98437 q 1.53125,0 2.46875,0.35938 0.9375,0.35937 1.35938,1.01562 0.4375,0.64063 0.4375,1.51563 0,0.84375 -0.40625,1.54687 -0.40625,0.6875 -1.32813,1.10938 -0.92187,0.40625 -2.51562,0.40625 h -0.40625 q 0,0.625 0,1.32812 0.0156,0.6875 0.0312,1.42188 l 1.29687,0.125 v 0.79687 h -4.92187 v -0.79687 l 1.09375,-0.10938 q 0.0312,-0.89062 0.0312,-1.79687 0,-0.92188 0,-1.84375 v -0.53125 q 0,-0.92188 0,-1.82813 0,-0.92187 -0.0312,-1.8125 z m 10.19494,8.01563 q 0,1 -0.46875,1.78125 -0.45312,0.78125 -1.15625,1.28125 -0.6875,0.5 -1.39062,0.71875 l -0.20313,-0.60938 q 0.73438,-0.375 1.20313,-0.89062 0.48437,-0.51563 0.75,-1.09375 l -0.51563,-0.26563 q -0.45312,-0.25 -0.64062,-0.57812 -0.1875,-0.34375 -0.1875,-0.65625 0,-0.54688 0.35937,-0.90625 0.375,-0.375 0.9375,-0.375 0.3125,0 0.5625,0.0937 0.26563,0.0781 0.53125,0.3125 0.14063,0.34375 0.17188,0.60937 0.0469,0.25 0.0469,0.57813 z m 5.56458,-1.48438 v -3.51562 q 0,-1.15625 -0.0156,-2.32813 0,-1.17187 -0.0312,-2.32812 h 3.40625 v 0.79687 l -1.57812,0.15625 q -0.0156,0.90625 -0.0156,1.84375 0,0.92188 0,1.85938 v 3.51562 q 0,0.90625 0,1.84375 0.0156,0.92188 0.0312,1.84375 l 1.5625,0.15625 v 0.79688 h -3.40625 q 0.0312,-1.125 0.0312,-2.29688 0.0156,-1.17187 0.0156,-2.34375 z m 4.00665,2.32813 v -0.6875 l 0.78125,-0.15625 q 0.0156,-0.53125 0.0156,-1.15625 0,-0.625 0,-1.07813 v -6.1875 l -0.90625,-0.10937 v -0.625 l 3.03125,-0.65625 0.23437,0.14062 -0.0625,2.0625 v 2.0625 q 0.92188,-0.9375 2.125,-0.9375 0.8125,0 1.45313,0.42188 0.64062,0.40625 1.03125,1.23437 0.39062,0.82813 0.39062,2.04688 0,1.1875 -0.4375,2.04687 -0.4375,0.85938 -1.15625,1.32813 -0.70312,0.45312 -1.54687,0.45312 -1.20313,0 -1.9375,-0.85937 l -0.25,0.84375 z m 4.15625,-6.04688 q -0.28125,0 -0.53125,0.125 -0.25,0.10938 -0.48437,0.29688 v 4.1875 q 0.45312,0.40625 1,0.40625 0.64062,0 1.04687,-0.625 0.42188,-0.625 0.42188,-1.92188 0,-1.29687 -0.40625,-1.875 -0.39063,-0.59375 -1.04688,-0.59375 z m 8.60553,6.25 q -1.14062,0 -1.98437,-0.46875 -0.82813,-0.48437 -1.28125,-1.34375 -0.45313,-0.85937 -0.45313,-1.98437 0,-1.125 0.48438,-1.95313 0.5,-0.84375 1.34375,-1.3125 0.85937,-0.46875 1.89062,-0.46875 1.04688,0 1.89063,0.45313 0.84375,0.45312 1.34375,1.29687 0.5,0.84375 0.5,1.98438 0,1.14062 -0.45313,2 -0.45312,0.84375 -1.29687,1.32812 -0.82813,0.46875 -1.98438,0.46875 z m 0,-0.76562 q 0.625,0 0.92188,-0.71875 0.3125,-0.71875 0.3125,-2.26563 0,-1.5625 -0.3125,-2.28125 -0.29688,-0.71875 -0.92188,-0.71875 -0.625,0 -0.9375,0.71875 -0.29687,0.71875 -0.29687,2.28125 0,1.54688 0.29687,2.26563 0.3125,0.71875 0.9375,0.71875 z m 8.38349,0.76562 q -1.14063,0 -1.98438,-0.46875 -0.82812,-0.48437 -1.28125,-1.34375 -0.45312,-0.85937 -0.45312,-1.98437 0,-1.125 0.48437,-1.95313 0.5,-0.84375 1.34375,-1.3125 0.85938,-0.46875 1.89063,-0.46875 1.04687,0 1.89062,0.45313 0.84375,0.45312 1.34375,1.29687 0.5,0.84375 0.5,1.98438 0,1.14062 -0.45312,2 -0.45313,0.84375 -1.29688,1.32812 -0.82812,0.46875 -1.98437,0.46875 z m 0,-0.76562 q 0.625,0 0.92187,-0.71875 0.3125,-0.71875 0.3125,-2.26563 0,-1.5625 -0.3125,-2.28125 -0.29687,-0.71875 -0.92187,-0.71875 -0.625,0 -0.9375,0.71875 -0.29688,0.71875 -0.29688,2.28125 0,1.54688 0.29688,2.26563 0.3125,0.71875 0.9375,0.71875 z m 4.47113,0.54687 v -0.6875 l 0.8125,-0.17187 q 0.0156,-0.5625 0.0156,-1.10938 0.0156,-0.5625 0.0156,-1.10937 v -6.14063 l -0.90625,-0.14062 v -0.625 l 3.07812,-0.65625 0.23438,0.14062 -0.0625,2.0625 v 5.35938 q 0,0.5625 0,1.125 0.0156,0.54687 0.0312,1.10937 l 0.79687,0.15625 v 0.6875 z m 6.56213,-4.75 q -0.5625,0 -0.95312,-0.375 -0.375,-0.39062 -0.375,-0.92187 0,-0.54688 0.375,-0.9375 0.39062,-0.40625 0.95312,-0.40625 0.54688,0 0.92188,0.40625 0.39062,0.39062 0.39062,0.9375 0,0.53125 -0.39062,0.92187 -0.375,0.375 -0.92188,0.375 z m 1.28125,3.92188 q 0,1 -0.46875,1.78125 -0.45312,0.78125 -1.15625,1.28125 -0.6875,0.5 -1.39062,0.71875 l -0.20313,-0.60938 q 0.73438,-0.375 1.20313,-0.89062 0.48437,-0.51563 0.75,-1.09375 l -0.51563,-0.26563 q -0.45312,-0.25 -0.64062,-0.57812 -0.1875,-0.34375 -0.1875,-0.65625 0,-0.54688 0.35937,-0.90625 0.375,-0.375 0.9375,-0.375 0.3125,0 0.5625,0.0937 0.26563,0.0781 0.53125,0.3125 0.14063,0.34375 0.17188,0.60937 0.0469,0.25 0.0469,0.57813 z m 10.43958,-8.01563 v -0.78125 h 3.85937 v 0.78125 l -1.25,0.20313 v 8.67187 h -1.23437 l -5.15625,-7.15625 v 6.14063 l 1.67187,0.1875 v 0.79687 h -3.875 v -0.79687 l 1.25,-0.17188 v -7.48437 l -0.20312,-0.28125 -1.01563,-0.10938 v -0.78125 h 3.3125 l 4.3125,5.92188 v -4.9375 z m 7.87292,3.01563 v 3.51562 q 0,1.15625 0,2.3125 0.0156,1.17188 0.0469,2.32813 h -3.42188 v -0.79688 l 1.57813,-0.15625 q 0.0156,-0.90625 0.0156,-1.82812 0,-0.92188 0,-1.85938 v -3.51562 q 0,-0.90625 0,-1.84375 0,-0.9375 -0.0312,-1.85938 l -1.5625,-0.15625 v -0.79687 h 3.42188 q -0.0312,1.14062 -0.0469,2.3125 0,1.17187 0,2.34375 z m 8.92853,0.53125 v 1.10937 l -6.125,3.15625 -0.64063,-1.25 5.03125,-2.46875 -5.03125,-2.45312 0.64063,-1.25 z"
       fill-rule="nonzero"
       id="path21" />
    <path
       fill="#000000"
       fill-opacity="0"
       d="m 278.51443,240.225 h 70.70865 v 23.93701 h -70.70865 z"
       fill-rule="evenodd"
       id="path23" />
    <path
       fill="#202122"
       d="m 311.25674,249.09851 v -0.75 h 3.17187 v 0.78125 l -1.09375,0.1875 -3.01562,8.6875 h -1.42188 l -3.15625,-8.78125 -0.84375,-0.0937 v -0.78125 h 4.71875 v 0.75 l -1.25,0.15625 2,6.03125 2.03125,-6 z m 2.61139,8.875 v -0.6875 l 0.8125,-0.15625 q 0.0156,-0.54687 0.0156,-1.15625 0,-0.625 0,-1.07812 v -0.85938 q 0,-0.42187 -0.0156,-0.67187 0,-0.26563 -0.0156,-0.48438 0,-0.23437 -0.0156,-0.53125 l -0.89063,-0.14062 v -0.5625 l 2.89063,-0.98438 0.25,0.15625 0.14062,1.73438 q 0.3125,-0.9375 0.85938,-1.40625 0.5625,-0.48438 1.10937,-0.48438 0.48438,0 0.82813,0.28125 0.35937,0.26563 0.4375,0.79688 -0.0156,0.57812 -0.3125,0.89062 -0.28125,0.3125 -0.71875,0.3125 -0.625,0 -1.14063,-0.6875 l -0.0781,-0.10937 q -0.32813,0.29687 -0.60938,0.76562 -0.26562,0.46875 -0.375,0.98438 v 1 q 0,0.45312 0,1.04687 0,0.57813 0.0156,1.09375 l 1.15625,0.25 v 0.6875 z m 6.98706,-4.1875 v -1.10937 l 6.125,-3.15625 0.625,1.25 -5.03125,2.45312 5.03125,2.46875 -0.625,1.25 z m 11.84805,-4.59375 h -0.32812 q -0.0156,0.90625 -0.0312,1.82813 0,0.92187 0,1.875 v 0.57812 h 0.42187 q 0.96875,0 1.45313,-0.625 0.48437,-0.625 0.48437,-1.60937 0,-1.01563 -0.53125,-1.53125 -0.51562,-0.51563 -1.46875,-0.51563 z m -3.95312,-0.0625 v -0.78125 h 3.98437 q 1.53125,0 2.46875,0.35938 0.9375,0.35937 1.35938,1.01562 0.4375,0.64063 0.4375,1.51563 0,0.84375 -0.40625,1.54687 -0.40625,0.6875 -1.32813,1.10938 -0.92187,0.40625 -2.51562,0.40625 h -0.40625 q 0,0.625 0,1.32812 0.0156,0.6875 0.0312,1.42188 l 1.29687,0.125 v 0.79687 h -4.92187 v -0.79687 l 1.09375,-0.10938 q 0.0312,-0.89062 0.0312,-1.79687 0,-0.92188 0,-1.84375 v -0.53125 q 0,-0.92188 0,-1.82813 0,-0.92187 -0.0312,-1.8125 z m 15.92181,3.54688 v 1.10937 l -6.125,3.15625 -0.64062,-1.25 5.03125,-2.46875 -5.03125,-2.45312 0.64062,-1.25 z"
       fill-rule="nonzero"
       id="path25" />
    <path
       fill="#d9d9d9"
       d="m 411.20996,375.4777 78.86615,-21.94214 V 235.08913 l -78.86615,-21.94214 z"
       fill-rule="evenodd"
       id="path27" />
    <path
       stroke="#595959"
       stroke-width="1"
       stroke-linejoin="round"
       stroke-linecap="butt"
       d="m 411.20996,375.4777 78.86615,-21.94214 V 235.08913 l -78.86615,-21.94214 z"
       fill-rule="evenodd"
       id="path29" />
    <path
       fill="#000000"
       fill-opacity="0"
       d="m 278.51443,338.34048 h 70.70865 v 23.93701 h -70.70865 z"
       fill-rule="evenodd"
       id="path31" />
    <path
       fill="#202122"
       d="m 311.25674,347.214 v -0.75 h 3.17187 v 0.78125 l -1.09375,0.1875 -3.01562,8.6875 h -1.42188 l -3.15625,-8.78125 -0.84375,-0.0937 v -0.7813 h 4.71875 v 0.75 l -1.25,0.15625 2,6.03125 2.03125,-6 z m 2.61139,8.875 v -0.6875 l 0.8125,-0.15625 q 0.0156,-0.54688 0.0156,-1.15625 0,-0.625 0,-1.07813 v -0.85937 q 0,-0.42188 -0.0156,-0.67188 0,-0.26562 -0.0156,-0.48437 0,-0.23438 -0.0156,-0.53125 l -0.89063,-0.14063 v -0.5625 l 2.89063,-0.98437 0.25,0.15625 0.14062,1.73437 q 0.3125,-0.9375 0.85938,-1.40625 0.5625,-0.48437 1.10937,-0.48437 0.48438,0 0.82813,0.28125 0.35937,0.26562 0.4375,0.79687 -0.0156,0.57813 -0.3125,0.89063 -0.28125,0.3125 -0.71875,0.3125 -0.625,0 -1.14063,-0.6875 l -0.0781,-0.10938 q -0.32813,0.29688 -0.60938,0.76563 -0.26562,0.46875 -0.375,0.98437 v 1 q 0,0.45313 0,1.04688 0,0.57812 0.0156,1.09375 l 1.15625,0.25 v 0.6875 z m 6.98706,-4.1875 v -1.10938 l 6.125,-3.15625 0.625,1.25 -5.03125,2.45313 5.03125,2.46875 -0.625,1.25 z m 11.84805,-4.59375 h -0.32812 q -0.0156,0.90625 -0.0312,1.82812 0,0.92188 0,1.875 v 0.57813 h 0.42187 q 0.96875,0 1.45313,-0.625 0.48437,-0.625 0.48437,-1.60938 0,-1.01562 -0.53125,-1.53125 -0.51562,-0.51562 -1.46875,-0.51562 z m -3.95312,-0.0625 V 346.464 h 3.98437 q 1.53125,0 2.46875,0.35937 0.9375,0.35938 1.35938,1.01563 0.4375,0.64062 0.4375,1.51562 0,0.84375 -0.40625,1.54688 -0.40625,0.6875 -1.32813,1.10937 -0.92187,0.40625 -2.51562,0.40625 h -0.40625 q 0,0.625 0,1.32813 0.0156,0.6875 0.0312,1.42187 l 1.29687,0.125 v 0.79688 h -4.92187 v -0.79688 l 1.09375,-0.10937 q 0.0312,-0.89063 0.0312,-1.79688 0,-0.92187 0,-1.84375 v -0.53125 q 0,-0.92187 0,-1.82812 0,-0.92188 -0.0312,-1.8125 z m 15.92181,3.54687 v 1.10938 l -6.125,3.15625 -0.64062,-1.25 5.03125,-2.46875 -5.03125,-2.45313 0.64062,-1.25 z"
       fill-rule="nonzero"
       id="path33" />
    <path
       fill="#000000"
       fill-opacity="0"
       d="m 490.07874,266.6378 h 98.96063 v 14.86615 h -98.96063 z"
       fill-rule="evenodd"
       id="path35" />
    <path
       fill="#202122"
       d="m 498.7975,278.50705 q -0.78125,0 -1.51562,-0.29688 -0.71875,-0.3125 -1.3125,-0.89062 -0.57813,-0.59375 -0.92188,-1.45313 -0.34375,-0.875 -0.34375,-2.03125 0,-1.09375 0.34375,-1.95312 0.34375,-0.875 0.92188,-1.46875 0.59375,-0.59375 1.3125,-0.90625 0.73437,-0.3125 1.51562,-0.3125 0.76563,0 1.48438,0.29687 0.73437,0.29688 1.3125,0.89063 0.59375,0.57812 0.9375,1.45312 0.34375,0.85938 0.34375,2 0,1.09375 -0.34375,1.96875 -0.34375,0.85938 -0.92188,1.46875 -0.57812,0.60938 -1.3125,0.92188 -0.73437,0.3125 -1.5,0.3125 z m 0,-0.67188 q 0.6875,0 1.1875,-0.32812 0.5,-0.34375 0.8125,-0.90625 0.3125,-0.57813 0.45313,-1.28125 0.15625,-0.71875 0.15625,-1.48438 0,-0.75 -0.15625,-1.45312 -0.14063,-0.71875 -0.45313,-1.28125 -0.3125,-0.57813 -0.8125,-0.90625 -0.5,-0.34375 -1.1875,-0.34375 -0.6875,0 -1.1875,0.34375 -0.5,0.32812 -0.82812,0.90625 -0.3125,0.5625 -0.46875,1.28125 -0.15625,0.70312 -0.15625,1.45312 0,0.76563 0.15625,1.48438 0.15625,0.70312 0.46875,1.28125 0.32812,0.5625 0.82812,0.90625 0.5,0.32812 1.1875,0.32812 z m 5.17294,3.65625 v -0.46875 l 1.0625,-0.1875 q 0.0156,-0.54687 0.0156,-1.09375 0.0156,-0.53125 0.0156,-1.0625 v -3.8125 q 0,-0.54687 -0.0156,-0.90625 0,-0.35937 -0.0312,-0.76562 l -1.04688,-0.10938 v -0.46875 l 1.85938,-0.8125 0.20312,0.125 0.0781,0.875 q 0.95312,-1 2.01562,-1 0.71875,0 1.28125,0.40625 0.57813,0.39063 0.92188,1.14063 0.34375,0.73437 0.34375,1.76562 0,1.03125 -0.35938,1.78125 -0.35937,0.75 -0.98437,1.17188 -0.60938,0.40625 -1.40625,0.40625 -0.45313,0 -0.90625,-0.1875 -0.4375,-0.1875 -0.85938,-0.67188 v 1.04688 q 0,0.53125 0,1.0625 0.0156,0.54687 0.0156,1.09375 l 1.21875,0.20312 v 0.46875 z m 3.84375,-8.9375 q -0.3125,0 -0.71875,0.15625 -0.39062,0.15625 -0.90625,0.57813 v 3.75 q 0.375,0.35937 0.73438,0.51562 0.35937,0.15625 0.73437,0.15625 0.75,0 1.28125,-0.59375 0.53125,-0.59375 0.53125,-1.89062 0,-1.28125 -0.46875,-1.96875 -0.46875,-0.70313 -1.1875,-0.70313 z m 6.05881,5.92188 q -0.6875,0 -1.10937,-0.375 -0.40625,-0.375 -0.40625,-1.14063 0,-0.25 0,-0.5 0,-0.25 0,-0.64062 v -3.14063 h -1.09375 v -0.57812 l 1.1875,-0.15625 0.34375,-1.78125 h 0.79687 l -0.0781,1.8125 h 1.79687 v 0.70312 h -1.8125 v 4.125 q 0,0.51563 0.20313,0.75 0.20312,0.23438 0.53125,0.23438 0.21875,0 0.42187,-0.0937 0.21875,-0.0937 0.46875,-0.26563 l 0.32813,0.34375 q -0.54688,0.70313 -1.57813,0.70313 z m 2.36285,-4.25 v -0.625 l 5.15625,-3 0.39063,0.71875 -4.625,2.59375 4.625,2.59375 -0.39063,0.71875 z m 10.24909,-4.21875 h -0.8125 q 0,0.84375 -0.0156,1.73437 0,0.89063 0,1.78125 v 0.64063 h 0.875 q 1.21875,0 1.73438,-0.59375 0.51562,-0.59375 0.51562,-1.53125 0,-0.96875 -0.5625,-1.5 -0.54687,-0.53125 -1.73437,-0.53125 z m -3.34375,-0.0781 v -0.54687 h 3.57812 q 1.6875,0 2.53125,0.75 0.85938,0.73437 0.85938,1.90625 0,0.75 -0.375,1.375 -0.375,0.625 -1.20313,1 -0.8125,0.375 -2.1875,0.375 h -0.6875 q 0,0.71875 0,1.42187 0.0156,0.6875 0.0156,1.40625 l 1.25,0.14063 v 0.54687 h -3.78125 v -0.54687 l 1.21875,-0.14063 q 0.0312,-0.84375 0.0312,-1.70312 0,-0.875 0,-1.73438 v -0.65625 q 0,-0.875 0,-1.73437 0,-0.85938 -0.0312,-1.70313 z m 13.56903,3.67188 v 0.625 l -5.15625,3 -0.39063,-0.71875 4.625,-2.59375 -4.625,-2.59375 0.39063,-0.71875 z"
       fill-rule="nonzero"
       id="path37" />
    <path
       fill="#000000"
       fill-opacity="0"
       d="m 490.0798,286.191 h 51.1055"
       fill-rule="evenodd"
       id="path39" />
    <path
       stroke="#595959"
       stroke-width="2"
       stroke-linejoin="round"
       stroke-linecap="butt"
       d="m 490.0798,286.191 h 39.1055"
       fill-rule="evenodd"
       id="path41" />
    <path
       fill="#595959"
       stroke="#595959"
       stroke-width="2"
       stroke-linecap="butt"
       d="m 529.1853,289.49448 9.07623,-3.30347 -9.07623,-3.30346 z"
       fill-rule="evenodd"
       id="path43" />
    <path
       fill="#000000"
       fill-opacity="0"
       d="m 490.0798,280.2402 h 18.39801 v 11.90161 H 490.0798 Z"
       fill-rule="evenodd"
       id="path45" />
    <path
       fill="#000000"
       fill-opacity="0"
       d="m 522.7666,280.2402 h 18.39795 v 11.90161 H 522.7666 Z"
       fill-rule="evenodd"
       id="path47" />
    <path
       fill="#000000"
       fill-opacity="0"
       d="M 541.18463,316.0365 H 490.0791"
       fill-rule="evenodd"
       id="path49" />
    <path
       stroke="#1c4587"
       stroke-width="2"
       stroke-linejoin="round"
       stroke-linecap="butt"
       d="M 541.18463,316.0365 H 502.0791"
       fill-rule="evenodd"
       id="path51" />
    <path
       fill="#1c4587"
       stroke="#1c4587"
       stroke-width="2"
       stroke-linecap="butt"
       d="m 502.0791,312.73303 -9.0762,3.30347 9.0762,3.30346 z"
       fill-rule="evenodd"
       id="path53" />
    <path
       fill="#000000"
       fill-opacity="0"
       d="m 490.10092,310.0857 h 18.39798 v 11.90161 h -18.39798 z"
       fill-rule="evenodd"
       id="path55" />
    <path
       fill="#000000"
       fill-opacity="0"
       d="m 522.78735,310.0857 h 18.39795 v 11.90161 h -18.39795 z"
       fill-rule="evenodd"
       id="path57" />
    <path
       fill="#000000"
       fill-opacity="0"
       d="m 360.1008,237.13275 h 51.10553"
       fill-rule="evenodd"
       id="path59" />
    <path
       stroke="#595959"
       stroke-width="2"
       stroke-linejoin="round"
       stroke-linecap="butt"
       d="m 360.1008,237.13275 h 39.10553"
       fill-rule="evenodd"
       id="path61" />
    <path
       fill="#595959"
       stroke="#595959"
       stroke-width="2"
       stroke-linecap="butt"
       d="m 399.20633,240.43622 9.0762,-3.30347 -9.0762,-3.30346 z"
       fill-rule="evenodd"
       id="path63" />
    <path
       fill="#000000"
       fill-opacity="0"
       d="m 360.1008,231.18196 h 18.39801 v 11.9016 H 360.1008 Z"
       fill-rule="evenodd"
       id="path65" />
    <path
       fill="#000000"
       fill-opacity="0"
       d="m 392.78757,231.18196 h 18.39798 v 11.9016 h -18.39798 z"
       fill-rule="evenodd"
       id="path67" />
    <path
       fill="#000000"
       fill-opacity="0"
       d="M 411.20563,266.97824 H 360.1001"
       fill-rule="evenodd"
       id="path69" />
    <path
       stroke="#1c4587"
       stroke-width="2"
       stroke-linejoin="round"
       stroke-linecap="butt"
       d="M 411.20563,266.97824 H 372.1001"
       fill-rule="evenodd"
       id="path71" />
    <path
       fill="#1c4587"
       stroke="#1c4587"
       stroke-width="2"
       stroke-linecap="butt"
       d="m 372.1001,263.67477 -9.07617,3.30347 9.07617,3.30346 z"
       fill-rule="evenodd"
       id="path73" />
    <path
       fill="#000000"
       fill-opacity="0"
       d="m 360.12192,261.02744 h 18.39798 v 11.90161 h -18.39798 z"
       fill-rule="evenodd"
       id="path75" />
    <path
       fill="#000000"
       fill-opacity="0"
       d="m 392.80835,261.02744 h 18.39798 v 11.90161 h -18.39798 z"
       fill-rule="evenodd"
       id="path77" />
    <path
       fill="#000000"
       fill-opacity="0"
       d="m 490.07874,295.4567 h 104.31494 v 14.86615 H 490.07874 Z"
       fill-rule="evenodd"
       id="path79" />
    <path
       fill="#202122"
       d="m 496.20374,303.4197 q 0,1.0625 0.1875,2 0.1875,0.92187 0.64062,1.875 0.45313,0.95312 1.23438,2.07812 l -0.34375,0.3125 q -1.42188,-1.32812 -2.10938,-2.875 -0.67187,-1.5625 -0.67187,-3.39062 0,-1.82813 0.67187,-3.39063 0.6875,-1.5625 2.10938,-2.875 l 0.34375,0.3125 q -0.78125,1.125 -1.23438,2.07813 -0.45312,0.95312 -0.64062,1.89062 -0.1875,0.92188 -0.1875,1.98438 z"
       fill-rule="nonzero"
       id="path81" />
    <path
       fill="#202122"
       d="m 504.89383,302.43533 q 0.8125,0.21875 1.32812,0.84375 0.53125,0.60938 0.53125,1.45313 0,1.15625 -1.04687,1.78125 -1.03125,0.60937 -2.5625,0.60937 h -3.96875 q -0.23438,0 -0.23438,-0.25 0,-0.25 0.4375,-0.25 0.46875,0 0.625,-0.125 0.17188,-0.14062 0.17188,-0.59375 v -6.3125 q 0,-0.5 -0.20313,-0.60937 -0.20312,-0.10938 -0.79687,-0.10938 -0.23438,0 -0.23438,-0.25 0,-0.25 0.23438,-0.25 h 3.96875 q 3.10937,0 3.10937,2.25 0,1.10938 -1.35937,1.8125 z m 0.89062,-1.8125 q 0,-1.48437 -1.70312,-1.70312 0.54687,0.625 0.54687,1.70312 0,1.21875 -0.6875,1.75 1.84375,-0.875 1.84375,-1.75 z m -1.64062,0 q 0,-0.76562 -0.32813,-1.25 -0.32812,-0.5 -0.92187,-0.5 -0.28125,0 -0.5,0.14063 -0.20313,0.125 -0.20313,0.34375 v 3 q 0.96875,0 1.45313,-0.375 0.5,-0.375 0.5,-1.35938 z m 2.125,4.10938 q 0,-0.8125 -0.51563,-1.25 -0.51562,-0.4375 -1.42187,-0.70313 0.6875,0.53125 0.6875,1.95313 0,1.09375 -0.54688,1.75 1.79688,-0.45313 1.79688,-1.75 z m -4.07813,1.42187 q 0,0.21875 0.20313,0.34375 0.21875,0.125 0.5,0.125 1.64062,0 1.64062,-1.89062 0,-0.98438 -0.375,-1.4375 -0.35937,-0.45313 -1.26562,-0.45313 h -0.70313 z m -0.34375,-7.28125 h -1.3125 q 0.125,0.25 0.125,0.71875 v 6.3125 q 0,0.46875 -0.125,0.71875 h 1.3125 q -0.14062,-0.21875 -0.14062,-0.46875 v -6.79687 q 0,-0.26563 0.14062,-0.48438 z"
       fill-rule="nonzero"
       id="path83" />
    <path
       fill="#202122"
       d="m 509.984,306.7322 q 0,0.79687 -0.39063,1.46875 -0.375,0.6875 -0.96875,1.17187 -0.57812,0.5 -1.21875,0.73438 l -0.1875,-0.45313 q 0.6875,-0.34375 1.20313,-0.84375 0.51562,-0.48437 0.76562,-1.23437 l -0.5,-0.39063 q -0.26562,-0.20312 -0.39062,-0.45312 -0.10938,-0.25 -0.10938,-0.5 0,-0.34375 0.20313,-0.59375 0.20312,-0.25 0.60937,-0.25 0.1875,0 0.375,0.0781 0.20313,0.0781 0.45313,0.3125 0.0781,0.25 0.10937,0.48438 0.0469,0.23437 0.0469,0.46875 z m 5.63513,-1.71875 v -3.1875 q 0,-1.0625 -0.0156,-2.125 0,-1.0625 -0.0312,-2.10938 h 2.54687 v 0.54688 l -1.5,0.17187 q -0.0156,0.85938 -0.0312,1.75 0,0.875 0,1.76563 v 3.1875 q 0,0.875 0,1.76562 0.0156,0.875 0.0312,1.75 l 1.5,0.17188 v 0.54687 h -2.54687 q 0.0312,-1.03125 0.0312,-2.10937 0.0156,-1.0625 0.0156,-2.125 z m 3.29621,2.10937 v -0.48437 l 1,-0.17188 q 0,-0.5 0,-1.09375 0.0156,-0.59375 0.0156,-1.04687 v -5.85938 l -1.09375,-0.125 v -0.46875 l 2.04688,-0.59375 0.1875,0.0937 -0.0625,1.90625 v 2.35938 q 0.48437,-0.53125 1,-0.76563 0.51562,-0.25 1.0625,-0.25 0.70312,0 1.26562,0.39063 0.57813,0.375 0.92188,1.10937 0.34375,0.73438 0.34375,1.78125 0,1.01563 -0.35938,1.78125 -0.35937,0.76563 -0.98437,1.1875 -0.625,0.42188 -1.40625,0.42188 -0.46875,0 -0.9375,-0.20313 -0.45313,-0.20312 -0.90625,-0.73437 l -0.0937,0.90625 z m 3.79687,-5.75 q -0.3125,0 -0.71875,0.17188 -0.39062,0.15625 -0.9375,0.60937 v 3.65625 q 0.40625,0.375 0.8125,0.54688 0.40625,0.17187 0.76563,0.17187 0.71875,0 1.23437,-0.60937 0.53125,-0.625 0.53125,-1.92188 0,-1.26562 -0.48437,-1.9375 -0.46875,-0.6875 -1.20313,-0.6875 z m 7.14343,5.92188 q -0.78125,0 -1.48437,-0.35938 -0.6875,-0.375 -1.14063,-1.10937 -0.4375,-0.75 -0.4375,-1.82813 0,-1.10937 0.4375,-1.85937 0.45313,-0.76563 1.14063,-1.14063 0.70312,-0.375 1.48437,-0.375 0.76563,0 1.46875,0.375 0.70313,0.375 1.14063,1.14063 0.45312,0.75 0.45312,1.85937 0,1.07813 -0.45312,1.82813 -0.4375,0.73437 -1.14063,1.10937 -0.70312,0.35938 -1.46875,0.35938 z m 0,-0.59375 q 0.85938,0 1.32813,-0.6875 0.46875,-0.6875 0.46875,-2.01563 0,-1.35937 -0.46875,-2.0625 -0.46875,-0.70312 -1.32813,-0.70312 -0.875,0 -1.34375,0.70312 -0.45312,0.70313 -0.45312,2.0625 0,1.32813 0.45312,2.01563 0.46875,0.6875 1.34375,0.6875 z m 7.31708,0.59375 q -0.78125,0 -1.48437,-0.35938 -0.6875,-0.375 -1.14063,-1.10937 -0.4375,-0.75 -0.4375,-1.82813 0,-1.10937 0.4375,-1.85937 0.45313,-0.76563 1.14063,-1.14063 0.70312,-0.375 1.48437,-0.375 0.76563,0 1.46875,0.375 0.70313,0.375 1.14063,1.14063 0.45312,0.75 0.45312,1.85937 0,1.07813 -0.45312,1.82813 -0.4375,0.73437 -1.14063,1.10937 -0.70312,0.35938 -1.46875,0.35938 z m 0,-0.59375 q 0.85938,0 1.32813,-0.6875 0.46875,-0.6875 0.46875,-2.01563 0,-1.35937 -0.46875,-2.0625 -0.46875,-0.70312 -1.32813,-0.70312 -0.875,0 -1.34375,0.70312 -0.45312,0.70313 -0.45312,2.0625 0,1.32813 0.45312,2.01563 0.46875,0.6875 1.34375,0.6875 z m 3.85565,0.42187 v -0.48437 l 1.07813,-0.1875 q 0,-0.54688 0,-1.0625 0.0156,-0.53125 0.0156,-1.0625 v -5.85938 l -1.09375,-0.125 v -0.46875 l 2.07813,-0.59375 0.1875,0.0937 -0.0469,1.90625 v 5.04688 q 0,0.53125 0,1.0625 0.0156,0.53125 0.0312,1.0625 l 1.0625,0.1875 v 0.48437 z m 5.64368,-4.67187 q -0.40625,0 -0.6875,-0.28125 -0.26563,-0.28125 -0.26563,-0.65625 0,-0.40625 0.26563,-0.6875 0.28125,-0.28125 0.6875,-0.28125 0.40625,0 0.67187,0.28125 0.28125,0.28125 0.28125,0.6875 0,0.375 -0.28125,0.65625 -0.26562,0.28125 -0.67187,0.28125 z m 0.84375,4.28125 q 0,0.79687 -0.39063,1.46875 -0.375,0.6875 -0.96875,1.17187 -0.57812,0.5 -1.21875,0.73438 l -0.1875,-0.45313 q 0.6875,-0.34375 1.20313,-0.84375 0.51562,-0.48437 0.76562,-1.23437 l -0.5,-0.39063 q -0.26562,-0.20312 -0.39062,-0.45312 -0.10938,-0.25 -0.10938,-0.5 0,-0.34375 0.20313,-0.59375 0.20312,-0.25 0.60937,-0.25 0.1875,0 0.375,0.0781 0.20313,0.0781 0.45313,0.3125 0.0781,0.25 0.10937,0.48438 0.0469,0.23437 0.0469,0.46875 z m 10.30701,-7.98438 v -0.54687 h 3.21875 v 0.54687 l -1.14063,0.17188 v 8.29687 h -0.46875 l -5.32812,-7.26562 v 6.4375 l 1.42187,0.1875 v 0.54687 h -3.23437 v -0.54687 l 1.14062,-0.15625 v -7.40625 l -0.125,-0.15625 -0.9375,-0.10938 v -0.54687 h 2.04688 l 4.8125,6.60937 v -5.89062 z m 6.63989,3.07813 v 3.1875 q 0,1.0625 0,2.10937 0.0156,1.0625 0.0469,2.125 h -2.54687 v -0.54687 l 1.5,-0.17188 q 0.0312,-0.875 0.0312,-1.75 0,-0.875 0,-1.76562 v -3.1875 q 0,-0.875 0,-1.75 0,-0.89063 -0.0312,-1.76563 l -1.5,-0.17187 v -0.54688 h 2.54687 q -0.0312,1.03125 -0.0469,2.09375 0,1.0625 0,2.14063 z m 3.08496,1.59375 q 0,-1.0625 -0.1875,-1.98438 -0.1875,-0.9375 -0.64062,-1.89062 -0.4375,-0.95313 -1.23438,-2.07813 l 0.35938,-0.3125 q 1.40625,1.3125 2.07812,2.875 0.6875,1.5625 0.6875,3.39063 0,1.82812 -0.6875,3.39062 -0.67187,1.54688 -2.07812,2.875 l -0.35938,-0.3125 q 0.79688,-1.125 1.23438,-2.07812 0.45312,-0.95313 0.64062,-1.875 0.1875,-0.9375 0.1875,-2 z"
       fill-rule="nonzero"
       id="path85" />
    <path
       fill="#000000"
       fill-opacity="0"
       d="m 349.22308,217.58025 h 61.98425 v 14.86615 h -61.98425 z"
       fill-rule="evenodd"
       id="path87" />
    <path
       fill="#202122"
       d="m 368.52994,229.44951 q -0.78125,0 -1.51563,-0.29688 -0.71875,-0.3125 -1.3125,-0.89062 -0.57812,-0.59375 -0.92187,-1.45313 -0.34375,-0.875 -0.34375,-2.03125 0,-1.09375 0.34375,-1.95312 0.34375,-0.875 0.92187,-1.46875 0.59375,-0.59375 1.3125,-0.90625 0.73438,-0.3125 1.51563,-0.3125 0.76562,0 1.48437,0.29687 0.73438,0.29688 1.3125,0.89063 0.59375,0.57812 0.9375,1.45312 0.34375,0.85938 0.34375,2 0,1.09375 -0.34375,1.96875 -0.34375,0.85938 -0.92187,1.46875 -0.57813,0.60938 -1.3125,0.92188 -0.73438,0.3125 -1.5,0.3125 z m 0,-0.67188 q 0.6875,0 1.1875,-0.32812 0.5,-0.34375 0.8125,-0.90625 0.3125,-0.57813 0.45312,-1.28125 0.15625,-0.71875 0.15625,-1.48438 0,-0.75 -0.15625,-1.45312 -0.14062,-0.71875 -0.45312,-1.28125 -0.3125,-0.57813 -0.8125,-0.90625 -0.5,-0.34375 -1.1875,-0.34375 -0.6875,0 -1.1875,0.34375 -0.5,0.32812 -0.82813,0.90625 -0.3125,0.5625 -0.46875,1.28125 -0.15625,0.70312 -0.15625,1.45312 0,0.76563 0.15625,1.48438 0.15625,0.70312 0.46875,1.28125 0.32813,0.5625 0.82813,0.90625 0.5,0.32812 1.1875,0.32812 z m 5.17294,3.65625 v -0.46875 l 1.0625,-0.1875 q 0.0156,-0.54687 0.0156,-1.09375 0.0156,-0.53125 0.0156,-1.0625 v -3.8125 q 0,-0.54687 -0.0156,-0.90625 0,-0.35937 -0.0312,-0.76562 l -1.04688,-0.10938 v -0.46875 l 1.85938,-0.8125 0.20312,0.125 0.0781,0.875 q 0.95312,-1 2.01562,-1 0.71875,0 1.28125,0.40625 0.57813,0.39063 0.92188,1.14063 0.34375,0.73437 0.34375,1.76562 0,1.03125 -0.35938,1.78125 -0.35937,0.75 -0.98437,1.17188 -0.60938,0.40625 -1.40625,0.40625 -0.45313,0 -0.90625,-0.1875 -0.4375,-0.1875 -0.85938,-0.67188 v 1.04688 q 0,0.53125 0,1.0625 0.0156,0.54687 0.0156,1.09375 l 1.21875,0.20312 v 0.46875 z m 3.84375,-8.9375 q -0.3125,0 -0.71875,0.15625 -0.39062,0.15625 -0.90625,0.57813 v 3.75 q 0.375,0.35937 0.73438,0.51562 0.35937,0.15625 0.73437,0.15625 0.75,0 1.28125,-0.59375 0.53125,-0.59375 0.53125,-1.89062 0,-1.28125 -0.46875,-1.96875 -0.46875,-0.70313 -1.1875,-0.70313 z m 6.05881,5.92188 q -0.6875,0 -1.10937,-0.375 -0.40625,-0.375 -0.40625,-1.14063 0,-0.25 0,-0.5 0,-0.25 0,-0.64062 v -3.14063 h -1.09375 v -0.57812 l 1.1875,-0.15625 0.34375,-1.78125 h 0.79687 l -0.0781,1.8125 h 1.79687 v 0.70312 h -1.8125 v 4.125 q 0,0.51563 0.20313,0.75 0.20312,0.23438 0.53125,0.23438 0.21875,0 0.42187,-0.0937 0.21875,-0.0937 0.46875,-0.26563 l 0.32813,0.34375 q -0.54688,0.70313 -1.57813,0.70313 z m 2.36288,-4.25 v -0.625 l 5.15625,-3 0.39063,0.71875 -4.625,2.59375 4.625,2.59375 -0.39063,0.71875 z m 10.24909,-4.21875 h -0.8125 q 0,0.84375 -0.0156,1.73437 0,0.89063 0,1.78125 v 0.64063 h 0.875 q 1.21875,0 1.73438,-0.59375 0.51562,-0.59375 0.51562,-1.53125 0,-0.96875 -0.5625,-1.5 -0.54687,-0.53125 -1.73437,-0.53125 z m -3.34375,-0.0781 v -0.54687 h 3.57812 q 1.6875,0 2.53125,0.75 0.85938,0.73437 0.85938,1.90625 0,0.75 -0.375,1.375 -0.375,0.625 -1.20313,1 -0.8125,0.375 -2.1875,0.375 h -0.6875 q 0,0.71875 0,1.42187 0.0156,0.6875 0.0156,1.40625 l 1.25,0.14063 v 0.54687 h -3.78125 v -0.54687 l 1.21875,-0.14063 q 0.0312,-0.84375 0.0312,-1.70312 0,-0.875 0,-1.73438 v -0.65625 q 0,-0.875 0,-1.73437 0,-0.85938 -0.0312,-1.70313 z m 13.56897,3.67188 v 0.625 l -5.15625,3 -0.39063,-0.71875 4.625,-2.59375 -4.625,-2.59375 0.39063,-0.71875 z"
       fill-rule="nonzero"
       id="path89" />
    <path
       fill="#000000"
       fill-opacity="0"
       d="m 349.22308,246.39835 h 61.98425 v 14.86615 h -61.98425 z"
       fill-rule="evenodd"
       id="path91" />
    <path
       fill="#202122"
       d="m 404.96094,253.377 q 0.8125,0.21875 1.32812,0.84375 0.53125,0.60937 0.53125,1.45312 0,1.15624 -1.04687,1.78124 -1.03125,0.60937 -2.5625,0.60937 h -3.96875 q -0.23438,0 -0.23438,-0.25 0,-0.25 0.4375,-0.25 0.46875,0 0.625,-0.125 0.17188,-0.14062 0.17188,-0.59375 v -6.31248 q 0,-0.5 -0.20313,-0.60937 -0.20312,-0.10938 -0.79687,-0.10938 -0.23438,0 -0.23438,-0.25 0,-0.25 0.23438,-0.25 h 3.96875 q 3.10937,0 3.10937,2.25 0,1.10938 -1.35937,1.8125 z m 0.89062,-1.8125 q 0,-1.48438 -1.70312,-1.70313 0.54687,0.625 0.54687,1.70313 0,1.21875 -0.6875,1.75 1.84375,-0.875 1.84375,-1.75 z m -1.64062,0 q 0,-0.76563 -0.32813,-1.25 -0.32812,-0.5 -0.92187,-0.5 -0.28125,0 -0.5,0.14062 -0.20313,0.125 -0.20313,0.34375 v 3 q 0.96875,0 1.45313,-0.375 0.5,-0.375 0.5,-1.35937 z m 2.125,4.10937 q 0,-0.8125 -0.51563,-1.25 -0.51562,-0.4375 -1.42187,-0.70312 0.6875,0.53125 0.6875,1.95312 0,1.09374 -0.54688,1.74999 1.79688,-0.45313 1.79688,-1.74999 z m -4.07813,1.42186 q 0,0.21875 0.20313,0.34375 0.21875,0.125 0.5,0.125 1.64062,0 1.64062,-1.8906 0,-0.98438 -0.375,-1.4375 -0.35937,-0.45313 -1.26562,-0.45313 h -0.70313 z m -0.34375,-7.28123 h -1.3125 q 0.125,0.25 0.125,0.71875 v 6.31248 q 0,0.46875 -0.125,0.71875 h 1.3125 q -0.14062,-0.21875 -0.14062,-0.46875 v -6.79685 q 0,-0.26563 0.14062,-0.48438 z"
       fill-rule="nonzero"
       id="path93" />
    <path
       fill="#000000"
       fill-opacity="0"
       d="m 360.1008,335.24823 h 51.10553"
       fill-rule="evenodd"
       id="path95" />
    <path
       stroke="#595959"
       stroke-width="2"
       stroke-linejoin="round"
       stroke-linecap="butt"
       d="m 360.1008,335.24823 h 39.10553"
       fill-rule="evenodd"
       id="path97" />
    <path
       fill="#595959"
       stroke="#595959"
       stroke-width="2"
       stroke-linecap="butt"
       d="m 399.20633,338.5517 9.0762,-3.30347 -9.0762,-3.30346 z"
       fill-rule="evenodd"
       id="path99" />
    <path
       fill="#000000"
       fill-opacity="0"
       d="m 360.1008,329.29745 h 18.39801 v 11.90158 H 360.1008 Z"
       fill-rule="evenodd"
       id="path101" />
    <path
       fill="#000000"
       fill-opacity="0"
       d="m 392.78757,329.29745 h 18.39798 v 11.90158 h -18.39798 z"
       fill-rule="evenodd"
       id="path103" />
    <path
       fill="#000000"
       fill-opacity="0"
       d="M 411.20563,365.09372 H 360.1001"
       fill-rule="evenodd"
       id="path105" />
    <path
       stroke="#1c4587"
       stroke-width="2"
       stroke-linejoin="round"
       stroke-linecap="butt"
       d="M 411.20563,365.09375 H 372.1001"
       fill-rule="evenodd"
       id="path107" />
    <path
       fill="#1c4587"
       stroke="#1c4587"
       stroke-width="2"
       stroke-linecap="butt"
       d="m 372.1001,361.79028 -9.07617,3.30347 9.07617,3.30346 z"
       fill-rule="evenodd"
       id="path109" />
    <path
       fill="#000000"
       fill-opacity="0"
       d="m 360.12192,359.14294 h 18.39798 v 11.90158 h -18.39798 z"
       fill-rule="evenodd"
       id="path111" />
    <path
       fill="#000000"
       fill-opacity="0"
       d="m 392.80835,359.14294 h 18.39798 v 11.90158 h -18.39798 z"
       fill-rule="evenodd"
       id="path113" />
    <path
       fill="#000000"
       fill-opacity="0"
       d="m 349.22308,315.69574 h 61.98425 v 14.86612 h -61.98425 z"
       fill-rule="evenodd"
       id="path115" />
    <path
       fill="#202122"
       d="m 368.52994,327.565 q -0.78125,0 -1.51563,-0.29688 -0.71875,-0.3125 -1.3125,-0.89062 -0.57812,-0.59375 -0.92187,-1.45313 -0.34375,-0.875 -0.34375,-2.03125 0,-1.09375 0.34375,-1.95312 0.34375,-0.875 0.92187,-1.46875 0.59375,-0.59375 1.3125,-0.90625 0.73438,-0.3125 1.51563,-0.3125 0.76562,0 1.48437,0.29687 0.73438,0.29688 1.3125,0.89063 0.59375,0.57812 0.9375,1.45312 0.34375,0.85938 0.34375,2 0,1.09375 -0.34375,1.96875 -0.34375,0.85938 -0.92187,1.46875 -0.57813,0.60938 -1.3125,0.92188 -0.73438,0.3125 -1.5,0.3125 z m 0,-0.67188 q 0.6875,0 1.1875,-0.32812 0.5,-0.34375 0.8125,-0.90625 0.3125,-0.57813 0.45312,-1.28125 0.15625,-0.71875 0.15625,-1.48438 0,-0.75 -0.15625,-1.45312 -0.14062,-0.71875 -0.45312,-1.28125 -0.3125,-0.57813 -0.8125,-0.90625 -0.5,-0.34375 -1.1875,-0.34375 -0.6875,0 -1.1875,0.34375 -0.5,0.32812 -0.82813,0.90625 -0.3125,0.5625 -0.46875,1.28125 -0.15625,0.70312 -0.15625,1.45312 0,0.76563 0.15625,1.48438 0.15625,0.70312 0.46875,1.28125 0.32813,0.5625 0.82813,0.90625 0.5,0.32812 1.1875,0.32812 z m 5.17294,3.65625 v -0.46875 l 1.0625,-0.1875 q 0.0156,-0.54687 0.0156,-1.09375 0.0156,-0.53125 0.0156,-1.0625 v -3.8125 q 0,-0.54687 -0.0156,-0.90625 0,-0.35937 -0.0312,-0.76562 l -1.04688,-0.10938 v -0.46875 l 1.85938,-0.8125 0.20312,0.125 0.0781,0.875 q 0.95312,-1 2.01562,-1 0.71875,0 1.28125,0.40625 0.57813,0.39063 0.92188,1.14063 0.34375,0.73437 0.34375,1.76562 0,1.03125 -0.35938,1.78125 -0.35937,0.75 -0.98437,1.17188 -0.60938,0.40625 -1.40625,0.40625 -0.45313,0 -0.90625,-0.1875 -0.4375,-0.1875 -0.85938,-0.67188 v 1.04688 q 0,0.53125 0,1.0625 0.0156,0.54687 0.0156,1.09375 l 1.21875,0.20312 v 0.46875 z m 3.84375,-8.9375 q -0.3125,0 -0.71875,0.15625 -0.39062,0.15625 -0.90625,0.57813 v 3.75 q 0.375,0.35937 0.73438,0.51562 0.35937,0.15625 0.73437,0.15625 0.75,0 1.28125,-0.59375 0.53125,-0.59375 0.53125,-1.89062 0,-1.28125 -0.46875,-1.96875 -0.46875,-0.70313 -1.1875,-0.70313 z m 6.05881,5.92188 q -0.6875,0 -1.10937,-0.375 -0.40625,-0.375 -0.40625,-1.14063 0,-0.25 0,-0.5 0,-0.25 0,-0.64062 v -3.14063 h -1.09375 v -0.57812 l 1.1875,-0.15625 0.34375,-1.78125 h 0.79687 l -0.0781,1.8125 h 1.79687 v 0.70312 h -1.8125 v 4.125 q 0,0.51563 0.20313,0.75 0.20312,0.23438 0.53125,0.23438 0.21875,0 0.42187,-0.0937 0.21875,-0.0937 0.46875,-0.26563 l 0.32813,0.34375 q -0.54688,0.70313 -1.57813,0.70313 z m 2.36288,-4.25 v -0.625 l 5.15625,-3 0.39063,0.71875 -4.625,2.59375 4.625,2.59375 -0.39063,0.71875 z m 10.24909,-4.21875 h -0.8125 q 0,0.84375 -0.0156,1.73437 0,0.89063 0,1.78125 v 0.64063 h 0.875 q 1.21875,0 1.73438,-0.59375 0.51562,-0.59375 0.51562,-1.53125 0,-0.96875 -0.5625,-1.5 -0.54687,-0.53125 -1.73437,-0.53125 z m -3.34375,-0.0781 V 318.44 h 3.57812 q 1.6875,0 2.53125,0.75 0.85938,0.73437 0.85938,1.90625 0,0.75 -0.375,1.375 -0.375,0.625 -1.20313,1 -0.8125,0.375 -2.1875,0.375 h -0.6875 q 0,0.71875 0,1.42187 0.0156,0.6875 0.0156,1.40625 l 1.25,0.14063 v 0.54687 h -3.78125 V 326.815 l 1.21875,-0.14063 q 0.0312,-0.84375 0.0312,-1.70312 0,-0.875 0,-1.73438 v -0.65625 q 0,-0.875 0,-1.73437 0,-0.85938 -0.0312,-1.70313 z m 13.56897,3.67188 v 0.625 l -5.15625,3 -0.39063,-0.71875 4.625,-2.59375 -4.625,-2.59375 0.39063,-0.71875 z"
       fill-rule="nonzero"
       id="path117" />
    <path
       fill="#000000"
       fill-opacity="0"
       d="m 349.22308,344.51382 h 61.98425 v 14.86615 h -61.98425 z"
       fill-rule="evenodd"
       id="path119" />
    <path
       fill="#202122"
       d="m 404.96094,351.4925 q 0.8125,0.21875 1.32812,0.84375 0.53125,0.60937 0.53125,1.45312 0,1.15625 -1.04687,1.78125 -1.03125,0.60938 -2.5625,0.60938 h -3.96875 q -0.23438,0 -0.23438,-0.25 0,-0.25 0.4375,-0.25 0.46875,0 0.625,-0.125 0.17188,-0.14063 0.17188,-0.59375 v -6.3125 q 0,-0.5 -0.20313,-0.60938 -0.20312,-0.10937 -0.79687,-0.10937 -0.23438,0 -0.23438,-0.25 0,-0.25 0.23438,-0.25 h 3.96875 q 3.10937,0 3.10937,2.25 0,1.10937 -1.35937,1.8125 z m 0.89062,-1.8125 q 0,-1.48438 -1.70312,-1.70313 0.54687,0.625 0.54687,1.70313 0,1.21875 -0.6875,1.75 1.84375,-0.875 1.84375,-1.75 z m -1.64062,0 q 0,-0.76563 -0.32813,-1.25 -0.32812,-0.5 -0.92187,-0.5 -0.28125,0 -0.5,0.14062 -0.20313,0.125 -0.20313,0.34375 v 3 q 0.96875,0 1.45313,-0.375 0.5,-0.375 0.5,-1.35937 z m 2.125,4.10937 q 0,-0.8125 -0.51563,-1.25 -0.51562,-0.4375 -1.42187,-0.70312 0.6875,0.53125 0.6875,1.95312 0,1.09375 -0.54688,1.75 1.79688,-0.45312 1.79688,-1.75 z m -4.07813,1.42188 q 0,0.21875 0.20313,0.34375 0.21875,0.125 0.5,0.125 1.64062,0 1.64062,-1.89063 0,-0.98437 -0.375,-1.4375 -0.35937,-0.45312 -1.26562,-0.45312 h -0.70313 z M 401.91406,347.93 h -1.3125 q 0.125,0.25 0.125,0.71875 v 6.3125 q 0,0.46875 -0.125,0.71875 h 1.3125 q -0.14062,-0.21875 -0.14062,-0.46875 v -6.79688 q 0,-0.26562 0.14062,-0.48437 z"
       fill-rule="nonzero"
       id="path121" />
    <path
       fill="#000000"
       fill-opacity="0"
       d="m 411.18555,237.13275 c 19.72363,0 29.58505,12.26771 39.44723,24.53543 9.86222,12.26773 19.72522,24.53543 39.45041,24.53543"
       fill-rule="evenodd"
       id="path123" />
    <path
       stroke="#595959"
       stroke-width="1"
       stroke-linejoin="round"
       stroke-linecap="butt"
       d="m 411.18558,237.13275 c 19.72357,0 29.58502,12.26771 39.4472,24.53543 4.93113,6.13385 9.86243,12.26773 16.02659,16.8681 3.08209,2.3002 6.47241,4.21704 10.32501,5.55881 1.9263,0.6709 3.96817,1.19803 6.14489,1.55743 0.2721,0.0449 0.5463,0.0873 0.82264,0.1269 l 0.14492,0.02"
       fill-rule="evenodd"
       id="path125" />
    <path
       fill="#595959"
       stroke="#595959"
       stroke-width="1"
       stroke-linecap="butt"
       d="m 483.98557,287.4474 4.63907,-1.34225 -4.41651,-1.95371 z"
       fill-rule="evenodd"
       id="path127" />
    <path
       fill="#000000"
       fill-opacity="0"
       d="m 411.1822,335.26187 c 19.7244,0 29.58661,-12.2677 39.44882,-24.53543 9.86219,-12.2677 19.7244,-24.53543 39.44879,-24.53543"
       fill-rule="evenodd"
       id="path129" />
    <path
       stroke="#595959"
       stroke-width="1"
       stroke-linejoin="round"
       stroke-linecap="butt"
       d="m 411.18216,335.26187 c 19.72443,0 29.58661,-12.2677 39.44882,-24.53543 4.93112,-6.13385 9.86222,-12.26773 16.0261,-16.8681 3.08193,-2.3002 6.47207,-4.21704 10.32446,-5.55881 1.92624,-0.6709 3.96802,-1.19803 6.14465,-1.55743 0.27207,-0.0449 0.54627,-0.0872 0.8226,-0.1269 l 0.14463,-0.02"
       fill-rule="evenodd"
       id="path131" />
    <path
       fill="#595959"
       stroke="#595959"
       stroke-width="1"
       stroke-linecap="butt"
       d="m 484.2047,288.24323 4.4165,-1.95374 -4.63906,-1.34222 z"
       fill-rule="evenodd"
       id="path133" />
    <path
       fill="#000000"
       fill-opacity="0"
       d="m 490.10092,316.0365 c -19.72363,0 -29.58505,-12.2677 -39.44724,-24.53543 -9.86221,-12.26773 -19.72521,-24.53543 -39.4504,-24.53543"
       fill-rule="evenodd"
       id="path135" />
    <path
       stroke="#1c4587"
       stroke-width="1"
       stroke-linejoin="round"
       stroke-linecap="butt"
       d="m 490.10092,316.0365 c -19.72363,0 -29.58505,-12.26773 -39.44727,-24.53543 -4.93109,-6.13385 -9.86239,-12.26773 -16.02655,-16.8681 -3.08206,-2.3002 -6.47241,-4.21704 -10.32501,-5.55881 -1.9263,-0.6709 -3.9682,-1.19803 -6.1449,-1.55743 -0.27206,-0.0449 -0.54626,-0.0872 -0.82263,-0.1269 l -0.14489,-0.02"
       fill-rule="evenodd"
       id="path137" />
    <path
       fill="#1c4587"
       stroke="#1c4587"
       stroke-width="1"
       stroke-linecap="butt"
       d="m 417.30093,265.72186 -4.63907,1.34225 4.41651,1.95371 z"
       fill-rule="evenodd"
       id="path139" />
    <path
       fill="#000000"
       fill-opacity="0"
       d="m 490.10092,316.0365 c -19.72363,0 -29.58505,12.26773 -39.44724,24.53543 -9.86221,12.26773 -19.72521,24.53543 -39.4504,24.53543"
       fill-rule="evenodd"
       id="path141" />
    <path
       stroke="#1c4587"
       stroke-width="1"
       stroke-linejoin="round"
       stroke-linecap="butt"
       d="m 490.10092,316.0365 c -19.72363,0 -29.58505,12.26773 -39.44727,24.53543 -4.93109,6.13385 -9.86239,12.26773 -16.02655,16.8681 -3.08206,2.3002 -6.47241,4.21704 -10.32501,5.55881 -1.9263,0.6709 -3.9682,1.198 -6.1449,1.55743 -0.27206,0.045 -0.54626,0.0872 -0.82263,0.1269 l -0.14489,0.02"
       fill-rule="evenodd"
       id="path143" />
    <path
       fill="#1c4587"
       stroke="#1c4587"
       stroke-width="1"
       stroke-linecap="butt"
       d="m 417.07837,363.05518 -4.4165,1.9537 4.63906,1.34226 z"
       fill-rule="evenodd"
       id="path145" />
    <path
       fill="#000000"
       fill-opacity="0"
       d="m 286.23178,286.1603 h 70.70865 v 23.93698 h -70.70865 z"
       fill-rule="evenodd"
       id="path147" />
    <path
       fill="#202122"
       d="m 326.883,305.3288 v -2.75 h 2.75 v 2.75 z m -6.65625,0 v -2.75 h 2.73437 v 2.75 z m -6.67188,0 v -2.75 h 2.73438 v 2.75 z"
       fill-rule="nonzero"
       id="path149" />
    <path
       fill="#000000"
       fill-opacity="0"
       d="m 411.18555,237.13275 c 12.51041,0 25.01291,31.99213 25.02078,63.98425 0.008,31.99213 -12.47888,63.98426 -24.95779,63.98426"
       fill-rule="evenodd"
       id="path151" />
    <path
       stroke="#595959"
       stroke-width="1"
       stroke-linejoin="round"
       stroke-linecap="butt"
       d="m 411.18558,237.13275 c 12.51038,0 25.01288,31.99213 25.02075,63.98425 0.004,15.99607 -3.11578,31.99213 -7.79635,43.98917 -2.34031,5.99853 -5.07077,10.99728 -7.99613,14.49643 -0.73135,0.87481 -1.47488,1.65585 -2.22751,2.33536 -0.37631,0.33975 -0.75491,0.65414 -1.1354,0.94216 l -0.17804,0.13147"
       fill-rule="evenodd"
       id="path153" />
    <path
       fill="#595959"
       stroke="#595959"
       stroke-width="1"
       stroke-linecap="butt"
       d="m 416.29767,361.4633 -3.67874,3.12881 4.82925,-0.0322 z"
       fill-rule="evenodd"
       id="path155" />
  </g>
</svg>
