<?xml version="1.0" encoding="UTF-8" standalone="no"?>
<svg
   xmlns:dc="http://purl.org/dc/elements/1.1/"
   xmlns:cc="http://creativecommons.org/ns#"
   xmlns:rdf="http://www.w3.org/1999/02/22-rdf-syntax-ns#"
   xmlns:svg="http://www.w3.org/2000/svg"
   xmlns="http://www.w3.org/2000/svg"
   xmlns:sodipodi="http://sodipodi.sourceforge.net/DTD/sodipodi-0.dtd"
   xmlns:inkscape="http://www.inkscape.org/namespaces/inkscape"
   version="1.1"
   viewBox="0 0 262.82675 98.322815"
   stroke-miterlimit="10"
   id="svg337"
   sodipodi:docname="module.svg"
   width="262.82675"
   height="98.322815"
   style="fill:none;stroke:none;stroke-linecap:square;stroke-miterlimit:10"
   inkscape:version="0.92.5 (2060ec1f9f, 2020-04-08)">
  <metadata
     id="metadata343">
    <rdf:RDF>
      <cc:Work
         rdf:about="">
        <dc:format>image/svg+xml</dc:format>
        <dc:type
           rdf:resource="http://purl.org/dc/dcmitype/StillImage" />
        <dc:title></dc:title>
      </cc:Work>
    </rdf:RDF>
  </metadata>
  <defs
     id="defs341" />
  <sodipodi:namedview
     pagecolor="#ffffff"
     bordercolor="#666666"
     borderopacity="1"
     objecttolerance="10"
     gridtolerance="10"
     guidetolerance="10"
     inkscape:pageopacity="0"
     inkscape:pageshadow="2"
     inkscape:window-width="1171"
     inkscape:window-height="801"
     id="namedview339"
     showgrid="false"
     inkscape:zoom="0.72291667"
     inkscape:cx="137.88985"
     inkscape:cy="94.003995"
     inkscape:window-x="1094"
     inkscape:window-y="736"
     inkscape:window-maximized="0"
     inkscape:current-layer="g335" />
  <clipPath
     id="g308dbc8e911_0_0.0">
    <path
       d="M 0,0 H 960 V 540 H 0 Z"
       id="path2"
       inkscape:connector-curvature="0"
       style="clip-rule:nonzero" />
  </clipPath>
  <g
     clip-path="url(#g308dbc8e911_0_0.0)"
     id="g335"
     transform="translate(-423.90158,-305.30316)">
    <path
       d="m 424.40158,305.80316 h 261.82675 v 97.32281 H 424.40158 Z"
       id="path7"
       inkscape:connector-curvature="0"
       style="fill:#000000;fill-opacity:0;fill-rule:evenodd" />
    <path
       d="m 482.65747,333.65353 h 145.32281 v 63.52756 H 482.65747 Z"
       id="path275"
       inkscape:connector-curvature="0"
       style="fill:#d9d9d9;fill-rule:evenodd" />
    <path
       d="m 482.65747,333.65353 h 145.32281 v 63.52756 H 482.65747 Z"
       id="path277"
       inkscape:connector-curvature="0"
       style="fill-rule:evenodd;stroke:#000000;stroke-width:1;stroke-linecap:butt;stroke-linejoin:round" />
    <path
       d="m 547.1058,372.6173 v -0.71875 l 1.48438,-0.28125 q 0.0156,-0.76563 0.0156,-1.64063 0.0156,-0.875 0.0156,-1.5625 v -0.95312 q 0,-0.82813 -0.0156,-1.35938 0,-0.54687 -0.0312,-1.14062 l -1.57812,-0.1875 v -0.70313 l 2.79687,-1.21875 0.29688,0.20313 0.15625,1.625 q 0.70312,-0.79688 1.64062,-1.3125 0.9375,-0.51563 1.85938,-0.51563 0.9375,0 1.53125,0.45313 0.59375,0.4375 0.84375,1.4375 0.76562,-0.9375 1.70312,-1.40625 0.9375,-0.48438 1.92188,-0.48438 1.21875,0 1.89062,0.82813 0.67188,0.8125 0.67188,2.67187 v 2.0625 q 0,0.6875 0,1.5625 0.0156,0.875 0.0469,1.64063 l 1.39063,0.28125 v 0.71875 h -4.64063 v -0.71875 l 1.48438,-0.28125 q 0.0156,-0.73438 0.0156,-1.625 0.0156,-0.89063 0.0156,-1.57813 v -1.73437 q 0,-1.40625 -0.40625,-1.89063 -0.39063,-0.48437 -1.26563,-0.48437 -0.625,0 -1.28125,0.28125 -0.64062,0.26562 -1.40625,0.96875 0.0312,0.21875 0.0312,0.46875 0.0156,0.25 0.0156,0.53125 v 1.85937 q 0,0.6875 0,1.5625 0.0156,0.875 0.0469,1.64063 l 1.39063,0.28125 v 0.71875 h -4.64063 v -0.71875 l 1.48438,-0.28125 q 0.0156,-0.73438 0.0156,-1.625 0.0156,-0.89063 0.0156,-1.57813 v -1.70312 q 0,-1.35938 -0.375,-1.875 -0.375,-0.53125 -1.25,-0.53125 -0.6875,0 -1.3125,0.28125 -0.60938,0.26562 -1.35938,0.90625 v 2.92187 q 0,0.65625 0.0156,1.54688 0.0156,0.89062 0.0312,1.65625 l 1.375,0.28125 v 0.71875 z"
       id="path279"
       inkscape:connector-curvature="0"
       style="fill:#000000;fill-rule:nonzero" />
    <path
       d="M 434.18753,359.8432 H 482.3313"
       id="path281"
       inkscape:connector-curvature="0"
       style="fill:#000000;fill-opacity:0;fill-rule:evenodd" />
    <path
       d="m 434.18753,359.84317 h 36.14374"
       id="path283"
       inkscape:connector-curvature="0"
       style="fill-rule:evenodd;stroke:#595959;stroke-width:2;stroke-linecap:butt;stroke-linejoin:round" />
    <path
       d="m 470.33127,363.14664 9.0762,-3.30347 -9.0762,-3.30346 z"
       id="path285"
       inkscape:connector-curvature="0"
       style="fill:#595959;fill-rule:evenodd;stroke:#595959;stroke-width:2;stroke-linecap:butt" />
    <path
       d="m 434.18753,353.8924 h 17.33176 v 11.90158 h -17.33176 z"
       id="path287"
       inkscape:connector-curvature="0"
       style="fill:#000000;fill-opacity:0;fill-rule:evenodd" />
    <path
       d="m 464.97998,353.8924 h 17.33173 v 11.90158 h -17.33173 z"
       id="path289"
       inkscape:connector-curvature="0"
       style="fill:#000000;fill-opacity:0;fill-rule:evenodd" />
    <path
       d="M 482.33063,370.9857 H 434.18686"
       id="path291"
       inkscape:connector-curvature="0"
       style="fill:#000000;fill-opacity:0;fill-rule:evenodd" />
    <path
       d="m 482.33063,370.9857 h -36.1438"
       id="path293"
       inkscape:connector-curvature="0"
       style="fill-rule:evenodd;stroke:#1c4587;stroke-width:2;stroke-linecap:butt;stroke-linejoin:round" />
    <path
       d="m 446.18683,367.68222 -9.07617,3.30347 9.07617,3.30346 z"
       id="path295"
       inkscape:connector-curvature="0"
       style="fill:#1c4587;fill-rule:evenodd;stroke:#1c4587;stroke-width:2;stroke-linecap:butt" />
    <path
       d="m 434.20743,365.03488 h 17.33173 v 11.90158 h -17.33173 z"
       id="path297"
       inkscape:connector-curvature="0"
       style="fill:#000000;fill-opacity:0;fill-rule:evenodd" />
    <path
       d="m 464.99954,365.03488 h 17.33176 v 11.90158 h -17.33176 z"
       id="path299"
       inkscape:connector-curvature="0"
       style="fill:#000000;fill-opacity:0;fill-rule:evenodd" />
    <path
       d="M 628.30096,359.8432 H 676.4447"
       id="path301"
       inkscape:connector-curvature="0"
       style="fill:#000000;fill-opacity:0;fill-rule:evenodd" />
    <path
       d="M 628.30096,359.84317 H 664.4447"
       id="path303"
       inkscape:connector-curvature="0"
       style="fill-rule:evenodd;stroke:#595959;stroke-width:2;stroke-linecap:butt;stroke-linejoin:round" />
    <path
       d="m 664.4447,363.14664 9.07623,-3.30347 -9.07623,-3.30346 z"
       id="path305"
       inkscape:connector-curvature="0"
       style="fill:#595959;fill-rule:evenodd;stroke:#595959;stroke-width:2;stroke-linecap:butt" />
    <path
       d="m 628.30096,353.8924 h 17.33173 v 11.90158 h -17.33173 z"
       id="path307"
       inkscape:connector-curvature="0"
       style="fill:#000000;fill-opacity:0;fill-rule:evenodd" />
    <path
       d="m 659.0934,353.8924 h 17.33173 v 11.90158 H 659.0934 Z"
       id="path309"
       inkscape:connector-curvature="0"
       style="fill:#000000;fill-opacity:0;fill-rule:evenodd" />
    <path
       d="M 676.44403,370.9857 H 628.30029"
       id="path311"
       inkscape:connector-curvature="0"
       style="fill:#000000;fill-opacity:0;fill-rule:evenodd" />
    <path
       d="M 676.44403,370.9857 H 640.30029"
       id="path313"
       inkscape:connector-curvature="0"
       style="fill-rule:evenodd;stroke:#1c4587;stroke-width:2;stroke-linecap:butt;stroke-linejoin:round" />
    <path
       d="m 640.3003,367.68222 -9.07623,3.30347 9.07623,3.30346 z"
       id="path315"
       inkscape:connector-curvature="0"
       style="fill:#1c4587;fill-rule:evenodd;stroke:#1c4587;stroke-width:2;stroke-linecap:butt" />
    <path
       d="m 628.3208,365.03488 h 17.33179 v 11.90158 H 628.3208 Z"
       id="path317"
       inkscape:connector-curvature="0"
       style="fill:#000000;fill-opacity:0;fill-rule:evenodd" />
    <path
       d="m 659.113,365.03488 h 17.33173 v 11.90158 H 659.113 Z"
       id="path319"
       inkscape:connector-curvature="0"
       style="fill:#000000;fill-opacity:0;fill-rule:evenodd" />
    <path
       d="m 412.2337,333.65353 h 70.11023 v 23.93701 H 412.2337 Z"
       id="path321"
       inkscape:connector-curvature="0"
       style="fill:#000000;fill-opacity:0;fill-rule:evenodd" />
    <path
       d="m 429.79428,342.3708 v -0.6875 h 4.40625 v 0.6875 l -1.23437,0.14062 q -0.0156,0.90625 -0.0312,1.84375 0,0.92188 0,1.875 v 0.625 q 0,0.92188 0,1.85938 0.0156,0.92187 0.0312,1.85937 l 1.23437,0.14063 v 0.6875 h -4.40625 v -0.6875 l 1.21875,-0.14063 q 0.0312,-0.90625 0.0312,-1.84375 0,-0.9375 0,-1.875 v -0.625 q 0,-0.92187 0,-1.84375 0,-0.9375 -0.0312,-1.875 z m 5.47662,9.03125 v -0.59375 l 0.95313,-0.20313 q 0.0156,-0.53125 0.0156,-1.17187 0,-0.64063 0,-1.10938 v -0.78125 q 0,-0.59375 -0.0156,-0.95312 0,-0.35938 -0.0312,-0.79688 l -1.03125,-0.14062 v -0.54688 l 2.45312,-0.92187 0.23438,0.14062 0.10937,1.125 q 1.125,-1.26562 2.48438,-1.26562 0.95312,0 1.46875,0.625 0.53125,0.625 0.53125,1.98437 v 1.53125 q 0,0.5 0,1.14063 0,0.625 0.0156,1.15625 l 0.89063,0.1875 v 0.59375 h -3.625 v -0.59375 l 0.9375,-0.20313 q 0.0156,-0.53125 0.0156,-1.15625 0,-0.625 0,-1.125 v -1.39062 q 0,-0.85938 -0.23437,-1.1875 -0.23438,-0.34375 -0.79688,-0.34375 -0.76562,0 -1.64062,0.71875 v 2.20312 q 0,0.48438 0,1.125 0,0.625 0.0156,1.17188 l 0.875,0.1875 v 0.59375 z m 11.98624,-3.10938 q 0.60938,0 0.9375,-0.48437 0.32813,-0.48438 0.32813,-1.28125 0,-0.78125 -0.32813,-1.23438 -0.3125,-0.46875 -0.89062,-0.46875 -0.59375,0 -0.92188,0.48438 -0.32812,0.46875 -0.32812,1.25 0,0.79687 0.3125,1.26562 0.3125,0.46875 0.89062,0.46875 z m -1.84375,4.46875 q 0,0.67188 0.5,0.98438 0.5,0.3125 1.42188,0.3125 1.15625,0 1.75,-0.39063 0.59375,-0.375 0.59375,-0.92187 0,-0.40625 -0.29688,-0.70313 -0.28125,-0.28125 -0.98437,-0.28125 h -1.625 q -0.54688,0 -0.96875,-0.0937 -0.39063,0.53125 -0.39063,1.09375 z m 1.875,-3.82812 q -0.65625,0 -1.21875,-0.15625 -0.28125,0.375 -0.28125,0.8125 0,0.28125 0.1875,0.4375 0.1875,0.15625 0.67188,0.15625 h 1.82812 q 1.4375,0 2.04688,0.54687 0.625,0.54688 0.625,1.46875 0,0.6875 -0.45313,1.28125 -0.45312,0.60938 -1.32812,0.96875 -0.85938,0.375 -2.17188,0.375 -1.125,0 -1.8125,-0.23437 -0.67187,-0.23438 -0.98437,-0.64063 -0.29688,-0.39062 -0.29688,-0.875 0,-0.46875 0.3125,-0.85937 0.3125,-0.39063 1.01563,-0.71875 -0.45313,-0.17188 -0.67188,-0.46875 -0.21875,-0.29688 -0.21875,-0.6875 0,-0.4375 0.25,-0.84375 0.25,-0.42188 0.79688,-0.92188 -1.15625,-0.59375 -1.15625,-2.01562 0,-1.07813 0.76562,-1.71875 0.76563,-0.65625 2.09375,-0.65625 1.32813,0 2.07813,0.60937 l 1.65625,-0.625 0.21875,0.14063 v 1.03125 h -1.42188 q 0.3125,0.5 0.3125,1.21875 0,1.07812 -0.75,1.73437 -0.75,0.64063 -2.09375,0.64063 z m 4.72098,2.46875 v -0.59375 l 0.9375,-0.1875 q 0.0156,-0.54688 0.0156,-1.1875 0,-0.64063 0,-1.10938 v -0.78125 q 0,-0.59375 -0.0156,-0.95312 0,-0.35938 -0.0312,-0.79688 l -1.03125,-0.14062 v -0.54688 l 2.45312,-0.92187 0.23438,0.14062 0.14062,1.73438 q 0.34375,-0.92188 0.90625,-1.39063 0.57813,-0.48437 1.15625,-0.48437 0.39063,0 0.71875,0.20312 0.32813,0.20313 0.4375,0.57813 -0.0156,0.54687 -0.26562,0.84375 -0.25,0.29687 -0.6875,0.29687 -0.53125,0 -1,-0.51562 l -0.125,-0.15625 q -0.78125,0.65625 -1.125,1.82812 v 1.0625 q 0,0.45313 0,1.07813 0,0.625 0.0156,1.17187 l 1.20313,0.23438 v 0.59375 z m 9.77176,-6.51563 q -0.34375,0 -0.70313,0.23438 -0.34375,0.21875 -0.57812,0.73437 -0.23438,0.5 -0.29688,1.39063 h 2 q 0.53125,0 0.70313,-0.21875 0.1875,-0.23438 0.1875,-0.625 0,-0.67188 -0.39063,-1.09375 -0.375,-0.42188 -0.92187,-0.42188 z m 0,6.71875 q -1.03125,0 -1.8125,-0.4375 -0.76563,-0.4375 -1.20313,-1.26562 -0.4375,-0.82813 -0.4375,-1.96875 0,-1.17188 0.5,-2.01563 0.5,-0.84375 1.3125,-1.28125 0.82813,-0.45312 1.75,-0.45312 0.85938,0 1.5,0.35937 0.65625,0.35938 1,1.03125 0.35938,0.65625 0.35938,1.54688 0,0.46875 -0.0781,0.8125 h -4.48437 q 0.0625,1.25 0.65625,1.89062 0.60937,0.625 1.54687,0.625 0.64063,0 1.07813,-0.25 0.45312,-0.26562 0.8125,-0.67187 l 0.4375,0.375 q -0.4375,0.8125 -1.17188,1.26562 -0.73437,0.4375 -1.76562,0.4375 z m 6.50113,0 q -0.67188,0 -1.23438,-0.15625 -0.5625,-0.15625 -1.125,-0.45312 v -1.70313 h 0.96875 l 0.26563,1.35938 q 0.53125,0.21875 1.14062,0.21875 0.75,0 1.10938,-0.26563 0.375,-0.26562 0.375,-0.73437 0,-0.40625 -0.29688,-0.65625 -0.28125,-0.26563 -0.98437,-0.5 l -0.73438,-0.25 q -0.82812,-0.25 -1.3125,-0.76563 -0.46875,-0.51562 -0.46875,-1.29687 0,-0.60938 0.3125,-1.10938 0.32813,-0.51562 0.95313,-0.8125 0.625,-0.29687 1.51562,-0.29687 0.64063,0 1.15625,0.15625 0.51563,0.14062 1.03125,0.4375 l -0.0625,1.54687 h -0.96875 l -0.26562,-1.23437 q -0.42188,-0.1875 -0.90625,-0.1875 -0.59375,0 -0.92188,0.25 -0.3125,0.25 -0.3125,0.6875 0,0.39062 0.26563,0.64062 0.26562,0.23438 1.01562,0.48438 l 0.59375,0.17187 q 1.0625,0.35938 1.51563,0.90625 0.45312,0.54688 0.45312,1.3125 0,0.98438 -0.79687,1.625 -0.79688,0.625 -2.28125,0.625 z m 6.50741,0 q -0.67187,0 -1.23437,-0.15625 -0.5625,-0.15625 -1.125,-0.45312 v -1.70313 h 0.96875 l 0.26562,1.35938 q 0.53125,0.21875 1.14063,0.21875 0.75,0 1.10937,-0.26563 0.375,-0.26562 0.375,-0.73437 0,-0.40625 -0.29687,-0.65625 -0.28125,-0.26563 -0.98438,-0.5 l -0.73437,-0.25 q -0.82813,-0.25 -1.3125,-0.76563 -0.46875,-0.51562 -0.46875,-1.29687 0,-0.60938 0.3125,-1.10938 0.32812,-0.51562 0.95312,-0.8125 0.625,-0.29687 1.51563,-0.29687 0.64062,0 1.15625,0.15625 0.51562,0.14062 1.03125,0.4375 l -0.0625,1.54687 h -0.96875 l -0.26563,-1.23437 q -0.42187,-0.1875 -0.90625,-0.1875 -0.59375,0 -0.92187,0.25 -0.3125,0.25 -0.3125,0.6875 0,0.39062 0.26562,0.64062 0.26563,0.23438 1.01563,0.48438 l 0.59375,0.17187 q 1.0625,0.35938 1.51562,0.90625 0.45313,0.54688 0.45313,1.3125 0,0.98438 -0.79688,1.625 -0.79687,0.625 -2.28125,0.625 z"
       id="path323"
       inkscape:connector-curvature="0"
       style="fill:#202122;fill-rule:nonzero" />
    <path
       d="m 628.29083,333.65353 h 70.11023 v 23.93701 h -70.11023 z"
       id="path325"
       inkscape:connector-curvature="0"
       style="fill:#000000;fill-opacity:0;fill-rule:evenodd" />
    <path
       d="m 632.86896,342.3708 v -0.6875 h 7.375 l 0.10938,2.5625 h -1.03125 l -0.29688,-1.78125 h -2.98437 q -0.0156,0.92187 -0.0312,1.84375 0,0.90625 0,1.71875 h 1.89062 l 0.1875,-1.28125 h 0.76563 v 3.3125 h -0.76563 l -0.17187,-1.26563 h -1.90625 q 0,1.0625 0,2 0.0156,0.92188 0.0312,1.82813 h 3.26562 l 0.3125,-1.78125 h 1.03125 l -0.10937,2.5625 h -7.67188 v -0.6875 l 1.21875,-0.14063 q 0.0312,-0.90625 0.0312,-1.84375 0,-0.9375 0,-1.875 v -0.625 q 0,-0.92187 0,-1.84375 0,-0.9375 -0.0312,-1.875 z m 11.64429,5.92187 q 0.60937,0 0.9375,-0.48437 0.32812,-0.48438 0.32812,-1.28125 0,-0.78125 -0.32812,-1.23438 -0.3125,-0.46875 -0.89063,-0.46875 -0.59375,0 -0.92187,0.48438 -0.32813,0.46875 -0.32813,1.25 0,0.79687 0.3125,1.26562 0.3125,0.46875 0.89063,0.46875 z m -1.84375,4.46875 q 0,0.67188 0.5,0.98438 0.5,0.3125 1.42187,0.3125 1.15625,0 1.75,-0.39063 0.59375,-0.375 0.59375,-0.92187 0,-0.40625 -0.29687,-0.70313 -0.28125,-0.28125 -0.98438,-0.28125 h -1.625 q -0.54687,0 -0.96875,-0.0937 -0.39062,0.53125 -0.39062,1.09375 z m 1.875,-3.82812 q -0.65625,0 -1.21875,-0.15625 -0.28125,0.375 -0.28125,0.8125 0,0.28125 0.1875,0.4375 0.1875,0.15625 0.67187,0.15625 h 1.82813 q 1.4375,0 2.04687,0.54687 0.625,0.54688 0.625,1.46875 0,0.6875 -0.45312,1.28125 -0.45313,0.60938 -1.32813,0.96875 -0.85937,0.375 -2.17187,0.375 -1.125,0 -1.8125,-0.23437 -0.67188,-0.23438 -0.98438,-0.64063 -0.29687,-0.39062 -0.29687,-0.875 0,-0.46875 0.3125,-0.85937 0.3125,-0.39063 1.01562,-0.71875 -0.45312,-0.17188 -0.67187,-0.46875 -0.21875,-0.29688 -0.21875,-0.6875 0,-0.4375 0.25,-0.84375 0.25,-0.42188 0.79687,-0.92188 -1.15625,-0.59375 -1.15625,-2.01562 0,-1.07813 0.76563,-1.71875 0.76562,-0.65625 2.09375,-0.65625 1.32812,0 2.07812,0.60937 l 1.65625,-0.625 0.21875,0.14063 v 1.03125 h -1.42187 q 0.3125,0.5 0.3125,1.21875 0,1.07812 -0.75,1.73437 -0.75,0.64063 -2.09375,0.64063 z m 4.72094,2.46875 v -0.59375 l 0.9375,-0.1875 q 0.0156,-0.54688 0.0156,-1.1875 0,-0.64063 0,-1.10938 v -0.78125 q 0,-0.59375 -0.0156,-0.95312 0,-0.35938 -0.0312,-0.79688 l -1.03125,-0.14062 v -0.54688 l 2.45313,-0.92187 0.23437,0.14062 0.14063,1.73438 q 0.34375,-0.92188 0.90625,-1.39063 0.57812,-0.48437 1.15625,-0.48437 0.39062,0 0.71875,0.20312 0.32812,0.20313 0.4375,0.57813 -0.0156,0.54687 -0.26563,0.84375 -0.25,0.29687 -0.6875,0.29687 -0.53125,0 -1,-0.51562 l -0.125,-0.15625 q -0.78125,0.65625 -1.125,1.82812 v 1.0625 q 0,0.45313 0,1.07813 0,0.625 0.0156,1.17187 l 1.20312,0.23438 v 0.59375 z m 9.77179,-6.51563 q -0.34375,0 -0.70312,0.23438 -0.34375,0.21875 -0.57813,0.73437 -0.23437,0.5 -0.29687,1.39063 h 2 q 0.53125,0 0.70312,-0.21875 0.1875,-0.23438 0.1875,-0.625 0,-0.67188 -0.39062,-1.09375 -0.375,-0.42188 -0.92188,-0.42188 z m 0,6.71875 q -1.03125,0 -1.8125,-0.4375 -0.76562,-0.4375 -1.20312,-1.26562 -0.4375,-0.82813 -0.4375,-1.96875 0,-1.17188 0.5,-2.01563 0.5,-0.84375 1.3125,-1.28125 0.82812,-0.45312 1.75,-0.45312 0.85937,0 1.5,0.35937 0.65625,0.35938 1,1.03125 0.35937,0.65625 0.35937,1.54688 0,0.46875 -0.0781,0.8125 h -4.48438 q 0.0625,1.25 0.65625,1.89062 0.60938,0.625 1.54688,0.625 0.64062,0 1.07812,-0.25 0.45313,-0.26562 0.8125,-0.67187 l 0.4375,0.375 q -0.4375,0.8125 -1.17187,1.26562 -0.73438,0.4375 -1.76563,0.4375 z m 6.5011,0 q -0.67187,0 -1.23437,-0.15625 -0.5625,-0.15625 -1.125,-0.45312 v -1.70313 h 0.96875 l 0.26562,1.35938 q 0.53125,0.21875 1.14063,0.21875 0.75,0 1.10937,-0.26563 0.375,-0.26562 0.375,-0.73437 0,-0.40625 -0.29687,-0.65625 -0.28125,-0.26563 -0.98438,-0.5 l -0.73437,-0.25 q -0.82813,-0.25 -1.3125,-0.76563 -0.46875,-0.51562 -0.46875,-1.29687 0,-0.60938 0.3125,-1.10938 0.32812,-0.51562 0.95312,-0.8125 0.625,-0.29687 1.51563,-0.29687 0.64062,0 1.15625,0.15625 0.51562,0.14062 1.03125,0.4375 l -0.0625,1.54687 h -0.96875 l -0.26563,-1.23437 q -0.42187,-0.1875 -0.90625,-0.1875 -0.59375,0 -0.92187,0.25 -0.3125,0.25 -0.3125,0.6875 0,0.39062 0.26562,0.64062 0.26563,0.23438 1.01563,0.48438 l 0.59375,0.17187 q 1.0625,0.35938 1.51562,0.90625 0.45313,0.54688 0.45313,1.3125 0,0.98438 -0.79688,1.625 -0.79687,0.625 -2.28125,0.625 z m 6.50739,0 q -0.67188,0 -1.23438,-0.15625 -0.5625,-0.15625 -1.125,-0.45312 v -1.70313 h 0.96875 l 0.26563,1.35938 q 0.53125,0.21875 1.14062,0.21875 0.75,0 1.10938,-0.26563 0.375,-0.26562 0.375,-0.73437 0,-0.40625 -0.29688,-0.65625 -0.28125,-0.26563 -0.98437,-0.5 l -0.73438,-0.25 q -0.82812,-0.25 -1.3125,-0.76563 -0.46875,-0.51562 -0.46875,-1.29687 0,-0.60938 0.3125,-1.10938 0.32813,-0.51562 0.95313,-0.8125 0.625,-0.29687 1.51562,-0.29687 0.64063,0 1.15625,0.15625 0.51563,0.14062 1.03125,0.4375 l -0.0625,1.54687 h -0.96875 l -0.26562,-1.23437 q -0.42188,-0.1875 -0.90625,-0.1875 -0.59375,0 -0.92188,0.25 -0.3125,0.25 -0.3125,0.6875 0,0.39062 0.26563,0.64062 0.26562,0.23438 1.01562,0.48438 l 0.59375,0.17187 q 1.0625,0.35938 1.51563,0.90625 0.45312,0.54688 0.45312,1.3125 0,0.98438 -0.79687,1.625 -0.79688,0.625 -2.28125,0.625 z"
       id="path327"
       inkscape:connector-curvature="0"
       style="fill:#202122;fill-rule:nonzero" />
    <path
       d="m 424.41702,305.80316 h 261.82675 v 23.93698 H 424.41702 Z"
       id="path329"
       inkscape:connector-curvature="0"
       style="fill:#000000;fill-opacity:0;fill-rule:evenodd" />
    <path
       d="m 443.2411,323.55167 v -0.59375 l 0.95313,-0.20313 q 0.0156,-0.53125 0.0156,-1.17187 0,-0.64063 0,-1.10938 v -0.78125 q 0,-0.59375 -0.0156,-0.95312 0,-0.35938 -0.0312,-0.79688 l -1.03125,-0.14062 v -0.54688 l 2.45312,-0.92187 0.23438,0.14062 0.10937,1.14063 q 0.51563,-0.59375 1.14063,-0.9375 0.625,-0.34375 1.29687,-0.34375 1.42188,0 1.82813,1.32812 0.59375,-0.70312 1.21875,-1.01562 0.64062,-0.3125 1.3125,-0.3125 1,0 1.48437,0.60937 0.5,0.60938 0.5,1.96875 v 1.5625 q 0,0.5 0,1.125 0,0.625 0.0156,1.17188 l 0.90625,0.1875 v 0.59375 h -3.57813 v -0.59375 l 0.90625,-0.20313 q 0.0156,-0.53125 0.0156,-1.15625 0,-0.625 0,-1.125 v -1.34375 q 0,-0.92187 -0.25,-1.25 -0.23438,-0.32812 -0.79688,-0.32812 -0.78125,0 -1.60937,0.75 0.0156,0.15625 0.0156,0.3125 0.0156,0.15625 0.0156,0.32812 v 1.53125 q 0,0.5 0,1.125 0,0.625 0.0156,1.17188 l 0.875,0.1875 v 0.59375 h -3.59375 v -0.59375 l 0.9375,-0.20313 q 0.0156,-0.53125 0.0156,-1.15625 0,-0.625 0,-1.125 v -1.3125 q 0,-0.90625 -0.23438,-1.25 -0.21875,-0.35937 -0.78125,-0.35937 -0.42187,0 -0.82812,0.20312 -0.39063,0.20313 -0.78125,0.53125 v 2.1875 q 0,0.48438 0,1.125 0,0.625 0.0156,1.17188 l 0.875,0.1875 v 0.59375 z"
       id="path331"
       inkscape:connector-curvature="0"
       style="fill:#202122;fill-rule:nonzero" />
    <path
       d="m 458.1935,318.42667 q -0.4375,0 -0.75,-0.29688 -0.29688,-0.3125 -0.29688,-0.73437 0,-0.45313 0.29688,-0.75 0.3125,-0.3125 0.75,-0.3125 0.4375,0 0.73437,0.3125 0.29688,0.29687 0.29688,0.75 0,0.42187 -0.29688,0.73437 -0.29687,0.29688 -0.73437,0.29688 z m 0,5.3125 q -0.4375,0 -0.75,-0.29688 -0.29688,-0.3125 -0.29688,-0.73437 0,-0.45313 0.29688,-0.75 0.3125,-0.3125 0.75,-0.3125 0.4375,0 0.73437,0.3125 0.29688,0.29687 0.29688,0.75 0,0.42187 -0.29688,0.73437 -0.29687,0.29688 -0.73437,0.29688 z m 6.12433,-0.1875 v -0.53125 l 1.09375,-0.20313 q 0.0156,-0.5625 0.0156,-1.20312 0.0156,-0.65625 0.0156,-1.14063 v -0.6875 q 0,-0.60937 -0.0156,-1 0,-0.40625 -0.0312,-0.84375 l -1.17187,-0.14062 v -0.51563 l 2.26562,-0.89062 0.21875,0.15625 -0.0469,1.98437 v 1.9375 q 0,0.48438 0,1.14063 0.0156,0.64062 0.0312,1.20312 l 1.01562,0.20313 v 0.53125 z m 1.73437,-8.76563 q -0.42187,0 -0.70312,-0.26562 -0.28125,-0.26563 -0.28125,-0.67188 0,-0.42187 0.28125,-0.67187 0.28125,-0.26563 0.70312,-0.26563 0.40625,0 0.6875,0.26563 0.28125,0.25 0.28125,0.67187 0,0.40625 -0.28125,0.67188 -0.28125,0.26562 -0.6875,0.26562 z m 2.71134,8.76563 v -0.53125 l 1.07812,-0.20313 q 0.0156,-0.5625 0.0156,-1.20312 0.0156,-0.64063 0.0156,-1.14063 v -0.70312 q 0,-0.59375 -0.0156,-0.98438 0,-0.40625 -0.0312,-0.84375 l -1.15625,-0.14062 v -0.51563 l 2.04687,-0.89062 0.21875,0.15625 0.125,1.1875 q 0.51563,-0.59375 1.20313,-0.96875 0.6875,-0.375 1.35937,-0.375 0.6875,0 1.10938,0.32812 0.4375,0.32813 0.64062,1.04688 0.54688,-0.6875 1.23438,-1.03125 0.6875,-0.34375 1.40625,-0.34375 0.90625,0 1.39062,0.60937 0.48438,0.59375 0.48438,1.95313 v 1.51562 q 0,0.5 0,1.14063 0.0156,0.64062 0.0312,1.20312 l 1.03125,0.20313 v 0.53125 h -3.40625 v -0.53125 l 1.09375,-0.20313 q 0.0156,-0.54687 0.0156,-1.1875 0.0156,-0.65625 0.0156,-1.15625 v -1.28125 q 0,-1.01562 -0.29688,-1.375 -0.29687,-0.35937 -0.9375,-0.35937 -0.45312,0 -0.9375,0.20312 -0.46875,0.20313 -1.03125,0.71875 0.0156,0.15625 0.0156,0.34375 0.0156,0.1875 0.0156,0.39063 v 1.35937 q 0,0.5 0,1.14063 0.0156,0.64062 0.0312,1.20312 l 1.03125,0.20313 v 0.53125 h -3.40625 v -0.53125 l 1.07813,-0.20313 q 0.0156,-0.54687 0.0156,-1.1875 0.0156,-0.65625 0.0156,-1.15625 v -1.25 q 0,-0.98437 -0.28125,-1.375 -0.26563,-0.39062 -0.92188,-0.39062 -0.5,0 -0.95312,0.20312 -0.45313,0.20313 -0.98438,0.67188 v 2.14062 q 0,0.48438 0,1.14063 0,0.64062 0.0156,1.20312 l 1.01562,0.20313 v 0.53125 z m 12.90719,3.5 v -0.51563 l 1.17188,-0.20312 q 0.0156,-0.59375 0.0156,-1.1875 0.0156,-0.59375 0.0156,-1.1875 v -4.1875 q 0,-0.59375 -0.0156,-0.98438 0,-0.40625 -0.0312,-0.84375 l -1.15625,-0.14062 v -0.51563 l 2.04688,-0.89062 0.21875,0.15625 0.0937,0.95312 q 1.03125,-1.10937 2.20312,-1.10937 0.79688,0 1.42188,0.45312 0.64062,0.4375 1.01562,1.25 0.375,0.8125 0.375,1.95313 0,1.125 -0.40625,1.95312 -0.39062,0.82813 -1.07812,1.28125 -0.67188,0.45313 -1.54688,0.45313 -0.48437,0 -0.98437,-0.20313 -0.48438,-0.20312 -0.95313,-0.75 v 1.15625 q 0,0.59375 0,1.1875 0.0156,0.59375 0.0312,1.1875 l 1.32813,0.21875 v 0.51563 z m 4.21875,-9.8125 q -0.34375,0 -0.78125,0.17187 -0.4375,0.15625 -1,0.625 v 4.125 q 0.42188,0.39063 0.8125,0.57813 0.39063,0.17187 0.8125,0.17187 0.8125,0 1.39063,-0.65625 0.59375,-0.67187 0.59375,-2.09375 0,-1.40625 -0.51563,-2.15625 -0.5,-0.76562 -1.3125,-0.76562 z m 4.02298,6.3125 v -0.53125 l 1.17188,-0.20313 q 0.0156,-0.59375 0.0156,-1.17187 0.0156,-0.57813 0.0156,-1.17188 v -6.4375 l -1.20313,-0.14062 v -0.51563 l 2.29688,-0.65625 0.20312,0.10938 -0.0625,2.09375 v 5.54687 q 0,0.59375 0,1.1875 0.0156,0.57813 0.0312,1.15625 l 1.17188,0.20313 v 0.53125 z m 8.06375,-9.20313 v -0.60937 h 7.29688 l 0.10937,2.60937 h -0.84375 l -0.3125,-1.875 h -3.45312 q -0.0156,0.9375 -0.0156,1.875 0,0.9375 0,1.85938 h 2.26563 l 0.20312,-1.39063 h 0.67188 v 3.59375 h -0.67188 l -0.20312,-1.51562 h -2.26563 q 0,1.07812 0,2.03125 0,0.95312 0.0156,1.85937 l 1.375,0.17188 v 0.59375 h -4.17188 v -0.59375 l 1.35938,-0.17188 q 0.0156,-0.92187 0.0156,-1.875 0,-0.95312 0,-1.90625 v -0.71875 q 0,-0.95312 0,-1.89062 0,-0.95313 -0.0156,-1.89063 z m 8.13114,9.20313 v -0.53125 l 1.07812,-0.20313 q 0.0156,-0.5625 0.0156,-1.20312 0.0156,-0.64063 0.0156,-1.14063 v -0.70312 q 0,-0.59375 -0.0156,-0.98438 0,-0.40625 -0.0312,-0.84375 l -1.15625,-0.14062 v -0.51563 l 2.04687,-0.89062 0.21875,0.15625 0.125,1.17187 q 0.53125,-0.59375 1.23438,-0.95312 0.71875,-0.375 1.39062,-0.375 0.95313,0 1.40625,0.64062 0.46875,0.64063 0.46875,2.07813 v 1.35937 q 0,0.5 0,1.14063 0.0156,0.64062 0.0312,1.20312 l 1.01563,0.20313 v 0.53125 h -3.39063 v -0.53125 l 1.07813,-0.20313 q 0.0156,-0.54687 0.0156,-1.1875 0.0156,-0.65625 0.0156,-1.15625 v -1.25 q 0,-1 -0.29688,-1.375 -0.28125,-0.39062 -0.92187,-0.39062 -0.5,0 -0.96875,0.20312 -0.46875,0.20313 -1.01563,0.67188 v 2.14062 q 0,0.48438 0,1.14063 0,0.64062 0.0156,1.20312 l 1.01562,0.20313 v 0.53125 z m 13.47546,0.21875 q -0.84375,0 -1.65625,-0.32813 -0.8125,-0.32812 -1.45312,-0.96875 -0.64063,-0.65625 -1.01563,-1.60937 -0.375,-0.96875 -0.375,-2.21875 0,-1.20313 0.375,-2.15625 0.39063,-0.95313 1.01563,-1.60938 0.64062,-0.67187 1.45312,-1.01562 0.8125,-0.34375 1.65625,-0.34375 0.84375,0 1.64063,0.34375 0.8125,0.32812 1.4375,0.96875 0.64062,0.64062 1.01562,1.59375 0.39063,0.95312 0.39063,2.21875 0,1.20312 -0.375,2.15625 -0.375,0.95312 -1.01563,1.625 -0.625,0.65625 -1.4375,1 -0.8125,0.34375 -1.65625,0.34375 z m 0,-0.73438 q 0.76563,0 1.3125,-0.375 0.54688,-0.375 0.89063,-0.98437 0.34375,-0.625 0.5,-1.40625 0.17187,-0.79688 0.17187,-1.625 0,-0.82813 -0.17187,-1.60938 -0.15625,-0.78125 -0.5,-1.40625 -0.34375,-0.64062 -0.89063,-1 -0.54687,-0.375 -1.3125,-0.375 -0.76562,0 -1.3125,0.375 -0.54687,0.35938 -0.90625,1 -0.34375,0.625 -0.51562,1.40625 -0.17188,0.78125 -0.17188,1.60938 0,0.82812 0.17188,1.625 0.17187,0.78125 0.51562,1.40625 0.35938,0.60937 0.90625,0.98437 0.54688,0.375 1.3125,0.375 z m 5.76825,0.51563 v -0.53125 l 1.07813,-0.20313 q 0.0156,-0.5625 0.0156,-1.20312 0.0156,-0.64063 0.0156,-1.14063 v -0.70312 q 0,-0.59375 -0.0156,-0.98438 0,-0.40625 -0.0312,-0.84375 l -1.15625,-0.14062 v -0.51563 l 2.04688,-0.89062 0.21875,0.15625 0.125,1.17187 q 0.53125,-0.59375 1.23437,-0.95312 0.71875,-0.375 1.39063,-0.375 0.95312,0 1.40625,0.64062 0.46875,0.64063 0.46875,2.07813 v 1.35937 q 0,0.5 0,1.14063 0.0156,0.64062 0.0312,1.20312 l 1.01562,0.20313 v 0.53125 h -3.39062 v -0.53125 l 1.07812,-0.20313 q 0.0156,-0.54687 0.0156,-1.1875 0.0156,-0.65625 0.0156,-1.15625 v -1.25 q 0,-1 -0.29687,-1.375 -0.28125,-0.39062 -0.92188,-0.39062 -0.5,0 -0.96875,0.20312 -0.46875,0.20313 -1.01562,0.67188 v 2.14062 q 0,0.48438 0,1.14063 0,0.64062 0.0156,1.20312 l 1.01563,0.20313 v 0.53125 z m 12.19422,0.1875 q -1.5,0 -2.40625,-0.96875 -0.89063,-0.98438 -0.89063,-2.67188 0,-1.15625 0.46875,-1.98437 0.48438,-0.82813 1.26563,-1.26563 0.78125,-0.45312 1.65625,-0.45312 0.65625,0 1.21875,0.25 0.5625,0.25 0.92187,0.6875 0.35938,0.42187 0.45313,0.96875 -0.0937,0.5625 -0.67188,0.5625 -0.35937,0 -0.54687,-0.1875 -0.1875,-0.20313 -0.26563,-0.51563 l -0.26562,-0.96875 q -0.20313,-0.0781 -0.40625,-0.0937 -0.1875,-0.0312 -0.375,-0.0312 -0.9375,0 -1.54688,0.73438 -0.60937,0.73437 -0.60937,2.14062 0,1.375 0.65625,2.10938 0.65625,0.73437 1.6875,0.73437 0.625,0 1.15625,-0.28125 0.53125,-0.28125 0.85937,-0.82812 l 0.375,0.1875 q -0.3125,0.90625 -1,1.39062 -0.6875,0.48438 -1.73437,0.48438 z m 7.18353,-6.67188 q -0.40625,0 -0.82813,0.23438 -0.40625,0.23437 -0.71875,0.75 -0.29687,0.51562 -0.375,1.35937 h 2.65625 q 0.53125,0 0.70313,-0.21875 0.17187,-0.21875 0.17187,-0.53125 0,-0.42187 -0.21875,-0.78125 -0.21875,-0.35937 -0.57812,-0.57812 -0.35938,-0.23438 -0.8125,-0.23438 z m -0.0156,6.67188 q -1.46875,0 -2.375,-0.95313 -0.89062,-0.96875 -0.89062,-2.65625 0,-1.125 0.45312,-1.95312 0.46875,-0.84375 1.23438,-1.3125 0.78125,-0.46875 1.6875,-0.46875 0.76562,0 1.375,0.34375 0.625,0.32812 0.98437,0.95312 0.35938,0.625 0.35938,1.51563 0,0.25 -0.0312,0.46875 -0.0156,0.20312 -0.0625,0.35937 h -4.67188 q 0.0312,1.34375 0.67188,2.04688 0.64062,0.70312 1.70312,0.70312 0.70313,0 1.17188,-0.28125 0.46875,-0.28125 0.85937,-0.73437 l 0.34375,0.26562 q -0.40625,0.78125 -1.10937,1.25 -0.70313,0.45313 -1.70313,0.45313 z m 5.89661,-4.26563 q 0,1.17188 0.20313,2.20313 0.20312,1.01562 0.6875,2.0625 0.5,1.04687 1.375,2.29687 l -0.39063,0.32813 q -1.54687,-1.45313 -2.29687,-3.15625 -0.75,-1.71875 -0.75,-3.73438 0,-2 0.75,-3.71875 0.75,-1.71875 2.29687,-3.17187 l 0.39063,0.34375 q -0.875,1.25 -1.375,2.29687 -0.48438,1.04688 -0.6875,2.0625 -0.20313,1.01563 -0.20313,2.1875 z m 3.26538,-5.125 v -0.60937 h 4.15625 v 0.60937 l -1.35937,0.15625 q -0.0156,0.92188 -0.0156,1.875 0,0.95313 0,1.90625 v 0.71875 q 0,0.9375 0,1.89063 0,0.9375 0.0156,1.89062 l 1.35937,0.17188 v 0.59375 h -4.15625 v -0.59375 l 1.35938,-0.17188 q 0.0156,-0.92187 0.0156,-1.875 0,-0.95312 0,-1.90625 v -0.71875 q 0,-0.95312 0,-1.89062 0,-0.95313 -0.0156,-1.89063 z m 5.39057,9.20313 v -0.53125 l 1.07812,-0.20313 q 0.0156,-0.5625 0.0156,-1.20312 0.0156,-0.64063 0.0156,-1.14063 v -0.70312 q 0,-0.59375 -0.0156,-0.98438 0,-0.40625 -0.0312,-0.84375 l -1.15625,-0.14062 v -0.51563 l 2.04687,-0.89062 0.21875,0.15625 0.125,1.17187 q 0.53125,-0.59375 1.23438,-0.95312 0.71875,-0.375 1.39062,-0.375 0.95313,0 1.40625,0.64062 0.46875,0.64063 0.46875,2.07813 v 1.35937 q 0,0.5 0,1.14063 0.0156,0.64062 0.0312,1.20312 l 1.01563,0.20313 v 0.53125 h -3.39063 v -0.53125 l 1.07813,-0.20313 q 0.0156,-0.54687 0.0156,-1.1875 0.0156,-0.65625 0.0156,-1.15625 v -1.25 q 0,-1 -0.29688,-1.375 -0.28125,-0.39062 -0.92187,-0.39062 -0.5,0 -0.96875,0.20312 -0.46875,0.20313 -1.01563,0.67188 v 2.14062 q 0,0.48438 0,1.14063 0,0.64062 0.0156,1.20312 l 1.01562,0.20313 v 0.53125 z m 11.75671,-2.9375 q 0.70312,0 1.09375,-0.51563 0.40625,-0.53125 0.40625,-1.34375 0,-0.76562 -0.375,-1.25 -0.375,-0.5 -1.0625,-0.5 -0.6875,0 -1.09375,0.5 -0.39063,0.5 -0.39063,1.3125 0,0.8125 0.375,1.3125 0.375,0.48438 1.04688,0.48438 z m 0.0312,0.59375 q -0.5625,0 -1.07813,-0.15625 -0.375,0.46875 -0.375,0.9375 0,0.28125 0.17188,0.46875 0.17187,0.17187 0.6875,0.17187 h 1.92187 q 1.20313,0 1.78125,0.5 0.57813,0.5 0.57813,1.39063 0,0.625 -0.40625,1.20312 -0.40625,0.59375 -1.21875,0.95313 -0.79688,0.375 -2,0.375 -1.59375,0 -2.3125,-0.5 -0.71875,-0.5 -0.71875,-1.26563 0,-0.46875 0.3125,-0.875 0.3125,-0.40625 1.125,-0.79687 -0.96875,-0.26563 -0.96875,-1.125 0,-0.34375 0.21875,-0.71875 0.23437,-0.39063 0.78125,-0.90625 -0.53125,-0.28125 -0.84375,-0.79688 -0.29688,-0.51562 -0.29688,-1.26562 0,-1.15625 0.75,-1.78125 0.76563,-0.625 1.90625,-0.625 1.15625,0 1.85938,0.57812 l 1.65625,-0.57812 0.21875,0.15625 v 0.92187 h -1.4375 q 0.34375,0.53125 0.34375,1.32813 0,1.15625 -0.76563,1.78125 -0.75,0.625 -1.89062,0.625 z m -1.76563,3.84375 q 0,0.71875 0.5,1.01562 0.51563,0.3125 1.39063,0.3125 1.20312,0 1.82812,-0.4375 0.625,-0.42187 0.625,-1.04687 0,-0.48438 -0.34375,-0.8125 -0.32812,-0.32813 -1.125,-0.32813 h -1.70312 q -0.15625,0 -0.3125,-0.0156 -0.14063,0 -0.29688,-0.0156 -0.29687,0.32813 -0.4375,0.64063 -0.125,0.3125 -0.125,0.6875 z m 6.46698,-1.5 v -0.53125 l 1.0625,-0.1875 q 0.0156,-0.5625 0.0156,-1.20313 0.0156,-0.65625 0.0156,-1.15625 v -0.70312 q 0,-0.59375 -0.0156,-0.98438 0,-0.40625 -0.0312,-0.84375 l -1.15625,-0.14062 v -0.51563 l 2.04687,-0.89062 0.21875,0.15625 0.17188,1.71875 q 0.35937,-0.875 0.9375,-1.375 0.57812,-0.5 1.17187,-0.5 0.32813,0 0.625,0.15625 0.29688,0.14062 0.42188,0.39062 0,1.0625 -0.85938,1.0625 -0.25,0 -0.46875,-0.0937 -0.21875,-0.0937 -0.42187,-0.26562 l -0.1875,-0.15625 q -0.4375,0.3125 -0.73438,0.78125 -0.28125,0.46875 -0.46875,1.10937 v 1.09375 q 0,0.48438 0,1.14063 0,0.64062 0.0156,1.1875 l 1.20312,0.21875 v 0.53125 z m 9.38111,-6.48438 q -0.40625,0 -0.82813,0.23438 -0.40625,0.23437 -0.71875,0.75 -0.29687,0.51562 -0.375,1.35937 h 2.65625 q 0.53125,0 0.70313,-0.21875 0.17187,-0.21875 0.17187,-0.53125 0,-0.42187 -0.21875,-0.78125 -0.21875,-0.35937 -0.57812,-0.57812 -0.35938,-0.23438 -0.8125,-0.23438 z m -0.0156,6.67188 q -1.46875,0 -2.375,-0.95313 -0.89062,-0.96875 -0.89062,-2.65625 0,-1.125 0.45312,-1.95312 0.46875,-0.84375 1.23438,-1.3125 0.78125,-0.46875 1.6875,-0.46875 0.76562,0 1.375,0.34375 0.625,0.32812 0.98437,0.95312 0.35938,0.625 0.35938,1.51563 0,0.25 -0.0312,0.46875 -0.0156,0.20312 -0.0625,0.35937 h -4.67188 q 0.0312,1.34375 0.67188,2.04688 0.64062,0.70312 1.70312,0.70312 0.70313,0 1.17188,-0.28125 0.46875,-0.28125 0.85937,-0.73437 l 0.34375,0.26562 q -0.40625,0.78125 -1.10937,1.25 -0.70313,0.45313 -1.70313,0.45313 z m 6.4903,0 q -0.625,0 -1.14063,-0.14063 -0.5,-0.14062 -1.04687,-0.40625 l -0.0625,-1.625 h 0.8125 l 0.26562,1.28125 q 0.51563,0.23438 1.1875,0.23438 0.84375,0 1.25,-0.29688 0.40625,-0.3125 0.40625,-0.8125 0,-0.46875 -0.34375,-0.75 -0.34375,-0.29687 -1.03125,-0.53125 l -0.67187,-0.25 q -0.79688,-0.29687 -1.28125,-0.76562 -0.48438,-0.46875 -0.48438,-1.20313 0,-0.54687 0.28125,-1.01562 0.29688,-0.46875 0.85938,-0.76563 0.57812,-0.29687 1.40625,-0.29687 0.59375,0 1.07812,0.15625 0.5,0.15625 0.96875,0.45312 l -0.0625,1.48438 h -0.75 l -0.23437,-1.17188 q -0.5,-0.25 -1.01563,-0.25 -0.67187,0 -1.01562,0.28125 -0.34375,0.26563 -0.34375,0.71875 0,0.48438 0.29687,0.73438 0.29688,0.25 1.04688,0.53125 l 0.45312,0.15625 q 1.09375,0.40625 1.5625,0.9375 0.46875,0.53125 0.46875,1.21875 0,0.5625 -0.32812,1.04687 -0.32813,0.46875 -0.95313,0.76563 -0.625,0.28125 -1.57812,0.28125 z m 6.36084,0 q -0.625,0 -1.14063,-0.14063 -0.5,-0.14062 -1.04687,-0.40625 l -0.0625,-1.625 h 0.8125 l 0.26562,1.28125 q 0.51563,0.23438 1.1875,0.23438 0.84375,0 1.25,-0.29688 0.40625,-0.3125 0.40625,-0.8125 0,-0.46875 -0.34375,-0.75 -0.34375,-0.29687 -1.03125,-0.53125 l -0.67187,-0.25 q -0.79688,-0.29687 -1.28125,-0.76562 -0.48438,-0.46875 -0.48438,-1.20313 0,-0.54687 0.28125,-1.01562 0.29688,-0.46875 0.85938,-0.76563 0.57812,-0.29687 1.40625,-0.29687 0.59375,0 1.07812,0.15625 0.5,0.15625 0.96875,0.45312 l -0.0625,1.48438 h -0.75 l -0.23437,-1.17188 q -0.5,-0.25 -1.01563,-0.25 -0.67187,0 -1.01562,0.28125 -0.34375,0.26563 -0.34375,0.71875 0,0.48438 0.29687,0.73438 0.29688,0.25 1.04688,0.53125 l 0.45312,0.15625 q 1.09375,0.40625 1.5625,0.9375 0.46875,0.53125 0.46875,1.21875 0,0.5625 -0.32812,1.04687 -0.32813,0.46875 -0.95313,0.76563 -0.625,0.28125 -1.57812,0.28125 z m 5.88702,-4.26563 q 0,-1.17187 -0.20312,-2.1875 -0.20313,-1.01562 -0.70313,-2.0625 -0.48437,-1.04687 -1.35937,-2.29687 l 0.39062,-0.34375 q 1.54688,1.45312 2.29688,3.17187 0.75,1.71875 0.75,3.71875 0,2.01563 -0.75,3.73438 -0.75,1.70312 -2.29688,3.15625 l -0.39062,-0.32813 q 0.875,-1.25 1.35937,-2.29687 0.5,-1.04688 0.70313,-2.0625 0.20312,-1.03125 0.20312,-2.20313 z m 6.35217,0.89063 v -0.96875 h 3.39063 v 0.96875 z m 10.93213,-1.98438 v 0.6875 l -5.67187,3.29688 -0.45313,-0.79688 5.09375,-2.85937 -5.09375,-2.84375 0.45313,-0.78125 z m 4.88495,-4.03125 v -0.60937 h 7.29688 l 0.10937,2.60937 h -0.84375 l -0.3125,-1.875 h -3.45312 q -0.0156,0.9375 -0.0156,1.875 0,0.9375 0,1.85938 h 2.14063 l 0.21875,-1.39063 h 0.67187 v 3.45313 h -0.67187 l -0.20313,-1.375 h -2.15625 q 0,1.09375 0,2.0625 0,0.95312 0.0156,1.85937 h 3.75 l 0.3125,-1.875 h 0.84375 l -0.10938,2.60938 h -7.59375 v -0.59375 l 1.35938,-0.17188 q 0.0156,-0.92187 0.0156,-1.875 0,-0.95312 0,-1.90625 v -0.71875 q 0,-0.95312 0,-1.89062 0,-0.95313 -0.0156,-1.89063 z m 11.51917,6.26563 q 0.70312,0 1.09375,-0.51563 0.40625,-0.53125 0.40625,-1.34375 0,-0.76562 -0.375,-1.25 -0.375,-0.5 -1.0625,-0.5 -0.6875,0 -1.09375,0.5 -0.39063,0.5 -0.39063,1.3125 0,0.8125 0.375,1.3125 0.375,0.48438 1.04688,0.48438 z m 0.0312,0.59375 q -0.5625,0 -1.07813,-0.15625 -0.375,0.46875 -0.375,0.9375 0,0.28125 0.17188,0.46875 0.17187,0.17187 0.6875,0.17187 h 1.92187 q 1.20313,0 1.78125,0.5 0.57813,0.5 0.57813,1.39063 0,0.625 -0.40625,1.20312 -0.40625,0.59375 -1.21875,0.95313 -0.79688,0.375 -2,0.375 -1.59375,0 -2.3125,-0.5 -0.71875,-0.5 -0.71875,-1.26563 0,-0.46875 0.3125,-0.875 0.3125,-0.40625 1.125,-0.79687 -0.96875,-0.26563 -0.96875,-1.125 0,-0.34375 0.21875,-0.71875 0.23437,-0.39063 0.78125,-0.90625 -0.53125,-0.28125 -0.84375,-0.79688 -0.29688,-0.51562 -0.29688,-1.26562 0,-1.15625 0.75,-1.78125 0.76563,-0.625 1.90625,-0.625 1.15625,0 1.85938,0.57812 l 1.65625,-0.57812 0.21875,0.15625 v 0.92187 h -1.4375 q 0.34375,0.53125 0.34375,1.32813 0,1.15625 -0.76563,1.78125 -0.75,0.625 -1.89062,0.625 z m -1.76563,3.84375 q 0,0.71875 0.5,1.01562 0.51563,0.3125 1.39063,0.3125 1.20312,0 1.82812,-0.4375 0.625,-0.42187 0.625,-1.04687 0,-0.48438 -0.34375,-0.8125 -0.32812,-0.32813 -1.125,-0.32813 h -1.70312 q -0.15625,0 -0.3125,-0.0156 -0.14063,0 -0.29688,-0.0156 -0.29687,0.32813 -0.4375,0.64063 -0.125,0.3125 -0.125,0.6875 z m 6.46698,-1.5 v -0.53125 l 1.0625,-0.1875 q 0.0156,-0.5625 0.0156,-1.20313 0.0156,-0.65625 0.0156,-1.15625 v -0.70312 q 0,-0.59375 -0.0156,-0.98438 0,-0.40625 -0.0312,-0.84375 l -1.15625,-0.14062 v -0.51563 l 2.04687,-0.89062 0.21875,0.15625 0.17188,1.71875 q 0.35937,-0.875 0.9375,-1.375 0.57812,-0.5 1.17187,-0.5 0.32813,0 0.625,0.15625 0.29688,0.14062 0.42188,0.39062 0,1.0625 -0.85938,1.0625 -0.25,0 -0.46875,-0.0937 -0.21875,-0.0937 -0.42187,-0.26562 l -0.1875,-0.15625 q -0.4375,0.3125 -0.73438,0.78125 -0.28125,0.46875 -0.46875,1.10937 v 1.09375 q 0,0.48438 0,1.14063 0,0.64062 0.0156,1.1875 l 1.20312,0.21875 v 0.53125 z m 9.38111,-6.48438 q -0.40625,0 -0.82813,0.23438 -0.40625,0.23437 -0.71875,0.75 -0.29687,0.51562 -0.375,1.35937 h 2.65625 q 0.53125,0 0.70313,-0.21875 0.17187,-0.21875 0.17187,-0.53125 0,-0.42187 -0.21875,-0.78125 -0.21875,-0.35937 -0.57812,-0.57812 -0.35938,-0.23438 -0.8125,-0.23438 z m -0.0156,6.67188 q -1.46875,0 -2.375,-0.95313 -0.89062,-0.96875 -0.89062,-2.65625 0,-1.125 0.45312,-1.95312 0.46875,-0.84375 1.23438,-1.3125 0.78125,-0.46875 1.6875,-0.46875 0.76562,0 1.375,0.34375 0.625,0.32812 0.98437,0.95312 0.35938,0.625 0.35938,1.51563 0,0.25 -0.0312,0.46875 -0.0156,0.20312 -0.0625,0.35937 h -4.67188 q 0.0312,1.34375 0.67188,2.04688 0.64062,0.70312 1.70312,0.70312 0.70313,0 1.17188,-0.28125 0.46875,-0.28125 0.85937,-0.73437 l 0.34375,0.26562 q -0.40625,0.78125 -1.10937,1.25 -0.70313,0.45313 -1.70313,0.45313 z m 6.4903,0 q -0.625,0 -1.14063,-0.14063 -0.5,-0.14062 -1.04687,-0.40625 l -0.0625,-1.625 h 0.8125 l 0.26562,1.28125 q 0.51563,0.23438 1.1875,0.23438 0.84375,0 1.25,-0.29688 0.40625,-0.3125 0.40625,-0.8125 0,-0.46875 -0.34375,-0.75 -0.34375,-0.29687 -1.03125,-0.53125 l -0.67187,-0.25 q -0.79688,-0.29687 -1.28125,-0.76562 -0.48438,-0.46875 -0.48438,-1.20313 0,-0.54687 0.28125,-1.01562 0.29688,-0.46875 0.85938,-0.76563 0.57812,-0.29687 1.40625,-0.29687 0.59375,0 1.07812,0.15625 0.5,0.15625 0.96875,0.45312 l -0.0625,1.48438 h -0.75 l -0.23437,-1.17188 q -0.5,-0.25 -1.01563,-0.25 -0.67187,0 -1.01562,0.28125 -0.34375,0.26563 -0.34375,0.71875 0,0.48438 0.29687,0.73438 0.29688,0.25 1.04688,0.53125 l 0.45312,0.15625 q 1.09375,0.40625 1.5625,0.9375 0.46875,0.53125 0.46875,1.21875 0,0.5625 -0.32812,1.04687 -0.32813,0.46875 -0.95313,0.76563 -0.625,0.28125 -1.57812,0.28125 z m 6.36084,0 q -0.625,0 -1.14063,-0.14063 -0.5,-0.14062 -1.04687,-0.40625 l -0.0625,-1.625 h 0.8125 l 0.26562,1.28125 q 0.51563,0.23438 1.1875,0.23438 0.84375,0 1.25,-0.29688 0.40625,-0.3125 0.40625,-0.8125 0,-0.46875 -0.34375,-0.75 -0.34375,-0.29687 -1.03125,-0.53125 l -0.67187,-0.25 q -0.79688,-0.29687 -1.28125,-0.76562 -0.48438,-0.46875 -0.48438,-1.20313 0,-0.54687 0.28125,-1.01562 0.29688,-0.46875 0.85938,-0.76563 0.57812,-0.29687 1.40625,-0.29687 0.59375,0 1.07812,0.15625 0.5,0.15625 0.96875,0.45312 l -0.0625,1.48438 h -0.75 l -0.23437,-1.17188 q -0.5,-0.25 -1.01563,-0.25 -0.67187,0 -1.01562,0.28125 -0.34375,0.26563 -0.34375,0.71875 0,0.48438 0.29687,0.73438 0.29688,0.25 1.04688,0.53125 l 0.45312,0.15625 q 1.09375,0.40625 1.5625,0.9375 0.46875,0.53125 0.46875,1.21875 0,0.5625 -0.32812,1.04687 -0.32813,0.46875 -0.95313,0.76563 -0.625,0.28125 -1.57812,0.28125 z"
       id="path333"
       inkscape:connector-curvature="0"
       style="fill:#202122;fill-rule:nonzero" />
  </g>
</svg>
