<?xml version="1.0" encoding="UTF-8" standalone="no"?>
<svg
   version="1.1"
   viewBox="0 0 320.81104 89.440948"
   fill="none"
   stroke="none"
   stroke-linecap="square"
   stroke-miterlimit="10"
   id="svg543"
   sodipodi:docname="tutorial-module.svg"
   width="320.81104"
   height="89.440948"
   inkscape:version="1.1.2 (b8e25be8, 2022-02-05)"
   xmlns:inkscape="http://www.inkscape.org/namespaces/inkscape"
   xmlns:sodipodi="http://sodipodi.sourceforge.net/DTD/sodipodi-0.dtd"
   xmlns="http://www.w3.org/2000/svg"
   xmlns:svg="http://www.w3.org/2000/svg">
  <defs
     id="defs547" />
  <sodipodi:namedview
     id="namedview545"
     pagecolor="#ffffff"
     bordercolor="#666666"
     borderopacity="1.0"
     inkscape:pageshadow="2"
     inkscape:pageopacity="0.0"
     inkscape:pagecheckerboard="0"
     showgrid="false"
     inkscape:zoom="1.05"
     inkscape:cx="410"
     inkscape:cy="-76.666667"
     inkscape:window-width="1296"
     inkscape:window-height="969"
     inkscape:window-x="0"
     inkscape:window-y="25"
     inkscape:window-maximized="0"
     inkscape:current-layer="g541" />
  <clipPath
     id="g305443f3828_0_6.0">
    <path
       d="M 0,0 H 960 V 540 H 0 Z"
       clip-rule="nonzero"
       id="path2" />
  </clipPath>
  <g
     clip-path="url(#g305443f3828_0_6.0)"
     id="g541"
     transform="translate(-69.625984,-347.02493)">
    <path
       fill="#000000"
       fill-opacity="0"
       d="M 70.125984,347.52493 H 389.93702 v 88.44095 H 70.125984 Z"
       fill-rule="evenodd"
       id="path7" />
    <path
       fill="#d9d9d9"
       d="m 167.6811,358.87665 h 124.15749 v 76.50394 H 167.6811 Z"
       fill-rule="evenodd"
       id="path317" />
    <path
       stroke="#595959"
       stroke-width="1"
       stroke-linejoin="round"
       stroke-linecap="butt"
       d="m 167.6811,358.87665 h 124.15749 v 76.50394 H 167.6811 Z"
       fill-rule="evenodd"
       id="path319" />
    <path
       fill="#000000"
       fill-opacity="0"
       d="m 66.66247,372.4839 h 101.03937 v 14.86615 H 66.66247 Z"
       fill-rule="evenodd"
       id="path321" />
    <path
       fill="#202122"
       d="m 90.323326,384.65753 q -0.703125,0 -1.359375,-0.26563 -0.65625,-0.28125 -1.1875,-0.8125 -0.53125,-0.53125 -0.84375,-1.3125 -0.296875,-0.78125 -0.296875,-1.8125 0,-0.98437 0.3125,-1.76562 0.3125,-0.78125 0.828125,-1.3125 0.53125,-0.54688 1.1875,-0.82813 0.65625,-0.28125 1.359375,-0.28125 0.6875,0 1.34375,0.26563 0.65625,0.26562 1.171875,0.79687 0.53125,0.53125 0.84375,1.3125 0.3125,0.78125 0.3125,1.8125 0,0.98438 -0.3125,1.76563 -0.296875,0.78125 -0.828125,1.32812 -0.515625,0.53125 -1.1875,0.82813 -0.65625,0.28125 -1.34375,0.28125 z m 0,-0.60938 q 0.625,0 1.0625,-0.29687 0.453125,-0.3125 0.734375,-0.8125 0.296875,-0.51563 0.421875,-1.15625 0.125,-0.65625 0.125,-1.32813 0,-0.67187 -0.125,-1.3125 -0.125,-0.64062 -0.421875,-1.15625 -0.28125,-0.53125 -0.734375,-0.82812 -0.4375,-0.29688 -1.0625,-0.29688 -0.625,0 -1.078125,0.29688 -0.453125,0.29687 -0.75,0.82812 -0.28125,0.51563 -0.421875,1.15625 -0.125,0.64063 -0.125,1.3125 0,0.67188 0.125,1.32813 0.140625,0.64062 0.421875,1.15625 0.296875,0.5 0.75,0.8125 0.453125,0.29687 1.078125,0.29687 z m 4.65593,3.29688 v -0.42188 l 0.953125,-0.17187 q 0.01563,-0.5 0.01563,-0.98438 0.01563,-0.48437 0.01563,-0.95312 v -3.4375 q 0,-0.5 -0.01563,-0.8125 0,-0.32813 -0.01563,-0.6875 l -0.953125,-0.10938 v -0.42187 l 1.671875,-0.73438 0.1875,0.125 0.07813,0.78125 q 0.84375,-0.90625 1.796875,-0.90625 0.65625,0 1.171875,0.35938 0.515619,0.35937 0.812499,1.03125 0.3125,0.67187 0.3125,1.59375 0,0.9375 -0.32813,1.60937 -0.3125,0.67188 -0.874994,1.04688 -0.5625,0.375 -1.265625,0.375 -0.40625,0 -0.8125,-0.17188 -0.40625,-0.17187 -0.78125,-0.60937 v 0.95312 q 0,0.46875 0,0.95313 0.01563,0.5 0.01563,0.98437 l 1.09375,0.1875 v 0.42188 z m 3.453125,-8.04688 q -0.28125,0 -0.640625,0.14063 -0.359375,0.14062 -0.8125,0.51562 v 3.375 q 0.34375,0.32813 0.65625,0.46875 0.328125,0.14063 0.671875,0.14063 0.671875,0 1.140625,-0.53125 0.484375,-0.54688 0.484375,-1.70313 0,-1.15625 -0.421875,-1.78125 -0.421875,-0.625 -1.078125,-0.625 z m 5.454179,5.32813 q -0.60938,0 -0.98438,-0.32813 -0.375,-0.34375 -0.375,-1.04687 0,-0.21875 0,-0.4375 0.0156,-0.23438 0.0156,-0.57813 v -2.82812 h -1 v -0.53125 l 1.0625,-0.125 0.3125,-1.60938 h 0.71875 l -0.0625,1.625 h 1.60937 v 0.64063 h -1.625 v 3.71875 q 0,0.45312 0.17188,0.67187 0.1875,0.20313 0.48437,0.20313 0.20313,0 0.39063,-0.0781 0.1875,-0.0937 0.42187,-0.25 l 0.28125,0.3125 q -0.48437,0.64063 -1.42187,0.64063 z m 1.86877,-0.15625 v -0.4375 l 0.89063,-0.15625 q 0.0156,-0.46875 0.0156,-1 0.0156,-0.53125 0.0156,-0.92188 v -0.5625 q 0,-0.5 -0.0156,-0.82812 0,-0.32813 -0.0156,-0.6875 l -0.96875,-0.10938 v -0.42187 l 1.85937,-0.73438 0.17188,0.125 -0.0312,1.625 v 1.59375 q 0,0.39063 0,0.92188 0.0156,0.53125 0.0156,1 l 0.84375,0.15625 v 0.4375 z m 1.42188,-7.17188 q -0.34375,0 -0.57813,-0.21875 -0.23437,-0.21875 -0.23437,-0.54687 0,-0.35938 0.23437,-0.5625 0.23438,-0.21875 0.57813,-0.21875 0.32812,0 0.5625,0.21875 0.23437,0.20312 0.23437,0.5625 0,0.32812 -0.23437,0.54687 -0.23438,0.21875 -0.5625,0.21875 z m 5.01352,7.32813 q -0.6875,0 -1.32813,-0.32813 -0.625,-0.32812 -1.01562,-1 -0.39063,-0.67187 -0.39063,-1.64062 0,-1 0.39063,-1.67188 0.39062,-0.6875 1.01562,-1.03125 0.64063,-0.34375 1.32813,-0.34375 0.70312,0 1.32812,0.34375 0.64063,0.34375 1.03125,1.03125 0.40625,0.67188 0.40625,1.67188 0,0.96875 -0.40625,1.64062 -0.39062,0.67188 -1.03125,1 -0.625,0.32813 -1.32812,0.32813 z m 0,-0.54688 q 0.78125,0 1.20312,-0.60937 0.42188,-0.625 0.42188,-1.8125 0,-1.21875 -0.42188,-1.84375 -0.42187,-0.64063 -1.20312,-0.64063 -0.76563,0 -1.1875,0.64063 -0.40625,0.625 -0.40625,1.84375 0,1.1875 0.40625,1.8125 0.42187,0.60937 1.1875,0.60937 z m 3.79117,0.39063 v -0.4375 l 0.89062,-0.15625 q 0,-0.46875 0,-0.98438 0.0156,-0.53125 0.0156,-0.9375 v -0.57812 q 0,-0.5 -0.0156,-0.8125 0,-0.32813 -0.0156,-0.6875 l -0.95313,-0.10938 v -0.42187 l 1.6875,-0.73438 0.17188,0.125 0.0937,0.95313 q 0.45312,-0.46875 1.01562,-0.76563 0.57813,-0.3125 1.14063,-0.3125 0.78125,0 1.15625,0.53125 0.375,0.51563 0.375,1.6875 v 1.125 q 0,0.40625 0,0.9375 0.0156,0.51563 0.0312,0.98438 l 0.82812,0.15625 v 0.4375 h -2.78125 v -0.4375 l 0.89063,-0.15625 q 0.0156,-0.45313 0.0156,-0.98438 0.0156,-0.53125 0.0156,-0.9375 v -1.03125 q 0,-0.82812 -0.23438,-1.125 -0.23437,-0.3125 -0.76562,-0.3125 -0.40625,0 -0.79688,0.17188 -0.375,0.15625 -0.84375,0.54687 v 1.75 q 0,0.39063 0,0.92188 0.0156,0.53125 0.0312,1 l 0.82813,0.15625 v 0.4375 z m 7.47517,-3.67188 v -0.5625 l 4.64063,-2.70312 0.35938,0.65625 -4.15626,2.32812 4.15626,2.32813 -0.35938,0.65625 z m 6.2158,-3.85937 v -0.5 h 3.39062 v 0.5 l -1.10937,0.125 q 0,0.76562 -0.0156,1.54687 0,0.76563 0,1.54688 v 0.59375 q 0,0.76562 0,1.54687 0.0156,0.76563 0.0156,1.54688 l 1.10937,0.14062 v 0.48438 h -3.39062 v -0.48438 l 1.09375,-0.14062 q 0.0312,-0.75 0.0312,-1.53125 0,-0.78125 0,-1.5625 v -0.59375 q 0,-0.78125 0,-1.54688 0,-0.78125 -0.0312,-1.54687 z m 9.46765,0 v -0.5 h 3.375 v 0.5 l -1.09375,0.125 q -0.0156,0.76562 -0.0312,1.54687 0,0.76563 0,1.54688 v 0.59375 q 0,0.76562 0,1.54687 0.0156,0.76563 0.0312,1.54688 l 1.09375,0.14062 v 0.48438 h -3.375 v -0.48438 l 1.09375,-0.14062 q 0.0312,-0.76563 0.0312,-1.5625 0,-0.79688 0,-1.64063 h -3.875 q 0,0.90625 0,1.6875 0.0156,0.78125 0.0156,1.53125 l 1.09375,0.125 v 0.48438 h -3.375 v -0.48438 l 1.09375,-0.14062 q 0.0312,-0.75 0.0312,-1.53125 0,-0.78125 0,-1.5625 v -0.59375 q 0,-0.78125 0,-1.54688 0,-0.78125 -0.0312,-1.54687 l -1.09375,-0.125 v -0.5 h 3.375 v 0.5 l -1.09375,0.10937 q 0,0.78125 -0.0156,1.54688 0,0.76562 0,1.48437 h 3.875 q 0,-0.79687 0,-1.53125 0,-0.75 -0.0312,-1.48437 z m 5.71806,3.32812 q -0.35937,0 -0.60937,-0.25 -0.23438,-0.25 -0.23438,-0.60937 0,-0.35938 0.23438,-0.60938 0.25,-0.25 0.60937,-0.25 0.35938,0 0.60938,0.25 0.25,0.25 0.25,0.60938 0,0.35937 -0.25,0.60937 -0.25,0.25 -0.60938,0.25 z m 0,4.35938 q -0.35937,0 -0.60937,-0.25 -0.23438,-0.25 -0.23438,-0.60938 0,-0.35937 0.23438,-0.60937 0.25,-0.25 0.60937,-0.25 0.35938,0 0.60938,0.25 0.25,0.25 0.25,0.60937 0,0.35938 -0.25,0.60938 -0.25,0.25 -0.60938,0.25 z m 3.60002,-4.35938 q -0.35937,0 -0.60937,-0.25 -0.23438,-0.25 -0.23438,-0.60937 0,-0.35938 0.23438,-0.60938 0.25,-0.25 0.60937,-0.25 0.35938,0 0.60938,0.25 0.25,0.25 0.25,0.60938 0,0.35937 -0.25,0.60937 -0.25,0.25 -0.60938,0.25 z m 0,4.35938 q -0.35937,0 -0.60937,-0.25 -0.23438,-0.25 -0.23438,-0.60938 0,-0.35937 0.23438,-0.60937 0.25,-0.25 0.60937,-0.25 0.35938,0 0.60938,0.25 0.25,0.25 0.25,0.60937 0,0.35938 -0.25,0.60938 -0.25,0.25 -0.60938,0.25 z m 5.35002,-7.625 h -0.73437 q 0,0.76562 -0.0156,1.5625 0,0.79687 0,1.59375 v 0.57812 h 0.79688 q 1.09375,0 1.54687,-0.53125 0.46875,-0.53125 0.46875,-1.375 0,-0.875 -0.5,-1.34375 -0.48437,-0.48437 -1.5625,-0.48437 z m -3.01562,-0.0625 v -0.5 h 3.21875 q 1.53125,0 2.28125,0.67187 0.76562,0.65625 0.76562,1.71875 0,0.67188 -0.34375,1.23438 -0.32812,0.5625 -1.0625,0.90625 -0.73437,0.32812 -1.96875,0.32812 h -0.625 q 0,0.65625 0,1.28125 0.0156,0.625 0.0156,1.26563 l 1.125,0.14062 v 0.48438 H 150.793 v -0.48438 l 1.09375,-0.14062 q 0.0312,-0.75 0.0312,-1.53125 0,-0.78125 0,-1.5625 v -0.59375 q 0,-0.78125 0,-1.54688 0,-0.78125 -0.0312,-1.54687 z m 12.2243,3.29687 v 0.5625 l -4.64062,2.70313 -0.35938,-0.65625 4.15625,-2.32813 -4.15625,-2.32812 0.35938,-0.65625 z"
       fill-rule="nonzero"
       id="path323" />
    <path
       fill="#000000"
       fill-opacity="0"
       d="m 105.72131,390.56137 h 61.94331"
       fill-rule="evenodd"
       id="path325" />
    <path
       stroke="#595959"
       stroke-width="2"
       stroke-linejoin="round"
       stroke-linecap="butt"
       d="m 105.72131,390.5614 h 49.94331"
       fill-rule="evenodd"
       id="path327" />
    <path
       fill="#595959"
       stroke="#595959"
       stroke-width="2"
       stroke-linecap="butt"
       d="m 155.66463,393.86487 9.07619,-3.30347 -9.07619,-3.30346 z"
       fill-rule="evenodd"
       id="path329" />
    <path
       fill="#000000"
       fill-opacity="0"
       d="m 105.72131,384.61057 h 22.29959 v 11.90161 h -22.29959 z"
       fill-rule="evenodd"
       id="path331" />
    <path
       fill="#000000"
       fill-opacity="0"
       d="m 145.33986,384.61057 h 22.29959 v 11.90161 h -22.29959 z"
       fill-rule="evenodd"
       id="path333" />
    <path
       fill="#000000"
       fill-opacity="0"
       d="m 167.66376,420.40683 h -61.9433"
       fill-rule="evenodd"
       id="path335" />
    <path
       stroke="#1c4587"
       stroke-width="2"
       stroke-linejoin="round"
       stroke-linecap="butt"
       d="M 167.66377,420.40683 H 117.72045"
       fill-rule="evenodd"
       id="path337" />
    <path
       fill="#1c4587"
       stroke="#1c4587"
       stroke-width="2"
       stroke-linecap="butt"
       d="m 117.72045,417.10336 -9.07619,3.30347 9.07619,3.30346 z"
       fill-rule="evenodd"
       id="path339" />
    <path
       fill="#000000"
       fill-opacity="0"
       d="m 105.74689,414.45605 h 22.2996 v 11.90158 h -22.2996 z"
       fill-rule="evenodd"
       id="path341" />
    <path
       fill="#000000"
       fill-opacity="0"
       d="m 145.36504,414.45605 h 22.29959 v 11.90158 h -22.29959 z"
       fill-rule="evenodd"
       id="path343" />
    <path
       fill="#000000"
       fill-opacity="0"
       d="m 291.8402,390.56137 h 61.96851"
       fill-rule="evenodd"
       id="path345" />
    <path
       stroke="#595959"
       stroke-width="2"
       stroke-linejoin="round"
       stroke-linecap="butt"
       d="m 291.8402,390.5614 h 49.96851"
       fill-rule="evenodd"
       id="path347" />
    <path
       fill="#595959"
       stroke="#595959"
       stroke-width="2"
       stroke-linecap="butt"
       d="m 341.80872,393.86487 9.0762,-3.30347 -9.0762,-3.30346 z"
       fill-rule="evenodd"
       id="path349" />
    <path
       fill="#000000"
       fill-opacity="0"
       d="m 291.8402,384.61057 h 22.30865 v 11.90161 H 291.8402 Z"
       fill-rule="evenodd"
       id="path351" />
    <path
       fill="#000000"
       fill-opacity="0"
       d="m 331.47485,384.61057 h 22.30869 v 11.90161 h -22.30869 z"
       fill-rule="evenodd"
       id="path353" />
    <path
       fill="#000000"
       fill-opacity="0"
       d="M 353.80786,420.40683 H 291.83935"
       fill-rule="evenodd"
       id="path355" />
    <path
       stroke="#1c4587"
       stroke-width="2"
       stroke-linejoin="round"
       stroke-linecap="butt"
       d="M 353.80786,420.40683 H 303.83935"
       fill-rule="evenodd"
       id="path357" />
    <path
       fill="#1c4587"
       stroke="#1c4587"
       stroke-width="2"
       stroke-linecap="butt"
       d="m 303.83936,417.10336 -9.0762,3.30347 9.0762,3.30346 z"
       fill-rule="evenodd"
       id="path359" />
    <path
       fill="#000000"
       fill-opacity="0"
       d="m 291.8658,414.45605 h 22.30865 v 11.90158 H 291.8658 Z"
       fill-rule="evenodd"
       id="path361" />
    <path
       fill="#000000"
       fill-opacity="0"
       d="m 331.50006,414.45605 h 22.30865 v 11.90158 h -22.30865 z"
       fill-rule="evenodd"
       id="path363" />
    <path
       fill="#000000"
       fill-opacity="0"
       d="m 66.63789,401.3027 h 101.03937 v 14.86615 H 66.63789 Z"
       fill-rule="evenodd"
       id="path365" />
    <path
       fill="#202122"
       d="m 135.27632,405.7576 v -0.5 h 3.39062 v 0.5 l -1.10937,0.125 q 0,0.76563 -0.0156,1.54688 0,0.76562 0,1.54687 v 0.59375 q 0,0.76563 0,1.54688 0.0156,0.76562 0.0156,1.54687 l 1.10937,0.14063 v 0.48437 h -3.39062 v -0.48437 l 1.09375,-0.14063 q 0.0312,-0.75 0.0312,-1.53125 0,-0.78125 0,-1.5625 v -0.59375 q 0,-0.78125 0,-1.54687 0,-0.78125 -0.0312,-1.54688 z m 9.46765,0 v -0.5 h 3.375 v 0.5 l -1.09375,0.125 q -0.0156,0.76563 -0.0312,1.54688 0,0.76562 0,1.54687 v 0.59375 q 0,0.76563 0,1.54688 0.0156,0.76562 0.0312,1.54687 l 1.09375,0.14063 v 0.48437 h -3.375 v -0.48437 l 1.09375,-0.14063 q 0.0312,-0.76562 0.0312,-1.5625 0,-0.79687 0,-1.64062 h -3.875 q 0,0.90625 0,1.6875 0.0156,0.78125 0.0156,1.53125 l 1.09375,0.125 v 0.48437 h -3.375 v -0.48437 l 1.09375,-0.14063 q 0.0312,-0.75 0.0312,-1.53125 0,-0.78125 0,-1.5625 v -0.59375 q 0,-0.78125 0,-1.54687 0,-0.78125 -0.0312,-1.54688 l -1.09375,-0.125 v -0.5 h 3.375 v 0.5 l -1.09375,0.10938 q 0,0.78125 -0.0156,1.54687 0,0.76563 0,1.48438 h 3.875 q 0,-0.79688 0,-1.53125 0,-0.75 -0.0312,-1.48438 z m 5.71806,3.32813 q -0.35937,0 -0.60937,-0.25 -0.23438,-0.25 -0.23438,-0.60938 0,-0.35937 0.23438,-0.60937 0.25,-0.25 0.60937,-0.25 0.35938,0 0.60938,0.25 0.25,0.25 0.25,0.60937 0,0.35938 -0.25,0.60938 -0.25,0.25 -0.60938,0.25 z m 0,4.35937 q -0.35937,0 -0.60937,-0.25 -0.23438,-0.25 -0.23438,-0.60937 0,-0.35938 0.23438,-0.60938 0.25,-0.25 0.60937,-0.25 0.35938,0 0.60938,0.25 0.25,0.25 0.25,0.60938 0,0.35937 -0.25,0.60937 -0.25,0.25 -0.60938,0.25 z m 3.60003,-4.35937 q -0.35938,0 -0.60938,-0.25 -0.23437,-0.25 -0.23437,-0.60938 0,-0.35937 0.23437,-0.60937 0.25,-0.25 0.60938,-0.25 0.35937,0 0.60937,0.25 0.25,0.25 0.25,0.60937 0,0.35938 -0.25,0.60938 -0.25,0.25 -0.60937,0.25 z m 0,4.35937 q -0.35938,0 -0.60938,-0.25 -0.23437,-0.25 -0.23437,-0.60937 0,-0.35938 0.23437,-0.60938 0.25,-0.25 0.60938,-0.25 0.35937,0 0.60937,0.25 0.25,0.25 0.25,0.60938 0,0.35937 -0.25,0.60937 -0.25,0.25 -0.60937,0.25 z m 5.66252,-7.625 h -1.04688 q 0,0.78125 -0.0156,1.57813 0,0.78125 0,1.625 h 0.92187 q 0.96875,0 1.42188,-0.46875 0.46875,-0.46875 0.46875,-1.1875 0,-0.75 -0.42188,-1.14063 -0.40625,-0.40625 -1.32812,-0.40625 z m -3.32813,-0.0625 v -0.5 h 3.35938 q 1.375,0 2.14062,0.5625 0.76563,0.54688 0.76563,1.54688 0,0.6875 -0.5,1.26562 -0.5,0.57813 -1.51563,0.75 0.53125,0.10938 0.875,0.46875 0.34375,0.35938 0.54688,1.0625 l 0.51562,1.78125 0.92188,0.10938 v 0.48437 q -0.17188,0.0469 -0.40625,0.0781 -0.21875,0.0469 -0.48438,0.0469 -0.5625,0 -0.85937,-0.17187 -0.28125,-0.17188 -0.375,-0.59375 l -0.48438,-1.92188 q -0.10937,-0.5 -0.3125,-0.73437 -0.20312,-0.25 -0.53125,-0.32813 -0.3125,-0.0937 -0.79687,-0.0937 h -0.59375 q 0,0.85938 0,1.625 0.0156,0.75 0.0156,1.46875 l 1.10938,0.14063 v 0.48437 h -3.39063 v -0.48437 l 1.09375,-0.14063 q 0.0312,-0.75 0.0312,-1.53125 0,-0.78125 0,-1.5625 v -0.59375 q 0,-0.78125 0,-1.54687 0,-0.78125 -0.0312,-1.54688 z"
       fill-rule="nonzero"
       id="path367" />
    <path
       fill="#000000"
       fill-opacity="0"
       d="m 291.8399,372.4839 h 101.03937 v 14.86615 H 291.8399 Z"
       fill-rule="evenodd"
       id="path369" />
    <path
       fill="#202122"
       d="m 300.0899,384.65753 q -0.70313,0 -1.35938,-0.26563 -0.65625,-0.28125 -1.1875,-0.8125 -0.53125,-0.53125 -0.84375,-1.3125 -0.29687,-0.78125 -0.29687,-1.8125 0,-0.98437 0.3125,-1.76562 0.3125,-0.78125 0.82812,-1.3125 0.53125,-0.54688 1.1875,-0.82813 0.65625,-0.28125 1.35938,-0.28125 0.6875,0 1.34375,0.26563 0.65625,0.26562 1.17187,0.79687 0.53125,0.53125 0.84375,1.3125 0.3125,0.78125 0.3125,1.8125 0,0.98438 -0.3125,1.76563 -0.29687,0.78125 -0.82812,1.32812 -0.51563,0.53125 -1.1875,0.82813 -0.65625,0.28125 -1.34375,0.28125 z m 0,-0.60938 q 0.625,0 1.0625,-0.29687 0.45312,-0.3125 0.73437,-0.8125 0.29688,-0.51563 0.42188,-1.15625 0.125,-0.65625 0.125,-1.32813 0,-0.67187 -0.125,-1.3125 -0.125,-0.64062 -0.42188,-1.15625 -0.28125,-0.53125 -0.73437,-0.82812 -0.4375,-0.29688 -1.0625,-0.29688 -0.625,0 -1.07813,0.29688 -0.45312,0.29687 -0.75,0.82812 -0.28125,0.51563 -0.42187,1.15625 -0.125,0.64063 -0.125,1.3125 0,0.67188 0.125,1.32813 0.14062,0.64062 0.42187,1.15625 0.29688,0.5 0.75,0.8125 0.45313,0.29687 1.07813,0.29687 z m 4.65591,3.29688 v -0.42188 l 0.95313,-0.17187 q 0.0156,-0.5 0.0156,-0.98438 0.0156,-0.48437 0.0156,-0.95312 v -3.4375 q 0,-0.5 -0.0156,-0.8125 0,-0.32813 -0.0156,-0.6875 l -0.95313,-0.10938 v -0.42187 l 1.67188,-0.73438 0.1875,0.125 0.0781,0.78125 q 0.84375,-0.90625 1.79688,-0.90625 0.65625,0 1.17187,0.35938 0.51563,0.35937 0.8125,1.03125 0.3125,0.67187 0.3125,1.59375 0,0.9375 -0.32812,1.60937 -0.3125,0.67188 -0.875,1.04688 -0.5625,0.375 -1.26563,0.375 -0.40625,0 -0.8125,-0.17188 -0.40625,-0.17187 -0.78125,-0.60937 v 0.95312 q 0,0.46875 0,0.95313 0.0156,0.5 0.0156,0.98437 l 1.09375,0.1875 v 0.42188 z m 3.45313,-8.04688 q -0.28125,0 -0.64063,0.14063 -0.35937,0.14062 -0.8125,0.51562 v 3.375 q 0.34375,0.32813 0.65625,0.46875 0.32813,0.14063 0.67188,0.14063 0.67187,0 1.14062,-0.53125 0.48438,-0.54688 0.48438,-1.70313 0,-1.15625 -0.42188,-1.78125 -0.42187,-0.625 -1.07812,-0.625 z m 5.45419,5.32813 q -0.60937,0 -0.98437,-0.32813 -0.375,-0.34375 -0.375,-1.04687 0,-0.21875 0,-0.4375 0.0156,-0.23438 0.0156,-0.57813 v -2.82812 h -1 v -0.53125 l 1.0625,-0.125 0.3125,-1.60938 h 0.71875 l -0.0625,1.625 h 1.60938 v 0.64063 h -1.625 v 3.71875 q 0,0.45312 0.17187,0.67187 0.1875,0.20313 0.48438,0.20313 0.20312,0 0.39062,-0.0781 0.1875,-0.0937 0.42188,-0.25 l 0.28125,0.3125 q -0.48438,0.64063 -1.42188,0.64063 z m 1.86878,-0.15625 v -0.4375 l 0.89062,-0.15625 q 0.0156,-0.46875 0.0156,-1 0.0156,-0.53125 0.0156,-0.92188 v -0.5625 q 0,-0.5 -0.0156,-0.82812 0,-0.32813 -0.0156,-0.6875 l -0.96875,-0.10938 v -0.42187 l 1.85938,-0.73438 0.17187,0.125 -0.0312,1.625 v 1.59375 q 0,0.39063 0,0.92188 0.0156,0.53125 0.0156,1 l 0.84375,0.15625 v 0.4375 z m 1.42187,-7.17188 q -0.34375,0 -0.57812,-0.21875 -0.23438,-0.21875 -0.23438,-0.54687 0,-0.35938 0.23438,-0.5625 0.23437,-0.21875 0.57812,-0.21875 0.32813,0 0.5625,0.21875 0.23438,0.20312 0.23438,0.5625 0,0.32812 -0.23438,0.54687 -0.23437,0.21875 -0.5625,0.21875 z m 5.01352,7.32813 q -0.6875,0 -1.32812,-0.32813 -0.625,-0.32812 -1.01563,-1 -0.39062,-0.67187 -0.39062,-1.64062 0,-1 0.39062,-1.67188 0.39063,-0.6875 1.01563,-1.03125 0.64062,-0.34375 1.32812,-0.34375 0.70313,0 1.32813,0.34375 0.64062,0.34375 1.03125,1.03125 0.40625,0.67188 0.40625,1.67188 0,0.96875 -0.40625,1.64062 -0.39063,0.67188 -1.03125,1 -0.625,0.32813 -1.32813,0.32813 z m 0,-0.54688 q 0.78125,0 1.20313,-0.60937 0.42187,-0.625 0.42187,-1.8125 0,-1.21875 -0.42187,-1.84375 -0.42188,-0.64063 -1.20313,-0.64063 -0.76562,0 -1.1875,0.64063 -0.40625,0.625 -0.40625,1.84375 0,1.1875 0.40625,1.8125 0.42188,0.60937 1.1875,0.60937 z m 3.79117,0.39063 v -0.4375 l 0.89062,-0.15625 q 0,-0.46875 0,-0.98438 0.0156,-0.53125 0.0156,-0.9375 v -0.57812 q 0,-0.5 -0.0156,-0.8125 0,-0.32813 -0.0156,-0.6875 l -0.95313,-0.10938 v -0.42187 l 1.6875,-0.73438 0.17188,0.125 0.0937,0.95313 q 0.45312,-0.46875 1.01562,-0.76563 0.57813,-0.3125 1.14063,-0.3125 0.78125,0 1.15625,0.53125 0.375,0.51563 0.375,1.6875 v 1.125 q 0,0.40625 0,0.9375 0.0156,0.51563 0.0312,0.98438 l 0.82812,0.15625 v 0.4375 h -2.78125 v -0.4375 l 0.89063,-0.15625 q 0.0156,-0.45313 0.0156,-0.98438 0.0156,-0.53125 0.0156,-0.9375 v -1.03125 q 0,-0.82812 -0.23438,-1.125 -0.23437,-0.3125 -0.76562,-0.3125 -0.40625,0 -0.79688,0.17188 -0.375,0.15625 -0.84375,0.54687 v 1.75 q 0,0.39063 0,0.92188 0.0156,0.53125 0.0312,1 l 0.82813,0.15625 v 0.4375 z m 7.47516,-3.67188 v -0.5625 l 4.64062,-2.70312 0.35938,0.65625 -4.15625,2.32812 4.15625,2.32813 -0.35938,0.65625 z m 6.21579,-3.85937 v -0.5 h 5.96875 l 0.0937,2.125 h -0.6875 l -0.26563,-1.51563 h -2.82812 q 0,0.76563 -0.0156,1.53125 0,0.76563 0,1.51563 h 1.76563 l 0.17187,-1.14063 h 0.54688 v 2.82813 h -0.54688 l -0.15625,-1.125 h -1.78125 q 0,0.89062 0,1.6875 0.0156,0.78125 0.0156,1.53125 h 3.0625 l 0.26562,-1.54688 h 0.6875 l -0.0781,2.14063 h -6.21875 v -0.48438 l 1.09375,-0.14062 q 0.0312,-0.75 0.0312,-1.53125 0,-0.78125 0,-1.5625 v -0.59375 q 0,-0.78125 0,-1.54688 0,-0.78125 -0.0312,-1.54687 z m 12.25168,0 v -0.5 h 3.375 v 0.5 l -1.09375,0.125 q -0.0156,0.76562 -0.0312,1.54687 0,0.76563 0,1.54688 v 0.59375 q 0,0.76562 0,1.54687 0.0156,0.76563 0.0312,1.54688 l 1.09375,0.14062 v 0.48438 h -3.375 v -0.48438 l 1.09375,-0.14062 q 0.0312,-0.76563 0.0312,-1.5625 0,-0.79688 0,-1.64063 h -3.875 q 0,0.90625 0,1.6875 0.0156,0.78125 0.0156,1.53125 l 1.09375,0.125 v 0.48438 h -3.375 v -0.48438 l 1.09375,-0.14062 q 0.0312,-0.75 0.0312,-1.53125 0,-0.78125 0,-1.5625 v -0.59375 q 0,-0.78125 0,-1.54688 0,-0.78125 -0.0312,-1.54687 l -1.09375,-0.125 v -0.5 h 3.375 v 0.5 l -1.09375,0.10937 q 0,0.78125 -0.0156,1.54688 0,0.76562 0,1.48437 h 3.875 q 0,-0.79687 0,-1.53125 0,-0.75 -0.0312,-1.48437 z m 5.71807,3.32812 q -0.35937,0 -0.60937,-0.25 -0.23438,-0.25 -0.23438,-0.60937 0,-0.35938 0.23438,-0.60938 0.25,-0.25 0.60937,-0.25 0.35938,0 0.60938,0.25 0.25,0.25 0.25,0.60938 0,0.35937 -0.25,0.60937 -0.25,0.25 -0.60938,0.25 z m 0,4.35938 q -0.35937,0 -0.60937,-0.25 -0.23438,-0.25 -0.23438,-0.60938 0,-0.35937 0.23438,-0.60937 0.25,-0.25 0.60937,-0.25 0.35938,0 0.60938,0.25 0.25,0.25 0.25,0.60937 0,0.35938 -0.25,0.60938 -0.25,0.25 -0.60938,0.25 z m 3.60001,-4.35938 q -0.35937,0 -0.60937,-0.25 -0.23438,-0.25 -0.23438,-0.60937 0,-0.35938 0.23438,-0.60938 0.25,-0.25 0.60937,-0.25 0.35938,0 0.60938,0.25 0.25,0.25 0.25,0.60938 0,0.35937 -0.25,0.60937 -0.25,0.25 -0.60938,0.25 z m 0,4.35938 q -0.35937,0 -0.60937,-0.25 -0.23438,-0.25 -0.23438,-0.60938 0,-0.35937 0.23438,-0.60937 0.25,-0.25 0.60937,-0.25 0.35938,0 0.60938,0.25 0.25,0.25 0.25,0.60937 0,0.35938 -0.25,0.60938 -0.25,0.25 -0.60938,0.25 z m 5.35004,-7.625 h -0.73438 q 0,0.76562 -0.0156,1.5625 0,0.79687 0,1.59375 v 0.57812 h 0.79687 q 1.09375,0 1.54688,-0.53125 0.46875,-0.53125 0.46875,-1.375 0,-0.875 -0.5,-1.34375 -0.48438,-0.48437 -1.5625,-0.48437 z m -3.01563,-0.0625 v -0.5 h 3.21875 q 1.53125,0 2.28125,0.67187 0.76563,0.65625 0.76563,1.71875 0,0.67188 -0.34375,1.23438 -0.32813,0.5625 -1.0625,0.90625 -0.73438,0.32812 -1.96875,0.32812 h -0.625 q 0,0.65625 0,1.28125 0.0156,0.625 0.0156,1.26563 l 1.125,0.14062 v 0.48438 h -3.40625 v -0.48438 l 1.09375,-0.14062 q 0.0312,-0.75 0.0312,-1.53125 0,-0.78125 0,-1.5625 v -0.59375 q 0,-0.78125 0,-1.54688 0,-0.78125 -0.0312,-1.54687 z m 12.22431,3.29687 v 0.5625 l -4.64063,2.70313 -0.35937,-0.65625 4.15625,-2.32813 -4.15625,-2.32812 0.35937,-0.65625 z"
       fill-rule="nonzero"
       id="path371" />
    <path
       fill="#000000"
       fill-opacity="0"
       d="m 291.8399,401.3027 h 101.03937 v 14.86615 H 291.8399 Z"
       fill-rule="evenodd"
       id="path373" />
    <path
       fill="#202122"
       d="m 296.37115,405.7576 v -0.5 h 5.96875 l 0.0937,2.125 h -0.6875 l -0.26563,-1.51562 h -2.82812 q 0,0.76562 -0.0156,1.53125 0,0.76562 0,1.51562 h 1.76563 l 0.17187,-1.14062 h 0.54688 v 2.82812 h -0.54688 l -0.15625,-1.125 h -1.78125 q 0,0.89063 0,1.6875 0.0156,0.78125 0.0156,1.53125 h 3.0625 l 0.26562,-1.54687 h 0.6875 l -0.0781,2.14062 h -6.21875 v -0.48437 l 1.09375,-0.14063 q 0.0312,-0.75 0.0312,-1.53125 0,-0.78125 0,-1.5625 v -0.59375 q 0,-0.78125 0,-1.54687 0,-0.78125 -0.0312,-1.54688 z m 12.25168,0 v -0.5 h 3.375 v 0.5 l -1.09375,0.125 q -0.0156,0.76563 -0.0312,1.54688 0,0.76562 0,1.54687 v 0.59375 q 0,0.76563 0,1.54688 0.0156,0.76562 0.0312,1.54687 l 1.09375,0.14063 v 0.48437 h -3.375 v -0.48437 l 1.09375,-0.14063 q 0.0312,-0.76562 0.0312,-1.5625 0,-0.79687 0,-1.64062 h -3.875 q 0,0.90625 0,1.6875 0.0156,0.78125 0.0156,1.53125 l 1.09375,0.125 v 0.48437 h -3.375 v -0.48437 l 1.09375,-0.14063 q 0.0312,-0.75 0.0312,-1.53125 0,-0.78125 0,-1.5625 v -0.59375 q 0,-0.78125 0,-1.54687 0,-0.78125 -0.0312,-1.54688 l -1.09375,-0.125 v -0.5 h 3.375 v 0.5 l -1.09375,0.10938 q 0,0.78125 -0.0156,1.54687 0,0.76563 0,1.48438 h 3.875 q 0,-0.79688 0,-1.53125 0,-0.75 -0.0312,-1.48438 z m 5.71805,3.32813 q -0.35938,0 -0.60938,-0.25 -0.23437,-0.25 -0.23437,-0.60938 0,-0.35937 0.23437,-0.60937 0.25,-0.25 0.60938,-0.25 0.35937,0 0.60937,0.25 0.25,0.25 0.25,0.60937 0,0.35938 -0.25,0.60938 -0.25,0.25 -0.60937,0.25 z m 0,4.35937 q -0.35938,0 -0.60938,-0.25 -0.23437,-0.25 -0.23437,-0.60937 0,-0.35938 0.23437,-0.60938 0.25,-0.25 0.60938,-0.25 0.35937,0 0.60937,0.25 0.25,0.25 0.25,0.60938 0,0.35937 -0.25,0.60937 -0.25,0.25 -0.60937,0.25 z m 3.60003,-4.35937 q -0.35937,0 -0.60937,-0.25 -0.23438,-0.25 -0.23438,-0.60938 0,-0.35937 0.23438,-0.60937 0.25,-0.25 0.60937,-0.25 0.35938,0 0.60938,0.25 0.25,0.25 0.25,0.60937 0,0.35938 -0.25,0.60938 -0.25,0.25 -0.60938,0.25 z m 0,4.35937 q -0.35937,0 -0.60937,-0.25 -0.23438,-0.25 -0.23438,-0.60937 0,-0.35938 0.23438,-0.60938 0.25,-0.25 0.60937,-0.25 0.35938,0 0.60938,0.25 0.25,0.25 0.25,0.60938 0,0.35937 -0.25,0.60937 -0.25,0.25 -0.60938,0.25 z m 5.66251,-7.625 h -1.04688 q 0,0.78125 -0.0156,1.57813 0,0.78125 0,1.625 h 0.92187 q 0.96875,0 1.42188,-0.46875 0.46875,-0.46875 0.46875,-1.1875 0,-0.75 -0.42188,-1.14063 -0.40625,-0.40625 -1.32812,-0.40625 z m -3.32813,-0.0625 v -0.5 h 3.35938 q 1.375,0 2.14062,0.5625 0.76563,0.54688 0.76563,1.54688 0,0.6875 -0.5,1.26562 -0.5,0.57813 -1.51563,0.75 0.53125,0.10938 0.875,0.46875 0.34375,0.35938 0.54688,1.0625 l 0.51562,1.78125 0.92188,0.10938 v 0.48437 q -0.17188,0.0469 -0.40625,0.0781 -0.21875,0.0469 -0.48438,0.0469 -0.5625,0 -0.85937,-0.17187 -0.28125,-0.17188 -0.375,-0.59375 l -0.48438,-1.92188 q -0.10937,-0.5 -0.3125,-0.73437 -0.20312,-0.25 -0.53125,-0.32813 -0.3125,-0.0937 -0.79687,-0.0937 h -0.59375 q 0,0.85938 0,1.625 0.0156,0.75 0.0156,1.46875 l 1.10938,0.14063 v 0.48437 h -3.39063 v -0.48437 l 1.09375,-0.14063 q 0.0312,-0.75 0.0312,-1.53125 0,-0.78125 0,-1.5625 v -0.59375 q 0,-0.78125 0,-1.54687 0,-0.78125 -0.0312,-1.54688 z"
       fill-rule="nonzero"
       id="path375" />
    <path
       fill="#cfe2f3"
       d="m 200.33333,368.2318 v 0 c 0,-1.82361 1.47832,-3.30191 3.30191,-3.30191 h 52.26233 c 0.87572,0 1.71556,0.34787 2.33479,0.9671 0.61924,0.61923 0.96711,1.45908 0.96711,2.33481 v 13.20721 c 0,1.82358 -1.47831,3.30191 -3.3019,3.30191 h -52.26233 v 0 c -1.82359,0 -3.30191,-1.47833 -3.30191,-3.30191 z"
       fill-rule="evenodd"
       id="path377" />
    <path
       stroke="#595959"
       stroke-width="1"
       stroke-linejoin="round"
       stroke-linecap="butt"
       d="m 200.33333,368.2318 v 0 c 0,-1.82361 1.47832,-3.30191 3.30191,-3.30191 h 52.26233 c 0.87572,0 1.71556,0.34787 2.33479,0.9671 0.61924,0.61923 0.96711,1.45908 0.96711,2.33481 v 13.20721 c 0,1.82358 -1.47831,3.30191 -3.3019,3.30191 h -52.26233 v 0 c -1.82359,0 -3.30191,-1.47833 -3.30191,-3.30191 z"
       fill-rule="evenodd"
       id="path379" />
    <path
       fill="#202122"
       d="m 211.3666,379.80728 q -0.5625,0 -1.03125,-0.125 -0.46875,-0.125 -0.95313,-0.375 l -0.0625,-1.46875 h 0.73438 l 0.25,1.15625 q 0.46875,0.21875 1.07812,0.21875 0.76563,0 1.125,-0.28125 0.375,-0.28125 0.375,-0.73438 0,-0.42187 -0.3125,-0.6875 -0.29687,-0.26562 -0.92187,-0.46875 l -0.625,-0.23437 q -0.73438,-0.26563 -1.17188,-0.6875 -0.4375,-0.42188 -0.4375,-1.10938 0,-0.5 0.26563,-0.92187 0.26562,-0.42188 0.78125,-0.6875 0.53125,-0.26563 1.26562,-0.26563 0.54688,0 1,0.14063 0.45313,0.14062 0.875,0.40625 l -0.0625,1.35937 h -0.6875 l -0.21875,-1.07812 q -0.45312,-0.21875 -0.90625,-0.21875 -0.625,0 -0.9375,0.25 -0.3125,0.25 -0.3125,0.65625 0,0.4375 0.26563,0.67187 0.28125,0.21875 0.96875,0.46875 l 0.40625,0.15625 q 1,0.375 1.42187,0.85938 0.42188,0.46875 0.42188,1.09375 0,0.51562 -0.29688,0.95312 -0.29687,0.42188 -0.875,0.6875 -0.5625,0.26563 -1.42187,0.26563 z m 5.84688,0 q -0.6875,0 -1.10938,-0.375 -0.40625,-0.375 -0.40625,-1.14063 0,-0.25 0,-0.5 0,-0.25 0,-0.64062 v -3.14063 h -1.09375 v -0.57812 l 1.1875,-0.15625 0.34375,-1.78125 h 0.79688 l -0.0781,1.8125 h 1.79688 v 0.70312 h -1.8125 v 4.125 q 0,0.51563 0.20312,0.75 0.20313,0.23438 0.53125,0.23438 0.21875,0 0.42188,-0.0937 0.21875,-0.0937 0.46875,-0.26563 l 0.32812,0.34375 q -0.54687,0.70313 -1.57812,0.70313 z m 7.14412,-0.0312 q -0.48438,0 -0.8125,-0.28125 -0.3125,-0.28125 -0.39063,-0.75 -0.54687,0.53125 -0.96875,0.79687 -0.40625,0.26563 -0.98437,0.26563 -0.73438,0 -1.26563,-0.42188 -0.53125,-0.42187 -0.53125,-1.25 0,-0.375 0.17188,-0.70312 0.1875,-0.34375 0.67187,-0.65625 0.48438,-0.32813 1.375,-0.64063 0.3125,-0.10937 0.70313,-0.23437 0.40625,-0.125 0.79687,-0.20313 v -0.34375 q 0,-0.96875 -0.29687,-1.28125 -0.28125,-0.32812 -0.95313,-0.32812 -0.14062,0 -0.32812,0.0156 -0.17188,0.0156 -0.39063,0.0625 l -0.25,0.875 q -0.1875,0.625 -0.6875,0.625 -0.5625,0 -0.64062,-0.53125 0.1875,-0.76562 0.89062,-1.20312 0.70313,-0.45313 1.71875,-0.45313 1.04688,0 1.54688,0.53125 0.51562,0.51563 0.51562,1.78125 v 2.84375 q 0,0.42188 0.125,0.60938 0.14063,0.17187 0.35938,0.17187 0.17187,0 0.28125,-0.0781 0.125,-0.0781 0.23437,-0.21875 l 0.26563,0.29687 q -0.23438,0.39063 -0.53125,0.54688 -0.28125,0.15625 -0.625,0.15625 z m -3.76563,-1.82813 q 0,0.53125 0.3125,0.76563 0.3125,0.21875 0.76563,0.21875 0.1875,0 0.35937,-0.0469 0.1875,-0.0625 0.4375,-0.21875 0.26563,-0.15625 0.65625,-0.4375 v -2.04687 q -0.34375,0.0937 -0.67187,0.21875 -0.32813,0.10937 -0.54688,0.1875 -0.57812,0.21875 -0.85937,0.46875 -0.28125,0.23437 -0.375,0.46875 -0.0781,0.21875 -0.0781,0.42187 z m 7.73712,1.85938 q -0.6875,0 -1.10937,-0.375 -0.40625,-0.375 -0.40625,-1.14063 0,-0.25 0,-0.5 0,-0.25 0,-0.64062 v -3.14063 h -1.09375 v -0.57812 l 1.1875,-0.15625 0.34375,-1.78125 h 0.79687 l -0.0781,1.8125 h 1.79687 v 0.70312 h -1.8125 v 4.125 q 0,0.51563 0.20313,0.75 0.20312,0.23438 0.53125,0.23438 0.21875,0 0.42187,-0.0937 0.21875,-0.0937 0.46875,-0.26563 l 0.32813,0.34375 q -0.54688,0.70313 -1.57813,0.70313 z m 5.17537,-6.0625 q -0.35937,0 -0.75,0.21875 -0.375,0.20312 -0.65625,0.67187 -0.26562,0.46875 -0.34375,1.23438 h 2.42188 q 0.48437,0 0.625,-0.1875 0.15625,-0.20313 0.15625,-0.5 0,-0.39063 -0.1875,-0.70313 -0.1875,-0.32812 -0.51563,-0.53125 -0.32812,-0.20312 -0.75,-0.20312 z m 0,6.0625 q -1.35937,0 -2.17187,-0.875 -0.8125,-0.875 -0.8125,-2.40625 0,-1.01563 0.42187,-1.78125 0.42188,-0.76563 1.125,-1.1875 0.70313,-0.42188 1.53125,-0.42188 0.6875,0 1.25,0.3125 0.5625,0.29688 0.89063,0.85938 0.32812,0.5625 0.32812,1.39062 0,0.21875 -0.0312,0.42188 -0.0156,0.1875 -0.0625,0.3125 h -4.25 q 0.0312,1.23437 0.60938,1.875 0.59375,0.64062 1.54687,0.64062 0.64063,0 1.0625,-0.26562 0.4375,-0.26563 0.79688,-0.67188 l 0.3125,0.25 q -0.375,0.70313 -1.01563,1.125 -0.625,0.42188 -1.53125,0.42188 z m 5.2192,-4.84375 q -0.40625,0 -0.6875,-0.28125 -0.26563,-0.28125 -0.26563,-0.65625 0,-0.40625 0.26563,-0.6875 0.28125,-0.28125 0.6875,-0.28125 0.40625,0 0.67187,0.28125 0.28125,0.28125 0.28125,0.6875 0,0.375 -0.28125,0.65625 -0.26562,0.28125 -0.67187,0.28125 z m 0,4.84375 q -0.40625,0 -0.6875,-0.28125 -0.26563,-0.28125 -0.26563,-0.65625 0,-0.40625 0.26563,-0.6875 0.28125,-0.28125 0.6875,-0.28125 0.40625,0 0.67187,0.28125 0.28125,0.28125 0.28125,0.6875 0,0.375 -0.28125,0.65625 -0.26562,0.28125 -0.67187,0.28125 z"
       fill-rule="nonzero"
       id="path381" />
    <path
       fill="#202122"
       d="m 247.04626,379.86978 q -0.73438,0 -1.46875,-0.1875 -0.73438,-0.1875 -1.25,-0.53125 l 0.0781,-1.92188 h 1.01563 l 0.26562,1.625 q 0.3125,0.125 0.625,0.20313 0.32813,0.0781 0.73438,0.0781 0.8125,0 1.28125,-0.39062 0.48437,-0.40625 0.48437,-1.0625 0,-0.57813 -0.34375,-0.90625 -0.32812,-0.34375 -1.0625,-0.625 l -0.54687,-0.23438 q -1.07813,-0.46875 -1.73438,-1.10937 -0.64062,-0.65625 -0.64062,-1.71875 0,-0.78125 0.39062,-1.34375 0.40625,-0.57813 1.10938,-0.875 0.71875,-0.29688 1.65625,-0.29688 0.6875,0 1.28125,0.1875 0.60937,0.1875 1.0625,0.5 l -0.0937,1.79688 h -1.01563 l -0.26562,-1.53125 q -0.46875,-0.21875 -1,-0.21875 -0.65625,0 -1.125,0.35937 -0.46875,0.34375 -0.46875,1 0,0.57813 0.35937,0.9375 0.35938,0.35938 1.01563,0.625 l 0.5625,0.23438 q 1.3125,0.54687 1.85937,1.17187 0.5625,0.625 0.5625,1.60938 0,1.17187 -0.89062,1.90625 -0.89063,0.71875 -2.4375,0.71875 z"
       fill-rule="nonzero"
       id="path383" />
    <path
       fill="#000000"
       fill-opacity="0"
       d="m 259.19946,403.48975 h 12.81366 v -28.66141 h -12.75064"
       fill-rule="evenodd"
       id="path385" />
    <path
       stroke="#595959"
       stroke-width="1"
       stroke-linejoin="round"
       stroke-linecap="butt"
       d="m 259.19946,403.48975 h 12.81366 v -28.66141 h -6.75064"
       fill-rule="evenodd"
       id="path387" />
    <path
       fill="#595959"
       stroke="#595959"
       stroke-width="1"
       stroke-linecap="butt"
       d="m 265.26248,373.1766 -4.53812,1.65173 4.53812,1.65174 z"
       fill-rule="evenodd"
       id="path389" />
    <path
       fill="#000000"
       fill-opacity="0"
       d="m 200.33333,374.83542 h -9.51708 v 28.66141 h 13.51708"
       fill-rule="evenodd"
       id="path391" />
    <path
       stroke="#595959"
       stroke-width="1"
       stroke-linejoin="round"
       stroke-linecap="butt"
       d="m 200.33333,374.83542 h -9.51708 v 28.66144 h 7.51708"
       fill-rule="evenodd"
       id="path393" />
    <path
       fill="#595959"
       stroke="#595959"
       stroke-width="1"
       stroke-linecap="butt"
       d="m 198.33333,405.14856 4.5381,-1.6517 -4.5381,-1.65174 z"
       fill-rule="evenodd"
       id="path395" />
    <path
       fill="#000000"
       fill-opacity="0"
       d="m 291.8658,420.40683 c -9.91657,0 -14.87643,0.0157 -19.83313,0.0315 -4.9567,0.0158 -9.91022,0.0315 -19.82042,0.0315"
       fill-rule="evenodd"
       id="path397" />
    <path
       stroke="#1c4587"
       stroke-width="1"
       stroke-linejoin="round"
       stroke-linecap="butt"
       d="m 291.86578,420.40683 c -9.91653,0 -14.8764,0.0157 -19.8331,0.0315 -2.47833,0.008 -4.9559,0.0158 -8.05264,0.0216 -1.54837,0.003 -3.25153,0.005 -5.18701,0.007 l -0.58078,2.5e-4"
       fill-rule="evenodd"
       id="path399" />
    <path
       fill="#1c4587"
       stroke="#1c4587"
       stroke-width="1"
       stroke-linecap="butt"
       d="m 258.21158,418.8156 -4.53743,1.6536 4.53877,1.64987 z"
       fill-rule="evenodd"
       id="path401" />
    <path
       fill="#000000"
       fill-opacity="0"
       d="m 200.33333,420.4084 c -8.16715,0 -12.25162,0.0158 -16.33429,0.0315 -4.08269,0.0158 -8.16356,0.0315 -16.32712,0.0315"
       fill-rule="evenodd"
       id="path403" />
    <path
       stroke="#1c4587"
       stroke-width="1"
       stroke-linejoin="round"
       stroke-linecap="butt"
       d="m 200.33333,420.4084 c -8.16716,0 -12.25162,0.0158 -16.33429,0.0315 -2.04134,0.008 -4.08223,0.0158 -6.63322,0.0216 l -3.6939,0.006"
       fill-rule="evenodd"
       id="path405" />
    <path
       fill="#1c4587"
       stroke="#1c4587"
       stroke-width="1"
       stroke-linecap="butt"
       d="m 173.6709,418.81598 -4.53708,1.65451 4.53911,1.64896 z"
       fill-rule="evenodd"
       id="path407" />
    <path
       fill="#000000"
       fill-opacity="0"
       d="m 167.63945,390.56137 h 9.97722 v 21.38583 h 22.7157"
       fill-rule="evenodd"
       id="path409" />
    <path
       stroke="#595959"
       stroke-width="1"
       stroke-linejoin="round"
       stroke-linecap="butt"
       d="m 167.63945,390.5614 h 9.97722 v 21.3858 h 16.71568"
       fill-rule="evenodd"
       id="path411" />
    <path
       fill="#595959"
       stroke="#595959"
       stroke-width="1"
       stroke-linecap="butt"
       d="m 194.33235,413.59894 4.5381,-1.65173 -4.5381,-1.65171 z"
       fill-rule="evenodd"
       id="path413" />
    <path
       fill="#000000"
       fill-opacity="0"
       d="m 261.19946,411.94907 h 18.3779 v -21.38583 h 12.26779"
       fill-rule="evenodd"
       id="path415" />
    <path
       stroke="#595959"
       stroke-width="1"
       stroke-linejoin="round"
       stroke-linecap="butt"
       d="m 261.19946,411.94907 h 18.3779 v -21.38583 h 6.26779"
       fill-rule="evenodd"
       id="path417" />
    <path
       fill="#595959"
       stroke="#595959"
       stroke-width="1"
       stroke-linecap="butt"
       d="m 285.84515,392.21497 4.53809,-1.65173 -4.53809,-1.65174 z"
       fill-rule="evenodd"
       id="path419" />
    <path
       fill="#f3f3f3"
       d="m 204.6322,404.97516 v 0 c -0.49979,-3.14267 1.14114,-6.25372 4.22649,-8.013 3.08534,-1.75931 7.074,-1.85831 10.27345,-0.25501 v 0 c 1.13335,-1.82727 3.20769,-3.08886 5.59558,-3.40319 2.38789,-0.31433 4.80888,0.35553 6.53065,1.80697 v 0 c 0.96546,-1.65671 2.86115,-2.76983 5.01439,-2.94433 2.15325,-0.1745 4.2593,0.61432 5.57082,2.08648 v 0 c 1.74425,-1.7561 4.51939,-2.49551 7.1246,-1.89825 2.60521,0.59726 4.57257,2.42392 5.05082,4.68957 v 0 c 2.13697,0.49875 3.91706,1.76661 4.88029,3.47605 0.96323,1.70944 1.01514,3.69272 0.1423,5.43747 v 0 c 2.10434,2.34335 2.59659,5.46588 1.29306,8.20227 -1.30349,2.73639 -4.20694,4.67553 -7.6268,5.09381 -0.0241,2.56818 -1.67024,4.92474 -4.30391,6.16131 -2.63368,1.23658 -5.84364,1.1601 -8.39262,-0.19998 v 0 c -1.08574,3.07587 -4.14171,5.33905 -7.84764,5.8118 -3.70592,0.47275 -7.39743,-0.92972 -9.47966,-3.60147 v 0 c -2.55237,1.31689 -5.61502,1.69626 -8.49706,1.05249 -2.88203,-0.64377 -5.34068,-2.25644 -6.82135,-4.47421 v 0 c -2.6082,0.26114 -5.12999,-0.89508 -6.31378,-2.89484 -1.18379,-1.99979 -0.77762,-4.41739 1.01697,-6.05298 v 0 c -2.32658,-1.17169 -3.51376,-3.49664 -2.94244,-5.76254 0.57132,-2.2659 2.77166,-3.95929 5.45363,-4.19708 z"
       fill-rule="evenodd"
       id="path421" />
    <path
       fill="#000000"
       fill-opacity="0"
       d="m 202.06946,415.05588 v 0 c 1.09793,0.55292 2.36629,0.80374 3.63478,0.71878 m 1.66147,8.22925 c 0.5455,-0.0546 1.0802,-0.17026 1.5903,-0.344 m 13.72734,3.76557 c -0.38367,-0.49228 -0.70489,-1.01834 -0.9582,-1.56922 m 18.28616,-0.64117 v 0 c 0.19794,-0.56079 0.32619,-1.13794 0.38261,-1.72186 m 12.31345,-4.23929 c 0.0257,-2.73425 -1.78937,-5.23773 -4.66548,-6.43518 m 10.99916,-6.8606 c -0.46576,0.93106 -1.17682,1.75699 -2.07742,2.41303 m -2.94475,-11.32678 v 0 c 0.0794,0.37597 0.11609,0.75759 0.10968,1.13961 m -12.28488,-3.93081 v 0 c -0.43509,0.43808 -0.79357,0.92761 -1.06424,1.45337 m -9.52108,-0.59574 v 0 c -0.23187,0.39792 -0.40501,0.81894 -0.51545,1.25342 m -11.61095,0.34283 v 0 c 0.677,0.33927 1.30331,0.74759 1.86519,1.21604 m -16.36495,7.05203 v 0 c 0.0689,0.43314 0.17774,0.86093 0.32552,1.27939"
       fill-rule="evenodd"
       id="path423" />
    <path
       stroke="#595959"
       stroke-width="1"
       stroke-linejoin="round"
       stroke-linecap="butt"
       d="m 204.6322,404.97516 v 0 c -0.49979,-3.14267 1.14114,-6.25372 4.22649,-8.013 3.08534,-1.75931 7.074,-1.85831 10.27345,-0.25501 v 0 c 1.13335,-1.82727 3.20769,-3.08886 5.59558,-3.40319 2.38789,-0.31433 4.80888,0.35553 6.53065,1.80697 v 0 c 0.96546,-1.65671 2.86115,-2.76983 5.01439,-2.94433 2.15325,-0.1745 4.2593,0.61432 5.57082,2.08648 v 0 c 1.74425,-1.7561 4.51939,-2.49551 7.1246,-1.89825 2.60521,0.59726 4.57257,2.42392 5.05082,4.68957 v 0 c 2.13697,0.49875 3.91706,1.76661 4.88029,3.47605 0.96323,1.70944 1.01514,3.69272 0.1423,5.43747 v 0 c 2.10434,2.34335 2.59659,5.46588 1.29306,8.20227 -1.30349,2.73639 -4.20694,4.67553 -7.6268,5.09381 -0.0241,2.56818 -1.67024,4.92474 -4.30391,6.16131 -2.63368,1.23658 -5.84364,1.1601 -8.39262,-0.19998 v 0 c -1.08574,3.07587 -4.14171,5.33905 -7.84764,5.8118 -3.70592,0.47275 -7.39743,-0.92972 -9.47966,-3.60147 v 0 c -2.55237,1.31689 -5.61502,1.69626 -8.49706,1.05249 -2.88203,-0.64377 -5.34068,-2.25644 -6.82135,-4.47421 v 0 c -2.6082,0.26114 -5.12999,-0.89508 -6.31378,-2.89484 -1.18379,-1.99979 -0.77762,-4.41739 1.01697,-6.05298 v 0 c -2.32658,-1.17169 -3.51376,-3.49664 -2.94244,-5.76254 0.57132,-2.2659 2.77166,-3.95929 5.45363,-4.19708 z"
       fill-rule="evenodd"
       id="path425" />
    <path
       stroke="#595959"
       stroke-width="1"
       stroke-linejoin="round"
       stroke-linecap="butt"
       d="m 202.06946,415.05588 v 0 c 1.09793,0.55292 2.36629,0.80374 3.63478,0.71878 m 1.66147,8.22925 c 0.5455,-0.0546 1.0802,-0.17026 1.5903,-0.344 m 13.72734,3.76557 c -0.38367,-0.49228 -0.70489,-1.01834 -0.9582,-1.56922 m 18.28616,-0.64117 v 0 c 0.19794,-0.56079 0.32619,-1.13794 0.38261,-1.72186 m 12.31345,-4.23929 c 0.0257,-2.73425 -1.78937,-5.23773 -4.66548,-6.43518 m 10.99916,-6.8606 c -0.46576,0.93106 -1.17682,1.75699 -2.07742,2.41303 m -2.94475,-11.32678 v 0 c 0.0794,0.37597 0.11609,0.75759 0.10968,1.13961 m -12.28488,-3.93081 v 0 c -0.43509,0.43808 -0.79357,0.92761 -1.06424,1.45337 m -9.52108,-0.59574 v 0 c -0.23187,0.39792 -0.40501,0.81894 -0.51545,1.25342 m -11.61095,0.34283 v 0 c 0.677,0.33927 1.30331,0.74759 1.86519,1.21604 m -16.36495,7.05203 v 0 c 0.0689,0.43314 0.17774,0.86093 0.32552,1.27939"
       fill-rule="evenodd"
       id="path427" />
    <path
       fill="#000000"
       d="m 214.62851,415.56458 q -1.375,0 -2.1875,-0.89063 -0.8125,-0.89062 -0.8125,-2.42187 0,-1.0625 0.42187,-1.8125 0.4375,-0.75 1.14063,-1.14063 0.71875,-0.40625 1.51562,-0.40625 0.59375,0 1.09375,0.23438 0.51563,0.21875 0.84375,0.60937 0.34375,0.39063 0.42188,0.89063 -0.0937,0.5 -0.60938,0.5 -0.34375,0 -0.51562,-0.17188 -0.15625,-0.1875 -0.21875,-0.46875 l -0.25,-0.875 q -0.1875,-0.0625 -0.375,-0.0781 -0.17188,-0.0312 -0.34375,-0.0312 -0.84375,0 -1.40625,0.67187 -0.54688,0.65625 -0.54688,1.9375 0,1.25 0.59375,1.92188 0.60938,0.67187 1.53125,0.67187 0.57813,0 1.04688,-0.26562 0.48437,-0.26563 0.79687,-0.75 l 0.32813,0.17187 q -0.28125,0.82813 -0.90625,1.26563 -0.625,0.4375 -1.5625,0.4375 z m 6.59785,0 q -0.78125,0 -1.48437,-0.35938 -0.6875,-0.375 -1.14063,-1.10937 -0.4375,-0.75 -0.4375,-1.82813 0,-1.10937 0.4375,-1.85937 0.45313,-0.76563 1.14063,-1.14063 0.70312,-0.375 1.48437,-0.375 0.76563,0 1.46875,0.375 0.70313,0.375 1.14063,1.14063 0.45312,0.75 0.45312,1.85937 0,1.07813 -0.45312,1.82813 -0.4375,0.73437 -1.14063,1.10937 -0.70312,0.35938 -1.46875,0.35938 z m 0,-0.59375 q 0.85938,0 1.32813,-0.6875 0.46875,-0.6875 0.46875,-2.01563 0,-1.35937 -0.46875,-2.0625 -0.46875,-0.70312 -1.32813,-0.70312 -0.875,0 -1.34375,0.70312 -0.45312,0.70313 -0.45312,2.0625 0,1.32813 0.45312,2.01563 0.46875,0.6875 1.34375,0.6875 z m 4.19211,0.42187 v -0.48437 l 0.98438,-0.1875 q 0.0156,-0.5 0.0156,-1.07813 0.0156,-0.59375 0.0156,-1.04687 v -0.64063 q 0,-0.54687 -0.0156,-0.90625 0,-0.35937 -0.0312,-0.76562 l -1.04687,-0.10938 v -0.46875 l 1.85937,-0.8125 0.20313,0.125 0.10937,1.07813 q 0.46875,-0.53125 1.09375,-0.85938 0.625,-0.34375 1.23438,-0.34375 0.625,0 1.01562,0.29688 0.40625,0.28125 0.57813,0.95312 0.5,-0.625 1.125,-0.9375 0.625,-0.3125 1.28125,-0.3125 0.8125,0 1.25,0.54688 0.45312,0.54687 0.45312,1.78125 v 1.375 q 0,0.45312 0,1.04687 0.0156,0.57813 0.0312,1.07813 l 0.9375,0.1875 v 0.48437 h -3.09375 v -0.48437 l 0.98438,-0.1875 q 0.0156,-0.48438 0.0156,-1.07813 0.0156,-0.59375 0.0156,-1.04687 v -1.15625 q 0,-0.9375 -0.26563,-1.26563 -0.26562,-0.32812 -0.85937,-0.32812 -0.40625,0 -0.84375,0.1875 -0.4375,0.1875 -0.9375,0.65625 0.0156,0.14062 0.0156,0.3125 0,0.17187 0,0.35937 v 1.23438 q 0,0.45312 0,1.04687 0.0156,0.57813 0.0312,1.07813 l 0.9375,0.1875 v 0.48437 h -3.09375 v -0.48437 l 0.98438,-0.1875 q 0.0156,-0.48438 0.0156,-1.07813 0.0156,-0.59375 0.0156,-1.04687 v -1.14063 q 0,-0.90625 -0.26563,-1.25 -0.25,-0.35937 -0.82812,-0.35937 -0.45313,0 -0.875,0.1875 -0.40625,0.1875 -0.90625,0.60937 v 1.95313 q 0,0.4375 0,1.03125 0.0156,0.59375 0.0312,1.09375 l 0.92187,0.1875 v 0.48437 z m 11.88359,0 v -0.48437 l 1,-0.17188 q 0,-0.5 0,-1.09375 0.0156,-0.59375 0.0156,-1.04687 v -5.85938 l -1.09375,-0.125 v -0.46875 l 2.04687,-0.59375 0.1875,0.0937 -0.0625,1.90625 v 2.35938 q 0.48438,-0.53125 1,-0.76563 0.51563,-0.25 1.0625,-0.25 0.70313,0 1.26563,0.39063 0.57812,0.375 0.92187,1.10937 0.34375,0.73438 0.34375,1.78125 0,1.01563 -0.35937,1.78125 -0.35938,0.76563 -0.98438,1.1875 -0.625,0.42188 -1.40625,0.42188 -0.46875,0 -0.9375,-0.20313 -0.45312,-0.20312 -0.90625,-0.73437 l -0.0937,0.90625 z m 3.79688,-5.75 q -0.3125,0 -0.71875,0.17188 -0.39063,0.15625 -0.9375,0.60937 v 3.65625 q 0.40625,0.375 0.8125,0.54688 0.40625,0.17187 0.76562,0.17187 0.71875,0 1.23438,-0.60937 0.53125,-0.625 0.53125,-1.92188 0,-1.26562 -0.48438,-1.9375 -0.46875,-0.6875 -1.20312,-0.6875 z"
       fill-rule="nonzero"
       id="path429" />
    <path
       fill="#000000"
       fill-opacity="0"
       d="m 204.33333,399.82047 h 18.39371 v 7.33859 h -18.39371 z"
       fill-rule="evenodd"
       id="path431" />
    <path
       fill="#000000"
       fill-opacity="0"
       d="m 200.33333,408.2798 h 18.39371 v 7.33859 h -18.39371 z"
       fill-rule="evenodd"
       id="path433" />
    <path
       fill="#000000"
       fill-opacity="0"
       d="m 200.33333,416.7391 h 18.39371 v 7.33859 h -18.39371 z"
       fill-rule="evenodd"
       id="path435" />
    <path
       fill="#000000"
       fill-opacity="0"
       d="m 240.80577,399.82047 h 18.39369 v 7.33859 h -18.39369 z"
       fill-rule="evenodd"
       id="path437" />
    <path
       fill="#000000"
       fill-opacity="0"
       d="m 242.80577,408.2798 h 18.39369 v 7.33859 h -18.39369 z"
       fill-rule="evenodd"
       id="path439" />
    <path
       fill="#000000"
       fill-opacity="0"
       d="m 233.80577,416.7391 h 18.39371 v 7.33859 h -18.39371 z"
       fill-rule="evenodd"
       id="path441" />
    <path
       fill="#000000"
       fill-opacity="0"
       d="m 66.66247,348.2418 h 101.03937 v 14.86612 H 66.66247 Z"
       fill-rule="evenodd"
       id="path533" />
    <path
       fill="#202122"
       d="m 74.860916,359.90793 v -0.54687 l 0.890625,-0.17188 q 0,-0.5 0,-1.07812 0,-0.57813 0,-1 v -0.625 q 0,-0.54688 0,-0.90625 0,-0.375 -0.03125,-0.78125 l -0.953125,-0.10938 v -0.51562 l 2.40625,-0.84375 0.21875,0.14062 -0.04687,1.875 v 1.76563 q 0,0.42187 0,1 0,0.57812 0.01563,1.09375 l 0.8125,0.15625 v 0.54687 z m 1.6875,-7.8125 q -0.4375,0 -0.734375,-0.26562 -0.28125,-0.26563 -0.28125,-0.67188 0,-0.4375 0.28125,-0.70312 0.296875,-0.26563 0.734375,-0.26563 0.421875,0 0.703125,0.26563 0.296875,0.26562 0.296875,0.70312 0,0.40625 -0.296875,0.67188 -0.28125,0.26562 -0.703125,0.26562 z m 2.435471,7.8125 v -0.54687 l 0.859375,-0.17188 q 0.01563,-0.5 0.01563,-1.07812 0,-0.57813 0,-1 v -0.70313 q 0,-0.54687 -0.01563,-0.875 0,-0.32812 -0.01563,-0.73437 l -0.9375,-0.10938 v -0.51562 l 2.21875,-0.84375 0.21875,0.14062 0.09375,1.03125 q 1.03125,-1.17187 2.265625,-1.17187 0.875,0 1.34375,0.57812 0.46875,0.57813 0.46875,1.8125 v 1.39063 q 0,0.45312 0,1.03125 0,0.5625 0.01563,1.0625 l 0.8125,0.15625 v 0.54687 h -3.296875 v -0.54687 l 0.859375,-0.17188 q 0.01563,-0.5 0.01563,-1.0625 0,-0.5625 0,-1.01562 v -1.26563 q 0,-0.78125 -0.21875,-1.07812 -0.21875,-0.3125 -0.71875,-0.3125 -0.703125,0 -1.484375,0.65625 v 2 q 0,0.4375 0,1.01562 0,0.5625 0,1.07813 l 0.796875,0.15625 v 0.54687 z m 10.909073,-2.82812 q 0.546875,0 0.84375,-0.4375 0.296875,-0.4375 0.296875,-1.17188 0,-0.70312 -0.296875,-1.125 -0.28125,-0.42187 -0.8125,-0.42187 -0.53125,0 -0.828125,0.4375 -0.296875,0.42187 -0.296875,1.15625 0,0.71875 0.265625,1.14062 0.28125,0.42188 0.828125,0.42188 z m -1.6875,4.0625 q 0,0.625 0.453125,0.89062 0.453125,0.28125 1.296875,0.28125 1.046875,0 1.578125,-0.34375 0.546875,-0.34375 0.546875,-0.84375 0,-0.35937 -0.265625,-0.64062 -0.25,-0.26563 -0.890625,-0.26563 h -1.484375 q -0.484375,0 -0.875,-0.0781 -0.359375,0.48437 -0.359375,1 z m 1.703125,-3.46875 q -0.59375,0 -1.109375,-0.15625 -0.25,0.34375 -0.25,0.73437 0,0.25 0.171875,0.40625 0.171875,0.14063 0.609375,0.14063 h 1.65625 q 1.3125,0 1.875,0.5 0.5625,0.48437 0.5625,1.32812 0,0.625 -0.40625,1.17188 -0.40625,0.54687 -1.203125,0.875 -0.796875,0.34375 -1.984375,0.34375 -1.03125,0 -1.65625,-0.21875 -0.609375,-0.21875 -0.890625,-0.57813 -0.265625,-0.35937 -0.265625,-0.79687 0,-0.42188 0.28125,-0.78125 0.28125,-0.34375 0.921875,-0.65625 -0.40625,-0.14063 -0.609375,-0.40625 -0.203125,-0.28125 -0.203125,-0.64063 0,-0.39062 0.234375,-0.76562 0.234375,-0.39063 0.71875,-0.84375 -1.046875,-0.53125 -1.046875,-1.8125 0,-1 0.6875,-1.59375 0.703125,-0.59375 1.90625,-0.59375 1.21875,0 1.890625,0.5625 l 1.515625,-0.5625 0.203125,0.125 v 0.9375 h -1.296875 q 0.28125,0.45312 0.28125,1.125 0,0.96875 -0.6875,1.5625 -0.671875,0.59375 -1.90625,0.59375 z m 4.298248,2.23437 v -0.54687 l 0.84375,-0.15625 q 0.01563,-0.51563 0.01563,-1.09375 0,-0.57813 0,-1 v -0.70313 q 0,-0.54687 -0.01563,-0.875 0,-0.32812 -0.01563,-0.73437 l -0.9375,-0.10938 v -0.51562 l 2.21875,-0.84375 0.21875,0.14062 0.140625,1.57813 q 0.296875,-0.82813 0.8125,-1.26563 0.53125,-0.45312 1.046875,-0.45312 0.359375,0 0.65625,0.1875 0.296875,0.1875 0.390625,0.54687 0,0.48438 -0.234375,0.76563 -0.21875,0.26562 -0.625,0.26562 -0.484375,0 -0.90625,-0.48437 l -0.125,-0.125 q -0.703125,0.57812 -1,1.65625 v 0.96875 q 0,0.40625 0,0.98437 0,0.5625 0,1.04688 l 1.09375,0.21875 v 0.54687 z m 8.889557,-5.9375 q -0.32813,0 -0.64063,0.21875 -0.3125,0.20313 -0.53125,0.67188 -0.21875,0.46875 -0.26562,1.26562 h 1.82812 q 0.46875,0 0.625,-0.20312 0.17188,-0.20313 0.17188,-0.5625 0,-0.60938 -0.35938,-1 -0.34375,-0.39063 -0.82812,-0.39063 z m 0,6.125 q -0.9375,0 -1.64063,-0.39062 -0.70312,-0.40625 -1.10937,-1.15625 -0.390625,-0.76563 -0.390625,-1.79688 0,-1.0625 0.453125,-1.82812 0.45312,-0.76563 1.1875,-1.17188 0.75,-0.42187 1.59375,-0.42187 0.78125,0 1.35937,0.34375 0.59375,0.32812 0.92188,0.9375 0.32812,0.59375 0.32812,1.40625 0,0.42187 -0.0781,0.73437 h -4.07813 q 0.0469,1.14063 0.59375,1.71875 0.5625,0.57813 1.40625,0.57813 0.57813,0 0.98438,-0.23438 0.40625,-0.23437 0.75,-0.60937 l 0.375,0.34375 q -0.375,0.73437 -1.04688,1.14062 -0.67187,0.40625 -1.60937,0.40625 z m 5.91083,0 q -0.60938,0 -1.125,-0.14062 -0.51563,-0.14063 -1.01563,-0.42188 l -0.0156,-1.54687 h 0.89062 l 0.25,1.23437 q 0.46875,0.20313 1.03125,0.20313 0.6875,0 1.01563,-0.23438 0.32812,-0.23437 0.32812,-0.67187 0,-0.375 -0.26562,-0.59375 -0.26563,-0.23438 -0.90625,-0.45313 l -0.65625,-0.23437 q -0.75,-0.23438 -1.1875,-0.70313 -0.4375,-0.46875 -0.4375,-1.17187 0,-0.5625 0.29687,-1.01563 0.29688,-0.46875 0.85938,-0.73437 0.5625,-0.28125 1.375,-0.28125 0.57812,0 1.04687,0.14062 0.48438,0.14063 0.95313,0.40625 l -0.0781,1.40625 h -0.875 l -0.23437,-1.125 q -0.375,-0.15625 -0.82813,-0.15625 -0.53125,0 -0.82812,0.23438 -0.29688,0.21875 -0.29688,0.60937 0,0.35938 0.25,0.57813 0.25,0.21875 0.92188,0.45312 l 0.53125,0.15625 q 0.98437,0.32813 1.39062,0.82813 0.40625,0.48437 0.40625,1.1875 0,0.89062 -0.73437,1.46875 -0.71875,0.57812 -2.0625,0.57812 z m 5.91766,0 q -0.60937,0 -1.125,-0.14062 -0.51562,-0.14063 -1.01562,-0.42188 l -0.0156,-1.54687 h 0.89063 l 0.25,1.23437 q 0.46875,0.20313 1.03125,0.20313 0.6875,0 1.01562,-0.23438 0.32813,-0.23437 0.32813,-0.67187 0,-0.375 -0.26563,-0.59375 -0.26562,-0.23438 -0.90625,-0.45313 l -0.65625,-0.23437 q -0.75,-0.23438 -1.1875,-0.70313 -0.4375,-0.46875 -0.4375,-1.17187 0,-0.5625 0.29688,-1.01563 0.29687,-0.46875 0.85937,-0.73437 0.5625,-0.28125 1.375,-0.28125 0.57813,0 1.04688,0.14062 0.48437,0.14063 0.95312,0.40625 l -0.0781,1.40625 h -0.875 l -0.23438,-1.125 q -0.375,-0.15625 -0.82812,-0.15625 -0.53125,0 -0.82813,0.23438 -0.29687,0.21875 -0.29687,0.60937 0,0.35938 0.25,0.57813 0.25,0.21875 0.92187,0.45312 l 0.53125,0.15625 q 0.98438,0.32813 1.39063,0.82813 0.40625,0.48437 0.40625,1.1875 0,0.89062 -0.73438,1.46875 -0.71875,0.57812 -2.0625,0.57812 z m 5.23016,-4.6875 q -0.45312,0 -0.76562,-0.3125 -0.29688,-0.3125 -0.29688,-0.73437 0,-0.45313 0.29688,-0.76563 0.3125,-0.32812 0.76562,-0.32812 0.45313,0 0.75,0.32812 0.3125,0.3125 0.3125,0.76563 0,0.42187 -0.3125,0.73437 -0.29687,0.3125 -0.75,0.3125 z m 0,4.6875 q -0.45312,0 -0.76562,-0.3125 -0.29688,-0.3125 -0.29688,-0.73437 0,-0.45313 0.29688,-0.76563 0.3125,-0.32812 0.76562,-0.32812 0.45313,0 0.75,0.32812 0.3125,0.3125 0.3125,0.76563 0,0.42187 -0.3125,0.73437 -0.29687,0.3125 -0.75,0.3125 z m 5.49955,-8.39062 v -0.64063 h 4.01562 v 0.64063 l -1.125,0.10937 q 0,0.82813 -0.0156,1.67188 0,0.84375 0,1.71875 v 0.57812 q 0,0.82813 0,1.6875 0.0156,0.84375 0.0156,1.6875 l 1.125,0.125 v 0.625 h -4.01562 v -0.625 l 1.125,-0.125 q 0.0312,-0.82812 0.0312,-1.67187 0,-0.85938 0,-1.70313 v -0.57812 q 0,-0.84375 0,-1.6875 0,-0.84375 -0.0312,-1.70313 z m 5.17634,4.26562 v -0.82812 l 5.35938,-2.9375 0.48437,0.9375 -4.625,2.40625 4.625,2.42187 -0.48437,0.92188 z m 7.03218,-4.26562 v -0.64063 h 4.01563 v 0.64063 l -1.125,0.10937 q 0,0.82813 -0.0156,1.67188 0,0.84375 0,1.71875 v 0.57812 q 0,0.82813 0,1.6875 0.0156,0.84375 0.0156,1.6875 l 1.125,0.125 v 0.625 h -4.01563 v -0.625 l 1.125,-0.125 q 0.0312,-0.82812 0.0312,-1.67187 0,-0.85938 0,-1.70313 v -0.57812 q 0,-0.84375 0,-1.6875 0,-0.84375 -0.0312,-1.70313 z m 10.41072,0 v -0.64063 h 3.96875 v 0.64063 l -1.09375,0.10937 q -0.0156,0.82813 -0.0312,1.67188 0,0.84375 0,1.71875 v 0.57812 q 0,0.82813 0,1.6875 0.0156,0.84375 0.0312,1.6875 l 1.09375,0.125 v 0.625 h -3.96875 v -0.625 l 1.07813,-0.125 q 0.0312,-0.84375 0.0312,-1.70312 0,-0.85938 0,-1.73438 h -3.60938 q 0,0.96875 0,1.8125 0.0156,0.82813 0.0312,1.625 l 1.07813,0.125 v 0.625 h -3.96875 v -0.625 l 1.10937,-0.125 q 0.0312,-0.82812 0.0312,-1.67187 0,-0.85938 0,-1.70313 v -0.57812 q 0,-0.84375 0,-1.6875 0,-0.84375 -0.0312,-1.70313 l -1.10937,-0.10937 v -0.64063 h 3.96875 v 0.64063 l -1.07813,0.10937 q -0.0156,0.82813 -0.0312,1.65625 0,0.82813 0,1.5625 h 3.60938 q 0,-0.82812 0,-1.625 0,-0.79687 -0.0312,-1.59375 z m 11.00988,3.4375 v 0.82812 l -5.35938,2.9375 -0.46875,-0.9375 4.60938,-2.40625 -4.60938,-2.42187 0.46875,-0.92188 z"
       fill-rule="nonzero"
       id="path535" />
    <path
       fill="#000000"
       fill-opacity="0"
       d="m 291.83307,348.2418 h 101.03937 v 14.86612 H 291.83307 Z"
       fill-rule="evenodd"
       id="path537" />
    <path
       fill="#202122"
       d="m 304.4698,353.97043 q -0.32812,0 -0.64062,0.21875 -0.3125,0.20313 -0.53125,0.67188 -0.21875,0.46875 -0.26563,1.26562 h 1.82813 q 0.46875,0 0.625,-0.20312 0.17187,-0.20313 0.17187,-0.5625 0,-0.60938 -0.35937,-1 -0.34375,-0.39063 -0.82813,-0.39063 z m 0,6.125 q -0.9375,0 -1.64062,-0.39062 -0.70313,-0.40625 -1.10938,-1.15625 -0.39062,-0.76563 -0.39062,-1.79688 0,-1.0625 0.45312,-1.82812 0.45313,-0.76563 1.1875,-1.17188 0.75,-0.42187 1.59375,-0.42187 0.78125,0 1.35938,0.34375 0.59375,0.32812 0.92187,0.9375 0.32813,0.59375 0.32813,1.40625 0,0.42187 -0.0781,0.73437 h -4.07812 q 0.0469,1.14063 0.59375,1.71875 0.5625,0.57813 1.40625,0.57813 0.57812,0 0.98437,-0.23438 0.40625,-0.23437 0.75,-0.60937 l 0.375,0.34375 q -0.375,0.73437 -1.04687,1.14062 -0.67188,0.40625 -1.60938,0.40625 z m 6.44208,-3.01562 q 0.54687,0 0.84375,-0.4375 0.29687,-0.4375 0.29687,-1.17188 0,-0.70312 -0.29687,-1.125 -0.28125,-0.42187 -0.8125,-0.42187 -0.53125,0 -0.82813,0.4375 -0.29687,0.42187 -0.29687,1.15625 0,0.71875 0.26562,1.14062 0.28125,0.42188 0.82813,0.42188 z m -1.6875,4.0625 q 0,0.625 0.45312,0.89062 0.45313,0.28125 1.29688,0.28125 1.04687,0 1.57812,-0.34375 0.54688,-0.34375 0.54688,-0.84375 0,-0.35937 -0.26563,-0.64062 -0.25,-0.26563 -0.89062,-0.26563 h -1.48438 q -0.48437,0 -0.875,-0.0781 -0.35937,0.48437 -0.35937,1 z m 1.70312,-3.46875 q -0.59375,0 -1.10937,-0.15625 -0.25,0.34375 -0.25,0.73437 0,0.25 0.17187,0.40625 0.17188,0.14063 0.60938,0.14063 h 1.65625 q 1.3125,0 1.875,0.5 0.5625,0.48437 0.5625,1.32812 0,0.625 -0.40625,1.17188 -0.40625,0.54687 -1.20313,0.875 -0.79687,0.34375 -1.98437,0.34375 -1.03125,0 -1.65625,-0.21875 -0.60938,-0.21875 -0.89063,-0.57813 -0.26562,-0.35937 -0.26562,-0.79687 0,-0.42188 0.28125,-0.78125 0.28125,-0.34375 0.92187,-0.65625 -0.40625,-0.14063 -0.60937,-0.40625 -0.20313,-0.28125 -0.20313,-0.64063 0,-0.39062 0.23438,-0.76562 0.23437,-0.39063 0.71875,-0.84375 -1.04688,-0.53125 -1.04688,-1.8125 0,-1 0.6875,-1.59375 0.70313,-0.59375 1.90625,-0.59375 1.21875,0 1.89063,0.5625 l 1.51562,-0.5625 0.20313,0.125 v 0.9375 H 313.24 q 0.28125,0.45312 0.28125,1.125 0,0.96875 -0.6875,1.5625 -0.67187,0.59375 -1.90625,0.59375 z m 4.29825,2.23437 v -0.54687 l 0.84375,-0.15625 q 0.0156,-0.51563 0.0156,-1.09375 0,-0.57813 0,-1 v -0.70313 q 0,-0.54687 -0.0156,-0.875 0,-0.32812 -0.0156,-0.73437 l -0.9375,-0.10938 v -0.51562 l 2.21875,-0.84375 0.21875,0.14062 0.14062,1.57813 q 0.29688,-0.82813 0.8125,-1.26563 0.53125,-0.45312 1.04688,-0.45312 0.35937,0 0.65625,0.1875 0.29687,0.1875 0.39062,0.54687 0,0.48438 -0.23437,0.76563 -0.21875,0.26562 -0.625,0.26562 -0.48438,0 -0.90625,-0.48437 l -0.125,-0.125 q -0.70313,0.57812 -1,1.65625 v 0.96875 q 0,0.40625 0,0.98437 0,0.5625 0,1.04688 l 1.09375,0.21875 v 0.54687 z m 8.88956,-5.9375 q -0.32813,0 -0.64063,0.21875 -0.3125,0.20313 -0.53125,0.67188 -0.21875,0.46875 -0.26562,1.26562 h 1.82812 q 0.46875,0 0.625,-0.20312 0.17188,-0.20313 0.17188,-0.5625 0,-0.60938 -0.35938,-1 -0.34375,-0.39063 -0.82812,-0.39063 z m 0,6.125 q -0.9375,0 -1.64063,-0.39062 -0.70312,-0.40625 -1.10937,-1.15625 -0.39063,-0.76563 -0.39063,-1.79688 0,-1.0625 0.45313,-1.82812 0.45312,-0.76563 1.1875,-1.17188 0.75,-0.42187 1.59375,-0.42187 0.78125,0 1.35937,0.34375 0.59375,0.32812 0.92188,0.9375 0.32812,0.59375 0.32812,1.40625 0,0.42187 -0.0781,0.73437 h -4.07813 q 0.0469,1.14063 0.59375,1.71875 0.5625,0.57813 1.40625,0.57813 0.57813,0 0.98438,-0.23438 0.40625,-0.23437 0.75,-0.60937 l 0.375,0.34375 q -0.375,0.73437 -1.04688,1.14062 -0.67187,0.40625 -1.60937,0.40625 z m 5.91083,0 q -0.60938,0 -1.125,-0.14062 -0.51563,-0.14063 -1.01563,-0.42188 l -0.0156,-1.54687 h 0.89062 l 0.25,1.23437 q 0.46875,0.20313 1.03125,0.20313 0.6875,0 1.01563,-0.23438 0.32812,-0.23437 0.32812,-0.67187 0,-0.375 -0.26562,-0.59375 -0.26563,-0.23438 -0.90625,-0.45313 l -0.65625,-0.23437 q -0.75,-0.23438 -1.1875,-0.70313 -0.4375,-0.46875 -0.4375,-1.17187 0,-0.5625 0.29687,-1.01563 0.29688,-0.46875 0.85938,-0.73437 0.5625,-0.28125 1.375,-0.28125 0.57812,0 1.04687,0.14062 0.48438,0.14063 0.95313,0.40625 l -0.0781,1.40625 h -0.875 l -0.23437,-1.125 q -0.375,-0.15625 -0.82813,-0.15625 -0.53125,0 -0.82812,0.23438 -0.29688,0.21875 -0.29688,0.60937 0,0.35938 0.25,0.57813 0.25,0.21875 0.92188,0.45312 l 0.53125,0.15625 q 0.98437,0.32813 1.39062,0.82813 0.40625,0.48437 0.40625,1.1875 0,0.89062 -0.73437,1.46875 -0.71875,0.57812 -2.0625,0.57812 z m 5.91766,0 q -0.60938,0 -1.125,-0.14062 -0.51563,-0.14063 -1.01563,-0.42188 l -0.0156,-1.54687 h 0.89062 l 0.25,1.23437 q 0.46875,0.20313 1.03125,0.20313 0.6875,0 1.01563,-0.23438 0.32812,-0.23437 0.32812,-0.67187 0,-0.375 -0.26562,-0.59375 -0.26563,-0.23438 -0.90625,-0.45313 l -0.65625,-0.23437 q -0.75,-0.23438 -1.1875,-0.70313 -0.4375,-0.46875 -0.4375,-1.17187 0,-0.5625 0.29687,-1.01563 0.29688,-0.46875 0.85938,-0.73437 0.5625,-0.28125 1.375,-0.28125 0.57812,0 1.04687,0.14062 0.48438,0.14063 0.95313,0.40625 l -0.0781,1.40625 h -0.875 l -0.23437,-1.125 q -0.375,-0.15625 -0.82813,-0.15625 -0.53125,0 -0.82812,0.23438 -0.29688,0.21875 -0.29688,0.60937 0,0.35938 0.25,0.57813 0.25,0.21875 0.92188,0.45312 l 0.53125,0.15625 q 0.98437,0.32813 1.39062,0.82813 0.40625,0.48437 0.40625,1.1875 0,0.89062 -0.73437,1.46875 -0.71875,0.57812 -2.0625,0.57812 z m 5.23016,-4.6875 q -0.45312,0 -0.76562,-0.3125 -0.29688,-0.3125 -0.29688,-0.73437 0,-0.45313 0.29688,-0.76563 0.3125,-0.32812 0.76562,-0.32812 0.45313,0 0.75,0.32812 0.3125,0.3125 0.3125,0.76563 0,0.42187 -0.3125,0.73437 -0.29687,0.3125 -0.75,0.3125 z m 0,4.6875 q -0.45312,0 -0.76562,-0.3125 -0.29688,-0.3125 -0.29688,-0.73437 0,-0.45313 0.29688,-0.76563 0.3125,-0.32812 0.76562,-0.32812 0.45313,0 0.75,0.32812 0.3125,0.3125 0.3125,0.76563 0,0.42187 -0.3125,0.73437 -0.29687,0.3125 -0.75,0.3125 z m 5.49954,-8.39062 v -0.64063 h 4.01563 v 0.64063 l -1.125,0.10937 q 0,0.82813 -0.0156,1.67188 0,0.84375 0,1.71875 v 0.57812 q 0,0.82813 0,1.6875 0.0156,0.84375 0.0156,1.6875 l 1.125,0.125 v 0.625 h -4.01563 v -0.625 l 1.125,-0.125 q 0.0312,-0.82812 0.0312,-1.67187 0,-0.85938 0,-1.70313 v -0.57812 q 0,-0.84375 0,-1.6875 0,-0.84375 -0.0312,-1.70313 z m 5.17637,4.26562 v -0.82812 l 5.35937,-2.9375 0.48438,0.9375 -4.625,2.40625 4.625,2.42187 -0.48438,0.92188 z m 7.03216,-4.26562 v -0.64063 h 6.71875 l 0.0937,2.34375 h -0.9375 l -0.26562,-1.625 h -2.71875 q 0,0.82813 -0.0156,1.67188 0,0.82812 0,1.5625 h 1.71875 l 0.17188,-1.15625 h 0.6875 v 3.01562 h -0.6875 l -0.15625,-1.15625 h -1.73438 q 0,0.96875 0,1.8125 0.0156,0.84375 0.0156,1.67188 h 2.98437 l 0.26563,-1.625 h 0.9375 l -0.0937,2.32812 h -6.98438 v -0.625 l 1.125,-0.125 q 0.0312,-0.82812 0.0312,-1.67187 0,-0.85938 0,-1.70313 v -0.57812 q 0,-0.84375 0,-1.6875 0,-0.84375 -0.0312,-1.70313 z m 13.3429,0 v -0.64063 h 3.96875 v 0.64063 l -1.09375,0.10937 q -0.0156,0.82813 -0.0312,1.67188 0,0.84375 0,1.71875 v 0.57812 q 0,0.82813 0,1.6875 0.0156,0.84375 0.0312,1.6875 l 1.09375,0.125 v 0.625 h -3.96875 v -0.625 l 1.07812,-0.125 q 0.0312,-0.84375 0.0312,-1.70312 0,-0.85938 0,-1.73438 h -3.60937 q 0,0.96875 0,1.8125 0.0156,0.82813 0.0312,1.625 l 1.07812,0.125 v 0.625 h -3.96875 v -0.625 l 1.10938,-0.125 q 0.0312,-0.82812 0.0312,-1.67187 0,-0.85938 0,-1.70313 v -0.57812 q 0,-0.84375 0,-1.6875 0,-0.84375 -0.0312,-1.70313 l -1.10938,-0.10937 v -0.64063 h 3.96875 v 0.64063 l -1.07812,0.10937 q -0.0156,0.82813 -0.0312,1.65625 0,0.82813 0,1.5625 h 3.60937 q 0,-0.82812 0,-1.625 0,-0.79687 -0.0312,-1.59375 z m 11.00988,3.4375 v 0.82812 l -5.35937,2.9375 -0.46875,-0.9375 4.60937,-2.40625 -4.60937,-2.42187 0.46875,-0.92188 z"
       fill-rule="nonzero"
       id="path539" />
  </g>
</svg>
