<?xml version="1.0" encoding="UTF-8" standalone="no"?>
<svg
   version="1.1"
   viewBox="0 0 285.56693 117.47243"
   fill="none"
   stroke="none"
   stroke-linecap="square"
   stroke-miterlimit="10"
   id="svg319"
   sodipodi:docname="tutorial-hazard.svg"
   width="285.56693"
   height="117.47243"
   inkscape:version="1.1.2 (b8e25be8, 2022-02-05)"
   xmlns:inkscape="http://www.inkscape.org/namespaces/inkscape"
   xmlns:sodipodi="http://sodipodi.sourceforge.net/DTD/sodipodi-0.dtd"
   xmlns="http://www.w3.org/2000/svg"
   xmlns:svg="http://www.w3.org/2000/svg">
  <defs
     id="defs323" />
  <sodipodi:namedview
     id="namedview321"
     pagecolor="#ffffff"
     bordercolor="#666666"
     borderopacity="1.0"
     inkscape:pageshadow="2"
     inkscape:pageopacity="0.0"
     inkscape:pagecheckerboard="0"
     showgrid="false"
     inkscape:zoom="1.05"
     inkscape:cx="384.28571"
     inkscape:cy="170.95238"
     inkscape:window-width="1296"
     inkscape:window-height="789"
     inkscape:window-x="0"
     inkscape:window-y="25"
     inkscape:window-maximized="0"
     inkscape:current-layer="g317" />
  <clipPath
     id="g305443f3828_0_6.0">
    <path
       d="M 0,0 H 960 V 540 H 0 Z"
       clip-rule="nonzero"
       id="path2" />
  </clipPath>
  <g
     clip-path="url(#g305443f3828_0_6.0)"
     id="g317"
     transform="translate(-95.502625,-99.114174)">
    <path
       fill="#000000"
       fill-opacity="0"
       d="M 0,0 H 504 V 72.97638 H 0 Z"
       fill-rule="evenodd"
       id="path11" />
    <path
       fill="#000000"
       fill-opacity="0"
       d="M 96.002625,99.614174 H 380.56956 V 216.08661 H 96.002625 Z"
       fill-rule="evenodd"
       id="path221" />
    <path
       fill="#000000"
       fill-opacity="0"
       d="M 291.53116,183.63037 H 185.04295"
       fill-rule="evenodd"
       id="path225" />
    <path
       stroke="#1c4587"
       stroke-width="2"
       stroke-linejoin="round"
       stroke-linecap="butt"
       d="M 291.53116,183.63037 H 197.04295"
       fill-rule="evenodd"
       id="path227" />
    <path
       fill="#1c4587"
       stroke="#1c4587"
       stroke-width="2"
       stroke-linecap="butt"
       d="m 197.04295,180.3269 -9.07619,3.30347 9.07619,3.30346 z"
       fill-rule="evenodd"
       id="path229" />
    <path
       fill="#000000"
       fill-opacity="0"
       d="m 178.88452,165.927 h 118.86612 v 14.55118 H 178.88452 Z"
       fill-rule="evenodd"
       id="path231" />
    <path
       fill="#000000"
       d="m 201.82733,177.447 v -0.4375 l 0.875,-0.15625 q 0,-0.45313 0,-0.98438 0.0156,-0.53125 0.0156,-0.9375 v -0.57812 q 0,-0.5 -0.0156,-0.8125 0,-0.32813 -0.0156,-0.6875 l -0.95312,-0.10938 V 172.322 l 1.6875,-0.73438 0.17187,0.125 0.14063,1.42188 q 0.29687,-0.73438 0.76562,-1.14063 0.46875,-0.40625 0.95313,-0.40625 0.28125,0 0.51562,0.125 0.25,0.125 0.34375,0.32813 0,0.875 -0.70312,0.875 -0.20313,0 -0.39063,-0.0781 -0.17187,-0.0781 -0.34375,-0.23437 l -0.14062,-0.125 q -0.35938,0.26562 -0.60938,0.65625 -0.23437,0.375 -0.39062,0.89062 v 0.90625 q 0,0.39063 0,0.92188 0.0156,0.53125 0.0312,0.98437 l 0.98437,0.17188 v 0.4375 z m 7.69041,-5.29688 q -0.34375,0 -0.6875,0.1875 -0.34375,0.1875 -0.59375,0.60938 -0.23437,0.42187 -0.3125,1.10937 h 2.1875 q 0.4375,0 0.5625,-0.17187 0.14063,-0.1875 0.14063,-0.45313 0,-0.34375 -0.17188,-0.625 -0.17187,-0.29687 -0.46875,-0.46875 -0.29687,-0.1875 -0.65625,-0.1875 z m -0.0156,5.45313 q -1.21875,0 -1.95313,-0.78125 -0.71875,-0.79688 -0.71875,-2.17188 0,-0.92187 0.375,-1.60937 0.375,-0.6875 1,-1.0625 0.64063,-0.39063 1.375,-0.39063 0.625,0 1.125,0.28125 0.51563,0.28125 0.8125,0.79688 0.29688,0.5 0.29688,1.23437 0,0.20313 -0.0312,0.375 -0.0156,0.17188 -0.0469,0.29688 h -3.82812 q 0.0156,1.09375 0.54687,1.67187 0.53125,0.57813 1.39063,0.57813 0.57812,0 0.95312,-0.23438 0.39063,-0.23437 0.71875,-0.60937 l 0.28125,0.23437 q -0.32812,0.64063 -0.90625,1.01563 -0.57812,0.375 -1.39062,0.375 z m 5.30754,0 q -0.51562,0 -0.9375,-0.125 -0.40625,-0.10938 -0.85937,-0.32813 l -0.0469,-1.32812 h 0.65625 l 0.23438,1.04687 q 0.42187,0.1875 0.96875,0.1875 0.6875,0 1.01562,-0.25 0.32813,-0.25 0.32813,-0.65625 0,-0.39062 -0.28125,-0.60937 -0.26563,-0.23438 -0.82813,-0.4375 l -0.5625,-0.20313 q -0.65625,-0.23437 -1.0625,-0.60937 -0.39062,-0.39063 -0.39062,-1 0,-0.45313 0.23437,-0.82813 0.25,-0.39062 0.71875,-0.625 0.46875,-0.25 1.14063,-0.25 0.5,0 0.89062,0.125 0.40625,0.125 0.79688,0.375 l -0.0469,1.21875 h -0.625 l -0.20312,-0.95312 q -0.40625,-0.20313 -0.82813,-0.20313 -0.54687,0 -0.82812,0.21875 -0.28125,0.21875 -0.28125,0.59375 0,0.39063 0.23437,0.59375 0.25,0.20313 0.875,0.4375 l 0.35938,0.125 q 0.90625,0.34375 1.28125,0.78125 0.375,0.42188 0.375,0.98438 0,0.45312 -0.26563,0.84375 -0.25,0.39062 -0.76562,0.64062 -0.51563,0.23438 -1.29688,0.23438 z m 6.08304,0 q -0.6875,0 -1.32813,-0.32813 -0.625,-0.32812 -1.01562,-1 -0.39063,-0.67187 -0.39063,-1.64062 0,-1 0.39063,-1.67188 0.39062,-0.6875 1.01562,-1.03125 0.64063,-0.34375 1.32813,-0.34375 0.70312,0 1.32812,0.34375 0.64063,0.34375 1.03125,1.03125 0.40625,0.67188 0.40625,1.67188 0,0.96875 -0.40625,1.64062 -0.39062,0.67188 -1.03125,1 -0.625,0.32813 -1.32812,0.32813 z m 0,-0.54688 q 0.78125,0 1.20312,-0.60937 0.42188,-0.625 0.42188,-1.8125 0,-1.21875 -0.42188,-1.84375 -0.42187,-0.64063 -1.20312,-0.64063 -0.76563,0 -1.1875,0.64063 -0.40625,0.625 -0.40625,1.84375 0,1.1875 0.40625,1.8125 0.42187,0.60937 1.1875,0.60937 z m 3.48367,0.39063 v -0.4375 l 0.96875,-0.15625 q 0,-0.5 0,-0.96875 0.0156,-0.48438 0.0156,-0.95313 v -5.26562 l -0.98438,-0.125 v -0.42188 l 1.875,-0.54687 0.17188,0.10937 -0.0469,1.70313 v 4.54687 q 0,0.46875 0,0.95313 0,0.48437 0.0156,0.96875 l 0.96875,0.15625 v 0.4375 z m 6.83103,-5.23438 v -0.46875 h 2.28125 v 0.46875 l -0.65625,0.15625 -1.95313,5.15625 h -0.51562 l -2.1875,-5.1875 -0.64063,-0.125 v -0.46875 h 2.90625 v 0.46875 l -1.0625,0.15625 1.46875,3.84375 1.32813,-3.82812 z m 5.38253,-0.0625 q -0.34375,0 -0.6875,0.1875 -0.34375,0.1875 -0.59375,0.60938 -0.23437,0.42187 -0.3125,1.10937 h 2.1875 q 0.4375,0 0.5625,-0.17187 0.14063,-0.1875 0.14063,-0.45313 0,-0.34375 -0.17188,-0.625 -0.17187,-0.29687 -0.46875,-0.46875 -0.29687,-0.1875 -0.65625,-0.1875 z m -0.0156,5.45313 q -1.21875,0 -1.95313,-0.78125 -0.71875,-0.79688 -0.71875,-2.17188 0,-0.92187 0.375,-1.60937 0.375,-0.6875 1,-1.0625 0.64063,-0.39063 1.375,-0.39063 0.625,0 1.125,0.28125 0.51563,0.28125 0.8125,0.79688 0.29688,0.5 0.29688,1.23437 0,0.20313 -0.0312,0.375 -0.0156,0.17188 -0.0469,0.29688 h -3.82812 q 0.0156,1.09375 0.54687,1.67187 0.53125,0.57813 1.39063,0.57813 0.57812,0 0.95312,-0.23438 0.39063,-0.23437 0.71875,-0.60937 l 0.28125,0.23437 q -0.32812,0.64063 -0.90625,1.01563 -0.57812,0.375 -1.39062,0.375 z m 3.40129,-0.15625 v -0.4375 l 0.875,-0.15625 q 0,-0.45313 0,-0.98438 0.0156,-0.53125 0.0156,-0.9375 v -0.57812 q 0,-0.5 -0.0156,-0.8125 0,-0.32813 -0.0156,-0.6875 l -0.95312,-0.10938 V 172.322 l 1.6875,-0.73438 0.17187,0.125 0.14063,1.42188 q 0.29687,-0.73438 0.76562,-1.14063 0.46875,-0.40625 0.95313,-0.40625 0.28125,0 0.51562,0.125 0.25,0.125 0.34375,0.32813 0,0.875 -0.70312,0.875 -0.20313,0 -0.39063,-0.0781 -0.17187,-0.0781 -0.34375,-0.23437 l -0.14062,-0.125 q -0.35938,0.26562 -0.60938,0.65625 -0.23437,0.375 -0.39062,0.89062 v 0.90625 q 0,0.39063 0,0.92188 0.0156,0.53125 0.0312,0.98437 l 0.98437,0.17188 v 0.4375 z m 6.25291,-4.20313 q -0.35937,0 -0.60937,-0.25 -0.23438,-0.25 -0.23438,-0.60937 0,-0.35938 0.23438,-0.60938 0.25,-0.25 0.60937,-0.25 0.35938,0 0.60938,0.25 0.25,0.25 0.25,0.60938 0,0.35937 -0.25,0.60937 -0.25,0.25 -0.60938,0.25 z m 0,4.35938 q -0.35937,0 -0.60937,-0.25 -0.23438,-0.25 -0.23438,-0.60938 0,-0.35937 0.23438,-0.60937 0.25,-0.25 0.60937,-0.25 0.35938,0 0.60938,0.25 0.25,0.25 0.25,0.60937 0,0.35938 -0.25,0.60938 -0.25,0.25 -0.60938,0.25 z m 10.14603,-7.6875 v -0.5 h 3.375 v 0.5 l -1.09375,0.125 q -0.0156,0.76562 -0.0312,1.54687 0,0.76563 0,1.54688 v 0.59375 q 0,0.76562 0,1.54687 0.0156,0.76563 0.0312,1.54688 l 1.09375,0.14062 v 0.48438 h -3.375 v -0.48438 l 1.09375,-0.14062 q 0.0312,-0.76563 0.0312,-1.5625 0,-0.79688 0,-1.64063 h -3.87498 q 0,0.90625 0,1.6875 0.0156,0.78125 0.0156,1.53125 l 1.09375,0.125 v 0.48438 h -3.375 v -0.48438 l 1.09375,-0.14062 q 0.0312,-0.75 0.0312,-1.53125 0,-0.78125 0,-1.5625 v -0.59375 q 0,-0.78125 0,-1.54688 0,-0.78125 -0.0312,-1.54687 l -1.09375,-0.125 v -0.5 h 3.375 v 0.5 l -1.09375,0.10937 q 0,0.78125 -0.0156,1.54688 0,0.76562 0,1.48437 h 3.87498 q 0,-0.79687 0,-1.53125 0,-0.75 -0.0312,-1.48437 z m 5.71808,3.32812 q -0.35938,0 -0.60938,-0.25 -0.23437,-0.25 -0.23437,-0.60937 0,-0.35938 0.23437,-0.60938 0.25,-0.25 0.60938,-0.25 0.35937,0 0.60937,0.25 0.25,0.25 0.25,0.60938 0,0.35937 -0.25,0.60937 -0.25,0.25 -0.60937,0.25 z m 0,4.35938 q -0.35938,0 -0.60938,-0.25 -0.23437,-0.25 -0.23437,-0.60938 0,-0.35937 0.23437,-0.60937 0.25,-0.25 0.60938,-0.25 0.35937,0 0.60937,0.25 0.25,0.25 0.25,0.60937 0,0.35938 -0.25,0.60938 -0.25,0.25 -0.60937,0.25 z m 3.60001,-4.35938 q -0.35938,0 -0.60938,-0.25 -0.23437,-0.25 -0.23437,-0.60937 0,-0.35938 0.23437,-0.60938 0.25,-0.25 0.60938,-0.25 0.35937,0 0.60937,0.25 0.25,0.25 0.25,0.60938 0,0.35937 -0.25,0.60937 -0.25,0.25 -0.60937,0.25 z m 0,4.35938 q -0.35938,0 -0.60938,-0.25 -0.23437,-0.25 -0.23437,-0.60938 0,-0.35937 0.23437,-0.60937 0.25,-0.25 0.60938,-0.25 0.35937,0 0.60937,0.25 0.25,0.25 0.25,0.60937 0,0.35938 -0.25,0.60938 -0.25,0.25 -0.60937,0.25 z m 5.66253,-7.625 h -1.04687 q 0,0.78125 -0.0156,1.57812 0,0.78125 0,1.625 h 0.92188 q 0.96875,0 1.42187,-0.46875 0.46875,-0.46875 0.46875,-1.1875 0,-0.75 -0.42187,-1.14062 -0.40625,-0.40625 -1.32813,-0.40625 z m -3.32812,-0.0625 v -0.5 h 3.35937 q 1.375,0 2.14063,0.5625 0.76562,0.54687 0.76562,1.54687 0,0.6875 -0.5,1.26563 -0.5,0.57812 -1.51562,0.75 0.53125,0.10937 0.875,0.46875 0.34375,0.35937 0.54687,1.0625 l 0.51563,1.78125 0.92187,0.10937 v 0.48438 q -0.17187,0.0469 -0.40625,0.0781 -0.21875,0.0469 -0.48437,0.0469 -0.5625,0 -0.85938,-0.17188 -0.28125,-0.17187 -0.375,-0.59375 l -0.48437,-1.92187 q -0.10938,-0.5 -0.3125,-0.73438 -0.20313,-0.25 -0.53125,-0.32812 -0.3125,-0.0937 -0.79688,-0.0937 h -0.59375 q 0,0.85937 0,1.625 0.0156,0.75 0.0156,1.46875 l 1.10937,0.14062 v 0.48438 h -3.39062 v -0.48438 l 1.09375,-0.14062 q 0.0312,-0.75 0.0312,-1.53125 0,-0.78125 0,-1.5625 v -0.59375 q 0,-0.78125 0,-1.54688 0,-0.78125 -0.0312,-1.54687 z"
       fill-rule="nonzero"
       id="path233" />
    <path
       fill="#000000"
       fill-opacity="0"
       d="M 178.88452,127.23911 H 297.75064 V 141.7903 H 178.88452 Z"
       fill-rule="evenodd"
       id="path235" />
    <path
       fill="#000000"
       d="m 221.97932,133.52473 v -0.46875 h 2.28125 v 0.46875 l -0.65625,0.15625 -1.95313,5.15625 h -0.51562 l -2.1875,-5.1875 -0.64063,-0.125 v -0.46875 h 2.90625 v 0.46875 l -1.0625,0.15625 1.46875,3.84375 1.32813,-3.82813 z m 7.18054,5.35937 q -0.42187,0 -0.71875,-0.25 -0.28125,-0.26562 -0.35937,-0.67187 -0.48438,0.46875 -0.85938,0.71875 -0.375,0.23437 -0.90625,0.23437 -0.65625,0 -1.125,-0.375 -0.46875,-0.375 -0.46875,-1.125 0,-0.34375 0.15625,-0.64062 0.15625,-0.3125 0.59375,-0.59375 0.4375,-0.29688 1.23438,-0.57813 0.28125,-0.0937 0.64062,-0.20312 0.35938,-0.10938 0.71875,-0.1875 v -0.3125 q 0,-0.875 -0.26562,-1.15625 -0.26563,-0.28125 -0.85938,-0.28125 -0.14062,0 -0.3125,0.0156 -0.15625,0 -0.34375,0.0469 l -0.21875,0.78125 q -0.17187,0.57812 -0.625,0.57812 -0.51562,0 -0.5625,-0.5 0.15625,-0.67187 0.78125,-1.07812 0.64063,-0.40625 1.54688,-0.40625 0.95312,0 1.40625,0.48437 0.45312,0.46875 0.45312,1.60938 v 2.54687 q 0,0.39063 0.125,0.5625 0.125,0.15625 0.3125,0.15625 0.15625,0 0.26563,-0.0625 0.10937,-0.0781 0.20312,-0.20312 l 0.23438,0.26562 q -0.21875,0.34375 -0.48438,0.48438 -0.25,0.14062 -0.5625,0.14062 z m -3.375,-1.65625 q 0,0.48438 0.26563,0.6875 0.28125,0.20313 0.6875,0.20313 0.1875,0 0.34375,-0.0469 0.17187,-0.0469 0.39062,-0.1875 0.23438,-0.14062 0.59375,-0.39062 v -1.84375 q -0.3125,0.0781 -0.625,0.1875 -0.29687,0.10937 -0.48437,0.17187 -0.51563,0.20313 -0.76563,0.42188 -0.25,0.21875 -0.32812,0.42187 -0.0781,0.20313 -0.0781,0.375 z m 4.79555,1.53125 v -0.4375 l 0.96875,-0.15625 q 0,-0.5 0,-0.96875 0.0156,-0.48437 0.0156,-0.95312 v -5.26563 l -0.98437,-0.125 v -0.42187 l 1.875,-0.54688 0.17187,0.10938 -0.0469,1.70312 v 4.54688 q 0,0.46875 0,0.95312 0,0.48438 0.0156,0.96875 l 0.96875,0.15625 v 0.4375 z m 3.70102,0 v -0.4375 l 0.89062,-0.15625 q 0.0156,-0.46875 0.0156,-1 0.0156,-0.53125 0.0156,-0.92187 v -0.5625 q 0,-0.5 -0.0156,-0.82813 0,-0.32812 -0.0156,-0.6875 l -0.96875,-0.10937 v -0.42188 l 1.85938,-0.73437 0.17187,0.125 -0.0312,1.625 v 1.59375 q 0,0.39062 0,0.92187 0.0156,0.53125 0.0156,1 l 0.84375,0.15625 v 0.4375 z m 1.42187,-7.17187 q -0.34375,0 -0.57812,-0.21875 -0.23438,-0.21875 -0.23438,-0.54688 0,-0.35937 0.23438,-0.5625 0.23437,-0.21875 0.57812,-0.21875 0.32813,0 0.5625,0.21875 0.23438,0.20313 0.23438,0.5625 0,0.32813 -0.23438,0.54688 -0.23437,0.21875 -0.5625,0.21875 z m 3.35727,4.35937 q 0,1.17188 0.46875,1.73438 0.46875,0.54687 1.1875,0.54687 0.40625,0 0.70313,-0.15625 0.3125,-0.17187 0.64062,-0.53125 v -3.32812 q -0.40625,-0.35938 -0.73437,-0.48438 -0.3125,-0.14062 -0.60938,-0.14062 -0.45312,0 -0.82812,0.25 -0.375,0.23437 -0.60938,0.76562 -0.21875,0.51563 -0.21875,1.34375 z m 3.125,2.9375 -0.0781,-0.82812 q -0.3125,0.40625 -0.71875,0.64062 -0.40625,0.21875 -0.96875,0.21875 -0.73438,0 -1.28125,-0.375 -0.54688,-0.375 -0.85938,-1.03125 -0.29687,-0.67187 -0.29687,-1.54687 0,-0.92188 0.32812,-1.60938 0.34375,-0.6875 0.90625,-1.0625 0.57813,-0.39062 1.3125,-0.39062 0.42188,0 0.8125,0.17187 0.39063,0.17188 0.76563,0.60938 v -2.70313 l -1.03125,-0.125 v -0.42187 l 1.87501,-0.54688 0.17188,0.10938 -0.0469,1.70312 v 6.48438 l 0.96875,0.14062 v 0.4375 z m 3.85094,-4.32812 q -0.35937,0 -0.60937,-0.25 -0.23438,-0.25 -0.23438,-0.60938 0,-0.35937 0.23438,-0.60937 0.25,-0.25 0.60937,-0.25 0.35938,0 0.60938,0.25 0.25,0.25 0.25,0.60937 0,0.35938 -0.25,0.60938 -0.25,0.25 -0.60938,0.25 z m 0,4.35937 q -0.35937,0 -0.60937,-0.25 -0.23438,-0.25 -0.23438,-0.60937 0,-0.35938 0.23438,-0.60938 0.25,-0.25 0.60937,-0.25 0.35938,0 0.60938,0.25 0.25,0.25 0.25,0.60938 0,0.35937 -0.25,0.60937 -0.25,0.25 -0.60938,0.25 z"
       fill-rule="nonzero"
       id="path237" />
    <path
       fill="#202122"
       d="m 256.29193,134.54036 q 0.73437,0.20312 1.20312,0.75 0.48438,0.54687 0.48438,1.32812 0,1.03125 -0.9375,1.59375 -0.9375,0.54688 -2.3125,0.54688 h -3.57813 q -0.20312,0 -0.20312,-0.23438 0,-0.20312 0.39062,-0.20312 0.42188,0 0.5625,-0.125 0.15625,-0.125 0.15625,-0.53125 v -5.6875 q 0,-0.4375 -0.1875,-0.53125 -0.17187,-0.10938 -0.71875,-0.10938 -0.20312,0 -0.20312,-0.23437 0,-0.21875 0.20312,-0.21875 h 3.57813 q 2.8125,0 2.8125,2.01562 0,1.01563 -1.25,1.64063 z m 0.8125,-1.64063 q 0,-1.32812 -1.53125,-1.51562 0.48437,0.5625 0.48437,1.51562 0,1.10938 -0.60937,1.59375 1.65625,-0.79687 1.65625,-1.59375 z m -1.48438,0 q 0,-0.6875 -0.29687,-1.125 -0.28125,-0.4375 -0.82813,-0.4375 -0.25,0 -0.4375,0.125 -0.1875,0.10938 -0.1875,0.29688 v 2.70312 q 0.875,0 1.3125,-0.32812 0.4375,-0.34375 0.4375,-1.23438 z m 1.92188,3.71875 q 0,-0.73437 -0.46875,-1.125 -0.46875,-0.40625 -1.28125,-0.64062 0.625,0.46875 0.625,1.76562 0,0.98438 -0.48438,1.5625 1.60938,-0.40625 1.60938,-1.5625 z m -3.67188,1.26563 q 0,0.20312 0.1875,0.32812 0.1875,0.10938 0.4375,0.10938 1.48438,0 1.48438,-1.70313 0,-0.89062 -0.32813,-1.29687 -0.32812,-0.42188 -1.15625,-0.42188 h -0.625 z m -0.3125,-6.54688 h -1.1875 q 0.125,0.21875 0.125,0.64063 v 5.6875 q 0,0.42187 -0.125,0.65625 h 1.1875 q -0.125,-0.20313 -0.125,-0.4375 v -6.125 q 0,-0.21875 0.125,-0.42188 z"
       fill-rule="nonzero"
       id="path239" />
    <path
       fill="#000000"
       fill-opacity="0"
       d="M 185.06726,144.94249 H 291.55545"
       fill-rule="evenodd"
       id="path241" />
    <path
       stroke="#595959"
       stroke-width="2"
       stroke-linejoin="round"
       stroke-linecap="butt"
       d="m 185.06726,144.94249 h 94.48819"
       fill-rule="evenodd"
       id="path243" />
    <path
       fill="#595959"
       stroke="#595959"
       stroke-width="2"
       stroke-linecap="butt"
       d="m 279.55545,148.24594 9.0762,-3.30345 -9.0762,-3.30347 z"
       fill-rule="evenodd"
       id="path245" />
    <path
       fill="#000000"
       fill-opacity="0"
       d="M 185.06726,164.28644 H 291.55545"
       fill-rule="evenodd"
       id="path247" />
    <path
       stroke="#595959"
       stroke-width="2"
       stroke-linejoin="round"
       stroke-linecap="butt"
       d="m 185.06726,164.28642 h 94.48819"
       fill-rule="evenodd"
       id="path249" />
    <path
       fill="#595959"
       stroke="#595959"
       stroke-width="2"
       stroke-linecap="butt"
       d="m 279.55545,167.58989 9.0762,-3.30347 -9.0762,-3.30346 z"
       fill-rule="evenodd"
       id="path251" />
    <path
       fill="#000000"
       fill-opacity="0"
       d="m 178.88452,146.58305 h 118.86612 v 14.55119 H 178.88452 Z"
       fill-rule="evenodd"
       id="path253" />
    <path
       fill="#000000"
       d="m 202.69121,160.97806 v -0.42188 l 0.95312,-0.17187 q 0.0156,-0.5 0.0156,-0.98438 0.0156,-0.48437 0.0156,-0.95312 v -3.4375 q 0,-0.5 -0.0156,-0.8125 0,-0.32813 -0.0156,-0.6875 l -0.95312,-0.10938 v -0.42187 l 1.67187,-0.73438 0.1875,0.125 0.0781,0.78125 q 0.84375,-0.90625 1.79687,-0.90625 0.65625,0 1.17188,0.35938 0.51562,0.35937 0.8125,1.03125 0.3125,0.67187 0.3125,1.59375 0,0.9375 -0.32813,1.60937 -0.3125,0.67188 -0.875,1.04688 -0.5625,0.375 -1.26562,0.375 -0.40625,0 -0.8125,-0.17188 -0.40625,-0.17187 -0.78125,-0.60937 v 0.95312 q 0,0.46875 0,0.95313 0.0156,0.5 0.0156,0.98437 l 1.09375,0.1875 v 0.42188 z m 3.45312,-8.04688 q -0.28125,0 -0.64062,0.14063 -0.35938,0.14062 -0.8125,0.51562 v 3.375 q 0.34375,0.32813 0.65625,0.46875 0.32812,0.14063 0.67187,0.14063 0.67188,0 1.14063,-0.53125 0.48437,-0.54688 0.48437,-1.70313 0,-1.15625 -0.42187,-1.78125 -0.42188,-0.625 -1.07813,-0.625 z m 8.10543,5.29688 q -0.42188,0 -0.71875,-0.25 -0.28125,-0.26563 -0.35938,-0.67188 -0.48437,0.46875 -0.85937,0.71875 -0.375,0.23438 -0.90625,0.23438 -0.65625,0 -1.125,-0.375 -0.46875,-0.375 -0.46875,-1.125 0,-0.34375 0.15625,-0.64063 0.15625,-0.3125 0.59375,-0.59375 0.4375,-0.29687 1.23437,-0.57812 0.28125,-0.0937 0.64063,-0.20313 0.35937,-0.10937 0.71875,-0.1875 v -0.3125 q 0,-0.875 -0.26563,-1.15625 -0.26562,-0.28125 -0.85937,-0.28125 -0.14063,0 -0.3125,0.0156 -0.15625,0 -0.34375,0.0469 l -0.21875,0.78125 q -0.17188,0.57813 -0.625,0.57813 -0.51563,0 -0.5625,-0.5 0.15625,-0.67188 0.78125,-1.07813 0.64062,-0.40625 1.54687,-0.40625 0.95313,0 1.40625,0.48438 0.45313,0.46875 0.45313,1.60937 v 2.54688 q 0,0.39062 0.125,0.5625 0.125,0.15625 0.3125,0.15625 0.15625,0 0.26562,-0.0625 0.10938,-0.0781 0.20313,-0.20313 l 0.23437,0.26563 q -0.21875,0.34375 -0.48437,0.48437 -0.25,0.14063 -0.5625,0.14063 z m -3.375,-1.65625 q 0,0.48437 0.26562,0.6875 0.28125,0.20312 0.6875,0.20312 0.1875,0 0.34375,-0.0469 0.17188,-0.0469 0.39063,-0.1875 0.23437,-0.14063 0.59375,-0.39063 v -1.84375 q -0.3125,0.0781 -0.625,0.1875 -0.29688,0.10938 -0.48438,0.17188 -0.51562,0.20312 -0.76562,0.42187 -0.25,0.21875 -0.32813,0.42188 -0.0781,0.20312 -0.0781,0.375 z m 8.17555,-3.73438 v -0.4375 h 2.34375 v 0.4375 l -0.64062,0.125 -1.9375,5.10938 q -0.59375,1.59375 -1.15625,2.29687 -0.5625,0.71875 -1.29688,0.71875 -0.45312,0 -0.78125,-0.21875 -0.32812,-0.21875 -0.32812,-0.5625 0.0625,-0.26562 0.29687,-0.40625 0.23438,-0.125 0.5,-0.125 0.25,0 0.45313,0.0937 0.20312,0.10938 0.4375,0.35938 l 0.0625,0.0625 q 0.39062,-0.32813 0.64062,-0.79688 0.26563,-0.45312 0.4375,-0.9375 l 0.0469,-0.14062 -2.17188,-5.48438 -0.65625,-0.0937 v -0.4375 h 2.875 v 0.45313 l -1.04687,0.10937 1.5,4.09375 1.46875,-4.07812 z m 2.40404,5.26563 v -0.4375 l 0.96875,-0.15625 q 0,-0.5 0,-0.96875 0.0156,-0.48438 0.0156,-0.95313 v -5.26562 l -0.98437,-0.125 v -0.42188 l 1.875,-0.54687 0.17187,0.10937 -0.0469,1.70313 v 4.54687 q 0,0.46875 0,0.95313 0,0.48437 0.0156,0.96875 l 0.96875,0.15625 v 0.4375 z m 6.56039,0.15625 q -0.6875,0 -1.32812,-0.32813 -0.625,-0.32812 -1.01563,-1 -0.39062,-0.67187 -0.39062,-1.64062 0,-1 0.39062,-1.67188 0.39063,-0.6875 1.01563,-1.03125 0.64062,-0.34375 1.32812,-0.34375 0.70313,0 1.32813,0.34375 0.64062,0.34375 1.03125,1.03125 0.40625,0.67188 0.40625,1.67188 0,0.96875 -0.40625,1.64062 -0.39063,0.67188 -1.03125,1 -0.625,0.32813 -1.32813,0.32813 z m 0,-0.54688 q 0.78125,0 1.20313,-0.60937 0.42187,-0.625 0.42187,-1.8125 0,-1.21875 -0.42187,-1.84375 -0.42188,-0.64063 -1.20313,-0.64063 -0.76562,0 -1.1875,0.64063 -0.40625,0.625 -0.40625,1.84375 0,1.1875 0.40625,1.8125 0.42188,0.60937 1.1875,0.60937 z m 8.29117,0.51563 q -0.42188,0 -0.71875,-0.25 -0.28125,-0.26563 -0.35938,-0.67188 -0.48437,0.46875 -0.85937,0.71875 -0.375,0.23438 -0.90625,0.23438 -0.65625,0 -1.125,-0.375 -0.46875,-0.375 -0.46875,-1.125 0,-0.34375 0.15625,-0.64063 0.15625,-0.3125 0.59375,-0.59375 0.4375,-0.29687 1.23437,-0.57812 0.28125,-0.0937 0.64063,-0.20313 0.35937,-0.10937 0.71875,-0.1875 v -0.3125 q 0,-0.875 -0.26563,-1.15625 -0.26562,-0.28125 -0.85937,-0.28125 -0.14063,0 -0.3125,0.0156 -0.15625,0 -0.34375,0.0469 l -0.21875,0.78125 q -0.17188,0.57813 -0.625,0.57813 -0.51563,0 -0.5625,-0.5 0.15625,-0.67188 0.78125,-1.07813 0.64062,-0.40625 1.54687,-0.40625 0.95313,0 1.40625,0.48438 0.45313,0.46875 0.45313,1.60937 v 2.54688 q 0,0.39062 0.125,0.5625 0.125,0.15625 0.3125,0.15625 0.15625,0 0.26562,-0.0625 0.10938,-0.0781 0.20313,-0.20313 l 0.23437,0.26563 q -0.21875,0.34375 -0.48437,0.48437 -0.25,0.14063 -0.5625,0.14063 z m -3.375,-1.65625 q 0,0.48437 0.26562,0.6875 0.28125,0.20312 0.6875,0.20312 0.1875,0 0.34375,-0.0469 0.17188,-0.0469 0.39063,-0.1875 0.23437,-0.14063 0.59375,-0.39063 v -1.84375 q -0.3125,0.0781 -0.625,0.1875 -0.29688,0.10938 -0.48438,0.17188 -0.51562,0.20312 -0.76562,0.42187 -0.25,0.21875 -0.32813,0.42188 -0.0781,0.20312 -0.0781,0.375 z m 6.12367,-1.28125 q 0,1.17187 0.46875,1.73437 0.46875,0.54688 1.1875,0.54688 0.40625,0 0.70313,-0.15625 0.3125,-0.17188 0.64062,-0.53125 v -3.32813 q -0.40625,-0.35937 -0.73437,-0.48437 -0.3125,-0.14063 -0.60938,-0.14063 -0.45312,0 -0.82812,0.25 -0.375,0.23438 -0.60938,0.76563 -0.21875,0.51562 -0.21875,1.34375 z m 3.125,2.9375 -0.0781,-0.82813 q -0.3125,0.40625 -0.71875,0.64063 -0.40625,0.21875 -0.96875,0.21875 -0.73438,0 -1.28125,-0.375 -0.54688,-0.375 -0.85938,-1.03125 -0.29687,-0.67188 -0.29687,-1.54688 0,-0.92187 0.32812,-1.60937 0.34375,-0.6875 0.90625,-1.0625 0.57813,-0.39063 1.3125,-0.39063 0.42188,0 0.8125,0.17188 0.39063,0.17187 0.76563,0.60937 v -2.70312 l -1.03125,-0.125 v -0.42188 l 1.87501,-0.54687 0.17188,0.10937 -0.0469,1.70313 v 6.48437 l 0.96875,0.14063 v 0.4375 z m 3.85094,-4.32813 q -0.35938,0 -0.60938,-0.25 -0.23437,-0.25 -0.23437,-0.60937 0,-0.35938 0.23437,-0.60938 0.25,-0.25 0.60938,-0.25 0.35937,0 0.60937,0.25 0.25,0.25 0.25,0.60938 0,0.35937 -0.25,0.60937 -0.25,0.25 -0.60937,0.25 z m 0,4.35938 q -0.35938,0 -0.60938,-0.25 -0.23437,-0.25 -0.23437,-0.60938 0,-0.35937 0.23437,-0.60937 0.25,-0.25 0.60938,-0.25 0.35937,0 0.60937,0.25 0.25,0.25 0.25,0.60937 0,0.35938 -0.25,0.60938 -0.25,0.25 -0.60937,0.25 z m 10.14603,-7.6875 v -0.5 h 3.375 v 0.5 l -1.09375,0.125 q -0.0156,0.76562 -0.0312,1.54687 0,0.76563 0,1.54688 v 0.59375 q 0,0.76562 0,1.54687 0.0156,0.76563 0.0312,1.54688 l 1.09375,0.14062 v 0.48438 h -3.375 v -0.48438 l 1.09375,-0.14062 q 0.0312,-0.76563 0.0312,-1.5625 0,-0.79688 0,-1.64063 h -3.87499 q 0,0.90625 0,1.6875 0.0156,0.78125 0.0156,1.53125 l 1.09375,0.125 v 0.48438 h -3.375 v -0.48438 l 1.09375,-0.14062 q 0.0312,-0.75 0.0312,-1.53125 0,-0.78125 0,-1.5625 v -0.59375 q 0,-0.78125 0,-1.54688 0,-0.78125 -0.0312,-1.54687 l -1.09375,-0.125 v -0.5 h 3.375 v 0.5 l -1.09375,0.10937 q 0,0.78125 -0.0156,1.54688 0,0.76562 0,1.48437 h 3.87499 q 0,-0.79687 0,-1.53125 0,-0.75 -0.0312,-1.48437 z m 5.71807,3.32812 q -0.35937,0 -0.60937,-0.25 -0.23438,-0.25 -0.23438,-0.60937 0,-0.35938 0.23438,-0.60938 0.25,-0.25 0.60937,-0.25 0.35938,0 0.60938,0.25 0.25,0.25 0.25,0.60938 0,0.35937 -0.25,0.60937 -0.25,0.25 -0.60938,0.25 z m 0,4.35938 q -0.35937,0 -0.60937,-0.25 -0.23438,-0.25 -0.23438,-0.60938 0,-0.35937 0.23438,-0.60937 0.25,-0.25 0.60937,-0.25 0.35938,0 0.60938,0.25 0.25,0.25 0.25,0.60937 0,0.35938 -0.25,0.60938 -0.25,0.25 -0.60938,0.25 z m 3.60001,-4.35938 q -0.35937,0 -0.60937,-0.25 -0.23438,-0.25 -0.23438,-0.60937 0,-0.35938 0.23438,-0.60938 0.25,-0.25 0.60937,-0.25 0.35938,0 0.60938,0.25 0.25,0.25 0.25,0.60938 0,0.35937 -0.25,0.60937 -0.25,0.25 -0.60938,0.25 z m 0,4.35938 q -0.35937,0 -0.60937,-0.25 -0.23438,-0.25 -0.23438,-0.60938 0,-0.35937 0.23438,-0.60937 0.25,-0.25 0.60937,-0.25 0.35938,0 0.60938,0.25 0.25,0.25 0.25,0.60937 0,0.35938 -0.25,0.60938 -0.25,0.25 -0.60938,0.25 z m 5.35004,-7.625 h -0.73438 q 0,0.76562 -0.0156,1.5625 0,0.79687 0,1.59375 v 0.57812 h 0.79687 q 1.09375,0 1.54688,-0.53125 0.46875,-0.53125 0.46875,-1.375 0,-0.875 -0.5,-1.34375 -0.48438,-0.48437 -1.5625,-0.48437 z m -3.01563,-0.0625 v -0.5 h 3.21875 q 1.53125,0 2.28125,0.67187 0.76563,0.65625 0.76563,1.71875 0,0.67188 -0.34375,1.23438 -0.32813,0.5625 -1.0625,0.90625 -0.73438,0.32812 -1.96875,0.32812 h -0.625 q 0,0.65625 0,1.28125 0.0156,0.625 0.0156,1.26563 l 1.125,0.14062 v 0.48438 h -3.40625 v -0.48438 l 1.09375,-0.14062 q 0.0312,-0.75 0.0312,-1.53125 0,-0.78125 0,-1.5625 v -0.59375 q 0,-0.78125 0,-1.54688 0,-0.78125 -0.0312,-1.54687 z"
       fill-rule="nonzero"
       id="path255" />
    <path
       fill="#d9d9d9"
       d="m 109.31087,139.05994 h 75.74803 v 50.79509 h -75.74803 z"
       fill-rule="evenodd"
       id="path257" />
    <path
       fill="#000000"
       fill-opacity="0"
       d="m 109.29871,139.06223 h 48.05285"
       fill-rule="evenodd"
       id="path259" />
    <path
       stroke="#595959"
       stroke-width="1"
       stroke-linejoin="round"
       stroke-linecap="butt"
       stroke-dasharray="4, 3"
       d="m 109.29871,139.06223 h 48.05285"
       fill-rule="evenodd"
       id="path261" />
    <path
       fill="#000000"
       fill-opacity="0"
       d="m 109.29871,189.85732 h 48.05285"
       fill-rule="evenodd"
       id="path263" />
    <path
       stroke="#595959"
       stroke-width="1"
       stroke-linejoin="round"
       stroke-linecap="butt"
       stroke-dasharray="4, 3"
       d="m 109.29871,189.85732 h 48.05285"
       fill-rule="evenodd"
       id="path265" />
    <path
       fill="#000000"
       fill-opacity="0"
       d="m 156.64949,189.85732 h 28.39487"
       fill-rule="evenodd"
       id="path267" />
    <path
       stroke="#595959"
       stroke-width="1"
       stroke-linejoin="round"
       stroke-linecap="butt"
       d="m 156.64949,189.85732 h 28.39487"
       fill-rule="evenodd"
       id="path269" />
    <path
       fill="#000000"
       fill-opacity="0"
       d="m 156.64949,139.06223 h 28.39487"
       fill-rule="evenodd"
       id="path271" />
    <path
       stroke="#595959"
       stroke-width="1"
       stroke-linejoin="round"
       stroke-linecap="butt"
       d="m 156.64949,139.06223 h 28.39487"
       fill-rule="evenodd"
       id="path273" />
    <path
       fill="#000000"
       fill-opacity="0"
       d="M 185.04436,189.85503 V 139.27866"
       fill-rule="evenodd"
       id="path275" />
    <path
       stroke="#595959"
       stroke-width="1"
       stroke-linejoin="round"
       stroke-linecap="butt"
       d="M 185.04436,189.85503 V 139.27866"
       fill-rule="evenodd"
       id="path277" />
    <path
       fill="#000000"
       fill-opacity="0"
       d="m 104.06036,147.43735 h 81.00787 v 34.04724 h -81.00787 z"
       fill-rule="evenodd"
       id="path279" />
    <path
       fill="#000000"
       d="m 133.66083,169.95972 q -0.8125,0 -1.57813,-0.21875 -0.76562,-0.23438 -1.26562,-0.5625 l 0.0781,-2.04688 h 0.90625 l 0.29688,1.73438 q 0.34375,0.1875 0.70312,0.28125 0.35938,0.0781 0.82813,0.0781 1.03125,0 1.64062,-0.45312 0.625,-0.46875 0.625,-1.3125 0,-0.70313 -0.4375,-1.09375 -0.42187,-0.39063 -1.35937,-0.76563 l -0.57813,-0.23437 q -1.125,-0.4375 -1.82812,-1.125 -0.6875,-0.70313 -0.6875,-1.8125 0,-0.84375 0.42187,-1.4375 0.4375,-0.60938 1.1875,-0.9375 0.75,-0.34375 1.6875,-0.34375 0.73438,0 1.32813,0.21875 0.60937,0.20312 1.07812,0.54687 l -0.0937,1.92188 h -0.89062 l -0.3125,-1.65625 q -0.54688,-0.29688 -1.20313,-0.29688 -0.82812,0 -1.40625,0.42188 -0.5625,0.42187 -0.5625,1.23437 0,0.67188 0.42188,1.125 0.4375,0.4375 1.23437,0.73438 l 0.57813,0.21875 q 1.4375,0.5625 2.04687,1.26562 0.625,0.6875 0.625,1.73438 0,0.85937 -0.45312,1.48437 -0.4375,0.625 -1.21875,0.96875 -0.78125,0.32813 -1.8125,0.32813 z m 8.00403,-6.70313 q -0.40625,0 -0.82813,0.23438 -0.40625,0.23437 -0.71875,0.75 -0.29687,0.51562 -0.375,1.35937 h 2.65625 q 0.53125,0 0.70313,-0.21875 0.17187,-0.21875 0.17187,-0.53125 0,-0.42187 -0.21875,-0.78125 -0.21875,-0.35937 -0.57812,-0.57812 -0.35938,-0.23438 -0.8125,-0.23438 z m -0.0156,6.67188 q -1.46875,0 -2.375,-0.95313 -0.89062,-0.96875 -0.89062,-2.65625 0,-1.125 0.45312,-1.95312 0.46875,-0.84375 1.23438,-1.3125 0.78125,-0.46875 1.6875,-0.46875 0.76562,0 1.375,0.34375 0.625,0.32812 0.98437,0.95312 0.35938,0.625 0.35938,1.51563 0,0.25 -0.0312,0.46875 -0.0156,0.20312 -0.0625,0.35937 h -4.67188 q 0.0312,1.34375 0.67188,2.04688 0.64062,0.70312 1.70312,0.70312 0.70313,0 1.17188,-0.28125 0.46875,-0.28125 0.85937,-0.73437 l 0.34375,0.26562 q -0.40625,0.78125 -1.10937,1.25 -0.70313,0.45313 -1.70313,0.45313 z m 4.14659,-0.1875 v -0.53125 l 1.07813,-0.20313 q 0.0156,-0.5625 0.0156,-1.20312 0.0156,-0.64063 0.0156,-1.14063 v -0.70312 q 0,-0.59375 -0.0156,-0.98438 0,-0.40625 -0.0312,-0.84375 l -1.15625,-0.14062 v -0.51563 l 2.04688,-0.89062 0.21875,0.15625 0.125,1.17187 q 0.53125,-0.59375 1.23437,-0.95312 0.71875,-0.375 1.39063,-0.375 0.95312,0 1.40625,0.64062 0.46875,0.64063 0.46875,2.07813 v 1.35937 q 0,0.5 0,1.14063 0.0156,0.64062 0.0312,1.20312 l 1.01562,0.20313 v 0.53125 h -3.39062 v -0.53125 l 1.07812,-0.20313 q 0.0156,-0.54687 0.0156,-1.1875 0.0156,-0.65625 0.0156,-1.15625 v -1.25 q 0,-1 -0.29687,-1.375 -0.28125,-0.39062 -0.92188,-0.39062 -0.5,0 -0.96875,0.20312 -0.46875,0.20313 -1.01562,0.67188 v 2.14062 q 0,0.48438 0,1.14063 0,0.64062 0.0156,1.20312 l 1.01563,0.20313 v 0.53125 z m 10.27234,-3.4375 q 0,1.42187 0.57813,2.10937 0.57812,0.6875 1.45312,0.6875 0.48438,0 0.85938,-0.20312 0.375,-0.20313 0.78125,-0.65625 v -4.0625 q -0.5,-0.4375 -0.89063,-0.59375 -0.39062,-0.15625 -0.76562,-0.15625 -0.54688,0 -1.01563,0.29687 -0.45312,0.29688 -0.73437,0.9375 -0.26563,0.64063 -0.26563,1.64063 z m 3.8125,3.57812 -0.0937,-1 q -0.39062,0.5 -0.875,0.78125 -0.48437,0.26563 -1.17187,0.26563 -0.90625,0 -1.57813,-0.45313 -0.67187,-0.45312 -1.04687,-1.26562 -0.375,-0.8125 -0.375,-1.89063 0,-1.125 0.40625,-1.95312 0.42187,-0.84375 1.125,-1.3125 0.70312,-0.46875 1.59375,-0.46875 0.51562,0 0.98437,0.21875 0.48438,0.20312 0.9375,0.73437 v -3.3125 l -1.25,-0.14062 v -0.51563 l 2.28125,-0.65625 0.21875,0.10938 -0.0625,2.09375 v 7.92187 l 1.1875,0.17188 v 0.53125 z m 6.45075,-6.625 q -0.40625,0 -0.82813,0.23438 -0.40625,0.23437 -0.71875,0.75 -0.29687,0.51562 -0.375,1.35937 h 2.65625 q 0.53125,0 0.70313,-0.21875 0.17187,-0.21875 0.17187,-0.53125 0,-0.42187 -0.21875,-0.78125 -0.21875,-0.35937 -0.57812,-0.57812 -0.35938,-0.23438 -0.8125,-0.23438 z m -0.0156,6.67188 q -1.46875,0 -2.375,-0.95313 -0.89062,-0.96875 -0.89062,-2.65625 0,-1.125 0.45312,-1.95312 0.46875,-0.84375 1.23438,-1.3125 0.78125,-0.46875 1.6875,-0.46875 0.76562,0 1.375,0.34375 0.625,0.32812 0.98437,0.95312 0.35938,0.625 0.35938,1.51563 0,0.25 -0.0312,0.46875 -0.0156,0.20312 -0.0625,0.35937 h -4.67188 q 0.0312,1.34375 0.67188,2.04688 0.64062,0.70312 1.70312,0.70312 0.70313,0 1.17188,-0.28125 0.46875,-0.28125 0.85937,-0.73437 l 0.34375,0.26562 q -0.40625,0.78125 -1.10937,1.25 -0.70313,0.45313 -1.70313,0.45313 z m 4.16222,-0.1875 v -0.53125 l 1.0625,-0.1875 q 0.0156,-0.5625 0.0156,-1.20313 0.0156,-0.65625 0.0156,-1.15625 v -0.70312 q 0,-0.59375 -0.0156,-0.98438 0,-0.40625 -0.0312,-0.84375 l -1.15625,-0.14062 v -0.51563 l 2.04688,-0.89062 0.21875,0.15625 0.17187,1.71875 q 0.35938,-0.875 0.9375,-1.375 0.57813,-0.5 1.17188,-0.5 0.32812,0 0.625,0.15625 0.29687,0.14062 0.42187,0.39062 0,1.0625 -0.85937,1.0625 -0.25,0 -0.46875,-0.0937 -0.21875,-0.0937 -0.42188,-0.26562 l -0.1875,-0.15625 q -0.4375,0.3125 -0.73437,0.78125 -0.28125,0.46875 -0.46875,1.10937 v 1.09375 q 0,0.48438 0,1.14063 0,0.64062 0.0156,1.1875 l 1.20313,0.21875 v 0.53125 z"
       fill-rule="nonzero"
       id="path281" />
    <path
       fill="#d9d9d9"
       d="m 291.52875,139.06108 h 75.74802 v 50.79509 h -75.74802 z"
       fill-rule="evenodd"
       id="path283" />
    <path
       fill="#000000"
       fill-opacity="0"
       d="M 367.27438,139.06108 H 319.22152"
       fill-rule="evenodd"
       id="path285" />
    <path
       stroke="#595959"
       stroke-width="1"
       stroke-linejoin="round"
       stroke-linecap="butt"
       stroke-dasharray="4, 3"
       d="M 367.27438,139.06108 H 319.22152"
       fill-rule="evenodd"
       id="path287" />
    <path
       fill="#000000"
       fill-opacity="0"
       d="M 367.27438,189.85617 H 319.22152"
       fill-rule="evenodd"
       id="path289" />
    <path
       stroke="#595959"
       stroke-width="1"
       stroke-linejoin="round"
       stroke-linecap="butt"
       stroke-dasharray="4, 3"
       d="M 367.27438,189.85617 H 319.22152"
       fill-rule="evenodd"
       id="path291" />
    <path
       fill="#000000"
       fill-opacity="0"
       d="M 319.9236,189.85617 H 291.52873"
       fill-rule="evenodd"
       id="path293" />
    <path
       stroke="#595959"
       stroke-width="1"
       stroke-linejoin="round"
       stroke-linecap="butt"
       d="M 319.9236,189.85617 H 291.52873"
       fill-rule="evenodd"
       id="path295" />
    <path
       fill="#000000"
       fill-opacity="0"
       d="M 319.9236,139.06108 H 291.52873"
       fill-rule="evenodd"
       id="path297" />
    <path
       stroke="#595959"
       stroke-width="1"
       stroke-linejoin="round"
       stroke-linecap="butt"
       d="M 319.9236,139.06108 H 291.52873"
       fill-rule="evenodd"
       id="path299" />
    <path
       fill="#000000"
       fill-opacity="0"
       d="M 291.52875,189.8539 V 139.27751"
       fill-rule="evenodd"
       id="path301" />
    <path
       stroke="#595959"
       stroke-width="1"
       stroke-linejoin="round"
       stroke-linecap="butt"
       d="M 291.52875,189.8539 V 139.27751"
       fill-rule="evenodd"
       id="path303" />
    <path
       fill="#000000"
       fill-opacity="0"
       d="m 291.53018,147.43735 h 81.00787 v 34.04724 h -81.00787 z"
       fill-rule="evenodd"
       id="path305" />
    <path
       fill="#000000"
       d="m 305.2333,160.61597 h -1.26563 q -0.0156,0.96875 -0.0156,1.92187 0,0.95313 0,2 h 1.125 q 1.1875,0 1.75,-0.5625 0.5625,-0.57812 0.5625,-1.45312 0,-0.9375 -0.51563,-1.42188 -0.51562,-0.48437 -1.64062,-0.48437 z m -4.0625,-0.0781 v -0.60937 h 4.10937 q 1.6875,0 2.625,0.6875 0.9375,0.67187 0.9375,1.89062 0,0.84375 -0.625,1.54688 -0.60937,0.70312 -1.84375,0.92187 0.65625,0.14063 1.0625,0.57813 0.42188,0.42187 0.67188,1.28125 l 0.625,2.17187 1.14062,0.14063 v 0.59375 q -0.23437,0.0625 -0.5,0.0937 -0.26562,0.0469 -0.60937,0.0469 -0.6875,0 -1.03125,-0.20312 -0.34375,-0.20313 -0.46875,-0.73438 l -0.59375,-2.34375 q -0.125,-0.59375 -0.375,-0.89062 -0.25,-0.3125 -0.64063,-0.40625 -0.39062,-0.10938 -0.98437,-0.10938 h -0.71875 q 0,1.0625 0,1.98438 0,0.92187 0.0156,1.79687 l 1.35938,0.17188 v 0.59375 h -4.15625 v -0.59375 l 1.35937,-0.17188 q 0.0156,-0.92187 0.0156,-1.875 0,-0.95312 0,-1.90625 v -0.71875 q 0,-0.95312 0,-1.89062 0,-0.95313 -0.0156,-1.89063 z m 12.69147,2.71875 q -0.40625,0 -0.82813,0.23438 -0.40625,0.23437 -0.71875,0.75 -0.29687,0.51562 -0.375,1.35937 h 2.65625 q 0.53125,0 0.70313,-0.21875 0.17187,-0.21875 0.17187,-0.53125 0,-0.42187 -0.21875,-0.78125 -0.21875,-0.35937 -0.57812,-0.57812 -0.35938,-0.23438 -0.8125,-0.23438 z m -0.0156,6.67188 q -1.46875,0 -2.375,-0.95313 -0.89062,-0.96875 -0.89062,-2.65625 0,-1.125 0.45312,-1.95312 0.46875,-0.84375 1.23438,-1.3125 0.78125,-0.46875 1.6875,-0.46875 0.76562,0 1.375,0.34375 0.625,0.32812 0.98437,0.95312 0.35938,0.625 0.35938,1.51563 0,0.25 -0.0312,0.46875 -0.0156,0.20312 -0.0625,0.35937 h -4.67188 q 0.0312,1.34375 0.67188,2.04688 0.64062,0.70312 1.70312,0.70312 0.70313,0 1.17188,-0.28125 0.46875,-0.28125 0.85937,-0.73437 l 0.34375,0.26562 q -0.40625,0.78125 -1.10937,1.25 -0.70313,0.45313 -1.70313,0.45313 z m 7.45911,0 q -1.5,0 -2.40625,-0.96875 -0.89063,-0.98438 -0.89063,-2.67188 0,-1.15625 0.46875,-1.98437 0.48438,-0.82813 1.26563,-1.26563 0.78125,-0.45312 1.65625,-0.45312 0.65625,0 1.21875,0.25 0.5625,0.25 0.92187,0.6875 0.35938,0.42187 0.45313,0.96875 -0.0937,0.5625 -0.67188,0.5625 -0.35937,0 -0.54687,-0.1875 -0.1875,-0.20313 -0.26563,-0.51563 l -0.26562,-0.96875 q -0.20313,-0.0781 -0.40625,-0.0937 -0.1875,-0.0312 -0.375,-0.0312 -0.9375,0 -1.54688,0.73438 -0.60937,0.73437 -0.60937,2.14062 0,1.375 0.65625,2.10938 0.65625,0.73437 1.6875,0.73437 0.625,0 1.15625,-0.28125 0.53125,-0.28125 0.85937,-0.82812 l 0.375,0.1875 q -0.3125,0.90625 -1,1.39062 -0.6875,0.48438 -1.73437,0.48438 z m 7.18353,-6.67188 q -0.40625,0 -0.82812,0.23438 -0.40625,0.23437 -0.71875,0.75 -0.29688,0.51562 -0.375,1.35937 h 2.65625 q 0.53125,0 0.70312,-0.21875 0.17188,-0.21875 0.17188,-0.53125 0,-0.42187 -0.21875,-0.78125 -0.21875,-0.35937 -0.57813,-0.57812 -0.35937,-0.23438 -0.8125,-0.23438 z m -0.0156,6.67188 q -1.46875,0 -2.375,-0.95313 -0.89063,-0.96875 -0.89063,-2.65625 0,-1.125 0.45313,-1.95312 0.46875,-0.84375 1.23437,-1.3125 0.78125,-0.46875 1.6875,-0.46875 0.76563,0 1.375,0.34375 0.625,0.32812 0.98438,0.95312 0.35937,0.625 0.35937,1.51563 0,0.25 -0.0312,0.46875 -0.0156,0.20312 -0.0625,0.35937 h -4.67187 q 0.0312,1.34375 0.67187,2.04688 0.64063,0.70312 1.70313,0.70312 0.70312,0 1.17187,-0.28125 0.46875,-0.28125 0.85938,-0.73437 l 0.34375,0.26562 q -0.40625,0.78125 -1.10938,1.25 -0.70312,0.45313 -1.70312,0.45313 z m 4.06845,-0.1875 v -0.53125 l 1.09375,-0.20313 q 0.0156,-0.5625 0.0156,-1.20312 0.0156,-0.65625 0.0156,-1.14063 v -0.6875 q 0,-0.60937 -0.0156,-1 0,-0.40625 -0.0312,-0.84375 l -1.17187,-0.14062 v -0.51563 l 2.26562,-0.89062 0.21875,0.15625 -0.0469,1.98437 v 1.9375 q 0,0.48438 0,1.14063 0.0156,0.64062 0.0312,1.20312 l 1.01562,0.20313 v 0.53125 z m 1.73437,-8.76563 q -0.42187,0 -0.70312,-0.26562 -0.28125,-0.26563 -0.28125,-0.67188 0,-0.42187 0.28125,-0.67187 0.28125,-0.26563 0.70312,-0.26563 0.40625,0 0.6875,0.26563 0.28125,0.25 0.28125,0.67187 0,0.40625 -0.28125,0.67188 -0.28125,0.26562 -0.6875,0.26562 z m 6.38196,2.375 v -0.57812 h 2.78125 v 0.57812 l -0.79687,0.1875 -2.375,6.29688 h -0.64063 l -2.65625,-6.34375 -0.79687,-0.14063 v -0.57812 h 3.54687 v 0.57812 l -1.29687,0.1875 1.79687,4.6875 1.625,-4.67187 z m 6.56122,-0.0937 q -0.40625,0 -0.82813,0.23438 -0.40625,0.23437 -0.71875,0.75 -0.29687,0.51562 -0.375,1.35937 h 2.65625 q 0.53125,0 0.70313,-0.21875 0.17187,-0.21875 0.17187,-0.53125 0,-0.42187 -0.21875,-0.78125 -0.21875,-0.35937 -0.57812,-0.57812 -0.35938,-0.23438 -0.8125,-0.23438 z m -0.0156,6.67188 q -1.46875,0 -2.375,-0.95313 -0.89062,-0.96875 -0.89062,-2.65625 0,-1.125 0.45312,-1.95312 0.46875,-0.84375 1.23438,-1.3125 0.78125,-0.46875 1.6875,-0.46875 0.76562,0 1.375,0.34375 0.625,0.32812 0.98437,0.95312 0.35938,0.625 0.35938,1.51563 0,0.25 -0.0312,0.46875 -0.0156,0.20312 -0.0625,0.35937 h -4.67188 q 0.0312,1.34375 0.67188,2.04688 0.64062,0.70312 1.70312,0.70312 0.70313,0 1.17188,-0.28125 0.46875,-0.28125 0.85937,-0.73437 l 0.34375,0.26562 q -0.40625,0.78125 -1.10937,1.25 -0.70313,0.45313 -1.70313,0.45313 z m 4.16223,-0.1875 v -0.53125 l 1.0625,-0.1875 q 0.0156,-0.5625 0.0156,-1.20313 0.0156,-0.65625 0.0156,-1.15625 v -0.70312 q 0,-0.59375 -0.0156,-0.98438 0,-0.40625 -0.0312,-0.84375 l -1.15625,-0.14062 v -0.51563 l 2.04687,-0.89062 0.21875,0.15625 0.17188,1.71875 q 0.35937,-0.875 0.9375,-1.375 0.57812,-0.5 1.17187,-0.5 0.32813,0 0.625,0.15625 0.29688,0.14062 0.42188,0.39062 0,1.0625 -0.85938,1.0625 -0.25,0 -0.46875,-0.0937 -0.21875,-0.0937 -0.42187,-0.26562 l -0.1875,-0.15625 q -0.4375,0.3125 -0.73438,0.78125 -0.28125,0.46875 -0.46875,1.10937 v 1.09375 q 0,0.48438 0,1.14063 0,0.64062 0.0156,1.1875 l 1.20312,0.21875 v 0.53125 z"
       fill-rule="nonzero"
       id="path307" />
    <path
       fill="#000000"
       fill-opacity="0"
       d="M 178.86482,104.61842 H 297.73095 V 122.3822 H 178.86482 Z"
       fill-rule="evenodd"
       id="path309" />
    <path
       fill="#000000"
       d="m 238.80124,109.85468 v -0.78125 h 4.64062 v 0.78125 l -1.09375,0.125 q -0.0156,0.89062 -0.0312,1.79687 0,0.90625 0,1.84375 v 0.53125 q 0,0.89063 0,1.8125 0.0156,0.92188 0.0312,1.82813 l 1.09375,0.10937 v 0.79688 h -4.64062 v -0.79688 l 1.03125,-0.0937 q 0.0312,-0.90625 0.0312,-1.8125 0,-0.92187 0,-1.8125 h -3.125 q 0,0.98438 0,1.875 0.0156,0.875 0.0312,1.75 l 1.01562,0.0937 v 0.79688 h -4.60937 v -0.79688 l 1.0625,-0.10937 q 0.0312,-0.89063 0.0312,-1.79688 0,-0.92187 0,-1.84375 v -0.53125 q 0,-0.92187 0,-1.82812 0,-0.90625 -0.0312,-1.8125 l -1.0625,-0.125 v -0.78125 h 4.60937 v 0.78125 l -1.01562,0.10937 q -0.0156,0.89063 -0.0312,1.78125 0,0.875 0,1.57813 h 3.125 q 0,-0.84375 0,-1.6875 0,-0.84375 -0.0312,-1.67188 z"
       fill-rule="nonzero"
       id="path311" />
    <path
       fill="#000000"
       fill-opacity="0"
       d="m 139.03806,194.71509 h 198.51968 v 14.55118 H 139.03806 Z"
       fill-rule="evenodd"
       id="path313" />
    <path
       fill="#000000"
       d="m 161.07936,206.23509 v -0.4375 l 0.875,-0.15625 q 0,-0.45312 0,-0.98437 0.0156,-0.53125 0.0156,-0.9375 v -0.57813 q 0,-0.5 -0.0156,-0.8125 0,-0.32812 -0.0156,-0.6875 l -0.95312,-0.10937 v -0.42188 l 1.6875,-0.73437 0.17187,0.125 0.14063,1.42187 q 0.29687,-0.73437 0.76562,-1.14062 0.46875,-0.40625 0.95313,-0.40625 0.28125,0 0.51562,0.125 0.25,0.125 0.34375,0.32812 0,0.875 -0.70312,0.875 -0.20313,0 -0.39063,-0.0781 -0.17187,-0.0781 -0.34375,-0.23438 l -0.14062,-0.125 q -0.35938,0.26563 -0.60938,0.65625 -0.23437,0.375 -0.39062,0.89063 v 0.90625 q 0,0.39062 0,0.92187 0.0156,0.53125 0.0312,0.98438 l 0.98437,0.17187 v 0.4375 z m 7.69041,-5.29687 q -0.34375,0 -0.6875,0.1875 -0.34375,0.1875 -0.59375,0.60937 -0.23437,0.42188 -0.3125,1.10938 h 2.1875 q 0.4375,0 0.5625,-0.17188 0.14063,-0.1875 0.14063,-0.45312 0,-0.34375 -0.17188,-0.625 -0.17187,-0.29688 -0.46875,-0.46875 -0.29687,-0.1875 -0.65625,-0.1875 z m -0.0156,5.45312 q -1.21875,0 -1.95313,-0.78125 -0.71875,-0.79687 -0.71875,-2.17187 0,-0.92188 0.375,-1.60938 0.375,-0.6875 1,-1.0625 0.64063,-0.39062 1.375,-0.39062 0.625,0 1.125,0.28125 0.51563,0.28125 0.8125,0.79687 0.29688,0.5 0.29688,1.23438 0,0.20312 -0.0312,0.375 -0.0156,0.17187 -0.0469,0.29687 h -3.82812 q 0.0156,1.09375 0.54687,1.67188 0.53125,0.57812 1.39063,0.57812 0.57812,0 0.95312,-0.23437 0.39063,-0.23438 0.71875,-0.60938 l 0.28125,0.23438 q -0.32812,0.64062 -0.90625,1.01562 -0.57812,0.375 -1.39062,0.375 z m 7.76567,-0.0312 q -0.42187,0 -0.71875,-0.25 -0.28125,-0.26562 -0.35937,-0.67187 -0.48438,0.46875 -0.85938,0.71875 -0.375,0.23437 -0.90625,0.23437 -0.65625,0 -1.125,-0.375 -0.46875,-0.375 -0.46875,-1.125 0,-0.34375 0.15625,-0.64062 0.15625,-0.3125 0.59375,-0.59375 0.4375,-0.29688 1.23438,-0.57813 0.28125,-0.0937 0.64062,-0.20312 0.35938,-0.10938 0.71875,-0.1875 v -0.3125 q 0,-0.875 -0.26562,-1.15625 -0.26563,-0.28125 -0.85938,-0.28125 -0.14062,0 -0.3125,0.0156 -0.15625,0 -0.34375,0.0469 l -0.21875,0.78125 q -0.17187,0.57812 -0.625,0.57812 -0.51562,0 -0.5625,-0.5 0.15625,-0.67187 0.78125,-1.07812 0.64063,-0.40625 1.54688,-0.40625 0.95312,0 1.40625,0.48437 0.45312,0.46875 0.45312,1.60938 v 2.54687 q 0,0.39063 0.125,0.5625 0.125,0.15625 0.3125,0.15625 0.15625,0 0.26563,-0.0625 0.10937,-0.0781 0.20312,-0.20312 l 0.23438,0.26562 q -0.21875,0.34375 -0.48438,0.48438 -0.25,0.14062 -0.5625,0.14062 z m -3.375,-1.65625 q 0,0.48438 0.26563,0.6875 0.28125,0.20313 0.6875,0.20313 0.1875,0 0.34375,-0.0469 0.17187,-0.0469 0.39062,-0.1875 0.23438,-0.14062 0.59375,-0.39062 v -1.84375 q -0.3125,0.0781 -0.625,0.1875 -0.29687,0.10937 -0.48437,0.17187 -0.51563,0.20313 -0.76563,0.42188 -0.25,0.21875 -0.32812,0.42187 -0.0781,0.20313 -0.0781,0.375 z m 6.12367,-1.28125 q 0,1.17188 0.46875,1.73438 0.46875,0.54687 1.1875,0.54687 0.40625,0 0.70313,-0.15625 0.3125,-0.17187 0.64062,-0.53125 v -3.32812 q -0.40625,-0.35938 -0.73437,-0.48438 -0.3125,-0.14062 -0.60938,-0.14062 -0.45312,0 -0.82812,0.25 -0.375,0.23437 -0.60938,0.76562 -0.21875,0.51563 -0.21875,1.34375 z m 3.125,2.9375 -0.0781,-0.82812 q -0.3125,0.40625 -0.71875,0.64062 -0.40625,0.21875 -0.96875,0.21875 -0.73438,0 -1.28125,-0.375 -0.54688,-0.375 -0.85938,-1.03125 -0.29687,-0.67187 -0.29687,-1.54687 0,-0.92188 0.32812,-1.60938 0.34375,-0.6875 0.90625,-1.0625 0.57813,-0.39062 1.3125,-0.39062 0.42188,0 0.8125,0.17187 0.39063,0.17188 0.76563,0.60938 v -2.70313 l -1.03125,-0.125 v -0.42187 l 1.875,-0.54688 0.17187,0.10938 -0.0469,1.70312 v 6.48438 l 0.96875,0.14062 v 0.4375 z m 5.73093,-5.39062 v -0.4375 h 2.34375 v 0.4375 l -0.64063,0.125 -1.9375,5.10937 q -0.59375,1.59375 -1.15625,2.29688 -0.5625,0.71875 -1.29687,0.71875 -0.45313,0 -0.78125,-0.21875 -0.32813,-0.21875 -0.32813,-0.5625 0.0625,-0.26563 0.29688,-0.40625 0.23437,-0.125 0.5,-0.125 0.25,0 0.45312,0.0937 0.20313,0.10937 0.4375,0.35937 l 0.0625,0.0625 q 0.39063,-0.32812 0.64063,-0.79687 0.26562,-0.45313 0.4375,-0.9375 l 0.0469,-0.14063 -2.17187,-5.48437 -0.65625,-0.0937 v -0.4375 h 2.875 v 0.45312 l -1.04688,0.10938 1.5,4.09375 1.46875,-4.07813 z m 4.26904,1.92187 q 0,0.96875 0.15625,1.8125 0.17188,0.82813 0.57813,1.6875 0.40625,0.85938 1.10937,1.875 l -0.3125,0.26563 q -1.26562,-1.1875 -1.89062,-2.57813 -0.60938,-1.40625 -0.60938,-3.0625 0,-1.64062 0.60938,-3.03125 0.625,-1.40625 1.89062,-2.59375 l 0.3125,0.26563 q -0.70312,1.01562 -1.10937,1.875 -0.40625,0.85937 -0.57813,1.70312 -0.15625,0.82813 -0.15625,1.78125 z m 2.56803,6.21875 v -0.42187 l 0.95312,-0.17188 q 0.0156,-0.5 0.0156,-0.98437 0.0156,-0.48438 0.0156,-0.95313 v -3.4375 q 0,-0.5 -0.0156,-0.8125 0,-0.32812 -0.0156,-0.6875 l -0.95312,-0.10937 v -0.42188 l 1.67187,-0.73437 0.1875,0.125 0.0781,0.78125 q 0.84375,-0.90625 1.79687,-0.90625 0.65625,0 1.17188,0.35937 0.51562,0.35938 0.8125,1.03125 0.3125,0.67188 0.3125,1.59375 0,0.9375 -0.32813,1.60938 -0.3125,0.67187 -0.875,1.04687 -0.5625,0.375 -1.26562,0.375 -0.40625,0 -0.8125,-0.17187 -0.40625,-0.17188 -0.78125,-0.60938 v 0.95313 q 0,0.46875 0,0.95312 0.0156,0.5 0.0156,0.98438 l 1.09375,0.1875 v 0.42187 z m 3.45312,-8.04687 q -0.28125,0 -0.64062,0.14062 -0.35938,0.14063 -0.8125,0.51563 v 3.375 q 0.34375,0.32812 0.65625,0.46875 0.32812,0.14062 0.67187,0.14062 0.67188,0 1.14063,-0.53125 0.48437,-0.54687 0.48437,-1.70312 0,-1.15625 -0.42187,-1.78125 -0.42188,-0.625 -1.07813,-0.625 z m 4.91792,0.96875 q -0.35937,0 -0.60937,-0.25 -0.23438,-0.25 -0.23438,-0.60938 0,-0.35937 0.23438,-0.60937 0.25,-0.25 0.60937,-0.25 0.35938,0 0.60938,0.25 0.25,0.25 0.25,0.60937 0,0.35938 -0.25,0.60938 -0.25,0.25 -0.60938,0.25 z m 0,4.35937 q -0.35937,0 -0.60937,-0.25 -0.23438,-0.25 -0.23438,-0.60937 0,-0.35938 0.23438,-0.60938 0.25,-0.25 0.60937,-0.25 0.35938,0 0.60938,0.25 0.25,0.25 0.25,0.60938 0,0.35937 -0.25,0.60937 -0.25,0.25 -0.60938,0.25 z m 10.14605,-7.6875 v -0.5 h 3.375 v 0.5 l -1.09375,0.125 q -0.0156,0.76563 -0.0312,1.54688 0,0.76562 0,1.54687 v 0.59375 q 0,0.76563 0,1.54688 0.0156,0.76562 0.0312,1.54687 l 1.09375,0.14063 v 0.48437 h -3.375 v -0.48437 l 1.09375,-0.14063 q 0.0312,-0.76562 0.0312,-1.5625 0,-0.79687 0,-1.64062 h -3.875 q 0,0.90625 0,1.6875 0.0156,0.78125 0.0156,1.53125 l 1.09375,0.125 v 0.48437 h -3.375 v -0.48437 l 1.09375,-0.14063 q 0.0312,-0.75 0.0312,-1.53125 0,-0.78125 0,-1.5625 v -0.59375 q 0,-0.78125 0,-1.54687 0,-0.78125 -0.0312,-1.54688 l -1.09375,-0.125 v -0.5 h 3.375 v 0.5 l -1.09375,0.10938 q 0,0.78125 -0.0156,1.54687 0,0.76563 0,1.48438 h 3.875 q 0,-0.79688 0,-1.53125 0,-0.75 -0.0312,-1.48438 z m 5.71806,3.32813 q -0.35938,0 -0.60938,-0.25 -0.23437,-0.25 -0.23437,-0.60938 0,-0.35937 0.23437,-0.60937 0.25,-0.25 0.60938,-0.25 0.35937,0 0.60937,0.25 0.25,0.25 0.25,0.60937 0,0.35938 -0.25,0.60938 -0.25,0.25 -0.60937,0.25 z m 0,4.35937 q -0.35938,0 -0.60938,-0.25 -0.23437,-0.25 -0.23437,-0.60937 0,-0.35938 0.23437,-0.60938 0.25,-0.25 0.60938,-0.25 0.35937,0 0.60937,0.25 0.25,0.25 0.25,0.60938 0,0.35937 -0.25,0.60937 -0.25,0.25 -0.60937,0.25 z m 3.60002,-4.35937 q -0.35937,0 -0.60937,-0.25 -0.23438,-0.25 -0.23438,-0.60938 0,-0.35937 0.23438,-0.60937 0.25,-0.25 0.60937,-0.25 0.35938,0 0.60938,0.25 0.25,0.25 0.25,0.60937 0,0.35938 -0.25,0.60938 -0.25,0.25 -0.60938,0.25 z m 0,4.35937 q -0.35937,0 -0.60937,-0.25 -0.23438,-0.25 -0.23438,-0.60937 0,-0.35938 0.23438,-0.60938 0.25,-0.25 0.60937,-0.25 0.35938,0 0.60938,0.25 0.25,0.25 0.25,0.60938 0,0.35937 -0.25,0.60937 -0.25,0.25 -0.60938,0.25 z m 5.35002,-7.625 h -0.73437 q 0,0.76563 -0.0156,1.5625 0,0.79688 0,1.59375 v 0.57813 h 0.79688 q 1.09375,0 1.54687,-0.53125 0.46875,-0.53125 0.46875,-1.375 0,-0.875 -0.5,-1.34375 -0.48437,-0.48438 -1.5625,-0.48438 z m -3.01562,-0.0625 v -0.5 h 3.21875 q 1.53125,0 2.28125,0.67188 0.76562,0.65625 0.76562,1.71875 0,0.67187 -0.34375,1.23437 -0.32812,0.5625 -1.0625,0.90625 -0.73437,0.32813 -1.96875,0.32813 h -0.625 q 0,0.65625 0,1.28125 0.0156,0.625 0.0156,1.26562 l 1.125,0.14063 v 0.48437 h -3.40625 v -0.48437 l 1.09375,-0.14063 q 0.0312,-0.75 0.0312,-1.53125 0,-0.78125 0,-1.5625 v -0.59375 q 0,-0.78125 0,-1.54687 0,-0.78125 -0.0312,-1.54688 z m 7.8873,7.1875 q 0,0.71875 -0.34375,1.32813 -0.34375,0.60937 -0.875,1.04687 -0.53125,0.4375 -1.10938,0.65625 l -0.15625,-0.40625 q 0.60938,-0.3125 1.07813,-0.76562 0.46875,-0.4375 0.6875,-1.10938 l -0.45313,-0.34375 q -0.23437,-0.1875 -0.34375,-0.40625 -0.10937,-0.23437 -0.10937,-0.45312 0,-0.3125 0.1875,-0.53125 0.1875,-0.23438 0.5625,-0.23438 0.15625,0 0.32812,0.0781 0.1875,0.0625 0.40625,0.26562 0.0781,0.23438 0.10938,0.45313 0.0312,0.20312 0.0312,0.42187 z m 4.33354,0.34375 v -0.4375 l 0.875,-0.15625 q 0,-0.45312 0,-0.98437 0.0156,-0.53125 0.0156,-0.9375 v -0.57813 q 0,-0.5 -0.0156,-0.8125 0,-0.32812 -0.0156,-0.6875 l -0.95312,-0.10937 v -0.42188 l 1.6875,-0.73437 0.17187,0.125 0.14063,1.42187 q 0.29687,-0.73437 0.76562,-1.14062 0.46875,-0.40625 0.95313,-0.40625 0.28125,0 0.51562,0.125 0.25,0.125 0.34375,0.32812 0,0.875 -0.70312,0.875 -0.20313,0 -0.39063,-0.0781 -0.17187,-0.0781 -0.34375,-0.23438 l -0.14062,-0.125 q -0.35938,0.26563 -0.60938,0.65625 -0.23437,0.375 -0.39062,0.89063 v 0.90625 q 0,0.39062 0,0.92187 0.0156,0.53125 0.0312,0.98438 l 0.98437,0.17187 v 0.4375 z m 6.25291,-4.20312 q -0.35937,0 -0.60937,-0.25 -0.23438,-0.25 -0.23438,-0.60938 0,-0.35937 0.23438,-0.60937 0.25,-0.25 0.60937,-0.25 0.35938,0 0.60938,0.25 0.25,0.25 0.25,0.60937 0,0.35938 -0.25,0.60938 -0.25,0.25 -0.60938,0.25 z m 0,4.35937 q -0.35937,0 -0.60937,-0.25 -0.23438,-0.25 -0.23438,-0.60937 0,-0.35938 0.23438,-0.60938 0.25,-0.25 0.60937,-0.25 0.35938,0 0.60938,0.25 0.25,0.25 0.25,0.60938 0,0.35937 -0.25,0.60937 -0.25,0.25 -0.60938,0.25 z m 10.14604,-7.6875 v -0.5 h 3.375 v 0.5 l -1.09375,0.125 q -0.0156,0.76563 -0.0312,1.54688 0,0.76562 0,1.54687 v 0.59375 q 0,0.76563 0,1.54688 0.0156,0.76562 0.0312,1.54687 l 1.09375,0.14063 v 0.48437 h -3.375 v -0.48437 l 1.09375,-0.14063 q 0.0312,-0.76562 0.0312,-1.5625 0,-0.79687 0,-1.64062 h -3.875 q 0,0.90625 0,1.6875 0.0156,0.78125 0.0156,1.53125 l 1.09375,0.125 v 0.48437 h -3.375 v -0.48437 l 1.09375,-0.14063 q 0.0312,-0.75 0.0312,-1.53125 0,-0.78125 0,-1.5625 v -0.59375 q 0,-0.78125 0,-1.54687 0,-0.78125 -0.0312,-1.54688 l -1.09375,-0.125 v -0.5 h 3.375 v 0.5 l -1.09375,0.10938 q 0,0.78125 -0.0156,1.54687 0,0.76563 0,1.48438 h 3.875 q 0,-0.79688 0,-1.53125 0,-0.75 -0.0312,-1.48438 z m 5.71808,3.32813 q -0.35937,0 -0.60937,-0.25 -0.23438,-0.25 -0.23438,-0.60938 0,-0.35937 0.23438,-0.60937 0.25,-0.25 0.60937,-0.25 0.35938,0 0.60938,0.25 0.25,0.25 0.25,0.60937 0,0.35938 -0.25,0.60938 -0.25,0.25 -0.60938,0.25 z m 0,4.35937 q -0.35937,0 -0.60937,-0.25 -0.23438,-0.25 -0.23438,-0.60937 0,-0.35938 0.23438,-0.60938 0.25,-0.25 0.60937,-0.25 0.35938,0 0.60938,0.25 0.25,0.25 0.25,0.60938 0,0.35937 -0.25,0.60937 -0.25,0.25 -0.60938,0.25 z m 3.60001,-4.35937 q -0.35938,0 -0.60938,-0.25 -0.23437,-0.25 -0.23437,-0.60938 0,-0.35937 0.23437,-0.60937 0.25,-0.25 0.60938,-0.25 0.35937,0 0.60937,0.25 0.25,0.25 0.25,0.60937 0,0.35938 -0.25,0.60938 -0.25,0.25 -0.60937,0.25 z m 0,4.35937 q -0.35938,0 -0.60938,-0.25 -0.23437,-0.25 -0.23437,-0.60937 0,-0.35938 0.23437,-0.60938 0.25,-0.25 0.60938,-0.25 0.35937,0 0.60937,0.25 0.25,0.25 0.25,0.60938 0,0.35937 -0.25,0.60937 -0.25,0.25 -0.60937,0.25 z m 5.66254,-7.625 h -1.04688 q 0,0.78125 -0.0156,1.57813 0,0.78125 0,1.625 h 0.92187 q 0.96875,0 1.42188,-0.46875 0.46875,-0.46875 0.46875,-1.1875 0,-0.75 -0.42188,-1.14063 -0.40625,-0.40625 -1.32812,-0.40625 z m -3.32813,-0.0625 v -0.5 h 3.35938 q 1.375,0 2.14062,0.5625 0.76563,0.54688 0.76563,1.54688 0,0.6875 -0.5,1.26562 -0.5,0.57813 -1.51563,0.75 0.53125,0.10938 0.875,0.46875 0.34375,0.35938 0.54688,1.0625 l 0.51562,1.78125 0.92188,0.10938 v 0.48437 q -0.17188,0.0469 -0.40625,0.0781 -0.21875,0.0469 -0.48438,0.0469 -0.5625,0 -0.85937,-0.17187 -0.28125,-0.17188 -0.375,-0.59375 l -0.48438,-1.92188 q -0.10937,-0.5 -0.3125,-0.73437 -0.20312,-0.25 -0.53125,-0.32813 -0.3125,-0.0937 -0.79687,-0.0937 H 267.669 q 0,0.85938 0,1.625 0.0156,0.75 0.0156,1.46875 l 1.10938,0.14063 v 0.48437 h -3.39063 v -0.48437 l 1.09375,-0.14063 q 0.0312,-0.75 0.0312,-1.53125 0,-0.78125 0,-1.5625 v -0.59375 q 0,-0.78125 0,-1.54687 0,-0.78125 -0.0312,-1.54688 z m 9.42142,4.1875 q 0,-0.95312 -0.17188,-1.78125 -0.15625,-0.84375 -0.5625,-1.70312 -0.39062,-0.85938 -1.10937,-1.875 l 0.3125,-0.26563 q 1.28125,1.1875 1.89062,2.59375 0.60938,1.39063 0.60938,3.03125 0,1.65625 -0.60938,3.0625 -0.60937,1.39063 -1.89062,2.57813 l -0.3125,-0.26563 q 0.71875,-1.01562 1.10937,-1.875 0.40625,-0.85937 0.5625,-1.6875 0.17188,-0.84375 0.17188,-1.8125 z m 5.20779,0.73438 v -0.79688 h 2.78125 v 0.79688 z m 8.94718,-1.625 v 0.5625 l -4.64063,2.70312 -0.35937,-0.65625 4.15625,-2.32812 -4.15625,-2.32813 0.35937,-0.65625 z m 3.83993,4.23437 v -0.4375 l 0.90625,-0.15625 q 0,-0.45312 0,-0.98437 0.0156,-0.53125 0.0156,-0.9375 v -5.26563 l -0.98438,-0.125 v -0.42187 l 1.84375,-0.54688 0.15625,0.10938 -0.0469,1.70312 v 2.125 q 0.4375,-0.46875 0.89062,-0.6875 0.46875,-0.23437 0.96875,-0.23437 0.625,0 1.14063,0.35937 0.51562,0.34375 0.82812,1 0.3125,0.65625 0.3125,1.59375 0,0.92188 -0.32812,1.625 -0.32813,0.6875 -0.89063,1.0625 -0.54687,0.375 -1.26562,0.375 -0.42188,0 -0.84375,-0.17187 -0.40625,-0.1875 -0.8125,-0.6875 l -0.0937,0.82812 z m 3.42188,-5.17187 q -0.28125,0 -0.64063,0.14062 -0.35937,0.14063 -0.84375,0.5625 v 3.28125 q 0.35938,0.34375 0.71875,0.5 0.375,0.15625 0.70313,0.15625 0.64062,0 1.10937,-0.54687 0.46875,-0.5625 0.46875,-1.73438 0,-1.14062 -0.42187,-1.75 -0.42188,-0.60937 -1.09375,-0.60937 z m 6.42404,5.32812 q -0.6875,0 -1.32813,-0.32812 -0.625,-0.32813 -1.01562,-1 -0.39063,-0.67188 -0.39063,-1.64063 0,-1 0.39063,-1.67187 0.39062,-0.6875 1.01562,-1.03125 0.64063,-0.34375 1.32813,-0.34375 0.70312,0 1.32812,0.34375 0.64063,0.34375 1.03125,1.03125 0.40625,0.67187 0.40625,1.67187 0,0.96875 -0.40625,1.64063 -0.39062,0.67187 -1.03125,1 -0.625,0.32812 -1.32812,0.32812 z m 0,-0.54687 q 0.78125,0 1.20312,-0.60938 0.42188,-0.625 0.42188,-1.8125 0,-1.21875 -0.42188,-1.84375 -0.42187,-0.64062 -1.20312,-0.64062 -0.76563,0 -1.1875,0.64062 -0.40625,0.625 -0.40625,1.84375 0,1.1875 0.40625,1.8125 0.42187,0.60938 1.1875,0.60938 z m 6.58804,0.54687 q -0.6875,0 -1.32812,-0.32812 -0.625,-0.32813 -1.01563,-1 -0.39062,-0.67188 -0.39062,-1.64063 0,-1 0.39062,-1.67187 0.39063,-0.6875 1.01563,-1.03125 0.64062,-0.34375 1.32812,-0.34375 0.70313,0 1.32813,0.34375 0.64062,0.34375 1.03125,1.03125 0.40625,0.67187 0.40625,1.67187 0,0.96875 -0.40625,1.64063 -0.39063,0.67187 -1.03125,1 -0.625,0.32812 -1.32813,0.32812 z m 0,-0.54687 q 0.78125,0 1.20313,-0.60938 0.42187,-0.625 0.42187,-1.8125 0,-1.21875 -0.42187,-1.84375 -0.42188,-0.64062 -1.20313,-0.64062 -0.76562,0 -1.1875,0.64062 -0.40625,0.625 -0.40625,1.84375 0,1.1875 0.40625,1.8125 0.42188,0.60938 1.1875,0.60938 z m 3.48367,0.39062 v -0.4375 l 0.96875,-0.15625 q 0,-0.5 0,-0.96875 0.0156,-0.48437 0.0156,-0.95312 v -5.26563 l -0.98438,-0.125 v -0.42187 l 1.875,-0.54688 0.17188,0.10938 -0.0469,1.70312 v 4.54688 q 0,0.46875 0,0.95312 0,0.48438 0.0156,0.96875 l 0.96875,0.15625 v 0.4375 z"
       fill-rule="nonzero"
       id="path315" />
  </g>
</svg>
