<?xml version="1.0" encoding="UTF-8" standalone="no"?>
<svg
   xmlns:dc="http://purl.org/dc/elements/1.1/"
   xmlns:cc="http://creativecommons.org/ns#"
   xmlns:rdf="http://www.w3.org/1999/02/22-rdf-syntax-ns#"
   xmlns:svg="http://www.w3.org/2000/svg"
   xmlns="http://www.w3.org/2000/svg"
   xmlns:sodipodi="http://sodipodi.sourceforge.net/DTD/sodipodi-0.dtd"
   xmlns:inkscape="http://www.inkscape.org/namespaces/inkscape"
   version="1.1"
   viewBox="0 0 264.77954 91.58268"
   stroke-miterlimit="10"
   id="svg543"
   sodipodi:docname="tutorial-hazard.svg"
   width="264.77954"
   height="91.58268"
   style="fill:none;stroke:none;stroke-linecap:square;stroke-miterlimit:10"
   inkscape:version="0.92.5 (2060ec1f9f, 2020-04-08)">
  <metadata
     id="metadata549">
    <rdf:RDF>
      <cc:Work
         rdf:about="">
        <dc:format>image/svg+xml</dc:format>
        <dc:type
           rdf:resource="http://purl.org/dc/dcmitype/StillImage" />
        <dc:title></dc:title>
      </cc:Work>
    </rdf:RDF>
  </metadata>
  <defs
     id="defs547" />
  <sodipodi:namedview
     pagecolor="#ffffff"
     bordercolor="#666666"
     borderopacity="1"
     objecttolerance="10"
     gridtolerance="10"
     guidetolerance="10"
     inkscape:pageopacity="0"
     inkscape:pageshadow="2"
     inkscape:window-width="2051"
     inkscape:window-height="1420"
     id="namedview545"
     showgrid="false"
     inkscape:zoom="2.8916667"
     inkscape:cx="186.5174"
     inkscape:cy="-73.18598"
     inkscape:window-x="254"
     inkscape:window-y="502"
     inkscape:window-maximized="0"
     inkscape:current-layer="g541" />
  <clipPath
     id="g305443f3828_0_6.0">
    <path
       d="M 0,0 H 960 V 540 H 0 Z"
       id="path2"
       inkscape:connector-curvature="0"
       style="clip-rule:nonzero" />
  </clipPath>
  <g
     clip-path="url(#g305443f3828_0_6.0)"
     id="g541"
     transform="translate(-97.06956,-111.39239)">
    <path
       d="M 0,0 H 504 V 72.97638 H 0 Z"
       id="path15"
       inkscape:connector-curvature="0"
       style="fill:#000000;fill-opacity:0;fill-rule:evenodd" />
    <path
       d="M 97.56956,111.89239 H 361.3491 v 90.58268 H 97.56956 Z"
       id="path225"
       inkscape:connector-curvature="0"
       style="fill:#000000;fill-opacity:0;fill-rule:evenodd" />
    <path
       d="M 282.707,168.98209 H 176.21881"
       id="path229"
       inkscape:connector-curvature="0"
       style="fill:#000000;fill-opacity:0;fill-rule:evenodd" />
    <path
       d="M 282.707,168.98209 H 188.21881"
       id="path231"
       inkscape:connector-curvature="0"
       style="fill-rule:evenodd;stroke:#1c4587;stroke-width:2;stroke-linecap:butt;stroke-linejoin:round" />
    <path
       d="m 188.21881,165.67862 -9.0762,3.30347 9.0762,3.30346 z"
       id="path233"
       inkscape:connector-curvature="0"
       style="fill:#1c4587;fill-rule:evenodd;stroke:#1c4587;stroke-width:2;stroke-linecap:butt" />
    <path
       d="M 170.06036,151.27872 H 288.92651 V 165.8299 H 170.06036 Z"
       id="path235"
       inkscape:connector-curvature="0"
       style="fill:#000000;fill-opacity:0;fill-rule:evenodd" />
    <path
       d="m 193.00317,162.7987 v -0.4375 l 0.875,-0.15625 q 0,-0.45313 0,-0.98438 0.0156,-0.53125 0.0156,-0.9375 v -0.57812 q 0,-0.5 -0.0156,-0.8125 0,-0.32813 -0.0156,-0.6875 l -0.95312,-0.10938 v -0.42187 l 1.6875,-0.73438 0.17187,0.125 0.14063,1.42188 q 0.29687,-0.73438 0.76562,-1.14063 0.46875,-0.40625 0.95313,-0.40625 0.28125,0 0.51562,0.125 0.25,0.125 0.34375,0.32813 0,0.875 -0.70312,0.875 -0.20313,0 -0.39063,-0.0781 -0.17187,-0.0781 -0.34375,-0.23437 l -0.14062,-0.125 q -0.35938,0.26562 -0.60938,0.65625 -0.23437,0.375 -0.39062,0.89062 v 0.90625 q 0,0.39063 0,0.92188 0.0156,0.53125 0.0312,0.98437 l 0.98437,0.17188 v 0.4375 z m 7.69041,-5.29688 q -0.34375,0 -0.6875,0.1875 -0.34375,0.1875 -0.59375,0.60938 -0.23437,0.42187 -0.3125,1.10937 h 2.1875 q 0.4375,0 0.5625,-0.17187 0.14063,-0.1875 0.14063,-0.45313 0,-0.34375 -0.17188,-0.625 -0.17187,-0.29687 -0.46875,-0.46875 -0.29687,-0.1875 -0.65625,-0.1875 z m -0.0156,5.45313 q -1.21875,0 -1.95313,-0.78125 -0.71875,-0.79688 -0.71875,-2.17188 0,-0.92187 0.375,-1.60937 0.375,-0.6875 1,-1.0625 0.64063,-0.39063 1.375,-0.39063 0.625,0 1.125,0.28125 0.51563,0.28125 0.8125,0.79688 0.29688,0.5 0.29688,1.23437 0,0.20313 -0.0312,0.375 -0.0156,0.17188 -0.0469,0.29688 h -3.82812 q 0.0156,1.09375 0.54687,1.67187 0.53125,0.57813 1.39063,0.57813 0.57812,0 0.95312,-0.23438 0.39063,-0.23437 0.71875,-0.60937 l 0.28125,0.23437 q -0.32812,0.64063 -0.90625,1.01563 -0.57812,0.375 -1.39062,0.375 z m 5.30754,0 q -0.51562,0 -0.9375,-0.125 -0.40625,-0.10938 -0.85937,-0.32813 l -0.0469,-1.32812 h 0.65625 l 0.23438,1.04687 q 0.42187,0.1875 0.96875,0.1875 0.6875,0 1.01562,-0.25 0.32813,-0.25 0.32813,-0.65625 0,-0.39062 -0.28125,-0.60937 -0.26563,-0.23438 -0.82813,-0.4375 l -0.5625,-0.20313 q -0.65625,-0.23437 -1.0625,-0.60937 -0.39062,-0.39063 -0.39062,-1 0,-0.45313 0.23437,-0.82813 0.25,-0.39062 0.71875,-0.625 0.46875,-0.25 1.14063,-0.25 0.5,0 0.89062,0.125 0.40625,0.125 0.79688,0.375 l -0.0469,1.21875 h -0.625 l -0.20312,-0.95312 q -0.40625,-0.20313 -0.82813,-0.20313 -0.54687,0 -0.82812,0.21875 -0.28125,0.21875 -0.28125,0.59375 0,0.39063 0.23437,0.59375 0.25,0.20313 0.875,0.4375 l 0.35938,0.125 q 0.90625,0.34375 1.28125,0.78125 0.375,0.42188 0.375,0.98438 0,0.45312 -0.26563,0.84375 -0.25,0.39062 -0.76562,0.64062 -0.51563,0.23438 -1.29688,0.23438 z m 6.08304,0 q -0.6875,0 -1.32813,-0.32813 -0.625,-0.32812 -1.01562,-1 -0.39063,-0.67187 -0.39063,-1.64062 0,-1 0.39063,-1.67188 0.39062,-0.6875 1.01562,-1.03125 0.64063,-0.34375 1.32813,-0.34375 0.70312,0 1.32812,0.34375 0.64063,0.34375 1.03125,1.03125 0.40625,0.67188 0.40625,1.67188 0,0.96875 -0.40625,1.64062 -0.39062,0.67188 -1.03125,1 -0.625,0.32813 -1.32812,0.32813 z m 0,-0.54688 q 0.78125,0 1.20312,-0.60937 0.42188,-0.625 0.42188,-1.8125 0,-1.21875 -0.42188,-1.84375 -0.42187,-0.64063 -1.20312,-0.64063 -0.76563,0 -1.1875,0.64063 -0.40625,0.625 -0.40625,1.84375 0,1.1875 0.40625,1.8125 0.42187,0.60937 1.1875,0.60937 z m 3.48367,0.39063 v -0.4375 l 0.96875,-0.15625 q 0,-0.5 0,-0.96875 0.0156,-0.48438 0.0156,-0.95313 v -5.26562 l -0.98438,-0.125 v -0.42188 l 1.875,-0.54687 0.17188,0.10937 -0.0469,1.70313 v 4.54687 q 0,0.46875 0,0.95313 0,0.48437 0.0156,0.96875 l 0.96875,0.15625 v 0.4375 z m 6.83103,-5.23438 v -0.46875 h 2.28125 v 0.46875 l -0.65625,0.15625 -1.95313,5.15625 h -0.51562 l -2.1875,-5.1875 -0.64063,-0.125 v -0.46875 h 2.90625 v 0.46875 l -1.0625,0.15625 1.46875,3.84375 1.32813,-3.82812 z m 5.38253,-0.0625 q -0.34375,0 -0.6875,0.1875 -0.34375,0.1875 -0.59375,0.60938 -0.23437,0.42187 -0.3125,1.10937 h 2.1875 q 0.4375,0 0.5625,-0.17187 0.14063,-0.1875 0.14063,-0.45313 0,-0.34375 -0.17188,-0.625 -0.17187,-0.29687 -0.46875,-0.46875 -0.29687,-0.1875 -0.65625,-0.1875 z m -0.0156,5.45313 q -1.21875,0 -1.95313,-0.78125 -0.71875,-0.79688 -0.71875,-2.17188 0,-0.92187 0.375,-1.60937 0.375,-0.6875 1,-1.0625 0.64063,-0.39063 1.375,-0.39063 0.625,0 1.125,0.28125 0.51563,0.28125 0.8125,0.79688 0.29688,0.5 0.29688,1.23437 0,0.20313 -0.0312,0.375 -0.0156,0.17188 -0.0469,0.29688 h -3.82812 q 0.0156,1.09375 0.54687,1.67187 0.53125,0.57813 1.39063,0.57813 0.57812,0 0.95312,-0.23438 0.39063,-0.23437 0.71875,-0.60937 l 0.28125,0.23437 q -0.32812,0.64063 -0.90625,1.01563 -0.57812,0.375 -1.39062,0.375 z m 3.40129,-0.15625 v -0.4375 l 0.875,-0.15625 q 0,-0.45313 0,-0.98438 0.0156,-0.53125 0.0156,-0.9375 v -0.57812 q 0,-0.5 -0.0156,-0.8125 0,-0.32813 -0.0156,-0.6875 l -0.95312,-0.10938 v -0.42187 l 1.6875,-0.73438 0.17187,0.125 0.14063,1.42188 q 0.29687,-0.73438 0.76562,-1.14063 0.46875,-0.40625 0.95313,-0.40625 0.28125,0 0.51562,0.125 0.25,0.125 0.34375,0.32813 0,0.875 -0.70312,0.875 -0.20313,0 -0.39063,-0.0781 -0.17187,-0.0781 -0.34375,-0.23437 l -0.14062,-0.125 q -0.35938,0.26562 -0.60938,0.65625 -0.23437,0.375 -0.39062,0.89062 v 0.90625 q 0,0.39063 0,0.92188 0.0156,0.53125 0.0312,0.98437 l 0.98437,0.17188 v 0.4375 z m 6.25291,-4.20313 q -0.35937,0 -0.60937,-0.25 -0.23438,-0.25 -0.23438,-0.60937 0,-0.35938 0.23438,-0.60938 0.25,-0.25 0.60937,-0.25 0.35938,0 0.60938,0.25 0.25,0.25 0.25,0.60938 0,0.35937 -0.25,0.60937 -0.25,0.25 -0.60938,0.25 z m 0,4.35938 q -0.35937,0 -0.60937,-0.25 -0.23438,-0.25 -0.23438,-0.60938 0,-0.35937 0.23438,-0.60937 0.25,-0.25 0.60937,-0.25 0.35938,0 0.60938,0.25 0.25,0.25 0.25,0.60937 0,0.35938 -0.25,0.60938 -0.25,0.25 -0.60938,0.25 z m 10.14605,-7.6875 v -0.5 h 3.375 v 0.5 l -1.09375,0.125 q -0.0156,0.76562 -0.0312,1.54687 0,0.76563 0,1.54688 v 0.59375 q 0,0.76562 0,1.54687 0.0156,0.76563 0.0312,1.54688 l 1.09375,0.14062 v 0.48438 h -3.375 v -0.48438 l 1.09375,-0.14062 q 0.0312,-0.76563 0.0312,-1.5625 0,-0.79688 0,-1.64063 h -3.875 q 0,0.90625 0,1.6875 0.0156,0.78125 0.0156,1.53125 l 1.09375,0.125 v 0.48438 h -3.375 v -0.48438 l 1.09375,-0.14062 q 0.0312,-0.75 0.0312,-1.53125 0,-0.78125 0,-1.5625 v -0.59375 q 0,-0.78125 0,-1.54688 0,-0.78125 -0.0312,-1.54687 l -1.09375,-0.125 v -0.5 h 3.375 v 0.5 l -1.09375,0.10937 q 0,0.78125 -0.0156,1.54688 0,0.76562 0,1.48437 h 3.875 q 0,-0.79687 0,-1.53125 0,-0.75 -0.0312,-1.48437 z m 5.71806,3.32812 q -0.35938,0 -0.60938,-0.25 -0.23437,-0.25 -0.23437,-0.60937 0,-0.35938 0.23437,-0.60938 0.25,-0.25 0.60938,-0.25 0.35937,0 0.60937,0.25 0.25,0.25 0.25,0.60938 0,0.35937 -0.25,0.60937 -0.25,0.25 -0.60937,0.25 z m 0,4.35938 q -0.35938,0 -0.60938,-0.25 -0.23437,-0.25 -0.23437,-0.60938 0,-0.35937 0.23437,-0.60937 0.25,-0.25 0.60938,-0.25 0.35937,0 0.60937,0.25 0.25,0.25 0.25,0.60937 0,0.35938 -0.25,0.60938 -0.25,0.25 -0.60937,0.25 z m 3.60004,-4.35938 q -0.35938,0 -0.60938,-0.25 -0.23437,-0.25 -0.23437,-0.60937 0,-0.35938 0.23437,-0.60938 0.25,-0.25 0.60938,-0.25 0.35937,0 0.60937,0.25 0.25,0.25 0.25,0.60938 0,0.35937 -0.25,0.60937 -0.25,0.25 -0.60937,0.25 z m 0,4.35938 q -0.35938,0 -0.60938,-0.25 -0.23437,-0.25 -0.23437,-0.60938 0,-0.35937 0.23437,-0.60937 0.25,-0.25 0.60938,-0.25 0.35937,0 0.60937,0.25 0.25,0.25 0.25,0.60937 0,0.35938 -0.25,0.60938 -0.25,0.25 -0.60937,0.25 z m 5.6625,-7.625 h -1.04687 q 0,0.78125 -0.0156,1.57812 0,0.78125 0,1.625 h 0.92188 q 0.96875,0 1.42187,-0.46875 0.46875,-0.46875 0.46875,-1.1875 0,-0.75 -0.42187,-1.14062 -0.40625,-0.40625 -1.32813,-0.40625 z m -3.32812,-0.0625 v -0.5 h 3.35937 q 1.375,0 2.14063,0.5625 0.76562,0.54687 0.76562,1.54687 0,0.6875 -0.5,1.26563 -0.5,0.57812 -1.51562,0.75 0.53125,0.10937 0.875,0.46875 0.34375,0.35937 0.54687,1.0625 l 0.51563,1.78125 0.92187,0.10937 v 0.48438 q -0.17187,0.0469 -0.40625,0.0781 -0.21875,0.0469 -0.48437,0.0469 -0.5625,0 -0.85938,-0.17188 -0.28125,-0.17187 -0.375,-0.59375 l -0.48437,-1.92187 q -0.10938,-0.5 -0.3125,-0.73438 -0.20313,-0.25 -0.53125,-0.32812 -0.3125,-0.0937 -0.79688,-0.0937 h -0.59375 q 0,0.85937 0,1.625 0.0156,0.75 0.0156,1.46875 l 1.10937,0.14062 v 0.48438 h -3.39062 v -0.48438 l 1.09375,-0.14062 q 0.0312,-0.75 0.0312,-1.53125 0,-0.78125 0,-1.5625 v -0.59375 q 0,-0.78125 0,-1.54688 0,-0.78125 -0.0312,-1.54687 z"
       id="path237"
       inkscape:connector-curvature="0"
       style="fill:#000000;fill-rule:nonzero" />
    <path
       d="M 170.06036,112.59082 H 288.92651 V 127.142 H 170.06036 Z"
       id="path239"
       inkscape:connector-curvature="0"
       style="fill:#000000;fill-opacity:0;fill-rule:evenodd" />
    <path
       d="m 193.86707,126.98582 v -0.42187 l 0.95312,-0.17188 q 0.0156,-0.5 0.0156,-0.98437 0.0156,-0.48438 0.0156,-0.95313 v -3.4375 q 0,-0.5 -0.0156,-0.8125 0,-0.32812 -0.0156,-0.6875 l -0.95312,-0.10937 v -0.42188 l 1.67187,-0.73437 0.1875,0.125 0.0781,0.78125 q 0.84375,-0.90625 1.79687,-0.90625 0.65625,0 1.17188,0.35937 0.51562,0.35938 0.8125,1.03125 0.3125,0.67188 0.3125,1.59375 0,0.9375 -0.32813,1.60938 -0.3125,0.67187 -0.875,1.04687 -0.5625,0.375 -1.26562,0.375 -0.40625,0 -0.8125,-0.17187 -0.40625,-0.17188 -0.78125,-0.60938 v 0.95313 q 0,0.46875 0,0.95312 0.0156,0.5 0.0156,0.98438 l 1.09375,0.1875 v 0.42187 z m 3.45312,-8.04687 q -0.28125,0 -0.64062,0.14062 -0.35938,0.14063 -0.8125,0.51563 v 3.375 q 0.34375,0.32812 0.65625,0.46875 0.32812,0.14062 0.67187,0.14062 0.67188,0 1.14063,-0.53125 0.48437,-0.54687 0.48437,-1.70312 0,-1.15625 -0.42187,-1.78125 -0.42188,-0.625 -1.07813,-0.625 z m 8.10543,5.29687 q -0.42188,0 -0.71875,-0.25 -0.28125,-0.26562 -0.35938,-0.67187 -0.48437,0.46875 -0.85937,0.71875 -0.375,0.23437 -0.90625,0.23437 -0.65625,0 -1.125,-0.375 -0.46875,-0.375 -0.46875,-1.125 0,-0.34375 0.15625,-0.64062 0.15625,-0.3125 0.59375,-0.59375 0.4375,-0.29688 1.23437,-0.57813 0.28125,-0.0937 0.64063,-0.20312 0.35937,-0.10938 0.71875,-0.1875 v -0.3125 q 0,-0.875 -0.26563,-1.15625 -0.26562,-0.28125 -0.85937,-0.28125 -0.14063,0 -0.3125,0.0156 -0.15625,0 -0.34375,0.0469 l -0.21875,0.78125 q -0.17188,0.57812 -0.625,0.57812 -0.51563,0 -0.5625,-0.5 0.15625,-0.67187 0.78125,-1.07812 0.64062,-0.40625 1.54687,-0.40625 0.95313,0 1.40625,0.48437 0.45313,0.46875 0.45313,1.60938 v 2.54687 q 0,0.39063 0.125,0.5625 0.125,0.15625 0.3125,0.15625 0.15625,0 0.26562,-0.0625 0.10938,-0.0781 0.20313,-0.20312 l 0.23437,0.26562 q -0.21875,0.34375 -0.48437,0.48438 -0.25,0.14062 -0.5625,0.14062 z m -3.375,-1.65625 q 0,0.48438 0.26562,0.6875 0.28125,0.20313 0.6875,0.20313 0.1875,0 0.34375,-0.0469 0.17188,-0.0469 0.39063,-0.1875 0.23437,-0.14062 0.59375,-0.39062 v -1.84375 q -0.3125,0.0781 -0.625,0.1875 -0.29688,0.10937 -0.48438,0.17187 -0.51562,0.20313 -0.76562,0.42188 -0.25,0.21875 -0.32813,0.42187 -0.0781,0.20313 -0.0781,0.375 z m 8.17555,-3.73437 v -0.4375 h 2.34375 v 0.4375 l -0.64062,0.125 -1.9375,5.10937 q -0.59375,1.59375 -1.15625,2.29688 -0.5625,0.71875 -1.29688,0.71875 -0.45312,0 -0.78125,-0.21875 -0.32812,-0.21875 -0.32812,-0.5625 0.0625,-0.26563 0.29687,-0.40625 0.23438,-0.125 0.5,-0.125 0.25,0 0.45313,0.0937 0.20312,0.10937 0.4375,0.35937 l 0.0625,0.0625 q 0.39062,-0.32812 0.64062,-0.79687 0.26563,-0.45313 0.4375,-0.9375 l 0.0469,-0.14063 -2.17188,-5.48437 -0.65625,-0.0937 v -0.4375 h 2.875 v 0.45312 l -1.04687,0.10938 1.5,4.09375 1.46875,-4.07813 z m 2.40404,5.26562 v -0.4375 l 0.96875,-0.15625 q 0,-0.5 0,-0.96875 0.0156,-0.48437 0.0156,-0.95312 v -5.26563 l -0.98437,-0.125 v -0.42187 l 1.875,-0.54688 0.17187,0.10938 -0.0469,1.70312 v 4.54688 q 0,0.46875 0,0.95312 0,0.48438 0.0156,0.96875 l 0.96875,0.15625 v 0.4375 z m 6.56039,0.15625 q -0.6875,0 -1.32812,-0.32812 -0.625,-0.32813 -1.01563,-1 -0.39062,-0.67188 -0.39062,-1.64063 0,-1 0.39062,-1.67187 0.39063,-0.6875 1.01563,-1.03125 0.64062,-0.34375 1.32812,-0.34375 0.70313,0 1.32813,0.34375 0.64062,0.34375 1.03125,1.03125 0.40625,0.67187 0.40625,1.67187 0,0.96875 -0.40625,1.64063 -0.39063,0.67187 -1.03125,1 -0.625,0.32812 -1.32813,0.32812 z m 0,-0.54687 q 0.78125,0 1.20313,-0.60938 0.42187,-0.625 0.42187,-1.8125 0,-1.21875 -0.42187,-1.84375 -0.42188,-0.64062 -1.20313,-0.64062 -0.76562,0 -1.1875,0.64062 -0.40625,0.625 -0.40625,1.84375 0,1.1875 0.40625,1.8125 0.42188,0.60938 1.1875,0.60938 z m 8.29117,0.51562 q -0.42188,0 -0.71875,-0.25 -0.28125,-0.26562 -0.35938,-0.67187 -0.48437,0.46875 -0.85937,0.71875 -0.375,0.23437 -0.90625,0.23437 -0.65625,0 -1.125,-0.375 -0.46875,-0.375 -0.46875,-1.125 0,-0.34375 0.15625,-0.64062 0.15625,-0.3125 0.59375,-0.59375 0.4375,-0.29688 1.23437,-0.57813 0.28125,-0.0937 0.64063,-0.20312 0.35937,-0.10938 0.71875,-0.1875 v -0.3125 q 0,-0.875 -0.26563,-1.15625 -0.26562,-0.28125 -0.85937,-0.28125 -0.14063,0 -0.3125,0.0156 -0.15625,0 -0.34375,0.0469 l -0.21875,0.78125 q -0.17188,0.57812 -0.625,0.57812 -0.51563,0 -0.5625,-0.5 0.15625,-0.67187 0.78125,-1.07812 0.64062,-0.40625 1.54687,-0.40625 0.95313,0 1.40625,0.48437 0.45313,0.46875 0.45313,1.60938 v 2.54687 q 0,0.39063 0.125,0.5625 0.125,0.15625 0.3125,0.15625 0.15625,0 0.26562,-0.0625 0.10938,-0.0781 0.20313,-0.20312 l 0.23437,0.26562 q -0.21875,0.34375 -0.48437,0.48438 -0.25,0.14062 -0.5625,0.14062 z m -3.375,-1.65625 q 0,0.48438 0.26562,0.6875 0.28125,0.20313 0.6875,0.20313 0.1875,0 0.34375,-0.0469 0.17188,-0.0469 0.39063,-0.1875 0.23437,-0.14062 0.59375,-0.39062 v -1.84375 q -0.3125,0.0781 -0.625,0.1875 -0.29688,0.10937 -0.48438,0.17187 -0.51562,0.20313 -0.76562,0.42188 -0.25,0.21875 -0.32813,0.42187 -0.0781,0.20313 -0.0781,0.375 z m 6.12367,-1.28125 q 0,1.17188 0.46875,1.73438 0.46875,0.54687 1.1875,0.54687 0.40625,0 0.70313,-0.15625 0.3125,-0.17187 0.64062,-0.53125 v -3.32812 q -0.40625,-0.35938 -0.73437,-0.48438 -0.3125,-0.14062 -0.60938,-0.14062 -0.45312,0 -0.82812,0.25 -0.375,0.23437 -0.60938,0.76562 -0.21875,0.51563 -0.21875,1.34375 z m 3.125,2.9375 -0.0781,-0.82812 q -0.3125,0.40625 -0.71875,0.64062 -0.40625,0.21875 -0.96875,0.21875 -0.73438,0 -1.28125,-0.375 -0.54688,-0.375 -0.85938,-1.03125 -0.29687,-0.67187 -0.29687,-1.54687 0,-0.92188 0.32812,-1.60938 0.34375,-0.6875 0.90625,-1.0625 0.57813,-0.39062 1.3125,-0.39062 0.42188,0 0.8125,0.17187 0.39063,0.17188 0.76563,0.60938 v -2.70313 l -1.03125,-0.125 v -0.42187 l 1.875,-0.54688 0.17187,0.10938 -0.0469,1.70312 v 6.48438 l 0.96875,0.14062 v 0.4375 z m 3.85092,-4.32812 q -0.35937,0 -0.60937,-0.25 -0.23438,-0.25 -0.23438,-0.60938 0,-0.35937 0.23438,-0.60937 0.25,-0.25 0.60937,-0.25 0.35938,0 0.60938,0.25 0.25,0.25 0.25,0.60937 0,0.35938 -0.25,0.60938 -0.25,0.25 -0.60938,0.25 z m 0,4.35937 q -0.35937,0 -0.60937,-0.25 -0.23438,-0.25 -0.23438,-0.60937 0,-0.35938 0.23438,-0.60938 0.25,-0.25 0.60937,-0.25 0.35938,0 0.60938,0.25 0.25,0.25 0.25,0.60938 0,0.35937 -0.25,0.60937 -0.25,0.25 -0.60938,0.25 z m 10.14605,-7.6875 v -0.5 h 3.375 v 0.5 l -1.09375,0.125 q -0.0156,0.76563 -0.0312,1.54688 0,0.76562 0,1.54687 v 0.59375 q 0,0.76563 0,1.54688 0.0156,0.76562 0.0312,1.54687 l 1.09375,0.14063 v 0.48437 h -3.375 v -0.48437 l 1.09375,-0.14063 q 0.0312,-0.76562 0.0312,-1.5625 0,-0.79687 0,-1.64062 h -3.875 q 0,0.90625 0,1.6875 0.0156,0.78125 0.0156,1.53125 l 1.09375,0.125 v 0.48437 h -3.375 v -0.48437 l 1.09375,-0.14063 q 0.0312,-0.75 0.0312,-1.53125 0,-0.78125 0,-1.5625 v -0.59375 q 0,-0.78125 0,-1.54687 0,-0.78125 -0.0312,-1.54688 l -1.09375,-0.125 v -0.5 h 3.375 v 0.5 l -1.09375,0.10938 q 0,0.78125 -0.0156,1.54687 0,0.76563 0,1.48438 h 3.875 q 0,-0.79688 0,-1.53125 0,-0.75 -0.0312,-1.48438 z m 5.71806,3.32813 q -0.35938,0 -0.60938,-0.25 -0.23437,-0.25 -0.23437,-0.60938 0,-0.35937 0.23437,-0.60937 0.25,-0.25 0.60938,-0.25 0.35937,0 0.60937,0.25 0.25,0.25 0.25,0.60937 0,0.35938 -0.25,0.60938 -0.25,0.25 -0.60937,0.25 z m 0,4.35937 q -0.35938,0 -0.60938,-0.25 -0.23437,-0.25 -0.23437,-0.60937 0,-0.35938 0.23437,-0.60938 0.25,-0.25 0.60938,-0.25 0.35937,0 0.60937,0.25 0.25,0.25 0.25,0.60938 0,0.35937 -0.25,0.60937 -0.25,0.25 -0.60937,0.25 z m 3.60004,-4.35937 q -0.35938,0 -0.60938,-0.25 -0.23439,-0.25 -0.23439,-0.60938 0,-0.35937 0.23439,-0.60937 0.25,-0.25 0.60938,-0.25 0.35937,0 0.60937,0.25 0.25,0.25 0.25,0.60937 0,0.35938 -0.25,0.60938 -0.25,0.25 -0.60937,0.25 z m 0,4.35937 q -0.35938,0 -0.60938,-0.25 -0.23439,-0.25 -0.23439,-0.60937 0,-0.35938 0.23439,-0.60938 0.25,-0.25 0.60938,-0.25 0.35937,0 0.60937,0.25 0.25,0.25 0.25,0.60938 0,0.35937 -0.25,0.60937 -0.25,0.25 -0.60937,0.25 z m 5.35,-7.625 h -0.73437 q 0,0.76563 -0.0156,1.5625 0,0.79688 0,1.59375 v 0.57813 h 0.79688 q 1.09375,0 1.54687,-0.53125 0.46875,-0.53125 0.46875,-1.375 0,-0.875 -0.5,-1.34375 -0.48437,-0.48438 -1.5625,-0.48438 z m -3.01562,-0.0625 v -0.5 h 3.21875 q 1.53125,0 2.28125,0.67188 0.76562,0.65625 0.76562,1.71875 0,0.67187 -0.34375,1.23437 -0.32812,0.5625 -1.0625,0.90625 -0.73437,0.32813 -1.96875,0.32813 h -0.625 q 0,0.65625 0,1.28125 0.0156,0.625 0.0156,1.26562 l 1.125,0.14063 v 0.48437 h -3.40625 v -0.48437 l 1.09375,-0.14063 q 0.0312,-0.75 0.0312,-1.53125 0,-0.78125 0,-1.5625 v -0.59375 q 0,-0.78125 0,-1.54687 0,-0.78125 -0.0312,-1.54688 z"
       id="path241"
       inkscape:connector-curvature="0"
       style="fill:#000000;fill-rule:nonzero" />
    <path
       d="M 176.24312,130.29419 H 282.73129"
       id="path243"
       inkscape:connector-curvature="0"
       style="fill:#000000;fill-opacity:0;fill-rule:evenodd" />
    <path
       d="m 176.2431,130.29419 h 94.48819"
       id="path245"
       inkscape:connector-curvature="0"
       style="fill-rule:evenodd;stroke:#595959;stroke-width:2;stroke-linecap:butt;stroke-linejoin:round" />
    <path
       d="m 270.7313,133.59766 9.0762,-3.30347 -9.0762,-3.30346 z"
       id="path247"
       inkscape:connector-curvature="0"
       style="fill:#595959;fill-rule:evenodd;stroke:#595959;stroke-width:2;stroke-linecap:butt" />
    <path
       d="M 176.24312,149.63814 H 282.73129"
       id="path249"
       inkscape:connector-curvature="0"
       style="fill:#000000;fill-opacity:0;fill-rule:evenodd" />
    <path
       d="m 176.2431,149.63814 h 94.48819"
       id="path251"
       inkscape:connector-curvature="0"
       style="fill-rule:evenodd;stroke:#595959;stroke-width:2;stroke-linecap:butt;stroke-linejoin:round" />
    <path
       d="m 270.7313,152.9416 9.0762,-3.30347 -9.0762,-3.30346 z"
       id="path253"
       inkscape:connector-curvature="0"
       style="fill:#595959;fill-rule:evenodd;stroke:#595959;stroke-width:2;stroke-linecap:butt" />
    <path
       d="m 170.06036,131.93477 h 118.86615 v 14.55118 H 170.06036 Z"
       id="path255"
       inkscape:connector-curvature="0"
       style="fill:#000000;fill-opacity:0;fill-rule:evenodd" />
    <path
       d="m 205.22313,138.22038 v -0.46875 h 2.28125 v 0.46875 l -0.65625,0.15625 -1.95313,5.15625 h -0.51562 l -2.1875,-5.1875 -0.64063,-0.125 v -0.46875 h 2.90625 v 0.46875 l -1.0625,0.15625 1.46875,3.84375 1.32813,-3.82813 z m 7.18054,5.35937 q -0.42187,0 -0.71875,-0.25 -0.28125,-0.26562 -0.35937,-0.67187 -0.48438,0.46875 -0.85938,0.71875 -0.375,0.23437 -0.90625,0.23437 -0.65625,0 -1.125,-0.375 -0.46875,-0.375 -0.46875,-1.125 0,-0.34375 0.15625,-0.64062 0.15625,-0.3125 0.59375,-0.59375 0.4375,-0.29688 1.23438,-0.57813 0.28125,-0.0937 0.64062,-0.20312 0.35938,-0.10938 0.71875,-0.1875 v -0.3125 q 0,-0.875 -0.26562,-1.15625 -0.26563,-0.28125 -0.85938,-0.28125 -0.14062,0 -0.3125,0.0156 -0.15625,0 -0.34375,0.0469 l -0.21875,0.78125 q -0.17187,0.57812 -0.625,0.57812 -0.51562,0 -0.5625,-0.5 0.15625,-0.67187 0.78125,-1.07812 0.64063,-0.40625 1.54688,-0.40625 0.95312,0 1.40625,0.48437 0.45312,0.46875 0.45312,1.60938 v 2.54687 q 0,0.39063 0.125,0.5625 0.125,0.15625 0.3125,0.15625 0.15625,0 0.26563,-0.0625 0.10937,-0.0781 0.20312,-0.20312 l 0.23438,0.26562 q -0.21875,0.34375 -0.48438,0.48438 -0.25,0.14062 -0.5625,0.14062 z m -3.375,-1.65625 q 0,0.48438 0.26563,0.6875 0.28125,0.20313 0.6875,0.20313 0.1875,0 0.34375,-0.0469 0.17187,-0.0469 0.39062,-0.1875 0.23438,-0.14062 0.59375,-0.39062 v -1.84375 q -0.3125,0.0781 -0.625,0.1875 -0.29687,0.10937 -0.48437,0.17187 -0.51563,0.20313 -0.76563,0.42188 -0.25,0.21875 -0.32812,0.42187 -0.0781,0.20313 -0.0781,0.375 z m 4.79555,1.53125 v -0.4375 l 0.96875,-0.15625 q 0,-0.5 0,-0.96875 0.0156,-0.48437 0.0156,-0.95312 v -5.26563 l -0.98437,-0.125 v -0.42187 l 1.875,-0.54688 0.17187,0.10938 -0.0469,1.70312 v 4.54688 q 0,0.46875 0,0.95312 0,0.48438 0.0156,0.96875 l 0.96875,0.15625 v 0.4375 z m 3.70102,0 v -0.4375 l 0.89062,-0.15625 q 0.0156,-0.46875 0.0156,-1 0.0156,-0.53125 0.0156,-0.92187 v -0.5625 q 0,-0.5 -0.0156,-0.82813 0,-0.32812 -0.0156,-0.6875 l -0.96875,-0.10937 v -0.42188 l 1.85938,-0.73437 0.17187,0.125 -0.0312,1.625 v 1.59375 q 0,0.39062 0,0.92187 0.0156,0.53125 0.0156,1 l 0.84375,0.15625 v 0.4375 z m 1.42187,-7.17187 q -0.34375,0 -0.57812,-0.21875 -0.23438,-0.21875 -0.23438,-0.54688 0,-0.35937 0.23438,-0.5625 0.23437,-0.21875 0.57812,-0.21875 0.32813,0 0.5625,0.21875 0.23438,0.20313 0.23438,0.5625 0,0.32813 -0.23438,0.54688 -0.23437,0.21875 -0.5625,0.21875 z m 3.35727,4.35937 q 0,1.17188 0.46875,1.73438 0.46875,0.54687 1.1875,0.54687 0.40625,0 0.70313,-0.15625 0.3125,-0.17187 0.64062,-0.53125 v -3.32812 q -0.40625,-0.35938 -0.73437,-0.48438 -0.3125,-0.14062 -0.60938,-0.14062 -0.45312,0 -0.82812,0.25 -0.375,0.23437 -0.60938,0.76562 -0.21875,0.51563 -0.21875,1.34375 z m 3.125,2.9375 -0.0781,-0.82812 q -0.3125,0.40625 -0.71875,0.64062 -0.40625,0.21875 -0.96875,0.21875 -0.73438,0 -1.28125,-0.375 -0.54688,-0.375 -0.85938,-1.03125 -0.29687,-0.67187 -0.29687,-1.54687 0,-0.92188 0.32812,-1.60938 0.34375,-0.6875 0.90625,-1.0625 0.57813,-0.39062 1.3125,-0.39062 0.42188,0 0.8125,0.17187 0.39063,0.17188 0.76563,0.60938 v -2.70313 l -1.03125,-0.125 v -0.42187 l 1.875,-0.54688 0.17187,0.10938 -0.0469,1.70312 v 6.48438 l 0.96875,0.14062 v 0.4375 z m 3.85092,-4.32812 q -0.35937,0 -0.60937,-0.25 -0.23438,-0.25 -0.23438,-0.60938 0,-0.35937 0.23438,-0.60937 0.25,-0.25 0.60937,-0.25 0.35938,0 0.60938,0.25 0.25,0.25 0.25,0.60937 0,0.35938 -0.25,0.60938 -0.25,0.25 -0.60938,0.25 z m 0,4.35937 q -0.35937,0 -0.60937,-0.25 -0.23438,-0.25 -0.23438,-0.60937 0,-0.35938 0.23438,-0.60938 0.25,-0.25 0.60937,-0.25 0.35938,0 0.60938,0.25 0.25,0.25 0.25,0.60938 0,0.35937 -0.25,0.60937 -0.25,0.25 -0.60938,0.25 z"
       id="path257"
       inkscape:connector-curvature="0"
       style="fill:#000000;fill-rule:nonzero" />
    <path
       d="m 234.23885,143.45476 v -0.4375 l 0.90625,-0.15625 q 0,-0.45313 0,-0.98438 0.0156,-0.53125 0.0156,-0.9375 v -5.26562 l -0.98438,-0.125 v -0.42188 l 1.84375,-0.54687 0.15625,0.10937 -0.0469,1.70313 v 2.125 q 0.4375,-0.46875 0.89062,-0.6875 0.46875,-0.23438 0.96875,-0.23438 0.625,0 1.14063,0.35938 0.51562,0.34375 0.82812,1 0.3125,0.65625 0.3125,1.59375 0,0.92187 -0.32812,1.625 -0.32813,0.6875 -0.89063,1.0625 -0.54687,0.375 -1.26562,0.375 -0.42188,0 -0.84375,-0.17188 -0.40625,-0.1875 -0.8125,-0.6875 l -0.0937,0.82813 z m 3.42188,-5.17188 q -0.28125,0 -0.64063,0.14063 -0.35937,0.14062 -0.84375,0.5625 v 3.28125 q 0.35938,0.34375 0.71875,0.5 0.375,0.15625 0.70313,0.15625 0.64062,0 1.10937,-0.54688 0.46875,-0.5625 0.46875,-1.73437 0,-1.14063 -0.42187,-1.75 -0.42188,-0.60938 -1.09375,-0.60938 z m 6.42404,5.32813 q -0.6875,0 -1.32813,-0.32813 -0.625,-0.32812 -1.01562,-1 -0.39063,-0.67187 -0.39063,-1.64062 0,-1 0.39063,-1.67188 0.39062,-0.6875 1.01562,-1.03125 0.64063,-0.34375 1.32813,-0.34375 0.70312,0 1.32812,0.34375 0.64063,0.34375 1.03125,1.03125 0.40625,0.67188 0.40625,1.67188 0,0.96875 -0.40625,1.64062 -0.39062,0.67188 -1.03125,1 -0.625,0.32813 -1.32812,0.32813 z m 0,-0.54688 q 0.78125,0 1.20312,-0.60937 0.42188,-0.625 0.42188,-1.8125 0,-1.21875 -0.42188,-1.84375 -0.42187,-0.64063 -1.20312,-0.64063 -0.76563,0 -1.1875,0.64063 -0.40625,0.625 -0.40625,1.84375 0,1.1875 0.40625,1.8125 0.42187,0.60937 1.1875,0.60937 z m 6.58804,0.54688 q -0.6875,0 -1.32813,-0.32813 -0.625,-0.32812 -1.01562,-1 -0.39063,-0.67187 -0.39063,-1.64062 0,-1 0.39063,-1.67188 0.39062,-0.6875 1.01562,-1.03125 0.64063,-0.34375 1.32813,-0.34375 0.70312,0 1.32812,0.34375 0.64063,0.34375 1.03125,1.03125 0.40625,0.67188 0.40625,1.67188 0,0.96875 -0.40625,1.64062 -0.39062,0.67188 -1.03125,1 -0.625,0.32813 -1.32812,0.32813 z m 0,-0.54688 q 0.78125,0 1.20312,-0.60937 0.42188,-0.625 0.42188,-1.8125 0,-1.21875 -0.42188,-1.84375 -0.42187,-0.64063 -1.20312,-0.64063 -0.76563,0 -1.1875,0.64063 -0.40625,0.625 -0.40625,1.84375 0,1.1875 0.40625,1.8125 0.42187,0.60937 1.1875,0.60937 z m 3.48367,0.39063 v -0.4375 l 0.96875,-0.15625 q 0,-0.5 0,-0.96875 0.0156,-0.48438 0.0156,-0.95313 v -5.26562 l -0.98438,-0.125 v -0.42188 l 1.87502,-0.54687 0.17187,0.10937 -0.0469,1.70313 v 4.54687 q 0,0.46875 0,0.95313 0,0.48437 0.0156,0.96875 l 0.96875,0.15625 v 0.4375 z"
       id="path259"
       inkscape:connector-curvature="0"
       style="fill:#202122;fill-rule:nonzero" />
    <path
       d="m 100.48673,124.41165 h 75.74802 v 50.79509 h -75.74802 z"
       id="path261"
       inkscape:connector-curvature="0"
       style="fill:#d9d9d9;fill-rule:evenodd" />
    <path
       d="m 100.47456,124.41393 h 48.05286"
       id="path263"
       inkscape:connector-curvature="0"
       style="fill:#000000;fill-opacity:0;fill-rule:evenodd" />
    <path
       d="m 100.47456,124.41393 h 48.05286"
       id="path265"
       inkscape:connector-curvature="0"
       style="fill-rule:evenodd;stroke:#595959;stroke-width:1;stroke-linecap:butt;stroke-linejoin:round;stroke-dasharray:4, 3" />
    <path
       d="m 100.47456,175.20901 h 48.05286"
       id="path267"
       inkscape:connector-curvature="0"
       style="fill:#000000;fill-opacity:0;fill-rule:evenodd" />
    <path
       d="m 100.47456,175.20901 h 48.05286"
       id="path269"
       inkscape:connector-curvature="0"
       style="fill-rule:evenodd;stroke:#595959;stroke-width:1;stroke-linecap:butt;stroke-linejoin:round;stroke-dasharray:4, 3" />
    <path
       d="m 147.82535,175.20901 h 28.39487"
       id="path271"
       inkscape:connector-curvature="0"
       style="fill:#000000;fill-opacity:0;fill-rule:evenodd" />
    <path
       d="m 147.82535,175.20901 h 28.39487"
       id="path273"
       inkscape:connector-curvature="0"
       style="fill-rule:evenodd;stroke:#595959;stroke-width:1;stroke-linecap:butt;stroke-linejoin:round" />
    <path
       d="m 147.82535,124.41393 h 28.39487"
       id="path275"
       inkscape:connector-curvature="0"
       style="fill:#000000;fill-opacity:0;fill-rule:evenodd" />
    <path
       d="m 147.82535,124.41393 h 28.39487"
       id="path277"
       inkscape:connector-curvature="0"
       style="fill-rule:evenodd;stroke:#595959;stroke-width:1;stroke-linecap:butt;stroke-linejoin:round" />
    <path
       d="M 176.22021,175.20674 V 124.63035"
       id="path279"
       inkscape:connector-curvature="0"
       style="fill:#000000;fill-opacity:0;fill-rule:evenodd" />
    <path
       d="M 176.22021,175.20674 V 124.63035"
       id="path281"
       inkscape:connector-curvature="0"
       style="fill-rule:evenodd;stroke:#595959;stroke-width:1;stroke-linecap:butt;stroke-linejoin:round" />
    <path
       d="m 95.23622,132.78906 h 81.00787 V 166.8363 H 95.23622 Z"
       id="path283"
       inkscape:connector-curvature="0"
       style="fill:#000000;fill-opacity:0;fill-rule:evenodd" />
    <path
       d="m 124.83669,155.31143 q -0.8125,0 -1.57813,-0.21875 -0.76562,-0.23438 -1.26562,-0.5625 l 0.0781,-2.04688 h 0.90625 l 0.29688,1.73438 q 0.34375,0.1875 0.70312,0.28125 0.35938,0.0781 0.82813,0.0781 1.03125,0 1.64062,-0.45312 0.625,-0.46875 0.625,-1.3125 0,-0.70313 -0.4375,-1.09375 -0.42187,-0.39063 -1.35937,-0.76563 l -0.57813,-0.23437 q -1.125,-0.4375 -1.82812,-1.125 -0.6875,-0.70313 -0.6875,-1.8125 0,-0.84375 0.42187,-1.4375 0.4375,-0.60938 1.1875,-0.9375 0.75,-0.34375 1.6875,-0.34375 0.73438,0 1.32813,0.21875 0.60937,0.20312 1.07812,0.54687 l -0.0937,1.92188 h -0.89062 l -0.3125,-1.65625 q -0.54688,-0.29688 -1.20313,-0.29688 -0.82812,0 -1.40625,0.42188 -0.5625,0.42187 -0.5625,1.23437 0,0.67188 0.42188,1.125 0.4375,0.4375 1.23437,0.73438 l 0.57813,0.21875 q 1.4375,0.5625 2.04687,1.26562 0.625,0.6875 0.625,1.73438 0,0.85937 -0.45313,1.48437 -0.4375,0.625 -1.21875,0.96875 -0.78125,0.32813 -1.81249,0.32813 z m 8.00402,-6.70313 q -0.40625,0 -0.82812,0.23438 -0.40625,0.23437 -0.71875,0.75 -0.29688,0.51562 -0.375,1.35937 h 2.65625 q 0.53125,0 0.70312,-0.21875 0.17188,-0.21875 0.17188,-0.53125 0,-0.42187 -0.21875,-0.78125 -0.21875,-0.35937 -0.57813,-0.57812 -0.35937,-0.23438 -0.8125,-0.23438 z m -0.0156,6.67188 q -1.46875,0 -2.375,-0.95313 -0.89063,-0.96875 -0.89063,-2.65625 0,-1.125 0.45313,-1.95312 0.46875,-0.84375 1.23437,-1.3125 0.78125,-0.46875 1.6875,-0.46875 0.76563,0 1.375,0.34375 0.625,0.32812 0.98438,0.95312 0.35937,0.625 0.35937,1.51563 0,0.25 -0.0312,0.46875 -0.0156,0.20312 -0.0625,0.35937 h -4.67187 q 0.0312,1.34375 0.67187,2.04688 0.64063,0.70312 1.70313,0.70312 0.70312,0 1.17187,-0.28125 0.46875,-0.28125 0.85938,-0.73437 l 0.34375,0.26562 q -0.40625,0.78125 -1.10938,1.25 -0.70312,0.45313 -1.70312,0.45313 z m 4.14659,-0.1875 v -0.53125 l 1.07812,-0.20313 q 0.0156,-0.5625 0.0156,-1.20312 0.0156,-0.64063 0.0156,-1.14063 v -0.70312 q 0,-0.59375 -0.0156,-0.98438 0,-0.40625 -0.0312,-0.84375 l -1.15625,-0.14062 v -0.51563 l 2.04687,-0.89062 0.21875,0.15625 0.125,1.17187 q 0.53125,-0.59375 1.23438,-0.95312 0.71875,-0.375 1.39062,-0.375 0.95313,0 1.40625,0.64062 0.46875,0.64063 0.46875,2.07813 v 1.35937 q 0,0.5 0,1.14063 0.0156,0.64062 0.0312,1.20312 l 1.01563,0.20313 v 0.53125 h -3.39063 v -0.53125 l 1.07813,-0.20313 q 0.0156,-0.54687 0.0156,-1.1875 0.0156,-0.65625 0.0156,-1.15625 v -1.25 q 0,-1 -0.29688,-1.375 -0.28125,-0.39062 -0.92187,-0.39062 -0.5,0 -0.96875,0.20312 -0.46875,0.20313 -1.01563,0.67188 v 2.14062 q 0,0.48438 0,1.14063 0,0.64062 0.0156,1.20312 l 1.01562,0.20313 v 0.53125 z m 10.27234,-3.4375 q 0,1.42187 0.57812,2.10937 0.57813,0.6875 1.45313,0.6875 0.48437,0 0.85937,-0.20312 0.375,-0.20313 0.78125,-0.65625 v -4.0625 q -0.5,-0.4375 -0.89062,-0.59375 -0.39063,-0.15625 -0.76563,-0.15625 -0.54687,0 -1.01562,0.29687 -0.45313,0.29688 -0.73438,0.9375 -0.26562,0.64063 -0.26562,1.64063 z m 3.8125,3.57812 -0.0937,-1 q -0.39063,0.5 -0.875,0.78125 -0.48438,0.26563 -1.17188,0.26563 -0.90625,0 -1.57812,-0.45313 -0.67188,-0.45312 -1.04688,-1.26562 -0.375,-0.8125 -0.375,-1.89063 0,-1.125 0.40625,-1.95312 0.42188,-0.84375 1.125,-1.3125 0.70313,-0.46875 1.59375,-0.46875 0.51563,0 0.98438,0.21875 0.48437,0.20312 0.9375,0.73437 v -3.3125 l -1.25,-0.14062 v -0.51563 l 2.28125,-0.65625 0.21875,0.10938 -0.0625,2.09375 v 7.92187 l 1.1875,0.17188 v 0.53125 z m 6.45074,-6.625 q -0.40625,0 -0.82812,0.23438 -0.40625,0.23437 -0.71875,0.75 -0.29688,0.51562 -0.375,1.35937 h 2.65625 q 0.53125,0 0.70312,-0.21875 0.17188,-0.21875 0.17188,-0.53125 0,-0.42187 -0.21875,-0.78125 -0.21875,-0.35937 -0.57813,-0.57812 -0.35937,-0.23438 -0.8125,-0.23438 z m -0.0156,6.67188 q -1.46875,0 -2.375,-0.95313 -0.89063,-0.96875 -0.89063,-2.65625 0,-1.125 0.45313,-1.95312 0.46875,-0.84375 1.23437,-1.3125 0.78125,-0.46875 1.6875,-0.46875 0.76563,0 1.375,0.34375 0.625,0.32812 0.98438,0.95312 0.35937,0.625 0.35937,1.51563 0,0.25 -0.0312,0.46875 -0.0156,0.20312 -0.0625,0.35937 h -4.67187 q 0.0312,1.34375 0.67187,2.04688 0.64063,0.70312 1.70313,0.70312 0.70312,0 1.17187,-0.28125 0.46875,-0.28125 0.85938,-0.73437 l 0.34375,0.26562 q -0.40625,0.78125 -1.10938,1.25 -0.70312,0.45313 -1.70312,0.45313 z m 4.16221,-0.1875 v -0.53125 l 1.0625,-0.1875 q 0.0156,-0.5625 0.0156,-1.20313 0.0156,-0.65625 0.0156,-1.15625 v -0.70312 q 0,-0.59375 -0.0156,-0.98438 0,-0.40625 -0.0312,-0.84375 l -1.15625,-0.14062 v -0.51563 l 2.04687,-0.89062 0.21875,0.15625 0.17188,1.71875 q 0.35937,-0.875 0.9375,-1.375 0.57812,-0.5 1.17187,-0.5 0.32813,0 0.625,0.15625 0.29688,0.14062 0.42188,0.39062 0,1.0625 -0.85938,1.0625 -0.25,0 -0.46875,-0.0937 -0.21875,-0.0937 -0.42187,-0.26562 l -0.1875,-0.15625 q -0.4375,0.3125 -0.73438,0.78125 -0.28125,0.46875 -0.46875,1.10937 v 1.09375 q 0,0.48438 0,1.14063 0,0.64062 0.0156,1.1875 l 1.20312,0.21875 v 0.53125 z"
       id="path285"
       inkscape:connector-curvature="0"
       style="fill:#000000;fill-rule:nonzero" />
    <path
       d="m 282.7046,124.41279 h 75.74805 v 50.79508 H 282.7046 Z"
       id="path287"
       inkscape:connector-curvature="0"
       style="fill:#d9d9d9;fill-rule:evenodd" />
    <path
       d="M 358.45023,124.41279 H 310.3974"
       id="path289"
       inkscape:connector-curvature="0"
       style="fill:#000000;fill-opacity:0;fill-rule:evenodd" />
    <path
       d="M 358.45023,124.41279 H 310.3974"
       id="path291"
       inkscape:connector-curvature="0"
       style="fill-rule:evenodd;stroke:#595959;stroke-width:1;stroke-linecap:butt;stroke-linejoin:round;stroke-dasharray:4, 3" />
    <path
       d="M 358.45023,175.20787 H 310.3974"
       id="path293"
       inkscape:connector-curvature="0"
       style="fill:#000000;fill-opacity:0;fill-rule:evenodd" />
    <path
       d="M 358.45023,175.20787 H 310.3974"
       id="path295"
       inkscape:connector-curvature="0"
       style="fill-rule:evenodd;stroke:#595959;stroke-width:1;stroke-linecap:butt;stroke-linejoin:round;stroke-dasharray:4, 3" />
    <path
       d="M 311.09946,175.20787 H 282.70459"
       id="path297"
       inkscape:connector-curvature="0"
       style="fill:#000000;fill-opacity:0;fill-rule:evenodd" />
    <path
       d="M 311.09946,175.20787 H 282.70459"
       id="path299"
       inkscape:connector-curvature="0"
       style="fill-rule:evenodd;stroke:#595959;stroke-width:1;stroke-linecap:butt;stroke-linejoin:round" />
    <path
       d="M 311.09946,124.41279 H 282.70459"
       id="path301"
       inkscape:connector-curvature="0"
       style="fill:#000000;fill-opacity:0;fill-rule:evenodd" />
    <path
       d="M 311.09946,124.41279 H 282.70459"
       id="path303"
       inkscape:connector-curvature="0"
       style="fill-rule:evenodd;stroke:#595959;stroke-width:1;stroke-linecap:butt;stroke-linejoin:round" />
    <path
       d="M 282.7046,175.2056 V 124.62922"
       id="path305"
       inkscape:connector-curvature="0"
       style="fill:#000000;fill-opacity:0;fill-rule:evenodd" />
    <path
       d="M 282.7046,175.2056 V 124.62922"
       id="path307"
       inkscape:connector-curvature="0"
       style="fill-rule:evenodd;stroke:#595959;stroke-width:1;stroke-linecap:butt;stroke-linejoin:round" />
    <path
       d="m 282.70602,132.78906 h 81.00787 v 34.04724 h -81.00787 z"
       id="path309"
       inkscape:connector-curvature="0"
       style="fill:#000000;fill-opacity:0;fill-rule:evenodd" />
    <path
       d="m 296.40915,145.96768 h -1.26563 q -0.0156,0.96875 -0.0156,1.92187 0,0.95313 0,2 h 1.125 q 1.1875,0 1.75,-0.5625 0.5625,-0.57812 0.5625,-1.45312 0,-0.9375 -0.51563,-1.42188 -0.51562,-0.48437 -1.64062,-0.48437 z m -4.0625,-0.0781 v -0.60937 h 4.10937 q 1.6875,0 2.625,0.6875 0.9375,0.67187 0.9375,1.89062 0,0.84375 -0.625,1.54688 -0.60937,0.70312 -1.84375,0.92187 0.65625,0.14063 1.0625,0.57813 0.42188,0.42187 0.67188,1.28125 l 0.625,2.17187 1.14062,0.14063 v 0.59375 q -0.23437,0.0625 -0.5,0.0937 -0.26562,0.0469 -0.60937,0.0469 -0.6875,0 -1.03125,-0.20312 -0.34375,-0.20313 -0.46875,-0.73438 l -0.59375,-2.34375 q -0.125,-0.59375 -0.375,-0.89062 -0.25,-0.3125 -0.64063,-0.40625 -0.39062,-0.10938 -0.98437,-0.10938 h -0.71875 q 0,1.0625 0,1.98438 0,0.92187 0.0156,1.79687 l 1.35938,0.17188 v 0.59375 h -4.15625 v -0.59375 l 1.35937,-0.17188 q 0.0156,-0.92187 0.0156,-1.875 0,-0.95312 0,-1.90625 v -0.71875 q 0,-0.95312 0,-1.89062 0,-0.95313 -0.0156,-1.89063 z m 12.69147,2.71875 q -0.40625,0 -0.82813,0.23438 -0.40625,0.23437 -0.71875,0.75 -0.29687,0.51562 -0.375,1.35937 h 2.65625 q 0.53125,0 0.70313,-0.21875 0.17187,-0.21875 0.17187,-0.53125 0,-0.42187 -0.21875,-0.78125 -0.21875,-0.35937 -0.57812,-0.57812 -0.35938,-0.23438 -0.8125,-0.23438 z m -0.0156,6.67188 q -1.46875,0 -2.375,-0.95313 -0.89062,-0.96875 -0.89062,-2.65625 0,-1.125 0.45312,-1.95312 0.46875,-0.84375 1.23438,-1.3125 0.78125,-0.46875 1.6875,-0.46875 0.76562,0 1.375,0.34375 0.625,0.32812 0.98437,0.95312 0.35938,0.625 0.35938,1.51563 0,0.25 -0.0312,0.46875 -0.0156,0.20312 -0.0625,0.35937 h -4.67188 q 0.0312,1.34375 0.67188,2.04688 0.64062,0.70312 1.70312,0.70312 0.70313,0 1.17188,-0.28125 0.46875,-0.28125 0.85937,-0.73437 l 0.34375,0.26562 q -0.40625,0.78125 -1.10937,1.25 -0.70313,0.45313 -1.70313,0.45313 z m 7.45911,0 q -1.5,0 -2.40625,-0.96875 -0.89063,-0.98438 -0.89063,-2.67188 0,-1.15625 0.46875,-1.98437 0.48438,-0.82813 1.26563,-1.26563 0.78125,-0.45312 1.65625,-0.45312 0.65625,0 1.21875,0.25 0.5625,0.25 0.92187,0.6875 0.35938,0.42187 0.45313,0.96875 -0.0937,0.5625 -0.67188,0.5625 -0.35937,0 -0.54687,-0.1875 -0.1875,-0.20313 -0.26563,-0.51563 l -0.26562,-0.96875 q -0.20313,-0.0781 -0.40625,-0.0937 -0.1875,-0.0312 -0.375,-0.0312 -0.9375,0 -1.54688,0.73438 -0.60937,0.73437 -0.60937,2.14062 0,1.375 0.65625,2.10938 0.65625,0.73437 1.6875,0.73437 0.625,0 1.15625,-0.28125 0.53125,-0.28125 0.85937,-0.82812 l 0.375,0.1875 q -0.3125,0.90625 -1,1.39062 -0.6875,0.48438 -1.73437,0.48438 z m 7.18353,-6.67188 q -0.40625,0 -0.82812,0.23438 -0.40625,0.23437 -0.71875,0.75 -0.29688,0.51562 -0.375,1.35937 h 2.65625 q 0.53125,0 0.70312,-0.21875 0.17188,-0.21875 0.17188,-0.53125 0,-0.42187 -0.21875,-0.78125 -0.21875,-0.35937 -0.57813,-0.57812 -0.35937,-0.23438 -0.8125,-0.23438 z m -0.0156,6.67188 q -1.46875,0 -2.375,-0.95313 -0.89063,-0.96875 -0.89063,-2.65625 0,-1.125 0.45313,-1.95312 0.46875,-0.84375 1.23437,-1.3125 0.78125,-0.46875 1.6875,-0.46875 0.76563,0 1.375,0.34375 0.625,0.32812 0.98438,0.95312 0.35937,0.625 0.35937,1.51563 0,0.25 -0.0312,0.46875 -0.0156,0.20312 -0.0625,0.35937 h -4.67187 q 0.0312,1.34375 0.67187,2.04688 0.64063,0.70312 1.70313,0.70312 0.70312,0 1.17187,-0.28125 0.46875,-0.28125 0.85938,-0.73437 l 0.34375,0.26562 q -0.40625,0.78125 -1.10938,1.25 -0.70312,0.45313 -1.70312,0.45313 z m 4.06845,-0.1875 v -0.53125 l 1.09375,-0.20313 q 0.0156,-0.5625 0.0156,-1.20312 0.0156,-0.65625 0.0156,-1.14063 v -0.6875 q 0,-0.60937 -0.0156,-1 0,-0.40625 -0.0312,-0.84375 l -1.17187,-0.14062 v -0.51563 l 2.26562,-0.89062 0.21875,0.15625 -0.0469,1.98437 v 1.9375 q 0,0.48438 0,1.14063 0.0156,0.64062 0.0312,1.20312 l 1.01562,0.20313 v 0.53125 z m 1.73437,-8.76563 q -0.42187,0 -0.70312,-0.26562 -0.28125,-0.26563 -0.28125,-0.67188 0,-0.42187 0.28125,-0.67187 0.28125,-0.26563 0.70312,-0.26563 0.40625,0 0.6875,0.26563 0.28125,0.25 0.28125,0.67187 0,0.40625 -0.28125,0.67188 -0.28125,0.26562 -0.6875,0.26562 z m 6.38196,2.375 v -0.57812 h 2.78125 v 0.57812 l -0.79687,0.1875 -2.375,6.29688 h -0.64063 l -2.65625,-6.34375 -0.79687,-0.14063 v -0.57812 h 3.54687 v 0.57812 l -1.29687,0.1875 1.79687,4.6875 1.625,-4.67187 z m 6.56122,-0.0937 q -0.40625,0 -0.82813,0.23438 -0.40625,0.23437 -0.71875,0.75 -0.29687,0.51562 -0.375,1.35937 h 2.65625 q 0.53125,0 0.70313,-0.21875 0.17187,-0.21875 0.17187,-0.53125 0,-0.42187 -0.21875,-0.78125 -0.21875,-0.35937 -0.57812,-0.57812 -0.35938,-0.23438 -0.8125,-0.23438 z m -0.0156,6.67188 q -1.46875,0 -2.375,-0.95313 -0.89062,-0.96875 -0.89062,-2.65625 0,-1.125 0.45312,-1.95312 0.46875,-0.84375 1.23438,-1.3125 0.78125,-0.46875 1.6875,-0.46875 0.76562,0 1.375,0.34375 0.625,0.32812 0.98437,0.95312 0.35938,0.625 0.35938,1.51563 0,0.25 -0.0312,0.46875 -0.0156,0.20312 -0.0625,0.35937 h -4.67188 q 0.0312,1.34375 0.67188,2.04688 0.64062,0.70312 1.70312,0.70312 0.70313,0 1.17188,-0.28125 0.46875,-0.28125 0.85937,-0.73437 l 0.34375,0.26562 q -0.40625,0.78125 -1.10937,1.25 -0.70313,0.45313 -1.70313,0.45313 z m 4.16223,-0.1875 v -0.53125 l 1.0625,-0.1875 q 0.0156,-0.5625 0.0156,-1.20313 0.0156,-0.65625 0.0156,-1.15625 v -0.70312 q 0,-0.59375 -0.0156,-0.98438 0,-0.40625 -0.0312,-0.84375 l -1.15625,-0.14062 v -0.51563 l 2.04687,-0.89062 0.21875,0.15625 0.17188,1.71875 q 0.35937,-0.875 0.9375,-1.375 0.57812,-0.5 1.17187,-0.5 0.32813,0 0.625,0.15625 0.29688,0.14062 0.42188,0.39062 0,1.0625 -0.85938,1.0625 -0.25,0 -0.46875,-0.0937 -0.21875,-0.0937 -0.42187,-0.26562 l -0.1875,-0.15625 q -0.4375,0.3125 -0.73438,0.78125 -0.28125,0.46875 -0.46875,1.10937 v 1.09375 q 0,0.48438 0,1.14063 0,0.64062 0.0156,1.1875 l 1.20312,0.21875 v 0.53125 z"
       id="path311"
       inkscape:connector-curvature="0"
       style="fill:#000000;fill-rule:nonzero" />
    <path
       d="M 130.21391,185.40721 H 328.73358 V 199.9584 H 130.21391 Z"
       id="path313"
       inkscape:connector-curvature="0"
       style="fill:#000000;fill-opacity:0;fill-rule:evenodd" />
    <path
       d="m 152.25522,196.92722 v -0.4375 l 0.875,-0.15625 q 0,-0.45313 0,-0.98438 0.0156,-0.53125 0.0156,-0.9375 v -0.57812 q 0,-0.5 -0.0156,-0.8125 0,-0.32813 -0.0156,-0.6875 l -0.95312,-0.10938 v -0.42187 l 1.6875,-0.73438 0.17187,0.125 0.14063,1.42188 q 0.29687,-0.73438 0.76562,-1.14063 0.46875,-0.40625 0.95313,-0.40625 0.28125,0 0.51562,0.125 0.25,0.125 0.34375,0.32813 0,0.875 -0.70312,0.875 -0.20313,0 -0.39063,-0.0781 -0.17187,-0.0781 -0.34375,-0.23437 l -0.14062,-0.125 q -0.35938,0.26562 -0.60938,0.65625 -0.23437,0.375 -0.39062,0.89062 v 0.90625 q 0,0.39063 0,0.92188 0.0156,0.53125 0.0312,0.98437 l 0.98437,0.17188 v 0.4375 z m 7.69041,-5.29688 q -0.34375,0 -0.6875,0.1875 -0.34375,0.1875 -0.59375,0.60938 -0.23437,0.42187 -0.3125,1.10937 h 2.1875 q 0.4375,0 0.5625,-0.17187 0.14063,-0.1875 0.14063,-0.45313 0,-0.34375 -0.17188,-0.625 -0.17187,-0.29687 -0.46875,-0.46875 -0.29687,-0.1875 -0.65625,-0.1875 z m -0.0156,5.45313 q -1.21875,0 -1.95313,-0.78125 -0.71875,-0.79688 -0.71875,-2.17188 0,-0.92187 0.375,-1.60937 0.375,-0.6875 1,-1.0625 0.64063,-0.39063 1.375,-0.39063 0.625,0 1.125,0.28125 0.51563,0.28125 0.8125,0.79688 0.29688,0.5 0.29688,1.23437 0,0.20313 -0.0312,0.375 -0.0156,0.17188 -0.0469,0.29688 h -3.82812 q 0.0156,1.09375 0.54687,1.67187 0.53125,0.57813 1.39063,0.57813 0.57812,0 0.95312,-0.23438 0.39063,-0.23437 0.71875,-0.60937 l 0.28125,0.23437 q -0.32812,0.64063 -0.90625,1.01563 -0.57812,0.375 -1.39062,0.375 z m 7.76567,-0.0312 q -0.42187,0 -0.71875,-0.25 -0.28125,-0.26563 -0.35937,-0.67188 -0.48438,0.46875 -0.85938,0.71875 -0.375,0.23438 -0.90625,0.23438 -0.65625,0 -1.125,-0.375 -0.46875,-0.375 -0.46875,-1.125 0,-0.34375 0.15625,-0.64063 0.15625,-0.3125 0.59375,-0.59375 0.4375,-0.29687 1.23438,-0.57812 0.28125,-0.0937 0.64062,-0.20313 0.35938,-0.10937 0.71875,-0.1875 v -0.3125 q 0,-0.875 -0.26562,-1.15625 -0.26563,-0.28125 -0.85938,-0.28125 -0.14062,0 -0.3125,0.0156 -0.15625,0 -0.34375,0.0469 l -0.21875,0.78125 q -0.17187,0.57813 -0.625,0.57813 -0.51562,0 -0.5625,-0.5 0.15625,-0.67188 0.78125,-1.07813 0.64063,-0.40625 1.54688,-0.40625 0.95312,0 1.40625,0.48438 0.45312,0.46875 0.45312,1.60937 v 2.54688 q 0,0.39062 0.125,0.5625 0.125,0.15625 0.3125,0.15625 0.15625,0 0.26563,-0.0625 0.10937,-0.0781 0.20312,-0.20313 l 0.23438,0.26563 q -0.21875,0.34375 -0.48438,0.48437 -0.25,0.14063 -0.5625,0.14063 z m -3.375,-1.65625 q 0,0.48437 0.26563,0.6875 0.28125,0.20312 0.6875,0.20312 0.1875,0 0.34375,-0.0469 0.17187,-0.0469 0.39062,-0.1875 0.23438,-0.14063 0.59375,-0.39063 v -1.84375 q -0.3125,0.0781 -0.625,0.1875 -0.29687,0.10938 -0.48437,0.17188 -0.51563,0.20312 -0.76563,0.42187 -0.25,0.21875 -0.32812,0.42188 -0.0781,0.20312 -0.0781,0.375 z m 6.12367,-1.28125 q 0,1.17187 0.46875,1.73437 0.46875,0.54688 1.1875,0.54688 0.40625,0 0.70313,-0.15625 0.3125,-0.17188 0.64062,-0.53125 v -3.32813 q -0.40625,-0.35937 -0.73437,-0.48437 -0.3125,-0.14063 -0.60938,-0.14063 -0.45312,0 -0.82812,0.25 -0.375,0.23438 -0.60938,0.76563 -0.21875,0.51562 -0.21875,1.34375 z m 3.125,2.9375 -0.0781,-0.82813 q -0.3125,0.40625 -0.71875,0.64063 -0.40625,0.21875 -0.96875,0.21875 -0.73438,0 -1.28125,-0.375 -0.54688,-0.375 -0.85938,-1.03125 -0.29687,-0.67188 -0.29687,-1.54688 0,-0.92187 0.32812,-1.60937 0.34375,-0.6875 0.90625,-1.0625 0.57813,-0.39063 1.3125,-0.39063 0.42188,0 0.8125,0.17188 0.39063,0.17187 0.76563,0.60937 v -2.70312 l -1.03125,-0.125 v -0.42188 l 1.875,-0.54687 0.17187,0.10937 -0.0469,1.70313 v 6.48437 l 0.96875,0.14063 v 0.4375 z m 5.73093,-5.39063 v -0.4375 h 2.34375 v 0.4375 l -0.64063,0.125 -1.9375,5.10938 q -0.59375,1.59375 -1.15625,2.29687 -0.5625,0.71875 -1.29687,0.71875 -0.45313,0 -0.78125,-0.21875 -0.32813,-0.21875 -0.32813,-0.5625 0.0625,-0.26562 0.29688,-0.40625 0.23437,-0.125 0.5,-0.125 0.25,0 0.45312,0.0937 0.20313,0.10938 0.4375,0.35938 l 0.0625,0.0625 q 0.39063,-0.32813 0.64063,-0.79688 0.26562,-0.45312 0.4375,-0.9375 l 0.0469,-0.14062 -2.17187,-5.48438 -0.65625,-0.0937 v -0.4375 h 2.875 v 0.45313 l -1.04688,0.10937 1.5,4.09375 1.46875,-4.07812 z m 4.26904,1.92188 q 0,0.96875 0.15625,1.8125 0.17188,0.82812 0.57813,1.6875 0.40625,0.85937 1.10937,1.875 l -0.3125,0.26562 q -1.26562,-1.1875 -1.89062,-2.57812 -0.60938,-1.40625 -0.60938,-3.0625 0,-1.64063 0.60938,-3.03125 0.625,-1.40625 1.89062,-2.59375 l 0.3125,0.26562 q -0.70312,1.01563 -1.10937,1.875 -0.40625,0.85938 -0.57813,1.70313 -0.15625,0.82812 -0.15625,1.78125 z m 2.56803,6.21875 v -0.42188 l 0.95312,-0.17187 q 0.0156,-0.5 0.0156,-0.98438 0.0156,-0.48437 0.0156,-0.95312 v -3.4375 q 0,-0.5 -0.0156,-0.8125 0,-0.32813 -0.0156,-0.6875 l -0.95312,-0.10938 v -0.42187 l 1.67187,-0.73438 0.1875,0.125 0.0781,0.78125 q 0.84375,-0.90625 1.79687,-0.90625 0.65625,0 1.17188,0.35938 0.51562,0.35937 0.8125,1.03125 0.3125,0.67187 0.3125,1.59375 0,0.9375 -0.32813,1.60937 -0.3125,0.67188 -0.875,1.04688 -0.5625,0.375 -1.26562,0.375 -0.40625,0 -0.8125,-0.17188 -0.40625,-0.17187 -0.78125,-0.60937 v 0.95312 q 0,0.46875 0,0.95313 0.0156,0.5 0.0156,0.98437 l 1.09375,0.1875 v 0.42188 z m 3.45312,-8.04688 q -0.28125,0 -0.64062,0.14063 -0.35938,0.14062 -0.8125,0.51562 v 3.375 q 0.34375,0.32813 0.65625,0.46875 0.32812,0.14063 0.67187,0.14063 0.67188,0 1.14063,-0.53125 0.48437,-0.54688 0.48437,-1.70313 0,-1.15625 -0.42187,-1.78125 -0.42188,-0.625 -1.07813,-0.625 z m 4.91792,0.96875 q -0.35937,0 -0.60937,-0.25 -0.23438,-0.25 -0.23438,-0.60937 0,-0.35938 0.23438,-0.60938 0.25,-0.25 0.60937,-0.25 0.35938,0 0.60938,0.25 0.25,0.25 0.25,0.60938 0,0.35937 -0.25,0.60937 -0.25,0.25 -0.60938,0.25 z m 0,4.35938 q -0.35937,0 -0.60937,-0.25 -0.23438,-0.25 -0.23438,-0.60938 0,-0.35937 0.23438,-0.60937 0.25,-0.25 0.60937,-0.25 0.35938,0 0.60938,0.25 0.25,0.25 0.25,0.60937 0,0.35938 -0.25,0.60938 -0.25,0.25 -0.60938,0.25 z m 10.14605,-7.6875 v -0.5 h 3.375 v 0.5 l -1.09375,0.125 q -0.0156,0.76562 -0.0312,1.54687 0,0.76563 0,1.54688 v 0.59375 q 0,0.76562 0,1.54687 0.0156,0.76563 0.0312,1.54688 l 1.09375,0.14062 v 0.48438 h -3.375 v -0.48438 l 1.09375,-0.14062 q 0.0312,-0.76563 0.0312,-1.5625 0,-0.79688 0,-1.64063 h -3.875 q 0,0.90625 0,1.6875 0.0156,0.78125 0.0156,1.53125 l 1.09375,0.125 v 0.48438 h -3.375 v -0.48438 l 1.09375,-0.14062 q 0.0312,-0.75 0.0312,-1.53125 0,-0.78125 0,-1.5625 v -0.59375 q 0,-0.78125 0,-1.54688 0,-0.78125 -0.0312,-1.54687 l -1.09375,-0.125 v -0.5 h 3.375 v 0.5 l -1.09375,0.10937 q 0,0.78125 -0.0156,1.54688 0,0.76562 0,1.48437 h 3.875 q 0,-0.79687 0,-1.53125 0,-0.75 -0.0312,-1.48437 z m 5.71806,3.32812 q -0.35938,0 -0.60938,-0.25 -0.23437,-0.25 -0.23437,-0.60937 0,-0.35938 0.23437,-0.60938 0.25,-0.25 0.60938,-0.25 0.35937,0 0.60937,0.25 0.25,0.25 0.25,0.60938 0,0.35937 -0.25,0.60937 -0.25,0.25 -0.60937,0.25 z m 0,4.35938 q -0.35938,0 -0.60938,-0.25 -0.23437,-0.25 -0.23437,-0.60938 0,-0.35937 0.23437,-0.60937 0.25,-0.25 0.60938,-0.25 0.35937,0 0.60937,0.25 0.25,0.25 0.25,0.60937 0,0.35938 -0.25,0.60938 -0.25,0.25 -0.60937,0.25 z m 3.60002,-4.35938 q -0.35937,0 -0.60937,-0.25 -0.23438,-0.25 -0.23438,-0.60937 0,-0.35938 0.23438,-0.60938 0.25,-0.25 0.60937,-0.25 0.35938,0 0.60938,0.25 0.25,0.25 0.25,0.60938 0,0.35937 -0.25,0.60937 -0.25,0.25 -0.60938,0.25 z m 0,4.35938 q -0.35937,0 -0.60937,-0.25 -0.23438,-0.25 -0.23438,-0.60938 0,-0.35937 0.23438,-0.60937 0.25,-0.25 0.60937,-0.25 0.35938,0 0.60938,0.25 0.25,0.25 0.25,0.60937 0,0.35938 -0.25,0.60938 -0.25,0.25 -0.60938,0.25 z m 5.35002,-7.625 h -0.73437 q 0,0.76562 -0.0156,1.5625 0,0.79687 0,1.59375 v 0.57812 h 0.79688 q 1.09375,0 1.54687,-0.53125 0.46875,-0.53125 0.46875,-1.375 0,-0.875 -0.5,-1.34375 -0.48437,-0.48437 -1.5625,-0.48437 z m -3.01562,-0.0625 v -0.5 h 3.21875 q 1.53125,0 2.28125,0.67187 0.76562,0.65625 0.76562,1.71875 0,0.67188 -0.34375,1.23438 -0.32812,0.5625 -1.0625,0.90625 -0.73437,0.32812 -1.96875,0.32812 h -0.625 q 0,0.65625 0,1.28125 0.0156,0.625 0.0156,1.26563 l 1.125,0.14062 v 0.48438 h -3.40625 v -0.48438 l 1.09375,-0.14062 q 0.0312,-0.75 0.0312,-1.53125 0,-0.78125 0,-1.5625 v -0.59375 q 0,-0.78125 0,-1.54688 0,-0.78125 -0.0312,-1.54687 z m 7.8873,7.1875 q 0,0.71875 -0.34375,1.32812 -0.34375,0.60938 -0.875,1.04688 -0.53125,0.4375 -1.10938,0.65625 l -0.15625,-0.40625 q 0.60938,-0.3125 1.07813,-0.76563 0.46875,-0.4375 0.6875,-1.10937 l -0.45313,-0.34375 q -0.23437,-0.1875 -0.34375,-0.40625 -0.10937,-0.23438 -0.10937,-0.45313 0,-0.3125 0.1875,-0.53125 0.1875,-0.23437 0.5625,-0.23437 0.15625,0 0.32812,0.0781 0.1875,0.0625 0.40625,0.26563 0.0781,0.23437 0.10938,0.45312 0.0312,0.20313 0.0312,0.42188 z m 4.33354,0.34375 v -0.4375 l 0.875,-0.15625 q 0,-0.45313 0,-0.98438 0.0156,-0.53125 0.0156,-0.9375 v -0.57812 q 0,-0.5 -0.0156,-0.8125 0,-0.32813 -0.0156,-0.6875 l -0.95312,-0.10938 v -0.42187 l 1.6875,-0.73438 0.17187,0.125 0.14063,1.42188 q 0.29687,-0.73438 0.76562,-1.14063 0.46875,-0.40625 0.95313,-0.40625 0.28125,0 0.51562,0.125 0.25,0.125 0.34375,0.32813 0,0.875 -0.70312,0.875 -0.20313,0 -0.39063,-0.0781 -0.17187,-0.0781 -0.34375,-0.23437 l -0.14062,-0.125 q -0.35938,0.26562 -0.60938,0.65625 -0.23437,0.375 -0.39062,0.89062 v 0.90625 q 0,0.39063 0,0.92188 0.0156,0.53125 0.0312,0.98437 l 0.98437,0.17188 v 0.4375 z m 6.25291,-4.20313 q -0.35937,0 -0.60937,-0.25 -0.23438,-0.25 -0.23438,-0.60937 0,-0.35938 0.23438,-0.60938 0.25,-0.25 0.60937,-0.25 0.35938,0 0.60938,0.25 0.25,0.25 0.25,0.60938 0,0.35937 -0.25,0.60937 -0.25,0.25 -0.60938,0.25 z m 0,4.35938 q -0.35937,0 -0.60937,-0.25 -0.23438,-0.25 -0.23438,-0.60938 0,-0.35937 0.23438,-0.60937 0.25,-0.25 0.60937,-0.25 0.35938,0 0.60938,0.25 0.25,0.25 0.25,0.60937 0,0.35938 -0.25,0.60938 -0.25,0.25 -0.60938,0.25 z m 10.14604,-7.6875 v -0.5 h 3.375 v 0.5 l -1.09375,0.125 q -0.0156,0.76562 -0.0312,1.54687 0,0.76563 0,1.54688 v 0.59375 q 0,0.76562 0,1.54687 0.0156,0.76563 0.0312,1.54688 l 1.09375,0.14062 v 0.48438 h -3.375 v -0.48438 l 1.09375,-0.14062 q 0.0312,-0.76563 0.0312,-1.5625 0,-0.79688 0,-1.64063 h -3.875 q 0,0.90625 0,1.6875 0.0156,0.78125 0.0156,1.53125 l 1.09375,0.125 v 0.48438 h -3.375 v -0.48438 l 1.09375,-0.14062 q 0.0312,-0.75 0.0312,-1.53125 0,-0.78125 0,-1.5625 v -0.59375 q 0,-0.78125 0,-1.54688 0,-0.78125 -0.0312,-1.54687 l -1.09375,-0.125 v -0.5 h 3.375 v 0.5 l -1.09375,0.10937 q 0,0.78125 -0.0156,1.54688 0,0.76562 0,1.48437 h 3.875 q 0,-0.79687 0,-1.53125 0,-0.75 -0.0312,-1.48437 z m 5.71807,3.32812 q -0.35938,0 -0.60938,-0.25 -0.23437,-0.25 -0.23437,-0.60937 0,-0.35938 0.23437,-0.60938 0.25,-0.25 0.60938,-0.25 0.35937,0 0.60937,0.25 0.25,0.25 0.25,0.60938 0,0.35937 -0.25,0.60937 -0.25,0.25 -0.60937,0.25 z m 0,4.35938 q -0.35938,0 -0.60938,-0.25 -0.23437,-0.25 -0.23437,-0.60938 0,-0.35937 0.23437,-0.60937 0.25,-0.25 0.60938,-0.25 0.35937,0 0.60937,0.25 0.25,0.25 0.25,0.60937 0,0.35938 -0.25,0.60938 -0.25,0.25 -0.60937,0.25 z m 3.60002,-4.35938 q -0.35938,0 -0.60938,-0.25 -0.23437,-0.25 -0.23437,-0.60937 0,-0.35938 0.23437,-0.60938 0.25,-0.25 0.60938,-0.25 0.35937,0 0.60937,0.25 0.25,0.25 0.25,0.60938 0,0.35937 -0.25,0.60937 -0.25,0.25 -0.60937,0.25 z m 0,4.35938 q -0.35938,0 -0.60938,-0.25 -0.23437,-0.25 -0.23437,-0.60938 0,-0.35937 0.23437,-0.60937 0.25,-0.25 0.60938,-0.25 0.35937,0 0.60937,0.25 0.25,0.25 0.25,0.60937 0,0.35938 -0.25,0.60938 -0.25,0.25 -0.60937,0.25 z m 5.66252,-7.625 h -1.04687 q 0,0.78125 -0.0156,1.57812 0,0.78125 0,1.625 h 0.92188 q 0.96875,0 1.42187,-0.46875 0.46875,-0.46875 0.46875,-1.1875 0,-0.75 -0.42187,-1.14062 -0.40625,-0.40625 -1.32813,-0.40625 z m -3.32812,-0.0625 v -0.5 h 3.35937 q 1.375,0 2.14063,0.5625 0.76562,0.54687 0.76562,1.54687 0,0.6875 -0.5,1.26563 -0.5,0.57812 -1.51562,0.75 0.53125,0.10937 0.875,0.46875 0.34375,0.35937 0.54687,1.0625 l 0.51563,1.78125 0.92187,0.10937 v 0.48438 q -0.17187,0.0469 -0.40625,0.0781 -0.21875,0.0469 -0.48437,0.0469 -0.5625,0 -0.85938,-0.17188 -0.28125,-0.17187 -0.375,-0.59375 l -0.48437,-1.92187 q -0.10938,-0.5 -0.3125,-0.73438 -0.20313,-0.25 -0.53125,-0.32812 -0.3125,-0.0937 -0.79688,-0.0937 h -0.59375 q 0,0.85937 0,1.625 0.0156,0.75 0.0156,1.46875 l 1.10937,0.14062 v 0.48438 h -3.39062 v -0.48438 l 1.09375,-0.14062 q 0.0312,-0.75 0.0312,-1.53125 0,-0.78125 0,-1.5625 v -0.59375 q 0,-0.78125 0,-1.54688 0,-0.78125 -0.0312,-1.54687 z m 9.42141,4.1875 q 0,-0.95313 -0.17187,-1.78125 -0.15625,-0.84375 -0.5625,-1.70313 -0.39063,-0.85937 -1.10938,-1.875 l 0.3125,-0.26562 q 1.28125,1.1875 1.89063,2.59375 0.60937,1.39062 0.60937,3.03125 0,1.65625 -0.60937,3.0625 -0.60938,1.39062 -1.89063,2.57812 l -0.3125,-0.26562 q 0.71875,-1.01563 1.10938,-1.875 0.40625,-0.85938 0.5625,-1.6875 0.17187,-0.84375 0.17187,-1.8125 z m 5.2078,0.73437 v -0.79687 h 2.78125 v 0.79687 z m 8.94717,-1.625 v 0.5625 l -4.64062,2.70313 -0.35938,-0.65625 4.15625,-2.32813 -4.15625,-2.32812 0.35938,-0.65625 z m 3.83994,4.23438 v -0.4375 l 0.90625,-0.15625 q 0,-0.45313 0,-0.98438 0.0156,-0.53125 0.0156,-0.9375 v -5.26562 l -0.98437,-0.125 v -0.42188 l 1.84375,-0.54687 0.15625,0.10937 -0.0469,1.70313 v 2.125 q 0.4375,-0.46875 0.89063,-0.6875 0.46875,-0.23438 0.96875,-0.23438 0.625,0 1.14062,0.35938 0.51563,0.34375 0.82813,1 0.3125,0.65625 0.3125,1.59375 0,0.92187 -0.32813,1.625 -0.32812,0.6875 -0.89062,1.0625 -0.54688,0.375 -1.26563,0.375 -0.42187,0 -0.84375,-0.17188 -0.40625,-0.1875 -0.8125,-0.6875 l -0.0937,0.82813 z m 3.42187,-5.17188 q -0.28125,0 -0.64062,0.14063 -0.35938,0.14062 -0.84375,0.5625 v 3.28125 q 0.35937,0.34375 0.71875,0.5 0.375,0.15625 0.70312,0.15625 0.64063,0 1.10938,-0.54688 0.46875,-0.5625 0.46875,-1.73437 0,-1.14063 -0.42188,-1.75 -0.42187,-0.60938 -1.09375,-0.60938 z m 6.42404,5.32813 q -0.6875,0 -1.32812,-0.32813 -0.625,-0.32812 -1.01563,-1 -0.39062,-0.67187 -0.39062,-1.64062 0,-1 0.39062,-1.67188 0.39063,-0.6875 1.01563,-1.03125 0.64062,-0.34375 1.32812,-0.34375 0.70313,0 1.32813,0.34375 0.64062,0.34375 1.03125,1.03125 0.40625,0.67188 0.40625,1.67188 0,0.96875 -0.40625,1.64062 -0.39063,0.67188 -1.03125,1 -0.625,0.32813 -1.32813,0.32813 z m 0,-0.54688 q 0.78125,0 1.20313,-0.60937 0.42187,-0.625 0.42187,-1.8125 0,-1.21875 -0.42187,-1.84375 -0.42188,-0.64063 -1.20313,-0.64063 -0.76562,0 -1.1875,0.64063 -0.40625,0.625 -0.40625,1.84375 0,1.1875 0.40625,1.8125 0.42188,0.60937 1.1875,0.60937 z m 6.58805,0.54688 q -0.6875,0 -1.32813,-0.32813 -0.625,-0.32812 -1.01562,-1 -0.39063,-0.67187 -0.39063,-1.64062 0,-1 0.39063,-1.67188 0.39062,-0.6875 1.01562,-1.03125 0.64063,-0.34375 1.32813,-0.34375 0.70312,0 1.32812,0.34375 0.64063,0.34375 1.03125,1.03125 0.40625,0.67188 0.40625,1.67188 0,0.96875 -0.40625,1.64062 -0.39062,0.67188 -1.03125,1 -0.625,0.32813 -1.32812,0.32813 z m 0,-0.54688 q 0.78125,0 1.20312,-0.60937 0.42188,-0.625 0.42188,-1.8125 0,-1.21875 -0.42188,-1.84375 -0.42187,-0.64063 -1.20312,-0.64063 -0.76563,0 -1.1875,0.64063 -0.40625,0.625 -0.40625,1.84375 0,1.1875 0.40625,1.8125 0.42187,0.60937 1.1875,0.60937 z m 3.48367,0.39063 v -0.4375 l 0.96875,-0.15625 q 0,-0.5 0,-0.96875 0.0156,-0.48438 0.0156,-0.95313 v -5.26562 l -0.98437,-0.125 v -0.42188 l 1.875,-0.54687 0.17187,0.10937 -0.0469,1.70313 v 4.54687 q 0,0.46875 0,0.95313 0,0.48437 0.0156,0.96875 l 0.96875,0.15625 v 0.4375 z"
       id="path315"
       inkscape:connector-curvature="0"
       style="fill:#000000;fill-rule:nonzero" />
  </g>
</svg>
