<?xml version="1.0" encoding="UTF-8" standalone="no"?>
<svg
   version="1.1"
   viewBox="0 0 264.77951 91.582672"
   fill="none"
   stroke="none"
   stroke-linecap="square"
   stroke-miterlimit="10"
   id="svg533"
   sodipodi:docname="tutorial-example-vrh.svg"
   width="264.77951"
   height="91.582672"
   inkscape:version="1.1.2 (b8e25be8, 2022-02-05)"
   xmlns:inkscape="http://www.inkscape.org/namespaces/inkscape"
   xmlns:sodipodi="http://sodipodi.sourceforge.net/DTD/sodipodi-0.dtd"
   xmlns="http://www.w3.org/2000/svg"
   xmlns:svg="http://www.w3.org/2000/svg">
  <defs
     id="defs537" />
  <sodipodi:namedview
     id="namedview535"
     pagecolor="#ffffff"
     bordercolor="#666666"
     borderopacity="1.0"
     inkscape:pageshadow="2"
     inkscape:pageopacity="0.0"
     inkscape:pagecheckerboard="0"
     showgrid="false"
     inkscape:zoom="1.05"
     inkscape:cx="382.38095"
     inkscape:cy="46.190476"
     inkscape:window-width="1296"
     inkscape:window-height="969"
     inkscape:window-x="0"
     inkscape:window-y="25"
     inkscape:window-maximized="0"
     inkscape:current-layer="g531" />
  <clipPath
     id="g305443f3828_0_6.0">
    <path
       d="M 0,0 H 960 V 540 H 0 Z"
       clip-rule="nonzero"
       id="path2" />
  </clipPath>
  <g
     clip-path="url(#g305443f3828_0_6.0)"
     id="g531"
     transform="translate(-97.355644,-224.25089)">
    <path
       fill="#000000"
       fill-opacity="0"
       d="M 0,0 H 504 V 72.97638 H 0 Z"
       fill-rule="evenodd"
       id="path15" />
    <path
       fill="#000000"
       fill-opacity="0"
       d="M 97.855644,224.75089 H 361.63514 v 90.58267 H 97.855644 Z"
       fill-rule="evenodd"
       id="path441" />
    <path
       fill="#000000"
       fill-opacity="0"
       d="M 282.98914,281.35303 H 176.50097"
       fill-rule="evenodd"
       id="path445" />
    <path
       stroke="#1c4587"
       stroke-width="2"
       stroke-linejoin="round"
       stroke-linecap="butt"
       d="M 282.98917,281.35303 H 188.50096"
       fill-rule="evenodd"
       id="path447" />
    <path
       fill="#1c4587"
       stroke="#1c4587"
       stroke-width="2"
       stroke-linecap="butt"
       d="m 188.50096,278.04956 -9.07619,3.30347 9.07619,3.30346 z"
       fill-rule="evenodd"
       id="path449" />
    <path
       fill="#000000"
       fill-opacity="0"
       d="m 170.34251,263.64966 h 118.86613 v 14.55118 H 170.34251 Z"
       fill-rule="evenodd"
       id="path451" />
    <path
       fill="#000000"
       d="m 193.74734,275.16965 v -0.4375 l 0.875,-0.15625 q 0,-0.45313 0,-0.98438 0.0156,-0.53125 0.0156,-0.9375 v -0.57812 q 0,-0.5 -0.0156,-0.8125 0,-0.32813 -0.0156,-0.6875 l -0.95312,-0.10938 v -0.42187 l 1.6875,-0.73438 0.17187,0.125 0.14063,1.42188 q 0.29687,-0.73438 0.76562,-1.14063 0.46875,-0.40625 0.95313,-0.40625 0.28125,0 0.51562,0.125 0.25,0.125 0.34375,0.32813 0,0.875 -0.70312,0.875 -0.20313,0 -0.39063,-0.0781 -0.17187,-0.0781 -0.34375,-0.23437 l -0.14062,-0.125 q -0.35938,0.26562 -0.60938,0.65625 -0.23437,0.375 -0.39062,0.89062 v 0.90625 q 0,0.39063 0,0.92188 0.0156,0.53125 0.0312,0.98437 l 0.98437,0.17188 v 0.4375 z m 7.69041,-5.29688 q -0.34375,0 -0.6875,0.1875 -0.34375,0.1875 -0.59375,0.60938 -0.23437,0.42187 -0.3125,1.10937 h 2.1875 q 0.4375,0 0.5625,-0.17187 0.14063,-0.1875 0.14063,-0.45313 0,-0.34375 -0.17188,-0.625 -0.17187,-0.29687 -0.46875,-0.46875 -0.29687,-0.1875 -0.65625,-0.1875 z m -0.0156,5.45313 q -1.21875,0 -1.95313,-0.78125 -0.71875,-0.79688 -0.71875,-2.17188 0,-0.92187 0.375,-1.60937 0.375,-0.6875 1,-1.0625 0.64063,-0.39063 1.375,-0.39063 0.625,0 1.125,0.28125 0.51563,0.28125 0.8125,0.79688 0.29688,0.5 0.29688,1.23437 0,0.20313 -0.0312,0.375 -0.0156,0.17188 -0.0469,0.29688 h -3.82812 q 0.0156,1.09375 0.54687,1.67187 0.53125,0.57813 1.39063,0.57813 0.57812,0 0.95312,-0.23438 0.39063,-0.23437 0.71875,-0.60937 l 0.28125,0.23437 q -0.32812,0.64063 -0.90625,1.01563 -0.57812,0.375 -1.39062,0.375 z m 5.30754,0 q -0.51562,0 -0.9375,-0.125 -0.40625,-0.10938 -0.85937,-0.32813 l -0.0469,-1.32812 h 0.65625 l 0.23438,1.04687 q 0.42187,0.1875 0.96875,0.1875 0.6875,0 1.01562,-0.25 0.32813,-0.25 0.32813,-0.65625 0,-0.39062 -0.28125,-0.60937 -0.26563,-0.23438 -0.82813,-0.4375 l -0.5625,-0.20313 q -0.65625,-0.23437 -1.0625,-0.60937 -0.39062,-0.39063 -0.39062,-1 0,-0.45313 0.23437,-0.82813 0.25,-0.39062 0.71875,-0.625 0.46875,-0.25 1.14063,-0.25 0.5,0 0.89062,0.125 0.40625,0.125 0.79688,0.375 l -0.0469,1.21875 h -0.625 l -0.20312,-0.95312 q -0.40625,-0.20313 -0.82813,-0.20313 -0.54687,0 -0.82812,0.21875 -0.28125,0.21875 -0.28125,0.59375 0,0.39063 0.23437,0.59375 0.25,0.20313 0.875,0.4375 l 0.35938,0.125 q 0.90625,0.34375 1.28125,0.78125 0.375,0.42188 0.375,0.98438 0,0.45312 -0.26563,0.84375 -0.25,0.39062 -0.76562,0.64062 -0.51563,0.23438 -1.29688,0.23438 z m 6.08304,0 q -0.6875,0 -1.32813,-0.32813 -0.625,-0.32812 -1.01562,-1 -0.39063,-0.67187 -0.39063,-1.64062 0,-1 0.39063,-1.67188 0.39062,-0.6875 1.01562,-1.03125 0.64063,-0.34375 1.32813,-0.34375 0.70312,0 1.32812,0.34375 0.64063,0.34375 1.03125,1.03125 0.40625,0.67188 0.40625,1.67188 0,0.96875 -0.40625,1.64062 -0.39062,0.67188 -1.03125,1 -0.625,0.32813 -1.32812,0.32813 z m 0,-0.54688 q 0.78125,0 1.20312,-0.60937 0.42188,-0.625 0.42188,-1.8125 0,-1.21875 -0.42188,-1.84375 -0.42187,-0.64063 -1.20312,-0.64063 -0.76563,0 -1.1875,0.64063 -0.40625,0.625 -0.40625,1.84375 0,1.1875 0.40625,1.8125 0.42187,0.60937 1.1875,0.60937 z m 3.48367,0.39063 v -0.4375 l 0.96875,-0.15625 q 0,-0.5 0,-0.96875 0.0156,-0.48438 0.0156,-0.95313 v -5.26562 l -0.98438,-0.125 v -0.42188 l 1.875,-0.54687 0.17188,0.10937 -0.0469,1.70313 v 4.54687 q 0,0.46875 0,0.95313 0,0.48437 0.0156,0.96875 l 0.96875,0.15625 v 0.4375 z m 6.83103,-5.23438 v -0.46875 h 2.28125 v 0.46875 l -0.65625,0.15625 -1.95313,5.15625 h -0.51562 l -2.1875,-5.1875 -0.64063,-0.125 v -0.46875 h 2.90625 v 0.46875 l -1.0625,0.15625 1.46875,3.84375 1.32813,-3.82812 z m 5.38253,-0.0625 q -0.34375,0 -0.6875,0.1875 -0.34375,0.1875 -0.59375,0.60938 -0.23437,0.42187 -0.3125,1.10937 h 2.1875 q 0.4375,0 0.5625,-0.17187 0.14063,-0.1875 0.14063,-0.45313 0,-0.34375 -0.17188,-0.625 -0.17187,-0.29687 -0.46875,-0.46875 -0.29687,-0.1875 -0.65625,-0.1875 z m -0.0156,5.45313 q -1.21875,0 -1.95313,-0.78125 -0.71875,-0.79688 -0.71875,-2.17188 0,-0.92187 0.375,-1.60937 0.375,-0.6875 1,-1.0625 0.64063,-0.39063 1.375,-0.39063 0.625,0 1.125,0.28125 0.51563,0.28125 0.8125,0.79688 0.29688,0.5 0.29688,1.23437 0,0.20313 -0.0312,0.375 -0.0156,0.17188 -0.0469,0.29688 h -3.82812 q 0.0156,1.09375 0.54687,1.67187 0.53125,0.57813 1.39063,0.57813 0.57812,0 0.95312,-0.23438 0.39063,-0.23437 0.71875,-0.60937 l 0.28125,0.23437 q -0.32812,0.64063 -0.90625,1.01563 -0.57812,0.375 -1.39062,0.375 z m 3.40129,-0.15625 v -0.4375 l 0.875,-0.15625 q 0,-0.45313 0,-0.98438 0.0156,-0.53125 0.0156,-0.9375 v -0.57812 q 0,-0.5 -0.0156,-0.8125 0,-0.32813 -0.0156,-0.6875 l -0.95312,-0.10938 v -0.42187 l 1.6875,-0.73438 0.17187,0.125 0.14063,1.42188 q 0.29687,-0.73438 0.76561,-1.14063 0.46875,-0.40625 0.95312,-0.40625 0.28125,0 0.51563,0.125 0.25,0.125 0.34375,0.32813 0,0.875 -0.70313,0.875 -0.20312,0 -0.39062,-0.0781 -0.17188,-0.0781 -0.34375,-0.23437 l -0.14063,-0.125 q -0.35937,0.26562 -0.60936,0.65625 -0.23437,0.375 -0.39062,0.89062 v 0.90625 q 0,0.39063 0,0.92188 0.0156,0.53125 0.0312,0.98437 l 0.98436,0.17188 v 0.4375 z m 6.2529,-4.20313 q -0.35938,0 -0.60938,-0.25 -0.23437,-0.25 -0.23437,-0.60937 0,-0.35938 0.23437,-0.60938 0.25,-0.25 0.60938,-0.25 0.35937,0 0.60937,0.25 0.25,0.25 0.25,0.60938 0,0.35937 -0.25,0.60937 -0.25,0.25 -0.60937,0.25 z m 0,4.35938 q -0.35938,0 -0.60938,-0.25 -0.23437,-0.25 -0.23437,-0.60938 0,-0.35937 0.23437,-0.60937 0.25,-0.25 0.60938,-0.25 0.35937,0 0.60937,0.25 0.25,0.25 0.25,0.60937 0,0.35938 -0.25,0.60938 -0.25,0.25 -0.60937,0.25 z m 4.95854,-0.15625 v -0.4375 l 0.90625,-0.15625 q 0,-0.45313 0,-0.98438 0.0156,-0.53125 0.0156,-0.9375 v -5.26562 l -0.98438,-0.125 v -0.42188 l 1.84375,-0.54687 0.15625,0.10937 -0.0469,1.70313 v 2.125 q 0.4375,-0.46875 0.89062,-0.6875 0.46875,-0.23438 0.96875,-0.23438 0.625,0 1.14063,0.35938 0.51562,0.34375 0.82812,1 0.3125,0.65625 0.3125,1.59375 0,0.92187 -0.32812,1.625 -0.32813,0.6875 -0.89063,1.0625 -0.54687,0.375 -1.26562,0.375 -0.42188,0 -0.84375,-0.17188 -0.40625,-0.1875 -0.8125,-0.6875 l -0.0937,0.82813 z m 3.42188,-5.17188 q -0.28125,0 -0.64063,0.14063 -0.35937,0.14062 -0.84375,0.5625 v 3.28125 q 0.35938,0.34375 0.71875,0.5 0.375,0.15625 0.70313,0.15625 0.64062,0 1.10937,-0.54688 0.46875,-0.5625 0.46875,-1.73437 0,-1.14063 -0.42187,-1.75 -0.42188,-0.60938 -1.09375,-0.60938 z m 6.42404,5.32813 q -0.6875,0 -1.32813,-0.32813 -0.625,-0.32812 -1.01562,-1 -0.39063,-0.67187 -0.39063,-1.64062 0,-1 0.39063,-1.67188 0.39062,-0.6875 1.01562,-1.03125 0.64063,-0.34375 1.32813,-0.34375 0.70312,0 1.32812,0.34375 0.64063,0.34375 1.03125,1.03125 0.40625,0.67188 0.40625,1.67188 0,0.96875 -0.40625,1.64062 -0.39062,0.67188 -1.03125,1 -0.625,0.32813 -1.32812,0.32813 z m 0,-0.54688 q 0.78125,0 1.20312,-0.60937 0.42188,-0.625 0.42188,-1.8125 0,-1.21875 -0.42188,-1.84375 -0.42187,-0.64063 -1.20312,-0.64063 -0.76563,0 -1.1875,0.64063 -0.40625,0.625 -0.40625,1.84375 0,1.1875 0.40625,1.8125 0.42187,0.60937 1.1875,0.60937 z m 6.58804,0.54688 q -0.6875,0 -1.32812,-0.32813 -0.625,-0.32812 -1.01563,-1 -0.39062,-0.67187 -0.39062,-1.64062 0,-1 0.39062,-1.67188 0.39063,-0.6875 1.01563,-1.03125 0.64062,-0.34375 1.32812,-0.34375 0.70313,0 1.32813,0.34375 0.64062,0.34375 1.03125,1.03125 0.40625,0.67188 0.40625,1.67188 0,0.96875 -0.40625,1.64062 -0.39063,0.67188 -1.03125,1 -0.625,0.32813 -1.32813,0.32813 z m 0,-0.54688 q 0.78125,0 1.20313,-0.60937 0.42187,-0.625 0.42187,-1.8125 0,-1.21875 -0.42187,-1.84375 -0.42188,-0.64063 -1.20313,-0.64063 -0.76562,0 -1.1875,0.64063 -0.40625,0.625 -0.40625,1.84375 0,1.1875 0.40625,1.8125 0.42188,0.60937 1.1875,0.60937 z m 3.48367,0.39063 v -0.4375 l 0.96875,-0.15625 q 0,-0.5 0,-0.96875 0.0156,-0.48438 0.0156,-0.95313 v -5.26562 l -0.98438,-0.125 v -0.42188 l 1.875,-0.54687 0.17188,0.10937 -0.0469,1.70313 v 4.54687 q 0,0.46875 0,0.95313 0,0.48437 0.0156,0.96875 l 0.96875,0.15625 v 0.4375 z"
       fill-rule="nonzero"
       id="path453" />
    <path
       fill="#000000"
       fill-opacity="0"
       d="m 170.34251,224.96176 h 118.86613 v 14.55118 H 170.34251 Z"
       fill-rule="evenodd"
       id="path455" />
    <path
       fill="#000000"
       d="m 205.50528,231.24738 v -0.46875 h 2.28125 v 0.46875 l -0.65625,0.15625 -1.95313,5.15625 h -0.51562 l -2.1875,-5.1875 -0.64063,-0.125 v -0.46875 h 2.90625 v 0.46875 l -1.0625,0.15625 1.46875,3.84375 1.32813,-3.82813 z m 7.18054,5.35937 q -0.42187,0 -0.71875,-0.25 -0.28125,-0.26562 -0.35937,-0.67187 -0.48438,0.46875 -0.85938,0.71875 -0.375,0.23437 -0.90625,0.23437 -0.65625,0 -1.125,-0.375 -0.46875,-0.375 -0.46875,-1.125 0,-0.34375 0.15625,-0.64062 0.15625,-0.3125 0.59375,-0.59375 0.4375,-0.29688 1.23438,-0.57813 0.28125,-0.0937 0.64062,-0.20312 0.35938,-0.10938 0.71875,-0.1875 v -0.3125 q 0,-0.875 -0.26562,-1.15625 -0.26563,-0.28125 -0.85938,-0.28125 -0.14062,0 -0.3125,0.0156 -0.15625,0 -0.34375,0.0469 l -0.21875,0.78125 q -0.17187,0.57812 -0.625,0.57812 -0.51562,0 -0.5625,-0.5 0.15625,-0.67187 0.78125,-1.07812 0.64063,-0.40625 1.54688,-0.40625 0.95312,0 1.40625,0.48437 0.45312,0.46875 0.45312,1.60938 v 2.54687 q 0,0.39063 0.125,0.5625 0.125,0.15625 0.3125,0.15625 0.15625,0 0.26563,-0.0625 0.10937,-0.0781 0.20312,-0.20312 l 0.23438,0.26562 q -0.21875,0.34375 -0.48438,0.48438 -0.25,0.14062 -0.5625,0.14062 z m -3.375,-1.65625 q 0,0.48438 0.26563,0.6875 0.28125,0.20313 0.6875,0.20313 0.1875,0 0.34375,-0.0469 0.17187,-0.0469 0.39062,-0.1875 0.23438,-0.14062 0.59375,-0.39062 v -1.84375 q -0.3125,0.0781 -0.625,0.1875 -0.29687,0.10937 -0.48437,0.17187 -0.51563,0.20313 -0.76563,0.42188 -0.25,0.21875 -0.32812,0.42187 -0.0781,0.20313 -0.0781,0.375 z m 4.79555,1.53125 v -0.4375 l 0.96875,-0.15625 q 0,-0.5 0,-0.96875 0.0156,-0.48437 0.0156,-0.95312 v -5.26563 l -0.98437,-0.125 v -0.42187 l 1.875,-0.54688 0.17187,0.10938 -0.0469,1.70312 v 4.54688 q 0,0.46875 0,0.95312 0,0.48438 0.0156,0.96875 l 0.96875,0.15625 v 0.4375 z m 3.70102,0 v -0.4375 l 0.89062,-0.15625 q 0.0156,-0.46875 0.0156,-1 0.0156,-0.53125 0.0156,-0.92187 v -0.5625 q 0,-0.5 -0.0156,-0.82813 0,-0.32812 -0.0156,-0.6875 l -0.96875,-0.10937 v -0.42188 l 1.85938,-0.73437 0.17187,0.125 -0.0312,1.625 v 1.59375 q 0,0.39062 0,0.92187 0.0156,0.53125 0.0156,1 l 0.84375,0.15625 v 0.4375 z m 1.42187,-7.17187 q -0.34375,0 -0.57812,-0.21875 -0.23438,-0.21875 -0.23438,-0.54688 0,-0.35937 0.23438,-0.5625 0.23437,-0.21875 0.57812,-0.21875 0.32813,0 0.5625,0.21875 0.23438,0.20313 0.23438,0.5625 0,0.32813 -0.23438,0.54688 -0.23437,0.21875 -0.5625,0.21875 z m 3.35727,4.35937 q 0,1.17188 0.46875,1.73438 0.46875,0.54687 1.1875,0.54687 0.40625,0 0.70313,-0.15625 0.3125,-0.17187 0.64062,-0.53125 v -3.32812 q -0.40625,-0.35938 -0.73437,-0.48438 -0.3125,-0.14062 -0.60938,-0.14062 -0.45312,0 -0.82812,0.25 -0.375,0.23437 -0.60938,0.76562 -0.21875,0.51563 -0.21875,1.34375 z m 3.125,2.9375 -0.0781,-0.82812 q -0.3125,0.40625 -0.71875,0.64062 -0.40625,0.21875 -0.96875,0.21875 -0.73438,0 -1.28125,-0.375 -0.54688,-0.375 -0.85938,-1.03125 -0.29687,-0.67187 -0.29687,-1.54687 0,-0.92188 0.32812,-1.60938 0.34375,-0.6875 0.90625,-1.0625 0.57813,-0.39062 1.3125,-0.39062 0.42188,0 0.8125,0.17187 0.39063,0.17188 0.76563,0.60938 v -2.70313 l -1.03125,-0.125 v -0.42187 l 1.875,-0.54688 0.17187,0.10938 -0.0469,1.70312 v 6.48438 l 0.96875,0.14062 v 0.4375 z m 3.85092,-4.32812 q -0.35937,0 -0.60937,-0.25 -0.23438,-0.25 -0.23438,-0.60938 0,-0.35937 0.23438,-0.60937 0.25,-0.25 0.60937,-0.25 0.35938,0 0.60938,0.25 0.25,0.25 0.25,0.60937 0,0.35938 -0.25,0.60938 -0.25,0.25 -0.60938,0.25 z m 0,4.35937 q -0.35937,0 -0.60937,-0.25 -0.23438,-0.25 -0.23438,-0.60937 0,-0.35938 0.23438,-0.60938 0.25,-0.25 0.60937,-0.25 0.35938,0 0.60938,0.25 0.25,0.25 0.25,0.60938 0,0.35937 -0.25,0.60937 -0.25,0.25 -0.60938,0.25 z m 4.95855,-0.15625 v -0.4375 l 0.90625,-0.15625 q 0,-0.45312 0,-0.98437 0.0156,-0.53125 0.0156,-0.9375 v -5.26563 l -0.98437,-0.125 v -0.42187 l 1.84375,-0.54688 0.15625,0.10938 -0.0469,1.70312 v 2.125 q 0.4375,-0.46875 0.89063,-0.6875 0.46875,-0.23437 0.96875,-0.23437 0.625,0 1.14062,0.35937 0.51563,0.34375 0.82813,1 0.3125,0.65625 0.3125,1.59375 0,0.92188 -0.32813,1.625 -0.32812,0.6875 -0.89062,1.0625 -0.54688,0.375 -1.26563,0.375 -0.42187,0 -0.84375,-0.17187 -0.40625,-0.1875 -0.8125,-0.6875 l -0.0937,0.82812 z m 3.42187,-5.17187 q -0.28125,0 -0.64062,0.14062 -0.35938,0.14063 -0.84375,0.5625 v 3.28125 q 0.35937,0.34375 0.71875,0.5 0.375,0.15625 0.70312,0.15625 0.64063,0 1.10938,-0.54687 0.46875,-0.5625 0.46875,-1.73438 0,-1.14062 -0.42188,-1.75 -0.42187,-0.60937 -1.09375,-0.60937 z m 6.42404,5.32812 q -0.6875,0 -1.32812,-0.32812 -0.625,-0.32813 -1.01563,-1 -0.39062,-0.67188 -0.39062,-1.64063 0,-1 0.39062,-1.67187 0.39063,-0.6875 1.01563,-1.03125 0.64062,-0.34375 1.32812,-0.34375 0.70313,0 1.32813,0.34375 0.64062,0.34375 1.03125,1.03125 0.40625,0.67187 0.40625,1.67187 0,0.96875 -0.40625,1.64063 -0.39063,0.67187 -1.03125,1 -0.625,0.32812 -1.32813,0.32812 z m 0,-0.54687 q 0.78125,0 1.20313,-0.60938 0.42187,-0.625 0.42187,-1.8125 0,-1.21875 -0.42187,-1.84375 -0.42188,-0.64062 -1.20313,-0.64062 -0.76562,0 -1.1875,0.64062 -0.40625,0.625 -0.40625,1.84375 0,1.1875 0.40625,1.8125 0.42188,0.60938 1.1875,0.60938 z m 6.58805,0.54687 q -0.6875,0 -1.32813,-0.32812 -0.625,-0.32813 -1.01562,-1 -0.39063,-0.67188 -0.39063,-1.64063 0,-1 0.39063,-1.67187 0.39062,-0.6875 1.01562,-1.03125 0.64063,-0.34375 1.32813,-0.34375 0.70312,0 1.32812,0.34375 0.64063,0.34375 1.03125,1.03125 0.40625,0.67187 0.40625,1.67187 0,0.96875 -0.40625,1.64063 -0.39062,0.67187 -1.03125,1 -0.625,0.32812 -1.32812,0.32812 z m 0,-0.54687 q 0.78125,0 1.20312,-0.60938 0.42188,-0.625 0.42188,-1.8125 0,-1.21875 -0.42188,-1.84375 -0.42187,-0.64062 -1.20312,-0.64062 -0.76563,0 -1.1875,0.64062 -0.40625,0.625 -0.40625,1.84375 0,1.1875 0.40625,1.8125 0.42187,0.60938 1.1875,0.60938 z m 3.48367,0.39062 v -0.4375 l 0.96875,-0.15625 q 0,-0.5 0,-0.96875 0.0156,-0.48437 0.0156,-0.95312 v -5.26563 l -0.98437,-0.125 v -0.42187 l 1.875,-0.54688 0.17187,0.10938 -0.0469,1.70312 v 4.54688 q 0,0.46875 0,0.95312 0,0.48438 0.0156,0.96875 l 0.96875,0.15625 v 0.4375 z"
       fill-rule="nonzero"
       id="path457" />
    <path
       fill="#000000"
       fill-opacity="0"
       d="M 176.52527,242.66513 H 283.01346"
       fill-rule="evenodd"
       id="path459" />
    <path
       stroke="#595959"
       stroke-width="2"
       stroke-linejoin="round"
       stroke-linecap="butt"
       d="m 176.52527,242.66513 h 94.48819"
       fill-rule="evenodd"
       id="path461" />
    <path
       fill="#595959"
       stroke="#595959"
       stroke-width="2"
       stroke-linecap="butt"
       d="m 271.01346,245.9686 9.0762,-3.30347 -9.0762,-3.30346 z"
       fill-rule="evenodd"
       id="path463" />
    <path
       fill="#000000"
       fill-opacity="0"
       d="M 176.52527,262.00906 H 283.01346"
       fill-rule="evenodd"
       id="path465" />
    <path
       stroke="#595959"
       stroke-width="2"
       stroke-linejoin="round"
       stroke-linecap="butt"
       d="m 176.52527,262.0091 h 94.48819"
       fill-rule="evenodd"
       id="path467" />
    <path
       fill="#595959"
       stroke="#595959"
       stroke-width="2"
       stroke-linecap="butt"
       d="m 271.01346,265.31256 9.0762,-3.30347 -9.0762,-3.30346 z"
       fill-rule="evenodd"
       id="path469" />
    <path
       fill="#000000"
       fill-opacity="0"
       d="m 170.34251,244.30571 h 118.86613 v 14.55116 H 170.34251 Z"
       fill-rule="evenodd"
       id="path471" />
    <path
       fill="#000000"
       d="m 196.51923,258.7007 v -0.42188 l 0.95312,-0.17187 q 0.0156,-0.5 0.0156,-0.98438 0.0156,-0.48437 0.0156,-0.95312 v -3.43752 q 0,-0.5 -0.0156,-0.8125 0,-0.32812 -0.0156,-0.6875 l -0.95312,-0.10937 v -0.42188 l 1.67187,-0.73437 0.1875,0.125 0.0781,0.78125 q 0.84375,-0.90625 1.79687,-0.90625 0.65625,0 1.17188,0.35937 0.51562,0.35938 0.8125,1.03125 0.3125,0.67188 0.3125,1.59375 0,0.9375 -0.32813,1.60938 -0.3125,0.67187 -0.875,1.04687 -0.5625,0.375 -1.26562,0.375 -0.40625,0 -0.8125,-0.17187 -0.40625,-0.17188 -0.78125,-0.60938 v 0.95314 q 0,0.46875 0,0.95313 0.0156,0.5 0.0156,0.98437 l 1.09375,0.1875 v 0.42188 z m 3.45312,-8.04689 q -0.28125,0 -0.64062,0.14062 -0.35938,0.14063 -0.8125,0.51563 v 3.375 q 0.34375,0.32812 0.65625,0.46875 0.32812,0.14062 0.67187,0.14062 0.67188,0 1.14063,-0.53125 0.48437,-0.54687 0.48437,-1.70312 0,-1.15625 -0.42187,-1.78125 -0.42188,-0.625 -1.07813,-0.625 z m 8.10543,5.29687 q -0.42188,0 -0.71875,-0.25 -0.28125,-0.26562 -0.35938,-0.67187 -0.48437,0.46875 -0.85937,0.71875 -0.375,0.23437 -0.90625,0.23437 -0.65625,0 -1.125,-0.375 -0.46875,-0.375 -0.46875,-1.125 0,-0.34375 0.15625,-0.64062 0.15625,-0.3125 0.59375,-0.59375 0.4375,-0.29688 1.23437,-0.57813 0.28125,-0.0937 0.64063,-0.20312 0.35937,-0.10938 0.71875,-0.1875 v -0.3125 q 0,-0.875 -0.26563,-1.15625 -0.26562,-0.28125 -0.85937,-0.28125 -0.14063,0 -0.3125,0.0156 -0.15625,0 -0.34375,0.0469 l -0.21875,0.78125 q -0.17188,0.57812 -0.625,0.57812 -0.51563,0 -0.5625,-0.5 0.15625,-0.67187 0.78125,-1.07812 0.64062,-0.40625 1.54687,-0.40625 0.95313,0 1.40625,0.48437 0.45313,0.46875 0.45313,1.60938 v 2.54687 q 0,0.39063 0.125,0.5625 0.125,0.15625 0.3125,0.15625 0.15625,0 0.26562,-0.0625 0.10938,-0.0781 0.20313,-0.20312 l 0.23437,0.26562 q -0.21875,0.34375 -0.48437,0.48438 -0.25,0.14062 -0.5625,0.14062 z m -3.375,-1.65625 q 0,0.48438 0.26562,0.6875 0.28125,0.20313 0.6875,0.20313 0.1875,0 0.34375,-0.0469 0.17188,-0.0469 0.39063,-0.1875 0.23437,-0.14062 0.59375,-0.39062 v -1.84375 q -0.3125,0.0781 -0.625,0.1875 -0.29688,0.10937 -0.48438,0.17187 -0.51562,0.20313 -0.76562,0.42188 -0.25,0.21875 -0.32813,0.42187 -0.0781,0.20313 -0.0781,0.375 z m 8.17555,-3.73437 v -0.4375 h 2.34375 v 0.4375 l -0.64063,0.125 -1.9375,5.10937 q -0.59375,1.59377 -1.15625,2.2969 -0.5625,0.71875 -1.29687,0.71875 -0.45313,0 -0.78125,-0.21875 -0.32813,-0.21875 -0.32813,-0.5625 0.0625,-0.26563 0.29688,-0.40625 0.23437,-0.125 0.5,-0.125 0.25,0 0.45312,0.0937 0.20313,0.10937 0.4375,0.35937 l 0.0625,0.0625 q 0.39063,-0.32812 0.64063,-0.79687 0.26562,-0.45313 0.4375,-0.9375 l 0.0469,-0.14063 -2.17187,-5.48439 -0.65625,-0.0937 v -0.4375 h 2.875 v 0.45312 l -1.04688,0.10938 1.5,4.09375 1.46875,-4.07813 z m 2.40404,5.26562 v -0.4375 l 0.96875,-0.15625 q 0,-0.5 0,-0.96875 0.0156,-0.48437 0.0156,-0.95312 v -5.26563 l -0.98437,-0.125 v -0.42187 l 1.875,-0.54688 0.17187,0.10938 -0.0469,1.70312 v 4.54688 q 0,0.46875 0,0.95312 0,0.48438 0.0156,0.96875 l 0.96875,0.15625 v 0.4375 z m 6.56039,0.15625 q -0.6875,0 -1.32812,-0.32812 -0.625,-0.32813 -1.01563,-1 -0.39062,-0.67188 -0.39062,-1.64063 0,-1 0.39062,-1.67187 0.39063,-0.6875 1.01563,-1.03125 0.64062,-0.34375 1.32812,-0.34375 0.70313,0 1.32813,0.34375 0.64062,0.34375 1.03125,1.03125 0.40625,0.67187 0.40625,1.67187 0,0.96875 -0.40625,1.64063 -0.39063,0.67187 -1.03125,1 -0.625,0.32812 -1.32813,0.32812 z m 0,-0.54687 q 0.78125,0 1.20313,-0.60938 0.42187,-0.625 0.42187,-1.8125 0,-1.21875 -0.42187,-1.84375 -0.42188,-0.64062 -1.20313,-0.64062 -0.76562,0 -1.1875,0.64062 -0.40625,0.625 -0.40625,1.84375 0,1.1875 0.40625,1.8125 0.42188,0.60938 1.1875,0.60938 z m 8.29117,0.51562 q -0.42188,0 -0.71875,-0.25 -0.28125,-0.26562 -0.35938,-0.67187 -0.48437,0.46875 -0.85937,0.71875 -0.375,0.23437 -0.90625,0.23437 -0.65625,0 -1.125,-0.375 -0.46875,-0.375 -0.46875,-1.125 0,-0.34375 0.15625,-0.64062 0.15625,-0.3125 0.59375,-0.59375 0.4375,-0.29688 1.23437,-0.57813 0.28125,-0.0937 0.64063,-0.20312 0.35937,-0.10938 0.71875,-0.1875 v -0.3125 q 0,-0.875 -0.26563,-1.15625 -0.26562,-0.28125 -0.85937,-0.28125 -0.14063,0 -0.3125,0.0156 -0.15625,0 -0.34375,0.0469 l -0.21875,0.78125 q -0.17188,0.57812 -0.625,0.57812 -0.51563,0 -0.5625,-0.5 0.15625,-0.67187 0.78125,-1.07812 0.64062,-0.40625 1.54687,-0.40625 0.95313,0 1.40625,0.48437 0.45313,0.46875 0.45313,1.60938 v 2.54687 q 0,0.39063 0.125,0.5625 0.125,0.15625 0.3125,0.15625 0.15625,0 0.26562,-0.0625 0.10938,-0.0781 0.20313,-0.20312 l 0.23437,0.26562 q -0.21875,0.34375 -0.48437,0.48438 -0.25,0.14062 -0.5625,0.14062 z m -3.375,-1.65625 q 0,0.48438 0.26562,0.6875 0.28125,0.20313 0.6875,0.20313 0.1875,0 0.34375,-0.0469 0.17188,-0.0469 0.39063,-0.1875 0.23437,-0.14062 0.59375,-0.39062 v -1.84375 q -0.3125,0.0781 -0.625,0.1875 -0.29688,0.10937 -0.48438,0.17187 -0.51562,0.20313 -0.76562,0.42188 -0.25,0.21875 -0.32813,0.42187 -0.0781,0.20313 -0.0781,0.375 z m 6.12367,-1.28125 q 0,1.17188 0.46875,1.73438 0.46875,0.54687 1.1875,0.54687 0.40625,0 0.70313,-0.15625 0.3125,-0.17187 0.64062,-0.53125 v -3.32812 q -0.40625,-0.35938 -0.73437,-0.48438 -0.3125,-0.14062 -0.60938,-0.14062 -0.45312,0 -0.82812,0.25 -0.375,0.23437 -0.60938,0.76562 -0.21875,0.51563 -0.21875,1.34375 z m 3.125,2.9375 -0.0781,-0.82812 q -0.3125,0.40625 -0.71875,0.64062 -0.40625,0.21875 -0.96875,0.21875 -0.73438,0 -1.28125,-0.375 -0.54688,-0.375 -0.85938,-1.03125 -0.29687,-0.67187 -0.29687,-1.54687 0,-0.92188 0.32812,-1.60938 0.34375,-0.6875 0.90625,-1.0625 0.57813,-0.39062 1.3125,-0.39062 0.42188,0 0.8125,0.17187 0.39063,0.17188 0.76563,0.60938 v -2.70313 l -1.03125,-0.125 v -0.42187 l 1.875,-0.54688 0.17187,0.10938 -0.0469,1.70312 v 6.48438 l 0.96875,0.14062 v 0.4375 z m 3.85092,-4.32812 q -0.35937,0 -0.60937,-0.25 -0.23438,-0.25 -0.23438,-0.60938 0,-0.35937 0.23438,-0.60937 0.25,-0.25 0.60937,-0.25 0.35938,0 0.60938,0.25 0.25,0.25 0.25,0.60937 0,0.35938 -0.25,0.60938 -0.25,0.25 -0.60938,0.25 z m 0,4.35937 q -0.35937,0 -0.60937,-0.25 -0.23438,-0.25 -0.23438,-0.60937 0,-0.35938 0.23438,-0.60938 0.25,-0.25 0.60937,-0.25 0.35938,0 0.60938,0.25 0.25,0.25 0.25,0.60938 0,0.35937 -0.25,0.60937 -0.25,0.25 -0.60938,0.25 z m 7.27105,0 q -0.73438,0 -1.15625,-0.48437 -0.40625,-0.48438 -0.40625,-1.67188 l 0.0469,-2.98437 -0.85937,-0.1875 v -0.4375 l 1.76562,-0.15625 0.125,0.10937 -0.0625,1.6875 v 1.85938 q 0,0.78125 0.23438,1.09375 0.25,0.3125 0.71875,0.3125 0.84375,0 1.6875,-0.76563 l 0.0312,-3.53125 -0.84375,-0.17187 v -0.4375 l 1.73437,-0.15625 0.125,0.10937 -0.0469,1.6875 v 3.375 l 0.82812,0.15625 v 0.4375 l -1.67187,0.0937 -0.125,-1.0625 q -0.48438,0.57813 -1.03125,0.85938 -0.53125,0.26562 -1.09375,0.26562 z m 6.35542,-4.53125 h 0.48437 q 0.8125,0 1.26563,-0.42187 0.45312,-0.42188 0.45312,-1.1875 0,-0.65625 -0.375,-1.01563 -0.375,-0.375 -1.09375,-0.375 -0.10937,0 -0.25,0.0156 -0.125,0.0156 -0.29687,0.0469 l -0.15625,0.59375 q -0.0937,0.375 -0.25,0.5625 -0.14063,0.1875 -0.45313,0.1875 -0.1875,0 -0.34375,-0.0937 -0.15625,-0.10937 -0.21875,-0.32812 0.15625,-0.76563 0.75,-1.14063 0.59375,-0.375 1.42188,-0.375 1.0625,0 1.6875,0.53125 0.625,0.51563 0.625,1.34375 0,0.65625 -0.42188,1.17188 -0.40625,0.5 -1.15625,0.76562 0.92188,0.1875 1.35938,0.70313 0.45312,0.51562 0.45312,1.25 0,0.65625 -0.34375,1.17187 -0.32812,0.51563 -0.9375,0.82813 -0.59375,0.29687 -1.40625,0.29687 -0.875,0 -1.51562,-0.39062 -0.625,-0.40625 -0.78125,-1.3125 0.20312,-0.39063 0.60937,-0.39063 0.3125,0 0.4375,0.20313 0.14063,0.20312 0.26563,0.65625 l 0.15625,0.625 q 0.20312,0.0469 0.375,0.0625 0.17187,0 0.29687,0 0.89063,0 1.32813,-0.45313 0.45312,-0.46875 0.45312,-1.26562 0,-0.78125 -0.46875,-1.21875 -0.45312,-0.45313 -1.375,-0.45313 h -0.57812 z m 4.56256,4.375 v -0.78125 q 0.48437,-0.46875 0.92187,-0.92187 0.45313,-0.46875 0.84375,-0.875 0.90625,-0.95313 1.3125,-1.71875 0.42188,-0.76563 0.42188,-1.46875 0,-0.73438 -0.39063,-1.17188 -0.39062,-0.4375 -1.04687,-0.4375 -0.125,0 -0.28125,0.0156 -0.14063,0.0156 -0.3125,0.0469 l -0.21875,0.82813 q -0.125,0.45312 -0.29688,0.64062 -0.15625,0.1875 -0.40625,0.1875 -0.39062,0 -0.60937,-0.39062 0.0781,-0.64063 0.42187,-1.04688 0.34375,-0.42187 0.875,-0.60937 0.53125,-0.20313 1.125,-0.20313 1.17188,0 1.6875,0.57813 0.53125,0.5625 0.53125,1.45312 0,0.53125 -0.20312,1.03125 -0.20313,0.5 -0.73438,1.125 -0.51562,0.60938 -1.4375,1.5 -0.23437,0.23438 -0.57812,0.5625 -0.34375,0.32813 -0.71875,0.67188 h 4.03125 v 0.98437 z"
       fill-rule="nonzero"
       id="path473" />
    <path
       fill="#d9d9d9"
       d="m 100.76887,236.7826 h 75.74803 v 50.79507 h -75.74802 z"
       fill-rule="evenodd"
       id="path475" />
    <path
       fill="#000000"
       fill-opacity="0"
       d="m 100.75671,236.78487 h 48.05286"
       fill-rule="evenodd"
       id="path477" />
    <path
       stroke="#595959"
       stroke-width="1"
       stroke-linejoin="round"
       stroke-linecap="butt"
       stroke-dasharray="4, 3"
       d="m 100.75671,236.78487 h 48.05286"
       fill-rule="evenodd"
       id="path479" />
    <path
       fill="#000000"
       fill-opacity="0"
       d="m 100.75671,287.57996 h 48.05286"
       fill-rule="evenodd"
       id="path481" />
    <path
       stroke="#595959"
       stroke-width="1"
       stroke-linejoin="round"
       stroke-linecap="butt"
       stroke-dasharray="4, 3"
       d="m 100.75671,287.57996 h 48.05286"
       fill-rule="evenodd"
       id="path483" />
    <path
       fill="#000000"
       fill-opacity="0"
       d="m 148.1075,287.57996 h 28.39487"
       fill-rule="evenodd"
       id="path485" />
    <path
       stroke="#595959"
       stroke-width="1"
       stroke-linejoin="round"
       stroke-linecap="butt"
       d="m 148.1075,287.57996 h 28.39487"
       fill-rule="evenodd"
       id="path487" />
    <path
       fill="#000000"
       fill-opacity="0"
       d="m 148.1075,236.78487 h 28.39487"
       fill-rule="evenodd"
       id="path489" />
    <path
       stroke="#595959"
       stroke-width="1"
       stroke-linejoin="round"
       stroke-linecap="butt"
       d="m 148.1075,236.78487 h 28.39487"
       fill-rule="evenodd"
       id="path491" />
    <path
       fill="#000000"
       fill-opacity="0"
       d="M 176.50237,287.57767 V 237.0013"
       fill-rule="evenodd"
       id="path493" />
    <path
       stroke="#595959"
       stroke-width="1"
       stroke-linejoin="round"
       stroke-linecap="butt"
       d="M 176.50237,287.57767 V 237.0013"
       fill-rule="evenodd"
       id="path495" />
    <path
       fill="#000000"
       fill-opacity="0"
       d="m 95.51837,245.15999 h 81.00787 v 34.04726 H 95.51837 Z"
       fill-rule="evenodd"
       id="path497" />
    <path
       fill="#000000"
       d="m 125.11884,267.68237 q -0.8125,0 -1.57813,-0.21875 -0.76562,-0.23438 -1.26562,-0.5625 l 0.0781,-2.04688 h 0.90625 l 0.29688,1.73438 q 0.34375,0.1875 0.70312,0.28125 0.35938,0.0781 0.82813,0.0781 1.03125,0 1.64062,-0.45312 0.625,-0.46875 0.625,-1.3125 0,-0.70313 -0.4375,-1.09375 -0.42187,-0.39063 -1.35937,-0.76563 l -0.57813,-0.23437 q -1.125,-0.4375 -1.82812,-1.125 -0.6875,-0.70313 -0.6875,-1.8125 0,-0.84375 0.42187,-1.4375 0.4375,-0.60938 1.1875,-0.9375 0.75,-0.34375 1.6875,-0.34375 0.73438,0 1.32813,0.21875 0.60937,0.20312 1.07812,0.54687 l -0.0937,1.92188 h -0.89063 l -0.3125,-1.65625 q -0.54687,-0.29688 -1.20312,-0.29688 -0.82813,0 -1.40625,0.42188 -0.5625,0.42187 -0.5625,1.23437 0,0.67188 0.42187,1.125 0.4375,0.4375 1.23438,0.73438 l 0.57812,0.21875 q 1.4375,0.5625 2.04688,1.26562 0.625,0.6875 0.625,1.73438 0,0.85937 -0.45313,1.48437 -0.4375,0.625 -1.21875,0.96875 -0.78125,0.32813 -1.81249,0.32813 z m 8.00402,-6.70313 q -0.40625,0 -0.82812,0.23438 -0.40625,0.23437 -0.71875,0.75 -0.29688,0.51562 -0.375,1.35937 h 2.65625 q 0.53125,0 0.70312,-0.21875 0.17188,-0.21875 0.17188,-0.53125 0,-0.42187 -0.21875,-0.78125 -0.21875,-0.35937 -0.57813,-0.57812 -0.35937,-0.23438 -0.8125,-0.23438 z m -0.0156,6.67188 q -1.46875,0 -2.375,-0.95313 -0.89063,-0.96875 -0.89063,-2.65625 0,-1.125 0.45313,-1.95312 0.46875,-0.84375 1.23437,-1.3125 0.78125,-0.46875 1.6875,-0.46875 0.76563,0 1.375,0.34375 0.625,0.32812 0.98438,0.95312 0.35937,0.625 0.35937,1.51563 0,0.25 -0.0312,0.46875 -0.0156,0.20312 -0.0625,0.35937 h -4.67187 q 0.0312,1.34375 0.67187,2.04688 0.64063,0.70312 1.70313,0.70312 0.70312,0 1.17187,-0.28125 0.46875,-0.28125 0.85938,-0.73437 l 0.34375,0.26562 q -0.40625,0.78125 -1.10938,1.25 -0.70312,0.45313 -1.70312,0.45313 z m 4.14659,-0.1875 v -0.53125 l 1.07812,-0.20313 q 0.0156,-0.5625 0.0156,-1.20312 0.0156,-0.64063 0.0156,-1.14063 v -0.70312 q 0,-0.59375 -0.0156,-0.98438 0,-0.40625 -0.0312,-0.84375 l -1.15625,-0.14062 v -0.51563 l 2.04687,-0.89062 0.21875,0.15625 0.125,1.17187 q 0.53125,-0.59375 1.23438,-0.95312 0.71875,-0.375 1.39062,-0.375 0.95313,0 1.40625,0.64062 0.46875,0.64063 0.46875,2.07813 v 1.35937 q 0,0.5 0,1.14063 0.0156,0.64062 0.0312,1.20312 l 1.01563,0.20313 v 0.53125 h -3.39063 v -0.53125 l 1.07813,-0.20313 q 0.0156,-0.54687 0.0156,-1.1875 0.0156,-0.65625 0.0156,-1.15625 v -1.25 q 0,-1 -0.29688,-1.375 -0.28125,-0.39062 -0.92187,-0.39062 -0.5,0 -0.96875,0.20312 -0.46875,0.20313 -1.01563,0.67188 v 2.14062 q 0,0.48438 0,1.14063 0,0.64062 0.0156,1.20312 l 1.01562,0.20313 v 0.53125 z m 10.27234,-3.4375 q 0,1.42187 0.57812,2.10937 0.57813,0.6875 1.45313,0.6875 0.48437,0 0.85937,-0.20312 0.375,-0.20313 0.78125,-0.65625 v -4.0625 q -0.5,-0.4375 -0.89062,-0.59375 -0.39063,-0.15625 -0.76563,-0.15625 -0.54687,0 -1.01562,0.29687 -0.45313,0.29688 -0.73438,0.9375 -0.26562,0.64063 -0.26562,1.64063 z m 3.8125,3.57812 -0.0937,-1 q -0.39063,0.5 -0.875,0.78125 -0.48438,0.26563 -1.17188,0.26563 -0.90625,0 -1.57812,-0.45313 -0.67188,-0.45312 -1.04688,-1.26562 -0.375,-0.8125 -0.375,-1.89063 0,-1.125 0.40625,-1.95312 0.42188,-0.84375 1.125,-1.3125 0.70313,-0.46875 1.59375,-0.46875 0.51563,0 0.98438,0.21875 0.48437,0.20312 0.9375,0.73437 v -3.3125 l -1.25,-0.14062 v -0.51563 l 2.28125,-0.65625 0.21875,0.10938 -0.0625,2.09375 v 7.92187 l 1.1875,0.17188 v 0.53125 z m 6.45074,-6.625 q -0.40625,0 -0.82812,0.23438 -0.40625,0.23437 -0.71875,0.75 -0.29688,0.51562 -0.375,1.35937 h 2.65625 q 0.53125,0 0.70312,-0.21875 0.17188,-0.21875 0.17188,-0.53125 0,-0.42187 -0.21875,-0.78125 -0.21875,-0.35937 -0.57813,-0.57812 -0.35937,-0.23438 -0.8125,-0.23438 z m -0.0156,6.67188 q -1.46875,0 -2.375,-0.95313 -0.89063,-0.96875 -0.89063,-2.65625 0,-1.125 0.45313,-1.95312 0.46875,-0.84375 1.23437,-1.3125 0.78125,-0.46875 1.6875,-0.46875 0.76563,0 1.375,0.34375 0.625,0.32812 0.98438,0.95312 0.35937,0.625 0.35937,1.51563 0,0.25 -0.0312,0.46875 -0.0156,0.20312 -0.0625,0.35937 h -4.67187 q 0.0312,1.34375 0.67187,2.04688 0.64063,0.70312 1.70313,0.70312 0.70312,0 1.17187,-0.28125 0.46875,-0.28125 0.85938,-0.73437 l 0.34375,0.26562 q -0.40625,0.78125 -1.10938,1.25 -0.70312,0.45313 -1.70312,0.45313 z m 4.16221,-0.1875 v -0.53125 l 1.0625,-0.1875 q 0.0156,-0.5625 0.0156,-1.20313 0.0156,-0.65625 0.0156,-1.15625 v -0.70312 q 0,-0.59375 -0.0156,-0.98438 0,-0.40625 -0.0312,-0.84375 l -1.15625,-0.14062 v -0.51563 l 2.04687,-0.89062 0.21875,0.15625 0.17188,1.71875 q 0.35937,-0.875 0.9375,-1.375 0.57812,-0.5 1.17187,-0.5 0.32813,0 0.625,0.15625 0.29688,0.14062 0.42188,0.39062 0,1.0625 -0.85938,1.0625 -0.25,0 -0.46875,-0.0937 -0.21875,-0.0937 -0.42187,-0.26562 l -0.1875,-0.15625 q -0.4375,0.3125 -0.73438,0.78125 -0.28125,0.46875 -0.46875,1.10937 v 1.09375 q 0,0.48438 0,1.14063 0,0.64062 0.0156,1.1875 l 1.20312,0.21875 v 0.53125 z"
       fill-rule="nonzero"
       id="path499" />
    <path
       fill="#d9d9d9"
       d="m 282.98676,236.78372 h 75.74802 v 50.7951 h -75.74802 z"
       fill-rule="evenodd"
       id="path501" />
    <path
       fill="#000000"
       fill-opacity="0"
       d="M 358.7324,236.78372 H 310.67954"
       fill-rule="evenodd"
       id="path503" />
    <path
       stroke="#595959"
       stroke-width="1"
       stroke-linejoin="round"
       stroke-linecap="butt"
       stroke-dasharray="4, 3"
       d="M 358.7324,236.78372 H 310.67954"
       fill-rule="evenodd"
       id="path505" />
    <path
       fill="#000000"
       fill-opacity="0"
       d="M 358.7324,287.57883 H 310.67954"
       fill-rule="evenodd"
       id="path507" />
    <path
       stroke="#595959"
       stroke-width="1"
       stroke-linejoin="round"
       stroke-linecap="butt"
       stroke-dasharray="4, 3"
       d="M 358.7324,287.57883 H 310.67954"
       fill-rule="evenodd"
       id="path509" />
    <path
       fill="#000000"
       fill-opacity="0"
       d="M 311.38162,287.57883 H 282.98675"
       fill-rule="evenodd"
       id="path511" />
    <path
       stroke="#595959"
       stroke-width="1"
       stroke-linejoin="round"
       stroke-linecap="butt"
       d="M 311.38162,287.57883 H 282.98675"
       fill-rule="evenodd"
       id="path513" />
    <path
       fill="#000000"
       fill-opacity="0"
       d="M 311.38162,236.78372 H 282.98675"
       fill-rule="evenodd"
       id="path515" />
    <path
       stroke="#595959"
       stroke-width="1"
       stroke-linejoin="round"
       stroke-linecap="butt"
       d="M 311.38162,236.78372 H 282.98675"
       fill-rule="evenodd"
       id="path517" />
    <path
       fill="#000000"
       fill-opacity="0"
       d="M 282.98676,287.57654 V 237.00015"
       fill-rule="evenodd"
       id="path519" />
    <path
       stroke="#595959"
       stroke-width="1"
       stroke-linejoin="round"
       stroke-linecap="butt"
       d="M 282.98676,287.57654 V 237.00015"
       fill-rule="evenodd"
       id="path521" />
    <path
       fill="#000000"
       fill-opacity="0"
       d="m 282.9882,245.15999 h 81.00787 v 34.04726 H 282.9882 Z"
       fill-rule="evenodd"
       id="path523" />
    <path
       fill="#000000"
       d="m 296.6913,258.33862 h -1.26563 q -0.0156,0.96875 -0.0156,1.92187 0,0.95313 0,2 h 1.125 q 1.1875,0 1.75,-0.5625 0.5625,-0.57812 0.5625,-1.45312 0,-0.9375 -0.51563,-1.42188 -0.51562,-0.48437 -1.64062,-0.48437 z m -4.0625,-0.0781 v -0.60937 h 4.10937 q 1.6875,0 2.625,0.6875 0.9375,0.67187 0.9375,1.89062 0,0.84375 -0.625,1.54688 -0.60937,0.70312 -1.84375,0.92187 0.65625,0.14063 1.0625,0.57813 0.42188,0.42187 0.67188,1.28125 l 0.625,2.17187 1.14062,0.14063 v 0.59375 q -0.23437,0.0625 -0.5,0.0937 -0.26562,0.0469 -0.60937,0.0469 -0.6875,0 -1.03125,-0.20312 -0.34375,-0.20313 -0.46875,-0.73438 L 298.1288,264.323 q -0.125,-0.59375 -0.375,-0.89062 -0.25,-0.3125 -0.64063,-0.40625 -0.39062,-0.10938 -0.98437,-0.10938 h -0.71875 q 0,1.0625 0,1.98438 0,0.92187 0.0156,1.79687 l 1.35938,0.17188 v 0.59375 h -4.15625 v -0.59375 l 1.35937,-0.17188 q 0.0156,-0.92187 0.0156,-1.875 0,-0.95312 0,-1.90625 V 262.198 q 0,-0.95312 0,-1.89062 0,-0.95313 -0.0156,-1.89063 z m 12.69147,2.71875 q -0.40625,0 -0.82813,0.23438 -0.40625,0.23437 -0.71875,0.75 -0.29687,0.51562 -0.375,1.35937 h 2.65625 q 0.53125,0 0.70313,-0.21875 0.17187,-0.21875 0.17187,-0.53125 0,-0.42187 -0.21875,-0.78125 -0.21875,-0.35937 -0.57812,-0.57812 -0.35938,-0.23438 -0.8125,-0.23438 z m -0.0156,6.67188 q -1.46875,0 -2.375,-0.95313 -0.89062,-0.96875 -0.89062,-2.65625 0,-1.125 0.45312,-1.95312 0.46875,-0.84375 1.23438,-1.3125 0.78125,-0.46875 1.6875,-0.46875 0.76562,0 1.375,0.34375 0.625,0.32812 0.98437,0.95312 0.35938,0.625 0.35938,1.51563 0,0.25 -0.0312,0.46875 -0.0156,0.20312 -0.0625,0.35937 h -4.67188 q 0.0312,1.34375 0.67188,2.04688 0.64062,0.70312 1.70312,0.70312 0.70313,0 1.17188,-0.28125 0.46875,-0.28125 0.85937,-0.73437 l 0.34375,0.26562 q -0.40625,0.78125 -1.10937,1.25 -0.70313,0.45313 -1.70313,0.45313 z m 7.45908,0 q -1.5,0 -2.40625,-0.96875 -0.89063,-0.98438 -0.89063,-2.67188 0,-1.15625 0.46875,-1.98437 0.48438,-0.82813 1.26563,-1.26563 0.78125,-0.45312 1.65625,-0.45312 0.65625,0 1.21875,0.25 0.5625,0.25 0.92187,0.6875 0.35938,0.42187 0.45313,0.96875 -0.0937,0.5625 -0.67188,0.5625 -0.35937,0 -0.54687,-0.1875 -0.1875,-0.20313 -0.26563,-0.51563 l -0.26562,-0.96875 q -0.20313,-0.0781 -0.40625,-0.0937 -0.1875,-0.0312 -0.375,-0.0312 -0.9375,0 -1.54688,0.73438 -0.60937,0.73437 -0.60937,2.14062 0,1.375 0.65625,2.10938 0.65625,0.73437 1.6875,0.73437 0.625,0 1.15625,-0.28125 0.53125,-0.28125 0.85937,-0.82812 l 0.375,0.1875 q -0.3125,0.90625 -1,1.39062 -0.6875,0.48438 -1.73437,0.48438 z m 7.18353,-6.67188 q -0.40625,0 -0.82812,0.23438 -0.40625,0.23437 -0.71875,0.75 -0.29688,0.51562 -0.375,1.35937 h 2.65625 q 0.53125,0 0.70312,-0.21875 0.17188,-0.21875 0.17188,-0.53125 0,-0.42187 -0.21875,-0.78125 -0.21875,-0.35937 -0.57813,-0.57812 -0.35937,-0.23438 -0.8125,-0.23438 z m -0.0156,6.67188 q -1.46875,0 -2.375,-0.95313 -0.89063,-0.96875 -0.89063,-2.65625 0,-1.125 0.45313,-1.95312 0.46875,-0.84375 1.23437,-1.3125 0.78125,-0.46875 1.6875,-0.46875 0.76563,0 1.375,0.34375 0.625,0.32812 0.98438,0.95312 0.35937,0.625 0.35937,1.51563 0,0.25 -0.0312,0.46875 -0.0156,0.20312 -0.0625,0.35937 h -4.67187 q 0.0312,1.34375 0.67187,2.04688 0.64063,0.70312 1.70313,0.70312 0.70312,0 1.17187,-0.28125 0.46875,-0.28125 0.85938,-0.73437 l 0.34375,0.26562 q -0.40625,0.78125 -1.10938,1.25 -0.70312,0.45313 -1.70312,0.45313 z m 4.06848,-0.1875 v -0.53125 l 1.09375,-0.20313 q 0.0156,-0.5625 0.0156,-1.20312 0.0156,-0.65625 0.0156,-1.14063 v -0.6875 q 0,-0.60937 -0.0156,-1 0,-0.40625 -0.0312,-0.84375 l -1.17187,-0.14062 v -0.51563 l 2.26562,-0.89062 0.21875,0.15625 -0.0469,1.98437 v 1.9375 q 0,0.48438 0,1.14063 0.0156,0.64062 0.0312,1.20312 l 1.01562,0.20313 v 0.53125 z m 1.73437,-8.76563 q -0.42187,0 -0.70312,-0.26562 -0.28125,-0.26563 -0.28125,-0.67188 0,-0.42187 0.28125,-0.67187 0.28125,-0.26563 0.70312,-0.26563 0.40625,0 0.6875,0.26563 0.28125,0.25 0.28125,0.67187 0,0.40625 -0.28125,0.67188 -0.28125,0.26562 -0.6875,0.26562 z m 6.38196,2.375 v -0.57812 h 2.78125 v 0.57812 l -0.79687,0.1875 -2.375,6.29688 h -0.64063 l -2.65625,-6.34375 -0.79687,-0.14063 v -0.57812 h 3.54687 v 0.57812 l -1.29687,0.1875 1.79687,4.6875 1.625,-4.67187 z m 6.56122,-0.0937 q -0.40625,0 -0.82813,0.23438 -0.40625,0.23437 -0.71875,0.75 -0.29687,0.51562 -0.375,1.35937 h 2.65625 q 0.53125,0 0.70313,-0.21875 0.17187,-0.21875 0.17187,-0.53125 0,-0.42187 -0.21875,-0.78125 -0.21875,-0.35937 -0.57812,-0.57812 -0.35938,-0.23438 -0.8125,-0.23438 z m -0.0156,6.67188 q -1.46875,0 -2.375,-0.95313 -0.89062,-0.96875 -0.89062,-2.65625 0,-1.125 0.45312,-1.95312 0.46875,-0.84375 1.23438,-1.3125 0.78125,-0.46875 1.6875,-0.46875 0.76562,0 1.375,0.34375 0.625,0.32812 0.98437,0.95312 0.35938,0.625 0.35938,1.51563 0,0.25 -0.0312,0.46875 -0.0156,0.20312 -0.0625,0.35937 h -4.67188 q 0.0312,1.34375 0.67188,2.04688 0.64062,0.70312 1.70312,0.70312 0.70313,0 1.17188,-0.28125 0.46875,-0.28125 0.85937,-0.73437 l 0.34375,0.26562 q -0.40625,0.78125 -1.10937,1.25 -0.70313,0.45313 -1.70313,0.45313 z m 4.1622,-0.1875 v -0.53125 l 1.0625,-0.1875 q 0.0156,-0.5625 0.0156,-1.20313 0.0156,-0.65625 0.0156,-1.15625 v -0.70312 q 0,-0.59375 -0.0156,-0.98438 0,-0.40625 -0.0312,-0.84375 l -1.15625,-0.14062 v -0.51563 l 2.04687,-0.89062 0.21875,0.15625 0.17188,1.71875 q 0.35937,-0.875 0.9375,-1.375 0.57812,-0.5 1.17187,-0.5 0.32813,0 0.625,0.15625 0.29688,0.14062 0.42188,0.39062 0,1.0625 -0.85938,1.0625 -0.25,0 -0.46875,-0.0937 -0.21875,-0.0937 -0.42187,-0.26562 l -0.1875,-0.15625 q -0.4375,0.3125 -0.73438,0.78125 -0.28125,0.46875 -0.46875,1.10937 v 1.09375 q 0,0.48438 0,1.14063 0,0.64062 0.0156,1.1875 l 1.20312,0.21875 v 0.53125 z"
       fill-rule="nonzero"
       id="path525" />
    <path
       fill="#000000"
       fill-opacity="0"
       d="m 176.10498,298.4042 h 107.3071 v 14.55118 h -107.3071 z"
       fill-rule="evenodd"
       id="path527" />
    <path
       fill="#000000"
       d="m 193.73627,309.9242 v -0.4375 l 0.875,-0.15625 q 0,-0.45313 0,-0.98438 0.0156,-0.53125 0.0156,-0.9375 v -0.57812 q 0,-0.5 -0.0156,-0.8125 0,-0.32813 -0.0156,-0.6875 l -0.95312,-0.10938 v -0.42187 l 1.6875,-0.73438 0.17187,0.125 0.14063,1.42188 q 0.29687,-0.73438 0.76562,-1.14063 0.46875,-0.40625 0.95313,-0.40625 0.28125,0 0.51562,0.125 0.25,0.125 0.34375,0.32813 0,0.875 -0.70312,0.875 -0.20313,0 -0.39063,-0.0781 -0.17187,-0.0781 -0.34375,-0.23437 l -0.14062,-0.125 q -0.35938,0.26562 -0.60938,0.65625 -0.23437,0.375 -0.39062,0.89062 v 0.90625 q 0,0.39063 0,0.92188 0.0156,0.53125 0.0312,0.98437 l 0.98437,0.17188 v 0.4375 z m 7.69041,-5.29688 q -0.34375,0 -0.6875,0.1875 -0.34375,0.1875 -0.59375,0.60938 -0.23437,0.42187 -0.3125,1.10937 h 2.1875 q 0.4375,0 0.5625,-0.17187 0.14063,-0.1875 0.14063,-0.45313 0,-0.34375 -0.17188,-0.625 -0.17187,-0.29687 -0.46875,-0.46875 -0.29687,-0.1875 -0.65625,-0.1875 z m -0.0156,5.45313 q -1.21875,0 -1.95313,-0.78125 -0.71875,-0.79688 -0.71875,-2.17188 0,-0.92187 0.375,-1.60937 0.375,-0.6875 1,-1.0625 0.64063,-0.39063 1.375,-0.39063 0.625,0 1.125,0.28125 0.51563,0.28125 0.8125,0.79688 0.29688,0.5 0.29688,1.23437 0,0.20313 -0.0312,0.375 -0.0156,0.17188 -0.0469,0.29688 h -3.82812 q 0.0156,1.09375 0.54687,1.67187 0.53125,0.57813 1.39063,0.57813 0.57812,0 0.95312,-0.23438 0.39063,-0.23437 0.71875,-0.60937 l 0.28125,0.23437 q -0.32812,0.64063 -0.90625,1.01563 -0.57812,0.375 -1.39062,0.375 z m 7.76567,-0.0312 q -0.42187,0 -0.71875,-0.25 -0.28125,-0.26563 -0.35937,-0.67188 -0.48438,0.46875 -0.85938,0.71875 -0.375,0.23438 -0.90625,0.23438 -0.65625,0 -1.125,-0.375 -0.46875,-0.375 -0.46875,-1.125 0,-0.34375 0.15625,-0.64063 0.15625,-0.3125 0.59375,-0.59375 0.4375,-0.29687 1.23438,-0.57812 0.28125,-0.0937 0.64062,-0.20313 0.35938,-0.10937 0.71875,-0.1875 v -0.3125 q 0,-0.875 -0.26562,-1.15625 -0.26563,-0.28125 -0.85938,-0.28125 -0.14062,0 -0.3125,0.0156 -0.15625,0 -0.34375,0.0469 l -0.21875,0.78125 q -0.17187,0.57813 -0.625,0.57813 -0.51562,0 -0.5625,-0.5 0.15625,-0.67188 0.78125,-1.07813 0.64063,-0.40625 1.54688,-0.40625 0.95312,0 1.40625,0.48438 0.45312,0.46875 0.45312,1.60937 v 2.54688 q 0,0.39062 0.125,0.5625 0.125,0.15625 0.3125,0.15625 0.15625,0 0.26563,-0.0625 0.10937,-0.0781 0.20312,-0.20313 l 0.23438,0.26563 q -0.21875,0.34375 -0.48438,0.48437 -0.25,0.14063 -0.5625,0.14063 z m -3.375,-1.65625 q 0,0.48437 0.26563,0.6875 0.28125,0.20312 0.6875,0.20312 0.1875,0 0.34375,-0.0469 0.17187,-0.0469 0.39062,-0.1875 0.23438,-0.14063 0.59375,-0.39063 v -1.84375 q -0.3125,0.0781 -0.625,0.1875 -0.29687,0.10938 -0.48437,0.17188 -0.51563,0.20312 -0.76563,0.42187 -0.25,0.21875 -0.32812,0.42188 -0.0781,0.20312 -0.0781,0.375 z m 6.12367,-1.28125 q 0,1.17187 0.46875,1.73437 0.46875,0.54688 1.1875,0.54688 0.40625,0 0.70313,-0.15625 0.3125,-0.17188 0.64062,-0.53125 v -3.32813 q -0.40625,-0.35937 -0.73437,-0.48437 -0.3125,-0.14063 -0.60938,-0.14063 -0.45312,0 -0.82812,0.25 -0.375,0.23438 -0.60938,0.76563 -0.21875,0.51562 -0.21875,1.34375 z m 3.125,2.9375 -0.0781,-0.82813 q -0.3125,0.40625 -0.71875,0.64063 -0.40625,0.21875 -0.96875,0.21875 -0.73438,0 -1.28125,-0.375 -0.54688,-0.375 -0.85938,-1.03125 -0.29687,-0.67188 -0.29687,-1.54688 0,-0.92187 0.32812,-1.60937 0.34375,-0.6875 0.90625,-1.0625 0.57813,-0.39063 1.3125,-0.39063 0.42188,0 0.8125,0.17188 0.39063,0.17187 0.76563,0.60937 V 302.143 l -1.03125,-0.125 v -0.42188 l 1.875,-0.54687 0.17187,0.10937 -0.0469,1.70313 v 6.48437 l 0.96875,0.14063 v 0.4375 z m 5.73093,-5.39063 v -0.4375 h 2.34375 v 0.4375 l -0.64063,0.125 -1.9375,5.10938 q -0.59375,1.59375 -1.15625,2.29687 -0.5625,0.71875 -1.29687,0.71875 -0.45313,0 -0.78125,-0.21875 -0.32813,-0.21875 -0.32813,-0.5625 0.0625,-0.26562 0.29688,-0.40625 0.23437,-0.125 0.5,-0.125 0.25,0 0.45312,0.0937 0.20313,0.10938 0.4375,0.35938 l 0.0625,0.0625 q 0.39063,-0.32813 0.64063,-0.79688 0.26562,-0.45312 0.4375,-0.9375 l 0.0469,-0.14062 -2.17187,-5.48438 -0.65625,-0.0937 v -0.4375 h 2.875 v 0.45313 l -1.04688,0.10937 1.5,4.09375 1.46875,-4.07812 z m 4.26904,1.92188 q 0,0.96875 0.15625,1.8125 0.17188,0.82812 0.57813,1.6875 0.40625,0.85937 1.10937,1.875 l -0.3125,0.26562 q -1.26562,-1.1875 -1.89062,-2.57812 -0.60938,-1.40625 -0.60938,-3.0625 0,-1.64063 0.60938,-3.03125 0.625,-1.40625 1.89062,-2.59375 l 0.3125,0.26562 q -0.70312,1.01563 -1.10937,1.875 -0.40625,0.85938 -0.57813,1.70313 -0.15625,0.82812 -0.15625,1.78125 z m 2.56803,6.21875 v -0.42188 l 0.95312,-0.17187 q 0.0156,-0.5 0.0156,-0.98438 0.0156,-0.48437 0.0156,-0.95312 v -3.4375 q 0,-0.5 -0.0156,-0.8125 0,-0.32813 -0.0156,-0.6875 l -0.95312,-0.10938 v -0.42187 l 1.67187,-0.73438 0.1875,0.125 0.0781,0.78125 q 0.84375,-0.90625 1.79687,-0.90625 0.65625,0 1.17188,0.35938 0.51562,0.35937 0.8125,1.03125 0.3125,0.67187 0.3125,1.59375 0,0.9375 -0.32813,1.60937 -0.3125,0.67188 -0.875,1.04688 -0.5625,0.375 -1.26562,0.375 -0.40625,0 -0.8125,-0.17188 -0.40625,-0.17187 -0.78125,-0.60937 v 0.95312 q 0,0.46875 0,0.95313 0.0156,0.5 0.0156,0.98437 l 1.09375,0.1875 v 0.42188 z m 3.45312,-8.04688 q -0.28125,0 -0.64062,0.14063 -0.35938,0.14062 -0.8125,0.51562 v 3.375 q 0.34375,0.32813 0.65625,0.46875 0.32812,0.14063 0.67187,0.14063 0.67188,0 1.14063,-0.53125 0.48437,-0.54688 0.48437,-1.70313 0,-1.15625 -0.42187,-1.78125 -0.42188,-0.625 -1.07813,-0.625 z m 5.44354,4.82813 q 0,0.71875 -0.34375,1.32812 -0.34375,0.60938 -0.875,1.04688 -0.53125,0.4375 -1.10937,0.65625 l -0.15625,-0.40625 q 0.60937,-0.3125 1.07812,-0.76563 0.46875,-0.4375 0.6875,-1.10937 l -0.45312,-0.34375 q -0.23438,-0.1875 -0.34375,-0.40625 -0.10938,-0.23438 -0.10938,-0.45313 0,-0.3125 0.1875,-0.53125 0.1875,-0.23437 0.5625,-0.23437 0.15625,0 0.32813,0.0781 0.1875,0.0625 0.40625,0.26563 0.0781,0.23437 0.10937,0.45312 0.0312,0.20313 0.0312,0.42188 z m 4.33355,0.34375 v -0.4375 l 0.875,-0.15625 q 0,-0.45313 0,-0.98438 0.0156,-0.53125 0.0156,-0.9375 v -0.57812 q 0,-0.5 -0.0156,-0.8125 0,-0.32813 -0.0156,-0.6875 l -0.95312,-0.10938 v -0.42187 l 1.6875,-0.73438 0.17187,0.125 0.14063,1.42188 q 0.29687,-0.73438 0.76562,-1.14063 0.46875,-0.40625 0.95313,-0.40625 0.28125,0 0.51562,0.125 0.25,0.125 0.34375,0.32813 0,0.875 -0.70312,0.875 -0.20313,0 -0.39063,-0.0781 -0.17187,-0.0781 -0.34375,-0.23437 l -0.14062,-0.125 q -0.35938,0.26562 -0.60938,0.65625 -0.23437,0.375 -0.39062,0.89062 v 0.90625 q 0,0.39063 0,0.92188 0.0156,0.53125 0.0312,0.98437 l 0.98437,0.17188 v 0.4375 z m 6.46466,-3.34375 q 0,-0.95313 -0.17188,-1.78125 -0.15625,-0.84375 -0.5625,-1.70313 -0.39062,-0.85937 -1.10937,-1.875 l 0.3125,-0.26562 q 1.28125,1.1875 1.89062,2.59375 0.60938,1.39062 0.60938,3.03125 0,1.65625 -0.60938,3.0625 -0.60937,1.39062 -1.89062,2.57812 l -0.3125,-0.26562 q 0.71875,-1.01563 1.10937,-1.875 0.40625,-0.85938 0.5625,-1.6875 0.17188,-0.84375 0.17188,-1.8125 z m 10.75467,0.9375 h -5.6875 v -0.6875 h 5.6875 z m 0,-2.40625 h -5.6875 v -0.6875 h 5.6875 z m 3.63681,4.8125 v -0.4375 l 0.875,-0.15625 q 0,-0.45313 0,-0.98438 0.0156,-0.53125 0.0156,-0.9375 v -0.57812 q 0,-0.5 -0.0156,-0.8125 0,-0.32813 -0.0156,-0.6875 l -0.95312,-0.10938 v -0.42187 l 1.6875,-0.73438 0.17187,0.125 0.14063,1.42188 q 0.29687,-0.73438 0.76562,-1.14063 0.46875,-0.40625 0.95313,-0.40625 0.28125,0 0.51562,0.125 0.25,0.125 0.34375,0.32813 0,0.875 -0.70312,0.875 -0.20313,0 -0.39063,-0.0781 -0.17187,-0.0781 -0.34375,-0.23437 l -0.14062,-0.125 q -0.35938,0.26562 -0.60938,0.65625 -0.23437,0.375 -0.39062,0.89062 v 0.90625 q 0,0.39063 0,0.92188 0.0156,0.53125 0.0312,0.98437 l 0.98437,0.17188 v 0.4375 z"
       fill-rule="nonzero"
       id="path529" />
  </g>
</svg>
