<?xml version="1.0" encoding="UTF-8" standalone="no"?>
<svg
   version="1.1"
   viewBox="0 0 472.84253 89.440941"
   fill="none"
   stroke="none"
   stroke-linecap="square"
   stroke-miterlimit="10"
   id="svg543"
   sodipodi:docname="tutorial-module-comb.svg"
   width="472.84253"
   height="89.440941"
   inkscape:version="1.1.2 (b8e25be8, 2022-02-05)"
   xmlns:inkscape="http://www.inkscape.org/namespaces/inkscape"
   xmlns:sodipodi="http://sodipodi.sourceforge.net/DTD/sodipodi-0.dtd"
   xmlns="http://www.w3.org/2000/svg"
   xmlns:svg="http://www.w3.org/2000/svg">
  <defs
     id="defs547" />
  <sodipodi:namedview
     id="namedview545"
     pagecolor="#ffffff"
     bordercolor="#666666"
     borderopacity="1.0"
     inkscape:pageshadow="2"
     inkscape:pageopacity="0.0"
     inkscape:pagecheckerboard="0"
     showgrid="false"
     inkscape:zoom="1.05"
     inkscape:cx="52.857143"
     inkscape:cy="157.61905"
     inkscape:window-width="1296"
     inkscape:window-height="969"
     inkscape:window-x="0"
     inkscape:window-y="25"
     inkscape:window-maximized="0"
     inkscape:current-layer="g541" />
  <clipPath
     id="g305443f3828_0_6.0">
    <path
       d="M 0,0 H 960 V 540 H 0 Z"
       clip-rule="nonzero"
       id="path2" />
  </clipPath>
  <g
     clip-path="url(#g305443f3828_0_6.0)"
     id="g541"
     transform="translate(-426.74933,-112.08924)">
    <path
       fill="#000000"
       fill-opacity="0"
       d="m 427.24933,112.58924 h 471.84253 v 88.44094 H 427.24933 Z"
       fill-rule="evenodd"
       id="path11" />
    <path
       fill="#000000"
       fill-opacity="0"
       d="M 0,0 H 504 V 72.97638 H 0 Z"
       fill-rule="evenodd"
       id="path15" />
    <path
       fill="#595959"
       d="m 427.24902,112.59004 h 142.58942 v 29.48032 H 427.24902 Z"
       fill-rule="evenodd"
       id="path19" />
    <path
       fill="#ffffff"
       d="m 447.3599,123.20707 v -0.60937 h 4.15625 v 0.60937 l -1.35938,0.15625 q -0.0156,0.92188 -0.0156,1.875 0,0.95313 0,1.90625 v 0.71875 q 0,0.93751 0,1.89063 0,0.9375 0.0156,1.89063 l 1.35938,0.17187 v 0.59375 h -4.15625 v -0.59375 l 1.35937,-0.17187 q 0.0156,-0.92188 0.0156,-1.875 0,-0.95313 0,-1.90626 v -0.71875 q 0,-0.95313 0,-1.89063 0,-0.95312 -0.0156,-1.89062 z m 5.39062,9.20313 v -0.53125 l 1.07813,-0.20312 q 0.0156,-0.5625 0.0156,-1.20313 0.0156,-0.64062 0.0156,-1.14062 v -0.70313 q 0,-0.59375 -0.0156,-0.98438 0,-0.40625 -0.0312,-0.84375 l -1.15625,-0.14062 v -0.51563 l 2.04688,-0.89062 0.21875,0.15625 0.125,1.17187 q 0.53125,-0.59375 1.23437,-0.95312 0.71875,-0.375 1.39063,-0.375 0.95312,0 1.40625,0.64062 0.46875,0.64063 0.46875,2.07813 v 1.35938 q 0,0.5 0,1.14062 0.0156,0.64063 0.0312,1.20313 l 1.01562,0.20312 v 0.53125 h -3.39062 v -0.53125 l 1.07812,-0.20312 q 0.0156,-0.54688 0.0156,-1.1875 0.0156,-0.65625 0.0156,-1.15625 v -1.25 q 0,-1.00001 -0.29687,-1.37501 -0.28125,-0.39062 -0.92188,-0.39062 -0.5,0 -0.96875,0.20312 -0.46875,0.20313 -1.01562,0.67188 v 2.14063 q 0,0.48437 0,1.14062 0,0.64063 0.0156,1.20313 l 1.01563,0.20312 v 0.53125 z m 11.75672,-2.9375 q 0.70312,0 1.09375,-0.51562 0.40625,-0.53125 0.40625,-1.34376 0,-0.76562 -0.375,-1.25 -0.375,-0.5 -1.0625,-0.5 -0.6875,0 -1.09375,0.5 -0.39063,0.5 -0.39063,1.3125 0,0.81251 0.375,1.31251 0.375,0.48437 1.04688,0.48437 z m 0.0312,0.59375 q -0.5625,0 -1.07813,-0.15625 -0.375,0.46875 -0.375,0.9375 0,0.28125 0.17188,0.46875 0.17187,0.17188 0.6875,0.17188 h 1.92187 q 1.20313,0 1.78125,0.5 0.57813,0.5 0.57813,1.39062 0,0.625 -0.40625,1.20313 -0.40625,0.59375 -1.21875,0.95312 -0.79688,0.375 -2,0.375 -1.59375,0 -2.3125,-0.5 -0.71875,-0.5 -0.71875,-1.26562 0,-0.46875 0.3125,-0.875 0.3125,-0.40625 1.125,-0.79688 -0.96875,-0.26562 -0.96875,-1.125 0,-0.34375 0.21875,-0.71875 0.23437,-0.39062 0.78125,-0.90625 -0.53125,-0.28125 -0.84375,-0.79687 -0.29688,-0.51563 -0.29688,-1.26563 0,-1.15625 0.75,-1.78125 0.76563,-0.625 1.90625,-0.625 1.15625,0 1.85938,0.57812 l 1.65625,-0.57812 0.21875,0.15625 v 0.92187 h -1.4375 q 0.34375,0.53125 0.34375,1.32813 0,1.15625 -0.76563,1.78125 -0.75,0.625 -1.89062,0.625 z m -1.76563,3.84375 q 0,0.71875 0.5,1.01563 0.51563,0.3125 1.39063,0.3125 1.20312,0 1.82812,-0.4375 0.625,-0.42188 0.625,-1.04688 0,-0.48437 -0.34375,-0.8125 -0.32812,-0.32812 -1.125,-0.32812 h -1.70312 q -0.15625,0 -0.3125,-0.0156 -0.14063,0 -0.29688,-0.0156 -0.29687,0.32812 -0.4375,0.64062 -0.125,0.3125 -0.125,0.6875 z m 6.46695,-1.5 v -0.53125 l 1.0625,-0.1875 q 0.0156,-0.5625 0.0156,-1.20312 0.0156,-0.65625 0.0156,-1.15625 v -0.70313 q 0,-0.59375 -0.0156,-0.98438 0,-0.40625 -0.0312,-0.84375 l -1.15625,-0.14062 v -0.51563 l 2.04687,-0.89062 0.21875,0.15625 0.17188,1.71875 q 0.35937,-0.875 0.9375,-1.375 0.57812,-0.5 1.17187,-0.5 0.32813,0 0.625,0.15625 0.29688,0.14062 0.42188,0.39062 0,1.0625 -0.85938,1.0625 -0.25,0 -0.46875,-0.0937 -0.21875,-0.0937 -0.42187,-0.26562 l -0.1875,-0.15625 q -0.4375,0.3125 -0.73438,0.78125 -0.28125,0.46875 -0.46875,1.10938 v 1.09375 q 0,0.48437 0,1.14062 0,0.64063 0.0156,1.1875 l 1.20312,0.21875 v 0.53125 z m 9.38108,-6.48438 q -0.40625,0 -0.82813,0.23438 -0.40625,0.23437 -0.71875,0.75 -0.29687,0.51562 -0.375,1.35938 h 2.65625 q 0.53125,0 0.70313,-0.21875 0.17187,-0.21876 0.17187,-0.53126 0,-0.42187 -0.21875,-0.78125 -0.21875,-0.35937 -0.57812,-0.57812 -0.35938,-0.23438 -0.8125,-0.23438 z m -0.0156,6.67188 q -1.46875,0 -2.375,-0.95312 -0.89062,-0.96875 -0.89062,-2.65625 0,-1.12501 0.45312,-1.95313 0.46875,-0.84375 1.23438,-1.3125 0.78125,-0.46875 1.6875,-0.46875 0.76562,0 1.375,0.34375 0.625,0.32812 0.98437,0.95312 0.35938,0.625 0.35938,1.51563 0,0.25 -0.0312,0.46875 -0.0156,0.20313 -0.0625,0.35938 h -4.67188 q 0.0312,1.34375 0.67188,2.04687 0.64062,0.70313 1.70312,0.70313 0.70313,0 1.17188,-0.28125 0.46875,-0.28125 0.85937,-0.73438 l 0.34375,0.26563 q -0.40625,0.78125 -1.10937,1.25 -0.70313,0.45312 -1.70313,0.45312 z m 6.49036,0 q -0.625,0 -1.14063,-0.14062 -0.5,-0.14063 -1.04687,-0.40625 l -0.0625,-1.625 h 0.8125 l 0.26562,1.28125 q 0.51563,0.23437 1.1875,0.23437 0.84375,0 1.25,-0.29687 0.40625,-0.3125 0.40625,-0.8125 0,-0.46875 -0.34375,-0.75 -0.34375,-0.29688 -1.03125,-0.53125 l -0.67187,-0.25 q -0.79688,-0.29688 -1.28125,-0.76563 -0.48438,-0.46875 -0.48438,-1.20313 0,-0.54687 0.28125,-1.01562 0.29688,-0.46875 0.85938,-0.76563 0.57812,-0.29687 1.40625,-0.29687 0.59375,0 1.07812,0.15625 0.5,0.15625 0.96875,0.45312 l -0.0625,1.48438 h -0.75 l -0.23437,-1.17188 q -0.5,-0.25 -1.01563,-0.25 -0.67187,0 -1.01562,0.28125 -0.34375,0.26563 -0.34375,0.71875 0,0.48438 0.29687,0.73438 0.29688,0.25 1.04688,0.53125 l 0.45312,0.15625 q 1.09375,0.40625 1.5625,0.9375 0.46875,0.53125 0.46875,1.21875 0,0.5625 -0.32812,1.04688 -0.32813,0.46875 -0.95313,0.76562 -0.625,0.28125 -1.57812,0.28125 z m 6.36084,0 q -0.625,0 -1.14063,-0.14062 -0.5,-0.14063 -1.04687,-0.40625 l -0.0625,-1.625 h 0.8125 l 0.26562,1.28125 q 0.51563,0.23437 1.1875,0.23437 0.84375,0 1.25,-0.29687 0.40625,-0.3125 0.40625,-0.8125 0,-0.46875 -0.34375,-0.75 -0.34375,-0.29688 -1.03125,-0.53125 l -0.67187,-0.25 q -0.79688,-0.29688 -1.28125,-0.76563 -0.48438,-0.46875 -0.48438,-1.20313 0,-0.54687 0.28125,-1.01562 0.29688,-0.46875 0.85938,-0.76563 0.57812,-0.29687 1.40625,-0.29687 0.59375,0 1.07812,0.15625 0.5,0.15625 0.96875,0.45312 l -0.0625,1.48438 h -0.75 l -0.23437,-1.17188 q -0.5,-0.25 -1.01563,-0.25 -0.67187,0 -1.01562,0.28125 -0.34375,0.26563 -0.34375,0.71875 0,0.48438 0.29687,0.73438 0.29688,0.25 1.04688,0.53125 l 0.45312,0.15625 q 1.09375,0.40625 1.5625,0.9375 0.46875,0.53125 0.46875,1.21875 0,0.5625 -0.32812,1.04688 -0.32813,0.46875 -0.95313,0.76562 -0.625,0.28125 -1.57812,0.28125 z m 7.3695,-0.1875 v -0.53125 l 1.15625,-0.20312 q 0.0156,-0.57813 0.0156,-1.15625 0.0156,-0.59375 0.0156,-1.1875 v -3.10938 h -1.21875 v -0.64063 l 1.25,-0.15625 q 0.0937,-1.17187 0.3125,-1.89062 0.23438,-0.73438 0.78125,-1.28125 0.46875,-0.46875 0.98438,-0.64063 0.51562,-0.1875 1.01562,-0.1875 0.5,0 0.89063,0.1875 0.40625,0.1875 0.51562,0.60938 -0.0156,0.28125 -0.25,0.46875 -0.23437,0.1875 -0.65625,0.1875 -0.51562,0 -1.04687,-0.4375 l -0.40625,-0.3125 q -0.0625,0.0312 -0.125,0.0781 -0.0469,0.0469 -0.0937,0.0937 -0.375,0.375 -0.57813,1.15625 -0.1875,0.76563 -0.15625,1.98438 h 2.01563 v 0.78125 h -2 v 3.10938 q 0,0.59375 0,1.17187 0.0156,0.57813 0.0312,1.15625 l 1.32812,0.21875 v 0.53125 z m 8.4527,0.1875 q -0.84375,0 -1.625,-0.39062 -0.76562,-0.40625 -1.25,-1.21875 -0.48437,-0.82813 -0.48437,-2.01563 0,-1.21875 0.48437,-2.04688 0.48438,-0.82812 1.25,-1.25 0.78125,-0.42187 1.625,-0.42187 0.84375,0 1.60938,0.42187 0.78125,0.42188 1.26562,1.25 0.5,0.82813 0.5,2.04688 0,1.1875 -0.5,2.01563 -0.48437,0.8125 -1.26562,1.21875 -0.76563,0.39062 -1.60938,0.39062 z m 0,-0.65625 q 0.95313,0 1.46875,-0.75 0.51563,-0.76562 0.51563,-2.21875 0,-1.48438 -0.51563,-2.26563 -0.51562,-0.78125 -1.46875,-0.78125 -0.95312,0 -1.46875,0.78125 -0.5,0.78125 -0.5,2.26563 0,1.45313 0.5,2.21875 0.51563,0.75 1.46875,0.75 z m 4.64008,0.46875 v -0.53125 l 1.06247,-0.1875 q 0.0156,-0.5625 0.0156,-1.20312 0.0156,-0.65625 0.0156,-1.15625 v -0.70313 q 0,-0.59375 -0.0156,-0.98438 0,-0.40625 -0.0312,-0.84375 l -1.15622,-0.14062 v -0.51563 l 2.04685,-0.89062 0.21875,0.15625 0.17187,1.71875 q 0.35938,-0.875 0.9375,-1.375 0.57813,-0.5 1.17188,-0.5 0.32812,0 0.625,0.15625 0.29687,0.14062 0.42187,0.39062 0,1.0625 -0.85937,1.0625 -0.25,0 -0.46875,-0.0937 -0.21875,-0.0937 -0.42188,-0.26562 l -0.1875,-0.15625 q -0.4375,0.3125 -0.73437,0.78125 -0.28125,0.46875 -0.46875,1.10938 v 1.09375 q 0,0.48437 0,1.14062 0,0.64063 0.0156,1.1875 l 1.20313,0.21875 v 0.53125 z m 14.11191,-6.39063 v -0.57812 h 2.67187 v 0.57812 l -0.78125,0.1875 -2.14062,6.29688 h -0.54688 l -1.90625,-5.20313 -1.9375,5.20313 h -0.54687 l -2.35938,-6.34375 -0.82812,-0.14063 v -0.57812 h 3.34375 v 0.57812 l -1.14063,0.17188 1.5,4.5 1.64063,-4.5 -1.07813,-0.17188 v -0.57812 h 3.23438 v 0.57812 l -1.07813,0.1875 1.67188,4.46876 1.35937,-4.45313 z m 8.68152,6.53126 q -0.53125,0 -0.89063,-0.29688 -0.34375,-0.3125 -0.42187,-0.82812 -0.60938,0.59375 -1.0625,0.89062 -0.45313,0.28125 -1.09375,0.28125 -0.8125,0 -1.39063,-0.45312 -0.57812,-0.46875 -0.57812,-1.375 0,-0.42188 0.20312,-0.78125 0.20313,-0.375 0.71875,-0.71875 0.53125,-0.35938 1.51563,-0.71875 0.32812,-0.10938 0.76562,-0.23438 0.45313,-0.14062 0.89063,-0.25 v -0.35938 q 0,-1.07812 -0.32813,-1.42187 -0.3125,-0.35938 -1.04687,-0.35938 -0.17188,0 -0.375,0.0156 -0.1875,0.0156 -0.42188,0.0781 l -0.28125,0.95313 q -0.20312,0.70312 -0.76562,0.70312 -0.60938,0 -0.6875,-0.59375 0.21875,-0.84375 0.98437,-1.32812 0.76563,-0.5 1.875,-0.5 1.15625,0 1.71875,0.57812 0.5625,0.57813 0.5625,1.96875 v 3.12501 q 0,0.46875 0.14063,0.67187 0.14062,0.20313 0.375,0.20313 0.20312,0 0.32812,-0.0937 0.14063,-0.0937 0.25,-0.23438 l 0.29688,0.32813 q -0.26563,0.42187 -0.57813,0.59375 -0.3125,0.15625 -0.70312,0.15625 z m -4.125,-2 q 0,0.57812 0.32812,0.82812 0.34375,0.25 0.84375,0.25 0.21875,0 0.40625,-0.0469 0.20313,-0.0625 0.48438,-0.23438 0.28125,-0.17187 0.71875,-0.48437 v -2.25 q -0.375,0.10937 -0.75,0.23437 -0.35938,0.125 -0.59375,0.20313 -0.64063,0.25 -0.95313,0.51562 -0.29687,0.26563 -0.39062,0.51563 -0.0937,0.25 -0.0937,0.46875 z m 6.02734,1.85937 v -0.53125 l 1.0625,-0.1875 q 0.0156,-0.5625 0.0156,-1.20312 0.0156,-0.65625 0.0156,-1.15625 v -0.70313 q 0,-0.59375 -0.0156,-0.98438 0,-0.40625 -0.0312,-0.84375 l -1.15625,-0.14062 v -0.51563 l 2.04688,-0.89062 0.21875,0.15625 0.17187,1.71875 q 0.35938,-0.875 0.9375,-1.375 0.57813,-0.5 1.17188,-0.5 0.32812,0 0.625,0.15625 0.29687,0.14062 0.42187,0.39062 0,1.0625 -0.85937,1.0625 -0.25,0 -0.46875,-0.0937 -0.21875,-0.0937 -0.42188,-0.26562 l -0.1875,-0.15625 q -0.4375,0.3125 -0.73437,0.78125 -0.28125,0.46875 -0.46875,1.10938 v 1.09375 q 0,0.48437 0,1.14062 0,0.64063 0.0156,1.1875 l 1.20313,0.21875 v 0.53125 z m 7.42792,-3.4375 q 0,1.42188 0.57812,2.10938 0.57813,0.6875 1.45313,0.6875 0.48437,0 0.85937,-0.20313 0.375,-0.20312 0.78125,-0.65625 v -4.0625 q -0.5,-0.4375 -0.89062,-0.59375 -0.39063,-0.15625 -0.76563,-0.15625 -0.54687,0 -1.01562,0.29687 -0.45313,0.29688 -0.73438,0.9375 -0.26562,0.64063 -0.26562,1.64063 z m 3.8125,3.57813 -0.0937,-1 q -0.39063,0.5 -0.875,0.78125 -0.48438,0.26562 -1.17188,0.26562 -0.90625,0 -1.57812,-0.45312 -0.67188,-0.45313 -1.04688,-1.26563 -0.375,-0.8125 -0.375,-1.89062 0,-1.12501 0.40625,-1.95313 0.42188,-0.84375 1.125,-1.3125 0.70313,-0.46875 1.59375,-0.46875 0.51563,0 0.98438,0.21875 0.48437,0.20312 0.9375,0.73437 v -3.3125 l -1.25,-0.14062 v -0.51563 l 2.28125,-0.65625 0.21875,0.10938 -0.0625,2.09375 v 7.92188 l 1.1875,0.17187 v 0.53125 z"
       fill-rule="nonzero"
       id="path21" />
    <path
       fill="#1c4587"
       d="m 427.24902,142.07127 h 142.58942 v 29.48032 H 427.24902 Z"
       fill-rule="evenodd"
       id="path23" />
    <path
       fill="#ffffff"
       d="m 444.39206,152.68831 v -0.60938 h 7.29688 l 0.10937,2.60938 h -0.84375 l -0.3125,-1.875 h -3.45312 q -0.0156,0.9375 -0.0156,1.875 0,0.9375 0,1.85937 h 2.14063 l 0.21875,-1.39062 h 0.67187 v 3.45312 h -0.67187 l -0.20313,-1.375 h -2.15625 q 0,1.09375 0,2.0625 0,0.95313 0.0156,1.85938 h 3.75 l 0.3125,-1.875 h 0.84375 l -0.10938,2.60937 h -7.59375 v -0.59375 l 1.35938,-0.17187 q 0.0156,-0.92188 0.0156,-1.875 0,-0.95313 0,-1.90625 v -0.71875 q 0,-0.95313 0,-1.89063 0,-0.95312 -0.0156,-1.89062 z m 11.51923,6.26562 q 0.70312,0 1.09375,-0.51562 0.40625,-0.53125 0.40625,-1.34375 0,-0.76563 -0.375,-1.25 -0.375,-0.5 -1.0625,-0.5 -0.6875,0 -1.09375,0.5 -0.39063,0.5 -0.39063,1.3125 0,0.8125 0.375,1.3125 0.375,0.48437 1.04688,0.48437 z m 0.0312,0.59375 q -0.5625,0 -1.07813,-0.15625 -0.375,0.46875 -0.375,0.9375 0,0.28125 0.17188,0.46875 0.17187,0.17188 0.6875,0.17188 h 1.92187 q 1.20313,0 1.78125,0.5 0.57813,0.5 0.57813,1.39062 0,0.625 -0.40625,1.20313 -0.40625,0.59375 -1.21875,0.95312 -0.79688,0.375 -2,0.375 -1.59375,0 -2.3125,-0.5 -0.71875,-0.5 -0.71875,-1.26562 0,-0.46875 0.3125,-0.875 0.3125,-0.40625 1.125,-0.79688 -0.96875,-0.26562 -0.96875,-1.125 0,-0.34375 0.21875,-0.71875 0.23437,-0.39062 0.78125,-0.90625 -0.53125,-0.28125 -0.84375,-0.79687 -0.29688,-0.51563 -0.29688,-1.26563 0,-1.15625 0.75,-1.78125 0.76563,-0.625 1.90625,-0.625 1.15625,0 1.85938,0.57813 l 1.65625,-0.57813 0.21875,0.15625 v 0.92188 h -1.4375 q 0.34375,0.53125 0.34375,1.32812 0,1.15625 -0.76563,1.78125 -0.75,0.625 -1.89062,0.625 z m -1.76563,3.84375 q 0,0.71875 0.5,1.01563 0.51563,0.3125 1.39063,0.3125 1.20312,0 1.82812,-0.4375 0.625,-0.42188 0.625,-1.04688 0,-0.48437 -0.34375,-0.8125 -0.32812,-0.32812 -1.125,-0.32812 h -1.70312 q -0.15625,0 -0.3125,-0.0156 -0.14063,0 -0.29688,-0.0156 -0.29687,0.32812 -0.4375,0.64062 -0.125,0.3125 -0.125,0.6875 z m 6.46695,-1.5 v -0.53125 l 1.0625,-0.1875 q 0.0156,-0.5625 0.0156,-1.20312 0.0156,-0.65625 0.0156,-1.15625 v -0.70313 q 0,-0.59375 -0.0156,-0.98437 0,-0.40625 -0.0312,-0.84375 l -1.15625,-0.14063 v -0.51562 l 2.04687,-0.89063 0.21875,0.15625 0.17188,1.71875 q 0.35937,-0.875 0.9375,-1.375 0.57812,-0.5 1.17187,-0.5 0.32813,0 0.625,0.15625 0.29688,0.14063 0.42188,0.39063 0,1.0625 -0.85938,1.0625 -0.25,0 -0.46875,-0.0937 -0.21875,-0.0937 -0.42187,-0.26563 l -0.1875,-0.15625 q -0.4375,0.3125 -0.73438,0.78125 -0.28125,0.46875 -0.46875,1.10938 v 1.09375 q 0,0.48437 0,1.14062 0,0.64063 0.0156,1.1875 l 1.20312,0.21875 v 0.53125 z m 9.38107,-6.48437 q -0.40625,0 -0.82812,0.23437 -0.40625,0.23438 -0.71875,0.75 -0.29688,0.51563 -0.375,1.35938 h 2.65625 q 0.53125,0 0.70312,-0.21875 0.17188,-0.21875 0.17188,-0.53125 0,-0.42188 -0.21875,-0.78125 -0.21875,-0.35938 -0.57813,-0.57813 -0.35937,-0.23437 -0.8125,-0.23437 z m -0.0156,6.67187 q -1.46875,0 -2.375,-0.95312 -0.89063,-0.96875 -0.89063,-2.65625 0,-1.125 0.45313,-1.95313 0.46875,-0.84375 1.23437,-1.3125 0.78125,-0.46875 1.6875,-0.46875 0.76563,0 1.375,0.34375 0.625,0.32813 0.98438,0.95313 0.35937,0.625 0.35937,1.51562 0,0.25 -0.0312,0.46875 -0.0156,0.20313 -0.0625,0.35938 h -4.67187 q 0.0312,1.34375 0.67187,2.04687 0.64063,0.70313 1.70313,0.70313 0.70312,0 1.17187,-0.28125 0.46875,-0.28125 0.85938,-0.73438 l 0.34375,0.26563 q -0.40625,0.78125 -1.10938,1.25 -0.70312,0.45312 -1.70312,0.45312 z m 6.49035,0 q -0.625,0 -1.14062,-0.14062 -0.5,-0.14063 -1.04688,-0.40625 l -0.0625,-1.625 h 0.8125 l 0.26563,1.28125 q 0.51562,0.23437 1.1875,0.23437 0.84375,0 1.25,-0.29687 0.40625,-0.3125 0.40625,-0.8125 0,-0.46875 -0.34375,-0.75 -0.34375,-0.29688 -1.03125,-0.53125 l -0.67188,-0.25 q -0.79687,-0.29688 -1.28125,-0.76563 -0.48437,-0.46875 -0.48437,-1.20312 0,-0.54688 0.28125,-1.01563 0.29687,-0.46875 0.85937,-0.76562 0.57813,-0.29688 1.40625,-0.29688 0.59375,0 1.07813,0.15625 0.5,0.15625 0.96875,0.45313 l -0.0625,1.48437 h -0.75 l -0.23438,-1.17187 q -0.5,-0.25 -1.01562,-0.25 -0.67188,0 -1.01563,0.28125 -0.34375,0.26562 -0.34375,0.71875 0,0.48437 0.29688,0.73437 0.29687,0.25 1.04687,0.53125 l 0.45313,0.15625 q 1.09375,0.40625 1.5625,0.9375 0.46875,0.53125 0.46875,1.21875 0,0.5625 -0.32813,1.04688 -0.32812,0.46875 -0.95312,0.76562 -0.625,0.28125 -1.57813,0.28125 z m 6.36084,0 q -0.625,0 -1.14062,-0.14062 -0.5,-0.14063 -1.04688,-0.40625 l -0.0625,-1.625 h 0.8125 l 0.26563,1.28125 q 0.51562,0.23437 1.1875,0.23437 0.84375,0 1.25,-0.29687 0.40625,-0.3125 0.40625,-0.8125 0,-0.46875 -0.34375,-0.75 -0.34375,-0.29688 -1.03125,-0.53125 l -0.67188,-0.25 q -0.79687,-0.29688 -1.28125,-0.76563 -0.48437,-0.46875 -0.48437,-1.20312 0,-0.54688 0.28125,-1.01563 0.29687,-0.46875 0.85937,-0.76562 0.57813,-0.29688 1.40625,-0.29688 0.59375,0 1.07813,0.15625 0.5,0.15625 0.96875,0.45313 l -0.0625,1.48437 h -0.75 l -0.23438,-1.17187 q -0.5,-0.25 -1.01562,-0.25 -0.67188,0 -1.01563,0.28125 -0.34375,0.26562 -0.34375,0.71875 0,0.48437 0.29688,0.73437 0.29687,0.25 1.04687,0.53125 l 0.45313,0.15625 q 1.09375,0.40625 1.5625,0.9375 0.46875,0.53125 0.46875,1.21875 0,0.5625 -0.32813,1.04688 -0.32812,0.46875 -0.95312,0.76562 -0.625,0.28125 -1.57813,0.28125 z m 7.27576,-0.1875 v -0.53125 l 1.09375,-0.1875 q 0.0156,-0.5625 0.0156,-1.20312 0.0156,-0.65625 0.0156,-1.15625 v -6.4375 l -1.20312,-0.14063 v -0.51562 l 2.25,-0.65625 0.20312,0.10937 -0.0625,2.09375 v 2.59375 q 0.53125,-0.57812 1.09375,-0.84375 0.5625,-0.28125 1.17188,-0.28125 0.78125,0 1.40625,0.4375 0.625,0.42188 1,1.23438 0.375,0.79687 0.375,1.9375 0,1.125 -0.40625,1.96875 -0.39063,0.84375 -1.07813,1.3125 -0.67187,0.45312 -1.53125,0.45312 -0.51562,0 -1.03125,-0.21875 -0.51562,-0.21875 -1,-0.8125 l -0.10937,0.98438 z m 4.17188,-6.3125 q -0.32813,0 -0.76563,0.17188 -0.4375,0.17187 -1.04687,0.67187 v 4.01563 q 0.45312,0.42187 0.89062,0.625 0.45313,0.1875 0.85938,0.1875 0.76562,0 1.34375,-0.6875 0.59375,-0.6875 0.59375,-2.09375 0,-1.42188 -0.53125,-2.15625 -0.51563,-0.73438 -1.34375,-0.73438 z m 9.94107,6.45313 q -0.53125,0 -0.89063,-0.29688 -0.34375,-0.3125 -0.42187,-0.82812 -0.60938,0.59375 -1.0625,0.89062 -0.45313,0.28125 -1.09375,0.28125 -0.8125,0 -1.39063,-0.45312 -0.57812,-0.46875 -0.57812,-1.375 0,-0.42188 0.20312,-0.78125 0.20313,-0.375 0.71875,-0.71875 0.53125,-0.35938 1.51563,-0.71875 0.32812,-0.10938 0.76562,-0.23438 0.45313,-0.14062 0.89063,-0.25 v -0.35937 q 0,-1.07813 -0.32813,-1.42188 -0.3125,-0.35937 -1.04687,-0.35937 -0.17188,0 -0.375,0.0156 -0.1875,0.0156 -0.42188,0.0781 l -0.28125,0.95312 q -0.20312,0.70313 -0.76562,0.70313 -0.60938,0 -0.6875,-0.59375 0.21875,-0.84375 0.98437,-1.32813 0.76563,-0.5 1.875,-0.5 1.15625,0 1.71875,0.57813 0.5625,0.57812 0.5625,1.96875 v 3.125 q 0,0.46875 0.14063,0.67187 0.14062,0.20313 0.375,0.20313 0.20312,0 0.32812,-0.0937 0.14063,-0.0937 0.25,-0.23438 l 0.29688,0.32813 q -0.26563,0.42187 -0.57813,0.59375 -0.3125,0.15625 -0.70312,0.15625 z m -4.125,-2 q 0,0.57812 0.32812,0.82812 0.34375,0.25 0.84375,0.25 0.21875,0 0.40625,-0.0469 0.20313,-0.0625 0.48438,-0.23438 0.28125,-0.17187 0.71875,-0.48437 v -2.25 q -0.375,0.10937 -0.75,0.23437 -0.35938,0.125 -0.59375,0.20313 -0.64063,0.25 -0.95313,0.51562 -0.29687,0.26563 -0.39062,0.51563 -0.0937,0.25 -0.0937,0.46875 z m 9.39755,2.04687 q -1.5,0 -2.40625,-0.96875 -0.89062,-0.98437 -0.89062,-2.67187 0,-1.15625 0.46875,-1.98438 0.48437,-0.82812 1.26562,-1.26562 0.78125,-0.45313 1.65625,-0.45313 0.65625,0 1.21875,0.25 0.5625,0.25 0.92188,0.6875 0.35934,0.42188 0.45309,0.96875 -0.0937,0.5625 -0.67184,0.5625 -0.35938,0 -0.54688,-0.1875 -0.1875,-0.20312 -0.26562,-0.51562 l -0.26563,-0.96875 q -0.20312,-0.0781 -0.40625,-0.0937 -0.1875,-0.0312 -0.375,-0.0312 -0.9375,0 -1.54687,0.73437 -0.60938,0.73438 -0.60938,2.14063 0,1.375 0.65625,2.10937 0.65625,0.73438 1.6875,0.73438 0.625,0 1.15625,-0.28125 0.53125,-0.28125 0.85938,-0.82813 l 0.37496,0.1875 q -0.31246,0.90625 -0.99996,1.39063 -0.6875,0.48437 -1.73438,0.48437 z m 3.44406,-0.1875 v -0.53125 l 1.17188,-0.20312 q 0.0156,-0.57813 0.0156,-1.17188 0.0156,-0.59375 0.0156,-1.17187 v -6.4375 l -1.20313,-0.14063 v -0.51562 l 2.29688,-0.65625 0.20312,0.10937 -0.0625,2.09375 v 5.10938 l 2.51563,-2.60938 -1.09375,-0.26562 v -0.57813 h 3.42187 v 0.57813 l -1.375,0.20312 -1.625,1.65625 2.40625,3.82813 0.96875,0.17187 v 0.53125 h -1.98437 l -2.26563,-3.64062 -0.96875,1 q 0,0.46875 0,0.95312 0.0156,0.48438 0.0312,0.95313 l 1.17188,0.20312 v 0.53125 z m 16.03266,-6.39062 v -0.57813 h 2.67187 v 0.57813 l -0.78125,0.1875 -2.14062,6.29687 h -0.54688 l -1.90625,-5.20312 -1.9375,5.20312 h -0.54687 l -2.35938,-6.34375 -0.82812,-0.14062 v -0.57813 h 3.34375 v 0.57813 l -1.14063,0.17187 1.5,4.5 1.64063,-4.5 -1.07813,-0.17187 v -0.57813 h 3.23438 v 0.57813 l -1.07813,0.1875 1.67188,4.46875 1.35937,-4.45313 z m 8.68145,6.53125 q -0.53125,0 -0.89062,-0.29688 -0.34375,-0.3125 -0.42188,-0.82812 -0.60937,0.59375 -1.0625,0.89062 -0.45312,0.28125 -1.09375,0.28125 -0.8125,0 -1.39062,-0.45312 -0.57813,-0.46875 -0.57813,-1.375 0,-0.42188 0.20313,-0.78125 0.20312,-0.375 0.71875,-0.71875 0.53125,-0.35938 1.51562,-0.71875 0.32813,-0.10938 0.76563,-0.23438 0.45312,-0.14062 0.89062,-0.25 v -0.35937 q 0,-1.07813 -0.32812,-1.42188 -0.3125,-0.35937 -1.04688,-0.35937 -0.17187,0 -0.375,0.0156 -0.1875,0.0156 -0.42187,0.0781 l -0.28125,0.95312 q -0.20313,0.70313 -0.76563,0.70313 -0.60937,0 -0.6875,-0.59375 0.21875,-0.84375 0.98438,-1.32813 0.76562,-0.5 1.875,-0.5 1.15625,0 1.71875,0.57813 0.5625,0.57812 0.5625,1.96875 v 3.125 q 0,0.46875 0.14062,0.67187 0.14063,0.20313 0.375,0.20313 0.20313,0 0.32813,-0.0937 0.14062,-0.0937 0.25,-0.23438 l 0.29687,0.32813 q -0.26562,0.42187 -0.57812,0.59375 -0.3125,0.15625 -0.70313,0.15625 z m -4.125,-2 q 0,0.57812 0.32813,0.82812 0.34375,0.25 0.84375,0.25 0.21875,0 0.40625,-0.0469 0.20312,-0.0625 0.48437,-0.23438 0.28125,-0.17187 0.71875,-0.48437 v -2.25 q -0.375,0.10937 -0.75,0.23437 -0.35937,0.125 -0.59375,0.20313 -0.64062,0.25 -0.95312,0.51562 -0.29688,0.26563 -0.39063,0.51563 -0.0937,0.25 -0.0937,0.46875 z m 6.02735,1.85937 v -0.53125 l 1.0625,-0.1875 q 0.0156,-0.5625 0.0156,-1.20312 0.0156,-0.65625 0.0156,-1.15625 v -0.70313 q 0,-0.59375 -0.0156,-0.98437 0,-0.40625 -0.0312,-0.84375 l -1.15625,-0.14063 v -0.51562 l 2.04688,-0.89063 0.21875,0.15625 0.17187,1.71875 q 0.35938,-0.875 0.9375,-1.375 0.57813,-0.5 1.17188,-0.5 0.32812,0 0.625,0.15625 0.29687,0.14063 0.42187,0.39063 0,1.0625 -0.85937,1.0625 -0.25,0 -0.46875,-0.0937 -0.21875,-0.0937 -0.42188,-0.26563 l -0.1875,-0.15625 q -0.4375,0.3125 -0.73437,0.78125 -0.28125,0.46875 -0.46875,1.10938 v 1.09375 q 0,0.48437 0,1.14062 0,0.64063 0.0156,1.1875 l 1.20313,0.21875 v 0.53125 z m 7.42798,-3.4375 q 0,1.42188 0.57812,2.10938 0.57813,0.6875 1.45313,0.6875 0.48437,0 0.85937,-0.20313 0.375,-0.20312 0.78125,-0.65625 v -4.0625 q -0.5,-0.4375 -0.89062,-0.59375 -0.39063,-0.15625 -0.76563,-0.15625 -0.54687,0 -1.01562,0.29688 -0.45313,0.29687 -0.73438,0.9375 -0.26562,0.64062 -0.26562,1.64062 z m 3.8125,3.57813 -0.0937,-1 q -0.39063,0.5 -0.875,0.78125 -0.48438,0.26562 -1.17188,0.26562 -0.90625,0 -1.57812,-0.45312 -0.67188,-0.45313 -1.04688,-1.26563 -0.375,-0.8125 -0.375,-1.89062 0,-1.125 0.40625,-1.95313 0.42188,-0.84375 1.125,-1.3125 0.70313,-0.46875 1.59375,-0.46875 0.51563,0 0.98438,0.21875 0.48437,0.20313 0.9375,0.73438 v -3.3125 l -1.25,-0.14063 v -0.51562 l 2.28125,-0.65625 0.21875,0.10937 -0.0625,2.09375 v 7.92188 l 1.1875,0.17187 v 0.53125 z"
       fill-rule="nonzero"
       id="path25" />
    <path
       fill="#3d85c6"
       d="m 427.24902,171.55252 h 142.58942 v 29.48032 H 427.24902 Z"
       fill-rule="evenodd"
       id="path27" />
    <path
       fill="#ffffff"
       d="m 461.6089,191.59143 q -1.48438,0 -2.60938,-0.64063 -1.10937,-0.65625 -1.73437,-1.8125 -0.625,-1.17187 -0.625,-2.67187 0,-1.125 0.375,-2.04688 0.375,-0.9375 1.03125,-1.625 0.67187,-0.6875 1.57812,-1.0625 0.90625,-0.39062 1.96875,-0.39062 0.60938,0 1.34375,0.14062 0.75,0.14063 1.48438,0.5625 l 0.0625,2.125 h -0.90625 l -0.29688,-1.6875 q -0.39062,-0.21875 -0.76562,-0.3125 -0.375,-0.0937 -0.73438,-0.0937 -0.98437,0 -1.79687,0.5 -0.79688,0.5 -1.28125,1.48438 -0.46875,0.96875 -0.46875,2.40625 0,1.4375 0.4375,2.42187 0.45312,0.96875 1.23437,1.46875 0.78125,0.5 1.78125,0.5 0.42188,0 0.85938,-0.0937 0.45312,-0.0937 0.875,-0.29687 l 0.29687,-1.70313 h 0.90625 l -0.0469,2.125 q -0.6875,0.35938 -1.4375,0.53125 -0.75,0.17188 -1.53125,0.17188 z m 6.71082,-0.0312 q -0.89063,0 -1.40625,-0.59375 -0.51563,-0.59375 -0.5,-2.04688 l 0.0469,-3.64062 -1.04687,-0.21875 v -0.53125 l 2.15625,-0.20313 0.15625,0.14063 -0.0781,2.0625 v 2.26562 q 0,0.95313 0.29688,1.34375 0.29687,0.39063 0.875,0.39063 1.03125,0 2.04687,-0.95313 l 0.0469,-4.3125 -1.03125,-0.20312 v -0.53125 l 2.125,-0.20313 0.14062,0.14063 -0.0469,2.0625 v 4.10937 l 1,0.20313 v 0.53125 l -2.03125,0.125 -0.15625,-1.3125 q -0.57813,0.71875 -1.25,1.04687 -0.67188,0.32813 -1.34375,0.32813 z m 5.88839,-0.1875 v -0.53125 l 1.0625,-0.1875 q 0.0156,-0.5625 0.0156,-1.20313 0.0156,-0.65625 0.0156,-1.15625 v -0.70312 q 0,-0.59375 -0.0156,-0.98438 0,-0.40625 -0.0312,-0.84375 l -1.15625,-0.14062 v -0.51563 l 2.04687,-0.89062 0.21875,0.15625 0.17188,1.71875 q 0.35937,-0.875 0.9375,-1.375 0.57812,-0.5 1.17187,-0.5 0.32813,0 0.625,0.15625 0.29688,0.14062 0.42188,0.39062 0,1.0625 -0.85938,1.0625 -0.25,0 -0.46875,-0.0937 -0.21875,-0.0937 -0.42187,-0.26562 l -0.1875,-0.15625 q -0.4375,0.3125 -0.73438,0.78125 -0.28125,0.46875 -0.46875,1.10937 v 1.09375 q 0,0.48438 0,1.14063 0,0.64062 0.0156,1.1875 l 1.20312,0.21875 v 0.53125 z m 6.19962,0 v -0.53125 l 1.0625,-0.1875 q 0.0156,-0.5625 0.0156,-1.20313 0.0156,-0.65625 0.0156,-1.15625 v -0.70312 q 0,-0.59375 -0.0156,-0.98438 0,-0.40625 -0.0312,-0.84375 l -1.15625,-0.14062 v -0.51563 l 2.04688,-0.89062 0.21875,0.15625 0.17187,1.71875 q 0.35938,-0.875 0.9375,-1.375 0.57813,-0.5 1.17188,-0.5 0.32812,0 0.625,0.15625 0.29687,0.14062 0.42187,0.39062 0,1.0625 -0.85937,1.0625 -0.25,0 -0.46875,-0.0937 -0.21875,-0.0937 -0.42188,-0.26562 l -0.1875,-0.15625 q -0.4375,0.3125 -0.73437,0.78125 -0.28125,0.46875 -0.46875,1.10937 v 1.09375 q 0,0.48438 0,1.14063 0,0.64062 0.0156,1.1875 l 1.20313,0.21875 v 0.53125 z m 9.38107,-6.48438 q -0.40625,0 -0.82812,0.23438 -0.40625,0.23437 -0.71875,0.75 -0.29688,0.51562 -0.375,1.35937 h 2.65625 q 0.53125,0 0.70312,-0.21875 0.17188,-0.21875 0.17188,-0.53125 0,-0.42187 -0.21875,-0.78125 -0.21875,-0.35937 -0.57813,-0.57812 -0.35937,-0.23438 -0.8125,-0.23438 z m -0.0156,6.67188 q -1.46875,0 -2.375,-0.95313 -0.89063,-0.96875 -0.89063,-2.65625 0,-1.125 0.45313,-1.95312 0.46875,-0.84375 1.23437,-1.3125 0.78125,-0.46875 1.6875,-0.46875 0.76563,0 1.375,0.34375 0.625,0.32812 0.98438,0.95312 0.35937,0.625 0.35937,1.51563 0,0.25 -0.0312,0.46875 -0.0156,0.20312 -0.0625,0.35937 h -4.67187 q 0.0312,1.34375 0.67187,2.04688 0.64063,0.70312 1.70313,0.70312 0.70312,0 1.17187,-0.28125 0.46875,-0.28125 0.85938,-0.73437 l 0.34375,0.26562 q -0.40625,0.78125 -1.10938,1.25 -0.70312,0.45313 -1.70312,0.45313 z m 4.14657,-0.1875 v -0.53125 l 1.07813,-0.20313 q 0.0156,-0.5625 0.0156,-1.20312 0.0156,-0.64063 0.0156,-1.14063 v -0.70312 q 0,-0.59375 -0.0156,-0.98438 0,-0.40625 -0.0312,-0.84375 l -1.15625,-0.14062 v -0.51563 l 2.04688,-0.89062 0.21875,0.15625 0.125,1.17187 q 0.53125,-0.59375 1.23437,-0.95312 0.71875,-0.375 1.39063,-0.375 0.95312,0 1.40625,0.64062 0.46875,0.64063 0.46875,2.07813 v 1.35937 q 0,0.5 0,1.14063 0.0156,0.64062 0.0312,1.20312 l 1.01562,0.20313 v 0.53125 h -3.39062 v -0.53125 l 1.07812,-0.20313 q 0.0156,-0.54687 0.0156,-1.1875 0.0156,-0.65625 0.0156,-1.15625 v -1.25 q 0,-1 -0.29687,-1.375 -0.28125,-0.39062 -0.92188,-0.39062 -0.5,0 -0.96875,0.20312 -0.46875,0.20313 -1.01562,0.67188 v 2.14062 q 0,0.48438 0,1.14063 0,0.64062 0.0156,1.20312 l 1.01563,0.20313 v 0.53125 z m 11.21463,0.1875 q -0.75,0 -1.21875,-0.40625 -0.45312,-0.40625 -0.45312,-1.26563 0,-0.28125 0,-0.54687 0.0156,-0.26563 0.0156,-0.6875 v -3.46875 h -1.21875 v -0.64063 l 1.3125,-0.15625 0.375,-1.96875 h 0.89063 l -0.0937,1.98438 h 1.98437 v 0.78125 h -2 v 4.54687 q 0,0.5625 0.21875,0.8125 0.21875,0.25 0.59375,0.25 0.25,0 0.46875,-0.0937 0.23438,-0.10937 0.5,-0.29687 l 0.35938,0.375 q -0.59375,0.78125 -1.73438,0.78125 z m 8.11575,0 q -0.625,0 -1.14062,-0.14063 -0.50003,-0.14062 -1.04691,-0.40625 l -0.0625,-1.625 h 0.8125 l 0.26566,1.28125 q 0.51562,0.23438 1.1875,0.23438 0.84375,0 1.25,-0.29688 0.40625,-0.3125 0.40625,-0.8125 0,-0.46875 -0.34375,-0.75 -0.34375,-0.29687 -1.03125,-0.53125 l -0.67188,-0.25 q -0.79687,-0.29687 -1.28128,-0.76562 -0.48437,-0.46875 -0.48437,-1.20313 0,-0.54687 0.28125,-1.01562 0.29687,-0.46875 0.8594,-0.76563 0.57813,-0.29687 1.40625,-0.29687 0.59375,0 1.07813,0.15625 0.5,0.15625 0.96875,0.45312 l -0.0625,1.48438 h -0.75 l -0.23438,-1.17188 q -0.5,-0.25 -1.01562,-0.25 -0.67188,0 -1.01563,0.28125 -0.34375,0.26563 -0.34375,0.71875 0,0.48438 0.29688,0.73438 0.29687,0.25 1.04687,0.53125 l 0.45313,0.15625 q 1.09375,0.40625 1.5625,0.9375 0.46875,0.53125 0.46875,1.21875 0,0.5625 -0.32813,1.04687 -0.32812,0.46875 -0.95312,0.76563 -0.625,0.28125 -1.57813,0.28125 z m 6.42334,0 q -0.75,0 -1.21875,-0.40625 -0.45312,-0.40625 -0.45312,-1.26563 0,-0.28125 0,-0.54687 0.0156,-0.26563 0.0156,-0.6875 v -3.46875 h -1.21875 v -0.64063 l 1.3125,-0.15625 0.375,-1.96875 h 0.89063 l -0.0937,1.98438 h 1.98437 v 0.78125 h -2 v 4.54687 q 0,0.5625 0.21875,0.8125 0.21875,0.25 0.59375,0.25 0.25,0 0.46875,-0.0937 0.23438,-0.10937 0.5,-0.29687 l 0.35938,0.375 q -0.59375,0.78125 -1.73438,0.78125 z m 7.85706,-0.0469 q -0.53125,0 -0.89062,-0.29687 -0.34375,-0.3125 -0.42188,-0.82813 -0.60937,0.59375 -1.0625,0.89063 -0.45312,0.28125 -1.09375,0.28125 -0.8125,0 -1.39062,-0.45313 -0.57813,-0.46875 -0.57813,-1.375 0,-0.42187 0.20313,-0.78125 0.20312,-0.375 0.71875,-0.71875 0.53125,-0.35937 1.51562,-0.71875 0.32813,-0.10937 0.76563,-0.23437 0.45312,-0.14063 0.89062,-0.25 v -0.35938 q 0,-1.07812 -0.32812,-1.42187 -0.3125,-0.35938 -1.04688,-0.35938 -0.17187,0 -0.375,0.0156 -0.1875,0.0156 -0.42187,0.0781 l -0.28125,0.95313 q -0.20313,0.70312 -0.76563,0.70312 -0.60937,0 -0.6875,-0.59375 0.21875,-0.84375 0.98438,-1.32812 0.76562,-0.5 1.875,-0.5 1.15625,0 1.71875,0.57812 0.5625,0.57813 0.5625,1.96875 v 3.125 q 0,0.46875 0.14062,0.67188 0.14063,0.20312 0.375,0.20312 0.20313,0 0.32813,-0.0937 0.14062,-0.0937 0.25,-0.23437 l 0.29687,0.32812 q -0.26562,0.42188 -0.57812,0.59375 -0.3125,0.15625 -0.70313,0.15625 z m -4.125,-2 q 0,0.57813 0.32813,0.82813 0.34375,0.25 0.84375,0.25 0.21875,0 0.40625,-0.0469 0.20312,-0.0625 0.48437,-0.23437 0.28125,-0.17188 0.71875,-0.48438 v -2.25 q -0.375,0.10938 -0.75,0.23438 -0.35937,0.125 -0.59375,0.20312 -0.64062,0.25 -0.95312,0.51563 -0.29688,0.26562 -0.39063,0.51562 -0.0937,0.25 -0.0937,0.46875 z m 8.49127,2.04688 q -0.75,0 -1.21875,-0.40625 -0.45312,-0.40625 -0.45312,-1.26563 0,-0.28125 0,-0.54687 0.0156,-0.26563 0.0156,-0.6875 v -3.46875 h -1.21875 v -0.64063 l 1.3125,-0.15625 0.375,-1.96875 h 0.89063 l -0.0937,1.98438 h 1.98437 v 0.78125 h -2 v 4.54687 q 0,0.5625 0.21875,0.8125 0.21875,0.25 0.59375,0.25 0.25,0 0.46875,-0.0937 0.23438,-0.10937 0.5,-0.29687 l 0.35938,0.375 q -0.59375,0.78125 -1.73438,0.78125 z m 5.70081,-6.67188 q -0.40625,0 -0.82813,0.23438 -0.40625,0.23437 -0.71875,0.75 -0.29687,0.51562 -0.375,1.35937 h 2.65625 q 0.53125,0 0.70313,-0.21875 0.17187,-0.21875 0.17187,-0.53125 0,-0.42187 -0.21875,-0.78125 -0.21875,-0.35937 -0.57812,-0.57812 -0.35938,-0.23438 -0.8125,-0.23438 z m -0.0156,6.67188 q -1.46875,0 -2.375,-0.95313 -0.89062,-0.96875 -0.89062,-2.65625 0,-1.125 0.45312,-1.95312 0.46875,-0.84375 1.23438,-1.3125 0.78125,-0.46875 1.6875,-0.46875 0.76562,0 1.375,0.34375 0.625,0.32812 0.98437,0.95312 0.35938,0.625 0.35938,1.51563 0,0.25 -0.0312,0.46875 -0.0156,0.20312 -0.0625,0.35937 h -4.67188 q 0.0312,1.34375 0.67188,2.04688 0.64062,0.70312 1.70312,0.70312 0.70313,0 1.17188,-0.28125 0.46875,-0.28125 0.85937,-0.73437 l 0.34375,0.26562 q -0.40625,0.78125 -1.10937,1.25 -0.70313,0.45313 -1.70313,0.45313 z"
       fill-rule="nonzero"
       id="path29" />
    <path
       fill="#000000"
       fill-opacity="0"
       d="m 569.83844,127.33019 c 8.56055,0 12.84088,4.83465 17.12116,9.66929 4.28033,4.83465 8.5606,9.66929 17.12121,9.66929"
       fill-rule="evenodd"
       id="path31" />
    <path
       stroke="#595959"
       stroke-width="2"
       stroke-linejoin="round"
       stroke-linecap="butt"
       d="m 569.83844,127.33019 c 8.56061,0 12.84088,4.83465 17.12116,9.66929 1.07006,1.20866 2.14013,2.41733 3.27709,3.55044 0.56849,0.56656 1.15369,1.11425 1.76398,1.6336 0.15259,0.12983 0.3067,0.2579 0.46253,0.38404 0.0779,0.0631 0.15625,0.12568 0.23504,0.18776 l 0.0305,0.0237"
       fill-rule="evenodd"
       id="path33" />
    <path
       fill="#595959"
       stroke="#595959"
       stroke-width="2"
       stroke-linecap="butt"
       d="m 591.6579,145.90411 9.65698,-0.18307 -7.51538,-6.06713 z"
       fill-rule="evenodd"
       id="path35" />
    <path
       fill="#000000"
       fill-opacity="0"
       d="m 569.83844,156.81143 c 8.74029,0 13.11041,0.0157 17.48059,0.0315 4.37012,0.0157 8.74029,0.0315 17.48059,0.0315"
       fill-rule="evenodd"
       id="path37" />
    <path
       stroke="#1c4587"
       stroke-width="2"
       stroke-linejoin="round"
       stroke-linecap="butt"
       d="m 569.83844,156.81143 c 8.74029,0 13.11041,0.0157 17.48059,0.0315 l 5.48059,0.0167"
       fill-rule="evenodd"
       id="path39" />
    <path
       fill="#1c4587"
       stroke="#1c4587"
       stroke-width="2"
       stroke-linecap="butt"
       d="m 592.79553,160.1631 9.08026,-3.29228 -9.07208,-3.31464 z"
       fill-rule="evenodd"
       id="path41" />
    <path
       fill="#000000"
       fill-opacity="0"
       d="m 569.83844,186.29268 c 8.69128,0 13.03693,-4.40158 17.38257,-8.80316 4.34564,-4.40157 8.69128,-8.80315 17.38257,-8.80315"
       fill-rule="evenodd"
       id="path43" />
    <path
       stroke="#3c78d8"
       stroke-width="2"
       stroke-linejoin="round"
       stroke-linecap="butt"
       d="m 569.83844,186.29268 c 8.69122,0 13.03693,-4.40158 17.38257,-8.80316 1.08642,-1.10039 2.17279,-2.20079 3.32715,-3.23241 0.57714,-0.51581 1.17126,-1.0144 1.79083,-1.48724 0.15497,-0.11821 0.3114,-0.2348 0.4696,-0.34966 l 0.31928,-0.22561"
       fill-rule="evenodd"
       id="path45" />
    <path
       fill="#3c78d8"
       stroke="#3c78d8"
       stroke-width="2"
       stroke-linecap="butt"
       d="m 594.0936,175.35374 7.71393,-5.81259 -9.64545,-0.50569 z"
       fill-rule="evenodd"
       id="path47" />
    <path
       fill="#595959"
       d="m 756.5139,112.59004 h 142.58942 v 29.48032 H 756.5139 Z"
       fill-rule="evenodd"
       id="path49" />
    <path
       fill="#ffffff"
       d="m 779.43884,123.20707 v -0.60937 h 7.29688 l 0.10937,2.60937 h -0.84375 l -0.3125,-1.875 h -3.45312 q -0.0156,0.9375 -0.0156,1.875 0,0.9375 0,1.85938 h 2.14063 l 0.21875,-1.39063 h 0.67187 v 3.45313 h -0.67187 l -0.20313,-1.37501 h -2.15625 q 0,1.09376 0,2.06251 0,0.95313 0.0156,1.85938 h 3.75 l 0.3125,-1.875 h 0.84375 l -0.10938,2.60937 h -7.59375 v -0.59375 l 1.35938,-0.17187 q 0.0156,-0.92188 0.0156,-1.875 0,-0.95313 0,-1.90626 v -0.71875 q 0,-0.95313 0,-1.89063 0,-0.95312 -0.0156,-1.89062 z m 11.51923,6.26563 q 0.70312,0 1.09375,-0.51562 0.40625,-0.53125 0.40625,-1.34376 0,-0.76563 -0.375,-1.25 -0.375,-0.5 -1.0625,-0.5 -0.6875,0 -1.09375,0.5 -0.39063,0.5 -0.39063,1.3125 0,0.81251 0.375,1.31251 0.375,0.48437 1.04688,0.48437 z m 0.0312,0.59375 q -0.5625,0 -1.07813,-0.15625 -0.375,0.46875 -0.375,0.9375 0,0.28125 0.17188,0.46875 0.17187,0.17188 0.6875,0.17188 h 1.92187 q 1.20313,0 1.78125,0.5 0.57813,0.5 0.57813,1.39062 0,0.625 -0.40625,1.20313 -0.40625,0.59375 -1.21875,0.95312 -0.79688,0.375 -2,0.375 -1.59375,0 -2.3125,-0.5 -0.71875,-0.5 -0.71875,-1.26562 0,-0.46875 0.3125,-0.875 0.3125,-0.40625 1.125,-0.79688 -0.96875,-0.26562 -0.96875,-1.125 0,-0.34375 0.21875,-0.71875 0.23437,-0.39062 0.78125,-0.90625 -0.53125,-0.28125 -0.84375,-0.79687 -0.29688,-0.51563 -0.29688,-1.26564 0,-1.15625 0.75,-1.78125 0.76563,-0.625 1.90625,-0.625 1.15625,0 1.85938,0.57813 l 1.65625,-0.57813 0.21875,0.15625 v 0.92188 h -1.4375 q 0.34375,0.53125 0.34375,1.32812 0,1.15626 -0.76563,1.78126 -0.75,0.625 -1.89062,0.625 z m -1.76563,3.84375 q 0,0.71875 0.5,1.01563 0.51563,0.3125 1.39063,0.3125 1.20312,0 1.82812,-0.4375 0.625,-0.42188 0.625,-1.04688 0,-0.48437 -0.34375,-0.8125 -0.32812,-0.32812 -1.125,-0.32812 h -1.70312 q -0.15625,0 -0.3125,-0.0156 -0.14063,0 -0.29688,-0.0156 -0.29687,0.32812 -0.4375,0.64062 -0.125,0.3125 -0.125,0.6875 z m 6.46698,-1.5 v -0.53125 l 1.0625,-0.1875 q 0.0156,-0.5625 0.0156,-1.20312 0.0156,-0.65625 0.0156,-1.15625 v -0.70313 q 0,-0.59375 -0.0156,-0.98438 0,-0.40625 -0.0312,-0.84375 l -1.15625,-0.14063 v -0.51562 l 2.04687,-0.89063 0.21875,0.15625 0.17188,1.71875 q 0.35937,-0.875 0.9375,-1.375 0.57812,-0.5 1.17187,-0.5 0.32813,0 0.625,0.15625 0.29688,0.14063 0.42188,0.39063 0,1.0625 -0.85938,1.0625 -0.25,0 -0.46875,-0.0937 -0.21875,-0.0937 -0.42187,-0.26563 l -0.1875,-0.15625 q -0.4375,0.3125 -0.73438,0.78125 -0.28125,0.46875 -0.46875,1.10939 v 1.09375 q 0,0.48437 0,1.14062 0,0.64063 0.0156,1.1875 l 1.20312,0.21875 v 0.53125 z m 9.38104,-6.48438 q -0.40625,0 -0.82812,0.23437 -0.40625,0.23438 -0.71875,0.75 -0.29688,0.51563 -0.375,1.35939 h 2.65625 q 0.53125,0 0.70312,-0.21875 0.17188,-0.21876 0.17188,-0.53126 0,-0.42188 -0.21875,-0.78125 -0.21875,-0.35938 -0.57813,-0.57813 -0.35937,-0.23437 -0.8125,-0.23437 z m -0.0156,6.67188 q -1.46875,0 -2.375,-0.95312 -0.89063,-0.96875 -0.89063,-2.65625 0,-1.12501 0.45313,-1.95314 0.46875,-0.84375 1.23437,-1.3125 0.78125,-0.46875 1.6875,-0.46875 0.76563,0 1.375,0.34375 0.625,0.32813 0.98438,0.95313 0.35937,0.625 0.35937,1.51563 0,0.25 -0.0312,0.46875 -0.0156,0.20313 -0.0625,0.35938 h -4.67187 q 0.0312,1.34375 0.67187,2.04687 0.64063,0.70313 1.70313,0.70313 0.70312,0 1.17187,-0.28125 0.46875,-0.28125 0.85938,-0.73438 l 0.34375,0.26563 q -0.40625,0.78125 -1.10938,1.25 -0.70312,0.45312 -1.70312,0.45312 z m 6.49035,0 q -0.625,0 -1.14062,-0.14062 -0.5,-0.14063 -1.04688,-0.40625 l -0.0625,-1.625 h 0.8125 l 0.26563,1.28125 q 0.51562,0.23437 1.1875,0.23437 0.84375,0 1.25,-0.29687 0.40625,-0.3125 0.40625,-0.8125 0,-0.46875 -0.34375,-0.75 -0.34375,-0.29688 -1.03125,-0.53125 l -0.67188,-0.25 q -0.79687,-0.29688 -1.28125,-0.76563 -0.48437,-0.46875 -0.48437,-1.20313 0,-0.54688 0.28125,-1.01563 0.29687,-0.46875 0.85937,-0.76562 0.57813,-0.29688 1.40625,-0.29688 0.59375,0 1.07813,0.15625 0.5,0.15625 0.96875,0.45313 l -0.0625,1.48437 h -0.75 l -0.23438,-1.17187 q -0.5,-0.25 -1.01562,-0.25 -0.67188,0 -1.01563,0.28125 -0.34375,0.26562 -0.34375,0.71875 0,0.48437 0.29688,0.73437 0.29687,0.25 1.04687,0.53126 l 0.45313,0.15625 q 1.09375,0.40625 1.5625,0.9375 0.46875,0.53125 0.46875,1.21875 0,0.5625 -0.32813,1.04688 -0.32812,0.46875 -0.95312,0.76562 -0.625,0.28125 -1.57813,0.28125 z m 6.36084,0 q -0.625,0 -1.14062,-0.14062 -0.5,-0.14063 -1.04688,-0.40625 l -0.0625,-1.625 h 0.8125 l 0.26563,1.28125 q 0.51562,0.23437 1.1875,0.23437 0.84375,0 1.25,-0.29687 0.40625,-0.3125 0.40625,-0.8125 0,-0.46875 -0.34375,-0.75 -0.34375,-0.29688 -1.03125,-0.53125 l -0.67188,-0.25 q -0.79687,-0.29688 -1.28125,-0.76563 -0.48437,-0.46875 -0.48437,-1.20313 0,-0.54688 0.28125,-1.01563 0.29687,-0.46875 0.85937,-0.76562 0.57813,-0.29688 1.40625,-0.29688 0.59375,0 1.07813,0.15625 0.5,0.15625 0.96875,0.45313 l -0.0625,1.48437 h -0.75 l -0.23438,-1.17187 q -0.5,-0.25 -1.01562,-0.25 -0.67188,0 -1.01563,0.28125 -0.34375,0.26562 -0.34375,0.71875 0,0.48437 0.29688,0.73437 0.29687,0.25 1.04687,0.53126 l 0.45313,0.15625 q 1.09375,0.40625 1.5625,0.9375 0.46875,0.53125 0.46875,1.21875 0,0.5625 -0.32813,1.04688 -0.32812,0.46875 -0.95312,0.76562 -0.625,0.28125 -1.57813,0.28125 z m 7.36951,-0.1875 v -0.53125 l 1.15625,-0.20312 q 0.0156,-0.57813 0.0156,-1.15625 0.0156,-0.59375 0.0156,-1.1875 v -3.10939 h -1.21875 v -0.64062 l 1.25,-0.15625 q 0.0937,-1.17188 0.3125,-1.89063 0.23438,-0.73437 0.78125,-1.28125 0.46875,-0.46875 0.98438,-0.64062 0.51562,-0.1875 1.01562,-0.1875 0.5,0 0.89063,0.1875 0.40625,0.1875 0.51562,0.60937 -0.0156,0.28125 -0.25,0.46875 -0.23437,0.1875 -0.65625,0.1875 -0.51562,0 -1.04687,-0.4375 l -0.40625,-0.3125 q -0.0625,0.0312 -0.125,0.0781 -0.0469,0.0469 -0.0937,0.0937 -0.375,0.375 -0.57813,1.15625 -0.1875,0.76562 -0.15625,1.98437 h 2.01563 v 0.78125 h -2 v 3.10939 q 0,0.59375 0,1.17187 0.0156,0.57813 0.0312,1.15625 l 1.32812,0.21875 v 0.53125 z m 8.4527,0.1875 q -0.84375,0 -1.625,-0.39062 -0.76563,-0.40625 -1.25,-1.21875 -0.48438,-0.82813 -0.48438,-2.01563 0,-1.21876 0.48438,-2.04688 0.48437,-0.82813 1.25,-1.25 0.78125,-0.42188 1.625,-0.42188 0.84375,0 1.60937,0.42188 0.78125,0.42187 1.26563,1.25 0.5,0.82812 0.5,2.04688 0,1.1875 -0.5,2.01563 -0.48438,0.8125 -1.26563,1.21875 -0.76562,0.39062 -1.60937,0.39062 z m 0,-0.65625 q 0.95312,0 1.46875,-0.75 0.51562,-0.76562 0.51562,-2.21875 0,-1.48438 -0.51562,-2.26563 -0.51563,-0.78125 -1.46875,-0.78125 -0.95313,0 -1.46875,0.78125 -0.5,0.78125 -0.5,2.26563 0,1.45313 0.5,2.21875 0.51562,0.75 1.46875,0.75 z m 4.64008,0.46875 v -0.53125 l 1.0625,-0.1875 q 0.0156,-0.5625 0.0156,-1.20312 0.0156,-0.65625 0.0156,-1.15625 v -0.70313 q 0,-0.59375 -0.0156,-0.98438 0,-0.40625 -0.0312,-0.84375 l -1.15625,-0.14063 v -0.51562 l 2.04688,-0.89063 0.21875,0.15625 0.17187,1.71875 q 0.35938,-0.875 0.9375,-1.375 0.57813,-0.5 1.17188,-0.5 0.32812,0 0.625,0.15625 0.29687,0.14063 0.42187,0.39063 0,1.0625 -0.85937,1.0625 -0.25,0 -0.46875,-0.0937 -0.21875,-0.0937 -0.42188,-0.26563 l -0.1875,-0.15625 q -0.4375,0.3125 -0.73437,0.78125 -0.28125,0.46875 -0.46875,1.10939 v 1.09375 q 0,0.48437 0,1.14062 0,0.64063 0.0156,1.1875 l 1.20313,0.21875 v 0.53125 z m 14.11193,-6.39063 v -0.57813 h 2.67188 v 0.57813 l -0.78125,0.1875 -2.14063,6.29688 h -0.54687 l -1.90625,-5.20313 -1.9375,5.20313 H 847.294 l -2.35937,-6.34376 -0.82813,-0.14062 v -0.57813 h 3.34375 v 0.57813 l -1.14062,0.17187 1.5,4.50001 1.64062,-4.50001 -1.07812,-0.17187 v -0.57813 h 3.23437 v 0.57813 l -1.07812,0.1875 1.67187,4.46876 1.35938,-4.45314 z m 8.68146,6.53126 q -0.53125,0 -0.89062,-0.29688 -0.34375,-0.3125 -0.42188,-0.82812 -0.60937,0.59375 -1.0625,0.89062 -0.45312,0.28125 -1.09375,0.28125 -0.8125,0 -1.39062,-0.45312 -0.57813,-0.46875 -0.57813,-1.375 0,-0.42188 0.20313,-0.78125 0.20312,-0.375 0.71875,-0.71875 0.53125,-0.35938 1.51562,-0.71875 0.32813,-0.10938 0.76563,-0.23438 0.45312,-0.14062 0.89062,-0.25 v -0.35938 q 0,-1.07813 -0.32812,-1.42188 -0.3125,-0.35937 -1.04688,-0.35937 -0.17187,0 -0.375,0.0156 -0.1875,0.0156 -0.42187,0.0781 l -0.28125,0.95312 q -0.20313,0.70313 -0.76563,0.70313 -0.60937,0 -0.6875,-0.59375 0.21875,-0.84375 0.98438,-1.32813 0.76562,-0.5 1.875,-0.5 1.15625,0 1.71875,0.57813 0.5625,0.57812 0.5625,1.96875 v 3.12501 q 0,0.46875 0.14062,0.67187 0.14063,0.20313 0.375,0.20313 0.20313,0 0.32813,-0.0937 0.14062,-0.0937 0.25,-0.23438 l 0.29687,0.32813 q -0.26562,0.42187 -0.57812,0.59375 -0.3125,0.15625 -0.70313,0.15625 z m -4.125,-2 q 0,0.57812 0.32813,0.82812 0.34375,0.25 0.84375,0.25 0.21875,0 0.40625,-0.0469 0.20312,-0.0625 0.48437,-0.23438 0.28125,-0.17187 0.71875,-0.48437 v -2.25 q -0.375,0.10937 -0.75,0.23437 -0.35937,0.125 -0.59375,0.20313 -0.64062,0.25 -0.95312,0.51562 -0.29688,0.26563 -0.39063,0.51563 -0.0937,0.25 -0.0937,0.46875 z m 6.02734,1.85937 v -0.53125 l 1.0625,-0.1875 q 0.0156,-0.5625 0.0156,-1.20312 0.0156,-0.65625 0.0156,-1.15625 v -0.70313 q 0,-0.59375 -0.0156,-0.98438 0,-0.40625 -0.0312,-0.84375 l -1.15625,-0.14063 v -0.51562 l 2.04687,-0.89063 0.21875,0.15625 0.17188,1.71875 q 0.35937,-0.875 0.9375,-1.375 0.57812,-0.5 1.17187,-0.5 0.32813,0 0.625,0.15625 0.29688,0.14063 0.42188,0.39063 0,1.0625 -0.85938,1.0625 -0.25,0 -0.46875,-0.0937 -0.21875,-0.0937 -0.42187,-0.26563 l -0.1875,-0.15625 q -0.4375,0.3125 -0.73438,0.78125 -0.28125,0.46875 -0.46875,1.10939 v 1.09375 q 0,0.48437 0,1.14062 0,0.64063 0.0156,1.1875 l 1.20312,0.21875 v 0.53125 z m 7.42798,-3.4375 q 0,1.42188 0.57813,2.10938 0.57812,0.6875 1.45312,0.6875 0.48438,0 0.85938,-0.20313 0.375,-0.20312 0.78125,-0.65625 v -4.06251 q -0.5,-0.4375 -0.89063,-0.59375 -0.39062,-0.15625 -0.76562,-0.15625 -0.54688,0 -1.01563,0.29688 -0.45312,0.29687 -0.73437,0.9375 -0.26563,0.64062 -0.26563,1.64063 z m 3.8125,3.57813 -0.0937,-1 q -0.39062,0.5 -0.875,0.78125 -0.48437,0.26562 -1.17187,0.26562 -0.90625,0 -1.57813,-0.45312 -0.67187,-0.45313 -1.04687,-1.26563 -0.375,-0.8125 -0.375,-1.89062 0,-1.12501 0.40625,-1.95314 0.42187,-0.84375 1.125,-1.3125 0.70312,-0.46875 1.59375,-0.46875 0.51562,0 0.98437,0.21875 0.48438,0.20313 0.9375,0.73438 v -3.3125 l -1.25,-0.14063 v -0.51562 l 2.28125,-0.65625 0.21875,0.10937 -0.0625,2.09375 v 7.92189 l 1.1875,0.17187 v 0.53125 z"
       fill-rule="nonzero"
       id="path51" />
    <path
       fill="#1c4587"
       d="m 756.5139,142.07127 h 142.58942 v 29.48032 H 756.5139 Z"
       fill-rule="evenodd"
       id="path53" />
    <path
       fill="#ffffff"
       d="m 770.84296,152.68831 v -0.60938 h 4.15625 v 0.60938 l -1.35938,0.15625 q -0.0156,0.92187 -0.0156,1.875 0,0.95312 0,1.90625 v 0.71875 q 0,0.9375 0,1.89062 0,0.9375 0.0156,1.89063 l 1.35938,0.17187 v 0.59375 h -4.15625 v -0.59375 l 1.35937,-0.17187 q 0.0156,-0.92188 0.0156,-1.875 0,-0.95313 0,-1.90625 v -0.71875 q 0,-0.95313 0,-1.89063 0,-0.95312 -0.0156,-1.89062 z m 5.39056,9.20312 v -0.53125 l 1.07813,-0.20312 q 0.0156,-0.5625 0.0156,-1.20313 0.0156,-0.64062 0.0156,-1.14062 v -0.70313 q 0,-0.59375 -0.0156,-0.98437 0,-0.40625 -0.0312,-0.84375 l -1.15625,-0.14063 v -0.51562 l 2.04688,-0.89063 0.21875,0.15625 0.125,1.17188 q 0.53125,-0.59375 1.23437,-0.95313 0.71875,-0.375 1.39063,-0.375 0.95312,0 1.40625,0.64063 0.46875,0.64062 0.46875,2.07812 v 1.35938 q 0,0.5 0,1.14062 0.0156,0.64063 0.0312,1.20313 l 1.01562,0.20312 v 0.53125 h -3.39062 v -0.53125 l 1.07812,-0.20312 q 0.0156,-0.54688 0.0156,-1.1875 0.0156,-0.65625 0.0156,-1.15625 v -1.25 q 0,-1 -0.29687,-1.375 -0.28125,-0.39063 -0.92188,-0.39063 -0.5,0 -0.96875,0.20313 -0.46875,0.20312 -1.01562,0.67187 v 2.14063 q 0,0.48437 0,1.14062 0,0.64063 0.0156,1.20313 l 1.01563,0.20312 v 0.53125 z m 11.75672,-2.9375 q 0.70312,0 1.09375,-0.51562 0.40625,-0.53125 0.40625,-1.34375 0,-0.76563 -0.375,-1.25 -0.375,-0.5 -1.0625,-0.5 -0.6875,0 -1.09375,0.5 -0.39063,0.5 -0.39063,1.3125 0,0.8125 0.375,1.3125 0.375,0.48437 1.04688,0.48437 z m 0.0312,0.59375 q -0.5625,0 -1.07813,-0.15625 -0.375,0.46875 -0.375,0.9375 0,0.28125 0.17188,0.46875 0.17187,0.17188 0.6875,0.17188 h 1.92187 q 1.20313,0 1.78125,0.5 0.57813,0.5 0.57813,1.39062 0,0.625 -0.40625,1.20313 -0.40625,0.59375 -1.21875,0.95312 -0.79688,0.375 -2,0.375 -1.59375,0 -2.3125,-0.5 -0.71875,-0.5 -0.71875,-1.26562 0,-0.46875 0.3125,-0.875 0.3125,-0.40625 1.125,-0.79688 -0.96875,-0.26562 -0.96875,-1.125 0,-0.34375 0.21875,-0.71875 0.23437,-0.39062 0.78125,-0.90625 -0.53125,-0.28125 -0.84375,-0.79687 -0.29688,-0.51563 -0.29688,-1.26563 0,-1.15625 0.75,-1.78125 0.76563,-0.625 1.90625,-0.625 1.15625,0 1.85938,0.57813 l 1.65625,-0.57813 0.21875,0.15625 v 0.92188 h -1.4375 q 0.34375,0.53125 0.34375,1.32812 0,1.15625 -0.76563,1.78125 -0.75,0.625 -1.89062,0.625 z m -1.76563,3.84375 q 0,0.71875 0.5,1.01563 0.51563,0.3125 1.39063,0.3125 1.20312,0 1.82812,-0.4375 0.625,-0.42188 0.625,-1.04688 0,-0.48437 -0.34375,-0.8125 -0.32812,-0.32812 -1.125,-0.32812 h -1.70312 q -0.15625,0 -0.3125,-0.0156 -0.14063,0 -0.29688,-0.0156 -0.29687,0.32812 -0.4375,0.64062 -0.125,0.3125 -0.125,0.6875 z m 6.46698,-1.5 v -0.53125 l 1.0625,-0.1875 q 0.0156,-0.5625 0.0156,-1.20312 0.0156,-0.65625 0.0156,-1.15625 v -0.70313 q 0,-0.59375 -0.0156,-0.98437 0,-0.40625 -0.0312,-0.84375 l -1.15625,-0.14063 v -0.51562 l 2.04687,-0.89063 0.21875,0.15625 0.17188,1.71875 q 0.35937,-0.875 0.9375,-1.375 0.57812,-0.5 1.17187,-0.5 0.32813,0 0.625,0.15625 0.29688,0.14063 0.42188,0.39063 0,1.0625 -0.85938,1.0625 -0.25,0 -0.46875,-0.0937 -0.21875,-0.0937 -0.42187,-0.26563 l -0.1875,-0.15625 q -0.4375,0.3125 -0.73438,0.78125 -0.28125,0.46875 -0.46875,1.10938 v 1.09375 q 0,0.48437 0,1.14062 0,0.64063 0.0156,1.1875 l 1.20312,0.21875 v 0.53125 z m 9.38111,-6.48437 q -0.40625,0 -0.82813,0.23437 -0.40625,0.23438 -0.71875,0.75 -0.29687,0.51563 -0.375,1.35938 h 2.65625 q 0.53125,0 0.70313,-0.21875 0.17187,-0.21875 0.17187,-0.53125 0,-0.42188 -0.21875,-0.78125 -0.21875,-0.35938 -0.57812,-0.57813 -0.35938,-0.23437 -0.8125,-0.23437 z m -0.0156,6.67187 q -1.46875,0 -2.375,-0.95312 -0.89062,-0.96875 -0.89062,-2.65625 0,-1.125 0.45312,-1.95313 0.46875,-0.84375 1.23438,-1.3125 0.78125,-0.46875 1.6875,-0.46875 0.76562,0 1.375,0.34375 0.625,0.32813 0.98437,0.95313 0.35938,0.625 0.35938,1.51562 0,0.25 -0.0312,0.46875 -0.0156,0.20313 -0.0625,0.35938 h -4.67188 q 0.0312,1.34375 0.67188,2.04687 0.64062,0.70313 1.70312,0.70313 0.70313,0 1.17188,-0.28125 0.46875,-0.28125 0.85937,-0.73438 l 0.34375,0.26563 q -0.40625,0.78125 -1.10937,1.25 -0.70313,0.45312 -1.70313,0.45312 z m 6.4903,0 q -0.625,0 -1.14063,-0.14062 -0.5,-0.14063 -1.04687,-0.40625 l -0.0625,-1.625 h 0.8125 l 0.26562,1.28125 q 0.51563,0.23437 1.1875,0.23437 0.84375,0 1.25,-0.29687 0.40625,-0.3125 0.40625,-0.8125 0,-0.46875 -0.34375,-0.75 -0.34375,-0.29688 -1.03125,-0.53125 l -0.67187,-0.25 q -0.79688,-0.29688 -1.28125,-0.76563 -0.48438,-0.46875 -0.48438,-1.20312 0,-0.54688 0.28125,-1.01563 0.29688,-0.46875 0.85938,-0.76562 0.57812,-0.29688 1.40625,-0.29688 0.59375,0 1.07812,0.15625 0.5,0.15625 0.96875,0.45313 l -0.0625,1.48437 h -0.75 l -0.23437,-1.17187 q -0.5,-0.25 -1.01563,-0.25 -0.67187,0 -1.01562,0.28125 -0.34375,0.26562 -0.34375,0.71875 0,0.48437 0.29687,0.73437 0.29688,0.25 1.04688,0.53125 l 0.45312,0.15625 q 1.09375,0.40625 1.5625,0.9375 0.46875,0.53125 0.46875,1.21875 0,0.5625 -0.32812,1.04688 -0.32813,0.46875 -0.95313,0.76562 -0.625,0.28125 -1.57812,0.28125 z m 6.36084,0 q -0.625,0 -1.14063,-0.14062 -0.5,-0.14063 -1.04687,-0.40625 l -0.0625,-1.625 h 0.8125 l 0.26562,1.28125 q 0.51563,0.23437 1.1875,0.23437 0.84375,0 1.25,-0.29687 0.40625,-0.3125 0.40625,-0.8125 0,-0.46875 -0.34375,-0.75 -0.34375,-0.29688 -1.03125,-0.53125 l -0.67187,-0.25 q -0.79688,-0.29688 -1.28125,-0.76563 -0.48438,-0.46875 -0.48438,-1.20312 0,-0.54688 0.28125,-1.01563 0.29688,-0.46875 0.85938,-0.76562 0.57812,-0.29688 1.40625,-0.29688 0.59375,0 1.07812,0.15625 0.5,0.15625 0.96875,0.45313 l -0.0625,1.48437 h -0.75 l -0.23437,-1.17187 q -0.5,-0.25 -1.01563,-0.25 -0.67187,0 -1.01562,0.28125 -0.34375,0.26562 -0.34375,0.71875 0,0.48437 0.29687,0.73437 0.29688,0.25 1.04688,0.53125 l 0.45312,0.15625 q 1.09375,0.40625 1.5625,0.9375 0.46875,0.53125 0.46875,1.21875 0,0.5625 -0.32812,1.04688 -0.32813,0.46875 -0.95313,0.76562 -0.625,0.28125 -1.57812,0.28125 z m 7.27575,-0.1875 v -0.53125 l 1.09375,-0.1875 q 0.0156,-0.5625 0.0156,-1.20312 0.0156,-0.65625 0.0156,-1.15625 v -6.4375 l -1.20312,-0.14063 v -0.51562 l 2.25,-0.65625 0.20312,0.10937 -0.0625,2.09375 v 2.59375 q 0.53125,-0.57812 1.09375,-0.84375 0.5625,-0.28125 1.17188,-0.28125 0.78125,0 1.40625,0.4375 0.625,0.42188 1,1.23438 0.375,0.79687 0.375,1.9375 0,1.125 -0.40625,1.96875 -0.39063,0.84375 -1.07813,1.3125 -0.67187,0.45312 -1.53125,0.45312 -0.51562,0 -1.03125,-0.21875 -0.51562,-0.21875 -1,-0.8125 l -0.10937,0.98438 z m 4.17188,-6.3125 q -0.32813,0 -0.76563,0.17188 -0.4375,0.17187 -1.04687,0.67187 v 4.01563 q 0.45312,0.42187 0.89062,0.625 0.45313,0.1875 0.85938,0.1875 0.76562,0 1.34375,-0.6875 0.59375,-0.6875 0.59375,-2.09375 0,-1.42188 -0.53125,-2.15625 -0.51563,-0.73438 -1.34375,-0.73438 z m 9.9411,6.45313 q -0.53125,0 -0.89063,-0.29688 -0.34375,-0.3125 -0.42187,-0.82812 -0.60938,0.59375 -1.0625,0.89062 -0.45313,0.28125 -1.09375,0.28125 -0.8125,0 -1.39063,-0.45312 -0.57812,-0.46875 -0.57812,-1.375 0,-0.42188 0.20312,-0.78125 0.20313,-0.375 0.71875,-0.71875 0.53125,-0.35938 1.51563,-0.71875 0.32812,-0.10938 0.76562,-0.23438 0.45313,-0.14062 0.89063,-0.25 v -0.35937 q 0,-1.07813 -0.32813,-1.42188 -0.3125,-0.35937 -1.04687,-0.35937 -0.17188,0 -0.375,0.0156 -0.1875,0.0156 -0.42188,0.0781 l -0.28125,0.95312 q -0.20312,0.70313 -0.76562,0.70313 -0.60938,0 -0.6875,-0.59375 0.21875,-0.84375 0.98437,-1.32813 0.76563,-0.5 1.875,-0.5 1.15625,0 1.71875,0.57813 0.5625,0.57812 0.5625,1.96875 v 3.125 q 0,0.46875 0.14063,0.67187 0.14062,0.20313 0.375,0.20313 0.20312,0 0.32812,-0.0937 0.14063,-0.0937 0.25,-0.23438 l 0.29688,0.32813 q -0.26563,0.42187 -0.57813,0.59375 -0.3125,0.15625 -0.70312,0.15625 z m -4.125,-2 q 0,0.57812 0.32812,0.82812 0.34375,0.25 0.84375,0.25 0.21875,0 0.40625,-0.0469 0.20313,-0.0625 0.48438,-0.23438 0.28125,-0.17187 0.71875,-0.48437 v -2.25 q -0.375,0.10937 -0.75,0.23437 -0.35938,0.125 -0.59375,0.20313 -0.64063,0.25 -0.95313,0.51562 -0.29687,0.26563 -0.39062,0.51563 -0.0937,0.25 -0.0937,0.46875 z m 9.39752,2.04687 q -1.5,0 -2.40625,-0.96875 -0.89062,-0.98437 -0.89062,-2.67187 0,-1.15625 0.46875,-1.98438 0.48437,-0.82812 1.26562,-1.26562 0.78125,-0.45313 1.65625,-0.45313 0.65625,0 1.21875,0.25 0.5625,0.25 0.92188,0.6875 0.35937,0.42188 0.45312,0.96875 -0.0937,0.5625 -0.67187,0.5625 -0.35938,0 -0.54688,-0.1875 -0.1875,-0.20312 -0.26562,-0.51562 l -0.26563,-0.96875 q -0.20312,-0.0781 -0.40625,-0.0937 -0.1875,-0.0312 -0.375,-0.0312 -0.9375,0 -1.54687,0.73437 -0.60938,0.73438 -0.60938,2.14063 0,1.375 0.65625,2.10937 0.65625,0.73438 1.6875,0.73438 0.625,0 1.15625,-0.28125 0.53125,-0.28125 0.85938,-0.82813 l 0.375,0.1875 q -0.3125,0.90625 -1,1.39063 -0.6875,0.48437 -1.73438,0.48437 z m 3.44409,-0.1875 v -0.53125 l 1.17188,-0.20312 q 0.0156,-0.57813 0.0156,-1.17188 0.0156,-0.59375 0.0156,-1.17187 v -6.4375 l -1.20313,-0.14063 v -0.51562 l 2.29688,-0.65625 0.20312,0.10937 -0.0625,2.09375 v 5.10938 l 2.51563,-2.60938 -1.09375,-0.26562 v -0.57813 h 3.42187 v 0.57813 l -1.375,0.20312 -1.625,1.65625 2.40625,3.82813 0.96875,0.17187 v 0.53125 h -1.98437 l -2.26563,-3.64062 -0.96875,1 q 0,0.46875 0,0.95312 0.0156,0.48438 0.0312,0.95313 l 1.17188,0.20312 v 0.53125 z m 16.03266,-6.39062 v -0.57813 h 2.67187 v 0.57813 l -0.78125,0.1875 -2.14062,6.29687 h -0.54688 l -1.90625,-5.20312 -1.9375,5.20312 h -0.54687 l -2.35938,-6.34375 -0.82812,-0.14062 v -0.57813 h 3.34375 v 0.57813 l -1.14063,0.17187 1.5,4.5 1.64063,-4.5 -1.07813,-0.17187 v -0.57813 h 3.23438 v 0.57813 l -1.07813,0.1875 1.67188,4.46875 1.35937,-4.45313 z m 8.68146,6.53125 q -0.53125,0 -0.89063,-0.29688 -0.34375,-0.3125 -0.42187,-0.82812 -0.60938,0.59375 -1.0625,0.89062 -0.45313,0.28125 -1.09375,0.28125 -0.8125,0 -1.39063,-0.45312 -0.57812,-0.46875 -0.57812,-1.375 0,-0.42188 0.20312,-0.78125 0.20313,-0.375 0.71875,-0.71875 0.53125,-0.35938 1.51563,-0.71875 0.32812,-0.10938 0.76562,-0.23438 0.45313,-0.14062 0.89063,-0.25 v -0.35937 q 0,-1.07813 -0.32813,-1.42188 -0.3125,-0.35937 -1.04687,-0.35937 -0.17188,0 -0.375,0.0156 -0.1875,0.0156 -0.42188,0.0781 l -0.28125,0.95312 q -0.20312,0.70313 -0.76562,0.70313 -0.60938,0 -0.6875,-0.59375 0.21875,-0.84375 0.98437,-1.32813 0.76563,-0.5 1.875,-0.5 1.15625,0 1.71875,0.57813 0.5625,0.57812 0.5625,1.96875 v 3.125 q 0,0.46875 0.14063,0.67187 0.14062,0.20313 0.375,0.20313 0.20312,0 0.32812,-0.0937 0.14063,-0.0937 0.25,-0.23438 l 0.29688,0.32813 q -0.26563,0.42187 -0.57813,0.59375 -0.3125,0.15625 -0.70312,0.15625 z m -4.125,-2 q 0,0.57812 0.32812,0.82812 0.34375,0.25 0.84375,0.25 0.21875,0 0.40625,-0.0469 0.20313,-0.0625 0.48438,-0.23438 0.28125,-0.17187 0.71875,-0.48437 v -2.25 q -0.375,0.10937 -0.75,0.23437 -0.35938,0.125 -0.59375,0.20313 -0.64063,0.25 -0.95313,0.51562 -0.29687,0.26563 -0.39062,0.51563 -0.0937,0.25 -0.0937,0.46875 z m 6.02734,1.85937 v -0.53125 l 1.0625,-0.1875 q 0.0156,-0.5625 0.0156,-1.20312 0.0156,-0.65625 0.0156,-1.15625 v -0.70313 q 0,-0.59375 -0.0156,-0.98437 0,-0.40625 -0.0312,-0.84375 l -1.15625,-0.14063 v -0.51562 l 2.04688,-0.89063 0.21875,0.15625 0.17187,1.71875 q 0.35938,-0.875 0.9375,-1.375 0.57813,-0.5 1.17188,-0.5 0.32812,0 0.625,0.15625 0.29687,0.14063 0.42187,0.39063 0,1.0625 -0.85937,1.0625 -0.25,0 -0.46875,-0.0937 -0.21875,-0.0937 -0.42188,-0.26563 l -0.1875,-0.15625 q -0.4375,0.3125 -0.73437,0.78125 -0.28125,0.46875 -0.46875,1.10938 v 1.09375 q 0,0.48437 0,1.14062 0,0.64063 0.0156,1.1875 l 1.20313,0.21875 v 0.53125 z m 7.42798,-3.4375 q 0,1.42188 0.57812,2.10938 0.57813,0.6875 1.45313,0.6875 0.48437,0 0.85937,-0.20313 0.375,-0.20312 0.78125,-0.65625 v -4.0625 q -0.5,-0.4375 -0.89062,-0.59375 -0.39063,-0.15625 -0.76563,-0.15625 -0.54687,0 -1.01562,0.29688 -0.45313,0.29687 -0.73438,0.9375 -0.26562,0.64062 -0.26562,1.64062 z m 3.8125,3.57813 -0.0937,-1 q -0.39063,0.5 -0.875,0.78125 -0.48438,0.26562 -1.17188,0.26562 -0.90625,0 -1.57812,-0.45312 -0.67188,-0.45313 -1.04688,-1.26563 -0.375,-0.8125 -0.375,-1.89062 0,-1.125 0.40625,-1.95313 0.42188,-0.84375 1.125,-1.3125 0.70313,-0.46875 1.59375,-0.46875 0.51563,0 0.98438,0.21875 0.48437,0.20313 0.9375,0.73438 v -3.3125 l -1.25,-0.14063 v -0.51562 l 2.28125,-0.65625 0.21875,0.10937 -0.0625,2.09375 v 7.92188 l 1.1875,0.17187 v 0.53125 z"
       fill-rule="nonzero"
       id="path55" />
    <path
       fill="#3c78d8"
       d="m 756.5139,171.55252 h 142.58942 v 29.48032 H 756.5139 Z"
       fill-rule="evenodd"
       id="path57" />
    <path
       fill="#ffffff"
       d="m 802.0745,182.16956 v -0.60938 h 3.53125 v 0.60938 l -1.25,0.1875 v 9.125 h -0.51563 l -5.85937,-8 v 7.07812 l 1.5625,0.21875 v 0.59375 h -3.54688 v -0.59375 l 1.23438,-0.1875 v -8.125 l -0.125,-0.1875 -1.04688,-0.10937 v -0.60938 h 2.26563 l 5.28125,7.28125 v -6.48437 z m 7.87762,2.71875 q -0.40625,0 -0.82812,0.23437 -0.40625,0.23438 -0.71875,0.75 -0.29688,0.51563 -0.375,1.35938 h 2.65625 q 0.53125,0 0.70312,-0.21875 0.17188,-0.21875 0.17188,-0.53125 0,-0.42188 -0.21875,-0.78125 -0.21875,-0.35938 -0.57813,-0.57813 -0.35937,-0.23437 -0.8125,-0.23437 z m -0.0156,6.67187 q -1.46875,0 -2.375,-0.95312 -0.89063,-0.96875 -0.89063,-2.65625 0,-1.125 0.45313,-1.95313 0.46875,-0.84375 1.23437,-1.3125 0.78125,-0.46875 1.6875,-0.46875 0.76563,0 1.375,0.34375 0.625,0.32813 0.98438,0.95313 0.35937,0.625 0.35937,1.51562 0,0.25 -0.0312,0.46875 -0.0156,0.20313 -0.0625,0.35938 H 807.999 q 0.0312,1.34375 0.67187,2.04687 0.64063,0.70313 1.70313,0.70313 0.70312,0 1.17187,-0.28125 0.46875,-0.28125 0.85938,-0.73438 l 0.34375,0.26563 q -0.40625,0.78125 -1.10938,1.25 -0.70312,0.45312 -1.70312,0.45312 z m 8.17786,-6.57812 v -0.57813 h 2.75 v 0.57813 l -0.875,0.15625 -2.09375,2.57812 2.04687,2.92188 1.10938,0.20312 v 0.53125 h -3.57813 v -0.53125 l 1.04688,-0.1875 -1.4375,-2.09375 -1.60938,2.09375 1.09375,0.1875 v 0.53125 H 813.63 v -0.53125 l 0.9375,-0.17187 2.14063,-2.65625 -1.95313,-2.875 -1.01562,-0.15625 v -0.57813 h 3.26562 v 0.57813 l -0.89062,0.15625 1.40625,2.04687 1.5625,-2.01562 z m 6.08416,6.57812 q -0.75,0 -1.21875,-0.40625 -0.45312,-0.40625 -0.45312,-1.26562 0,-0.28125 0,-0.54688 0.0156,-0.26562 0.0156,-0.6875 v -3.46875 h -1.21875 v -0.64062 l 1.3125,-0.15625 0.375,-1.96875 h 0.89063 l -0.0937,1.98437 h 1.98437 v 0.78125 h -2 v 4.54688 q 0,0.5625 0.21875,0.8125 0.21875,0.25 0.59375,0.25 0.25,0 0.46875,-0.0937 0.23438,-0.10938 0.5,-0.29688 l 0.35938,0.375 q -0.59375,0.78125 -1.73438,0.78125 z m 8.11573,0 q -0.625,0 -1.14063,-0.14062 -0.5,-0.14063 -1.04687,-0.40625 l -0.0625,-1.625 h 0.8125 l 0.26562,1.28125 q 0.51563,0.23437 1.1875,0.23437 0.84375,0 1.25,-0.29687 0.40625,-0.3125 0.40625,-0.8125 0,-0.46875 -0.34375,-0.75 -0.34375,-0.29688 -1.03125,-0.53125 l -0.67187,-0.25 q -0.79688,-0.29688 -1.28125,-0.76563 -0.48438,-0.46875 -0.48438,-1.20312 0,-0.54688 0.28125,-1.01563 0.29688,-0.46875 0.85938,-0.76562 0.57812,-0.29688 1.40625,-0.29688 0.59375,0 1.07812,0.15625 0.5,0.15625 0.96875,0.45313 l -0.0625,1.48437 h -0.75 l -0.23437,-1.17187 q -0.5,-0.25 -1.01563,-0.25 -0.67187,0 -1.01562,0.28125 -0.34375,0.26562 -0.34375,0.71875 0,0.48437 0.29687,0.73437 0.29688,0.25 1.04688,0.53125 l 0.45312,0.15625 q 1.09375,0.40625 1.5625,0.9375 0.46875,0.53125 0.46875,1.21875 0,0.5625 -0.32812,1.04688 -0.32813,0.46875 -0.95313,0.76562 -0.625,0.28125 -1.57812,0.28125 z m 6.42334,0 q -0.75,0 -1.21875,-0.40625 -0.45313,-0.40625 -0.45313,-1.26562 0,-0.28125 0,-0.54688 0.0156,-0.26562 0.0156,-0.6875 v -3.46875 h -1.21875 v -0.64062 l 1.3125,-0.15625 0.375,-1.96875 h 0.89062 l -0.0937,1.98437 h 1.98438 v 0.78125 h -2 v 4.54688 q 0,0.5625 0.21875,0.8125 0.21875,0.25 0.59375,0.25 0.25,0 0.46875,-0.0937 0.23437,-0.10938 0.5,-0.29688 l 0.35937,0.375 q -0.59375,0.78125 -1.73437,0.78125 z m 7.85705,-0.0469 q -0.53125,0 -0.89062,-0.29688 -0.34375,-0.3125 -0.42188,-0.82812 -0.60937,0.59375 -1.0625,0.89062 -0.45312,0.28125 -1.09375,0.28125 -0.8125,0 -1.39062,-0.45312 -0.57813,-0.46875 -0.57813,-1.375 0,-0.42188 0.20313,-0.78125 0.20312,-0.375 0.71875,-0.71875 0.53125,-0.35938 1.51562,-0.71875 0.32813,-0.10938 0.76563,-0.23438 0.45312,-0.14062 0.89062,-0.25 v -0.35937 q 0,-1.07813 -0.32812,-1.42188 -0.3125,-0.35937 -1.04688,-0.35937 -0.17187,0 -0.375,0.0156 -0.1875,0.0156 -0.42187,0.0781 l -0.28125,0.95312 q -0.20313,0.70313 -0.76563,0.70313 -0.60937,0 -0.6875,-0.59375 0.21875,-0.84375 0.98438,-1.32813 0.76562,-0.5 1.875,-0.5 1.15625,0 1.71875,0.57813 0.5625,0.57812 0.5625,1.96875 v 3.125 q 0,0.46875 0.14062,0.67187 0.14063,0.20313 0.375,0.20313 0.20313,0 0.32813,-0.0937 0.14062,-0.0937 0.25,-0.23438 l 0.29687,0.32813 q -0.26562,0.42187 -0.57812,0.59375 -0.3125,0.15625 -0.70313,0.15625 z m -4.125,-2 q 0,0.57812 0.32813,0.82812 0.34375,0.25 0.84375,0.25 0.21875,0 0.40625,-0.0469 0.20312,-0.0625 0.48437,-0.23438 0.28125,-0.17187 0.71875,-0.48437 v -2.25 q -0.375,0.10937 -0.75,0.23437 -0.35937,0.125 -0.59375,0.20313 -0.64062,0.25 -0.95312,0.51562 -0.29688,0.26563 -0.39063,0.51563 -0.0937,0.25 -0.0937,0.46875 z m 8.49133,2.04687 q -0.75,0 -1.21875,-0.40625 -0.45312,-0.40625 -0.45312,-1.26562 0,-0.28125 0,-0.54688 0.0156,-0.26562 0.0156,-0.6875 v -3.46875 h -1.21875 v -0.64062 l 1.3125,-0.15625 0.375,-1.96875 h 0.89063 l -0.0937,1.98437 h 1.98437 v 0.78125 h -2 v 4.54688 q 0,0.5625 0.21875,0.8125 0.21875,0.25 0.59375,0.25 0.25,0 0.46875,-0.0937 0.23438,-0.10938 0.5,-0.29688 l 0.35938,0.375 q -0.59375,0.78125 -1.73438,0.78125 z m 5.70081,-6.67187 q -0.40625,0 -0.82812,0.23437 -0.40625,0.23438 -0.71875,0.75 -0.29688,0.51563 -0.375,1.35938 h 2.65625 q 0.53125,0 0.70312,-0.21875 0.17188,-0.21875 0.17188,-0.53125 0,-0.42188 -0.21875,-0.78125 -0.21875,-0.35938 -0.57813,-0.57813 -0.35937,-0.23437 -0.8125,-0.23437 z m -0.0156,6.67187 q -1.46875,0 -2.375,-0.95312 -0.89063,-0.96875 -0.89063,-2.65625 0,-1.125 0.45313,-1.95313 0.46875,-0.84375 1.23437,-1.3125 0.78125,-0.46875 1.6875,-0.46875 0.76563,0 1.375,0.34375 0.625,0.32813 0.98438,0.95313 0.35937,0.625 0.35937,1.51562 0,0.25 -0.0312,0.46875 -0.0156,0.20313 -0.0625,0.35938 h -4.67187 q 0.0312,1.34375 0.67187,2.04687 0.64063,0.70313 1.70313,0.70313 0.70312,0 1.17187,-0.28125 0.46875,-0.28125 0.85938,-0.73438 l 0.34375,0.26563 q -0.40625,0.78125 -1.10938,1.25 -0.70312,0.45312 -1.70312,0.45312 z"
       fill-rule="nonzero"
       id="path59" />
    <path
       fill="#000000"
       fill-opacity="0"
       d="m 722.4023,148.1176 c 8.52789,0 12.79187,-5.19685 17.05579,-10.39371 4.26397,-5.19684 8.52795,-10.3937 17.05584,-10.3937"
       fill-rule="evenodd"
       id="path61" />
    <path
       stroke="#595959"
       stroke-width="2"
       stroke-linejoin="round"
       stroke-linecap="butt"
       d="m 722.4022,148.1176 c 8.52795,0 12.79193,-5.19685 17.05585,-10.39371 1.06604,-1.29921 2.13202,-2.59842 3.26465,-3.81643 0.56622,-0.60901 1.14923,-1.19771 1.7572,-1.75597 0.15198,-0.13956 0.30554,-0.27722 0.46075,-0.41281 0.0776,-0.0678 0.1557,-0.1351 0.23419,-0.20184 l 0.0767,-0.0644"
       fill-rule="evenodd"
       id="path63" />
    <path
       fill="#595959"
       stroke="#595959"
       stroke-width="2"
       stroke-linecap="butt"
       d="m 746.39185,134.57289 7.37799,-6.23343 -9.65863,0.0326 z"
       fill-rule="evenodd"
       id="path65" />
    <path
       fill="#000000"
       fill-opacity="0"
       d="m 721.55273,156.74844 c 8.74029,0 13.11047,0.0158 17.48059,0.0315 4.37018,0.0157 8.74029,0.0315 17.48059,0.0315"
       fill-rule="evenodd"
       id="path67" />
    <path
       stroke="#1c4587"
       stroke-width="2"
       stroke-linejoin="round"
       stroke-linecap="butt"
       d="m 721.55273,156.74844 c 8.74036,0 13.11047,0.0158 17.48059,0.0315 l 5.48059,0.0167"
       fill-rule="evenodd"
       id="path69" />
    <path
       fill="#1c4587"
       stroke="#1c4587"
       stroke-width="2"
       stroke-linecap="butt"
       d="m 744.5099,160.10011 9.08026,-3.29228 -9.07214,-3.31465 z"
       fill-rule="evenodd"
       id="path71" />
    <path
       fill="#000000"
       fill-opacity="0"
       d="m 721.9122,168.68637 c 8.65045,0 12.97565,4.40158 17.3009,8.80315 4.3252,4.40158 8.65039,8.80316 17.30084,8.80316"
       fill-rule="evenodd"
       id="path73" />
    <path
       stroke="#3c78d8"
       stroke-width="2"
       stroke-linejoin="round"
       stroke-linecap="butt"
       d="m 721.9122,168.68637 c 8.65039,0 12.97565,4.40158 17.30084,8.80315 1.0813,1.1004 2.16266,2.20079 3.31153,3.2324 0.57446,0.51581 1.16583,1.01442 1.78247,1.48725 0.15417,0.11822 0.30993,0.23481 0.4674,0.34965 l 0.2735,0.19417"
       fill-rule="evenodd"
       id="path75" />
    <path
       fill="#3c78d8"
       stroke="#3c78d8"
       stroke-width="2"
       stroke-linecap="butt"
       d="m 744.0734,185.90947 9.64679,-0.47925 -7.69788,-5.83371 z"
       fill-rule="evenodd"
       id="path77" />
    <path
       fill="#f3f3f3"
       d="m 611.78925,145.14491 v 0 c -1.04553,-5.62312 2.38727,-11.18968 8.84186,-14.33757 6.45453,-3.14789 14.79889,-3.32503 21.49212,-0.45627 v 0 c 2.37098,-3.26952 6.71051,-5.5269 11.706,-6.08932 4.99548,-0.56243 10.06018,0.63617 13.66217,3.23322 v 0 c 2.01971,-2.96436 5.98553,-4.95603 10.49011,-5.26827 4.50464,-0.31223 8.91052,1.09916 11.65424,3.73334 v 0 c 3.64892,-3.1422 9.45452,-4.46521 14.90466,-3.39653 5.45013,1.06868 9.56586,4.33709 10.56634,8.39099 v 0 c 4.47058,0.89239 8.19452,3.16099 10.2096,6.21966 2.01514,3.05867 2.12372,6.60736 0.29773,9.72919 v 0 c 4.40228,4.19298 5.43207,9.78006 2.70508,14.67624 -2.72693,4.89619 -8.80097,8.3659 -15.95533,9.1143 -0.0504,4.59525 -3.49414,8.8118 -9.00384,11.0244 -5.50964,2.2126 -12.22492,2.07574 -17.55737,-0.3578 v 0 c -2.27137,5.50361 -8.66449,9.55311 -16.4173,10.39897 -7.75281,0.84587 -15.47546,-1.66354 -19.83154,-6.44409 v 0 c -5.3396,2.35635 -11.74665,3.03514 -17.77588,1.88324 -6.02924,-1.15189 -11.17279,-4.03742 -14.27033,-8.00568 v 0 c -5.45636,0.46729 -10.73193,-1.60155 -13.20849,-5.17972 -2.4765,-3.57817 -1.62677,-7.90397 2.1275,-10.83053 v 0 c -4.86719,-2.09645 -7.35077,-6.25652 -6.15558,-10.31087 1.19519,-4.05435 5.79834,-7.08427 11.40906,-7.50977 z"
       fill-rule="evenodd"
       id="path79" />
    <path
       fill="#000000"
       fill-opacity="0"
       d="m 606.428,163.18228 v 0 c 2.29687,0.98932 4.95032,1.4381 7.604,1.28607 m 3.47577,14.72455 c 1.14118,-0.0977 2.25977,-0.30469 3.32691,-0.61552 m 28.71771,6.7377 c -0.80261,-0.88086 -1.47467,-1.82213 -2.00458,-2.80779 m 38.25476,-1.14726 v 0 c 0.41413,-1.0034 0.68244,-2.0361 0.80042,-3.0809 m 25.75982,-7.58533 c 0.0537,-4.89235 -3.74334,-9.37184 -9.76019,-11.51439 m 23.01032,-12.27562 c -0.97443,1.66594 -2.46198,3.14377 -4.34601,4.31763 m -6.1604,-20.26692 v 0 c 0.16601,0.67274 0.24286,1.35559 0.22943,2.03909 m -25.70001,-7.03334 v 0 c -0.91028,0.78383 -1.66016,1.65974 -2.22644,2.60046 m -19.91816,-1.06588 v 0 c -0.48504,0.71194 -0.84729,1.4653 -1.0783,2.24272 m -24.29023,0.61343 v 0 c 1.41632,0.60704 2.72657,1.33766 3.90204,2.17583 m -34.23559,12.6181 v 0 c 0.1441,0.77501 0.37182,1.54047 0.68097,2.28922"
       fill-rule="evenodd"
       id="path81" />
    <path
       stroke="#595959"
       stroke-width="2"
       stroke-linejoin="round"
       stroke-linecap="butt"
       d="m 611.78925,145.14491 v 0 c -1.04553,-5.62312 2.38727,-11.18968 8.84186,-14.33757 6.45453,-3.14789 14.79889,-3.32503 21.49212,-0.45627 v 0 c 2.37098,-3.26952 6.71051,-5.5269 11.706,-6.08932 4.99548,-0.56243 10.06018,0.63617 13.66217,3.23322 v 0 c 2.01971,-2.96436 5.98553,-4.95603 10.49011,-5.26827 4.50464,-0.31223 8.91052,1.09916 11.65424,3.73334 v 0 c 3.64892,-3.1422 9.45452,-4.46521 14.90466,-3.39653 5.45013,1.06868 9.56586,4.33709 10.56634,8.39099 v 0 c 4.47058,0.89239 8.19452,3.16099 10.2096,6.21966 2.01514,3.05867 2.12372,6.60736 0.29773,9.72919 v 0 c 4.40228,4.19298 5.43207,9.78006 2.70508,14.67624 -2.72693,4.89619 -8.80097,8.3659 -15.95533,9.1143 -0.0504,4.59525 -3.49414,8.8118 -9.00384,11.0244 -5.50964,2.2126 -12.22492,2.07574 -17.55737,-0.3578 v 0 c -2.27137,5.50361 -8.66449,9.55311 -16.4173,10.39897 -7.75281,0.84587 -15.47546,-1.66354 -19.83154,-6.44409 v 0 c -5.3396,2.35635 -11.74665,3.03514 -17.77588,1.88324 -6.02924,-1.15189 -11.17279,-4.03742 -14.27033,-8.00568 v 0 c -5.45636,0.46729 -10.73193,-1.60155 -13.20849,-5.17972 -2.4765,-3.57817 -1.62677,-7.90397 2.1275,-10.83053 v 0 c -4.86719,-2.09645 -7.35077,-6.25652 -6.15558,-10.31087 1.19519,-4.05435 5.79834,-7.08427 11.40906,-7.50977 z"
       fill-rule="evenodd"
       id="path83" />
    <path
       stroke="#595959"
       stroke-width="2"
       stroke-linejoin="round"
       stroke-linecap="butt"
       d="m 606.428,163.18228 v 0 c 2.29687,0.98932 4.95032,1.4381 7.604,1.28607 m 3.47577,14.72455 c 1.14118,-0.0977 2.25977,-0.30469 3.32691,-0.61552 m 28.71771,6.7377 c -0.80261,-0.88086 -1.47467,-1.82213 -2.00458,-2.80779 m 38.25476,-1.14726 v 0 c 0.41413,-1.0034 0.68244,-2.0361 0.80042,-3.0809 m 25.75982,-7.58533 c 0.0537,-4.89235 -3.74334,-9.37184 -9.76019,-11.51439 m 23.01032,-12.27562 c -0.97443,1.66594 -2.46198,3.14377 -4.34601,4.31763 m -6.1604,-20.26692 v 0 c 0.16601,0.67274 0.24286,1.35559 0.22943,2.03909 m -25.70001,-7.03334 v 0 c -0.91028,0.78383 -1.66016,1.65974 -2.22644,2.60046 m -19.91816,-1.06588 v 0 c -0.48504,0.71194 -0.84729,1.4653 -1.0783,2.24272 m -24.29023,0.61343 v 0 c 1.41632,0.60704 2.72657,1.33766 3.90204,2.17583 m -34.23559,12.6181 v 0 c 0.1441,0.77501 0.37182,1.54047 0.68097,2.28922"
       fill-rule="evenodd"
       id="path85" />
    <path
       fill="#000000"
       d="m 639.1782,162.95758 q -2.1875,0 -3.5,-1.42188 -1.29688,-1.4375 -1.29688,-3.89062 0,-1.6875 0.6875,-2.89063 0.70313,-1.20312 1.82813,-1.84375 1.14062,-0.64062 2.42187,-0.64062 0.95313,0 1.76563,0.35937 0.8125,0.35938 1.34375,1 0.53125,0.625 0.65625,1.40625 -0.14063,0.8125 -0.98438,0.8125 -0.53125,0 -0.79687,-0.28125 -0.26563,-0.29687 -0.375,-0.73437 l -0.375,-1.40625 q -0.29688,-0.10938 -0.59375,-0.14063 -0.28125,-0.0312 -0.5625,-0.0312 -1.35938,0 -2.25,1.0625 -0.89063,1.0625 -0.89063,3.10938 0,2.01562 0.95313,3.07812 0.96875,1.0625 2.46875,1.0625 0.92187,0 1.6875,-0.40625 0.76562,-0.42187 1.25,-1.21875 l 0.53125,0.28125 q -0.4375,1.32813 -1.45313,2.03125 -1,0.70313 -2.51562,0.70313 z m 10.56445,0 q -1.23437,0 -2.35937,-0.57813 -1.10938,-0.59375 -1.82813,-1.78125 -0.70312,-1.1875 -0.70312,-2.9375 0,-1.76562 0.70312,-2.96875 0.71875,-1.20312 1.82813,-1.8125 1.125,-0.60937 2.35937,-0.60937 1.23438,0 2.35938,0.60937 1.125,0.60938 1.82812,1.8125 0.71875,1.20313 0.71875,2.96875 0,1.75 -0.71875,2.9375 -0.70312,1.1875 -1.82812,1.78125 -1.125,0.57813 -2.35938,0.57813 z m 0,-0.96875 q 1.39063,0 2.125,-1.09375 0.75,-1.09375 0.75,-3.23438 0,-2.15625 -0.75,-3.28125 -0.73437,-1.125 -2.125,-1.125 -1.39062,0 -2.125,1.125 -0.73437,1.125 -0.73437,3.28125 0,2.14063 0.73437,3.23438 0.73438,1.09375 2.125,1.09375 z m 6.7248,0.6875 v -0.76563 l 1.57812,-0.29687 q 0.0156,-0.8125 0.0156,-1.75 0.0156,-0.9375 0.0156,-1.67188 v -1.01562 q 0,-0.875 -0.0156,-1.45313 0,-0.57812 -0.0469,-1.21875 l -1.6875,-0.1875 v -0.75 l 3,-1.29687 0.3125,0.21875 0.17188,1.71875 q 0.75,-0.85938 1.75,-1.39063 1,-0.54687 1.98437,-0.54687 1,0 1.625,0.46875 0.625,0.46875 0.90625,1.53125 0.8125,-1 1.8125,-1.5 1,-0.5 2.04688,-0.5 1.3125,0 2.01562,0.875 0.71875,0.875 0.71875,2.85937 v 2.1875 q 0,0.73438 0,1.67188 0.0156,0.9375 0.0469,1.75 l 1.48437,0.29687 v 0.76563 h -4.9375 v -0.76563 l 1.57813,-0.29687 q 0.0156,-0.79688 0.0156,-1.73438 0.0156,-0.95312 0.0156,-1.6875 v -1.84375 q 0,-1.5 -0.42188,-2.01562 -0.42187,-0.53125 -1.35937,-0.53125 -0.67188,0 -1.35938,0.29687 -0.6875,0.29688 -1.5,1.04688 0.0156,0.23437 0.0312,0.5 0.0156,0.26562 0.0156,0.5625 v 1.98437 q 0,0.73438 0,1.67188 0.0156,0.9375 0.0312,1.75 l 1.5,0.29687 v 0.76563 h -4.95313 v -0.76563 l 1.57813,-0.29687 q 0.0156,-0.79688 0.0312,-1.73438 0.0156,-0.95312 0.0156,-1.6875 v -1.8125 q 0,-1.4375 -0.40625,-2 -0.40625,-0.57812 -1.34375,-0.57812 -0.71875,0 -1.39062,0.29687 -0.65625,0.29688 -1.45313,0.98438 v 3.10937 q 0,0.70313 0.0156,1.65625 0.0156,0.95313 0.0312,1.76563 l 1.46875,0.29687 v 0.76563 z m 18.99798,0 v -0.76563 l 1.59375,-0.28125 q 0.0312,-0.8125 0.0312,-1.75 0.0156,-0.95312 0.0156,-1.6875 v -9.35937 l -1.75,-0.21875 v -0.73438 l 3.26562,-0.96875 0.29688,0.17188 -0.0781,3.03125 v 3.79687 q 0.76563,-0.85937 1.57813,-1.25 0.82812,-0.39062 1.70312,-0.39062 1.125,0 2.04688,0.625 0.92187,0.60937 1.45312,1.78125 0.54688,1.17187 0.54688,2.84375 0,1.64062 -0.57813,2.875 -0.57812,1.21875 -1.5625,1.89062 -0.98437,0.67188 -2.25,0.67188 -0.75,0 -1.5,-0.3125 -0.73437,-0.32813 -1.4375,-1.20313 l -0.17187,1.45313 z m 6.07813,-9.1875 q -0.48438,0 -1.125,0.25 -0.64063,0.25 -1.51563,0.98437 v 5.84375 q 0.65625,0.60938 1.29688,0.89063 0.64062,0.28125 1.23437,0.28125 1.125,0 1.96875,-0.98438 0.84375,-1 0.84375,-3.0625 0,-2.04687 -0.76562,-3.125 -0.75,-1.07812 -1.9375,-1.07812 z"
       fill-rule="nonzero"
       id="path87" />
  </g>
</svg>
