<?xml version="1.0" encoding="UTF-8" standalone="no"?>
<svg
   version="1.1"
   viewBox="0 0 438.25983 108.49606"
   fill="none"
   stroke="none"
   stroke-linecap="square"
   stroke-miterlimit="10"
   id="svg223"
   sodipodi:docname="tutorial-combinator.svg"
   width="438.25983"
   height="108.49606"
   inkscape:version="1.1.2 (b8e25be8, 2022-02-05)"
   xmlns:inkscape="http://www.inkscape.org/namespaces/inkscape"
   xmlns:sodipodi="http://sodipodi.sourceforge.net/DTD/sodipodi-0.dtd"
   xmlns="http://www.w3.org/2000/svg"
   xmlns:svg="http://www.w3.org/2000/svg">
  <defs
     id="defs227" />
  <sodipodi:namedview
     id="namedview225"
     pagecolor="#ffffff"
     bordercolor="#666666"
     borderopacity="1.0"
     inkscape:pageshadow="2"
     inkscape:pageopacity="0.0"
     inkscape:pagecheckerboard="0"
     showgrid="false"
     inkscape:zoom="1.05"
     inkscape:cx="436.66667"
     inkscape:cy="70"
     inkscape:window-width="1296"
     inkscape:window-height="789"
     inkscape:window-x="0"
     inkscape:window-y="25"
     inkscape:window-maximized="0"
     inkscape:current-layer="g221" />
  <clipPath
     id="g305443f3828_0_6.0">
    <path
       d="M 0,0 H 960 V 540 H 0 Z"
       clip-rule="nonzero"
       id="path2" />
  </clipPath>
  <g
     clip-path="url(#g305443f3828_0_6.0)"
     id="g221"
     transform="translate(-42.78085,-199.55774)">
    <path
       fill="#000000"
       fill-opacity="0"
       d="M 0,0 H 504 V 72.97638 H 0 Z"
       fill-rule="evenodd"
       id="path11" />
    <path
       fill="#d9d9d9"
       d="m 199.82808,223.52231 h 124.15749 v 76.50394 H 199.82808 Z"
       fill-rule="evenodd"
       id="path89" />
    <path
       stroke="#595959"
       stroke-width="1"
       stroke-linejoin="round"
       stroke-linecap="butt"
       d="m 199.82808,223.52231 h 124.15749 v 76.50394 H 199.82808 Z"
       fill-rule="evenodd"
       id="path91" />
    <path
       fill="#000000"
       fill-opacity="0"
       d="m 113.51444,235.65355 h 86.33069 v 14.86613 h -86.33069 z"
       fill-rule="evenodd"
       id="path93" />
    <path
       fill="#202122"
       d="m 133.71033,247.52281 q -0.78125,0 -1.51563,-0.29688 -0.71875,-0.3125 -1.3125,-0.89062 -0.57812,-0.59375 -0.92187,-1.45313 -0.34375,-0.875 -0.34375,-2.03125 0,-1.09375 0.34375,-1.95312 0.34375,-0.875 0.92187,-1.46875 0.59375,-0.59375 1.3125,-0.90625 0.73438,-0.3125 1.51563,-0.3125 0.76562,0 1.48437,0.29687 0.73438,0.29688 1.3125,0.89063 0.59375,0.57812 0.9375,1.45312 0.34375,0.85938 0.34375,2 0,1.09375 -0.34375,1.96875 -0.34375,0.85938 -0.92187,1.46875 -0.57813,0.60938 -1.3125,0.92188 -0.73438,0.3125 -1.5,0.3125 z m 0,-0.67188 q 0.6875,0 1.1875,-0.32812 0.5,-0.34375 0.8125,-0.90625 0.3125,-0.57813 0.45312,-1.28125 0.15625,-0.71875 0.15625,-1.48438 0,-0.75 -0.15625,-1.45312 -0.14062,-0.71875 -0.45312,-1.28125 -0.3125,-0.57813 -0.8125,-0.90625 -0.5,-0.34375 -1.1875,-0.34375 -0.6875,0 -1.1875,0.34375 -0.5,0.32812 -0.82813,0.90625 -0.3125,0.5625 -0.46875,1.28125 -0.15625,0.70312 -0.15625,1.45312 0,0.76563 0.15625,1.48438 0.15625,0.70312 0.46875,1.28125 0.32813,0.5625 0.82813,0.90625 0.5,0.32812 1.1875,0.32812 z m 5.17294,3.65625 v -0.46875 l 1.0625,-0.1875 q 0.0156,-0.54687 0.0156,-1.09375 0.0156,-0.53125 0.0156,-1.0625 v -3.8125 q 0,-0.54687 -0.0156,-0.90625 0,-0.35937 -0.0312,-0.76562 l -1.04688,-0.10938 v -0.46875 l 1.85938,-0.8125 0.20312,0.125 0.0781,0.875 q 0.95312,-1 2.01562,-1 0.71875,0 1.28125,0.40625 0.57813,0.39063 0.92188,1.14063 0.34375,0.73437 0.34375,1.76562 0,1.03125 -0.35938,1.78125 -0.35937,0.75 -0.98437,1.17188 -0.60938,0.40625 -1.40625,0.40625 -0.45313,0 -0.90625,-0.1875 -0.4375,-0.1875 -0.85938,-0.67188 v 1.04688 q 0,0.53125 0,1.0625 0.0156,0.54687 0.0156,1.09375 l 1.21875,0.20312 v 0.46875 z m 3.84375,-8.9375 q -0.3125,0 -0.71875,0.15625 -0.39062,0.15625 -0.90625,0.57813 v 3.75 q 0.375,0.35937 0.73438,0.51562 0.35937,0.15625 0.73437,0.15625 0.75,0 1.28125,-0.59375 0.53125,-0.59375 0.53125,-1.89062 0,-1.28125 -0.46875,-1.96875 -0.46875,-0.70313 -1.1875,-0.70313 z m 6.05881,5.92188 q -0.6875,0 -1.10937,-0.375 -0.40625,-0.375 -0.40625,-1.14063 0,-0.25 0,-0.5 0,-0.25 0,-0.64062 v -3.14063 h -1.09375 v -0.57812 l 1.1875,-0.15625 0.34375,-1.78125 h 0.79687 l -0.0781,1.8125 h 1.79687 v 0.70312 h -1.8125 v 4.125 q 0,0.51563 0.20313,0.75 0.20312,0.23438 0.53125,0.23438 0.21875,0 0.42187,-0.0937 0.21875,-0.0937 0.46875,-0.26563 l 0.32813,0.34375 q -0.54688,0.70313 -1.57813,0.70313 z m 2.36287,-4.25 v -0.625 l 5.15625,-3 0.39062,0.71875 -4.625,2.59375 4.625,2.59375 -0.39062,0.71875 z m 6.90533,-4.29688 v -0.54687 h 3.76563 v 0.54687 l -1.23438,0.15625 q 0,0.82813 -0.0156,1.70313 0,0.85937 0,1.73437 v 0.65625 q 0,0.84375 0,1.70313 0.0156,0.85937 0.0156,1.73437 l 1.23438,0.14063 v 0.54687 h -3.76563 v -0.54687 l 1.21875,-0.14063 q 0.0312,-0.84375 0.0312,-1.70312 0,-0.875 0,-1.73438 v -0.65625 q 0,-0.875 0,-1.73437 0,-0.85938 -0.0312,-1.70313 z m 10.50722,0 v -0.54687 h 3.76563 v 0.54687 l -1.23438,0.15625 q -0.0156,0.82813 -0.0312,1.70313 0,0.85937 0,1.73437 v 0.65625 q 0,0.84375 0,1.70313 0.0156,0.85937 0.0312,1.73437 l 1.23438,0.14063 v 0.54687 h -3.76563 v -0.54687 l 1.23438,-0.14063 q 0.0156,-0.85937 0.0156,-1.73437 0,-0.89063 0,-1.82813 h -4.29687 q 0,1.01563 0,1.89063 0.0156,0.85937 0.0156,1.67187 l 1.21875,0.14063 v 0.54687 h -3.75 v -0.54687 l 1.21875,-0.14063 q 0.0312,-0.84375 0.0312,-1.70312 0,-0.875 0,-1.73438 v -0.65625 q 0,-0.875 0,-1.73437 0,-0.85938 -0.0312,-1.70313 l -1.21875,-0.15625 v -0.54687 h 3.75 v 0.54687 l -1.21875,0.14063 q 0,0.84375 -0.0156,1.70312 0,0.85938 0,1.65625 h 4.29687 q 0,-0.875 0,-1.70312 0,-0.82813 -0.0156,-1.64063 z m 6.35961,3.70313 q -0.40625,0 -0.6875,-0.28125 -0.26563,-0.28125 -0.26563,-0.65625 0,-0.40625 0.26563,-0.6875 0.28125,-0.28125 0.6875,-0.28125 0.40625,0 0.67187,0.28125 0.28125,0.28125 0.28125,0.6875 0,0.375 -0.28125,0.65625 -0.26562,0.28125 -0.67187,0.28125 z m 0,4.84375 q -0.40625,0 -0.6875,-0.28125 -0.26563,-0.28125 -0.26563,-0.65625 0,-0.40625 0.26563,-0.6875 0.28125,-0.28125 0.6875,-0.28125 0.40625,0 0.67187,0.28125 0.28125,0.28125 0.28125,0.6875 0,0.375 -0.28125,0.65625 -0.26562,0.28125 -0.67187,0.28125 z m 3.99842,-4.84375 q -0.40625,0 -0.6875,-0.28125 -0.26562,-0.28125 -0.26562,-0.65625 0,-0.40625 0.26562,-0.6875 0.28125,-0.28125 0.6875,-0.28125 0.40625,0 0.67188,0.28125 0.28125,0.28125 0.28125,0.6875 0,0.375 -0.28125,0.65625 -0.26563,0.28125 -0.67188,0.28125 z m 0,4.84375 q -0.40625,0 -0.6875,-0.28125 -0.26562,-0.28125 -0.26562,-0.65625 0,-0.40625 0.26562,-0.6875 0.28125,-0.28125 0.6875,-0.28125 0.40625,0 0.67188,0.28125 0.28125,0.28125 0.28125,0.6875 0,0.375 -0.28125,0.65625 -0.26563,0.28125 -0.67188,0.28125 z m 5.93593,-8.46875 h -0.8125 q 0,0.84375 -0.0156,1.73437 0,0.89063 0,1.78125 v 0.64063 h 0.875 q 1.21875,0 1.73437,-0.59375 0.51563,-0.59375 0.51563,-1.53125 0,-0.96875 -0.5625,-1.5 -0.54688,-0.53125 -1.73438,-0.53125 z m -3.34375,-0.0781 v -0.54687 h 3.57813 q 1.6875,0 2.53125,0.75 0.85937,0.73437 0.85937,1.90625 0,0.75 -0.375,1.375 -0.375,0.625 -1.20312,1 -0.8125,0.375 -2.1875,0.375 h -0.6875 q 0,0.71875 0,1.42187 0.0156,0.6875 0.0156,1.40625 l 1.25,0.14063 v 0.54687 h -3.78125 v -0.54687 l 1.21875,-0.14063 q 0.0312,-0.84375 0.0312,-1.70312 0,-0.875 0,-1.73438 v -0.65625 q 0,-0.875 0,-1.73437 0,-0.85938 -0.0312,-1.70313 z m 13.56899,3.67188 v 0.625 l -5.15625,3 -0.39063,-0.71875 4.625,-2.59375 -4.625,-2.59375 0.39063,-0.71875 z"
       fill-rule="nonzero"
       id="path95" />
    <path
       fill="#000000"
       fill-opacity="0"
       d="m 148.72023,255.20676 h 51.10551"
       fill-rule="evenodd"
       id="path97" />
    <path
       stroke="#595959"
       stroke-width="2"
       stroke-linejoin="round"
       stroke-linecap="butt"
       d="m 148.72023,255.20676 h 39.10551"
       fill-rule="evenodd"
       id="path99" />
    <path
       fill="#595959"
       stroke="#595959"
       stroke-width="2"
       stroke-linecap="butt"
       d="m 187.82574,258.51022 9.0762,-3.30347 -9.0762,-3.30346 z"
       fill-rule="evenodd"
       id="path101" />
    <path
       fill="#000000"
       fill-opacity="0"
       d="m 148.72023,249.25597 h 18.39799 v 11.9016 h -18.39799 z"
       fill-rule="evenodd"
       id="path103" />
    <path
       fill="#000000"
       fill-opacity="0"
       d="m 181.407,249.25597 h 18.39798 v 11.9016 H 181.407 Z"
       fill-rule="evenodd"
       id="path105" />
    <path
       fill="#000000"
       fill-opacity="0"
       d="M 199.82504,285.05225 H 148.71952"
       fill-rule="evenodd"
       id="path107" />
    <path
       stroke="#1c4587"
       stroke-width="2"
       stroke-linejoin="round"
       stroke-linecap="butt"
       d="m 199.82503,285.05225 h -39.1055"
       fill-rule="evenodd"
       id="path109" />
    <path
       fill="#1c4587"
       stroke="#1c4587"
       stroke-width="2"
       stroke-linecap="butt"
       d="m 160.71953,281.74878 -9.07619,3.30347 9.07619,3.30346 z"
       fill-rule="evenodd"
       id="path111" />
    <path
       fill="#000000"
       fill-opacity="0"
       d="m 148.74133,279.10144 h 18.398 v 11.90161 h -18.398 z"
       fill-rule="evenodd"
       id="path113" />
    <path
       fill="#000000"
       fill-opacity="0"
       d="m 181.42776,279.10144 h 18.39798 v 11.90161 h -18.39798 z"
       fill-rule="evenodd"
       id="path115" />
    <path
       fill="#000000"
       fill-opacity="0"
       d="m 232.48032,262.15967 v 0 c 0,-3.5863 2.90727,-6.49358 6.49356,-6.49358 h 45.879 c 1.72223,0 3.37387,0.68416 4.59167,1.90194 1.21778,1.21777 1.90192,2.86944 1.90192,4.59164 v 25.97348 c 0,3.5863 -2.90729,6.49356 -6.49359,6.49356 h -45.879 c -3.58629,0 -6.49356,-2.90726 -6.49356,-6.49356 z"
       fill-rule="evenodd"
       id="path117" />
    <path
       stroke="#595959"
       stroke-width="1"
       stroke-linejoin="round"
       stroke-linecap="butt"
       d="m 232.48032,262.15967 v 0 c 0,-3.5863 2.90727,-6.49358 6.49356,-6.49358 h 45.879 c 1.72223,0 3.37387,0.68416 4.59167,1.90194 1.21778,1.21777 1.90192,2.86944 1.90192,4.59164 v 25.97348 c 0,3.5863 -2.90729,6.49356 -6.49359,6.49356 h -45.879 c -3.58629,0 -6.49356,-2.90726 -6.49356,-6.49356 z"
       fill-rule="evenodd"
       id="path119" />
    <path
       fill="#202122"
       d="m 248.71584,280.1183 q -1.375,0 -2.1875,-0.89063 -0.8125,-0.89062 -0.8125,-2.42187 0,-1.0625 0.42187,-1.8125 0.4375,-0.75 1.14063,-1.14063 0.71875,-0.40625 1.51562,-0.40625 0.59375,0 1.09375,0.23438 0.51563,0.21875 0.84375,0.60937 0.34375,0.39063 0.42188,0.89063 -0.0937,0.5 -0.60938,0.5 -0.34375,0 -0.51562,-0.17188 -0.15625,-0.1875 -0.21875,-0.46875 l -0.25,-0.875 q -0.1875,-0.0625 -0.375,-0.0781 -0.17188,-0.0312 -0.34375,-0.0312 -0.84375,0 -1.40625,0.67187 -0.54688,0.65625 -0.54688,1.9375 0,1.25 0.59375,1.92188 0.60938,0.67187 1.53125,0.67187 0.57813,0 1.04688,-0.26562 0.48437,-0.26563 0.79687,-0.75 l 0.32813,0.17187 q -0.28125,0.82813 -0.90625,1.26563 -0.625,0.4375 -1.5625,0.4375 z m 6.59785,0 q -0.78125,0 -1.48437,-0.35938 -0.6875,-0.375 -1.14063,-1.10937 -0.4375,-0.75 -0.4375,-1.82813 0,-1.10937 0.4375,-1.85937 0.45313,-0.76563 1.14063,-1.14063 0.70312,-0.375 1.48437,-0.375 0.76563,0 1.46875,0.375 0.70313,0.375 1.14063,1.14063 0.45312,0.75 0.45312,1.85937 0,1.07813 -0.45312,1.82813 -0.4375,0.73437 -1.14063,1.10937 -0.70312,0.35938 -1.46875,0.35938 z m 0,-0.59375 q 0.85938,0 1.32813,-0.6875 0.46875,-0.6875 0.46875,-2.01563 0,-1.35937 -0.46875,-2.0625 -0.46875,-0.70312 -1.32813,-0.70312 -0.875,0 -1.34375,0.70312 -0.45312,0.70313 -0.45312,2.0625 0,1.32813 0.45312,2.01563 0.46875,0.6875 1.34375,0.6875 z m 4.19211,0.42187 v -0.48437 l 0.98438,-0.1875 q 0.0156,-0.5 0.0156,-1.07813 0.0156,-0.59375 0.0156,-1.04687 v -0.64063 q 0,-0.54687 -0.0156,-0.90625 0,-0.35937 -0.0312,-0.76562 l -1.04687,-0.10938 v -0.46875 l 1.85937,-0.8125 0.20313,0.125 0.10937,1.07813 q 0.46875,-0.53125 1.09375,-0.85938 0.625,-0.34375 1.23438,-0.34375 0.625,0 1.01562,0.29688 0.40625,0.28125 0.57813,0.95312 0.5,-0.625 1.125,-0.9375 0.625,-0.3125 1.28125,-0.3125 0.8125,0 1.25,0.54688 0.45312,0.54687 0.45312,1.78125 v 1.375 q 0,0.45312 0,1.04687 0.0156,0.57813 0.0312,1.07813 l 0.9375,0.1875 v 0.48437 h -3.09375 v -0.48437 l 0.98438,-0.1875 q 0.0156,-0.48438 0.0156,-1.07813 0.0156,-0.59375 0.0156,-1.04687 v -1.15625 q 0,-0.9375 -0.26563,-1.26563 -0.26562,-0.32812 -0.85937,-0.32812 -0.40625,0 -0.84375,0.1875 -0.4375,0.1875 -0.9375,0.65625 0.0156,0.14062 0.0156,0.3125 0,0.17187 0,0.35937 v 1.23438 q 0,0.45312 0,1.04687 0.0156,0.57813 0.0312,1.07813 l 0.9375,0.1875 v 0.48437 h -3.09375 v -0.48437 l 0.98438,-0.1875 q 0.0156,-0.48438 0.0156,-1.07813 0.0156,-0.59375 0.0156,-1.04687 v -1.14063 q 0,-0.90625 -0.26563,-1.25 -0.25,-0.35937 -0.82812,-0.35937 -0.45313,0 -0.875,0.1875 -0.40625,0.1875 -0.90625,0.60937 v 1.95313 q 0,0.4375 0,1.03125 0.0156,0.59375 0.0312,1.09375 l 0.92187,0.1875 v 0.48437 z m 11.88361,0 v -0.48437 l 1,-0.17188 q 0,-0.5 0,-1.09375 0.0156,-0.59375 0.0156,-1.04687 v -5.85938 l -1.09375,-0.125 v -0.46875 l 2.04688,-0.59375 0.1875,0.0937 -0.0625,1.90625 v 2.35938 q 0.48437,-0.53125 1,-0.76563 0.51562,-0.25 1.0625,-0.25 0.70312,0 1.26562,0.39063 0.57813,0.375 0.92188,1.10937 0.34375,0.73438 0.34375,1.78125 0,1.01563 -0.35938,1.78125 -0.35937,0.76563 -0.98437,1.1875 -0.625,0.42188 -1.40625,0.42188 -0.46875,0 -0.9375,-0.20313 -0.45313,-0.20312 -0.90625,-0.73437 l -0.0937,0.90625 z m 3.79687,-5.75 q -0.3125,0 -0.71875,0.17188 -0.39062,0.15625 -0.9375,0.60937 v 3.65625 q 0.40625,0.375 0.8125,0.54688 0.40625,0.17187 0.76563,0.17187 0.71875,0 1.23437,-0.60937 0.53125,-0.625 0.53125,-1.92188 0,-1.26562 -0.48437,-1.9375 -0.46875,-0.6875 -1.20313,-0.6875 z"
       fill-rule="nonzero"
       id="path121" />
    <path
       fill="#000000"
       fill-opacity="0"
       d="M 323.99057,255.20676 H 375.0961"
       fill-rule="evenodd"
       id="path123" />
    <path
       stroke="#595959"
       stroke-width="2"
       stroke-linejoin="round"
       stroke-linecap="butt"
       d="M 323.99057,255.20676 H 363.0961"
       fill-rule="evenodd"
       id="path125" />
    <path
       fill="#595959"
       stroke="#595959"
       stroke-width="2"
       stroke-linecap="butt"
       d="m 363.0961,258.51022 9.07617,-3.30347 -9.07617,-3.30346 z"
       fill-rule="evenodd"
       id="path127" />
    <path
       fill="#000000"
       fill-opacity="0"
       d="m 323.99057,249.25597 h 18.39798 v 11.9016 h -18.39798 z"
       fill-rule="evenodd"
       id="path129" />
    <path
       fill="#000000"
       fill-opacity="0"
       d="m 356.67734,249.25597 h 18.39798 v 11.9016 h -18.39798 z"
       fill-rule="evenodd"
       id="path131" />
    <path
       fill="#000000"
       fill-opacity="0"
       d="m 375.09537,285.05225 h -51.1055"
       fill-rule="evenodd"
       id="path133" />
    <path
       stroke="#1c4587"
       stroke-width="2"
       stroke-linejoin="round"
       stroke-linecap="butt"
       d="M 375.0954,285.05225 H 335.98987"
       fill-rule="evenodd"
       id="path135" />
    <path
       fill="#1c4587"
       stroke="#1c4587"
       stroke-width="2"
       stroke-linecap="butt"
       d="m 335.98987,281.74878 -9.0762,3.30347 9.0762,3.30346 z"
       fill-rule="evenodd"
       id="path137" />
    <path
       fill="#000000"
       fill-opacity="0"
       d="m 324.0117,279.10144 h 18.39798 v 11.90161 H 324.0117 Z"
       fill-rule="evenodd"
       id="path139" />
    <path
       fill="#000000"
       fill-opacity="0"
       d="m 356.6981,279.10144 h 18.39801 v 11.90161 H 356.6981 Z"
       fill-rule="evenodd"
       id="path141" />
    <path
       fill="#000000"
       fill-opacity="0"
       d="m 137.83989,264.47235 h 61.98425 v 14.86615 h -61.98425 z"
       fill-rule="evenodd"
       id="path143" />
    <path
       fill="#202122"
       d="m 164.28389,267.7635 v -0.54687 h 3.76563 v 0.54687 l -1.23438,0.15625 q 0,0.82813 -0.0156,1.70313 0,0.85937 0,1.73437 v 0.65625 q 0,0.84375 0,1.70313 0.0156,0.85937 0.0156,1.73437 l 1.23438,0.14063 v 0.54687 h -3.76563 v -0.54687 l 1.21875,-0.14063 q 0.0312,-0.84375 0.0312,-1.70312 0,-0.875 0,-1.73438 v -0.65625 q 0,-0.875 0,-1.73437 0,-0.85938 -0.0312,-1.70313 z m 10.50722,0 v -0.54687 h 3.76562 v 0.54687 l -1.23437,0.15625 q -0.0156,0.82813 -0.0312,1.70313 0,0.85937 0,1.73437 v 0.65625 q 0,0.84375 0,1.70313 0.0156,0.85937 0.0312,1.73437 l 1.23437,0.14063 v 0.54687 h -3.76562 v -0.54687 l 1.23437,-0.14063 q 0.0156,-0.85937 0.0156,-1.73437 0,-0.89063 0,-1.82813 h -4.29688 q 0,1.01563 0,1.89063 0.0156,0.85937 0.0156,1.67187 l 1.21875,0.14063 v 0.54687 h -3.75 v -0.54687 l 1.21875,-0.14063 q 0.0312,-0.84375 0.0312,-1.70312 0,-0.875 0,-1.73438 v -0.65625 q 0,-0.875 0,-1.73437 0,-0.85938 -0.0312,-1.70313 l -1.21875,-0.15625 v -0.54687 h 3.75 v 0.54687 l -1.21875,0.14063 q 0,0.84375 -0.0156,1.70312 0,0.85938 0,1.65625 h 4.29688 q 0,-0.875 0,-1.70312 0,-0.82813 -0.0156,-1.64063 z m 6.3596,3.70313 q -0.40625,0 -0.6875,-0.28125 -0.26562,-0.28125 -0.26562,-0.65625 0,-0.40625 0.26562,-0.6875 0.28125,-0.28125 0.6875,-0.28125 0.40625,0 0.67188,0.28125 0.28125,0.28125 0.28125,0.6875 0,0.375 -0.28125,0.65625 -0.26563,0.28125 -0.67188,0.28125 z m 0,4.84375 q -0.40625,0 -0.6875,-0.28125 -0.26562,-0.28125 -0.26562,-0.65625 0,-0.40625 0.26562,-0.6875 0.28125,-0.28125 0.6875,-0.28125 0.40625,0 0.67188,0.28125 0.28125,0.28125 0.28125,0.6875 0,0.375 -0.28125,0.65625 -0.26563,0.28125 -0.67188,0.28125 z m 3.99843,-4.84375 q -0.40625,0 -0.6875,-0.28125 -0.26563,-0.28125 -0.26563,-0.65625 0,-0.40625 0.26563,-0.6875 0.28125,-0.28125 0.6875,-0.28125 0.40625,0 0.67187,0.28125 0.28125,0.28125 0.28125,0.6875 0,0.375 -0.28125,0.65625 -0.26562,0.28125 -0.67187,0.28125 z m 0,4.84375 q -0.40625,0 -0.6875,-0.28125 -0.26563,-0.28125 -0.26563,-0.65625 0,-0.40625 0.26563,-0.6875 0.28125,-0.28125 0.6875,-0.28125 0.40625,0 0.67187,0.28125 0.28125,0.28125 0.28125,0.6875 0,0.375 -0.28125,0.65625 -0.26562,0.28125 -0.67187,0.28125 z m 6.27968,-8.46875 h -1.15625 q 0,0.875 -0.0156,1.75 0,0.875 0,1.8125 h 1.01563 q 1.09375,0 1.59375,-0.51563 0.51562,-0.51562 0.51562,-1.32812 0,-0.82813 -0.46875,-1.26563 -0.46875,-0.45312 -1.48437,-0.45312 z m -3.6875,-0.0781 v -0.54687 h 3.71875 q 1.53125,0 2.39062,0.625 0.85938,0.60937 0.85938,1.71875 0,0.76562 -0.5625,1.40625 -0.5625,0.64062 -1.6875,0.84375 0.59375,0.10937 0.96875,0.51562 0.375,0.39063 0.60937,1.17188 l 0.57813,1.96875 1.01562,0.125 v 0.54687 q -0.1875,0.0469 -0.4375,0.0937 -0.25,0.0469 -0.5625,0.0469 -0.625,0 -0.9375,-0.1875 -0.3125,-0.1875 -0.42187,-0.67188 l -0.54688,-2.14062 q -0.10937,-0.54688 -0.34375,-0.8125 -0.21875,-0.26563 -0.57812,-0.35938 -0.34375,-0.0937 -0.89063,-0.0937 h -0.65625 q 0,0.95313 0,1.79688 0.0156,0.82812 0.0156,1.64062 l 1.23437,0.14063 v 0.54687 h -3.76562 v -0.54687 l 1.21875,-0.14063 q 0.0312,-0.84375 0.0312,-1.70312 0,-0.875 0,-1.73438 v -0.65625 q 0,-0.875 0,-1.73437 0,-0.85938 -0.0312,-1.70313 z"
       fill-rule="nonzero"
       id="path145" />
    <path
       fill="#000000"
       fill-opacity="0"
       d="m 323.98688,235.65355 h 89.5433 v 14.86613 h -89.5433 z"
       fill-rule="evenodd"
       id="path147" />
    <path
       fill="#202122"
       d="m 332.70563,247.52281 q -0.78125,0 -1.51563,-0.29688 -0.71875,-0.3125 -1.3125,-0.89062 -0.57812,-0.59375 -0.92187,-1.45313 -0.34375,-0.875 -0.34375,-2.03125 0,-1.09375 0.34375,-1.95312 0.34375,-0.875 0.92187,-1.46875 0.59375,-0.59375 1.3125,-0.90625 0.73438,-0.3125 1.51563,-0.3125 0.76562,0 1.48437,0.29687 0.73438,0.29688 1.3125,0.89063 0.59375,0.57812 0.9375,1.45312 0.34375,0.85938 0.34375,2 0,1.09375 -0.34375,1.96875 -0.34375,0.85938 -0.92187,1.46875 -0.57813,0.60938 -1.3125,0.92188 -0.73438,0.3125 -1.5,0.3125 z m 0,-0.67188 q 0.6875,0 1.1875,-0.32812 0.5,-0.34375 0.8125,-0.90625 0.3125,-0.57813 0.45312,-1.28125 0.15625,-0.71875 0.15625,-1.48438 0,-0.75 -0.15625,-1.45312 -0.14062,-0.71875 -0.45312,-1.28125 -0.3125,-0.57813 -0.8125,-0.90625 -0.5,-0.34375 -1.1875,-0.34375 -0.6875,0 -1.1875,0.34375 -0.5,0.32812 -0.82813,0.90625 -0.3125,0.5625 -0.46875,1.28125 -0.15625,0.70312 -0.15625,1.45312 0,0.76563 0.15625,1.48438 0.15625,0.70312 0.46875,1.28125 0.32813,0.5625 0.82813,0.90625 0.5,0.32812 1.1875,0.32812 z m 5.17294,3.65625 v -0.46875 l 1.0625,-0.1875 q 0.0156,-0.54687 0.0156,-1.09375 0.0156,-0.53125 0.0156,-1.0625 v -3.8125 q 0,-0.54687 -0.0156,-0.90625 0,-0.35937 -0.0312,-0.76562 l -1.04688,-0.10938 v -0.46875 l 1.85938,-0.8125 0.20312,0.125 0.0781,0.875 q 0.95312,-1 2.01562,-1 0.71875,0 1.28125,0.40625 0.57813,0.39063 0.92188,1.14063 0.34375,0.73437 0.34375,1.76562 0,1.03125 -0.35938,1.78125 -0.35937,0.75 -0.98437,1.17188 -0.60938,0.40625 -1.40625,0.40625 -0.45313,0 -0.90625,-0.1875 -0.4375,-0.1875 -0.85938,-0.67188 v 1.04688 q 0,0.53125 0,1.0625 0.0156,0.54687 0.0156,1.09375 l 1.21875,0.20312 v 0.46875 z m 3.84375,-8.9375 q -0.3125,0 -0.71875,0.15625 -0.39062,0.15625 -0.90625,0.57813 v 3.75 q 0.375,0.35937 0.73438,0.51562 0.35937,0.15625 0.73437,0.15625 0.75,0 1.28125,-0.59375 0.53125,-0.59375 0.53125,-1.89062 0,-1.28125 -0.46875,-1.96875 -0.46875,-0.70313 -1.1875,-0.70313 z m 6.05881,5.92188 q -0.6875,0 -1.10937,-0.375 -0.40625,-0.375 -0.40625,-1.14063 0,-0.25 0,-0.5 0,-0.25 0,-0.64062 v -3.14063 h -1.09375 v -0.57812 l 1.1875,-0.15625 0.34375,-1.78125 h 0.79687 l -0.0781,1.8125 h 1.79687 v 0.70312 h -1.8125 v 4.125 q 0,0.51563 0.20313,0.75 0.20312,0.23438 0.53125,0.23438 0.21875,0 0.42187,-0.0937 0.21875,-0.0937 0.46875,-0.26563 l 0.32813,0.34375 q -0.54688,0.70313 -1.57813,0.70313 z m 2.36285,-4.25 v -0.625 l 5.15625,-3 0.39063,0.71875 -4.625,2.59375 4.625,2.59375 -0.39063,0.71875 z m 6.90534,-4.29688 v -0.54687 h 6.625 l 0.0937,2.35937 h -0.75 l -0.29688,-1.6875 h -3.14062 q 0,0.85938 -0.0156,1.71875 0,0.84375 0,1.67188 h 1.95313 l 0.1875,-1.26563 h 0.60937 v 3.14063 h -0.60937 l -0.17188,-1.25 h -1.96875 q 0,1 0,1.875 0.0156,0.85937 0.0156,1.6875 h 3.40625 l 0.29687,-1.70313 h 0.75 l -0.0937,2.375 h -6.89062 v -0.54687 l 1.21875,-0.14063 q 0.0312,-0.84375 0.0312,-1.70312 0,-0.875 0,-1.73438 v -0.65625 q 0,-0.875 0,-1.73437 0,-0.85938 -0.0312,-1.70313 z m 13.59933,0 v -0.54687 h 3.76563 v 0.54687 l -1.23438,0.15625 q -0.0156,0.82813 -0.0312,1.70313 0,0.85937 0,1.73437 v 0.65625 q 0,0.84375 0,1.70313 0.0156,0.85937 0.0312,1.73437 l 1.23438,0.14063 v 0.54687 h -3.76563 v -0.54687 l 1.23438,-0.14063 q 0.0156,-0.85937 0.0156,-1.73437 0,-0.89063 0,-1.82813 h -4.29687 q 0,1.01563 0,1.89063 0.0156,0.85937 0.0156,1.67187 l 1.21875,0.14063 v 0.54687 h -3.75 v -0.54687 l 1.21875,-0.14063 q 0.0312,-0.84375 0.0312,-1.70312 0,-0.875 0,-1.73438 v -0.65625 q 0,-0.875 0,-1.73437 0,-0.85938 -0.0312,-1.70313 l -1.21875,-0.15625 v -0.54687 h 3.75 v 0.54687 l -1.21875,0.14063 q 0,0.84375 -0.0156,1.70312 0,0.85938 0,1.65625 h 4.29687 q 0,-0.875 0,-1.70312 0,-0.82813 -0.0156,-1.64063 z m 6.35962,3.70313 q -0.40625,0 -0.6875,-0.28125 -0.26562,-0.28125 -0.26562,-0.65625 0,-0.40625 0.26562,-0.6875 0.28125,-0.28125 0.6875,-0.28125 0.40625,0 0.67188,0.28125 0.28125,0.28125 0.28125,0.6875 0,0.375 -0.28125,0.65625 -0.26563,0.28125 -0.67188,0.28125 z m 0,4.84375 q -0.40625,0 -0.6875,-0.28125 -0.26562,-0.28125 -0.26562,-0.65625 0,-0.40625 0.26562,-0.6875 0.28125,-0.28125 0.6875,-0.28125 0.40625,0 0.67188,0.28125 0.28125,0.28125 0.28125,0.6875 0,0.375 -0.28125,0.65625 -0.26563,0.28125 -0.67188,0.28125 z m 3.99842,-4.84375 q -0.40625,0 -0.6875,-0.28125 -0.26563,-0.28125 -0.26563,-0.65625 0,-0.40625 0.26563,-0.6875 0.28125,-0.28125 0.6875,-0.28125 0.40625,0 0.67187,0.28125 0.28125,0.28125 0.28125,0.6875 0,0.375 -0.28125,0.65625 -0.26562,0.28125 -0.67187,0.28125 z m 0,4.84375 q -0.40625,0 -0.6875,-0.28125 -0.26563,-0.28125 -0.26563,-0.65625 0,-0.40625 0.26563,-0.6875 0.28125,-0.28125 0.6875,-0.28125 0.40625,0 0.67187,0.28125 0.28125,0.28125 0.28125,0.6875 0,0.375 -0.28125,0.65625 -0.26562,0.28125 -0.67187,0.28125 z m 5.93594,-8.46875 h -0.8125 q 0,0.84375 -0.0156,1.73437 0,0.89063 0,1.78125 v 0.64063 h 0.875 q 1.21875,0 1.73438,-0.59375 0.51562,-0.59375 0.51562,-1.53125 0,-0.96875 -0.5625,-1.5 -0.54687,-0.53125 -1.73437,-0.53125 z m -3.34375,-0.0781 v -0.54687 h 3.57812 q 1.6875,0 2.53125,0.75 0.85938,0.73437 0.85938,1.90625 0,0.75 -0.375,1.375 -0.375,0.625 -1.20313,1 -0.8125,0.375 -2.1875,0.375 h -0.6875 q 0,0.71875 0,1.42187 0.0156,0.6875 0.0156,1.40625 l 1.25,0.14063 v 0.54687 h -3.78125 v -0.54687 l 1.21875,-0.14063 q 0.0312,-0.84375 0.0312,-1.70312 0,-0.875 0,-1.73438 v -0.65625 q 0,-0.875 0,-1.73437 0,-0.85938 -0.0312,-1.70313 z m 13.56897,3.67188 v 0.625 l -5.15625,3 -0.39063,-0.71875 4.625,-2.59375 -4.625,-2.59375 0.39063,-0.71875 z"
       fill-rule="nonzero"
       id="path149" />
    <path
       fill="#000000"
       fill-opacity="0"
       d="m 323.98688,264.47235 h 61.98425 v 14.86615 h -61.98425 z"
       fill-rule="evenodd"
       id="path151" />
    <path
       fill="#202122"
       d="m 328.58063,267.7635 v -0.54687 h 6.625 l 0.0937,2.35937 h -0.75 l -0.29688,-1.6875 h -3.14062 q 0,0.85938 -0.0156,1.71875 0,0.84375 0,1.67188 h 1.95313 l 0.1875,-1.26563 h 0.60937 v 3.14063 h -0.60937 l -0.17188,-1.25 h -1.96875 q 0,1 0,1.875 0.0156,0.85937 0.0156,1.6875 h 3.40625 l 0.29687,-1.70313 h 0.75 l -0.0937,2.375 h -6.89062 v -0.54687 l 1.21875,-0.14063 q 0.0312,-0.84375 0.0312,-1.70312 0,-0.875 0,-1.73438 v -0.65625 q 0,-0.875 0,-1.73437 0,-0.85938 -0.0312,-1.70313 z m 13.59933,0 v -0.54687 h 3.76563 v 0.54687 l -1.23438,0.15625 q -0.0156,0.82813 -0.0312,1.70313 0,0.85937 0,1.73437 v 0.65625 q 0,0.84375 0,1.70313 0.0156,0.85937 0.0312,1.73437 l 1.23438,0.14063 v 0.54687 h -3.76563 v -0.54687 l 1.23438,-0.14063 q 0.0156,-0.85937 0.0156,-1.73437 0,-0.89063 0,-1.82813 h -4.29687 q 0,1.01563 0,1.89063 0.0156,0.85937 0.0156,1.67187 l 1.21875,0.14063 v 0.54687 h -3.75 v -0.54687 l 1.21875,-0.14063 q 0.0312,-0.84375 0.0312,-1.70312 0,-0.875 0,-1.73438 v -0.65625 q 0,-0.875 0,-1.73437 0,-0.85938 -0.0312,-1.70313 l -1.21875,-0.15625 v -0.54687 h 3.75 v 0.54687 l -1.21875,0.14063 q 0,0.84375 -0.0156,1.70312 0,0.85938 0,1.65625 h 4.29687 q 0,-0.875 0,-1.70312 0,-0.82813 -0.0156,-1.64063 z m 6.35959,3.70313 q -0.40625,0 -0.6875,-0.28125 -0.26562,-0.28125 -0.26562,-0.65625 0,-0.40625 0.26562,-0.6875 0.28125,-0.28125 0.6875,-0.28125 0.40625,0 0.67188,0.28125 0.28125,0.28125 0.28125,0.6875 0,0.375 -0.28125,0.65625 -0.26563,0.28125 -0.67188,0.28125 z m 0,4.84375 q -0.40625,0 -0.6875,-0.28125 -0.26562,-0.28125 -0.26562,-0.65625 0,-0.40625 0.26562,-0.6875 0.28125,-0.28125 0.6875,-0.28125 0.40625,0 0.67188,0.28125 0.28125,0.28125 0.28125,0.6875 0,0.375 -0.28125,0.65625 -0.26563,0.28125 -0.67188,0.28125 z m 3.99845,-4.84375 q -0.40625,0 -0.6875,-0.28125 -0.26563,-0.28125 -0.26563,-0.65625 0,-0.40625 0.26563,-0.6875 0.28125,-0.28125 0.6875,-0.28125 0.40625,0 0.67187,0.28125 0.28125,0.28125 0.28125,0.6875 0,0.375 -0.28125,0.65625 -0.26562,0.28125 -0.67187,0.28125 z m 0,4.84375 q -0.40625,0 -0.6875,-0.28125 -0.26563,-0.28125 -0.26563,-0.65625 0,-0.40625 0.26563,-0.6875 0.28125,-0.28125 0.6875,-0.28125 0.40625,0 0.67187,0.28125 0.28125,0.28125 0.28125,0.6875 0,0.375 -0.28125,0.65625 -0.26562,0.28125 -0.67187,0.28125 z m 6.27966,-8.46875 h -1.15625 q 0,0.875 -0.0156,1.75 0,0.875 0,1.8125 h 1.01562 q 1.09375,0 1.59375,-0.51563 0.51563,-0.51562 0.51563,-1.32812 0,-0.82813 -0.46875,-1.26563 -0.46875,-0.45312 -1.48438,-0.45312 z m -3.6875,-0.0781 v -0.54687 h 3.71875 q 1.53125,0 2.39063,0.625 0.85937,0.60937 0.85937,1.71875 0,0.76562 -0.5625,1.40625 -0.5625,0.64062 -1.6875,0.84375 0.59375,0.10937 0.96875,0.51562 0.375,0.39063 0.60938,1.17188 l 0.57812,1.96875 1.01563,0.125 v 0.54687 q -0.1875,0.0469 -0.4375,0.0937 -0.25,0.0469 -0.5625,0.0469 -0.625,0 -0.9375,-0.1875 -0.3125,-0.1875 -0.42188,-0.67188 l -0.54687,-2.14062 q -0.10938,-0.54688 -0.34375,-0.8125 -0.21875,-0.26563 -0.57813,-0.35938 -0.34375,-0.0937 -0.89062,-0.0937 h -0.65625 q 0,0.95313 0,1.79688 0.0156,0.82812 0.0156,1.64062 l 1.23438,0.14063 v 0.54687 h -3.76563 v -0.54687 l 1.21875,-0.14063 q 0.0312,-0.84375 0.0312,-1.70312 0,-0.875 0,-1.73438 v -0.65625 q 0,-0.875 0,-1.73437 0,-0.85938 -0.0312,-1.70313 z"
       fill-rule="nonzero"
       id="path153" />
    <path
       fill="#000000"
       fill-opacity="0"
       d="m 199.82677,194.9685 h 124.15749 v 27.87401 H 199.82677 Z"
       fill-rule="evenodd"
       id="path155" />
    <path
       fill="#202122"
       d="m 249.70927,214.18552 v -0.6875 l 0.8125,-0.15625 q 0.0156,-0.5625 0.0156,-1.10938 0.0156,-0.5625 0.0156,-1.125 v -3 h -0.95313 v -0.875 l 0.96875,-0.10937 q 0.125,-1 0.39063,-1.60938 0.28125,-0.60937 0.75,-1.09375 0.53125,-0.53125 1.21875,-0.76562 0.6875,-0.25 1.3125,-0.25 0.60937,0 1.10937,0.23437 0.5,0.21875 0.65624,0.79688 -0.0156,0.40625 -0.29686,0.70312 -0.26563,0.28125 -0.76563,0.28125 -0.35937,0 -0.6875,-0.25 -0.32812,-0.25 -0.625,-0.79687 l -0.125,-0.17188 q -0.39062,0.40625 -0.54687,1.07813 -0.14063,0.67187 -0.10938,1.82812 h 1.5625 v 1 h -1.53125 v 3 q 0,0.54688 0,1.07813 0,0.53125 0.0156,1.07812 l 1.125,0.23438 v 0.6875 z m 7.85246,0.21875 q -1.39062,0 -2.54687,-0.67188 l 0.0469,-1.79687 h 1.17188 l 0.25,1.45312 q 0.26562,0.10938 0.53125,0.15625 0.26562,0.0469 0.5625,0.0469 0.64062,0 0.96875,-0.20313 0.34375,-0.21875 0.34375,-0.65625 0,-0.32812 -0.25,-0.57812 -0.25,-0.25 -0.98438,-0.45313 l -0.79687,-0.23437 q -0.84375,-0.25 -1.3125,-0.8125 -0.45313,-0.5625 -0.45313,-1.375 0,-1.01563 0.78125,-1.70313 0.79688,-0.70312 2.28125,-0.70312 0.64063,0 1.1875,0.15625 0.54688,0.15625 1.125,0.4375 l -0.0937,1.60937 h -1.1875 l -0.28125,-1.26562 q -0.3125,-0.125 -0.8125,-0.125 -0.5,0 -0.79687,0.21875 -0.29688,0.20312 -0.29688,0.60937 0,0.29688 0.23438,0.53125 0.23437,0.21875 1,0.45313 l 0.71875,0.20312 q 1.03125,0.3125 1.48437,0.89063 0.45313,0.5625 0.45313,1.375 0,1.15625 -0.89063,1.79687 -0.875,0.64063 -2.4375,0.64063 z m 4.09049,-0.21875 v -0.6875 l 0.79687,-0.17188 q 0.0156,-0.53125 0.0156,-1.14062 0,-0.625 0,-1.07813 v -0.84375 q 0,-0.60937 -0.0156,-0.9375 0,-0.32812 -0.0312,-0.76562 l -0.89062,-0.14063 v -0.5625 l 2.89062,-0.98437 0.25,0.15625 0.0937,1.0625 q 0.51563,-0.60938 1.07813,-0.90625 0.5625,-0.3125 1.20312,-0.3125 1.51563,0 1.95313,1.29687 0.60937,-0.71875 1.17187,-1 0.5625,-0.29687 1.1875,-0.29687 1.125,0 1.625,0.64062 0.51563,0.64063 0.51563,1.95313 v 1.64062 q 0,0.46875 0,1.09375 0,0.60938 0.0156,1.14063 l 0.73438,0.15625 v 0.6875 h -3.78125 v -0.6875 l 0.71875,-0.17188 q 0.0156,-0.53125 0.0156,-1.14062 0,-0.60938 0,-1.07813 v -1.42187 q 0,-0.8125 -0.1875,-1.09375 -0.1875,-0.29688 -0.65625,-0.29688 -0.60937,0 -1.21875,0.53125 0.0156,0.125 0.0156,0.26563 0.0156,0.14062 0.0156,0.29687 v 1.71875 q 0,0.48438 0,1.09375 0,0.60938 0,1.15625 l 0.70313,0.14063 v 0.6875 h -3.78125 v -0.6875 l 0.75,-0.17188 q 0.0156,-0.53125 0.0156,-1.14062 0,-0.60938 0,-1.07813 v -1.40625 q 0,-0.78125 -0.1875,-1.09375 -0.17187,-0.3125 -0.65625,-0.3125 -0.3125,0 -0.625,0.15625 -0.29687,0.14063 -0.57812,0.375 v 2.28125 q 0,0.45313 0,1.07813 0,0.625 0.0156,1.17187 l 0.6875,0.14063 v 0.6875 z"
       fill-rule="nonzero"
       id="path157" />
    <path
       fill="#000000"
       fill-opacity="0"
       d="m 75.855644,243.23396 h 61.984246 v 23.937 H 75.855644 Z"
       fill-rule="evenodd"
       id="path159" />
    <path
       fill="#202122"
       d="m 95.79284,252.13872 v -0.78125 h 4.71875 v 0.78125 l -1.09375,0.125 q -0.01563,0.89062 -0.03125,1.79687 0,0.90625 0,1.84375 v 0.51565 q 0,0.90625 0,1.82812 0.01563,0.92188 0.03125,1.82813 l 1.09375,0.10937 v 0.79688 h -4.71875 v -0.79688 l 1.09375,-0.10937 q 0.03125,-0.89063 0.03125,-1.79688 0,-0.92187 0,-1.84375 v -0.53126 q 0,-0.92188 0,-1.82813 0,-0.92187 -0.03125,-1.8125 z m 5.76477,4.65627 v -1.1094 l 6.125,-3.15625 0.625,1.25 -5.03125,2.45315 5.03125,2.46875 -0.625,1.25 z m 7.89491,-4.65627 v -0.78125 h 4.71875 v 0.78125 l -1.09375,0.125 q -0.0156,0.89062 -0.0312,1.79687 0,0.90625 0,1.84375 v 0.51565 q 0,0.90625 0,1.82812 0.0156,0.92188 0.0312,1.82813 l 1.09375,0.10937 v 0.79688 h -4.71875 v -0.79688 l 1.09375,-0.10937 q 0.0312,-0.89063 0.0312,-1.79688 0,-0.92187 0,-1.84375 v -0.53126 q 0,-0.92188 0,-1.82813 0,-0.92187 -0.0312,-1.8125 z m 11.31165,0 v -0.78125 h 4.64062 v 0.78125 l -1.09375,0.125 q -0.0156,0.89062 -0.0312,1.79687 0,0.90625 0,1.84375 v 0.53127 q 0,0.89063 0,1.8125 0.0156,0.92188 0.0312,1.82813 l 1.09375,0.10937 v 0.79688 h -4.64062 v -0.79688 l 1.03125,-0.0937 q 0.0312,-0.90625 0.0312,-1.8125 0,-0.92187 0,-1.8125 h -3.125 q 0,0.98438 0,1.875 0.0156,0.875 0.0312,1.75 l 1.01562,0.0937 v 0.79688 h -4.60937 v -0.79688 l 1.0625,-0.10937 q 0.0312,-0.89063 0.0312,-1.79688 0,-0.92187 0,-1.84375 v -0.53126 q 0,-0.92188 0,-1.82813 0,-0.90625 -0.0312,-1.8125 l -1.0625,-0.125 v -0.78125 h 4.60937 v 0.78125 l -1.01562,0.10938 q -0.0156,0.89062 -0.0312,1.78125 0,0.875 0,1.57812 h 3.125 q 0,-0.84375 0,-1.6875 0,-0.84375 -0.0312,-1.67187 z m 12.52456,3.54687 v 1.1094 l -6.12499,3.15625 -0.64063,-1.25 5.03124,-2.46875 -5.03124,-2.45315 0.64063,-1.25 z"
       fill-rule="nonzero"
       id="path161" />
    <path
       fill="#000000"
       fill-opacity="0"
       d="m 385.97638,243.23396 h 61.98425 v 23.937 h -61.98425 z"
       fill-rule="evenodd"
       id="path163" />
    <path
       fill="#202122"
       d="m 390.46075,252.13872 v -0.78125 h 4.71875 v 0.78125 l -1.09375,0.125 q -0.0156,0.89062 -0.0312,1.79687 0,0.90625 0,1.84375 v 0.51565 q 0,0.90625 0,1.82812 0.0156,0.92188 0.0312,1.82813 l 1.09375,0.10937 v 0.79688 h -4.71875 v -0.79688 l 1.09375,-0.10937 q 0.0312,-0.89063 0.0312,-1.79688 0,-0.92187 0,-1.84375 v -0.53126 q 0,-0.92188 0,-1.82813 0,-0.92187 -0.0312,-1.8125 z m 5.76477,4.65627 v -1.1094 l 6.125,-3.15625 0.625,1.25 -5.03125,2.45315 5.03125,2.46875 -0.625,1.25 z m 7.8949,-4.65627 v -0.78125 h 7.46875 l 0.10937,2.51562 h -1.21875 l -0.29687,-1.70312 h -2.4375 q -0.0156,0.84375 -0.0312,1.70312 0,0.84375 0,1.70313 h 1.57812 l 0.17188,-1.14063 h 0.85937 v 3.14065 h -0.85937 l -0.17188,-1.14063 h -1.57812 q 0,1.01563 0,1.92188 0.0156,0.90625 0.0312,1.79687 h 2.73437 l 0.29688,-1.6875 h 1.21875 l -0.10938,2.51563 h -7.76562 v -0.79688 l 1.09375,-0.10937 q 0.0312,-0.89063 0.0312,-1.79688 0,-0.92187 0,-1.84375 v -0.53126 q 0,-0.92188 0,-1.82813 0,-0.92187 -0.0312,-1.8125 z m 14.34552,0 v -0.78125 h 4.64062 v 0.78125 l -1.09375,0.125 q -0.0156,0.89062 -0.0312,1.79687 0,0.90625 0,1.84375 v 0.53127 q 0,0.89063 0,1.8125 0.0156,0.92188 0.0312,1.82813 l 1.09375,0.10937 v 0.79688 h -4.64062 v -0.79688 l 1.03125,-0.0937 q 0.0312,-0.90625 0.0312,-1.8125 0,-0.92187 0,-1.8125 h -3.125 q 0,0.98438 0,1.875 0.0156,0.875 0.0312,1.75 l 1.01562,0.0937 v 0.79688 h -4.60937 v -0.79688 l 1.0625,-0.10937 q 0.0312,-0.89063 0.0312,-1.79688 0,-0.92187 0,-1.84375 v -0.53126 q 0,-0.92188 0,-1.82813 0,-0.90625 -0.0312,-1.8125 l -1.0625,-0.125 v -0.78125 h 4.60937 v 0.78125 l -1.01562,0.10938 q -0.0156,0.89062 -0.0312,1.78125 0,0.875 0,1.57812 h 3.125 q 0,-0.84375 0,-1.6875 0,-0.84375 -0.0312,-1.67187 z m 12.52457,3.54687 v 1.1094 l -6.125,3.15625 -0.64063,-1.25 5.03125,-2.46875 -5.03125,-2.45315 0.64063,-1.25 z"
       fill-rule="nonzero"
       id="path165" />
    <path
       fill="#cfe2f3"
       d="m 232.48032,232.87747 v 0 c 0,-1.82358 1.47832,-3.3019 3.3019,-3.3019 h 52.26234 c 0.8757,0 1.71558,0.34787 2.33481,0.96711 0.6192,0.61923 0.9671,1.45907 0.9671,2.33479 v 13.20723 c 0,1.82358 -1.47833,3.3019 -3.30191,3.3019 h -52.26234 v 0 c -1.82358,0 -3.3019,-1.47832 -3.3019,-3.3019 z"
       fill-rule="evenodd"
       id="path167" />
    <path
       stroke="#595959"
       stroke-width="1"
       stroke-linejoin="round"
       stroke-linecap="butt"
       d="m 232.48032,232.87747 v 0 c 0,-1.82358 1.47832,-3.3019 3.3019,-3.3019 h 52.26234 c 0.8757,0 1.71558,0.34787 2.33481,0.96711 0.6192,0.61923 0.9671,1.45907 0.9671,2.33479 v 13.20723 c 0,1.82358 -1.47833,3.3019 -3.30191,3.3019 h -52.26234 v 0 c -1.82358,0 -3.3019,-1.47832 -3.3019,-3.3019 z"
       fill-rule="evenodd"
       id="path169" />
    <path
       fill="#202122"
       d="m 250.5708,244.45296 q -0.5625,0 -1.03125,-0.125 -0.46875,-0.125 -0.95313,-0.375 l -0.0625,-1.46875 h 0.73438 l 0.25,1.15625 q 0.46875,0.21875 1.07812,0.21875 0.76563,0 1.125,-0.28125 0.375,-0.28125 0.375,-0.73438 0,-0.42187 -0.3125,-0.6875 -0.29687,-0.26562 -0.92187,-0.46875 l -0.625,-0.23437 q -0.73438,-0.26563 -1.17188,-0.6875 -0.4375,-0.42188 -0.4375,-1.10938 0,-0.5 0.26563,-0.92187 0.26562,-0.42188 0.78125,-0.6875 0.53125,-0.26563 1.26562,-0.26563 0.54688,0 1,0.14063 0.45313,0.14062 0.875,0.40625 l -0.0625,1.35937 h -0.6875 l -0.21875,-1.07812 q -0.45312,-0.21875 -0.90625,-0.21875 -0.625,0 -0.9375,0.25 -0.3125,0.25 -0.3125,0.65625 0,0.4375 0.26563,0.67187 0.28125,0.21875 0.96875,0.46875 l 0.40625,0.15625 q 1,0.375 1.42187,0.85938 0.42188,0.46875 0.42188,1.09375 0,0.51562 -0.29688,0.95312 -0.29687,0.42188 -0.875,0.6875 -0.5625,0.26563 -1.42187,0.26563 z m 5.84686,0 q -0.68748,0 -1.10936,-0.375 -0.40625,-0.375 -0.40625,-1.14063 0,-0.25 0,-0.5 0,-0.25 0,-0.64062 v -3.14063 h -1.09375 v -0.57812 l 1.1875,-0.15625 0.34375,-1.78125 h 0.79686 l -0.0781,1.8125 h 1.79687 v 0.70312 h -1.8125 v 4.125 q 0,0.51563 0.20313,0.75 0.20312,0.23438 0.53125,0.23438 0.21875,0 0.42187,-0.0937 0.21875,-0.0937 0.46875,-0.26563 l 0.32813,0.34375 q -0.54688,0.70313 -1.57813,0.70313 z m 7.14414,-0.0312 q -0.48438,0 -0.8125,-0.28125 -0.3125,-0.28125 -0.39063,-0.75 -0.54687,0.53125 -0.96875,0.79687 -0.40625,0.26563 -0.98437,0.26563 -0.73438,0 -1.26563,-0.42188 -0.53125,-0.42187 -0.53125,-1.25 0,-0.375 0.17188,-0.70312 0.1875,-0.34375 0.67187,-0.65625 0.48438,-0.32813 1.375,-0.64063 0.3125,-0.10937 0.70313,-0.23437 0.40625,-0.125 0.79687,-0.20313 v -0.34375 q 0,-0.96875 -0.29687,-1.28125 -0.28125,-0.32812 -0.95313,-0.32812 -0.14062,0 -0.32812,0.0156 -0.17188,0.0156 -0.39063,0.0625 l -0.25,0.875 q -0.1875,0.625 -0.6875,0.625 -0.5625,0 -0.64062,-0.53125 0.1875,-0.76562 0.89062,-1.20312 0.70313,-0.45313 1.71875,-0.45313 1.04688,0 1.54688,0.53125 0.51562,0.51563 0.51562,1.78125 v 2.84375 q 0,0.42188 0.125,0.60938 0.14063,0.17187 0.35938,0.17187 0.17187,0 0.28125,-0.0781 0.125,-0.0781 0.23437,-0.21875 l 0.26563,0.29687 q -0.23438,0.39063 -0.53125,0.54688 -0.28125,0.15625 -0.625,0.15625 z m -3.76563,-1.82813 q 0,0.53125 0.3125,0.76563 0.3125,0.21875 0.76563,0.21875 0.1875,0 0.35937,-0.0469 0.1875,-0.0625 0.4375,-0.21875 0.26563,-0.15625 0.65625,-0.4375 v -2.04687 q -0.34375,0.0937 -0.67187,0.21875 -0.32813,0.10937 -0.54688,0.1875 -0.57812,0.21875 -0.85937,0.46875 -0.28125,0.23437 -0.375,0.46875 -0.0781,0.21875 -0.0781,0.42187 z m 7.73712,1.85938 q -0.6875,0 -1.10937,-0.375 -0.40625,-0.375 -0.40625,-1.14063 0,-0.25 0,-0.5 0,-0.25 0,-0.64062 v -3.14063 h -1.09375 v -0.57812 l 1.1875,-0.15625 0.34375,-1.78125 h 0.79687 l -0.0781,1.8125 h 1.79687 v 0.70312 h -1.8125 v 4.125 q 0,0.51563 0.20313,0.75 0.20312,0.23438 0.53125,0.23438 0.21875,0 0.42187,-0.0937 0.21875,-0.0937 0.46875,-0.26563 l 0.32813,0.34375 q -0.54688,0.70313 -1.57813,0.70313 z m 5.17536,-6.0625 q -0.35938,0 -0.75,0.21875 -0.375,0.20312 -0.65625,0.67187 -0.26563,0.46875 -0.34375,1.23438 h 2.42187 q 0.48438,0 0.625,-0.1875 0.15625,-0.20313 0.15625,-0.5 0,-0.39063 -0.1875,-0.70313 -0.1875,-0.32812 -0.51562,-0.53125 -0.32813,-0.20312 -0.75,-0.20312 z m 0,6.0625 q -1.35938,0 -2.17188,-0.875 -0.8125,-0.875 -0.8125,-2.40625 0,-1.01563 0.42188,-1.78125 0.42187,-0.76563 1.125,-1.1875 0.70312,-0.42188 1.53125,-0.42188 0.6875,0 1.25,0.3125 0.5625,0.29688 0.89062,0.85938 0.32813,0.5625 0.32813,1.39062 0,0.21875 -0.0312,0.42188 -0.0156,0.1875 -0.0625,0.3125 h -4.25 q 0.0312,1.23437 0.60937,1.875 0.59375,0.64062 1.54688,0.64062 0.64062,0 1.0625,-0.26562 0.4375,-0.26563 0.79687,-0.67188 l 0.3125,0.25 q -0.375,0.70313 -1.01562,1.125 -0.625,0.42188 -1.53125,0.42188 z"
       fill-rule="nonzero"
       id="path171" />
    <path
       fill="#000000"
       fill-opacity="0"
       d="m 232.48032,264.46613 h 18.39369 v 7.33859 h -18.39369 z"
       fill-rule="evenodd"
       id="path173" />
    <path
       fill="#000000"
       fill-opacity="0"
       d="m 232.48032,272.92545 h 18.39369 v 7.33859 h -18.39369 z"
       fill-rule="evenodd"
       id="path175" />
    <path
       fill="#000000"
       fill-opacity="0"
       d="m 232.48032,281.38477 h 18.39369 v 7.33859 h -18.39369 z"
       fill-rule="evenodd"
       id="path177" />
    <path
       fill="#000000"
       fill-opacity="0"
       d="m 272.95276,264.46613 h 18.39371 v 7.33859 h -18.39371 z"
       fill-rule="evenodd"
       id="path179" />
    <path
       fill="#000000"
       fill-opacity="0"
       d="m 272.95276,272.92545 h 18.39371 v 7.33859 h -18.39371 z"
       fill-rule="evenodd"
       id="path181" />
    <path
       fill="#000000"
       fill-opacity="0"
       d="m 272.95276,281.38477 h 18.39371 v 7.33859 h -18.39371 z"
       fill-rule="evenodd"
       id="path183" />
    <path
       fill="#000000"
       fill-opacity="0"
       d="m 291.34647,268.13544 h 12.979 v -28.66142 h -12.91601"
       fill-rule="evenodd"
       id="path185" />
    <path
       stroke="#595959"
       stroke-width="1"
       stroke-linejoin="round"
       stroke-linecap="butt"
       d="m 291.34647,268.1354 h 12.979 v -28.66141 h -6.91601"
       fill-rule="evenodd"
       id="path187" />
    <path
       fill="#595959"
       stroke="#595959"
       stroke-width="1"
       stroke-linecap="butt"
       d="m 297.40945,237.82227 -4.53812,1.65173 4.53812,1.65174 z"
       fill-rule="evenodd"
       id="path189" />
    <path
       fill="#000000"
       fill-opacity="0"
       d="m 232.48032,239.48108 h -13.021 v 28.66144 h 13.08399"
       fill-rule="evenodd"
       id="path191" />
    <path
       stroke="#595959"
       stroke-width="1"
       stroke-linejoin="round"
       stroke-linecap="butt"
       d="m 232.48032,239.4811 h -13.021 v 28.66142 h 7.08399"
       fill-rule="evenodd"
       id="path193" />
    <path
       fill="#595959"
       stroke="#595959"
       stroke-width="1"
       stroke-linecap="butt"
       d="m 226.5433,269.79425 4.5381,-1.65173 -4.5381,-1.65174 z"
       fill-rule="evenodd"
       id="path195" />
    <path
       fill="#000000"
       fill-opacity="0"
       d="m 324.0117,285.05225 c -8.16635,0 -12.25,0.0157 -16.33267,0.0315 -4.08267,0.0158 -8.16437,0.0315 -16.32877,0.0315"
       fill-rule="evenodd"
       id="path197" />
    <path
       stroke="#1c4587"
       stroke-width="1"
       stroke-linejoin="round"
       stroke-linecap="butt"
       d="m 324.0117,285.05225 c -8.16635,0 -12.25,0.0157 -16.33267,0.0315 -2.04135,0.008 -4.08243,0.0158 -6.63373,0.0217 l -3.69501,0.006"
       fill-rule="evenodd"
       id="path199" />
    <path
       fill="#1c4587"
       stroke="#1c4587"
       stroke-width="1"
       stroke-linecap="butt"
       d="m 297.34924,283.45984 -4.53708,1.65451 4.53912,1.64896 z"
       fill-rule="evenodd"
       id="path201" />
    <path
       fill="#000000"
       fill-opacity="0"
       d="m 232.48032,285.05405 c -8.16373,0 -12.24477,0.0157 -16.32744,0.0315 -4.08269,0.0157 -8.16699,0.0315 -16.33398,0.0315"
       fill-rule="evenodd"
       id="path203" />
    <path
       stroke="#1c4587"
       stroke-width="1"
       stroke-linejoin="round"
       stroke-linecap="butt"
       d="m 232.48032,285.05405 c -8.16371,0 -12.24477,0.0157 -16.32745,0.0315 -2.04134,0.008 -4.08309,0.0158 -6.63535,0.0217 l -3.69862,0.006"
       fill-rule="evenodd"
       id="path205" />
    <path
       fill="#1c4587"
       stroke="#1c4587"
       stroke-width="1"
       stroke-linecap="butt"
       d="m 205.81789,283.46164 -4.53709,1.65451 4.5391,1.64896 z"
       fill-rule="evenodd"
       id="path207" />
    <path
       fill="#000000"
       fill-opacity="0"
       d="m 199.80498,255.20676 h 12.6282 v 21.38583 h 20.03322"
       fill-rule="evenodd"
       id="path209" />
    <path
       stroke="#595959"
       stroke-width="1"
       stroke-linejoin="round"
       stroke-linecap="butt"
       d="m 199.80498,255.20676 h 12.62822 v 21.38583 h 14.03319"
       fill-rule="evenodd"
       id="path211" />
    <path
       fill="#595959"
       stroke="#595959"
       stroke-width="1"
       stroke-linecap="butt"
       d="m 226.46638,278.24432 4.5381,-1.65173 -4.5381,-1.65174 z"
       fill-rule="evenodd"
       id="path213" />
    <path
       fill="#000000"
       fill-opacity="0"
       d="m 291.34647,276.59476 h 19.46472 v -21.38583 h 13.16519"
       fill-rule="evenodd"
       id="path215" />
    <path
       stroke="#595959"
       stroke-width="1"
       stroke-linejoin="round"
       stroke-linecap="butt"
       d="m 291.34647,276.59473 h 19.46472 v -21.38582 h 7.16519"
       fill-rule="evenodd"
       id="path217" />
    <path
       fill="#595959"
       stroke="#595959"
       stroke-width="1"
       stroke-linecap="butt"
       d="m 317.97638,256.86063 4.53809,-1.65172 -4.53809,-1.65173 z"
       fill-rule="evenodd"
       id="path219" />
  </g>
</svg>
