<?xml version="1.0" encoding="UTF-8" standalone="no"?>
<svg
   version="1.1"
   viewBox="0 0 472.84253 89.440933"
   fill="none"
   stroke="none"
   stroke-linecap="square"
   stroke-miterlimit="10"
   id="svg87"
   sodipodi:docname="tutorial-module.svg"
   width="472.84253"
   height="89.440933"
   inkscape:version="1.1.2 (b8e25be8, 2022-02-05)"
   xmlns:inkscape="http://www.inkscape.org/namespaces/inkscape"
   xmlns:sodipodi="http://sodipodi.sourceforge.net/DTD/sodipodi-0.dtd"
   xmlns="http://www.w3.org/2000/svg"
   xmlns:svg="http://www.w3.org/2000/svg">
  <defs
     id="defs91" />
  <sodipodi:namedview
     id="namedview89"
     pagecolor="#ffffff"
     bordercolor="#666666"
     borderopacity="1.0"
     inkscape:pageshadow="2"
     inkscape:pageopacity="0.0"
     inkscape:pagecheckerboard="0"
     showgrid="false"
     inkscape:zoom="1.05"
     inkscape:cx="235.71429"
     inkscape:cy="44.285714"
     inkscape:window-width="1296"
     inkscape:window-height="789"
     inkscape:window-x="0"
     inkscape:window-y="25"
     inkscape:window-maximized="0"
     inkscape:current-layer="g85" />
  <clipPath
     id="g305443f3828_0_6.0">
    <path
       d="M 0,0 H 960 V 540 H 0 Z"
       clip-rule="nonzero"
       id="path2" />
  </clipPath>
  <g
     clip-path="url(#g305443f3828_0_6.0)"
     id="g85"
     transform="translate(-243.57349,-225.27821)">
    <path
       fill="#000000"
       fill-opacity="0"
       d="M 0,0 H 504 V 72.97638 H 0 Z"
       fill-rule="evenodd"
       id="path11" />
    <path
       fill="#595959"
       d="m 244.07317,225.77902 h 142.5894 v 29.4803 h -142.5894 z"
       fill-rule="evenodd"
       id="path15" />
    <path
       fill="#ffffff"
       d="m 264.18405,236.39604 v -0.60938 h 4.15625 v 0.60938 l -1.35937,0.15625 q -0.0156,0.92187 -0.0156,1.875 0,0.95312 0,1.90625 v 0.71875 q 0,0.9375 0,1.89062 0,0.9375 0.0156,1.89063 l 1.35937,0.17187 v 0.59375 h -4.15625 v -0.59375 l 1.35938,-0.17187 q 0.0156,-0.92188 0.0156,-1.875 0,-0.95313 0,-1.90625 v -0.71875 q 0,-0.95313 0,-1.89063 0,-0.95312 -0.0156,-1.89062 z m 5.39059,9.20312 v -0.53125 l 1.07813,-0.20312 q 0.0156,-0.5625 0.0156,-1.20313 0.0156,-0.64062 0.0156,-1.14062 v -0.70313 q 0,-0.59375 -0.0156,-0.98437 0,-0.40625 -0.0312,-0.84375 l -1.15625,-0.14063 v -0.51562 l 2.04688,-0.89063 0.21875,0.15625 0.125,1.17188 q 0.53125,-0.59375 1.23437,-0.95313 0.71875,-0.375 1.39063,-0.375 0.95312,0 1.40625,0.64063 0.46875,0.64062 0.46875,2.07812 v 1.35938 q 0,0.5 0,1.14062 0.0156,0.64063 0.0312,1.20313 l 1.01562,0.20312 v 0.53125 h -3.39062 v -0.53125 l 1.07812,-0.20312 q 0.0156,-0.54688 0.0156,-1.1875 0.0156,-0.65625 0.0156,-1.15625 v -1.25 q 0,-1 -0.29687,-1.375 -0.28125,-0.39063 -0.92188,-0.39063 -0.5,0 -0.96875,0.20313 -0.46875,0.20312 -1.01562,0.67187 v 2.14063 q 0,0.48437 0,1.14062 0,0.64063 0.0156,1.20313 l 1.01563,0.20312 v 0.53125 z m 11.75672,-2.9375 q 0.70312,0 1.09375,-0.51562 0.40625,-0.53125 0.40625,-1.34375 0,-0.76563 -0.375,-1.25 -0.375,-0.5 -1.0625,-0.5 -0.6875,0 -1.09375,0.5 -0.39063,0.5 -0.39063,1.3125 0,0.8125 0.375,1.3125 0.375,0.48437 1.04688,0.48437 z m 0.0312,0.59375 q -0.5625,0 -1.07813,-0.15625 -0.375,0.46875 -0.375,0.9375 0,0.28125 0.17188,0.46875 0.17187,0.17188 0.6875,0.17188 h 1.92187 q 1.20313,0 1.78125,0.5 0.57813,0.5 0.57813,1.39062 0,0.625 -0.40625,1.20313 -0.40625,0.59375 -1.21875,0.95312 -0.79688,0.375 -2,0.375 -1.59375,0 -2.3125,-0.5 -0.71875,-0.5 -0.71875,-1.26562 0,-0.46875 0.3125,-0.875 0.3125,-0.40625 1.125,-0.79688 -0.96875,-0.26562 -0.96875,-1.125 0,-0.34375 0.21875,-0.71875 0.23437,-0.39062 0.78125,-0.90625 -0.53125,-0.28125 -0.84375,-0.79687 -0.29688,-0.51563 -0.29688,-1.26563 0,-1.15625 0.75,-1.78125 0.76563,-0.625 1.90625,-0.625 1.15625,0 1.85938,0.57813 l 1.65625,-0.57813 0.21875,0.15625 v 0.92188 h -1.4375 q 0.34375,0.53125 0.34375,1.32812 0,1.15625 -0.76563,1.78125 -0.75,0.625 -1.89062,0.625 z m -1.76563,3.84375 q 0,0.71875 0.5,1.01563 0.51563,0.3125 1.39063,0.3125 1.20312,0 1.82812,-0.4375 0.625,-0.42188 0.625,-1.04688 0,-0.48437 -0.34375,-0.8125 -0.32812,-0.32812 -1.125,-0.32812 h -1.70312 q -0.15625,0 -0.3125,-0.0156 -0.14063,0 -0.29688,-0.0156 -0.29687,0.32812 -0.4375,0.64062 -0.125,0.3125 -0.125,0.6875 z m 6.46698,-1.5 v -0.53125 l 1.0625,-0.1875 q 0.0156,-0.5625 0.0156,-1.20312 0.0156,-0.65625 0.0156,-1.15625 v -0.70313 q 0,-0.59375 -0.0156,-0.98437 0,-0.40625 -0.0312,-0.84375 l -1.15625,-0.14063 v -0.51562 l 2.04687,-0.89063 0.21875,0.15625 0.17188,1.71875 q 0.35937,-0.875 0.9375,-1.375 0.57812,-0.5 1.17187,-0.5 0.32813,0 0.625,0.15625 0.29688,0.14063 0.42188,0.39063 0,1.0625 -0.85938,1.0625 -0.25,0 -0.46875,-0.0937 -0.21875,-0.0937 -0.42187,-0.26563 l -0.1875,-0.15625 q -0.4375,0.3125 -0.73438,0.78125 -0.28125,0.46875 -0.46875,1.10938 v 1.09375 q 0,0.48437 0,1.14062 0,0.64063 0.0156,1.1875 l 1.20312,0.21875 v 0.53125 z m 9.38108,-6.48437 q -0.40625,0 -0.82813,0.23437 -0.40625,0.23438 -0.71875,0.75 -0.29687,0.51563 -0.375,1.35938 h 2.65625 q 0.53125,0 0.70313,-0.21875 0.17187,-0.21875 0.17187,-0.53125 0,-0.42188 -0.21875,-0.78125 -0.21875,-0.35938 -0.57812,-0.57813 -0.35938,-0.23437 -0.8125,-0.23437 z m -0.0156,6.67187 q -1.46875,0 -2.375,-0.95312 -0.89062,-0.96875 -0.89062,-2.65625 0,-1.125 0.45312,-1.95313 0.46875,-0.84375 1.23438,-1.3125 0.78125,-0.46875 1.6875,-0.46875 0.76562,0 1.375,0.34375 0.625,0.32813 0.98437,0.95313 0.35938,0.625 0.35938,1.51562 0,0.25 -0.0312,0.46875 -0.0156,0.20313 -0.0625,0.35938 h -4.67188 q 0.0312,1.34375 0.67188,2.04687 0.64062,0.70313 1.70312,0.70313 0.70313,0 1.17188,-0.28125 0.46875,-0.28125 0.85937,-0.73438 l 0.34375,0.26563 q -0.40625,0.78125 -1.10937,1.25 -0.70313,0.45312 -1.70313,0.45312 z m 6.49033,0 q -0.625,0 -1.14063,-0.14062 -0.5,-0.14063 -1.04687,-0.40625 l -0.0625,-1.625 h 0.8125 l 0.26562,1.28125 q 0.51563,0.23437 1.1875,0.23437 0.84375,0 1.25,-0.29687 0.40625,-0.3125 0.40625,-0.8125 0,-0.46875 -0.34375,-0.75 -0.34375,-0.29688 -1.03125,-0.53125 l -0.67187,-0.25 q -0.79688,-0.29688 -1.28125,-0.76563 -0.48438,-0.46875 -0.48438,-1.20312 0,-0.54688 0.28125,-1.01563 0.29688,-0.46875 0.85938,-0.76562 0.57812,-0.29688 1.40625,-0.29688 0.59375,0 1.07812,0.15625 0.5,0.15625 0.96875,0.45313 l -0.0625,1.48437 h -0.75 l -0.23437,-1.17187 q -0.5,-0.25 -1.01563,-0.25 -0.67187,0 -1.01562,0.28125 -0.34375,0.26562 -0.34375,0.71875 0,0.48437 0.29687,0.73437 0.29688,0.25 1.04688,0.53125 l 0.45312,0.15625 q 1.09375,0.40625 1.5625,0.9375 0.46875,0.53125 0.46875,1.21875 0,0.5625 -0.32812,1.04688 -0.32813,0.46875 -0.95313,0.76562 -0.625,0.28125 -1.57812,0.28125 z m 6.36084,0 q -0.625,0 -1.14063,-0.14062 -0.5,-0.14063 -1.04687,-0.40625 l -0.0625,-1.625 h 0.8125 l 0.26562,1.28125 q 0.51563,0.23437 1.1875,0.23437 0.84375,0 1.25,-0.29687 0.40625,-0.3125 0.40625,-0.8125 0,-0.46875 -0.34375,-0.75 -0.34375,-0.29688 -1.03125,-0.53125 l -0.67187,-0.25 q -0.79688,-0.29688 -1.28125,-0.76563 -0.48438,-0.46875 -0.48438,-1.20312 0,-0.54688 0.28125,-1.01563 0.29688,-0.46875 0.85938,-0.76562 0.57812,-0.29688 1.40625,-0.29688 0.59375,0 1.07812,0.15625 0.5,0.15625 0.96875,0.45313 l -0.0625,1.48437 h -0.75 l -0.23437,-1.17187 q -0.5,-0.25 -1.01563,-0.25 -0.67187,0 -1.01562,0.28125 -0.34375,0.26562 -0.34375,0.71875 0,0.48437 0.29687,0.73437 0.29688,0.25 1.04688,0.53125 l 0.45312,0.15625 q 1.09375,0.40625 1.5625,0.9375 0.46875,0.53125 0.46875,1.21875 0,0.5625 -0.32812,1.04688 -0.32813,0.46875 -0.95313,0.76562 -0.625,0.28125 -1.57812,0.28125 z m 7.3695,-0.1875 v -0.53125 l 1.15625,-0.20312 q 0.0156,-0.57813 0.0156,-1.15625 0.0156,-0.59375 0.0156,-1.1875 v -3.10938 h -1.21875 v -0.64062 l 1.25,-0.15625 q 0.0937,-1.17188 0.3125,-1.89063 0.23438,-0.73437 0.78125,-1.28125 0.46875,-0.46875 0.98438,-0.64062 0.51562,-0.1875 1.01562,-0.1875 0.5,0 0.89063,0.1875 0.40625,0.1875 0.51562,0.60937 -0.0156,0.28125 -0.25,0.46875 -0.23437,0.1875 -0.65625,0.1875 -0.51562,0 -1.04687,-0.4375 l -0.40625,-0.3125 q -0.0625,0.0312 -0.125,0.0781 -0.0469,0.0469 -0.0937,0.0937 -0.375,0.375 -0.57813,1.15625 -0.1875,0.76562 -0.15625,1.98437 h 2.01563 v 0.78125 h -2 v 3.10938 q 0,0.59375 0,1.17187 0.0156,0.57813 0.0312,1.15625 l 1.32812,0.21875 v 0.53125 z m 8.45273,0.1875 q -0.84375,0 -1.625,-0.39062 -0.76562,-0.40625 -1.25,-1.21875 -0.48437,-0.82813 -0.48437,-2.01563 0,-1.21875 0.48437,-2.04687 0.48438,-0.82813 1.25,-1.25 0.78125,-0.42188 1.625,-0.42188 0.84375,0 1.60938,0.42188 0.78125,0.42187 1.26562,1.25 0.5,0.82812 0.5,2.04687 0,1.1875 -0.5,2.01563 -0.48437,0.8125 -1.26562,1.21875 -0.76563,0.39062 -1.60938,0.39062 z m 0,-0.65625 q 0.95313,0 1.46875,-0.75 0.51563,-0.76562 0.51563,-2.21875 0,-1.48437 -0.51563,-2.26562 -0.51562,-0.78125 -1.46875,-0.78125 -0.95312,0 -1.46875,0.78125 -0.5,0.78125 -0.5,2.26562 0,1.45313 0.5,2.21875 0.51563,0.75 1.46875,0.75 z m 4.64005,0.46875 v -0.53125 l 1.0625,-0.1875 q 0.0156,-0.5625 0.0156,-1.20312 0.0156,-0.65625 0.0156,-1.15625 v -0.70313 q 0,-0.59375 -0.0156,-0.98437 0,-0.40625 -0.0312,-0.84375 l -1.15625,-0.14063 v -0.51562 l 2.04688,-0.89063 0.21875,0.15625 0.17187,1.71875 q 0.35938,-0.875 0.9375,-1.375 0.57813,-0.5 1.17188,-0.5 0.32812,0 0.625,0.15625 0.29687,0.14063 0.42187,0.39063 0,1.0625 -0.85937,1.0625 -0.25,0 -0.46875,-0.0937 -0.21875,-0.0937 -0.42188,-0.26563 l -0.1875,-0.15625 q -0.4375,0.3125 -0.73437,0.78125 -0.28125,0.46875 -0.46875,1.10938 v 1.09375 q 0,0.48437 0,1.14062 0,0.64063 0.0156,1.1875 l 1.20313,0.21875 v 0.53125 z m 14.11191,-6.39062 v -0.57813 h 2.67187 v 0.57813 l -0.78125,0.1875 -2.14062,6.29687 h -0.54688 l -1.90625,-5.20312 -1.9375,5.20312 h -0.54687 l -2.35938,-6.34375 -0.82812,-0.14062 v -0.57813 h 3.34375 v 0.57813 l -1.14063,0.17187 1.5,4.5 1.64063,-4.5 -1.07813,-0.17187 v -0.57813 h 3.23438 v 0.57813 l -1.07813,0.1875 1.67188,4.46875 1.35937,-4.45313 z m 8.68151,6.53125 q -0.53125,0 -0.89062,-0.29688 -0.34375,-0.3125 -0.42188,-0.82812 -0.60937,0.59375 -1.0625,0.89062 -0.45312,0.28125 -1.09375,0.28125 -0.8125,0 -1.39062,-0.45312 -0.57813,-0.46875 -0.57813,-1.375 0,-0.42188 0.20313,-0.78125 0.20312,-0.375 0.71875,-0.71875 0.53125,-0.35938 1.51562,-0.71875 0.32813,-0.10938 0.76563,-0.23438 0.45312,-0.14062 0.89062,-0.25 v -0.35937 q 0,-1.07813 -0.32812,-1.42188 -0.3125,-0.35937 -1.04688,-0.35937 -0.17187,0 -0.375,0.0156 -0.1875,0.0156 -0.42187,0.0781 l -0.28125,0.95312 q -0.20313,0.70313 -0.76563,0.70313 -0.60937,0 -0.6875,-0.59375 0.21875,-0.84375 0.98438,-1.32813 0.76562,-0.5 1.875,-0.5 1.15625,0 1.71875,0.57813 0.5625,0.57812 0.5625,1.96875 v 3.125 q 0,0.46875 0.14062,0.67187 0.14063,0.20313 0.375,0.20313 0.20313,0 0.32813,-0.0937 0.14062,-0.0937 0.25,-0.23438 l 0.29687,0.32813 q -0.26562,0.42187 -0.57812,0.59375 -0.3125,0.15625 -0.70313,0.15625 z m -4.125,-2 q 0,0.57812 0.32813,0.82812 0.34375,0.25 0.84375,0.25 0.21875,0 0.40625,-0.0469 0.20312,-0.0625 0.48437,-0.23438 0.28125,-0.17187 0.71875,-0.48437 v -2.25 q -0.375,0.10937 -0.75,0.23437 -0.35937,0.125 -0.59375,0.20313 -0.64062,0.25 -0.95312,0.51562 -0.29688,0.26563 -0.39063,0.51563 -0.0937,0.25 -0.0937,0.46875 z m 6.02735,1.85937 v -0.53125 l 1.0625,-0.1875 q 0.0156,-0.5625 0.0156,-1.20312 0.0156,-0.65625 0.0156,-1.15625 v -0.70313 q 0,-0.59375 -0.0156,-0.98437 0,-0.40625 -0.0312,-0.84375 l -1.15625,-0.14063 v -0.51562 l 2.04688,-0.89063 0.21875,0.15625 0.17187,1.71875 q 0.35938,-0.875 0.9375,-1.375 0.57813,-0.5 1.17188,-0.5 0.32812,0 0.625,0.15625 0.29687,0.14063 0.42187,0.39063 0,1.0625 -0.85937,1.0625 -0.25,0 -0.46875,-0.0937 -0.21875,-0.0937 -0.42188,-0.26563 l -0.1875,-0.15625 q -0.4375,0.3125 -0.73437,0.78125 -0.28125,0.46875 -0.46875,1.10938 v 1.09375 q 0,0.48437 0,1.14062 0,0.64063 0.0156,1.1875 l 1.20313,0.21875 v 0.53125 z m 7.42795,-3.4375 q 0,1.42188 0.57812,2.10938 0.57813,0.6875 1.45313,0.6875 0.48437,0 0.85937,-0.20313 0.375,-0.20312 0.78125,-0.65625 v -4.0625 q -0.5,-0.4375 -0.89062,-0.59375 -0.39063,-0.15625 -0.76563,-0.15625 -0.54687,0 -1.01562,0.29688 -0.45313,0.29687 -0.73438,0.9375 -0.26562,0.64062 -0.26562,1.64062 z m 3.8125,3.57813 -0.0937,-1 q -0.39063,0.5 -0.875,0.78125 -0.48438,0.26562 -1.17188,0.26562 -0.90625,0 -1.57812,-0.45312 -0.67188,-0.45313 -1.04688,-1.26563 -0.375,-0.8125 -0.375,-1.89062 0,-1.125 0.40625,-1.95313 0.42188,-0.84375 1.125,-1.3125 0.70313,-0.46875 1.59375,-0.46875 0.51563,0 0.98438,0.21875 0.48437,0.20313 0.9375,0.73438 v -3.3125 l -1.25,-0.14063 v -0.51562 l 2.28125,-0.65625 0.21875,0.10937 -0.0625,2.09375 v 7.92188 l 1.1875,0.17187 v 0.53125 z"
       fill-rule="nonzero"
       id="path17" />
    <path
       fill="#1c4587"
       d="m 244.07317,255.26025 h 142.5894 v 29.48032 h -142.5894 z"
       fill-rule="evenodd"
       id="path19" />
    <path
       fill="#ffffff"
       d="m 261.21622,265.8773 v -0.60938 h 7.29688 l 0.10937,2.60938 h -0.84375 l -0.3125,-1.875 h -3.45312 q -0.0156,0.9375 -0.0156,1.875 0,0.9375 0,1.85937 h 2.14063 l 0.21875,-1.39062 h 0.67187 v 3.45312 h -0.67187 l -0.20313,-1.375 h -2.15625 q 0,1.09375 0,2.0625 0,0.95313 0.0156,1.85938 h 3.75 l 0.3125,-1.875 h 0.84375 l -0.10938,2.60937 h -7.59375 v -0.59375 l 1.35938,-0.17187 q 0.0156,-0.92188 0.0156,-1.875 0,-0.95313 0,-1.90625 v -0.71875 q 0,-0.95313 0,-1.89063 0,-0.95312 -0.0156,-1.89062 z m 11.5192,6.26562 q 0.70312,0 1.09375,-0.51562 0.40625,-0.53125 0.40625,-1.34375 0,-0.76563 -0.375,-1.25 -0.375,-0.5 -1.0625,-0.5 -0.6875,0 -1.09375,0.5 -0.39063,0.5 -0.39063,1.3125 0,0.8125 0.375,1.3125 0.375,0.48437 1.04688,0.48437 z m 0.0312,0.59375 q -0.5625,0 -1.07813,-0.15625 -0.375,0.46875 -0.375,0.9375 0,0.28125 0.17188,0.46875 0.17187,0.17188 0.6875,0.17188 h 1.92187 q 1.20313,0 1.78125,0.5 0.57813,0.5 0.57813,1.39062 0,0.625 -0.40625,1.20313 -0.40625,0.59375 -1.21875,0.95312 -0.79688,0.375 -2,0.375 -1.59375,0 -2.3125,-0.5 -0.71875,-0.5 -0.71875,-1.26562 0,-0.46875 0.3125,-0.875 0.3125,-0.40625 1.125,-0.79688 -0.96875,-0.26562 -0.96875,-1.125 0,-0.34375 0.21875,-0.71875 0.23437,-0.39062 0.78125,-0.90625 -0.53125,-0.28125 -0.84375,-0.79687 -0.29688,-0.51563 -0.29688,-1.26563 0,-1.15625 0.75,-1.78125 0.76563,-0.625 1.90625,-0.625 1.15625,0 1.85938,0.57813 l 1.65625,-0.57813 0.21875,0.15625 v 0.92188 h -1.4375 q 0.34375,0.53125 0.34375,1.32812 0,1.15625 -0.76563,1.78125 -0.75,0.625 -1.89062,0.625 z m -1.76563,3.84375 q 0,0.71875 0.5,1.01563 0.51563,0.3125 1.39063,0.3125 1.20312,0 1.82812,-0.4375 0.625,-0.42188 0.625,-1.04688 0,-0.48437 -0.34375,-0.8125 -0.32812,-0.32812 -1.125,-0.32812 h -1.70312 q -0.15625,0 -0.3125,-0.0156 -0.14063,0 -0.29688,-0.0156 -0.29687,0.32812 -0.4375,0.64062 -0.125,0.3125 -0.125,0.6875 z m 6.46698,-1.5 v -0.53125 l 1.0625,-0.1875 q 0.0156,-0.5625 0.0156,-1.20312 0.0156,-0.65625 0.0156,-1.15625 v -0.70313 q 0,-0.59375 -0.0156,-0.98437 0,-0.40625 -0.0312,-0.84375 l -1.15625,-0.14063 v -0.51562 l 2.04687,-0.89063 0.21875,0.15625 0.17188,1.71875 q 0.35937,-0.875 0.9375,-1.375 0.57812,-0.5 1.17187,-0.5 0.32813,0 0.625,0.15625 0.29688,0.14063 0.42188,0.39063 0,1.0625 -0.85938,1.0625 -0.25,0 -0.46875,-0.0937 -0.21875,-0.0937 -0.42187,-0.26563 l -0.1875,-0.15625 q -0.4375,0.3125 -0.73438,0.78125 -0.28125,0.46875 -0.46875,1.10938 v 1.09375 q 0,0.48437 0,1.14062 0,0.64063 0.0156,1.1875 l 1.20312,0.21875 v 0.53125 z m 9.38107,-6.48437 q -0.40625,0 -0.82812,0.23437 -0.40625,0.23438 -0.71875,0.75 -0.29688,0.51563 -0.375,1.35938 h 2.65625 q 0.53125,0 0.70312,-0.21875 0.17188,-0.21875 0.17188,-0.53125 0,-0.42188 -0.21875,-0.78125 -0.21875,-0.35938 -0.57813,-0.57813 -0.35937,-0.23437 -0.8125,-0.23437 z m -0.0156,6.67187 q -1.46875,0 -2.375,-0.95312 -0.89063,-0.96875 -0.89063,-2.65625 0,-1.125 0.45313,-1.95313 0.46875,-0.84375 1.23437,-1.3125 0.78125,-0.46875 1.6875,-0.46875 0.76563,0 1.375,0.34375 0.625,0.32813 0.98438,0.95313 0.35937,0.625 0.35937,1.51562 0,0.25 -0.0312,0.46875 -0.0156,0.20313 -0.0625,0.35938 h -4.67187 q 0.0312,1.34375 0.67187,2.04687 0.64063,0.70313 1.70313,0.70313 0.70312,0 1.17187,-0.28125 0.46875,-0.28125 0.85938,-0.73438 l 0.34375,0.26563 q -0.40625,0.78125 -1.10938,1.25 -0.70312,0.45312 -1.70312,0.45312 z m 6.49033,0 q -0.625,0 -1.14063,-0.14062 -0.5,-0.14063 -1.04687,-0.40625 l -0.0625,-1.625 h 0.8125 l 0.26562,1.28125 q 0.51563,0.23437 1.1875,0.23437 0.84375,0 1.25,-0.29687 0.40625,-0.3125 0.40625,-0.8125 0,-0.46875 -0.34375,-0.75 -0.34375,-0.29688 -1.03125,-0.53125 l -0.67187,-0.25 q -0.79688,-0.29688 -1.28125,-0.76563 -0.48438,-0.46875 -0.48438,-1.20312 0,-0.54688 0.28125,-1.01563 0.29688,-0.46875 0.85938,-0.76562 0.57812,-0.29688 1.40625,-0.29688 0.59375,0 1.07812,0.15625 0.5,0.15625 0.96875,0.45313 l -0.0625,1.48437 h -0.75 l -0.23437,-1.17187 q -0.5,-0.25 -1.01563,-0.25 -0.67187,0 -1.01562,0.28125 -0.34375,0.26562 -0.34375,0.71875 0,0.48437 0.29687,0.73437 0.29688,0.25 1.04688,0.53125 l 0.45312,0.15625 q 1.09375,0.40625 1.5625,0.9375 0.46875,0.53125 0.46875,1.21875 0,0.5625 -0.32812,1.04688 -0.32813,0.46875 -0.95313,0.76562 -0.625,0.28125 -1.57812,0.28125 z m 6.36084,0 q -0.625,0 -1.14063,-0.14062 -0.5,-0.14063 -1.04687,-0.40625 l -0.0625,-1.625 h 0.8125 l 0.26562,1.28125 q 0.51563,0.23437 1.1875,0.23437 0.84375,0 1.25,-0.29687 0.40625,-0.3125 0.40625,-0.8125 0,-0.46875 -0.34375,-0.75 -0.34375,-0.29688 -1.03125,-0.53125 l -0.67187,-0.25 q -0.79688,-0.29688 -1.28125,-0.76563 -0.48438,-0.46875 -0.48438,-1.20312 0,-0.54688 0.28125,-1.01563 0.29688,-0.46875 0.85938,-0.76562 0.57812,-0.29688 1.40625,-0.29688 0.59375,0 1.07812,0.15625 0.5,0.15625 0.96875,0.45313 l -0.0625,1.48437 h -0.75 l -0.23437,-1.17187 q -0.5,-0.25 -1.01563,-0.25 -0.67187,0 -1.01562,0.28125 -0.34375,0.26562 -0.34375,0.71875 0,0.48437 0.29687,0.73437 0.29688,0.25 1.04688,0.53125 l 0.45312,0.15625 q 1.09375,0.40625 1.5625,0.9375 0.46875,0.53125 0.46875,1.21875 0,0.5625 -0.32812,1.04688 -0.32813,0.46875 -0.95313,0.76562 -0.625,0.28125 -1.57812,0.28125 z m 7.27575,-0.1875 v -0.53125 l 1.09375,-0.1875 q 0.0156,-0.5625 0.0156,-1.20312 0.0156,-0.65625 0.0156,-1.15625 v -6.4375 l -1.20312,-0.14063 v -0.51562 l 2.25,-0.65625 0.20312,0.10937 -0.0625,2.09375 v 2.59375 q 0.53125,-0.57812 1.09375,-0.84375 0.5625,-0.28125 1.17188,-0.28125 0.78125,0 1.40625,0.4375 0.625,0.42188 1,1.23438 0.375,0.79687 0.375,1.9375 0,1.125 -0.40625,1.96875 -0.39063,0.84375 -1.07813,1.3125 -0.67187,0.45312 -1.53125,0.45312 -0.51562,0 -1.03125,-0.21875 -0.51562,-0.21875 -1,-0.8125 l -0.10937,0.98438 z m 4.17188,-6.3125 q -0.32813,0 -0.76563,0.17188 -0.4375,0.17187 -1.04687,0.67187 v 4.01563 q 0.45312,0.42187 0.89062,0.625 0.45313,0.1875 0.85938,0.1875 0.76562,0 1.34375,-0.6875 0.59375,-0.6875 0.59375,-2.09375 0,-1.42188 -0.53125,-2.15625 -0.51563,-0.73438 -1.34375,-0.73438 z m 9.94107,6.45313 q -0.53125,0 -0.89063,-0.29688 -0.34375,-0.3125 -0.42187,-0.82812 -0.60938,0.59375 -1.0625,0.89062 -0.45313,0.28125 -1.09375,0.28125 -0.8125,0 -1.39063,-0.45312 -0.57812,-0.46875 -0.57812,-1.375 0,-0.42188 0.20312,-0.78125 0.20313,-0.375 0.71875,-0.71875 0.53125,-0.35938 1.51563,-0.71875 0.32812,-0.10938 0.76562,-0.23438 0.45313,-0.14062 0.89063,-0.25 v -0.35937 q 0,-1.07813 -0.32813,-1.42188 -0.3125,-0.35937 -1.04687,-0.35937 -0.17188,0 -0.375,0.0156 -0.1875,0.0156 -0.42188,0.0781 l -0.28125,0.95312 q -0.20312,0.70313 -0.76562,0.70313 -0.60938,0 -0.6875,-0.59375 0.21875,-0.84375 0.98437,-1.32813 0.76563,-0.5 1.875,-0.5 1.15625,0 1.71875,0.57813 0.5625,0.57812 0.5625,1.96875 v 3.125 q 0,0.46875 0.14063,0.67187 0.14062,0.20313 0.375,0.20313 0.20312,0 0.32812,-0.0937 0.14063,-0.0937 0.25,-0.23438 l 0.29688,0.32813 q -0.26563,0.42187 -0.57813,0.59375 -0.3125,0.15625 -0.70312,0.15625 z m -4.125,-2 q 0,0.57812 0.32812,0.82812 0.34375,0.25 0.84375,0.25 0.21875,0 0.40625,-0.0469 0.20313,-0.0625 0.48438,-0.23438 0.28125,-0.17187 0.71875,-0.48437 v -2.25 q -0.375,0.10937 -0.75,0.23437 -0.35938,0.125 -0.59375,0.20313 -0.64063,0.25 -0.95313,0.51562 -0.29687,0.26563 -0.39062,0.51563 -0.0937,0.25 -0.0937,0.46875 z m 9.39755,2.04687 q -1.5,0 -2.40625,-0.96875 -0.89062,-0.98437 -0.89062,-2.67187 0,-1.15625 0.46875,-1.98438 0.48437,-0.82812 1.26562,-1.26562 0.78125,-0.45313 1.65625,-0.45313 0.65625,0 1.21875,0.25 0.5625,0.25 0.92188,0.6875 0.35937,0.42188 0.45312,0.96875 -0.0937,0.5625 -0.67187,0.5625 -0.35938,0 -0.54688,-0.1875 -0.1875,-0.20312 -0.26562,-0.51562 l -0.26563,-0.96875 q -0.20312,-0.0781 -0.40625,-0.0937 -0.1875,-0.0312 -0.375,-0.0312 -0.9375,0 -1.54687,0.73437 -0.60938,0.73438 -0.60938,2.14063 0,1.375 0.65625,2.10937 0.65625,0.73438 1.6875,0.73438 0.625,0 1.15625,-0.28125 0.53125,-0.28125 0.85938,-0.82813 l 0.375,0.1875 q -0.3125,0.90625 -1,1.39063 -0.6875,0.48437 -1.73438,0.48437 z m 3.44409,-0.1875 v -0.53125 l 1.17188,-0.20312 q 0.0156,-0.57813 0.0156,-1.17188 0.0156,-0.59375 0.0156,-1.17187 v -6.4375 l -1.20313,-0.14063 v -0.51562 l 2.29688,-0.65625 0.20312,0.10937 -0.0625,2.09375 v 5.10938 l 2.51563,-2.60938 -1.09375,-0.26562 v -0.57813 h 3.42187 v 0.57813 l -1.375,0.20312 -1.625,1.65625 2.40625,3.82813 0.96875,0.17187 v 0.53125 h -1.98437 l -2.26563,-3.64062 -0.96875,1 q 0,0.46875 0,0.95312 0.0156,0.48438 0.0312,0.95313 l 1.17188,0.20312 v 0.53125 z m 16.03263,-6.39062 v -0.57813 h 2.67187 v 0.57813 l -0.78125,0.1875 -2.14062,6.29687 h -0.54688 l -1.90625,-5.20312 -1.9375,5.20312 h -0.54687 l -2.35938,-6.34375 -0.82812,-0.14062 v -0.57813 h 3.34375 v 0.57813 l -1.14063,0.17187 1.5,4.5 1.64063,-4.5 -1.07813,-0.17187 v -0.57813 h 3.23438 v 0.57813 l -1.07813,0.1875 1.67188,4.46875 1.35937,-4.45313 z m 8.68148,6.53125 q -0.53125,0 -0.89062,-0.29688 -0.34375,-0.3125 -0.42188,-0.82812 -0.60937,0.59375 -1.0625,0.89062 -0.45312,0.28125 -1.09375,0.28125 -0.8125,0 -1.39062,-0.45312 -0.57813,-0.46875 -0.57813,-1.375 0,-0.42188 0.20313,-0.78125 0.20312,-0.375 0.71875,-0.71875 0.53125,-0.35938 1.51562,-0.71875 0.32813,-0.10938 0.76563,-0.23438 0.45312,-0.14062 0.89062,-0.25 v -0.35937 q 0,-1.07813 -0.32812,-1.42188 -0.3125,-0.35937 -1.04688,-0.35937 -0.17187,0 -0.375,0.0156 -0.1875,0.0156 -0.42187,0.0781 l -0.28125,0.95312 q -0.20313,0.70313 -0.76563,0.70313 -0.60937,0 -0.6875,-0.59375 0.21875,-0.84375 0.98438,-1.32813 0.76562,-0.5 1.875,-0.5 1.15625,0 1.71875,0.57813 0.5625,0.57812 0.5625,1.96875 v 3.125 q 0,0.46875 0.14062,0.67187 0.14063,0.20313 0.375,0.20313 0.20313,0 0.32813,-0.0937 0.14062,-0.0937 0.25,-0.23438 l 0.29687,0.32813 q -0.26562,0.42187 -0.57812,0.59375 -0.3125,0.15625 -0.70313,0.15625 z m -4.125,-2 q 0,0.57812 0.32813,0.82812 0.34375,0.25 0.84375,0.25 0.21875,0 0.40625,-0.0469 0.20312,-0.0625 0.48437,-0.23438 0.28125,-0.17187 0.71875,-0.48437 v -2.25 q -0.375,0.10937 -0.75,0.23437 -0.35937,0.125 -0.59375,0.20313 -0.64062,0.25 -0.95312,0.51562 -0.29688,0.26563 -0.39063,0.51563 -0.0937,0.25 -0.0937,0.46875 z m 6.02735,1.85937 v -0.53125 l 1.0625,-0.1875 q 0.0156,-0.5625 0.0156,-1.20312 0.0156,-0.65625 0.0156,-1.15625 v -0.70313 q 0,-0.59375 -0.0156,-0.98437 0,-0.40625 -0.0312,-0.84375 l -1.15625,-0.14063 v -0.51562 l 2.04688,-0.89063 0.21875,0.15625 0.17187,1.71875 q 0.35938,-0.875 0.9375,-1.375 0.57813,-0.5 1.17188,-0.5 0.32812,0 0.625,0.15625 0.29687,0.14063 0.42187,0.39063 0,1.0625 -0.85937,1.0625 -0.25,0 -0.46875,-0.0937 -0.21875,-0.0937 -0.42188,-0.26563 l -0.1875,-0.15625 q -0.4375,0.3125 -0.73437,0.78125 -0.28125,0.46875 -0.46875,1.10938 v 1.09375 q 0,0.48437 0,1.14062 0,0.64063 0.0156,1.1875 l 1.20313,0.21875 v 0.53125 z m 7.42795,-3.4375 q 0,1.42188 0.57812,2.10938 0.57813,0.6875 1.45313,0.6875 0.48437,0 0.85937,-0.20313 0.375,-0.20312 0.78125,-0.65625 v -4.0625 q -0.5,-0.4375 -0.89062,-0.59375 -0.39063,-0.15625 -0.76563,-0.15625 -0.54687,0 -1.01562,0.29688 -0.45313,0.29687 -0.73438,0.9375 -0.26562,0.64062 -0.26562,1.64062 z m 3.8125,3.57813 -0.0937,-1 q -0.39063,0.5 -0.875,0.78125 -0.48438,0.26562 -1.17188,0.26562 -0.90625,0 -1.57812,-0.45312 -0.67188,-0.45313 -1.04688,-1.26563 -0.375,-0.8125 -0.375,-1.89062 0,-1.125 0.40625,-1.95313 0.42188,-0.84375 1.125,-1.3125 0.70313,-0.46875 1.59375,-0.46875 0.51563,0 0.98438,0.21875 0.48437,0.20313 0.9375,0.73438 v -3.3125 l -1.25,-0.14063 v -0.51562 l 2.28125,-0.65625 0.21875,0.10937 -0.0625,2.09375 v 7.92188 l 1.1875,0.17187 v 0.53125 z"
       fill-rule="nonzero"
       id="path21" />
    <path
       fill="#980000"
       d="m 244.07317,284.7415 h 142.5894 v 29.48032 h -142.5894 z"
       fill-rule="evenodd"
       id="path23" />
    <path
       fill="#ffffff"
       d="m 278.433,304.7804 q -1.48438,0 -2.60938,-0.64063 -1.10937,-0.65625 -1.73437,-1.8125 -0.625,-1.17187 -0.625,-2.67187 0,-1.125 0.375,-2.04688 0.375,-0.9375 1.03125,-1.625 0.67187,-0.6875 1.57812,-1.0625 0.90625,-0.39062 1.96875,-0.39062 0.60938,0 1.34375,0.14062 0.75,0.14063 1.48438,0.5625 l 0.0625,2.125 h -0.90625 l -0.29688,-1.6875 q -0.39062,-0.21875 -0.76562,-0.3125 -0.375,-0.0937 -0.73438,-0.0937 -0.98437,0 -1.79687,0.5 -0.79688,0.5 -1.28125,1.48438 -0.46875,0.96875 -0.46875,2.40625 0,1.4375 0.4375,2.42187 0.45312,0.96875 1.23437,1.46875 0.78125,0.5 1.78125,0.5 0.42188,0 0.85938,-0.0937 0.45312,-0.0937 0.875,-0.29687 l 0.29687,-1.70313 h 0.90625 l -0.0469,2.125 q -0.6875,0.35938 -1.4375,0.53125 -0.75,0.17188 -1.53125,0.17188 z m 6.71085,-0.0312 q -0.89063,0 -1.40625,-0.59375 -0.51563,-0.59375 -0.5,-2.04688 l 0.0469,-3.64062 -1.04687,-0.21875 v -0.53125 l 2.15625,-0.20313 0.15625,0.14063 -0.0781,2.0625 v 2.26562 q 0,0.95313 0.29688,1.34375 0.29687,0.39063 0.875,0.39063 1.03125,0 2.04687,-0.95313 l 0.0469,-4.3125 -1.03125,-0.20312 v -0.53125 l 2.125,-0.20313 0.14062,0.14063 -0.0469,2.0625 v 4.10937 l 1,0.20313 v 0.53125 l -2.03125,0.125 -0.15625,-1.3125 q -0.57813,0.71875 -1.25,1.04687 -0.67188,0.32813 -1.34375,0.32813 z m 5.88836,-0.1875 v -0.53125 l 1.0625,-0.1875 q 0.0156,-0.5625 0.0156,-1.20313 0.0156,-0.65625 0.0156,-1.15625 v -0.70312 q 0,-0.59375 -0.0156,-0.98438 0,-0.40625 -0.0312,-0.84375 l -1.15625,-0.14062 v -0.51563 l 2.04687,-0.89062 0.21875,0.15625 0.17188,1.71875 q 0.35937,-0.875 0.9375,-1.375 0.57812,-0.5 1.17187,-0.5 0.32813,0 0.625,0.15625 0.29688,0.14062 0.42188,0.39062 0,1.0625 -0.85938,1.0625 -0.25,0 -0.46875,-0.0937 -0.21875,-0.0937 -0.42187,-0.26562 l -0.1875,-0.15625 q -0.4375,0.3125 -0.73438,0.78125 -0.28125,0.46875 -0.46875,1.10937 v 1.09375 q 0,0.48438 0,1.14063 0,0.64062 0.0156,1.1875 l 1.20312,0.21875 v 0.53125 z m 6.19962,0 v -0.53125 l 1.0625,-0.1875 q 0.0156,-0.5625 0.0156,-1.20313 0.0156,-0.65625 0.0156,-1.15625 v -0.70312 q 0,-0.59375 -0.0156,-0.98438 0,-0.40625 -0.0312,-0.84375 l -1.15625,-0.14062 v -0.51563 l 2.04688,-0.89062 0.21875,0.15625 0.17187,1.71875 q 0.35938,-0.875 0.9375,-1.375 0.57813,-0.5 1.17188,-0.5 0.32812,0 0.625,0.15625 0.29687,0.14062 0.42187,0.39062 0,1.0625 -0.85937,1.0625 -0.25,0 -0.46875,-0.0937 -0.21875,-0.0937 -0.42188,-0.26562 l -0.1875,-0.15625 q -0.4375,0.3125 -0.73437,0.78125 -0.28125,0.46875 -0.46875,1.10937 v 1.09375 q 0,0.48438 0,1.14063 0,0.64062 0.0156,1.1875 l 1.20313,0.21875 v 0.53125 z m 9.38107,-6.48438 q -0.40625,0 -0.82812,0.23438 -0.40625,0.23437 -0.71875,0.75 -0.29688,0.51562 -0.375,1.35937 h 2.65625 q 0.53125,0 0.70312,-0.21875 0.17188,-0.21875 0.17188,-0.53125 0,-0.42187 -0.21875,-0.78125 -0.21875,-0.35937 -0.57813,-0.57812 -0.35937,-0.23438 -0.8125,-0.23438 z m -0.0156,6.67188 q -1.46875,0 -2.375,-0.95313 -0.89063,-0.96875 -0.89063,-2.65625 0,-1.125 0.45313,-1.95312 0.46875,-0.84375 1.23437,-1.3125 0.78125,-0.46875 1.6875,-0.46875 0.76563,0 1.375,0.34375 0.625,0.32812 0.98438,0.95312 0.35937,0.625 0.35937,1.51563 0,0.25 -0.0312,0.46875 -0.0156,0.20312 -0.0625,0.35937 h -4.67187 q 0.0312,1.34375 0.67187,2.04688 0.64063,0.70312 1.70313,0.70312 0.70312,0 1.17187,-0.28125 0.46875,-0.28125 0.85938,-0.73437 l 0.34375,0.26562 q -0.40625,0.78125 -1.10938,1.25 -0.70312,0.45313 -1.70312,0.45313 z m 4.1466,-0.1875 v -0.53125 l 1.07813,-0.20313 q 0.0156,-0.5625 0.0156,-1.20312 0.0156,-0.64063 0.0156,-1.14063 v -0.70312 q 0,-0.59375 -0.0156,-0.98438 0,-0.40625 -0.0312,-0.84375 l -1.15625,-0.14062 v -0.51563 l 2.04688,-0.89062 0.21875,0.15625 0.125,1.17187 q 0.53125,-0.59375 1.23437,-0.95312 0.71875,-0.375 1.39063,-0.375 0.95312,0 1.40625,0.64062 0.46875,0.64063 0.46875,2.07813 v 1.35937 q 0,0.5 0,1.14063 0.0156,0.64062 0.0312,1.20312 l 1.01562,0.20313 v 0.53125 h -3.39062 v -0.53125 l 1.07812,-0.20313 q 0.0156,-0.54687 0.0156,-1.1875 0.0156,-0.65625 0.0156,-1.15625 v -1.25 q 0,-1 -0.29687,-1.375 -0.28125,-0.39062 -0.92188,-0.39062 -0.5,0 -0.96875,0.20312 -0.46875,0.20313 -1.01562,0.67188 v 2.14062 q 0,0.48438 0,1.14063 0,0.64062 0.0156,1.20312 l 1.01563,0.20313 v 0.53125 z m 11.21463,0.1875 q -0.75,0 -1.21875,-0.40625 -0.45312,-0.40625 -0.45312,-1.26563 0,-0.28125 0,-0.54687 0.0156,-0.26563 0.0156,-0.6875 v -3.46875 h -1.21875 v -0.64063 l 1.3125,-0.15625 0.375,-1.96875 h 0.89063 l -0.0937,1.98438 h 1.98437 v 0.78125 h -2 v 4.54687 q 0,0.5625 0.21875,0.8125 0.21875,0.25 0.59375,0.25 0.25,0 0.46875,-0.0937 0.23438,-0.10937 0.5,-0.29687 l 0.35938,0.375 q -0.59375,0.78125 -1.73438,0.78125 z m 8.11573,0 q -0.625,0 -1.14063,-0.14063 -0.5,-0.14062 -1.04687,-0.40625 l -0.0625,-1.625 h 0.8125 l 0.26562,1.28125 q 0.51563,0.23438 1.1875,0.23438 0.84375,0 1.25,-0.29688 0.40625,-0.3125 0.40625,-0.8125 0,-0.46875 -0.34375,-0.75 -0.34375,-0.29687 -1.03125,-0.53125 l -0.67187,-0.25 q -0.79688,-0.29687 -1.28125,-0.76562 -0.48438,-0.46875 -0.48438,-1.20313 0,-0.54687 0.28125,-1.01562 0.29688,-0.46875 0.85938,-0.76563 0.57812,-0.29687 1.40625,-0.29687 0.59375,0 1.07812,0.15625 0.5,0.15625 0.96875,0.45312 l -0.0625,1.48438 h -0.75 l -0.23437,-1.17188 q -0.5,-0.25 -1.01563,-0.25 -0.67187,0 -1.01562,0.28125 -0.34375,0.26563 -0.34375,0.71875 0,0.48438 0.29687,0.73438 0.29688,0.25 1.04688,0.53125 l 0.45312,0.15625 q 1.09375,0.40625 1.5625,0.9375 0.46875,0.53125 0.46875,1.21875 0,0.5625 -0.32812,1.04687 -0.32813,0.46875 -0.95313,0.76563 -0.625,0.28125 -1.57812,0.28125 z m 6.42334,0 q -0.75,0 -1.21875,-0.40625 -0.45313,-0.40625 -0.45313,-1.26563 0,-0.28125 0,-0.54687 0.0156,-0.26563 0.0156,-0.6875 v -3.46875 h -1.21875 v -0.64063 l 1.3125,-0.15625 0.375,-1.96875 h 0.89062 l -0.0937,1.98438 h 1.98438 v 0.78125 h -2 v 4.54687 q 0,0.5625 0.21875,0.8125 0.21875,0.25 0.59375,0.25 0.25,0 0.46875,-0.0937 0.23437,-0.10937 0.5,-0.29687 l 0.35937,0.375 q -0.59375,0.78125 -1.73437,0.78125 z m 7.85705,-0.0469 q -0.53125,0 -0.89062,-0.29687 -0.34375,-0.3125 -0.42188,-0.82813 -0.60937,0.59375 -1.0625,0.89063 -0.45312,0.28125 -1.09375,0.28125 -0.8125,0 -1.39062,-0.45313 -0.57813,-0.46875 -0.57813,-1.375 0,-0.42187 0.20313,-0.78125 0.20312,-0.375 0.71875,-0.71875 0.53125,-0.35937 1.51562,-0.71875 0.32813,-0.10937 0.76563,-0.23437 0.45312,-0.14063 0.89062,-0.25 v -0.35938 q 0,-1.07812 -0.32812,-1.42187 -0.3125,-0.35938 -1.04688,-0.35938 -0.17187,0 -0.375,0.0156 -0.1875,0.0156 -0.42187,0.0781 l -0.28125,0.95313 q -0.20313,0.70312 -0.76563,0.70312 -0.60937,0 -0.6875,-0.59375 0.21875,-0.84375 0.98438,-1.32812 0.76562,-0.5 1.875,-0.5 1.15625,0 1.71875,0.57812 0.5625,0.57813 0.5625,1.96875 v 3.125 q 0,0.46875 0.14062,0.67188 0.14063,0.20312 0.375,0.20312 0.20313,0 0.32813,-0.0937 0.14062,-0.0937 0.25,-0.23437 l 0.29687,0.32812 q -0.26562,0.42188 -0.57812,0.59375 -0.3125,0.15625 -0.70313,0.15625 z m -4.125,-2 q 0,0.57813 0.32813,0.82813 0.34375,0.25 0.84375,0.25 0.21875,0 0.40625,-0.0469 0.20312,-0.0625 0.48437,-0.23437 0.28125,-0.17188 0.71875,-0.48438 v -2.25 q -0.375,0.10938 -0.75,0.23438 -0.35937,0.125 -0.59375,0.20312 -0.64062,0.25 -0.95312,0.51563 -0.29688,0.26562 -0.39063,0.51562 -0.0937,0.25 -0.0937,0.46875 z m 8.4913,2.04688 q -0.75,0 -1.21875,-0.40625 -0.45312,-0.40625 -0.45312,-1.26563 0,-0.28125 0,-0.54687 0.0156,-0.26563 0.0156,-0.6875 v -3.46875 h -1.21875 v -0.64063 l 1.3125,-0.15625 0.375,-1.96875 h 0.89063 l -0.0937,1.98438 h 1.98437 v 0.78125 h -2 v 4.54687 q 0,0.5625 0.21875,0.8125 0.21875,0.25 0.59375,0.25 0.25,0 0.46875,-0.0937 0.23438,-0.10937 0.5,-0.29687 l 0.35938,0.375 q -0.59375,0.78125 -1.73438,0.78125 z m 5.70081,-6.67188 q -0.40625,0 -0.82813,0.23438 -0.40625,0.23437 -0.71875,0.75 -0.29687,0.51562 -0.375,1.35937 h 2.65625 q 0.53125,0 0.70313,-0.21875 0.17187,-0.21875 0.17187,-0.53125 0,-0.42187 -0.21875,-0.78125 -0.21875,-0.35937 -0.57812,-0.57812 -0.35938,-0.23438 -0.8125,-0.23438 z m -0.0156,6.67188 q -1.46875,0 -2.375,-0.95313 -0.89062,-0.96875 -0.89062,-2.65625 0,-1.125 0.45312,-1.95312 0.46875,-0.84375 1.23438,-1.3125 0.78125,-0.46875 1.6875,-0.46875 0.76562,0 1.375,0.34375 0.625,0.32812 0.98437,0.95312 0.35938,0.625 0.35938,1.51563 0,0.25 -0.0312,0.46875 -0.0156,0.20312 -0.0625,0.35937 h -4.67188 q 0.0312,1.34375 0.67188,2.04688 0.64062,0.70312 1.70312,0.70312 0.70313,0 1.17188,-0.28125 0.46875,-0.28125 0.85937,-0.73437 l 0.34375,0.26562 q -0.40625,0.78125 -1.10937,1.25 -0.70313,0.45313 -1.70313,0.45313 z"
       fill-rule="nonzero"
       id="path25" />
    <path
       fill="#000000"
       fill-opacity="0"
       d="m 386.66257,240.51917 c 8.56061,0 12.84088,4.83466 17.12119,9.6693 4.2803,4.83465 8.5606,9.66929 17.12118,9.66929"
       fill-rule="evenodd"
       id="path27" />
    <path
       stroke="#595959"
       stroke-width="2"
       stroke-linejoin="round"
       stroke-linecap="butt"
       d="m 386.66257,240.51917 c 8.56061,0 12.84088,4.83466 17.12119,9.6693 1.07009,1.20866 2.14013,2.41732 3.27709,3.55044 0.56849,0.56656 1.15369,1.11423 1.76395,1.63359 0.15262,0.12982 0.30673,0.25789 0.46256,0.38405 0.0779,0.0631 0.15625,0.12567 0.23504,0.18776 l 0.0305,0.0237"
       fill-rule="evenodd"
       id="path29" />
    <path
       fill="#595959"
       stroke="#595959"
       stroke-width="2"
       stroke-linecap="butt"
       d="m 408.48206,259.09308 9.65695,-0.18307 -7.51535,-6.06713 z"
       fill-rule="evenodd"
       id="path31" />
    <path
       fill="#000000"
       fill-opacity="0"
       d="m 386.66257,270.0004 c 8.7403,0 13.11044,0.0157 17.48059,0.0315 4.37015,0.0157 8.7403,0.0315 17.48062,0.0315"
       fill-rule="evenodd"
       id="path33" />
    <path
       stroke="#1c4587"
       stroke-width="2"
       stroke-linejoin="round"
       stroke-linecap="butt"
       d="m 386.66257,270.0004 c 8.74033,0 13.11044,0.0157 17.48059,0.0315 l 5.48062,0.0167"
       fill-rule="evenodd"
       id="path35" />
    <path
       fill="#1c4587"
       stroke="#1c4587"
       stroke-width="2"
       stroke-linecap="butt"
       d="m 409.61972,273.35208 9.08026,-3.29227 -9.07214,-3.31466 z"
       fill-rule="evenodd"
       id="path37" />
    <path
       fill="#000000"
       fill-opacity="0"
       d="m 386.66257,299.48166 c 8.69128,0 13.03693,-4.40158 17.38257,-8.80316 4.34564,-4.40158 8.69128,-8.80316 17.3826,-8.80316"
       fill-rule="evenodd"
       id="path39" />
    <path
       stroke="#980000"
       stroke-width="2"
       stroke-linejoin="round"
       stroke-linecap="butt"
       d="m 386.66257,299.48166 c 8.69128,0 13.03696,-4.40158 17.3826,-8.80316 1.08639,-1.1004 2.17279,-2.20078 3.32712,-3.23239 0.57715,-0.51584 1.17126,-1.01444 1.79086,-1.48728 0.15494,-0.11819 0.31137,-0.2348 0.4696,-0.34964 l 0.31928,-0.22561"
       fill-rule="evenodd"
       id="path41" />
    <path
       fill="#980000"
       stroke="#980000"
       stroke-width="2"
       stroke-linecap="butt"
       d="m 410.9178,288.54272 7.7139,-5.81259 -9.64545,-0.50568 z"
       fill-rule="evenodd"
       id="path43" />
    <path
       fill="#595959"
       d="m 573.3381,225.77902 h 142.58942 v 29.4803 H 573.3381 Z"
       fill-rule="evenodd"
       id="path45" />
    <path
       fill="#ffffff"
       d="m 596.263,236.39604 v -0.60938 h 7.29688 l 0.10937,2.60938 h -0.84375 l -0.3125,-1.875 h -3.45312 q -0.0156,0.9375 -0.0156,1.875 0,0.9375 0,1.85937 h 2.14063 l 0.21875,-1.39062 h 0.67187 v 3.45312 h -0.67187 l -0.20313,-1.375 h -2.15625 q 0,1.09375 0,2.0625 0,0.95313 0.0156,1.85938 h 3.75 l 0.3125,-1.875 h 0.84375 l -0.10938,2.60937 H 596.263 v -0.59375 l 1.35938,-0.17187 q 0.0156,-0.92188 0.0156,-1.875 0,-0.95313 0,-1.90625 v -0.71875 q 0,-0.95313 0,-1.89063 0,-0.95312 -0.0156,-1.89062 z m 11.51923,6.26562 q 0.70312,0 1.09375,-0.51562 0.40625,-0.53125 0.40625,-1.34375 0,-0.76563 -0.375,-1.25 -0.375,-0.5 -1.0625,-0.5 -0.6875,0 -1.09375,0.5 -0.39063,0.5 -0.39063,1.3125 0,0.8125 0.375,1.3125 0.375,0.48437 1.04688,0.48437 z m 0.0312,0.59375 q -0.5625,0 -1.07813,-0.15625 -0.375,0.46875 -0.375,0.9375 0,0.28125 0.17188,0.46875 0.17187,0.17188 0.6875,0.17188 h 1.92187 q 1.20313,0 1.78125,0.5 0.57813,0.5 0.57813,1.39062 0,0.625 -0.40625,1.20313 -0.40625,0.59375 -1.21875,0.95312 -0.79688,0.375 -2,0.375 -1.59375,0 -2.3125,-0.5 -0.71875,-0.5 -0.71875,-1.26562 0,-0.46875 0.3125,-0.875 0.3125,-0.40625 1.125,-0.79688 -0.96875,-0.26562 -0.96875,-1.125 0,-0.34375 0.21875,-0.71875 0.23437,-0.39062 0.78125,-0.90625 -0.53125,-0.28125 -0.84375,-0.79687 -0.29688,-0.51563 -0.29688,-1.26563 0,-1.15625 0.75,-1.78125 0.76563,-0.625 1.90625,-0.625 1.15625,0 1.85938,0.57813 l 1.65625,-0.57813 0.21875,0.15625 v 0.92188 h -1.4375 q 0.34375,0.53125 0.34375,1.32812 0,1.15625 -0.76563,1.78125 -0.75,0.625 -1.89062,0.625 z m -1.76563,3.84375 q 0,0.71875 0.5,1.01563 0.51563,0.3125 1.39063,0.3125 1.20312,0 1.82812,-0.4375 0.625,-0.42188 0.625,-1.04688 0,-0.48437 -0.34375,-0.8125 -0.32812,-0.32812 -1.125,-0.32812 h -1.70312 q -0.15625,0 -0.3125,-0.0156 -0.14063,0 -0.29688,-0.0156 -0.29687,0.32812 -0.4375,0.64062 -0.125,0.3125 -0.125,0.6875 z m 6.46698,-1.5 v -0.53125 l 1.0625,-0.1875 q 0.0156,-0.5625 0.0156,-1.20312 0.0156,-0.65625 0.0156,-1.15625 v -0.70313 q 0,-0.59375 -0.0156,-0.98437 0,-0.40625 -0.0312,-0.84375 l -1.15625,-0.14063 v -0.51562 l 2.04687,-0.89063 0.21875,0.15625 0.17188,1.71875 q 0.35937,-0.875 0.9375,-1.375 0.57812,-0.5 1.17187,-0.5 0.32813,0 0.625,0.15625 0.29688,0.14063 0.42188,0.39063 0,1.0625 -0.85938,1.0625 -0.25,0 -0.46875,-0.0937 -0.21875,-0.0937 -0.42187,-0.26563 l -0.1875,-0.15625 q -0.4375,0.3125 -0.73438,0.78125 -0.28125,0.46875 -0.46875,1.10938 v 1.09375 q 0,0.48437 0,1.14062 0,0.64063 0.0156,1.1875 l 1.20312,0.21875 v 0.53125 z m 9.38104,-6.48437 q -0.40625,0 -0.82812,0.23437 -0.40625,0.23438 -0.71875,0.75 -0.29688,0.51563 -0.375,1.35938 h 2.65625 q 0.53125,0 0.70312,-0.21875 0.17188,-0.21875 0.17188,-0.53125 0,-0.42188 -0.21875,-0.78125 -0.21875,-0.35938 -0.57813,-0.57813 -0.35937,-0.23437 -0.8125,-0.23437 z m -0.0156,6.67187 q -1.46875,0 -2.375,-0.95312 -0.89063,-0.96875 -0.89063,-2.65625 0,-1.125 0.45313,-1.95313 0.46875,-0.84375 1.23437,-1.3125 0.78125,-0.46875 1.6875,-0.46875 0.76563,0 1.375,0.34375 0.625,0.32813 0.98438,0.95313 0.35937,0.625 0.35937,1.51562 0,0.25 -0.0312,0.46875 -0.0156,0.20313 -0.0625,0.35938 h -4.67187 q 0.0312,1.34375 0.67187,2.04687 0.64063,0.70313 1.70313,0.70313 0.70312,0 1.17187,-0.28125 0.46875,-0.28125 0.85938,-0.73438 l 0.34375,0.26563 q -0.40625,0.78125 -1.10938,1.25 -0.70312,0.45312 -1.70312,0.45312 z m 6.49035,0 q -0.625,0 -1.14062,-0.14062 -0.5,-0.14063 -1.04688,-0.40625 l -0.0625,-1.625 h 0.8125 l 0.26563,1.28125 q 0.51562,0.23437 1.1875,0.23437 0.84375,0 1.25,-0.29687 0.40625,-0.3125 0.40625,-0.8125 0,-0.46875 -0.34375,-0.75 -0.34375,-0.29688 -1.03125,-0.53125 l -0.67188,-0.25 q -0.79687,-0.29688 -1.28125,-0.76563 -0.48437,-0.46875 -0.48437,-1.20312 0,-0.54688 0.28125,-1.01563 0.29687,-0.46875 0.85937,-0.76562 0.57813,-0.29688 1.40625,-0.29688 0.59375,0 1.07813,0.15625 0.5,0.15625 0.96875,0.45313 l -0.0625,1.48437 h -0.75 l -0.23438,-1.17187 q -0.5,-0.25 -1.01562,-0.25 -0.67188,0 -1.01563,0.28125 -0.34375,0.26562 -0.34375,0.71875 0,0.48437 0.29688,0.73437 0.29687,0.25 1.04687,0.53125 l 0.45313,0.15625 q 1.09375,0.40625 1.5625,0.9375 0.46875,0.53125 0.46875,1.21875 0,0.5625 -0.32813,1.04688 -0.32812,0.46875 -0.95312,0.76562 -0.625,0.28125 -1.57813,0.28125 z m 6.36084,0 q -0.625,0 -1.14062,-0.14062 -0.5,-0.14063 -1.04688,-0.40625 l -0.0625,-1.625 h 0.8125 l 0.26563,1.28125 q 0.51562,0.23437 1.1875,0.23437 0.84375,0 1.25,-0.29687 0.40625,-0.3125 0.40625,-0.8125 0,-0.46875 -0.34375,-0.75 -0.34375,-0.29688 -1.03125,-0.53125 l -0.67188,-0.25 q -0.79687,-0.29688 -1.28125,-0.76563 -0.48437,-0.46875 -0.48437,-1.20312 0,-0.54688 0.28125,-1.01563 0.29687,-0.46875 0.85937,-0.76562 0.57813,-0.29688 1.40625,-0.29688 0.59375,0 1.07813,0.15625 0.5,0.15625 0.96875,0.45313 l -0.0625,1.48437 h -0.75 l -0.23438,-1.17187 q -0.5,-0.25 -1.01562,-0.25 -0.67188,0 -1.01563,0.28125 -0.34375,0.26562 -0.34375,0.71875 0,0.48437 0.29688,0.73437 0.29687,0.25 1.04687,0.53125 l 0.45313,0.15625 q 1.09375,0.40625 1.5625,0.9375 0.46875,0.53125 0.46875,1.21875 0,0.5625 -0.32813,1.04688 -0.32812,0.46875 -0.95312,0.76562 -0.625,0.28125 -1.57813,0.28125 z m 7.36951,-0.1875 v -0.53125 l 1.15625,-0.20312 q 0.0156,-0.57813 0.0156,-1.15625 0.0156,-0.59375 0.0156,-1.1875 v -3.10938 h -1.21875 v -0.64062 l 1.25,-0.15625 q 0.0937,-1.17188 0.3125,-1.89063 0.23438,-0.73437 0.78125,-1.28125 0.46875,-0.46875 0.98438,-0.64062 0.51562,-0.1875 1.01562,-0.1875 0.5,0 0.89063,0.1875 0.40625,0.1875 0.51562,0.60937 -0.0156,0.28125 -0.25,0.46875 -0.23437,0.1875 -0.65625,0.1875 -0.51562,0 -1.04687,-0.4375 l -0.40625,-0.3125 q -0.0625,0.0312 -0.125,0.0781 -0.0469,0.0469 -0.0937,0.0937 -0.375,0.375 -0.57813,1.15625 -0.1875,0.76562 -0.15625,1.98437 h 2.01563 v 0.78125 h -2 v 3.10938 q 0,0.59375 0,1.17187 0.0156,0.57813 0.0312,1.15625 l 1.32812,0.21875 v 0.53125 z m 8.4527,0.1875 q -0.84375,0 -1.625,-0.39062 -0.76563,-0.40625 -1.25,-1.21875 -0.48438,-0.82813 -0.48438,-2.01563 0,-1.21875 0.48438,-2.04687 0.48437,-0.82813 1.25,-1.25 0.78125,-0.42188 1.625,-0.42188 0.84375,0 1.60937,0.42188 0.78125,0.42187 1.26563,1.25 0.5,0.82812 0.5,2.04687 0,1.1875 -0.5,2.01563 -0.48438,0.8125 -1.26563,1.21875 -0.76562,0.39062 -1.60937,0.39062 z m 0,-0.65625 q 0.95312,0 1.46875,-0.75 0.51562,-0.76562 0.51562,-2.21875 0,-1.48437 -0.51562,-2.26562 -0.51563,-0.78125 -1.46875,-0.78125 -0.95313,0 -1.46875,0.78125 -0.5,0.78125 -0.5,2.26562 0,1.45313 0.5,2.21875 0.51562,0.75 1.46875,0.75 z m 4.64008,0.46875 v -0.53125 l 1.0625,-0.1875 q 0.0156,-0.5625 0.0156,-1.20312 0.0156,-0.65625 0.0156,-1.15625 v -0.70313 q 0,-0.59375 -0.0156,-0.98437 0,-0.40625 -0.0312,-0.84375 l -1.15625,-0.14063 v -0.51562 l 2.04688,-0.89063 0.21875,0.15625 0.17187,1.71875 q 0.35938,-0.875 0.9375,-1.375 0.57813,-0.5 1.17188,-0.5 0.32812,0 0.625,0.15625 0.29687,0.14063 0.42187,0.39063 0,1.0625 -0.85937,1.0625 -0.25,0 -0.46875,-0.0937 -0.21875,-0.0937 -0.42188,-0.26563 l -0.1875,-0.15625 q -0.4375,0.3125 -0.73437,0.78125 -0.28125,0.46875 -0.46875,1.10938 v 1.09375 q 0,0.48437 0,1.14062 0,0.64063 0.0156,1.1875 l 1.20313,0.21875 v 0.53125 z m 14.11193,-6.39062 v -0.57813 h 2.67188 v 0.57813 l -0.78125,0.1875 -2.14063,6.29687 h -0.54687 l -1.90625,-5.20312 -1.9375,5.20312 h -0.54688 l -2.35937,-6.34375 -0.82813,-0.14062 v -0.57813 h 3.34375 v 0.57813 l -1.14062,0.17187 1.5,4.5 1.64062,-4.5 -1.07812,-0.17187 v -0.57813 h 3.23437 v 0.57813 l -1.07812,0.1875 1.67187,4.46875 1.35938,-4.45313 z m 8.68146,6.53125 q -0.53125,0 -0.89062,-0.29688 -0.34375,-0.3125 -0.42188,-0.82812 -0.60937,0.59375 -1.0625,0.89062 -0.45312,0.28125 -1.09375,0.28125 -0.8125,0 -1.39062,-0.45312 -0.57813,-0.46875 -0.57813,-1.375 0,-0.42188 0.20313,-0.78125 0.20312,-0.375 0.71875,-0.71875 0.53125,-0.35938 1.51562,-0.71875 0.32813,-0.10938 0.76563,-0.23438 0.45312,-0.14062 0.89062,-0.25 v -0.35937 q 0,-1.07813 -0.32812,-1.42188 -0.3125,-0.35937 -1.04688,-0.35937 -0.17187,0 -0.375,0.0156 -0.1875,0.0156 -0.42187,0.0781 l -0.28125,0.95312 q -0.20313,0.70313 -0.76563,0.70313 -0.60937,0 -0.6875,-0.59375 0.21875,-0.84375 0.98438,-1.32813 0.76562,-0.5 1.875,-0.5 1.15625,0 1.71875,0.57813 0.5625,0.57812 0.5625,1.96875 v 3.125 q 0,0.46875 0.14062,0.67187 0.14063,0.20313 0.375,0.20313 0.20313,0 0.32813,-0.0937 0.14062,-0.0937 0.25,-0.23438 l 0.29687,0.32813 q -0.26562,0.42187 -0.57812,0.59375 -0.3125,0.15625 -0.70313,0.15625 z m -4.125,-2 q 0,0.57812 0.32813,0.82812 0.34375,0.25 0.84375,0.25 0.21875,0 0.40625,-0.0469 0.20312,-0.0625 0.48437,-0.23438 0.28125,-0.17187 0.71875,-0.48437 v -2.25 q -0.375,0.10937 -0.75,0.23437 -0.35937,0.125 -0.59375,0.20313 -0.64062,0.25 -0.95312,0.51562 -0.29688,0.26563 -0.39063,0.51563 -0.0937,0.25 -0.0937,0.46875 z m 6.02734,1.85937 v -0.53125 l 1.0625,-0.1875 q 0.0156,-0.5625 0.0156,-1.20312 0.0156,-0.65625 0.0156,-1.15625 v -0.70313 q 0,-0.59375 -0.0156,-0.98437 0,-0.40625 -0.0312,-0.84375 l -1.15625,-0.14063 v -0.51562 l 2.04687,-0.89063 0.21875,0.15625 0.17188,1.71875 q 0.35937,-0.875 0.9375,-1.375 0.57812,-0.5 1.17187,-0.5 0.32813,0 0.625,0.15625 0.29688,0.14063 0.42188,0.39063 0,1.0625 -0.85938,1.0625 -0.25,0 -0.46875,-0.0937 -0.21875,-0.0937 -0.42187,-0.26563 l -0.1875,-0.15625 q -0.4375,0.3125 -0.73438,0.78125 -0.28125,0.46875 -0.46875,1.10938 v 1.09375 q 0,0.48437 0,1.14062 0,0.64063 0.0156,1.1875 l 1.20312,0.21875 v 0.53125 z m 7.42798,-3.4375 q 0,1.42188 0.57813,2.10938 0.57812,0.6875 1.45312,0.6875 0.48438,0 0.85938,-0.20313 0.375,-0.20312 0.78125,-0.65625 v -4.0625 q -0.5,-0.4375 -0.89063,-0.59375 -0.39062,-0.15625 -0.76562,-0.15625 -0.54688,0 -1.01563,0.29688 -0.45312,0.29687 -0.73437,0.9375 -0.26563,0.64062 -0.26563,1.64062 z m 3.8125,3.57813 -0.0937,-1 q -0.39062,0.5 -0.875,0.78125 -0.48437,0.26562 -1.17187,0.26562 -0.90625,0 -1.57813,-0.45312 -0.67187,-0.45313 -1.04687,-1.26563 -0.375,-0.8125 -0.375,-1.89062 0,-1.125 0.40625,-1.95313 0.42187,-0.84375 1.125,-1.3125 0.70312,-0.46875 1.59375,-0.46875 0.51562,0 0.98437,0.21875 0.48438,0.20313 0.9375,0.73438 v -3.3125 l -1.25,-0.14063 v -0.51562 l 2.28125,-0.65625 0.21875,0.10937 -0.0625,2.09375 v 7.92188 l 1.1875,0.17187 v 0.53125 z"
       fill-rule="nonzero"
       id="path47" />
    <path
       fill="#1c4587"
       d="m 573.3381,255.26025 h 142.58942 v 29.48032 H 573.3381 Z"
       fill-rule="evenodd"
       id="path49" />
    <path
       fill="#ffffff"
       d="m 587.66705,265.8773 v -0.60938 h 4.15625 v 0.60938 l -1.35937,0.15625 q -0.0156,0.92187 -0.0156,1.875 0,0.95312 0,1.90625 v 0.71875 q 0,0.9375 0,1.89062 0,0.9375 0.0156,1.89063 l 1.35937,0.17187 v 0.59375 h -4.15625 v -0.59375 l 1.35938,-0.17187 q 0.0156,-0.92188 0.0156,-1.875 0,-0.95313 0,-1.90625 v -0.71875 q 0,-0.95313 0,-1.89063 0,-0.95312 -0.0156,-1.89062 z m 5.39063,9.20312 v -0.53125 l 1.07812,-0.20312 q 0.0156,-0.5625 0.0156,-1.20313 0.0156,-0.64062 0.0156,-1.14062 v -0.70313 q 0,-0.59375 -0.0156,-0.98437 0,-0.40625 -0.0312,-0.84375 l -1.15625,-0.14063 v -0.51562 l 2.04687,-0.89063 0.21875,0.15625 0.125,1.17188 q 0.53125,-0.59375 1.23438,-0.95313 0.71875,-0.375 1.39062,-0.375 0.95313,0 1.40625,0.64063 0.46875,0.64062 0.46875,2.07812 v 1.35938 q 0,0.5 0,1.14062 0.0156,0.64063 0.0312,1.20313 l 1.01563,0.20312 v 0.53125 h -3.39063 v -0.53125 l 1.07813,-0.20312 q 0.0156,-0.54688 0.0156,-1.1875 0.0156,-0.65625 0.0156,-1.15625 v -1.25 q 0,-1 -0.29688,-1.375 -0.28125,-0.39063 -0.92187,-0.39063 -0.5,0 -0.96875,0.20313 -0.46875,0.20312 -1.01563,0.67187 v 2.14063 q 0,0.48437 0,1.14062 0,0.64063 0.0156,1.20313 l 1.01562,0.20312 v 0.53125 z m 11.75671,-2.9375 q 0.70312,0 1.09375,-0.51562 0.40625,-0.53125 0.40625,-1.34375 0,-0.76563 -0.375,-1.25 -0.375,-0.5 -1.0625,-0.5 -0.6875,0 -1.09375,0.5 -0.39063,0.5 -0.39063,1.3125 0,0.8125 0.375,1.3125 0.375,0.48437 1.04688,0.48437 z m 0.0312,0.59375 q -0.5625,0 -1.07813,-0.15625 -0.375,0.46875 -0.375,0.9375 0,0.28125 0.17188,0.46875 0.17187,0.17188 0.6875,0.17188 h 1.92187 q 1.20313,0 1.78125,0.5 0.57813,0.5 0.57813,1.39062 0,0.625 -0.40625,1.20313 -0.40625,0.59375 -1.21875,0.95312 -0.79688,0.375 -2,0.375 -1.59375,0 -2.3125,-0.5 -0.71875,-0.5 -0.71875,-1.26562 0,-0.46875 0.3125,-0.875 0.3125,-0.40625 1.125,-0.79688 -0.96875,-0.26562 -0.96875,-1.125 0,-0.34375 0.21875,-0.71875 0.23437,-0.39062 0.78125,-0.90625 -0.53125,-0.28125 -0.84375,-0.79687 -0.29688,-0.51563 -0.29688,-1.26563 0,-1.15625 0.75,-1.78125 0.76563,-0.625 1.90625,-0.625 1.15625,0 1.85938,0.57813 l 1.65625,-0.57813 0.21875,0.15625 v 0.92188 h -1.4375 q 0.34375,0.53125 0.34375,1.32812 0,1.15625 -0.76563,1.78125 -0.75,0.625 -1.89062,0.625 z m -1.76563,3.84375 q 0,0.71875 0.5,1.01563 0.51563,0.3125 1.39063,0.3125 1.20312,0 1.82812,-0.4375 0.625,-0.42188 0.625,-1.04688 0,-0.48437 -0.34375,-0.8125 -0.32812,-0.32812 -1.125,-0.32812 h -1.70312 q -0.15625,0 -0.3125,-0.0156 -0.14063,0 -0.29688,-0.0156 -0.29687,0.32812 -0.4375,0.64062 -0.125,0.3125 -0.125,0.6875 z m 6.46698,-1.5 v -0.53125 l 1.0625,-0.1875 q 0.0156,-0.5625 0.0156,-1.20312 0.0156,-0.65625 0.0156,-1.15625 v -0.70313 q 0,-0.59375 -0.0156,-0.98437 0,-0.40625 -0.0312,-0.84375 l -1.15625,-0.14063 v -0.51562 l 2.04687,-0.89063 0.21875,0.15625 0.17188,1.71875 q 0.35937,-0.875 0.9375,-1.375 0.57812,-0.5 1.17187,-0.5 0.32813,0 0.625,0.15625 0.29688,0.14063 0.42188,0.39063 0,1.0625 -0.85938,1.0625 -0.25,0 -0.46875,-0.0937 -0.21875,-0.0937 -0.42187,-0.26563 l -0.1875,-0.15625 q -0.4375,0.3125 -0.73438,0.78125 -0.28125,0.46875 -0.46875,1.10938 v 1.09375 q 0,0.48437 0,1.14062 0,0.64063 0.0156,1.1875 l 1.20312,0.21875 v 0.53125 z m 9.38105,-6.48437 q -0.40625,0 -0.82813,0.23437 -0.40625,0.23438 -0.71875,0.75 -0.29687,0.51563 -0.375,1.35938 h 2.65625 q 0.53125,0 0.70313,-0.21875 0.17187,-0.21875 0.17187,-0.53125 0,-0.42188 -0.21875,-0.78125 -0.21875,-0.35938 -0.57812,-0.57813 -0.35938,-0.23437 -0.8125,-0.23437 z m -0.0156,6.67187 q -1.46875,0 -2.375,-0.95312 -0.89062,-0.96875 -0.89062,-2.65625 0,-1.125 0.45312,-1.95313 0.46875,-0.84375 1.23438,-1.3125 0.78125,-0.46875 1.6875,-0.46875 0.76562,0 1.375,0.34375 0.625,0.32813 0.98437,0.95313 0.35938,0.625 0.35938,1.51562 0,0.25 -0.0312,0.46875 -0.0156,0.20313 -0.0625,0.35938 h -4.67188 q 0.0312,1.34375 0.67188,2.04687 0.64062,0.70313 1.70312,0.70313 0.70313,0 1.17188,-0.28125 0.46875,-0.28125 0.85937,-0.73438 l 0.34375,0.26563 q -0.40625,0.78125 -1.10937,1.25 -0.70313,0.45312 -1.70313,0.45312 z m 6.49036,0 q -0.625,0 -1.14063,-0.14062 -0.5,-0.14063 -1.04687,-0.40625 l -0.0625,-1.625 h 0.8125 l 0.26562,1.28125 q 0.51563,0.23437 1.1875,0.23437 0.84375,0 1.25,-0.29687 0.40625,-0.3125 0.40625,-0.8125 0,-0.46875 -0.34375,-0.75 -0.34375,-0.29688 -1.03125,-0.53125 l -0.67187,-0.25 q -0.79688,-0.29688 -1.28125,-0.76563 -0.48438,-0.46875 -0.48438,-1.20312 0,-0.54688 0.28125,-1.01563 0.29688,-0.46875 0.85938,-0.76562 0.57812,-0.29688 1.40625,-0.29688 0.59375,0 1.07812,0.15625 0.5,0.15625 0.96875,0.45313 l -0.0625,1.48437 h -0.75 l -0.23437,-1.17187 q -0.5,-0.25 -1.01563,-0.25 -0.67187,0 -1.01562,0.28125 -0.34375,0.26562 -0.34375,0.71875 0,0.48437 0.29687,0.73437 0.29688,0.25 1.04688,0.53125 l 0.45312,0.15625 q 1.09375,0.40625 1.5625,0.9375 0.46875,0.53125 0.46875,1.21875 0,0.5625 -0.32812,1.04688 -0.32813,0.46875 -0.95313,0.76562 -0.625,0.28125 -1.57812,0.28125 z m 6.36084,0 q -0.625,0 -1.14063,-0.14062 -0.5,-0.14063 -1.04687,-0.40625 l -0.0625,-1.625 h 0.8125 l 0.26562,1.28125 q 0.51563,0.23437 1.1875,0.23437 0.84375,0 1.25,-0.29687 0.40625,-0.3125 0.40625,-0.8125 0,-0.46875 -0.34375,-0.75 -0.34375,-0.29688 -1.03125,-0.53125 l -0.67187,-0.25 q -0.79688,-0.29688 -1.28125,-0.76563 -0.48438,-0.46875 -0.48438,-1.20312 0,-0.54688 0.28125,-1.01563 0.29688,-0.46875 0.85938,-0.76562 0.57812,-0.29688 1.40625,-0.29688 0.59375,0 1.07812,0.15625 0.5,0.15625 0.96875,0.45313 l -0.0625,1.48437 h -0.75 l -0.23437,-1.17187 q -0.5,-0.25 -1.01563,-0.25 -0.67187,0 -1.01562,0.28125 -0.34375,0.26562 -0.34375,0.71875 0,0.48437 0.29687,0.73437 0.29688,0.25 1.04688,0.53125 l 0.45312,0.15625 q 1.09375,0.40625 1.5625,0.9375 0.46875,0.53125 0.46875,1.21875 0,0.5625 -0.32812,1.04688 -0.32813,0.46875 -0.95313,0.76562 -0.625,0.28125 -1.57812,0.28125 z m 7.27575,-0.1875 v -0.53125 l 1.09375,-0.1875 q 0.0156,-0.5625 0.0156,-1.20312 0.0156,-0.65625 0.0156,-1.15625 v -6.4375 l -1.20312,-0.14063 v -0.51562 l 2.25,-0.65625 0.20312,0.10937 -0.0625,2.09375 v 2.59375 q 0.53125,-0.57812 1.09375,-0.84375 0.5625,-0.28125 1.17188,-0.28125 0.78125,0 1.40625,0.4375 0.625,0.42188 1,1.23438 0.375,0.79687 0.375,1.9375 0,1.125 -0.40625,1.96875 -0.39063,0.84375 -1.07813,1.3125 -0.67187,0.45312 -1.53125,0.45312 -0.51562,0 -1.03125,-0.21875 -0.51562,-0.21875 -1,-0.8125 l -0.10937,0.98438 z m 4.17188,-6.3125 q -0.32813,0 -0.76563,0.17188 -0.4375,0.17187 -1.04687,0.67187 v 4.01563 q 0.45312,0.42187 0.89062,0.625 0.45313,0.1875 0.85938,0.1875 0.76562,0 1.34375,-0.6875 0.59375,-0.6875 0.59375,-2.09375 0,-1.42188 -0.53125,-2.15625 -0.51563,-0.73438 -1.34375,-0.73438 z m 9.9411,6.45313 q -0.53125,0 -0.89062,-0.29688 -0.34375,-0.3125 -0.42188,-0.82812 -0.60937,0.59375 -1.0625,0.89062 -0.45312,0.28125 -1.09375,0.28125 -0.8125,0 -1.39062,-0.45312 -0.57813,-0.46875 -0.57813,-1.375 0,-0.42188 0.20313,-0.78125 0.20312,-0.375 0.71875,-0.71875 0.53125,-0.35938 1.51562,-0.71875 0.32813,-0.10938 0.76563,-0.23438 0.45312,-0.14062 0.89062,-0.25 v -0.35937 q 0,-1.07813 -0.32812,-1.42188 -0.3125,-0.35937 -1.04688,-0.35937 -0.17187,0 -0.375,0.0156 -0.1875,0.0156 -0.42187,0.0781 l -0.28125,0.95312 q -0.20313,0.70313 -0.76563,0.70313 -0.60937,0 -0.6875,-0.59375 0.21875,-0.84375 0.98438,-1.32813 0.76562,-0.5 1.875,-0.5 1.15625,0 1.71875,0.57813 0.5625,0.57812 0.5625,1.96875 v 3.125 q 0,0.46875 0.14062,0.67187 0.14063,0.20313 0.375,0.20313 0.20313,0 0.32813,-0.0937 0.14062,-0.0937 0.25,-0.23438 l 0.29687,0.32813 q -0.26562,0.42187 -0.57812,0.59375 -0.3125,0.15625 -0.70313,0.15625 z m -4.125,-2 q 0,0.57812 0.32813,0.82812 0.34375,0.25 0.84375,0.25 0.21875,0 0.40625,-0.0469 0.20312,-0.0625 0.48437,-0.23438 0.28125,-0.17187 0.71875,-0.48437 v -2.25 q -0.375,0.10937 -0.75,0.23437 -0.35937,0.125 -0.59375,0.20313 -0.64062,0.25 -0.95312,0.51562 -0.29688,0.26563 -0.39063,0.51563 -0.0937,0.25 -0.0937,0.46875 z m 9.39752,2.04687 q -1.5,0 -2.40625,-0.96875 -0.89062,-0.98437 -0.89062,-2.67187 0,-1.15625 0.46875,-1.98438 0.48437,-0.82812 1.26562,-1.26562 0.78125,-0.45313 1.65625,-0.45313 0.65625,0 1.21875,0.25 0.5625,0.25 0.92188,0.6875 0.35937,0.42188 0.45312,0.96875 -0.0937,0.5625 -0.67187,0.5625 -0.35938,0 -0.54688,-0.1875 -0.1875,-0.20312 -0.26562,-0.51562 l -0.26563,-0.96875 q -0.20312,-0.0781 -0.40625,-0.0937 -0.1875,-0.0312 -0.375,-0.0312 -0.9375,0 -1.54687,0.73437 -0.60938,0.73438 -0.60938,2.14063 0,1.375 0.65625,2.10937 0.65625,0.73438 1.6875,0.73438 0.625,0 1.15625,-0.28125 0.53125,-0.28125 0.85938,-0.82813 l 0.375,0.1875 q -0.3125,0.90625 -1,1.39063 -0.6875,0.48437 -1.73438,0.48437 z m 3.44409,-0.1875 v -0.53125 l 1.17188,-0.20312 q 0.0156,-0.57813 0.0156,-1.17188 0.0156,-0.59375 0.0156,-1.17187 v -6.4375 l -1.20313,-0.14063 v -0.51562 l 2.29688,-0.65625 0.20312,0.10937 -0.0625,2.09375 v 5.10938 l 2.51563,-2.60938 -1.09375,-0.26562 v -0.57813 h 3.42187 v 0.57813 l -1.375,0.20312 -1.625,1.65625 2.40625,3.82813 0.96875,0.17187 v 0.53125 h -1.98437 l -2.26563,-3.64062 -0.96875,1 q 0,0.46875 0,0.95312 0.0156,0.48438 0.0312,0.95313 l 1.17188,0.20312 v 0.53125 z m 16.0326,-6.39062 v -0.57813 h 2.67187 v 0.57813 l -0.78125,0.1875 -2.14062,6.29687 h -0.54688 l -1.90625,-5.20312 -1.9375,5.20312 h -0.54687 l -2.35938,-6.34375 -0.82812,-0.14062 v -0.57813 h 3.34375 v 0.57813 l -1.14063,0.17187 1.5,4.5 1.64063,-4.5 -1.07813,-0.17187 v -0.57813 h 3.23438 v 0.57813 l -1.07813,0.1875 1.67188,4.46875 1.35937,-4.45313 z m 8.68152,6.53125 q -0.53125,0 -0.89063,-0.29688 -0.34375,-0.3125 -0.42187,-0.82812 -0.60938,0.59375 -1.0625,0.89062 -0.45313,0.28125 -1.09375,0.28125 -0.8125,0 -1.39063,-0.45312 -0.57812,-0.46875 -0.57812,-1.375 0,-0.42188 0.20312,-0.78125 0.20313,-0.375 0.71875,-0.71875 0.53125,-0.35938 1.51563,-0.71875 0.32812,-0.10938 0.76562,-0.23438 0.45313,-0.14062 0.89063,-0.25 v -0.35937 q 0,-1.07813 -0.32813,-1.42188 -0.3125,-0.35937 -1.04687,-0.35937 -0.17188,0 -0.375,0.0156 -0.1875,0.0156 -0.42188,0.0781 l -0.28125,0.95312 q -0.20312,0.70313 -0.76562,0.70313 -0.60938,0 -0.6875,-0.59375 0.21875,-0.84375 0.98437,-1.32813 0.76563,-0.5 1.875,-0.5 1.15625,0 1.71875,0.57813 0.5625,0.57812 0.5625,1.96875 v 3.125 q 0,0.46875 0.14063,0.67187 0.14062,0.20313 0.375,0.20313 0.20312,0 0.32812,-0.0937 0.14063,-0.0937 0.25,-0.23438 l 0.29688,0.32813 q -0.26563,0.42187 -0.57813,0.59375 -0.3125,0.15625 -0.70312,0.15625 z m -4.125,-2 q 0,0.57812 0.32812,0.82812 0.34375,0.25 0.84375,0.25 0.21875,0 0.40625,-0.0469 0.20313,-0.0625 0.48438,-0.23438 0.28125,-0.17187 0.71875,-0.48437 v -2.25 q -0.375,0.10937 -0.75,0.23437 -0.35938,0.125 -0.59375,0.20313 -0.64063,0.25 -0.95313,0.51562 -0.29687,0.26563 -0.39062,0.51563 -0.0937,0.25 -0.0937,0.46875 z m 6.02734,1.85937 v -0.53125 l 1.0625,-0.1875 q 0.0156,-0.5625 0.0156,-1.20312 0.0156,-0.65625 0.0156,-1.15625 v -0.70313 q 0,-0.59375 -0.0156,-0.98437 0,-0.40625 -0.0312,-0.84375 l -1.15625,-0.14063 v -0.51562 l 2.04687,-0.89063 0.21875,0.15625 0.17188,1.71875 q 0.35937,-0.875 0.9375,-1.375 0.57812,-0.5 1.17187,-0.5 0.32813,0 0.625,0.15625 0.29688,0.14063 0.42188,0.39063 0,1.0625 -0.85938,1.0625 -0.25,0 -0.46875,-0.0937 -0.21875,-0.0937 -0.42187,-0.26563 l -0.1875,-0.15625 q -0.4375,0.3125 -0.73438,0.78125 -0.28125,0.46875 -0.46875,1.10938 v 1.09375 q 0,0.48437 0,1.14062 0,0.64063 0.0156,1.1875 l 1.20312,0.21875 v 0.53125 z m 7.42798,-3.4375 q 0,1.42188 0.57812,2.10938 0.57813,0.6875 1.45313,0.6875 0.48437,0 0.85937,-0.20313 0.375,-0.20312 0.78125,-0.65625 v -4.0625 q -0.5,-0.4375 -0.89062,-0.59375 -0.39063,-0.15625 -0.76563,-0.15625 -0.54687,0 -1.01562,0.29688 -0.45313,0.29687 -0.73438,0.9375 -0.26562,0.64062 -0.26562,1.64062 z m 3.8125,3.57813 -0.0937,-1 q -0.39063,0.5 -0.875,0.78125 -0.48438,0.26562 -1.17188,0.26562 -0.90625,0 -1.57812,-0.45312 -0.67188,-0.45313 -1.04688,-1.26563 -0.375,-0.8125 -0.375,-1.89062 0,-1.125 0.40625,-1.95313 0.42188,-0.84375 1.125,-1.3125 0.70313,-0.46875 1.59375,-0.46875 0.51563,0 0.98438,0.21875 0.48437,0.20313 0.9375,0.73438 v -3.3125 l -1.25,-0.14063 v -0.51562 l 2.28125,-0.65625 0.21875,0.10937 -0.0625,2.09375 v 7.92188 l 1.1875,0.17187 v 0.53125 z"
       fill-rule="nonzero"
       id="path51" />
    <path
       fill="#980000"
       d="m 573.3381,284.7415 h 142.58942 v 29.48032 H 573.3381 Z"
       fill-rule="evenodd"
       id="path53" />
    <path
       fill="#ffffff"
       d="m 618.8987,295.35852 v -0.60938 h 3.53125 v 0.60938 l -1.25,0.1875 v 9.125 h -0.51563 l -5.85937,-8 v 7.07812 l 1.5625,0.21875 v 0.59375 h -3.54688 v -0.59375 l 1.23438,-0.1875 v -8.125 l -0.125,-0.1875 -1.04688,-0.10937 v -0.60938 h 2.26563 l 5.28125,7.28125 v -6.48437 z m 7.87762,2.71875 q -0.40625,0 -0.82812,0.23437 -0.40625,0.23438 -0.71875,0.75 -0.29688,0.51563 -0.375,1.35938 h 2.65625 q 0.53125,0 0.70312,-0.21875 0.17188,-0.21875 0.17188,-0.53125 0,-0.42188 -0.21875,-0.78125 -0.21875,-0.35938 -0.57813,-0.57813 -0.35937,-0.23437 -0.8125,-0.23437 z m -0.0156,6.67187 q -1.46875,0 -2.375,-0.95312 -0.89063,-0.96875 -0.89063,-2.65625 0,-1.125 0.45313,-1.95313 0.46875,-0.84375 1.23437,-1.3125 0.78125,-0.46875 1.6875,-0.46875 0.76563,0 1.375,0.34375 0.625,0.32813 0.98438,0.95313 0.35937,0.625 0.35937,1.51562 0,0.25 -0.0312,0.46875 -0.0156,0.20313 -0.0625,0.35938 h -4.67187 q 0.0312,1.34375 0.67187,2.04687 0.64063,0.70313 1.70313,0.70313 0.70312,0 1.17187,-0.28125 0.46875,-0.28125 0.85938,-0.73438 l 0.34375,0.26563 q -0.40625,0.78125 -1.10938,1.25 -0.70312,0.45312 -1.70312,0.45312 z m 8.17786,-6.57812 v -0.57813 h 2.75 v 0.57813 l -0.875,0.15625 -2.09375,2.57812 2.04687,2.92188 1.10938,0.20312 v 0.53125 h -3.57813 v -0.53125 l 1.04688,-0.1875 -1.4375,-2.09375 -1.60938,2.09375 1.09375,0.1875 v 0.53125 h -2.9375 v -0.53125 l 0.9375,-0.17187 2.14063,-2.65625 -1.95313,-2.875 -1.01562,-0.15625 v -0.57813 h 3.26562 v 0.57813 l -0.89062,0.15625 1.40625,2.04687 1.5625,-2.01562 z m 6.08416,6.57812 q -0.75,0 -1.21875,-0.40625 -0.45312,-0.40625 -0.45312,-1.26562 0,-0.28125 0,-0.54688 0.0156,-0.26562 0.0156,-0.6875 v -3.46875 h -1.21875 v -0.64062 l 1.3125,-0.15625 0.375,-1.96875 h 0.89063 l -0.0937,1.98437 h 1.98437 v 0.78125 h -2 v 4.54688 q 0,0.5625 0.21875,0.8125 0.21875,0.25 0.59375,0.25 0.25,0 0.46875,-0.0937 0.23438,-0.10938 0.5,-0.29688 l 0.35938,0.375 q -0.59375,0.78125 -1.73438,0.78125 z m 8.11573,0 q -0.625,0 -1.14063,-0.14062 -0.5,-0.14063 -1.04687,-0.40625 l -0.0625,-1.625 h 0.8125 l 0.26562,1.28125 q 0.51563,0.23437 1.1875,0.23437 0.84375,0 1.25,-0.29687 0.40625,-0.3125 0.40625,-0.8125 0,-0.46875 -0.34375,-0.75 -0.34375,-0.29688 -1.03125,-0.53125 l -0.67187,-0.25 q -0.79688,-0.29688 -1.28125,-0.76563 -0.48438,-0.46875 -0.48438,-1.20312 0,-0.54688 0.28125,-1.01563 0.29688,-0.46875 0.85938,-0.76562 0.57812,-0.29688 1.40625,-0.29688 0.59375,0 1.07812,0.15625 0.5,0.15625 0.96875,0.45313 l -0.0625,1.48437 h -0.75 l -0.23437,-1.17187 q -0.5,-0.25 -1.01563,-0.25 -0.67187,0 -1.01562,0.28125 -0.34375,0.26562 -0.34375,0.71875 0,0.48437 0.29687,0.73437 0.29688,0.25 1.04688,0.53125 l 0.45312,0.15625 q 1.09375,0.40625 1.5625,0.9375 0.46875,0.53125 0.46875,1.21875 0,0.5625 -0.32812,1.04688 -0.32813,0.46875 -0.95313,0.76562 -0.625,0.28125 -1.57812,0.28125 z m 6.42334,0 q -0.75,0 -1.21875,-0.40625 -0.45313,-0.40625 -0.45313,-1.26562 0,-0.28125 0,-0.54688 0.0156,-0.26562 0.0156,-0.6875 v -3.46875 h -1.21875 v -0.64062 l 1.3125,-0.15625 0.375,-1.96875 h 0.89062 l -0.0937,1.98437 h 1.98438 v 0.78125 h -2 v 4.54688 q 0,0.5625 0.21875,0.8125 0.21875,0.25 0.59375,0.25 0.25,0 0.46875,-0.0937 0.23437,-0.10938 0.5,-0.29688 l 0.35937,0.375 q -0.59375,0.78125 -1.73437,0.78125 z m 7.85705,-0.0469 q -0.53125,0 -0.89062,-0.29688 -0.34375,-0.3125 -0.42188,-0.82812 -0.60937,0.59375 -1.0625,0.89062 -0.45312,0.28125 -1.09375,0.28125 -0.8125,0 -1.39062,-0.45312 -0.57813,-0.46875 -0.57813,-1.375 0,-0.42188 0.20313,-0.78125 0.20312,-0.375 0.71875,-0.71875 0.53125,-0.35938 1.51562,-0.71875 0.32813,-0.10938 0.76563,-0.23438 0.45312,-0.14062 0.89062,-0.25 v -0.35937 q 0,-1.07813 -0.32812,-1.42188 -0.3125,-0.35937 -1.04688,-0.35937 -0.17187,0 -0.375,0.0156 -0.1875,0.0156 -0.42187,0.0781 l -0.28125,0.95312 q -0.20313,0.70313 -0.76563,0.70313 -0.60937,0 -0.6875,-0.59375 0.21875,-0.84375 0.98438,-1.32813 0.76562,-0.5 1.875,-0.5 1.15625,0 1.71875,0.57813 0.5625,0.57812 0.5625,1.96875 v 3.125 q 0,0.46875 0.14062,0.67187 0.14063,0.20313 0.375,0.20313 0.20313,0 0.32813,-0.0937 0.14062,-0.0937 0.25,-0.23438 l 0.29687,0.32813 q -0.26562,0.42187 -0.57812,0.59375 -0.3125,0.15625 -0.70313,0.15625 z m -4.125,-2 q 0,0.57812 0.32813,0.82812 0.34375,0.25 0.84375,0.25 0.21875,0 0.40625,-0.0469 0.20312,-0.0625 0.48437,-0.23438 0.28125,-0.17187 0.71875,-0.48437 v -2.25 q -0.375,0.10937 -0.75,0.23437 -0.35937,0.125 -0.59375,0.20313 -0.64062,0.25 -0.95312,0.51562 -0.29688,0.26563 -0.39063,0.51563 -0.0937,0.25 -0.0937,0.46875 z m 8.49133,2.04687 q -0.75,0 -1.21875,-0.40625 -0.45312,-0.40625 -0.45312,-1.26562 0,-0.28125 0,-0.54688 0.0156,-0.26562 0.0156,-0.6875 v -3.46875 h -1.21875 v -0.64062 l 1.3125,-0.15625 0.375,-1.96875 h 0.89063 l -0.0937,1.98437 h 1.98437 v 0.78125 h -2 v 4.54688 q 0,0.5625 0.21875,0.8125 0.21875,0.25 0.59375,0.25 0.25,0 0.46875,-0.0937 0.23438,-0.10938 0.5,-0.29688 l 0.35938,0.375 q -0.59375,0.78125 -1.73438,0.78125 z m 5.70081,-6.67187 q -0.40625,0 -0.82812,0.23437 -0.40625,0.23438 -0.71875,0.75 -0.29688,0.51563 -0.375,1.35938 h 2.65625 q 0.53125,0 0.70312,-0.21875 0.17188,-0.21875 0.17188,-0.53125 0,-0.42188 -0.21875,-0.78125 -0.21875,-0.35938 -0.57813,-0.57813 -0.35937,-0.23437 -0.8125,-0.23437 z m -0.0156,6.67187 q -1.46875,0 -2.375,-0.95312 -0.89063,-0.96875 -0.89063,-2.65625 0,-1.125 0.45313,-1.95313 0.46875,-0.84375 1.23437,-1.3125 0.78125,-0.46875 1.6875,-0.46875 0.76563,0 1.375,0.34375 0.625,0.32813 0.98438,0.95313 0.35937,0.625 0.35937,1.51562 0,0.25 -0.0312,0.46875 -0.0156,0.20313 -0.0625,0.35938 h -4.67187 q 0.0312,1.34375 0.67187,2.04687 0.64063,0.70313 1.70313,0.70313 0.70312,0 1.17187,-0.28125 0.46875,-0.28125 0.85938,-0.73438 l 0.34375,0.26563 q -0.40625,0.78125 -1.10938,1.25 -0.70312,0.45312 -1.70312,0.45312 z"
       fill-rule="nonzero"
       id="path55" />
    <path
       fill="#000000"
       fill-opacity="0"
       d="m 539.22644,261.30658 c 8.52789,0 12.79187,-5.19687 17.05579,-10.39371 4.26397,-5.19685 8.52795,-10.3937 17.05584,-10.3937"
       fill-rule="evenodd"
       id="path57" />
    <path
       stroke="#595959"
       stroke-width="2"
       stroke-linejoin="round"
       stroke-linecap="butt"
       d="m 539.22644,261.30658 c 8.52789,0 12.79187,-5.19687 17.05579,-10.39371 1.06597,-1.29921 2.13195,-2.59842 3.26458,-3.81643 0.56635,-0.60901 1.1493,-1.19771 1.75727,-1.75597 0.15197,-0.13956 0.30548,-0.27724 0.46075,-0.41283 0.0776,-0.0678 0.15564,-0.13507 0.23413,-0.20184 l 0.0767,-0.0643"
       fill-rule="evenodd"
       id="path59" />
    <path
       fill="#595959"
       stroke="#595959"
       stroke-width="2"
       stroke-linecap="butt"
       d="m 563.216,247.76187 7.37799,-6.23343 -9.65863,0.0326 z"
       fill-rule="evenodd"
       id="path61" />
    <path
       fill="#000000"
       fill-opacity="0"
       d="m 538.3769,269.9374 c 8.74029,0 13.11041,0.0157 17.48059,0.0315 4.37018,0.0158 8.74029,0.0315 17.48059,0.0315"
       fill-rule="evenodd"
       id="path63" />
    <path
       stroke="#1c4587"
       stroke-width="2"
       stroke-linejoin="round"
       stroke-linecap="butt"
       d="m 538.3769,269.9374 c 8.74029,0 13.11041,0.0157 17.48059,0.0315 l 5.48059,0.0167"
       fill-rule="evenodd"
       id="path65" />
    <path
       fill="#1c4587"
       stroke="#1c4587"
       stroke-width="2"
       stroke-linecap="butt"
       d="m 561.33405,273.2891 9.08026,-3.2923 -9.07214,-3.31463 z"
       fill-rule="evenodd"
       id="path67" />
    <path
       fill="#000000"
       fill-opacity="0"
       d="m 538.7363,281.87534 c 8.65039,0 12.97565,4.40158 17.30084,8.80316 4.32526,4.40158 8.65045,8.80316 17.3009,8.80316"
       fill-rule="evenodd"
       id="path69" />
    <path
       stroke="#980000"
       stroke-width="2"
       stroke-linejoin="round"
       stroke-linecap="butt"
       d="m 538.7363,281.87534 c 8.65039,0 12.97565,4.40158 17.30084,8.80316 1.08136,1.1004 2.16266,2.20078 3.31153,3.23242 0.57446,0.51581 1.16577,1.01441 1.78247,1.48725 0.15417,0.11819 0.30987,0.2348 0.4674,0.34964 l 0.27344,0.19415"
       fill-rule="evenodd"
       id="path71" />
    <path
       fill="#980000"
       stroke="#980000"
       stroke-width="2"
       stroke-linecap="butt"
       d="m 560.8976,299.09845 9.64679,-0.47925 -7.69794,-5.83371 z"
       fill-rule="evenodd"
       id="path73" />
    <path
       fill="#cccccc"
       d="m 428.6134,258.3339 v 0 c -1.04556,-5.62312 2.38727,-11.18968 8.84183,-14.33757 6.45456,-3.14789 14.79889,-3.32504 21.49212,-0.45628 v 0 c 2.37097,-3.26952 6.71051,-5.52689 11.706,-6.08931 4.99551,-0.56243 10.06021,0.63617 13.66217,3.23321 v 0 c 2.01974,-2.96435 5.98556,-4.95602 10.49014,-5.26826 4.50461,-0.31223 8.91049,1.09916 11.6542,3.73333 v 0 c 3.64896,-3.14219 9.45456,-4.46521 14.9047,-3.39653 5.45013,1.06868 9.56586,4.3371 10.56634,8.39098 v 0 c 4.47058,0.89241 8.19452,3.16101 10.2096,6.21968 2.01507,3.05867 2.12372,6.60735 0.29773,9.7292 v 0 c 4.40222,4.19297 5.43207,9.78003 2.70508,14.67624 -2.72693,4.89618 -8.80097,8.36588 -15.95533,9.11429 -0.0504,4.59525 -3.49414,8.8118 -9.00384,11.02438 -5.50964,2.21262 -12.22492,2.07578 -17.5574,-0.35778 v 0 c -2.27137,5.5036 -8.66449,9.5531 -16.4173,10.39895 -7.75281,0.84589 -15.47547,-1.66354 -19.83151,-6.44406 v 0 c -5.3396,2.35632 -11.74665,3.03513 -17.77588,1.88324 -6.02924,-1.15189 -11.17276,-4.03744 -14.27033,-8.00568 v 0 c -5.45639,0.46726 -10.73196,-1.60156 -13.20849,-5.17971 -2.4765,-3.57819 -1.62674,-7.904 2.12753,-10.83057 v 0 c -4.86725,-2.09643 -7.35083,-6.2565 -6.15561,-10.31085 1.19519,-4.05435 5.79831,-7.08426 11.40903,-7.50977 z"
       fill-rule="evenodd"
       id="path75" />
    <path
       fill="#000000"
       fill-opacity="0"
       d="m 423.25214,276.37125 v 0 c 2.29684,0.98932 4.95029,1.43811 7.60397,1.2861 m 3.4758,14.72452 c 1.14121,-0.0977 2.25977,-0.30469 3.32691,-0.61551 m 28.71771,6.7377 c -0.80264,-0.88086 -1.47467,-1.82214 -2.00458,-2.8078 m 38.25476,-1.14724 v 0 c 0.41409,-1.00339 0.68241,-2.03611 0.80045,-3.08091 m 25.75979,-7.58532 c 0.0537,-4.89237 -3.74334,-9.37186 -9.76019,-11.51441 m 23.01032,-12.2756 c -0.97443,1.66592 -2.46198,3.14377 -4.34601,4.31763 m -6.1604,-20.26694 v 0 c 0.16601,0.67274 0.24286,1.3556 0.22943,2.03911 m -25.70005,-7.03334 v 0 c -0.91024,0.78382 -1.66015,1.65972 -2.22637,2.60046 m -19.91819,-1.06589 v 0 c -0.48507,0.71195 -0.84729,1.4653 -1.0783,2.24272 m -24.29023,0.61344 v 0 c 1.41629,0.60702 2.72657,1.33764 3.90201,2.17582 m -34.23556,12.61811 v 0 c 0.1441,0.77502 0.37179,1.54046 0.68097,2.28921"
       fill-rule="evenodd"
       id="path77" />
    <path
       stroke="#595959"
       stroke-width="2"
       stroke-linejoin="round"
       stroke-linecap="butt"
       d="m 428.6134,258.3339 v 0 c -1.04556,-5.62312 2.38727,-11.18968 8.84183,-14.33757 6.45456,-3.14789 14.79889,-3.32504 21.49212,-0.45628 v 0 c 2.37097,-3.26952 6.71051,-5.52689 11.706,-6.08931 4.99551,-0.56243 10.06021,0.63617 13.66217,3.23321 v 0 c 2.01974,-2.96435 5.98556,-4.95602 10.49014,-5.26826 4.50461,-0.31223 8.91049,1.09916 11.6542,3.73333 v 0 c 3.64896,-3.14219 9.45456,-4.46521 14.9047,-3.39653 5.45013,1.06868 9.56586,4.3371 10.56634,8.39098 v 0 c 4.47058,0.89241 8.19452,3.16101 10.2096,6.21968 2.01507,3.05867 2.12372,6.60735 0.29773,9.7292 v 0 c 4.40222,4.19297 5.43207,9.78003 2.70508,14.67624 -2.72693,4.89618 -8.80097,8.36588 -15.95533,9.11429 -0.0504,4.59525 -3.49414,8.8118 -9.00384,11.02438 -5.50964,2.21262 -12.22492,2.07578 -17.5574,-0.35778 v 0 c -2.27137,5.5036 -8.66449,9.5531 -16.4173,10.39895 -7.75281,0.84589 -15.47547,-1.66354 -19.83151,-6.44406 v 0 c -5.3396,2.35632 -11.74665,3.03513 -17.77588,1.88324 -6.02924,-1.15189 -11.17276,-4.03744 -14.27033,-8.00568 v 0 c -5.45639,0.46726 -10.73196,-1.60156 -13.20849,-5.17971 -2.4765,-3.57819 -1.62674,-7.904 2.12753,-10.83057 v 0 c -4.86725,-2.09643 -7.35083,-6.2565 -6.15561,-10.31085 1.19519,-4.05435 5.79831,-7.08426 11.40903,-7.50977 z"
       fill-rule="evenodd"
       id="path79" />
    <path
       stroke="#595959"
       stroke-width="2"
       stroke-linejoin="round"
       stroke-linecap="butt"
       d="m 423.25214,276.37125 v 0 c 2.29684,0.98932 4.95029,1.43811 7.60397,1.2861 m 3.4758,14.72452 c 1.14121,-0.0977 2.25977,-0.30469 3.32691,-0.61551 m 28.71771,6.7377 c -0.80264,-0.88086 -1.47467,-1.82214 -2.00458,-2.8078 m 38.25476,-1.14724 v 0 c 0.41409,-1.00339 0.68241,-2.03611 0.80045,-3.08091 m 25.75979,-7.58532 c 0.0537,-4.89237 -3.74334,-9.37186 -9.76019,-11.51441 m 23.01032,-12.2756 c -0.97443,1.66592 -2.46198,3.14377 -4.34601,4.31763 m -6.1604,-20.26694 v 0 c 0.16601,0.67274 0.24286,1.3556 0.22943,2.03911 m -25.70005,-7.03334 v 0 c -0.91024,0.78382 -1.66015,1.65972 -2.22637,2.60046 m -19.91819,-1.06589 v 0 c -0.48507,0.71195 -0.84729,1.4653 -1.0783,2.24272 m -24.29023,0.61344 v 0 c 1.41629,0.60702 2.72657,1.33764 3.90201,2.17582 m -34.23556,12.61811 v 0 c 0.1441,0.77502 0.37179,1.54046 0.68097,2.28921"
       fill-rule="evenodd"
       id="path81" />
    <path
       fill="#000000"
       d="m 456.00238,276.14655 q -2.1875,0 -3.5,-1.42188 -1.29687,-1.4375 -1.29687,-3.89062 0,-1.6875 0.6875,-2.89063 0.70312,-1.20312 1.82812,-1.84375 1.14063,-0.64062 2.42188,-0.64062 0.95312,0 1.76562,0.35937 0.8125,0.35938 1.34375,1 0.53125,0.625 0.65625,1.40625 -0.14062,0.8125 -0.98437,0.8125 -0.53125,0 -0.79688,-0.28125 -0.26562,-0.29687 -0.375,-0.73437 l -0.375,-1.40625 q -0.29687,-0.10938 -0.59375,-0.14063 -0.28125,-0.0312 -0.5625,-0.0312 -1.35937,0 -2.25,1.0625 -0.89062,1.0625 -0.89062,3.10938 0,2.01562 0.95312,3.07812 0.96875,1.0625 2.46875,1.0625 0.92188,0 1.6875,-0.40625 0.76563,-0.42187 1.25,-1.21875 l 0.53125,0.28125 q -0.4375,1.32813 -1.45312,2.03125 -1,0.70313 -2.51563,0.70313 z m 10.56442,0 q -1.23437,0 -2.35937,-0.57813 -1.10938,-0.59375 -1.82813,-1.78125 -0.70312,-1.1875 -0.70312,-2.9375 0,-1.76562 0.70312,-2.96875 0.71875,-1.20312 1.82813,-1.8125 1.125,-0.60937 2.35937,-0.60937 1.23438,0 2.35938,0.60937 1.125,0.60938 1.82812,1.8125 0.71875,1.20313 0.71875,2.96875 0,1.75 -0.71875,2.9375 -0.70312,1.1875 -1.82812,1.78125 -1.125,0.57813 -2.35938,0.57813 z m 0,-0.96875 q 1.39063,0 2.125,-1.09375 0.75,-1.09375 0.75,-3.23438 0,-2.15625 -0.75,-3.28125 -0.73437,-1.125 -2.125,-1.125 -1.39062,0 -2.125,1.125 -0.73437,1.125 -0.73437,3.28125 0,2.14063 0.73437,3.23438 0.73438,1.09375 2.125,1.09375 z m 6.7248,0.6875 v -0.76563 l 1.57812,-0.29687 q 0.0156,-0.8125 0.0156,-1.75 0.0156,-0.9375 0.0156,-1.67188 v -1.01562 q 0,-0.875 -0.0156,-1.45313 0,-0.57812 -0.0469,-1.21875 l -1.6875,-0.1875 v -0.75 l 3,-1.29687 0.3125,0.21875 0.17188,1.71875 q 0.75,-0.85938 1.75,-1.39063 1,-0.54687 1.98437,-0.54687 1,0 1.625,0.46875 0.625,0.46875 0.90625,1.53125 0.8125,-1 1.8125,-1.5 1,-0.5 2.04688,-0.5 1.3125,0 2.01562,0.875 0.71875,0.875 0.71875,2.85937 v 2.1875 q 0,0.73438 0,1.67188 0.0156,0.9375 0.0469,1.75 l 1.48437,0.29687 v 0.76563 h -4.9375 v -0.76563 l 1.57813,-0.29687 q 0.0156,-0.79688 0.0156,-1.73438 0.0156,-0.95312 0.0156,-1.6875 v -1.84375 q 0,-1.5 -0.42188,-2.01562 -0.42187,-0.53125 -1.35937,-0.53125 -0.67188,0 -1.35938,0.29687 -0.6875,0.29688 -1.5,1.04688 0.0156,0.23437 0.0312,0.5 0.0156,0.26562 0.0156,0.5625 v 1.98437 q 0,0.73438 0,1.67188 0.0156,0.9375 0.0312,1.75 l 1.5,0.29687 v 0.76563 h -4.95313 v -0.76563 l 1.57813,-0.29687 q 0.0156,-0.79688 0.0312,-1.73438 0.0156,-0.95312 0.0156,-1.6875 v -1.8125 q 0,-1.4375 -0.40625,-2 -0.40625,-0.57812 -1.34375,-0.57812 -0.71875,0 -1.39062,0.29687 -0.65625,0.29688 -1.45313,0.98438 v 3.10937 q 0,0.70313 0.0156,1.65625 0.0156,0.95313 0.0312,1.76563 l 1.46875,0.29687 v 0.76563 z m 18.99798,0 v -0.76563 l 1.59375,-0.28125 q 0.0312,-0.8125 0.0312,-1.75 0.0156,-0.95312 0.0156,-1.6875 v -9.35937 l -1.75,-0.21875 v -0.73438 l 3.26562,-0.96875 0.29688,0.17188 -0.0781,3.03125 v 3.79687 q 0.76563,-0.85937 1.57813,-1.25 0.82812,-0.39062 1.70312,-0.39062 1.125,0 2.04688,0.625 0.92187,0.60937 1.45312,1.78125 0.54688,1.17187 0.54688,2.84375 0,1.64062 -0.57813,2.875 -0.57812,1.21875 -1.5625,1.89062 -0.98437,0.67188 -2.25,0.67188 -0.75,0 -1.5,-0.3125 -0.73437,-0.32813 -1.4375,-1.20313 l -0.17187,1.45313 z m 6.07813,-9.1875 q -0.48438,0 -1.125,0.25 -0.64063,0.25 -1.51563,0.98437 v 5.84375 q 0.65625,0.60938 1.29688,0.89063 0.64062,0.28125 1.23437,0.28125 1.125,0 1.96875,-0.98438 0.84375,-1 0.84375,-3.0625 0,-2.04687 -0.76562,-3.125 -0.75,-1.07812 -1.9375,-1.07812 z"
       fill-rule="nonzero"
       id="path83" />
  </g>
</svg>
